<?xml version="1.0" encoding="UTF-8" standalone="no"?>
<!DOCTYPE svg PUBLIC "-//W3C//DTD SVG 1.1//EN"
 "http://www.w3.org/Graphics/SVG/1.1/DTD/svg11.dtd">
<!-- Generated by graphviz version 2.38.0 (20140413.2041)
 -->
<!-- Title: nars.entity.Item.toStringBrief Pages: 1 -->
<svg width="326pt" height="116pt"
 viewBox="0.00 0.00 326.00 116.00" xmlns="http://www.w3.org/2000/svg" xmlns:xlink="http://www.w3.org/1999/xlink">
<g id="graph0" class="graph" transform="scale(1 1) rotate(0) translate(4 112)">
<title>nars.entity.Item.toStringBrief</title>
<!-- Node475 -->
<g id="node1" class="node"><title>Node475</title>
<polygon fill="#bfbfbf" stroke="black" points="0,-39 0,-69 122,-69 122,-39 0,-39"/>
<text text-anchor="start" x="8" y="-57" font-family="Helvetica,sans-Serif" font-size="10.00">nars.entity.Item.toString</text>
<text text-anchor="middle" x="61" y="-46" font-family="Helvetica,sans-Serif" font-size="10.00">Brief</text>
</g>
<!-- Node476 -->
<g id="node2" class="node"><title>Node476</title>
<g id="a_node2"><a xlink:href="../../d5/ddf/a00224.html#a73b96cd17fd93eeab0cc94bd36f25e66" target="_top" xlink:title="Get a String representation of the Task. ">
<polygon fill="none" stroke="black" points="176,-88.5 176,-107.5 300,-107.5 300,-88.5 176,-88.5"/>
<text text-anchor="middle" x="238" y="-95.5" font-family="Helvetica,sans-Serif" font-size="10.00">nars.entity.Task.toString</text>
</a>
</g>
</g>
<!-- Node475&#45;&gt;Node476 -->
<g id="edge1" class="edge"><title>Node475&#45;&gt;Node476</title>
<path fill="none" stroke="midnightblue" d="M128.773,-71.5607C138.568,-74.0866 148.54,-76.6308 158,-79 170.589,-82.1528 184.333,-85.4934 196.775,-88.4796"/>
<polygon fill="midnightblue" stroke="midnightblue" points="129.621,-68.1649 119.063,-69.048 127.868,-74.9417 129.621,-68.1649"/>
</g>
<!-- Node477 -->
<g id="node3" class="node"><title>Node477</title>
<g id="a_node3"><a xlink:href="../../d6/db8/a00376.html#a4106abcc906c5ae1ce6828b0a88a1cca" target="_top" xlink:title="Collect Bag content into a String for display. ">
<polygon fill="none" stroke="black" points="169.5,-39 169.5,-69 306.5,-69 306.5,-39 169.5,-39"/>
<text text-anchor="start" x="177.5" y="-57" font-family="Helvetica,sans-Serif" font-size="10.00">nars.storage.Bag&lt; Concept</text>
<text text-anchor="middle" x="238" y="-46" font-family="Helvetica,sans-Serif" font-size="10.00"> &gt;::toString</text>
</a>
</g>
</g>
<!-- Node475&#45;&gt;Node477 -->
<g id="edge2" class="edge"><title>Node475&#45;&gt;Node477</title>
<path fill="none" stroke="midnightblue" d="M132.371,-54C144.605,-54 157.305,-54 169.462,-54"/>
<polygon fill="midnightblue" stroke="midnightblue" points="132.225,-50.5001 122.225,-54 132.225,-57.5001 132.225,-50.5001"/>
</g>
<!-- Node478 -->
<g id="node4" class="node"><title>Node478</title>
<g id="a_node4"><a xlink:href="../../d7/ded/a00196.html#a121514592016f7350b5a741db6465798" target="_top" xlink:title="called from NARSBatch ">
<polygon fill="none" stroke="black" points="158,-0.5 158,-19.5 318,-19.5 318,-0.5 158,-0.5"/>
<text text-anchor="middle" x="238" y="-7.5" font-family="Helvetica,sans-Serif" font-size="10.00">nars.entity.Concept.toStringLong</text>
</a>
</g>
</g>
<!-- Node475&#45;&gt;Node478 -->
<g id="edge3" class="edge"><title>Node475&#45;&gt;Node478</title>
<path fill="none" stroke="midnightblue" d="M131.499,-36.5259C154.576,-30.7237 179.4,-24.4824 199.167,-19.5124"/>
<polygon fill="midnightblue" stroke="midnightblue" points="130.58,-33.1479 121.736,-38.9808 132.287,-39.9366 130.58,-33.1479"/>
</g>
</g>
</svg>
