<?xml version="1.0" encoding="UTF-8" standalone="no"?>
<!DOCTYPE svg PUBLIC "-//W3C//DTD SVG 1.1//EN"
 "http://www.w3.org/Graphics/SVG/1.1/DTD/svg11.dtd">
<!-- Generated by graphviz version 2.38.0 (20140413.2041)
 -->
<!-- Title: nars.entity.Item.setQuality Pages: 1 -->
<!--zoomable 88 -->
<svg id="main" version="1.1" xmlns="http://www.w3.org/2000/svg" xmlns:xlink="http://www.w3.org/1999/xlink" xml:space="preserve" onload="init(evt)">
<style type="text/css"><![CDATA[
.edge:hover path { stroke: red; }
.edge:hover polygon { stroke: red; fill: red; }
]]></style>
<script type="text/javascript"><![CDATA[
var edges = document.getElementsByTagName('g');
if (edges && edges.length) {
  for (var i=0;i<edges.length;i++) {
    if (edges[i].id.substr(0,4)=='edge') {
      edges[i].setAttribute('class','edge');
    }
  }
}
]]></script>
        <defs>
                <circle id="rim" cx="0" cy="0" r="7"/>
                <circle id="rim2" cx="0" cy="0" r="3.5"/>
                <g id="zoomPlus">
                        <use xlink:href="#rim" fill="#404040">
                                <set attributeName="fill" to="#808080" begin="zoomplus.mouseover" end="zoomplus.mouseout"/>
                        </use>
                        <path d="M-4,0h8M0,-4v8" fill="none" stroke="white" stroke-width="1.5" pointer-events="none"/>
                </g>
                <g id="zoomMin">
                        <use xlink:href="#rim" fill="#404040">
                                <set attributeName="fill" to="#808080" begin="zoomminus.mouseover" end="zoomminus.mouseout"/>
                        </use>
                        <path d="M-4,0h8" fill="none" stroke="white" stroke-width="1.5" pointer-events="none"/>
                </g>
                <g id="dirArrow">
                        <path fill="none" stroke="white" stroke-width="1.5" d="M0,-3.0v7 M-2.5,-0.5L0,-3.0L2.5,-0.5"/>
                </g>
               <g id="resetDef">
                       <use xlink:href="#rim2" fill="#404040">
                               <set attributeName="fill" to="#808080" begin="reset.mouseover" end="reset.mouseout"/>
                       </use>
               </g>
        </defs>

<script type="text/javascript">
var viewWidth = 2533;
var viewHeight = 88;
var sectionId = 'dynsection-27';
</script>
<script xlink:href="../../svgpan.js"/>
<svg id="graph" class="graph">
<g id="viewport">
<title>nars.entity.Item.setQuality</title>
<!-- Node451 -->
<g id="node1" class="node"><title>Node451</title>
<polygon fill="#bfbfbf" stroke="black" points="0,-30 0,-49 132,-49 132,-30 0,-30"/>
<text text-anchor="middle" x="66" y="-37" font-family="Helvetica,sans-Serif" font-size="10.00">nars.entity.Item.setQuality</text>
</g>
<!-- Node452 -->
<g id="node2" class="node"><title>Node452</title>
<g id="a_node2"><a xlink:href="../../d9/d21/a00240.html#aabac530761ea7ac0f43f0d1ea8d085c8" target="_top" xlink:title="Activate a concept by an incoming TaskLink. ">
<polygon fill="none" stroke="black" points="168,-30 168,-49 360,-49 360,-30 168,-30"/>
<text text-anchor="middle" x="264" y="-37" font-family="Helvetica,sans-Serif" font-size="10.00">nars.inference.BudgetFunctions.activate</text>
</a>
</g>
</g>
<!-- Node451&#45;&gt;Node452 -->
<g id="edge1" class="edge"><title>Node451&#45;&gt;Node452</title>
<path fill="none" stroke="midnightblue" d="M142.364,-39.5C150.752,-39.5 159.375,-39.5 167.967,-39.5"/>
<polygon fill="midnightblue" stroke="midnightblue" points="142.265,-36.0001 132.265,-39.5 142.265,-43.0001 142.265,-36.0001"/>
</g>
<!-- Node453 -->
<g id="node3" class="node"><title>Node453</title>
<g id="a_node3"><a xlink:href="../../d4/d27/a00392.html#a7affdc42dcb55d27d76cf636eab6230f" target="_top" xlink:title="Adjust the activation level of a Concept. ">
<polygon fill="none" stroke="black" points="396,-24.5 396,-54.5 542,-54.5 542,-24.5 396,-24.5"/>
<text text-anchor="start" x="404" y="-42.5" font-family="Helvetica,sans-Serif" font-size="10.00">nars.storage.Memory.activate</text>
<text text-anchor="middle" x="469" y="-31.5" font-family="Helvetica,sans-Serif" font-size="10.00">Concept</text>
</a>
</g>
</g>
<!-- Node452&#45;&gt;Node453 -->
<g id="edge2" class="edge"><title>Node452&#45;&gt;Node453</title>
<path fill="none" stroke="midnightblue" d="M370.354,-39.5C378.952,-39.5 387.512,-39.5 395.789,-39.5"/>
<polygon fill="midnightblue" stroke="midnightblue" points="370.259,-36.0001 360.259,-39.5 370.259,-43.0001 370.259,-36.0001"/>
</g>
<!-- Node454 -->
<g id="node4" class="node"><title>Node454</title>
<g id="a_node4"><a xlink:href="../../d7/ded/a00196.html#aef21f5ae7bef5194bd37ae526302843d" target="_top" xlink:title="Insert a TaskLink into the TaskLink bag. ">
<polygon fill="none" stroke="black" points="578,-24.5 578,-54.5 707,-54.5 707,-24.5 578,-24.5"/>
<text text-anchor="start" x="586" y="-42.5" font-family="Helvetica,sans-Serif" font-size="10.00">nars.entity.Concept.insert</text>
<text text-anchor="middle" x="642.5" y="-31.5" font-family="Helvetica,sans-Serif" font-size="10.00">TaskLink</text>
</a>
</g>
</g>
<!-- Node453&#45;&gt;Node454 -->
<g id="edge3" class="edge"><title>Node453&#45;&gt;Node454</title>
<path fill="none" stroke="midnightblue" d="M552.261,-39.5C560.838,-39.5 569.461,-39.5 577.787,-39.5"/>
<polygon fill="midnightblue" stroke="midnightblue" points="552.234,-36.0001 542.234,-39.5 552.234,-43.0001 552.234,-36.0001"/>
</g>
<!-- Node455 -->
<g id="node5" class="node"><title>Node455</title>
<g id="a_node5"><a xlink:href="../../d7/ded/a00196.html#a501121a11fc046eea4b69720cb622d84" target="_top" xlink:title="Link to a new task from all relevant concepts for continued processing in the near future for unspeci...">
<polygon fill="none" stroke="black" points="743,-24.5 743,-54.5 863,-54.5 863,-24.5 743,-24.5"/>
<text text-anchor="start" x="751" y="-42.5" font-family="Helvetica,sans-Serif" font-size="10.00">nars.entity.Concept.link</text>
<text text-anchor="middle" x="803" y="-31.5" font-family="Helvetica,sans-Serif" font-size="10.00">ToTask</text>
</a>
</g>
</g>
<!-- Node454&#45;&gt;Node455 -->
<g id="edge4" class="edge"><title>Node454&#45;&gt;Node455</title>
<path fill="none" stroke="midnightblue" d="M717.1,-39.5C725.714,-39.5 734.417,-39.5 742.799,-39.5"/>
<polygon fill="midnightblue" stroke="midnightblue" points="717.055,-36.0001 707.055,-39.5 717.055,-43.0001 717.055,-36.0001"/>
</g>
<!-- Node456 -->
<g id="node6" class="node"><title>Node456</title>
<g id="a_node6"><a xlink:href="../../d7/ded/a00196.html#a9ea7c3154932d7a736c105eb55daeb5c" target="_top" xlink:title="Directly process a new task. ">
<polygon fill="none" stroke="black" points="899,-24.5 899,-54.5 1028,-54.5 1028,-24.5 899,-24.5"/>
<text text-anchor="start" x="907" y="-42.5" font-family="Helvetica,sans-Serif" font-size="10.00">nars.entity.Concept.direct</text>
<text text-anchor="middle" x="963.5" y="-31.5" font-family="Helvetica,sans-Serif" font-size="10.00">Process</text>
</a>
</g>
</g>
<!-- Node455&#45;&gt;Node456 -->
<g id="edge5" class="edge"><title>Node455&#45;&gt;Node456</title>
<path fill="none" stroke="midnightblue" d="M873.021,-39.5C881.627,-39.5 890.396,-39.5 898.913,-39.5"/>
<polygon fill="midnightblue" stroke="midnightblue" points="873.02,-36.0001 863.02,-39.5 873.02,-43.0001 873.02,-36.0001"/>
</g>
<!-- Node457 -->
<g id="node7" class="node"><title>Node457</title>
<g id="a_node7"><a xlink:href="../../d4/d27/a00392.html#af8d07412d21a441a5c7005a477b06468" target="_top" xlink:title="Immediate processing of a new task, in constant time Local processing, in one concept only...">
<polygon fill="none" stroke="black" points="1064,-24.5 1064,-54.5 1221,-54.5 1221,-24.5 1064,-24.5"/>
<text text-anchor="start" x="1072" y="-42.5" font-family="Helvetica,sans-Serif" font-size="10.00">nars.storage.Memory.immediate</text>
<text text-anchor="middle" x="1142.5" y="-31.5" font-family="Helvetica,sans-Serif" font-size="10.00">Process</text>
</a>
</g>
</g>
<!-- Node456&#45;&gt;Node457 -->
<g id="edge6" class="edge"><title>Node456&#45;&gt;Node457</title>
<path fill="none" stroke="midnightblue" d="M1038.49,-39.5C1046.85,-39.5 1055.39,-39.5 1063.8,-39.5"/>
<polygon fill="midnightblue" stroke="midnightblue" points="1038.4,-36.0001 1028.4,-39.5 1038.4,-43.0001 1038.4,-36.0001"/>
</g>
<!-- Node458 -->
<g id="node8" class="node"><title>Node458</title>
<g id="a_node8"><a xlink:href="../../d4/d27/a00392.html#ae43b86074c0d8f6a324696f69faa54b3" target="_top" xlink:title="Process the newTasks accumulated in the previous workCycle, accept input ones and those that correspo...">
<polygon fill="none" stroke="black" points="1257,-49.5 1257,-79.5 1403,-79.5 1403,-49.5 1257,-49.5"/>
<text text-anchor="start" x="1265" y="-67.5" font-family="Helvetica,sans-Serif" font-size="10.00">nars.storage.Memory.process</text>
<text text-anchor="middle" x="1330" y="-56.5" font-family="Helvetica,sans-Serif" font-size="10.00">NewTask</text>
</a>
</g>
</g>
<!-- Node457&#45;&gt;Node458 -->
<g id="edge7" class="edge"><title>Node457&#45;&gt;Node458</title>
<path fill="none" stroke="midnightblue" d="M1231.12,-51.3093C1239.71,-52.466 1248.35,-53.6306 1256.75,-54.7633"/>
<polygon fill="midnightblue" stroke="midnightblue" points="1231.47,-47.8245 1221.09,-49.9574 1230.54,-54.7618 1231.47,-47.8245"/>
</g>
<!-- Node465 -->
<g id="node15" class="node"><title>Node465</title>
<g id="a_node15"><a xlink:href="../../d4/d27/a00392.html#a5061708f88897cfdf4e0671c846762ca" target="_top" xlink:title="Select a novel task to process. ">
<polygon fill="none" stroke="black" points="1257,-0.5 1257,-30.5 1403,-30.5 1403,-0.5 1257,-0.5"/>
<text text-anchor="start" x="1265" y="-18.5" font-family="Helvetica,sans-Serif" font-size="10.00">nars.storage.Memory.process</text>
<text text-anchor="middle" x="1330" y="-7.5" font-family="Helvetica,sans-Serif" font-size="10.00">NovelTask</text>
</a>
</g>
</g>
<!-- Node457&#45;&gt;Node465 -->
<g id="edge14" class="edge"><title>Node457&#45;&gt;Node465</title>
<path fill="none" stroke="midnightblue" d="M1231.12,-28.1631C1239.71,-27.0527 1248.35,-25.9346 1256.75,-24.8472"/>
<polygon fill="midnightblue" stroke="midnightblue" points="1230.56,-24.7066 1221.09,-29.4609 1231.46,-31.6488 1230.56,-24.7066"/>
</g>
<!-- Node459 -->
<g id="node9" class="node"><title>Node459</title>
<g id="a_node9"><a xlink:href="../../d4/d27/a00392.html#a59ae339d666409988d90d29be4f73a91" target="_top" xlink:title="An atomic working workCycle of the system: process new Tasks, then fireFromProcessConcept a concept...">
<polygon fill="none" stroke="black" points="1439,-24.5 1439,-54.5 1572,-54.5 1572,-24.5 1439,-24.5"/>
<text text-anchor="start" x="1447" y="-42.5" font-family="Helvetica,sans-Serif" font-size="10.00">nars.storage.Memory.work</text>
<text text-anchor="middle" x="1505.5" y="-31.5" font-family="Helvetica,sans-Serif" font-size="10.00">Cycle</text>
</a>
</g>
</g>
<!-- Node458&#45;&gt;Node459 -->
<g id="edge8" class="edge"><title>Node458&#45;&gt;Node459</title>
<path fill="none" stroke="midnightblue" d="M1413.12,-52.6675C1421.72,-51.4286 1430.37,-50.1809 1438.76,-48.9733"/>
<polygon fill="midnightblue" stroke="midnightblue" points="1412.47,-49.2244 1403.07,-54.1149 1413.47,-56.1529 1412.47,-49.2244"/>
</g>
<!-- Node460 -->
<g id="node10" class="node"><title>Node460</title>
<g id="a_node10"><a xlink:href="../../df/d15/a00416.html#a0d5c797dc17d9e8d0998852915e0f303" target="_top" xlink:title="nars.storage.ReasonerBatch.doTick">
<polygon fill="none" stroke="black" points="1608,-30 1608,-49 1781,-49 1781,-30 1608,-30"/>
<text text-anchor="middle" x="1694.5" y="-37" font-family="Helvetica,sans-Serif" font-size="10.00">nars.storage.ReasonerBatch.doTick</text>
</a>
</g>
</g>
<!-- Node459&#45;&gt;Node460 -->
<g id="edge9" class="edge"><title>Node459&#45;&gt;Node460</title>
<path fill="none" stroke="midnightblue" d="M1582.34,-39.5C1590.78,-39.5 1599.42,-39.5 1607.97,-39.5"/>
<polygon fill="midnightblue" stroke="midnightblue" points="1582.17,-36.0001 1572.17,-39.5 1582.17,-43.0001 1582.17,-36.0001"/>
</g>
<!-- Node461 -->
<g id="node11" class="node"><title>Node461</title>
<g id="a_node11"><a xlink:href="../../df/d15/a00416.html#a3468aa0f99edcd66412f27922dddb880" target="_top" xlink:title="A clock tick. ">
<polygon fill="none" stroke="black" points="1817,-30 1817,-49 1977,-49 1977,-30 1817,-30"/>
<text text-anchor="middle" x="1897" y="-37" font-family="Helvetica,sans-Serif" font-size="10.00">nars.storage.ReasonerBatch.tick</text>
</a>
</g>
</g>
<!-- Node460&#45;&gt;Node461 -->
<g id="edge10" class="edge"><title>Node460&#45;&gt;Node461</title>
<path fill="none" stroke="midnightblue" d="M1791.13,-39.5C1799.7,-39.5 1808.31,-39.5 1816.71,-39.5"/>
<polygon fill="midnightblue" stroke="midnightblue" points="1791.11,-36.0001 1781.11,-39.5 1791.11,-43.0001 1791.11,-36.0001"/>
</g>
<!-- Node462 -->
<g id="node12" class="node"><title>Node462</title>
<g id="a_node12"><a xlink:href="../../d9/da1/a00396.html#a5d9cfe517bcfbe41e5251910bcd119c1" target="_top" xlink:title="Run to completion: repeatedly execute NARS working cycle, until Inputs are Finished, or 1000 steps. ">
<polygon fill="none" stroke="black" points="2013,-30 2013,-49 2157,-49 2157,-30 2013,-30"/>
<text text-anchor="middle" x="2085" y="-37" font-family="Helvetica,sans-Serif" font-size="10.00">nars.storage.NARSBatch.run</text>
</a>
</g>
</g>
<!-- Node461&#45;&gt;Node462 -->
<g id="edge11" class="edge"><title>Node461&#45;&gt;Node462</title>
<path fill="none" stroke="midnightblue" d="M1987.22,-39.5C1995.82,-39.5 2004.47,-39.5 2012.87,-39.5"/>
<polygon fill="midnightblue" stroke="midnightblue" points="1987.15,-36.0001 1977.15,-39.5 1987.15,-43.0001 1987.15,-36.0001"/>
</g>
<!-- Node463 -->
<g id="node13" class="node"><title>Node463</title>
<g id="a_node13"><a xlink:href="../../d9/da1/a00396.html#a7c307c6b842f82664de6b0e52bdf8efc" target="_top" xlink:title="non&#45;static equivalent to main(String[]) : run to completion from an input file ">
<polygon fill="none" stroke="black" points="2193,-24.5 2193,-54.5 2337,-54.5 2337,-24.5 2193,-24.5"/>
<text text-anchor="start" x="2201" y="-42.5" font-family="Helvetica,sans-Serif" font-size="10.00">nars.storage.NARSBatch.run</text>
<text text-anchor="middle" x="2265" y="-31.5" font-family="Helvetica,sans-Serif" font-size="10.00">Inference</text>
</a>
</g>
</g>
<!-- Node462&#45;&gt;Node463 -->
<g id="edge12" class="edge"><title>Node462&#45;&gt;Node463</title>
<path fill="none" stroke="midnightblue" d="M2167.17,-39.5C2175.79,-39.5 2184.51,-39.5 2193,-39.5"/>
<polygon fill="midnightblue" stroke="midnightblue" points="2167.12,-36.0001 2157.12,-39.5 2167.12,-43.0001 2167.12,-36.0001"/>
</g>
<!-- Node464 -->
<g id="node14" class="node"><title>Node464</title>
<g id="a_node14"><a xlink:href="../../d9/da1/a00396.html#abafc597289bc2f6453b5cd0dd6634e54" target="_top" xlink:title="The entry point of the standalone application. ">
<polygon fill="none" stroke="black" points="2373,-30 2373,-49 2525,-49 2525,-30 2373,-30"/>
<text text-anchor="middle" x="2449" y="-37" font-family="Helvetica,sans-Serif" font-size="10.00">nars.storage.NARSBatch.main</text>
</a>
</g>
</g>
<!-- Node463&#45;&gt;Node464 -->
<g id="edge13" class="edge"><title>Node463&#45;&gt;Node464</title>
<path fill="none" stroke="midnightblue" d="M2347.17,-39.5C2355.76,-39.5 2364.48,-39.5 2373,-39.5"/>
<polygon fill="midnightblue" stroke="midnightblue" points="2347.15,-36.0001 2337.15,-39.5 2347.15,-43.0001 2347.15,-36.0001"/>
</g>
<!-- Node465&#45;&gt;Node459 -->
<g id="edge15" class="edge"><title>Node465&#45;&gt;Node459</title>
<path fill="none" stroke="midnightblue" d="M1413.12,-26.8592C1421.72,-28.0486 1430.37,-29.2464 1438.76,-30.4056"/>
<polygon fill="midnightblue" stroke="midnightblue" points="1413.46,-23.373 1403.07,-25.4697 1412.5,-30.307 1413.46,-23.373"/>
</g>
</g>
</svg>
        <g id="navigator" transform="translate(0 0)" fill="#404254">
                <rect fill="#f2f5e9" fill-opacity="0.5" stroke="#606060" stroke-width=".5" x="0" y="0" width="60" height="60"/>
                <use id="zoomplus" xlink:href="#zoomPlus" x="17" y="9" onmousedown="handleZoom(evt,'in')"/>
                <use id="zoomminus" xlink:href="#zoomMin" x="42" y="9" onmousedown="handleZoom(evt,'out')"/>
                <use id="reset" xlink:href="#resetDef" x="30" y="36" onmousedown="handleReset()"/>
                <g id="arrowUp" xlink:href="#dirArrow" transform="translate(30 24)" onmousedown="handlePan(0,-1)">
                  <use xlink:href="#rim" fill="#404040">
                        <set attributeName="fill" to="#808080" begin="arrowUp.mouseover" end="arrowUp.mouseout"/>
                  </use>
                  <path fill="none" stroke="white" stroke-width="1.5" d="M0,-3.0v7 M-2.5,-0.5L0,-3.0L2.5,-0.5"/>
                </g>
                <g id="arrowRight" xlink:href="#dirArrow" transform="rotate(90) translate(36 -43)" onmousedown="handlePan(1,0)">
                  <use xlink:href="#rim" fill="#404040">
                        <set attributeName="fill" to="#808080" begin="arrowRight.mouseover" end="arrowRight.mouseout"/>
                  </use>
                  <path fill="none" stroke="white" stroke-width="1.5" d="M0,-3.0v7 M-2.5,-0.5L0,-3.0L2.5,-0.5"/>
                </g>
                <g id="arrowDown" xlink:href="#dirArrow" transform="rotate(180) translate(-30 -48)" onmousedown="handlePan(0,1)">
                  <use xlink:href="#rim" fill="#404040">
                        <set attributeName="fill" to="#808080" begin="arrowDown.mouseover" end="arrowDown.mouseout"/>
                  </use>
                  <path fill="none" stroke="white" stroke-width="1.5" d="M0,-3.0v7 M-2.5,-0.5L0,-3.0L2.5,-0.5"/>
                </g>
                <g id="arrowLeft" xlink:href="#dirArrow" transform="rotate(270) translate(-36 17)" onmousedown="handlePan(-1,0)">
                  <use xlink:href="#rim" fill="#404040">
                        <set attributeName="fill" to="#808080" begin="arrowLeft.mouseover" end="arrowLeft.mouseout"/>
                  </use>
                  <path fill="none" stroke="white" stroke-width="1.5" d="M0,-3.0v7 M-2.5,-0.5L0,-3.0L2.5,-0.5"/>
                </g>
        </g>
        <svg viewBox="0 0 15 15" width="100%" height="30px" preserveAspectRatio="xMaxYMin meet">
         <g id="arrow_out" transform="scale(0.3 0.3)">
          <a xlink:href="a00208_a686c257308a15eba9458a438cc60227a_icgraph_org.svg" target="_base">
           <rect id="button" ry="5" rx="5" y="6" x="6" height="38" width="38"
                fill="#f2f5e9" fill-opacity="0.5" stroke="#606060" stroke-width="1.0"/>
           <path id="arrow"
             d="M 11.500037,31.436501 C 11.940474,20.09759 22.043105,11.32322 32.158766,21.979434 L 37.068811,17.246167 C 37.068811,17.246167 37.088388,32 37.088388,32 L 22.160133,31.978069 C 22.160133,31.978069 26.997745,27.140456 26.997745,27.140456 C 18.528582,18.264221 13.291696,25.230495 11.500037,31.436501 z"
             style="fill:#404040;"/>
          </a>
         </g>
        </svg>
</svg>
