<?xml version="1.0" encoding="UTF-8" standalone="no"?>
<!DOCTYPE svg PUBLIC "-//W3C//DTD SVG 1.1//EN"
 "http://www.w3.org/Graphics/SVG/1.1/DTD/svg11.dtd">
<!-- Generated by graphviz version 2.38.0 (20140413.2041)
 -->
<!-- Title: nars.entity.Item.incPriority Pages: 1 -->
<svg width="509pt" height="39pt"
 viewBox="0.00 0.00 509.00 39.00" xmlns="http://www.w3.org/2000/svg" xmlns:xlink="http://www.w3.org/1999/xlink">
<g id="graph0" class="graph" transform="scale(1 1) rotate(0) translate(4 35)">
<title>nars.entity.Item.incPriority</title>
<!-- Node321 -->
<g id="node1" class="node"><title>Node321</title>
<polygon fill="#bfbfbf" stroke="black" points="0,-6 0,-25 131,-25 131,-6 0,-6"/>
<text text-anchor="middle" x="65.5" y="-13" font-family="Helvetica,sans-Serif" font-size="10.00">nars.entity.Item.incPriority</text>
</g>
<!-- Node322 -->
<g id="node2" class="node"><title>Node322</title>
<g id="a_node2"><a xlink:href="../../dd/da2/a00192.html#a088e64163126211239b6afd25a9cdca3" target="_top" xlink:title="Increase priority value by a percentage of the remaining range. ">
<polygon fill="none" stroke="black" points="167,-0.5 167,-30.5 304,-30.5 304,-0.5 167,-0.5"/>
<text text-anchor="start" x="175" y="-18.5" font-family="Helvetica,sans-Serif" font-size="10.00">nars.entity.BudgetValue.inc</text>
<text text-anchor="middle" x="235.5" y="-7.5" font-family="Helvetica,sans-Serif" font-size="10.00">Priority</text>
</a>
</g>
</g>
<!-- Node321&#45;&gt;Node322 -->
<g id="edge1" class="edge"><title>Node321&#45;&gt;Node322</title>
<path fill="none" stroke="midnightblue" d="M131.453,-15.5C139.724,-15.5 148.256,-15.5 156.703,-15.5"/>
<polygon fill="midnightblue" stroke="midnightblue" points="156.941,-19.0001 166.941,-15.5 156.941,-12.0001 156.941,-19.0001"/>
</g>
<!-- Node323 -->
<g id="node3" class="node"><title>Node323</title>
<g id="a_node3"><a xlink:href="../../db/d12/a00268.html#acaa4ebc080bc00d0e03be32d51d29e40" target="_top" xlink:title="A function where the output is disjunctively determined by the inputs. ">
<polygon fill="none" stroke="black" points="340,-6 340,-25 501,-25 501,-6 340,-6"/>
<text text-anchor="middle" x="420.5" y="-13" font-family="Helvetica,sans-Serif" font-size="10.00">nars.inference.UtilityFunctions.or</text>
</a>
</g>
</g>
<!-- Node322&#45;&gt;Node323 -->
<g id="edge2" class="edge"><title>Node322&#45;&gt;Node323</title>
<path fill="none" stroke="midnightblue" d="M304.123,-15.5C312.465,-15.5 321.092,-15.5 329.7,-15.5"/>
<polygon fill="midnightblue" stroke="midnightblue" points="329.776,-19.0001 339.776,-15.5 329.776,-12.0001 329.776,-19.0001"/>
</g>
</g>
</svg>
