<?xml version="1.0" encoding="UTF-8" standalone="no"?>
<!DOCTYPE svg PUBLIC "-//W3C//DTD SVG 1.1//EN"
 "http://www.w3.org/Graphics/SVG/1.1/DTD/svg11.dtd">
<!-- Generated by graphviz version 2.38.0 (20140413.2041)
 -->
<!-- Title: nars.entity.Item.toString Pages: 1 -->
<svg width="491pt" height="88pt"
 viewBox="0.00 0.00 491.00 88.00" xmlns="http://www.w3.org/2000/svg" xmlns:xlink="http://www.w3.org/1999/xlink">
<g id="graph0" class="graph" transform="scale(1 1) rotate(0) translate(4 84)">
<title>nars.entity.Item.toString</title>
<!-- Node469 -->
<g id="node1" class="node"><title>Node469</title>
<polygon fill="#bfbfbf" stroke="black" points="0,-30 0,-49 122,-49 122,-30 0,-30"/>
<text text-anchor="middle" x="61" y="-37" font-family="Helvetica,sans-Serif" font-size="10.00">nars.entity.Item.toString</text>
</g>
<!-- Node470 -->
<g id="node2" class="node"><title>Node470</title>
<g id="a_node2"><a xlink:href="../../dc/d31/a00208.html#a7adee9838f91c397f4b747351ead9f75" target="_top" xlink:title="nars.entity.Item.toStringLong">
<polygon fill="none" stroke="black" points="158,-30 158,-49 301,-49 301,-30 158,-30"/>
<text text-anchor="middle" x="229.5" y="-37" font-family="Helvetica,sans-Serif" font-size="10.00">nars.entity.Item.toStringLong</text>
</a>
</g>
</g>
<!-- Node469&#45;&gt;Node470 -->
<g id="edge1" class="edge"><title>Node469&#45;&gt;Node470</title>
<path fill="none" stroke="midnightblue" d="M132.347,-39.5C140.835,-39.5 149.505,-39.5 157.995,-39.5"/>
<polygon fill="midnightblue" stroke="midnightblue" points="132.11,-36.0001 122.11,-39.5 132.11,-43.0001 132.11,-36.0001"/>
</g>
<!-- Node471 -->
<g id="node3" class="node"><title>Node471</title>
<g id="a_node3"><a xlink:href="../../d6/db8/a00376.html#adff1bdb7ded17b66dc84068e49571ba7" target="_top" xlink:title="TODO bad paste from preceding. ">
<polygon fill="none" stroke="black" points="341.5,-49.5 341.5,-79.5 478.5,-79.5 478.5,-49.5 341.5,-49.5"/>
<text text-anchor="start" x="349.5" y="-67.5" font-family="Helvetica,sans-Serif" font-size="10.00">nars.storage.Bag&lt; Concept</text>
<text text-anchor="middle" x="410" y="-56.5" font-family="Helvetica,sans-Serif" font-size="10.00"> &gt;::toStringLong</text>
</a>
</g>
</g>
<!-- Node470&#45;&gt;Node471 -->
<g id="edge2" class="edge"><title>Node470&#45;&gt;Node471</title>
<path fill="none" stroke="midnightblue" d="M308.503,-50.4248C319.495,-51.9643 330.719,-53.5362 341.492,-55.0451"/>
<polygon fill="midnightblue" stroke="midnightblue" points="308.881,-46.9437 298.492,-49.0227 307.91,-53.876 308.881,-46.9437"/>
</g>
<!-- Node472 -->
<g id="node4" class="node"><title>Node472</title>
<g id="a_node4"><a xlink:href="../../d4/d27/a00392.html#af2a2377d1c59d2b966ddc553809b9eab" target="_top" xlink:title="nars.storage.Memory.toString\lLongIfNotNull">
<polygon fill="none" stroke="black" points="337,-0.5 337,-30.5 483,-30.5 483,-0.5 337,-0.5"/>
<text text-anchor="start" x="345" y="-18.5" font-family="Helvetica,sans-Serif" font-size="10.00">nars.storage.Memory.toString</text>
<text text-anchor="middle" x="410" y="-7.5" font-family="Helvetica,sans-Serif" font-size="10.00">LongIfNotNull</text>
</a>
</g>
</g>
<!-- Node470&#45;&gt;Node472 -->
<g id="edge3" class="edge"><title>Node470&#45;&gt;Node472</title>
<path fill="none" stroke="midnightblue" d="M311.086,-28.665C319.695,-27.5074 328.414,-26.3352 336.916,-25.192"/>
<polygon fill="midnightblue" stroke="midnightblue" points="310.492,-25.2131 301.048,-30.0146 311.425,-32.1507 310.492,-25.2131"/>
</g>
</g>
</svg>
