<?xml version="1.0" encoding="UTF-8" standalone="no"?>
<!DOCTYPE svg PUBLIC "-//W3C//DTD SVG 1.1//EN"
 "http://www.w3.org/Graphics/SVG/1.1/DTD/svg11.dtd">
<!-- Generated by graphviz version 2.38.0 (20140413.2041)
 -->
<!-- Title: nars.entity.Item.getKey Pages: 1 -->
<!--zoomable 353 -->
<svg id="main" version="1.1" xmlns="http://www.w3.org/2000/svg" xmlns:xlink="http://www.w3.org/1999/xlink" xml:space="preserve" onload="init(evt)">
<style type="text/css"><![CDATA[
.edge:hover path { stroke: red; }
.edge:hover polygon { stroke: red; fill: red; }
]]></style>
<script type="text/javascript"><![CDATA[
var edges = document.getElementsByTagName('g');
if (edges && edges.length) {
  for (var i=0;i<edges.length;i++) {
    if (edges[i].id.substr(0,4)=='edge') {
      edges[i].setAttribute('class','edge');
    }
  }
}
]]></script>
        <defs>
                <circle id="rim" cx="0" cy="0" r="7"/>
                <circle id="rim2" cx="0" cy="0" r="3.5"/>
                <g id="zoomPlus">
                        <use xlink:href="#rim" fill="#404040">
                                <set attributeName="fill" to="#808080" begin="zoomplus.mouseover" end="zoomplus.mouseout"/>
                        </use>
                        <path d="M-4,0h8M0,-4v8" fill="none" stroke="white" stroke-width="1.5" pointer-events="none"/>
                </g>
                <g id="zoomMin">
                        <use xlink:href="#rim" fill="#404040">
                                <set attributeName="fill" to="#808080" begin="zoomminus.mouseover" end="zoomminus.mouseout"/>
                        </use>
                        <path d="M-4,0h8" fill="none" stroke="white" stroke-width="1.5" pointer-events="none"/>
                </g>
                <g id="dirArrow">
                        <path fill="none" stroke="white" stroke-width="1.5" d="M0,-3.0v7 M-2.5,-0.5L0,-3.0L2.5,-0.5"/>
                </g>
               <g id="resetDef">
                       <use xlink:href="#rim2" fill="#404040">
                               <set attributeName="fill" to="#808080" begin="reset.mouseover" end="reset.mouseout"/>
                       </use>
               </g>
        </defs>

<script type="text/javascript">
var viewWidth = 2375;
var viewHeight = 353;
var sectionId = 'dynsection-11';
</script>
<script xlink:href="../../svgpan.js"/>
<svg id="graph" class="graph">
<g id="viewport">
<title>nars.entity.Item.getKey</title>
<!-- Node215 -->
<g id="node1" class="node"><title>Node215</title>
<polygon fill="#bfbfbf" stroke="black" points="0,-133.5 0,-152.5 119,-152.5 119,-133.5 0,-133.5"/>
<text text-anchor="middle" x="59.5" y="-140.5" font-family="Helvetica,sans-Serif" font-size="10.00">nars.entity.Item.getKey</text>
</g>
<!-- Node216 -->
<g id="node2" class="node"><title>Node216</title>
<g id="a_node2"><a xlink:href="../../d4/d27/a00392.html#a7affdc42dcb55d27d76cf636eab6230f" target="_top" xlink:title="Adjust the activation level of a Concept. ">
<polygon fill="none" stroke="black" points="162,-267 162,-297 308,-297 308,-267 162,-267"/>
<text text-anchor="start" x="170" y="-285" font-family="Helvetica,sans-Serif" font-size="10.00">nars.storage.Memory.activate</text>
<text text-anchor="middle" x="235" y="-274" font-family="Helvetica,sans-Serif" font-size="10.00">Concept</text>
</a>
</g>
</g>
<!-- Node215&#45;&gt;Node216 -->
<g id="edge1" class="edge"><title>Node215&#45;&gt;Node216</title>
<path fill="none" stroke="midnightblue" d="M71.9178,-161.016C87.8618,-184.857 118.929,-226.804 155,-252 163.539,-257.965 173.419,-262.929 183.238,-266.988"/>
<polygon fill="midnightblue" stroke="midnightblue" points="74.7922,-159.016 66.3916,-152.56 68.9326,-162.846 74.7922,-159.016"/>
</g>
<!-- Node229 -->
<g id="node15" class="node"><title>Node229</title>
<g id="a_node15"><a xlink:href="../../de/dc2/a00228.html#afea026df0afd74986f940d10a7875a2f" target="_top" xlink:title="To check whether a TaskLink should use a TermLink, return false if they interacted recently...">
<polygon fill="none" stroke="black" points="360,-228.5 360,-247.5 491,-247.5 491,-228.5 360,-228.5"/>
<text text-anchor="middle" x="425.5" y="-235.5" font-family="Helvetica,sans-Serif" font-size="10.00">nars.entity.TaskLink.novel</text>
</a>
</g>
</g>
<!-- Node215&#45;&gt;Node229 -->
<g id="edge15" class="edge"><title>Node215&#45;&gt;Node229</title>
<path fill="none" stroke="midnightblue" d="M79.5495,-159.004C97.7146,-173.321 126.461,-193.603 155,-204 222.13,-228.455 304.191,-235.873 360,-237.854"/>
<polygon fill="midnightblue" stroke="midnightblue" points="81.5074,-156.086 71.5293,-152.524 77.1083,-161.531 81.5074,-156.086"/>
</g>
<!-- Node233 -->
<g id="node19" class="node"><title>Node233</title>
<g id="a_node19"><a xlink:href="../../d0/d53/a00232.html#ad19e927a3e2e339682081d8e462fe73b" target="_top" xlink:title="Set the key of the link. ">
<polygon fill="none" stroke="black" points="165,-152.5 165,-171.5 305,-171.5 305,-152.5 165,-152.5"/>
<text text-anchor="middle" x="235" y="-159.5" font-family="Helvetica,sans-Serif" font-size="10.00">nars.entity.TermLink.setKey</text>
</a>
</g>
</g>
<!-- Node215&#45;&gt;Node233 -->
<g id="edge20" class="edge"><title>Node215&#45;&gt;Node233</title>
<path fill="none" stroke="midnightblue" d="M129.356,-150.54C141.027,-151.819 153.15,-153.146 164.828,-154.425"/>
<polygon fill="midnightblue" stroke="midnightblue" points="129.561,-147.042 119.239,-149.433 128.799,-154 129.561,-147.042"/>
</g>
<!-- Node234 -->
<g id="node20" class="node"><title>Node234</title>
<g id="a_node20"><a xlink:href="../../de/dc2/a00228.html#a647f7a582b860db9ec62907a8b50e99c" target="_top" xlink:title="Constructor. ">
<polygon fill="none" stroke="black" points="351.5,-190.5 351.5,-209.5 499.5,-209.5 499.5,-190.5 351.5,-190.5"/>
<text text-anchor="middle" x="425.5" y="-197.5" font-family="Helvetica,sans-Serif" font-size="10.00">nars.entity.TaskLink.TaskLink</text>
</a>
</g>
</g>
<!-- Node215&#45;&gt;Node234 -->
<g id="edge23" class="edge"><title>Node215&#45;&gt;Node234</title>
<path fill="none" stroke="midnightblue" d="M88.378,-156.894C106.812,-165.402 131.775,-175.651 155,-181 220.248,-196.027 296.527,-200.203 351.246,-200.957"/>
<polygon fill="midnightblue" stroke="midnightblue" points="89.656,-153.627 79.1197,-152.515 86.6626,-159.955 89.656,-153.627"/>
</g>
<!-- Node236 -->
<g id="node22" class="node"><title>Node236</title>
<g id="a_node22"><a xlink:href="../../dc/d31/a00208.html#aa09cfb045062f89cbea45a6975e6a2f2" target="_top" xlink:title="Return a String representation of the Item. ">
<polygon fill="none" stroke="black" points="174,-114.5 174,-133.5 296,-133.5 296,-114.5 174,-114.5"/>
<text text-anchor="middle" x="235" y="-121.5" font-family="Helvetica,sans-Serif" font-size="10.00">nars.entity.Item.toString</text>
</a>
</g>
</g>
<!-- Node215&#45;&gt;Node236 -->
<g id="edge24" class="edge"><title>Node215&#45;&gt;Node236</title>
<path fill="none" stroke="midnightblue" d="M129.297,-135.466C144.024,-133.853 159.472,-132.162 173.843,-130.588"/>
<polygon fill="midnightblue" stroke="midnightblue" points="128.799,-132 119.239,-136.567 129.561,-138.958 128.799,-132"/>
</g>
<!-- Node240 -->
<g id="node26" class="node"><title>Node240</title>
<g id="a_node26"><a xlink:href="../../d5/ddf/a00224.html#a73b96cd17fd93eeab0cc94bd36f25e66" target="_top" xlink:title="Get a String representation of the Task. ">
<polygon fill="none" stroke="black" points="173,-76.5 173,-95.5 297,-95.5 297,-76.5 173,-76.5"/>
<text text-anchor="middle" x="235" y="-83.5" font-family="Helvetica,sans-Serif" font-size="10.00">nars.entity.Task.toString</text>
</a>
</g>
</g>
<!-- Node215&#45;&gt;Node240 -->
<g id="edge28" class="edge"><title>Node215&#45;&gt;Node240</title>
<path fill="none" stroke="midnightblue" d="M90.8592,-129.473C109.189,-121.639 133.154,-111.978 155,-105 166.019,-101.48 178.084,-98.2661 189.395,-95.5227"/>
<polygon fill="midnightblue" stroke="midnightblue" points="89.3549,-126.31 81.5672,-133.493 92.1348,-132.734 89.3549,-126.31"/>
</g>
<!-- Node241 -->
<g id="node27" class="node"><title>Node241</title>
<g id="a_node27"><a xlink:href="../../d7/ded/a00196.html#a0884554b92012100e88cb32d8b24412f" target="_top" xlink:title="Return a string representation of the concept, called in ConceptBag only. ">
<polygon fill="none" stroke="black" points="165.5,-38.5 165.5,-57.5 304.5,-57.5 304.5,-38.5 165.5,-38.5"/>
<text text-anchor="middle" x="235" y="-45.5" font-family="Helvetica,sans-Serif" font-size="10.00">nars.entity.Concept.toString</text>
</a>
</g>
</g>
<!-- Node215&#45;&gt;Node241 -->
<g id="edge29" class="edge"><title>Node215&#45;&gt;Node241</title>
<path fill="none" stroke="midnightblue" d="M76.6483,-126.199C94.2985,-108.816 124.193,-82.1356 155,-67 162.85,-63.1434 171.531,-60.0404 180.181,-57.5521"/>
<polygon fill="midnightblue" stroke="midnightblue" points="74.0041,-123.894 69.4411,-133.456 78.9711,-128.827 74.0041,-123.894"/>
</g>
<!-- Node242 -->
<g id="node28" class="node"><title>Node242</title>
<g id="a_node28"><a xlink:href="../../d7/ded/a00196.html#a121514592016f7350b5a741db6465798" target="_top" xlink:title="called from NARSBatch ">
<polygon fill="none" stroke="black" points="155,-0.5 155,-19.5 315,-19.5 315,-0.5 155,-0.5"/>
<text text-anchor="middle" x="235" y="-7.5" font-family="Helvetica,sans-Serif" font-size="10.00">nars.entity.Concept.toStringLong</text>
</a>
</g>
</g>
<!-- Node215&#45;&gt;Node242 -->
<g id="edge30" class="edge"><title>Node215&#45;&gt;Node242</title>
<path fill="none" stroke="midnightblue" d="M70.5989,-124.54C85.5694,-98.9816 116.115,-53.2348 155,-29 161.225,-25.1201 168.181,-22.0325 175.314,-19.5754"/>
<polygon fill="midnightblue" stroke="midnightblue" points="67.541,-122.837 65.6391,-133.26 73.6256,-126.298 67.541,-122.837"/>
</g>
<!-- Node217 -->
<g id="node3" class="node"><title>Node217</title>
<g id="a_node3"><a xlink:href="../../d7/ded/a00196.html#aef21f5ae7bef5194bd37ae526302843d" target="_top" xlink:title="Insert a TaskLink into the TaskLink bag. ">
<polygon fill="none" stroke="black" points="361,-267 361,-297 490,-297 490,-267 361,-267"/>
<text text-anchor="start" x="369" y="-285" font-family="Helvetica,sans-Serif" font-size="10.00">nars.entity.Concept.insert</text>
<text text-anchor="middle" x="425.5" y="-274" font-family="Helvetica,sans-Serif" font-size="10.00">TaskLink</text>
</a>
</g>
</g>
<!-- Node216&#45;&gt;Node217 -->
<g id="edge2" class="edge"><title>Node216&#45;&gt;Node217</title>
<path fill="none" stroke="midnightblue" d="M318.344,-282C332.567,-282 347.158,-282 360.793,-282"/>
<polygon fill="midnightblue" stroke="midnightblue" points="318.071,-278.5 308.071,-282 318.071,-285.5 318.071,-278.5"/>
</g>
<!-- Node218 -->
<g id="node4" class="node"><title>Node218</title>
<g id="a_node4"><a xlink:href="../../d7/ded/a00196.html#a501121a11fc046eea4b69720cb622d84" target="_top" xlink:title="Link to a new task from all relevant concepts for continued processing in the near future for unspeci...">
<polygon fill="none" stroke="black" points="560.5,-268 560.5,-298 680.5,-298 680.5,-268 560.5,-268"/>
<text text-anchor="start" x="568.5" y="-286" font-family="Helvetica,sans-Serif" font-size="10.00">nars.entity.Concept.link</text>
<text text-anchor="middle" x="620.5" y="-275" font-family="Helvetica,sans-Serif" font-size="10.00">ToTask</text>
</a>
</g>
</g>
<!-- Node217&#45;&gt;Node218 -->
<g id="edge3" class="edge"><title>Node217&#45;&gt;Node218</title>
<path fill="none" stroke="midnightblue" d="M500.464,-282.383C520.304,-282.486 541.49,-282.596 560.407,-282.694"/>
<polygon fill="midnightblue" stroke="midnightblue" points="500.248,-278.882 490.23,-282.33 500.212,-285.882 500.248,-278.882"/>
</g>
<!-- Node219 -->
<g id="node5" class="node"><title>Node219</title>
<g id="a_node5"><a xlink:href="../../d7/ded/a00196.html#a9ea7c3154932d7a736c105eb55daeb5c" target="_top" xlink:title="Directly process a new task. ">
<polygon fill="none" stroke="black" points="741,-270 741,-300 870,-300 870,-270 741,-270"/>
<text text-anchor="start" x="749" y="-288" font-family="Helvetica,sans-Serif" font-size="10.00">nars.entity.Concept.direct</text>
<text text-anchor="middle" x="805.5" y="-277" font-family="Helvetica,sans-Serif" font-size="10.00">Process</text>
</a>
</g>
</g>
<!-- Node218&#45;&gt;Node219 -->
<g id="edge4" class="edge"><title>Node218&#45;&gt;Node219</title>
<path fill="none" stroke="midnightblue" d="M690.742,-283.757C707.177,-283.936 724.631,-284.127 740.805,-284.304"/>
<polygon fill="midnightblue" stroke="midnightblue" points="690.7,-280.256 680.662,-283.647 690.623,-287.256 690.7,-280.256"/>
</g>
<!-- Node220 -->
<g id="node6" class="node"><title>Node220</title>
<g id="a_node6"><a xlink:href="../../d4/d27/a00392.html#af8d07412d21a441a5c7005a477b06468" target="_top" xlink:title="Immediate processing of a new task, in constant time Local processing, in one concept only...">
<polygon fill="none" stroke="black" points="906,-270 906,-300 1063,-300 1063,-270 906,-270"/>
<text text-anchor="start" x="914" y="-288" font-family="Helvetica,sans-Serif" font-size="10.00">nars.storage.Memory.immediate</text>
<text text-anchor="middle" x="984.5" y="-277" font-family="Helvetica,sans-Serif" font-size="10.00">Process</text>
</a>
</g>
</g>
<!-- Node219&#45;&gt;Node220 -->
<g id="edge5" class="edge"><title>Node219&#45;&gt;Node220</title>
<path fill="none" stroke="midnightblue" d="M880.492,-285C888.854,-285 897.393,-285 905.801,-285"/>
<polygon fill="midnightblue" stroke="midnightblue" points="880.401,-281.5 870.401,-285 880.401,-288.5 880.401,-281.5"/>
</g>
<!-- Node221 -->
<g id="node7" class="node"><title>Node221</title>
<g id="a_node7"><a xlink:href="../../d4/d27/a00392.html#ae43b86074c0d8f6a324696f69faa54b3" target="_top" xlink:title="Process the newTasks accumulated in the previous workCycle, accept input ones and those that correspo...">
<polygon fill="none" stroke="black" points="1099,-314 1099,-344 1245,-344 1245,-314 1099,-314"/>
<text text-anchor="start" x="1107" y="-332" font-family="Helvetica,sans-Serif" font-size="10.00">nars.storage.Memory.process</text>
<text text-anchor="middle" x="1172" y="-321" font-family="Helvetica,sans-Serif" font-size="10.00">NewTask</text>
</a>
</g>
</g>
<!-- Node220&#45;&gt;Node221 -->
<g id="edge6" class="edge"><title>Node220&#45;&gt;Node221</title>
<path fill="none" stroke="midnightblue" d="M1058.76,-302.377C1074.92,-306.211 1091.92,-310.242 1107.65,-313.974"/>
<polygon fill="midnightblue" stroke="midnightblue" points="1059.36,-298.922 1048.82,-300.019 1057.74,-305.733 1059.36,-298.922"/>
</g>
<!-- Node228 -->
<g id="node14" class="node"><title>Node228</title>
<g id="a_node14"><a xlink:href="../../d4/d27/a00392.html#a5061708f88897cfdf4e0671c846762ca" target="_top" xlink:title="Select a novel task to process. ">
<polygon fill="none" stroke="black" points="1099,-265 1099,-295 1245,-295 1245,-265 1099,-265"/>
<text text-anchor="start" x="1107" y="-283" font-family="Helvetica,sans-Serif" font-size="10.00">nars.storage.Memory.process</text>
<text text-anchor="middle" x="1172" y="-272" font-family="Helvetica,sans-Serif" font-size="10.00">NovelTask</text>
</a>
</g>
</g>
<!-- Node220&#45;&gt;Node228 -->
<g id="edge13" class="edge"><title>Node220&#45;&gt;Node228</title>
<path fill="none" stroke="midnightblue" d="M1073.12,-282.638C1081.71,-282.407 1090.35,-282.174 1098.75,-281.947"/>
<polygon fill="midnightblue" stroke="midnightblue" points="1073,-279.14 1063.09,-282.909 1073.18,-286.138 1073,-279.14"/>
</g>
<!-- Node222 -->
<g id="node8" class="node"><title>Node222</title>
<g id="a_node8"><a xlink:href="../../d4/d27/a00392.html#a59ae339d666409988d90d29be4f73a91" target="_top" xlink:title="An atomic working workCycle of the system: process new Tasks, then fireFromProcessConcept a concept...">
<polygon fill="none" stroke="black" points="1281,-265 1281,-295 1414,-295 1414,-265 1281,-265"/>
<text text-anchor="start" x="1289" y="-283" font-family="Helvetica,sans-Serif" font-size="10.00">nars.storage.Memory.work</text>
<text text-anchor="middle" x="1347.5" y="-272" font-family="Helvetica,sans-Serif" font-size="10.00">Cycle</text>
</a>
</g>
</g>
<!-- Node221&#45;&gt;Node222 -->
<g id="edge7" class="edge"><title>Node221&#45;&gt;Node222</title>
<path fill="none" stroke="midnightblue" d="M1236.1,-311.179C1254.83,-305.888 1275.16,-300.148 1293.21,-295.052"/>
<polygon fill="midnightblue" stroke="midnightblue" points="1235.14,-307.812 1226.47,-313.899 1237.05,-314.549 1235.14,-307.812"/>
</g>
<!-- Node223 -->
<g id="node9" class="node"><title>Node223</title>
<g id="a_node9"><a xlink:href="../../df/d15/a00416.html#a0d5c797dc17d9e8d0998852915e0f303" target="_top" xlink:title="nars.storage.ReasonerBatch.doTick">
<polygon fill="none" stroke="black" points="1450,-270.5 1450,-289.5 1623,-289.5 1623,-270.5 1450,-270.5"/>
<text text-anchor="middle" x="1536.5" y="-277.5" font-family="Helvetica,sans-Serif" font-size="10.00">nars.storage.ReasonerBatch.doTick</text>
</a>
</g>
</g>
<!-- Node222&#45;&gt;Node223 -->
<g id="edge8" class="edge"><title>Node222&#45;&gt;Node223</title>
<path fill="none" stroke="midnightblue" d="M1424.34,-280C1432.78,-280 1441.42,-280 1449.97,-280"/>
<polygon fill="midnightblue" stroke="midnightblue" points="1424.17,-276.5 1414.17,-280 1424.17,-283.5 1424.17,-276.5"/>
</g>
<!-- Node224 -->
<g id="node10" class="node"><title>Node224</title>
<g id="a_node10"><a xlink:href="../../df/d15/a00416.html#a3468aa0f99edcd66412f27922dddb880" target="_top" xlink:title="A clock tick. ">
<polygon fill="none" stroke="black" points="1659,-270.5 1659,-289.5 1819,-289.5 1819,-270.5 1659,-270.5"/>
<text text-anchor="middle" x="1739" y="-277.5" font-family="Helvetica,sans-Serif" font-size="10.00">nars.storage.ReasonerBatch.tick</text>
</a>
</g>
</g>
<!-- Node223&#45;&gt;Node224 -->
<g id="edge9" class="edge"><title>Node223&#45;&gt;Node224</title>
<path fill="none" stroke="midnightblue" d="M1633.13,-280C1641.7,-280 1650.31,-280 1658.71,-280"/>
<polygon fill="midnightblue" stroke="midnightblue" points="1633.11,-276.5 1623.11,-280 1633.11,-283.5 1633.11,-276.5"/>
</g>
<!-- Node225 -->
<g id="node11" class="node"><title>Node225</title>
<g id="a_node11"><a xlink:href="../../d9/da1/a00396.html#a5d9cfe517bcfbe41e5251910bcd119c1" target="_top" xlink:title="Run to completion: repeatedly execute NARS working cycle, until Inputs are Finished, or 1000 steps. ">
<polygon fill="none" stroke="black" points="1855,-270.5 1855,-289.5 1999,-289.5 1999,-270.5 1855,-270.5"/>
<text text-anchor="middle" x="1927" y="-277.5" font-family="Helvetica,sans-Serif" font-size="10.00">nars.storage.NARSBatch.run</text>
</a>
</g>
</g>
<!-- Node224&#45;&gt;Node225 -->
<g id="edge10" class="edge"><title>Node224&#45;&gt;Node225</title>
<path fill="none" stroke="midnightblue" d="M1829.22,-280C1837.82,-280 1846.47,-280 1854.87,-280"/>
<polygon fill="midnightblue" stroke="midnightblue" points="1829.15,-276.5 1819.15,-280 1829.15,-283.5 1829.15,-276.5"/>
</g>
<!-- Node226 -->
<g id="node12" class="node"><title>Node226</title>
<g id="a_node12"><a xlink:href="../../d9/da1/a00396.html#a7c307c6b842f82664de6b0e52bdf8efc" target="_top" xlink:title="non&#45;static equivalent to main(String[]) : run to completion from an input file ">
<polygon fill="none" stroke="black" points="2035,-265 2035,-295 2179,-295 2179,-265 2035,-265"/>
<text text-anchor="start" x="2043" y="-283" font-family="Helvetica,sans-Serif" font-size="10.00">nars.storage.NARSBatch.run</text>
<text text-anchor="middle" x="2107" y="-272" font-family="Helvetica,sans-Serif" font-size="10.00">Inference</text>
</a>
</g>
</g>
<!-- Node225&#45;&gt;Node226 -->
<g id="edge11" class="edge"><title>Node225&#45;&gt;Node226</title>
<path fill="none" stroke="midnightblue" d="M2009.17,-280C2017.79,-280 2026.51,-280 2035,-280"/>
<polygon fill="midnightblue" stroke="midnightblue" points="2009.12,-276.5 1999.12,-280 2009.12,-283.5 2009.12,-276.5"/>
</g>
<!-- Node227 -->
<g id="node13" class="node"><title>Node227</title>
<g id="a_node13"><a xlink:href="../../d9/da1/a00396.html#abafc597289bc2f6453b5cd0dd6634e54" target="_top" xlink:title="The entry point of the standalone application. ">
<polygon fill="none" stroke="black" points="2215,-270.5 2215,-289.5 2367,-289.5 2367,-270.5 2215,-270.5"/>
<text text-anchor="middle" x="2291" y="-277.5" font-family="Helvetica,sans-Serif" font-size="10.00">nars.storage.NARSBatch.main</text>
</a>
</g>
</g>
<!-- Node226&#45;&gt;Node227 -->
<g id="edge12" class="edge"><title>Node226&#45;&gt;Node227</title>
<path fill="none" stroke="midnightblue" d="M2189.17,-280C2197.76,-280 2206.48,-280 2215,-280"/>
<polygon fill="midnightblue" stroke="midnightblue" points="2189.15,-276.5 2179.15,-280 2189.15,-283.5 2189.15,-276.5"/>
</g>
<!-- Node228&#45;&gt;Node222 -->
<g id="edge14" class="edge"><title>Node228&#45;&gt;Node222</title>
<path fill="none" stroke="midnightblue" d="M1255.12,-280C1263.72,-280 1272.37,-280 1280.76,-280"/>
<polygon fill="midnightblue" stroke="midnightblue" points="1255.07,-276.5 1245.07,-280 1255.07,-283.5 1255.07,-276.5"/>
</g>
<!-- Node230 -->
<g id="node16" class="node"><title>Node230</title>
<g id="a_node16"><a xlink:href="../../d4/dd3/a00428.html#a2f98120a5db1a3c065d3dc5712562d71" target="_top" xlink:title="Replace default to prevent repeated inference, by checking TaskLink. ">
<polygon fill="none" stroke="black" points="536,-227.5 536,-246.5 705,-246.5 705,-227.5 536,-227.5"/>
<text text-anchor="middle" x="620.5" y="-234.5" font-family="Helvetica,sans-Serif" font-size="10.00">nars.storage.TermLinkBag.takeOut</text>
</a>
</g>
</g>
<!-- Node229&#45;&gt;Node230 -->
<g id="edge16" class="edge"><title>Node229&#45;&gt;Node230</title>
<path fill="none" stroke="midnightblue" d="M501.284,-237.613C512.595,-237.554 524.325,-237.493 535.808,-237.434"/>
<polygon fill="midnightblue" stroke="midnightblue" points="501.016,-234.114 491.035,-237.666 501.053,-241.114 501.016,-234.114"/>
</g>
<!-- Node231 -->
<g id="node17" class="node"><title>Node231</title>
<g id="a_node17"><a xlink:href="../../d7/ded/a00196.html#ad6fb91dda799c3092ecb186ef24ca92a" target="_top" xlink:title="An atomic step in a concept, only called in Memory# processConcept. ">
<polygon fill="none" stroke="black" points="746,-221 746,-251 865,-251 865,-221 746,-221"/>
<text text-anchor="start" x="754" y="-239" font-family="Helvetica,sans-Serif" font-size="10.00">nars.entity.Concept.fire</text>
<text text-anchor="middle" x="805.5" y="-228" font-family="Helvetica,sans-Serif" font-size="10.00">FromProcessConcept</text>
</a>
</g>
</g>
<!-- Node230&#45;&gt;Node231 -->
<g id="edge17" class="edge"><title>Node230&#45;&gt;Node231</title>
<path fill="none" stroke="midnightblue" d="M715.241,-236.488C725.685,-236.431 736.09,-236.374 745.91,-236.32"/>
<polygon fill="midnightblue" stroke="midnightblue" points="715.215,-232.988 705.234,-236.542 715.253,-239.988 715.215,-232.988"/>
</g>
<!-- Node232 -->
<g id="node18" class="node"><title>Node232</title>
<g id="a_node18"><a xlink:href="../../d4/d27/a00392.html#a0acc4adbf6a2462245da46bcb529746c" target="_top" xlink:title="Select a concept to fireFromProcessConcept. ">
<polygon fill="none" stroke="black" points="911.5,-221 911.5,-251 1057.5,-251 1057.5,-221 911.5,-221"/>
<text text-anchor="start" x="919.5" y="-239" font-family="Helvetica,sans-Serif" font-size="10.00">nars.storage.Memory.process</text>
<text text-anchor="middle" x="984.5" y="-228" font-family="Helvetica,sans-Serif" font-size="10.00">Concept</text>
</a>
</g>
</g>
<!-- Node231&#45;&gt;Node232 -->
<g id="edge18" class="edge"><title>Node231&#45;&gt;Node232</title>
<path fill="none" stroke="midnightblue" d="M875.585,-236C887.295,-236 899.483,-236 911.272,-236"/>
<polygon fill="midnightblue" stroke="midnightblue" points="875.438,-232.5 865.438,-236 875.438,-239.5 875.438,-232.5"/>
</g>
<!-- Node232&#45;&gt;Node222 -->
<g id="edge19" class="edge"><title>Node232&#45;&gt;Node222</title>
<path fill="none" stroke="midnightblue" d="M1067.74,-239.072C1118.96,-241.791 1186.09,-246.822 1245,-256 1259.67,-258.286 1275.36,-261.57 1289.9,-264.978"/>
<polygon fill="midnightblue" stroke="midnightblue" points="1067.88,-235.574 1057.72,-238.558 1067.53,-242.565 1067.88,-235.574"/>
</g>
<!-- Node233&#45;&gt;Node234 -->
<g id="edge21" class="edge"><title>Node233&#45;&gt;Node234</title>
<path fill="none" stroke="midnightblue" d="M293.589,-173.61C320.398,-179.014 351.895,-185.364 377.276,-190.48"/>
<polygon fill="midnightblue" stroke="midnightblue" points="294.061,-170.134 283.567,-171.589 292.678,-176.996 294.061,-170.134"/>
</g>
<!-- Node235 -->
<g id="node21" class="node"><title>Node235</title>
<g id="a_node21"><a xlink:href="../../d0/d53/a00232.html#a7efe1a85c0739a0fd0dc3f03dbd679a9" target="_top" xlink:title="Constructor to make actual TermLink from a template. ">
<polygon fill="none" stroke="black" points="351,-152.5 351,-171.5 500,-171.5 500,-152.5 351,-152.5"/>
<text text-anchor="middle" x="425.5" y="-159.5" font-family="Helvetica,sans-Serif" font-size="10.00">nars.entity.TermLink.TermLink</text>
</a>
</g>
</g>
<!-- Node233&#45;&gt;Node235 -->
<g id="edge22" class="edge"><title>Node233&#45;&gt;Node235</title>
<path fill="none" stroke="midnightblue" d="M315.382,-162C327.174,-162 339.285,-162 350.95,-162"/>
<polygon fill="midnightblue" stroke="midnightblue" points="315.12,-158.5 305.12,-162 315.12,-165.5 315.12,-158.5"/>
</g>
<!-- Node237 -->
<g id="node23" class="node"><title>Node237</title>
<g id="a_node23"><a xlink:href="../../dc/d31/a00208.html#a7adee9838f91c397f4b747351ead9f75" target="_top" xlink:title="nars.entity.Item.toStringLong">
<polygon fill="none" stroke="black" points="354,-114.5 354,-133.5 497,-133.5 497,-114.5 354,-114.5"/>
<text text-anchor="middle" x="425.5" y="-121.5" font-family="Helvetica,sans-Serif" font-size="10.00">nars.entity.Item.toStringLong</text>
</a>
</g>
</g>
<!-- Node236&#45;&gt;Node237 -->
<g id="edge25" class="edge"><title>Node236&#45;&gt;Node237</title>
<path fill="none" stroke="midnightblue" d="M306.208,-124C321.73,-124 338.185,-124 353.729,-124"/>
<polygon fill="midnightblue" stroke="midnightblue" points="306.161,-120.5 296.161,-124 306.161,-127.5 306.161,-120.5"/>
</g>
<!-- Node238 -->
<g id="node24" class="node"><title>Node238</title>
<g id="a_node24"><a xlink:href="../../d6/db8/a00376.html#adff1bdb7ded17b66dc84068e49571ba7" target="_top" xlink:title="TODO bad paste from preceding. ">
<polygon fill="none" stroke="black" points="552,-134 552,-164 689,-164 689,-134 552,-134"/>
<text text-anchor="start" x="560" y="-152" font-family="Helvetica,sans-Serif" font-size="10.00">nars.storage.Bag&lt; Concept</text>
<text text-anchor="middle" x="620.5" y="-141" font-family="Helvetica,sans-Serif" font-size="10.00"> &gt;::toStringLong</text>
</a>
</g>
</g>
<!-- Node237&#45;&gt;Node238 -->
<g id="edge26" class="edge"><title>Node237&#45;&gt;Node238</title>
<path fill="none" stroke="midnightblue" d="M507.432,-134.483C522.251,-136.403 537.574,-138.388 551.951,-140.25"/>
<polygon fill="midnightblue" stroke="midnightblue" points="507.637,-130.981 497.27,-133.167 506.738,-137.923 507.637,-130.981"/>
</g>
<!-- Node239 -->
<g id="node25" class="node"><title>Node239</title>
<g id="a_node25"><a xlink:href="../../d4/d27/a00392.html#af2a2377d1c59d2b966ddc553809b9eab" target="_top" xlink:title="nars.storage.Memory.toString\lLongIfNotNull">
<polygon fill="none" stroke="black" points="547.5,-85 547.5,-115 693.5,-115 693.5,-85 547.5,-85"/>
<text text-anchor="start" x="555.5" y="-103" font-family="Helvetica,sans-Serif" font-size="10.00">nars.storage.Memory.toString</text>
<text text-anchor="middle" x="620.5" y="-92" font-family="Helvetica,sans-Serif" font-size="10.00">LongIfNotNull</text>
</a>
</g>
</g>
<!-- Node237&#45;&gt;Node239 -->
<g id="edge27" class="edge"><title>Node237&#45;&gt;Node239</title>
<path fill="none" stroke="midnightblue" d="M507.349,-113.946C520.656,-112.291 534.371,-110.586 547.445,-108.96"/>
<polygon fill="midnightblue" stroke="midnightblue" points="506.762,-110.492 497.27,-115.2 507.626,-117.439 506.762,-110.492"/>
</g>
</g>
</svg>
        <g id="navigator" transform="translate(0 0)" fill="#404254">
                <rect fill="#f2f5e9" fill-opacity="0.5" stroke="#606060" stroke-width=".5" x="0" y="0" width="60" height="60"/>
                <use id="zoomplus" xlink:href="#zoomPlus" x="17" y="9" onmousedown="handleZoom(evt,'in')"/>
                <use id="zoomminus" xlink:href="#zoomMin" x="42" y="9" onmousedown="handleZoom(evt,'out')"/>
                <use id="reset" xlink:href="#resetDef" x="30" y="36" onmousedown="handleReset()"/>
                <g id="arrowUp" xlink:href="#dirArrow" transform="translate(30 24)" onmousedown="handlePan(0,-1)">
                  <use xlink:href="#rim" fill="#404040">
                        <set attributeName="fill" to="#808080" begin="arrowUp.mouseover" end="arrowUp.mouseout"/>
                  </use>
                  <path fill="none" stroke="white" stroke-width="1.5" d="M0,-3.0v7 M-2.5,-0.5L0,-3.0L2.5,-0.5"/>
                </g>
                <g id="arrowRight" xlink:href="#dirArrow" transform="rotate(90) translate(36 -43)" onmousedown="handlePan(1,0)">
                  <use xlink:href="#rim" fill="#404040">
                        <set attributeName="fill" to="#808080" begin="arrowRight.mouseover" end="arrowRight.mouseout"/>
                  </use>
                  <path fill="none" stroke="white" stroke-width="1.5" d="M0,-3.0v7 M-2.5,-0.5L0,-3.0L2.5,-0.5"/>
                </g>
                <g id="arrowDown" xlink:href="#dirArrow" transform="rotate(180) translate(-30 -48)" onmousedown="handlePan(0,1)">
                  <use xlink:href="#rim" fill="#404040">
                        <set attributeName="fill" to="#808080" begin="arrowDown.mouseover" end="arrowDown.mouseout"/>
                  </use>
                  <path fill="none" stroke="white" stroke-width="1.5" d="M0,-3.0v7 M-2.5,-0.5L0,-3.0L2.5,-0.5"/>
                </g>
                <g id="arrowLeft" xlink:href="#dirArrow" transform="rotate(270) translate(-36 17)" onmousedown="handlePan(-1,0)">
                  <use xlink:href="#rim" fill="#404040">
                        <set attributeName="fill" to="#808080" begin="arrowLeft.mouseover" end="arrowLeft.mouseout"/>
                  </use>
                  <path fill="none" stroke="white" stroke-width="1.5" d="M0,-3.0v7 M-2.5,-0.5L0,-3.0L2.5,-0.5"/>
                </g>
        </g>
        <svg viewBox="0 0 15 15" width="100%" height="30px" preserveAspectRatio="xMaxYMin meet">
         <g id="arrow_out" transform="scale(0.3 0.3)">
          <a xlink:href="a00208_ab5c9fbb171f325844966b496010acf60_icgraph_org.svg" target="_base">
           <rect id="button" ry="5" rx="5" y="6" x="6" height="38" width="38"
                fill="#f2f5e9" fill-opacity="0.5" stroke="#606060" stroke-width="1.0"/>
           <path id="arrow"
             d="M 11.500037,31.436501 C 11.940474,20.09759 22.043105,11.32322 32.158766,21.979434 L 37.068811,17.246167 C 37.068811,17.246167 37.088388,32 37.088388,32 L 22.160133,31.978069 C 22.160133,31.978069 26.997745,27.140456 26.997745,27.140456 C 18.528582,18.264221 13.291696,25.230495 11.500037,31.436501 z"
             style="fill:#404040;"/>
          </a>
         </g>
        </svg>
</svg>
