<?xml version="1.0" encoding="UTF-8" standalone="no"?>
<!DOCTYPE svg PUBLIC "-//W3C//DTD SVG 1.1//EN"
 "http://www.w3.org/Graphics/SVG/1.1/DTD/svg11.dtd">
<!-- Generated by graphviz version 2.38.0 (20140413.2041)
 -->
<!-- Title: nars.entity.Item.setKey Pages: 1 -->
<svg width="275pt" height="66pt"
 viewBox="0.00 0.00 275.00 66.00" xmlns="http://www.w3.org/2000/svg" xmlns:xlink="http://www.w3.org/1999/xlink">
<g id="graph0" class="graph" transform="scale(1 1) rotate(0) translate(4 62)">
<title>nars.entity.Item.setKey</title>
<!-- Node419 -->
<g id="node1" class="node"><title>Node419</title>
<polygon fill="#bfbfbf" stroke="black" points="0,-19.5 0,-38.5 119,-38.5 119,-19.5 0,-19.5"/>
<text text-anchor="middle" x="59.5" y="-26.5" font-family="Helvetica,sans-Serif" font-size="10.00">nars.entity.Item.setKey</text>
</g>
<!-- Node420 -->
<g id="node2" class="node"><title>Node420</title>
<g id="a_node2"><a xlink:href="../../dc/d31/a00208.html#a9aed5088d8a3402d78ea57d1916c3fcb" target="_top" xlink:title="Constructor with default budget. ">
<polygon fill="none" stroke="black" points="157.5,-38.5 157.5,-57.5 264.5,-57.5 264.5,-38.5 157.5,-38.5"/>
<text text-anchor="middle" x="211" y="-45.5" font-family="Helvetica,sans-Serif" font-size="10.00">nars.entity.Item.Item</text>
</a>
</g>
</g>
<!-- Node419&#45;&gt;Node420 -->
<g id="edge1" class="edge"><title>Node419&#45;&gt;Node420</title>
<path fill="none" stroke="midnightblue" d="M129.303,-37.7442C138.725,-38.9417 148.274,-40.1552 157.346,-41.3082"/>
<polygon fill="midnightblue" stroke="midnightblue" points="129.519,-34.2435 119.157,-36.4548 128.636,-41.1877 129.519,-34.2435"/>
</g>
<!-- Node421 -->
<g id="node3" class="node"><title>Node421</title>
<g id="a_node3"><a xlink:href="../../d5/ddf/a00224.html#ad9bdd119be53a8a3638872ad884f9957" target="_top" xlink:title="Constructor for input task. ">
<polygon fill="none" stroke="black" points="155,-0.5 155,-19.5 267,-19.5 267,-0.5 155,-0.5"/>
<text text-anchor="middle" x="211" y="-7.5" font-family="Helvetica,sans-Serif" font-size="10.00">nars.entity.Task.Task</text>
</a>
</g>
</g>
<!-- Node419&#45;&gt;Node421 -->
<g id="edge2" class="edge"><title>Node419&#45;&gt;Node421</title>
<path fill="none" stroke="midnightblue" d="M129.201,-20.2687C137.824,-19.1729 146.554,-18.0634 154.929,-16.999"/>
<polygon fill="midnightblue" stroke="midnightblue" points="128.636,-16.8123 119.157,-21.5452 129.519,-23.7565 128.636,-16.8123"/>
</g>
</g>
</svg>
