<?xml version="1.0" encoding="UTF-8" standalone="no"?>
<!DOCTYPE svg PUBLIC "-//W3C//DTD SVG 1.1//EN"
 "http://www.w3.org/Graphics/SVG/1.1/DTD/svg11.dtd">
<!-- Generated by graphviz version 2.38.0 (20140413.2041)
 -->
<!-- Title: nars.entity.Item.decPriority Pages: 1 -->
<svg width="2432pt" height="137pt"
 viewBox="0.00 0.00 2432.00 137.00" xmlns="http://www.w3.org/2000/svg" xmlns:xlink="http://www.w3.org/1999/xlink">
<g id="graph0" class="graph" transform="scale(1 1) rotate(0) translate(4 133)">
<title>nars.entity.Item.decPriority</title>
<!-- Node34 -->
<g id="node1" class="node"><title>Node34</title>
<polygon fill="#bfbfbf" stroke="black" points="0,-30 0,-49 134,-49 134,-30 0,-30"/>
<text text-anchor="middle" x="67" y="-37" font-family="Helvetica,sans-Serif" font-size="10.00">nars.entity.Item.decPriority</text>
</g>
<!-- Node35 -->
<g id="node2" class="node"><title>Node35</title>
<g id="a_node2"><a xlink:href="../../dd/dd7/a00248.html#a3943c9b8c0f16170dbf552a0c96ec97e" target="_top" xlink:title="Evaluate the quality of a revision, then de&#45;prioritize the premises. ">
<polygon fill="none" stroke="black" points="170,-30 170,-49 329,-49 329,-30 170,-30"/>
<text text-anchor="middle" x="249.5" y="-37" font-family="Helvetica,sans-Serif" font-size="10.00">nars.inference.LocalRules.revise</text>
</a>
</g>
</g>
<!-- Node34&#45;&gt;Node35 -->
<g id="edge1" class="edge"><title>Node34&#45;&gt;Node35</title>
<path fill="none" stroke="midnightblue" d="M144.343,-39.5C152.753,-39.5 161.328,-39.5 169.767,-39.5"/>
<polygon fill="midnightblue" stroke="midnightblue" points="144.187,-36.0001 134.187,-39.5 144.187,-43.0001 144.187,-36.0001"/>
</g>
<!-- Node36 -->
<g id="node3" class="node"><title>Node36</title>
<g id="a_node3"><a xlink:href="../../dd/dd7/a00248.html#afcdec4a07d241f98cd54ef706781c3cb" target="_top" xlink:title="Belief revision. ">
<polygon fill="none" stroke="black" points="365,-30 365,-49 532,-49 532,-30 365,-30"/>
<text text-anchor="middle" x="448.5" y="-37" font-family="Helvetica,sans-Serif" font-size="10.00">nars.inference.LocalRules.revision</text>
</a>
</g>
</g>
<!-- Node35&#45;&gt;Node36 -->
<g id="edge2" class="edge"><title>Node35&#45;&gt;Node36</title>
<path fill="none" stroke="midnightblue" d="M339.42,-39.5C347.843,-39.5 356.36,-39.5 364.722,-39.5"/>
<polygon fill="midnightblue" stroke="midnightblue" points="339.209,-36.0001 329.209,-39.5 339.209,-43.0001 339.209,-36.0001"/>
</g>
<!-- Node37 -->
<g id="node4" class="node"><title>Node37</title>
<g id="a_node4"><a xlink:href="../../d7/ded/a00196.html#a40cddcc82ee28a1cf5b1f4bc14e2b078" target="_top" xlink:title="To accept a new judgment as isBelief, and check for revisions and solutions. ">
<polygon fill="none" stroke="black" points="578,-47.5 578,-77.5 718,-77.5 718,-47.5 578,-47.5"/>
<text text-anchor="start" x="586" y="-65.5" font-family="Helvetica,sans-Serif" font-size="10.00">nars.entity.Concept.process</text>
<text text-anchor="middle" x="648" y="-54.5" font-family="Helvetica,sans-Serif" font-size="10.00">Judgment</text>
</a>
</g>
</g>
<!-- Node36&#45;&gt;Node37 -->
<g id="edge3" class="edge"><title>Node36&#45;&gt;Node37</title>
<path fill="none" stroke="midnightblue" d="M541.49,-50.2128C553.732,-51.6384 566.113,-53.0802 577.875,-54.45"/>
<polygon fill="midnightblue" stroke="midnightblue" points="541.594,-46.7013 531.256,-49.021 540.784,-53.6543 541.594,-46.7013"/>
</g>
<!-- Node48 -->
<g id="node15" class="node"><title>Node48</title>
<g id="a_node15"><a xlink:href="../../dd/dd7/a00248.html#aac1c92950f50edd04d12229a8c992987" target="_top" xlink:title="The task and belief have the same content. ">
<polygon fill="none" stroke="black" points="568,-8 568,-27 728,-27 728,-8 568,-8"/>
<text text-anchor="middle" x="648" y="-15" font-family="Helvetica,sans-Serif" font-size="10.00">nars.inference.LocalRules.match</text>
</a>
</g>
</g>
<!-- Node36&#45;&gt;Node48 -->
<g id="edge15" class="edge"><title>Node36&#45;&gt;Node48</title>
<path fill="none" stroke="midnightblue" d="M542.162,-29.1781C550.76,-28.2204 559.419,-27.2558 567.878,-26.3136"/>
<polygon fill="midnightblue" stroke="midnightblue" points="541.664,-25.7118 532.113,-30.2975 542.439,-32.6688 541.664,-25.7118"/>
</g>
<!-- Node38 -->
<g id="node5" class="node"><title>Node38</title>
<g id="a_node5"><a xlink:href="../../d7/ded/a00196.html#a9ea7c3154932d7a736c105eb55daeb5c" target="_top" xlink:title="Directly process a new task. ">
<polygon fill="none" stroke="black" points="781,-48.5 781,-78.5 910,-78.5 910,-48.5 781,-48.5"/>
<text text-anchor="start" x="789" y="-66.5" font-family="Helvetica,sans-Serif" font-size="10.00">nars.entity.Concept.direct</text>
<text text-anchor="middle" x="845.5" y="-55.5" font-family="Helvetica,sans-Serif" font-size="10.00">Process</text>
</a>
</g>
</g>
<!-- Node37&#45;&gt;Node38 -->
<g id="edge4" class="edge"><title>Node37&#45;&gt;Node38</title>
<path fill="none" stroke="midnightblue" d="M728.386,-62.9061C745.875,-62.9955 764.177,-63.0891 780.943,-63.1749"/>
<polygon fill="midnightblue" stroke="midnightblue" points="728.219,-59.4053 718.201,-62.854 728.183,-66.4052 728.219,-59.4053"/>
</g>
<!-- Node39 -->
<g id="node6" class="node"><title>Node39</title>
<g id="a_node6"><a xlink:href="../../d4/d27/a00392.html#af8d07412d21a441a5c7005a477b06468" target="_top" xlink:title="Immediate processing of a new task, in constant time Local processing, in one concept only...">
<polygon fill="none" stroke="black" points="963,-49.5 963,-79.5 1120,-79.5 1120,-49.5 963,-49.5"/>
<text text-anchor="start" x="971" y="-67.5" font-family="Helvetica,sans-Serif" font-size="10.00">nars.storage.Memory.immediate</text>
<text text-anchor="middle" x="1041.5" y="-56.5" font-family="Helvetica,sans-Serif" font-size="10.00">Process</text>
</a>
</g>
</g>
<!-- Node38&#45;&gt;Node39 -->
<g id="edge5" class="edge"><title>Node38&#45;&gt;Node39</title>
<path fill="none" stroke="midnightblue" d="M920.088,-63.8793C934.105,-63.9516 948.815,-64.0274 962.95,-64.1003"/>
<polygon fill="midnightblue" stroke="midnightblue" points="920.041,-60.3791 910.023,-63.8274 920.005,-67.379 920.041,-60.3791"/>
</g>
<!-- Node40 -->
<g id="node7" class="node"><title>Node40</title>
<g id="a_node7"><a xlink:href="../../d4/d27/a00392.html#ae43b86074c0d8f6a324696f69faa54b3" target="_top" xlink:title="Process the newTasks accumulated in the previous workCycle, accept input ones and those that correspo...">
<polygon fill="none" stroke="black" points="1156,-98.5 1156,-128.5 1302,-128.5 1302,-98.5 1156,-98.5"/>
<text text-anchor="start" x="1164" y="-116.5" font-family="Helvetica,sans-Serif" font-size="10.00">nars.storage.Memory.process</text>
<text text-anchor="middle" x="1229" y="-105.5" font-family="Helvetica,sans-Serif" font-size="10.00">NewTask</text>
</a>
</g>
</g>
<!-- Node39&#45;&gt;Node40 -->
<g id="edge6" class="edge"><title>Node39&#45;&gt;Node40</title>
<path fill="none" stroke="midnightblue" d="M1109.22,-82.1229C1129.51,-87.4837 1151.61,-93.3225 1171.19,-98.4938"/>
<polygon fill="midnightblue" stroke="midnightblue" points="1109.98,-78.7047 1099.42,-79.5346 1108.19,-85.4725 1109.98,-78.7047"/>
</g>
<!-- Node47 -->
<g id="node14" class="node"><title>Node47</title>
<g id="a_node14"><a xlink:href="../../d4/d27/a00392.html#a5061708f88897cfdf4e0671c846762ca" target="_top" xlink:title="Select a novel task to process. ">
<polygon fill="none" stroke="black" points="1156,-49.5 1156,-79.5 1302,-79.5 1302,-49.5 1156,-49.5"/>
<text text-anchor="start" x="1164" y="-67.5" font-family="Helvetica,sans-Serif" font-size="10.00">nars.storage.Memory.process</text>
<text text-anchor="middle" x="1229" y="-56.5" font-family="Helvetica,sans-Serif" font-size="10.00">NovelTask</text>
</a>
</g>
</g>
<!-- Node39&#45;&gt;Node47 -->
<g id="edge13" class="edge"><title>Node39&#45;&gt;Node47</title>
<path fill="none" stroke="midnightblue" d="M1130.12,-64.5C1138.71,-64.5 1147.35,-64.5 1155.75,-64.5"/>
<polygon fill="midnightblue" stroke="midnightblue" points="1130.09,-61.0001 1120.09,-64.5 1130.09,-68.0001 1130.09,-61.0001"/>
</g>
<!-- Node41 -->
<g id="node8" class="node"><title>Node41</title>
<g id="a_node8"><a xlink:href="../../d4/d27/a00392.html#a59ae339d666409988d90d29be4f73a91" target="_top" xlink:title="An atomic working workCycle of the system: process new Tasks, then fireFromProcessConcept a concept...">
<polygon fill="none" stroke="black" points="1338,-49.5 1338,-79.5 1471,-79.5 1471,-49.5 1338,-49.5"/>
<text text-anchor="start" x="1346" y="-67.5" font-family="Helvetica,sans-Serif" font-size="10.00">nars.storage.Memory.work</text>
<text text-anchor="middle" x="1404.5" y="-56.5" font-family="Helvetica,sans-Serif" font-size="10.00">Cycle</text>
</a>
</g>
</g>
<!-- Node40&#45;&gt;Node41 -->
<g id="edge7" class="edge"><title>Node40&#45;&gt;Node41</title>
<path fill="none" stroke="midnightblue" d="M1293.1,-95.6788C1311.83,-90.3882 1332.16,-84.6478 1350.21,-79.5516"/>
<polygon fill="midnightblue" stroke="midnightblue" points="1292.14,-92.3123 1283.47,-98.3986 1294.05,-99.0488 1292.14,-92.3123"/>
</g>
<!-- Node42 -->
<g id="node9" class="node"><title>Node42</title>
<g id="a_node9"><a xlink:href="../../df/d15/a00416.html#a0d5c797dc17d9e8d0998852915e0f303" target="_top" xlink:title="nars.storage.ReasonerBatch.doTick">
<polygon fill="none" stroke="black" points="1507,-55 1507,-74 1680,-74 1680,-55 1507,-55"/>
<text text-anchor="middle" x="1593.5" y="-62" font-family="Helvetica,sans-Serif" font-size="10.00">nars.storage.ReasonerBatch.doTick</text>
</a>
</g>
</g>
<!-- Node41&#45;&gt;Node42 -->
<g id="edge8" class="edge"><title>Node41&#45;&gt;Node42</title>
<path fill="none" stroke="midnightblue" d="M1481.34,-64.5C1489.78,-64.5 1498.42,-64.5 1506.97,-64.5"/>
<polygon fill="midnightblue" stroke="midnightblue" points="1481.17,-61.0001 1471.17,-64.5 1481.17,-68.0001 1481.17,-61.0001"/>
</g>
<!-- Node43 -->
<g id="node10" class="node"><title>Node43</title>
<g id="a_node10"><a xlink:href="../../df/d15/a00416.html#a3468aa0f99edcd66412f27922dddb880" target="_top" xlink:title="A clock tick. ">
<polygon fill="none" stroke="black" points="1716,-55 1716,-74 1876,-74 1876,-55 1716,-55"/>
<text text-anchor="middle" x="1796" y="-62" font-family="Helvetica,sans-Serif" font-size="10.00">nars.storage.ReasonerBatch.tick</text>
</a>
</g>
</g>
<!-- Node42&#45;&gt;Node43 -->
<g id="edge9" class="edge"><title>Node42&#45;&gt;Node43</title>
<path fill="none" stroke="midnightblue" d="M1690.13,-64.5C1698.7,-64.5 1707.31,-64.5 1715.71,-64.5"/>
<polygon fill="midnightblue" stroke="midnightblue" points="1690.11,-61.0001 1680.11,-64.5 1690.11,-68.0001 1690.11,-61.0001"/>
</g>
<!-- Node44 -->
<g id="node11" class="node"><title>Node44</title>
<g id="a_node11"><a xlink:href="../../d9/da1/a00396.html#a5d9cfe517bcfbe41e5251910bcd119c1" target="_top" xlink:title="Run to completion: repeatedly execute NARS working cycle, until Inputs are Finished, or 1000 steps. ">
<polygon fill="none" stroke="black" points="1912,-55 1912,-74 2056,-74 2056,-55 1912,-55"/>
<text text-anchor="middle" x="1984" y="-62" font-family="Helvetica,sans-Serif" font-size="10.00">nars.storage.NARSBatch.run</text>
</a>
</g>
</g>
<!-- Node43&#45;&gt;Node44 -->
<g id="edge10" class="edge"><title>Node43&#45;&gt;Node44</title>
<path fill="none" stroke="midnightblue" d="M1886.22,-64.5C1894.82,-64.5 1903.47,-64.5 1911.87,-64.5"/>
<polygon fill="midnightblue" stroke="midnightblue" points="1886.15,-61.0001 1876.15,-64.5 1886.15,-68.0001 1886.15,-61.0001"/>
</g>
<!-- Node45 -->
<g id="node12" class="node"><title>Node45</title>
<g id="a_node12"><a xlink:href="../../d9/da1/a00396.html#a7c307c6b842f82664de6b0e52bdf8efc" target="_top" xlink:title="non&#45;static equivalent to main(String[]) : run to completion from an input file ">
<polygon fill="none" stroke="black" points="2092,-49.5 2092,-79.5 2236,-79.5 2236,-49.5 2092,-49.5"/>
<text text-anchor="start" x="2100" y="-67.5" font-family="Helvetica,sans-Serif" font-size="10.00">nars.storage.NARSBatch.run</text>
<text text-anchor="middle" x="2164" y="-56.5" font-family="Helvetica,sans-Serif" font-size="10.00">Inference</text>
</a>
</g>
</g>
<!-- Node44&#45;&gt;Node45 -->
<g id="edge11" class="edge"><title>Node44&#45;&gt;Node45</title>
<path fill="none" stroke="midnightblue" d="M2066.17,-64.5C2074.79,-64.5 2083.51,-64.5 2092,-64.5"/>
<polygon fill="midnightblue" stroke="midnightblue" points="2066.12,-61.0001 2056.12,-64.5 2066.12,-68.0001 2066.12,-61.0001"/>
</g>
<!-- Node46 -->
<g id="node13" class="node"><title>Node46</title>
<g id="a_node13"><a xlink:href="../../d9/da1/a00396.html#abafc597289bc2f6453b5cd0dd6634e54" target="_top" xlink:title="The entry point of the standalone application. ">
<polygon fill="none" stroke="black" points="2272,-55 2272,-74 2424,-74 2424,-55 2272,-55"/>
<text text-anchor="middle" x="2348" y="-62" font-family="Helvetica,sans-Serif" font-size="10.00">nars.storage.NARSBatch.main</text>
</a>
</g>
</g>
<!-- Node45&#45;&gt;Node46 -->
<g id="edge12" class="edge"><title>Node45&#45;&gt;Node46</title>
<path fill="none" stroke="midnightblue" d="M2246.17,-64.5C2254.76,-64.5 2263.48,-64.5 2272,-64.5"/>
<polygon fill="midnightblue" stroke="midnightblue" points="2246.15,-61.0001 2236.15,-64.5 2246.15,-68.0001 2246.15,-61.0001"/>
</g>
<!-- Node47&#45;&gt;Node41 -->
<g id="edge14" class="edge"><title>Node47&#45;&gt;Node41</title>
<path fill="none" stroke="midnightblue" d="M1312.12,-64.5C1320.72,-64.5 1329.37,-64.5 1337.76,-64.5"/>
<polygon fill="midnightblue" stroke="midnightblue" points="1312.07,-61.0001 1302.07,-64.5 1312.07,-68.0001 1312.07,-61.0001"/>
</g>
<!-- Node49 -->
<g id="node16" class="node"><title>Node49</title>
<g id="a_node16"><a xlink:href="../../dc/ded/a00252.html#ac2d01dfdc40bdd47c757cb549217e6e3" target="_top" xlink:title="Entry point of the inference engine. ">
<polygon fill="none" stroke="black" points="764,-6 764,-25 927,-25 927,-6 764,-6"/>
<text text-anchor="middle" x="845.5" y="-13" font-family="Helvetica,sans-Serif" font-size="10.00">nars.inference.RuleTables.reason</text>
</a>
</g>
</g>
<!-- Node48&#45;&gt;Node49 -->
<g id="edge16" class="edge"><title>Node48&#45;&gt;Node49</title>
<path fill="none" stroke="midnightblue" d="M738.499,-16.5844C746.962,-16.4978 755.507,-16.4104 763.88,-16.3248"/>
<polygon fill="midnightblue" stroke="midnightblue" points="738.199,-13.0872 728.236,-16.6894 738.271,-20.0868 738.199,-13.0872"/>
</g>
<!-- Node50 -->
<g id="node17" class="node"><title>Node50</title>
<g id="a_node17"><a xlink:href="../../d7/ded/a00196.html#ad6fb91dda799c3092ecb186ef24ca92a" target="_top" xlink:title="An atomic step in a concept, only called in Memory# processConcept. ">
<polygon fill="none" stroke="black" points="982,-0.5 982,-30.5 1101,-30.5 1101,-0.5 982,-0.5"/>
<text text-anchor="start" x="990" y="-18.5" font-family="Helvetica,sans-Serif" font-size="10.00">nars.entity.Concept.fire</text>
<text text-anchor="middle" x="1041.5" y="-7.5" font-family="Helvetica,sans-Serif" font-size="10.00">FromProcessConcept</text>
</a>
</g>
</g>
<!-- Node49&#45;&gt;Node50 -->
<g id="edge17" class="edge"><title>Node49&#45;&gt;Node50</title>
<path fill="none" stroke="midnightblue" d="M937.461,-15.5C952.516,-15.5 967.765,-15.5 981.751,-15.5"/>
<polygon fill="midnightblue" stroke="midnightblue" points="937.088,-12.0001 927.088,-15.5 937.088,-19.0001 937.088,-12.0001"/>
</g>
<!-- Node51 -->
<g id="node18" class="node"><title>Node51</title>
<g id="a_node18"><a xlink:href="../../d4/d27/a00392.html#a0acc4adbf6a2462245da46bcb529746c" target="_top" xlink:title="Select a concept to fireFromProcessConcept. ">
<polygon fill="none" stroke="black" points="1156,-0.5 1156,-30.5 1302,-30.5 1302,-0.5 1156,-0.5"/>
<text text-anchor="start" x="1164" y="-18.5" font-family="Helvetica,sans-Serif" font-size="10.00">nars.storage.Memory.process</text>
<text text-anchor="middle" x="1229" y="-7.5" font-family="Helvetica,sans-Serif" font-size="10.00">Concept</text>
</a>
</g>
</g>
<!-- Node50&#45;&gt;Node51 -->
<g id="edge18" class="edge"><title>Node50&#45;&gt;Node51</title>
<path fill="none" stroke="midnightblue" d="M1111.52,-15.5C1125.93,-15.5 1141.16,-15.5 1155.68,-15.5"/>
<polygon fill="midnightblue" stroke="midnightblue" points="1111.19,-12.0001 1101.19,-15.5 1111.19,-19.0001 1111.19,-12.0001"/>
</g>
<!-- Node51&#45;&gt;Node41 -->
<g id="edge19" class="edge"><title>Node51&#45;&gt;Node41</title>
<path fill="none" stroke="midnightblue" d="M1293.1,-33.3212C1311.83,-38.6118 1332.16,-44.3522 1350.21,-49.4484"/>
<polygon fill="midnightblue" stroke="midnightblue" points="1294.05,-29.9512 1283.47,-30.6014 1292.14,-36.6877 1294.05,-29.9512"/>
</g>
</g>
</svg>
