<?xml version="1.0" encoding="UTF-8" standalone="no"?>
<!DOCTYPE svg PUBLIC "-//W3C//DTD SVG 1.1//EN"
 "http://www.w3.org/Graphics/SVG/1.1/DTD/svg11.dtd">
<!-- Generated by graphviz version 2.38.0 (20140413.2041)
 -->
<!-- Title: nars.entity.Item.setPriority Pages: 1 -->
<svg width="2622pt" height="181pt"
 viewBox="0.00 0.00 2622.00 181.00" xmlns="http://www.w3.org/2000/svg" xmlns:xlink="http://www.w3.org/1999/xlink">
<g id="graph0" class="graph" transform="scale(1 1) rotate(0) translate(4 177)">
<title>nars.entity.Item.setPriority</title>
<!-- Node425 -->
<g id="node1" class="node"><title>Node425</title>
<polygon fill="#bfbfbf" stroke="black" points="0,-85 0,-104 132,-104 132,-85 0,-85"/>
<text text-anchor="middle" x="66" y="-92" font-family="Helvetica,sans-Serif" font-size="10.00">nars.entity.Item.setPriority</text>
</g>
<!-- Node426 -->
<g id="node2" class="node"><title>Node426</title>
<g id="a_node2"><a xlink:href="../../d9/d21/a00240.html#aabac530761ea7ac0f43f0d1ea8d085c8" target="_top" xlink:title="Activate a concept by an incoming TaskLink. ">
<polygon fill="none" stroke="black" points="168,-105 168,-124 360,-124 360,-105 168,-105"/>
<text text-anchor="middle" x="264" y="-112" font-family="Helvetica,sans-Serif" font-size="10.00">nars.inference.BudgetFunctions.activate</text>
</a>
</g>
</g>
<!-- Node425&#45;&gt;Node426 -->
<g id="edge1" class="edge"><title>Node425&#45;&gt;Node426</title>
<path fill="none" stroke="midnightblue" d="M142.28,-102.182C151.268,-103.099 160.525,-104.043 169.727,-104.982"/>
<polygon fill="midnightblue" stroke="midnightblue" points="142.569,-98.693 132.265,-101.16 141.858,-105.657 142.569,-98.693"/>
</g>
<!-- Node440 -->
<g id="node16" class="node"><title>Node440</title>
<g id="a_node16"><a xlink:href="../../dd/dd7/a00248.html#a47cb028f5b51be6eb77e3e619fccfc7c" target="_top" xlink:title="Evaluate the quality of a belief as a solution to a problem, then reward the belief and de&#45;prioritize...">
<polygon fill="none" stroke="black" points="171,-66 171,-85 357,-85 357,-66 171,-66"/>
<text text-anchor="middle" x="264" y="-73" font-family="Helvetica,sans-Serif" font-size="10.00">nars.inference.LocalRules.solutionEval</text>
</a>
</g>
</g>
<!-- Node425&#45;&gt;Node440 -->
<g id="edge16" class="edge"><title>Node425&#45;&gt;Node440</title>
<path fill="none" stroke="midnightblue" d="M142.264,-87.204C151.6,-86.2989 161.228,-85.3657 170.782,-84.4395"/>
<polygon fill="midnightblue" stroke="midnightblue" points="141.881,-83.7247 132.265,-88.1733 142.556,-90.692 141.881,-83.7247"/>
</g>
<!-- Node427 -->
<g id="node3" class="node"><title>Node427</title>
<g id="a_node3"><a xlink:href="../../d4/d27/a00392.html#a7affdc42dcb55d27d76cf636eab6230f" target="_top" xlink:title="Adjust the activation level of a Concept. ">
<polygon fill="none" stroke="black" points="396,-103.5 396,-133.5 542,-133.5 542,-103.5 396,-103.5"/>
<text text-anchor="start" x="404" y="-121.5" font-family="Helvetica,sans-Serif" font-size="10.00">nars.storage.Memory.activate</text>
<text text-anchor="middle" x="469" y="-110.5" font-family="Helvetica,sans-Serif" font-size="10.00">Concept</text>
</a>
</g>
</g>
<!-- Node426&#45;&gt;Node427 -->
<g id="edge2" class="edge"><title>Node426&#45;&gt;Node427</title>
<path fill="none" stroke="midnightblue" d="M370.354,-116.576C378.952,-116.745 387.512,-116.914 395.789,-117.077"/>
<polygon fill="midnightblue" stroke="midnightblue" points="370.326,-113.075 360.259,-116.377 370.188,-120.073 370.326,-113.075"/>
</g>
<!-- Node428 -->
<g id="node4" class="node"><title>Node428</title>
<g id="a_node4"><a xlink:href="../../d7/ded/a00196.html#aef21f5ae7bef5194bd37ae526302843d" target="_top" xlink:title="Insert a TaskLink into the TaskLink bag. ">
<polygon fill="none" stroke="black" points="585.5,-129.5 585.5,-159.5 714.5,-159.5 714.5,-129.5 585.5,-129.5"/>
<text text-anchor="start" x="593.5" y="-147.5" font-family="Helvetica,sans-Serif" font-size="10.00">nars.entity.Concept.insert</text>
<text text-anchor="middle" x="650" y="-136.5" font-family="Helvetica,sans-Serif" font-size="10.00">TaskLink</text>
</a>
</g>
</g>
<!-- Node427&#45;&gt;Node428 -->
<g id="edge3" class="edge"><title>Node427&#45;&gt;Node428</title>
<path fill="none" stroke="midnightblue" d="M552.225,-130.443C563.392,-132.065 574.71,-133.709 585.48,-135.274"/>
<polygon fill="midnightblue" stroke="midnightblue" points="552.432,-126.937 542.032,-128.963 551.425,-133.864 552.432,-126.937"/>
</g>
<!-- Node429 -->
<g id="node5" class="node"><title>Node429</title>
<g id="a_node5"><a xlink:href="../../d7/ded/a00196.html#a501121a11fc046eea4b69720cb622d84" target="_top" xlink:title="Link to a new task from all relevant concepts for continued processing in the near future for unspeci...">
<polygon fill="none" stroke="black" points="778,-142.5 778,-172.5 898,-172.5 898,-142.5 778,-142.5"/>
<text text-anchor="start" x="786" y="-160.5" font-family="Helvetica,sans-Serif" font-size="10.00">nars.entity.Concept.link</text>
<text text-anchor="middle" x="838" y="-149.5" font-family="Helvetica,sans-Serif" font-size="10.00">ToTask</text>
</a>
</g>
</g>
<!-- Node428&#45;&gt;Node429 -->
<g id="edge4" class="edge"><title>Node428&#45;&gt;Node429</title>
<path fill="none" stroke="midnightblue" d="M724.941,-149.668C742.467,-150.893 760.937,-152.184 777.714,-153.356"/>
<polygon fill="midnightblue" stroke="midnightblue" points="724.97,-146.162 714.75,-148.956 724.482,-153.144 724.97,-146.162"/>
</g>
<!-- Node430 -->
<g id="node6" class="node"><title>Node430</title>
<g id="a_node6"><a xlink:href="../../d7/ded/a00196.html#a9ea7c3154932d7a736c105eb55daeb5c" target="_top" xlink:title="Directly process a new task. ">
<polygon fill="none" stroke="black" points="971,-93.5 971,-123.5 1100,-123.5 1100,-93.5 971,-93.5"/>
<text text-anchor="start" x="979" y="-111.5" font-family="Helvetica,sans-Serif" font-size="10.00">nars.entity.Concept.direct</text>
<text text-anchor="middle" x="1035.5" y="-100.5" font-family="Helvetica,sans-Serif" font-size="10.00">Process</text>
</a>
</g>
</g>
<!-- Node429&#45;&gt;Node430 -->
<g id="edge5" class="edge"><title>Node429&#45;&gt;Node430</title>
<path fill="none" stroke="midnightblue" d="M907.995,-140.207C929.698,-134.768 953.476,-128.808 974.501,-123.538"/>
<polygon fill="midnightblue" stroke="midnightblue" points="907.036,-136.839 898.187,-142.665 908.738,-143.629 907.036,-136.839"/>
</g>
<!-- Node431 -->
<g id="node7" class="node"><title>Node431</title>
<g id="a_node7"><a xlink:href="../../d4/d27/a00392.html#af8d07412d21a441a5c7005a477b06468" target="_top" xlink:title="Immediate processing of a new task, in constant time Local processing, in one concept only...">
<polygon fill="none" stroke="black" points="1153,-93.5 1153,-123.5 1310,-123.5 1310,-93.5 1153,-93.5"/>
<text text-anchor="start" x="1161" y="-111.5" font-family="Helvetica,sans-Serif" font-size="10.00">nars.storage.Memory.immediate</text>
<text text-anchor="middle" x="1231.5" y="-100.5" font-family="Helvetica,sans-Serif" font-size="10.00">Process</text>
</a>
</g>
</g>
<!-- Node430&#45;&gt;Node431 -->
<g id="edge6" class="edge"><title>Node430&#45;&gt;Node431</title>
<path fill="none" stroke="midnightblue" d="M1110.09,-108.5C1124.1,-108.5 1138.81,-108.5 1152.95,-108.5"/>
<polygon fill="midnightblue" stroke="midnightblue" points="1110.02,-105 1100.02,-108.5 1110.02,-112 1110.02,-105"/>
</g>
<!-- Node432 -->
<g id="node8" class="node"><title>Node432</title>
<g id="a_node8"><a xlink:href="../../d4/d27/a00392.html#ae43b86074c0d8f6a324696f69faa54b3" target="_top" xlink:title="Process the newTasks accumulated in the previous workCycle, accept input ones and those that correspo...">
<polygon fill="none" stroke="black" points="1346,-98.5 1346,-128.5 1492,-128.5 1492,-98.5 1346,-98.5"/>
<text text-anchor="start" x="1354" y="-116.5" font-family="Helvetica,sans-Serif" font-size="10.00">nars.storage.Memory.process</text>
<text text-anchor="middle" x="1419" y="-105.5" font-family="Helvetica,sans-Serif" font-size="10.00">NewTask</text>
</a>
</g>
</g>
<!-- Node431&#45;&gt;Node432 -->
<g id="edge7" class="edge"><title>Node431&#45;&gt;Node432</title>
<path fill="none" stroke="midnightblue" d="M1320.12,-110.862C1328.71,-111.093 1337.35,-111.326 1345.75,-111.553"/>
<polygon fill="midnightblue" stroke="midnightblue" points="1320.18,-107.362 1310.09,-110.591 1320,-114.36 1320.18,-107.362"/>
</g>
<!-- Node439 -->
<g id="node15" class="node"><title>Node439</title>
<g id="a_node15"><a xlink:href="../../d4/d27/a00392.html#a5061708f88897cfdf4e0671c846762ca" target="_top" xlink:title="Select a novel task to process. ">
<polygon fill="none" stroke="black" points="1346,-49.5 1346,-79.5 1492,-79.5 1492,-49.5 1346,-49.5"/>
<text text-anchor="start" x="1354" y="-67.5" font-family="Helvetica,sans-Serif" font-size="10.00">nars.storage.Memory.process</text>
<text text-anchor="middle" x="1419" y="-56.5" font-family="Helvetica,sans-Serif" font-size="10.00">NovelTask</text>
</a>
</g>
</g>
<!-- Node431&#45;&gt;Node439 -->
<g id="edge14" class="edge"><title>Node431&#45;&gt;Node439</title>
<path fill="none" stroke="midnightblue" d="M1305.76,-91.1231C1321.92,-87.2888 1338.92,-83.2582 1354.65,-79.5262"/>
<polygon fill="midnightblue" stroke="midnightblue" points="1304.74,-87.7672 1295.82,-93.4808 1306.36,-94.5783 1304.74,-87.7672"/>
</g>
<!-- Node433 -->
<g id="node9" class="node"><title>Node433</title>
<g id="a_node9"><a xlink:href="../../d4/d27/a00392.html#a59ae339d666409988d90d29be4f73a91" target="_top" xlink:title="An atomic working workCycle of the system: process new Tasks, then fireFromProcessConcept a concept...">
<polygon fill="none" stroke="black" points="1528,-49.5 1528,-79.5 1661,-79.5 1661,-49.5 1528,-49.5"/>
<text text-anchor="start" x="1536" y="-67.5" font-family="Helvetica,sans-Serif" font-size="10.00">nars.storage.Memory.work</text>
<text text-anchor="middle" x="1594.5" y="-56.5" font-family="Helvetica,sans-Serif" font-size="10.00">Cycle</text>
</a>
</g>
</g>
<!-- Node432&#45;&gt;Node433 -->
<g id="edge8" class="edge"><title>Node432&#45;&gt;Node433</title>
<path fill="none" stroke="midnightblue" d="M1483.1,-95.6788C1501.83,-90.3882 1522.16,-84.6478 1540.21,-79.5516"/>
<polygon fill="midnightblue" stroke="midnightblue" points="1482.14,-92.3123 1473.47,-98.3986 1484.05,-99.0488 1482.14,-92.3123"/>
</g>
<!-- Node434 -->
<g id="node10" class="node"><title>Node434</title>
<g id="a_node10"><a xlink:href="../../df/d15/a00416.html#a0d5c797dc17d9e8d0998852915e0f303" target="_top" xlink:title="nars.storage.ReasonerBatch.doTick">
<polygon fill="none" stroke="black" points="1697,-55 1697,-74 1870,-74 1870,-55 1697,-55"/>
<text text-anchor="middle" x="1783.5" y="-62" font-family="Helvetica,sans-Serif" font-size="10.00">nars.storage.ReasonerBatch.doTick</text>
</a>
</g>
</g>
<!-- Node433&#45;&gt;Node434 -->
<g id="edge9" class="edge"><title>Node433&#45;&gt;Node434</title>
<path fill="none" stroke="midnightblue" d="M1671.34,-64.5C1679.78,-64.5 1688.42,-64.5 1696.97,-64.5"/>
<polygon fill="midnightblue" stroke="midnightblue" points="1671.17,-61.0001 1661.17,-64.5 1671.17,-68.0001 1671.17,-61.0001"/>
</g>
<!-- Node435 -->
<g id="node11" class="node"><title>Node435</title>
<g id="a_node11"><a xlink:href="../../df/d15/a00416.html#a3468aa0f99edcd66412f27922dddb880" target="_top" xlink:title="A clock tick. ">
<polygon fill="none" stroke="black" points="1906,-55 1906,-74 2066,-74 2066,-55 1906,-55"/>
<text text-anchor="middle" x="1986" y="-62" font-family="Helvetica,sans-Serif" font-size="10.00">nars.storage.ReasonerBatch.tick</text>
</a>
</g>
</g>
<!-- Node434&#45;&gt;Node435 -->
<g id="edge10" class="edge"><title>Node434&#45;&gt;Node435</title>
<path fill="none" stroke="midnightblue" d="M1880.13,-64.5C1888.7,-64.5 1897.31,-64.5 1905.71,-64.5"/>
<polygon fill="midnightblue" stroke="midnightblue" points="1880.11,-61.0001 1870.11,-64.5 1880.11,-68.0001 1880.11,-61.0001"/>
</g>
<!-- Node436 -->
<g id="node12" class="node"><title>Node436</title>
<g id="a_node12"><a xlink:href="../../d9/da1/a00396.html#a5d9cfe517bcfbe41e5251910bcd119c1" target="_top" xlink:title="Run to completion: repeatedly execute NARS working cycle, until Inputs are Finished, or 1000 steps. ">
<polygon fill="none" stroke="black" points="2102,-55 2102,-74 2246,-74 2246,-55 2102,-55"/>
<text text-anchor="middle" x="2174" y="-62" font-family="Helvetica,sans-Serif" font-size="10.00">nars.storage.NARSBatch.run</text>
</a>
</g>
</g>
<!-- Node435&#45;&gt;Node436 -->
<g id="edge11" class="edge"><title>Node435&#45;&gt;Node436</title>
<path fill="none" stroke="midnightblue" d="M2076.22,-64.5C2084.82,-64.5 2093.47,-64.5 2101.87,-64.5"/>
<polygon fill="midnightblue" stroke="midnightblue" points="2076.15,-61.0001 2066.15,-64.5 2076.15,-68.0001 2076.15,-61.0001"/>
</g>
<!-- Node437 -->
<g id="node13" class="node"><title>Node437</title>
<g id="a_node13"><a xlink:href="../../d9/da1/a00396.html#a7c307c6b842f82664de6b0e52bdf8efc" target="_top" xlink:title="non&#45;static equivalent to main(String[]) : run to completion from an input file ">
<polygon fill="none" stroke="black" points="2282,-49.5 2282,-79.5 2426,-79.5 2426,-49.5 2282,-49.5"/>
<text text-anchor="start" x="2290" y="-67.5" font-family="Helvetica,sans-Serif" font-size="10.00">nars.storage.NARSBatch.run</text>
<text text-anchor="middle" x="2354" y="-56.5" font-family="Helvetica,sans-Serif" font-size="10.00">Inference</text>
</a>
</g>
</g>
<!-- Node436&#45;&gt;Node437 -->
<g id="edge12" class="edge"><title>Node436&#45;&gt;Node437</title>
<path fill="none" stroke="midnightblue" d="M2256.17,-64.5C2264.79,-64.5 2273.51,-64.5 2282,-64.5"/>
<polygon fill="midnightblue" stroke="midnightblue" points="2256.12,-61.0001 2246.12,-64.5 2256.12,-68.0001 2256.12,-61.0001"/>
</g>
<!-- Node438 -->
<g id="node14" class="node"><title>Node438</title>
<g id="a_node14"><a xlink:href="../../d9/da1/a00396.html#abafc597289bc2f6453b5cd0dd6634e54" target="_top" xlink:title="The entry point of the standalone application. ">
<polygon fill="none" stroke="black" points="2462,-55 2462,-74 2614,-74 2614,-55 2462,-55"/>
<text text-anchor="middle" x="2538" y="-62" font-family="Helvetica,sans-Serif" font-size="10.00">nars.storage.NARSBatch.main</text>
</a>
</g>
</g>
<!-- Node437&#45;&gt;Node438 -->
<g id="edge13" class="edge"><title>Node437&#45;&gt;Node438</title>
<path fill="none" stroke="midnightblue" d="M2436.17,-64.5C2444.76,-64.5 2453.48,-64.5 2462,-64.5"/>
<polygon fill="midnightblue" stroke="midnightblue" points="2436.15,-61.0001 2426.15,-64.5 2436.15,-68.0001 2436.15,-61.0001"/>
</g>
<!-- Node439&#45;&gt;Node433 -->
<g id="edge15" class="edge"><title>Node439&#45;&gt;Node433</title>
<path fill="none" stroke="midnightblue" d="M1502.12,-64.5C1510.72,-64.5 1519.37,-64.5 1527.76,-64.5"/>
<polygon fill="midnightblue" stroke="midnightblue" points="1502.07,-61.0001 1492.07,-64.5 1502.07,-68.0001 1502.07,-61.0001"/>
</g>
<!-- Node441 -->
<g id="node17" class="node"><title>Node441</title>
<g id="a_node17"><a xlink:href="../../dd/dd7/a00248.html#a3ecf859c238ad7f0c44c45e3e5df0081" target="_top" xlink:title="Check if a Sentence provide a better answer to a Question or Goal. ">
<polygon fill="none" stroke="black" points="578,-56.5 578,-86.5 722,-86.5 722,-56.5 578,-56.5"/>
<text text-anchor="start" x="586" y="-74.5" font-family="Helvetica,sans-Serif" font-size="10.00">nars.inference.LocalRules.try</text>
<text text-anchor="middle" x="650" y="-63.5" font-family="Helvetica,sans-Serif" font-size="10.00">Solution</text>
</a>
</g>
</g>
<!-- Node440&#45;&gt;Node441 -->
<g id="edge17" class="edge"><title>Node440&#45;&gt;Node441</title>
<path fill="none" stroke="midnightblue" d="M367.539,-74.4319C433.923,-73.7404 518.685,-72.8575 577.765,-72.242"/>
<polygon fill="midnightblue" stroke="midnightblue" points="367.429,-70.9327 357.466,-74.5368 367.502,-77.9324 367.429,-70.9327"/>
</g>
<!-- Node442 -->
<g id="node18" class="node"><title>Node442</title>
<g id="a_node18"><a xlink:href="../../d7/ded/a00196.html#a40cddcc82ee28a1cf5b1f4bc14e2b078" target="_top" xlink:title="To accept a new judgment as isBelief, and check for revisions and solutions. ">
<polygon fill="none" stroke="black" points="768,-93.5 768,-123.5 908,-123.5 908,-93.5 768,-93.5"/>
<text text-anchor="start" x="776" y="-111.5" font-family="Helvetica,sans-Serif" font-size="10.00">nars.entity.Concept.process</text>
<text text-anchor="middle" x="838" y="-100.5" font-family="Helvetica,sans-Serif" font-size="10.00">Judgment</text>
</a>
</g>
</g>
<!-- Node441&#45;&gt;Node442 -->
<g id="edge18" class="edge"><title>Node441&#45;&gt;Node442</title>
<path fill="none" stroke="midnightblue" d="M732.039,-87.6206C743.948,-89.9896 756.123,-92.4117 767.766,-94.7277"/>
<polygon fill="midnightblue" stroke="midnightblue" points="732.605,-84.1648 722.115,-85.6465 731.24,-91.0303 732.605,-84.1648"/>
</g>
<!-- Node443 -->
<g id="node19" class="node"><title>Node443</title>
<g id="a_node19"><a xlink:href="../../d7/ded/a00196.html#a3900248991e7adb57e82231312337f8f" target="_top" xlink:title="To answer a question by existing beliefs. ">
<polygon fill="none" stroke="black" points="768,-44.5 768,-74.5 908,-74.5 908,-44.5 768,-44.5"/>
<text text-anchor="start" x="776" y="-62.5" font-family="Helvetica,sans-Serif" font-size="10.00">nars.entity.Concept.process</text>
<text text-anchor="middle" x="838" y="-51.5" font-family="Helvetica,sans-Serif" font-size="10.00">Question</text>
</a>
</g>
</g>
<!-- Node441&#45;&gt;Node443 -->
<g id="edge20" class="edge"><title>Node441&#45;&gt;Node443</title>
<path fill="none" stroke="midnightblue" d="M732.396,-66.2487C744.191,-65.4877 756.24,-64.7103 767.766,-63.9667"/>
<polygon fill="midnightblue" stroke="midnightblue" points="731.869,-62.7753 722.115,-66.9119 732.319,-69.7608 731.869,-62.7753"/>
</g>
<!-- Node444 -->
<g id="node20" class="node"><title>Node444</title>
<g id="a_node20"><a xlink:href="../../dd/dd7/a00248.html#aac1c92950f50edd04d12229a8c992987" target="_top" xlink:title="The task and belief have the same content. ">
<polygon fill="none" stroke="black" points="758,-6 758,-25 918,-25 918,-6 758,-6"/>
<text text-anchor="middle" x="838" y="-13" font-family="Helvetica,sans-Serif" font-size="10.00">nars.inference.LocalRules.match</text>
</a>
</g>
</g>
<!-- Node441&#45;&gt;Node444 -->
<g id="edge22" class="edge"><title>Node441&#45;&gt;Node444</title>
<path fill="none" stroke="midnightblue" d="M701.221,-53.0092C719.032,-46.7512 739.296,-39.969 758,-34.5 769.644,-31.0953 782.38,-27.8339 794.16,-25.0037"/>
<polygon fill="midnightblue" stroke="midnightblue" points="699.858,-49.7788 691.603,-56.4203 702.198,-56.3761 699.858,-49.7788"/>
</g>
<!-- Node442&#45;&gt;Node430 -->
<g id="edge19" class="edge"><title>Node442&#45;&gt;Node430</title>
<path fill="none" stroke="midnightblue" d="M918.386,-108.5C935.875,-108.5 954.177,-108.5 970.943,-108.5"/>
<polygon fill="midnightblue" stroke="midnightblue" points="918.201,-105 908.201,-108.5 918.201,-112 918.201,-105"/>
</g>
<!-- Node443&#45;&gt;Node430 -->
<g id="edge21" class="edge"><title>Node443&#45;&gt;Node430</title>
<path fill="none" stroke="midnightblue" d="M908.729,-76.9768C930.277,-82.3775 953.808,-88.2755 974.628,-93.4938"/>
<polygon fill="midnightblue" stroke="midnightblue" points="909.536,-73.5709 898.985,-74.5346 907.834,-80.3609 909.536,-73.5709"/>
</g>
<!-- Node445 -->
<g id="node21" class="node"><title>Node445</title>
<g id="a_node21"><a xlink:href="../../dc/ded/a00252.html#ac2d01dfdc40bdd47c757cb549217e6e3" target="_top" xlink:title="Entry point of the inference engine. ">
<polygon fill="none" stroke="black" points="954,-6 954,-25 1117,-25 1117,-6 954,-6"/>
<text text-anchor="middle" x="1035.5" y="-13" font-family="Helvetica,sans-Serif" font-size="10.00">nars.inference.RuleTables.reason</text>
</a>
</g>
</g>
<!-- Node444&#45;&gt;Node445 -->
<g id="edge23" class="edge"><title>Node444&#45;&gt;Node445</title>
<path fill="none" stroke="midnightblue" d="M928.499,-15.5C936.962,-15.5 945.507,-15.5 953.88,-15.5"/>
<polygon fill="midnightblue" stroke="midnightblue" points="928.236,-12.0001 918.236,-15.5 928.235,-19.0001 928.236,-12.0001"/>
</g>
<!-- Node446 -->
<g id="node22" class="node"><title>Node446</title>
<g id="a_node22"><a xlink:href="../../d7/ded/a00196.html#ad6fb91dda799c3092ecb186ef24ca92a" target="_top" xlink:title="An atomic step in a concept, only called in Memory# processConcept. ">
<polygon fill="none" stroke="black" points="1172,-0.5 1172,-30.5 1291,-30.5 1291,-0.5 1172,-0.5"/>
<text text-anchor="start" x="1180" y="-18.5" font-family="Helvetica,sans-Serif" font-size="10.00">nars.entity.Concept.fire</text>
<text text-anchor="middle" x="1231.5" y="-7.5" font-family="Helvetica,sans-Serif" font-size="10.00">FromProcessConcept</text>
</a>
</g>
</g>
<!-- Node445&#45;&gt;Node446 -->
<g id="edge24" class="edge"><title>Node445&#45;&gt;Node446</title>
<path fill="none" stroke="midnightblue" d="M1127.46,-15.5C1142.52,-15.5 1157.76,-15.5 1171.75,-15.5"/>
<polygon fill="midnightblue" stroke="midnightblue" points="1127.09,-12.0001 1117.09,-15.5 1127.09,-19.0001 1127.09,-12.0001"/>
</g>
<!-- Node447 -->
<g id="node23" class="node"><title>Node447</title>
<g id="a_node23"><a xlink:href="../../d4/d27/a00392.html#a0acc4adbf6a2462245da46bcb529746c" target="_top" xlink:title="Select a concept to fireFromProcessConcept. ">
<polygon fill="none" stroke="black" points="1346,-0.5 1346,-30.5 1492,-30.5 1492,-0.5 1346,-0.5"/>
<text text-anchor="start" x="1354" y="-18.5" font-family="Helvetica,sans-Serif" font-size="10.00">nars.storage.Memory.process</text>
<text text-anchor="middle" x="1419" y="-7.5" font-family="Helvetica,sans-Serif" font-size="10.00">Concept</text>
</a>
</g>
</g>
<!-- Node446&#45;&gt;Node447 -->
<g id="edge25" class="edge"><title>Node446&#45;&gt;Node447</title>
<path fill="none" stroke="midnightblue" d="M1301.52,-15.5C1315.93,-15.5 1331.16,-15.5 1345.68,-15.5"/>
<polygon fill="midnightblue" stroke="midnightblue" points="1301.19,-12.0001 1291.19,-15.5 1301.19,-19.0001 1301.19,-12.0001"/>
</g>
<!-- Node447&#45;&gt;Node433 -->
<g id="edge26" class="edge"><title>Node447&#45;&gt;Node433</title>
<path fill="none" stroke="midnightblue" d="M1483.1,-33.3212C1501.83,-38.6118 1522.16,-44.3522 1540.21,-49.4484"/>
<polygon fill="midnightblue" stroke="midnightblue" points="1484.05,-29.9512 1473.47,-30.6014 1482.14,-36.6877 1484.05,-29.9512"/>
</g>
</g>
</svg>
