<?xml version="1.0" encoding="UTF-8" standalone="no"?>
<!DOCTYPE svg PUBLIC "-//W3C//DTD SVG 1.1//EN"
 "http://www.w3.org/Graphics/SVG/1.1/DTD/svg11.dtd">
<!-- Generated by graphviz version 2.38.0 (20140413.2041)
 -->
<!-- Title: nars.entity.Item.Item Pages: 1 -->
<svg width="283pt" height="66pt"
 viewBox="0.00 0.00 283.00 66.00" xmlns="http://www.w3.org/2000/svg" xmlns:xlink="http://www.w3.org/1999/xlink">
<g id="graph0" class="graph" transform="scale(1 1) rotate(0) translate(4 62)">
<title>nars.entity.Item.Item</title>
<!-- Node6 -->
<g id="node1" class="node"><title>Node6</title>
<polygon fill="#bfbfbf" stroke="black" points="0,-19.5 0,-38.5 107,-38.5 107,-19.5 0,-19.5"/>
<text text-anchor="middle" x="53.5" y="-26.5" font-family="Helvetica,sans-Serif" font-size="10.00">nars.entity.Item.Item</text>
</g>
<!-- Node7 -->
<g id="node2" class="node"><title>Node7</title>
<g id="a_node2"><a xlink:href="../../dc/d31/a00208.html#a0881b62c196f33cd8df3c2f0f3986a65" target="_top" xlink:title="Constructor with initial budget. ">
<polygon fill="none" stroke="black" points="143,-38.5 143,-57.5 275,-57.5 275,-38.5 143,-38.5"/>
<text text-anchor="middle" x="209" y="-45.5" font-family="Helvetica,sans-Serif" font-size="10.00">nars.entity.Item.setBudget</text>
</a>
</g>
</g>
<!-- Node6&#45;&gt;Node7 -->
<g id="edge1" class="edge"><title>Node6&#45;&gt;Node7</title>
<path fill="none" stroke="midnightblue" d="M107.326,-35.5387C115.554,-36.5572 124.189,-37.626 132.799,-38.6917"/>
<polygon fill="midnightblue" stroke="midnightblue" points="132.513,-42.183 142.867,-39.938 133.373,-35.236 132.513,-42.183"/>
</g>
<!-- Node8 -->
<g id="node3" class="node"><title>Node8</title>
<g id="a_node3"><a xlink:href="../../dc/d31/a00208.html#a6a858abef99551c6b8fab17125e012e7" target="_top" xlink:title="nars.entity.Item.setKey">
<polygon fill="none" stroke="black" points="149.5,-0.5 149.5,-19.5 268.5,-19.5 268.5,-0.5 149.5,-0.5"/>
<text text-anchor="middle" x="209" y="-7.5" font-family="Helvetica,sans-Serif" font-size="10.00">nars.entity.Item.setKey</text>
</a>
</g>
</g>
<!-- Node6&#45;&gt;Node8 -->
<g id="edge2" class="edge"><title>Node6&#45;&gt;Node8</title>
<path fill="none" stroke="midnightblue" d="M107.326,-22.4613C117.578,-21.1923 128.463,-19.8449 139.142,-18.5231"/>
<polygon fill="midnightblue" stroke="midnightblue" points="139.796,-21.9689 149.291,-17.267 138.936,-15.022 139.796,-21.9689"/>
</g>
</g>
</svg>
