<?xml version="1.0" encoding="UTF-8" standalone="no"?>
<!DOCTYPE svg PUBLIC "-//W3C//DTD SVG 1.1//EN"
 "http://www.w3.org/Graphics/SVG/1.1/DTD/svg11.dtd">
<!-- Generated by graphviz version 2.38.0 (20140413.2041)
 -->
<!-- Title: nars.entity.Item.toStringLong Pages: 1 -->
<svg width="333pt" height="88pt"
 viewBox="0.00 0.00 333.00 88.00" xmlns="http://www.w3.org/2000/svg" xmlns:xlink="http://www.w3.org/1999/xlink">
<g id="graph0" class="graph" transform="scale(1 1) rotate(0) translate(4 84)">
<title>nars.entity.Item.toStringLong</title>
<!-- Node483 -->
<g id="node1" class="node"><title>Node483</title>
<polygon fill="#bfbfbf" stroke="black" points="0,-30 0,-49 143,-49 143,-30 0,-30"/>
<text text-anchor="middle" x="71.5" y="-37" font-family="Helvetica,sans-Serif" font-size="10.00">nars.entity.Item.toStringLong</text>
</g>
<!-- Node484 -->
<g id="node2" class="node"><title>Node484</title>
<g id="a_node2"><a xlink:href="../../d6/db8/a00376.html#adff1bdb7ded17b66dc84068e49571ba7" target="_top" xlink:title="TODO bad paste from preceding. ">
<polygon fill="none" stroke="black" points="183.5,-49.5 183.5,-79.5 320.5,-79.5 320.5,-49.5 183.5,-49.5"/>
<text text-anchor="start" x="191.5" y="-67.5" font-family="Helvetica,sans-Serif" font-size="10.00">nars.storage.Bag&lt; Concept</text>
<text text-anchor="middle" x="252" y="-56.5" font-family="Helvetica,sans-Serif" font-size="10.00"> &gt;::toStringLong</text>
</a>
</g>
</g>
<!-- Node483&#45;&gt;Node484 -->
<g id="edge1" class="edge"><title>Node483&#45;&gt;Node484</title>
<path fill="none" stroke="midnightblue" d="M150.503,-50.4248C161.495,-51.9643 172.719,-53.5362 183.492,-55.0451"/>
<polygon fill="midnightblue" stroke="midnightblue" points="150.881,-46.9437 140.492,-49.0227 149.91,-53.876 150.881,-46.9437"/>
</g>
<!-- Node485 -->
<g id="node3" class="node"><title>Node485</title>
<g id="a_node3"><a xlink:href="../../d4/d27/a00392.html#af2a2377d1c59d2b966ddc553809b9eab" target="_top" xlink:title="nars.storage.Memory.toString\lLongIfNotNull">
<polygon fill="none" stroke="black" points="179,-0.5 179,-30.5 325,-30.5 325,-0.5 179,-0.5"/>
<text text-anchor="start" x="187" y="-18.5" font-family="Helvetica,sans-Serif" font-size="10.00">nars.storage.Memory.toString</text>
<text text-anchor="middle" x="252" y="-7.5" font-family="Helvetica,sans-Serif" font-size="10.00">LongIfNotNull</text>
</a>
</g>
</g>
<!-- Node483&#45;&gt;Node485 -->
<g id="edge2" class="edge"><title>Node483&#45;&gt;Node485</title>
<path fill="none" stroke="midnightblue" d="M153.086,-28.665C161.695,-27.5074 170.414,-26.3352 178.916,-25.192"/>
<polygon fill="midnightblue" stroke="midnightblue" points="152.492,-25.2131 143.048,-30.0146 153.425,-32.1507 152.492,-25.2131"/>
</g>
</g>
</svg>
