<?xml version="1.0" encoding="UTF-8" standalone="no"?>
<!DOCTYPE svg PUBLIC "-//W3C//DTD SVG 1.1//EN"
 "http://www.w3.org/Graphics/SVG/1.1/DTD/svg11.dtd">
<!-- Generated by graphviz version 2.38.0 (20140413.2041)
 -->
<!-- Title: nars.inference.UtilityFunctions Pages: 1 -->
<svg width="328pt" height="84pt"
 viewBox="0.00 0.00 327.50 84.00" xmlns="http://www.w3.org/2000/svg" xmlns:xlink="http://www.w3.org/1999/xlink">
<g id="graph0" class="graph" transform="scale(1 1) rotate(0) translate(4 80)">
<title>nars.inference.UtilityFunctions</title>
<!-- Node0 -->
<g id="node1" class="node"><title>Node0</title>
<polygon fill="#bfbfbf" stroke="black" points="87,-56.5 87,-75.5 236,-75.5 236,-56.5 87,-56.5"/>
<text text-anchor="middle" x="161.5" y="-63.5" font-family="Helvetica,sans-Serif" font-size="10.00">nars.inference.UtilityFunctions</text>
</g>
<!-- Node1 -->
<g id="node2" class="node"><title>Node1</title>
<g id="a_node2"><a xlink:href="../../d9/d21/a00240.html" target="_top" xlink:title="Budget functions for resources allocation. ">
<polygon fill="none" stroke="black" points="0,-0.5 0,-19.5 155,-19.5 155,-0.5 0,-0.5"/>
<text text-anchor="middle" x="77.5" y="-7.5" font-family="Helvetica,sans-Serif" font-size="10.00">nars.inference.BudgetFunctions</text>
</a>
</g>
</g>
<!-- Node0&#45;&gt;Node1 -->
<g id="edge1" class="edge"><title>Node0&#45;&gt;Node1</title>
<path fill="none" stroke="midnightblue" d="M139.568,-50.9005C124.165,-40.9986 104.054,-28.0705 90.9626,-19.6545"/>
<polygon fill="midnightblue" stroke="midnightblue" points="137.699,-53.8605 148.004,-56.324 141.485,-47.9722 137.699,-53.8605"/>
</g>
<!-- Node2 -->
<g id="node3" class="node"><title>Node2</title>
<g id="a_node3"><a xlink:href="../../d3/dcc/a00264.html" target="_top" xlink:title="All truth&#45;value (and desire&#45;value) functions used in inference rules. ">
<polygon fill="none" stroke="black" points="173.5,-0.5 173.5,-19.5 319.5,-19.5 319.5,-0.5 173.5,-0.5"/>
<text text-anchor="middle" x="246.5" y="-7.5" font-family="Helvetica,sans-Serif" font-size="10.00">nars.inference.TruthFunctions</text>
</a>
</g>
</g>
<!-- Node0&#45;&gt;Node2 -->
<g id="edge2" class="edge"><title>Node0&#45;&gt;Node2</title>
<path fill="none" stroke="midnightblue" d="M183.694,-50.9005C199.28,-40.9986 219.63,-28.0705 232.877,-19.6545"/>
<polygon fill="midnightblue" stroke="midnightblue" points="181.721,-48.0073 175.157,-56.324 185.474,-53.9158 181.721,-48.0073"/>
</g>
</g>
</svg>
