<?xml version="1.0" encoding="UTF-8" standalone="no"?>
<!DOCTYPE svg PUBLIC "-//W3C//DTD SVG 1.1//EN"
 "http://www.w3.org/Graphics/SVG/1.1/DTD/svg11.dtd">
<!-- Generated by graphviz version 2.38.0 (20140413.2041)
 -->
<!-- Title: nars.language.Property.make Pages: 1 -->
<!--zoomable 339 -->
<svg id="main" version="1.1" xmlns="http://www.w3.org/2000/svg" xmlns:xlink="http://www.w3.org/1999/xlink" xml:space="preserve" onload="init(evt)">
<style type="text/css"><![CDATA[
.edge:hover path { stroke: red; }
.edge:hover polygon { stroke: red; fill: red; }
]]></style>
<script type="text/javascript"><![CDATA[
var edges = document.getElementsByTagName('g');
if (edges && edges.length) {
  for (var i=0;i<edges.length;i++) {
    if (edges[i].id.substr(0,4)=='edge') {
      edges[i].setAttribute('class','edge');
    }
  }
}
]]></script>
        <defs>
                <circle id="rim" cx="0" cy="0" r="7"/>
                <circle id="rim2" cx="0" cy="0" r="3.5"/>
                <g id="zoomPlus">
                        <use xlink:href="#rim" fill="#404040">
                                <set attributeName="fill" to="#808080" begin="zoomplus.mouseover" end="zoomplus.mouseout"/>
                        </use>
                        <path d="M-4,0h8M0,-4v8" fill="none" stroke="white" stroke-width="1.5" pointer-events="none"/>
                </g>
                <g id="zoomMin">
                        <use xlink:href="#rim" fill="#404040">
                                <set attributeName="fill" to="#808080" begin="zoomminus.mouseover" end="zoomminus.mouseout"/>
                        </use>
                        <path d="M-4,0h8" fill="none" stroke="white" stroke-width="1.5" pointer-events="none"/>
                </g>
                <g id="dirArrow">
                        <path fill="none" stroke="white" stroke-width="1.5" d="M0,-3.0v7 M-2.5,-0.5L0,-3.0L2.5,-0.5"/>
                </g>
               <g id="resetDef">
                       <use xlink:href="#rim2" fill="#404040">
                               <set attributeName="fill" to="#808080" begin="reset.mouseover" end="reset.mouseout"/>
                       </use>
               </g>
        </defs>

<script type="text/javascript">
var viewWidth = 984;
var viewHeight = 339;
var sectionId = 'dynsection-2';
</script>
<script xlink:href="../../svgpan.js"/>
<svg id="graph" class="graph">
<g id="viewport">
<title>nars.language.Property.make</title>
<!-- Node0 -->
<g id="node1" class="node"><title>Node0</title>
<polygon fill="#bfbfbf" stroke="black" points="0,-212.5 0,-231.5 144,-231.5 144,-212.5 0,-212.5"/>
<text text-anchor="middle" x="72" y="-219.5" font-family="Helvetica,sans-Serif" font-size="10.00">nars.language.Property.make</text>
</g>
<!-- Node1 -->
<g id="node2" class="node"><title>Node1</title>
<g id="a_node2"><a xlink:href="../../d6/d9c/a00352.html#aaea0f2cc2ca804779d1bf346beb58fa1" target="_top" xlink:title="Try to make a new set from one component. ">
<polygon fill="none" stroke="black" points="190.5,-231.5 190.5,-250.5 324.5,-250.5 324.5,-231.5 190.5,-231.5"/>
<text text-anchor="middle" x="257.5" y="-238.5" font-family="Helvetica,sans-Serif" font-size="10.00">nars.language.SetInt.make</text>
</a>
</g>
</g>
<!-- Node0&#45;&gt;Node1 -->
<g id="edge1" class="edge"><title>Node0&#45;&gt;Node1</title>
<path fill="none" stroke="midnightblue" d="M144.209,-229.373C156.093,-230.604 168.462,-231.884 180.462,-233.127"/>
<polygon fill="midnightblue" stroke="midnightblue" points="180.129,-236.611 190.436,-234.16 180.85,-229.648 180.129,-236.611"/>
</g>
<!-- Node2 -->
<g id="node3" class="node"><title>Node2</title>
<g id="a_node3"><a xlink:href="../../d3/db8/a00316.html#a5ccaf18d33e722f438944debb2757b34" target="_top" xlink:title="Try to make a new compound from two components. ">
<polygon fill="none" stroke="black" points="180,-193.5 180,-212.5 335,-212.5 335,-193.5 180,-193.5"/>
<text text-anchor="middle" x="257.5" y="-200.5" font-family="Helvetica,sans-Serif" font-size="10.00">nars.language.Inheritance.make</text>
</a>
</g>
</g>
<!-- Node0&#45;&gt;Node2 -->
<g id="edge2" class="edge"><title>Node0&#45;&gt;Node2</title>
<path fill="none" stroke="midnightblue" d="M144.209,-214.627C152.608,-213.757 161.25,-212.862 169.832,-211.974"/>
<polygon fill="midnightblue" stroke="midnightblue" points="170.275,-215.447 179.861,-210.935 169.554,-208.484 170.275,-215.447"/>
</g>
<!-- Node3 -->
<g id="node4" class="node"><title>Node3</title>
<g id="a_node4"><a xlink:href="../../d8/d17/a00304.html#a9aacee8d6903ff6eb186d37f78569353" target="_top" xlink:title="build a component list from two terms ">
<polygon fill="none" stroke="black" points="371,-286 371,-316 570,-316 570,-286 371,-286"/>
<text text-anchor="start" x="379" y="-304" font-family="Helvetica,sans-Serif" font-size="10.00">nars.language.CompoundTerm.arguments</text>
<text text-anchor="middle" x="470.5" y="-293" font-family="Helvetica,sans-Serif" font-size="10.00">ToList</text>
</a>
</g>
</g>
<!-- Node2&#45;&gt;Node3 -->
<g id="edge3" class="edge"><title>Node2&#45;&gt;Node3</title>
<path fill="none" stroke="midnightblue" d="M316.94,-212.565C323.355,-215.027 329.532,-218.118 335,-222 358.823,-238.912 347.14,-260.141 371,-277 373.138,-278.511 375.361,-279.927 377.65,-281.255"/>
<polygon fill="midnightblue" stroke="midnightblue" points="376.283,-284.488 386.777,-285.948 379.485,-278.262 376.283,-284.488"/>
</g>
<!-- Node4 -->
<g id="node5" class="node"><title>Node4</title>
<g id="a_node5"><a xlink:href="../../d3/db8/a00316.html#a20635d9d55f73d39b29a07653cde6bc6" target="_top" xlink:title="Constructor with partial values, called by make. ">
<polygon fill="none" stroke="black" points="405,-237 405,-267 536,-267 536,-237 405,-237"/>
<text text-anchor="start" x="413" y="-255" font-family="Helvetica,sans-Serif" font-size="10.00">nars.language.Inheritance.</text>
<text text-anchor="middle" x="470.5" y="-244" font-family="Helvetica,sans-Serif" font-size="10.00">Inheritance</text>
</a>
</g>
</g>
<!-- Node2&#45;&gt;Node4 -->
<g id="edge4" class="edge"><title>Node2&#45;&gt;Node4</title>
<path fill="none" stroke="midnightblue" d="M299.433,-212.506C326.477,-218.786 362.717,-227.202 394.795,-234.651"/>
<polygon fill="midnightblue" stroke="midnightblue" points="394.069,-238.076 404.601,-236.929 395.652,-231.257 394.069,-238.076"/>
</g>
<!-- Node5 -->
<g id="node6" class="node"><title>Node5</title>
<g id="a_node6"><a xlink:href="../../d0/d65/a00360.html#a96d4bf7bb99f48b6496cdb7457bc0e50" target="_top" xlink:title="Check the validity of a potential Statement. ">
<polygon fill="none" stroke="black" points="392.5,-188 392.5,-218 548.5,-218 548.5,-188 392.5,-188"/>
<text text-anchor="start" x="400.5" y="-206" font-family="Helvetica,sans-Serif" font-size="10.00">nars.language.Statement.invalid</text>
<text text-anchor="middle" x="470.5" y="-195" font-family="Helvetica,sans-Serif" font-size="10.00">Statement</text>
</a>
</g>
</g>
<!-- Node2&#45;&gt;Node5 -->
<g id="edge5" class="edge"><title>Node2&#45;&gt;Node5</title>
<path fill="none" stroke="midnightblue" d="M335.273,-203C350.545,-203 366.686,-203 382.279,-203"/>
<polygon fill="midnightblue" stroke="midnightblue" points="382.431,-206.5 392.431,-203 382.431,-199.5 382.431,-206.5"/>
</g>
<!-- Node13 -->
<g id="node14" class="node"><title>Node13</title>
<g id="a_node14"><a xlink:href="../../d0/d65/a00360.html#a7123aba1c8c566f291e2c9b9d147557d" target="_top" xlink:title="Default method to make the nameStr of an image term from given fields. ">
<polygon fill="none" stroke="black" points="394.5,-139 394.5,-169 546.5,-169 546.5,-139 394.5,-139"/>
<text text-anchor="start" x="402.5" y="-157" font-family="Helvetica,sans-Serif" font-size="10.00">nars.language.Statement.make</text>
<text text-anchor="middle" x="470.5" y="-146" font-family="Helvetica,sans-Serif" font-size="10.00">StatementName</text>
</a>
</g>
</g>
<!-- Node2&#45;&gt;Node13 -->
<g id="edge14" class="edge"><title>Node2&#45;&gt;Node13</title>
<path fill="none" stroke="midnightblue" d="M299.433,-193.494C326.477,-187.214 362.717,-178.798 394.795,-171.349"/>
<polygon fill="midnightblue" stroke="midnightblue" points="395.652,-174.743 404.601,-169.071 394.069,-167.924 395.652,-174.743"/>
</g>
<!-- Node14 -->
<g id="node15" class="node"><title>Node14</title>
<g id="a_node15"><a xlink:href="../../d4/d27/a00392.html#ac7c5d438820208253d1a2ee59bf80ddc" target="_top" xlink:title="Get a Term for a given name of a Concept or Operator. ">
<polygon fill="none" stroke="black" points="402.5,-52 402.5,-82 538.5,-82 538.5,-52 402.5,-52"/>
<text text-anchor="start" x="410.5" y="-70" font-family="Helvetica,sans-Serif" font-size="10.00">nars.storage.Memory.name</text>
<text text-anchor="middle" x="470.5" y="-59" font-family="Helvetica,sans-Serif" font-size="10.00">ToListedTerm</text>
</a>
</g>
</g>
<!-- Node2&#45;&gt;Node14 -->
<g id="edge15" class="edge"><title>Node2&#45;&gt;Node14</title>
<path fill="none" stroke="midnightblue" d="M273.002,-193.327C294.371,-179.105 335.614,-151.772 371,-129 392.71,-115.029 417.285,-99.5604 436.457,-87.5687"/>
<polygon fill="midnightblue" stroke="midnightblue" points="438.5,-90.4193 445.127,-82.1527 434.791,-84.4825 438.5,-90.4193"/>
</g>
<!-- Node6 -->
<g id="node7" class="node"><title>Node6</title>
<g id="a_node7"><a xlink:href="../../dc/d59/a00364.html#ad85f45a7858737445d5158801774ff5f" target="_top" xlink:title="Equal terms have identical name, though not necessarily the same reference. ">
<polygon fill="none" stroke="black" points="622.5,-311.5 622.5,-330.5 756.5,-330.5 756.5,-311.5 622.5,-311.5"/>
<text text-anchor="middle" x="689.5" y="-318.5" font-family="Helvetica,sans-Serif" font-size="10.00">nars.language.Term.equals</text>
</a>
</g>
</g>
<!-- Node5&#45;&gt;Node6 -->
<g id="edge6" class="edge"><title>Node5&#45;&gt;Node6</title>
<path fill="none" stroke="midnightblue" d="M548.896,-215.525C556.494,-218.787 563.706,-222.876 570,-228 598.363,-251.091 577.382,-279.225 606,-302 608.318,-303.845 610.783,-305.517 613.356,-307.032"/>
<polygon fill="midnightblue" stroke="midnightblue" points="611.963,-310.249 622.471,-311.601 615.1,-303.991 611.963,-310.249"/>
</g>
<!-- Node8 -->
<g id="node9" class="node"><title>Node8</title>
<g id="a_node9"><a xlink:href="../../d8/d17/a00304.html#a89000afae8017231889aaa549292d1e0" target="_top" xlink:title="Default constructor. ">
<polygon fill="none" stroke="black" points="613,-262 613,-292 766,-292 766,-262 613,-262"/>
<text text-anchor="start" x="621" y="-280" font-family="Helvetica,sans-Serif" font-size="10.00">nars.language.CompoundTerm.</text>
<text text-anchor="middle" x="689.5" y="-269" font-family="Helvetica,sans-Serif" font-size="10.00">CompoundTerm</text>
</a>
</g>
</g>
<!-- Node5&#45;&gt;Node8 -->
<g id="edge8" class="edge"><title>Node5&#45;&gt;Node8</title>
<path fill="none" stroke="midnightblue" d="M543.556,-218.074C552.632,-220.903 561.652,-224.194 570,-228 587.724,-236.081 588.418,-244.614 606,-253 610.048,-254.93 614.282,-256.739 618.604,-258.426"/>
<polygon fill="midnightblue" stroke="midnightblue" points="617.573,-261.776 628.166,-261.93 619.981,-255.203 617.573,-261.776"/>
</g>
<!-- Node9 -->
<g id="node10" class="node"><title>Node9</title>
<g id="a_node10"><a xlink:href="../../d0/d65/a00360.html#ac56b558891dd2088e0b66b437780c7b7" target="_top" xlink:title="Default constructor. ">
<polygon fill="none" stroke="black" points="625.5,-213 625.5,-243 753.5,-243 753.5,-213 625.5,-213"/>
<text text-anchor="start" x="633.5" y="-231" font-family="Helvetica,sans-Serif" font-size="10.00">nars.language.Statement.</text>
<text text-anchor="middle" x="689.5" y="-220" font-family="Helvetica,sans-Serif" font-size="10.00">Statement</text>
</a>
</g>
</g>
<!-- Node5&#45;&gt;Node9 -->
<g id="edge9" class="edge"><title>Node5&#45;&gt;Node9</title>
<path fill="none" stroke="midnightblue" d="M548.617,-211.884C570.281,-214.38 593.772,-217.087 615.206,-219.556"/>
<polygon fill="midnightblue" stroke="midnightblue" points="614.885,-223.042 625.22,-220.71 615.686,-216.088 614.885,-223.042"/>
</g>
<!-- Node10 -->
<g id="node11" class="node"><title>Node10</title>
<g id="a_node11"><a xlink:href="../../d0/d65/a00360.html#ace4f80751d303c613e467163913bebf5" target="_top" xlink:title="Return the first component of the statement. ">
<polygon fill="none" stroke="black" points="618.5,-164 618.5,-194 760.5,-194 760.5,-164 618.5,-164"/>
<text text-anchor="start" x="626.5" y="-182" font-family="Helvetica,sans-Serif" font-size="10.00">nars.language.Statement.get</text>
<text text-anchor="middle" x="689.5" y="-171" font-family="Helvetica,sans-Serif" font-size="10.00">Subject</text>
</a>
</g>
</g>
<!-- Node5&#45;&gt;Node10 -->
<g id="edge10" class="edge"><title>Node5&#45;&gt;Node10</title>
<path fill="none" stroke="midnightblue" d="M548.617,-194.471C567.912,-192.337 588.656,-190.043 608.106,-187.891"/>
<polygon fill="midnightblue" stroke="midnightblue" points="608.59,-191.359 618.145,-186.781 607.821,-184.402 608.59,-191.359"/>
</g>
<!-- Node12 -->
<g id="node13" class="node"><title>Node12</title>
<g id="a_node13"><a xlink:href="../../d0/d65/a00360.html#ababe6155e2f78e769f76493317e118e0" target="_top" xlink:title="Return the second component of the statement. ">
<polygon fill="none" stroke="black" points="618.5,-115 618.5,-145 760.5,-145 760.5,-115 618.5,-115"/>
<text text-anchor="start" x="626.5" y="-133" font-family="Helvetica,sans-Serif" font-size="10.00">nars.language.Statement.get</text>
<text text-anchor="middle" x="689.5" y="-122" font-family="Helvetica,sans-Serif" font-size="10.00">Predicate</text>
</a>
</g>
</g>
<!-- Node5&#45;&gt;Node12 -->
<g id="edge12" class="edge"><title>Node5&#45;&gt;Node12</title>
<path fill="none" stroke="midnightblue" d="M542.964,-187.936C552.227,-185.095 561.455,-181.798 570,-178 587.572,-170.189 588.566,-162.113 606,-154 610.256,-152.02 614.712,-150.163 619.255,-148.431"/>
<polygon fill="midnightblue" stroke="midnightblue" points="620.439,-151.724 628.665,-145.048 618.071,-145.137 620.439,-151.724"/>
</g>
<!-- Node7 -->
<g id="node8" class="node"><title>Node7</title>
<g id="a_node8"><a xlink:href="../../dc/d59/a00364.html#a3aad4654016b8615fd4fa8a26668e1db" target="_top" xlink:title="Reporting the name of the current Term. ">
<polygon fill="none" stroke="black" points="819.5,-311.5 819.5,-330.5 965.5,-330.5 965.5,-311.5 819.5,-311.5"/>
<text text-anchor="middle" x="892.5" y="-318.5" font-family="Helvetica,sans-Serif" font-size="10.00">nars.language.Term.getName</text>
</a>
</g>
</g>
<!-- Node6&#45;&gt;Node7 -->
<g id="edge7" class="edge"><title>Node6&#45;&gt;Node7</title>
<path fill="none" stroke="midnightblue" d="M756.593,-321C773.428,-321 791.727,-321 809.259,-321"/>
<polygon fill="midnightblue" stroke="midnightblue" points="809.476,-324.5 819.476,-321 809.475,-317.5 809.476,-324.5"/>
</g>
<!-- Node11 -->
<g id="node12" class="node"><title>Node11</title>
<g id="a_node12"><a xlink:href="../../d8/d17/a00304.html#a9778c35f9b602bee6ccac6a06809e546" target="_top" xlink:title="list of (direct) components ">
<polygon fill="none" stroke="black" points="809,-140 809,-170 976,-170 976,-140 809,-140"/>
<text text-anchor="start" x="817" y="-158" font-family="Helvetica,sans-Serif" font-size="10.00">nars.language.CompoundTerm.get</text>
<text text-anchor="middle" x="892.5" y="-147" font-family="Helvetica,sans-Serif" font-size="10.00">Components</text>
</a>
</g>
</g>
<!-- Node10&#45;&gt;Node11 -->
<g id="edge11" class="edge"><title>Node10&#45;&gt;Node11</title>
<path fill="none" stroke="midnightblue" d="M760.518,-170.64C772.855,-169.167 785.869,-167.613 798.714,-166.079"/>
<polygon fill="midnightblue" stroke="midnightblue" points="799.448,-169.516 808.963,-164.855 798.618,-162.566 799.448,-169.516"/>
</g>
<!-- Node12&#45;&gt;Node11 -->
<g id="edge13" class="edge"><title>Node12&#45;&gt;Node11</title>
<path fill="none" stroke="midnightblue" d="M760.518,-138.709C772.855,-140.243 785.869,-141.862 798.714,-143.459"/>
<polygon fill="midnightblue" stroke="midnightblue" points="798.607,-146.973 808.963,-144.734 799.471,-140.027 798.607,-146.973"/>
</g>
<!-- Node15 -->
<g id="node16" class="node"><title>Node15</title>
<g id="a_node16"><a xlink:href="../../d4/d27/a00392.html#a33af7b3d806d32c85390563fec3c6d27" target="_top" xlink:title="Concept bag. ">
<polygon fill="none" stroke="black" points="606,-76.5 606,-95.5 773,-95.5 773,-76.5 606,-76.5"/>
<text text-anchor="middle" x="689.5" y="-83.5" font-family="Helvetica,sans-Serif" font-size="10.00">nars.storage.Memory.getConcepts</text>
</a>
</g>
</g>
<!-- Node14&#45;&gt;Node15 -->
<g id="edge16" class="edge"><title>Node14&#45;&gt;Node15</title>
<path fill="none" stroke="midnightblue" d="M538.674,-72.8816C556.8,-74.4686 576.734,-76.2141 595.983,-77.8994"/>
<polygon fill="midnightblue" stroke="midnightblue" points="595.705,-81.3884 605.973,-78.7741 596.316,-74.4151 595.705,-81.3884"/>
</g>
<!-- Node16 -->
<g id="node17" class="node"><title>Node16</title>
<g id="a_node17"><a xlink:href="../../d6/db8/a00376.html#a011b37fc683db7fb7b41e33712a37d92" target="_top" xlink:title="Get an Item by key. ">
<polygon fill="none" stroke="black" points="636,-38.5 636,-57.5 743,-57.5 743,-38.5 636,-38.5"/>
<text text-anchor="middle" x="689.5" y="-45.5" font-family="Helvetica,sans-Serif" font-size="10.00">nars.storage.Bag.get</text>
</a>
</g>
</g>
<!-- Node14&#45;&gt;Node16 -->
<g id="edge17" class="edge"><title>Node14&#45;&gt;Node16</title>
<path fill="none" stroke="midnightblue" d="M538.674,-61.1184C566.378,-58.6927 598.308,-55.897 625.554,-53.5114"/>
<polygon fill="midnightblue" stroke="midnightblue" points="626.093,-56.9777 635.749,-52.6187 625.482,-50.0044 626.093,-56.9777"/>
</g>
<!-- Node17 -->
<g id="node18" class="node"><title>Node17</title>
<g id="a_node18"><a xlink:href="../../d7/ded/a00196.html#afcd1217b7680b073fa51f0d0f159dcea" target="_top" xlink:title="The term is the unique ID of the concept. ">
<polygon fill="none" stroke="black" points="619,-0.5 619,-19.5 760,-19.5 760,-0.5 619,-0.5"/>
<text text-anchor="middle" x="689.5" y="-7.5" font-family="Helvetica,sans-Serif" font-size="10.00">nars.entity.Concept.getTerm</text>
</a>
</g>
</g>
<!-- Node14&#45;&gt;Node17 -->
<g id="edge18" class="edge"><title>Node14&#45;&gt;Node17</title>
<path fill="none" stroke="midnightblue" d="M522.435,-51.974C547.521,-44.7363 578.264,-36.1075 606,-29 615.405,-26.59 625.449,-24.1587 635.176,-21.8776"/>
<polygon fill="midnightblue" stroke="midnightblue" points="636.208,-25.2313 645.158,-19.562 634.626,-18.4124 636.208,-25.2313"/>
</g>
</g>
</svg>
        <g id="navigator" transform="translate(0 0)" fill="#404254">
                <rect fill="#f2f5e9" fill-opacity="0.5" stroke="#606060" stroke-width=".5" x="0" y="0" width="60" height="60"/>
                <use id="zoomplus" xlink:href="#zoomPlus" x="17" y="9" onmousedown="handleZoom(evt,'in')"/>
                <use id="zoomminus" xlink:href="#zoomMin" x="42" y="9" onmousedown="handleZoom(evt,'out')"/>
                <use id="reset" xlink:href="#resetDef" x="30" y="36" onmousedown="handleReset()"/>
                <g id="arrowUp" xlink:href="#dirArrow" transform="translate(30 24)" onmousedown="handlePan(0,-1)">
                  <use xlink:href="#rim" fill="#404040">
                        <set attributeName="fill" to="#808080" begin="arrowUp.mouseover" end="arrowUp.mouseout"/>
                  </use>
                  <path fill="none" stroke="white" stroke-width="1.5" d="M0,-3.0v7 M-2.5,-0.5L0,-3.0L2.5,-0.5"/>
                </g>
                <g id="arrowRight" xlink:href="#dirArrow" transform="rotate(90) translate(36 -43)" onmousedown="handlePan(1,0)">
                  <use xlink:href="#rim" fill="#404040">
                        <set attributeName="fill" to="#808080" begin="arrowRight.mouseover" end="arrowRight.mouseout"/>
                  </use>
                  <path fill="none" stroke="white" stroke-width="1.5" d="M0,-3.0v7 M-2.5,-0.5L0,-3.0L2.5,-0.5"/>
                </g>
                <g id="arrowDown" xlink:href="#dirArrow" transform="rotate(180) translate(-30 -48)" onmousedown="handlePan(0,1)">
                  <use xlink:href="#rim" fill="#404040">
                        <set attributeName="fill" to="#808080" begin="arrowDown.mouseover" end="arrowDown.mouseout"/>
                  </use>
                  <path fill="none" stroke="white" stroke-width="1.5" d="M0,-3.0v7 M-2.5,-0.5L0,-3.0L2.5,-0.5"/>
                </g>
                <g id="arrowLeft" xlink:href="#dirArrow" transform="rotate(270) translate(-36 17)" onmousedown="handlePan(-1,0)">
                  <use xlink:href="#rim" fill="#404040">
                        <set attributeName="fill" to="#808080" begin="arrowLeft.mouseover" end="arrowLeft.mouseout"/>
                  </use>
                  <path fill="none" stroke="white" stroke-width="1.5" d="M0,-3.0v7 M-2.5,-0.5L0,-3.0L2.5,-0.5"/>
                </g>
        </g>
        <svg viewBox="0 0 15 15" width="100%" height="30px" preserveAspectRatio="xMaxYMin meet">
         <g id="arrow_out" transform="scale(0.3 0.3)">
          <a xlink:href="a00344_a808d99e39dfc525841db6b645d118979_cgraph_org.svg" target="_base">
           <rect id="button" ry="5" rx="5" y="6" x="6" height="38" width="38"
                fill="#f2f5e9" fill-opacity="0.5" stroke="#606060" stroke-width="1.0"/>
           <path id="arrow"
             d="M 11.500037,31.436501 C 11.940474,20.09759 22.043105,11.32322 32.158766,21.979434 L 37.068811,17.246167 C 37.068811,17.246167 37.088388,32 37.088388,32 L 22.160133,31.978069 C 22.160133,31.978069 26.997745,27.140456 26.997745,27.140456 C 18.528582,18.264221 13.291696,25.230495 11.500037,31.436501 z"
             style="fill:#404040;"/>
          </a>
         </g>
        </svg>
</svg>
