<?xml version="1.0" encoding="UTF-8" standalone="no"?>
<!DOCTYPE svg PUBLIC "-//W3C//DTD SVG 1.1//EN"
 "http://www.w3.org/Graphics/SVG/1.1/DTD/svg11.dtd">
<!-- Generated by graphviz version 2.38.0 (20140413.2041)
 -->
<!-- Title: nars.storage.ReasonerBatch.parseExperience Pages: 1 -->
<svg width="560pt" height="39pt"
 viewBox="0.00 0.00 560.00 39.00" xmlns="http://www.w3.org/2000/svg" xmlns:xlink="http://www.w3.org/1999/xlink">
<g id="graph0" class="graph" transform="scale(1 1) rotate(0) translate(4 35)">
<title>nars.storage.ReasonerBatch.parseExperience</title>
<!-- Node814 -->
<g id="node1" class="node"><title>Node814</title>
<polygon fill="#bfbfbf" stroke="black" points="0,-0.5 0,-30.5 168,-30.5 168,-0.5 0,-0.5"/>
<text text-anchor="start" x="8" y="-18.5" font-family="Helvetica,sans-Serif" font-size="10.00">nars.storage.ReasonerBatch.parse</text>
<text text-anchor="middle" x="84" y="-7.5" font-family="Helvetica,sans-Serif" font-size="10.00">Experience</text>
</g>
<!-- Node815 -->
<g id="node2" class="node"><title>Node815</title>
<g id="a_node2"><a xlink:href="../../df/d15/a00416.html#a1823f1575021b1ca67e6174923923fbb" target="_top" xlink:title="To process a line of input text. ">
<polygon fill="none" stroke="black" points="204,-0.5 204,-30.5 365,-30.5 365,-0.5 204,-0.5"/>
<text text-anchor="start" x="212" y="-18.5" font-family="Helvetica,sans-Serif" font-size="10.00">nars.storage.ReasonerBatch.text</text>
<text text-anchor="middle" x="284.5" y="-7.5" font-family="Helvetica,sans-Serif" font-size="10.00">InputLine</text>
</a>
</g>
</g>
<!-- Node814&#45;&gt;Node815 -->
<g id="edge1" class="edge"><title>Node814&#45;&gt;Node815</title>
<path fill="none" stroke="midnightblue" d="M178.131,-15.5C186.772,-15.5 195.476,-15.5 203.978,-15.5"/>
<polygon fill="midnightblue" stroke="midnightblue" points="178.032,-12.0001 168.032,-15.5 178.032,-19.0001 178.032,-12.0001"/>
</g>
<!-- Node816 -->
<g id="node3" class="node"><title>Node816</title>
<g id="a_node3"><a xlink:href="../../d9/dd6/a00272.html#a1a4b66a6e6cf89d5c2ea7a5923195247" target="_top" xlink:title="Process the next chunk of input data TODO duplicated code with InputWindow#nextInput(). ">
<polygon fill="none" stroke="black" points="401,-0.5 401,-30.5 552,-30.5 552,-0.5 401,-0.5"/>
<text text-anchor="start" x="409" y="-18.5" font-family="Helvetica,sans-Serif" font-size="10.00">nars.io.ExperienceReader.next</text>
<text text-anchor="middle" x="476.5" y="-7.5" font-family="Helvetica,sans-Serif" font-size="10.00">Input</text>
</a>
</g>
</g>
<!-- Node815&#45;&gt;Node816 -->
<g id="edge2" class="edge"><title>Node815&#45;&gt;Node816</title>
<path fill="none" stroke="midnightblue" d="M375.529,-15.5C383.992,-15.5 392.507,-15.5 400.805,-15.5"/>
<polygon fill="midnightblue" stroke="midnightblue" points="375.251,-12.0001 365.251,-15.5 375.251,-19.0001 375.251,-12.0001"/>
</g>
</g>
</svg>
