<?xml version="1.0" encoding="UTF-8" standalone="no"?>
<!DOCTYPE svg PUBLIC "-//W3C//DTD SVG 1.1//EN"
 "http://www.w3.org/Graphics/SVG/1.1/DTD/svg11.dtd">
<!-- Generated by graphviz version 2.38.0 (20140413.2041)
 -->
<!-- Title: nars.storage.ReasonerBatch.addInputChannel Pages: 1 -->
<svg width="536pt" height="88pt"
 viewBox="0.00 0.00 536.00 88.00" xmlns="http://www.w3.org/2000/svg" xmlns:xlink="http://www.w3.org/1999/xlink">
<g id="graph0" class="graph" transform="scale(1 1) rotate(0) translate(4 84)">
<title>nars.storage.ReasonerBatch.addInputChannel</title>
<!-- Node7 -->
<g id="node1" class="node"><title>Node7</title>
<polygon fill="#bfbfbf" stroke="black" points="0,-24.5 0,-54.5 160,-54.5 160,-24.5 0,-24.5"/>
<text text-anchor="start" x="8" y="-42.5" font-family="Helvetica,sans-Serif" font-size="10.00">nars.storage.ReasonerBatch.add</text>
<text text-anchor="middle" x="80" y="-31.5" font-family="Helvetica,sans-Serif" font-size="10.00">InputChannel</text>
</g>
<!-- Node8 -->
<g id="node2" class="node"><title>Node8</title>
<g id="a_node2"><a xlink:href="../../d9/dd6/a00272.html#a9f50480e5784c1ecb2d9295c851c2af7" target="_top" xlink:title="Open an input experience file from given file Path. ">
<polygon fill="none" stroke="black" points="196,-49.5 196,-79.5 349,-79.5 349,-49.5 196,-49.5"/>
<text text-anchor="start" x="204" y="-67.5" font-family="Helvetica,sans-Serif" font-size="10.00">nars.io.ExperienceReader.open</text>
<text text-anchor="middle" x="272.5" y="-56.5" font-family="Helvetica,sans-Serif" font-size="10.00">LoadFile</text>
</a>
</g>
</g>
<!-- Node7&#45;&gt;Node8 -->
<g id="edge1" class="edge"><title>Node7&#45;&gt;Node8</title>
<path fill="none" stroke="midnightblue" d="M170.204,-51.2066C178.822,-52.3376 187.507,-53.4773 195.974,-54.5885"/>
<polygon fill="midnightblue" stroke="midnightblue" points="170.505,-47.7161 160.134,-49.8851 169.594,-54.6566 170.505,-47.7161"/>
</g>
<!-- Node9 -->
<g id="node3" class="node"><title>Node9</title>
<g id="a_node3"><a xlink:href="../../d9/dd6/a00272.html#a1e4529d4f692ecfc7becd9d8e367b3d6" target="_top" xlink:title="nars.io.ExperienceReader.set\lBufferedReader">
<polygon fill="none" stroke="black" points="199.5,-0.5 199.5,-30.5 345.5,-30.5 345.5,-0.5 199.5,-0.5"/>
<text text-anchor="start" x="207.5" y="-18.5" font-family="Helvetica,sans-Serif" font-size="10.00">nars.io.ExperienceReader.set</text>
<text text-anchor="middle" x="272.5" y="-7.5" font-family="Helvetica,sans-Serif" font-size="10.00">BufferedReader</text>
</a>
</g>
</g>
<!-- Node7&#45;&gt;Node9 -->
<g id="edge2" class="edge"><title>Node7&#45;&gt;Node9</title>
<path fill="none" stroke="midnightblue" d="M170.24,-28.2571C179.984,-27.0296 189.812,-25.7914 199.314,-24.5944"/>
<polygon fill="midnightblue" stroke="midnightblue" points="169.618,-24.8077 160.134,-29.5303 170.493,-31.7528 169.618,-24.8077"/>
</g>
<!-- Node10 -->
<g id="node4" class="node"><title>Node10</title>
<g id="a_node4"><a xlink:href="../../d9/da1/a00396.html#a47532d1a2928384645c6ca097ea7a21e" target="_top" xlink:title="nars.storage.NARSBatch.init">
<polygon fill="none" stroke="black" points="385,-6 385,-25 528,-25 528,-6 385,-6"/>
<text text-anchor="middle" x="456.5" y="-13" font-family="Helvetica,sans-Serif" font-size="10.00">nars.storage.NARSBatch.init</text>
</a>
</g>
</g>
<!-- Node9&#45;&gt;Node10 -->
<g id="edge3" class="edge"><title>Node9&#45;&gt;Node10</title>
<path fill="none" stroke="midnightblue" d="M355.758,-15.5C365.481,-15.5 375.338,-15.5 384.881,-15.5"/>
<polygon fill="midnightblue" stroke="midnightblue" points="355.693,-12.0001 345.693,-15.5 355.693,-19.0001 355.693,-12.0001"/>
</g>
</g>
</svg>
