<?xml version="1.0" encoding="UTF-8" standalone="no"?>
<!DOCTYPE svg PUBLIC "-//W3C//DTD SVG 1.1//EN"
 "http://www.w3.org/Graphics/SVG/1.1/DTD/svg11.dtd">
<!-- Generated by graphviz version 2.38.0 (20140413.2041)
 -->
<!-- Title: nars.storage.ReasonerBatch.setWalkingSteps Pages: 1 -->
<svg width="1127pt" height="115pt"
 viewBox="0.00 0.00 1127.00 114.50" xmlns="http://www.w3.org/2000/svg" xmlns:xlink="http://www.w3.org/1999/xlink">
<g id="graph0" class="graph" transform="scale(1 1) rotate(0) translate(4 110.5)">
<title>nars.storage.ReasonerBatch.setWalkingSteps</title>
<!-- Node947 -->
<g id="node1" class="node"><title>Node947</title>
<polygon fill="#bfbfbf" stroke="black" points="0,-33 0,-63 158,-63 158,-33 0,-33"/>
<text text-anchor="start" x="8" y="-51" font-family="Helvetica,sans-Serif" font-size="10.00">nars.storage.ReasonerBatch.set</text>
<text text-anchor="middle" x="79" y="-40" font-family="Helvetica,sans-Serif" font-size="10.00">WalkingSteps</text>
</g>
<!-- Node948 -->
<g id="node2" class="node"><title>Node948</title>
<g id="a_node2"><a xlink:href="../../df/d15/a00416.html#a0d5c797dc17d9e8d0998852915e0f303" target="_top" xlink:title="nars.storage.ReasonerBatch.doTick">
<polygon fill="none" stroke="black" points="194,-79.5 194,-98.5 367,-98.5 367,-79.5 194,-79.5"/>
<text text-anchor="middle" x="280.5" y="-86.5" font-family="Helvetica,sans-Serif" font-size="10.00">nars.storage.ReasonerBatch.doTick</text>
</a>
</g>
</g>
<!-- Node947&#45;&gt;Node948 -->
<g id="edge1" class="edge"><title>Node947&#45;&gt;Node948</title>
<path fill="none" stroke="midnightblue" d="M162.955,-65.0484C186.887,-69.9667 212.147,-75.158 233.009,-79.4455"/>
<polygon fill="midnightblue" stroke="midnightblue" points="163.654,-61.6189 153.154,-63.0341 162.244,-68.4756 163.654,-61.6189"/>
</g>
<!-- Node953 -->
<g id="node7" class="node"><title>Node953</title>
<g id="a_node7"><a xlink:href="../../df/d15/a00416.html#ab89758e9f42673fedcc4a895a2f4a928" target="_top" xlink:title="Reset the system with an empty memory and reset clock. ">
<polygon fill="none" stroke="black" points="197.5,-38.5 197.5,-57.5 363.5,-57.5 363.5,-38.5 197.5,-38.5"/>
<text text-anchor="middle" x="280.5" y="-45.5" font-family="Helvetica,sans-Serif" font-size="10.00">nars.storage.ReasonerBatch.reset</text>
</a>
</g>
</g>
<!-- Node947&#45;&gt;Node953 -->
<g id="edge6" class="edge"><title>Node947&#45;&gt;Node953</title>
<path fill="none" stroke="midnightblue" d="M168.54,-48C178.066,-48 187.73,-48 197.178,-48"/>
<polygon fill="midnightblue" stroke="midnightblue" points="168.275,-44.5001 158.275,-48 168.275,-51.5001 168.275,-44.5001"/>
</g>
<!-- Node956 -->
<g id="node10" class="node"><title>Node956</title>
<g id="a_node10"><a xlink:href="../../df/d15/a00416.html#a272d5a8ac28418fdc9f1b0c8fba98ff2" target="_top" xlink:title="Will carry the inference process for a certain number of steps. ">
<polygon fill="none" stroke="black" points="198.5,-0.5 198.5,-19.5 362.5,-19.5 362.5,-0.5 198.5,-0.5"/>
<text text-anchor="middle" x="280.5" y="-7.5" font-family="Helvetica,sans-Serif" font-size="10.00">nars.storage.ReasonerBatch.walk</text>
</a>
</g>
</g>
<!-- Node947&#45;&gt;Node956 -->
<g id="edge9" class="edge"><title>Node947&#45;&gt;Node956</title>
<path fill="none" stroke="midnightblue" d="M168.208,-31.1985C189.256,-27.1893 210.999,-23.0478 229.62,-19.5009"/>
<polygon fill="midnightblue" stroke="midnightblue" points="167.444,-27.7811 158.275,-33.0905 168.753,-34.6574 167.444,-27.7811"/>
</g>
<!-- Node949 -->
<g id="node3" class="node"><title>Node949</title>
<g id="a_node3"><a xlink:href="../../df/d15/a00416.html#a3468aa0f99edcd66412f27922dddb880" target="_top" xlink:title="A clock tick. ">
<polygon fill="none" stroke="black" points="403.5,-81.5 403.5,-100.5 563.5,-100.5 563.5,-81.5 403.5,-81.5"/>
<text text-anchor="middle" x="483.5" y="-88.5" font-family="Helvetica,sans-Serif" font-size="10.00">nars.storage.ReasonerBatch.tick</text>
</a>
</g>
</g>
<!-- Node948&#45;&gt;Node949 -->
<g id="edge2" class="edge"><title>Node948&#45;&gt;Node949</title>
<path fill="none" stroke="midnightblue" d="M377.275,-89.953C386.032,-90.0401 394.836,-90.1277 403.422,-90.2132"/>
<polygon fill="midnightblue" stroke="midnightblue" points="377.068,-86.4508 367.034,-89.8511 376.998,-93.4505 377.068,-86.4508"/>
</g>
<!-- Node950 -->
<g id="node4" class="node"><title>Node950</title>
<g id="a_node4"><a xlink:href="../../d9/da1/a00396.html#a5d9cfe517bcfbe41e5251910bcd119c1" target="_top" xlink:title="Run to completion: repeatedly execute NARS working cycle, until Inputs are Finished, or 1000 steps. ">
<polygon fill="none" stroke="black" points="603.5,-81.5 603.5,-100.5 747.5,-100.5 747.5,-81.5 603.5,-81.5"/>
<text text-anchor="middle" x="675.5" y="-88.5" font-family="Helvetica,sans-Serif" font-size="10.00">nars.storage.NARSBatch.run</text>
</a>
</g>
</g>
<!-- Node949&#45;&gt;Node950 -->
<g id="edge3" class="edge"><title>Node949&#45;&gt;Node950</title>
<path fill="none" stroke="midnightblue" d="M573.925,-91C583.781,-91 593.718,-91 603.308,-91"/>
<polygon fill="midnightblue" stroke="midnightblue" points="573.701,-87.5001 563.701,-91 573.701,-94.5001 573.701,-87.5001"/>
</g>
<!-- Node951 -->
<g id="node5" class="node"><title>Node951</title>
<g id="a_node5"><a xlink:href="../../d9/da1/a00396.html#a7c307c6b842f82664de6b0e52bdf8efc" target="_top" xlink:title="non&#45;static equivalent to main(String[]) : run to completion from an input file ">
<polygon fill="none" stroke="black" points="787,-76 787,-106 931,-106 931,-76 787,-76"/>
<text text-anchor="start" x="795" y="-94" font-family="Helvetica,sans-Serif" font-size="10.00">nars.storage.NARSBatch.run</text>
<text text-anchor="middle" x="859" y="-83" font-family="Helvetica,sans-Serif" font-size="10.00">Inference</text>
</a>
</g>
</g>
<!-- Node950&#45;&gt;Node951 -->
<g id="edge4" class="edge"><title>Node950&#45;&gt;Node951</title>
<path fill="none" stroke="midnightblue" d="M757.79,-91C767.529,-91 777.415,-91 786.993,-91"/>
<polygon fill="midnightblue" stroke="midnightblue" points="757.713,-87.5001 747.713,-91 757.713,-94.5001 757.713,-87.5001"/>
</g>
<!-- Node952 -->
<g id="node6" class="node"><title>Node952</title>
<g id="a_node6"><a xlink:href="../../d9/da1/a00396.html#abafc597289bc2f6453b5cd0dd6634e54" target="_top" xlink:title="The entry point of the standalone application. ">
<polygon fill="none" stroke="black" points="967,-81.5 967,-100.5 1119,-100.5 1119,-81.5 967,-81.5"/>
<text text-anchor="middle" x="1043" y="-88.5" font-family="Helvetica,sans-Serif" font-size="10.00">nars.storage.NARSBatch.main</text>
</a>
</g>
</g>
<!-- Node951&#45;&gt;Node952 -->
<g id="edge5" class="edge"><title>Node951&#45;&gt;Node952</title>
<path fill="none" stroke="midnightblue" d="M941.166,-91C949.762,-91 958.477,-91 966.998,-91"/>
<polygon fill="midnightblue" stroke="midnightblue" points="941.148,-87.5001 931.148,-91 941.148,-94.5001 941.148,-87.5001"/>
</g>
<!-- Node954 -->
<g id="node8" class="node"><title>Node954</title>
<g id="a_node8"><a xlink:href="../../df/d15/a00416.html#a1823f1575021b1ca67e6174923923fbb" target="_top" xlink:title="To process a line of input text. ">
<polygon fill="none" stroke="black" points="403,-32 403,-62 564,-62 564,-32 403,-32"/>
<text text-anchor="start" x="411" y="-50" font-family="Helvetica,sans-Serif" font-size="10.00">nars.storage.ReasonerBatch.text</text>
<text text-anchor="middle" x="483.5" y="-39" font-family="Helvetica,sans-Serif" font-size="10.00">InputLine</text>
</a>
</g>
</g>
<!-- Node953&#45;&gt;Node954 -->
<g id="edge7" class="edge"><title>Node953&#45;&gt;Node954</title>
<path fill="none" stroke="midnightblue" d="M373.689,-47.5413C383.476,-47.4927 393.368,-47.4434 402.992,-47.3956"/>
<polygon fill="midnightblue" stroke="midnightblue" points="373.527,-44.042 363.544,-47.5918 373.562,-51.0419 373.527,-44.042"/>
</g>
<!-- Node955 -->
<g id="node9" class="node"><title>Node955</title>
<g id="a_node9"><a xlink:href="../../d9/dd6/a00272.html#a1a4b66a6e6cf89d5c2ea7a5923195247" target="_top" xlink:title="Process the next chunk of input data TODO duplicated code with InputWindow#nextInput(). ">
<polygon fill="none" stroke="black" points="600,-10 600,-40 751,-40 751,-10 600,-10"/>
<text text-anchor="start" x="608" y="-28" font-family="Helvetica,sans-Serif" font-size="10.00">nars.io.ExperienceReader.next</text>
<text text-anchor="middle" x="675.5" y="-17" font-family="Helvetica,sans-Serif" font-size="10.00">Input</text>
</a>
</g>
</g>
<!-- Node954&#45;&gt;Node955 -->
<g id="edge8" class="edge"><title>Node954&#45;&gt;Node955</title>
<path fill="none" stroke="midnightblue" d="M574.25,-36.6079C582.805,-35.6174 591.416,-34.6203 599.805,-33.6489"/>
<polygon fill="midnightblue" stroke="midnightblue" points="573.782,-33.1386 564.251,-37.7656 574.587,-40.0921 573.782,-33.1386"/>
</g>
<!-- Node956&#45;&gt;Node954 -->
<g id="edge11" class="edge"><title>Node956&#45;&gt;Node954</title>
<path fill="none" stroke="midnightblue" d="M343.184,-21.3547C362.006,-24.8195 382.974,-28.6794 402.811,-32.331"/>
<polygon fill="midnightblue" stroke="midnightblue" points="343.731,-17.8967 333.262,-19.5284 342.464,-24.781 343.731,-17.8967"/>
</g>
<!-- Node956&#45;&gt;Node955 -->
<g id="edge10" class="edge"><title>Node956&#45;&gt;Node955</title>
<path fill="none" stroke="midnightblue" d="M373.345,-13.5056C442.269,-16.1362 535.449,-19.6927 599.821,-22.1497"/>
<polygon fill="midnightblue" stroke="midnightblue" points="373.056,-9.99205 362.93,-13.108 372.789,-16.987 373.056,-9.99205"/>
</g>
</g>
</svg>
