<?xml version="1.0" encoding="UTF-8" standalone="no"?>
<!DOCTYPE svg PUBLIC "-//W3C//DTD SVG 1.1//EN"
 "http://www.w3.org/Graphics/SVG/1.1/DTD/svg11.dtd">
<!-- Generated by graphviz version 2.38.0 (20140413.2041)
 -->
<!-- Title: nars.storage.ReasonerBatch.isRunning Pages: 1 -->
<svg width="1113pt" height="39pt"
 viewBox="0.00 0.00 1113.00 39.00" xmlns="http://www.w3.org/2000/svg" xmlns:xlink="http://www.w3.org/1999/xlink">
<g id="graph0" class="graph" transform="scale(1 1) rotate(0) translate(4 35)">
<title>nars.storage.ReasonerBatch.isRunning</title>
<!-- Node750 -->
<g id="node1" class="node"><title>Node750</title>
<polygon fill="#bfbfbf" stroke="black" points="0,-0.5 0,-30.5 152,-30.5 152,-0.5 0,-0.5"/>
<text text-anchor="start" x="8" y="-18.5" font-family="Helvetica,sans-Serif" font-size="10.00">nars.storage.ReasonerBatch.is</text>
<text text-anchor="middle" x="76" y="-7.5" font-family="Helvetica,sans-Serif" font-size="10.00">Running</text>
</g>
<!-- Node751 -->
<g id="node2" class="node"><title>Node751</title>
<g id="a_node2"><a xlink:href="../../df/d15/a00416.html#a0d5c797dc17d9e8d0998852915e0f303" target="_top" xlink:title="nars.storage.ReasonerBatch.doTick">
<polygon fill="none" stroke="black" points="188,-6 188,-25 361,-25 361,-6 188,-6"/>
<text text-anchor="middle" x="274.5" y="-13" font-family="Helvetica,sans-Serif" font-size="10.00">nars.storage.ReasonerBatch.doTick</text>
</a>
</g>
</g>
<!-- Node750&#45;&gt;Node751 -->
<g id="edge1" class="edge"><title>Node750&#45;&gt;Node751</title>
<path fill="none" stroke="midnightblue" d="M162.376,-15.5C170.842,-15.5 179.439,-15.5 187.908,-15.5"/>
<polygon fill="midnightblue" stroke="midnightblue" points="162.129,-12.0001 152.129,-15.5 162.129,-19.0001 162.129,-12.0001"/>
</g>
<!-- Node752 -->
<g id="node3" class="node"><title>Node752</title>
<g id="a_node3"><a xlink:href="../../df/d15/a00416.html#a3468aa0f99edcd66412f27922dddb880" target="_top" xlink:title="A clock tick. ">
<polygon fill="none" stroke="black" points="397,-6 397,-25 557,-25 557,-6 397,-6"/>
<text text-anchor="middle" x="477" y="-13" font-family="Helvetica,sans-Serif" font-size="10.00">nars.storage.ReasonerBatch.tick</text>
</a>
</g>
</g>
<!-- Node751&#45;&gt;Node752 -->
<g id="edge2" class="edge"><title>Node751&#45;&gt;Node752</title>
<path fill="none" stroke="midnightblue" d="M371.131,-15.5C379.696,-15.5 388.306,-15.5 396.711,-15.5"/>
<polygon fill="midnightblue" stroke="midnightblue" points="371.112,-12.0001 361.112,-15.5 371.112,-19.0001 371.112,-12.0001"/>
</g>
<!-- Node753 -->
<g id="node4" class="node"><title>Node753</title>
<g id="a_node4"><a xlink:href="../../d9/da1/a00396.html#a5d9cfe517bcfbe41e5251910bcd119c1" target="_top" xlink:title="Run to completion: repeatedly execute NARS working cycle, until Inputs are Finished, or 1000 steps. ">
<polygon fill="none" stroke="black" points="593,-6 593,-25 737,-25 737,-6 593,-6"/>
<text text-anchor="middle" x="665" y="-13" font-family="Helvetica,sans-Serif" font-size="10.00">nars.storage.NARSBatch.run</text>
</a>
</g>
</g>
<!-- Node752&#45;&gt;Node753 -->
<g id="edge3" class="edge"><title>Node752&#45;&gt;Node753</title>
<path fill="none" stroke="midnightblue" d="M567.217,-15.5C575.824,-15.5 584.475,-15.5 592.873,-15.5"/>
<polygon fill="midnightblue" stroke="midnightblue" points="567.15,-12.0001 557.15,-15.5 567.15,-19.0001 567.15,-12.0001"/>
</g>
<!-- Node754 -->
<g id="node5" class="node"><title>Node754</title>
<g id="a_node5"><a xlink:href="../../d9/da1/a00396.html#a7c307c6b842f82664de6b0e52bdf8efc" target="_top" xlink:title="non&#45;static equivalent to main(String[]) : run to completion from an input file ">
<polygon fill="none" stroke="black" points="773,-0.5 773,-30.5 917,-30.5 917,-0.5 773,-0.5"/>
<text text-anchor="start" x="781" y="-18.5" font-family="Helvetica,sans-Serif" font-size="10.00">nars.storage.NARSBatch.run</text>
<text text-anchor="middle" x="845" y="-7.5" font-family="Helvetica,sans-Serif" font-size="10.00">Inference</text>
</a>
</g>
</g>
<!-- Node753&#45;&gt;Node754 -->
<g id="edge4" class="edge"><title>Node753&#45;&gt;Node754</title>
<path fill="none" stroke="midnightblue" d="M747.17,-15.5C755.789,-15.5 764.506,-15.5 772.995,-15.5"/>
<polygon fill="midnightblue" stroke="midnightblue" points="747.118,-12.0001 737.118,-15.5 747.118,-19.0001 747.118,-12.0001"/>
</g>
<!-- Node755 -->
<g id="node6" class="node"><title>Node755</title>
<g id="a_node6"><a xlink:href="../../d9/da1/a00396.html#abafc597289bc2f6453b5cd0dd6634e54" target="_top" xlink:title="The entry point of the standalone application. ">
<polygon fill="none" stroke="black" points="953,-6 953,-25 1105,-25 1105,-6 953,-6"/>
<text text-anchor="middle" x="1029" y="-13" font-family="Helvetica,sans-Serif" font-size="10.00">nars.storage.NARSBatch.main</text>
</a>
</g>
</g>
<!-- Node754&#45;&gt;Node755 -->
<g id="edge5" class="edge"><title>Node754&#45;&gt;Node755</title>
<path fill="none" stroke="midnightblue" d="M927.166,-15.5C935.762,-15.5 944.477,-15.5 952.998,-15.5"/>
<polygon fill="midnightblue" stroke="midnightblue" points="927.148,-12.0001 917.148,-15.5 927.148,-19.0001 927.148,-12.0001"/>
</g>
</g>
</svg>
