<?xml version="1.0" encoding="UTF-8" standalone="no"?>
<!DOCTYPE svg PUBLIC "-//W3C//DTD SVG 1.1//EN"
 "http://www.w3.org/Graphics/SVG/1.1/DTD/svg11.dtd">
<!-- Generated by graphviz version 2.38.0 (20140413.2041)
 -->
<!-- Title: nars.storage.ReasonerBatch.addOutputChannel Pages: 1 -->
<svg width="761pt" height="100pt"
 viewBox="0.00 0.00 761.00 99.50" xmlns="http://www.w3.org/2000/svg" xmlns:xlink="http://www.w3.org/1999/xlink">
<g id="graph0" class="graph" transform="scale(1 1) rotate(0) translate(4 95.5)">
<title>nars.storage.ReasonerBatch.addOutputChannel</title>
<!-- Node13 -->
<g id="node1" class="node"><title>Node13</title>
<polygon fill="#bfbfbf" stroke="black" points="0,-22.5 0,-52.5 160,-52.5 160,-22.5 0,-22.5"/>
<text text-anchor="start" x="8" y="-40.5" font-family="Helvetica,sans-Serif" font-size="10.00">nars.storage.ReasonerBatch.add</text>
<text text-anchor="middle" x="80" y="-29.5" font-family="Helvetica,sans-Serif" font-size="10.00">OutputChannel</text>
</g>
<!-- Node14 -->
<g id="node2" class="node"><title>Node14</title>
<g id="a_node2"><a xlink:href="../../d9/da1/a00396.html#a084e3f56fc018f145bc73c5e91067467" target="_top" xlink:title="initialize from an input file ">
<polygon fill="none" stroke="black" points="198.5,-50 198.5,-69 341.5,-69 341.5,-50 198.5,-50"/>
<text text-anchor="middle" x="270" y="-57" font-family="Helvetica,sans-Serif" font-size="10.00">nars.storage.NARSBatch.init</text>
</a>
</g>
</g>
<!-- Node13&#45;&gt;Node14 -->
<g id="edge1" class="edge"><title>Node13&#45;&gt;Node14</title>
<path fill="none" stroke="midnightblue" d="M170.32,-47.9523C179.699,-49.0499 189.141,-50.1548 198.271,-51.2231"/>
<polygon fill="midnightblue" stroke="midnightblue" points="170.523,-44.4523 160.184,-46.7662 169.709,-51.4049 170.523,-44.4523"/>
</g>
<!-- Node18 -->
<g id="node6" class="node"><title>Node18</title>
<g id="a_node6"><a xlink:href="../../dc/d28/a00276.html#a41589d1fc16d5b14efbce8ec122e5abc" target="_top" xlink:title="Open an output experience file. ">
<polygon fill="none" stroke="black" points="196,-0.5 196,-30.5 344,-30.5 344,-0.5 196,-0.5"/>
<text text-anchor="start" x="204" y="-18.5" font-family="Helvetica,sans-Serif" font-size="10.00">nars.io.ExperienceWriter.open</text>
<text text-anchor="middle" x="270" y="-7.5" font-family="Helvetica,sans-Serif" font-size="10.00">SaveFile</text>
</a>
</g>
</g>
<!-- Node13&#45;&gt;Node18 -->
<g id="edge6" class="edge"><title>Node13&#45;&gt;Node18</title>
<path fill="none" stroke="midnightblue" d="M170.234,-27.0577C178.831,-26.0517 187.481,-25.0394 195.896,-24.0547"/>
<polygon fill="midnightblue" stroke="midnightblue" points="169.709,-23.5951 160.184,-28.2338 170.523,-30.5477 169.709,-23.5951"/>
</g>
<!-- Node15 -->
<g id="node3" class="node"><title>Node15</title>
<g id="a_node3"><a xlink:href="../../d9/da1/a00396.html#acbaf7780981f7c7f84d6faee5eda9f0a" target="_top" xlink:title="nars.storage.NARSBatch.NARSBatch">
<polygon fill="none" stroke="black" points="380,-72 380,-91 565,-91 565,-72 380,-72"/>
<text text-anchor="middle" x="472.5" y="-79" font-family="Helvetica,sans-Serif" font-size="10.00">nars.storage.NARSBatch.NARSBatch</text>
</a>
</g>
</g>
<!-- Node14&#45;&gt;Node15 -->
<g id="edge2" class="edge"><title>Node14&#45;&gt;Node15</title>
<path fill="none" stroke="midnightblue" d="M351.893,-68.3761C362.653,-69.5567 373.722,-70.7713 384.579,-71.9626"/>
<polygon fill="midnightblue" stroke="midnightblue" points="352.011,-64.8681 341.689,-67.2564 351.247,-71.8263 352.011,-64.8681"/>
</g>
<!-- Node17 -->
<g id="node5" class="node"><title>Node17</title>
<g id="a_node5"><a xlink:href="../../d9/da1/a00396.html#a7c307c6b842f82664de6b0e52bdf8efc" target="_top" xlink:title="non&#45;static equivalent to main(String[]) : run to completion from an input file ">
<polygon fill="none" stroke="black" points="400.5,-22.5 400.5,-52.5 544.5,-52.5 544.5,-22.5 400.5,-22.5"/>
<text text-anchor="start" x="408.5" y="-40.5" font-family="Helvetica,sans-Serif" font-size="10.00">nars.storage.NARSBatch.run</text>
<text text-anchor="middle" x="472.5" y="-29.5" font-family="Helvetica,sans-Serif" font-size="10.00">Inference</text>
</a>
</g>
</g>
<!-- Node14&#45;&gt;Node17 -->
<g id="edge4" class="edge"><title>Node14&#45;&gt;Node17</title>
<path fill="none" stroke="midnightblue" d="M351.636,-50.6521C367.785,-48.8802 384.639,-47.0308 400.435,-45.2976"/>
<polygon fill="midnightblue" stroke="midnightblue" points="351.247,-47.1737 341.689,-51.7436 352.011,-54.1319 351.247,-47.1737"/>
</g>
<!-- Node16 -->
<g id="node4" class="node"><title>Node16</title>
<g id="a_node4"><a xlink:href="../../d9/da1/a00396.html#abafc597289bc2f6453b5cd0dd6634e54" target="_top" xlink:title="The entry point of the standalone application. ">
<polygon fill="none" stroke="black" points="601,-50 601,-69 753,-69 753,-50 601,-50"/>
<text text-anchor="middle" x="677" y="-57" font-family="Helvetica,sans-Serif" font-size="10.00">nars.storage.NARSBatch.main</text>
</a>
</g>
</g>
<!-- Node15&#45;&gt;Node16 -->
<g id="edge3" class="edge"><title>Node15&#45;&gt;Node16</title>
<path fill="none" stroke="midnightblue" d="M571.127,-70.8936C581.143,-69.8054 591.207,-68.7121 600.925,-67.6563"/>
<polygon fill="midnightblue" stroke="midnightblue" points="570.705,-67.4188 561.142,-71.9784 571.461,-74.3778 570.705,-67.4188"/>
</g>
<!-- Node17&#45;&gt;Node16 -->
<g id="edge5" class="edge"><title>Node17&#45;&gt;Node16</title>
<path fill="none" stroke="midnightblue" d="M554.562,-46.3067C569.871,-47.97 585.823,-49.703 600.938,-51.3451"/>
<polygon fill="midnightblue" stroke="midnightblue" points="554.929,-42.8261 544.609,-45.2254 554.173,-49.7851 554.929,-42.8261"/>
</g>
</g>
</svg>
