<?xml version="1.0" encoding="UTF-8" standalone="no"?>
<!DOCTYPE svg PUBLIC "-//W3C//DTD SVG 1.1//EN"
 "http://www.w3.org/Graphics/SVG/1.1/DTD/svg11.dtd">
<!-- Generated by graphviz version 2.38.0 (20140413.2041)
 -->
<!-- Title: nars.storage.ReasonerBatch.updateTimer Pages: 1 -->
<svg width="569pt" height="88pt"
 viewBox="0.00 0.00 569.00 88.00" xmlns="http://www.w3.org/2000/svg" xmlns:xlink="http://www.w3.org/1999/xlink">
<g id="graph0" class="graph" transform="scale(1 1) rotate(0) translate(4 84)">
<title>nars.storage.ReasonerBatch.updateTimer</title>
<!-- Node1392 -->
<g id="node1" class="node"><title>Node1392</title>
<polygon fill="#bfbfbf" stroke="black" points="5.68434e-14,-24.5 5.68434e-14,-54.5 173,-54.5 173,-24.5 5.68434e-14,-24.5"/>
<text text-anchor="start" x="8" y="-42.5" font-family="Helvetica,sans-Serif" font-size="10.00">nars.storage.ReasonerBatch.update</text>
<text text-anchor="middle" x="86.5" y="-31.5" font-family="Helvetica,sans-Serif" font-size="10.00">Timer</text>
</g>
<!-- Node1393 -->
<g id="node2" class="node"><title>Node1393</title>
<g id="a_node2"><a xlink:href="../../df/d15/a00416.html#a64586e56057f3a2d498dc7fd98c4f773" target="_top" xlink:title="System clock &#45; number of cycles since last output. ">
<polygon fill="none" stroke="black" points="209,-49.5 209,-79.5 367,-79.5 367,-49.5 209,-49.5"/>
<text text-anchor="start" x="217" y="-67.5" font-family="Helvetica,sans-Serif" font-size="10.00">nars.storage.ReasonerBatch.get</text>
<text text-anchor="middle" x="288" y="-56.5" font-family="Helvetica,sans-Serif" font-size="10.00">Timer</text>
</a>
</g>
</g>
<!-- Node1392&#45;&gt;Node1393 -->
<g id="edge1" class="edge"><title>Node1392&#45;&gt;Node1393</title>
<path fill="none" stroke="midnightblue" d="M173.264,-50.2473C181.765,-51.3127 190.405,-52.3954 198.929,-53.4636"/>
<polygon fill="midnightblue" stroke="midnightblue" points="198.51,-56.9384 208.868,-54.709 199.381,-49.9927 198.51,-56.9384"/>
</g>
<!-- Node1394 -->
<g id="node3" class="node"><title>Node1394</title>
<g id="a_node3"><a xlink:href="../../df/d15/a00416.html#aa243bca18963b74438535cd125039740" target="_top" xlink:title="nars.storage.ReasonerBatch.init\lTimer">
<polygon fill="none" stroke="black" points="209.5,-0.5 209.5,-30.5 366.5,-30.5 366.5,-0.5 209.5,-0.5"/>
<text text-anchor="start" x="217.5" y="-18.5" font-family="Helvetica,sans-Serif" font-size="10.00">nars.storage.ReasonerBatch.init</text>
<text text-anchor="middle" x="288" y="-7.5" font-family="Helvetica,sans-Serif" font-size="10.00">Timer</text>
</a>
</g>
</g>
<!-- Node1392&#45;&gt;Node1394 -->
<g id="edge2" class="edge"><title>Node1392&#45;&gt;Node1394</title>
<path fill="none" stroke="midnightblue" d="M173.264,-29.1826C181.917,-28.1416 190.714,-27.0833 199.386,-26.04"/>
<polygon fill="midnightblue" stroke="midnightblue" points="199.983,-29.4935 209.493,-24.8241 199.147,-22.5437 199.983,-29.4935"/>
</g>
<!-- Node1395 -->
<g id="node4" class="node"><title>Node1395</title>
<g id="a_node4"><a xlink:href="../../df/d15/a00416.html#ac3e769632e8a90ddc85970d3fee28e5f" target="_top" xlink:title="nars.storage.ReasonerBatch.set\lTimer">
<polygon fill="none" stroke="black" points="403,-0.5 403,-30.5 561,-30.5 561,-0.5 403,-0.5"/>
<text text-anchor="start" x="411" y="-18.5" font-family="Helvetica,sans-Serif" font-size="10.00">nars.storage.ReasonerBatch.set</text>
<text text-anchor="middle" x="482" y="-7.5" font-family="Helvetica,sans-Serif" font-size="10.00">Timer</text>
</a>
</g>
</g>
<!-- Node1394&#45;&gt;Node1395 -->
<g id="edge3" class="edge"><title>Node1394&#45;&gt;Node1395</title>
<path fill="none" stroke="midnightblue" d="M366.54,-15.5C375.143,-15.5 383.951,-15.5 392.674,-15.5"/>
<polygon fill="midnightblue" stroke="midnightblue" points="392.858,-19.0001 402.858,-15.5 392.858,-12.0001 392.858,-19.0001"/>
</g>
</g>
</svg>
