<?xml version="1.0" encoding="UTF-8" standalone="no"?>
<!DOCTYPE svg PUBLIC "-//W3C//DTD SVG 1.1//EN"
 "http://www.w3.org/Graphics/SVG/1.1/DTD/svg11.dtd">
<!-- Generated by graphviz version 2.38.0 (20140413.2041)
 -->
<!-- Title: nars.storage.ReasonerBatch.setRunning Pages: 1 -->
<!--zoomable 110 -->
<svg id="main" version="1.1" xmlns="http://www.w3.org/2000/svg" xmlns:xlink="http://www.w3.org/1999/xlink" xml:space="preserve" onload="init(evt)">
<style type="text/css"><![CDATA[
.edge:hover path { stroke: red; }
.edge:hover polygon { stroke: red; fill: red; }
]]></style>
<script type="text/javascript"><![CDATA[
var edges = document.getElementsByTagName('g');
if (edges && edges.length) {
  for (var i=0;i<edges.length;i++) {
    if (edges[i].id.substr(0,4)=='edge') {
      edges[i].setAttribute('class','edge');
    }
  }
}
]]></script>
        <defs>
                <circle id="rim" cx="0" cy="0" r="7"/>
                <circle id="rim2" cx="0" cy="0" r="3.5"/>
                <g id="zoomPlus">
                        <use xlink:href="#rim" fill="#404040">
                                <set attributeName="fill" to="#808080" begin="zoomplus.mouseover" end="zoomplus.mouseout"/>
                        </use>
                        <path d="M-4,0h8M0,-4v8" fill="none" stroke="white" stroke-width="1.5" pointer-events="none"/>
                </g>
                <g id="zoomMin">
                        <use xlink:href="#rim" fill="#404040">
                                <set attributeName="fill" to="#808080" begin="zoomminus.mouseover" end="zoomminus.mouseout"/>
                        </use>
                        <path d="M-4,0h8" fill="none" stroke="white" stroke-width="1.5" pointer-events="none"/>
                </g>
                <g id="dirArrow">
                        <path fill="none" stroke="white" stroke-width="1.5" d="M0,-3.0v7 M-2.5,-0.5L0,-3.0L2.5,-0.5"/>
                </g>
               <g id="resetDef">
                       <use xlink:href="#rim2" fill="#404040">
                               <set attributeName="fill" to="#808080" begin="reset.mouseover" end="reset.mouseout"/>
                       </use>
               </g>
        </defs>

<script type="text/javascript">
var viewWidth = 752;
var viewHeight = 110;
var sectionId = 'dynsection-37';
</script>
<script xlink:href="../../svgpan.js"/>
<svg id="graph" class="graph">
<g id="viewport">
<title>nars.storage.ReasonerBatch.setRunning</title>
<!-- Node878 -->
<g id="node1" class="node"><title>Node878</title>
<polygon fill="#bfbfbf" stroke="black" points="0,-33 0,-63 158,-63 158,-33 0,-33"/>
<text text-anchor="start" x="8" y="-51" font-family="Helvetica,sans-Serif" font-size="10.00">nars.storage.ReasonerBatch.set</text>
<text text-anchor="middle" x="79" y="-40" font-family="Helvetica,sans-Serif" font-size="10.00">Running</text>
</g>
<!-- Node879 -->
<g id="node2" class="node"><title>Node879</title>
<g id="a_node2"><a xlink:href="../../df/d15/a00416.html#ab89758e9f42673fedcc4a895a2f4a928" target="_top" xlink:title="Reset the system with an empty memory and reset clock. ">
<polygon fill="none" stroke="black" points="194,-76.5 194,-95.5 360,-95.5 360,-76.5 194,-76.5"/>
<text text-anchor="middle" x="277" y="-83.5" font-family="Helvetica,sans-Serif" font-size="10.00">nars.storage.ReasonerBatch.reset</text>
</a>
</g>
</g>
<!-- Node878&#45;&gt;Node879 -->
<g id="edge1" class="edge"><title>Node878&#45;&gt;Node879</title>
<path fill="none" stroke="midnightblue" d="M167.432,-64.9511C187.87,-68.9135 208.928,-72.9963 226.995,-76.4991"/>
<polygon fill="midnightblue" stroke="midnightblue" points="167.948,-61.486 157.464,-63.0186 166.615,-68.358 167.948,-61.486"/>
</g>
<!-- Node882 -->
<g id="node5" class="node"><title>Node882</title>
<g id="a_node5"><a xlink:href="../../df/d15/a00416.html#a63672a01ec4794f8e91c2fa73a2d86a9" target="_top" xlink:title="Start the inference process. ">
<polygon fill="none" stroke="black" points="198,-38.5 198,-57.5 356,-57.5 356,-38.5 198,-38.5"/>
<text text-anchor="middle" x="277" y="-45.5" font-family="Helvetica,sans-Serif" font-size="10.00">nars.storage.ReasonerBatch.run</text>
</a>
</g>
</g>
<!-- Node878&#45;&gt;Node882 -->
<g id="edge4" class="edge"><title>Node878&#45;&gt;Node882</title>
<path fill="none" stroke="midnightblue" d="M168.266,-48C178.153,-48 188.174,-48 197.921,-48"/>
<polygon fill="midnightblue" stroke="midnightblue" points="168.028,-44.5001 158.028,-48 168.028,-51.5001 168.028,-44.5001"/>
</g>
<!-- Node883 -->
<g id="node6" class="node"><title>Node883</title>
<g id="a_node6"><a xlink:href="../../df/d15/a00416.html#a4e7ed20dbd3be897504e54a8305e3576" target="_top" xlink:title="Stop the inference process. ">
<polygon fill="none" stroke="black" points="195.5,-0.5 195.5,-19.5 358.5,-19.5 358.5,-0.5 195.5,-0.5"/>
<text text-anchor="middle" x="277" y="-7.5" font-family="Helvetica,sans-Serif" font-size="10.00">nars.storage.ReasonerBatch.stop</text>
</a>
</g>
</g>
<!-- Node878&#45;&gt;Node883 -->
<g id="edge5" class="edge"><title>Node878&#45;&gt;Node883</title>
<path fill="none" stroke="midnightblue" d="M167.432,-31.0489C187.87,-27.0865 208.928,-23.0037 226.995,-19.5009"/>
<polygon fill="midnightblue" stroke="midnightblue" points="166.615,-27.642 157.464,-32.9814 167.948,-34.514 166.615,-27.642"/>
</g>
<!-- Node880 -->
<g id="node3" class="node"><title>Node880</title>
<g id="a_node3"><a xlink:href="../../df/d15/a00416.html#a1823f1575021b1ca67e6174923923fbb" target="_top" xlink:title="To process a line of input text. ">
<polygon fill="none" stroke="black" points="396,-71 396,-101 557,-101 557,-71 396,-71"/>
<text text-anchor="start" x="404" y="-89" font-family="Helvetica,sans-Serif" font-size="10.00">nars.storage.ReasonerBatch.text</text>
<text text-anchor="middle" x="476.5" y="-78" font-family="Helvetica,sans-Serif" font-size="10.00">InputLine</text>
</a>
</g>
</g>
<!-- Node879&#45;&gt;Node880 -->
<g id="edge2" class="edge"><title>Node879&#45;&gt;Node880</title>
<path fill="none" stroke="midnightblue" d="M370.12,-86C378.745,-86 387.438,-86 395.934,-86"/>
<polygon fill="midnightblue" stroke="midnightblue" points="370.042,-82.5001 360.042,-86 370.042,-89.5001 370.042,-82.5001"/>
</g>
<!-- Node881 -->
<g id="node4" class="node"><title>Node881</title>
<g id="a_node4"><a xlink:href="../../d9/dd6/a00272.html#a1a4b66a6e6cf89d5c2ea7a5923195247" target="_top" xlink:title="Process the next chunk of input data TODO duplicated code with InputWindow#nextInput(). ">
<polygon fill="none" stroke="black" points="593,-71 593,-101 744,-101 744,-71 593,-71"/>
<text text-anchor="start" x="601" y="-89" font-family="Helvetica,sans-Serif" font-size="10.00">nars.io.ExperienceReader.next</text>
<text text-anchor="middle" x="668.5" y="-78" font-family="Helvetica,sans-Serif" font-size="10.00">Input</text>
</a>
</g>
</g>
<!-- Node880&#45;&gt;Node881 -->
<g id="edge3" class="edge"><title>Node880&#45;&gt;Node881</title>
<path fill="none" stroke="midnightblue" d="M567.529,-86C575.992,-86 584.507,-86 592.805,-86"/>
<polygon fill="midnightblue" stroke="midnightblue" points="567.251,-82.5001 557.251,-86 567.251,-89.5001 567.251,-82.5001"/>
</g>
</g>
</svg>
        <g id="navigator" transform="translate(0 0)" fill="#404254">
                <rect fill="#f2f5e9" fill-opacity="0.5" stroke="#606060" stroke-width=".5" x="0" y="0" width="60" height="60"/>
                <use id="zoomplus" xlink:href="#zoomPlus" x="17" y="9" onmousedown="handleZoom(evt,'in')"/>
                <use id="zoomminus" xlink:href="#zoomMin" x="42" y="9" onmousedown="handleZoom(evt,'out')"/>
                <use id="reset" xlink:href="#resetDef" x="30" y="36" onmousedown="handleReset()"/>
                <g id="arrowUp" xlink:href="#dirArrow" transform="translate(30 24)" onmousedown="handlePan(0,-1)">
                  <use xlink:href="#rim" fill="#404040">
                        <set attributeName="fill" to="#808080" begin="arrowUp.mouseover" end="arrowUp.mouseout"/>
                  </use>
                  <path fill="none" stroke="white" stroke-width="1.5" d="M0,-3.0v7 M-2.5,-0.5L0,-3.0L2.5,-0.5"/>
                </g>
                <g id="arrowRight" xlink:href="#dirArrow" transform="rotate(90) translate(36 -43)" onmousedown="handlePan(1,0)">
                  <use xlink:href="#rim" fill="#404040">
                        <set attributeName="fill" to="#808080" begin="arrowRight.mouseover" end="arrowRight.mouseout"/>
                  </use>
                  <path fill="none" stroke="white" stroke-width="1.5" d="M0,-3.0v7 M-2.5,-0.5L0,-3.0L2.5,-0.5"/>
                </g>
                <g id="arrowDown" xlink:href="#dirArrow" transform="rotate(180) translate(-30 -48)" onmousedown="handlePan(0,1)">
                  <use xlink:href="#rim" fill="#404040">
                        <set attributeName="fill" to="#808080" begin="arrowDown.mouseover" end="arrowDown.mouseout"/>
                  </use>
                  <path fill="none" stroke="white" stroke-width="1.5" d="M0,-3.0v7 M-2.5,-0.5L0,-3.0L2.5,-0.5"/>
                </g>
                <g id="arrowLeft" xlink:href="#dirArrow" transform="rotate(270) translate(-36 17)" onmousedown="handlePan(-1,0)">
                  <use xlink:href="#rim" fill="#404040">
                        <set attributeName="fill" to="#808080" begin="arrowLeft.mouseover" end="arrowLeft.mouseout"/>
                  </use>
                  <path fill="none" stroke="white" stroke-width="1.5" d="M0,-3.0v7 M-2.5,-0.5L0,-3.0L2.5,-0.5"/>
                </g>
        </g>
        <svg viewBox="0 0 15 15" width="100%" height="30px" preserveAspectRatio="xMaxYMin meet">
         <g id="arrow_out" transform="scale(0.3 0.3)">
          <a xlink:href="a00416_a9bab9537e3481b983f82cea004140b93_icgraph_org.svg" target="_base">
           <rect id="button" ry="5" rx="5" y="6" x="6" height="38" width="38"
                fill="#f2f5e9" fill-opacity="0.5" stroke="#606060" stroke-width="1.0"/>
           <path id="arrow"
             d="M 11.500037,31.436501 C 11.940474,20.09759 22.043105,11.32322 32.158766,21.979434 L 37.068811,17.246167 C 37.068811,17.246167 37.088388,32 37.088388,32 L 22.160133,31.978069 C 22.160133,31.978069 26.997745,27.140456 26.997745,27.140456 C 18.528582,18.264221 13.291696,25.230495 11.500037,31.436501 z"
             style="fill:#404040;"/>
          </a>
         </g>
        </svg>
</svg>
