<?xml version="1.0" encoding="UTF-8" standalone="no"?>
<!DOCTYPE svg PUBLIC "-//W3C//DTD SVG 1.1//EN"
 "http://www.w3.org/Graphics/SVG/1.1/DTD/svg11.dtd">
<!-- Generated by graphviz version 2.38.0 (20140413.2041)
 -->
<!-- Title: nars.storage.ReasonerBatch.asString Pages: 1 -->
<svg width="757pt" height="362pt"
 viewBox="0.00 0.00 757.00 361.50" xmlns="http://www.w3.org/2000/svg" xmlns:xlink="http://www.w3.org/1999/xlink">
<g id="graph0" class="graph" transform="scale(1 1) rotate(0) translate(4 357.5)">
<title>nars.storage.ReasonerBatch.asString</title>
<!-- Node19 -->
<g id="node1" class="node"><title>Node19</title>
<polygon fill="#bfbfbf" stroke="black" points="0,-191.5 0,-221.5 155,-221.5 155,-191.5 0,-191.5"/>
<text text-anchor="start" x="8" y="-209.5" font-family="Helvetica,sans-Serif" font-size="10.00">nars.storage.ReasonerBatch.as</text>
<text text-anchor="middle" x="77.5" y="-198.5" font-family="Helvetica,sans-Serif" font-size="10.00">String</text>
</g>
<!-- Node20 -->
<g id="node2" class="node"><title>Node20</title>
<g id="a_node2"><a xlink:href="../../df/d15/a00416.html#a1c93db9a070b48a9a5729cc23e56f1c2" target="_top" xlink:title="The memory of the reasoner. ">
<polygon fill="none" stroke="black" points="191,-213.5 191,-243.5 349,-243.5 349,-213.5 191,-213.5"/>
<text text-anchor="start" x="199" y="-231.5" font-family="Helvetica,sans-Serif" font-size="10.00">nars.storage.ReasonerBatch.get</text>
<text text-anchor="middle" x="270" y="-220.5" font-family="Helvetica,sans-Serif" font-size="10.00">Memory</text>
</a>
</g>
</g>
<!-- Node19&#45;&gt;Node20 -->
<g id="edge1" class="edge"><title>Node19&#45;&gt;Node20</title>
<path fill="none" stroke="midnightblue" d="M155.16,-215.353C163.632,-216.331 172.307,-217.333 180.904,-218.326"/>
<polygon fill="midnightblue" stroke="midnightblue" points="180.609,-221.815 190.944,-219.486 181.412,-214.861 180.609,-221.815"/>
</g>
<!-- Node21 -->
<g id="node3" class="node"><title>Node21</title>
<g id="a_node3"><a xlink:href="../../d4/d27/a00392.html#aaf94683fe32443a90619071e13b7fe41" target="_top" xlink:title="nars.storage.Memory.toString">
<polygon fill="none" stroke="black" points="197,-175 197,-194 343,-194 343,-175 197,-175"/>
<text text-anchor="middle" x="270" y="-182" font-family="Helvetica,sans-Serif" font-size="10.00">nars.storage.Memory.toString</text>
</a>
</g>
</g>
<!-- Node19&#45;&gt;Node21 -->
<g id="edge2" class="edge"><title>Node19&#45;&gt;Node21</title>
<path fill="none" stroke="midnightblue" d="M155.16,-197.647C165.581,-196.443 176.31,-195.204 186.823,-193.99"/>
<polygon fill="midnightblue" stroke="midnightblue" points="187.286,-197.46 196.818,-192.836 186.483,-190.506 187.286,-197.46"/>
</g>
<!-- Node22 -->
<g id="node4" class="node"><title>Node22</title>
<g id="a_node4"><a xlink:href="../../d4/d27/a00392.html#a33af7b3d806d32c85390563fec3c6d27" target="_top" xlink:title="Concept bag. ">
<polygon fill="none" stroke="black" points="391,-334 391,-353 558,-353 558,-334 391,-334"/>
<text text-anchor="middle" x="474.5" y="-341" font-family="Helvetica,sans-Serif" font-size="10.00">nars.storage.Memory.getConcepts</text>
</a>
</g>
</g>
<!-- Node21&#45;&gt;Node22 -->
<g id="edge3" class="edge"><title>Node21&#45;&gt;Node22</title>
<path fill="none" stroke="midnightblue" d="M333.752,-194.165C339.348,-196.853 344.563,-200.239 349,-204.5 389.161,-243.068 344.085,-286.733 385,-324.5 386.516,-325.899 388.108,-327.204 389.767,-328.422"/>
<polygon fill="midnightblue" stroke="midnightblue" points="388.192,-331.563 398.546,-333.809 391.853,-325.596 388.192,-331.563"/>
</g>
<!-- Node23 -->
<g id="node5" class="node"><title>Node23</title>
<g id="a_node5"><a xlink:href="../../d4/d27/a00392.html#aae366ea198c2340fef786120d5c2163b" target="_top" xlink:title="The selected belief. ">
<polygon fill="none" stroke="black" points="395.5,-284.5 395.5,-314.5 553.5,-314.5 553.5,-284.5 395.5,-284.5"/>
<text text-anchor="start" x="403.5" y="-302.5" font-family="Helvetica,sans-Serif" font-size="10.00">nars.storage.Memory.getCurrent</text>
<text text-anchor="middle" x="474.5" y="-291.5" font-family="Helvetica,sans-Serif" font-size="10.00">Belief</text>
</a>
</g>
</g>
<!-- Node21&#45;&gt;Node23 -->
<g id="edge4" class="edge"><title>Node21&#45;&gt;Node23</title>
<path fill="none" stroke="midnightblue" d="M330.646,-194.011C337.251,-196.696 343.548,-200.125 349,-204.5 376.593,-226.644 357.56,-253.166 385,-275.5 386.574,-276.781 388.211,-277.994 389.901,-279.143"/>
<polygon fill="midnightblue" stroke="midnightblue" points="388.349,-282.292 398.739,-284.366 391.91,-276.265 388.349,-282.292"/>
</g>
<!-- Node24 -->
<g id="node6" class="node"><title>Node24</title>
<g id="a_node6"><a xlink:href="../../d4/d27/a00392.html#afb74806ef37665d392a86dce2e3c6546" target="_top" xlink:title="The selected TermLink. ">
<polygon fill="none" stroke="black" points="395.5,-235.5 395.5,-265.5 553.5,-265.5 553.5,-235.5 395.5,-235.5"/>
<text text-anchor="start" x="403.5" y="-253.5" font-family="Helvetica,sans-Serif" font-size="10.00">nars.storage.Memory.getCurrent</text>
<text text-anchor="middle" x="474.5" y="-242.5" font-family="Helvetica,sans-Serif" font-size="10.00">BeliefLink</text>
</a>
</g>
</g>
<!-- Node21&#45;&gt;Node24 -->
<g id="edge5" class="edge"><title>Node21&#45;&gt;Node24</title>
<path fill="none" stroke="midnightblue" d="M317.059,-194.055C327.731,-196.885 338.913,-200.359 349,-204.5 366.136,-211.534 367.951,-218.258 385,-225.5 390.69,-227.917 396.683,-230.175 402.757,-232.266"/>
<polygon fill="midnightblue" stroke="midnightblue" points="401.745,-235.618 412.338,-235.415 403.931,-228.967 401.745,-235.618"/>
</g>
<!-- Node25 -->
<g id="node7" class="node"><title>Node25</title>
<g id="a_node7"><a xlink:href="../../d4/d27/a00392.html#a26eda4f00b333b706b4e3d069fdf1508" target="_top" xlink:title="The selected Task. ">
<polygon fill="none" stroke="black" points="385,-197 385,-216 564,-216 564,-197 385,-197"/>
<text text-anchor="middle" x="474.5" y="-204" font-family="Helvetica,sans-Serif" font-size="10.00">nars.storage.Memory.getCurrentTask</text>
</a>
</g>
</g>
<!-- Node21&#45;&gt;Node25 -->
<g id="edge6" class="edge"><title>Node21&#45;&gt;Node25</title>
<path fill="none" stroke="midnightblue" d="M343.25,-192.349C353.859,-193.502 364.932,-194.705 375.947,-195.902"/>
<polygon fill="midnightblue" stroke="midnightblue" points="375.712,-199.397 386.032,-196.997 376.468,-192.438 375.712,-199.397"/>
</g>
<!-- Node26 -->
<g id="node8" class="node"><title>Node26</title>
<g id="a_node8"><a xlink:href="../../d4/d27/a00392.html#a8c50bdf4f2750032f24965e12e9fb59c" target="_top" xlink:title="List of new tasks accumulated in one cycle, to be processed in the next cycle. ">
<polygon fill="none" stroke="black" points="401.5,-147.5 401.5,-177.5 547.5,-177.5 547.5,-147.5 401.5,-147.5"/>
<text text-anchor="start" x="409.5" y="-165.5" font-family="Helvetica,sans-Serif" font-size="10.00">nars.storage.Memory.getNew</text>
<text text-anchor="middle" x="474.5" y="-154.5" font-family="Helvetica,sans-Serif" font-size="10.00">Tasks</text>
</a>
</g>
</g>
<!-- Node21&#45;&gt;Node26 -->
<g id="edge7" class="edge"><title>Node21&#45;&gt;Node26</title>
<path fill="none" stroke="midnightblue" d="M343.25,-176.651C358.716,-174.97 375.17,-173.183 390.99,-171.464"/>
<polygon fill="midnightblue" stroke="midnightblue" points="391.715,-174.906 401.278,-170.346 390.959,-167.947 391.715,-174.906"/>
</g>
<!-- Node27 -->
<g id="node9" class="node"><title>Node27</title>
<g id="a_node9"><a xlink:href="../../d4/d27/a00392.html#aa15a4cd104018dc9b98ceaa12d54255d" target="_top" xlink:title="New tasks with novel composed terms, for delayed and selective processing. ">
<polygon fill="none" stroke="black" points="399,-98.5 399,-128.5 550,-128.5 550,-98.5 399,-98.5"/>
<text text-anchor="start" x="407" y="-116.5" font-family="Helvetica,sans-Serif" font-size="10.00">nars.storage.Memory.getNovel</text>
<text text-anchor="middle" x="474.5" y="-105.5" font-family="Helvetica,sans-Serif" font-size="10.00">Tasks</text>
</a>
</g>
</g>
<!-- Node21&#45;&gt;Node27 -->
<g id="edge8" class="edge"><title>Node21&#45;&gt;Node27</title>
<path fill="none" stroke="midnightblue" d="M292.591,-174.972C315.323,-165.134 352.285,-149.685 385,-138.5 391.959,-136.121 399.279,-133.789 406.604,-131.563"/>
<polygon fill="midnightblue" stroke="midnightblue" points="407.977,-134.807 416.564,-128.601 405.981,-128.097 407.977,-134.807"/>
</g>
<!-- Node28 -->
<g id="node10" class="node"><title>Node28</title>
<g id="a_node10"><a xlink:href="../../d4/d27/a00392.html#aeb746f97043cc67a2837ca6359b1c19e" target="_top" xlink:title="nars.storage.Memory.toString\lIfNotNull">
<polygon fill="none" stroke="black" points="401.5,-49.5 401.5,-79.5 547.5,-79.5 547.5,-49.5 401.5,-49.5"/>
<text text-anchor="start" x="409.5" y="-67.5" font-family="Helvetica,sans-Serif" font-size="10.00">nars.storage.Memory.toString</text>
<text text-anchor="middle" x="474.5" y="-56.5" font-family="Helvetica,sans-Serif" font-size="10.00">IfNotNull</text>
</a>
</g>
</g>
<!-- Node21&#45;&gt;Node28 -->
<g id="edge9" class="edge"><title>Node21&#45;&gt;Node28</title>
<path fill="none" stroke="midnightblue" d="M279.763,-174.878C297.675,-155.783 340.556,-112.922 385,-89.5 389.277,-87.2459 393.781,-85.1753 398.397,-83.2763"/>
<polygon fill="midnightblue" stroke="midnightblue" points="399.899,-86.4494 407.995,-79.6155 397.405,-79.9089 399.899,-86.4494"/>
</g>
<!-- Node29 -->
<g id="node11" class="node"><title>Node29</title>
<g id="a_node11"><a xlink:href="../../d4/d27/a00392.html#a6e4896a995e7810caf43ffac9d0ad44e" target="_top" xlink:title="nars.storage.Memory.toString\lLongIfNotNull">
<polygon fill="none" stroke="black" points="401.5,-0.5 401.5,-30.5 547.5,-30.5 547.5,-0.5 401.5,-0.5"/>
<text text-anchor="start" x="409.5" y="-18.5" font-family="Helvetica,sans-Serif" font-size="10.00">nars.storage.Memory.toString</text>
<text text-anchor="middle" x="474.5" y="-7.5" font-family="Helvetica,sans-Serif" font-size="10.00">LongIfNotNull</text>
</a>
</g>
</g>
<!-- Node21&#45;&gt;Node29 -->
<g id="edge10" class="edge"><title>Node21&#45;&gt;Node29</title>
<path fill="none" stroke="midnightblue" d="M275.896,-174.718C289.444,-148.671 330.09,-77.1251 385,-40.5 388.105,-38.4291 391.38,-36.528 394.77,-34.7829"/>
<polygon fill="midnightblue" stroke="midnightblue" points="396.368,-37.8999 403.968,-30.5184 393.424,-31.5492 396.368,-37.8999"/>
</g>
<!-- Node30 -->
<g id="node12" class="node"><title>Node30</title>
<g id="a_node12"><a xlink:href="../../d6/db8/a00376.html#adff1bdb7ded17b66dc84068e49571ba7" target="_top" xlink:title="TODO bad paste from preceding. ">
<polygon fill="none" stroke="black" points="600,-6 600,-25 749,-25 749,-6 600,-6"/>
<text text-anchor="middle" x="674.5" y="-13" font-family="Helvetica,sans-Serif" font-size="10.00">nars.storage.Bag.toStringLong</text>
</a>
</g>
</g>
<!-- Node29&#45;&gt;Node30 -->
<g id="edge11" class="edge"><title>Node29&#45;&gt;Node30</title>
<path fill="none" stroke="midnightblue" d="M547.543,-15.5C561.245,-15.5 575.693,-15.5 589.723,-15.5"/>
<polygon fill="midnightblue" stroke="midnightblue" points="589.849,-19.0001 599.849,-15.5 589.849,-12.0001 589.849,-19.0001"/>
</g>
</g>
</svg>
