<?xml version="1.0" encoding="UTF-8" standalone="no"?>
<!DOCTYPE svg PUBLIC "-//W3C//DTD SVG 1.1//EN"
 "http://www.w3.org/Graphics/SVG/1.1/DTD/svg11.dtd">
<!-- Generated by graphviz version 2.38.0 (20140413.2041)
 -->
<!-- Title: nars.entity.TermLink Pages: 1 -->
<svg width="584pt" height="219pt"
 viewBox="0.00 0.00 583.50 219.00" xmlns="http://www.w3.org/2000/svg" xmlns:xlink="http://www.w3.org/1999/xlink">
<g id="graph0" class="graph" transform="scale(1 1) rotate(0) translate(4 215)">
<title>nars.entity.TermLink</title>
<!-- Node5 -->
<g id="node1" class="node"><title>Node5</title>
<polygon fill="#bfbfbf" stroke="black" points="166,-0.5 166,-19.5 272,-19.5 272,-0.5 166,-0.5"/>
<text text-anchor="middle" x="219" y="-7.5" font-family="Helvetica,sans-Serif" font-size="10.00">nars.entity.TermLink</text>
</g>
<!-- Node6 -->
<g id="node2" class="node"><title>Node6</title>
<g id="a_node2"><a xlink:href="../../dc/d31/a00208.html" target="_top" xlink:title="An item is an object that can be put into a Bag, to participate in the resource competition of the sy...">
<polygon fill="none" stroke="black" points="41.5,-67.5 41.5,-86.5 126.5,-86.5 126.5,-67.5 41.5,-67.5"/>
<text text-anchor="middle" x="84" y="-74.5" font-family="Helvetica,sans-Serif" font-size="10.00">nars.entity.Item</text>
</a>
</g>
</g>
<!-- Node6&#45;&gt;Node5 -->
<g id="edge1" class="edge"><title>Node6&#45;&gt;Node5</title>
<path fill="none" stroke="midnightblue" d="M111.117,-62.9436C137.856,-50.0691 177.966,-30.7573 200.999,-19.6672"/>
<polygon fill="midnightblue" stroke="midnightblue" points="109.419,-59.8768 101.927,-67.3685 112.455,-66.1838 109.419,-59.8768"/>
</g>
<!-- Node7 -->
<g id="node3" class="node"><title>Node7</title>
<polygon fill="none" stroke="#bfbfbf" points="0,-134.5 0,-153.5 62,-153.5 62,-134.5 0,-134.5"/>
<text text-anchor="middle" x="31" y="-141.5" font-family="Helvetica,sans-Serif" font-size="10.00">ItemStruct</text>
</g>
<!-- Node7&#45;&gt;Node6 -->
<g id="edge2" class="edge"><title>Node7&#45;&gt;Node6</title>
<path fill="none" stroke="midnightblue" d="M44.641,-126.27C54.9746,-113.597 68.7515,-96.701 76.9654,-86.6273"/>
<polygon fill="midnightblue" stroke="midnightblue" points="41.7547,-124.272 38.1478,-134.234 47.1798,-128.695 41.7547,-124.272"/>
</g>
<!-- Node8 -->
<g id="node4" class="node"><title>Node8</title>
<g id="a_node4"><a xlink:href="../../dd/da2/a00192.html" target="_top" xlink:title="A triple of priority (current), durability (decay), and quality (long&#45;term average). ">
<polygon fill="none" stroke="black" points="79.5,-134.5 79.5,-153.5 200.5,-153.5 200.5,-134.5 79.5,-134.5"/>
<text text-anchor="middle" x="140" y="-141.5" font-family="Helvetica,sans-Serif" font-size="10.00">nars.entity.BudgetValue</text>
</a>
</g>
</g>
<!-- Node8&#45;&gt;Node6 -->
<g id="edge3" class="edge"><title>Node8&#45;&gt;Node6</title>
<path fill="none" stroke="#9a32cd" stroke-dasharray="5,2" d="M125.901,-126.635C114.949,-113.923 100.195,-96.7978 91.4328,-86.6273"/>
<polygon fill="#9a32cd" stroke="#9a32cd" points="123.269,-128.942 132.448,-134.234 128.572,-124.373 123.269,-128.942"/>
<text text-anchor="middle" x="132.5" y="-108" font-family="Helvetica,sans-Serif" font-size="10.00"> budget</text>
</g>
<!-- Node9 -->
<g id="node5" class="node"><title>Node9</title>
<polygon fill="none" stroke="#bfbfbf" points="103,-191.5 103,-210.5 177,-210.5 177,-191.5 103,-191.5"/>
<text text-anchor="middle" x="140" y="-198.5" font-family="Helvetica,sans-Serif" font-size="10.00">BudgetStruct</text>
</g>
<!-- Node9&#45;&gt;Node8 -->
<g id="edge4" class="edge"><title>Node9&#45;&gt;Node8</title>
<path fill="none" stroke="midnightblue" d="M140,-181.117C140,-171.817 140,-161.056 140,-153.715"/>
<polygon fill="midnightblue" stroke="midnightblue" points="136.5,-181.406 140,-191.406 143.5,-181.406 136.5,-181.406"/>
</g>
<!-- Node10 -->
<g id="node6" class="node"><title>Node10</title>
<polygon fill="none" stroke="#bfbfbf" points="144.5,-67.5 144.5,-86.5 227.5,-86.5 227.5,-67.5 144.5,-67.5"/>
<text text-anchor="middle" x="186" y="-74.5" font-family="Helvetica,sans-Serif" font-size="10.00">TermLinkStruct</text>
</g>
<!-- Node10&#45;&gt;Node5 -->
<g id="edge5" class="edge"><title>Node10&#45;&gt;Node5</title>
<path fill="none" stroke="midnightblue" d="M195.055,-58.1635C201.42,-45.6281 209.653,-29.4104 214.62,-19.6273"/>
<polygon fill="midnightblue" stroke="midnightblue" points="191.857,-56.7327 190.451,-67.2338 198.098,-59.9016 191.857,-56.7327"/>
</g>
<!-- Node11 -->
<g id="node7" class="node"><title>Node11</title>
<polygon fill="none" stroke="#bfbfbf" points="246,-67.5 246,-86.5 326,-86.5 326,-67.5 246,-67.5"/>
<text text-anchor="middle" x="286" y="-74.5" font-family="Helvetica,sans-Serif" font-size="10.00">List&lt; Integer &gt;</text>
</g>
<!-- Node11&#45;&gt;Node5 -->
<g id="edge6" class="edge"><title>Node11&#45;&gt;Node5</title>
<path fill="none" stroke="#9a32cd" stroke-dasharray="5,2" d="M269.504,-59.9968C256.365,-47.2496 238.476,-29.8947 227.893,-19.6273"/>
<polygon fill="#9a32cd" stroke="#9a32cd" points="267.35,-62.7827 276.964,-67.2338 272.224,-57.7586 267.35,-62.7827"/>
<text text-anchor="middle" x="270.5" y="-41" font-family="Helvetica,sans-Serif" font-size="10.00"> index</text>
</g>
<!-- Node12 -->
<g id="node8" class="node"><title>Node12</title>
<polygon fill="none" stroke="#bfbfbf" points="253,-134.5 253,-153.5 285,-153.5 285,-134.5 253,-134.5"/>
<text text-anchor="middle" x="269" y="-141.5" font-family="Helvetica,sans-Serif" font-size="10.00">List</text>
</g>
<!-- Node12&#45;&gt;Node11 -->
<g id="edge7" class="edge"><title>Node12&#45;&gt;Node11</title>
<path fill="none" stroke="orange" stroke-dasharray="5,2" d="M267.627,-124.206C267.663,-117.989 268.241,-111.104 270,-105 271.871,-98.5079 275.684,-91.9703 279.118,-86.9544"/>
<polygon fill="orange" stroke="orange" points="264.135,-124.499 268.009,-134.36 271.131,-124.236 264.135,-124.499"/>
<text text-anchor="middle" x="296" y="-108" font-family="Helvetica,sans-Serif" font-size="10.00"> &lt; Integer &gt;</text>
</g>
<!-- Node13 -->
<g id="node9" class="node"><title>Node13</title>
<g id="a_node9"><a xlink:href="../../dc/d59/a00364.html" target="_top" xlink:title="Term is the basic component of Narsese, and the object of processing in NARS. ">
<polygon fill="none" stroke="black" points="365.5,-67.5 365.5,-86.5 468.5,-86.5 468.5,-67.5 365.5,-67.5"/>
<text text-anchor="middle" x="417" y="-74.5" font-family="Helvetica,sans-Serif" font-size="10.00">nars.language.Term</text>
</a>
</g>
</g>
<!-- Node13&#45;&gt;Node5 -->
<g id="edge8" class="edge"><title>Node13&#45;&gt;Node5</title>
<path fill="none" stroke="#9a32cd" stroke-dasharray="5,2" d="M381.005,-64.1834C341.76,-51.2999 279.914,-30.9971 245.086,-19.5637"/>
<polygon fill="#9a32cd" stroke="#9a32cd" points="380.114,-67.5748 390.707,-67.3685 382.298,-60.924 380.114,-67.5748"/>
<text text-anchor="middle" x="341.5" y="-41" font-family="Helvetica,sans-Serif" font-size="10.00"> term</text>
</g>
<!-- Node14 -->
<g id="node10" class="node"><title>Node14</title>
<polygon fill="none" stroke="#bfbfbf" points="304,-134.5 304,-153.5 364,-153.5 364,-134.5 304,-134.5"/>
<text text-anchor="middle" x="334" y="-141.5" font-family="Helvetica,sans-Serif" font-size="10.00">Cloneable</text>
</g>
<!-- Node14&#45;&gt;Node13 -->
<g id="edge9" class="edge"><title>Node14&#45;&gt;Node13</title>
<path fill="none" stroke="midnightblue" d="M353.067,-128.068C369.45,-115.238 392.502,-97.1853 405.984,-86.6273"/>
<polygon fill="midnightblue" stroke="midnightblue" points="350.909,-125.313 345.194,-134.234 355.225,-130.824 350.909,-125.313"/>
</g>
<!-- Node15 -->
<g id="node11" class="node"><title>Node15</title>
<polygon fill="none" stroke="#bfbfbf" points="382,-134.5 382,-153.5 492,-153.5 492,-134.5 382,-134.5"/>
<text text-anchor="middle" x="437" y="-141.5" font-family="Helvetica,sans-Serif" font-size="10.00">Comparable&lt; Term &gt;</text>
</g>
<!-- Node15&#45;&gt;Node13 -->
<g id="edge10" class="edge"><title>Node15&#45;&gt;Node13</title>
<path fill="none" stroke="midnightblue" d="M431.281,-124.415C427.458,-111.988 422.605,-96.2166 419.655,-86.6273"/>
<polygon fill="midnightblue" stroke="midnightblue" points="428.017,-125.705 434.303,-134.234 434.707,-123.647 428.017,-125.705"/>
</g>
<!-- Node16 -->
<g id="node12" class="node"><title>Node16</title>
<polygon fill="none" stroke="#bfbfbf" points="510.5,-134.5 510.5,-153.5 575.5,-153.5 575.5,-134.5 510.5,-134.5"/>
<text text-anchor="middle" x="543" y="-141.5" font-family="Helvetica,sans-Serif" font-size="10.00">TermStruct</text>
</g>
<!-- Node16&#45;&gt;Node13 -->
<g id="edge11" class="edge"><title>Node16&#45;&gt;Node13</title>
<path fill="none" stroke="midnightblue" d="M517.362,-129.774C492.406,-116.9 455.204,-97.7086 433.801,-86.6672"/>
<polygon fill="midnightblue" stroke="midnightblue" points="515.776,-132.894 526.268,-134.369 518.986,-126.673 515.776,-132.894"/>
</g>
</g>
</svg>
