<?xml version="1.0" encoding="UTF-8" standalone="no"?>
<!DOCTYPE svg PUBLIC "-//W3C//DTD SVG 1.1//EN"
 "http://www.w3.org/Graphics/SVG/1.1/DTD/svg11.dtd">
<!-- Generated by graphviz version 2.38.0 (20140413.2041)
 -->
<!-- Title: nars.language.Property Pages: 1 -->
<svg width="425pt" height="276pt"
 viewBox="0.00 0.00 425.00 276.00" xmlns="http://www.w3.org/2000/svg" xmlns:xlink="http://www.w3.org/1999/xlink">
<g id="graph0" class="graph" transform="scale(1 1) rotate(0) translate(4 272)">
<title>nars.language.Property</title>
<!-- Node7 -->
<g id="node1" class="node"><title>Node7</title>
<polygon fill="#bfbfbf" stroke="black" points="195.5,-0.5 195.5,-19.5 312.5,-19.5 312.5,-0.5 195.5,-0.5"/>
<text text-anchor="middle" x="254" y="-7.5" font-family="Helvetica,sans-Serif" font-size="10.00">nars.language.Property</text>
</g>
<!-- Node8 -->
<g id="node2" class="node"><title>Node8</title>
<g id="a_node2"><a xlink:href="../../d0/d65/a00360.html" target="_top" xlink:title="A statement is a compound term, consisting of a subject, a predicate, and a relation symbol in betwee...">
<polygon fill="none" stroke="black" points="191.5,-57.5 191.5,-76.5 316.5,-76.5 316.5,-57.5 191.5,-57.5"/>
<text text-anchor="middle" x="254" y="-64.5" font-family="Helvetica,sans-Serif" font-size="10.00">nars.language.Statement</text>
</a>
</g>
</g>
<!-- Node8&#45;&gt;Node7 -->
<g id="edge1" class="edge"><title>Node8&#45;&gt;Node7</title>
<path fill="none" stroke="midnightblue" d="M254,-47.1166C254,-37.8173 254,-27.0557 254,-19.7149"/>
<polygon fill="midnightblue" stroke="midnightblue" points="250.5,-47.4062 254,-57.4062 257.5,-47.4063 250.5,-47.4062"/>
</g>
<!-- Node9 -->
<g id="node3" class="node"><title>Node9</title>
<g id="a_node3"><a xlink:href="../../d8/d17/a00304.html" target="_top" xlink:title="A CompoundTerm is a Term with internal (syntactic) structure. ">
<polygon fill="none" stroke="black" points="179,-114.5 179,-133.5 329,-133.5 329,-114.5 179,-114.5"/>
<text text-anchor="middle" x="254" y="-121.5" font-family="Helvetica,sans-Serif" font-size="10.00">nars.language.CompoundTerm</text>
</a>
</g>
</g>
<!-- Node9&#45;&gt;Node8 -->
<g id="edge2" class="edge"><title>Node9&#45;&gt;Node8</title>
<path fill="none" stroke="midnightblue" d="M254,-104.117C254,-94.8173 254,-84.0557 254,-76.7149"/>
<polygon fill="midnightblue" stroke="midnightblue" points="250.5,-104.406 254,-114.406 257.5,-104.406 250.5,-104.406"/>
</g>
<!-- Node10 -->
<g id="node4" class="node"><title>Node10</title>
<g id="a_node4"><a xlink:href="../../dc/d59/a00364.html" target="_top" xlink:title="Term is the basic component of Narsese, and the object of processing in NARS. ">
<polygon fill="none" stroke="black" points="98.5,-181.5 98.5,-200.5 201.5,-200.5 201.5,-181.5 98.5,-181.5"/>
<text text-anchor="middle" x="150" y="-188.5" font-family="Helvetica,sans-Serif" font-size="10.00">nars.language.Term</text>
</a>
</g>
</g>
<!-- Node10&#45;&gt;Node9 -->
<g id="edge3" class="edge"><title>Node10&#45;&gt;Node9</title>
<path fill="none" stroke="midnightblue" d="M172.77,-175.769C193.356,-162.903 222.994,-144.379 240.196,-133.627"/>
<polygon fill="midnightblue" stroke="midnightblue" points="170.651,-172.966 164.026,-181.234 174.361,-178.902 170.651,-172.966"/>
</g>
<!-- Node11 -->
<g id="node5" class="node"><title>Node11</title>
<polygon fill="none" stroke="#bfbfbf" points="0,-248.5 0,-267.5 60,-267.5 60,-248.5 0,-248.5"/>
<text text-anchor="middle" x="30" y="-255.5" font-family="Helvetica,sans-Serif" font-size="10.00">Cloneable</text>
</g>
<!-- Node11&#45;&gt;Node10 -->
<g id="edge4" class="edge"><title>Node11&#45;&gt;Node10</title>
<path fill="none" stroke="midnightblue" d="M54.9995,-243.459C78.7889,-230.573 113.866,-211.573 134.073,-200.627"/>
<polygon fill="midnightblue" stroke="midnightblue" points="53.3097,-240.393 46.1837,-248.234 56.6437,-246.548 53.3097,-240.393"/>
</g>
<!-- Node12 -->
<g id="node6" class="node"><title>Node12</title>
<polygon fill="none" stroke="#bfbfbf" points="78,-248.5 78,-267.5 188,-267.5 188,-248.5 78,-248.5"/>
<text text-anchor="middle" x="133" y="-255.5" font-family="Helvetica,sans-Serif" font-size="10.00">Comparable&lt; Term &gt;</text>
</g>
<!-- Node12&#45;&gt;Node10 -->
<g id="edge5" class="edge"><title>Node12&#45;&gt;Node10</title>
<path fill="none" stroke="midnightblue" d="M137.861,-238.415C141.111,-225.988 145.236,-210.217 147.744,-200.627"/>
<polygon fill="midnightblue" stroke="midnightblue" points="134.437,-237.674 135.293,-248.234 141.209,-239.445 134.437,-237.674"/>
</g>
<!-- Node13 -->
<g id="node7" class="node"><title>Node13</title>
<polygon fill="none" stroke="#bfbfbf" points="206.5,-248.5 206.5,-267.5 271.5,-267.5 271.5,-248.5 206.5,-248.5"/>
<text text-anchor="middle" x="239" y="-255.5" font-family="Helvetica,sans-Serif" font-size="10.00">TermStruct</text>
</g>
<!-- Node13&#45;&gt;Node10 -->
<g id="edge6" class="edge"><title>Node13&#45;&gt;Node10</title>
<path fill="none" stroke="midnightblue" d="M218.554,-242.068C200.987,-229.238 176.269,-211.185 161.813,-200.627"/>
<polygon fill="midnightblue" stroke="midnightblue" points="216.857,-245.162 226.997,-248.234 220.986,-239.509 216.857,-245.162"/>
</g>
<!-- Node14 -->
<g id="node8" class="node"><title>Node14</title>
<polygon fill="none" stroke="#bfbfbf" points="228.5,-181.5 228.5,-200.5 365.5,-200.5 365.5,-181.5 228.5,-181.5"/>
<text text-anchor="middle" x="297" y="-188.5" font-family="Helvetica,sans-Serif" font-size="10.00">List&lt; nars.language.Term &gt;</text>
</g>
<!-- Node14&#45;&gt;Node9 -->
<g id="edge7" class="edge"><title>Node14&#45;&gt;Node9</title>
<path fill="none" stroke="#9a32cd" stroke-dasharray="5,2" d="M285.446,-172.535C277.121,-159.95 266.243,-143.507 259.707,-133.627"/>
<polygon fill="#9a32cd" stroke="#9a32cd" points="282.764,-174.825 291.201,-181.234 288.603,-170.963 282.764,-174.825"/>
<text text-anchor="middle" x="307.5" y="-155" font-family="Helvetica,sans-Serif" font-size="10.00"> components</text>
</g>
<!-- Node15 -->
<g id="node9" class="node"><title>Node15</title>
<polygon fill="none" stroke="#bfbfbf" points="290,-248.5 290,-267.5 322,-267.5 322,-248.5 290,-248.5"/>
<text text-anchor="middle" x="306" y="-255.5" font-family="Helvetica,sans-Serif" font-size="10.00">List</text>
</g>
<!-- Node15&#45;&gt;Node14 -->
<g id="edge8" class="edge"><title>Node15&#45;&gt;Node14</title>
<path fill="none" stroke="orange" stroke-dasharray="5,2" d="M303.374,-238.037C301.662,-225.67 299.509,-210.12 298.195,-200.627"/>
<polygon fill="orange" stroke="orange" points="299.948,-238.808 304.786,-248.234 306.882,-237.848 299.948,-238.808"/>
<text text-anchor="middle" x="360" y="-222" font-family="Helvetica,sans-Serif" font-size="10.00"> &lt; nars::language::Term &gt;</text>
</g>
</g>
</svg>
