<?xml version="1.0" encoding="UTF-8" standalone="no"?>
<!DOCTYPE svg PUBLIC "-//W3C//DTD SVG 1.1//EN"
 "http://www.w3.org/Graphics/SVG/1.1/DTD/svg11.dtd">
<!-- Generated by graphviz version 2.38.0 (20140413.2041)
 -->
<!-- Title: nars.entity.Task.Task Pages: 1 -->
<svg width="310pt" height="78pt"
 viewBox="0.00 0.00 310.00 77.50" xmlns="http://www.w3.org/2000/svg" xmlns:xlink="http://www.w3.org/1999/xlink">
<g id="graph0" class="graph" transform="scale(1 1) rotate(0) translate(4 73.5)">
<title>nars.entity.Task.Task</title>
<!-- Node12 -->
<g id="node1" class="node"><title>Node12</title>
<polygon fill="#bfbfbf" stroke="black" points="0,-22.5 0,-41.5 112,-41.5 112,-22.5 0,-22.5"/>
<text text-anchor="middle" x="56" y="-29.5" font-family="Helvetica,sans-Serif" font-size="10.00">nars.entity.Task.Task</text>
</g>
<!-- Node13 -->
<g id="node2" class="node"><title>Node13</title>
<g id="a_node2"><a xlink:href="../../d5/ddf/a00224.html#a1db2d0e4b1130d5e74dd606fd9c2c88c" target="_top" xlink:title="nars.entity.Task.setParent\lBelief">
<polygon fill="none" stroke="black" points="159,-39 159,-69 291,-69 291,-39 159,-39"/>
<text text-anchor="start" x="167" y="-57" font-family="Helvetica,sans-Serif" font-size="10.00">nars.entity.Task.setParent</text>
<text text-anchor="middle" x="225" y="-46" font-family="Helvetica,sans-Serif" font-size="10.00">Belief</text>
</a>
</g>
</g>
<!-- Node12&#45;&gt;Node13 -->
<g id="edge1" class="edge"><title>Node12&#45;&gt;Node13</title>
<path fill="none" stroke="midnightblue" d="M112.145,-39.2646C123.798,-40.7997 136.287,-42.445 148.543,-44.0596"/>
<polygon fill="midnightblue" stroke="midnightblue" points="148.388,-47.5693 158.76,-45.4055 149.303,-40.6293 148.388,-47.5693"/>
</g>
<!-- Node14 -->
<g id="node3" class="node"><title>Node14</title>
<g id="a_node3"><a xlink:href="../../d5/ddf/a00224.html#a13d2aa5c7d3c328bf203d9fe35f47859" target="_top" xlink:title="nars.entity.Task.setParentTask">
<polygon fill="none" stroke="black" points="148,-0.5 148,-19.5 302,-19.5 302,-0.5 148,-0.5"/>
<text text-anchor="middle" x="225" y="-7.5" font-family="Helvetica,sans-Serif" font-size="10.00">nars.entity.Task.setParentTask</text>
</a>
</g>
</g>
<!-- Node12&#45;&gt;Node14 -->
<g id="edge2" class="edge"><title>Node12&#45;&gt;Node14</title>
<path fill="none" stroke="midnightblue" d="M112.145,-24.7354C121.622,-23.487 131.652,-22.1656 141.659,-20.8473"/>
<polygon fill="midnightblue" stroke="midnightblue" points="142.181,-24.3089 151.638,-19.5327 141.267,-17.3688 142.181,-24.3089"/>
</g>
</g>
</svg>
