<?xml version="1.0" encoding="UTF-8" standalone="no"?>
<!DOCTYPE svg PUBLIC "-//W3C//DTD SVG 1.1//EN"
 "http://www.w3.org/Graphics/SVG/1.1/DTD/svg11.dtd">
<!-- Generated by graphviz version 2.38.0 (20140413.2041)
 -->
<!-- Title: nars.entity.Task.getBestSolution Pages: 1 -->
<!--zoomable 137 -->
<svg id="main" version="1.1" xmlns="http://www.w3.org/2000/svg" xmlns:xlink="http://www.w3.org/1999/xlink" xml:space="preserve" onload="init(evt)">
<style type="text/css"><![CDATA[
.edge:hover path { stroke: red; }
.edge:hover polygon { stroke: red; fill: red; }
]]></style>
<script type="text/javascript"><![CDATA[
var edges = document.getElementsByTagName('g');
if (edges && edges.length) {
  for (var i=0;i<edges.length;i++) {
    if (edges[i].id.substr(0,4)=='edge') {
      edges[i].setAttribute('class','edge');
    }
  }
}
]]></script>
        <defs>
                <circle id="rim" cx="0" cy="0" r="7"/>
                <circle id="rim2" cx="0" cy="0" r="3.5"/>
                <g id="zoomPlus">
                        <use xlink:href="#rim" fill="#404040">
                                <set attributeName="fill" to="#808080" begin="zoomplus.mouseover" end="zoomplus.mouseout"/>
                        </use>
                        <path d="M-4,0h8M0,-4v8" fill="none" stroke="white" stroke-width="1.5" pointer-events="none"/>
                </g>
                <g id="zoomMin">
                        <use xlink:href="#rim" fill="#404040">
                                <set attributeName="fill" to="#808080" begin="zoomminus.mouseover" end="zoomminus.mouseout"/>
                        </use>
                        <path d="M-4,0h8" fill="none" stroke="white" stroke-width="1.5" pointer-events="none"/>
                </g>
                <g id="dirArrow">
                        <path fill="none" stroke="white" stroke-width="1.5" d="M0,-3.0v7 M-2.5,-0.5L0,-3.0L2.5,-0.5"/>
                </g>
               <g id="resetDef">
                       <use xlink:href="#rim2" fill="#404040">
                               <set attributeName="fill" to="#808080" begin="reset.mouseover" end="reset.mouseout"/>
                       </use>
               </g>
        </defs>

<script type="text/javascript">
var viewWidth = 2204;
var viewHeight = 137;
var sectionId = 'dynsection-5';
</script>
<script xlink:href="../../svgpan.js"/>
<svg id="graph" class="graph">
<g id="viewport">
<title>nars.entity.Task.getBestSolution</title>
<!-- Node20 -->
<g id="node1" class="node"><title>Node20</title>
<polygon fill="#bfbfbf" stroke="black" points="0,-66.5 0,-96.5 124,-96.5 124,-66.5 0,-66.5"/>
<text text-anchor="start" x="8" y="-84.5" font-family="Helvetica,sans-Serif" font-size="10.00">nars.entity.Task.getBest</text>
<text text-anchor="middle" x="62" y="-73.5" font-family="Helvetica,sans-Serif" font-size="10.00">Solution</text>
</g>
<!-- Node21 -->
<g id="node2" class="node"><title>Node21</title>
<g id="a_node2"><a xlink:href="../../d5/ddf/a00224.html#a73b96cd17fd93eeab0cc94bd36f25e66" target="_top" xlink:title="Get a String representation of the Task. ">
<polygon fill="none" stroke="black" points="170,-94 170,-113 294,-113 294,-94 170,-94"/>
<text text-anchor="middle" x="232" y="-101" font-family="Helvetica,sans-Serif" font-size="10.00">nars.entity.Task.toString</text>
</a>
</g>
</g>
<!-- Node20&#45;&gt;Node21 -->
<g id="edge1" class="edge"><title>Node20&#45;&gt;Node21</title>
<path fill="none" stroke="midnightblue" d="M134.044,-90.8034C145.976,-92.366 158.266,-93.9753 169.918,-95.5012"/>
<polygon fill="midnightblue" stroke="midnightblue" points="134.497,-87.3329 124.127,-89.5047 133.588,-94.2736 134.497,-87.3329"/>
</g>
<!-- Node22 -->
<g id="node3" class="node"><title>Node22</title>
<g id="a_node3"><a xlink:href="../../dd/dd7/a00248.html#a3ecf859c238ad7f0c44c45e3e5df0081" target="_top" xlink:title="Check if a Sentence provide a better answer to a Question or Goal. ">
<polygon fill="none" stroke="black" points="160,-44.5 160,-74.5 304,-74.5 304,-44.5 160,-44.5"/>
<text text-anchor="start" x="168" y="-62.5" font-family="Helvetica,sans-Serif" font-size="10.00">nars.inference.LocalRules.try</text>
<text text-anchor="middle" x="232" y="-51.5" font-family="Helvetica,sans-Serif" font-size="10.00">Solution</text>
</a>
</g>
</g>
<!-- Node20&#45;&gt;Node22 -->
<g id="edge2" class="edge"><title>Node20&#45;&gt;Node22</title>
<path fill="none" stroke="midnightblue" d="M134.071,-72.193C142.633,-71.0719 151.378,-69.9267 159.939,-68.8056"/>
<polygon fill="midnightblue" stroke="midnightblue" points="133.588,-68.7264 124.127,-73.4953 134.497,-75.6671 133.588,-68.7264"/>
</g>
<!-- Node23 -->
<g id="node4" class="node"><title>Node23</title>
<g id="a_node4"><a xlink:href="../../d7/ded/a00196.html#a40cddcc82ee28a1cf5b1f4bc14e2b078" target="_top" xlink:title="To accept a new judgment as isBelief, and check for revisions and solutions. ">
<polygon fill="none" stroke="black" points="350,-93.5 350,-123.5 490,-123.5 490,-93.5 350,-93.5"/>
<text text-anchor="start" x="358" y="-111.5" font-family="Helvetica,sans-Serif" font-size="10.00">nars.entity.Concept.process</text>
<text text-anchor="middle" x="420" y="-100.5" font-family="Helvetica,sans-Serif" font-size="10.00">Judgment</text>
</a>
</g>
</g>
<!-- Node22&#45;&gt;Node23 -->
<g id="edge3" class="edge"><title>Node22&#45;&gt;Node23</title>
<path fill="none" stroke="midnightblue" d="M299.895,-77.1229C320.244,-82.4837 342.408,-88.3225 362.038,-93.4938"/>
<polygon fill="midnightblue" stroke="midnightblue" points="300.632,-73.6977 290.07,-74.5346 298.849,-80.4667 300.632,-73.6977"/>
</g>
<!-- Node34 -->
<g id="node15" class="node"><title>Node34</title>
<g id="a_node15"><a xlink:href="../../d7/ded/a00196.html#a3900248991e7adb57e82231312337f8f" target="_top" xlink:title="To answer a question by existing beliefs. ">
<polygon fill="none" stroke="black" points="350,-44.5 350,-74.5 490,-74.5 490,-44.5 350,-44.5"/>
<text text-anchor="start" x="358" y="-62.5" font-family="Helvetica,sans-Serif" font-size="10.00">nars.entity.Concept.process</text>
<text text-anchor="middle" x="420" y="-51.5" font-family="Helvetica,sans-Serif" font-size="10.00">Question</text>
</a>
</g>
</g>
<!-- Node22&#45;&gt;Node34 -->
<g id="edge15" class="edge"><title>Node22&#45;&gt;Node34</title>
<path fill="none" stroke="midnightblue" d="M314.396,-59.5C326.191,-59.5 338.24,-59.5 349.766,-59.5"/>
<polygon fill="midnightblue" stroke="midnightblue" points="314.115,-56.0001 304.115,-59.5 314.115,-63.0001 314.115,-56.0001"/>
</g>
<!-- Node35 -->
<g id="node16" class="node"><title>Node35</title>
<g id="a_node16"><a xlink:href="../../dd/dd7/a00248.html#aac1c92950f50edd04d12229a8c992987" target="_top" xlink:title="The task and belief have the same content. ">
<polygon fill="none" stroke="black" points="340,-6 340,-25 500,-25 500,-6 340,-6"/>
<text text-anchor="middle" x="420" y="-13" font-family="Helvetica,sans-Serif" font-size="10.00">nars.inference.LocalRules.match</text>
</a>
</g>
</g>
<!-- Node22&#45;&gt;Node35 -->
<g id="edge17" class="edge"><title>Node22&#45;&gt;Node35</title>
<path fill="none" stroke="midnightblue" d="M306.539,-42.1036C331.16,-36.2794 357.685,-30.0046 378.788,-25.0124"/>
<polygon fill="midnightblue" stroke="midnightblue" points="305.416,-38.7726 296.49,-44.4808 307.028,-45.5846 305.416,-38.7726"/>
</g>
<!-- Node24 -->
<g id="node5" class="node"><title>Node24</title>
<g id="a_node5"><a xlink:href="../../d7/ded/a00196.html#a9ea7c3154932d7a736c105eb55daeb5c" target="_top" xlink:title="Directly process a new task. ">
<polygon fill="none" stroke="black" points="553,-71.5 553,-101.5 682,-101.5 682,-71.5 553,-71.5"/>
<text text-anchor="start" x="561" y="-89.5" font-family="Helvetica,sans-Serif" font-size="10.00">nars.entity.Concept.direct</text>
<text text-anchor="middle" x="617.5" y="-78.5" font-family="Helvetica,sans-Serif" font-size="10.00">Process</text>
</a>
</g>
</g>
<!-- Node23&#45;&gt;Node24 -->
<g id="edge4" class="edge"><title>Node23&#45;&gt;Node24</title>
<path fill="none" stroke="midnightblue" d="M500.386,-99.5665C517.875,-97.5985 536.177,-95.5389 552.943,-93.6522"/>
<polygon fill="midnightblue" stroke="midnightblue" points="499.747,-96.1163 490.201,-100.713 500.53,-103.072 499.747,-96.1163"/>
</g>
<!-- Node25 -->
<g id="node6" class="node"><title>Node25</title>
<g id="a_node6"><a xlink:href="../../d4/d27/a00392.html#af8d07412d21a441a5c7005a477b06468" target="_top" xlink:title="Immediate processing of a new task, in constant time Local processing, in one concept only...">
<polygon fill="none" stroke="black" points="735,-71.5 735,-101.5 892,-101.5 892,-71.5 735,-71.5"/>
<text text-anchor="start" x="743" y="-89.5" font-family="Helvetica,sans-Serif" font-size="10.00">nars.storage.Memory.immediate</text>
<text text-anchor="middle" x="813.5" y="-78.5" font-family="Helvetica,sans-Serif" font-size="10.00">Process</text>
</a>
</g>
</g>
<!-- Node24&#45;&gt;Node25 -->
<g id="edge5" class="edge"><title>Node24&#45;&gt;Node25</title>
<path fill="none" stroke="midnightblue" d="M692.088,-86.5C706.105,-86.5 720.815,-86.5 734.95,-86.5"/>
<polygon fill="midnightblue" stroke="midnightblue" points="692.023,-83.0001 682.023,-86.5 692.023,-90.0001 692.023,-83.0001"/>
</g>
<!-- Node26 -->
<g id="node7" class="node"><title>Node26</title>
<g id="a_node7"><a xlink:href="../../d4/d27/a00392.html#ae43b86074c0d8f6a324696f69faa54b3" target="_top" xlink:title="Process the newTasks accumulated in the previous workCycle, accept input ones and those that correspo...">
<polygon fill="none" stroke="black" points="928,-98.5 928,-128.5 1074,-128.5 1074,-98.5 928,-98.5"/>
<text text-anchor="start" x="936" y="-116.5" font-family="Helvetica,sans-Serif" font-size="10.00">nars.storage.Memory.process</text>
<text text-anchor="middle" x="1001" y="-105.5" font-family="Helvetica,sans-Serif" font-size="10.00">NewTask</text>
</a>
</g>
</g>
<!-- Node25&#45;&gt;Node26 -->
<g id="edge6" class="edge"><title>Node25&#45;&gt;Node26</title>
<path fill="none" stroke="midnightblue" d="M902.125,-99.254C910.707,-100.503 919.349,-101.761 927.754,-102.984"/>
<polygon fill="midnightblue" stroke="midnightblue" points="902.494,-95.7709 892.094,-97.794 901.485,-102.698 902.494,-95.7709"/>
</g>
<!-- Node33 -->
<g id="node14" class="node"><title>Node33</title>
<g id="a_node14"><a xlink:href="../../d4/d27/a00392.html#a5061708f88897cfdf4e0671c846762ca" target="_top" xlink:title="Select a novel task to process. ">
<polygon fill="none" stroke="black" points="928,-49.5 928,-79.5 1074,-79.5 1074,-49.5 928,-49.5"/>
<text text-anchor="start" x="936" y="-67.5" font-family="Helvetica,sans-Serif" font-size="10.00">nars.storage.Memory.process</text>
<text text-anchor="middle" x="1001" y="-56.5" font-family="Helvetica,sans-Serif" font-size="10.00">NovelTask</text>
</a>
</g>
</g>
<!-- Node25&#45;&gt;Node33 -->
<g id="edge13" class="edge"><title>Node25&#45;&gt;Node33</title>
<path fill="none" stroke="midnightblue" d="M902.125,-76.1079C910.707,-75.09 919.349,-74.0651 927.754,-73.0683"/>
<polygon fill="midnightblue" stroke="midnightblue" points="901.612,-72.644 892.094,-77.2975 902.437,-79.5953 901.612,-72.644"/>
</g>
<!-- Node27 -->
<g id="node8" class="node"><title>Node27</title>
<g id="a_node8"><a xlink:href="../../d4/d27/a00392.html#a59ae339d666409988d90d29be4f73a91" target="_top" xlink:title="An atomic working workCycle of the system: process new Tasks, then fireFromProcessConcept a concept...">
<polygon fill="none" stroke="black" points="1110,-49.5 1110,-79.5 1243,-79.5 1243,-49.5 1110,-49.5"/>
<text text-anchor="start" x="1118" y="-67.5" font-family="Helvetica,sans-Serif" font-size="10.00">nars.storage.Memory.work</text>
<text text-anchor="middle" x="1176.5" y="-56.5" font-family="Helvetica,sans-Serif" font-size="10.00">Cycle</text>
</a>
</g>
</g>
<!-- Node26&#45;&gt;Node27 -->
<g id="edge7" class="edge"><title>Node26&#45;&gt;Node27</title>
<path fill="none" stroke="midnightblue" d="M1065.1,-95.6788C1083.83,-90.3882 1104.16,-84.6478 1122.21,-79.5516"/>
<polygon fill="midnightblue" stroke="midnightblue" points="1064.14,-92.3123 1055.47,-98.3986 1066.05,-99.0488 1064.14,-92.3123"/>
</g>
<!-- Node28 -->
<g id="node9" class="node"><title>Node28</title>
<g id="a_node9"><a xlink:href="../../df/d15/a00416.html#a0d5c797dc17d9e8d0998852915e0f303" target="_top" xlink:title="nars.storage.ReasonerBatch.doTick">
<polygon fill="none" stroke="black" points="1279,-55 1279,-74 1452,-74 1452,-55 1279,-55"/>
<text text-anchor="middle" x="1365.5" y="-62" font-family="Helvetica,sans-Serif" font-size="10.00">nars.storage.ReasonerBatch.doTick</text>
</a>
</g>
</g>
<!-- Node27&#45;&gt;Node28 -->
<g id="edge8" class="edge"><title>Node27&#45;&gt;Node28</title>
<path fill="none" stroke="midnightblue" d="M1253.34,-64.5C1261.78,-64.5 1270.42,-64.5 1278.97,-64.5"/>
<polygon fill="midnightblue" stroke="midnightblue" points="1253.17,-61.0001 1243.17,-64.5 1253.17,-68.0001 1253.17,-61.0001"/>
</g>
<!-- Node29 -->
<g id="node10" class="node"><title>Node29</title>
<g id="a_node10"><a xlink:href="../../df/d15/a00416.html#a3468aa0f99edcd66412f27922dddb880" target="_top" xlink:title="A clock tick. ">
<polygon fill="none" stroke="black" points="1488,-55 1488,-74 1648,-74 1648,-55 1488,-55"/>
<text text-anchor="middle" x="1568" y="-62" font-family="Helvetica,sans-Serif" font-size="10.00">nars.storage.ReasonerBatch.tick</text>
</a>
</g>
</g>
<!-- Node28&#45;&gt;Node29 -->
<g id="edge9" class="edge"><title>Node28&#45;&gt;Node29</title>
<path fill="none" stroke="midnightblue" d="M1462.13,-64.5C1470.7,-64.5 1479.31,-64.5 1487.71,-64.5"/>
<polygon fill="midnightblue" stroke="midnightblue" points="1462.11,-61.0001 1452.11,-64.5 1462.11,-68.0001 1462.11,-61.0001"/>
</g>
<!-- Node30 -->
<g id="node11" class="node"><title>Node30</title>
<g id="a_node11"><a xlink:href="../../d9/da1/a00396.html#a5d9cfe517bcfbe41e5251910bcd119c1" target="_top" xlink:title="Run to completion: repeatedly execute NARS working cycle, until Inputs are Finished, or 1000 steps. ">
<polygon fill="none" stroke="black" points="1684,-55 1684,-74 1828,-74 1828,-55 1684,-55"/>
<text text-anchor="middle" x="1756" y="-62" font-family="Helvetica,sans-Serif" font-size="10.00">nars.storage.NARSBatch.run</text>
</a>
</g>
</g>
<!-- Node29&#45;&gt;Node30 -->
<g id="edge10" class="edge"><title>Node29&#45;&gt;Node30</title>
<path fill="none" stroke="midnightblue" d="M1658.22,-64.5C1666.82,-64.5 1675.47,-64.5 1683.87,-64.5"/>
<polygon fill="midnightblue" stroke="midnightblue" points="1658.15,-61.0001 1648.15,-64.5 1658.15,-68.0001 1658.15,-61.0001"/>
</g>
<!-- Node31 -->
<g id="node12" class="node"><title>Node31</title>
<g id="a_node12"><a xlink:href="../../d9/da1/a00396.html#a7c307c6b842f82664de6b0e52bdf8efc" target="_top" xlink:title="non&#45;static equivalent to main(String[]) : run to completion from an input file ">
<polygon fill="none" stroke="black" points="1864,-49.5 1864,-79.5 2008,-79.5 2008,-49.5 1864,-49.5"/>
<text text-anchor="start" x="1872" y="-67.5" font-family="Helvetica,sans-Serif" font-size="10.00">nars.storage.NARSBatch.run</text>
<text text-anchor="middle" x="1936" y="-56.5" font-family="Helvetica,sans-Serif" font-size="10.00">Inference</text>
</a>
</g>
</g>
<!-- Node30&#45;&gt;Node31 -->
<g id="edge11" class="edge"><title>Node30&#45;&gt;Node31</title>
<path fill="none" stroke="midnightblue" d="M1838.17,-64.5C1846.79,-64.5 1855.51,-64.5 1864,-64.5"/>
<polygon fill="midnightblue" stroke="midnightblue" points="1838.12,-61.0001 1828.12,-64.5 1838.12,-68.0001 1838.12,-61.0001"/>
</g>
<!-- Node32 -->
<g id="node13" class="node"><title>Node32</title>
<g id="a_node13"><a xlink:href="../../d9/da1/a00396.html#abafc597289bc2f6453b5cd0dd6634e54" target="_top" xlink:title="The entry point of the standalone application. ">
<polygon fill="none" stroke="black" points="2044,-55 2044,-74 2196,-74 2196,-55 2044,-55"/>
<text text-anchor="middle" x="2120" y="-62" font-family="Helvetica,sans-Serif" font-size="10.00">nars.storage.NARSBatch.main</text>
</a>
</g>
</g>
<!-- Node31&#45;&gt;Node32 -->
<g id="edge12" class="edge"><title>Node31&#45;&gt;Node32</title>
<path fill="none" stroke="midnightblue" d="M2018.17,-64.5C2026.76,-64.5 2035.48,-64.5 2044,-64.5"/>
<polygon fill="midnightblue" stroke="midnightblue" points="2018.15,-61.0001 2008.15,-64.5 2018.15,-68.0001 2018.15,-61.0001"/>
</g>
<!-- Node33&#45;&gt;Node27 -->
<g id="edge14" class="edge"><title>Node33&#45;&gt;Node27</title>
<path fill="none" stroke="midnightblue" d="M1084.12,-64.5C1092.72,-64.5 1101.37,-64.5 1109.76,-64.5"/>
<polygon fill="midnightblue" stroke="midnightblue" points="1084.07,-61.0001 1074.07,-64.5 1084.07,-68.0001 1084.07,-61.0001"/>
</g>
<!-- Node34&#45;&gt;Node24 -->
<g id="edge16" class="edge"><title>Node34&#45;&gt;Node24</title>
<path fill="none" stroke="midnightblue" d="M500.386,-70.4638C517.875,-72.8791 536.177,-75.4068 552.943,-77.7224"/>
<polygon fill="midnightblue" stroke="midnightblue" points="500.586,-66.9583 490.201,-69.0572 499.628,-73.8925 500.586,-66.9583"/>
</g>
<!-- Node36 -->
<g id="node17" class="node"><title>Node36</title>
<g id="a_node17"><a xlink:href="../../dc/ded/a00252.html#ac2d01dfdc40bdd47c757cb549217e6e3" target="_top" xlink:title="Entry point of the inference engine. ">
<polygon fill="none" stroke="black" points="536,-6 536,-25 699,-25 699,-6 536,-6"/>
<text text-anchor="middle" x="617.5" y="-13" font-family="Helvetica,sans-Serif" font-size="10.00">nars.inference.RuleTables.reason</text>
</a>
</g>
</g>
<!-- Node35&#45;&gt;Node36 -->
<g id="edge18" class="edge"><title>Node35&#45;&gt;Node36</title>
<path fill="none" stroke="midnightblue" d="M510.499,-15.5C518.962,-15.5 527.507,-15.5 535.88,-15.5"/>
<polygon fill="midnightblue" stroke="midnightblue" points="510.236,-12.0001 500.236,-15.5 510.235,-19.0001 510.236,-12.0001"/>
</g>
<!-- Node37 -->
<g id="node18" class="node"><title>Node37</title>
<g id="a_node18"><a xlink:href="../../d7/ded/a00196.html#ad6fb91dda799c3092ecb186ef24ca92a" target="_top" xlink:title="An atomic step in a concept, only called in Memory# processConcept. ">
<polygon fill="none" stroke="black" points="754,-0.5 754,-30.5 873,-30.5 873,-0.5 754,-0.5"/>
<text text-anchor="start" x="762" y="-18.5" font-family="Helvetica,sans-Serif" font-size="10.00">nars.entity.Concept.fire</text>
<text text-anchor="middle" x="813.5" y="-7.5" font-family="Helvetica,sans-Serif" font-size="10.00">FromProcessConcept</text>
</a>
</g>
</g>
<!-- Node36&#45;&gt;Node37 -->
<g id="edge19" class="edge"><title>Node36&#45;&gt;Node37</title>
<path fill="none" stroke="midnightblue" d="M709.461,-15.5C724.516,-15.5 739.765,-15.5 753.751,-15.5"/>
<polygon fill="midnightblue" stroke="midnightblue" points="709.088,-12.0001 699.088,-15.5 709.088,-19.0001 709.088,-12.0001"/>
</g>
<!-- Node38 -->
<g id="node19" class="node"><title>Node38</title>
<g id="a_node19"><a xlink:href="../../d4/d27/a00392.html#a0acc4adbf6a2462245da46bcb529746c" target="_top" xlink:title="Select a concept to fireFromProcessConcept. ">
<polygon fill="none" stroke="black" points="928,-0.5 928,-30.5 1074,-30.5 1074,-0.5 928,-0.5"/>
<text text-anchor="start" x="936" y="-18.5" font-family="Helvetica,sans-Serif" font-size="10.00">nars.storage.Memory.process</text>
<text text-anchor="middle" x="1001" y="-7.5" font-family="Helvetica,sans-Serif" font-size="10.00">Concept</text>
</a>
</g>
</g>
<!-- Node37&#45;&gt;Node38 -->
<g id="edge20" class="edge"><title>Node37&#45;&gt;Node38</title>
<path fill="none" stroke="midnightblue" d="M883.519,-15.5C897.929,-15.5 913.158,-15.5 927.683,-15.5"/>
<polygon fill="midnightblue" stroke="midnightblue" points="883.193,-12.0001 873.193,-15.5 883.193,-19.0001 883.193,-12.0001"/>
</g>
<!-- Node38&#45;&gt;Node27 -->
<g id="edge21" class="edge"><title>Node38&#45;&gt;Node27</title>
<path fill="none" stroke="midnightblue" d="M1065.1,-33.3212C1083.83,-38.6118 1104.16,-44.3522 1122.21,-49.4484"/>
<polygon fill="midnightblue" stroke="midnightblue" points="1066.05,-29.9512 1055.47,-30.6014 1064.14,-36.6877 1066.05,-29.9512"/>
</g>
</g>
</svg>
        <g id="navigator" transform="translate(0 0)" fill="#404254">
                <rect fill="#f2f5e9" fill-opacity="0.5" stroke="#606060" stroke-width=".5" x="0" y="0" width="60" height="60"/>
                <use id="zoomplus" xlink:href="#zoomPlus" x="17" y="9" onmousedown="handleZoom(evt,'in')"/>
                <use id="zoomminus" xlink:href="#zoomMin" x="42" y="9" onmousedown="handleZoom(evt,'out')"/>
                <use id="reset" xlink:href="#resetDef" x="30" y="36" onmousedown="handleReset()"/>
                <g id="arrowUp" xlink:href="#dirArrow" transform="translate(30 24)" onmousedown="handlePan(0,-1)">
                  <use xlink:href="#rim" fill="#404040">
                        <set attributeName="fill" to="#808080" begin="arrowUp.mouseover" end="arrowUp.mouseout"/>
                  </use>
                  <path fill="none" stroke="white" stroke-width="1.5" d="M0,-3.0v7 M-2.5,-0.5L0,-3.0L2.5,-0.5"/>
                </g>
                <g id="arrowRight" xlink:href="#dirArrow" transform="rotate(90) translate(36 -43)" onmousedown="handlePan(1,0)">
                  <use xlink:href="#rim" fill="#404040">
                        <set attributeName="fill" to="#808080" begin="arrowRight.mouseover" end="arrowRight.mouseout"/>
                  </use>
                  <path fill="none" stroke="white" stroke-width="1.5" d="M0,-3.0v7 M-2.5,-0.5L0,-3.0L2.5,-0.5"/>
                </g>
                <g id="arrowDown" xlink:href="#dirArrow" transform="rotate(180) translate(-30 -48)" onmousedown="handlePan(0,1)">
                  <use xlink:href="#rim" fill="#404040">
                        <set attributeName="fill" to="#808080" begin="arrowDown.mouseover" end="arrowDown.mouseout"/>
                  </use>
                  <path fill="none" stroke="white" stroke-width="1.5" d="M0,-3.0v7 M-2.5,-0.5L0,-3.0L2.5,-0.5"/>
                </g>
                <g id="arrowLeft" xlink:href="#dirArrow" transform="rotate(270) translate(-36 17)" onmousedown="handlePan(-1,0)">
                  <use xlink:href="#rim" fill="#404040">
                        <set attributeName="fill" to="#808080" begin="arrowLeft.mouseover" end="arrowLeft.mouseout"/>
                  </use>
                  <path fill="none" stroke="white" stroke-width="1.5" d="M0,-3.0v7 M-2.5,-0.5L0,-3.0L2.5,-0.5"/>
                </g>
        </g>
        <svg viewBox="0 0 15 15" width="100%" height="30px" preserveAspectRatio="xMaxYMin meet">
         <g id="arrow_out" transform="scale(0.3 0.3)">
          <a xlink:href="a00224_a63d100ab04dafaea220b3c1125b782e6_icgraph_org.svg" target="_base">
           <rect id="button" ry="5" rx="5" y="6" x="6" height="38" width="38"
                fill="#f2f5e9" fill-opacity="0.5" stroke="#606060" stroke-width="1.0"/>
           <path id="arrow"
             d="M 11.500037,31.436501 C 11.940474,20.09759 22.043105,11.32322 32.158766,21.979434 L 37.068811,17.246167 C 37.068811,17.246167 37.088388,32 37.088388,32 L 22.160133,31.978069 C 22.160133,31.978069 26.997745,27.140456 26.997745,27.140456 C 18.528582,18.264221 13.291696,25.230495 11.500037,31.436501 z"
             style="fill:#404040;"/>
          </a>
         </g>
        </svg>
</svg>
