<?xml version="1.0" encoding="UTF-8" standalone="no"?>
<!DOCTYPE svg PUBLIC "-//W3C//DTD SVG 1.1//EN"
 "http://www.w3.org/Graphics/SVG/1.1/DTD/svg11.dtd">
<!-- Generated by graphviz version 2.38.0 (20140413.2041)
 -->
<!-- Title: nars.entity.Task.isStructural Pages: 1 -->
<svg width="338pt" height="78pt"
 viewBox="0.00 0.00 338.00 77.50" xmlns="http://www.w3.org/2000/svg" xmlns:xlink="http://www.w3.org/1999/xlink">
<g id="graph0" class="graph" transform="scale(1 1) rotate(0) translate(4 73.5)">
<title>nars.entity.Task.isStructural</title>
<!-- Node237 -->
<g id="node1" class="node"><title>Node237</title>
<polygon fill="#bfbfbf" stroke="black" points="0,-22.5 0,-41.5 140,-41.5 140,-22.5 0,-22.5"/>
<text text-anchor="middle" x="70" y="-29.5" font-family="Helvetica,sans-Serif" font-size="10.00">nars.entity.Task.isStructural</text>
</g>
<!-- Node238 -->
<g id="node2" class="node"><title>Node238</title>
<g id="a_node2"><a xlink:href="../../d5/ddf/a00224.html#ae0fc96866e544c3dda5a87ea5c806fc3" target="_top" xlink:title="Belief from which the Task is derived, or null if derived from a theorem. ">
<polygon fill="none" stroke="black" points="187,-39 187,-69 319,-69 319,-39 187,-39"/>
<text text-anchor="start" x="195" y="-57" font-family="Helvetica,sans-Serif" font-size="10.00">nars.entity.Task.getParent</text>
<text text-anchor="middle" x="253" y="-46" font-family="Helvetica,sans-Serif" font-size="10.00">Belief</text>
</a>
</g>
</g>
<!-- Node237&#45;&gt;Node238 -->
<g id="edge1" class="edge"><title>Node237&#45;&gt;Node238</title>
<path fill="none" stroke="midnightblue" d="M140.203,-40.4114C152.132,-41.8614 164.585,-43.3749 176.666,-44.8434"/>
<polygon fill="midnightblue" stroke="midnightblue" points="176.358,-48.3316 186.707,-46.0639 177.203,-41.3828 176.358,-48.3316"/>
</g>
<!-- Node239 -->
<g id="node3" class="node"><title>Node239</title>
<g id="a_node3"><a xlink:href="../../d5/ddf/a00224.html#a1d9cd3ae889c6822469217154e4dcf4f" target="_top" xlink:title="Task from which the Task is derived, or null if input. ">
<polygon fill="none" stroke="black" points="176,-0.5 176,-19.5 330,-19.5 330,-0.5 176,-0.5"/>
<text text-anchor="middle" x="253" y="-7.5" font-family="Helvetica,sans-Serif" font-size="10.00">nars.entity.Task.getParentTask</text>
</a>
</g>
</g>
<!-- Node237&#45;&gt;Node239 -->
<g id="edge2" class="edge"><title>Node237&#45;&gt;Node239</title>
<path fill="none" stroke="midnightblue" d="M140.203,-23.5886C148.596,-22.5685 157.247,-21.5169 165.846,-20.4717"/>
<polygon fill="midnightblue" stroke="midnightblue" points="166.393,-23.9311 175.898,-19.25 165.549,-16.9822 166.393,-23.9311"/>
</g>
</g>
</svg>
