<?xml version="1.0" encoding="UTF-8" standalone="no"?>
<!DOCTYPE svg PUBLIC "-//W3C//DTD SVG 1.1//EN"
 "http://www.w3.org/Graphics/SVG/1.1/DTD/svg11.dtd">
<!-- Generated by graphviz version 2.38.0 (20140413.2041)
 -->
<!-- Title: nars.entity.Task.Task Pages: 1 -->
<svg width="626pt" height="245pt"
 viewBox="0.00 0.00 626.00 244.50" xmlns="http://www.w3.org/2000/svg" xmlns:xlink="http://www.w3.org/1999/xlink">
<g id="graph0" class="graph" transform="scale(1 1) rotate(0) translate(4 240.5)">
<title>nars.entity.Task.Task</title>
<!-- Node0 -->
<g id="node1" class="node"><title>Node0</title>
<polygon fill="#bfbfbf" stroke="black" points="0,-160 0,-179 112,-179 112,-160 0,-160"/>
<text text-anchor="middle" x="56" y="-167" font-family="Helvetica,sans-Serif" font-size="10.00">nars.entity.Task.Task</text>
</g>
<!-- Node1 -->
<g id="node2" class="node"><title>Node1</title>
<g id="a_node2"><a xlink:href="../../d5/ddf/a00224.html#ab140cb553a6cf40b07093d1df283567f" target="_top" xlink:title="The sentence of the Task. ">
<polygon fill="none" stroke="black" points="148,-217 148,-236 293,-236 293,-217 148,-217"/>
<text text-anchor="middle" x="220.5" y="-224" font-family="Helvetica,sans-Serif" font-size="10.00">nars.entity.Task.getSentence</text>
</a>
</g>
</g>
<!-- Node0&#45;&gt;Node1 -->
<g id="edge1" class="edge"><title>Node0&#45;&gt;Node1</title>
<path fill="none" stroke="midnightblue" d="M77.6539,-179.072C95.8997,-187.299 123.361,-199.125 148,-207.5 155.103,-209.914 162.686,-212.216 170.161,-214.33"/>
<polygon fill="midnightblue" stroke="midnightblue" points="169.306,-217.725 179.876,-216.997 171.159,-210.975 169.306,-217.725"/>
</g>
<!-- Node2 -->
<g id="node3" class="node"><title>Node2</title>
<g id="a_node3"><a xlink:href="../../dc/d31/a00208.html#a6a858abef99551c6b8fab17125e012e7" target="_top" xlink:title="nars.entity.Item.setKey">
<polygon fill="none" stroke="black" points="161,-179 161,-198 280,-198 280,-179 161,-179"/>
<text text-anchor="middle" x="220.5" y="-186" font-family="Helvetica,sans-Serif" font-size="10.00">nars.entity.Item.setKey</text>
</a>
</g>
</g>
<!-- Node0&#45;&gt;Node2 -->
<g id="edge2" class="edge"><title>Node0&#45;&gt;Node2</title>
<path fill="none" stroke="midnightblue" d="M112.015,-175.933C124.439,-177.385 137.779,-178.945 150.69,-180.455"/>
<polygon fill="midnightblue" stroke="midnightblue" points="150.588,-183.966 160.927,-181.651 151.401,-177.014 150.588,-183.966"/>
</g>
<!-- Node3 -->
<g id="node4" class="node"><title>Node3</title>
<g id="a_node4"><a xlink:href="../../d5/ddf/a00224.html#a76f4a7ebe8e2456a2f01d3a25e409ddb" target="_top" xlink:title="nars.entity.Task.setSentence">
<polygon fill="none" stroke="black" points="148,-141 148,-160 293,-160 293,-141 148,-141"/>
<text text-anchor="middle" x="220.5" y="-148" font-family="Helvetica,sans-Serif" font-size="10.00">nars.entity.Task.setSentence</text>
</a>
</g>
</g>
<!-- Node0&#45;&gt;Node3 -->
<g id="edge3" class="edge"><title>Node0&#45;&gt;Node3</title>
<path fill="none" stroke="midnightblue" d="M112.015,-163.067C120.287,-162.1 128.966,-161.085 137.654,-160.07"/>
<polygon fill="midnightblue" stroke="midnightblue" points="138.308,-163.517 147.833,-158.879 137.495,-156.565 138.308,-163.517"/>
</g>
<!-- Node4 -->
<g id="node5" class="node"><title>Node4</title>
<g id="a_node5"><a xlink:href="../../dd/dc1/a00212.html#a8b6d9355c0211d37f881ec6717a6b636" target="_top" xlink:title="Get a String representation of the sentence for key of Task and TaskLink. ">
<polygon fill="none" stroke="black" points="153,-103 153,-122 288,-122 288,-103 153,-103"/>
<text text-anchor="middle" x="220.5" y="-110" font-family="Helvetica,sans-Serif" font-size="10.00">nars.entity.Sentence.toKey</text>
</a>
</g>
</g>
<!-- Node0&#45;&gt;Node4 -->
<g id="edge4" class="edge"><title>Node0&#45;&gt;Node4</title>
<path fill="none" stroke="midnightblue" d="M77.6539,-159.928C95.8997,-151.701 123.361,-139.875 148,-131.5 155.103,-129.086 162.686,-126.784 170.161,-124.67"/>
<polygon fill="midnightblue" stroke="midnightblue" points="171.159,-128.025 179.876,-122.003 169.306,-121.275 171.159,-128.025"/>
</g>
<!-- Node5 -->
<g id="node6" class="node"><title>Node5</title>
<g id="a_node6"><a xlink:href="../../dd/dc1/a00212.html#ad1ded9a02cae3557948d05530cd4d37e" target="_top" xlink:title="The content of a Sentence is a Term. ">
<polygon fill="none" stroke="black" points="329.5,-171.5 329.5,-201.5 452.5,-201.5 452.5,-171.5 329.5,-171.5"/>
<text text-anchor="start" x="337.5" y="-189.5" font-family="Helvetica,sans-Serif" font-size="10.00">nars.entity.Sentence.get</text>
<text text-anchor="middle" x="391" y="-178.5" font-family="Helvetica,sans-Serif" font-size="10.00">Content</text>
</a>
</g>
</g>
<!-- Node4&#45;&gt;Node5 -->
<g id="edge5" class="edge"><title>Node4&#45;&gt;Node5</title>
<path fill="none" stroke="midnightblue" d="M269.558,-122.06C277.625,-124.561 285.729,-127.665 293,-131.5 311.676,-141.35 310.921,-151.592 329,-162.5 331.643,-164.095 334.411,-165.621 337.247,-167.075"/>
<polygon fill="midnightblue" stroke="midnightblue" points="335.938,-170.329 346.471,-171.471 338.95,-164.009 335.938,-170.329"/>
</g>
<!-- Node6 -->
<g id="node7" class="node"><title>Node6</title>
<g id="a_node7"><a xlink:href="../../dd/dc1/a00212.html#a68b153a51a5db6a4127b66158227697f" target="_top" xlink:title="The punctuation also indicates the type of the Sentence: Judgment, Question, or Goal. ">
<polygon fill="none" stroke="black" points="329.5,-122.5 329.5,-152.5 452.5,-152.5 452.5,-122.5 329.5,-122.5"/>
<text text-anchor="start" x="337.5" y="-140.5" font-family="Helvetica,sans-Serif" font-size="10.00">nars.entity.Sentence.get</text>
<text text-anchor="middle" x="391" y="-129.5" font-family="Helvetica,sans-Serif" font-size="10.00">Punctuation</text>
</a>
</g>
</g>
<!-- Node4&#45;&gt;Node6 -->
<g id="edge6" class="edge"><title>Node4&#45;&gt;Node6</title>
<path fill="none" stroke="midnightblue" d="M285.683,-122.023C296.649,-123.65 308.096,-125.348 319.222,-126.999"/>
<polygon fill="midnightblue" stroke="midnightblue" points="318.92,-130.492 329.326,-128.498 319.948,-123.568 318.92,-130.492"/>
</g>
<!-- Node7 -->
<g id="node8" class="node"><title>Node7</title>
<g id="a_node8"><a xlink:href="../../dd/dc1/a00212.html#a9f69b4fef64c81abad21404946cd41f9" target="_top" xlink:title="The truth value of Judgment. ">
<polygon fill="none" stroke="black" points="329.5,-73.5 329.5,-103.5 452.5,-103.5 452.5,-73.5 329.5,-73.5"/>
<text text-anchor="start" x="337.5" y="-91.5" font-family="Helvetica,sans-Serif" font-size="10.00">nars.entity.Sentence.get</text>
<text text-anchor="middle" x="391" y="-80.5" font-family="Helvetica,sans-Serif" font-size="10.00">Truth</text>
</a>
</g>
</g>
<!-- Node4&#45;&gt;Node7 -->
<g id="edge7" class="edge"><title>Node4&#45;&gt;Node7</title>
<path fill="none" stroke="midnightblue" d="M288.096,-103.015C298.307,-101.56 308.88,-100.054 319.178,-98.5874"/>
<polygon fill="midnightblue" stroke="midnightblue" points="319.955,-102.012 329.361,-97.137 318.967,-95.0822 319.955,-102.012"/>
</g>
<!-- Node8 -->
<g id="node9" class="node"><title>Node8</title>
<g id="a_node9"><a xlink:href="../../d7/d40/a00236.html#a5af8b2fe37987ba1e8396ec1aad38e90" target="_top" xlink:title="A simplified String representation of a TruthValue, where each factor is accruate to 1%...">
<polygon fill="none" stroke="black" points="329,-24.5 329,-54.5 453,-54.5 453,-24.5 329,-24.5"/>
<text text-anchor="start" x="337" y="-42.5" font-family="Helvetica,sans-Serif" font-size="10.00">nars.entity.TruthValue.to</text>
<text text-anchor="middle" x="391" y="-31.5" font-family="Helvetica,sans-Serif" font-size="10.00">StringBrief</text>
</a>
</g>
</g>
<!-- Node4&#45;&gt;Node8 -->
<g id="edge8" class="edge"><title>Node4&#45;&gt;Node8</title>
<path fill="none" stroke="midnightblue" d="M242.426,-102.925C264.029,-93.096 298.748,-77.4494 329,-64.5 333.681,-62.4965 338.576,-60.4344 343.471,-58.3946"/>
<polygon fill="midnightblue" stroke="midnightblue" points="344.926,-61.5803 352.826,-54.5206 342.248,-55.1128 344.926,-61.5803"/>
</g>
<!-- Node9 -->
<g id="node10" class="node"><title>Node9</title>
<g id="a_node10"><a xlink:href="../../d7/d40/a00236.html#a9eac33f2495441c77911a8581a5bbe61" target="_top" xlink:title="Get the frequency value. ">
<polygon fill="none" stroke="black" points="489,-49.5 489,-79.5 618,-79.5 618,-49.5 489,-49.5"/>
<text text-anchor="start" x="497" y="-67.5" font-family="Helvetica,sans-Serif" font-size="10.00">nars.entity.TruthValue.get</text>
<text text-anchor="middle" x="553.5" y="-56.5" font-family="Helvetica,sans-Serif" font-size="10.00">Frequency</text>
</a>
</g>
</g>
<!-- Node8&#45;&gt;Node9 -->
<g id="edge9" class="edge"><title>Node8&#45;&gt;Node9</title>
<path fill="none" stroke="midnightblue" d="M453.136,-49.0227C461.541,-50.3319 470.243,-51.6873 478.843,-53.0269"/>
<polygon fill="midnightblue" stroke="midnightblue" points="478.448,-56.5076 488.868,-54.5885 479.526,-49.591 478.448,-56.5076"/>
</g>
<!-- Node10 -->
<g id="node11" class="node"><title>Node10</title>
<g id="a_node11"><a xlink:href="../../d7/d40/a00236.html#a68ca7d92e9ea20d2a9a9f578ad7b681c" target="_top" xlink:title="The confidence factor of the truth value. ">
<polygon fill="none" stroke="black" points="489,-0.5 489,-30.5 618,-30.5 618,-0.5 489,-0.5"/>
<text text-anchor="start" x="497" y="-18.5" font-family="Helvetica,sans-Serif" font-size="10.00">nars.entity.TruthValue.get</text>
<text text-anchor="middle" x="553.5" y="-7.5" font-family="Helvetica,sans-Serif" font-size="10.00">Confidence</text>
</a>
</g>
</g>
<!-- Node8&#45;&gt;Node10 -->
<g id="edge10" class="edge"><title>Node8&#45;&gt;Node10</title>
<path fill="none" stroke="midnightblue" d="M453.136,-30.3582C461.541,-29.1014 470.243,-27.8002 478.843,-26.5142"/>
<polygon fill="midnightblue" stroke="midnightblue" points="479.496,-29.9555 488.868,-25.0151 478.46,-23.0325 479.496,-29.9555"/>
</g>
</g>
</svg>
