<?xml version="1.0" encoding="UTF-8" standalone="no"?>
<!DOCTYPE svg PUBLIC "-//W3C//DTD SVG 1.1//EN"
 "http://www.w3.org/Graphics/SVG/1.1/DTD/svg11.dtd">
<!-- Generated by graphviz version 2.38.0 (20140413.2041)
 -->
<!-- Title: nars.language.Inheritance.clone Pages: 1 -->
<svg width="603pt" height="225pt"
 viewBox="0.00 0.00 603.00 224.50" xmlns="http://www.w3.org/2000/svg" xmlns:xlink="http://www.w3.org/1999/xlink">
<g id="graph0" class="graph" transform="scale(1 1) rotate(0) translate(4 220.5)">
<title>nars.language.Inheritance.clone</title>
<!-- Node62 -->
<g id="node1" class="node"><title>Node62</title>
<polygon fill="#bfbfbf" stroke="black" points="0,-104 0,-123 155,-123 155,-104 0,-104"/>
<text text-anchor="middle" x="77.5" y="-111" font-family="Helvetica,sans-Serif" font-size="10.00">nars.language.Inheritance.clone</text>
</g>
<!-- Node63 -->
<g id="node2" class="node"><title>Node63</title>
<g id="a_node2"><a xlink:href="../../d8/d17/a00304.html#a9cb7736a3f6b220d75366ab146488773" target="_top" xlink:title="Deep clone an array list of terms. ">
<polygon fill="none" stroke="black" points="191,-197 191,-216 383,-216 383,-197 191,-197"/>
<text text-anchor="middle" x="287" y="-204" font-family="Helvetica,sans-Serif" font-size="10.00">nars.language.CompoundTerm.cloneList</text>
</a>
</g>
</g>
<!-- Node62&#45;&gt;Node63 -->
<g id="edge1" class="edge"><title>Node62&#45;&gt;Node63</title>
<path fill="none" stroke="midnightblue" d="M89.7991,-123.111C109.172,-139.064 150.56,-170.895 191,-187.5 197.325,-190.097 204.036,-192.348 210.851,-194.298"/>
<polygon fill="midnightblue" stroke="midnightblue" points="210.317,-197.777 220.879,-196.944 212.103,-191.008 210.317,-197.777"/>
</g>
<!-- Node65 -->
<g id="node4" class="node"><title>Node65</title>
<g id="a_node4"><a xlink:href="../../d8/d17/a00304.html#a4f04fa1bc71ade41d35e664ff4df5475" target="_top" xlink:title="syntactic complexity of the compound, the sum of those of its components plus 1 ">
<polygon fill="none" stroke="black" points="203.5,-147.5 203.5,-177.5 370.5,-177.5 370.5,-147.5 203.5,-147.5"/>
<text text-anchor="start" x="211.5" y="-165.5" font-family="Helvetica,sans-Serif" font-size="10.00">nars.language.CompoundTerm.get</text>
<text text-anchor="middle" x="287" y="-154.5" font-family="Helvetica,sans-Serif" font-size="10.00">Complexity</text>
</a>
</g>
</g>
<!-- Node62&#45;&gt;Node65 -->
<g id="edge3" class="edge"><title>Node62&#45;&gt;Node65</title>
<path fill="none" stroke="midnightblue" d="M119.001,-123.064C145.5,-129.322 180.902,-137.682 212.29,-145.094"/>
<polygon fill="midnightblue" stroke="midnightblue" points="211.786,-148.571 222.323,-147.463 213.395,-141.758 211.786,-148.571"/>
</g>
<!-- Node66 -->
<g id="node5" class="node"><title>Node66</title>
<g id="a_node5"><a xlink:href="../../d8/d17/a00304.html#a9778c35f9b602bee6ccac6a06809e546" target="_top" xlink:title="list of (direct) components ">
<polygon fill="none" stroke="black" points="203.5,-98.5 203.5,-128.5 370.5,-128.5 370.5,-98.5 203.5,-98.5"/>
<text text-anchor="start" x="211.5" y="-116.5" font-family="Helvetica,sans-Serif" font-size="10.00">nars.language.CompoundTerm.get</text>
<text text-anchor="middle" x="287" y="-105.5" font-family="Helvetica,sans-Serif" font-size="10.00">Components</text>
</a>
</g>
</g>
<!-- Node62&#45;&gt;Node66 -->
<g id="edge4" class="edge"><title>Node62&#45;&gt;Node66</title>
<path fill="none" stroke="midnightblue" d="M155.176,-113.5C167.565,-113.5 180.507,-113.5 193.228,-113.5"/>
<polygon fill="midnightblue" stroke="midnightblue" points="193.366,-117 203.366,-113.5 193.366,-110 193.366,-117"/>
</g>
<!-- Node67 -->
<g id="node6" class="node"><title>Node67</title>
<g id="a_node6"><a xlink:href="../../d3/db8/a00316.html#a20635d9d55f73d39b29a07653cde6bc6" target="_top" xlink:title="Constructor with partial values, called by make. ">
<polygon fill="none" stroke="black" points="221.5,-49.5 221.5,-79.5 352.5,-79.5 352.5,-49.5 221.5,-49.5"/>
<text text-anchor="start" x="229.5" y="-67.5" font-family="Helvetica,sans-Serif" font-size="10.00">nars.language.Inheritance.</text>
<text text-anchor="middle" x="287" y="-56.5" font-family="Helvetica,sans-Serif" font-size="10.00">Inheritance</text>
</a>
</g>
</g>
<!-- Node62&#45;&gt;Node67 -->
<g id="edge5" class="edge"><title>Node62&#45;&gt;Node67</title>
<path fill="none" stroke="midnightblue" d="M119.001,-103.936C145.5,-97.6782 180.902,-89.3183 212.29,-81.9063"/>
<polygon fill="midnightblue" stroke="midnightblue" points="213.395,-85.2416 222.323,-79.537 211.786,-78.429 213.395,-85.2416"/>
</g>
<!-- Node68 -->
<g id="node7" class="node"><title>Node68</title>
<g id="a_node7"><a xlink:href="../../d8/d17/a00304.html#aee0ef6fd533b58caf22bee2a98eef67d" target="_top" xlink:title="Whether the term names a concept. ">
<polygon fill="none" stroke="black" points="206.5,-0.5 206.5,-30.5 367.5,-30.5 367.5,-0.5 206.5,-0.5"/>
<text text-anchor="start" x="214.5" y="-18.5" font-family="Helvetica,sans-Serif" font-size="10.00">nars.language.CompoundTerm.is</text>
<text text-anchor="middle" x="287" y="-7.5" font-family="Helvetica,sans-Serif" font-size="10.00">Constant</text>
</a>
</g>
</g>
<!-- Node62&#45;&gt;Node68 -->
<g id="edge6" class="edge"><title>Node62&#45;&gt;Node68</title>
<path fill="none" stroke="midnightblue" d="M90.5704,-103.79C110.399,-88.2879 151.608,-57.9242 191,-40.5 196.629,-38.0099 202.56,-35.725 208.595,-33.6369"/>
<polygon fill="midnightblue" stroke="midnightblue" points="209.719,-36.9518 218.136,-30.5165 207.543,-30.2986 209.719,-36.9518"/>
</g>
<!-- Node64 -->
<g id="node3" class="node"><title>Node64</title>
<g id="a_node3"><a xlink:href="../../d8/d17/a00304.html#a963e8aef1163f4ed8c364b5e448deaff" target="_top" xlink:title="Abstract clone method. ">
<polygon fill="none" stroke="black" points="419,-197 419,-216 595,-216 595,-197 419,-197"/>
<text text-anchor="middle" x="507" y="-204" font-family="Helvetica,sans-Serif" font-size="10.00">nars.language.CompoundTerm.clone</text>
</a>
</g>
</g>
<!-- Node63&#45;&gt;Node64 -->
<g id="edge2" class="edge"><title>Node63&#45;&gt;Node64</title>
<path fill="none" stroke="midnightblue" d="M383.301,-206.5C391.69,-206.5 400.19,-206.5 408.597,-206.5"/>
<polygon fill="midnightblue" stroke="midnightblue" points="408.791,-210 418.791,-206.5 408.791,-203 408.791,-210"/>
</g>
</g>
</svg>
