<?xml version="1.0" encoding="UTF-8" standalone="no"?>
<!DOCTYPE svg PUBLIC "-//W3C//DTD SVG 1.1//EN"
 "http://www.w3.org/Graphics/SVG/1.1/DTD/svg11.dtd">
<!-- Generated by graphviz version 2.38.0 (20140413.2041)
 -->
<!-- Title: nars.language.ImageInt.makeName Pages: 1 -->
<svg width="393pt" height="88pt"
 viewBox="0.00 0.00 393.00 88.00" xmlns="http://www.w3.org/2000/svg" xmlns:xlink="http://www.w3.org/1999/xlink">
<g id="graph0" class="graph" transform="scale(1 1) rotate(0) translate(4 84)">
<title>nars.language.ImageInt.makeName</title>
<!-- Node126 -->
<g id="node1" class="node"><title>Node126</title>
<polygon fill="#bfbfbf" stroke="black" points="0,-30 0,-49 172,-49 172,-30 0,-30"/>
<text text-anchor="middle" x="86" y="-37" font-family="Helvetica,sans-Serif" font-size="10.00">nars.language.ImageInt.makeName</text>
</g>
<!-- Node127 -->
<g id="node2" class="node"><title>Node127</title>
<g id="a_node2"><a xlink:href="../../d8/d17/a00304.html#a9778c35f9b602bee6ccac6a06809e546" target="_top" xlink:title="list of (direct) components ">
<polygon fill="none" stroke="black" points="213,-49.5 213,-79.5 380,-79.5 380,-49.5 213,-49.5"/>
<text text-anchor="start" x="221" y="-67.5" font-family="Helvetica,sans-Serif" font-size="10.00">nars.language.CompoundTerm.get</text>
<text text-anchor="middle" x="296.5" y="-56.5" font-family="Helvetica,sans-Serif" font-size="10.00">Components</text>
</a>
</g>
</g>
<!-- Node126&#45;&gt;Node127 -->
<g id="edge1" class="edge"><title>Node126&#45;&gt;Node127</title>
<path fill="none" stroke="midnightblue" d="M166.42,-49.0227C178.288,-50.4457 190.611,-51.9234 202.726,-53.376"/>
<polygon fill="midnightblue" stroke="midnightblue" points="202.492,-56.873 212.838,-54.5885 203.326,-49.9228 202.492,-56.873"/>
</g>
<!-- Node128 -->
<g id="node3" class="node"><title>Node128</title>
<g id="a_node3"><a xlink:href="../../d8/d17/a00304.html#adf2b3d71c10b80f512455c952137b200" target="_top" xlink:title="default method to make the oldName of an image term from given fields ">
<polygon fill="none" stroke="black" points="208,-0.5 208,-30.5 385,-30.5 385,-0.5 208,-0.5"/>
<text text-anchor="start" x="216" y="-18.5" font-family="Helvetica,sans-Serif" font-size="10.00">nars.language.CompoundTerm.make</text>
<text text-anchor="middle" x="296.5" y="-7.5" font-family="Helvetica,sans-Serif" font-size="10.00">ImageName</text>
</a>
</g>
</g>
<!-- Node126&#45;&gt;Node128 -->
<g id="edge2" class="edge"><title>Node126&#45;&gt;Node128</title>
<path fill="none" stroke="midnightblue" d="M169.704,-29.9801C178.889,-28.9229 188.306,-27.8388 197.655,-26.7627"/>
<polygon fill="midnightblue" stroke="midnightblue" points="198.224,-30.2204 207.758,-25.5998 197.424,-23.2663 198.224,-30.2204"/>
</g>
</g>
</svg>
