<?xml version="1.0" encoding="UTF-8" standalone="no"?>
<!DOCTYPE svg PUBLIC "-//W3C//DTD SVG 1.1//EN"
 "http://www.w3.org/Graphics/SVG/1.1/DTD/svg11.dtd">
<!-- Generated by graphviz version 2.38.0 (20140413.2041)
 -->
<!-- Title: nars.language.ImageInt.clone Pages: 1 -->
<svg width="593pt" height="215pt"
 viewBox="0.00 0.00 593.00 214.50" xmlns="http://www.w3.org/2000/svg" xmlns:xlink="http://www.w3.org/1999/xlink">
<g id="graph0" class="graph" transform="scale(1 1) rotate(0) translate(4 210.5)">
<title>nars.language.ImageInt.clone</title>
<!-- Node6 -->
<g id="node1" class="node"><title>Node6</title>
<polygon fill="#bfbfbf" stroke="black" points="0,-94 0,-113 145,-113 145,-94 0,-94"/>
<text text-anchor="middle" x="72.5" y="-101" font-family="Helvetica,sans-Serif" font-size="10.00">nars.language.ImageInt.clone</text>
</g>
<!-- Node7 -->
<g id="node2" class="node"><title>Node7</title>
<g id="a_node2"><a xlink:href="../../d8/d17/a00304.html#a9cb7736a3f6b220d75366ab146488773" target="_top" xlink:title="Deep clone an array list of terms. ">
<polygon fill="none" stroke="black" points="181,-187 181,-206 373,-206 373,-187 181,-187"/>
<text text-anchor="middle" x="277" y="-194" font-family="Helvetica,sans-Serif" font-size="10.00">nars.language.CompoundTerm.cloneList</text>
</a>
</g>
</g>
<!-- Node6&#45;&gt;Node7 -->
<g id="edge1" class="edge"><title>Node6&#45;&gt;Node7</title>
<path fill="none" stroke="midnightblue" d="M84.2142,-113.133C102.604,-129.118 141.977,-160.995 181,-177.5 187.193,-180.119 193.768,-182.384 200.455,-184.341"/>
<polygon fill="midnightblue" stroke="midnightblue" points="199.736,-187.771 210.302,-186.993 201.556,-181.012 199.736,-187.771"/>
</g>
<!-- Node9 -->
<g id="node4" class="node"><title>Node9</title>
<g id="a_node4"><a xlink:href="../../d8/d17/a00304.html#a4f04fa1bc71ade41d35e664ff4df5475" target="_top" xlink:title="syntactic complexity of the compound, the sum of those of its components plus 1 ">
<polygon fill="none" stroke="black" points="193.5,-137.5 193.5,-167.5 360.5,-167.5 360.5,-137.5 193.5,-137.5"/>
<text text-anchor="start" x="201.5" y="-155.5" font-family="Helvetica,sans-Serif" font-size="10.00">nars.language.CompoundTerm.get</text>
<text text-anchor="middle" x="277" y="-144.5" font-family="Helvetica,sans-Serif" font-size="10.00">Complexity</text>
</a>
</g>
</g>
<!-- Node6&#45;&gt;Node9 -->
<g id="edge3" class="edge"><title>Node6&#45;&gt;Node9</title>
<path fill="none" stroke="midnightblue" d="M113.025,-113.064C138.886,-119.322 173.435,-127.682 204.066,-135.094"/>
<polygon fill="midnightblue" stroke="midnightblue" points="203.315,-138.513 213.857,-137.463 204.961,-131.709 203.315,-138.513"/>
</g>
<!-- Node10 -->
<g id="node5" class="node"><title>Node10</title>
<g id="a_node5"><a xlink:href="../../d8/d17/a00304.html#a9778c35f9b602bee6ccac6a06809e546" target="_top" xlink:title="list of (direct) components ">
<polygon fill="none" stroke="black" points="193.5,-88.5 193.5,-118.5 360.5,-118.5 360.5,-88.5 193.5,-88.5"/>
<text text-anchor="start" x="201.5" y="-106.5" font-family="Helvetica,sans-Serif" font-size="10.00">nars.language.CompoundTerm.get</text>
<text text-anchor="middle" x="277" y="-95.5" font-family="Helvetica,sans-Serif" font-size="10.00">Components</text>
</a>
</g>
</g>
<!-- Node6&#45;&gt;Node10 -->
<g id="edge4" class="edge"><title>Node6&#45;&gt;Node10</title>
<path fill="none" stroke="midnightblue" d="M145.179,-103.5C157.478,-103.5 170.416,-103.5 183.173,-103.5"/>
<polygon fill="midnightblue" stroke="midnightblue" points="183.351,-107 193.351,-103.5 183.351,-100 183.351,-107"/>
</g>
<!-- Node11 -->
<g id="node6" class="node"><title>Node11</title>
<g id="a_node6"><a xlink:href="../../d7/df2/a00312.html#a1b4d49365ad0892c4be8159b44440bf6" target="_top" xlink:title="constructor with partial values, called by make ">
<polygon fill="none" stroke="black" points="197,-50 197,-69 357,-69 357,-50 197,-50"/>
<text text-anchor="middle" x="277" y="-57" font-family="Helvetica,sans-Serif" font-size="10.00">nars.language.ImageInt.ImageInt</text>
</a>
</g>
</g>
<!-- Node6&#45;&gt;Node11 -->
<g id="edge5" class="edge"><title>Node6&#45;&gt;Node11</title>
<path fill="none" stroke="midnightblue" d="M115.594,-93.978C135.425,-89.5239 159.415,-84.1814 181,-79.5 193.607,-76.7657 207.168,-73.8786 219.985,-71.1745"/>
<polygon fill="midnightblue" stroke="midnightblue" points="221.007,-74.5361 230.072,-69.0516 219.565,-67.6862 221.007,-74.5361"/>
</g>
<!-- Node12 -->
<g id="node7" class="node"><title>Node12</title>
<g id="a_node7"><a xlink:href="../../d8/d17/a00304.html#aee0ef6fd533b58caf22bee2a98eef67d" target="_top" xlink:title="Whether the term names a concept. ">
<polygon fill="none" stroke="black" points="196.5,-0.5 196.5,-30.5 357.5,-30.5 357.5,-0.5 196.5,-0.5"/>
<text text-anchor="start" x="204.5" y="-18.5" font-family="Helvetica,sans-Serif" font-size="10.00">nars.language.CompoundTerm.is</text>
<text text-anchor="middle" x="277" y="-7.5" font-family="Helvetica,sans-Serif" font-size="10.00">Constant</text>
</a>
</g>
</g>
<!-- Node6&#45;&gt;Node12 -->
<g id="edge6" class="edge"><title>Node6&#45;&gt;Node12</title>
<path fill="none" stroke="midnightblue" d="M87.1207,-93.8615C106.931,-80.2368 145.241,-55.3542 181,-40.5 186.891,-38.0527 193.089,-35.7869 199.379,-33.7017"/>
<polygon fill="midnightblue" stroke="midnightblue" points="200.82,-36.9172 209.306,-30.5735 198.716,-30.2408 200.82,-36.9172"/>
</g>
<!-- Node8 -->
<g id="node3" class="node"><title>Node8</title>
<g id="a_node3"><a xlink:href="../../d8/d17/a00304.html#a963e8aef1163f4ed8c364b5e448deaff" target="_top" xlink:title="Abstract clone method. ">
<polygon fill="none" stroke="black" points="409,-187 409,-206 585,-206 585,-187 409,-187"/>
<text text-anchor="middle" x="497" y="-194" font-family="Helvetica,sans-Serif" font-size="10.00">nars.language.CompoundTerm.clone</text>
</a>
</g>
</g>
<!-- Node7&#45;&gt;Node8 -->
<g id="edge2" class="edge"><title>Node7&#45;&gt;Node8</title>
<path fill="none" stroke="midnightblue" d="M373.301,-196.5C381.69,-196.5 390.19,-196.5 398.597,-196.5"/>
<polygon fill="midnightblue" stroke="midnightblue" points="398.791,-200 408.791,-196.5 398.791,-193 398.791,-200"/>
</g>
</g>
</svg>
