<?xml version="1.0" encoding="UTF-8" standalone="no"?>
<!DOCTYPE svg PUBLIC "-//W3C//DTD SVG 1.1//EN"
 "http://www.w3.org/Graphics/SVG/1.1/DTD/svg11.dtd">
<!-- Generated by graphviz version 2.38.0 (20140413.2041)
 -->
<!-- Title: nars.language.ImageInt.getRelationIndex Pages: 1 -->
<!--zoomable 137 -->
<svg id="main" version="1.1" xmlns="http://www.w3.org/2000/svg" xmlns:xlink="http://www.w3.org/1999/xlink" xml:space="preserve" onload="init(evt)">
<style type="text/css"><![CDATA[
.edge:hover path { stroke: red; }
.edge:hover polygon { stroke: red; fill: red; }
]]></style>
<script type="text/javascript"><![CDATA[
var edges = document.getElementsByTagName('g');
if (edges && edges.length) {
  for (var i=0;i<edges.length;i++) {
    if (edges[i].id.substr(0,4)=='edge') {
      edges[i].setAttribute('class','edge');
    }
  }
}
]]></script>
        <defs>
                <circle id="rim" cx="0" cy="0" r="7"/>
                <circle id="rim2" cx="0" cy="0" r="3.5"/>
                <g id="zoomPlus">
                        <use xlink:href="#rim" fill="#404040">
                                <set attributeName="fill" to="#808080" begin="zoomplus.mouseover" end="zoomplus.mouseout"/>
                        </use>
                        <path d="M-4,0h8M0,-4v8" fill="none" stroke="white" stroke-width="1.5" pointer-events="none"/>
                </g>
                <g id="zoomMin">
                        <use xlink:href="#rim" fill="#404040">
                                <set attributeName="fill" to="#808080" begin="zoomminus.mouseover" end="zoomminus.mouseout"/>
                        </use>
                        <path d="M-4,0h8" fill="none" stroke="white" stroke-width="1.5" pointer-events="none"/>
                </g>
                <g id="dirArrow">
                        <path fill="none" stroke="white" stroke-width="1.5" d="M0,-3.0v7 M-2.5,-0.5L0,-3.0L2.5,-0.5"/>
                </g>
               <g id="resetDef">
                       <use xlink:href="#rim2" fill="#404040">
                               <set attributeName="fill" to="#808080" begin="reset.mouseover" end="reset.mouseout"/>
                       </use>
               </g>
        </defs>

<script type="text/javascript">
var viewWidth = 2414;
var viewHeight = 137;
var sectionId = 'dynsection-5';
</script>
<script xlink:href="../../svgpan.js"/>
<svg id="graph" class="graph">
<g id="viewport">
<title>nars.language.ImageInt.getRelationIndex</title>
<!-- Node18 -->
<g id="node1" class="node"><title>Node18</title>
<polygon fill="#bfbfbf" stroke="black" points="0,-49.5 0,-79.5 135,-79.5 135,-49.5 0,-49.5"/>
<text text-anchor="start" x="8" y="-67.5" font-family="Helvetica,sans-Serif" font-size="10.00">nars.language.ImageInt.get</text>
<text text-anchor="middle" x="67.5" y="-56.5" font-family="Helvetica,sans-Serif" font-size="10.00">RelationIndex</text>
</g>
<!-- Node19 -->
<g id="node2" class="node"><title>Node19</title>
<g id="a_node2"><a xlink:href="../../d7/df2/a00312.html#ae2617fbf8fade726774b308636bd6797" target="_top" xlink:title="Try to make an Image from an existing Image and a component. ">
<polygon fill="none" stroke="black" points="171,-99 171,-118 317,-118 317,-99 171,-99"/>
<text text-anchor="middle" x="244" y="-106" font-family="Helvetica,sans-Serif" font-size="10.00">nars.language.ImageInt.make</text>
</a>
</g>
</g>
<!-- Node18&#45;&gt;Node19 -->
<g id="edge1" class="edge"><title>Node18&#45;&gt;Node19</title>
<path fill="none" stroke="midnightblue" d="M137.801,-81.9741C160.812,-87.7763 185.564,-94.0176 205.275,-98.9876"/>
<polygon fill="midnightblue" stroke="midnightblue" points="138.617,-78.5705 128.065,-79.5192 136.906,-85.3581 138.617,-78.5705"/>
</g>
<!-- Node20 -->
<g id="node3" class="node"><title>Node20</title>
<g id="a_node3"><a xlink:href="../../d0/def/a00256.html#a0c301bbd183397254ef3aeb7d8af7480" target="_top" xlink:title="List the cases where the direction of inheritance is revised in conclusion. ">
<polygon fill="none" stroke="black" points="182.5,-49.5 182.5,-79.5 305.5,-79.5 305.5,-49.5 182.5,-49.5"/>
<text text-anchor="start" x="190.5" y="-67.5" font-family="Helvetica,sans-Serif" font-size="10.00">nars.inference.Structural</text>
<text text-anchor="middle" x="244" y="-56.5" font-family="Helvetica,sans-Serif" font-size="10.00">Rules.switchOrder</text>
</a>
</g>
</g>
<!-- Node18&#45;&gt;Node20 -->
<g id="edge2" class="edge"><title>Node18&#45;&gt;Node20</title>
<path fill="none" stroke="midnightblue" d="M145.73,-64.5C158.048,-64.5 170.637,-64.5 182.496,-64.5"/>
<polygon fill="midnightblue" stroke="midnightblue" points="145.467,-61.0001 135.467,-64.5 145.467,-68.0001 145.467,-61.0001"/>
</g>
<!-- Node34 -->
<g id="node17" class="node"><title>Node34</title>
<g id="a_node17"><a xlink:href="../../d0/def/a00256.html#a45ae086cf44c9f32cbe9a729f2419594" target="_top" xlink:title="Equivalent transformation between products and images when the subject is a compound {&lt;(*...">
<polygon fill="none" stroke="black" points="360,-0.5 360,-30.5 489,-30.5 489,-0.5 360,-0.5"/>
<text text-anchor="start" x="368" y="-18.5" font-family="Helvetica,sans-Serif" font-size="10.00">nars.inference.Structural</text>
<text text-anchor="middle" x="424.5" y="-7.5" font-family="Helvetica,sans-Serif" font-size="10.00">Rules.transformSubjectPI</text>
</a>
</g>
</g>
<!-- Node18&#45;&gt;Node34 -->
<g id="edge17" class="edge"><title>Node18&#45;&gt;Node34</title>
<path fill="none" stroke="midnightblue" d="M133.568,-47.1359C145.933,-44.2618 158.815,-41.5541 171,-39.5 234.83,-28.7403 308.611,-22.424 359.869,-18.9959"/>
<polygon fill="midnightblue" stroke="midnightblue" points="132.703,-43.7442 123.786,-49.4673 134.325,-50.5535 132.703,-43.7442"/>
</g>
<!-- Node21 -->
<g id="node4" class="node"><title>Node21</title>
<g id="a_node4"><a xlink:href="../../d0/def/a00256.html#ab3d78c70d8e8086fdabdc52a343cc416" target="_top" xlink:title="{&lt;S &#45;&#45;&gt; P&gt;, S@(S&amp;T)} |&#45; &lt;(S&amp;T) &#45;&#45;&gt; (P&amp;T)&gt; {&lt;S &#45;&#45;&gt; P&gt;, S@(M&#45;S)} |&#45; &lt;(M&#45;P) &#45;&#45;&gt; (M&#45;S)&gt; ...">
<polygon fill="none" stroke="black" points="358,-98.5 358,-128.5 491,-128.5 491,-98.5 358,-98.5"/>
<text text-anchor="start" x="366" y="-116.5" font-family="Helvetica,sans-Serif" font-size="10.00">nars.inference.Structural</text>
<text text-anchor="middle" x="424.5" y="-105.5" font-family="Helvetica,sans-Serif" font-size="10.00">Rules.structuralCompose2</text>
</a>
</g>
</g>
<!-- Node20&#45;&gt;Node21 -->
<g id="edge3" class="edge"><title>Node20&#45;&gt;Node21</title>
<path fill="none" stroke="midnightblue" d="M309.92,-82.3212C329.193,-87.6118 350.104,-93.3522 368.669,-98.4484"/>
<polygon fill="midnightblue" stroke="midnightblue" points="310.582,-78.8735 300.012,-79.6014 308.729,-85.6238 310.582,-78.8735"/>
</g>
<!-- Node32 -->
<g id="node15" class="node"><title>Node32</title>
<g id="a_node15"><a xlink:href="../../d0/def/a00256.html#a38aabb9f3b3a70e03852da1e32ec665d" target="_top" xlink:title="{&lt;(S&amp;T) &#45;&#45;&gt; (P&amp;T)&gt;, S@(S&amp;T)} |&#45; &lt;S &#45;&#45;&gt; P&gt; ">
<polygon fill="none" stroke="black" points="353,-49.5 353,-79.5 496,-79.5 496,-49.5 353,-49.5"/>
<text text-anchor="start" x="361" y="-67.5" font-family="Helvetica,sans-Serif" font-size="10.00">nars.inference.Structural</text>
<text text-anchor="middle" x="424.5" y="-56.5" font-family="Helvetica,sans-Serif" font-size="10.00">Rules.structuralDecompose2</text>
</a>
</g>
</g>
<!-- Node20&#45;&gt;Node32 -->
<g id="edge14" class="edge"><title>Node20&#45;&gt;Node32</title>
<path fill="none" stroke="midnightblue" d="M315.957,-64.5C328.05,-64.5 340.61,-64.5 352.699,-64.5"/>
<polygon fill="midnightblue" stroke="midnightblue" points="315.93,-61.0001 305.93,-64.5 315.93,-68.0001 315.93,-61.0001"/>
</g>
<!-- Node22 -->
<g id="node5" class="node"><title>Node22</title>
<g id="a_node5"><a xlink:href="../../dc/ded/a00252.html#a54a7ceba4f123db5035e3b85063c91f1" target="_top" xlink:title="Inference between a compound term and a statement. ">
<polygon fill="none" stroke="black" points="533.5,-98.5 533.5,-128.5 712.5,-128.5 712.5,-98.5 533.5,-98.5"/>
<text text-anchor="start" x="541.5" y="-116.5" font-family="Helvetica,sans-Serif" font-size="10.00">nars.inference.RuleTables.compound</text>
<text text-anchor="middle" x="623" y="-105.5" font-family="Helvetica,sans-Serif" font-size="10.00">AndStatement</text>
</a>
</g>
</g>
<!-- Node21&#45;&gt;Node22 -->
<g id="edge4" class="edge"><title>Node21&#45;&gt;Node22</title>
<path fill="none" stroke="midnightblue" d="M501.485,-113.5C511.9,-113.5 522.668,-113.5 533.287,-113.5"/>
<polygon fill="midnightblue" stroke="midnightblue" points="501.205,-110 491.205,-113.5 501.205,-117 501.205,-110"/>
</g>
<!-- Node23 -->
<g id="node6" class="node"><title>Node23</title>
<g id="a_node6"><a xlink:href="../../dc/ded/a00252.html#ac2d01dfdc40bdd47c757cb549217e6e3" target="_top" xlink:title="Entry point of the inference engine. ">
<polygon fill="none" stroke="black" points="767,-55 767,-74 930,-74 930,-55 767,-55"/>
<text text-anchor="middle" x="848.5" y="-62" font-family="Helvetica,sans-Serif" font-size="10.00">nars.inference.RuleTables.reason</text>
</a>
</g>
</g>
<!-- Node22&#45;&gt;Node23 -->
<g id="edge5" class="edge"><title>Node22&#45;&gt;Node23</title>
<path fill="none" stroke="midnightblue" d="M702.524,-96.2844C736.611,-88.8112 775.235,-80.3433 804.041,-74.028"/>
<polygon fill="midnightblue" stroke="midnightblue" points="701.595,-92.905 692.576,-98.4654 703.094,-99.7426 701.595,-92.905"/>
</g>
<!-- Node24 -->
<g id="node7" class="node"><title>Node24</title>
<g id="a_node7"><a xlink:href="../../d7/ded/a00196.html#ad6fb91dda799c3092ecb186ef24ca92a" target="_top" xlink:title="An atomic step in a concept, only called in Memory# processConcept. ">
<polygon fill="none" stroke="black" points="983,-27.5 983,-57.5 1102,-57.5 1102,-27.5 983,-27.5"/>
<text text-anchor="start" x="991" y="-45.5" font-family="Helvetica,sans-Serif" font-size="10.00">nars.entity.Concept.fire</text>
<text text-anchor="middle" x="1042.5" y="-34.5" font-family="Helvetica,sans-Serif" font-size="10.00">FromProcessConcept</text>
</a>
</g>
</g>
<!-- Node23&#45;&gt;Node24 -->
<g id="edge6" class="edge"><title>Node23&#45;&gt;Node24</title>
<path fill="none" stroke="midnightblue" d="M940.078,-54.1212C954.567,-52.4611 969.22,-50.782 982.714,-49.2359"/>
<polygon fill="midnightblue" stroke="midnightblue" points="939.627,-50.6499 930.091,-55.2656 940.424,-57.6044 939.627,-50.6499"/>
</g>
<!-- Node25 -->
<g id="node8" class="node"><title>Node25</title>
<g id="a_node8"><a xlink:href="../../d4/d27/a00392.html#a0acc4adbf6a2462245da46bcb529746c" target="_top" xlink:title="Select a concept to fireFromProcessConcept. ">
<polygon fill="none" stroke="black" points="1138,-27.5 1138,-57.5 1284,-57.5 1284,-27.5 1138,-27.5"/>
<text text-anchor="start" x="1146" y="-45.5" font-family="Helvetica,sans-Serif" font-size="10.00">nars.storage.Memory.process</text>
<text text-anchor="middle" x="1211" y="-34.5" font-family="Helvetica,sans-Serif" font-size="10.00">Concept</text>
</a>
</g>
</g>
<!-- Node24&#45;&gt;Node25 -->
<g id="edge7" class="edge"><title>Node24&#45;&gt;Node25</title>
<path fill="none" stroke="midnightblue" d="M1112.34,-42.5C1120.75,-42.5 1129.36,-42.5 1137.82,-42.5"/>
<polygon fill="midnightblue" stroke="midnightblue" points="1112.2,-39.0001 1102.2,-42.5 1112.2,-46.0001 1112.2,-39.0001"/>
</g>
<!-- Node26 -->
<g id="node9" class="node"><title>Node26</title>
<g id="a_node9"><a xlink:href="../../d4/d27/a00392.html#a59ae339d666409988d90d29be4f73a91" target="_top" xlink:title="An atomic working workCycle of the system: process new Tasks, then fireFromProcessConcept a concept...">
<polygon fill="none" stroke="black" points="1320,-27.5 1320,-57.5 1453,-57.5 1453,-27.5 1320,-27.5"/>
<text text-anchor="start" x="1328" y="-45.5" font-family="Helvetica,sans-Serif" font-size="10.00">nars.storage.Memory.work</text>
<text text-anchor="middle" x="1386.5" y="-34.5" font-family="Helvetica,sans-Serif" font-size="10.00">Cycle</text>
</a>
</g>
</g>
<!-- Node25&#45;&gt;Node26 -->
<g id="edge8" class="edge"><title>Node25&#45;&gt;Node26</title>
<path fill="none" stroke="midnightblue" d="M1294.12,-42.5C1302.72,-42.5 1311.37,-42.5 1319.76,-42.5"/>
<polygon fill="midnightblue" stroke="midnightblue" points="1294.07,-39.0001 1284.07,-42.5 1294.07,-46.0001 1294.07,-39.0001"/>
</g>
<!-- Node27 -->
<g id="node10" class="node"><title>Node27</title>
<g id="a_node10"><a xlink:href="../../df/d15/a00416.html#a0d5c797dc17d9e8d0998852915e0f303" target="_top" xlink:title="nars.storage.ReasonerBatch.doTick">
<polygon fill="none" stroke="black" points="1489,-33 1489,-52 1662,-52 1662,-33 1489,-33"/>
<text text-anchor="middle" x="1575.5" y="-40" font-family="Helvetica,sans-Serif" font-size="10.00">nars.storage.ReasonerBatch.doTick</text>
</a>
</g>
</g>
<!-- Node26&#45;&gt;Node27 -->
<g id="edge9" class="edge"><title>Node26&#45;&gt;Node27</title>
<path fill="none" stroke="midnightblue" d="M1463.34,-42.5C1471.78,-42.5 1480.42,-42.5 1488.97,-42.5"/>
<polygon fill="midnightblue" stroke="midnightblue" points="1463.17,-39.0001 1453.17,-42.5 1463.17,-46.0001 1463.17,-39.0001"/>
</g>
<!-- Node28 -->
<g id="node11" class="node"><title>Node28</title>
<g id="a_node11"><a xlink:href="../../df/d15/a00416.html#a3468aa0f99edcd66412f27922dddb880" target="_top" xlink:title="A clock tick. ">
<polygon fill="none" stroke="black" points="1698,-33 1698,-52 1858,-52 1858,-33 1698,-33"/>
<text text-anchor="middle" x="1778" y="-40" font-family="Helvetica,sans-Serif" font-size="10.00">nars.storage.ReasonerBatch.tick</text>
</a>
</g>
</g>
<!-- Node27&#45;&gt;Node28 -->
<g id="edge10" class="edge"><title>Node27&#45;&gt;Node28</title>
<path fill="none" stroke="midnightblue" d="M1672.13,-42.5C1680.7,-42.5 1689.31,-42.5 1697.71,-42.5"/>
<polygon fill="midnightblue" stroke="midnightblue" points="1672.11,-39.0001 1662.11,-42.5 1672.11,-46.0001 1672.11,-39.0001"/>
</g>
<!-- Node29 -->
<g id="node12" class="node"><title>Node29</title>
<g id="a_node12"><a xlink:href="../../d9/da1/a00396.html#a5d9cfe517bcfbe41e5251910bcd119c1" target="_top" xlink:title="Run to completion: repeatedly execute NARS working cycle, until Inputs are Finished, or 1000 steps. ">
<polygon fill="none" stroke="black" points="1894,-33 1894,-52 2038,-52 2038,-33 1894,-33"/>
<text text-anchor="middle" x="1966" y="-40" font-family="Helvetica,sans-Serif" font-size="10.00">nars.storage.NARSBatch.run</text>
</a>
</g>
</g>
<!-- Node28&#45;&gt;Node29 -->
<g id="edge11" class="edge"><title>Node28&#45;&gt;Node29</title>
<path fill="none" stroke="midnightblue" d="M1868.22,-42.5C1876.82,-42.5 1885.47,-42.5 1893.87,-42.5"/>
<polygon fill="midnightblue" stroke="midnightblue" points="1868.15,-39.0001 1858.15,-42.5 1868.15,-46.0001 1868.15,-39.0001"/>
</g>
<!-- Node30 -->
<g id="node13" class="node"><title>Node30</title>
<g id="a_node13"><a xlink:href="../../d9/da1/a00396.html#a7c307c6b842f82664de6b0e52bdf8efc" target="_top" xlink:title="non&#45;static equivalent to main(String[]) : run to completion from an input file ">
<polygon fill="none" stroke="black" points="2074,-27.5 2074,-57.5 2218,-57.5 2218,-27.5 2074,-27.5"/>
<text text-anchor="start" x="2082" y="-45.5" font-family="Helvetica,sans-Serif" font-size="10.00">nars.storage.NARSBatch.run</text>
<text text-anchor="middle" x="2146" y="-34.5" font-family="Helvetica,sans-Serif" font-size="10.00">Inference</text>
</a>
</g>
</g>
<!-- Node29&#45;&gt;Node30 -->
<g id="edge12" class="edge"><title>Node29&#45;&gt;Node30</title>
<path fill="none" stroke="midnightblue" d="M2048.17,-42.5C2056.79,-42.5 2065.51,-42.5 2074,-42.5"/>
<polygon fill="midnightblue" stroke="midnightblue" points="2048.12,-39.0001 2038.12,-42.5 2048.12,-46.0001 2048.12,-39.0001"/>
</g>
<!-- Node31 -->
<g id="node14" class="node"><title>Node31</title>
<g id="a_node14"><a xlink:href="../../d9/da1/a00396.html#abafc597289bc2f6453b5cd0dd6634e54" target="_top" xlink:title="The entry point of the standalone application. ">
<polygon fill="none" stroke="black" points="2254,-33 2254,-52 2406,-52 2406,-33 2254,-33"/>
<text text-anchor="middle" x="2330" y="-40" font-family="Helvetica,sans-Serif" font-size="10.00">nars.storage.NARSBatch.main</text>
</a>
</g>
</g>
<!-- Node30&#45;&gt;Node31 -->
<g id="edge13" class="edge"><title>Node30&#45;&gt;Node31</title>
<path fill="none" stroke="midnightblue" d="M2228.17,-42.5C2236.76,-42.5 2245.48,-42.5 2254,-42.5"/>
<polygon fill="midnightblue" stroke="midnightblue" points="2228.15,-39.0001 2218.15,-42.5 2228.15,-46.0001 2228.15,-39.0001"/>
</g>
<!-- Node33 -->
<g id="node16" class="node"><title>Node33</title>
<g id="a_node16"><a xlink:href="../../dc/ded/a00252.html#a08680eb3f85b0a37b7bd969de8b25904" target="_top" xlink:title="Inference between a component term (of the current term) and a statement. ">
<polygon fill="none" stroke="black" points="532,-49.5 532,-79.5 714,-79.5 714,-49.5 532,-49.5"/>
<text text-anchor="start" x="540" y="-67.5" font-family="Helvetica,sans-Serif" font-size="10.00">nars.inference.RuleTables.component</text>
<text text-anchor="middle" x="623" y="-56.5" font-family="Helvetica,sans-Serif" font-size="10.00">AndStatement</text>
</a>
</g>
</g>
<!-- Node32&#45;&gt;Node33 -->
<g id="edge15" class="edge"><title>Node32&#45;&gt;Node33</title>
<path fill="none" stroke="midnightblue" d="M506.304,-64.5C514.702,-64.5 523.277,-64.5 531.771,-64.5"/>
<polygon fill="midnightblue" stroke="midnightblue" points="506.163,-61.0001 496.163,-64.5 506.163,-68.0001 506.163,-61.0001"/>
</g>
<!-- Node33&#45;&gt;Node23 -->
<g id="edge16" class="edge"><title>Node33&#45;&gt;Node23</title>
<path fill="none" stroke="midnightblue" d="M724.554,-64.5C738.765,-64.5 753.221,-64.5 766.989,-64.5"/>
<polygon fill="midnightblue" stroke="midnightblue" points="724.262,-61.0001 714.262,-64.5 724.262,-68.0001 724.262,-61.0001"/>
</g>
<!-- Node35 -->
<g id="node18" class="node"><title>Node35</title>
<g id="a_node18"><a xlink:href="../../d0/def/a00256.html#ab621fd6a291394ad962761cd0ae1ff08" target="_top" xlink:title="Equivalent transformation between products and images {&lt;(*, S, M) &#45;&#45;&gt; P&gt;, S@(*, S, M)} |&#45; &lt;S &#45;&#45;&gt; (/, P, _, M)&gt; {&lt;S &#45;&#45;&gt; (/, P, _, M)&gt;, P@(/, P, _, M)} |&#45; &lt;(*, S, M) &#45;&#45;&gt; P&gt; {&lt;S &#45;&#45;&gt; (/, P, _, M)&gt;, M@(/, P, _, M)} |&#45; &lt;M &#45;&#45;&gt; (/, P, S, _)&gt; ">
<polygon fill="none" stroke="black" points="549.5,-0.5 549.5,-30.5 696.5,-30.5 696.5,-0.5 549.5,-0.5"/>
<text text-anchor="start" x="557.5" y="-18.5" font-family="Helvetica,sans-Serif" font-size="10.00">nars.inference.Structural</text>
<text text-anchor="middle" x="623" y="-7.5" font-family="Helvetica,sans-Serif" font-size="10.00">Rules.transformProductImage</text>
</a>
</g>
</g>
<!-- Node34&#45;&gt;Node35 -->
<g id="edge18" class="edge"><title>Node34&#45;&gt;Node35</title>
<path fill="none" stroke="midnightblue" d="M499.135,-15.5C515.602,-15.5 533.056,-15.5 549.478,-15.5"/>
<polygon fill="midnightblue" stroke="midnightblue" points="499.027,-12.0001 489.027,-15.5 499.027,-19.0001 499.027,-12.0001"/>
</g>
<!-- Node36 -->
<g id="node19" class="node"><title>Node36</title>
<g id="a_node19"><a xlink:href="../../dc/ded/a00252.html#ab344d6ccee0f3671b57d092daeb65db4" target="_top" xlink:title="The TaskLink is of type TRANSFORM, and the conclusion is an equivalent transformation. ">
<polygon fill="none" stroke="black" points="750,-12 750,-31 947,-31 947,-12 750,-12"/>
<text text-anchor="middle" x="848.5" y="-19" font-family="Helvetica,sans-Serif" font-size="10.00">nars.inference.RuleTables.transformTask</text>
</a>
</g>
</g>
<!-- Node35&#45;&gt;Node36 -->
<g id="edge19" class="edge"><title>Node35&#45;&gt;Node36</title>
<path fill="none" stroke="midnightblue" d="M706.641,-17.7185C720.658,-18.0949 735.332,-18.4888 749.694,-18.8743"/>
<polygon fill="midnightblue" stroke="midnightblue" points="706.654,-14.2177 696.564,-17.448 706.466,-21.2152 706.654,-14.2177"/>
</g>
<!-- Node36&#45;&gt;Node24 -->
<g id="edge20" class="edge"><title>Node36&#45;&gt;Node24</title>
<path fill="none" stroke="midnightblue" d="M946.459,-32.1049C958.877,-33.4631 971.274,-34.819 982.818,-36.0816"/>
<polygon fill="midnightblue" stroke="midnightblue" points="946.833,-28.625 936.512,-31.0169 946.072,-35.5835 946.833,-28.625"/>
</g>
</g>
</svg>
        <g id="navigator" transform="translate(0 0)" fill="#404254">
                <rect fill="#f2f5e9" fill-opacity="0.5" stroke="#606060" stroke-width=".5" x="0" y="0" width="60" height="60"/>
                <use id="zoomplus" xlink:href="#zoomPlus" x="17" y="9" onmousedown="handleZoom(evt,'in')"/>
                <use id="zoomminus" xlink:href="#zoomMin" x="42" y="9" onmousedown="handleZoom(evt,'out')"/>
                <use id="reset" xlink:href="#resetDef" x="30" y="36" onmousedown="handleReset()"/>
                <g id="arrowUp" xlink:href="#dirArrow" transform="translate(30 24)" onmousedown="handlePan(0,-1)">
                  <use xlink:href="#rim" fill="#404040">
                        <set attributeName="fill" to="#808080" begin="arrowUp.mouseover" end="arrowUp.mouseout"/>
                  </use>
                  <path fill="none" stroke="white" stroke-width="1.5" d="M0,-3.0v7 M-2.5,-0.5L0,-3.0L2.5,-0.5"/>
                </g>
                <g id="arrowRight" xlink:href="#dirArrow" transform="rotate(90) translate(36 -43)" onmousedown="handlePan(1,0)">
                  <use xlink:href="#rim" fill="#404040">
                        <set attributeName="fill" to="#808080" begin="arrowRight.mouseover" end="arrowRight.mouseout"/>
                  </use>
                  <path fill="none" stroke="white" stroke-width="1.5" d="M0,-3.0v7 M-2.5,-0.5L0,-3.0L2.5,-0.5"/>
                </g>
                <g id="arrowDown" xlink:href="#dirArrow" transform="rotate(180) translate(-30 -48)" onmousedown="handlePan(0,1)">
                  <use xlink:href="#rim" fill="#404040">
                        <set attributeName="fill" to="#808080" begin="arrowDown.mouseover" end="arrowDown.mouseout"/>
                  </use>
                  <path fill="none" stroke="white" stroke-width="1.5" d="M0,-3.0v7 M-2.5,-0.5L0,-3.0L2.5,-0.5"/>
                </g>
                <g id="arrowLeft" xlink:href="#dirArrow" transform="rotate(270) translate(-36 17)" onmousedown="handlePan(-1,0)">
                  <use xlink:href="#rim" fill="#404040">
                        <set attributeName="fill" to="#808080" begin="arrowLeft.mouseover" end="arrowLeft.mouseout"/>
                  </use>
                  <path fill="none" stroke="white" stroke-width="1.5" d="M0,-3.0v7 M-2.5,-0.5L0,-3.0L2.5,-0.5"/>
                </g>
        </g>
        <svg viewBox="0 0 15 15" width="100%" height="30px" preserveAspectRatio="xMaxYMin meet">
         <g id="arrow_out" transform="scale(0.3 0.3)">
          <a xlink:href="a00312_a4aa7841fe7d6622f6ad2e39c74b5854d_icgraph_org.svg" target="_base">
           <rect id="button" ry="5" rx="5" y="6" x="6" height="38" width="38"
                fill="#f2f5e9" fill-opacity="0.5" stroke="#606060" stroke-width="1.0"/>
           <path id="arrow"
             d="M 11.500037,31.436501 C 11.940474,20.09759 22.043105,11.32322 32.158766,21.979434 L 37.068811,17.246167 C 37.068811,17.246167 37.088388,32 37.088388,32 L 22.160133,31.978069 C 22.160133,31.978069 26.997745,27.140456 26.997745,27.140456 C 18.528582,18.264221 13.291696,25.230495 11.500037,31.436501 z"
             style="fill:#404040;"/>
          </a>
         </g>
        </svg>
</svg>
