<?xml version="1.0" encoding="UTF-8" standalone="no"?>
<!DOCTYPE svg PUBLIC "-//W3C//DTD SVG 1.1//EN"
 "http://www.w3.org/Graphics/SVG/1.1/DTD/svg11.dtd">
<!-- Generated by graphviz version 2.38.0 (20140413.2041)
 -->
<!-- Title: nars.io.ExperienceReader.openLoadFile Pages: 1 -->
<svg width="749pt" height="78pt"
 viewBox="0.00 0.00 749.00 77.50" xmlns="http://www.w3.org/2000/svg" xmlns:xlink="http://www.w3.org/1999/xlink">
<g id="graph0" class="graph" transform="scale(1 1) rotate(0) translate(4 73.5)">
<title>nars.io.ExperienceReader.openLoadFile</title>
<!-- Node105 -->
<g id="node1" class="node"><title>Node105</title>
<polygon fill="#bfbfbf" stroke="black" points="0,-22.5 0,-52.5 153,-52.5 153,-22.5 0,-22.5"/>
<text text-anchor="start" x="8" y="-40.5" font-family="Helvetica,sans-Serif" font-size="10.00">nars.io.ExperienceReader.open</text>
<text text-anchor="middle" x="76.5" y="-29.5" font-family="Helvetica,sans-Serif" font-size="10.00">LoadFile</text>
</g>
<!-- Node106 -->
<g id="node2" class="node"><title>Node106</title>
<g id="a_node2"><a xlink:href="../../d9/da1/a00396.html#a084e3f56fc018f145bc73c5e91067467" target="_top" xlink:title="initialize from an input file ">
<polygon fill="none" stroke="black" points="189,-28 189,-47 332,-47 332,-28 189,-28"/>
<text text-anchor="middle" x="260.5" y="-35" font-family="Helvetica,sans-Serif" font-size="10.00">nars.storage.NARSBatch.init</text>
</a>
</g>
</g>
<!-- Node105&#45;&gt;Node106 -->
<g id="edge1" class="edge"><title>Node105&#45;&gt;Node106</title>
<path fill="none" stroke="midnightblue" d="M163.14,-37.5C171.731,-37.5 180.386,-37.5 188.797,-37.5"/>
<polygon fill="midnightblue" stroke="midnightblue" points="163.103,-34.0001 153.103,-37.5 163.103,-41.0001 163.103,-34.0001"/>
</g>
<!-- Node107 -->
<g id="node3" class="node"><title>Node107</title>
<g id="a_node3"><a xlink:href="../../d9/da1/a00396.html#acbaf7780981f7c7f84d6faee5eda9f0a" target="_top" xlink:title="nars.storage.NARSBatch.NARSBatch">
<polygon fill="none" stroke="black" points="368,-50 368,-69 553,-69 553,-50 368,-50"/>
<text text-anchor="middle" x="460.5" y="-57" font-family="Helvetica,sans-Serif" font-size="10.00">nars.storage.NARSBatch.NARSBatch</text>
</a>
</g>
</g>
<!-- Node106&#45;&gt;Node107 -->
<g id="edge2" class="edge"><title>Node106&#45;&gt;Node107</title>
<path fill="none" stroke="midnightblue" d="M342.108,-46.4565C352.61,-47.6233 363.397,-48.8219 373.976,-49.9973"/>
<polygon fill="midnightblue" stroke="midnightblue" points="342.469,-42.9751 332.144,-45.3493 341.696,-49.9323 342.469,-42.9751"/>
</g>
<!-- Node109 -->
<g id="node5" class="node"><title>Node109</title>
<g id="a_node5"><a xlink:href="../../d9/da1/a00396.html#a7c307c6b842f82664de6b0e52bdf8efc" target="_top" xlink:title="non&#45;static equivalent to main(String[]) : run to completion from an input file ">
<polygon fill="none" stroke="black" points="388.5,-0.5 388.5,-30.5 532.5,-30.5 532.5,-0.5 388.5,-0.5"/>
<text text-anchor="start" x="396.5" y="-18.5" font-family="Helvetica,sans-Serif" font-size="10.00">nars.storage.NARSBatch.run</text>
<text text-anchor="middle" x="460.5" y="-7.5" font-family="Helvetica,sans-Serif" font-size="10.00">Inference</text>
</a>
</g>
</g>
<!-- Node106&#45;&gt;Node109 -->
<g id="edge4" class="edge"><title>Node106&#45;&gt;Node109</title>
<path fill="none" stroke="midnightblue" d="M342.519,-28.4979C357.664,-26.8151 373.391,-25.0676 388.216,-23.4204"/>
<polygon fill="midnightblue" stroke="midnightblue" points="341.696,-25.0677 332.144,-29.6507 342.469,-32.0249 341.696,-25.0677"/>
</g>
<!-- Node108 -->
<g id="node4" class="node"><title>Node108</title>
<g id="a_node4"><a xlink:href="../../d9/da1/a00396.html#abafc597289bc2f6453b5cd0dd6634e54" target="_top" xlink:title="The entry point of the standalone application. ">
<polygon fill="none" stroke="black" points="589,-28 589,-47 741,-47 741,-28 589,-28"/>
<text text-anchor="middle" x="665" y="-35" font-family="Helvetica,sans-Serif" font-size="10.00">nars.storage.NARSBatch.main</text>
</a>
</g>
</g>
<!-- Node107&#45;&gt;Node108 -->
<g id="edge3" class="edge"><title>Node107&#45;&gt;Node108</title>
<path fill="none" stroke="midnightblue" d="M559.127,-48.8936C569.143,-47.8054 579.207,-46.7121 588.925,-45.6563"/>
<polygon fill="midnightblue" stroke="midnightblue" points="558.705,-45.4188 549.142,-49.9784 559.461,-52.3778 558.705,-45.4188"/>
</g>
<!-- Node109&#45;&gt;Node108 -->
<g id="edge5" class="edge"><title>Node109&#45;&gt;Node108</title>
<path fill="none" stroke="midnightblue" d="M542.562,-24.3067C557.871,-25.97 573.823,-27.703 588.938,-29.3451"/>
<polygon fill="midnightblue" stroke="midnightblue" points="542.929,-20.8261 532.609,-23.2254 542.173,-27.7851 542.929,-20.8261"/>
</g>
</g>
</svg>
