<?xml version="1.0" encoding="UTF-8" standalone="no"?>
<!DOCTYPE svg PUBLIC "-//W3C//DTD SVG 1.1//EN"
 "http://www.w3.org/Graphics/SVG/1.1/DTD/svg11.dtd">
<!-- Generated by graphviz version 2.38.0 (20140413.2041)
 -->
<!-- Title: nars.io.ExperienceReader.openLoadFile Pages: 1 -->
<svg width="551pt" height="39pt"
 viewBox="0.00 0.00 551.00 39.00" xmlns="http://www.w3.org/2000/svg" xmlns:xlink="http://www.w3.org/1999/xlink">
<g id="graph0" class="graph" transform="scale(1 1) rotate(0) translate(4 35)">
<title>nars.io.ExperienceReader.openLoadFile</title>
<!-- Node110 -->
<g id="node1" class="node"><title>Node110</title>
<polygon fill="#bfbfbf" stroke="black" points="0,-0.5 0,-30.5 153,-30.5 153,-0.5 0,-0.5"/>
<text text-anchor="start" x="8" y="-18.5" font-family="Helvetica,sans-Serif" font-size="10.00">nars.io.ExperienceReader.open</text>
<text text-anchor="middle" x="76.5" y="-7.5" font-family="Helvetica,sans-Serif" font-size="10.00">LoadFile</text>
</g>
<!-- Node111 -->
<g id="node2" class="node"><title>Node111</title>
<g id="a_node2"><a xlink:href="../../df/d15/a00416.html#a6d6880a1d58b7aaf23d7c388d270936d" target="_top" xlink:title="nars.storage.ReasonerBatch.add\lInputChannel">
<polygon fill="none" stroke="black" points="189,-0.5 189,-30.5 349,-30.5 349,-0.5 189,-0.5"/>
<text text-anchor="start" x="197" y="-18.5" font-family="Helvetica,sans-Serif" font-size="10.00">nars.storage.ReasonerBatch.add</text>
<text text-anchor="middle" x="269" y="-7.5" font-family="Helvetica,sans-Serif" font-size="10.00">InputChannel</text>
</a>
</g>
</g>
<!-- Node110&#45;&gt;Node111 -->
<g id="edge1" class="edge"><title>Node110&#45;&gt;Node111</title>
<path fill="none" stroke="midnightblue" d="M153.064,-15.5C161.501,-15.5 170.154,-15.5 178.741,-15.5"/>
<polygon fill="midnightblue" stroke="midnightblue" points="178.775,-19.0001 188.775,-15.5 178.775,-12.0001 178.775,-19.0001"/>
</g>
<!-- Node112 -->
<g id="node3" class="node"><title>Node112</title>
<g id="a_node3"><a xlink:href="../../df/d15/a00416.html#a0e6a1e2c71cbf880623f3c1017fd02dc" target="_top" xlink:title="The input channels of the reasoner. ">
<polygon fill="none" stroke="black" points="385,-0.5 385,-30.5 543,-30.5 543,-0.5 385,-0.5"/>
<text text-anchor="start" x="393" y="-18.5" font-family="Helvetica,sans-Serif" font-size="10.00">nars.storage.ReasonerBatch.get</text>
<text text-anchor="middle" x="464" y="-7.5" font-family="Helvetica,sans-Serif" font-size="10.00">InputChannels</text>
</a>
</g>
</g>
<!-- Node111&#45;&gt;Node112 -->
<g id="edge2" class="edge"><title>Node111&#45;&gt;Node112</title>
<path fill="none" stroke="midnightblue" d="M349.057,-15.5C357.42,-15.5 365.964,-15.5 374.426,-15.5"/>
<polygon fill="midnightblue" stroke="midnightblue" points="374.69,-19.0001 384.69,-15.5 374.69,-12.0001 374.69,-19.0001"/>
</g>
</g>
</svg>
