<?xml version="1.0" encoding="UTF-8" standalone="no"?>
<!DOCTYPE svg PUBLIC "-//W3C//DTD SVG 1.1//EN"
 "http://www.w3.org/Graphics/SVG/1.1/DTD/svg11.dtd">
<!-- Generated by graphviz version 2.38.0 (20140413.2041)
 -->
<!-- Title: nars.inference.TruthFunctions.desireStrong Pages: 1 -->
<svg width="388pt" height="78pt"
 viewBox="0.00 0.00 388.00 77.50" xmlns="http://www.w3.org/2000/svg" xmlns:xlink="http://www.w3.org/1999/xlink">
<g id="graph0" class="graph" transform="scale(1 1) rotate(0) translate(4 73.5)">
<title>nars.inference.TruthFunctions.desireStrong</title>
<!-- Node169 -->
<g id="node1" class="node"><title>Node169</title>
<polygon fill="#bfbfbf" stroke="black" points="0,-22.5 0,-52.5 176,-52.5 176,-22.5 0,-22.5"/>
<text text-anchor="start" x="8" y="-40.5" font-family="Helvetica,sans-Serif" font-size="10.00">nars.inference.TruthFunctions.desire</text>
<text text-anchor="middle" x="88" y="-29.5" font-family="Helvetica,sans-Serif" font-size="10.00">Strong</text>
</g>
<!-- Node170 -->
<g id="node2" class="node"><title>Node170</title>
<g id="a_node2"><a xlink:href="../../db/d12/a00268.html#a46d2f048b6ba77afc60dcf49734f23c7" target="_top" xlink:title="A function where the output is conjunctively determined by the inputs. ">
<polygon fill="none" stroke="black" points="212,-50 212,-69 380,-69 380,-50 212,-50"/>
<text text-anchor="middle" x="296" y="-57" font-family="Helvetica,sans-Serif" font-size="10.00">nars.inference.UtilityFunctions.and</text>
</a>
</g>
</g>
<!-- Node169&#45;&gt;Node170 -->
<g id="edge1" class="edge"><title>Node169&#45;&gt;Node170</title>
<path fill="none" stroke="midnightblue" d="M176.064,-46.7981C184.588,-47.7084 193.261,-48.6347 201.842,-49.5511"/>
<polygon fill="midnightblue" stroke="midnightblue" points="201.544,-53.0391 211.859,-50.6209 202.287,-46.0786 201.544,-53.0391"/>
</g>
<!-- Node171 -->
<g id="node3" class="node"><title>Node171</title>
<g id="a_node3"><a xlink:href="../../d7/d40/a00236.html#a9eac33f2495441c77911a8581a5bbe61" target="_top" xlink:title="Get the frequency value. ">
<polygon fill="none" stroke="black" points="231.5,-0.5 231.5,-30.5 360.5,-30.5 360.5,-0.5 231.5,-0.5"/>
<text text-anchor="start" x="239.5" y="-18.5" font-family="Helvetica,sans-Serif" font-size="10.00">nars.entity.TruthValue.get</text>
<text text-anchor="middle" x="296" y="-7.5" font-family="Helvetica,sans-Serif" font-size="10.00">Frequency</text>
</a>
</g>
</g>
<!-- Node169&#45;&gt;Node171 -->
<g id="edge2" class="edge"><title>Node169&#45;&gt;Node171</title>
<path fill="none" stroke="midnightblue" d="M176.064,-28.2019C191.142,-26.5916 206.687,-24.9315 221.364,-23.364"/>
<polygon fill="midnightblue" stroke="midnightblue" points="221.798,-26.8376 231.37,-22.2954 221.055,-19.8772 221.798,-26.8376"/>
</g>
</g>
</svg>
