<?xml version="1.0" encoding="UTF-8" standalone="no"?>
<!DOCTYPE svg PUBLIC "-//W3C//DTD SVG 1.1//EN"
 "http://www.w3.org/Graphics/SVG/1.1/DTD/svg11.dtd">
<!-- Generated by graphviz version 2.38.0 (20140413.2041)
 -->
<!-- Title: nars.inference.TruthFunctions.reduceConjunction Pages: 1 -->
<!--zoomable 104 -->
<svg id="main" version="1.1" xmlns="http://www.w3.org/2000/svg" xmlns:xlink="http://www.w3.org/1999/xlink" xml:space="preserve" onload="init(evt)">
<style type="text/css"><![CDATA[
.edge:hover path { stroke: red; }
.edge:hover polygon { stroke: red; fill: red; }
]]></style>
<script type="text/javascript"><![CDATA[
var edges = document.getElementsByTagName('g');
if (edges && edges.length) {
  for (var i=0;i<edges.length;i++) {
    if (edges[i].id.substr(0,4)=='edge') {
      edges[i].setAttribute('class','edge');
    }
  }
}
]]></script>
        <defs>
                <circle id="rim" cx="0" cy="0" r="7"/>
                <circle id="rim2" cx="0" cy="0" r="3.5"/>
                <g id="zoomPlus">
                        <use xlink:href="#rim" fill="#404040">
                                <set attributeName="fill" to="#808080" begin="zoomplus.mouseover" end="zoomplus.mouseout"/>
                        </use>
                        <path d="M-4,0h8M0,-4v8" fill="none" stroke="white" stroke-width="1.5" pointer-events="none"/>
                </g>
                <g id="zoomMin">
                        <use xlink:href="#rim" fill="#404040">
                                <set attributeName="fill" to="#808080" begin="zoomminus.mouseover" end="zoomminus.mouseout"/>
                        </use>
                        <path d="M-4,0h8" fill="none" stroke="white" stroke-width="1.5" pointer-events="none"/>
                </g>
                <g id="dirArrow">
                        <path fill="none" stroke="white" stroke-width="1.5" d="M0,-3.0v7 M-2.5,-0.5L0,-3.0L2.5,-0.5"/>
                </g>
               <g id="resetDef">
                       <use xlink:href="#rim2" fill="#404040">
                               <set attributeName="fill" to="#808080" begin="reset.mouseover" end="reset.mouseout"/>
                       </use>
               </g>
        </defs>

<script type="text/javascript">
var viewWidth = 627;
var viewHeight = 104;
var sectionId = 'dynsection-25';
</script>
<script xlink:href="../../svgpan.js"/>
<svg id="graph" class="graph">
<g id="viewport">
<title>nars.inference.TruthFunctions.reduceConjunction</title>
<!-- Node264 -->
<g id="node1" class="node"><title>Node264</title>
<polygon fill="#bfbfbf" stroke="black" points="0,-33 0,-63 179,-63 179,-33 0,-33"/>
<text text-anchor="start" x="8" y="-51" font-family="Helvetica,sans-Serif" font-size="10.00">nars.inference.TruthFunctions.reduce</text>
<text text-anchor="middle" x="89.5" y="-40" font-family="Helvetica,sans-Serif" font-size="10.00">Conjunction</text>
</g>
<!-- Node265 -->
<g id="node2" class="node"><title>Node265</title>
<g id="a_node2"><a xlink:href="../../d3/dcc/a00264.html#a8f6892d4f41dfa39a4868e5bc65540ce" target="_top" xlink:title="{&lt;S ==&gt; M&gt;, &lt;M ==&gt; P&gt;} |&#45; &lt;S ==&gt; P&gt; ">
<polygon fill="none" stroke="black" points="219.5,-38.5 219.5,-57.5 410.5,-57.5 410.5,-38.5 219.5,-38.5"/>
<text text-anchor="middle" x="315" y="-45.5" font-family="Helvetica,sans-Serif" font-size="10.00">nars.inference.TruthFunctions.deduction</text>
</a>
</g>
</g>
<!-- Node264&#45;&gt;Node265 -->
<g id="edge1" class="edge"><title>Node264&#45;&gt;Node265</title>
<path fill="none" stroke="midnightblue" d="M179.154,-48C189.026,-48 199.149,-48 209.197,-48"/>
<polygon fill="midnightblue" stroke="midnightblue" points="209.208,-51.5001 219.208,-48 209.208,-44.5001 209.208,-51.5001"/>
</g>
<!-- Node268 -->
<g id="node5" class="node"><title>Node268</title>
<g id="a_node5"><a xlink:href="../../d3/dcc/a00264.html#a633b7e5cc37d6e4890e50e522ffd5b00" target="_top" xlink:title="{&lt;M &#45;&#45;&gt; S&gt;, &lt;M &lt;&#45;&gt; P&gt;} |&#45; &lt;M &#45;&#45;&gt; (S&amp;P)&gt; ">
<polygon fill="none" stroke="black" points="215,-76.5 215,-95.5 415,-95.5 415,-76.5 215,-76.5"/>
<text text-anchor="middle" x="315" y="-83.5" font-family="Helvetica,sans-Serif" font-size="10.00">nars.inference.TruthFunctions.intersection</text>
</a>
</g>
</g>
<!-- Node264&#45;&gt;Node268 -->
<g id="edge4" class="edge"><title>Node264&#45;&gt;Node268</title>
<path fill="none" stroke="midnightblue" d="M178.833,-63.0186C201.901,-66.9407 226.363,-71.0998 248.044,-74.7861"/>
<polygon fill="midnightblue" stroke="midnightblue" points="247.674,-78.2733 258.12,-76.4991 248.848,-71.3723 247.674,-78.2733"/>
</g>
<!-- Node269 -->
<g id="node6" class="node"><title>Node269</title>
<g id="a_node6"><a xlink:href="../../d3/dcc/a00264.html#aa0c9dd82960dbc5aa4875fec1c4bd1c6" target="_top" xlink:title="{A} |&#45; (–A) ">
<polygon fill="none" stroke="black" points="222,-0.5 222,-19.5 408,-19.5 408,-0.5 222,-0.5"/>
<text text-anchor="middle" x="315" y="-7.5" font-family="Helvetica,sans-Serif" font-size="10.00">nars.inference.TruthFunctions.negation</text>
</a>
</g>
</g>
<!-- Node264&#45;&gt;Node269 -->
<g id="edge7" class="edge"><title>Node264&#45;&gt;Node269</title>
<path fill="none" stroke="midnightblue" d="M178.833,-32.9814C201.901,-29.0593 226.363,-24.9002 248.044,-21.2139"/>
<polygon fill="midnightblue" stroke="midnightblue" points="248.848,-24.6277 258.12,-19.5009 247.674,-17.7267 248.848,-24.6277"/>
</g>
<!-- Node266 -->
<g id="node3" class="node"><title>Node266</title>
<g id="a_node3"><a xlink:href="../../db/d12/a00268.html#a46d2f048b6ba77afc60dcf49734f23c7" target="_top" xlink:title="A function where the output is conjunctively determined by the inputs. ">
<polygon fill="none" stroke="black" points="451,-76.5 451,-95.5 619,-95.5 619,-76.5 451,-76.5"/>
<text text-anchor="middle" x="535" y="-83.5" font-family="Helvetica,sans-Serif" font-size="10.00">nars.inference.UtilityFunctions.and</text>
</a>
</g>
</g>
<!-- Node265&#45;&gt;Node266 -->
<g id="edge2" class="edge"><title>Node265&#45;&gt;Node266</title>
<path fill="none" stroke="midnightblue" d="M370.729,-57.54C400.661,-62.7574 437.922,-69.2525 469.288,-74.72"/>
<polygon fill="midnightblue" stroke="midnightblue" points="468.796,-78.1868 479.248,-76.4561 469.998,-71.2908 468.796,-78.1868"/>
</g>
<!-- Node267 -->
<g id="node4" class="node"><title>Node267</title>
<g id="a_node4"><a xlink:href="../../d7/d40/a00236.html#a9eac33f2495441c77911a8581a5bbe61" target="_top" xlink:title="Get the frequency value. ">
<polygon fill="none" stroke="black" points="470.5,-27 470.5,-57 599.5,-57 599.5,-27 470.5,-27"/>
<text text-anchor="start" x="478.5" y="-45" font-family="Helvetica,sans-Serif" font-size="10.00">nars.entity.TruthValue.get</text>
<text text-anchor="middle" x="535" y="-34" font-family="Helvetica,sans-Serif" font-size="10.00">Frequency</text>
</a>
</g>
</g>
<!-- Node265&#45;&gt;Node267 -->
<g id="edge3" class="edge"><title>Node265&#45;&gt;Node267</title>
<path fill="none" stroke="midnightblue" d="M410.667,-45.3945C427.256,-44.9379 444.297,-44.4689 460.215,-44.0308"/>
<polygon fill="midnightblue" stroke="midnightblue" points="460.597,-47.5217 470.497,-43.7478 460.404,-40.5243 460.597,-47.5217"/>
</g>
<!-- Node268&#45;&gt;Node266 -->
<g id="edge5" class="edge"><title>Node268&#45;&gt;Node266</title>
<path fill="none" stroke="midnightblue" d="M415.113,-86C423.589,-86 432.145,-86 440.575,-86"/>
<polygon fill="midnightblue" stroke="midnightblue" points="440.781,-89.5001 450.781,-86 440.78,-82.5001 440.781,-89.5001"/>
</g>
<!-- Node268&#45;&gt;Node267 -->
<g id="edge6" class="edge"><title>Node268&#45;&gt;Node267</title>
<path fill="none" stroke="midnightblue" d="M366.652,-76.4553C382.176,-73.4824 399.3,-70.1554 415,-67 429.771,-64.0313 445.554,-60.7749 460.638,-57.6219"/>
<polygon fill="midnightblue" stroke="midnightblue" points="461.362,-61.0462 470.432,-55.5689 459.926,-54.1951 461.362,-61.0462"/>
</g>
<!-- Node269&#45;&gt;Node267 -->
<g id="edge8" class="edge"><title>Node269&#45;&gt;Node267</title>
<path fill="none" stroke="midnightblue" d="M380.817,-19.5144C405.747,-23.1739 434.389,-27.3782 460.111,-31.1539"/>
<polygon fill="midnightblue" stroke="midnightblue" points="459.782,-34.643 470.184,-32.6325 460.798,-27.7172 459.782,-34.643"/>
</g>
</g>
</svg>
        <g id="navigator" transform="translate(0 0)" fill="#404254">
                <rect fill="#f2f5e9" fill-opacity="0.5" stroke="#606060" stroke-width=".5" x="0" y="0" width="60" height="60"/>
                <use id="zoomplus" xlink:href="#zoomPlus" x="17" y="9" onmousedown="handleZoom(evt,'in')"/>
                <use id="zoomminus" xlink:href="#zoomMin" x="42" y="9" onmousedown="handleZoom(evt,'out')"/>
                <use id="reset" xlink:href="#resetDef" x="30" y="36" onmousedown="handleReset()"/>
                <g id="arrowUp" xlink:href="#dirArrow" transform="translate(30 24)" onmousedown="handlePan(0,-1)">
                  <use xlink:href="#rim" fill="#404040">
                        <set attributeName="fill" to="#808080" begin="arrowUp.mouseover" end="arrowUp.mouseout"/>
                  </use>
                  <path fill="none" stroke="white" stroke-width="1.5" d="M0,-3.0v7 M-2.5,-0.5L0,-3.0L2.5,-0.5"/>
                </g>
                <g id="arrowRight" xlink:href="#dirArrow" transform="rotate(90) translate(36 -43)" onmousedown="handlePan(1,0)">
                  <use xlink:href="#rim" fill="#404040">
                        <set attributeName="fill" to="#808080" begin="arrowRight.mouseover" end="arrowRight.mouseout"/>
                  </use>
                  <path fill="none" stroke="white" stroke-width="1.5" d="M0,-3.0v7 M-2.5,-0.5L0,-3.0L2.5,-0.5"/>
                </g>
                <g id="arrowDown" xlink:href="#dirArrow" transform="rotate(180) translate(-30 -48)" onmousedown="handlePan(0,1)">
                  <use xlink:href="#rim" fill="#404040">
                        <set attributeName="fill" to="#808080" begin="arrowDown.mouseover" end="arrowDown.mouseout"/>
                  </use>
                  <path fill="none" stroke="white" stroke-width="1.5" d="M0,-3.0v7 M-2.5,-0.5L0,-3.0L2.5,-0.5"/>
                </g>
                <g id="arrowLeft" xlink:href="#dirArrow" transform="rotate(270) translate(-36 17)" onmousedown="handlePan(-1,0)">
                  <use xlink:href="#rim" fill="#404040">
                        <set attributeName="fill" to="#808080" begin="arrowLeft.mouseover" end="arrowLeft.mouseout"/>
                  </use>
                  <path fill="none" stroke="white" stroke-width="1.5" d="M0,-3.0v7 M-2.5,-0.5L0,-3.0L2.5,-0.5"/>
                </g>
        </g>
        <svg viewBox="0 0 15 15" width="100%" height="30px" preserveAspectRatio="xMaxYMin meet">
         <g id="arrow_out" transform="scale(0.3 0.3)">
          <a xlink:href="a00264_a2d096577f005400d0c78d9a7818396f6_cgraph_org.svg" target="_base">
           <rect id="button" ry="5" rx="5" y="6" x="6" height="38" width="38"
                fill="#f2f5e9" fill-opacity="0.5" stroke="#606060" stroke-width="1.0"/>
           <path id="arrow"
             d="M 11.500037,31.436501 C 11.940474,20.09759 22.043105,11.32322 32.158766,21.979434 L 37.068811,17.246167 C 37.068811,17.246167 37.088388,32 37.088388,32 L 22.160133,31.978069 C 22.160133,31.978069 26.997745,27.140456 26.997745,27.140456 C 18.528582,18.264221 13.291696,25.230495 11.500037,31.436501 z"
             style="fill:#404040;"/>
          </a>
         </g>
        </svg>
</svg>
