<?xml version="1.0" encoding="UTF-8" standalone="no"?>
<!DOCTYPE svg PUBLIC "-//W3C//DTD SVG 1.1//EN"
 "http://www.w3.org/Graphics/SVG/1.1/DTD/svg11.dtd">
<!-- Generated by graphviz version 2.38.0 (20140413.2041)
 -->
<!-- Title: nars.inference.TruthFunctions.conversion Pages: 1 -->
<svg width="2712pt" height="39pt"
 viewBox="0.00 0.00 2712.00 39.00" xmlns="http://www.w3.org/2000/svg" xmlns:xlink="http://www.w3.org/1999/xlink">
<g id="graph0" class="graph" transform="scale(1 1) rotate(0) translate(4 35)">
<title>nars.inference.TruthFunctions.conversion</title>
<!-- Node103 -->
<g id="node1" class="node"><title>Node103</title>
<polygon fill="#bfbfbf" stroke="black" points="0,-6 0,-25 197,-25 197,-6 0,-6"/>
<text text-anchor="middle" x="98.5" y="-13" font-family="Helvetica,sans-Serif" font-size="10.00">nars.inference.TruthFunctions.conversion</text>
</g>
<!-- Node104 -->
<g id="node2" class="node"><title>Node104</title>
<g id="a_node2"><a xlink:href="../../dd/dd7/a00248.html#aeb46ba9d63958c022519607076ce1273" target="_top" xlink:title="{ ">
<polygon fill="none" stroke="black" points="233,-6 233,-25 413,-25 413,-6 233,-6"/>
<text text-anchor="middle" x="323" y="-13" font-family="Helvetica,sans-Serif" font-size="10.00">nars.inference.LocalRules.conversion</text>
</a>
</g>
</g>
<!-- Node103&#45;&gt;Node104 -->
<g id="edge1" class="edge"><title>Node103&#45;&gt;Node104</title>
<path fill="none" stroke="midnightblue" d="M207.179,-15.5C215.793,-15.5 224.436,-15.5 232.9,-15.5"/>
<polygon fill="midnightblue" stroke="midnightblue" points="207.092,-12.0001 197.092,-15.5 207.092,-19.0001 207.092,-12.0001"/>
</g>
<!-- Node105 -->
<g id="node3" class="node"><title>Node105</title>
<g id="a_node3"><a xlink:href="../../dd/dd7/a00248.html#a93af32adec92cf57671c32e9ccc2dffc" target="_top" xlink:title="The task and belief match reversely. ">
<polygon fill="none" stroke="black" points="449,-0.5 449,-30.5 609,-30.5 609,-0.5 449,-0.5"/>
<text text-anchor="start" x="457" y="-18.5" font-family="Helvetica,sans-Serif" font-size="10.00">nars.inference.LocalRules.match</text>
<text text-anchor="middle" x="529" y="-7.5" font-family="Helvetica,sans-Serif" font-size="10.00">Reverse</text>
</a>
</g>
</g>
<!-- Node104&#45;&gt;Node105 -->
<g id="edge2" class="edge"><title>Node104&#45;&gt;Node105</title>
<path fill="none" stroke="midnightblue" d="M423.263,-15.5C431.875,-15.5 440.512,-15.5 448.93,-15.5"/>
<polygon fill="midnightblue" stroke="midnightblue" points="423.181,-12.0001 413.181,-15.5 423.181,-19.0001 423.181,-12.0001"/>
</g>
<!-- Node106 -->
<g id="node4" class="node"><title>Node106</title>
<g id="a_node4"><a xlink:href="../../dc/ded/a00252.html#a34927349efcf87db97d23c60983b115b" target="_top" xlink:title="Syllogistic rules whose both premises are on the same asymmetric relation. ">
<polygon fill="none" stroke="black" points="645,-0.5 645,-30.5 830,-30.5 830,-0.5 645,-0.5"/>
<text text-anchor="start" x="653" y="-18.5" font-family="Helvetica,sans-Serif" font-size="10.00">nars.inference.RuleTables.asymmetric</text>
<text text-anchor="middle" x="737.5" y="-7.5" font-family="Helvetica,sans-Serif" font-size="10.00">Asymmetric</text>
</a>
</g>
</g>
<!-- Node105&#45;&gt;Node106 -->
<g id="edge3" class="edge"><title>Node105&#45;&gt;Node106</title>
<path fill="none" stroke="midnightblue" d="M619.4,-15.5C627.787,-15.5 636.297,-15.5 644.705,-15.5"/>
<polygon fill="midnightblue" stroke="midnightblue" points="619.248,-12.0001 609.248,-15.5 619.248,-19.0001 619.248,-12.0001"/>
</g>
<!-- Node107 -->
<g id="node5" class="node"><title>Node107</title>
<g id="a_node5"><a xlink:href="../../dc/ded/a00252.html#a8628d400a8ceda7fea05039ddfea319b" target="_top" xlink:title="Meta&#45;table of syllogistic rules, indexed by the content classes of the taskSentence and the belief...">
<polygon fill="none" stroke="black" points="866,-6 866,-25 1046,-25 1046,-6 866,-6"/>
<text text-anchor="middle" x="956" y="-13" font-family="Helvetica,sans-Serif" font-size="10.00">nars.inference.RuleTables.syllogisms</text>
</a>
</g>
</g>
<!-- Node106&#45;&gt;Node107 -->
<g id="edge4" class="edge"><title>Node106&#45;&gt;Node107</title>
<path fill="none" stroke="midnightblue" d="M840.084,-15.5C848.705,-15.5 857.383,-15.5 865.898,-15.5"/>
<polygon fill="midnightblue" stroke="midnightblue" points="840.002,-12.0001 830.002,-15.5 840.002,-19.0001 840.002,-12.0001"/>
</g>
<!-- Node108 -->
<g id="node6" class="node"><title>Node108</title>
<g id="a_node6"><a xlink:href="../../dc/ded/a00252.html#ac2d01dfdc40bdd47c757cb549217e6e3" target="_top" xlink:title="Entry point of the inference engine. ">
<polygon fill="none" stroke="black" points="1082,-6 1082,-25 1245,-25 1245,-6 1082,-6"/>
<text text-anchor="middle" x="1163.5" y="-13" font-family="Helvetica,sans-Serif" font-size="10.00">nars.inference.RuleTables.reason</text>
</a>
</g>
</g>
<!-- Node107&#45;&gt;Node108 -->
<g id="edge5" class="edge"><title>Node107&#45;&gt;Node108</title>
<path fill="none" stroke="midnightblue" d="M1056.24,-15.5C1064.79,-15.5 1073.37,-15.5 1081.75,-15.5"/>
<polygon fill="midnightblue" stroke="midnightblue" points="1056.24,-12.0001 1046.24,-15.5 1056.24,-19.0001 1056.24,-12.0001"/>
</g>
<!-- Node109 -->
<g id="node7" class="node"><title>Node109</title>
<g id="a_node7"><a xlink:href="../../d7/ded/a00196.html#ad6fb91dda799c3092ecb186ef24ca92a" target="_top" xlink:title="An atomic step in a concept, only called in Memory# processConcept. ">
<polygon fill="none" stroke="black" points="1281,-0.5 1281,-30.5 1400,-30.5 1400,-0.5 1281,-0.5"/>
<text text-anchor="start" x="1289" y="-18.5" font-family="Helvetica,sans-Serif" font-size="10.00">nars.entity.Concept.fire</text>
<text text-anchor="middle" x="1340.5" y="-7.5" font-family="Helvetica,sans-Serif" font-size="10.00">FromProcessConcept</text>
</a>
</g>
</g>
<!-- Node108&#45;&gt;Node109 -->
<g id="edge6" class="edge"><title>Node108&#45;&gt;Node109</title>
<path fill="none" stroke="midnightblue" d="M1255.25,-15.5C1263.91,-15.5 1272.52,-15.5 1280.76,-15.5"/>
<polygon fill="midnightblue" stroke="midnightblue" points="1255.09,-12.0001 1245.09,-15.5 1255.08,-19.0001 1255.09,-12.0001"/>
</g>
<!-- Node110 -->
<g id="node8" class="node"><title>Node110</title>
<g id="a_node8"><a xlink:href="../../d4/d27/a00392.html#a0acc4adbf6a2462245da46bcb529746c" target="_top" xlink:title="Select a concept to fireFromProcessConcept. ">
<polygon fill="none" stroke="black" points="1436,-0.5 1436,-30.5 1582,-30.5 1582,-0.5 1436,-0.5"/>
<text text-anchor="start" x="1444" y="-18.5" font-family="Helvetica,sans-Serif" font-size="10.00">nars.storage.Memory.process</text>
<text text-anchor="middle" x="1509" y="-7.5" font-family="Helvetica,sans-Serif" font-size="10.00">Concept</text>
</a>
</g>
</g>
<!-- Node109&#45;&gt;Node110 -->
<g id="edge7" class="edge"><title>Node109&#45;&gt;Node110</title>
<path fill="none" stroke="midnightblue" d="M1410.34,-15.5C1418.75,-15.5 1427.36,-15.5 1435.82,-15.5"/>
<polygon fill="midnightblue" stroke="midnightblue" points="1410.2,-12.0001 1400.2,-15.5 1410.2,-19.0001 1410.2,-12.0001"/>
</g>
<!-- Node111 -->
<g id="node9" class="node"><title>Node111</title>
<g id="a_node9"><a xlink:href="../../d4/d27/a00392.html#a59ae339d666409988d90d29be4f73a91" target="_top" xlink:title="An atomic working workCycle of the system: process new Tasks, then fireFromProcessConcept a concept...">
<polygon fill="none" stroke="black" points="1618,-0.5 1618,-30.5 1751,-30.5 1751,-0.5 1618,-0.5"/>
<text text-anchor="start" x="1626" y="-18.5" font-family="Helvetica,sans-Serif" font-size="10.00">nars.storage.Memory.work</text>
<text text-anchor="middle" x="1684.5" y="-7.5" font-family="Helvetica,sans-Serif" font-size="10.00">Cycle</text>
</a>
</g>
</g>
<!-- Node110&#45;&gt;Node111 -->
<g id="edge8" class="edge"><title>Node110&#45;&gt;Node111</title>
<path fill="none" stroke="midnightblue" d="M1592.12,-15.5C1600.72,-15.5 1609.37,-15.5 1617.76,-15.5"/>
<polygon fill="midnightblue" stroke="midnightblue" points="1592.07,-12.0001 1582.07,-15.5 1592.07,-19.0001 1592.07,-12.0001"/>
</g>
<!-- Node112 -->
<g id="node10" class="node"><title>Node112</title>
<g id="a_node10"><a xlink:href="../../df/d15/a00416.html#a0d5c797dc17d9e8d0998852915e0f303" target="_top" xlink:title="nars.storage.ReasonerBatch.doTick">
<polygon fill="none" stroke="black" points="1787,-6 1787,-25 1960,-25 1960,-6 1787,-6"/>
<text text-anchor="middle" x="1873.5" y="-13" font-family="Helvetica,sans-Serif" font-size="10.00">nars.storage.ReasonerBatch.doTick</text>
</a>
</g>
</g>
<!-- Node111&#45;&gt;Node112 -->
<g id="edge9" class="edge"><title>Node111&#45;&gt;Node112</title>
<path fill="none" stroke="midnightblue" d="M1761.34,-15.5C1769.78,-15.5 1778.42,-15.5 1786.97,-15.5"/>
<polygon fill="midnightblue" stroke="midnightblue" points="1761.17,-12.0001 1751.17,-15.5 1761.17,-19.0001 1761.17,-12.0001"/>
</g>
<!-- Node113 -->
<g id="node11" class="node"><title>Node113</title>
<g id="a_node11"><a xlink:href="../../df/d15/a00416.html#a3468aa0f99edcd66412f27922dddb880" target="_top" xlink:title="A clock tick. ">
<polygon fill="none" stroke="black" points="1996,-6 1996,-25 2156,-25 2156,-6 1996,-6"/>
<text text-anchor="middle" x="2076" y="-13" font-family="Helvetica,sans-Serif" font-size="10.00">nars.storage.ReasonerBatch.tick</text>
</a>
</g>
</g>
<!-- Node112&#45;&gt;Node113 -->
<g id="edge10" class="edge"><title>Node112&#45;&gt;Node113</title>
<path fill="none" stroke="midnightblue" d="M1970.13,-15.5C1978.7,-15.5 1987.31,-15.5 1995.71,-15.5"/>
<polygon fill="midnightblue" stroke="midnightblue" points="1970.11,-12.0001 1960.11,-15.5 1970.11,-19.0001 1970.11,-12.0001"/>
</g>
<!-- Node114 -->
<g id="node12" class="node"><title>Node114</title>
<g id="a_node12"><a xlink:href="../../d9/da1/a00396.html#a5d9cfe517bcfbe41e5251910bcd119c1" target="_top" xlink:title="Run to completion: repeatedly execute NARS working cycle, until Inputs are Finished, or 1000 steps. ">
<polygon fill="none" stroke="black" points="2192,-6 2192,-25 2336,-25 2336,-6 2192,-6"/>
<text text-anchor="middle" x="2264" y="-13" font-family="Helvetica,sans-Serif" font-size="10.00">nars.storage.NARSBatch.run</text>
</a>
</g>
</g>
<!-- Node113&#45;&gt;Node114 -->
<g id="edge11" class="edge"><title>Node113&#45;&gt;Node114</title>
<path fill="none" stroke="midnightblue" d="M2166.22,-15.5C2174.82,-15.5 2183.47,-15.5 2191.87,-15.5"/>
<polygon fill="midnightblue" stroke="midnightblue" points="2166.15,-12.0001 2156.15,-15.5 2166.15,-19.0001 2166.15,-12.0001"/>
</g>
<!-- Node115 -->
<g id="node13" class="node"><title>Node115</title>
<g id="a_node13"><a xlink:href="../../d9/da1/a00396.html#a7c307c6b842f82664de6b0e52bdf8efc" target="_top" xlink:title="non&#45;static equivalent to main(String[]) : run to completion from an input file ">
<polygon fill="none" stroke="black" points="2372,-0.5 2372,-30.5 2516,-30.5 2516,-0.5 2372,-0.5"/>
<text text-anchor="start" x="2380" y="-18.5" font-family="Helvetica,sans-Serif" font-size="10.00">nars.storage.NARSBatch.run</text>
<text text-anchor="middle" x="2444" y="-7.5" font-family="Helvetica,sans-Serif" font-size="10.00">Inference</text>
</a>
</g>
</g>
<!-- Node114&#45;&gt;Node115 -->
<g id="edge12" class="edge"><title>Node114&#45;&gt;Node115</title>
<path fill="none" stroke="midnightblue" d="M2346.17,-15.5C2354.79,-15.5 2363.51,-15.5 2372,-15.5"/>
<polygon fill="midnightblue" stroke="midnightblue" points="2346.12,-12.0001 2336.12,-15.5 2346.12,-19.0001 2346.12,-12.0001"/>
</g>
<!-- Node116 -->
<g id="node14" class="node"><title>Node116</title>
<g id="a_node14"><a xlink:href="../../d9/da1/a00396.html#abafc597289bc2f6453b5cd0dd6634e54" target="_top" xlink:title="The entry point of the standalone application. ">
<polygon fill="none" stroke="black" points="2552,-6 2552,-25 2704,-25 2704,-6 2552,-6"/>
<text text-anchor="middle" x="2628" y="-13" font-family="Helvetica,sans-Serif" font-size="10.00">nars.storage.NARSBatch.main</text>
</a>
</g>
</g>
<!-- Node115&#45;&gt;Node116 -->
<g id="edge13" class="edge"><title>Node115&#45;&gt;Node116</title>
<path fill="none" stroke="midnightblue" d="M2526.17,-15.5C2534.76,-15.5 2543.48,-15.5 2552,-15.5"/>
<polygon fill="midnightblue" stroke="midnightblue" points="2526.15,-12.0001 2516.15,-15.5 2526.15,-19.0001 2526.15,-12.0001"/>
</g>
</g>
</svg>
