<?xml version="1.0" encoding="UTF-8" standalone="no"?>
<!DOCTYPE svg PUBLIC "-//W3C//DTD SVG 1.1//EN"
 "http://www.w3.org/Graphics/SVG/1.1/DTD/svg11.dtd">
<!-- Generated by graphviz version 2.38.0 (20140413.2041)
 -->
<!-- Title: nars.inference.TruthFunctions.induction Pages: 1 -->
<!--zoomable 220 -->
<svg id="main" version="1.1" xmlns="http://www.w3.org/2000/svg" xmlns:xlink="http://www.w3.org/1999/xlink" xml:space="preserve" onload="init(evt)">
<style type="text/css"><![CDATA[
.edge:hover path { stroke: red; }
.edge:hover polygon { stroke: red; fill: red; }
]]></style>
<script type="text/javascript"><![CDATA[
var edges = document.getElementsByTagName('g');
if (edges && edges.length) {
  for (var i=0;i<edges.length;i++) {
    if (edges[i].id.substr(0,4)=='edge') {
      edges[i].setAttribute('class','edge');
    }
  }
}
]]></script>
        <defs>
                <circle id="rim" cx="0" cy="0" r="7"/>
                <circle id="rim2" cx="0" cy="0" r="3.5"/>
                <g id="zoomPlus">
                        <use xlink:href="#rim" fill="#404040">
                                <set attributeName="fill" to="#808080" begin="zoomplus.mouseover" end="zoomplus.mouseout"/>
                        </use>
                        <path d="M-4,0h8M0,-4v8" fill="none" stroke="white" stroke-width="1.5" pointer-events="none"/>
                </g>
                <g id="zoomMin">
                        <use xlink:href="#rim" fill="#404040">
                                <set attributeName="fill" to="#808080" begin="zoomminus.mouseover" end="zoomminus.mouseout"/>
                        </use>
                        <path d="M-4,0h8" fill="none" stroke="white" stroke-width="1.5" pointer-events="none"/>
                </g>
                <g id="dirArrow">
                        <path fill="none" stroke="white" stroke-width="1.5" d="M0,-3.0v7 M-2.5,-0.5L0,-3.0L2.5,-0.5"/>
                </g>
               <g id="resetDef">
                       <use xlink:href="#rim2" fill="#404040">
                               <set attributeName="fill" to="#808080" begin="reset.mouseover" end="reset.mouseout"/>
                       </use>
               </g>
        </defs>

<script type="text/javascript">
var viewWidth = 2649;
var viewHeight = 220;
var sectionId = 'dynsection-20';
</script>
<script xlink:href="../../svgpan.js"/>
<svg id="graph" class="graph">
<g id="viewport">
<title>nars.inference.TruthFunctions.induction</title>
<!-- Node183 -->
<g id="node1" class="node"><title>Node183</title>
<polygon fill="#bfbfbf" stroke="black" points="0,-66 0,-85 188,-85 188,-66 0,-66"/>
<text text-anchor="middle" x="94" y="-73" font-family="Helvetica,sans-Serif" font-size="10.00">nars.inference.TruthFunctions.induction</text>
</g>
<!-- Node184 -->
<g id="node2" class="node"><title>Node184</title>
<g id="a_node2"><a xlink:href="../../dc/ded/a00252.html#a52bb3626302eb9f10567c24ec5dbc934" target="_top" xlink:title="{&lt;(&amp;&amp;, S1, S2, S3) ==&gt; P&gt;, S1} |&#45; &lt;(&amp;&amp;, S2, S3) ==&gt; P&gt; {&lt;(&amp;&amp;, S2, S3) ==&gt; P&gt;, &lt;S1 ==&gt; S2&gt;} |&#45; &lt;(&amp;&amp;...">
<polygon fill="none" stroke="black" points="584.5,-137.5 584.5,-167.5 764.5,-167.5 764.5,-137.5 584.5,-137.5"/>
<text text-anchor="start" x="592.5" y="-155.5" font-family="Helvetica,sans-Serif" font-size="10.00">nars.inference.RuleTables.conditional</text>
<text text-anchor="middle" x="674.5" y="-144.5" font-family="Helvetica,sans-Serif" font-size="10.00">DedInd</text>
</a>
</g>
</g>
<!-- Node183&#45;&gt;Node184 -->
<g id="edge1" class="edge"><title>Node183&#45;&gt;Node184</title>
<path fill="none" stroke="midnightblue" d="M176.67,-86.3705C284.265,-100.692 472.844,-125.792 584.144,-140.606"/>
<polygon fill="midnightblue" stroke="midnightblue" points="176.89,-82.869 166.516,-85.0189 175.966,-89.8078 176.89,-82.869"/>
</g>
<!-- Node195 -->
<g id="node13" class="node"><title>Node195</title>
<g id="a_node13"><a xlink:href="../../d6/d08/a00244.html#ae7906cfca35e9c7568ace240aba808a0" target="_top" xlink:title="{&lt;M &#45;&#45;&gt; S&gt;, &lt;C ==&gt; &lt;M &#45;&#45;&gt; P&gt;&gt;} |&#45; &lt;(&amp;&amp;, &lt;#x &#45;&#45;&gt; S&gt;, C) ==&gt; &lt;#x &#45;&#45;&gt; P&gt;&gt; {&lt;M &#45;&#45;&gt; S&gt;, (&amp;&amp;, C, &lt;M &#45;&#45;&gt; P&gt;)} |&#45; (&amp;&amp;, C, &lt;&lt;#x &#45;&#45;&gt; S&gt; ==&gt; &lt;#x &#45;&#45;&gt; P&gt;&gt;) ">
<polygon fill="none" stroke="black" points="403,-60.5 403,-90.5 546,-90.5 546,-60.5 403,-60.5"/>
<text text-anchor="start" x="411" y="-78.5" font-family="Helvetica,sans-Serif" font-size="10.00">nars.inference.Compositional</text>
<text text-anchor="middle" x="474.5" y="-67.5" font-family="Helvetica,sans-Serif" font-size="10.00">Rules.introVarInner</text>
</a>
</g>
</g>
<!-- Node183&#45;&gt;Node195 -->
<g id="edge13" class="edge"><title>Node183&#45;&gt;Node195</title>
<path fill="none" stroke="midnightblue" d="M198.34,-75.5C263.245,-75.5 345.263,-75.5 402.802,-75.5"/>
<polygon fill="midnightblue" stroke="midnightblue" points="198.076,-72.0001 188.076,-75.5 198.076,-79.0001 198.076,-72.0001"/>
</g>
<!-- Node199 -->
<g id="node17" class="node"><title>Node199</title>
<g id="a_node17"><a xlink:href="../../d6/d08/a00244.html#a4e01a00f3a024ecdbd3949fefb803dae" target="_top" xlink:title="Introduce a dependent variable in an outer&#45;layer conjunction. ">
<polygon fill="none" stroke="black" points="224,-14.5 224,-44.5 367,-44.5 367,-14.5 224,-14.5"/>
<text text-anchor="start" x="232" y="-32.5" font-family="Helvetica,sans-Serif" font-size="10.00">nars.inference.Compositional</text>
<text text-anchor="middle" x="295.5" y="-21.5" font-family="Helvetica,sans-Serif" font-size="10.00">Rules.introVarOuter</text>
</a>
</g>
</g>
<!-- Node183&#45;&gt;Node199 -->
<g id="edge19" class="edge"><title>Node183&#45;&gt;Node199</title>
<path fill="none" stroke="midnightblue" d="M146.102,-63.7171C171.414,-57.8806 202.261,-50.7681 229.26,-44.5427"/>
<polygon fill="midnightblue" stroke="midnightblue" points="145.294,-60.3114 136.337,-65.9688 146.867,-67.1324 145.294,-60.3114"/>
</g>
<!-- Node185 -->
<g id="node3" class="node"><title>Node185</title>
<g id="a_node3"><a xlink:href="../../dc/ded/a00252.html#aa167c7cb73f540ded591dc584ae623c1" target="_top" xlink:title="Conditional deduction or induction, with variable unification. ">
<polygon fill="none" stroke="black" points="803,-181.5 803,-211.5 983,-211.5 983,-181.5 803,-181.5"/>
<text text-anchor="start" x="811" y="-199.5" font-family="Helvetica,sans-Serif" font-size="10.00">nars.inference.RuleTables.conditional</text>
<text text-anchor="middle" x="893" y="-188.5" font-family="Helvetica,sans-Serif" font-size="10.00">DedIndWithVar</text>
</a>
</g>
</g>
<!-- Node184&#45;&gt;Node185 -->
<g id="edge2" class="edge"><title>Node184&#45;&gt;Node185</title>
<path fill="none" stroke="midnightblue" d="M759.403,-169.552C778.745,-173.483 799.182,-177.636 818.064,-181.474"/>
<polygon fill="midnightblue" stroke="midnightblue" points="759.898,-166.081 749.401,-167.519 758.504,-172.941 759.898,-166.081"/>
</g>
<!-- Node186 -->
<g id="node4" class="node"><title>Node186</title>
<g id="a_node4"><a xlink:href="../../dc/ded/a00252.html#ac2d01dfdc40bdd47c757cb549217e6e3" target="_top" xlink:title="Entry point of the inference engine. ">
<polygon fill="none" stroke="black" points="1019,-121 1019,-140 1182,-140 1182,-121 1019,-121"/>
<text text-anchor="middle" x="1100.5" y="-128" font-family="Helvetica,sans-Serif" font-size="10.00">nars.inference.RuleTables.reason</text>
</a>
</g>
</g>
<!-- Node184&#45;&gt;Node186 -->
<g id="edge12" class="edge"><title>Node184&#45;&gt;Node186</title>
<path fill="none" stroke="midnightblue" d="M774.942,-147.34C849.192,-143.488 949.386,-138.289 1018.72,-134.691"/>
<polygon fill="midnightblue" stroke="midnightblue" points="774.448,-143.861 764.643,-147.875 774.811,-150.852 774.448,-143.861"/>
</g>
<!-- Node185&#45;&gt;Node186 -->
<g id="edge3" class="edge"><title>Node185&#45;&gt;Node186</title>
<path fill="none" stroke="midnightblue" d="M950.434,-178.375C988.984,-165.994 1038.53,-150.08 1069.66,-140.082"/>
<polygon fill="midnightblue" stroke="midnightblue" points="949.339,-175.051 940.888,-181.441 951.48,-181.715 949.339,-175.051"/>
</g>
<!-- Node187 -->
<g id="node5" class="node"><title>Node187</title>
<g id="a_node5"><a xlink:href="../../d7/ded/a00196.html#ad6fb91dda799c3092ecb186ef24ca92a" target="_top" xlink:title="An atomic step in a concept, only called in Memory# processConcept. ">
<polygon fill="none" stroke="black" points="1218,-115.5 1218,-145.5 1337,-145.5 1337,-115.5 1218,-115.5"/>
<text text-anchor="start" x="1226" y="-133.5" font-family="Helvetica,sans-Serif" font-size="10.00">nars.entity.Concept.fire</text>
<text text-anchor="middle" x="1277.5" y="-122.5" font-family="Helvetica,sans-Serif" font-size="10.00">FromProcessConcept</text>
</a>
</g>
</g>
<!-- Node186&#45;&gt;Node187 -->
<g id="edge4" class="edge"><title>Node186&#45;&gt;Node187</title>
<path fill="none" stroke="midnightblue" d="M1192.25,-130.5C1200.91,-130.5 1209.52,-130.5 1217.76,-130.5"/>
<polygon fill="midnightblue" stroke="midnightblue" points="1192.09,-127 1182.09,-130.5 1192.08,-134 1192.09,-127"/>
</g>
<!-- Node188 -->
<g id="node6" class="node"><title>Node188</title>
<g id="a_node6"><a xlink:href="../../d4/d27/a00392.html#a0acc4adbf6a2462245da46bcb529746c" target="_top" xlink:title="Select a concept to fireFromProcessConcept. ">
<polygon fill="none" stroke="black" points="1373,-115.5 1373,-145.5 1519,-145.5 1519,-115.5 1373,-115.5"/>
<text text-anchor="start" x="1381" y="-133.5" font-family="Helvetica,sans-Serif" font-size="10.00">nars.storage.Memory.process</text>
<text text-anchor="middle" x="1446" y="-122.5" font-family="Helvetica,sans-Serif" font-size="10.00">Concept</text>
</a>
</g>
</g>
<!-- Node187&#45;&gt;Node188 -->
<g id="edge5" class="edge"><title>Node187&#45;&gt;Node188</title>
<path fill="none" stroke="midnightblue" d="M1347.34,-130.5C1355.75,-130.5 1364.36,-130.5 1372.82,-130.5"/>
<polygon fill="midnightblue" stroke="midnightblue" points="1347.2,-127 1337.2,-130.5 1347.2,-134 1347.2,-127"/>
</g>
<!-- Node189 -->
<g id="node7" class="node"><title>Node189</title>
<g id="a_node7"><a xlink:href="../../d4/d27/a00392.html#a59ae339d666409988d90d29be4f73a91" target="_top" xlink:title="An atomic working workCycle of the system: process new Tasks, then fireFromProcessConcept a concept...">
<polygon fill="none" stroke="black" points="1555,-115.5 1555,-145.5 1688,-145.5 1688,-115.5 1555,-115.5"/>
<text text-anchor="start" x="1563" y="-133.5" font-family="Helvetica,sans-Serif" font-size="10.00">nars.storage.Memory.work</text>
<text text-anchor="middle" x="1621.5" y="-122.5" font-family="Helvetica,sans-Serif" font-size="10.00">Cycle</text>
</a>
</g>
</g>
<!-- Node188&#45;&gt;Node189 -->
<g id="edge6" class="edge"><title>Node188&#45;&gt;Node189</title>
<path fill="none" stroke="midnightblue" d="M1529.12,-130.5C1537.72,-130.5 1546.37,-130.5 1554.76,-130.5"/>
<polygon fill="midnightblue" stroke="midnightblue" points="1529.07,-127 1519.07,-130.5 1529.07,-134 1529.07,-127"/>
</g>
<!-- Node190 -->
<g id="node8" class="node"><title>Node190</title>
<g id="a_node8"><a xlink:href="../../df/d15/a00416.html#a0d5c797dc17d9e8d0998852915e0f303" target="_top" xlink:title="nars.storage.ReasonerBatch.doTick">
<polygon fill="none" stroke="black" points="1724,-121 1724,-140 1897,-140 1897,-121 1724,-121"/>
<text text-anchor="middle" x="1810.5" y="-128" font-family="Helvetica,sans-Serif" font-size="10.00">nars.storage.ReasonerBatch.doTick</text>
</a>
</g>
</g>
<!-- Node189&#45;&gt;Node190 -->
<g id="edge7" class="edge"><title>Node189&#45;&gt;Node190</title>
<path fill="none" stroke="midnightblue" d="M1698.34,-130.5C1706.78,-130.5 1715.42,-130.5 1723.97,-130.5"/>
<polygon fill="midnightblue" stroke="midnightblue" points="1698.17,-127 1688.17,-130.5 1698.17,-134 1698.17,-127"/>
</g>
<!-- Node191 -->
<g id="node9" class="node"><title>Node191</title>
<g id="a_node9"><a xlink:href="../../df/d15/a00416.html#a3468aa0f99edcd66412f27922dddb880" target="_top" xlink:title="A clock tick. ">
<polygon fill="none" stroke="black" points="1933,-121 1933,-140 2093,-140 2093,-121 1933,-121"/>
<text text-anchor="middle" x="2013" y="-128" font-family="Helvetica,sans-Serif" font-size="10.00">nars.storage.ReasonerBatch.tick</text>
</a>
</g>
</g>
<!-- Node190&#45;&gt;Node191 -->
<g id="edge8" class="edge"><title>Node190&#45;&gt;Node191</title>
<path fill="none" stroke="midnightblue" d="M1907.13,-130.5C1915.7,-130.5 1924.31,-130.5 1932.71,-130.5"/>
<polygon fill="midnightblue" stroke="midnightblue" points="1907.11,-127 1897.11,-130.5 1907.11,-134 1907.11,-127"/>
</g>
<!-- Node192 -->
<g id="node10" class="node"><title>Node192</title>
<g id="a_node10"><a xlink:href="../../d9/da1/a00396.html#a5d9cfe517bcfbe41e5251910bcd119c1" target="_top" xlink:title="Run to completion: repeatedly execute NARS working cycle, until Inputs are Finished, or 1000 steps. ">
<polygon fill="none" stroke="black" points="2129,-121 2129,-140 2273,-140 2273,-121 2129,-121"/>
<text text-anchor="middle" x="2201" y="-128" font-family="Helvetica,sans-Serif" font-size="10.00">nars.storage.NARSBatch.run</text>
</a>
</g>
</g>
<!-- Node191&#45;&gt;Node192 -->
<g id="edge9" class="edge"><title>Node191&#45;&gt;Node192</title>
<path fill="none" stroke="midnightblue" d="M2103.22,-130.5C2111.82,-130.5 2120.47,-130.5 2128.87,-130.5"/>
<polygon fill="midnightblue" stroke="midnightblue" points="2103.15,-127 2093.15,-130.5 2103.15,-134 2103.15,-127"/>
</g>
<!-- Node193 -->
<g id="node11" class="node"><title>Node193</title>
<g id="a_node11"><a xlink:href="../../d9/da1/a00396.html#a7c307c6b842f82664de6b0e52bdf8efc" target="_top" xlink:title="non&#45;static equivalent to main(String[]) : run to completion from an input file ">
<polygon fill="none" stroke="black" points="2309,-115.5 2309,-145.5 2453,-145.5 2453,-115.5 2309,-115.5"/>
<text text-anchor="start" x="2317" y="-133.5" font-family="Helvetica,sans-Serif" font-size="10.00">nars.storage.NARSBatch.run</text>
<text text-anchor="middle" x="2381" y="-122.5" font-family="Helvetica,sans-Serif" font-size="10.00">Inference</text>
</a>
</g>
</g>
<!-- Node192&#45;&gt;Node193 -->
<g id="edge10" class="edge"><title>Node192&#45;&gt;Node193</title>
<path fill="none" stroke="midnightblue" d="M2283.17,-130.5C2291.79,-130.5 2300.51,-130.5 2309,-130.5"/>
<polygon fill="midnightblue" stroke="midnightblue" points="2283.12,-127 2273.12,-130.5 2283.12,-134 2283.12,-127"/>
</g>
<!-- Node194 -->
<g id="node12" class="node"><title>Node194</title>
<g id="a_node12"><a xlink:href="../../d9/da1/a00396.html#abafc597289bc2f6453b5cd0dd6634e54" target="_top" xlink:title="The entry point of the standalone application. ">
<polygon fill="none" stroke="black" points="2489,-121 2489,-140 2641,-140 2641,-121 2489,-121"/>
<text text-anchor="middle" x="2565" y="-128" font-family="Helvetica,sans-Serif" font-size="10.00">nars.storage.NARSBatch.main</text>
</a>
</g>
</g>
<!-- Node193&#45;&gt;Node194 -->
<g id="edge11" class="edge"><title>Node193&#45;&gt;Node194</title>
<path fill="none" stroke="midnightblue" d="M2463.17,-130.5C2471.76,-130.5 2480.48,-130.5 2489,-130.5"/>
<polygon fill="midnightblue" stroke="midnightblue" points="2463.15,-127 2453.15,-130.5 2463.15,-134 2463.15,-127"/>
</g>
<!-- Node196 -->
<g id="node14" class="node"><title>Node196</title>
<g id="a_node14"><a xlink:href="../../dc/ded/a00252.html#a54a7ceba4f123db5035e3b85063c91f1" target="_top" xlink:title="Inference between a compound term and a statement. ">
<polygon fill="none" stroke="black" points="803.5,-93.5 803.5,-123.5 982.5,-123.5 982.5,-93.5 803.5,-93.5"/>
<text text-anchor="start" x="811.5" y="-111.5" font-family="Helvetica,sans-Serif" font-size="10.00">nars.inference.RuleTables.compound</text>
<text text-anchor="middle" x="893" y="-100.5" font-family="Helvetica,sans-Serif" font-size="10.00">AndStatement</text>
</a>
</g>
</g>
<!-- Node195&#45;&gt;Node196 -->
<g id="edge14" class="edge"><title>Node195&#45;&gt;Node196</title>
<path fill="none" stroke="midnightblue" d="M556.321,-85.8557C564.982,-86.819 573.669,-87.7234 582,-88.5 656.507,-95.4451 741.314,-100.737 803.369,-104.127"/>
<polygon fill="midnightblue" stroke="midnightblue" points="556.52,-82.3559 546.188,-84.7018 555.728,-89.3109 556.52,-82.3559"/>
</g>
<!-- Node197 -->
<g id="node15" class="node"><title>Node197</title>
<g id="a_node15"><a xlink:href="../../dc/ded/a00252.html#af6c973743270b2739d4ad25f16975da1" target="_top" xlink:title="The detachment rule, with variable unification. ">
<polygon fill="none" stroke="black" points="582,-49.5 582,-79.5 767,-79.5 767,-49.5 582,-49.5"/>
<text text-anchor="start" x="590" y="-67.5" font-family="Helvetica,sans-Serif" font-size="10.00">nars.inference.RuleTables.detachment</text>
<text text-anchor="middle" x="674.5" y="-56.5" font-family="Helvetica,sans-Serif" font-size="10.00">WithVar</text>
</a>
</g>
</g>
<!-- Node195&#45;&gt;Node197 -->
<g id="edge16" class="edge"><title>Node195&#45;&gt;Node197</title>
<path fill="none" stroke="midnightblue" d="M556.284,-71.012C564.685,-70.5453 573.267,-70.0685 581.777,-69.5957"/>
<polygon fill="midnightblue" stroke="midnightblue" points="555.934,-67.5259 546.144,-71.5753 556.323,-74.5152 555.934,-67.5259"/>
</g>
<!-- Node196&#45;&gt;Node186 -->
<g id="edge15" class="edge"><title>Node196&#45;&gt;Node186</title>
<path fill="none" stroke="midnightblue" d="M992.863,-119.084C1001.6,-120.019 1010.37,-120.958 1018.93,-121.874"/>
<polygon fill="midnightblue" stroke="midnightblue" points="992.957,-115.574 982.642,-117.99 992.212,-122.534 992.957,-115.574"/>
</g>
<!-- Node198 -->
<g id="node16" class="node"><title>Node198</title>
<g id="a_node16"><a xlink:href="../../dc/ded/a00252.html#a8628d400a8ceda7fea05039ddfea319b" target="_top" xlink:title="Meta&#45;table of syllogistic rules, indexed by the content classes of the taskSentence and the belief...">
<polygon fill="none" stroke="black" points="803,-55 803,-74 983,-74 983,-55 803,-55"/>
<text text-anchor="middle" x="893" y="-62" font-family="Helvetica,sans-Serif" font-size="10.00">nars.inference.RuleTables.syllogisms</text>
</a>
</g>
</g>
<!-- Node197&#45;&gt;Node198 -->
<g id="edge17" class="edge"><title>Node197&#45;&gt;Node198</title>
<path fill="none" stroke="midnightblue" d="M777.084,-64.5C785.705,-64.5 794.383,-64.5 802.898,-64.5"/>
<polygon fill="midnightblue" stroke="midnightblue" points="777.002,-61.0001 767.002,-64.5 777.002,-68.0001 777.002,-61.0001"/>
</g>
<!-- Node198&#45;&gt;Node186 -->
<g id="edge18" class="edge"><title>Node198&#45;&gt;Node186</title>
<path fill="none" stroke="midnightblue" d="M955.982,-76.2858C965.108,-78.4383 974.346,-80.8524 983,-83.5 1017.41,-94.0277 1055.86,-110.509 1078.85,-120.896"/>
<polygon fill="midnightblue" stroke="midnightblue" points="956.683,-72.8559 946.156,-74.0542 955.133,-79.6821 956.683,-72.8559"/>
</g>
<!-- Node200 -->
<g id="node18" class="node"><title>Node200</title>
<g id="a_node18"><a xlink:href="../../d6/d08/a00244.html#a53f7edf7bfe7433da42e8fcf36fd6604" target="_top" xlink:title="{&lt;S ==&gt; M&gt;, ">
<polygon fill="none" stroke="black" points="403,-11.5 403,-41.5 546,-41.5 546,-11.5 403,-11.5"/>
<text text-anchor="start" x="411" y="-29.5" font-family="Helvetica,sans-Serif" font-size="10.00">nars.inference.Compositional</text>
<text text-anchor="middle" x="474.5" y="-18.5" font-family="Helvetica,sans-Serif" font-size="10.00">Rules.composeCompound</text>
</a>
</g>
</g>
<!-- Node199&#45;&gt;Node200 -->
<g id="edge20" class="edge"><title>Node199&#45;&gt;Node200</title>
<path fill="none" stroke="midnightblue" d="M377.494,-28.1272C385.973,-27.9835 394.544,-27.8382 402.894,-27.6967"/>
<polygon fill="midnightblue" stroke="midnightblue" points="377.157,-24.6323 367.218,-28.3014 377.276,-31.6313 377.157,-24.6323"/>
</g>
<!-- Node201 -->
<g id="node19" class="node"><title>Node201</title>
<g id="a_node19"><a xlink:href="../../dc/ded/a00252.html#a34927349efcf87db97d23c60983b115b" target="_top" xlink:title="Syllogistic rules whose both premises are on the same asymmetric relation. ">
<polygon fill="none" stroke="black" points="582,-0.5 582,-30.5 767,-30.5 767,-0.5 582,-0.5"/>
<text text-anchor="start" x="590" y="-18.5" font-family="Helvetica,sans-Serif" font-size="10.00">nars.inference.RuleTables.asymmetric</text>
<text text-anchor="middle" x="674.5" y="-7.5" font-family="Helvetica,sans-Serif" font-size="10.00">Asymmetric</text>
</a>
</g>
</g>
<!-- Node200&#45;&gt;Node201 -->
<g id="edge21" class="edge"><title>Node200&#45;&gt;Node201</title>
<path fill="none" stroke="midnightblue" d="M556.284,-22.012C564.685,-21.5453 573.267,-21.0685 581.777,-20.5957"/>
<polygon fill="midnightblue" stroke="midnightblue" points="555.934,-18.5259 546.144,-22.5753 556.323,-25.5152 555.934,-18.5259"/>
</g>
<!-- Node201&#45;&gt;Node198 -->
<g id="edge22" class="edge"><title>Node201&#45;&gt;Node198</title>
<path fill="none" stroke="midnightblue" d="M751.99,-32.8119C784.905,-40.2615 822.118,-48.6838 849.902,-54.972"/>
<polygon fill="midnightblue" stroke="midnightblue" points="752.454,-29.3285 741.928,-30.5346 750.909,-36.1558 752.454,-29.3285"/>
</g>
</g>
</svg>
        <g id="navigator" transform="translate(0 0)" fill="#404254">
                <rect fill="#f2f5e9" fill-opacity="0.5" stroke="#606060" stroke-width=".5" x="0" y="0" width="60" height="60"/>
                <use id="zoomplus" xlink:href="#zoomPlus" x="17" y="9" onmousedown="handleZoom(evt,'in')"/>
                <use id="zoomminus" xlink:href="#zoomMin" x="42" y="9" onmousedown="handleZoom(evt,'out')"/>
                <use id="reset" xlink:href="#resetDef" x="30" y="36" onmousedown="handleReset()"/>
                <g id="arrowUp" xlink:href="#dirArrow" transform="translate(30 24)" onmousedown="handlePan(0,-1)">
                  <use xlink:href="#rim" fill="#404040">
                        <set attributeName="fill" to="#808080" begin="arrowUp.mouseover" end="arrowUp.mouseout"/>
                  </use>
                  <path fill="none" stroke="white" stroke-width="1.5" d="M0,-3.0v7 M-2.5,-0.5L0,-3.0L2.5,-0.5"/>
                </g>
                <g id="arrowRight" xlink:href="#dirArrow" transform="rotate(90) translate(36 -43)" onmousedown="handlePan(1,0)">
                  <use xlink:href="#rim" fill="#404040">
                        <set attributeName="fill" to="#808080" begin="arrowRight.mouseover" end="arrowRight.mouseout"/>
                  </use>
                  <path fill="none" stroke="white" stroke-width="1.5" d="M0,-3.0v7 M-2.5,-0.5L0,-3.0L2.5,-0.5"/>
                </g>
                <g id="arrowDown" xlink:href="#dirArrow" transform="rotate(180) translate(-30 -48)" onmousedown="handlePan(0,1)">
                  <use xlink:href="#rim" fill="#404040">
                        <set attributeName="fill" to="#808080" begin="arrowDown.mouseover" end="arrowDown.mouseout"/>
                  </use>
                  <path fill="none" stroke="white" stroke-width="1.5" d="M0,-3.0v7 M-2.5,-0.5L0,-3.0L2.5,-0.5"/>
                </g>
                <g id="arrowLeft" xlink:href="#dirArrow" transform="rotate(270) translate(-36 17)" onmousedown="handlePan(-1,0)">
                  <use xlink:href="#rim" fill="#404040">
                        <set attributeName="fill" to="#808080" begin="arrowLeft.mouseover" end="arrowLeft.mouseout"/>
                  </use>
                  <path fill="none" stroke="white" stroke-width="1.5" d="M0,-3.0v7 M-2.5,-0.5L0,-3.0L2.5,-0.5"/>
                </g>
        </g>
        <svg viewBox="0 0 15 15" width="100%" height="30px" preserveAspectRatio="xMaxYMin meet">
         <g id="arrow_out" transform="scale(0.3 0.3)">
          <a xlink:href="a00264_acf5ba535f909fc354c46d17ca6c16f08_icgraph_org.svg" target="_base">
           <rect id="button" ry="5" rx="5" y="6" x="6" height="38" width="38"
                fill="#f2f5e9" fill-opacity="0.5" stroke="#606060" stroke-width="1.0"/>
           <path id="arrow"
             d="M 11.500037,31.436501 C 11.940474,20.09759 22.043105,11.32322 32.158766,21.979434 L 37.068811,17.246167 C 37.068811,17.246167 37.088388,32 37.088388,32 L 22.160133,31.978069 C 22.160133,31.978069 26.997745,27.140456 26.997745,27.140456 C 18.528582,18.264221 13.291696,25.230495 11.500037,31.436501 z"
             style="fill:#404040;"/>
          </a>
         </g>
        </svg>
</svg>
