<?xml version="1.0" encoding="UTF-8" standalone="no"?>
<!DOCTYPE svg PUBLIC "-//W3C//DTD SVG 1.1//EN"
 "http://www.w3.org/Graphics/SVG/1.1/DTD/svg11.dtd">
<!-- Generated by graphviz version 2.38.0 (20140413.2041)
 -->
<!-- Title: nars.inference.TruthFunctions.comparison Pages: 1 -->
<!--zoomable 127 -->
<svg id="main" version="1.1" xmlns="http://www.w3.org/2000/svg" xmlns:xlink="http://www.w3.org/1999/xlink" xml:space="preserve" onload="init(evt)">
<style type="text/css"><![CDATA[
.edge:hover path { stroke: red; }
.edge:hover polygon { stroke: red; fill: red; }
]]></style>
<script type="text/javascript"><![CDATA[
var edges = document.getElementsByTagName('g');
if (edges && edges.length) {
  for (var i=0;i<edges.length;i++) {
    if (edges[i].id.substr(0,4)=='edge') {
      edges[i].setAttribute('class','edge');
    }
  }
}
]]></script>
        <defs>
                <circle id="rim" cx="0" cy="0" r="7"/>
                <circle id="rim2" cx="0" cy="0" r="3.5"/>
                <g id="zoomPlus">
                        <use xlink:href="#rim" fill="#404040">
                                <set attributeName="fill" to="#808080" begin="zoomplus.mouseover" end="zoomplus.mouseout"/>
                        </use>
                        <path d="M-4,0h8M0,-4v8" fill="none" stroke="white" stroke-width="1.5" pointer-events="none"/>
                </g>
                <g id="zoomMin">
                        <use xlink:href="#rim" fill="#404040">
                                <set attributeName="fill" to="#808080" begin="zoomminus.mouseover" end="zoomminus.mouseout"/>
                        </use>
                        <path d="M-4,0h8" fill="none" stroke="white" stroke-width="1.5" pointer-events="none"/>
                </g>
                <g id="dirArrow">
                        <path fill="none" stroke="white" stroke-width="1.5" d="M0,-3.0v7 M-2.5,-0.5L0,-3.0L2.5,-0.5"/>
                </g>
               <g id="resetDef">
                       <use xlink:href="#rim2" fill="#404040">
                               <set attributeName="fill" to="#808080" begin="reset.mouseover" end="reset.mouseout"/>
                       </use>
               </g>
        </defs>

<script type="text/javascript">
var viewWidth = 2679;
var viewHeight = 127;
var sectionId = 'dynsection-9';
</script>
<script xlink:href="../../svgpan.js"/>
<svg id="graph" class="graph">
<g id="viewport">
<title>nars.inference.TruthFunctions.comparison</title>
<!-- Node83 -->
<g id="node1" class="node"><title>Node83</title>
<polygon fill="#bfbfbf" stroke="black" points="0,-44.5 0,-63.5 200,-63.5 200,-44.5 0,-44.5"/>
<text text-anchor="middle" x="100" y="-51.5" font-family="Helvetica,sans-Serif" font-size="10.00">nars.inference.TruthFunctions.comparison</text>
</g>
<!-- Node84 -->
<g id="node2" class="node"><title>Node84</title>
<g id="a_node2"><a xlink:href="../../dc/ded/a00252.html#ab124c9151308789ed5f1e5562adeef96" target="_top" xlink:title="{&lt;M ==&gt; S&gt;, &lt;M ==&gt; P&gt;} |&#45; {&lt;S ==&gt; P&gt;, ">
<polygon fill="none" stroke="black" points="415,-39 415,-69 564,-69 564,-39 415,-39"/>
<text text-anchor="start" x="423" y="-57" font-family="Helvetica,sans-Serif" font-size="10.00">nars.inference.RuleTables.abd</text>
<text text-anchor="middle" x="489.5" y="-46" font-family="Helvetica,sans-Serif" font-size="10.00">IndCom</text>
</a>
</g>
</g>
<!-- Node83&#45;&gt;Node84 -->
<g id="edge1" class="edge"><title>Node83&#45;&gt;Node84</title>
<path fill="none" stroke="midnightblue" d="M210.382,-54C275.733,-54 356.998,-54 414.772,-54"/>
<polygon fill="midnightblue" stroke="midnightblue" points="210.036,-50.5001 200.036,-54 210.036,-57.5001 210.036,-50.5001"/>
</g>
<!-- Node96 -->
<g id="node14" class="node"><title>Node96</title>
<g id="a_node14"><a xlink:href="../../dc/ded/a00252.html#aac2b267fcfa9bb34e03d44a410bfd92b" target="_top" xlink:title="{&lt;(&amp;&amp;, S1, S2) &lt;=&gt; P&gt;, (&amp;&amp;, S1, S2)} |&#45; P ">
<polygon fill="none" stroke="black" points="600,-0.5 600,-19.5 797,-19.5 797,-0.5 600,-0.5"/>
<text text-anchor="middle" x="698.5" y="-7.5" font-family="Helvetica,sans-Serif" font-size="10.00">nars.inference.RuleTables.conditionalAna</text>
</a>
</g>
</g>
<!-- Node83&#45;&gt;Node96 -->
<g id="edge13" class="edge"><title>Node83&#45;&gt;Node96</title>
<path fill="none" stroke="midnightblue" d="M210.623,-44.9398C270.921,-40.0399 347.074,-33.9881 415,-29 476.402,-24.4909 545.345,-19.846 599.751,-16.2774"/>
<polygon fill="midnightblue" stroke="midnightblue" points="210.005,-41.4784 200.322,-45.7782 210.573,-48.4554 210.005,-41.4784"/>
</g>
<!-- Node97 -->
<g id="node15" class="node"><title>Node97</title>
<g id="a_node15"><a xlink:href="../../d6/d08/a00244.html#a4e01a00f3a024ecdbd3949fefb803dae" target="_top" xlink:title="Introduce a dependent variable in an outer&#45;layer conjunction. ">
<polygon fill="none" stroke="black" points="236,-85 236,-115 379,-115 379,-85 236,-85"/>
<text text-anchor="start" x="244" y="-103" font-family="Helvetica,sans-Serif" font-size="10.00">nars.inference.Compositional</text>
<text text-anchor="middle" x="307.5" y="-92" font-family="Helvetica,sans-Serif" font-size="10.00">Rules.introVarOuter</text>
</a>
</g>
</g>
<!-- Node83&#45;&gt;Node97 -->
<g id="edge15" class="edge"><title>Node83&#45;&gt;Node97</title>
<path fill="none" stroke="midnightblue" d="M153.639,-65.7829C179.713,-71.6194 211.487,-78.7319 239.298,-84.9573"/>
<polygon fill="midnightblue" stroke="midnightblue" points="154.103,-62.3002 143.58,-63.5312 152.574,-69.1312 154.103,-62.3002"/>
</g>
<!-- Node85 -->
<g id="node3" class="node"><title>Node85</title>
<g id="a_node3"><a xlink:href="../../dc/ded/a00252.html#a34927349efcf87db97d23c60983b115b" target="_top" xlink:title="Syllogistic rules whose both premises are on the same asymmetric relation. ">
<polygon fill="none" stroke="black" points="606,-39 606,-69 791,-69 791,-39 606,-39"/>
<text text-anchor="start" x="614" y="-57" font-family="Helvetica,sans-Serif" font-size="10.00">nars.inference.RuleTables.asymmetric</text>
<text text-anchor="middle" x="698.5" y="-46" font-family="Helvetica,sans-Serif" font-size="10.00">Asymmetric</text>
</a>
</g>
</g>
<!-- Node84&#45;&gt;Node85 -->
<g id="edge2" class="edge"><title>Node84&#45;&gt;Node85</title>
<path fill="none" stroke="midnightblue" d="M574.296,-54C584.636,-54 595.248,-54 605.699,-54"/>
<polygon fill="midnightblue" stroke="midnightblue" points="574.063,-50.5001 564.063,-54 574.063,-57.5001 574.063,-50.5001"/>
</g>
<!-- Node86 -->
<g id="node4" class="node"><title>Node86</title>
<g id="a_node4"><a xlink:href="../../dc/ded/a00252.html#a8628d400a8ceda7fea05039ddfea319b" target="_top" xlink:title="Meta&#45;table of syllogistic rules, indexed by the content classes of the taskSentence and the belief...">
<polygon fill="none" stroke="black" points="833,-42.5 833,-61.5 1013,-61.5 1013,-42.5 833,-42.5"/>
<text text-anchor="middle" x="923" y="-49.5" font-family="Helvetica,sans-Serif" font-size="10.00">nars.inference.RuleTables.syllogisms</text>
</a>
</g>
</g>
<!-- Node85&#45;&gt;Node86 -->
<g id="edge3" class="edge"><title>Node85&#45;&gt;Node86</title>
<path fill="none" stroke="midnightblue" d="M801.346,-53.0845C811.89,-52.9898 822.547,-52.894 832.935,-52.8006"/>
<polygon fill="midnightblue" stroke="midnightblue" points="801.252,-49.5851 791.284,-53.175 801.315,-56.5849 801.252,-49.5851"/>
</g>
<!-- Node87 -->
<g id="node5" class="node"><title>Node87</title>
<g id="a_node5"><a xlink:href="../../dc/ded/a00252.html#ac2d01dfdc40bdd47c757cb549217e6e3" target="_top" xlink:title="Entry point of the inference engine. ">
<polygon fill="none" stroke="black" points="1049,-22.5 1049,-41.5 1212,-41.5 1212,-22.5 1049,-22.5"/>
<text text-anchor="middle" x="1130.5" y="-29.5" font-family="Helvetica,sans-Serif" font-size="10.00">nars.inference.RuleTables.reason</text>
</a>
</g>
</g>
<!-- Node86&#45;&gt;Node87 -->
<g id="edge4" class="edge"><title>Node86&#45;&gt;Node87</title>
<path fill="none" stroke="midnightblue" d="M1023.24,-42.3412C1031.79,-41.5093 1040.37,-40.6743 1048.75,-39.8592"/>
<polygon fill="midnightblue" stroke="midnightblue" points="1022.85,-38.8627 1013.24,-43.315 1023.53,-45.8298 1022.85,-38.8627"/>
</g>
<!-- Node88 -->
<g id="node6" class="node"><title>Node88</title>
<g id="a_node6"><a xlink:href="../../d7/ded/a00196.html#ad6fb91dda799c3092ecb186ef24ca92a" target="_top" xlink:title="An atomic step in a concept, only called in Memory# processConcept. ">
<polygon fill="none" stroke="black" points="1248,-17 1248,-47 1367,-47 1367,-17 1248,-17"/>
<text text-anchor="start" x="1256" y="-35" font-family="Helvetica,sans-Serif" font-size="10.00">nars.entity.Concept.fire</text>
<text text-anchor="middle" x="1307.5" y="-24" font-family="Helvetica,sans-Serif" font-size="10.00">FromProcessConcept</text>
</a>
</g>
</g>
<!-- Node87&#45;&gt;Node88 -->
<g id="edge5" class="edge"><title>Node87&#45;&gt;Node88</title>
<path fill="none" stroke="midnightblue" d="M1222.25,-32C1230.91,-32 1239.52,-32 1247.76,-32"/>
<polygon fill="midnightblue" stroke="midnightblue" points="1222.09,-28.5001 1212.09,-32 1222.08,-35.5001 1222.09,-28.5001"/>
</g>
<!-- Node89 -->
<g id="node7" class="node"><title>Node89</title>
<g id="a_node7"><a xlink:href="../../d4/d27/a00392.html#a0acc4adbf6a2462245da46bcb529746c" target="_top" xlink:title="Select a concept to fireFromProcessConcept. ">
<polygon fill="none" stroke="black" points="1403,-17 1403,-47 1549,-47 1549,-17 1403,-17"/>
<text text-anchor="start" x="1411" y="-35" font-family="Helvetica,sans-Serif" font-size="10.00">nars.storage.Memory.process</text>
<text text-anchor="middle" x="1476" y="-24" font-family="Helvetica,sans-Serif" font-size="10.00">Concept</text>
</a>
</g>
</g>
<!-- Node88&#45;&gt;Node89 -->
<g id="edge6" class="edge"><title>Node88&#45;&gt;Node89</title>
<path fill="none" stroke="midnightblue" d="M1377.34,-32C1385.75,-32 1394.36,-32 1402.82,-32"/>
<polygon fill="midnightblue" stroke="midnightblue" points="1377.2,-28.5001 1367.2,-32 1377.2,-35.5001 1377.2,-28.5001"/>
</g>
<!-- Node90 -->
<g id="node8" class="node"><title>Node90</title>
<g id="a_node8"><a xlink:href="../../d4/d27/a00392.html#a59ae339d666409988d90d29be4f73a91" target="_top" xlink:title="An atomic working workCycle of the system: process new Tasks, then fireFromProcessConcept a concept...">
<polygon fill="none" stroke="black" points="1585,-17 1585,-47 1718,-47 1718,-17 1585,-17"/>
<text text-anchor="start" x="1593" y="-35" font-family="Helvetica,sans-Serif" font-size="10.00">nars.storage.Memory.work</text>
<text text-anchor="middle" x="1651.5" y="-24" font-family="Helvetica,sans-Serif" font-size="10.00">Cycle</text>
</a>
</g>
</g>
<!-- Node89&#45;&gt;Node90 -->
<g id="edge7" class="edge"><title>Node89&#45;&gt;Node90</title>
<path fill="none" stroke="midnightblue" d="M1559.12,-32C1567.72,-32 1576.37,-32 1584.76,-32"/>
<polygon fill="midnightblue" stroke="midnightblue" points="1559.07,-28.5001 1549.07,-32 1559.07,-35.5001 1559.07,-28.5001"/>
</g>
<!-- Node91 -->
<g id="node9" class="node"><title>Node91</title>
<g id="a_node9"><a xlink:href="../../df/d15/a00416.html#a0d5c797dc17d9e8d0998852915e0f303" target="_top" xlink:title="nars.storage.ReasonerBatch.doTick">
<polygon fill="none" stroke="black" points="1754,-22.5 1754,-41.5 1927,-41.5 1927,-22.5 1754,-22.5"/>
<text text-anchor="middle" x="1840.5" y="-29.5" font-family="Helvetica,sans-Serif" font-size="10.00">nars.storage.ReasonerBatch.doTick</text>
</a>
</g>
</g>
<!-- Node90&#45;&gt;Node91 -->
<g id="edge8" class="edge"><title>Node90&#45;&gt;Node91</title>
<path fill="none" stroke="midnightblue" d="M1728.34,-32C1736.78,-32 1745.42,-32 1753.97,-32"/>
<polygon fill="midnightblue" stroke="midnightblue" points="1728.17,-28.5001 1718.17,-32 1728.17,-35.5001 1728.17,-28.5001"/>
</g>
<!-- Node92 -->
<g id="node10" class="node"><title>Node92</title>
<g id="a_node10"><a xlink:href="../../df/d15/a00416.html#a3468aa0f99edcd66412f27922dddb880" target="_top" xlink:title="A clock tick. ">
<polygon fill="none" stroke="black" points="1963,-22.5 1963,-41.5 2123,-41.5 2123,-22.5 1963,-22.5"/>
<text text-anchor="middle" x="2043" y="-29.5" font-family="Helvetica,sans-Serif" font-size="10.00">nars.storage.ReasonerBatch.tick</text>
</a>
</g>
</g>
<!-- Node91&#45;&gt;Node92 -->
<g id="edge9" class="edge"><title>Node91&#45;&gt;Node92</title>
<path fill="none" stroke="midnightblue" d="M1937.13,-32C1945.7,-32 1954.31,-32 1962.71,-32"/>
<polygon fill="midnightblue" stroke="midnightblue" points="1937.11,-28.5001 1927.11,-32 1937.11,-35.5001 1937.11,-28.5001"/>
</g>
<!-- Node93 -->
<g id="node11" class="node"><title>Node93</title>
<g id="a_node11"><a xlink:href="../../d9/da1/a00396.html#a5d9cfe517bcfbe41e5251910bcd119c1" target="_top" xlink:title="Run to completion: repeatedly execute NARS working cycle, until Inputs are Finished, or 1000 steps. ">
<polygon fill="none" stroke="black" points="2159,-22.5 2159,-41.5 2303,-41.5 2303,-22.5 2159,-22.5"/>
<text text-anchor="middle" x="2231" y="-29.5" font-family="Helvetica,sans-Serif" font-size="10.00">nars.storage.NARSBatch.run</text>
</a>
</g>
</g>
<!-- Node92&#45;&gt;Node93 -->
<g id="edge10" class="edge"><title>Node92&#45;&gt;Node93</title>
<path fill="none" stroke="midnightblue" d="M2133.22,-32C2141.82,-32 2150.47,-32 2158.87,-32"/>
<polygon fill="midnightblue" stroke="midnightblue" points="2133.15,-28.5001 2123.15,-32 2133.15,-35.5001 2133.15,-28.5001"/>
</g>
<!-- Node94 -->
<g id="node12" class="node"><title>Node94</title>
<g id="a_node12"><a xlink:href="../../d9/da1/a00396.html#a7c307c6b842f82664de6b0e52bdf8efc" target="_top" xlink:title="non&#45;static equivalent to main(String[]) : run to completion from an input file ">
<polygon fill="none" stroke="black" points="2339,-17 2339,-47 2483,-47 2483,-17 2339,-17"/>
<text text-anchor="start" x="2347" y="-35" font-family="Helvetica,sans-Serif" font-size="10.00">nars.storage.NARSBatch.run</text>
<text text-anchor="middle" x="2411" y="-24" font-family="Helvetica,sans-Serif" font-size="10.00">Inference</text>
</a>
</g>
</g>
<!-- Node93&#45;&gt;Node94 -->
<g id="edge11" class="edge"><title>Node93&#45;&gt;Node94</title>
<path fill="none" stroke="midnightblue" d="M2313.17,-32C2321.79,-32 2330.51,-32 2339,-32"/>
<polygon fill="midnightblue" stroke="midnightblue" points="2313.12,-28.5001 2303.12,-32 2313.12,-35.5001 2313.12,-28.5001"/>
</g>
<!-- Node95 -->
<g id="node13" class="node"><title>Node95</title>
<g id="a_node13"><a xlink:href="../../d9/da1/a00396.html#abafc597289bc2f6453b5cd0dd6634e54" target="_top" xlink:title="The entry point of the standalone application. ">
<polygon fill="none" stroke="black" points="2519,-22.5 2519,-41.5 2671,-41.5 2671,-22.5 2519,-22.5"/>
<text text-anchor="middle" x="2595" y="-29.5" font-family="Helvetica,sans-Serif" font-size="10.00">nars.storage.NARSBatch.main</text>
</a>
</g>
</g>
<!-- Node94&#45;&gt;Node95 -->
<g id="edge12" class="edge"><title>Node94&#45;&gt;Node95</title>
<path fill="none" stroke="midnightblue" d="M2493.17,-32C2501.76,-32 2510.48,-32 2519,-32"/>
<polygon fill="midnightblue" stroke="midnightblue" points="2493.15,-28.5001 2483.15,-32 2493.15,-35.5001 2493.15,-28.5001"/>
</g>
<!-- Node96&#45;&gt;Node87 -->
<g id="edge14" class="edge"><title>Node96&#45;&gt;Node87</title>
<path fill="none" stroke="midnightblue" d="M807.491,-15.5251C882.455,-19.3605 980.714,-24.3877 1048.88,-27.8755"/>
<polygon fill="midnightblue" stroke="midnightblue" points="807.239,-12.0078 797.074,-14.9921 806.882,-18.9986 807.239,-12.0078"/>
</g>
<!-- Node98 -->
<g id="node16" class="node"><title>Node98</title>
<g id="a_node16"><a xlink:href="../../d6/d08/a00244.html#a53f7edf7bfe7433da42e8fcf36fd6604" target="_top" xlink:title="{&lt;S ==&gt; M&gt;, ">
<polygon fill="none" stroke="black" points="418,-88 418,-118 561,-118 561,-88 418,-88"/>
<text text-anchor="start" x="426" y="-106" font-family="Helvetica,sans-Serif" font-size="10.00">nars.inference.Compositional</text>
<text text-anchor="middle" x="489.5" y="-95" font-family="Helvetica,sans-Serif" font-size="10.00">Rules.composeCompound</text>
</a>
</g>
</g>
<!-- Node97&#45;&gt;Node98 -->
<g id="edge16" class="edge"><title>Node97&#45;&gt;Node98</title>
<path fill="none" stroke="midnightblue" d="M389.343,-101.347C398.829,-101.505 408.452,-101.666 417.784,-101.821"/>
<polygon fill="midnightblue" stroke="midnightblue" points="389.181,-97.8443 379.124,-101.177 389.064,-104.843 389.181,-97.8443"/>
</g>
<!-- Node98&#45;&gt;Node85 -->
<g id="edge17" class="edge"><title>Node98&#45;&gt;Node85</title>
<path fill="none" stroke="midnightblue" d="M564.022,-85.5962C586.921,-80.1757 611.963,-74.248 634.107,-69.0062"/>
<polygon fill="midnightblue" stroke="midnightblue" points="562.938,-82.2559 554.014,-87.9654 564.551,-89.0677 562.938,-82.2559"/>
</g>
</g>
</svg>
        <g id="navigator" transform="translate(0 0)" fill="#404254">
                <rect fill="#f2f5e9" fill-opacity="0.5" stroke="#606060" stroke-width=".5" x="0" y="0" width="60" height="60"/>
                <use id="zoomplus" xlink:href="#zoomPlus" x="17" y="9" onmousedown="handleZoom(evt,'in')"/>
                <use id="zoomminus" xlink:href="#zoomMin" x="42" y="9" onmousedown="handleZoom(evt,'out')"/>
                <use id="reset" xlink:href="#resetDef" x="30" y="36" onmousedown="handleReset()"/>
                <g id="arrowUp" xlink:href="#dirArrow" transform="translate(30 24)" onmousedown="handlePan(0,-1)">
                  <use xlink:href="#rim" fill="#404040">
                        <set attributeName="fill" to="#808080" begin="arrowUp.mouseover" end="arrowUp.mouseout"/>
                  </use>
                  <path fill="none" stroke="white" stroke-width="1.5" d="M0,-3.0v7 M-2.5,-0.5L0,-3.0L2.5,-0.5"/>
                </g>
                <g id="arrowRight" xlink:href="#dirArrow" transform="rotate(90) translate(36 -43)" onmousedown="handlePan(1,0)">
                  <use xlink:href="#rim" fill="#404040">
                        <set attributeName="fill" to="#808080" begin="arrowRight.mouseover" end="arrowRight.mouseout"/>
                  </use>
                  <path fill="none" stroke="white" stroke-width="1.5" d="M0,-3.0v7 M-2.5,-0.5L0,-3.0L2.5,-0.5"/>
                </g>
                <g id="arrowDown" xlink:href="#dirArrow" transform="rotate(180) translate(-30 -48)" onmousedown="handlePan(0,1)">
                  <use xlink:href="#rim" fill="#404040">
                        <set attributeName="fill" to="#808080" begin="arrowDown.mouseover" end="arrowDown.mouseout"/>
                  </use>
                  <path fill="none" stroke="white" stroke-width="1.5" d="M0,-3.0v7 M-2.5,-0.5L0,-3.0L2.5,-0.5"/>
                </g>
                <g id="arrowLeft" xlink:href="#dirArrow" transform="rotate(270) translate(-36 17)" onmousedown="handlePan(-1,0)">
                  <use xlink:href="#rim" fill="#404040">
                        <set attributeName="fill" to="#808080" begin="arrowLeft.mouseover" end="arrowLeft.mouseout"/>
                  </use>
                  <path fill="none" stroke="white" stroke-width="1.5" d="M0,-3.0v7 M-2.5,-0.5L0,-3.0L2.5,-0.5"/>
                </g>
        </g>
        <svg viewBox="0 0 15 15" width="100%" height="30px" preserveAspectRatio="xMaxYMin meet">
         <g id="arrow_out" transform="scale(0.3 0.3)">
          <a xlink:href="a00264_a329c391651d2270214520ed8b2b6c22a_icgraph_org.svg" target="_base">
           <rect id="button" ry="5" rx="5" y="6" x="6" height="38" width="38"
                fill="#f2f5e9" fill-opacity="0.5" stroke="#606060" stroke-width="1.0"/>
           <path id="arrow"
             d="M 11.500037,31.436501 C 11.940474,20.09759 22.043105,11.32322 32.158766,21.979434 L 37.068811,17.246167 C 37.068811,17.246167 37.088388,32 37.088388,32 L 22.160133,31.978069 C 22.160133,31.978069 26.997745,27.140456 26.997745,27.140456 C 18.528582,18.264221 13.291696,25.230495 11.500037,31.436501 z"
             style="fill:#404040;"/>
          </a>
         </g>
        </svg>
</svg>
