<?xml version="1.0" encoding="UTF-8" standalone="no"?>
<!DOCTYPE svg PUBLIC "-//W3C//DTD SVG 1.1//EN"
 "http://www.w3.org/Graphics/SVG/1.1/DTD/svg11.dtd">
<!-- Generated by graphviz version 2.38.0 (20140413.2041)
 -->
<!-- Title: nars.inference.TruthFunctions.revision Pages: 1 -->
<svg width="2286pt" height="137pt"
 viewBox="0.00 0.00 2286.00 137.00" xmlns="http://www.w3.org/2000/svg" xmlns:xlink="http://www.w3.org/1999/xlink">
<g id="graph0" class="graph" transform="scale(1 1) rotate(0) translate(4 133)">
<title>nars.inference.TruthFunctions.revision</title>
<!-- Node312 -->
<g id="node1" class="node"><title>Node312</title>
<polygon fill="#bfbfbf" stroke="black" points="0,-79 0,-98 183,-98 183,-79 0,-79"/>
<text text-anchor="middle" x="91.5" y="-86" font-family="Helvetica,sans-Serif" font-size="10.00">nars.inference.TruthFunctions.revision</text>
</g>
<!-- Node313 -->
<g id="node2" class="node"><title>Node313</title>
<g id="a_node2"><a xlink:href="../../dd/dd7/a00248.html#afcdec4a07d241f98cd54ef706781c3cb" target="_top" xlink:title="Belief revision. ">
<polygon fill="none" stroke="black" points="219,-79 219,-98 386,-98 386,-79 219,-79"/>
<text text-anchor="middle" x="302.5" y="-86" font-family="Helvetica,sans-Serif" font-size="10.00">nars.inference.LocalRules.revision</text>
</a>
</g>
</g>
<!-- Node312&#45;&gt;Node313 -->
<g id="edge1" class="edge"><title>Node312&#45;&gt;Node313</title>
<path fill="none" stroke="midnightblue" d="M193.525,-88.5C201.966,-88.5 210.438,-88.5 218.719,-88.5"/>
<polygon fill="midnightblue" stroke="midnightblue" points="193.259,-85.0001 183.259,-88.5 193.259,-92.0001 193.259,-85.0001"/>
</g>
<!-- Node314 -->
<g id="node3" class="node"><title>Node314</title>
<g id="a_node3"><a xlink:href="../../dd/dd7/a00248.html#aac1c92950f50edd04d12229a8c992987" target="_top" xlink:title="The task and belief have the same content. ">
<polygon fill="none" stroke="black" points="422,-102 422,-121 582,-121 582,-102 422,-102"/>
<text text-anchor="middle" x="502" y="-109" font-family="Helvetica,sans-Serif" font-size="10.00">nars.inference.LocalRules.match</text>
</a>
</g>
</g>
<!-- Node313&#45;&gt;Node314 -->
<g id="edge2" class="edge"><title>Node313&#45;&gt;Node314</title>
<path fill="none" stroke="midnightblue" d="M395.244,-99.1841C404.132,-100.219 413.096,-101.263 421.846,-102.282"/>
<polygon fill="midnightblue" stroke="midnightblue" points="395.594,-95.7013 385.256,-98.021 394.784,-102.654 395.594,-95.7013"/>
</g>
<!-- Node324 -->
<g id="node13" class="node"><title>Node324</title>
<g id="a_node13"><a xlink:href="../../d7/ded/a00196.html#a40cddcc82ee28a1cf5b1f4bc14e2b078" target="_top" xlink:title="To accept a new judgment as isBelief, and check for revisions and solutions. ">
<polygon fill="none" stroke="black" points="432,-51.5 432,-81.5 572,-81.5 572,-51.5 432,-51.5"/>
<text text-anchor="start" x="440" y="-69.5" font-family="Helvetica,sans-Serif" font-size="10.00">nars.entity.Concept.process</text>
<text text-anchor="middle" x="502" y="-58.5" font-family="Helvetica,sans-Serif" font-size="10.00">Judgment</text>
</a>
</g>
</g>
<!-- Node313&#45;&gt;Node324 -->
<g id="edge12" class="edge"><title>Node313&#45;&gt;Node324</title>
<path fill="none" stroke="midnightblue" d="M396.162,-78.1781C408.177,-76.8397 420.313,-75.4879 431.855,-74.2023"/>
<polygon fill="midnightblue" stroke="midnightblue" points="395.664,-74.7118 386.113,-79.2975 396.439,-81.6688 395.664,-74.7118"/>
</g>
<!-- Node315 -->
<g id="node4" class="node"><title>Node315</title>
<g id="a_node4"><a xlink:href="../../dc/ded/a00252.html#ac2d01dfdc40bdd47c757cb549217e6e3" target="_top" xlink:title="Entry point of the inference engine. ">
<polygon fill="none" stroke="black" points="618,-103 618,-122 781,-122 781,-103 618,-103"/>
<text text-anchor="middle" x="699.5" y="-110" font-family="Helvetica,sans-Serif" font-size="10.00">nars.inference.RuleTables.reason</text>
</a>
</g>
</g>
<!-- Node314&#45;&gt;Node315 -->
<g id="edge3" class="edge"><title>Node314&#45;&gt;Node315</title>
<path fill="none" stroke="midnightblue" d="M592.499,-111.958C600.962,-112.001 609.507,-112.045 617.88,-112.088"/>
<polygon fill="midnightblue" stroke="midnightblue" points="592.253,-108.457 582.236,-111.905 592.217,-115.456 592.253,-108.457"/>
</g>
<!-- Node316 -->
<g id="node5" class="node"><title>Node316</title>
<g id="a_node5"><a xlink:href="../../d7/ded/a00196.html#ad6fb91dda799c3092ecb186ef24ca92a" target="_top" xlink:title="An atomic step in a concept, only called in Memory# processConcept. ">
<polygon fill="none" stroke="black" points="836,-98.5 836,-128.5 955,-128.5 955,-98.5 836,-98.5"/>
<text text-anchor="start" x="844" y="-116.5" font-family="Helvetica,sans-Serif" font-size="10.00">nars.entity.Concept.fire</text>
<text text-anchor="middle" x="895.5" y="-105.5" font-family="Helvetica,sans-Serif" font-size="10.00">FromProcessConcept</text>
</a>
</g>
</g>
<!-- Node315&#45;&gt;Node316 -->
<g id="edge4" class="edge"><title>Node315&#45;&gt;Node316</title>
<path fill="none" stroke="midnightblue" d="M791.461,-112.969C806.516,-113.046 821.765,-113.125 835.751,-113.197"/>
<polygon fill="midnightblue" stroke="midnightblue" points="791.106,-109.467 781.088,-112.915 791.07,-116.467 791.106,-109.467"/>
</g>
<!-- Node317 -->
<g id="node6" class="node"><title>Node317</title>
<g id="a_node6"><a xlink:href="../../d4/d27/a00392.html#a0acc4adbf6a2462245da46bcb529746c" target="_top" xlink:title="Select a concept to fireFromProcessConcept. ">
<polygon fill="none" stroke="black" points="1010,-98.5 1010,-128.5 1156,-128.5 1156,-98.5 1010,-98.5"/>
<text text-anchor="start" x="1018" y="-116.5" font-family="Helvetica,sans-Serif" font-size="10.00">nars.storage.Memory.process</text>
<text text-anchor="middle" x="1083" y="-105.5" font-family="Helvetica,sans-Serif" font-size="10.00">Concept</text>
</a>
</g>
</g>
<!-- Node316&#45;&gt;Node317 -->
<g id="edge5" class="edge"><title>Node316&#45;&gt;Node317</title>
<path fill="none" stroke="midnightblue" d="M965.519,-113.5C979.929,-113.5 995.158,-113.5 1009.68,-113.5"/>
<polygon fill="midnightblue" stroke="midnightblue" points="965.193,-110 955.193,-113.5 965.193,-117 965.193,-110"/>
</g>
<!-- Node318 -->
<g id="node7" class="node"><title>Node318</title>
<g id="a_node7"><a xlink:href="../../d4/d27/a00392.html#a59ae339d666409988d90d29be4f73a91" target="_top" xlink:title="An atomic working workCycle of the system: process new Tasks, then fireFromProcessConcept a concept...">
<polygon fill="none" stroke="black" points="1192,-49.5 1192,-79.5 1325,-79.5 1325,-49.5 1192,-49.5"/>
<text text-anchor="start" x="1200" y="-67.5" font-family="Helvetica,sans-Serif" font-size="10.00">nars.storage.Memory.work</text>
<text text-anchor="middle" x="1258.5" y="-56.5" font-family="Helvetica,sans-Serif" font-size="10.00">Cycle</text>
</a>
</g>
</g>
<!-- Node317&#45;&gt;Node318 -->
<g id="edge6" class="edge"><title>Node317&#45;&gt;Node318</title>
<path fill="none" stroke="midnightblue" d="M1147.1,-95.6788C1165.83,-90.3882 1186.16,-84.6478 1204.21,-79.5516"/>
<polygon fill="midnightblue" stroke="midnightblue" points="1146.14,-92.3123 1137.47,-98.3986 1148.05,-99.0488 1146.14,-92.3123"/>
</g>
<!-- Node319 -->
<g id="node8" class="node"><title>Node319</title>
<g id="a_node8"><a xlink:href="../../df/d15/a00416.html#a0d5c797dc17d9e8d0998852915e0f303" target="_top" xlink:title="nars.storage.ReasonerBatch.doTick">
<polygon fill="none" stroke="black" points="1361,-55 1361,-74 1534,-74 1534,-55 1361,-55"/>
<text text-anchor="middle" x="1447.5" y="-62" font-family="Helvetica,sans-Serif" font-size="10.00">nars.storage.ReasonerBatch.doTick</text>
</a>
</g>
</g>
<!-- Node318&#45;&gt;Node319 -->
<g id="edge7" class="edge"><title>Node318&#45;&gt;Node319</title>
<path fill="none" stroke="midnightblue" d="M1335.34,-64.5C1343.78,-64.5 1352.42,-64.5 1360.97,-64.5"/>
<polygon fill="midnightblue" stroke="midnightblue" points="1335.17,-61.0001 1325.17,-64.5 1335.17,-68.0001 1335.17,-61.0001"/>
</g>
<!-- Node320 -->
<g id="node9" class="node"><title>Node320</title>
<g id="a_node9"><a xlink:href="../../df/d15/a00416.html#a3468aa0f99edcd66412f27922dddb880" target="_top" xlink:title="A clock tick. ">
<polygon fill="none" stroke="black" points="1570,-55 1570,-74 1730,-74 1730,-55 1570,-55"/>
<text text-anchor="middle" x="1650" y="-62" font-family="Helvetica,sans-Serif" font-size="10.00">nars.storage.ReasonerBatch.tick</text>
</a>
</g>
</g>
<!-- Node319&#45;&gt;Node320 -->
<g id="edge8" class="edge"><title>Node319&#45;&gt;Node320</title>
<path fill="none" stroke="midnightblue" d="M1544.13,-64.5C1552.7,-64.5 1561.31,-64.5 1569.71,-64.5"/>
<polygon fill="midnightblue" stroke="midnightblue" points="1544.11,-61.0001 1534.11,-64.5 1544.11,-68.0001 1544.11,-61.0001"/>
</g>
<!-- Node321 -->
<g id="node10" class="node"><title>Node321</title>
<g id="a_node10"><a xlink:href="../../d9/da1/a00396.html#a5d9cfe517bcfbe41e5251910bcd119c1" target="_top" xlink:title="Run to completion: repeatedly execute NARS working cycle, until Inputs are Finished, or 1000 steps. ">
<polygon fill="none" stroke="black" points="1766,-55 1766,-74 1910,-74 1910,-55 1766,-55"/>
<text text-anchor="middle" x="1838" y="-62" font-family="Helvetica,sans-Serif" font-size="10.00">nars.storage.NARSBatch.run</text>
</a>
</g>
</g>
<!-- Node320&#45;&gt;Node321 -->
<g id="edge9" class="edge"><title>Node320&#45;&gt;Node321</title>
<path fill="none" stroke="midnightblue" d="M1740.22,-64.5C1748.82,-64.5 1757.47,-64.5 1765.87,-64.5"/>
<polygon fill="midnightblue" stroke="midnightblue" points="1740.15,-61.0001 1730.15,-64.5 1740.15,-68.0001 1740.15,-61.0001"/>
</g>
<!-- Node322 -->
<g id="node11" class="node"><title>Node322</title>
<g id="a_node11"><a xlink:href="../../d9/da1/a00396.html#a7c307c6b842f82664de6b0e52bdf8efc" target="_top" xlink:title="non&#45;static equivalent to main(String[]) : run to completion from an input file ">
<polygon fill="none" stroke="black" points="1946,-49.5 1946,-79.5 2090,-79.5 2090,-49.5 1946,-49.5"/>
<text text-anchor="start" x="1954" y="-67.5" font-family="Helvetica,sans-Serif" font-size="10.00">nars.storage.NARSBatch.run</text>
<text text-anchor="middle" x="2018" y="-56.5" font-family="Helvetica,sans-Serif" font-size="10.00">Inference</text>
</a>
</g>
</g>
<!-- Node321&#45;&gt;Node322 -->
<g id="edge10" class="edge"><title>Node321&#45;&gt;Node322</title>
<path fill="none" stroke="midnightblue" d="M1920.17,-64.5C1928.79,-64.5 1937.51,-64.5 1946,-64.5"/>
<polygon fill="midnightblue" stroke="midnightblue" points="1920.12,-61.0001 1910.12,-64.5 1920.12,-68.0001 1920.12,-61.0001"/>
</g>
<!-- Node323 -->
<g id="node12" class="node"><title>Node323</title>
<g id="a_node12"><a xlink:href="../../d9/da1/a00396.html#abafc597289bc2f6453b5cd0dd6634e54" target="_top" xlink:title="The entry point of the standalone application. ">
<polygon fill="none" stroke="black" points="2126,-55 2126,-74 2278,-74 2278,-55 2126,-55"/>
<text text-anchor="middle" x="2202" y="-62" font-family="Helvetica,sans-Serif" font-size="10.00">nars.storage.NARSBatch.main</text>
</a>
</g>
</g>
<!-- Node322&#45;&gt;Node323 -->
<g id="edge11" class="edge"><title>Node322&#45;&gt;Node323</title>
<path fill="none" stroke="midnightblue" d="M2100.17,-64.5C2108.76,-64.5 2117.48,-64.5 2126,-64.5"/>
<polygon fill="midnightblue" stroke="midnightblue" points="2100.15,-61.0001 2090.15,-64.5 2100.15,-68.0001 2100.15,-61.0001"/>
</g>
<!-- Node325 -->
<g id="node14" class="node"><title>Node325</title>
<g id="a_node14"><a xlink:href="../../d7/ded/a00196.html#a9ea7c3154932d7a736c105eb55daeb5c" target="_top" xlink:title="Directly process a new task. ">
<polygon fill="none" stroke="black" points="635,-49.5 635,-79.5 764,-79.5 764,-49.5 635,-49.5"/>
<text text-anchor="start" x="643" y="-67.5" font-family="Helvetica,sans-Serif" font-size="10.00">nars.entity.Concept.direct</text>
<text text-anchor="middle" x="699.5" y="-56.5" font-family="Helvetica,sans-Serif" font-size="10.00">Process</text>
</a>
</g>
</g>
<!-- Node324&#45;&gt;Node325 -->
<g id="edge13" class="edge"><title>Node324&#45;&gt;Node325</title>
<path fill="none" stroke="midnightblue" d="M582.386,-65.6879C599.875,-65.509 618.177,-65.3217 634.943,-65.1502"/>
<polygon fill="midnightblue" stroke="midnightblue" points="582.165,-62.1898 572.201,-65.7921 582.236,-69.1895 582.165,-62.1898"/>
</g>
<!-- Node326 -->
<g id="node15" class="node"><title>Node326</title>
<g id="a_node15"><a xlink:href="../../d4/d27/a00392.html#af8d07412d21a441a5c7005a477b06468" target="_top" xlink:title="Immediate processing of a new task, in constant time Local processing, in one concept only...">
<polygon fill="none" stroke="black" points="817,-49.5 817,-79.5 974,-79.5 974,-49.5 817,-49.5"/>
<text text-anchor="start" x="825" y="-67.5" font-family="Helvetica,sans-Serif" font-size="10.00">nars.storage.Memory.immediate</text>
<text text-anchor="middle" x="895.5" y="-56.5" font-family="Helvetica,sans-Serif" font-size="10.00">Process</text>
</a>
</g>
</g>
<!-- Node325&#45;&gt;Node326 -->
<g id="edge14" class="edge"><title>Node325&#45;&gt;Node326</title>
<path fill="none" stroke="midnightblue" d="M774.088,-64.5C788.105,-64.5 802.815,-64.5 816.95,-64.5"/>
<polygon fill="midnightblue" stroke="midnightblue" points="774.023,-61.0001 764.023,-64.5 774.023,-68.0001 774.023,-61.0001"/>
</g>
<!-- Node327 -->
<g id="node16" class="node"><title>Node327</title>
<g id="a_node16"><a xlink:href="../../d4/d27/a00392.html#ae43b86074c0d8f6a324696f69faa54b3" target="_top" xlink:title="Process the newTasks accumulated in the previous workCycle, accept input ones and those that correspo...">
<polygon fill="none" stroke="black" points="1010,-49.5 1010,-79.5 1156,-79.5 1156,-49.5 1010,-49.5"/>
<text text-anchor="start" x="1018" y="-67.5" font-family="Helvetica,sans-Serif" font-size="10.00">nars.storage.Memory.process</text>
<text text-anchor="middle" x="1083" y="-56.5" font-family="Helvetica,sans-Serif" font-size="10.00">NewTask</text>
</a>
</g>
</g>
<!-- Node326&#45;&gt;Node327 -->
<g id="edge15" class="edge"><title>Node326&#45;&gt;Node327</title>
<path fill="none" stroke="midnightblue" d="M984.125,-64.5C992.707,-64.5 1001.35,-64.5 1009.75,-64.5"/>
<polygon fill="midnightblue" stroke="midnightblue" points="984.094,-61.0001 974.094,-64.5 984.094,-68.0001 984.094,-61.0001"/>
</g>
<!-- Node328 -->
<g id="node17" class="node"><title>Node328</title>
<g id="a_node17"><a xlink:href="../../d4/d27/a00392.html#a5061708f88897cfdf4e0671c846762ca" target="_top" xlink:title="Select a novel task to process. ">
<polygon fill="none" stroke="black" points="1010,-0.5 1010,-30.5 1156,-30.5 1156,-0.5 1010,-0.5"/>
<text text-anchor="start" x="1018" y="-18.5" font-family="Helvetica,sans-Serif" font-size="10.00">nars.storage.Memory.process</text>
<text text-anchor="middle" x="1083" y="-7.5" font-family="Helvetica,sans-Serif" font-size="10.00">NovelTask</text>
</a>
</g>
</g>
<!-- Node326&#45;&gt;Node328 -->
<g id="edge17" class="edge"><title>Node326&#45;&gt;Node328</title>
<path fill="none" stroke="midnightblue" d="M963.215,-46.8771C983.51,-41.5163 1005.61,-35.6775 1025.19,-30.5062"/>
<polygon fill="midnightblue" stroke="midnightblue" points="962.191,-43.5275 953.417,-49.4654 963.979,-50.2953 962.191,-43.5275"/>
</g>
<!-- Node327&#45;&gt;Node318 -->
<g id="edge16" class="edge"><title>Node327&#45;&gt;Node318</title>
<path fill="none" stroke="midnightblue" d="M1166.12,-64.5C1174.72,-64.5 1183.37,-64.5 1191.76,-64.5"/>
<polygon fill="midnightblue" stroke="midnightblue" points="1166.07,-61.0001 1156.07,-64.5 1166.07,-68.0001 1166.07,-61.0001"/>
</g>
<!-- Node328&#45;&gt;Node318 -->
<g id="edge18" class="edge"><title>Node328&#45;&gt;Node318</title>
<path fill="none" stroke="midnightblue" d="M1147.1,-33.3212C1165.83,-38.6118 1186.16,-44.3522 1204.21,-49.4484"/>
<polygon fill="midnightblue" stroke="midnightblue" points="1148.05,-29.9512 1137.47,-30.6014 1146.14,-36.6877 1148.05,-29.9512"/>
</g>
</g>
</svg>
