<?xml version="1.0" encoding="UTF-8" standalone="no"?>
<!DOCTYPE svg PUBLIC "-//W3C//DTD SVG 1.1//EN"
 "http://www.w3.org/Graphics/SVG/1.1/DTD/svg11.dtd">
<!-- Generated by graphviz version 2.38.0 (20140413.2041)
 -->
<!-- Title: nars.inference.TruthFunctions.union Pages: 1 -->
<svg width="2455pt" height="39pt"
 viewBox="0.00 0.00 2455.00 39.00" xmlns="http://www.w3.org/2000/svg" xmlns:xlink="http://www.w3.org/1999/xlink">
<g id="graph0" class="graph" transform="scale(1 1) rotate(0) translate(4 35)">
<title>nars.inference.TruthFunctions.union</title>
<!-- Node333 -->
<g id="node1" class="node"><title>Node333</title>
<polygon fill="#bfbfbf" stroke="black" points="0,-6 0,-25 173,-25 173,-6 0,-6"/>
<text text-anchor="middle" x="86.5" y="-13" font-family="Helvetica,sans-Serif" font-size="10.00">nars.inference.TruthFunctions.union</text>
</g>
<!-- Node334 -->
<g id="node2" class="node"><title>Node334</title>
<g id="a_node2"><a xlink:href="../../d6/d08/a00244.html#a53f7edf7bfe7433da42e8fcf36fd6604" target="_top" xlink:title="{&lt;S ==&gt; M&gt;, ">
<polygon fill="none" stroke="black" points="209,-0.5 209,-30.5 352,-30.5 352,-0.5 209,-0.5"/>
<text text-anchor="start" x="217" y="-18.5" font-family="Helvetica,sans-Serif" font-size="10.00">nars.inference.Compositional</text>
<text text-anchor="middle" x="280.5" y="-7.5" font-family="Helvetica,sans-Serif" font-size="10.00">Rules.composeCompound</text>
</a>
</g>
</g>
<!-- Node333&#45;&gt;Node334 -->
<g id="edge1" class="edge"><title>Node333&#45;&gt;Node334</title>
<path fill="none" stroke="midnightblue" d="M183.187,-15.5C191.785,-15.5 200.386,-15.5 208.715,-15.5"/>
<polygon fill="midnightblue" stroke="midnightblue" points="183.112,-12.0001 173.112,-15.5 183.112,-19.0001 183.112,-12.0001"/>
</g>
<!-- Node335 -->
<g id="node3" class="node"><title>Node335</title>
<g id="a_node3"><a xlink:href="../../dc/ded/a00252.html#a34927349efcf87db97d23c60983b115b" target="_top" xlink:title="Syllogistic rules whose both premises are on the same asymmetric relation. ">
<polygon fill="none" stroke="black" points="388,-0.5 388,-30.5 573,-30.5 573,-0.5 388,-0.5"/>
<text text-anchor="start" x="396" y="-18.5" font-family="Helvetica,sans-Serif" font-size="10.00">nars.inference.RuleTables.asymmetric</text>
<text text-anchor="middle" x="480.5" y="-7.5" font-family="Helvetica,sans-Serif" font-size="10.00">Asymmetric</text>
</a>
</g>
</g>
<!-- Node334&#45;&gt;Node335 -->
<g id="edge2" class="edge"><title>Node334&#45;&gt;Node335</title>
<path fill="none" stroke="midnightblue" d="M362.284,-15.5C370.685,-15.5 379.267,-15.5 387.777,-15.5"/>
<polygon fill="midnightblue" stroke="midnightblue" points="362.144,-12.0001 352.144,-15.5 362.144,-19.0001 362.144,-12.0001"/>
</g>
<!-- Node336 -->
<g id="node4" class="node"><title>Node336</title>
<g id="a_node4"><a xlink:href="../../dc/ded/a00252.html#a8628d400a8ceda7fea05039ddfea319b" target="_top" xlink:title="Meta&#45;table of syllogistic rules, indexed by the content classes of the taskSentence and the belief...">
<polygon fill="none" stroke="black" points="609,-6 609,-25 789,-25 789,-6 609,-6"/>
<text text-anchor="middle" x="699" y="-13" font-family="Helvetica,sans-Serif" font-size="10.00">nars.inference.RuleTables.syllogisms</text>
</a>
</g>
</g>
<!-- Node335&#45;&gt;Node336 -->
<g id="edge3" class="edge"><title>Node335&#45;&gt;Node336</title>
<path fill="none" stroke="midnightblue" d="M583.084,-15.5C591.705,-15.5 600.383,-15.5 608.898,-15.5"/>
<polygon fill="midnightblue" stroke="midnightblue" points="583.002,-12.0001 573.002,-15.5 583.002,-19.0001 583.002,-12.0001"/>
</g>
<!-- Node337 -->
<g id="node5" class="node"><title>Node337</title>
<g id="a_node5"><a xlink:href="../../dc/ded/a00252.html#ac2d01dfdc40bdd47c757cb549217e6e3" target="_top" xlink:title="Entry point of the inference engine. ">
<polygon fill="none" stroke="black" points="825,-6 825,-25 988,-25 988,-6 825,-6"/>
<text text-anchor="middle" x="906.5" y="-13" font-family="Helvetica,sans-Serif" font-size="10.00">nars.inference.RuleTables.reason</text>
</a>
</g>
</g>
<!-- Node336&#45;&gt;Node337 -->
<g id="edge4" class="edge"><title>Node336&#45;&gt;Node337</title>
<path fill="none" stroke="midnightblue" d="M799.244,-15.5C807.792,-15.5 816.372,-15.5 824.747,-15.5"/>
<polygon fill="midnightblue" stroke="midnightblue" points="799.239,-12.0001 789.239,-15.5 799.239,-19.0001 799.239,-12.0001"/>
</g>
<!-- Node338 -->
<g id="node6" class="node"><title>Node338</title>
<g id="a_node6"><a xlink:href="../../d7/ded/a00196.html#ad6fb91dda799c3092ecb186ef24ca92a" target="_top" xlink:title="An atomic step in a concept, only called in Memory# processConcept. ">
<polygon fill="none" stroke="black" points="1024,-0.5 1024,-30.5 1143,-30.5 1143,-0.5 1024,-0.5"/>
<text text-anchor="start" x="1032" y="-18.5" font-family="Helvetica,sans-Serif" font-size="10.00">nars.entity.Concept.fire</text>
<text text-anchor="middle" x="1083.5" y="-7.5" font-family="Helvetica,sans-Serif" font-size="10.00">FromProcessConcept</text>
</a>
</g>
</g>
<!-- Node337&#45;&gt;Node338 -->
<g id="edge5" class="edge"><title>Node337&#45;&gt;Node338</title>
<path fill="none" stroke="midnightblue" d="M998.249,-15.5C1006.91,-15.5 1015.52,-15.5 1023.76,-15.5"/>
<polygon fill="midnightblue" stroke="midnightblue" points="998.085,-12.0001 988.085,-15.5 998.085,-19.0001 998.085,-12.0001"/>
</g>
<!-- Node339 -->
<g id="node7" class="node"><title>Node339</title>
<g id="a_node7"><a xlink:href="../../d4/d27/a00392.html#a0acc4adbf6a2462245da46bcb529746c" target="_top" xlink:title="Select a concept to fireFromProcessConcept. ">
<polygon fill="none" stroke="black" points="1179,-0.5 1179,-30.5 1325,-30.5 1325,-0.5 1179,-0.5"/>
<text text-anchor="start" x="1187" y="-18.5" font-family="Helvetica,sans-Serif" font-size="10.00">nars.storage.Memory.process</text>
<text text-anchor="middle" x="1252" y="-7.5" font-family="Helvetica,sans-Serif" font-size="10.00">Concept</text>
</a>
</g>
</g>
<!-- Node338&#45;&gt;Node339 -->
<g id="edge6" class="edge"><title>Node338&#45;&gt;Node339</title>
<path fill="none" stroke="midnightblue" d="M1153.34,-15.5C1161.75,-15.5 1170.36,-15.5 1178.82,-15.5"/>
<polygon fill="midnightblue" stroke="midnightblue" points="1153.2,-12.0001 1143.2,-15.5 1153.2,-19.0001 1153.2,-12.0001"/>
</g>
<!-- Node340 -->
<g id="node8" class="node"><title>Node340</title>
<g id="a_node8"><a xlink:href="../../d4/d27/a00392.html#a59ae339d666409988d90d29be4f73a91" target="_top" xlink:title="An atomic working workCycle of the system: process new Tasks, then fireFromProcessConcept a concept...">
<polygon fill="none" stroke="black" points="1361,-0.5 1361,-30.5 1494,-30.5 1494,-0.5 1361,-0.5"/>
<text text-anchor="start" x="1369" y="-18.5" font-family="Helvetica,sans-Serif" font-size="10.00">nars.storage.Memory.work</text>
<text text-anchor="middle" x="1427.5" y="-7.5" font-family="Helvetica,sans-Serif" font-size="10.00">Cycle</text>
</a>
</g>
</g>
<!-- Node339&#45;&gt;Node340 -->
<g id="edge7" class="edge"><title>Node339&#45;&gt;Node340</title>
<path fill="none" stroke="midnightblue" d="M1335.12,-15.5C1343.72,-15.5 1352.37,-15.5 1360.76,-15.5"/>
<polygon fill="midnightblue" stroke="midnightblue" points="1335.07,-12.0001 1325.07,-15.5 1335.07,-19.0001 1335.07,-12.0001"/>
</g>
<!-- Node341 -->
<g id="node9" class="node"><title>Node341</title>
<g id="a_node9"><a xlink:href="../../df/d15/a00416.html#a0d5c797dc17d9e8d0998852915e0f303" target="_top" xlink:title="nars.storage.ReasonerBatch.doTick">
<polygon fill="none" stroke="black" points="1530,-6 1530,-25 1703,-25 1703,-6 1530,-6"/>
<text text-anchor="middle" x="1616.5" y="-13" font-family="Helvetica,sans-Serif" font-size="10.00">nars.storage.ReasonerBatch.doTick</text>
</a>
</g>
</g>
<!-- Node340&#45;&gt;Node341 -->
<g id="edge8" class="edge"><title>Node340&#45;&gt;Node341</title>
<path fill="none" stroke="midnightblue" d="M1504.34,-15.5C1512.78,-15.5 1521.42,-15.5 1529.97,-15.5"/>
<polygon fill="midnightblue" stroke="midnightblue" points="1504.17,-12.0001 1494.17,-15.5 1504.17,-19.0001 1504.17,-12.0001"/>
</g>
<!-- Node342 -->
<g id="node10" class="node"><title>Node342</title>
<g id="a_node10"><a xlink:href="../../df/d15/a00416.html#a3468aa0f99edcd66412f27922dddb880" target="_top" xlink:title="A clock tick. ">
<polygon fill="none" stroke="black" points="1739,-6 1739,-25 1899,-25 1899,-6 1739,-6"/>
<text text-anchor="middle" x="1819" y="-13" font-family="Helvetica,sans-Serif" font-size="10.00">nars.storage.ReasonerBatch.tick</text>
</a>
</g>
</g>
<!-- Node341&#45;&gt;Node342 -->
<g id="edge9" class="edge"><title>Node341&#45;&gt;Node342</title>
<path fill="none" stroke="midnightblue" d="M1713.13,-15.5C1721.7,-15.5 1730.31,-15.5 1738.71,-15.5"/>
<polygon fill="midnightblue" stroke="midnightblue" points="1713.11,-12.0001 1703.11,-15.5 1713.11,-19.0001 1713.11,-12.0001"/>
</g>
<!-- Node343 -->
<g id="node11" class="node"><title>Node343</title>
<g id="a_node11"><a xlink:href="../../d9/da1/a00396.html#a5d9cfe517bcfbe41e5251910bcd119c1" target="_top" xlink:title="Run to completion: repeatedly execute NARS working cycle, until Inputs are Finished, or 1000 steps. ">
<polygon fill="none" stroke="black" points="1935,-6 1935,-25 2079,-25 2079,-6 1935,-6"/>
<text text-anchor="middle" x="2007" y="-13" font-family="Helvetica,sans-Serif" font-size="10.00">nars.storage.NARSBatch.run</text>
</a>
</g>
</g>
<!-- Node342&#45;&gt;Node343 -->
<g id="edge10" class="edge"><title>Node342&#45;&gt;Node343</title>
<path fill="none" stroke="midnightblue" d="M1909.22,-15.5C1917.82,-15.5 1926.47,-15.5 1934.87,-15.5"/>
<polygon fill="midnightblue" stroke="midnightblue" points="1909.15,-12.0001 1899.15,-15.5 1909.15,-19.0001 1909.15,-12.0001"/>
</g>
<!-- Node344 -->
<g id="node12" class="node"><title>Node344</title>
<g id="a_node12"><a xlink:href="../../d9/da1/a00396.html#a7c307c6b842f82664de6b0e52bdf8efc" target="_top" xlink:title="non&#45;static equivalent to main(String[]) : run to completion from an input file ">
<polygon fill="none" stroke="black" points="2115,-0.5 2115,-30.5 2259,-30.5 2259,-0.5 2115,-0.5"/>
<text text-anchor="start" x="2123" y="-18.5" font-family="Helvetica,sans-Serif" font-size="10.00">nars.storage.NARSBatch.run</text>
<text text-anchor="middle" x="2187" y="-7.5" font-family="Helvetica,sans-Serif" font-size="10.00">Inference</text>
</a>
</g>
</g>
<!-- Node343&#45;&gt;Node344 -->
<g id="edge11" class="edge"><title>Node343&#45;&gt;Node344</title>
<path fill="none" stroke="midnightblue" d="M2089.17,-15.5C2097.79,-15.5 2106.51,-15.5 2115,-15.5"/>
<polygon fill="midnightblue" stroke="midnightblue" points="2089.12,-12.0001 2079.12,-15.5 2089.12,-19.0001 2089.12,-12.0001"/>
</g>
<!-- Node345 -->
<g id="node13" class="node"><title>Node345</title>
<g id="a_node13"><a xlink:href="../../d9/da1/a00396.html#abafc597289bc2f6453b5cd0dd6634e54" target="_top" xlink:title="The entry point of the standalone application. ">
<polygon fill="none" stroke="black" points="2295,-6 2295,-25 2447,-25 2447,-6 2295,-6"/>
<text text-anchor="middle" x="2371" y="-13" font-family="Helvetica,sans-Serif" font-size="10.00">nars.storage.NARSBatch.main</text>
</a>
</g>
</g>
<!-- Node344&#45;&gt;Node345 -->
<g id="edge12" class="edge"><title>Node344&#45;&gt;Node345</title>
<path fill="none" stroke="midnightblue" d="M2269.17,-15.5C2277.76,-15.5 2286.48,-15.5 2295,-15.5"/>
<polygon fill="midnightblue" stroke="midnightblue" points="2269.15,-12.0001 2259.15,-15.5 2269.15,-19.0001 2269.15,-12.0001"/>
</g>
</g>
</svg>
