<?xml version="1.0" encoding="UTF-8" standalone="no"?>
<!DOCTYPE svg PUBLIC "-//W3C//DTD SVG 1.1//EN"
 "http://www.w3.org/Graphics/SVG/1.1/DTD/svg11.dtd">
<!-- Generated by graphviz version 2.38.0 (20140413.2041)
 -->
<!-- Title: nars.inference.TruthFunctions.resemblance Pages: 1 -->
<svg width="417pt" height="116pt"
 viewBox="0.00 0.00 417.00 116.00" xmlns="http://www.w3.org/2000/svg" xmlns:xlink="http://www.w3.org/1999/xlink">
<g id="graph0" class="graph" transform="scale(1 1) rotate(0) translate(4 112)">
<title>nars.inference.TruthFunctions.resemblance</title>
<!-- Node291 -->
<g id="node1" class="node"><title>Node291</title>
<polygon fill="#bfbfbf" stroke="black" points="0,-44.5 0,-63.5 205,-63.5 205,-44.5 0,-44.5"/>
<text text-anchor="middle" x="102.5" y="-51.5" font-family="Helvetica,sans-Serif" font-size="10.00">nars.inference.TruthFunctions.resemblance</text>
</g>
<!-- Node292 -->
<g id="node2" class="node"><title>Node292</title>
<g id="a_node2"><a xlink:href="../../db/d12/a00268.html#a46d2f048b6ba77afc60dcf49734f23c7" target="_top" xlink:title="A function where the output is conjunctively determined by the inputs. ">
<polygon fill="none" stroke="black" points="241,-88.5 241,-107.5 409,-107.5 409,-88.5 241,-88.5"/>
<text text-anchor="middle" x="325" y="-95.5" font-family="Helvetica,sans-Serif" font-size="10.00">nars.inference.UtilityFunctions.and</text>
</a>
</g>
</g>
<!-- Node291&#45;&gt;Node292 -->
<g id="edge1" class="edge"><title>Node291&#45;&gt;Node292</title>
<path fill="none" stroke="midnightblue" d="M151.345,-63.5473C185.152,-70.2934 230.632,-79.3687 266.427,-86.5114"/>
<polygon fill="midnightblue" stroke="midnightblue" points="265.757,-89.9467 276.248,-88.4713 267.126,-83.082 265.757,-89.9467"/>
</g>
<!-- Node293 -->
<g id="node3" class="node"><title>Node293</title>
<g id="a_node3"><a xlink:href="../../d7/d40/a00236.html#a9eac33f2495441c77911a8581a5bbe61" target="_top" xlink:title="Get the frequency value. ">
<polygon fill="none" stroke="black" points="260.5,-39 260.5,-69 389.5,-69 389.5,-39 260.5,-39"/>
<text text-anchor="start" x="268.5" y="-57" font-family="Helvetica,sans-Serif" font-size="10.00">nars.entity.TruthValue.get</text>
<text text-anchor="middle" x="325" y="-46" font-family="Helvetica,sans-Serif" font-size="10.00">Frequency</text>
</a>
</g>
</g>
<!-- Node291&#45;&gt;Node293 -->
<g id="edge2" class="edge"><title>Node291&#45;&gt;Node293</title>
<path fill="none" stroke="midnightblue" d="M205.037,-54C220.226,-54 235.637,-54 250.107,-54"/>
<polygon fill="midnightblue" stroke="midnightblue" points="250.461,-57.5001 260.461,-54 250.461,-50.5001 250.461,-57.5001"/>
</g>
<!-- Node294 -->
<g id="node4" class="node"><title>Node294</title>
<g id="a_node4"><a xlink:href="../../db/d12/a00268.html#acaa4ebc080bc00d0e03be32d51d29e40" target="_top" xlink:title="A function where the output is disjunctively determined by the inputs. ">
<polygon fill="none" stroke="black" points="244.5,-0.5 244.5,-19.5 405.5,-19.5 405.5,-0.5 244.5,-0.5"/>
<text text-anchor="middle" x="325" y="-7.5" font-family="Helvetica,sans-Serif" font-size="10.00">nars.inference.UtilityFunctions.or</text>
</a>
</g>
</g>
<!-- Node291&#45;&gt;Node294 -->
<g id="edge3" class="edge"><title>Node291&#45;&gt;Node294</title>
<path fill="none" stroke="midnightblue" d="M151.345,-44.4527C185.152,-37.7066 230.632,-28.6313 266.427,-21.4886"/>
<polygon fill="midnightblue" stroke="midnightblue" points="267.126,-24.918 276.248,-19.5287 265.757,-18.0533 267.126,-24.918"/>
</g>
</g>
</svg>
