<?xml version="1.0" encoding="UTF-8" standalone="no"?>
<!DOCTYPE svg PUBLIC "-//W3C//DTD SVG 1.1//EN"
 "http://www.w3.org/Graphics/SVG/1.1/DTD/svg11.dtd">
<!-- Generated by graphviz version 2.38.0 (20140413.2041)
 -->
<!-- Title: nars.inference.TruthFunctions.analogy Pages: 1 -->
<!--zoomable 192 -->
<svg id="main" version="1.1" xmlns="http://www.w3.org/2000/svg" xmlns:xlink="http://www.w3.org/1999/xlink" xml:space="preserve" onload="init(evt)">
<style type="text/css"><![CDATA[
.edge:hover path { stroke: red; }
.edge:hover polygon { stroke: red; fill: red; }
]]></style>
<script type="text/javascript"><![CDATA[
var edges = document.getElementsByTagName('g');
if (edges && edges.length) {
  for (var i=0;i<edges.length;i++) {
    if (edges[i].id.substr(0,4)=='edge') {
      edges[i].setAttribute('class','edge');
    }
  }
}
]]></script>
        <defs>
                <circle id="rim" cx="0" cy="0" r="7"/>
                <circle id="rim2" cx="0" cy="0" r="3.5"/>
                <g id="zoomPlus">
                        <use xlink:href="#rim" fill="#404040">
                                <set attributeName="fill" to="#808080" begin="zoomplus.mouseover" end="zoomplus.mouseout"/>
                        </use>
                        <path d="M-4,0h8M0,-4v8" fill="none" stroke="white" stroke-width="1.5" pointer-events="none"/>
                </g>
                <g id="zoomMin">
                        <use xlink:href="#rim" fill="#404040">
                                <set attributeName="fill" to="#808080" begin="zoomminus.mouseover" end="zoomminus.mouseout"/>
                        </use>
                        <path d="M-4,0h8" fill="none" stroke="white" stroke-width="1.5" pointer-events="none"/>
                </g>
                <g id="dirArrow">
                        <path fill="none" stroke="white" stroke-width="1.5" d="M0,-3.0v7 M-2.5,-0.5L0,-3.0L2.5,-0.5"/>
                </g>
               <g id="resetDef">
                       <use xlink:href="#rim2" fill="#404040">
                               <set attributeName="fill" to="#808080" begin="reset.mouseover" end="reset.mouseout"/>
                       </use>
               </g>
        </defs>

<script type="text/javascript">
var viewWidth = 2739;
var viewHeight = 192;
var sectionId = 'dynsection-6';
</script>
<script xlink:href="../../svgpan.js"/>
<svg id="graph" class="graph">
<g id="viewport">
<title>nars.inference.TruthFunctions.analogy</title>
<!-- Node39 -->
<g id="node1" class="node"><title>Node39</title>
<polygon fill="#bfbfbf" stroke="black" points="0,-92.5543 0,-111.554 183,-111.554 183,-92.5543 0,-92.5543"/>
<text text-anchor="middle" x="91.5" y="-99.5543" font-family="Helvetica,sans-Serif" font-size="10.00">nars.inference.TruthFunctions.analogy</text>
</g>
<!-- Node40 -->
<g id="node2" class="node"><title>Node40</title>
<g id="a_node2"><a xlink:href="../../dd/dd7/a00260.html#a50197adbc4f3cd1f109fe4d3629cdf6c" target="_top" xlink:title="{&lt;S ==&gt; P&gt;, &lt;M &lt;=&gt; P&gt;} |&#45; &lt;S ==&gt; P&gt; ">
<polygon fill="none" stroke="black" points="248,-65.0543 248,-95.0543 374,-95.0543 374,-65.0543 248,-65.0543"/>
<text text-anchor="start" x="256" y="-83.0543" font-family="Helvetica,sans-Serif" font-size="10.00">nars.inference.Syllogistic</text>
<text text-anchor="middle" x="311" y="-72.0543" font-family="Helvetica,sans-Serif" font-size="10.00">Rules.analogy</text>
</a>
</g>
</g>
<!-- Node39&#45;&gt;Node40 -->
<g id="edge1" class="edge"><title>Node39&#45;&gt;Node40</title>
<path fill="none" stroke="midnightblue" d="M193.183,-91.8702C211.846,-89.9825 230.827,-88.0626 247.911,-86.3345"/>
<polygon fill="midnightblue" stroke="midnightblue" points="192.762,-88.3949 183.165,-92.8836 193.466,-95.3594 192.762,-88.3949"/>
</g>
<!-- Node52 -->
<g id="node14" class="node"><title>Node52</title>
<g id="a_node14"><a xlink:href="../../dc/ded/a00252.html#a36c5edea4555540aa0bec9a54824654a" target="_top" xlink:title="{(&amp;&amp;, &lt;#x() ==&gt; M&gt;, &lt;#x() ==&gt; P&gt;), S ==&gt; M} |&#45; &lt;S ==&gt; P&gt; ">
<polygon fill="none" stroke="black" points="219,-153.054 219,-183.054 403,-183.054 403,-153.054 219,-153.054"/>
<text text-anchor="start" x="227" y="-171.054" font-family="Helvetica,sans-Serif" font-size="10.00">nars.inference.RuleTables.anonymous</text>
<text text-anchor="middle" x="311" y="-160.054" font-family="Helvetica,sans-Serif" font-size="10.00">Analogy</text>
</a>
</g>
</g>
<!-- Node39&#45;&gt;Node52 -->
<g id="edge13" class="edge"><title>Node39&#45;&gt;Node52</title>
<path fill="none" stroke="midnightblue" d="M133.811,-114.59C169.764,-125.5 221.965,-141.34 260.215,-152.947"/>
<polygon fill="midnightblue" stroke="midnightblue" points="134.712,-111.206 124.126,-111.651 132.679,-117.904 134.712,-111.206"/>
</g>
<!-- Node55 -->
<g id="node17" class="node"><title>Node55</title>
<g id="a_node17"><a xlink:href="../../dc/ded/a00252.html#aac2b267fcfa9bb34e03d44a410bfd92b" target="_top" xlink:title="{&lt;(&amp;&amp;, S1, S2) &lt;=&gt; P&gt;, (&amp;&amp;, S1, S2)} |&#45; P ">
<polygon fill="none" stroke="black" points="439,-114.554 439,-133.554 636,-133.554 636,-114.554 439,-114.554"/>
<text text-anchor="middle" x="537.5" y="-121.554" font-family="Helvetica,sans-Serif" font-size="10.00">nars.inference.RuleTables.conditionalAna</text>
</a>
</g>
</g>
<!-- Node39&#45;&gt;Node55 -->
<g id="edge17" class="edge"><title>Node39&#45;&gt;Node55</title>
<path fill="none" stroke="midnightblue" d="M193.348,-107.051C266.84,-110.693 365.866,-115.599 438.651,-119.206"/>
<polygon fill="midnightblue" stroke="midnightblue" points="193.314,-103.545 183.153,-106.546 192.968,-110.537 193.314,-103.545"/>
</g>
<!-- Node56 -->
<g id="node18" class="node"><title>Node56</title>
<g id="a_node18"><a xlink:href="../../dc/ded/a00252.html#aa57c06fe6fa6d3c396b196edaf631a92" target="_top" xlink:title="nars.inference.RuleTables.function\lBeggingToBeAsync">
<polygon fill="none" stroke="black" points="227,-16.0543 227,-46.0543 395,-46.0543 395,-16.0543 227,-16.0543"/>
<text text-anchor="start" x="235" y="-34.0543" font-family="Helvetica,sans-Serif" font-size="10.00">nars.inference.RuleTables.function</text>
<text text-anchor="middle" x="311" y="-23.0543" font-family="Helvetica,sans-Serif" font-size="10.00">BeggingToBeAsync</text>
</a>
</g>
</g>
<!-- Node39&#45;&gt;Node56 -->
<g id="edge19" class="edge"><title>Node39&#45;&gt;Node56</title>
<path fill="none" stroke="midnightblue" d="M125.538,-88.7672C150.884,-78.8215 186.861,-65.236 219,-55.0543 228.813,-51.9455 239.307,-48.9134 249.553,-46.1084"/>
<polygon fill="midnightblue" stroke="midnightblue" points="124.055,-85.5897 116.041,-92.519 126.627,-92.1002 124.055,-85.5897"/>
</g>
<!-- Node41 -->
<g id="node3" class="node"><title>Node41</title>
<g id="a_node3"><a xlink:href="../../dc/ded/a00252.html#a4f61a7c2dc75c9da475030894eac0735" target="_top" xlink:title="Syllogistic rules whose first premise is on an asymmetric relation, and the second on a symmetric rel...">
<polygon fill="none" stroke="black" points="672,-65.0543 672,-95.0543 857,-95.0543 857,-65.0543 672,-65.0543"/>
<text text-anchor="start" x="680" y="-83.0543" font-family="Helvetica,sans-Serif" font-size="10.00">nars.inference.RuleTables.asymmetric</text>
<text text-anchor="middle" x="764.5" y="-72.0543" font-family="Helvetica,sans-Serif" font-size="10.00">Symmetric</text>
</a>
</g>
</g>
<!-- Node40&#45;&gt;Node41 -->
<g id="edge2" class="edge"><title>Node40&#45;&gt;Node41</title>
<path fill="none" stroke="midnightblue" d="M384.533,-80.0543C462.6,-80.0543 586.958,-80.0543 671.765,-80.0543"/>
<polygon fill="midnightblue" stroke="midnightblue" points="384.305,-76.5544 374.305,-80.0543 384.305,-83.5544 384.305,-76.5544"/>
</g>
<!-- Node42 -->
<g id="node4" class="node"><title>Node42</title>
<g id="a_node4"><a xlink:href="../../dc/ded/a00252.html#a8628d400a8ceda7fea05039ddfea319b" target="_top" xlink:title="Meta&#45;table of syllogistic rules, indexed by the content classes of the taskSentence and the belief...">
<polygon fill="none" stroke="black" points="893,-70.5543 893,-89.5543 1073,-89.5543 1073,-70.5543 893,-70.5543"/>
<text text-anchor="middle" x="983" y="-77.5543" font-family="Helvetica,sans-Serif" font-size="10.00">nars.inference.RuleTables.syllogisms</text>
</a>
</g>
</g>
<!-- Node41&#45;&gt;Node42 -->
<g id="edge3" class="edge"><title>Node41&#45;&gt;Node42</title>
<path fill="none" stroke="midnightblue" d="M867.084,-80.0543C875.705,-80.0543 884.383,-80.0543 892.898,-80.0543"/>
<polygon fill="midnightblue" stroke="midnightblue" points="867.002,-76.5544 857.002,-80.0543 867.002,-83.5544 867.002,-76.5544"/>
</g>
<!-- Node43 -->
<g id="node5" class="node"><title>Node43</title>
<g id="a_node5"><a xlink:href="../../dc/ded/a00252.html#ac2d01dfdc40bdd47c757cb549217e6e3" target="_top" xlink:title="Entry point of the inference engine. ">
<polygon fill="none" stroke="black" points="1109,-92.5543 1109,-111.554 1272,-111.554 1272,-92.5543 1109,-92.5543"/>
<text text-anchor="middle" x="1190.5" y="-99.5543" font-family="Helvetica,sans-Serif" font-size="10.00">nars.inference.RuleTables.reason</text>
</a>
</g>
</g>
<!-- Node42&#45;&gt;Node43 -->
<g id="edge4" class="edge"><title>Node42&#45;&gt;Node43</title>
<path fill="none" stroke="midnightblue" d="M1083.05,-90.6585C1091.69,-91.5836 1100.37,-92.5124 1108.84,-93.4187"/>
<polygon fill="midnightblue" stroke="midnightblue" points="1083.26,-87.1603 1072.94,-89.5758 1082.51,-94.1205 1083.26,-87.1603"/>
</g>
<!-- Node44 -->
<g id="node6" class="node"><title>Node44</title>
<g id="a_node6"><a xlink:href="../../d7/ded/a00196.html#ad6fb91dda799c3092ecb186ef24ca92a" target="_top" xlink:title="An atomic step in a concept, only called in Memory# processConcept. ">
<polygon fill="none" stroke="black" points="1308,-87.0543 1308,-117.054 1427,-117.054 1427,-87.0543 1308,-87.0543"/>
<text text-anchor="start" x="1316" y="-105.054" font-family="Helvetica,sans-Serif" font-size="10.00">nars.entity.Concept.fire</text>
<text text-anchor="middle" x="1367.5" y="-94.0543" font-family="Helvetica,sans-Serif" font-size="10.00">FromProcessConcept</text>
</a>
</g>
</g>
<!-- Node43&#45;&gt;Node44 -->
<g id="edge5" class="edge"><title>Node43&#45;&gt;Node44</title>
<path fill="none" stroke="midnightblue" d="M1282.25,-102.054C1290.91,-102.054 1299.52,-102.054 1307.76,-102.054"/>
<polygon fill="midnightblue" stroke="midnightblue" points="1282.09,-98.5544 1272.09,-102.054 1282.08,-105.554 1282.09,-98.5544"/>
</g>
<!-- Node45 -->
<g id="node7" class="node"><title>Node45</title>
<g id="a_node7"><a xlink:href="../../d4/d27/a00392.html#a0acc4adbf6a2462245da46bcb529746c" target="_top" xlink:title="Select a concept to fireFromProcessConcept. ">
<polygon fill="none" stroke="black" points="1463,-87.0543 1463,-117.054 1609,-117.054 1609,-87.0543 1463,-87.0543"/>
<text text-anchor="start" x="1471" y="-105.054" font-family="Helvetica,sans-Serif" font-size="10.00">nars.storage.Memory.process</text>
<text text-anchor="middle" x="1536" y="-94.0543" font-family="Helvetica,sans-Serif" font-size="10.00">Concept</text>
</a>
</g>
</g>
<!-- Node44&#45;&gt;Node45 -->
<g id="edge6" class="edge"><title>Node44&#45;&gt;Node45</title>
<path fill="none" stroke="midnightblue" d="M1437.34,-102.054C1445.75,-102.054 1454.36,-102.054 1462.82,-102.054"/>
<polygon fill="midnightblue" stroke="midnightblue" points="1437.2,-98.5544 1427.2,-102.054 1437.2,-105.554 1437.2,-98.5544"/>
</g>
<!-- Node46 -->
<g id="node8" class="node"><title>Node46</title>
<g id="a_node8"><a xlink:href="../../d4/d27/a00392.html#a59ae339d666409988d90d29be4f73a91" target="_top" xlink:title="An atomic working workCycle of the system: process new Tasks, then fireFromProcessConcept a concept...">
<polygon fill="none" stroke="black" points="1645,-87.0543 1645,-117.054 1778,-117.054 1778,-87.0543 1645,-87.0543"/>
<text text-anchor="start" x="1653" y="-105.054" font-family="Helvetica,sans-Serif" font-size="10.00">nars.storage.Memory.work</text>
<text text-anchor="middle" x="1711.5" y="-94.0543" font-family="Helvetica,sans-Serif" font-size="10.00">Cycle</text>
</a>
</g>
</g>
<!-- Node45&#45;&gt;Node46 -->
<g id="edge7" class="edge"><title>Node45&#45;&gt;Node46</title>
<path fill="none" stroke="midnightblue" d="M1619.12,-102.054C1627.72,-102.054 1636.37,-102.054 1644.76,-102.054"/>
<polygon fill="midnightblue" stroke="midnightblue" points="1619.07,-98.5544 1609.07,-102.054 1619.07,-105.554 1619.07,-98.5544"/>
</g>
<!-- Node47 -->
<g id="node9" class="node"><title>Node47</title>
<g id="a_node9"><a xlink:href="../../df/d15/a00416.html#a0d5c797dc17d9e8d0998852915e0f303" target="_top" xlink:title="nars.storage.ReasonerBatch.doTick">
<polygon fill="none" stroke="black" points="1814,-92.5543 1814,-111.554 1987,-111.554 1987,-92.5543 1814,-92.5543"/>
<text text-anchor="middle" x="1900.5" y="-99.5543" font-family="Helvetica,sans-Serif" font-size="10.00">nars.storage.ReasonerBatch.doTick</text>
</a>
</g>
</g>
<!-- Node46&#45;&gt;Node47 -->
<g id="edge8" class="edge"><title>Node46&#45;&gt;Node47</title>
<path fill="none" stroke="midnightblue" d="M1788.34,-102.054C1796.78,-102.054 1805.42,-102.054 1813.97,-102.054"/>
<polygon fill="midnightblue" stroke="midnightblue" points="1788.17,-98.5544 1778.17,-102.054 1788.17,-105.554 1788.17,-98.5544"/>
</g>
<!-- Node48 -->
<g id="node10" class="node"><title>Node48</title>
<g id="a_node10"><a xlink:href="../../df/d15/a00416.html#a3468aa0f99edcd66412f27922dddb880" target="_top" xlink:title="A clock tick. ">
<polygon fill="none" stroke="black" points="2023,-92.5543 2023,-111.554 2183,-111.554 2183,-92.5543 2023,-92.5543"/>
<text text-anchor="middle" x="2103" y="-99.5543" font-family="Helvetica,sans-Serif" font-size="10.00">nars.storage.ReasonerBatch.tick</text>
</a>
</g>
</g>
<!-- Node47&#45;&gt;Node48 -->
<g id="edge9" class="edge"><title>Node47&#45;&gt;Node48</title>
<path fill="none" stroke="midnightblue" d="M1997.13,-102.054C2005.7,-102.054 2014.31,-102.054 2022.71,-102.054"/>
<polygon fill="midnightblue" stroke="midnightblue" points="1997.11,-98.5544 1987.11,-102.054 1997.11,-105.554 1997.11,-98.5544"/>
</g>
<!-- Node49 -->
<g id="node11" class="node"><title>Node49</title>
<g id="a_node11"><a xlink:href="../../d9/da1/a00396.html#a5d9cfe517bcfbe41e5251910bcd119c1" target="_top" xlink:title="Run to completion: repeatedly execute NARS working cycle, until Inputs are Finished, or 1000 steps. ">
<polygon fill="none" stroke="black" points="2219,-92.5543 2219,-111.554 2363,-111.554 2363,-92.5543 2219,-92.5543"/>
<text text-anchor="middle" x="2291" y="-99.5543" font-family="Helvetica,sans-Serif" font-size="10.00">nars.storage.NARSBatch.run</text>
</a>
</g>
</g>
<!-- Node48&#45;&gt;Node49 -->
<g id="edge10" class="edge"><title>Node48&#45;&gt;Node49</title>
<path fill="none" stroke="midnightblue" d="M2193.22,-102.054C2201.82,-102.054 2210.47,-102.054 2218.87,-102.054"/>
<polygon fill="midnightblue" stroke="midnightblue" points="2193.15,-98.5544 2183.15,-102.054 2193.15,-105.554 2193.15,-98.5544"/>
</g>
<!-- Node50 -->
<g id="node12" class="node"><title>Node50</title>
<g id="a_node12"><a xlink:href="../../d9/da1/a00396.html#a7c307c6b842f82664de6b0e52bdf8efc" target="_top" xlink:title="non&#45;static equivalent to main(String[]) : run to completion from an input file ">
<polygon fill="none" stroke="black" points="2399,-87.0543 2399,-117.054 2543,-117.054 2543,-87.0543 2399,-87.0543"/>
<text text-anchor="start" x="2407" y="-105.054" font-family="Helvetica,sans-Serif" font-size="10.00">nars.storage.NARSBatch.run</text>
<text text-anchor="middle" x="2471" y="-94.0543" font-family="Helvetica,sans-Serif" font-size="10.00">Inference</text>
</a>
</g>
</g>
<!-- Node49&#45;&gt;Node50 -->
<g id="edge11" class="edge"><title>Node49&#45;&gt;Node50</title>
<path fill="none" stroke="midnightblue" d="M2373.17,-102.054C2381.79,-102.054 2390.51,-102.054 2399,-102.054"/>
<polygon fill="midnightblue" stroke="midnightblue" points="2373.12,-98.5544 2363.12,-102.054 2373.12,-105.554 2373.12,-98.5544"/>
</g>
<!-- Node51 -->
<g id="node13" class="node"><title>Node51</title>
<g id="a_node13"><a xlink:href="../../d9/da1/a00396.html#abafc597289bc2f6453b5cd0dd6634e54" target="_top" xlink:title="The entry point of the standalone application. ">
<polygon fill="none" stroke="black" points="2579,-92.5543 2579,-111.554 2731,-111.554 2731,-92.5543 2579,-92.5543"/>
<text text-anchor="middle" x="2655" y="-99.5543" font-family="Helvetica,sans-Serif" font-size="10.00">nars.storage.NARSBatch.main</text>
</a>
</g>
</g>
<!-- Node50&#45;&gt;Node51 -->
<g id="edge12" class="edge"><title>Node50&#45;&gt;Node51</title>
<path fill="none" stroke="midnightblue" d="M2553.17,-102.054C2561.76,-102.054 2570.48,-102.054 2579,-102.054"/>
<polygon fill="midnightblue" stroke="midnightblue" points="2553.15,-98.5544 2543.15,-102.054 2553.15,-105.554 2553.15,-98.5544"/>
</g>
<!-- Node53 -->
<g id="node15" class="node"><title>Node53</title>
<g id="a_node15"><a xlink:href="../../dc/ded/a00252.html#af34ec4e0da91e9422e25afd45af26559" target="_top" xlink:title="{(&amp;&amp;, &lt;#x() &#45;&#45;&gt; S&gt;, &lt;#x() &#45;&#45;&gt; P&gt;&gt;, &lt;M &#45;&#45;&gt; P&gt;} |&#45; &lt;M &#45;&#45;&gt; S&gt; ">
<polygon fill="none" stroke="black" points="460.5,-153.054 460.5,-183.054 614.5,-183.054 614.5,-153.054 460.5,-153.054"/>
<text text-anchor="start" x="468.5" y="-171.054" font-family="Helvetica,sans-Serif" font-size="10.00">nars.inference.RuleTables.elimi</text>
<text text-anchor="middle" x="537.5" y="-160.054" font-family="Helvetica,sans-Serif" font-size="10.00">VarDep</text>
</a>
</g>
</g>
<!-- Node52&#45;&gt;Node53 -->
<g id="edge14" class="edge"><title>Node52&#45;&gt;Node53</title>
<path fill="none" stroke="midnightblue" d="M413.588,-168.054C429.306,-168.054 445.305,-168.054 460.338,-168.054"/>
<polygon fill="midnightblue" stroke="midnightblue" points="413.313,-164.554 403.313,-168.054 413.313,-171.554 413.313,-164.554"/>
</g>
<!-- Node54 -->
<g id="node16" class="node"><title>Node54</title>
<g id="a_node16"><a xlink:href="../../dc/ded/a00252.html#a54a7ceba4f123db5035e3b85063c91f1" target="_top" xlink:title="Inference between a compound term and a statement. ">
<polygon fill="none" stroke="black" points="893.5,-153.054 893.5,-183.054 1072.5,-183.054 1072.5,-153.054 893.5,-153.054"/>
<text text-anchor="start" x="901.5" y="-171.054" font-family="Helvetica,sans-Serif" font-size="10.00">nars.inference.RuleTables.compound</text>
<text text-anchor="middle" x="983" y="-160.054" font-family="Helvetica,sans-Serif" font-size="10.00">AndStatement</text>
</a>
</g>
</g>
<!-- Node53&#45;&gt;Node54 -->
<g id="edge15" class="edge"><title>Node53&#45;&gt;Node54</title>
<path fill="none" stroke="midnightblue" d="M624.945,-168.054C702.354,-168.054 815.373,-168.054 893.426,-168.054"/>
<polygon fill="midnightblue" stroke="midnightblue" points="624.74,-164.554 614.74,-168.054 624.74,-171.554 624.74,-164.554"/>
</g>
<!-- Node54&#45;&gt;Node43 -->
<g id="edge16" class="edge"><title>Node54&#45;&gt;Node43</title>
<path fill="none" stroke="midnightblue" d="M1040.43,-149.929C1078.98,-137.548 1128.53,-121.634 1159.66,-111.637"/>
<polygon fill="midnightblue" stroke="midnightblue" points="1039.34,-146.605 1030.89,-152.995 1041.48,-153.27 1039.34,-146.605"/>
</g>
<!-- Node55&#45;&gt;Node43 -->
<g id="edge18" class="edge"><title>Node55&#45;&gt;Node43</title>
<path fill="none" stroke="midnightblue" d="M646.309,-120.411C776.479,-116.012 992.407,-108.715 1108.96,-104.776"/>
<polygon fill="midnightblue" stroke="midnightblue" points="646.19,-116.913 636.313,-120.749 646.426,-123.909 646.19,-116.913"/>
</g>
<!-- Node57 -->
<g id="node19" class="node"><title>Node57</title>
<g id="a_node19"><a xlink:href="../../dc/ded/a00252.html#acacd7cd6f866a576bfad37e0003df853" target="_top" xlink:title="{&lt;&lt;M &#45;&#45;&gt; S&gt; ==&gt; &lt;M &#45;&#45;&gt; P&gt;&gt;, &lt;M &#45;&#45;&gt; S&gt;} |&#45; &lt;M &#45;&#45;&gt; P&gt; {&lt;&lt;M &#45;&#45;&gt; S&gt; ==&gt; &lt;M &#45;&#45;&gt; P&gt;&gt;, &lt;M &#45;&#45;&gt; P&gt;} |&#45; &lt;M &#45;&#45;&gt; ...">
<polygon fill="none" stroke="black" points="445,-21.5543 445,-40.5543 630,-40.5543 630,-21.5543 445,-21.5543"/>
<text text-anchor="middle" x="537.5" y="-28.5543" font-family="Helvetica,sans-Serif" font-size="10.00">nars.inference.RuleTables.detachment</text>
</a>
</g>
</g>
<!-- Node56&#45;&gt;Node57 -->
<g id="edge20" class="edge"><title>Node56&#45;&gt;Node57</title>
<path fill="none" stroke="midnightblue" d="M405.563,-31.0543C418.498,-31.0543 431.774,-31.0543 444.677,-31.0543"/>
<polygon fill="midnightblue" stroke="midnightblue" points="405.277,-27.5544 395.276,-31.0543 405.276,-34.5544 405.277,-27.5544"/>
</g>
<!-- Node57&#45;&gt;Node43 -->
<g id="edge23" class="edge"><title>Node57&#45;&gt;Node43</title>
<path fill="none" stroke="midnightblue" d="M588.492,-19.4205C613.429,-14.1996 644.142,-8.64025 672,-6.05426 851.121,10.5728 900.821,-8.94862 1073,-61.0543 1104.81,-70.6807 1140.81,-83.6804 1164.26,-92.4396"/>
<polygon fill="midnightblue" stroke="midnightblue" points="587.583,-16.0358 578.536,-21.5506 589.047,-22.8809 587.583,-16.0358"/>
</g>
<!-- Node58 -->
<g id="node20" class="node"><title>Node58</title>
<g id="a_node20"><a xlink:href="../../dc/ded/a00252.html#af6c973743270b2739d4ad25f16975da1" target="_top" xlink:title="The detachment rule, with variable unification. ">
<polygon fill="none" stroke="black" points="672,-16.0543 672,-46.0543 857,-46.0543 857,-16.0543 672,-16.0543"/>
<text text-anchor="start" x="680" y="-34.0543" font-family="Helvetica,sans-Serif" font-size="10.00">nars.inference.RuleTables.detachment</text>
<text text-anchor="middle" x="764.5" y="-23.0543" font-family="Helvetica,sans-Serif" font-size="10.00">WithVar</text>
</a>
</g>
</g>
<!-- Node57&#45;&gt;Node58 -->
<g id="edge21" class="edge"><title>Node57&#45;&gt;Node58</title>
<path fill="none" stroke="midnightblue" d="M640.069,-31.0543C650.608,-31.0543 661.277,-31.0543 671.7,-31.0543"/>
<polygon fill="midnightblue" stroke="midnightblue" points="640.016,-27.5544 630.016,-31.0543 640.016,-34.5544 640.016,-27.5544"/>
</g>
<!-- Node58&#45;&gt;Node42 -->
<g id="edge22" class="edge"><title>Node58&#45;&gt;Node42</title>
<path fill="none" stroke="midnightblue" d="M841.99,-48.3661C874.905,-55.8157 912.118,-64.2381 939.902,-70.5263"/>
<polygon fill="midnightblue" stroke="midnightblue" points="842.454,-44.8827 831.928,-46.0889 840.909,-51.7101 842.454,-44.8827"/>
</g>
</g>
</svg>
        <g id="navigator" transform="translate(0 0)" fill="#404254">
                <rect fill="#f2f5e9" fill-opacity="0.5" stroke="#606060" stroke-width=".5" x="0" y="0" width="60" height="60"/>
                <use id="zoomplus" xlink:href="#zoomPlus" x="17" y="9" onmousedown="handleZoom(evt,'in')"/>
                <use id="zoomminus" xlink:href="#zoomMin" x="42" y="9" onmousedown="handleZoom(evt,'out')"/>
                <use id="reset" xlink:href="#resetDef" x="30" y="36" onmousedown="handleReset()"/>
                <g id="arrowUp" xlink:href="#dirArrow" transform="translate(30 24)" onmousedown="handlePan(0,-1)">
                  <use xlink:href="#rim" fill="#404040">
                        <set attributeName="fill" to="#808080" begin="arrowUp.mouseover" end="arrowUp.mouseout"/>
                  </use>
                  <path fill="none" stroke="white" stroke-width="1.5" d="M0,-3.0v7 M-2.5,-0.5L0,-3.0L2.5,-0.5"/>
                </g>
                <g id="arrowRight" xlink:href="#dirArrow" transform="rotate(90) translate(36 -43)" onmousedown="handlePan(1,0)">
                  <use xlink:href="#rim" fill="#404040">
                        <set attributeName="fill" to="#808080" begin="arrowRight.mouseover" end="arrowRight.mouseout"/>
                  </use>
                  <path fill="none" stroke="white" stroke-width="1.5" d="M0,-3.0v7 M-2.5,-0.5L0,-3.0L2.5,-0.5"/>
                </g>
                <g id="arrowDown" xlink:href="#dirArrow" transform="rotate(180) translate(-30 -48)" onmousedown="handlePan(0,1)">
                  <use xlink:href="#rim" fill="#404040">
                        <set attributeName="fill" to="#808080" begin="arrowDown.mouseover" end="arrowDown.mouseout"/>
                  </use>
                  <path fill="none" stroke="white" stroke-width="1.5" d="M0,-3.0v7 M-2.5,-0.5L0,-3.0L2.5,-0.5"/>
                </g>
                <g id="arrowLeft" xlink:href="#dirArrow" transform="rotate(270) translate(-36 17)" onmousedown="handlePan(-1,0)">
                  <use xlink:href="#rim" fill="#404040">
                        <set attributeName="fill" to="#808080" begin="arrowLeft.mouseover" end="arrowLeft.mouseout"/>
                  </use>
                  <path fill="none" stroke="white" stroke-width="1.5" d="M0,-3.0v7 M-2.5,-0.5L0,-3.0L2.5,-0.5"/>
                </g>
        </g>
        <svg viewBox="0 0 15 15" width="100%" height="30px" preserveAspectRatio="xMaxYMin meet">
         <g id="arrow_out" transform="scale(0.3 0.3)">
          <a xlink:href="a00264_a924b3cc3835f75df63afb5d35ce71693_icgraph_org.svg" target="_base">
           <rect id="button" ry="5" rx="5" y="6" x="6" height="38" width="38"
                fill="#f2f5e9" fill-opacity="0.5" stroke="#606060" stroke-width="1.0"/>
           <path id="arrow"
             d="M 11.500037,31.436501 C 11.940474,20.09759 22.043105,11.32322 32.158766,21.979434 L 37.068811,17.246167 C 37.068811,17.246167 37.088388,32 37.088388,32 L 22.160133,31.978069 C 22.160133,31.978069 26.997745,27.140456 26.997745,27.140456 C 18.528582,18.264221 13.291696,25.230495 11.500037,31.436501 z"
             style="fill:#404040;"/>
          </a>
         </g>
        </svg>
</svg>
