<?xml version="1.0" encoding="UTF-8" standalone="no"?>
<!DOCTYPE svg PUBLIC "-//W3C//DTD SVG 1.1//EN"
 "http://www.w3.org/Graphics/SVG/1.1/DTD/svg11.dtd">
<!-- Generated by graphviz version 2.38.0 (20140413.2041)
 -->
<!-- Title: nars.inference.TruthFunctions.intersection Pages: 1 -->
<svg width="412pt" height="78pt"
 viewBox="0.00 0.00 412.00 77.50" xmlns="http://www.w3.org/2000/svg" xmlns:xlink="http://www.w3.org/1999/xlink">
<g id="graph0" class="graph" transform="scale(1 1) rotate(0) translate(4 73.5)">
<title>nars.inference.TruthFunctions.intersection</title>
<!-- Node202 -->
<g id="node1" class="node"><title>Node202</title>
<polygon fill="#bfbfbf" stroke="black" points="0,-28 0,-47 200,-47 200,-28 0,-28"/>
<text text-anchor="middle" x="100" y="-35" font-family="Helvetica,sans-Serif" font-size="10.00">nars.inference.TruthFunctions.intersection</text>
</g>
<!-- Node203 -->
<g id="node2" class="node"><title>Node203</title>
<g id="a_node2"><a xlink:href="../../db/d12/a00268.html#a46d2f048b6ba77afc60dcf49734f23c7" target="_top" xlink:title="A function where the output is conjunctively determined by the inputs. ">
<polygon fill="none" stroke="black" points="236,-50 236,-69 404,-69 404,-50 236,-50"/>
<text text-anchor="middle" x="320" y="-57" font-family="Helvetica,sans-Serif" font-size="10.00">nars.inference.UtilityFunctions.and</text>
</a>
</g>
</g>
<!-- Node202&#45;&gt;Node203 -->
<g id="edge1" class="edge"><title>Node202&#45;&gt;Node203</title>
<path fill="none" stroke="midnightblue" d="M195.35,-47.0216C205.448,-48.0406 215.716,-49.0769 225.8,-50.0945"/>
<polygon fill="midnightblue" stroke="midnightblue" points="225.509,-53.5828 235.81,-51.1046 226.212,-46.6182 225.509,-53.5828"/>
</g>
<!-- Node204 -->
<g id="node3" class="node"><title>Node204</title>
<g id="a_node3"><a xlink:href="../../d7/d40/a00236.html#a9eac33f2495441c77911a8581a5bbe61" target="_top" xlink:title="Get the frequency value. ">
<polygon fill="none" stroke="black" points="255.5,-0.5 255.5,-30.5 384.5,-30.5 384.5,-0.5 255.5,-0.5"/>
<text text-anchor="start" x="263.5" y="-18.5" font-family="Helvetica,sans-Serif" font-size="10.00">nars.entity.TruthValue.get</text>
<text text-anchor="middle" x="320" y="-7.5" font-family="Helvetica,sans-Serif" font-size="10.00">Frequency</text>
</a>
</g>
</g>
<!-- Node202&#45;&gt;Node204 -->
<g id="edge2" class="edge"><title>Node202&#45;&gt;Node204</title>
<path fill="none" stroke="midnightblue" d="M195.35,-27.9784C211.964,-26.3018 229.04,-24.5786 244.996,-22.9683"/>
<polygon fill="midnightblue" stroke="midnightblue" points="245.706,-26.4145 255.304,-21.928 245.003,-19.4499 245.706,-26.4145"/>
</g>
</g>
</svg>
