<?xml version="1.0" encoding="UTF-8" standalone="no"?>
<!DOCTYPE svg PUBLIC "-//W3C//DTD SVG 1.1//EN"
 "http://www.w3.org/Graphics/SVG/1.1/DTD/svg11.dtd">
<!-- Generated by graphviz version 2.38.0 (20140413.2041)
 -->
<!-- Title: nars.inference.TruthFunctions.revision Pages: 1 -->
<svg width="397pt" height="116pt"
 viewBox="0.00 0.00 397.00 116.00" xmlns="http://www.w3.org/2000/svg" xmlns:xlink="http://www.w3.org/1999/xlink">
<g id="graph0" class="graph" transform="scale(1 1) rotate(0) translate(4 112)">
<title>nars.inference.TruthFunctions.revision</title>
<!-- Node308 -->
<g id="node1" class="node"><title>Node308</title>
<polygon fill="#bfbfbf" stroke="black" points="0,-44.5 0,-63.5 183,-63.5 183,-44.5 0,-44.5"/>
<text text-anchor="middle" x="91.5" y="-51.5" font-family="Helvetica,sans-Serif" font-size="10.00">nars.inference.TruthFunctions.revision</text>
</g>
<!-- Node309 -->
<g id="node2" class="node"><title>Node309</title>
<g id="a_node2"><a xlink:href="../../d3/dcc/a00264.html#ab33de4dcdfbef35962ded15b6a4f4eed" target="_top" xlink:title="A function to convert confidence to weight. ">
<polygon fill="none" stroke="black" points="220.5,-88.5 220.5,-107.5 387.5,-107.5 387.5,-88.5 220.5,-88.5"/>
<text text-anchor="middle" x="304" y="-95.5" font-family="Helvetica,sans-Serif" font-size="10.00">nars.inference.TruthFunctions.c2w</text>
</a>
</g>
</g>
<!-- Node308&#45;&gt;Node309 -->
<g id="edge1" class="edge"><title>Node308&#45;&gt;Node309</title>
<path fill="none" stroke="midnightblue" d="M138.175,-63.5473C170.311,-70.2645 213.495,-79.2911 247.599,-86.4198"/>
<polygon fill="midnightblue" stroke="midnightblue" points="246.909,-89.8511 257.414,-88.4713 248.341,-82.9992 246.909,-89.8511"/>
</g>
<!-- Node310 -->
<g id="node3" class="node"><title>Node310</title>
<g id="a_node3"><a xlink:href="../../d7/d40/a00236.html#a9eac33f2495441c77911a8581a5bbe61" target="_top" xlink:title="Get the frequency value. ">
<polygon fill="none" stroke="black" points="239.5,-39 239.5,-69 368.5,-69 368.5,-39 239.5,-39"/>
<text text-anchor="start" x="247.5" y="-57" font-family="Helvetica,sans-Serif" font-size="10.00">nars.entity.TruthValue.get</text>
<text text-anchor="middle" x="304" y="-46" font-family="Helvetica,sans-Serif" font-size="10.00">Frequency</text>
</a>
</g>
</g>
<!-- Node308&#45;&gt;Node310 -->
<g id="edge2" class="edge"><title>Node308&#45;&gt;Node310</title>
<path fill="none" stroke="midnightblue" d="M183.298,-54C198.668,-54 214.456,-54 229.319,-54"/>
<polygon fill="midnightblue" stroke="midnightblue" points="229.445,-57.5001 239.445,-54 229.445,-50.5001 229.445,-57.5001"/>
</g>
<!-- Node311 -->
<g id="node4" class="node"><title>Node311</title>
<g id="a_node4"><a xlink:href="../../db/d12/a00268.html#a957a91e3b91d4a4043c3959838c370f2" target="_top" xlink:title="A function to convert weight to confidence. ">
<polygon fill="none" stroke="black" points="219,-0.5 219,-19.5 389,-19.5 389,-0.5 219,-0.5"/>
<text text-anchor="middle" x="304" y="-7.5" font-family="Helvetica,sans-Serif" font-size="10.00">nars.inference.UtilityFunctions.w2c</text>
</a>
</g>
</g>
<!-- Node308&#45;&gt;Node311 -->
<g id="edge3" class="edge"><title>Node308&#45;&gt;Node311</title>
<path fill="none" stroke="midnightblue" d="M138.175,-44.4527C170.311,-37.7355 213.495,-28.7089 247.599,-21.5802"/>
<polygon fill="midnightblue" stroke="midnightblue" points="248.341,-25.0008 257.414,-19.5287 246.909,-18.1489 248.341,-25.0008"/>
</g>
</g>
</svg>
