<?xml version="1.0" encoding="UTF-8" standalone="no"?>
<!DOCTYPE svg PUBLIC "-//W3C//DTD SVG 1.1//EN"
 "http://www.w3.org/Graphics/SVG/1.1/DTD/svg11.dtd">
<!-- Generated by graphviz version 2.38.0 (20140413.2041)
 -->
<!-- Title: nars.inference.TruthFunctions.analogy Pages: 1 -->
<svg width="395pt" height="78pt"
 viewBox="0.00 0.00 395.00 77.50" xmlns="http://www.w3.org/2000/svg" xmlns:xlink="http://www.w3.org/1999/xlink">
<g id="graph0" class="graph" transform="scale(1 1) rotate(0) translate(4 73.5)">
<title>nars.inference.TruthFunctions.analogy</title>
<!-- Node36 -->
<g id="node1" class="node"><title>Node36</title>
<polygon fill="#bfbfbf" stroke="black" points="0,-28 0,-47 183,-47 183,-28 0,-28"/>
<text text-anchor="middle" x="91.5" y="-35" font-family="Helvetica,sans-Serif" font-size="10.00">nars.inference.TruthFunctions.analogy</text>
</g>
<!-- Node37 -->
<g id="node2" class="node"><title>Node37</title>
<g id="a_node2"><a xlink:href="../../db/d12/a00268.html#a46d2f048b6ba77afc60dcf49734f23c7" target="_top" xlink:title="A function where the output is conjunctively determined by the inputs. ">
<polygon fill="none" stroke="black" points="219,-50 219,-69 387,-69 387,-50 219,-50"/>
<text text-anchor="middle" x="303" y="-57" font-family="Helvetica,sans-Serif" font-size="10.00">nars.inference.UtilityFunctions.and</text>
</a>
</g>
</g>
<!-- Node36&#45;&gt;Node37 -->
<g id="edge1" class="edge"><title>Node36&#45;&gt;Node37</title>
<path fill="none" stroke="midnightblue" d="M183.171,-47.0216C191.676,-47.9147 200.307,-48.821 208.834,-49.7165"/>
<polygon fill="midnightblue" stroke="midnightblue" points="208.472,-53.1976 218.783,-50.7612 209.203,-46.2359 208.472,-53.1976"/>
</g>
<!-- Node38 -->
<g id="node3" class="node"><title>Node38</title>
<g id="a_node3"><a xlink:href="../../d7/d40/a00236.html#a9eac33f2495441c77911a8581a5bbe61" target="_top" xlink:title="Get the frequency value. ">
<polygon fill="none" stroke="black" points="238.5,-0.5 238.5,-30.5 367.5,-30.5 367.5,-0.5 238.5,-0.5"/>
<text text-anchor="start" x="246.5" y="-18.5" font-family="Helvetica,sans-Serif" font-size="10.00">nars.entity.TruthValue.get</text>
<text text-anchor="middle" x="303" y="-7.5" font-family="Helvetica,sans-Serif" font-size="10.00">Frequency</text>
</a>
</g>
</g>
<!-- Node36&#45;&gt;Node38 -->
<g id="edge2" class="edge"><title>Node36&#45;&gt;Node38</title>
<path fill="none" stroke="midnightblue" d="M183.171,-27.9784C198.266,-26.3933 213.758,-24.7664 228.363,-23.2328"/>
<polygon fill="midnightblue" stroke="midnightblue" points="228.737,-26.7129 238.317,-22.1875 228.006,-19.7511 228.737,-26.7129"/>
</g>
</g>
</svg>
