<?xml version="1.0" encoding="UTF-8" standalone="no"?>
<!DOCTYPE svg PUBLIC "-//W3C//DTD SVG 1.1//EN"
 "http://www.w3.org/Graphics/SVG/1.1/DTD/svg11.dtd">
<!-- Generated by graphviz version 2.38.0 (20140413.2041)
 -->
<!-- Title: nars.inference.TruthFunctions.comparison Pages: 1 -->
<svg width="414pt" height="154pt"
 viewBox="0.00 0.00 414.00 154.00" xmlns="http://www.w3.org/2000/svg" xmlns:xlink="http://www.w3.org/1999/xlink">
<g id="graph0" class="graph" transform="scale(1 1) rotate(0) translate(4 150)">
<title>nars.inference.TruthFunctions.comparison</title>
<!-- Node78 -->
<g id="node1" class="node"><title>Node78</title>
<polygon fill="#bfbfbf" stroke="black" points="0,-60.5 0,-79.5 200,-79.5 200,-60.5 0,-60.5"/>
<text text-anchor="middle" x="100" y="-67.5" font-family="Helvetica,sans-Serif" font-size="10.00">nars.inference.TruthFunctions.comparison</text>
</g>
<!-- Node79 -->
<g id="node2" class="node"><title>Node79</title>
<g id="a_node2"><a xlink:href="../../db/d12/a00268.html#a46d2f048b6ba77afc60dcf49734f23c7" target="_top" xlink:title="A function where the output is conjunctively determined by the inputs. ">
<polygon fill="none" stroke="black" points="237,-126.5 237,-145.5 405,-145.5 405,-126.5 237,-126.5"/>
<text text-anchor="middle" x="321" y="-133.5" font-family="Helvetica,sans-Serif" font-size="10.00">nars.inference.UtilityFunctions.and</text>
</a>
</g>
</g>
<!-- Node78&#45;&gt;Node79 -->
<g id="edge1" class="edge"><title>Node78&#45;&gt;Node79</title>
<path fill="none" stroke="midnightblue" d="M125.614,-79.5085C152.472,-89.6624 196.871,-105.802 236,-117 244.867,-119.538 254.339,-121.956 263.608,-124.164"/>
<polygon fill="midnightblue" stroke="midnightblue" points="263.016,-127.62 273.549,-126.474 264.601,-120.802 263.016,-127.62"/>
</g>
<!-- Node80 -->
<g id="node3" class="node"><title>Node80</title>
<g id="a_node3"><a xlink:href="../../d7/d40/a00236.html#a9eac33f2495441c77911a8581a5bbe61" target="_top" xlink:title="Get the frequency value. ">
<polygon fill="none" stroke="black" points="256.5,-77 256.5,-107 385.5,-107 385.5,-77 256.5,-77"/>
<text text-anchor="start" x="264.5" y="-95" font-family="Helvetica,sans-Serif" font-size="10.00">nars.entity.TruthValue.get</text>
<text text-anchor="middle" x="321" y="-84" font-family="Helvetica,sans-Serif" font-size="10.00">Frequency</text>
</a>
</g>
</g>
<!-- Node78&#45;&gt;Node80 -->
<g id="edge2" class="edge"><title>Node78&#45;&gt;Node80</title>
<path fill="none" stroke="midnightblue" d="M195.783,-79.5216C212.567,-81.2077 229.822,-82.941 245.93,-84.5592"/>
<polygon fill="midnightblue" stroke="midnightblue" points="246.033,-88.0871 256.333,-85.6042 246.733,-81.1222 246.033,-88.0871"/>
</g>
<!-- Node81 -->
<g id="node4" class="node"><title>Node81</title>
<g id="a_node4"><a xlink:href="../../db/d12/a00268.html#acaa4ebc080bc00d0e03be32d51d29e40" target="_top" xlink:title="A function where the output is disjunctively determined by the inputs. ">
<polygon fill="none" stroke="black" points="240.5,-38.5 240.5,-57.5 401.5,-57.5 401.5,-38.5 240.5,-38.5"/>
<text text-anchor="middle" x="321" y="-45.5" font-family="Helvetica,sans-Serif" font-size="10.00">nars.inference.UtilityFunctions.or</text>
</a>
</g>
</g>
<!-- Node78&#45;&gt;Node81 -->
<g id="edge3" class="edge"><title>Node78&#45;&gt;Node81</title>
<path fill="none" stroke="midnightblue" d="M195.783,-60.4784C207.317,-59.3198 219.072,-58.1388 230.525,-56.9883"/>
<polygon fill="midnightblue" stroke="midnightblue" points="230.899,-60.4685 240.499,-55.9864 230.199,-53.5035 230.899,-60.4685"/>
</g>
<!-- Node82 -->
<g id="node5" class="node"><title>Node82</title>
<g id="a_node5"><a xlink:href="../../db/d12/a00268.html#a957a91e3b91d4a4043c3959838c370f2" target="_top" xlink:title="A function to convert weight to confidence. ">
<polygon fill="none" stroke="black" points="236,-0.5 236,-19.5 406,-19.5 406,-0.5 236,-0.5"/>
<text text-anchor="middle" x="321" y="-7.5" font-family="Helvetica,sans-Serif" font-size="10.00">nars.inference.UtilityFunctions.w2c</text>
</a>
</g>
</g>
<!-- Node78&#45;&gt;Node82 -->
<g id="edge4" class="edge"><title>Node78&#45;&gt;Node82</title>
<path fill="none" stroke="midnightblue" d="M130.32,-60.4248C157.549,-51.6928 199.296,-38.7109 236,-29 245.333,-26.5307 255.302,-24.0982 264.993,-21.8412"/>
<polygon fill="midnightblue" stroke="midnightblue" points="265.986,-25.2042 274.952,-19.5584 264.422,-18.3812 265.986,-25.2042"/>
</g>
</g>
</svg>
