<?xml version="1.0" encoding="UTF-8" standalone="no"?>
<!DOCTYPE svg PUBLIC "-//W3C//DTD SVG 1.1//EN"
 "http://www.w3.org/Graphics/SVG/1.1/DTD/svg11.dtd">
<!-- Generated by graphviz version 2.38.0 (20140413.2041)
 -->
<!-- Title: Graphical Class Hierarchy Pages: 1 -->
<svg width="800pt" height="408pt"
 viewBox="0.00 0.00 800.00 408.00" xmlns="http://www.w3.org/2000/svg" xmlns:xlink="http://www.w3.org/1999/xlink">
<g id="graph0" class="graph" transform="scale(1 1) rotate(0) translate(4 404)">
<title>Graphical Class Hierarchy</title>
<!-- Node87 -->
<g id="node1" class="node"><title>Node87</title>
<polygon fill="none" stroke="#bfbfbf" points="0,-323.5 0,-342.5 84,-342.5 84,-323.5 0,-323.5"/>
<text text-anchor="middle" x="42" y="-330.5" font-family="Helvetica,sans-Serif" font-size="10.00">SentenceStruct</text>
</g>
<!-- Node63 -->
<g id="node2" class="node"><title>Node63</title>
<g id="a_node2"><a xlink:href="dd/dc1/a00212.html" target="_top" xlink:title="A Sentence is an abstract class, mainly containing a Term, a TruthValue, and a Stamp. ">
<polygon fill="none" stroke="black" points="123,-313.5 123,-332.5 230,-332.5 230,-313.5 123,-313.5"/>
<text text-anchor="middle" x="176.5" y="-320.5" font-family="Helvetica,sans-Serif" font-size="10.00">nars.entity.Sentence</text>
</a>
</g>
</g>
<!-- Node87&#45;&gt;Node63 -->
<g id="edge1" class="edge"><title>Node87&#45;&gt;Node63</title>
<path fill="none" stroke="midnightblue" d="M94.4232,-329.119C103.669,-328.421 113.322,-327.693 122.609,-326.992"/>
<polygon fill="midnightblue" stroke="midnightblue" points="93.9057,-325.648 84.1975,-329.891 94.4326,-332.628 93.9057,-325.648"/>
</g>
<!-- Node86 -->
<g id="node3" class="node"><title>Node86</title>
<polygon fill="none" stroke="#bfbfbf" points="6.5,-285.5 6.5,-304.5 77.5,-304.5 77.5,-285.5 6.5,-285.5"/>
<text text-anchor="middle" x="42" y="-292.5" font-family="Helvetica,sans-Serif" font-size="10.00">StampStruct</text>
</g>
<!-- Node64 -->
<g id="node4" class="node"><title>Node64</title>
<g id="a_node4"><a xlink:href="d6/d43/a00216.html" target="_top" xlink:title="Each Sentence has a time stamp, consisting the following components: (1) The creation time of the sen...">
<polygon fill="none" stroke="black" points="129.5,-256.5 129.5,-275.5 223.5,-275.5 223.5,-256.5 129.5,-256.5"/>
<text text-anchor="middle" x="176.5" y="-263.5" font-family="Helvetica,sans-Serif" font-size="10.00">nars.entity.Stamp</text>
</a>
</g>
</g>
<!-- Node86&#45;&gt;Node64 -->
<g id="edge2" class="edge"><title>Node86&#45;&gt;Node64</title>
<path fill="none" stroke="midnightblue" d="M87.8641,-285.181C102.085,-282.068 117.778,-278.633 131.908,-275.541"/>
<polygon fill="midnightblue" stroke="midnightblue" points="86.8332,-281.823 77.8128,-287.381 88.3299,-288.662 86.8332,-281.823"/>
</g>
<!-- Node79 -->
<g id="node5" class="node"><title>Node79</title>
<polygon fill="none" stroke="#bfbfbf" points="9.5,-209.5 9.5,-228.5 74.5,-228.5 74.5,-209.5 9.5,-209.5"/>
<text text-anchor="middle" x="42" y="-216.5" font-family="Helvetica,sans-Serif" font-size="10.00">TermStruct</text>
</g>
<!-- Node0 -->
<g id="node6" class="node"><title>Node0</title>
<g id="a_node6"><a xlink:href="dc/d59/a00364.html" target="_top" xlink:title="Term is the basic component of Narsese, and the object of processing in NARS. ">
<polygon fill="none" stroke="black" points="125,-209.5 125,-228.5 228,-228.5 228,-209.5 125,-209.5"/>
<text text-anchor="middle" x="176.5" y="-216.5" font-family="Helvetica,sans-Serif" font-size="10.00">nars.language.Term</text>
</a>
</g>
</g>
<!-- Node79&#45;&gt;Node0 -->
<g id="edge3" class="edge"><title>Node79&#45;&gt;Node0</title>
<path fill="none" stroke="midnightblue" d="M85.0059,-219C97.6734,-219 111.713,-219 124.879,-219"/>
<polygon fill="midnightblue" stroke="midnightblue" points="84.7371,-215.5 74.7371,-219 84.737,-222.5 84.7371,-215.5"/>
</g>
<!-- Node1 -->
<g id="node7" class="node"><title>Node1</title>
<g id="a_node7"><a xlink:href="d8/d17/a00304.html" target="_top" xlink:title="A CompoundTerm is a Term with internal (syntactic) structure. ">
<polygon fill="none" stroke="black" points="269,-228.5 269,-247.5 419,-247.5 419,-228.5 269,-228.5"/>
<text text-anchor="middle" x="344" y="-235.5" font-family="Helvetica,sans-Serif" font-size="10.00">nars.language.CompoundTerm</text>
</a>
</g>
</g>
<!-- Node0&#45;&gt;Node1 -->
<g id="edge4" class="edge"><title>Node0&#45;&gt;Node1</title>
<path fill="none" stroke="midnightblue" d="M238.275,-225.977C248.267,-227.124 258.721,-228.324 268.993,-229.504"/>
<polygon fill="midnightblue" stroke="midnightblue" points="238.389,-222.467 228.055,-224.804 237.59,-229.422 238.389,-222.467"/>
</g>
<!-- Node16 -->
<g id="node22" class="node"><title>Node16</title>
<g id="a_node22"><a xlink:href="d8/d21/a00368.html" target="_top" xlink:title="A variable term, which does not correspond to a concept. ">
<polygon fill="none" stroke="black" points="286,-190.5 286,-209.5 402,-209.5 402,-190.5 286,-190.5"/>
<text text-anchor="middle" x="344" y="-197.5" font-family="Helvetica,sans-Serif" font-size="10.00">nars.language.Variable</text>
</a>
</g>
</g>
<!-- Node0&#45;&gt;Node16 -->
<g id="edge19" class="edge"><title>Node0&#45;&gt;Node16</title>
<path fill="none" stroke="midnightblue" d="M238.108,-212.042C253.692,-210.253 270.408,-208.334 285.813,-206.565"/>
<polygon fill="midnightblue" stroke="midnightblue" points="237.59,-208.578 228.055,-213.196 238.389,-215.533 237.59,-208.578"/>
</g>
<!-- Node2 -->
<g id="node8" class="node"><title>Node2</title>
<g id="a_node8"><a xlink:href="d5/d0f/a00308.html" target="_top" xlink:title="An extension image. ">
<polygon fill="none" stroke="black" points="467,-380.5 467,-399.5 589,-399.5 589,-380.5 467,-380.5"/>
<text text-anchor="middle" x="528" y="-387.5" font-family="Helvetica,sans-Serif" font-size="10.00">nars.language.ImageExt</text>
</a>
</g>
</g>
<!-- Node1&#45;&gt;Node2 -->
<g id="edge5" class="edge"><title>Node1&#45;&gt;Node2</title>
<path fill="none" stroke="midnightblue" d="M355.137,-256.511C371.974,-285.477 408.504,-341.27 455,-371 461.099,-374.9 467.976,-378.003 474.997,-380.471"/>
<polygon fill="midnightblue" stroke="midnightblue" points="358.171,-254.767 350.196,-247.793 352.081,-258.218 358.171,-254.767"/>
</g>
<!-- Node3 -->
<g id="node9" class="node"><title>Node3</title>
<g id="a_node9"><a xlink:href="d7/df2/a00312.html" target="_top" xlink:title="An intension image. ">
<polygon fill="none" stroke="black" points="468.5,-342.5 468.5,-361.5 587.5,-361.5 587.5,-342.5 468.5,-342.5"/>
<text text-anchor="middle" x="528" y="-349.5" font-family="Helvetica,sans-Serif" font-size="10.00">nars.language.ImageInt</text>
</a>
</g>
</g>
<!-- Node1&#45;&gt;Node3 -->
<g id="edge6" class="edge"><title>Node1&#45;&gt;Node3</title>
<path fill="none" stroke="midnightblue" d="M360.306,-255.379C380.086,-276.77 416.574,-312.741 455,-333 462.319,-336.859 470.478,-339.976 478.601,-342.48"/>
<polygon fill="midnightblue" stroke="midnightblue" points="362.656,-252.76 353.346,-247.702 357.47,-257.462 362.656,-252.76"/>
</g>
<!-- Node4 -->
<g id="node10" class="node"><title>Node4</title>
<g id="a_node10"><a xlink:href="d4/db5/a00328.html" target="_top" xlink:title="A compound term whose extension is the intersection of the extensions of its components. ">
<polygon fill="none" stroke="black" points="455,-304.5 455,-323.5 601,-323.5 601,-304.5 455,-304.5"/>
<text text-anchor="middle" x="528" y="-311.5" font-family="Helvetica,sans-Serif" font-size="10.00">nars.language.IntersectionExt</text>
</a>
</g>
</g>
<!-- Node1&#45;&gt;Node4 -->
<g id="edge7" class="edge"><title>Node1&#45;&gt;Node4</title>
<path fill="none" stroke="midnightblue" d="M369.795,-252.861C391.623,-265.449 424.582,-283.27 455,-295 464.408,-298.628 474.768,-301.809 484.625,-304.479"/>
<polygon fill="midnightblue" stroke="midnightblue" points="371.28,-249.675 360.88,-247.653 367.749,-255.72 371.28,-249.675"/>
</g>
<!-- Node5 -->
<g id="node11" class="node"><title>Node5</title>
<g id="a_node11"><a xlink:href="dc/d50/a00332.html" target="_top" xlink:title="A compound term whose intension is the intersection of the extensions of its components. ">
<polygon fill="none" stroke="black" points="456.5,-266.5 456.5,-285.5 599.5,-285.5 599.5,-266.5 456.5,-266.5"/>
<text text-anchor="middle" x="528" y="-273.5" font-family="Helvetica,sans-Serif" font-size="10.00">nars.language.IntersectionInt</text>
</a>
</g>
</g>
<!-- Node1&#45;&gt;Node5 -->
<g id="edge8" class="edge"><title>Node1&#45;&gt;Node5</title>
<path fill="none" stroke="midnightblue" d="M400.946,-249.681C426.756,-255.07 457.007,-261.386 481.404,-266.48"/>
<polygon fill="midnightblue" stroke="midnightblue" points="401.431,-246.207 390.926,-247.589 400,-253.059 401.431,-246.207"/>
</g>
<!-- Node6 -->
<g id="node12" class="node"><title>Node6</title>
<g id="a_node12"><a xlink:href="dd/d1d/a00336.html" target="_top" xlink:title="A negation of a Statement. ">
<polygon fill="none" stroke="black" points="468.5,-228.5 468.5,-247.5 587.5,-247.5 587.5,-228.5 468.5,-228.5"/>
<text text-anchor="middle" x="528" y="-235.5" font-family="Helvetica,sans-Serif" font-size="10.00">nars.language.Negation</text>
</a>
</g>
</g>
<!-- Node1&#45;&gt;Node6 -->
<g id="edge9" class="edge"><title>Node1&#45;&gt;Node6</title>
<path fill="none" stroke="midnightblue" d="M429.117,-238C442.388,-238 455.855,-238 468.381,-238"/>
<polygon fill="midnightblue" stroke="midnightblue" points="429.026,-234.5 419.026,-238 429.026,-241.5 429.026,-234.5"/>
</g>
<!-- Node7 -->
<g id="node13" class="node"><title>Node7</title>
<g id="a_node13"><a xlink:href="df/df1/a00340.html" target="_top" xlink:title="A Product is a sequence of terms. ">
<polygon fill="none" stroke="black" points="471,-190.5 471,-209.5 585,-209.5 585,-190.5 471,-190.5"/>
<text text-anchor="middle" x="528" y="-197.5" font-family="Helvetica,sans-Serif" font-size="10.00">nars.language.Product</text>
</a>
</g>
</g>
<!-- Node1&#45;&gt;Node7 -->
<g id="edge10" class="edge"><title>Node1&#45;&gt;Node7</title>
<path fill="none" stroke="midnightblue" d="M400.946,-226.319C426.756,-220.93 457.007,-214.614 481.404,-209.52"/>
<polygon fill="midnightblue" stroke="midnightblue" points="400,-222.941 390.926,-228.411 401.431,-229.793 400,-222.941"/>
</g>
<!-- Node8 -->
<g id="node14" class="node"><title>Node8</title>
<g id="a_node14"><a xlink:href="df/d03/a00348.html" target="_top" xlink:title="An extensionally defined set, which contains one or more instances. ">
<polygon fill="none" stroke="black" points="473,-152.5 473,-171.5 583,-171.5 583,-152.5 473,-152.5"/>
<text text-anchor="middle" x="528" y="-159.5" font-family="Helvetica,sans-Serif" font-size="10.00">nars.language.SetExt</text>
</a>
</g>
</g>
<!-- Node1&#45;&gt;Node8 -->
<g id="edge11" class="edge"><title>Node1&#45;&gt;Node8</title>
<path fill="none" stroke="midnightblue" d="M406.84,-225.003C411.068,-223.246 415.167,-221.256 419,-219 439.051,-207.201 434.989,-192.865 455,-181 461.561,-177.11 468.922,-174.004 476.366,-171.527"/>
<polygon fill="midnightblue" stroke="midnightblue" points="405.591,-221.733 397.427,-228.486 408.02,-228.298 405.591,-221.733"/>
</g>
<!-- Node9 -->
<g id="node15" class="node"><title>Node9</title>
<g id="a_node15"><a xlink:href="d6/d9c/a00352.html" target="_top" xlink:title="An intensionally defined set, which contains one or more instances defining the Term. ">
<polygon fill="none" stroke="black" points="474.5,-114.5 474.5,-133.5 581.5,-133.5 581.5,-114.5 474.5,-114.5"/>
<text text-anchor="middle" x="528" y="-121.5" font-family="Helvetica,sans-Serif" font-size="10.00">nars.language.SetInt</text>
</a>
</g>
</g>
<!-- Node1&#45;&gt;Node9 -->
<g id="edge12" class="edge"><title>Node1&#45;&gt;Node9</title>
<path fill="none" stroke="midnightblue" d="M412.456,-223.661C414.748,-222.248 416.941,-220.699 419,-219 447.829,-195.213 426.251,-166.884 455,-143 460.668,-138.291 467.382,-134.737 474.394,-132.058"/>
<polygon fill="midnightblue" stroke="midnightblue" points="410.461,-220.752 403.19,-228.459 413.68,-226.968 410.461,-220.752"/>
</g>
<!-- Node10 -->
<g id="node16" class="node"><title>Node10</title>
<g id="a_node16"><a xlink:href="d0/d65/a00360.html" target="_top" xlink:title="A statement is a compound term, consisting of a subject, a predicate, and a relation symbol in betwee...">
<polygon fill="none" stroke="black" points="465.5,-76.5 465.5,-95.5 590.5,-95.5 590.5,-76.5 465.5,-76.5"/>
<text text-anchor="middle" x="528" y="-83.5" font-family="Helvetica,sans-Serif" font-size="10.00">nars.language.Statement</text>
</a>
</g>
</g>
<!-- Node1&#45;&gt;Node10 -->
<g id="edge13" class="edge"><title>Node1&#45;&gt;Node10</title>
<path fill="none" stroke="midnightblue" d="M414.186,-223.002C415.873,-221.768 417.483,-220.436 419,-219 457.581,-182.468 416.541,-141.661 455,-105 459.024,-101.164 463.727,-98.0813 468.768,-95.606"/>
<polygon fill="midnightblue" stroke="midnightblue" points="411.971,-220.249 405.198,-228.396 415.573,-226.251 411.971,-220.249"/>
</g>
<!-- Node11 -->
<g id="node17" class="node"><title>Node11</title>
<g id="a_node17"><a xlink:href="d3/db8/a00316.html" target="_top" xlink:title="A Statement about an Inheritance relation. ">
<polygon fill="none" stroke="black" points="650.5,-152.5 650.5,-171.5 778.5,-171.5 778.5,-152.5 650.5,-152.5"/>
<text text-anchor="middle" x="714.5" y="-159.5" font-family="Helvetica,sans-Serif" font-size="10.00">nars.language.Inheritance</text>
</a>
</g>
</g>
<!-- Node10&#45;&gt;Node11 -->
<g id="edge14" class="edge"><title>Node10&#45;&gt;Node11</title>
<path fill="none" stroke="midnightblue" d="M589.297,-99.1519C593.366,-100.872 597.31,-102.812 601,-105 621.011,-116.865 616.903,-131.281 637,-143 643.62,-146.86 651.005,-149.941 658.502,-152.398"/>
<polygon fill="midnightblue" stroke="midnightblue" points="590.226,-95.7625 579.634,-95.5265 587.767,-102.316 590.226,-95.7625"/>
</g>
<!-- Node12 -->
<g id="node18" class="node"><title>Node12</title>
<g id="a_node18"><a xlink:href="dd/de2/a00320.html" target="_top" xlink:title="A Statement about an Instance relation, which is used only in Narsese for I/O, and translated into In...">
<polygon fill="none" stroke="black" points="655.5,-114.5 655.5,-133.5 773.5,-133.5 773.5,-114.5 655.5,-114.5"/>
<text text-anchor="middle" x="714.5" y="-121.5" font-family="Helvetica,sans-Serif" font-size="10.00">nars.language.Instance</text>
</a>
</g>
</g>
<!-- Node10&#45;&gt;Node12 -->
<g id="edge15" class="edge"><title>Node10&#45;&gt;Node12</title>
<path fill="none" stroke="midnightblue" d="M585.367,-97.6095C611.607,-103.014 642.436,-109.364 667.278,-114.48"/>
<polygon fill="midnightblue" stroke="midnightblue" points="586.058,-94.1783 575.557,-95.589 584.645,-101.034 586.058,-94.1783"/>
</g>
<!-- Node13 -->
<g id="node19" class="node"><title>Node13</title>
<g id="a_node19"><a xlink:href="d4/d8f/a00324.html" target="_top" xlink:title="A Statement about an InstanceProperty relation, which is used only in Narsese for I/O...">
<polygon fill="none" stroke="black" points="637,-76.5 637,-95.5 792,-95.5 792,-76.5 637,-76.5"/>
<text text-anchor="middle" x="714.5" y="-83.5" font-family="Helvetica,sans-Serif" font-size="10.00">nars.language.InstanceProperty</text>
</a>
</g>
</g>
<!-- Node10&#45;&gt;Node13 -->
<g id="edge16" class="edge"><title>Node10&#45;&gt;Node13</title>
<path fill="none" stroke="midnightblue" d="M600.893,-86C612.66,-86 624.892,-86 636.77,-86"/>
<polygon fill="midnightblue" stroke="midnightblue" points="600.692,-82.5001 590.692,-86 600.692,-89.5001 600.692,-82.5001"/>
</g>
<!-- Node14 -->
<g id="node20" class="node"><title>Node14</title>
<g id="a_node20"><a xlink:href="d8/d8e/a00344.html" target="_top" xlink:title="A Statement about a Property relation, which is used only in Narsese for I/O, and translated into Inh...">
<polygon fill="none" stroke="black" points="656,-38.5 656,-57.5 773,-57.5 773,-38.5 656,-38.5"/>
<text text-anchor="middle" x="714.5" y="-45.5" font-family="Helvetica,sans-Serif" font-size="10.00">nars.language.Property</text>
</a>
</g>
</g>
<!-- Node10&#45;&gt;Node14 -->
<g id="edge17" class="edge"><title>Node10&#45;&gt;Node14</title>
<path fill="none" stroke="midnightblue" d="M585.367,-74.3905C611.607,-68.986 642.436,-62.6365 667.278,-57.5201"/>
<polygon fill="midnightblue" stroke="midnightblue" points="584.645,-70.9656 575.557,-76.411 586.058,-77.8217 584.645,-70.9656"/>
</g>
<!-- Node15 -->
<g id="node21" class="node"><title>Node15</title>
<g id="a_node21"><a xlink:href="d6/de1/a00356.html" target="_top" xlink:title="A Statement about a Similarity relation. ">
<polygon fill="none" stroke="black" points="654,-0.5 654,-19.5 775,-19.5 775,-0.5 654,-0.5"/>
<text text-anchor="middle" x="714.5" y="-7.5" font-family="Helvetica,sans-Serif" font-size="10.00">nars.language.Similarity</text>
</a>
</g>
</g>
<!-- Node10&#45;&gt;Node15 -->
<g id="edge18" class="edge"><title>Node10&#45;&gt;Node15</title>
<path fill="none" stroke="midnightblue" d="M552.897,-71.2204C574.274,-58.5337 606.804,-40.5222 637,-29 646.589,-25.3409 657.126,-22.1951 667.232,-19.5757"/>
<polygon fill="midnightblue" stroke="midnightblue" points="550.947,-68.3092 544.184,-76.4645 554.556,-74.3069 550.947,-68.3092"/>
</g>
<!-- Node78 -->
<g id="node23" class="node"><title>Node78</title>
<polygon fill="none" stroke="#bfbfbf" points="7,-133.5 7,-152.5 77,-152.5 77,-133.5 7,-133.5"/>
<text text-anchor="middle" x="42" y="-140.5" font-family="Helvetica,sans-Serif" font-size="10.00">TruthHandle</text>
</g>
<!-- Node65 -->
<g id="node24" class="node"><title>Node65</title>
<g id="a_node24"><a xlink:href="d7/d40/a00236.html" target="_top" xlink:title="Frequency and confidence. ">
<polygon fill="none" stroke="black" points="120,-152.5 120,-171.5 233,-171.5 233,-152.5 120,-152.5"/>
<text text-anchor="middle" x="176.5" y="-159.5" font-family="Helvetica,sans-Serif" font-size="10.00">nars.entity.TruthValue</text>
</a>
</g>
</g>
<!-- Node78&#45;&gt;Node65 -->
<g id="edge20" class="edge"><title>Node78&#45;&gt;Node65</title>
<path fill="none" stroke="midnightblue" d="M87.2638,-149.347C97.7257,-150.847 109.013,-152.466 119.905,-154.028"/>
<polygon fill="midnightblue" stroke="midnightblue" points="87.5176,-145.848 77.122,-147.893 86.524,-152.777 87.5176,-145.848"/>
</g>
<!-- Node62 -->
<g id="node25" class="node"><title>Node62</title>
<polygon fill="none" stroke="#bfbfbf" points="12,-247.5 12,-266.5 72,-266.5 72,-247.5 12,-247.5"/>
<text text-anchor="middle" x="42" y="-254.5" font-family="Helvetica,sans-Serif" font-size="10.00">Cloneable</text>
</g>
<!-- Node62&#45;&gt;Node63 -->
<g id="edge21" class="edge"><title>Node62&#45;&gt;Node63</title>
<path fill="none" stroke="midnightblue" d="M73.0024,-270.733C76.7168,-272.483 80.4531,-274.268 84,-276 109.676,-288.537 138.999,-303.762 157.381,-313.418"/>
<polygon fill="midnightblue" stroke="midnightblue" points="74.4773,-267.559 63.9352,-266.503 71.5181,-273.902 74.4773,-267.559"/>
</g>
<!-- Node62&#45;&gt;Node64 -->
<g id="edge22" class="edge"><title>Node62&#45;&gt;Node64</title>
<path fill="none" stroke="midnightblue" d="M82.3815,-259.675C97.1238,-260.676 114.003,-261.823 129.306,-262.862"/>
<polygon fill="midnightblue" stroke="midnightblue" points="82.2919,-256.161 72.0777,-258.975 81.8175,-263.145 82.2919,-256.161"/>
</g>
<!-- Node62&#45;&gt;Node0 -->
<g id="edge24" class="edge"><title>Node62&#45;&gt;Node0</title>
<path fill="none" stroke="midnightblue" d="M81.7349,-245.891C100.94,-240.383 123.898,-233.799 142.289,-228.525"/>
<polygon fill="midnightblue" stroke="midnightblue" points="80.7253,-242.539 72.0777,-248.661 82.6551,-249.268 80.7253,-242.539"/>
</g>
<!-- Node62&#45;&gt;Node65 -->
<g id="edge23" class="edge"><title>Node62&#45;&gt;Node65</title>
<path fill="none" stroke="midnightblue" d="M76.5957,-242.742C79.1706,-241.258 81.6708,-239.674 84,-238 102.891,-224.422 102.303,-215.101 120,-200 132.436,-189.388 147.869,-179.018 159.301,-171.799"/>
<polygon fill="midnightblue" stroke="midnightblue" points="74.9339,-239.661 67.6939,-247.397 78.1774,-245.865 74.9339,-239.661"/>
</g>
<!-- Node44 -->
<g id="node26" class="node"><title>Node44</title>
<polygon fill="none" stroke="#bfbfbf" points="7.5,-171.5 7.5,-190.5 76.5,-190.5 76.5,-171.5 7.5,-171.5"/>
<text text-anchor="middle" x="42" y="-178.5" font-family="Helvetica,sans-Serif" font-size="10.00">Comparable</text>
</g>
<!-- Node44&#45;&gt;Node0 -->
<g id="edge25" class="edge"><title>Node44&#45;&gt;Node0</title>
<path fill="none" stroke="midnightblue" d="M86.2039,-193.391C104.349,-198.594 125.129,-204.554 142.075,-209.414"/>
<polygon fill="midnightblue" stroke="midnightblue" points="87.0127,-189.981 76.4353,-190.589 85.0829,-196.71 87.0127,-189.981"/>
</g>
</g>
</svg>
