<?xml version="1.0" encoding="UTF-8" standalone="no"?>
<!DOCTYPE svg PUBLIC "-//W3C//DTD SVG 1.1//EN"
 "http://www.w3.org/Graphics/SVG/1.1/DTD/svg11.dtd">
<!-- Generated by graphviz version 2.38.0 (20140413.2041)
 -->
<!-- Title: nars.storage.Bag.refresh Pages: 1 -->
<svg width="1258pt" height="235pt"
 viewBox="0.00 0.00 1258.00 235.00" xmlns="http://www.w3.org/2000/svg" xmlns:xlink="http://www.w3.org/1999/xlink">
<g id="graph0" class="graph" transform="scale(1 1) rotate(0) translate(4 231)">
<title>nars.storage.Bag.refresh</title>
<!-- Node193 -->
<g id="node1" class="node"><title>Node193</title>
<polygon fill="#bfbfbf" stroke="black" points="0,-104 0,-123 124,-123 124,-104 0,-104"/>
<text text-anchor="middle" x="62" y="-111" font-family="Helvetica,sans-Serif" font-size="10.00">nars.storage.Bag.refresh</text>
</g>
<!-- Node194 -->
<g id="node2" class="node"><title>Node194</title>
<g id="a_node2"><a xlink:href="../../d6/db8/a00376.html#a405137ac9b2c5e0b6fb836a7ecf5c1e6" target="_top" xlink:title="Insert an item into the itemTable, and return the overflow. ">
<polygon fill="none" stroke="black" points="160,-196.5 160,-226.5 297,-226.5 297,-196.5 160,-196.5"/>
<text text-anchor="start" x="168" y="-214.5" font-family="Helvetica,sans-Serif" font-size="10.00">nars.storage.Bag&lt; Concept</text>
<text text-anchor="middle" x="228.5" y="-203.5" font-family="Helvetica,sans-Serif" font-size="10.00"> &gt;::intoBase</text>
</a>
</g>
</g>
<!-- Node193&#45;&gt;Node194 -->
<g id="edge1" class="edge"><title>Node193&#45;&gt;Node194</title>
<path fill="none" stroke="midnightblue" d="M80.9715,-129.97C99.5993,-146.349 130.125,-171.308 160,-187.5 166.014,-190.759 172.56,-193.726 179.131,-196.375"/>
<polygon fill="midnightblue" stroke="midnightblue" points="83.0839,-127.164 73.2951,-123.11 78.4197,-132.383 83.0839,-127.164"/>
</g>
<!-- Node195 -->
<g id="node3" class="node"><title>Node195</title>
<g id="a_node3"><a xlink:href="../../d6/db8/a00376.html#ab6b356879b5d95a8c0ce2f36a2727d75" target="_top" xlink:title="Remove an item from itemTable, then adjust mass. ">
<polygon fill="none" stroke="black" points="160,-147.5 160,-177.5 297,-177.5 297,-147.5 160,-147.5"/>
<text text-anchor="start" x="168" y="-165.5" font-family="Helvetica,sans-Serif" font-size="10.00">nars.storage.Bag&lt; Concept</text>
<text text-anchor="middle" x="228.5" y="-154.5" font-family="Helvetica,sans-Serif" font-size="10.00"> &gt;::outOfBase</text>
</a>
</g>
</g>
<!-- Node193&#45;&gt;Node195 -->
<g id="edge2" class="edge"><title>Node193&#45;&gt;Node195</title>
<path fill="none" stroke="midnightblue" d="M104.81,-125.954C126.783,-132.499 153.882,-140.571 177.019,-147.463"/>
<polygon fill="midnightblue" stroke="midnightblue" points="105.691,-122.565 95.1078,-123.064 103.692,-129.273 105.691,-122.565"/>
</g>
<!-- Node196 -->
<g id="node4" class="node"><title>Node196</title>
<g id="a_node4"><a xlink:href="../../d6/db8/a00376.html#a775c0537431b865015facac73e698891" target="_top" xlink:title="Choose an Item according to priority distribution and take it out of the Bag. ">
<polygon fill="none" stroke="black" points="160,-98.5 160,-128.5 297,-128.5 297,-98.5 160,-98.5"/>
<text text-anchor="start" x="168" y="-116.5" font-family="Helvetica,sans-Serif" font-size="10.00">nars.storage.Bag&lt; Concept</text>
<text text-anchor="middle" x="228.5" y="-105.5" font-family="Helvetica,sans-Serif" font-size="10.00"> &gt;::takeOut</text>
</a>
</g>
</g>
<!-- Node193&#45;&gt;Node196 -->
<g id="edge3" class="edge"><title>Node193&#45;&gt;Node196</title>
<path fill="none" stroke="midnightblue" d="M134.439,-113.5C142.872,-113.5 151.46,-113.5 159.839,-113.5"/>
<polygon fill="midnightblue" stroke="midnightblue" points="134.254,-110 124.254,-113.5 134.254,-117 134.254,-110"/>
</g>
<!-- Node197 -->
<g id="node5" class="node"><title>Node197</title>
<g id="a_node5"><a xlink:href="../../d6/db8/a00376.html#a7495c60e01c02220dee7528fb6611fae" target="_top" xlink:title="Take out the first or last Type in a level from the itemTable. ">
<polygon fill="none" stroke="black" points="160,-49.5 160,-79.5 297,-79.5 297,-49.5 160,-49.5"/>
<text text-anchor="start" x="168" y="-67.5" font-family="Helvetica,sans-Serif" font-size="10.00">nars.storage.Bag&lt; Concept</text>
<text text-anchor="middle" x="228.5" y="-56.5" font-family="Helvetica,sans-Serif" font-size="10.00"> &gt;::takeOutFirst</text>
</a>
</g>
</g>
<!-- Node193&#45;&gt;Node197 -->
<g id="edge4" class="edge"><title>Node193&#45;&gt;Node197</title>
<path fill="none" stroke="midnightblue" d="M104.81,-101.046C126.783,-94.5008 153.882,-86.4287 177.019,-79.537"/>
<polygon fill="midnightblue" stroke="midnightblue" points="103.692,-97.7268 95.1078,-103.936 105.691,-104.435 103.692,-97.7268"/>
</g>
<!-- Node198 -->
<g id="node6" class="node"><title>Node198</title>
<g id="a_node6"><a xlink:href="../../d4/d27/a00392.html#a59ae339d666409988d90d29be4f73a91" target="_top" xlink:title="An atomic working workCycle of the system: process new Tasks, then fireFromProcessConcept a concept...">
<polygon fill="none" stroke="black" points="162,-0.5 162,-30.5 295,-30.5 295,-0.5 162,-0.5"/>
<text text-anchor="start" x="170" y="-18.5" font-family="Helvetica,sans-Serif" font-size="10.00">nars.storage.Memory.work</text>
<text text-anchor="middle" x="228.5" y="-7.5" font-family="Helvetica,sans-Serif" font-size="10.00">Cycle</text>
</a>
</g>
</g>
<!-- Node193&#45;&gt;Node198 -->
<g id="edge5" class="edge"><title>Node193&#45;&gt;Node198</title>
<path fill="none" stroke="midnightblue" d="M81.3596,-97.0899C100.08,-81.0057 130.486,-56.621 160,-40.5 166.69,-36.8458 174.024,-33.5137 181.316,-30.5575"/>
<polygon fill="midnightblue" stroke="midnightblue" points="78.8609,-94.6251 73.626,-103.836 83.4625,-99.9001 78.8609,-94.6251"/>
</g>
<!-- Node199 -->
<g id="node7" class="node"><title>Node199</title>
<g id="a_node7"><a xlink:href="../../df/d15/a00416.html#a0d5c797dc17d9e8d0998852915e0f303" target="_top" xlink:title="nars.storage.ReasonerBatch.doTick">
<polygon fill="none" stroke="black" points="333,-6 333,-25 506,-25 506,-6 333,-6"/>
<text text-anchor="middle" x="419.5" y="-13" font-family="Helvetica,sans-Serif" font-size="10.00">nars.storage.ReasonerBatch.doTick</text>
</a>
</g>
</g>
<!-- Node198&#45;&gt;Node199 -->
<g id="edge6" class="edge"><title>Node198&#45;&gt;Node199</title>
<path fill="none" stroke="midnightblue" d="M305.183,-15.5C314.244,-15.5 323.547,-15.5 332.738,-15.5"/>
<polygon fill="midnightblue" stroke="midnightblue" points="305.073,-12.0001 295.073,-15.5 305.073,-19.0001 305.073,-12.0001"/>
</g>
<!-- Node200 -->
<g id="node8" class="node"><title>Node200</title>
<g id="a_node8"><a xlink:href="../../df/d15/a00416.html#a3468aa0f99edcd66412f27922dddb880" target="_top" xlink:title="A clock tick. ">
<polygon fill="none" stroke="black" points="542,-6 542,-25 702,-25 702,-6 542,-6"/>
<text text-anchor="middle" x="622" y="-13" font-family="Helvetica,sans-Serif" font-size="10.00">nars.storage.ReasonerBatch.tick</text>
</a>
</g>
</g>
<!-- Node199&#45;&gt;Node200 -->
<g id="edge7" class="edge"><title>Node199&#45;&gt;Node200</title>
<path fill="none" stroke="midnightblue" d="M516.131,-15.5C524.696,-15.5 533.306,-15.5 541.711,-15.5"/>
<polygon fill="midnightblue" stroke="midnightblue" points="516.112,-12.0001 506.112,-15.5 516.112,-19.0001 516.112,-12.0001"/>
</g>
<!-- Node201 -->
<g id="node9" class="node"><title>Node201</title>
<g id="a_node9"><a xlink:href="../../d9/da1/a00396.html#a5d9cfe517bcfbe41e5251910bcd119c1" target="_top" xlink:title="Run to completion: repeatedly execute NARS working cycle, until Inputs are Finished, or 1000 steps. ">
<polygon fill="none" stroke="black" points="738,-6 738,-25 882,-25 882,-6 738,-6"/>
<text text-anchor="middle" x="810" y="-13" font-family="Helvetica,sans-Serif" font-size="10.00">nars.storage.NARSBatch.run</text>
</a>
</g>
</g>
<!-- Node200&#45;&gt;Node201 -->
<g id="edge8" class="edge"><title>Node200&#45;&gt;Node201</title>
<path fill="none" stroke="midnightblue" d="M712.217,-15.5C720.824,-15.5 729.475,-15.5 737.873,-15.5"/>
<polygon fill="midnightblue" stroke="midnightblue" points="712.15,-12.0001 702.15,-15.5 712.15,-19.0001 712.15,-12.0001"/>
</g>
<!-- Node202 -->
<g id="node10" class="node"><title>Node202</title>
<g id="a_node10"><a xlink:href="../../d9/da1/a00396.html#a7c307c6b842f82664de6b0e52bdf8efc" target="_top" xlink:title="non&#45;static equivalent to main(String[]) : run to completion from an input file ">
<polygon fill="none" stroke="black" points="918,-0.5 918,-30.5 1062,-30.5 1062,-0.5 918,-0.5"/>
<text text-anchor="start" x="926" y="-18.5" font-family="Helvetica,sans-Serif" font-size="10.00">nars.storage.NARSBatch.run</text>
<text text-anchor="middle" x="990" y="-7.5" font-family="Helvetica,sans-Serif" font-size="10.00">Inference</text>
</a>
</g>
</g>
<!-- Node201&#45;&gt;Node202 -->
<g id="edge9" class="edge"><title>Node201&#45;&gt;Node202</title>
<path fill="none" stroke="midnightblue" d="M892.17,-15.5C900.789,-15.5 909.506,-15.5 917.995,-15.5"/>
<polygon fill="midnightblue" stroke="midnightblue" points="892.118,-12.0001 882.118,-15.5 892.118,-19.0001 892.118,-12.0001"/>
</g>
<!-- Node203 -->
<g id="node11" class="node"><title>Node203</title>
<g id="a_node11"><a xlink:href="../../d9/da1/a00396.html#abafc597289bc2f6453b5cd0dd6634e54" target="_top" xlink:title="The entry point of the standalone application. ">
<polygon fill="none" stroke="black" points="1098,-6 1098,-25 1250,-25 1250,-6 1098,-6"/>
<text text-anchor="middle" x="1174" y="-13" font-family="Helvetica,sans-Serif" font-size="10.00">nars.storage.NARSBatch.main</text>
</a>
</g>
</g>
<!-- Node202&#45;&gt;Node203 -->
<g id="edge10" class="edge"><title>Node202&#45;&gt;Node203</title>
<path fill="none" stroke="midnightblue" d="M1072.17,-15.5C1080.76,-15.5 1089.48,-15.5 1098,-15.5"/>
<polygon fill="midnightblue" stroke="midnightblue" points="1072.15,-12.0001 1062.15,-15.5 1072.15,-19.0001 1072.15,-12.0001"/>
</g>
</g>
</svg>
