<?xml version="1.0" encoding="UTF-8" standalone="no"?>
<!DOCTYPE svg PUBLIC "-//W3C//DTD SVG 1.1//EN"
 "http://www.w3.org/Graphics/SVG/1.1/DTD/svg11.dtd">
<!-- Generated by graphviz version 2.38.0 (20140413.2041)
 -->
<!-- Title: nars.storage.Bag.putIn Pages: 1 -->
<svg width="2305pt" height="270pt"
 viewBox="0.00 0.00 2305.00 270.00" xmlns="http://www.w3.org/2000/svg" xmlns:xlink="http://www.w3.org/1999/xlink">
<g id="graph0" class="graph" transform="scale(1 1) rotate(0) translate(4 266)">
<title>nars.storage.Bag.putIn</title>
<!-- Node175 -->
<g id="node1" class="node"><title>Node175</title>
<polygon fill="#bfbfbf" stroke="black" points="0,-126 0,-145 116,-145 116,-126 0,-126"/>
<text text-anchor="middle" x="58" y="-133" font-family="Helvetica,sans-Serif" font-size="10.00">nars.storage.Bag.putIn</text>
</g>
<!-- Node176 -->
<g id="node2" class="node"><title>Node176</title>
<g id="a_node2"><a xlink:href="../../d4/d27/a00392.html#aca4bbc5804f617906c8c18c3d4d81a6c" target="_top" xlink:title="Get the Concept associated to a Term, or create it. ">
<polygon fill="none" stroke="black" points="152,-126 152,-145 314,-145 314,-126 152,-126"/>
<text text-anchor="middle" x="233" y="-133" font-family="Helvetica,sans-Serif" font-size="10.00">nars.storage.Memory.getConcept</text>
</a>
</g>
</g>
<!-- Node175&#45;&gt;Node176 -->
<g id="edge1" class="edge"><title>Node175&#45;&gt;Node176</title>
<path fill="none" stroke="midnightblue" d="M126.198,-135.5C134.577,-135.5 143.211,-135.5 151.763,-135.5"/>
<polygon fill="midnightblue" stroke="midnightblue" points="126.126,-132 116.126,-135.5 126.126,-139 126.126,-132"/>
</g>
<!-- Node180 -->
<g id="node6" class="node"><title>Node180</title>
<g id="a_node6"><a xlink:href="../../d4/d27/a00392.html#ae43b86074c0d8f6a324696f69faa54b3" target="_top" xlink:title="Process the newTasks accumulated in the previous workCycle, accept input ones and those that correspo...">
<polygon fill="none" stroke="black" points="1029,-44.5 1029,-74.5 1175,-74.5 1175,-44.5 1029,-44.5"/>
<text text-anchor="start" x="1037" y="-62.5" font-family="Helvetica,sans-Serif" font-size="10.00">nars.storage.Memory.process</text>
<text text-anchor="middle" x="1102" y="-51.5" font-family="Helvetica,sans-Serif" font-size="10.00">NewTask</text>
</a>
</g>
</g>
<!-- Node175&#45;&gt;Node180 -->
<g id="edge22" class="edge"><title>Node175&#45;&gt;Node180</title>
<path fill="none" stroke="midnightblue" d="M94.7964,-122.571C158.159,-100.878 294.603,-59.5 413.5,-59.5 413.5,-59.5 413.5,-59.5 736.5,-59.5 837.908,-59.5 955.186,-59.5 1028.73,-59.5"/>
<polygon fill="midnightblue" stroke="midnightblue" points="93.5702,-119.292 85.2684,-125.875 95.8632,-125.906 93.5702,-119.292"/>
</g>
<!-- Node189 -->
<g id="node15" class="node"><title>Node189</title>
<g id="a_node15"><a xlink:href="../../d7/ded/a00196.html#aef21f5ae7bef5194bd37ae526302843d" target="_top" xlink:title="Insert a TaskLink into the TaskLink bag. ">
<polygon fill="none" stroke="black" points="350,-231.5 350,-261.5 479,-261.5 479,-231.5 350,-231.5"/>
<text text-anchor="start" x="358" y="-249.5" font-family="Helvetica,sans-Serif" font-size="10.00">nars.entity.Concept.insert</text>
<text text-anchor="middle" x="414.5" y="-238.5" font-family="Helvetica,sans-Serif" font-size="10.00">TaskLink</text>
</a>
</g>
</g>
<!-- Node175&#45;&gt;Node189 -->
<g id="edge18" class="edge"><title>Node175&#45;&gt;Node189</title>
<path fill="none" stroke="midnightblue" d="M76.2551,-152.37C93.8067,-168.481 122.545,-192.089 152,-204.5 215.983,-231.46 295.466,-241.228 349.903,-244.706"/>
<polygon fill="midnightblue" stroke="midnightblue" points="78.2629,-149.454 68.5834,-145.146 73.4639,-154.55 78.2629,-149.454"/>
</g>
<!-- Node190 -->
<g id="node16" class="node"><title>Node190</title>
<g id="a_node16"><a xlink:href="../../d7/ded/a00196.html#a3c69b71b1987ca4066c9b3d2a7973dd1" target="_top" xlink:title="Insert a TermLink into the TermLink bag. ">
<polygon fill="none" stroke="black" points="168.5,-164.5 168.5,-194.5 297.5,-194.5 297.5,-164.5 168.5,-164.5"/>
<text text-anchor="start" x="176.5" y="-182.5" font-family="Helvetica,sans-Serif" font-size="10.00">nars.entity.Concept.insert</text>
<text text-anchor="middle" x="233" y="-171.5" font-family="Helvetica,sans-Serif" font-size="10.00">TermLink</text>
</a>
</g>
</g>
<!-- Node175&#45;&gt;Node190 -->
<g id="edge20" class="edge"><title>Node175&#45;&gt;Node190</title>
<path fill="none" stroke="midnightblue" d="M106.285,-147.526C126.805,-152.745 151.061,-158.914 172.766,-164.435"/>
<polygon fill="midnightblue" stroke="midnightblue" points="107.093,-144.12 96.5384,-145.047 105.367,-150.904 107.093,-144.12"/>
</g>
<!-- Node191 -->
<g id="node17" class="node"><title>Node191</title>
<g id="a_node17"><a xlink:href="../../d6/db8/a00376.html#a64b0b75c54e6882a28702d7810094656" target="_top" xlink:title="Put an item back into the itemTable. ">
<polygon fill="none" stroke="black" points="164.5,-0.5 164.5,-30.5 301.5,-30.5 301.5,-0.5 164.5,-0.5"/>
<text text-anchor="start" x="172.5" y="-18.5" font-family="Helvetica,sans-Serif" font-size="10.00">nars.storage.Bag&lt; Concept</text>
<text text-anchor="middle" x="233" y="-7.5" font-family="Helvetica,sans-Serif" font-size="10.00"> &gt;::putBack</text>
</a>
</g>
</g>
<!-- Node175&#45;&gt;Node191 -->
<g id="edge23" class="edge"><title>Node175&#45;&gt;Node191</title>
<path fill="none" stroke="midnightblue" d="M73.1033,-118.059C90.0149,-98.13 120.097,-65.6748 152,-45.5 161.277,-39.6332 171.876,-34.6515 182.256,-30.5333"/>
<polygon fill="midnightblue" stroke="midnightblue" points="70.4006,-115.835 66.6949,-125.761 75.7815,-120.312 70.4006,-115.835"/>
</g>
<!-- Node177 -->
<g id="node3" class="node"><title>Node177</title>
<g id="a_node3"><a xlink:href="../../d7/ded/a00196.html#a501121a11fc046eea4b69720cb622d84" target="_top" xlink:title="Link to a new task from all relevant concepts for continued processing in the near future for unspeci...">
<polygon fill="none" stroke="black" points="515,-154.5 515,-184.5 635,-184.5 635,-154.5 515,-154.5"/>
<text text-anchor="start" x="523" y="-172.5" font-family="Helvetica,sans-Serif" font-size="10.00">nars.entity.Concept.link</text>
<text text-anchor="middle" x="575" y="-161.5" font-family="Helvetica,sans-Serif" font-size="10.00">ToTask</text>
</a>
</g>
</g>
<!-- Node176&#45;&gt;Node177 -->
<g id="edge2" class="edge"><title>Node176&#45;&gt;Node177</title>
<path fill="none" stroke="midnightblue" d="M324.143,-141.454C370.492,-144.871 427.846,-149.649 479,-155.5 490.594,-156.826 502.951,-158.474 514.786,-160.168"/>
<polygon fill="midnightblue" stroke="midnightblue" points="324.354,-137.96 314.126,-140.724 323.845,-144.941 324.354,-137.96"/>
</g>
<!-- Node179 -->
<g id="node5" class="node"><title>Node179</title>
<g id="a_node5"><a xlink:href="../../d4/d27/a00392.html#af8d07412d21a441a5c7005a477b06468" target="_top" xlink:title="Immediate processing of a new task, in constant time Local processing, in one concept only...">
<polygon fill="none" stroke="black" points="836,-90.5 836,-120.5 993,-120.5 993,-90.5 836,-90.5"/>
<text text-anchor="start" x="844" y="-108.5" font-family="Helvetica,sans-Serif" font-size="10.00">nars.storage.Memory.immediate</text>
<text text-anchor="middle" x="914.5" y="-97.5" font-family="Helvetica,sans-Serif" font-size="10.00">Process</text>
</a>
</g>
</g>
<!-- Node176&#45;&gt;Node179 -->
<g id="edge17" class="edge"><title>Node176&#45;&gt;Node179</title>
<path fill="none" stroke="midnightblue" d="M324.549,-131.502C459.005,-125.566 709.156,-114.522 835.778,-108.931"/>
<polygon fill="midnightblue" stroke="midnightblue" points="324.116,-128.018 314.28,-131.956 324.425,-135.011 324.116,-128.018"/>
</g>
<!-- Node188 -->
<g id="node14" class="node"><title>Node188</title>
<g id="a_node14"><a xlink:href="../../d7/ded/a00196.html#a3f3f026223e459e041fbdd8c0f49f7c6" target="_top" xlink:title="Recursively build TermLinks between a compound and its components. ">
<polygon fill="none" stroke="black" points="352,-164.5 352,-194.5 477,-194.5 477,-164.5 352,-164.5"/>
<text text-anchor="start" x="360" y="-182.5" font-family="Helvetica,sans-Serif" font-size="10.00">nars.entity.Concept.build</text>
<text text-anchor="middle" x="414.5" y="-171.5" font-family="Helvetica,sans-Serif" font-size="10.00">TermLinks</text>
</a>
</g>
</g>
<!-- Node176&#45;&gt;Node188 -->
<g id="edge14" class="edge"><title>Node176&#45;&gt;Node188</title>
<path fill="none" stroke="midnightblue" d="M282.771,-147.455C304.124,-152.689 329.418,-158.889 352.04,-164.435"/>
<polygon fill="midnightblue" stroke="midnightblue" points="283.495,-144.029 272.949,-145.047 281.828,-150.828 283.495,-144.029"/>
</g>
<!-- Node178 -->
<g id="node4" class="node"><title>Node178</title>
<g id="a_node4"><a xlink:href="../../d7/ded/a00196.html#a9ea7c3154932d7a736c105eb55daeb5c" target="_top" xlink:title="Directly process a new task. ">
<polygon fill="none" stroke="black" points="671,-135.5 671,-165.5 800,-165.5 800,-135.5 671,-135.5"/>
<text text-anchor="start" x="679" y="-153.5" font-family="Helvetica,sans-Serif" font-size="10.00">nars.entity.Concept.direct</text>
<text text-anchor="middle" x="735.5" y="-142.5" font-family="Helvetica,sans-Serif" font-size="10.00">Process</text>
</a>
</g>
</g>
<!-- Node177&#45;&gt;Node178 -->
<g id="edge3" class="edge"><title>Node177&#45;&gt;Node178</title>
<path fill="none" stroke="midnightblue" d="M645.021,-161.226C653.627,-160.195 662.396,-159.143 670.913,-158.122"/>
<polygon fill="midnightblue" stroke="midnightblue" points="644.532,-157.76 635.02,-162.425 645.365,-164.71 644.532,-157.76"/>
</g>
<!-- Node178&#45;&gt;Node179 -->
<g id="edge4" class="edge"><title>Node178&#45;&gt;Node179</title>
<path fill="none" stroke="midnightblue" d="M805.769,-132.889C821.784,-128.818 838.683,-124.521 854.226,-120.57"/>
<polygon fill="midnightblue" stroke="midnightblue" points="804.76,-129.534 795.931,-135.39 806.485,-136.318 804.76,-129.534"/>
</g>
<!-- Node179&#45;&gt;Node180 -->
<g id="edge5" class="edge"><title>Node179&#45;&gt;Node180</title>
<path fill="none" stroke="midnightblue" d="M986.055,-88.0038C1003.97,-83.5602 1023.07,-78.8255 1040.44,-74.5174"/>
<polygon fill="midnightblue" stroke="midnightblue" points="985.103,-84.6338 976.24,-90.4379 986.788,-91.428 985.103,-84.6338"/>
</g>
<!-- Node187 -->
<g id="node13" class="node"><title>Node187</title>
<g id="a_node13"><a xlink:href="../../d4/d27/a00392.html#a5061708f88897cfdf4e0671c846762ca" target="_top" xlink:title="Select a novel task to process. ">
<polygon fill="none" stroke="black" points="1029,-93.5 1029,-123.5 1175,-123.5 1175,-93.5 1029,-93.5"/>
<text text-anchor="start" x="1037" y="-111.5" font-family="Helvetica,sans-Serif" font-size="10.00">nars.storage.Memory.process</text>
<text text-anchor="middle" x="1102" y="-100.5" font-family="Helvetica,sans-Serif" font-size="10.00">NovelTask</text>
</a>
</g>
</g>
<!-- Node179&#45;&gt;Node187 -->
<g id="edge12" class="edge"><title>Node179&#45;&gt;Node187</title>
<path fill="none" stroke="midnightblue" d="M1003.12,-106.917C1011.71,-107.056 1020.35,-107.196 1028.75,-107.332"/>
<polygon fill="midnightblue" stroke="midnightblue" points="1003.15,-103.417 993.094,-106.755 1003.04,-110.416 1003.15,-103.417"/>
</g>
<!-- Node181 -->
<g id="node7" class="node"><title>Node181</title>
<g id="a_node7"><a xlink:href="../../d4/d27/a00392.html#a59ae339d666409988d90d29be4f73a91" target="_top" xlink:title="An atomic working workCycle of the system: process new Tasks, then fireFromProcessConcept a concept...">
<polygon fill="none" stroke="black" points="1211,-68.5 1211,-98.5 1344,-98.5 1344,-68.5 1211,-68.5"/>
<text text-anchor="start" x="1219" y="-86.5" font-family="Helvetica,sans-Serif" font-size="10.00">nars.storage.Memory.work</text>
<text text-anchor="middle" x="1277.5" y="-75.5" font-family="Helvetica,sans-Serif" font-size="10.00">Cycle</text>
</a>
</g>
</g>
<!-- Node180&#45;&gt;Node181 -->
<g id="edge6" class="edge"><title>Node180&#45;&gt;Node181</title>
<path fill="none" stroke="midnightblue" d="M1185.12,-70.8592C1193.72,-72.0486 1202.37,-73.2464 1210.76,-74.4056"/>
<polygon fill="midnightblue" stroke="midnightblue" points="1185.46,-67.373 1175.07,-69.4697 1184.5,-74.307 1185.46,-67.373"/>
</g>
<!-- Node182 -->
<g id="node8" class="node"><title>Node182</title>
<g id="a_node8"><a xlink:href="../../df/d15/a00416.html#a0d5c797dc17d9e8d0998852915e0f303" target="_top" xlink:title="nars.storage.ReasonerBatch.doTick">
<polygon fill="none" stroke="black" points="1380,-74 1380,-93 1553,-93 1553,-74 1380,-74"/>
<text text-anchor="middle" x="1466.5" y="-81" font-family="Helvetica,sans-Serif" font-size="10.00">nars.storage.ReasonerBatch.doTick</text>
</a>
</g>
</g>
<!-- Node181&#45;&gt;Node182 -->
<g id="edge7" class="edge"><title>Node181&#45;&gt;Node182</title>
<path fill="none" stroke="midnightblue" d="M1354.34,-83.5C1362.78,-83.5 1371.42,-83.5 1379.97,-83.5"/>
<polygon fill="midnightblue" stroke="midnightblue" points="1354.17,-80.0001 1344.17,-83.5 1354.17,-87.0001 1354.17,-80.0001"/>
</g>
<!-- Node183 -->
<g id="node9" class="node"><title>Node183</title>
<g id="a_node9"><a xlink:href="../../df/d15/a00416.html#a3468aa0f99edcd66412f27922dddb880" target="_top" xlink:title="A clock tick. ">
<polygon fill="none" stroke="black" points="1589,-74 1589,-93 1749,-93 1749,-74 1589,-74"/>
<text text-anchor="middle" x="1669" y="-81" font-family="Helvetica,sans-Serif" font-size="10.00">nars.storage.ReasonerBatch.tick</text>
</a>
</g>
</g>
<!-- Node182&#45;&gt;Node183 -->
<g id="edge8" class="edge"><title>Node182&#45;&gt;Node183</title>
<path fill="none" stroke="midnightblue" d="M1563.13,-83.5C1571.7,-83.5 1580.31,-83.5 1588.71,-83.5"/>
<polygon fill="midnightblue" stroke="midnightblue" points="1563.11,-80.0001 1553.11,-83.5 1563.11,-87.0001 1563.11,-80.0001"/>
</g>
<!-- Node184 -->
<g id="node10" class="node"><title>Node184</title>
<g id="a_node10"><a xlink:href="../../d9/da1/a00396.html#a5d9cfe517bcfbe41e5251910bcd119c1" target="_top" xlink:title="Run to completion: repeatedly execute NARS working cycle, until Inputs are Finished, or 1000 steps. ">
<polygon fill="none" stroke="black" points="1785,-74 1785,-93 1929,-93 1929,-74 1785,-74"/>
<text text-anchor="middle" x="1857" y="-81" font-family="Helvetica,sans-Serif" font-size="10.00">nars.storage.NARSBatch.run</text>
</a>
</g>
</g>
<!-- Node183&#45;&gt;Node184 -->
<g id="edge9" class="edge"><title>Node183&#45;&gt;Node184</title>
<path fill="none" stroke="midnightblue" d="M1759.22,-83.5C1767.82,-83.5 1776.47,-83.5 1784.87,-83.5"/>
<polygon fill="midnightblue" stroke="midnightblue" points="1759.15,-80.0001 1749.15,-83.5 1759.15,-87.0001 1759.15,-80.0001"/>
</g>
<!-- Node185 -->
<g id="node11" class="node"><title>Node185</title>
<g id="a_node11"><a xlink:href="../../d9/da1/a00396.html#a7c307c6b842f82664de6b0e52bdf8efc" target="_top" xlink:title="non&#45;static equivalent to main(String[]) : run to completion from an input file ">
<polygon fill="none" stroke="black" points="1965,-68.5 1965,-98.5 2109,-98.5 2109,-68.5 1965,-68.5"/>
<text text-anchor="start" x="1973" y="-86.5" font-family="Helvetica,sans-Serif" font-size="10.00">nars.storage.NARSBatch.run</text>
<text text-anchor="middle" x="2037" y="-75.5" font-family="Helvetica,sans-Serif" font-size="10.00">Inference</text>
</a>
</g>
</g>
<!-- Node184&#45;&gt;Node185 -->
<g id="edge10" class="edge"><title>Node184&#45;&gt;Node185</title>
<path fill="none" stroke="midnightblue" d="M1939.17,-83.5C1947.79,-83.5 1956.51,-83.5 1965,-83.5"/>
<polygon fill="midnightblue" stroke="midnightblue" points="1939.12,-80.0001 1929.12,-83.5 1939.12,-87.0001 1939.12,-80.0001"/>
</g>
<!-- Node186 -->
<g id="node12" class="node"><title>Node186</title>
<g id="a_node12"><a xlink:href="../../d9/da1/a00396.html#abafc597289bc2f6453b5cd0dd6634e54" target="_top" xlink:title="The entry point of the standalone application. ">
<polygon fill="none" stroke="black" points="2145,-74 2145,-93 2297,-93 2297,-74 2145,-74"/>
<text text-anchor="middle" x="2221" y="-81" font-family="Helvetica,sans-Serif" font-size="10.00">nars.storage.NARSBatch.main</text>
</a>
</g>
</g>
<!-- Node185&#45;&gt;Node186 -->
<g id="edge11" class="edge"><title>Node185&#45;&gt;Node186</title>
<path fill="none" stroke="midnightblue" d="M2119.17,-83.5C2127.76,-83.5 2136.48,-83.5 2145,-83.5"/>
<polygon fill="midnightblue" stroke="midnightblue" points="2119.15,-80.0001 2109.15,-83.5 2119.15,-87.0001 2119.15,-80.0001"/>
</g>
<!-- Node187&#45;&gt;Node181 -->
<g id="edge13" class="edge"><title>Node187&#45;&gt;Node181</title>
<path fill="none" stroke="midnightblue" d="M1185.12,-96.6675C1193.72,-95.4286 1202.37,-94.1809 1210.76,-92.9733"/>
<polygon fill="midnightblue" stroke="midnightblue" points="1184.47,-93.2244 1175.07,-98.1149 1185.47,-100.153 1184.47,-93.2244"/>
</g>
<!-- Node188&#45;&gt;Node177 -->
<g id="edge16" class="edge"><title>Node188&#45;&gt;Node177</title>
<path fill="none" stroke="midnightblue" d="M487.467,-174.96C496.602,-174.383 505.868,-173.799 514.773,-173.237"/>
<polygon fill="midnightblue" stroke="midnightblue" points="486.994,-171.482 477.234,-175.605 487.435,-178.468 486.994,-171.482"/>
</g>
<!-- Node188&#45;&gt;Node188 -->
<g id="edge15" class="edge"><title>Node188&#45;&gt;Node188</title>
<path fill="none" stroke="midnightblue" d="M386.07,-204.958C389.599,-209.679 399.075,-213 414.5,-213 439.812,-213 449.107,-204.057 442.383,-194.659"/>
<polygon fill="midnightblue" stroke="midnightblue" points="389.582,-204.831 386.617,-194.659 382.591,-204.459 389.582,-204.831"/>
</g>
<!-- Node189&#45;&gt;Node177 -->
<g id="edge19" class="edge"><title>Node189&#45;&gt;Node177</title>
<path fill="none" stroke="midnightblue" d="M467.252,-227.673C471.257,-225.993 475.213,-224.26 479,-222.5 503.491,-211.116 530.263,-195.913 549.127,-184.709"/>
<polygon fill="midnightblue" stroke="midnightblue" points="465.823,-224.476 457.875,-231.482 468.457,-230.961 465.823,-224.476"/>
</g>
<!-- Node190&#45;&gt;Node188 -->
<g id="edge21" class="edge"><title>Node190&#45;&gt;Node188</title>
<path fill="none" stroke="midnightblue" d="M307.601,-179.5C322.305,-179.5 337.607,-179.5 351.857,-179.5"/>
<polygon fill="midnightblue" stroke="midnightblue" points="307.538,-176 297.538,-179.5 307.538,-183 307.538,-176"/>
</g>
</g>
</svg>
