<?xml version="1.0" encoding="UTF-8" standalone="no"?>
<!DOCTYPE svg PUBLIC "-//W3C//DTD SVG 1.1//EN"
 "http://www.w3.org/Graphics/SVG/1.1/DTD/svg11.dtd">
<!-- Generated by graphviz version 2.38.0 (20140413.2041)
 -->
<!-- Title: nars.storage.Bag.putBack Pages: 1 -->
<svg width="2320pt" height="132pt"
 viewBox="0.00 0.00 2320.00 132.00" xmlns="http://www.w3.org/2000/svg" xmlns:xlink="http://www.w3.org/1999/xlink">
<g id="graph0" class="graph" transform="scale(1 1) rotate(0) translate(4 128)">
<title>nars.storage.Bag.putBack</title>
<!-- Node158 -->
<g id="node1" class="node"><title>Node158</title>
<polygon fill="#bfbfbf" stroke="black" points="0,-28 0,-47 130,-47 130,-28 0,-28"/>
<text text-anchor="middle" x="65" y="-35" font-family="Helvetica,sans-Serif" font-size="10.00">nars.storage.Bag.putBack</text>
</g>
<!-- Node159 -->
<g id="node2" class="node"><title>Node159</title>
<g id="a_node2"><a xlink:href="../../d4/d27/a00392.html#a7affdc42dcb55d27d76cf636eab6230f" target="_top" xlink:title="Adjust the activation level of a Concept. ">
<polygon fill="none" stroke="black" points="166,-71.5 166,-101.5 312,-101.5 312,-71.5 166,-71.5"/>
<text text-anchor="start" x="174" y="-89.5" font-family="Helvetica,sans-Serif" font-size="10.00">nars.storage.Memory.activate</text>
<text text-anchor="middle" x="239" y="-78.5" font-family="Helvetica,sans-Serif" font-size="10.00">Concept</text>
</a>
</g>
</g>
<!-- Node158&#45;&gt;Node159 -->
<g id="edge1" class="edge"><title>Node158&#45;&gt;Node159</title>
<path fill="none" stroke="midnightblue" d="M109.406,-49.8657C132.436,-56.4265 160.917,-64.5403 185.217,-71.463"/>
<polygon fill="midnightblue" stroke="midnightblue" points="110.148,-46.4378 99.5716,-47.064 108.23,-53.17 110.148,-46.4378"/>
</g>
<!-- Node172 -->
<g id="node15" class="node"><title>Node172</title>
<g id="a_node15"><a xlink:href="../../d7/ded/a00196.html#ad6fb91dda799c3092ecb186ef24ca92a" target="_top" xlink:title="An atomic step in a concept, only called in Memory# processConcept. ">
<polygon fill="none" stroke="black" points="179.5,-22.5 179.5,-52.5 298.5,-52.5 298.5,-22.5 179.5,-22.5"/>
<text text-anchor="start" x="187.5" y="-40.5" font-family="Helvetica,sans-Serif" font-size="10.00">nars.entity.Concept.fire</text>
<text text-anchor="middle" x="239" y="-29.5" font-family="Helvetica,sans-Serif" font-size="10.00">FromProcessConcept</text>
</a>
</g>
</g>
<!-- Node158&#45;&gt;Node172 -->
<g id="edge15" class="edge"><title>Node158&#45;&gt;Node172</title>
<path fill="none" stroke="midnightblue" d="M140.385,-37.5C153.403,-37.5 166.782,-37.5 179.3,-37.5"/>
<polygon fill="midnightblue" stroke="midnightblue" points="140.046,-34.0001 130.046,-37.5 140.046,-41.0001 140.046,-34.0001"/>
</g>
<!-- Node173 -->
<g id="node16" class="node"><title>Node173</title>
<g id="a_node16"><a xlink:href="../../d4/d27/a00392.html#a0acc4adbf6a2462245da46bcb529746c" target="_top" xlink:title="Select a concept to fireFromProcessConcept. ">
<polygon fill="none" stroke="black" points="348,-0.5 348,-30.5 494,-30.5 494,-0.5 348,-0.5"/>
<text text-anchor="start" x="356" y="-18.5" font-family="Helvetica,sans-Serif" font-size="10.00">nars.storage.Memory.process</text>
<text text-anchor="middle" x="421" y="-7.5" font-family="Helvetica,sans-Serif" font-size="10.00">Concept</text>
</a>
</g>
</g>
<!-- Node158&#45;&gt;Node173 -->
<g id="edge18" class="edge"><title>Node158&#45;&gt;Node173</title>
<path fill="none" stroke="midnightblue" d="M105.931,-25.1339C124.07,-20.137 145.919,-14.9721 166,-12.5 226.95,-4.99677 296.745,-6.54386 347.73,-9.51555"/>
<polygon fill="midnightblue" stroke="midnightblue" points="104.936,-21.7781 96.271,-27.8745 106.847,-28.5123 104.936,-21.7781"/>
</g>
<!-- Node160 -->
<g id="node3" class="node"><title>Node160</title>
<g id="a_node3"><a xlink:href="../../d7/ded/a00196.html#aef21f5ae7bef5194bd37ae526302843d" target="_top" xlink:title="Insert a TaskLink into the TaskLink bag. ">
<polygon fill="none" stroke="black" points="356.5,-71.5 356.5,-101.5 485.5,-101.5 485.5,-71.5 356.5,-71.5"/>
<text text-anchor="start" x="364.5" y="-89.5" font-family="Helvetica,sans-Serif" font-size="10.00">nars.entity.Concept.insert</text>
<text text-anchor="middle" x="421" y="-78.5" font-family="Helvetica,sans-Serif" font-size="10.00">TaskLink</text>
</a>
</g>
</g>
<!-- Node159&#45;&gt;Node160 -->
<g id="edge2" class="edge"><title>Node159&#45;&gt;Node160</title>
<path fill="none" stroke="midnightblue" d="M322.509,-86.5C333.832,-86.5 345.314,-86.5 356.232,-86.5"/>
<polygon fill="midnightblue" stroke="midnightblue" points="322.176,-83.0001 312.176,-86.5 322.176,-90.0001 322.176,-83.0001"/>
</g>
<!-- Node161 -->
<g id="node4" class="node"><title>Node161</title>
<g id="a_node4"><a xlink:href="../../d7/ded/a00196.html#a501121a11fc046eea4b69720cb622d84" target="_top" xlink:title="Link to a new task from all relevant concepts for continued processing in the near future for unspeci...">
<polygon fill="none" stroke="black" points="530,-71.5 530,-101.5 650,-101.5 650,-71.5 530,-71.5"/>
<text text-anchor="start" x="538" y="-89.5" font-family="Helvetica,sans-Serif" font-size="10.00">nars.entity.Concept.link</text>
<text text-anchor="middle" x="590" y="-78.5" font-family="Helvetica,sans-Serif" font-size="10.00">ToTask</text>
</a>
</g>
</g>
<!-- Node160&#45;&gt;Node161 -->
<g id="edge3" class="edge"><title>Node160&#45;&gt;Node161</title>
<path fill="none" stroke="midnightblue" d="M495.62,-86.5C507.109,-86.5 518.851,-86.5 529.959,-86.5"/>
<polygon fill="midnightblue" stroke="midnightblue" points="495.612,-83.0001 485.612,-86.5 495.612,-90.0001 495.612,-83.0001"/>
</g>
<!-- Node162 -->
<g id="node5" class="node"><title>Node162</title>
<g id="a_node5"><a xlink:href="../../d7/ded/a00196.html#a9ea7c3154932d7a736c105eb55daeb5c" target="_top" xlink:title="Directly process a new task. ">
<polygon fill="none" stroke="black" points="686,-71.5 686,-101.5 815,-101.5 815,-71.5 686,-71.5"/>
<text text-anchor="start" x="694" y="-89.5" font-family="Helvetica,sans-Serif" font-size="10.00">nars.entity.Concept.direct</text>
<text text-anchor="middle" x="750.5" y="-78.5" font-family="Helvetica,sans-Serif" font-size="10.00">Process</text>
</a>
</g>
</g>
<!-- Node161&#45;&gt;Node162 -->
<g id="edge4" class="edge"><title>Node161&#45;&gt;Node162</title>
<path fill="none" stroke="midnightblue" d="M660.021,-86.5C668.627,-86.5 677.396,-86.5 685.913,-86.5"/>
<polygon fill="midnightblue" stroke="midnightblue" points="660.02,-83.0001 650.02,-86.5 660.02,-90.0001 660.02,-83.0001"/>
</g>
<!-- Node163 -->
<g id="node6" class="node"><title>Node163</title>
<g id="a_node6"><a xlink:href="../../d4/d27/a00392.html#af8d07412d21a441a5c7005a477b06468" target="_top" xlink:title="Immediate processing of a new task, in constant time Local processing, in one concept only...">
<polygon fill="none" stroke="black" points="851,-71.5 851,-101.5 1008,-101.5 1008,-71.5 851,-71.5"/>
<text text-anchor="start" x="859" y="-89.5" font-family="Helvetica,sans-Serif" font-size="10.00">nars.storage.Memory.immediate</text>
<text text-anchor="middle" x="929.5" y="-78.5" font-family="Helvetica,sans-Serif" font-size="10.00">Process</text>
</a>
</g>
</g>
<!-- Node162&#45;&gt;Node163 -->
<g id="edge5" class="edge"><title>Node162&#45;&gt;Node163</title>
<path fill="none" stroke="midnightblue" d="M825.492,-86.5C833.854,-86.5 842.393,-86.5 850.801,-86.5"/>
<polygon fill="midnightblue" stroke="midnightblue" points="825.401,-83.0001 815.401,-86.5 825.401,-90.0001 825.401,-83.0001"/>
</g>
<!-- Node164 -->
<g id="node7" class="node"><title>Node164</title>
<g id="a_node7"><a xlink:href="../../d4/d27/a00392.html#ae43b86074c0d8f6a324696f69faa54b3" target="_top" xlink:title="Process the newTasks accumulated in the previous workCycle, accept input ones and those that correspo...">
<polygon fill="none" stroke="black" points="1044,-93.5 1044,-123.5 1190,-123.5 1190,-93.5 1044,-93.5"/>
<text text-anchor="start" x="1052" y="-111.5" font-family="Helvetica,sans-Serif" font-size="10.00">nars.storage.Memory.process</text>
<text text-anchor="middle" x="1117" y="-100.5" font-family="Helvetica,sans-Serif" font-size="10.00">NewTask</text>
</a>
</g>
</g>
<!-- Node163&#45;&gt;Node164 -->
<g id="edge6" class="edge"><title>Node163&#45;&gt;Node164</title>
<path fill="none" stroke="midnightblue" d="M1018.12,-96.8921C1026.71,-97.91 1035.35,-98.9349 1043.75,-99.9317"/>
<polygon fill="midnightblue" stroke="midnightblue" points="1018.44,-93.4047 1008.09,-95.7025 1017.61,-100.356 1018.44,-93.4047"/>
</g>
<!-- Node171 -->
<g id="node14" class="node"><title>Node171</title>
<g id="a_node14"><a xlink:href="../../d4/d27/a00392.html#a5061708f88897cfdf4e0671c846762ca" target="_top" xlink:title="Select a novel task to process. ">
<polygon fill="none" stroke="black" points="1044,-44.5 1044,-74.5 1190,-74.5 1190,-44.5 1044,-44.5"/>
<text text-anchor="start" x="1052" y="-62.5" font-family="Helvetica,sans-Serif" font-size="10.00">nars.storage.Memory.process</text>
<text text-anchor="middle" x="1117" y="-51.5" font-family="Helvetica,sans-Serif" font-size="10.00">NovelTask</text>
</a>
</g>
</g>
<!-- Node163&#45;&gt;Node171 -->
<g id="edge13" class="edge"><title>Node163&#45;&gt;Node171</title>
<path fill="none" stroke="midnightblue" d="M1018.12,-73.746C1026.71,-72.4968 1035.35,-71.239 1043.75,-70.0156"/>
<polygon fill="midnightblue" stroke="midnightblue" points="1017.49,-70.3021 1008.09,-75.206 1018.49,-77.2291 1017.49,-70.3021"/>
</g>
<!-- Node165 -->
<g id="node8" class="node"><title>Node165</title>
<g id="a_node8"><a xlink:href="../../d4/d27/a00392.html#a59ae339d666409988d90d29be4f73a91" target="_top" xlink:title="An atomic working workCycle of the system: process new Tasks, then fireFromProcessConcept a concept...">
<polygon fill="none" stroke="black" points="1226,-44.5 1226,-74.5 1359,-74.5 1359,-44.5 1226,-44.5"/>
<text text-anchor="start" x="1234" y="-62.5" font-family="Helvetica,sans-Serif" font-size="10.00">nars.storage.Memory.work</text>
<text text-anchor="middle" x="1292.5" y="-51.5" font-family="Helvetica,sans-Serif" font-size="10.00">Cycle</text>
</a>
</g>
</g>
<!-- Node164&#45;&gt;Node165 -->
<g id="edge7" class="edge"><title>Node164&#45;&gt;Node165</title>
<path fill="none" stroke="midnightblue" d="M1181.1,-90.6788C1199.83,-85.3882 1220.16,-79.6478 1238.21,-74.5516"/>
<polygon fill="midnightblue" stroke="midnightblue" points="1180.14,-87.3123 1171.47,-93.3986 1182.05,-94.0488 1180.14,-87.3123"/>
</g>
<!-- Node166 -->
<g id="node9" class="node"><title>Node166</title>
<g id="a_node9"><a xlink:href="../../df/d15/a00416.html#a0d5c797dc17d9e8d0998852915e0f303" target="_top" xlink:title="nars.storage.ReasonerBatch.doTick">
<polygon fill="none" stroke="black" points="1395,-50 1395,-69 1568,-69 1568,-50 1395,-50"/>
<text text-anchor="middle" x="1481.5" y="-57" font-family="Helvetica,sans-Serif" font-size="10.00">nars.storage.ReasonerBatch.doTick</text>
</a>
</g>
</g>
<!-- Node165&#45;&gt;Node166 -->
<g id="edge8" class="edge"><title>Node165&#45;&gt;Node166</title>
<path fill="none" stroke="midnightblue" d="M1369.34,-59.5C1377.78,-59.5 1386.42,-59.5 1394.97,-59.5"/>
<polygon fill="midnightblue" stroke="midnightblue" points="1369.17,-56.0001 1359.17,-59.5 1369.17,-63.0001 1369.17,-56.0001"/>
</g>
<!-- Node167 -->
<g id="node10" class="node"><title>Node167</title>
<g id="a_node10"><a xlink:href="../../df/d15/a00416.html#a3468aa0f99edcd66412f27922dddb880" target="_top" xlink:title="A clock tick. ">
<polygon fill="none" stroke="black" points="1604,-50 1604,-69 1764,-69 1764,-50 1604,-50"/>
<text text-anchor="middle" x="1684" y="-57" font-family="Helvetica,sans-Serif" font-size="10.00">nars.storage.ReasonerBatch.tick</text>
</a>
</g>
</g>
<!-- Node166&#45;&gt;Node167 -->
<g id="edge9" class="edge"><title>Node166&#45;&gt;Node167</title>
<path fill="none" stroke="midnightblue" d="M1578.13,-59.5C1586.7,-59.5 1595.31,-59.5 1603.71,-59.5"/>
<polygon fill="midnightblue" stroke="midnightblue" points="1578.11,-56.0001 1568.11,-59.5 1578.11,-63.0001 1578.11,-56.0001"/>
</g>
<!-- Node168 -->
<g id="node11" class="node"><title>Node168</title>
<g id="a_node11"><a xlink:href="../../d9/da1/a00396.html#a5d9cfe517bcfbe41e5251910bcd119c1" target="_top" xlink:title="Run to completion: repeatedly execute NARS working cycle, until Inputs are Finished, or 1000 steps. ">
<polygon fill="none" stroke="black" points="1800,-50 1800,-69 1944,-69 1944,-50 1800,-50"/>
<text text-anchor="middle" x="1872" y="-57" font-family="Helvetica,sans-Serif" font-size="10.00">nars.storage.NARSBatch.run</text>
</a>
</g>
</g>
<!-- Node167&#45;&gt;Node168 -->
<g id="edge10" class="edge"><title>Node167&#45;&gt;Node168</title>
<path fill="none" stroke="midnightblue" d="M1774.22,-59.5C1782.82,-59.5 1791.47,-59.5 1799.87,-59.5"/>
<polygon fill="midnightblue" stroke="midnightblue" points="1774.15,-56.0001 1764.15,-59.5 1774.15,-63.0001 1774.15,-56.0001"/>
</g>
<!-- Node169 -->
<g id="node12" class="node"><title>Node169</title>
<g id="a_node12"><a xlink:href="../../d9/da1/a00396.html#a7c307c6b842f82664de6b0e52bdf8efc" target="_top" xlink:title="non&#45;static equivalent to main(String[]) : run to completion from an input file ">
<polygon fill="none" stroke="black" points="1980,-44.5 1980,-74.5 2124,-74.5 2124,-44.5 1980,-44.5"/>
<text text-anchor="start" x="1988" y="-62.5" font-family="Helvetica,sans-Serif" font-size="10.00">nars.storage.NARSBatch.run</text>
<text text-anchor="middle" x="2052" y="-51.5" font-family="Helvetica,sans-Serif" font-size="10.00">Inference</text>
</a>
</g>
</g>
<!-- Node168&#45;&gt;Node169 -->
<g id="edge11" class="edge"><title>Node168&#45;&gt;Node169</title>
<path fill="none" stroke="midnightblue" d="M1954.17,-59.5C1962.79,-59.5 1971.51,-59.5 1980,-59.5"/>
<polygon fill="midnightblue" stroke="midnightblue" points="1954.12,-56.0001 1944.12,-59.5 1954.12,-63.0001 1954.12,-56.0001"/>
</g>
<!-- Node170 -->
<g id="node13" class="node"><title>Node170</title>
<g id="a_node13"><a xlink:href="../../d9/da1/a00396.html#abafc597289bc2f6453b5cd0dd6634e54" target="_top" xlink:title="The entry point of the standalone application. ">
<polygon fill="none" stroke="black" points="2160,-50 2160,-69 2312,-69 2312,-50 2160,-50"/>
<text text-anchor="middle" x="2236" y="-57" font-family="Helvetica,sans-Serif" font-size="10.00">nars.storage.NARSBatch.main</text>
</a>
</g>
</g>
<!-- Node169&#45;&gt;Node170 -->
<g id="edge12" class="edge"><title>Node169&#45;&gt;Node170</title>
<path fill="none" stroke="midnightblue" d="M2134.17,-59.5C2142.76,-59.5 2151.48,-59.5 2160,-59.5"/>
<polygon fill="midnightblue" stroke="midnightblue" points="2134.15,-56.0001 2124.15,-59.5 2134.15,-63.0001 2134.15,-56.0001"/>
</g>
<!-- Node171&#45;&gt;Node165 -->
<g id="edge14" class="edge"><title>Node171&#45;&gt;Node165</title>
<path fill="none" stroke="midnightblue" d="M1200.12,-59.5C1208.72,-59.5 1217.37,-59.5 1225.76,-59.5"/>
<polygon fill="midnightblue" stroke="midnightblue" points="1200.07,-56.0001 1190.07,-59.5 1200.07,-63.0001 1200.07,-56.0001"/>
</g>
<!-- Node172&#45;&gt;Node173 -->
<g id="edge16" class="edge"><title>Node172&#45;&gt;Node173</title>
<path fill="none" stroke="midnightblue" d="M308.969,-29.0704C321.66,-27.5193 334.942,-25.896 347.727,-24.3334"/>
<polygon fill="midnightblue" stroke="midnightblue" points="308.44,-25.6089 298.939,-30.2964 309.29,-32.5572 308.44,-25.6089"/>
</g>
<!-- Node173&#45;&gt;Node165 -->
<g id="edge17" class="edge"><title>Node173&#45;&gt;Node165</title>
<path fill="none" stroke="midnightblue" d="M504.569,-15.5C570.79,-15.5 666.116,-15.5 749.5,-15.5 749.5,-15.5 749.5,-15.5 930.5,-15.5 1046.14,-15.5 1075.79,-16.3852 1190,-34.5 1205.68,-36.9875 1222.5,-40.6951 1237.85,-44.4983"/>
<polygon fill="midnightblue" stroke="midnightblue" points="504.197,-12.0001 494.197,-15.5 504.197,-19.0001 504.197,-12.0001"/>
</g>
</g>
</svg>
