<?xml version="1.0" encoding="UTF-8" standalone="no"?>
<!DOCTYPE svg PUBLIC "-//W3C//DTD SVG 1.1//EN"
 "http://www.w3.org/Graphics/SVG/1.1/DTD/svg11.dtd">
<!-- Generated by graphviz version 2.38.0 (20140413.2041)
 -->
<!-- Title: nars.storage.Bag.capacity Pages: 1 -->
<svg width="312pt" height="137pt"
 viewBox="0.00 0.00 312.00 137.00" xmlns="http://www.w3.org/2000/svg" xmlns:xlink="http://www.w3.org/1999/xlink">
<g id="graph0" class="graph" transform="scale(1 1) rotate(0) translate(4 133)">
<title>nars.storage.Bag.capacity</title>
<!-- Node25 -->
<g id="node1" class="node"><title>Node25</title>
<polygon fill="#bfbfbf" stroke="black" points="0,-55 0,-74 131,-74 131,-55 0,-55"/>
<text text-anchor="middle" x="65.5" y="-62" font-family="Helvetica,sans-Serif" font-size="10.00">nars.storage.Bag.capacity</text>
</g>
<!-- Node26 -->
<g id="node2" class="node"><title>Node26</title>
<g id="a_node2"><a xlink:href="../../d6/db8/a00376.html#a89da8cb76f7c36fdd926a436273ddf10" target="_top" xlink:title="constructor, called from subclasses ">
<polygon fill="none" stroke="black" points="167,-98.5 167,-128.5 304,-128.5 304,-98.5 167,-98.5"/>
<text text-anchor="start" x="175" y="-116.5" font-family="Helvetica,sans-Serif" font-size="10.00">nars.storage.Bag&lt; Concept</text>
<text text-anchor="middle" x="235.5" y="-105.5" font-family="Helvetica,sans-Serif" font-size="10.00"> &gt;::Bag</text>
</a>
</g>
</g>
<!-- Node25&#45;&gt;Node26 -->
<g id="edge1" class="edge"><title>Node25&#45;&gt;Node26</title>
<path fill="none" stroke="midnightblue" d="M108.897,-76.8657C131.391,-83.4265 159.21,-91.5403 182.945,-98.463"/>
<polygon fill="midnightblue" stroke="midnightblue" points="109.871,-73.5041 99.2909,-74.064 107.911,-80.2241 109.871,-73.5041"/>
</g>
<!-- Node27 -->
<g id="node3" class="node"><title>Node27</title>
<g id="a_node3"><a xlink:href="../../d6/db8/a00376.html#a4f481c434a5a4ac0004138ba81fd426f" target="_top" xlink:title="nars.storage.Bag\&lt; Concept\l \&gt;::init">
<polygon fill="none" stroke="black" points="167,-49.5 167,-79.5 304,-79.5 304,-49.5 167,-49.5"/>
<text text-anchor="start" x="175" y="-67.5" font-family="Helvetica,sans-Serif" font-size="10.00">nars.storage.Bag&lt; Concept</text>
<text text-anchor="middle" x="235.5" y="-56.5" font-family="Helvetica,sans-Serif" font-size="10.00"> &gt;::init</text>
</a>
</g>
</g>
<!-- Node25&#45;&gt;Node27 -->
<g id="edge2" class="edge"><title>Node25&#45;&gt;Node27</title>
<path fill="none" stroke="midnightblue" d="M141.648,-64.5C150.074,-64.5 158.62,-64.5 166.941,-64.5"/>
<polygon fill="midnightblue" stroke="midnightblue" points="141.453,-61.0001 131.453,-64.5 141.453,-68.0001 141.453,-61.0001"/>
</g>
<!-- Node28 -->
<g id="node4" class="node"><title>Node28</title>
<g id="a_node4"><a xlink:href="../../d6/db8/a00376.html#a405137ac9b2c5e0b6fb836a7ecf5c1e6" target="_top" xlink:title="Insert an item into the itemTable, and return the overflow. ">
<polygon fill="none" stroke="black" points="167,-0.5 167,-30.5 304,-30.5 304,-0.5 167,-0.5"/>
<text text-anchor="start" x="175" y="-18.5" font-family="Helvetica,sans-Serif" font-size="10.00">nars.storage.Bag&lt; Concept</text>
<text text-anchor="middle" x="235.5" y="-7.5" font-family="Helvetica,sans-Serif" font-size="10.00"> &gt;::intoBase</text>
</a>
</g>
</g>
<!-- Node25&#45;&gt;Node28 -->
<g id="edge3" class="edge"><title>Node25&#45;&gt;Node28</title>
<path fill="none" stroke="midnightblue" d="M108.897,-52.1343C131.391,-45.5735 159.21,-37.4597 182.945,-30.537"/>
<polygon fill="midnightblue" stroke="midnightblue" points="107.911,-48.7759 99.2909,-54.936 109.871,-55.4959 107.911,-48.7759"/>
</g>
</g>
</svg>
