<?xml version="1.0" encoding="UTF-8" standalone="no"?>
<!DOCTYPE svg PUBLIC "-//W3C//DTD SVG 1.1//EN"
 "http://www.w3.org/Graphics/SVG/1.1/DTD/svg11.dtd">
<!-- Generated by graphviz version 2.38.0 (20140413.2041)
 -->
<!-- Title: nars.storage.Bag.toStringLong Pages: 1 -->
<svg width="900pt" height="39pt"
 viewBox="0.00 0.00 900.00 39.00" xmlns="http://www.w3.org/2000/svg" xmlns:xlink="http://www.w3.org/1999/xlink">
<g id="graph0" class="graph" transform="scale(1 1) rotate(0) translate(4 35)">
<title>nars.storage.Bag.toStringLong</title>
<!-- Node232 -->
<g id="node1" class="node"><title>Node232</title>
<polygon fill="#bfbfbf" stroke="black" points="0,-6 0,-25 149,-25 149,-6 0,-6"/>
<text text-anchor="middle" x="74.5" y="-13" font-family="Helvetica,sans-Serif" font-size="10.00">nars.storage.Bag.toStringLong</text>
</g>
<!-- Node233 -->
<g id="node2" class="node"><title>Node233</title>
<g id="a_node2"><a xlink:href="../../d4/d27/a00392.html#a6e4896a995e7810caf43ffac9d0ad44e" target="_top" xlink:title="nars.storage.Memory.toString\lLongIfNotNull">
<polygon fill="none" stroke="black" points="185,-0.5 185,-30.5 331,-30.5 331,-0.5 185,-0.5"/>
<text text-anchor="start" x="193" y="-18.5" font-family="Helvetica,sans-Serif" font-size="10.00">nars.storage.Memory.toString</text>
<text text-anchor="middle" x="258" y="-7.5" font-family="Helvetica,sans-Serif" font-size="10.00">LongIfNotNull</text>
</a>
</g>
</g>
<!-- Node232&#45;&gt;Node233 -->
<g id="edge1" class="edge"><title>Node232&#45;&gt;Node233</title>
<path fill="none" stroke="midnightblue" d="M159.087,-15.5C167.678,-15.5 176.354,-15.5 184.806,-15.5"/>
<polygon fill="midnightblue" stroke="midnightblue" points="159.061,-12.0001 149.061,-15.5 159.061,-19.0001 159.061,-12.0001"/>
</g>
<!-- Node234 -->
<g id="node3" class="node"><title>Node234</title>
<g id="a_node3"><a xlink:href="../../d4/d27/a00392.html#aaf94683fe32443a90619071e13b7fe41" target="_top" xlink:title="nars.storage.Memory.toString">
<polygon fill="none" stroke="black" points="367,-6 367,-25 513,-25 513,-6 367,-6"/>
<text text-anchor="middle" x="440" y="-13" font-family="Helvetica,sans-Serif" font-size="10.00">nars.storage.Memory.toString</text>
</a>
</g>
</g>
<!-- Node233&#45;&gt;Node234 -->
<g id="edge2" class="edge"><title>Node233&#45;&gt;Node234</title>
<path fill="none" stroke="midnightblue" d="M341.439,-15.5C349.906,-15.5 358.464,-15.5 366.808,-15.5"/>
<polygon fill="midnightblue" stroke="midnightblue" points="341.176,-12.0001 331.176,-15.5 341.176,-19.0001 341.176,-12.0001"/>
</g>
<!-- Node235 -->
<g id="node4" class="node"><title>Node235</title>
<g id="a_node4"><a xlink:href="../../df/d15/a00416.html#ab08b1d98b8efca20e2a96b48681a39f2" target="_top" xlink:title="nars.storage.ReasonerBatch.as\lString">
<polygon fill="none" stroke="black" points="549,-0.5 549,-30.5 704,-30.5 704,-0.5 549,-0.5"/>
<text text-anchor="start" x="557" y="-18.5" font-family="Helvetica,sans-Serif" font-size="10.00">nars.storage.ReasonerBatch.as</text>
<text text-anchor="middle" x="626.5" y="-7.5" font-family="Helvetica,sans-Serif" font-size="10.00">String</text>
</a>
</g>
</g>
<!-- Node234&#45;&gt;Node235 -->
<g id="edge3" class="edge"><title>Node234&#45;&gt;Node235</title>
<path fill="none" stroke="midnightblue" d="M523.387,-15.5C531.861,-15.5 540.448,-15.5 548.856,-15.5"/>
<polygon fill="midnightblue" stroke="midnightblue" points="523.125,-12.0001 513.125,-15.5 523.125,-19.0001 523.125,-12.0001"/>
</g>
<!-- Node236 -->
<g id="node5" class="node"><title>Node236</title>
<g id="a_node5"><a xlink:href="../../df/d15/a00416.html#a01f10884e9aaa407c0eb497422c2ec1d" target="_top" xlink:title="nars.storage.ReasonerBatch.to\lString">
<polygon fill="none" stroke="black" points="740,-0.5 740,-30.5 892,-30.5 892,-0.5 740,-0.5"/>
<text text-anchor="start" x="748" y="-18.5" font-family="Helvetica,sans-Serif" font-size="10.00">nars.storage.ReasonerBatch.to</text>
<text text-anchor="middle" x="816" y="-7.5" font-family="Helvetica,sans-Serif" font-size="10.00">String</text>
</a>
</g>
</g>
<!-- Node235&#45;&gt;Node236 -->
<g id="edge4" class="edge"><title>Node235&#45;&gt;Node236</title>
<path fill="none" stroke="midnightblue" d="M714.103,-15.5C722.727,-15.5 731.432,-15.5 739.924,-15.5"/>
<polygon fill="midnightblue" stroke="midnightblue" points="714.034,-12.0001 704.034,-15.5 714.034,-19.0001 714.034,-12.0001"/>
</g>
</g>
</svg>
