<?xml version="1.0" encoding="UTF-8" standalone="no"?>
<!DOCTYPE svg PUBLIC "-//W3C//DTD SVG 1.1//EN"
 "http://www.w3.org/Graphics/SVG/1.1/DTD/svg11.dtd">
<!-- Generated by graphviz version 2.38.0 (20140413.2041)
 -->
<!-- Title: nars.entity.TaskLink Pages: 1 -->
<svg width="1091pt" height="465pt"
 viewBox="0.00 0.00 1091.00 465.00" xmlns="http://www.w3.org/2000/svg" xmlns:xlink="http://www.w3.org/1999/xlink">
<g id="graph0" class="graph" transform="scale(1 1) rotate(0) translate(4 461)">
<title>nars.entity.TaskLink</title>
<!-- Node6 -->
<g id="node1" class="node"><title>Node6</title>
<polygon fill="#bfbfbf" stroke="black" points="978,-285.5 978,-304.5 1083,-304.5 1083,-285.5 978,-285.5"/>
<text text-anchor="middle" x="1030.5" y="-292.5" font-family="Helvetica,sans-Serif" font-size="10.00">nars.entity.TaskLink</text>
</g>
<!-- Node7 -->
<g id="node2" class="node"><title>Node7</title>
<g id="a_node2"><a xlink:href="../../d0/d53/a00232.html" target="_top" xlink:title="A link between a compound term and a component term. ">
<polygon fill="none" stroke="black" points="786,-181.5 786,-200.5 892,-200.5 892,-181.5 786,-181.5"/>
<text text-anchor="middle" x="839" y="-188.5" font-family="Helvetica,sans-Serif" font-size="10.00">nars.entity.TermLink</text>
</a>
</g>
</g>
<!-- Node7&#45;&gt;Node6 -->
<g id="edge1" class="edge"><title>Node7&#45;&gt;Node6</title>
<path fill="none" stroke="midnightblue" d="M866.753,-205.682C906.181,-227.321 978.807,-267.179 1012.05,-285.426"/>
<polygon fill="midnightblue" stroke="midnightblue" points="867.939,-202.341 857.488,-200.598 864.571,-208.477 867.939,-202.341"/>
</g>
<!-- Node8 -->
<g id="node3" class="node"><title>Node8</title>
<g id="a_node3"><a xlink:href="../../dc/d31/a00208.html" target="_top" xlink:title="An item is an object that can be put into a Bag, to participate in the resource competition of the sy...">
<polygon fill="none" stroke="black" points="590,-285.5 590,-304.5 675,-304.5 675,-285.5 590,-285.5"/>
<text text-anchor="middle" x="632.5" y="-292.5" font-family="Helvetica,sans-Serif" font-size="10.00">nars.entity.Item</text>
</a>
</g>
</g>
<!-- Node8&#45;&gt;Node7 -->
<g id="edge2" class="edge"><title>Node8&#45;&gt;Node7</title>
<path fill="none" stroke="midnightblue" d="M681.615,-282.616C708.066,-274.735 740.911,-263.145 768,-248 791.802,-234.693 815.587,-213.142 828.381,-200.702"/>
<polygon fill="midnightblue" stroke="midnightblue" points="680.447,-279.31 671.816,-285.454 682.395,-286.034 680.447,-279.31"/>
</g>
<!-- Node22 -->
<g id="node17" class="node"><title>Node22</title>
<g id="a_node17"><a xlink:href="../../d5/ddf/a00224.html" target="_top" xlink:title="A task to be processed, consists of a Sentence and a BudgetValue. ">
<polygon fill="none" stroke="black" points="795.5,-285.5 795.5,-304.5 882.5,-304.5 882.5,-285.5 795.5,-285.5"/>
<text text-anchor="middle" x="839" y="-292.5" font-family="Helvetica,sans-Serif" font-size="10.00">nars.entity.Task</text>
</a>
</g>
</g>
<!-- Node8&#45;&gt;Node22 -->
<g id="edge19" class="edge"><title>Node8&#45;&gt;Node22</title>
<path fill="none" stroke="midnightblue" d="M685.601,-295C719.644,-295 763.543,-295 795.476,-295"/>
<polygon fill="midnightblue" stroke="midnightblue" points="685.377,-291.5 675.377,-295 685.377,-298.5 685.377,-291.5"/>
</g>
<!-- Node9 -->
<g id="node4" class="node"><title>Node9</title>
<polygon fill="none" stroke="#bfbfbf" points="375.5,-297.5 375.5,-316.5 437.5,-316.5 437.5,-297.5 375.5,-297.5"/>
<text text-anchor="middle" x="406.5" y="-304.5" font-family="Helvetica,sans-Serif" font-size="10.00">ItemStruct</text>
</g>
<!-- Node9&#45;&gt;Node8 -->
<g id="edge3" class="edge"><title>Node9&#45;&gt;Node8</title>
<path fill="none" stroke="midnightblue" d="M447.944,-304.833C488.122,-302.681 549.436,-299.396 589.984,-297.224"/>
<polygon fill="midnightblue" stroke="midnightblue" points="447.508,-301.352 437.71,-305.382 447.883,-308.342 447.508,-301.352"/>
</g>
<!-- Node10 -->
<g id="node5" class="node"><title>Node10</title>
<g id="a_node5"><a xlink:href="../../dd/da2/a00192.html" target="_top" xlink:title="A triple of priority (current), durability (decay), and quality (long&#45;term average). ">
<polygon fill="none" stroke="black" points="346,-335.5 346,-354.5 467,-354.5 467,-335.5 346,-335.5"/>
<text text-anchor="middle" x="406.5" y="-342.5" font-family="Helvetica,sans-Serif" font-size="10.00">nars.entity.BudgetValue</text>
</a>
</g>
</g>
<!-- Node10&#45;&gt;Node8 -->
<g id="edge4" class="edge"><title>Node10&#45;&gt;Node8</title>
<path fill="none" stroke="#9a32cd" stroke-dasharray="5,2" d="M468.945,-333.524C497.092,-328.028 530.832,-321.104 561,-314 573.092,-311.153 586.258,-307.701 597.903,-304.525"/>
<polygon fill="#9a32cd" stroke="#9a32cd" points="467.996,-330.143 458.845,-335.482 469.328,-337.015 467.996,-330.143"/>
<text text-anchor="middle" x="523" y="-333" font-family="Helvetica,sans-Serif" font-size="10.00"> budget</text>
</g>
<!-- Node11 -->
<g id="node6" class="node"><title>Node11</title>
<polygon fill="none" stroke="#bfbfbf" points="138,-314.5 138,-333.5 212,-333.5 212,-314.5 138,-314.5"/>
<text text-anchor="middle" x="175" y="-321.5" font-family="Helvetica,sans-Serif" font-size="10.00">BudgetStruct</text>
</g>
<!-- Node11&#45;&gt;Node10 -->
<g id="edge5" class="edge"><title>Node11&#45;&gt;Node10</title>
<path fill="none" stroke="midnightblue" d="M222.228,-328.23C257.842,-331.489 307.35,-336.019 345.934,-339.55"/>
<polygon fill="midnightblue" stroke="midnightblue" points="222.389,-324.73 212.112,-327.304 221.751,-331.701 222.389,-324.73"/>
</g>
<!-- Node12 -->
<g id="node7" class="node"><title>Node12</title>
<polygon fill="none" stroke="#bfbfbf" points="591,-0.5 591,-19.5 674,-19.5 674,-0.5 591,-0.5"/>
<text text-anchor="middle" x="632.5" y="-7.5" font-family="Helvetica,sans-Serif" font-size="10.00">TermLinkStruct</text>
</g>
<!-- Node12&#45;&gt;Node7 -->
<g id="edge6" class="edge"><title>Node12&#45;&gt;Node7</title>
<path fill="none" stroke="midnightblue" d="M684.497,-8.88312C713.117,-11.1168 747.159,-19.0555 768,-42 807.219,-85.1761 749.367,-126.61 786,-172 789.139,-175.889 793.148,-178.983 797.545,-181.443"/>
<polygon fill="midnightblue" stroke="midnightblue" points="684.415,-5.37292 674.233,-8.30108 684.019,-12.3617 684.415,-5.37292"/>
</g>
<!-- Node13 -->
<g id="node8" class="node"><title>Node13</title>
<polygon fill="none" stroke="#bfbfbf" points="248,-95.5 248,-114.5 328,-114.5 328,-95.5 248,-95.5"/>
<text text-anchor="middle" x="288" y="-102.5" font-family="Helvetica,sans-Serif" font-size="10.00">List&lt; Integer &gt;</text>
</g>
<!-- Node13&#45;&gt;Node7 -->
<g id="edge7" class="edge"><title>Node13&#45;&gt;Node7</title>
<path fill="none" stroke="#9a32cd" stroke-dasharray="5,2" d="M338.194,-112.706C441.472,-128.884 680.056,-166.258 785.856,-182.832"/>
<polygon fill="#9a32cd" stroke="#9a32cd" points="338.464,-109.206 328.043,-111.116 337.38,-116.121 338.464,-109.206"/>
<text text-anchor="middle" x="523" y="-150" font-family="Helvetica,sans-Serif" font-size="10.00"> index</text>
</g>
<!-- Node14 -->
<g id="node9" class="node"><title>Node14</title>
<polygon fill="none" stroke="#bfbfbf" points="0,-358.5 0,-377.5 32,-377.5 32,-358.5 0,-358.5"/>
<text text-anchor="middle" x="16" y="-365.5" font-family="Helvetica,sans-Serif" font-size="10.00">List</text>
</g>
<!-- Node14&#45;&gt;Node13 -->
<g id="edge8" class="edge"><title>Node14&#45;&gt;Node13</title>
<path fill="none" stroke="orange" stroke-dasharray="5,2" d="M20.4632,-348.35C29.096,-305.366 55.6849,-202.559 120,-149 156.288,-118.781 211.136,-109.091 247.972,-106.108"/>
<polygon fill="orange" stroke="orange" points="16.989,-347.886 18.565,-358.363 23.8665,-349.19 16.989,-347.886"/>
<text text-anchor="middle" x="76" y="-250" font-family="Helvetica,sans-Serif" font-size="10.00"> &lt; Integer &gt;</text>
</g>
<!-- Node20 -->
<g id="node15" class="node"><title>Node20</title>
<polygon fill="none" stroke="#bfbfbf" points="485,-411.5 485,-430.5 561,-430.5 561,-411.5 485,-411.5"/>
<text text-anchor="middle" x="523" y="-418.5" font-family="Helvetica,sans-Serif" font-size="10.00">List&lt; String &gt;</text>
</g>
<!-- Node14&#45;&gt;Node20 -->
<g id="edge15" class="edge"><title>Node14&#45;&gt;Node20</title>
<path fill="none" stroke="orange" stroke-dasharray="5,2" d="M41.369,-380.194C44.228,-381.288 47.1443,-382.26 50,-383 207.772,-423.872 404.249,-424.229 484.865,-422.311"/>
<polygon fill="orange" stroke="orange" points="42.6089,-376.917 32.041,-376.164 39.8322,-383.343 42.6089,-376.917"/>
<text text-anchor="middle" x="175" y="-415" font-family="Helvetica,sans-Serif" font-size="10.00"> &lt; String &gt;</text>
</g>
<!-- Node21 -->
<g id="node16" class="node"><title>Node21</title>
<polygon fill="none" stroke="#bfbfbf" points="139.5,-358.5 139.5,-377.5 210.5,-377.5 210.5,-358.5 139.5,-358.5"/>
<text text-anchor="middle" x="175" y="-365.5" font-family="Helvetica,sans-Serif" font-size="10.00">List&lt; Long &gt;</text>
</g>
<!-- Node14&#45;&gt;Node21 -->
<g id="edge17" class="edge"><title>Node14&#45;&gt;Node21</title>
<path fill="none" stroke="orange" stroke-dasharray="5,2" d="M42.3447,-368C68.6941,-368 110.112,-368 139.449,-368"/>
<polygon fill="orange" stroke="orange" points="42.0539,-364.5 32.0538,-368 42.0538,-371.5 42.0539,-364.5"/>
<text text-anchor="middle" x="76" y="-371" font-family="Helvetica,sans-Serif" font-size="10.00"> &lt; Long &gt;</text>
</g>
<!-- Node15 -->
<g id="node10" class="node"><title>Node15</title>
<g id="a_node10"><a xlink:href="../../dc/d59/a00364.html" target="_top" xlink:title="Term is the basic component of Narsese, and the object of processing in NARS. ">
<polygon fill="none" stroke="black" points="355,-69.5 355,-88.5 458,-88.5 458,-69.5 355,-69.5"/>
<text text-anchor="middle" x="406.5" y="-76.5" font-family="Helvetica,sans-Serif" font-size="10.00">nars.language.Term</text>
</a>
</g>
</g>
<!-- Node15&#45;&gt;Node7 -->
<g id="edge9" class="edge"><title>Node15&#45;&gt;Node7</title>
<path fill="none" stroke="#9a32cd" stroke-dasharray="5,2" d="M453.091,-67.1051C528.935,-50.3247 681.242,-29.8843 768,-109 789.517,-128.622 766.163,-150.681 786,-172 789.601,-175.87 794.055,-178.954 798.829,-181.412"/>
<polygon fill="#9a32cd" stroke="#9a32cd" points="451.876,-63.7925 442.911,-69.4379 453.44,-70.6157 451.876,-63.7925"/>
<text text-anchor="middle" x="632.5" y="-68" font-family="Helvetica,sans-Serif" font-size="10.00"> term</text>
</g>
<!-- Node24 -->
<g id="node19" class="node"><title>Node24</title>
<g id="a_node19"><a xlink:href="../../dd/dc1/a00212.html" target="_top" xlink:title="A Sentence is an abstract class, mainly containing a Term, a TruthValue, and a Stamp. ">
<polygon fill="none" stroke="black" points="579,-186.5 579,-205.5 686,-205.5 686,-186.5 579,-186.5"/>
<text text-anchor="middle" x="632.5" y="-193.5" font-family="Helvetica,sans-Serif" font-size="10.00">nars.entity.Sentence</text>
</a>
</g>
</g>
<!-- Node15&#45;&gt;Node24 -->
<g id="edge28" class="edge"><title>Node15&#45;&gt;Node24</title>
<path fill="none" stroke="#9a32cd" stroke-dasharray="5,2" d="M468.417,-71.3326C498.184,-70.4628 533.434,-73.9334 561,-90 599.189,-112.259 620.738,-164.435 628.338,-186.198"/>
<polygon fill="#9a32cd" stroke="#9a32cd" points="467.966,-67.8497 458.138,-71.8078 468.289,-74.8422 467.966,-67.8497"/>
<text text-anchor="middle" x="523" y="-93" font-family="Helvetica,sans-Serif" font-size="10.00"> content</text>
</g>
<!-- Node16 -->
<g id="node11" class="node"><title>Node16</title>
<polygon fill="none" stroke="#bfbfbf" points="145,-158.5 145,-177.5 205,-177.5 205,-158.5 145,-158.5"/>
<text text-anchor="middle" x="175" y="-165.5" font-family="Helvetica,sans-Serif" font-size="10.00">Cloneable</text>
</g>
<!-- Node16&#45;&gt;Node15 -->
<g id="edge10" class="edge"><title>Node16&#45;&gt;Node15</title>
<path fill="none" stroke="midnightblue" d="M214.011,-155.252C255.403,-141.33 317.183,-120.415 328,-116 348.568,-107.605 371.447,-96.4481 386.98,-88.5883"/>
<polygon fill="midnightblue" stroke="midnightblue" points="212.85,-151.95 204.486,-158.454 215.08,-158.585 212.85,-151.95"/>
</g>
<!-- Node16&#45;&gt;Node24 -->
<g id="edge23" class="edge"><title>Node16&#45;&gt;Node24</title>
<path fill="none" stroke="midnightblue" d="M215.581,-167.41C271.633,-166.895 377.306,-167.099 467,-174 504.491,-176.884 546.505,-182.545 578.69,-187.402"/>
<polygon fill="midnightblue" stroke="midnightblue" points="215.342,-163.912 205.379,-167.517 215.416,-170.912 215.342,-163.912"/>
</g>
<!-- Node26 -->
<g id="node21" class="node"><title>Node26</title>
<g id="a_node21"><a xlink:href="../../d7/d40/a00236.html" target="_top" xlink:title="Frequency and confidence. ">
<polygon fill="none" stroke="black" points="350,-183.5 350,-202.5 463,-202.5 463,-183.5 350,-183.5"/>
<text text-anchor="middle" x="406.5" y="-190.5" font-family="Helvetica,sans-Serif" font-size="10.00">nars.entity.TruthValue</text>
</a>
</g>
</g>
<!-- Node16&#45;&gt;Node26 -->
<g id="edge26" class="edge"><title>Node16&#45;&gt;Node26</title>
<path fill="none" stroke="midnightblue" d="M215.464,-172.299C252.533,-176.337 308.366,-182.419 349.933,-186.947"/>
<polygon fill="midnightblue" stroke="midnightblue" points="215.387,-168.77 205.066,-171.166 214.628,-175.729 215.387,-168.77"/>
</g>
<!-- Node28 -->
<g id="node23" class="node"><title>Node28</title>
<g id="a_node23"><a xlink:href="../../d6/d43/a00216.html" target="_top" xlink:title="Each Sentence has a time stamp, consisting the following components: (1) The creation time of the sen...">
<polygon fill="none" stroke="black" points="359.5,-221.5 359.5,-240.5 453.5,-240.5 453.5,-221.5 359.5,-221.5"/>
<text text-anchor="middle" x="406.5" y="-228.5" font-family="Helvetica,sans-Serif" font-size="10.00">nars.entity.Stamp</text>
</a>
</g>
</g>
<!-- Node16&#45;&gt;Node28 -->
<g id="edge30" class="edge"><title>Node16&#45;&gt;Node28</title>
<path fill="none" stroke="midnightblue" d="M214.251,-180.693C225.117,-184.17 236.989,-187.846 248,-191 287.597,-202.341 333.257,-213.757 365.184,-221.473"/>
<polygon fill="midnightblue" stroke="midnightblue" points="215.2,-177.321 204.608,-177.577 213.048,-183.982 215.2,-177.321"/>
</g>
<!-- Node17 -->
<g id="node12" class="node"><title>Node17</title>
<polygon fill="none" stroke="#bfbfbf" points="120,-70.5 120,-89.5 230,-89.5 230,-70.5 120,-70.5"/>
<text text-anchor="middle" x="175" y="-77.5" font-family="Helvetica,sans-Serif" font-size="10.00">Comparable&lt; Term &gt;</text>
</g>
<!-- Node17&#45;&gt;Node15 -->
<g id="edge11" class="edge"><title>Node17&#45;&gt;Node15</title>
<path fill="none" stroke="midnightblue" d="M240.557,-79.7187C276.757,-79.561 321.258,-79.3671 354.909,-79.2204"/>
<polygon fill="midnightblue" stroke="midnightblue" points="240.082,-76.2206 230.098,-79.7643 240.113,-83.2206 240.082,-76.2206"/>
</g>
<!-- Node18 -->
<g id="node13" class="node"><title>Node18</title>
<polygon fill="none" stroke="#bfbfbf" points="142.5,-32.5 142.5,-51.5 207.5,-51.5 207.5,-32.5 142.5,-32.5"/>
<text text-anchor="middle" x="175" y="-39.5" font-family="Helvetica,sans-Serif" font-size="10.00">TermStruct</text>
</g>
<!-- Node18&#45;&gt;Node15 -->
<g id="edge12" class="edge"><title>Node18&#45;&gt;Node15</title>
<path fill="none" stroke="midnightblue" d="M218.271,-48.8149C256.842,-55.0333 313.911,-64.234 354.896,-70.8416"/>
<polygon fill="midnightblue" stroke="midnightblue" points="218.341,-45.281 207.911,-47.1447 217.226,-52.1918 218.341,-45.281"/>
</g>
<!-- Node19 -->
<g id="node14" class="node"><title>Node19</title>
<polygon fill="none" stroke="#bfbfbf" points="797.5,-143.5 797.5,-162.5 880.5,-162.5 880.5,-143.5 797.5,-143.5"/>
<text text-anchor="middle" x="839" y="-150.5" font-family="Helvetica,sans-Serif" font-size="10.00">TaskLinkStruct</text>
</g>
<!-- Node19&#45;&gt;Node6 -->
<g id="edge13" class="edge"><title>Node19&#45;&gt;Node6</title>
<path fill="none" stroke="midnightblue" d="M880.518,-166.339C884.477,-168.075 888.368,-169.965 892,-172 948.722,-203.782 1001.95,-262.502 1021.55,-285.454"/>
<polygon fill="midnightblue" stroke="midnightblue" points="881.829,-163.094 871.247,-162.571 879.194,-169.579 881.829,-163.094"/>
</g>
<!-- Node20&#45;&gt;Node6 -->
<g id="edge14" class="edge"><title>Node20&#45;&gt;Node6</title>
<path fill="none" stroke="#9a32cd" stroke-dasharray="5,2" d="M571.207,-431.195C655.471,-446.762 834.674,-467.735 960,-397 997.136,-376.04 1018.53,-326.032 1026.22,-304.801"/>
<polygon fill="#9a32cd" stroke="#9a32cd" points="571.648,-427.716 561.17,-429.283 570.338,-434.593 571.648,-427.716"/>
<text text-anchor="middle" x="736" y="-449" font-family="Helvetica,sans-Serif" font-size="10.00"> recordedLinks</text>
</g>
<!-- Node21&#45;&gt;Node6 -->
<g id="edge16" class="edge"><title>Node21&#45;&gt;Node6</title>
<path fill="none" stroke="#9a32cd" stroke-dasharray="5,2" d="M220.54,-372.639C266.738,-377.045 341.095,-383 405.5,-383 405.5,-383 405.5,-383 840,-383 913.635,-383 989.647,-327.666 1017.96,-304.754"/>
<polygon fill="#9a32cd" stroke="#9a32cd" points="220.849,-369.153 210.558,-371.669 220.173,-376.12 220.849,-369.153"/>
<text text-anchor="middle" x="632.5" y="-386" font-family="Helvetica,sans-Serif" font-size="10.00"> recordingTime</text>
</g>
<!-- Node21&#45;&gt;Node28 -->
<g id="edge32" class="edge"><title>Node21&#45;&gt;Node28</title>
<path fill="none" stroke="#9a32cd" stroke-dasharray="5,2" d="M209.147,-354.198C216.199,-350.84 223.479,-347.04 230,-343 233.511,-340.825 342.361,-251.953 346,-250 352.975,-246.258 360.811,-243.104 368.449,-240.509"/>
<polygon fill="#9a32cd" stroke="#9a32cd" points="207.406,-351.146 199.767,-358.486 210.317,-357.512 207.406,-351.146"/>
<text text-anchor="middle" x="288" y="-329" font-family="Helvetica,sans-Serif" font-size="10.00"> evidentialBase</text>
</g>
<!-- Node22&#45;&gt;Node6 -->
<g id="edge18" class="edge"><title>Node22&#45;&gt;Node6</title>
<path fill="none" stroke="#9a32cd" stroke-dasharray="5,2" d="M892.768,-295C919.277,-295 951.282,-295 977.662,-295"/>
<polygon fill="#9a32cd" stroke="#9a32cd" points="892.528,-291.5 882.527,-295 892.527,-298.5 892.528,-291.5"/>
<text text-anchor="middle" x="935" y="-298" font-family="Helvetica,sans-Serif" font-size="10.00"> targetTask</text>
</g>
<!-- Node22&#45;&gt;Node22 -->
<g id="edge21" class="edge"><title>Node22&#45;&gt;Node22</title>
<path fill="none" stroke="#9a32cd" stroke-dasharray="5,2" d="M821.223,-314.4C822.41,-319.315 828.336,-323 839,-323 856.062,-323 860.995,-313.565 853.796,-304.757"/>
<polygon fill="#9a32cd" stroke="#9a32cd" points="824.594,-315.345 824.204,-304.757 817.907,-313.278 824.594,-315.345"/>
<text text-anchor="middle" x="839" y="-326" font-family="Helvetica,sans-Serif" font-size="10.00"> parentTask</text>
</g>
<!-- Node23 -->
<g id="node18" class="node"><title>Node23</title>
<polygon fill="none" stroke="#bfbfbf" points="600,-323.5 600,-342.5 665,-342.5 665,-323.5 600,-323.5"/>
<text text-anchor="middle" x="632.5" y="-330.5" font-family="Helvetica,sans-Serif" font-size="10.00">TaskStruct</text>
</g>
<!-- Node23&#45;&gt;Node22 -->
<g id="edge20" class="edge"><title>Node23&#45;&gt;Node22</title>
<path fill="none" stroke="midnightblue" d="M675.162,-325.796C701.75,-321.142 736.932,-314.878 768,-309 776.89,-307.318 786.401,-305.457 795.457,-303.656"/>
<polygon fill="midnightblue" stroke="midnightblue" points="674.307,-322.392 665.058,-327.56 675.511,-329.288 674.307,-322.392"/>
</g>
<!-- Node24&#45;&gt;Node22 -->
<g id="edge22" class="edge"><title>Node24&#45;&gt;Node22</title>
<path fill="none" stroke="#9a32cd" stroke-dasharray="5,2" d="M664.55,-209.737C691.957,-221.998 732.896,-240.647 768,-258 786.114,-266.954 806.506,-277.825 820.588,-285.459"/>
<polygon fill="#9a32cd" stroke="#9a32cd" points="665.66,-206.399 655.101,-205.523 662.808,-212.792 665.66,-206.399"/>
<text text-anchor="middle" x="736" y="-283" font-family="Helvetica,sans-Serif" font-size="10.00"> parentBelief</text>
<text text-anchor="middle" x="736" y="-272" font-family="Helvetica,sans-Serif" font-size="10.00">sentence</text>
<text text-anchor="middle" x="736" y="-261" font-family="Helvetica,sans-Serif" font-size="10.00">bestSolution</text>
</g>
<!-- Node25 -->
<g id="node20" class="node"><title>Node25</title>
<polygon fill="none" stroke="#bfbfbf" points="364.5,-259.5 364.5,-278.5 448.5,-278.5 448.5,-259.5 364.5,-259.5"/>
<text text-anchor="middle" x="406.5" y="-266.5" font-family="Helvetica,sans-Serif" font-size="10.00">SentenceStruct</text>
</g>
<!-- Node25&#45;&gt;Node24 -->
<g id="edge24" class="edge"><title>Node25&#45;&gt;Node24</title>
<path fill="none" stroke="midnightblue" d="M458.715,-260.908C489.047,-255.239 527.895,-246.433 561,-234 581.176,-226.423 602.765,-214.09 616.659,-205.539"/>
<polygon fill="midnightblue" stroke="midnightblue" points="457.991,-257.482 448.776,-262.711 459.24,-264.369 457.991,-257.482"/>
</g>
<!-- Node26&#45;&gt;Node24 -->
<g id="edge25" class="edge"><title>Node26&#45;&gt;Node24</title>
<path fill="none" stroke="#9a32cd" stroke-dasharray="5,2" d="M473.357,-193.882C506.971,-194.332 547.304,-194.872 578.824,-195.295"/>
<polygon fill="#9a32cd" stroke="#9a32cd" points="473.205,-190.38 463.159,-193.745 473.111,-197.379 473.205,-190.38"/>
<text text-anchor="middle" x="523" y="-199" font-family="Helvetica,sans-Serif" font-size="10.00"> truth</text>
</g>
<!-- Node27 -->
<g id="node22" class="node"><title>Node27</title>
<polygon fill="none" stroke="#bfbfbf" points="140,-220.5 140,-239.5 210,-239.5 210,-220.5 140,-220.5"/>
<text text-anchor="middle" x="175" y="-227.5" font-family="Helvetica,sans-Serif" font-size="10.00">TruthHandle</text>
</g>
<!-- Node27&#45;&gt;Node26 -->
<g id="edge27" class="edge"><title>Node27&#45;&gt;Node26</title>
<path fill="none" stroke="midnightblue" d="M220.338,-222.852C257.3,-216.893 310.149,-208.372 349.932,-201.959"/>
<polygon fill="midnightblue" stroke="midnightblue" points="219.674,-219.414 210.358,-224.461 220.788,-226.324 219.674,-219.414"/>
</g>
<!-- Node28&#45;&gt;Node24 -->
<g id="edge29" class="edge"><title>Node28&#45;&gt;Node24</title>
<path fill="none" stroke="#9a32cd" stroke-dasharray="5,2" d="M463.773,-222.207C499.029,-216.699 544.171,-209.645 578.741,-204.244"/>
<polygon fill="#9a32cd" stroke="#9a32cd" points="462.981,-218.789 453.641,-223.79 464.062,-225.705 462.981,-218.789"/>
<text text-anchor="middle" x="523" y="-222" font-family="Helvetica,sans-Serif" font-size="10.00"> stamp</text>
</g>
<!-- Node29 -->
<g id="node24" class="node"><title>Node29</title>
<polygon fill="none" stroke="#bfbfbf" points="139.5,-258.5 139.5,-277.5 210.5,-277.5 210.5,-258.5 139.5,-258.5"/>
<text text-anchor="middle" x="175" y="-265.5" font-family="Helvetica,sans-Serif" font-size="10.00">StampStruct</text>
</g>
<!-- Node29&#45;&gt;Node28 -->
<g id="edge31" class="edge"><title>Node29&#45;&gt;Node28</title>
<path fill="none" stroke="midnightblue" d="M220.837,-260.771C260.733,-254.339 318.849,-244.97 359.187,-238.467"/>
<polygon fill="midnightblue" stroke="midnightblue" points="220.172,-257.333 210.856,-262.38 221.286,-264.244 220.172,-257.333"/>
</g>
</g>
</svg>
