<?xml version="1.0" encoding="UTF-8" standalone="no"?>
<!DOCTYPE svg PUBLIC "-//W3C//DTD SVG 1.1//EN"
 "http://www.w3.org/Graphics/SVG/1.1/DTD/svg11.dtd">
<!-- Generated by graphviz version 2.38.0 (20140413.2041)
 -->
<!-- Title: nars.entity.Sentence.clone Pages: 1 -->
<svg width="2236pt" height="116pt"
 viewBox="0.00 0.00 2236.00 115.50" xmlns="http://www.w3.org/2000/svg" xmlns:xlink="http://www.w3.org/1999/xlink">
<g id="graph0" class="graph" transform="scale(1 1) rotate(0) translate(4 111.5)">
<title>nars.entity.Sentence.clone</title>
<!-- Node53 -->
<g id="node1" class="node"><title>Node53</title>
<polygon fill="#bfbfbf" stroke="black" points="0,-38.5 0,-57.5 133,-57.5 133,-38.5 0,-38.5"/>
<text text-anchor="middle" x="66.5" y="-45.5" font-family="Helvetica,sans-Serif" font-size="10.00">nars.entity.Sentence.clone</text>
</g>
<!-- Node54 -->
<g id="node2" class="node"><title>Node54</title>
<g id="a_node2"><a xlink:href="../../dc/ded/a00252.html#af6c973743270b2739d4ad25f16975da1" target="_top" xlink:title="The detachment rule, with variable unification. ">
<polygon fill="none" stroke="black" points="169,-77 169,-107 354,-107 354,-77 169,-77"/>
<text text-anchor="start" x="177" y="-95" font-family="Helvetica,sans-Serif" font-size="10.00">nars.inference.RuleTables.detachment</text>
<text text-anchor="middle" x="261.5" y="-84" font-family="Helvetica,sans-Serif" font-size="10.00">WithVar</text>
</a>
</g>
</g>
<!-- Node53&#45;&gt;Node54 -->
<g id="edge1" class="edge"><title>Node53&#45;&gt;Node54</title>
<path fill="none" stroke="midnightblue" d="M119.317,-59.8132C142.406,-65.0769 169.874,-71.3391 194.418,-76.9346"/>
<polygon fill="midnightblue" stroke="midnightblue" points="119.906,-56.3577 109.378,-57.5473 118.35,-63.1826 119.906,-56.3577"/>
</g>
<!-- Node65 -->
<g id="node13" class="node"><title>Node65</title>
<g id="a_node13"><a xlink:href="../../d7/ded/a00196.html#a37e00599fc19c5931da40bd446890f89" target="_top" xlink:title="Select a isBelief to interact with the given task in inference. ">
<polygon fill="none" stroke="black" points="408.5,-38.5 408.5,-57.5 551.5,-57.5 551.5,-38.5 408.5,-38.5"/>
<text text-anchor="middle" x="480" y="-45.5" font-family="Helvetica,sans-Serif" font-size="10.00">nars.entity.Concept.getBelief</text>
</a>
</g>
</g>
<!-- Node53&#45;&gt;Node65 -->
<g id="edge12" class="edge"><title>Node53&#45;&gt;Node65</title>
<path fill="none" stroke="midnightblue" d="M143.575,-48C219.319,-48 334.643,-48 408.405,-48"/>
<polygon fill="midnightblue" stroke="midnightblue" points="143.158,-44.5001 133.158,-48 143.158,-51.5001 143.158,-44.5001"/>
</g>
<!-- Node66 -->
<g id="node14" class="node"><title>Node66</title>
<g id="a_node14"><a xlink:href="../../dd/dd7/a00248.html#aac1c92950f50edd04d12229a8c992987" target="_top" xlink:title="The task and belief have the same content. ">
<polygon fill="none" stroke="black" points="181.5,-0.5 181.5,-19.5 341.5,-19.5 341.5,-0.5 181.5,-0.5"/>
<text text-anchor="middle" x="261.5" y="-7.5" font-family="Helvetica,sans-Serif" font-size="10.00">nars.inference.LocalRules.match</text>
</a>
</g>
</g>
<!-- Node53&#45;&gt;Node66 -->
<g id="edge14" class="edge"><title>Node53&#45;&gt;Node66</title>
<path fill="none" stroke="midnightblue" d="M126.102,-36.4619C153.629,-31.042 186.048,-24.659 212.148,-19.5201"/>
<polygon fill="midnightblue" stroke="midnightblue" points="125.338,-33.045 116.202,-38.411 126.69,-39.9132 125.338,-33.045"/>
</g>
<!-- Node55 -->
<g id="node3" class="node"><title>Node55</title>
<g id="a_node3"><a xlink:href="../../dc/ded/a00252.html#a8628d400a8ceda7fea05039ddfea319b" target="_top" xlink:title="Meta&#45;table of syllogistic rules, indexed by the content classes of the taskSentence and the belief...">
<polygon fill="none" stroke="black" points="390,-79.5 390,-98.5 570,-98.5 570,-79.5 390,-79.5"/>
<text text-anchor="middle" x="480" y="-86.5" font-family="Helvetica,sans-Serif" font-size="10.00">nars.inference.RuleTables.syllogisms</text>
</a>
</g>
</g>
<!-- Node54&#45;&gt;Node55 -->
<g id="edge2" class="edge"><title>Node54&#45;&gt;Node55</title>
<path fill="none" stroke="midnightblue" d="M364.084,-90.5924C372.705,-90.4729 381.383,-90.3527 389.898,-90.2347"/>
<polygon fill="midnightblue" stroke="midnightblue" points="363.952,-87.0938 354.002,-90.7321 364.049,-94.0931 363.952,-87.0938"/>
</g>
<!-- Node56 -->
<g id="node4" class="node"><title>Node56</title>
<g id="a_node4"><a xlink:href="../../dc/ded/a00252.html#ac2d01dfdc40bdd47c757cb549217e6e3" target="_top" xlink:title="Entry point of the inference engine. ">
<polygon fill="none" stroke="black" points="606,-38.5 606,-57.5 769,-57.5 769,-38.5 606,-38.5"/>
<text text-anchor="middle" x="687.5" y="-45.5" font-family="Helvetica,sans-Serif" font-size="10.00">nars.inference.RuleTables.reason</text>
</a>
</g>
</g>
<!-- Node55&#45;&gt;Node56 -->
<g id="edge3" class="edge"><title>Node55&#45;&gt;Node56</title>
<path fill="none" stroke="midnightblue" d="M538.643,-77.4994C570.213,-71.2007 608.872,-63.4879 638.741,-57.5286"/>
<polygon fill="midnightblue" stroke="midnightblue" points="537.784,-74.1017 528.662,-79.4907 539.154,-80.9664 537.784,-74.1017"/>
</g>
<!-- Node57 -->
<g id="node5" class="node"><title>Node57</title>
<g id="a_node5"><a xlink:href="../../d7/ded/a00196.html#ad6fb91dda799c3092ecb186ef24ca92a" target="_top" xlink:title="An atomic step in a concept, only called in Memory# processConcept. ">
<polygon fill="none" stroke="black" points="805,-33 805,-63 924,-63 924,-33 805,-33"/>
<text text-anchor="start" x="813" y="-51" font-family="Helvetica,sans-Serif" font-size="10.00">nars.entity.Concept.fire</text>
<text text-anchor="middle" x="864.5" y="-40" font-family="Helvetica,sans-Serif" font-size="10.00">FromProcessConcept</text>
</a>
</g>
</g>
<!-- Node56&#45;&gt;Node57 -->
<g id="edge4" class="edge"><title>Node56&#45;&gt;Node57</title>
<path fill="none" stroke="midnightblue" d="M779.249,-48C787.907,-48 796.523,-48 804.757,-48"/>
<polygon fill="midnightblue" stroke="midnightblue" points="779.085,-44.5001 769.085,-48 779.085,-51.5001 779.085,-44.5001"/>
</g>
<!-- Node58 -->
<g id="node6" class="node"><title>Node58</title>
<g id="a_node6"><a xlink:href="../../d4/d27/a00392.html#a0acc4adbf6a2462245da46bcb529746c" target="_top" xlink:title="Select a concept to fireFromProcessConcept. ">
<polygon fill="none" stroke="black" points="960,-33 960,-63 1106,-63 1106,-33 960,-33"/>
<text text-anchor="start" x="968" y="-51" font-family="Helvetica,sans-Serif" font-size="10.00">nars.storage.Memory.process</text>
<text text-anchor="middle" x="1033" y="-40" font-family="Helvetica,sans-Serif" font-size="10.00">Concept</text>
</a>
</g>
</g>
<!-- Node57&#45;&gt;Node58 -->
<g id="edge5" class="edge"><title>Node57&#45;&gt;Node58</title>
<path fill="none" stroke="midnightblue" d="M934.337,-48C942.748,-48 951.361,-48 959.819,-48"/>
<polygon fill="midnightblue" stroke="midnightblue" points="934.202,-44.5001 924.202,-48 934.202,-51.5001 934.202,-44.5001"/>
</g>
<!-- Node59 -->
<g id="node7" class="node"><title>Node59</title>
<g id="a_node7"><a xlink:href="../../d4/d27/a00392.html#a59ae339d666409988d90d29be4f73a91" target="_top" xlink:title="An atomic working workCycle of the system: process new Tasks, then fireFromProcessConcept a concept...">
<polygon fill="none" stroke="black" points="1142,-33 1142,-63 1275,-63 1275,-33 1142,-33"/>
<text text-anchor="start" x="1150" y="-51" font-family="Helvetica,sans-Serif" font-size="10.00">nars.storage.Memory.work</text>
<text text-anchor="middle" x="1208.5" y="-40" font-family="Helvetica,sans-Serif" font-size="10.00">Cycle</text>
</a>
</g>
</g>
<!-- Node58&#45;&gt;Node59 -->
<g id="edge6" class="edge"><title>Node58&#45;&gt;Node59</title>
<path fill="none" stroke="midnightblue" d="M1116.12,-48C1124.72,-48 1133.37,-48 1141.76,-48"/>
<polygon fill="midnightblue" stroke="midnightblue" points="1116.07,-44.5001 1106.07,-48 1116.07,-51.5001 1116.07,-44.5001"/>
</g>
<!-- Node60 -->
<g id="node8" class="node"><title>Node60</title>
<g id="a_node8"><a xlink:href="../../df/d15/a00416.html#a0d5c797dc17d9e8d0998852915e0f303" target="_top" xlink:title="nars.storage.ReasonerBatch.doTick">
<polygon fill="none" stroke="black" points="1311,-38.5 1311,-57.5 1484,-57.5 1484,-38.5 1311,-38.5"/>
<text text-anchor="middle" x="1397.5" y="-45.5" font-family="Helvetica,sans-Serif" font-size="10.00">nars.storage.ReasonerBatch.doTick</text>
</a>
</g>
</g>
<!-- Node59&#45;&gt;Node60 -->
<g id="edge7" class="edge"><title>Node59&#45;&gt;Node60</title>
<path fill="none" stroke="midnightblue" d="M1285.34,-48C1293.78,-48 1302.42,-48 1310.97,-48"/>
<polygon fill="midnightblue" stroke="midnightblue" points="1285.17,-44.5001 1275.17,-48 1285.17,-51.5001 1285.17,-44.5001"/>
</g>
<!-- Node61 -->
<g id="node9" class="node"><title>Node61</title>
<g id="a_node9"><a xlink:href="../../df/d15/a00416.html#a3468aa0f99edcd66412f27922dddb880" target="_top" xlink:title="A clock tick. ">
<polygon fill="none" stroke="black" points="1520,-38.5 1520,-57.5 1680,-57.5 1680,-38.5 1520,-38.5"/>
<text text-anchor="middle" x="1600" y="-45.5" font-family="Helvetica,sans-Serif" font-size="10.00">nars.storage.ReasonerBatch.tick</text>
</a>
</g>
</g>
<!-- Node60&#45;&gt;Node61 -->
<g id="edge8" class="edge"><title>Node60&#45;&gt;Node61</title>
<path fill="none" stroke="midnightblue" d="M1494.13,-48C1502.7,-48 1511.31,-48 1519.71,-48"/>
<polygon fill="midnightblue" stroke="midnightblue" points="1494.11,-44.5001 1484.11,-48 1494.11,-51.5001 1494.11,-44.5001"/>
</g>
<!-- Node62 -->
<g id="node10" class="node"><title>Node62</title>
<g id="a_node10"><a xlink:href="../../d9/da1/a00396.html#a5d9cfe517bcfbe41e5251910bcd119c1" target="_top" xlink:title="Run to completion: repeatedly execute NARS working cycle, until Inputs are Finished, or 1000 steps. ">
<polygon fill="none" stroke="black" points="1716,-38.5 1716,-57.5 1860,-57.5 1860,-38.5 1716,-38.5"/>
<text text-anchor="middle" x="1788" y="-45.5" font-family="Helvetica,sans-Serif" font-size="10.00">nars.storage.NARSBatch.run</text>
</a>
</g>
</g>
<!-- Node61&#45;&gt;Node62 -->
<g id="edge9" class="edge"><title>Node61&#45;&gt;Node62</title>
<path fill="none" stroke="midnightblue" d="M1690.22,-48C1698.82,-48 1707.47,-48 1715.87,-48"/>
<polygon fill="midnightblue" stroke="midnightblue" points="1690.15,-44.5001 1680.15,-48 1690.15,-51.5001 1690.15,-44.5001"/>
</g>
<!-- Node63 -->
<g id="node11" class="node"><title>Node63</title>
<g id="a_node11"><a xlink:href="../../d9/da1/a00396.html#a7c307c6b842f82664de6b0e52bdf8efc" target="_top" xlink:title="non&#45;static equivalent to main(String[]) : run to completion from an input file ">
<polygon fill="none" stroke="black" points="1896,-33 1896,-63 2040,-63 2040,-33 1896,-33"/>
<text text-anchor="start" x="1904" y="-51" font-family="Helvetica,sans-Serif" font-size="10.00">nars.storage.NARSBatch.run</text>
<text text-anchor="middle" x="1968" y="-40" font-family="Helvetica,sans-Serif" font-size="10.00">Inference</text>
</a>
</g>
</g>
<!-- Node62&#45;&gt;Node63 -->
<g id="edge10" class="edge"><title>Node62&#45;&gt;Node63</title>
<path fill="none" stroke="midnightblue" d="M1870.17,-48C1878.79,-48 1887.51,-48 1896,-48"/>
<polygon fill="midnightblue" stroke="midnightblue" points="1870.12,-44.5001 1860.12,-48 1870.12,-51.5001 1870.12,-44.5001"/>
</g>
<!-- Node64 -->
<g id="node12" class="node"><title>Node64</title>
<g id="a_node12"><a xlink:href="../../d9/da1/a00396.html#abafc597289bc2f6453b5cd0dd6634e54" target="_top" xlink:title="The entry point of the standalone application. ">
<polygon fill="none" stroke="black" points="2076,-38.5 2076,-57.5 2228,-57.5 2228,-38.5 2076,-38.5"/>
<text text-anchor="middle" x="2152" y="-45.5" font-family="Helvetica,sans-Serif" font-size="10.00">nars.storage.NARSBatch.main</text>
</a>
</g>
</g>
<!-- Node63&#45;&gt;Node64 -->
<g id="edge11" class="edge"><title>Node63&#45;&gt;Node64</title>
<path fill="none" stroke="midnightblue" d="M2050.17,-48C2058.76,-48 2067.48,-48 2076,-48"/>
<polygon fill="midnightblue" stroke="midnightblue" points="2050.15,-44.5001 2040.15,-48 2050.15,-51.5001 2050.15,-44.5001"/>
</g>
<!-- Node65&#45;&gt;Node56 -->
<g id="edge13" class="edge"><title>Node65&#45;&gt;Node56</title>
<path fill="none" stroke="midnightblue" d="M562.065,-48C576.437,-48 591.402,-48 605.765,-48"/>
<polygon fill="midnightblue" stroke="midnightblue" points="561.721,-44.5001 551.721,-48 561.721,-51.5001 561.721,-44.5001"/>
</g>
<!-- Node66&#45;&gt;Node56 -->
<g id="edge15" class="edge"><title>Node66&#45;&gt;Node56</title>
<path fill="none" stroke="midnightblue" d="M351.746,-13.1556C413.232,-15.9069 496.739,-20.7834 570,-29 591.383,-31.3983 614.824,-35.0255 635.038,-38.4702"/>
<polygon fill="midnightblue" stroke="midnightblue" points="351.831,-9.65607 341.688,-12.7157 351.525,-16.6494 351.831,-9.65607"/>
</g>
</g>
</svg>
