<?xml version="1.0" encoding="UTF-8" standalone="no"?>
<!DOCTYPE svg PUBLIC "-//W3C//DTD SVG 1.1//EN"
 "http://www.w3.org/Graphics/SVG/1.1/DTD/svg11.dtd">
<!-- Generated by graphviz version 2.38.0 (20140413.2041)
 -->
<!-- Title: nars.entity.Sentence.isJudgment Pages: 1 -->
<!--zoomable 760 -->
<svg id="main" version="1.1" xmlns="http://www.w3.org/2000/svg" xmlns:xlink="http://www.w3.org/1999/xlink" xml:space="preserve" onload="init(evt)">
<style type="text/css"><![CDATA[
.edge:hover path { stroke: red; }
.edge:hover polygon { stroke: red; fill: red; }
]]></style>
<script type="text/javascript"><![CDATA[
var edges = document.getElementsByTagName('g');
if (edges && edges.length) {
  for (var i=0;i<edges.length;i++) {
    if (edges[i].id.substr(0,4)=='edge') {
      edges[i].setAttribute('class','edge');
    }
  }
}
]]></script>
        <defs>
                <circle id="rim" cx="0" cy="0" r="7"/>
                <circle id="rim2" cx="0" cy="0" r="3.5"/>
                <g id="zoomPlus">
                        <use xlink:href="#rim" fill="#404040">
                                <set attributeName="fill" to="#808080" begin="zoomplus.mouseover" end="zoomplus.mouseout"/>
                        </use>
                        <path d="M-4,0h8M0,-4v8" fill="none" stroke="white" stroke-width="1.5" pointer-events="none"/>
                </g>
                <g id="zoomMin">
                        <use xlink:href="#rim" fill="#404040">
                                <set attributeName="fill" to="#808080" begin="zoomminus.mouseover" end="zoomminus.mouseout"/>
                        </use>
                        <path d="M-4,0h8" fill="none" stroke="white" stroke-width="1.5" pointer-events="none"/>
                </g>
                <g id="dirArrow">
                        <path fill="none" stroke="white" stroke-width="1.5" d="M0,-3.0v7 M-2.5,-0.5L0,-3.0L2.5,-0.5"/>
                </g>
               <g id="resetDef">
                       <use xlink:href="#rim2" fill="#404040">
                               <set attributeName="fill" to="#808080" begin="reset.mouseover" end="reset.mouseout"/>
                       </use>
               </g>
        </defs>

<script type="text/javascript">
var viewWidth = 2523;
var viewHeight = 760;
var sectionId = 'dynsection-23';
</script>
<script xlink:href="../../svgpan.js"/>
<svg id="graph" class="graph">
<g id="viewport">
<title>nars.entity.Sentence.isJudgment</title>
<!-- Node526 -->
<g id="node1" class="node"><title>Node526</title>
<polygon fill="#bfbfbf" stroke="black" points="0,-345 0,-364 160,-364 160,-345 0,-345"/>
<text text-anchor="middle" x="80" y="-352" font-family="Helvetica,sans-Serif" font-size="10.00">nars.entity.Sentence.isJudgment</text>
</g>
<!-- Node527 -->
<g id="node2" class="node"><title>Node527</title>
<g id="a_node2"><a xlink:href="../../d6/d08/a00244.html#a53f7edf7bfe7433da42e8fcf36fd6604" target="_top" xlink:title="{&lt;S ==&gt; M&gt;, ">
<polygon fill="none" stroke="black" points="217.5,-574.5 217.5,-604.5 360.5,-604.5 360.5,-574.5 217.5,-574.5"/>
<text text-anchor="start" x="225.5" y="-592.5" font-family="Helvetica,sans-Serif" font-size="10.00">nars.inference.Compositional</text>
<text text-anchor="middle" x="289" y="-581.5" font-family="Helvetica,sans-Serif" font-size="10.00">Rules.composeCompound</text>
</a>
</g>
</g>
<!-- Node526&#45;&gt;Node527 -->
<g id="edge1" class="edge"><title>Node526&#45;&gt;Node527</title>
<path fill="none" stroke="midnightblue" d="M85.9627,-374.072C97.6227,-415.947 130.827,-514.555 196,-565.5 202.372,-570.481 209.676,-574.435 217.321,-577.572"/>
<polygon fill="midnightblue" stroke="midnightblue" points="89.3089,-373.037 83.3455,-364.28 82.5463,-374.844 89.3089,-373.037"/>
</g>
<!-- Node539 -->
<g id="node14" class="node"><title>Node539</title>
<g id="a_node14"><a xlink:href="../../dc/ded/a00252.html#a54a7ceba4f123db5035e3b85063c91f1" target="_top" xlink:title="Inference between a compound term and a statement. ">
<polygon fill="none" stroke="black" points="421,-344.5 421,-374.5 600,-374.5 600,-344.5 421,-344.5"/>
<text text-anchor="start" x="429" y="-362.5" font-family="Helvetica,sans-Serif" font-size="10.00">nars.inference.RuleTables.compound</text>
<text text-anchor="middle" x="510.5" y="-351.5" font-family="Helvetica,sans-Serif" font-size="10.00">AndStatement</text>
</a>
</g>
</g>
<!-- Node526&#45;&gt;Node539 -->
<g id="edge13" class="edge"><title>Node526&#45;&gt;Node539</title>
<path fill="none" stroke="midnightblue" d="M127.097,-342.617C147.978,-337.821 173.073,-332.867 196,-330.5 278.23,-322.011 299.85,-321.275 382,-330.5 406.477,-333.249 433.108,-338.876 455.672,-344.449"/>
<polygon fill="midnightblue" stroke="midnightblue" points="126.143,-339.246 117.213,-344.946 127.749,-346.059 126.143,-339.246"/>
</g>
<!-- Node540 -->
<g id="node15" class="node"><title>Node540</title>
<g id="a_node15"><a xlink:href="../../dc/ded/a00252.html#af6c973743270b2739d4ad25f16975da1" target="_top" xlink:title="The detachment rule, with variable unification. ">
<polygon fill="none" stroke="black" points="418,-479.5 418,-509.5 603,-509.5 603,-479.5 418,-479.5"/>
<text text-anchor="start" x="426" y="-497.5" font-family="Helvetica,sans-Serif" font-size="10.00">nars.inference.RuleTables.detachment</text>
<text text-anchor="middle" x="510.5" y="-486.5" font-family="Helvetica,sans-Serif" font-size="10.00">WithVar</text>
</a>
</g>
</g>
<!-- Node526&#45;&gt;Node540 -->
<g id="edge15" class="edge"><title>Node526&#45;&gt;Node540</title>
<path fill="none" stroke="midnightblue" d="M91.7844,-373.106C109.429,-401.525 147.42,-454.832 196,-477.5 265.276,-509.825 352.74,-511.834 417.671,-507.042"/>
<polygon fill="midnightblue" stroke="midnightblue" points="94.5666,-370.942 86.4077,-364.183 88.5709,-374.554 94.5666,-370.942"/>
</g>
<!-- Node541 -->
<g id="node16" class="node"><title>Node541</title>
<g id="a_node16"><a xlink:href="../../d7/ded/a00196.html#a9ea7c3154932d7a736c105eb55daeb5c" target="_top" xlink:title="Directly process a new task. ">
<polygon fill="none" stroke="black" points="872,-126.5 872,-156.5 1001,-156.5 1001,-126.5 872,-126.5"/>
<text text-anchor="start" x="880" y="-144.5" font-family="Helvetica,sans-Serif" font-size="10.00">nars.entity.Concept.direct</text>
<text text-anchor="middle" x="936.5" y="-133.5" font-family="Helvetica,sans-Serif" font-size="10.00">Process</text>
</a>
</g>
</g>
<!-- Node526&#45;&gt;Node541 -->
<g id="edge17" class="edge"><title>Node526&#45;&gt;Node541</title>
<path fill="none" stroke="midnightblue" d="M83.5266,-334.959C90.842,-287.454 116.828,-166.175 196,-116.5 313.273,-42.9201 681.328,-101.895 819,-116.5 838.131,-118.53 858.737,-122.384 877.221,-126.469"/>
<polygon fill="midnightblue" stroke="midnightblue" points="80.0577,-334.493 82.1094,-344.887 86.9875,-335.482 80.0577,-334.493"/>
</g>
<!-- Node543 -->
<g id="node18" class="node"><title>Node543</title>
<g id="a_node18"><a xlink:href="../../d4/d27/a00392.html#ae43b86074c0d8f6a324696f69faa54b3" target="_top" xlink:title="Process the newTasks accumulated in the previous workCycle, accept input ones and those that correspo...">
<polygon fill="none" stroke="black" points="1247,-101.5 1247,-131.5 1393,-131.5 1393,-101.5 1247,-101.5"/>
<text text-anchor="start" x="1255" y="-119.5" font-family="Helvetica,sans-Serif" font-size="10.00">nars.storage.Memory.process</text>
<text text-anchor="middle" x="1320" y="-108.5" font-family="Helvetica,sans-Serif" font-size="10.00">NewTask</text>
</a>
</g>
</g>
<!-- Node526&#45;&gt;Node543 -->
<g id="edge33" class="edge"><title>Node526&#45;&gt;Node543</title>
<path fill="none" stroke="midnightblue" d="M82.3767,-334.688C87.1936,-282.294 108.17,-139.848 196,-77.5 252.902,-37.1069 439.719,-59.5 509.5,-59.5 509.5,-59.5 509.5,-59.5 937.5,-59.5 1051.18,-59.5 1181.84,-84.5619 1256.98,-101.449"/>
<polygon fill="midnightblue" stroke="midnightblue" points="78.8638,-334.705 81.5391,-344.956 85.8406,-335.274 78.8638,-334.705"/>
</g>
<!-- Node545 -->
<g id="node20" class="node"><title>Node545</title>
<g id="a_node20"><a xlink:href="../../d6/d08/a00244.html#ae7906cfca35e9c7568ace240aba808a0" target="_top" xlink:title="{&lt;M &#45;&#45;&gt; S&gt;, &lt;C ==&gt; &lt;M &#45;&#45;&gt; P&gt;&gt;} |&#45; &lt;(&amp;&amp;, &lt;#x &#45;&#45;&gt; S&gt;, C) ==&gt; &lt;#x &#45;&#45;&gt; P&gt;&gt; {&lt;M &#45;&#45;&gt; S&gt;, (&amp;&amp;, C, &lt;M &#45;&#45;&gt; P&gt;)} |&#45; (&amp;&amp;, C, &lt;&lt;#x &#45;&#45;&gt; S&gt; ==&gt; &lt;#x &#45;&#45;&gt; P&gt;&gt;) ">
<polygon fill="none" stroke="black" points="217.5,-437.5 217.5,-467.5 360.5,-467.5 360.5,-437.5 217.5,-437.5"/>
<text text-anchor="start" x="225.5" y="-455.5" font-family="Helvetica,sans-Serif" font-size="10.00">nars.inference.Compositional</text>
<text text-anchor="middle" x="289" y="-444.5" font-family="Helvetica,sans-Serif" font-size="10.00">Rules.introVarInner</text>
</a>
</g>
</g>
<!-- Node526&#45;&gt;Node545 -->
<g id="edge23" class="edge"><title>Node526&#45;&gt;Node545</title>
<path fill="none" stroke="midnightblue" d="M100.985,-370.179C123.085,-386.822 160.301,-412.836 196,-428.5 203.709,-431.883 211.998,-434.87 220.329,-437.485"/>
<polygon fill="midnightblue" stroke="midnightblue" points="103.093,-367.385 93.0224,-364.093 98.8421,-372.946 103.093,-367.385"/>
</g>
<!-- Node546 -->
<g id="node21" class="node"><title>Node546</title>
<g id="a_node21"><a xlink:href="../../dd/dd7/a00248.html#aac1c92950f50edd04d12229a8c992987" target="_top" xlink:title="The task and belief have the same content. ">
<polygon fill="none" stroke="black" points="649,-312 649,-331 809,-331 809,-312 649,-312"/>
<text text-anchor="middle" x="729" y="-319" font-family="Helvetica,sans-Serif" font-size="10.00">nars.inference.LocalRules.match</text>
</a>
</g>
</g>
<!-- Node526&#45;&gt;Node546 -->
<g id="edge26" class="edge"><title>Node526&#45;&gt;Node546</title>
<path fill="none" stroke="midnightblue" d="M114.666,-341.373C137.275,-333.279 167.949,-323.674 196,-319.5 355.188,-295.812 544.146,-305.298 648.595,-313.772"/>
<polygon fill="midnightblue" stroke="midnightblue" points="113.378,-338.117 105.193,-344.844 115.787,-344.689 113.378,-338.117"/>
</g>
<!-- Node547 -->
<g id="node22" class="node"><title>Node547</title>
<g id="a_node22"><a xlink:href="../../dd/dd7/a00248.html#a901b20a8e57ac01ce97b4d1302224e39" target="_top" xlink:title="Inheritance/Implication matches Similarity/Equivalence. ">
<polygon fill="none" stroke="black" points="209,-623.5 209,-653.5 369,-653.5 369,-623.5 209,-623.5"/>
<text text-anchor="start" x="217" y="-641.5" font-family="Helvetica,sans-Serif" font-size="10.00">nars.inference.LocalRules.match</text>
<text text-anchor="middle" x="289" y="-630.5" font-family="Helvetica,sans-Serif" font-size="10.00">AsymSym</text>
</a>
</g>
</g>
<!-- Node526&#45;&gt;Node547 -->
<g id="edge28" class="edge"><title>Node526&#45;&gt;Node547</title>
<path fill="none" stroke="midnightblue" d="M83.7972,-374.154C91.7779,-422.73 119.249,-549.225 196,-614.5 200.024,-617.922 204.479,-620.864 209.195,-623.391"/>
<polygon fill="midnightblue" stroke="midnightblue" points="87.2216,-373.395 82.2383,-364.045 80.3034,-374.462 87.2216,-373.395"/>
</g>
<!-- Node549 -->
<g id="node24" class="node"><title>Node549</title>
<g id="a_node24"><a xlink:href="../../dd/dd7/a00248.html#a93af32adec92cf57671c32e9ccc2dffc" target="_top" xlink:title="The task and belief match reversely. ">
<polygon fill="none" stroke="black" points="209,-525.5 209,-555.5 369,-555.5 369,-525.5 209,-525.5"/>
<text text-anchor="start" x="217" y="-543.5" font-family="Helvetica,sans-Serif" font-size="10.00">nars.inference.LocalRules.match</text>
<text text-anchor="middle" x="289" y="-532.5" font-family="Helvetica,sans-Serif" font-size="10.00">Reverse</text>
</a>
</g>
</g>
<!-- Node526&#45;&gt;Node549 -->
<g id="edge31" class="edge"><title>Node526&#45;&gt;Node549</title>
<path fill="none" stroke="midnightblue" d="M90.0209,-373.527C106.497,-406.276 144.555,-473.353 196,-510.5 204.445,-516.598 214.195,-521.501 224.124,-525.432"/>
<polygon fill="midnightblue" stroke="midnightblue" points="92.9843,-371.62 85.4403,-364.181 86.6988,-374.701 92.9843,-371.62"/>
</g>
<!-- Node550 -->
<g id="node25" class="node"><title>Node550</title>
<g id="a_node25"><a xlink:href="../../d4/d27/a00392.html#aa0bc5b42c9b4999df3f43a546c5c8dfe" target="_top" xlink:title="Shared final operations by all single&#45;premise rules, called in StructuralRules. ">
<polygon fill="none" stroke="black" points="220.5,-0.5 220.5,-30.5 357.5,-30.5 357.5,-0.5 220.5,-0.5"/>
<text text-anchor="start" x="228.5" y="-18.5" font-family="Helvetica,sans-Serif" font-size="10.00">nars.storage.Memory.single</text>
<text text-anchor="middle" x="289" y="-7.5" font-family="Helvetica,sans-Serif" font-size="10.00">PremiseTask</text>
</a>
</g>
</g>
<!-- Node526&#45;&gt;Node550 -->
<g id="edge34" class="edge"><title>Node526&#45;&gt;Node550</title>
<path fill="none" stroke="midnightblue" d="M82.5385,-334.829C87.8289,-280.685 110.022,-128.018 196,-45.5 202.909,-38.8692 211.302,-33.704 220.176,-29.6803"/>
<polygon fill="midnightblue" stroke="midnightblue" points="79.049,-334.555 81.6492,-344.826 86.0215,-335.176 79.049,-334.555"/>
</g>
<!-- Node551 -->
<g id="node26" class="node"><title>Node551</title>
<g id="a_node26"><a xlink:href="../../dd/dd7/a00248.html#a47cb028f5b51be6eb77e3e619fccfc7c" target="_top" xlink:title="Evaluate the quality of a belief as a solution to a problem, then reward the belief and de&#45;prioritize...">
<polygon fill="none" stroke="black" points="196,-126 196,-145 382,-145 382,-126 196,-126"/>
<text text-anchor="middle" x="289" y="-133" font-family="Helvetica,sans-Serif" font-size="10.00">nars.inference.LocalRules.solutionEval</text>
</a>
</g>
</g>
<!-- Node526&#45;&gt;Node551 -->
<g id="edge35" class="edge"><title>Node526&#45;&gt;Node551</title>
<path fill="none" stroke="midnightblue" d="M86.3331,-334.862C98.452,-294.201 132.09,-200.737 196,-154.5 201.285,-150.676 207.165,-147.583 213.325,-145.086"/>
<polygon fill="midnightblue" stroke="midnightblue" points="82.9221,-334.06 83.5357,-344.637 89.6519,-335.986 82.9221,-334.06"/>
</g>
<!-- Node555 -->
<g id="node30" class="node"><title>Node555</title>
<g id="a_node30"><a xlink:href="../../d0/def/a00256.html#a406d19539e5938cf190f153430f96b9b" target="_top" xlink:title="{&lt;S &#45;&#45;&gt; P&gt;, P@(P&amp;Q)} |&#45; &lt;S &#45;&#45;&gt; (P&amp;Q)&gt; ">
<polygon fill="none" stroke="black" points="222.5,-388.5 222.5,-418.5 355.5,-418.5 355.5,-388.5 222.5,-388.5"/>
<text text-anchor="start" x="230.5" y="-406.5" font-family="Helvetica,sans-Serif" font-size="10.00">nars.inference.Structural</text>
<text text-anchor="middle" x="289" y="-395.5" font-family="Helvetica,sans-Serif" font-size="10.00">Rules.structuralCompose1</text>
</a>
</g>
</g>
<!-- Node526&#45;&gt;Node555 -->
<g id="edge42" class="edge"><title>Node526&#45;&gt;Node555</title>
<path fill="none" stroke="midnightblue" d="M131.385,-366.427C159.415,-373.062 194.576,-381.385 224.476,-388.463"/>
<polygon fill="midnightblue" stroke="midnightblue" points="131.94,-362.962 121.403,-364.064 130.328,-369.773 131.94,-362.962"/>
</g>
<!-- Node556 -->
<g id="node31" class="node"><title>Node556</title>
<g id="a_node31"><a xlink:href="../../d0/def/a00256.html#ab3d78c70d8e8086fdabdc52a343cc416" target="_top" xlink:title="{&lt;S &#45;&#45;&gt; P&gt;, S@(S&amp;T)} |&#45; &lt;(S&amp;T) &#45;&#45;&gt; (P&amp;T)&gt; {&lt;S &#45;&#45;&gt; P&gt;, S@(M&#45;S)} |&#45; &lt;(M&#45;P) &#45;&#45;&gt; (M&#45;S)&gt; ...">
<polygon fill="none" stroke="black" points="222.5,-339.5 222.5,-369.5 355.5,-369.5 355.5,-339.5 222.5,-339.5"/>
<text text-anchor="start" x="230.5" y="-357.5" font-family="Helvetica,sans-Serif" font-size="10.00">nars.inference.Structural</text>
<text text-anchor="middle" x="289" y="-346.5" font-family="Helvetica,sans-Serif" font-size="10.00">Rules.structuralCompose2</text>
</a>
</g>
</g>
<!-- Node526&#45;&gt;Node556 -->
<g id="edge44" class="edge"><title>Node526&#45;&gt;Node556</title>
<path fill="none" stroke="midnightblue" d="M170.35,-354.5C187.817,-354.5 205.832,-354.5 222.355,-354.5"/>
<polygon fill="midnightblue" stroke="midnightblue" points="170.144,-351 160.144,-354.5 170.144,-358 170.144,-351"/>
</g>
<!-- Node557 -->
<g id="node32" class="node"><title>Node557</title>
<g id="a_node32"><a xlink:href="../../d0/def/a00256.html#aa98f40a1f1409b81531260124ebd13db" target="_top" xlink:title="{(&amp;&amp;, A, B), A@(&amp;&amp;, A, B)} |&#45; A {(||, A, B), A@(||, A, B)} |&#45; A ">
<polygon fill="none" stroke="black" points="222.5,-164.5 222.5,-194.5 355.5,-194.5 355.5,-164.5 222.5,-164.5"/>
<text text-anchor="start" x="230.5" y="-182.5" font-family="Helvetica,sans-Serif" font-size="10.00">nars.inference.Structural</text>
<text text-anchor="middle" x="289" y="-171.5" font-family="Helvetica,sans-Serif" font-size="10.00">Rules.structuralCompound</text>
</a>
</g>
</g>
<!-- Node526&#45;&gt;Node557 -->
<g id="edge46" class="edge"><title>Node526&#45;&gt;Node557</title>
<path fill="none" stroke="midnightblue" d="M90.2712,-335.488C106.892,-303.442 144.859,-238.818 196,-204.5 203.971,-199.151 213.053,-194.942 222.333,-191.632"/>
<polygon fill="midnightblue" stroke="midnightblue" points="87.0189,-334.164 85.6352,-344.668 93.2674,-337.32 87.0189,-334.164"/>
</g>
<!-- Node560 -->
<g id="node35" class="node"><title>Node560</title>
<g id="a_node35"><a xlink:href="../../d0/def/a00256.html#a9acdf1ff41d9de191e132c7cbe1e04fc" target="_top" xlink:title="{&lt;(S&amp;T) &#45;&#45;&gt; P&gt;, S@(S&amp;T)} |&#45; &lt;S &#45;&#45;&gt; P&gt; ">
<polygon fill="none" stroke="black" points="217.5,-721.5 217.5,-751.5 360.5,-751.5 360.5,-721.5 217.5,-721.5"/>
<text text-anchor="start" x="225.5" y="-739.5" font-family="Helvetica,sans-Serif" font-size="10.00">nars.inference.Structural</text>
<text text-anchor="middle" x="289" y="-728.5" font-family="Helvetica,sans-Serif" font-size="10.00">Rules.structuralDecompose1</text>
</a>
</g>
</g>
<!-- Node526&#45;&gt;Node560 -->
<g id="edge51" class="edge"><title>Node526&#45;&gt;Node560</title>
<path fill="none" stroke="midnightblue" d="M81.1165,-374.294C82.5906,-434.561 95.5285,-617.468 196,-712.5 202.116,-718.285 209.446,-722.717 217.265,-726.107"/>
<polygon fill="midnightblue" stroke="midnightblue" points="84.615,-374.169 80.954,-364.226 77.6159,-374.282 84.615,-374.169"/>
</g>
<!-- Node562 -->
<g id="node37" class="node"><title>Node562</title>
<g id="a_node37"><a xlink:href="../../d0/def/a00256.html#a38aabb9f3b3a70e03852da1e32ec665d" target="_top" xlink:title="{&lt;(S&amp;T) &#45;&#45;&gt; (P&amp;T)&gt;, S@(S&amp;T)} |&#45; &lt;S &#45;&#45;&gt; P&gt; ">
<polygon fill="none" stroke="black" points="217.5,-672.5 217.5,-702.5 360.5,-702.5 360.5,-672.5 217.5,-672.5"/>
<text text-anchor="start" x="225.5" y="-690.5" font-family="Helvetica,sans-Serif" font-size="10.00">nars.inference.Structural</text>
<text text-anchor="middle" x="289" y="-679.5" font-family="Helvetica,sans-Serif" font-size="10.00">Rules.structuralDecompose2</text>
</a>
</g>
</g>
<!-- Node526&#45;&gt;Node562 -->
<g id="edge54" class="edge"><title>Node526&#45;&gt;Node562</title>
<path fill="none" stroke="midnightblue" d="M82.2525,-374.078C86.826,-428.601 107.385,-583.421 196,-663.5 202.123,-669.034 209.364,-673.321 217.053,-676.638"/>
<polygon fill="midnightblue" stroke="midnightblue" points="85.737,-373.74 81.5004,-364.029 78.7565,-374.262 85.737,-373.74"/>
</g>
<!-- Node563 -->
<g id="node38" class="node"><title>Node563</title>
<g id="a_node38"><a xlink:href="../../dc/ded/a00252.html#a4892ac6afc9d0f59d14e2f1c5e8fc816" target="_top" xlink:title="{A, A@(–, A)} |&#45; (–, A) ">
<polygon fill="none" stroke="black" points="201.5,-213.5 201.5,-243.5 376.5,-243.5 376.5,-213.5 201.5,-213.5"/>
<text text-anchor="start" x="209.5" y="-231.5" font-family="Helvetica,sans-Serif" font-size="10.00">nars.inference.RuleTables.transform</text>
<text text-anchor="middle" x="289" y="-220.5" font-family="Helvetica,sans-Serif" font-size="10.00">Negation</text>
</a>
</g>
</g>
<!-- Node526&#45;&gt;Node563 -->
<g id="edge56" class="edge"><title>Node526&#45;&gt;Node563</title>
<path fill="none" stroke="midnightblue" d="M97.0448,-337.606C117.994,-316.429 156.653,-280.273 196,-258.5 206.584,-252.644 218.491,-247.708 230.141,-243.639"/>
<polygon fill="midnightblue" stroke="midnightblue" points="94.3852,-335.321 89.9183,-344.928 99.4013,-340.203 94.3852,-335.321"/>
</g>
<!-- Node528 -->
<g id="node3" class="node"><title>Node528</title>
<g id="a_node3"><a xlink:href="../../dc/ded/a00252.html#a34927349efcf87db97d23c60983b115b" target="_top" xlink:title="Syllogistic rules whose both premises are on the same asymmetric relation. ">
<polygon fill="none" stroke="black" points="418,-528.5 418,-558.5 603,-558.5 603,-528.5 418,-528.5"/>
<text text-anchor="start" x="426" y="-546.5" font-family="Helvetica,sans-Serif" font-size="10.00">nars.inference.RuleTables.asymmetric</text>
<text text-anchor="middle" x="510.5" y="-535.5" font-family="Helvetica,sans-Serif" font-size="10.00">Asymmetric</text>
</a>
</g>
</g>
<!-- Node527&#45;&gt;Node528 -->
<g id="edge2" class="edge"><title>Node527&#45;&gt;Node528</title>
<path fill="none" stroke="midnightblue" d="M370.643,-572.6C392.661,-567.986 416.363,-563.018 437.843,-558.517"/>
<polygon fill="midnightblue" stroke="midnightblue" points="369.729,-569.215 360.659,-574.692 371.165,-576.066 369.729,-569.215"/>
</g>
<!-- Node529 -->
<g id="node4" class="node"><title>Node529</title>
<g id="a_node4"><a xlink:href="../../dc/ded/a00252.html#a8628d400a8ceda7fea05039ddfea319b" target="_top" xlink:title="Meta&#45;table of syllogistic rules, indexed by the content classes of the taskSentence and the belief...">
<polygon fill="none" stroke="black" points="639,-510 639,-529 819,-529 819,-510 639,-510"/>
<text text-anchor="middle" x="729" y="-517" font-family="Helvetica,sans-Serif" font-size="10.00">nars.inference.RuleTables.syllogisms</text>
</a>
</g>
</g>
<!-- Node528&#45;&gt;Node529 -->
<g id="edge3" class="edge"><title>Node528&#45;&gt;Node529</title>
<path fill="none" stroke="midnightblue" d="M613.051,-532.243C622.731,-531.17 632.483,-530.088 641.996,-529.034"/>
<polygon fill="midnightblue" stroke="midnightblue" points="612.555,-528.776 603.002,-533.357 613.326,-535.733 612.555,-528.776"/>
</g>
<!-- Node530 -->
<g id="node5" class="node"><title>Node530</title>
<g id="a_node5"><a xlink:href="../../dc/ded/a00252.html#ac2d01dfdc40bdd47c757cb549217e6e3" target="_top" xlink:title="Entry point of the inference engine. ">
<polygon fill="none" stroke="black" points="855,-312 855,-331 1018,-331 1018,-312 855,-312"/>
<text text-anchor="middle" x="936.5" y="-319" font-family="Helvetica,sans-Serif" font-size="10.00">nars.inference.RuleTables.reason</text>
</a>
</g>
</g>
<!-- Node529&#45;&gt;Node530 -->
<g id="edge4" class="edge"><title>Node529&#45;&gt;Node530</title>
<path fill="none" stroke="midnightblue" d="M747.313,-502.819C788.663,-462.978 892.179,-363.24 925.204,-331.421"/>
<polygon fill="midnightblue" stroke="midnightblue" points="744.685,-500.491 739.912,-509.95 749.541,-505.532 744.685,-500.491"/>
</g>
<!-- Node531 -->
<g id="node6" class="node"><title>Node531</title>
<g id="a_node6"><a xlink:href="../../d7/ded/a00196.html#ad6fb91dda799c3092ecb186ef24ca92a" target="_top" xlink:title="An atomic step in a concept, only called in Memory# processConcept. ">
<polygon fill="none" stroke="black" points="1073,-240.5 1073,-270.5 1192,-270.5 1192,-240.5 1073,-240.5"/>
<text text-anchor="start" x="1081" y="-258.5" font-family="Helvetica,sans-Serif" font-size="10.00">nars.entity.Concept.fire</text>
<text text-anchor="middle" x="1132.5" y="-247.5" font-family="Helvetica,sans-Serif" font-size="10.00">FromProcessConcept</text>
</a>
</g>
</g>
<!-- Node530&#45;&gt;Node531 -->
<g id="edge5" class="edge"><title>Node530&#45;&gt;Node531</title>
<path fill="none" stroke="midnightblue" d="M975.588,-308.542C1007.61,-297.649 1053.41,-282.065 1087.09,-270.607"/>
<polygon fill="midnightblue" stroke="midnightblue" points="974.049,-305.369 965.709,-311.903 976.304,-311.996 974.049,-305.369"/>
</g>
<!-- Node532 -->
<g id="node7" class="node"><title>Node532</title>
<g id="a_node7"><a xlink:href="../../d4/d27/a00392.html#a0acc4adbf6a2462245da46bcb529746c" target="_top" xlink:title="Select a concept to fireFromProcessConcept. ">
<polygon fill="none" stroke="black" points="1247,-219.5 1247,-249.5 1393,-249.5 1393,-219.5 1247,-219.5"/>
<text text-anchor="start" x="1255" y="-237.5" font-family="Helvetica,sans-Serif" font-size="10.00">nars.storage.Memory.process</text>
<text text-anchor="middle" x="1320" y="-226.5" font-family="Helvetica,sans-Serif" font-size="10.00">Concept</text>
</a>
</g>
</g>
<!-- Node531&#45;&gt;Node532 -->
<g id="edge6" class="edge"><title>Node531&#45;&gt;Node532</title>
<path fill="none" stroke="midnightblue" d="M1202.52,-247.686C1216.93,-246.055 1232.16,-244.331 1246.68,-242.687"/>
<polygon fill="midnightblue" stroke="midnightblue" points="1201.74,-244.253 1192.19,-248.855 1202.52,-251.208 1201.74,-244.253"/>
</g>
<!-- Node533 -->
<g id="node8" class="node"><title>Node533</title>
<g id="a_node8"><a xlink:href="../../d4/d27/a00392.html#a59ae339d666409988d90d29be4f73a91" target="_top" xlink:title="An atomic working workCycle of the system: process new Tasks, then fireFromProcessConcept a concept...">
<polygon fill="none" stroke="black" points="1429,-150.5 1429,-180.5 1562,-180.5 1562,-150.5 1429,-150.5"/>
<text text-anchor="start" x="1437" y="-168.5" font-family="Helvetica,sans-Serif" font-size="10.00">nars.storage.Memory.work</text>
<text text-anchor="middle" x="1495.5" y="-157.5" font-family="Helvetica,sans-Serif" font-size="10.00">Cycle</text>
</a>
</g>
</g>
<!-- Node532&#45;&gt;Node533 -->
<g id="edge7" class="edge"><title>Node532&#45;&gt;Node533</title>
<path fill="none" stroke="midnightblue" d="M1368.56,-215.586C1396.24,-204.578 1430.66,-190.89 1456.51,-180.607"/>
<polygon fill="midnightblue" stroke="midnightblue" points="1367.07,-212.41 1359.08,-219.358 1369.66,-218.914 1367.07,-212.41"/>
</g>
<!-- Node534 -->
<g id="node9" class="node"><title>Node534</title>
<g id="a_node9"><a xlink:href="../../df/d15/a00416.html#a0d5c797dc17d9e8d0998852915e0f303" target="_top" xlink:title="nars.storage.ReasonerBatch.doTick">
<polygon fill="none" stroke="black" points="1598,-156 1598,-175 1771,-175 1771,-156 1598,-156"/>
<text text-anchor="middle" x="1684.5" y="-163" font-family="Helvetica,sans-Serif" font-size="10.00">nars.storage.ReasonerBatch.doTick</text>
</a>
</g>
</g>
<!-- Node533&#45;&gt;Node534 -->
<g id="edge8" class="edge"><title>Node533&#45;&gt;Node534</title>
<path fill="none" stroke="midnightblue" d="M1572.34,-165.5C1580.78,-165.5 1589.42,-165.5 1597.97,-165.5"/>
<polygon fill="midnightblue" stroke="midnightblue" points="1572.17,-162 1562.17,-165.5 1572.17,-169 1572.17,-162"/>
</g>
<!-- Node535 -->
<g id="node10" class="node"><title>Node535</title>
<g id="a_node10"><a xlink:href="../../df/d15/a00416.html#a3468aa0f99edcd66412f27922dddb880" target="_top" xlink:title="A clock tick. ">
<polygon fill="none" stroke="black" points="1807,-156 1807,-175 1967,-175 1967,-156 1807,-156"/>
<text text-anchor="middle" x="1887" y="-163" font-family="Helvetica,sans-Serif" font-size="10.00">nars.storage.ReasonerBatch.tick</text>
</a>
</g>
</g>
<!-- Node534&#45;&gt;Node535 -->
<g id="edge9" class="edge"><title>Node534&#45;&gt;Node535</title>
<path fill="none" stroke="midnightblue" d="M1781.13,-165.5C1789.7,-165.5 1798.31,-165.5 1806.71,-165.5"/>
<polygon fill="midnightblue" stroke="midnightblue" points="1781.11,-162 1771.11,-165.5 1781.11,-169 1781.11,-162"/>
</g>
<!-- Node536 -->
<g id="node11" class="node"><title>Node536</title>
<g id="a_node11"><a xlink:href="../../d9/da1/a00396.html#a5d9cfe517bcfbe41e5251910bcd119c1" target="_top" xlink:title="Run to completion: repeatedly execute NARS working cycle, until Inputs are Finished, or 1000 steps. ">
<polygon fill="none" stroke="black" points="2003,-156 2003,-175 2147,-175 2147,-156 2003,-156"/>
<text text-anchor="middle" x="2075" y="-163" font-family="Helvetica,sans-Serif" font-size="10.00">nars.storage.NARSBatch.run</text>
</a>
</g>
</g>
<!-- Node535&#45;&gt;Node536 -->
<g id="edge10" class="edge"><title>Node535&#45;&gt;Node536</title>
<path fill="none" stroke="midnightblue" d="M1977.22,-165.5C1985.82,-165.5 1994.47,-165.5 2002.87,-165.5"/>
<polygon fill="midnightblue" stroke="midnightblue" points="1977.15,-162 1967.15,-165.5 1977.15,-169 1977.15,-162"/>
</g>
<!-- Node537 -->
<g id="node12" class="node"><title>Node537</title>
<g id="a_node12"><a xlink:href="../../d9/da1/a00396.html#a7c307c6b842f82664de6b0e52bdf8efc" target="_top" xlink:title="non&#45;static equivalent to main(String[]) : run to completion from an input file ">
<polygon fill="none" stroke="black" points="2183,-150.5 2183,-180.5 2327,-180.5 2327,-150.5 2183,-150.5"/>
<text text-anchor="start" x="2191" y="-168.5" font-family="Helvetica,sans-Serif" font-size="10.00">nars.storage.NARSBatch.run</text>
<text text-anchor="middle" x="2255" y="-157.5" font-family="Helvetica,sans-Serif" font-size="10.00">Inference</text>
</a>
</g>
</g>
<!-- Node536&#45;&gt;Node537 -->
<g id="edge11" class="edge"><title>Node536&#45;&gt;Node537</title>
<path fill="none" stroke="midnightblue" d="M2157.17,-165.5C2165.79,-165.5 2174.51,-165.5 2183,-165.5"/>
<polygon fill="midnightblue" stroke="midnightblue" points="2157.12,-162 2147.12,-165.5 2157.12,-169 2157.12,-162"/>
</g>
<!-- Node538 -->
<g id="node13" class="node"><title>Node538</title>
<g id="a_node13"><a xlink:href="../../d9/da1/a00396.html#abafc597289bc2f6453b5cd0dd6634e54" target="_top" xlink:title="The entry point of the standalone application. ">
<polygon fill="none" stroke="black" points="2363,-156 2363,-175 2515,-175 2515,-156 2363,-156"/>
<text text-anchor="middle" x="2439" y="-163" font-family="Helvetica,sans-Serif" font-size="10.00">nars.storage.NARSBatch.main</text>
</a>
</g>
</g>
<!-- Node537&#45;&gt;Node538 -->
<g id="edge12" class="edge"><title>Node537&#45;&gt;Node538</title>
<path fill="none" stroke="midnightblue" d="M2337.17,-165.5C2345.76,-165.5 2354.48,-165.5 2363,-165.5"/>
<polygon fill="midnightblue" stroke="midnightblue" points="2337.15,-162 2327.15,-165.5 2337.15,-169 2337.15,-162"/>
</g>
<!-- Node539&#45;&gt;Node530 -->
<g id="edge14" class="edge"><title>Node539&#45;&gt;Node530</title>
<path fill="none" stroke="midnightblue" d="M610.471,-355.9C670.854,-353.079 749.533,-348.291 819,-340.5 840.383,-338.102 863.824,-334.474 884.038,-331.03"/>
<polygon fill="midnightblue" stroke="midnightblue" points="610.011,-352.417 600.181,-356.37 610.33,-359.41 610.011,-352.417"/>
</g>
<!-- Node540&#45;&gt;Node529 -->
<g id="edge16" class="edge"><title>Node540&#45;&gt;Node529</title>
<path fill="none" stroke="midnightblue" d="M612.953,-506.215C623.83,-507.471 634.799,-508.738 645.418,-509.964"/>
<polygon fill="midnightblue" stroke="midnightblue" points="613.337,-502.736 603.002,-505.066 612.534,-509.69 613.337,-502.736"/>
</g>
<!-- Node542 -->
<g id="node17" class="node"><title>Node542</title>
<g id="a_node17"><a xlink:href="../../d4/d27/a00392.html#af8d07412d21a441a5c7005a477b06468" target="_top" xlink:title="Immediate processing of a new task, in constant time Local processing, in one concept only...">
<polygon fill="none" stroke="black" points="1054,-126.5 1054,-156.5 1211,-156.5 1211,-126.5 1054,-126.5"/>
<text text-anchor="start" x="1062" y="-144.5" font-family="Helvetica,sans-Serif" font-size="10.00">nars.storage.Memory.immediate</text>
<text text-anchor="middle" x="1132.5" y="-133.5" font-family="Helvetica,sans-Serif" font-size="10.00">Process</text>
</a>
</g>
</g>
<!-- Node541&#45;&gt;Node542 -->
<g id="edge18" class="edge"><title>Node541&#45;&gt;Node542</title>
<path fill="none" stroke="midnightblue" d="M1011.09,-141.5C1025.1,-141.5 1039.81,-141.5 1053.95,-141.5"/>
<polygon fill="midnightblue" stroke="midnightblue" points="1011.02,-138 1001.02,-141.5 1011.02,-145 1011.02,-138"/>
</g>
<!-- Node542&#45;&gt;Node543 -->
<g id="edge19" class="edge"><title>Node542&#45;&gt;Node543</title>
<path fill="none" stroke="midnightblue" d="M1221.12,-129.691C1229.71,-128.534 1238.35,-127.369 1246.75,-126.237"/>
<polygon fill="midnightblue" stroke="midnightblue" points="1220.54,-126.238 1211.09,-131.043 1221.47,-133.176 1220.54,-126.238"/>
</g>
<!-- Node544 -->
<g id="node19" class="node"><title>Node544</title>
<g id="a_node19"><a xlink:href="../../d4/d27/a00392.html#a5061708f88897cfdf4e0671c846762ca" target="_top" xlink:title="Select a novel task to process. ">
<polygon fill="none" stroke="black" points="1247,-150.5 1247,-180.5 1393,-180.5 1393,-150.5 1247,-150.5"/>
<text text-anchor="start" x="1255" y="-168.5" font-family="Helvetica,sans-Serif" font-size="10.00">nars.storage.Memory.process</text>
<text text-anchor="middle" x="1320" y="-157.5" font-family="Helvetica,sans-Serif" font-size="10.00">NovelTask</text>
</a>
</g>
</g>
<!-- Node542&#45;&gt;Node544 -->
<g id="edge21" class="edge"><title>Node542&#45;&gt;Node544</title>
<path fill="none" stroke="midnightblue" d="M1221.12,-152.837C1229.71,-153.947 1238.35,-155.065 1246.75,-156.153"/>
<polygon fill="midnightblue" stroke="midnightblue" points="1221.46,-149.351 1211.09,-151.539 1220.56,-156.293 1221.46,-149.351"/>
</g>
<!-- Node543&#45;&gt;Node533 -->
<g id="edge20" class="edge"><title>Node543&#45;&gt;Node533</title>
<path fill="none" stroke="midnightblue" d="M1384.1,-134.321C1402.83,-139.612 1423.16,-145.352 1441.21,-150.448"/>
<polygon fill="midnightblue" stroke="midnightblue" points="1385.05,-130.951 1374.47,-131.601 1383.14,-137.688 1385.05,-130.951"/>
</g>
<!-- Node544&#45;&gt;Node533 -->
<g id="edge22" class="edge"><title>Node544&#45;&gt;Node533</title>
<path fill="none" stroke="midnightblue" d="M1403.12,-165.5C1411.72,-165.5 1420.37,-165.5 1428.76,-165.5"/>
<polygon fill="midnightblue" stroke="midnightblue" points="1403.07,-162 1393.07,-165.5 1403.07,-169 1403.07,-162"/>
</g>
<!-- Node545&#45;&gt;Node539 -->
<g id="edge25" class="edge"><title>Node545&#45;&gt;Node539</title>
<path fill="none" stroke="midnightblue" d="M365.906,-434.262C371.402,-432.466 376.817,-430.544 382,-428.5 419.931,-413.542 460.913,-389.884 485.895,-374.527"/>
<polygon fill="midnightblue" stroke="midnightblue" points="364.465,-431.045 355.958,-437.361 366.546,-437.729 364.465,-431.045"/>
</g>
<!-- Node545&#45;&gt;Node540 -->
<g id="edge24" class="edge"><title>Node545&#45;&gt;Node540</title>
<path fill="none" stroke="midnightblue" d="M370.53,-467.909C390.26,-471.684 411.35,-475.72 430.984,-479.477"/>
<polygon fill="midnightblue" stroke="midnightblue" points="371.139,-464.462 360.659,-466.02 369.823,-471.337 371.139,-464.462"/>
</g>
<!-- Node546&#45;&gt;Node530 -->
<g id="edge27" class="edge"><title>Node546&#45;&gt;Node530</title>
<path fill="none" stroke="midnightblue" d="M819.394,-321.5C831.13,-321.5 843.102,-321.5 854.684,-321.5"/>
<polygon fill="midnightblue" stroke="midnightblue" points="819.158,-318 809.158,-321.5 819.158,-325 819.158,-318"/>
</g>
<!-- Node548 -->
<g id="node23" class="node"><title>Node548</title>
<g id="a_node23"><a xlink:href="../../dc/ded/a00252.html#a4f61a7c2dc75c9da475030894eac0735" target="_top" xlink:title="Syllogistic rules whose first premise is on an asymmetric relation, and the second on a symmetric rel...">
<polygon fill="none" stroke="black" points="418,-600.5 418,-630.5 603,-630.5 603,-600.5 418,-600.5"/>
<text text-anchor="start" x="426" y="-618.5" font-family="Helvetica,sans-Serif" font-size="10.00">nars.inference.RuleTables.asymmetric</text>
<text text-anchor="middle" x="510.5" y="-607.5" font-family="Helvetica,sans-Serif" font-size="10.00">Symmetric</text>
</a>
</g>
</g>
<!-- Node547&#45;&gt;Node548 -->
<g id="edge29" class="edge"><title>Node547&#45;&gt;Node548</title>
<path fill="none" stroke="midnightblue" d="M379.299,-629.143C391.953,-627.817 404.983,-626.452 417.684,-625.121"/>
<polygon fill="midnightblue" stroke="midnightblue" points="378.825,-625.673 369.245,-630.196 379.555,-632.635 378.825,-625.673"/>
</g>
<!-- Node548&#45;&gt;Node529 -->
<g id="edge30" class="edge"><title>Node548&#45;&gt;Node529</title>
<path fill="none" stroke="midnightblue" d="M555.196,-596.124C601.034,-575.799 671.204,-544.685 706.355,-529.098"/>
<polygon fill="midnightblue" stroke="midnightblue" points="553.528,-593.035 545.805,-600.289 556.365,-599.434 553.528,-593.035"/>
</g>
<!-- Node549&#45;&gt;Node528 -->
<g id="edge32" class="edge"><title>Node549&#45;&gt;Node528</title>
<path fill="none" stroke="midnightblue" d="M379.299,-541.72C391.953,-541.893 404.983,-542.072 417.684,-542.245"/>
<polygon fill="midnightblue" stroke="midnightblue" points="379.291,-538.22 369.245,-541.583 379.196,-545.22 379.291,-538.22"/>
</g>
<!-- Node552 -->
<g id="node27" class="node"><title>Node552</title>
<g id="a_node27"><a xlink:href="../../dd/dd7/a00248.html#a3ecf859c238ad7f0c44c45e3e5df0081" target="_top" xlink:title="Check if a Sentence provide a better answer to a Question or Goal. ">
<polygon fill="none" stroke="black" points="438.5,-145.5 438.5,-175.5 582.5,-175.5 582.5,-145.5 438.5,-145.5"/>
<text text-anchor="start" x="446.5" y="-163.5" font-family="Helvetica,sans-Serif" font-size="10.00">nars.inference.LocalRules.try</text>
<text text-anchor="middle" x="510.5" y="-152.5" font-family="Helvetica,sans-Serif" font-size="10.00">Solution</text>
</a>
</g>
</g>
<!-- Node551&#45;&gt;Node552 -->
<g id="edge36" class="edge"><title>Node551&#45;&gt;Node552</title>
<path fill="none" stroke="midnightblue" d="M383.694,-146.171C401.982,-148.254 420.878,-150.406 438.291,-152.39"/>
<polygon fill="midnightblue" stroke="midnightblue" points="383.942,-142.677 373.61,-145.023 383.149,-149.632 383.942,-142.677"/>
</g>
<!-- Node552&#45;&gt;Node546 -->
<g id="edge41" class="edge"><title>Node552&#45;&gt;Node546</title>
<path fill="none" stroke="midnightblue" d="M564.855,-179.771C578.284,-186.26 591.994,-194.464 603,-204.5 625.98,-225.453 617.334,-242.191 639,-264.5 659.198,-285.297 688.366,-302.135 707.738,-311.979"/>
<polygon fill="midnightblue" stroke="midnightblue" points="566.189,-176.533 555.64,-175.552 563.275,-182.897 566.189,-176.533"/>
</g>
<!-- Node553 -->
<g id="node28" class="node"><title>Node553</title>
<g id="a_node28"><a xlink:href="../../d7/ded/a00196.html#a40cddcc82ee28a1cf5b1f4bc14e2b078" target="_top" xlink:title="To accept a new judgment as isBelief, and check for revisions and solutions. ">
<polygon fill="none" stroke="black" points="659,-126.5 659,-156.5 799,-156.5 799,-126.5 659,-126.5"/>
<text text-anchor="start" x="667" y="-144.5" font-family="Helvetica,sans-Serif" font-size="10.00">nars.entity.Concept.process</text>
<text text-anchor="middle" x="729" y="-133.5" font-family="Helvetica,sans-Serif" font-size="10.00">Judgment</text>
</a>
</g>
</g>
<!-- Node552&#45;&gt;Node553 -->
<g id="edge37" class="edge"><title>Node552&#45;&gt;Node553</title>
<path fill="none" stroke="midnightblue" d="M592.896,-153.357C614.654,-151.447 637.957,-149.402 658.978,-147.557"/>
<polygon fill="midnightblue" stroke="midnightblue" points="592.346,-149.891 582.69,-154.252 592.958,-156.865 592.346,-149.891"/>
</g>
<!-- Node554 -->
<g id="node29" class="node"><title>Node554</title>
<g id="a_node29"><a xlink:href="../../d7/ded/a00196.html#a3900248991e7adb57e82231312337f8f" target="_top" xlink:title="To answer a question by existing beliefs. ">
<polygon fill="none" stroke="black" points="659,-175.5 659,-205.5 799,-205.5 799,-175.5 659,-175.5"/>
<text text-anchor="start" x="667" y="-193.5" font-family="Helvetica,sans-Serif" font-size="10.00">nars.entity.Concept.process</text>
<text text-anchor="middle" x="729" y="-182.5" font-family="Helvetica,sans-Serif" font-size="10.00">Question</text>
</a>
</g>
</g>
<!-- Node552&#45;&gt;Node554 -->
<g id="edge39" class="edge"><title>Node552&#45;&gt;Node554</title>
<path fill="none" stroke="midnightblue" d="M592.601,-171.738C614.443,-174.765 637.862,-178.01 658.978,-180.936"/>
<polygon fill="midnightblue" stroke="midnightblue" points="593.076,-168.27 582.69,-170.365 592.115,-175.204 593.076,-168.27"/>
</g>
<!-- Node553&#45;&gt;Node541 -->
<g id="edge38" class="edge"><title>Node553&#45;&gt;Node541</title>
<path fill="none" stroke="midnightblue" d="M809.079,-141.5C829.865,-141.5 852.019,-141.5 871.879,-141.5"/>
<polygon fill="midnightblue" stroke="midnightblue" points="809,-138 799,-141.5 809,-145 809,-138"/>
</g>
<!-- Node554&#45;&gt;Node541 -->
<g id="edge40" class="edge"><title>Node554&#45;&gt;Node541</title>
<path fill="none" stroke="midnightblue" d="M802.99,-173.096C825.722,-167.676 850.582,-161.748 872.566,-156.506"/>
<polygon fill="midnightblue" stroke="midnightblue" points="801.969,-169.741 793.053,-175.465 803.592,-176.55 801.969,-169.741"/>
</g>
<!-- Node555&#45;&gt;Node539 -->
<g id="edge43" class="edge"><title>Node555&#45;&gt;Node539</title>
<path fill="none" stroke="midnightblue" d="M365.653,-388.335C387.973,-383.861 412.382,-378.968 434.652,-374.504"/>
<polygon fill="midnightblue" stroke="midnightblue" points="364.677,-384.961 355.56,-390.358 366.053,-391.824 364.677,-384.961"/>
</g>
<!-- Node556&#45;&gt;Node539 -->
<g id="edge45" class="edge"><title>Node556&#45;&gt;Node539</title>
<path fill="none" stroke="midnightblue" d="M365.815,-356.227C383.517,-356.63 402.524,-357.063 420.731,-357.478"/>
<polygon fill="midnightblue" stroke="midnightblue" points="365.637,-352.722 355.56,-355.993 365.478,-359.72 365.637,-352.722"/>
</g>
<!-- Node558 -->
<g id="node33" class="node"><title>Node558</title>
<g id="a_node33"><a xlink:href="../../dc/ded/a00252.html#a00ffbf7a9069cfd135acae4b46d78d05" target="_top" xlink:title="Inference between a compound term and a component of it. ">
<polygon fill="none" stroke="black" points="421,-213.5 421,-243.5 600,-243.5 600,-213.5 421,-213.5"/>
<text text-anchor="start" x="429" y="-231.5" font-family="Helvetica,sans-Serif" font-size="10.00">nars.inference.RuleTables.compound</text>
<text text-anchor="middle" x="510.5" y="-220.5" font-family="Helvetica,sans-Serif" font-size="10.00">AndSelf</text>
</a>
</g>
</g>
<!-- Node557&#45;&gt;Node558 -->
<g id="edge47" class="edge"><title>Node557&#45;&gt;Node558</title>
<path fill="none" stroke="midnightblue" d="M365.65,-196.388C390.453,-201.925 417.837,-208.038 441.997,-213.431"/>
<polygon fill="midnightblue" stroke="midnightblue" points="366.082,-192.898 355.56,-194.135 364.557,-199.73 366.082,-192.898"/>
</g>
<!-- Node558&#45;&gt;Node530 -->
<g id="edge48" class="edge"><title>Node558&#45;&gt;Node530</title>
<path fill="none" stroke="midnightblue" d="M570.521,-246.297C591.978,-252.467 616.485,-259.168 639,-264.5 721.504,-284.04 818.118,-301.644 878.074,-311.957"/>
<polygon fill="midnightblue" stroke="midnightblue" points="571.473,-242.93 560.894,-243.507 569.524,-249.653 571.473,-242.93"/>
</g>
<!-- Node559 -->
<g id="node34" class="node"><title>Node559</title>
<g id="a_node34"><a xlink:href="../../dc/ded/a00252.html#a764dbc9ccccf406df45e09fbfeda928f" target="_top" xlink:title="Inference between two compound terms. ">
<polygon fill="none" stroke="black" points="639.5,-224.5 639.5,-254.5 818.5,-254.5 818.5,-224.5 639.5,-224.5"/>
<text text-anchor="start" x="647.5" y="-242.5" font-family="Helvetica,sans-Serif" font-size="10.00">nars.inference.RuleTables.compound</text>
<text text-anchor="middle" x="729" y="-231.5" font-family="Helvetica,sans-Serif" font-size="10.00">AndCompound</text>
</a>
</g>
</g>
<!-- Node558&#45;&gt;Node559 -->
<g id="edge49" class="edge"><title>Node558&#45;&gt;Node559</title>
<path fill="none" stroke="midnightblue" d="M610.273,-233.518C620.003,-234.013 629.836,-234.512 639.454,-235.001"/>
<polygon fill="midnightblue" stroke="midnightblue" points="610.348,-230.018 600.184,-233.006 609.993,-237.009 610.348,-230.018"/>
</g>
<!-- Node559&#45;&gt;Node530 -->
<g id="edge50" class="edge"><title>Node559&#45;&gt;Node530</title>
<path fill="none" stroke="midnightblue" d="M787.085,-257.848C797.756,-261.531 808.767,-265.502 819,-269.5 853.453,-282.961 892.532,-300.988 915.541,-311.896"/>
<polygon fill="midnightblue" stroke="midnightblue" points="788.007,-254.465 777.413,-254.556 785.751,-261.092 788.007,-254.465"/>
</g>
<!-- Node561 -->
<g id="node36" class="node"><title>Node561</title>
<g id="a_node36"><a xlink:href="../../dc/ded/a00252.html#a08680eb3f85b0a37b7bd969de8b25904" target="_top" xlink:title="Inference between a component term (of the current term) and a statement. ">
<polygon fill="none" stroke="black" points="419.5,-672.5 419.5,-702.5 601.5,-702.5 601.5,-672.5 419.5,-672.5"/>
<text text-anchor="start" x="427.5" y="-690.5" font-family="Helvetica,sans-Serif" font-size="10.00">nars.inference.RuleTables.component</text>
<text text-anchor="middle" x="510.5" y="-679.5" font-family="Helvetica,sans-Serif" font-size="10.00">AndStatement</text>
</a>
</g>
</g>
<!-- Node560&#45;&gt;Node561 -->
<g id="edge52" class="edge"><title>Node560&#45;&gt;Node561</title>
<path fill="none" stroke="midnightblue" d="M367.309,-719.242C391.767,-713.782 418.587,-707.795 442.278,-702.506"/>
<polygon fill="midnightblue" stroke="midnightblue" points="366.346,-715.871 357.349,-721.465 367.871,-722.703 366.346,-715.871"/>
</g>
<!-- Node561&#45;&gt;Node530 -->
<g id="edge53" class="edge"><title>Node561&#45;&gt;Node530</title>
<path fill="none" stroke="midnightblue" d="M575.857,-669.387C643.35,-647.658 749.127,-605.533 819,-538.5 885.65,-474.56 922.766,-364.033 932.738,-331.055"/>
<polygon fill="midnightblue" stroke="midnightblue" points="574.665,-666.094 566.186,-672.446 576.776,-672.768 574.665,-666.094"/>
</g>
<!-- Node562&#45;&gt;Node561 -->
<g id="edge55" class="edge"><title>Node562&#45;&gt;Node561</title>
<path fill="none" stroke="midnightblue" d="M370.879,-687.5C386.64,-687.5 403.257,-687.5 419.298,-687.5"/>
<polygon fill="midnightblue" stroke="midnightblue" points="370.659,-684 360.659,-687.5 370.659,-691 370.659,-684"/>
</g>
<!-- Node563&#45;&gt;Node558 -->
<g id="edge57" class="edge"><title>Node563&#45;&gt;Node558</title>
<path fill="none" stroke="midnightblue" d="M387.026,-228.5C398.283,-228.5 409.722,-228.5 420.859,-228.5"/>
<polygon fill="midnightblue" stroke="midnightblue" points="386.752,-225 376.752,-228.5 386.752,-232 386.752,-225"/>
</g>
</g>
</svg>
        <g id="navigator" transform="translate(0 0)" fill="#404254">
                <rect fill="#f2f5e9" fill-opacity="0.5" stroke="#606060" stroke-width=".5" x="0" y="0" width="60" height="60"/>
                <use id="zoomplus" xlink:href="#zoomPlus" x="17" y="9" onmousedown="handleZoom(evt,'in')"/>
                <use id="zoomminus" xlink:href="#zoomMin" x="42" y="9" onmousedown="handleZoom(evt,'out')"/>
                <use id="reset" xlink:href="#resetDef" x="30" y="36" onmousedown="handleReset()"/>
                <g id="arrowUp" xlink:href="#dirArrow" transform="translate(30 24)" onmousedown="handlePan(0,-1)">
                  <use xlink:href="#rim" fill="#404040">
                        <set attributeName="fill" to="#808080" begin="arrowUp.mouseover" end="arrowUp.mouseout"/>
                  </use>
                  <path fill="none" stroke="white" stroke-width="1.5" d="M0,-3.0v7 M-2.5,-0.5L0,-3.0L2.5,-0.5"/>
                </g>
                <g id="arrowRight" xlink:href="#dirArrow" transform="rotate(90) translate(36 -43)" onmousedown="handlePan(1,0)">
                  <use xlink:href="#rim" fill="#404040">
                        <set attributeName="fill" to="#808080" begin="arrowRight.mouseover" end="arrowRight.mouseout"/>
                  </use>
                  <path fill="none" stroke="white" stroke-width="1.5" d="M0,-3.0v7 M-2.5,-0.5L0,-3.0L2.5,-0.5"/>
                </g>
                <g id="arrowDown" xlink:href="#dirArrow" transform="rotate(180) translate(-30 -48)" onmousedown="handlePan(0,1)">
                  <use xlink:href="#rim" fill="#404040">
                        <set attributeName="fill" to="#808080" begin="arrowDown.mouseover" end="arrowDown.mouseout"/>
                  </use>
                  <path fill="none" stroke="white" stroke-width="1.5" d="M0,-3.0v7 M-2.5,-0.5L0,-3.0L2.5,-0.5"/>
                </g>
                <g id="arrowLeft" xlink:href="#dirArrow" transform="rotate(270) translate(-36 17)" onmousedown="handlePan(-1,0)">
                  <use xlink:href="#rim" fill="#404040">
                        <set attributeName="fill" to="#808080" begin="arrowLeft.mouseover" end="arrowLeft.mouseout"/>
                  </use>
                  <path fill="none" stroke="white" stroke-width="1.5" d="M0,-3.0v7 M-2.5,-0.5L0,-3.0L2.5,-0.5"/>
                </g>
        </g>
        <svg viewBox="0 0 15 15" width="100%" height="30px" preserveAspectRatio="xMaxYMin meet">
         <g id="arrow_out" transform="scale(0.3 0.3)">
          <a xlink:href="a00212_a7d95d60caaf4c895559182a7eb2ff71e_icgraph_org.svg" target="_base">
           <rect id="button" ry="5" rx="5" y="6" x="6" height="38" width="38"
                fill="#f2f5e9" fill-opacity="0.5" stroke="#606060" stroke-width="1.0"/>
           <path id="arrow"
             d="M 11.500037,31.436501 C 11.940474,20.09759 22.043105,11.32322 32.158766,21.979434 L 37.068811,17.246167 C 37.068811,17.246167 37.088388,32 37.088388,32 L 22.160133,31.978069 C 22.160133,31.978069 26.997745,27.140456 26.997745,27.140456 C 18.528582,18.264221 13.291696,25.230495 11.500037,31.436501 z"
             style="fill:#404040;"/>
          </a>
         </g>
        </svg>
</svg>
