<?xml version="1.0" encoding="UTF-8" standalone="no"?>
<!DOCTYPE svg PUBLIC "-//W3C//DTD SVG 1.1//EN"
 "http://www.w3.org/Graphics/SVG/1.1/DTD/svg11.dtd">
<!-- Generated by graphviz version 2.38.0 (20140413.2041)
 -->
<!-- Title: nars.entity.Sentence.hashCode Pages: 1 -->
<svg width="737pt" height="388pt"
 viewBox="0.00 0.00 737.00 387.50" xmlns="http://www.w3.org/2000/svg" xmlns:xlink="http://www.w3.org/1999/xlink">
<g id="graph0" class="graph" transform="scale(1 1) rotate(0) translate(4 383.5)">
<title>nars.entity.Sentence.hashCode</title>
<!-- Node508 -->
<g id="node1" class="node"><title>Node508</title>
<polygon fill="#bfbfbf" stroke="black" points="0,-207.5 0,-226.5 154,-226.5 154,-207.5 0,-207.5"/>
<text text-anchor="middle" x="77" y="-214.5" font-family="Helvetica,sans-Serif" font-size="10.00">nars.entity.Sentence.hashCode</text>
</g>
<!-- Node509 -->
<g id="node2" class="node"><title>Node509</title>
<g id="a_node2"><a xlink:href="../../dd/dc1/a00212.html#ad1ded9a02cae3557948d05530cd4d37e" target="_top" xlink:title="The content of a Sentence is a Term. ">
<polygon fill="none" stroke="black" points="208.5,-349 208.5,-379 331.5,-379 331.5,-349 208.5,-349"/>
<text text-anchor="start" x="216.5" y="-367" font-family="Helvetica,sans-Serif" font-size="10.00">nars.entity.Sentence.get</text>
<text text-anchor="middle" x="270" y="-356" font-family="Helvetica,sans-Serif" font-size="10.00">Content</text>
</a>
</g>
</g>
<!-- Node508&#45;&gt;Node509 -->
<g id="edge1" class="edge"><title>Node508&#45;&gt;Node509</title>
<path fill="none" stroke="midnightblue" d="M84.041,-226.606C99.0529,-249.69 140.439,-308.681 190,-340 192.937,-341.856 196.025,-343.575 199.211,-345.167"/>
<polygon fill="midnightblue" stroke="midnightblue" points="197.845,-348.391 208.399,-349.326 200.732,-342.014 197.845,-348.391"/>
</g>
<!-- Node510 -->
<g id="node3" class="node"><title>Node510</title>
<g id="a_node3"><a xlink:href="../../dd/dc1/a00212.html#a68b153a51a5db6a4127b66158227697f" target="_top" xlink:title="The punctuation also indicates the type of the Sentence: Judgment, Question, or Goal. ">
<polygon fill="none" stroke="black" points="208.5,-300 208.5,-330 331.5,-330 331.5,-300 208.5,-300"/>
<text text-anchor="start" x="216.5" y="-318" font-family="Helvetica,sans-Serif" font-size="10.00">nars.entity.Sentence.get</text>
<text text-anchor="middle" x="270" y="-307" font-family="Helvetica,sans-Serif" font-size="10.00">Punctuation</text>
</a>
</g>
</g>
<!-- Node508&#45;&gt;Node510 -->
<g id="edge2" class="edge"><title>Node508&#45;&gt;Node510</title>
<path fill="none" stroke="midnightblue" d="M90.0623,-226.686C109.867,-242.181 150.981,-272.659 190,-291 194.05,-292.904 198.287,-294.7 202.605,-296.387"/>
<polygon fill="midnightblue" stroke="midnightblue" points="201.554,-299.729 212.147,-299.904 203.974,-293.161 201.554,-299.729"/>
</g>
<!-- Node511 -->
<g id="node4" class="node"><title>Node511</title>
<g id="a_node4"><a xlink:href="../../dd/dc1/a00212.html#ac0ed749c50e55120d5b63219ed7eb082" target="_top" xlink:title="Partial record of the derivation path. ">
<polygon fill="none" stroke="black" points="208.5,-251 208.5,-281 331.5,-281 331.5,-251 208.5,-251"/>
<text text-anchor="start" x="216.5" y="-269" font-family="Helvetica,sans-Serif" font-size="10.00">nars.entity.Sentence.get</text>
<text text-anchor="middle" x="270" y="-258" font-family="Helvetica,sans-Serif" font-size="10.00">Stamp</text>
</a>
</g>
</g>
<!-- Node508&#45;&gt;Node511 -->
<g id="edge3" class="edge"><title>Node508&#45;&gt;Node511</title>
<path fill="none" stroke="midnightblue" d="M115.28,-226.564C139.461,-232.768 171.696,-241.037 200.4,-248.401"/>
<polygon fill="midnightblue" stroke="midnightblue" points="199.83,-251.868 210.387,-250.963 201.57,-245.088 199.83,-251.868"/>
</g>
<!-- Node512 -->
<g id="node5" class="node"><title>Node512</title>
<g id="a_node5"><a xlink:href="../../dd/dc1/a00212.html#a9f69b4fef64c81abad21404946cd41f9" target="_top" xlink:title="The truth value of Judgment. ">
<polygon fill="none" stroke="black" points="208.5,-202 208.5,-232 331.5,-232 331.5,-202 208.5,-202"/>
<text text-anchor="start" x="216.5" y="-220" font-family="Helvetica,sans-Serif" font-size="10.00">nars.entity.Sentence.get</text>
<text text-anchor="middle" x="270" y="-209" font-family="Helvetica,sans-Serif" font-size="10.00">Truth</text>
</a>
</g>
</g>
<!-- Node508&#45;&gt;Node512 -->
<g id="edge4" class="edge"><title>Node508&#45;&gt;Node512</title>
<path fill="none" stroke="midnightblue" d="M154.037,-217C168.519,-217 183.625,-217 197.945,-217"/>
<polygon fill="midnightblue" stroke="midnightblue" points="198.213,-220.5 208.213,-217 198.213,-213.5 198.213,-220.5"/>
</g>
<!-- Node513 -->
<g id="node6" class="node"><title>Node513</title>
<g id="a_node6"><a xlink:href="../../dc/d59/a00364.html#a932a75d46661c14589d7c924dd03de7b" target="_top" xlink:title="Produce a hash code for the term. ">
<polygon fill="none" stroke="black" points="195,-163.5 195,-182.5 345,-182.5 345,-163.5 195,-163.5"/>
<text text-anchor="middle" x="270" y="-170.5" font-family="Helvetica,sans-Serif" font-size="10.00">nars.language.Term.hashCode</text>
</a>
</g>
</g>
<!-- Node508&#45;&gt;Node513 -->
<g id="edge5" class="edge"><title>Node508&#45;&gt;Node513</title>
<path fill="none" stroke="midnightblue" d="M119.444,-207.453C148.227,-200.822 186.779,-191.941 217.532,-184.857"/>
<polygon fill="midnightblue" stroke="midnightblue" points="218.678,-188.184 227.637,-182.529 217.106,-181.363 218.678,-188.184"/>
</g>
<!-- Node514 -->
<g id="node7" class="node"><title>Node514</title>
<g id="a_node7"><a xlink:href="../../d7/d40/a00236.html#a8a6a2fc1c28f3294d243dce4d3c3e968" target="_top" xlink:title="The hash code of a TruthValue. ">
<polygon fill="none" stroke="black" points="190,-125.5 190,-144.5 350,-144.5 350,-125.5 190,-125.5"/>
<text text-anchor="middle" x="270" y="-132.5" font-family="Helvetica,sans-Serif" font-size="10.00">nars.entity.TruthValue.hashCode</text>
</a>
</g>
</g>
<!-- Node508&#45;&gt;Node514 -->
<g id="edge6" class="edge"><title>Node508&#45;&gt;Node514</title>
<path fill="none" stroke="midnightblue" d="M92.2139,-207.292C112.882,-193.582 152.829,-168.597 190,-154 196.352,-151.506 203.124,-149.275 209.931,-147.299"/>
<polygon fill="midnightblue" stroke="midnightblue" points="211.158,-150.592 219.883,-144.583 209.315,-143.839 211.158,-150.592"/>
</g>
<!-- Node518 -->
<g id="node11" class="node"><title>Node518</title>
<g id="a_node11"><a xlink:href="../../d6/d43/a00216.html#ab52baff17f87c3737f0bc0216f66ac3f" target="_top" xlink:title="The hash code of Stamp. ">
<polygon fill="none" stroke="black" points="199.5,-75.5 199.5,-94.5 340.5,-94.5 340.5,-75.5 199.5,-75.5"/>
<text text-anchor="middle" x="270" y="-82.5" font-family="Helvetica,sans-Serif" font-size="10.00">nars.entity.Stamp.hashCode</text>
</a>
</g>
</g>
<!-- Node508&#45;&gt;Node518 -->
<g id="edge10" class="edge"><title>Node508&#45;&gt;Node518</title>
<path fill="none" stroke="midnightblue" d="M86.3804,-207.405C103.888,-187.857 146.354,-142.993 190,-116 201.47,-108.907 214.836,-102.923 227.278,-98.1617"/>
<polygon fill="midnightblue" stroke="midnightblue" points="228.812,-101.328 237.003,-94.6078 226.409,-94.7528 228.812,-101.328"/>
</g>
<!-- Node515 -->
<g id="node8" class="node"><title>Node515</title>
<g id="a_node8"><a xlink:href="../../d7/d40/a00236.html#aa5ffcde3ae611b087ba7fdd4cd67b216" target="_top" xlink:title="Calculate the expectation value of the truth value. ">
<polygon fill="none" stroke="black" points="387,-127 387,-157 516,-157 516,-127 387,-127"/>
<text text-anchor="start" x="395" y="-145" font-family="Helvetica,sans-Serif" font-size="10.00">nars.entity.TruthValue.get</text>
<text text-anchor="middle" x="451.5" y="-134" font-family="Helvetica,sans-Serif" font-size="10.00">Expectation</text>
</a>
</g>
</g>
<!-- Node514&#45;&gt;Node515 -->
<g id="edge7" class="edge"><title>Node514&#45;&gt;Node515</title>
<path fill="none" stroke="midnightblue" d="M350.254,-138.091C359.029,-138.433 367.94,-138.78 376.645,-139.12"/>
<polygon fill="midnightblue" stroke="midnightblue" points="376.62,-142.621 386.749,-139.514 376.893,-135.627 376.62,-142.621"/>
</g>
<!-- Node516 -->
<g id="node9" class="node"><title>Node516</title>
<g id="a_node9"><a xlink:href="../../d7/d40/a00236.html#a68ca7d92e9ea20d2a9a9f578ad7b681c" target="_top" xlink:title="The confidence factor of the truth value. ">
<polygon fill="none" stroke="black" points="576.5,-176 576.5,-206 705.5,-206 705.5,-176 576.5,-176"/>
<text text-anchor="start" x="584.5" y="-194" font-family="Helvetica,sans-Serif" font-size="10.00">nars.entity.TruthValue.get</text>
<text text-anchor="middle" x="641" y="-183" font-family="Helvetica,sans-Serif" font-size="10.00">Confidence</text>
</a>
</g>
</g>
<!-- Node515&#45;&gt;Node516 -->
<g id="edge8" class="edge"><title>Node515&#45;&gt;Node516</title>
<path fill="none" stroke="midnightblue" d="M510.03,-157.035C529.828,-162.208 552.172,-168.048 572.678,-173.407"/>
<polygon fill="midnightblue" stroke="midnightblue" points="572.018,-176.852 582.578,-175.994 573.788,-170.079 572.018,-176.852"/>
</g>
<!-- Node517 -->
<g id="node10" class="node"><title>Node517</title>
<g id="a_node10"><a xlink:href="../../d7/d40/a00236.html#a9eac33f2495441c77911a8581a5bbe61" target="_top" xlink:title="Get the frequency value. ">
<polygon fill="none" stroke="black" points="576.5,-127 576.5,-157 705.5,-157 705.5,-127 576.5,-127"/>
<text text-anchor="start" x="584.5" y="-145" font-family="Helvetica,sans-Serif" font-size="10.00">nars.entity.TruthValue.get</text>
<text text-anchor="middle" x="641" y="-134" font-family="Helvetica,sans-Serif" font-size="10.00">Frequency</text>
</a>
</g>
</g>
<!-- Node515&#45;&gt;Node517 -->
<g id="edge9" class="edge"><title>Node515&#45;&gt;Node517</title>
<path fill="none" stroke="midnightblue" d="M516.241,-142C532.33,-142 549.737,-142 566.272,-142"/>
<polygon fill="midnightblue" stroke="midnightblue" points="566.436,-145.5 576.436,-142 566.436,-138.5 566.436,-145.5"/>
</g>
<!-- Node519 -->
<g id="node12" class="node"><title>Node519</title>
<g id="a_node12"><a xlink:href="../../d6/d43/a00216.html#ad1aee19cfc0bb8ca9232bad251f74ffc" target="_top" xlink:title="Get a String form of the Stamp for display Format: {creationTime [: eventTime] : evidentialBase}. ">
<polygon fill="none" stroke="black" points="386,-50.5 386,-69.5 517,-69.5 517,-50.5 386,-50.5"/>
<text text-anchor="middle" x="451.5" y="-57.5" font-family="Helvetica,sans-Serif" font-size="10.00">nars.entity.Stamp.toString</text>
</a>
</g>
</g>
<!-- Node518&#45;&gt;Node519 -->
<g id="edge11" class="edge"><title>Node518&#45;&gt;Node519</title>
<path fill="none" stroke="midnightblue" d="M339.373,-75.4773C351.293,-73.8171 363.747,-72.0825 375.827,-70.4002"/>
<polygon fill="midnightblue" stroke="midnightblue" points="376.443,-73.8482 385.865,-69.0021 375.478,-66.9151 376.443,-73.8482"/>
</g>
<!-- Node520 -->
<g id="node13" class="node"><title>Node520</title>
<g id="a_node13"><a xlink:href="../../d6/d43/a00216.html#acb0b161e2d2fb0cbfb33b44ec2a29075" target="_top" xlink:title="creation time of the stamp ">
<polygon fill="none" stroke="black" points="556.5,-88.5 556.5,-107.5 725.5,-107.5 725.5,-88.5 556.5,-88.5"/>
<text text-anchor="middle" x="641" y="-95.5" font-family="Helvetica,sans-Serif" font-size="10.00">nars.entity.Stamp.getCreationTime</text>
</a>
</g>
</g>
<!-- Node519&#45;&gt;Node520 -->
<g id="edge12" class="edge"><title>Node519&#45;&gt;Node520</title>
<path fill="none" stroke="midnightblue" d="M499.814,-69.589C525.114,-74.7165 556.45,-81.0672 583.075,-86.4632"/>
<polygon fill="midnightblue" stroke="midnightblue" points="582.53,-89.9238 593.026,-88.4799 583.921,-83.0633 582.53,-89.9238"/>
</g>
<!-- Node521 -->
<g id="node14" class="node"><title>Node521</title>
<g id="a_node14"><a xlink:href="../../d6/d43/a00216.html#ab6efde6c34037b63fc165d1bf95277a2" target="_top" xlink:title="evidentialBase baseLength ">
<polygon fill="none" stroke="black" points="574.5,-39 574.5,-69 707.5,-69 707.5,-39 574.5,-39"/>
<text text-anchor="start" x="582.5" y="-57" font-family="Helvetica,sans-Serif" font-size="10.00">nars.entity.Stamp.getBase</text>
<text text-anchor="middle" x="641" y="-46" font-family="Helvetica,sans-Serif" font-size="10.00">Length</text>
</a>
</g>
</g>
<!-- Node519&#45;&gt;Node521 -->
<g id="edge13" class="edge"><title>Node519&#45;&gt;Node521</title>
<path fill="none" stroke="midnightblue" d="M517.027,-57.9351C532.234,-57.4485 548.581,-56.9254 564.233,-56.4246"/>
<polygon fill="midnightblue" stroke="midnightblue" points="564.516,-59.9174 574.399,-56.0992 564.292,-52.921 564.516,-59.9174"/>
</g>
<!-- Node522 -->
<g id="node15" class="node"><title>Node522</title>
<g id="a_node15"><a xlink:href="../../d6/d43/a00216.html#ac84c7f26ab8e0740bab4335f33396e2c" target="_top" xlink:title="serial numbers ">
<polygon fill="none" stroke="black" points="553,-0.5 553,-19.5 729,-19.5 729,-0.5 553,-0.5"/>
<text text-anchor="middle" x="641" y="-7.5" font-family="Helvetica,sans-Serif" font-size="10.00">nars.entity.Stamp.getEvidentialBase</text>
</a>
</g>
</g>
<!-- Node519&#45;&gt;Node522 -->
<g id="edge14" class="edge"><title>Node519&#45;&gt;Node522</title>
<path fill="none" stroke="midnightblue" d="M481.341,-50.3967C501.33,-43.915 528.631,-35.4073 553,-29 562.644,-26.4643 572.951,-24.0003 582.975,-21.7327"/>
<polygon fill="midnightblue" stroke="midnightblue" points="583.866,-25.1202 592.869,-19.5353 582.348,-18.2867 583.866,-25.1202"/>
</g>
</g>
</svg>
