<?xml version="1.0" encoding="UTF-8" standalone="no"?>
<!DOCTYPE svg PUBLIC "-//W3C//DTD SVG 1.1//EN"
 "http://www.w3.org/Graphics/SVG/1.1/DTD/svg11.dtd">
<!-- Generated by graphviz version 2.38.0 (20140413.2041)
 -->
<!-- Title: nars.entity.Sentence.setStamp Pages: 1 -->
<svg width="2587pt" height="116pt"
 viewBox="0.00 0.00 2587.00 115.50" xmlns="http://www.w3.org/2000/svg" xmlns:xlink="http://www.w3.org/1999/xlink">
<g id="graph0" class="graph" transform="scale(1 1) rotate(0) translate(4 111.5)">
<title>nars.entity.Sentence.setStamp</title>
<!-- Node695 -->
<g id="node1" class="node"><title>Node695</title>
<polygon fill="#bfbfbf" stroke="black" points="0,-14 0,-44 123,-44 123,-14 0,-14"/>
<text text-anchor="start" x="8" y="-32" font-family="Helvetica,sans-Serif" font-size="10.00">nars.entity.Sentence.set</text>
<text text-anchor="middle" x="61.5" y="-21" font-family="Helvetica,sans-Serif" font-size="10.00">Stamp</text>
</g>
<!-- Node696 -->
<g id="node2" class="node"><title>Node696</title>
<g id="a_node2"><a xlink:href="../../dd/dc1/a00212.html#a425abbc0f0805ef792317b13b17c6219" target="_top" xlink:title="Create a Sentence with the given fields. ">
<polygon fill="none" stroke="black" points="159,-19.5 159,-38.5 310,-38.5 310,-19.5 159,-19.5"/>
<text text-anchor="middle" x="234.5" y="-26.5" font-family="Helvetica,sans-Serif" font-size="10.00">nars.entity.Sentence.Sentence</text>
</a>
</g>
</g>
<!-- Node695&#45;&gt;Node696 -->
<g id="edge1" class="edge"><title>Node695&#45;&gt;Node696</title>
<path fill="none" stroke="midnightblue" d="M133.401,-29C141.804,-29 150.401,-29 158.854,-29"/>
<polygon fill="midnightblue" stroke="midnightblue" points="133.27,-25.5001 123.27,-29 133.27,-32.5001 133.27,-25.5001"/>
</g>
<!-- Node697 -->
<g id="node3" class="node"><title>Node697</title>
<g id="a_node3"><a xlink:href="../../dd/dc1/a00212.html#a721f626ab83f34dc2e6858a4eede7102" target="_top" xlink:title="Clone the Sentence. ">
<polygon fill="none" stroke="black" points="348.5,-38.5 348.5,-57.5 481.5,-57.5 481.5,-38.5 348.5,-38.5"/>
<text text-anchor="middle" x="415" y="-45.5" font-family="Helvetica,sans-Serif" font-size="10.00">nars.entity.Sentence.clone</text>
</a>
</g>
</g>
<!-- Node696&#45;&gt;Node697 -->
<g id="edge2" class="edge"><title>Node696&#45;&gt;Node697</title>
<path fill="none" stroke="midnightblue" d="M320.357,-38.0324C329.791,-39.0365 339.29,-40.0477 348.432,-41.0208"/>
<polygon fill="midnightblue" stroke="midnightblue" points="320.48,-34.5258 310.166,-36.9476 319.739,-41.4865 320.48,-34.5258"/>
</g>
<!-- Node711 -->
<g id="node17" class="node"><title>Node711</title>
<g id="a_node17"><a xlink:href="../../dd/dc1/a00212.html#a6b64cf9f10e578e4831092ab31dcd5d9" target="_top" xlink:title="To check whether two sentences are equal. ">
<polygon fill="none" stroke="black" points="346,-0.5 346,-19.5 484,-19.5 484,-0.5 346,-0.5"/>
<text text-anchor="middle" x="415" y="-7.5" font-family="Helvetica,sans-Serif" font-size="10.00">nars.entity.Sentence.equals</text>
</a>
</g>
</g>
<!-- Node696&#45;&gt;Node711 -->
<g id="edge18" class="edge"><title>Node696&#45;&gt;Node711</title>
<path fill="none" stroke="midnightblue" d="M320.225,-19.9816C328.833,-19.0654 337.497,-18.1432 345.896,-17.2492"/>
<polygon fill="midnightblue" stroke="midnightblue" points="319.739,-16.5135 310.166,-21.0524 320.48,-23.4742 319.739,-16.5135"/>
</g>
<!-- Node698 -->
<g id="node4" class="node"><title>Node698</title>
<g id="a_node4"><a xlink:href="../../dc/ded/a00252.html#af6c973743270b2739d4ad25f16975da1" target="_top" xlink:title="The detachment rule, with variable unification. ">
<polygon fill="none" stroke="black" points="520,-77 520,-107 705,-107 705,-77 520,-77"/>
<text text-anchor="start" x="528" y="-95" font-family="Helvetica,sans-Serif" font-size="10.00">nars.inference.RuleTables.detachment</text>
<text text-anchor="middle" x="612.5" y="-84" font-family="Helvetica,sans-Serif" font-size="10.00">WithVar</text>
</a>
</g>
</g>
<!-- Node697&#45;&gt;Node698 -->
<g id="edge3" class="edge"><title>Node697&#45;&gt;Node698</title>
<path fill="none" stroke="midnightblue" d="M468.488,-59.8132C491.876,-65.0769 519.7,-71.3391 544.562,-76.9346"/>
<polygon fill="midnightblue" stroke="midnightblue" points="468.945,-56.3285 458.421,-57.5473 467.408,-63.1577 468.945,-56.3285"/>
</g>
<!-- Node709 -->
<g id="node15" class="node"><title>Node709</title>
<g id="a_node15"><a xlink:href="../../d7/ded/a00196.html#a37e00599fc19c5931da40bd446890f89" target="_top" xlink:title="Select a isBelief to interact with the given task in inference. ">
<polygon fill="none" stroke="black" points="759.5,-38.5 759.5,-57.5 902.5,-57.5 902.5,-38.5 759.5,-38.5"/>
<text text-anchor="middle" x="831" y="-45.5" font-family="Helvetica,sans-Serif" font-size="10.00">nars.entity.Concept.getBelief</text>
</a>
</g>
</g>
<!-- Node697&#45;&gt;Node709 -->
<g id="edge14" class="edge"><title>Node697&#45;&gt;Node709</title>
<path fill="none" stroke="midnightblue" d="M491.617,-48C567.869,-48 684.661,-48 759.162,-48"/>
<polygon fill="midnightblue" stroke="midnightblue" points="491.6,-44.5001 481.6,-48 491.599,-51.5001 491.6,-44.5001"/>
</g>
<!-- Node710 -->
<g id="node16" class="node"><title>Node710</title>
<g id="a_node16"><a xlink:href="../../dd/dd7/a00248.html#aac1c92950f50edd04d12229a8c992987" target="_top" xlink:title="The task and belief have the same content. ">
<polygon fill="none" stroke="black" points="532.5,-0.5 532.5,-19.5 692.5,-19.5 692.5,-0.5 532.5,-0.5"/>
<text text-anchor="middle" x="612.5" y="-7.5" font-family="Helvetica,sans-Serif" font-size="10.00">nars.inference.LocalRules.match</text>
</a>
</g>
</g>
<!-- Node697&#45;&gt;Node710 -->
<g id="edge16" class="edge"><title>Node697&#45;&gt;Node710</title>
<path fill="none" stroke="midnightblue" d="M475.11,-36.5106C503.004,-31.0886 535.902,-24.6942 562.399,-19.5439"/>
<polygon fill="midnightblue" stroke="midnightblue" points="474.229,-33.1162 465.081,-38.46 475.565,-39.9876 474.229,-33.1162"/>
</g>
<!-- Node699 -->
<g id="node5" class="node"><title>Node699</title>
<g id="a_node5"><a xlink:href="../../dc/ded/a00252.html#a8628d400a8ceda7fea05039ddfea319b" target="_top" xlink:title="Meta&#45;table of syllogistic rules, indexed by the content classes of the taskSentence and the belief...">
<polygon fill="none" stroke="black" points="741,-79.5 741,-98.5 921,-98.5 921,-79.5 741,-79.5"/>
<text text-anchor="middle" x="831" y="-86.5" font-family="Helvetica,sans-Serif" font-size="10.00">nars.inference.RuleTables.syllogisms</text>
</a>
</g>
</g>
<!-- Node698&#45;&gt;Node699 -->
<g id="edge4" class="edge"><title>Node698&#45;&gt;Node699</title>
<path fill="none" stroke="midnightblue" d="M715.084,-90.5924C723.705,-90.4729 732.383,-90.3527 740.898,-90.2347"/>
<polygon fill="midnightblue" stroke="midnightblue" points="714.952,-87.0938 705.002,-90.7321 715.049,-94.0931 714.952,-87.0938"/>
</g>
<!-- Node700 -->
<g id="node6" class="node"><title>Node700</title>
<g id="a_node6"><a xlink:href="../../dc/ded/a00252.html#ac2d01dfdc40bdd47c757cb549217e6e3" target="_top" xlink:title="Entry point of the inference engine. ">
<polygon fill="none" stroke="black" points="957,-38.5 957,-57.5 1120,-57.5 1120,-38.5 957,-38.5"/>
<text text-anchor="middle" x="1038.5" y="-45.5" font-family="Helvetica,sans-Serif" font-size="10.00">nars.inference.RuleTables.reason</text>
</a>
</g>
</g>
<!-- Node699&#45;&gt;Node700 -->
<g id="edge5" class="edge"><title>Node699&#45;&gt;Node700</title>
<path fill="none" stroke="midnightblue" d="M889.643,-77.4994C921.213,-71.2007 959.872,-63.4879 989.741,-57.5286"/>
<polygon fill="midnightblue" stroke="midnightblue" points="888.784,-74.1017 879.662,-79.4907 890.154,-80.9664 888.784,-74.1017"/>
</g>
<!-- Node701 -->
<g id="node7" class="node"><title>Node701</title>
<g id="a_node7"><a xlink:href="../../d7/ded/a00196.html#ad6fb91dda799c3092ecb186ef24ca92a" target="_top" xlink:title="An atomic step in a concept, only called in Memory# processConcept. ">
<polygon fill="none" stroke="black" points="1156,-33 1156,-63 1275,-63 1275,-33 1156,-33"/>
<text text-anchor="start" x="1164" y="-51" font-family="Helvetica,sans-Serif" font-size="10.00">nars.entity.Concept.fire</text>
<text text-anchor="middle" x="1215.5" y="-40" font-family="Helvetica,sans-Serif" font-size="10.00">FromProcessConcept</text>
</a>
</g>
</g>
<!-- Node700&#45;&gt;Node701 -->
<g id="edge6" class="edge"><title>Node700&#45;&gt;Node701</title>
<path fill="none" stroke="midnightblue" d="M1130.25,-48C1138.91,-48 1147.52,-48 1155.76,-48"/>
<polygon fill="midnightblue" stroke="midnightblue" points="1130.09,-44.5001 1120.09,-48 1130.08,-51.5001 1130.09,-44.5001"/>
</g>
<!-- Node702 -->
<g id="node8" class="node"><title>Node702</title>
<g id="a_node8"><a xlink:href="../../d4/d27/a00392.html#a0acc4adbf6a2462245da46bcb529746c" target="_top" xlink:title="Select a concept to fireFromProcessConcept. ">
<polygon fill="none" stroke="black" points="1311,-33 1311,-63 1457,-63 1457,-33 1311,-33"/>
<text text-anchor="start" x="1319" y="-51" font-family="Helvetica,sans-Serif" font-size="10.00">nars.storage.Memory.process</text>
<text text-anchor="middle" x="1384" y="-40" font-family="Helvetica,sans-Serif" font-size="10.00">Concept</text>
</a>
</g>
</g>
<!-- Node701&#45;&gt;Node702 -->
<g id="edge7" class="edge"><title>Node701&#45;&gt;Node702</title>
<path fill="none" stroke="midnightblue" d="M1285.34,-48C1293.75,-48 1302.36,-48 1310.82,-48"/>
<polygon fill="midnightblue" stroke="midnightblue" points="1285.2,-44.5001 1275.2,-48 1285.2,-51.5001 1285.2,-44.5001"/>
</g>
<!-- Node703 -->
<g id="node9" class="node"><title>Node703</title>
<g id="a_node9"><a xlink:href="../../d4/d27/a00392.html#a59ae339d666409988d90d29be4f73a91" target="_top" xlink:title="An atomic working workCycle of the system: process new Tasks, then fireFromProcessConcept a concept...">
<polygon fill="none" stroke="black" points="1493,-33 1493,-63 1626,-63 1626,-33 1493,-33"/>
<text text-anchor="start" x="1501" y="-51" font-family="Helvetica,sans-Serif" font-size="10.00">nars.storage.Memory.work</text>
<text text-anchor="middle" x="1559.5" y="-40" font-family="Helvetica,sans-Serif" font-size="10.00">Cycle</text>
</a>
</g>
</g>
<!-- Node702&#45;&gt;Node703 -->
<g id="edge8" class="edge"><title>Node702&#45;&gt;Node703</title>
<path fill="none" stroke="midnightblue" d="M1467.12,-48C1475.72,-48 1484.37,-48 1492.76,-48"/>
<polygon fill="midnightblue" stroke="midnightblue" points="1467.07,-44.5001 1457.07,-48 1467.07,-51.5001 1467.07,-44.5001"/>
</g>
<!-- Node704 -->
<g id="node10" class="node"><title>Node704</title>
<g id="a_node10"><a xlink:href="../../df/d15/a00416.html#a0d5c797dc17d9e8d0998852915e0f303" target="_top" xlink:title="nars.storage.ReasonerBatch.doTick">
<polygon fill="none" stroke="black" points="1662,-38.5 1662,-57.5 1835,-57.5 1835,-38.5 1662,-38.5"/>
<text text-anchor="middle" x="1748.5" y="-45.5" font-family="Helvetica,sans-Serif" font-size="10.00">nars.storage.ReasonerBatch.doTick</text>
</a>
</g>
</g>
<!-- Node703&#45;&gt;Node704 -->
<g id="edge9" class="edge"><title>Node703&#45;&gt;Node704</title>
<path fill="none" stroke="midnightblue" d="M1636.34,-48C1644.78,-48 1653.42,-48 1661.97,-48"/>
<polygon fill="midnightblue" stroke="midnightblue" points="1636.17,-44.5001 1626.17,-48 1636.17,-51.5001 1636.17,-44.5001"/>
</g>
<!-- Node705 -->
<g id="node11" class="node"><title>Node705</title>
<g id="a_node11"><a xlink:href="../../df/d15/a00416.html#a3468aa0f99edcd66412f27922dddb880" target="_top" xlink:title="A clock tick. ">
<polygon fill="none" stroke="black" points="1871,-38.5 1871,-57.5 2031,-57.5 2031,-38.5 1871,-38.5"/>
<text text-anchor="middle" x="1951" y="-45.5" font-family="Helvetica,sans-Serif" font-size="10.00">nars.storage.ReasonerBatch.tick</text>
</a>
</g>
</g>
<!-- Node704&#45;&gt;Node705 -->
<g id="edge10" class="edge"><title>Node704&#45;&gt;Node705</title>
<path fill="none" stroke="midnightblue" d="M1845.13,-48C1853.7,-48 1862.31,-48 1870.71,-48"/>
<polygon fill="midnightblue" stroke="midnightblue" points="1845.11,-44.5001 1835.11,-48 1845.11,-51.5001 1845.11,-44.5001"/>
</g>
<!-- Node706 -->
<g id="node12" class="node"><title>Node706</title>
<g id="a_node12"><a xlink:href="../../d9/da1/a00396.html#a5d9cfe517bcfbe41e5251910bcd119c1" target="_top" xlink:title="Run to completion: repeatedly execute NARS working cycle, until Inputs are Finished, or 1000 steps. ">
<polygon fill="none" stroke="black" points="2067,-38.5 2067,-57.5 2211,-57.5 2211,-38.5 2067,-38.5"/>
<text text-anchor="middle" x="2139" y="-45.5" font-family="Helvetica,sans-Serif" font-size="10.00">nars.storage.NARSBatch.run</text>
</a>
</g>
</g>
<!-- Node705&#45;&gt;Node706 -->
<g id="edge11" class="edge"><title>Node705&#45;&gt;Node706</title>
<path fill="none" stroke="midnightblue" d="M2041.22,-48C2049.82,-48 2058.47,-48 2066.87,-48"/>
<polygon fill="midnightblue" stroke="midnightblue" points="2041.15,-44.5001 2031.15,-48 2041.15,-51.5001 2041.15,-44.5001"/>
</g>
<!-- Node707 -->
<g id="node13" class="node"><title>Node707</title>
<g id="a_node13"><a xlink:href="../../d9/da1/a00396.html#a7c307c6b842f82664de6b0e52bdf8efc" target="_top" xlink:title="non&#45;static equivalent to main(String[]) : run to completion from an input file ">
<polygon fill="none" stroke="black" points="2247,-33 2247,-63 2391,-63 2391,-33 2247,-33"/>
<text text-anchor="start" x="2255" y="-51" font-family="Helvetica,sans-Serif" font-size="10.00">nars.storage.NARSBatch.run</text>
<text text-anchor="middle" x="2319" y="-40" font-family="Helvetica,sans-Serif" font-size="10.00">Inference</text>
</a>
</g>
</g>
<!-- Node706&#45;&gt;Node707 -->
<g id="edge12" class="edge"><title>Node706&#45;&gt;Node707</title>
<path fill="none" stroke="midnightblue" d="M2221.17,-48C2229.79,-48 2238.51,-48 2247,-48"/>
<polygon fill="midnightblue" stroke="midnightblue" points="2221.12,-44.5001 2211.12,-48 2221.12,-51.5001 2221.12,-44.5001"/>
</g>
<!-- Node708 -->
<g id="node14" class="node"><title>Node708</title>
<g id="a_node14"><a xlink:href="../../d9/da1/a00396.html#abafc597289bc2f6453b5cd0dd6634e54" target="_top" xlink:title="The entry point of the standalone application. ">
<polygon fill="none" stroke="black" points="2427,-38.5 2427,-57.5 2579,-57.5 2579,-38.5 2427,-38.5"/>
<text text-anchor="middle" x="2503" y="-45.5" font-family="Helvetica,sans-Serif" font-size="10.00">nars.storage.NARSBatch.main</text>
</a>
</g>
</g>
<!-- Node707&#45;&gt;Node708 -->
<g id="edge13" class="edge"><title>Node707&#45;&gt;Node708</title>
<path fill="none" stroke="midnightblue" d="M2401.17,-48C2409.76,-48 2418.48,-48 2427,-48"/>
<polygon fill="midnightblue" stroke="midnightblue" points="2401.15,-44.5001 2391.15,-48 2401.15,-51.5001 2401.15,-44.5001"/>
</g>
<!-- Node709&#45;&gt;Node700 -->
<g id="edge15" class="edge"><title>Node709&#45;&gt;Node700</title>
<path fill="none" stroke="midnightblue" d="M913.065,-48C927.437,-48 942.402,-48 956.765,-48"/>
<polygon fill="midnightblue" stroke="midnightblue" points="912.721,-44.5001 902.721,-48 912.721,-51.5001 912.721,-44.5001"/>
</g>
<!-- Node710&#45;&gt;Node700 -->
<g id="edge17" class="edge"><title>Node710&#45;&gt;Node700</title>
<path fill="none" stroke="midnightblue" d="M702.746,-13.1556C764.232,-15.9069 847.739,-20.7834 921,-29 942.383,-31.3983 965.824,-35.0255 986.038,-38.4702"/>
<polygon fill="midnightblue" stroke="midnightblue" points="702.831,-9.65607 692.688,-12.7157 702.525,-16.6494 702.831,-9.65607"/>
</g>
</g>
</svg>
