<?xml version="1.0" encoding="UTF-8" standalone="no"?>
<!DOCTYPE svg PUBLIC "-//W3C//DTD SVG 1.1//EN"
 "http://www.w3.org/Graphics/SVG/1.1/DTD/svg11.dtd">
<!-- Generated by graphviz version 2.38.0 (20140413.2041)
 -->
<!-- Title: nars.entity.Sentence.equivalentTo Pages: 1 -->
<!--zoomable 359 -->
<svg id="main" version="1.1" xmlns="http://www.w3.org/2000/svg" xmlns:xlink="http://www.w3.org/1999/xlink" xml:space="preserve" onload="init(evt)">
<style type="text/css"><![CDATA[
.edge:hover path { stroke: red; }
.edge:hover polygon { stroke: red; fill: red; }
]]></style>
<script type="text/javascript"><![CDATA[
var edges = document.getElementsByTagName('g');
if (edges && edges.length) {
  for (var i=0;i<edges.length;i++) {
    if (edges[i].id.substr(0,4)=='edge') {
      edges[i].setAttribute('class','edge');
    }
  }
}
]]></script>
        <defs>
                <circle id="rim" cx="0" cy="0" r="7"/>
                <circle id="rim2" cx="0" cy="0" r="3.5"/>
                <g id="zoomPlus">
                        <use xlink:href="#rim" fill="#404040">
                                <set attributeName="fill" to="#808080" begin="zoomplus.mouseover" end="zoomplus.mouseout"/>
                        </use>
                        <path d="M-4,0h8M0,-4v8" fill="none" stroke="white" stroke-width="1.5" pointer-events="none"/>
                </g>
                <g id="zoomMin">
                        <use xlink:href="#rim" fill="#404040">
                                <set attributeName="fill" to="#808080" begin="zoomminus.mouseover" end="zoomminus.mouseout"/>
                        </use>
                        <path d="M-4,0h8" fill="none" stroke="white" stroke-width="1.5" pointer-events="none"/>
                </g>
                <g id="dirArrow">
                        <path fill="none" stroke="white" stroke-width="1.5" d="M0,-3.0v7 M-2.5,-0.5L0,-3.0L2.5,-0.5"/>
                </g>
               <g id="resetDef">
                       <use xlink:href="#rim2" fill="#404040">
                               <set attributeName="fill" to="#808080" begin="reset.mouseover" end="reset.mouseout"/>
                       </use>
               </g>
        </defs>

<script type="text/javascript">
var viewWidth = 747;
var viewHeight = 359;
var sectionId = 'dynsection-13';
</script>
<script xlink:href="../../svgpan.js"/>
<svg id="graph" class="graph">
<g id="viewport">
<title>nars.entity.Sentence.equivalentTo</title>
<!-- Node132 -->
<g id="node1" class="node"><title>Node132</title>
<polygon fill="#bfbfbf" stroke="black" points="0,-153 0,-172 165,-172 165,-153 0,-153"/>
<text text-anchor="middle" x="82.5" y="-160" font-family="Helvetica,sans-Serif" font-size="10.00">nars.entity.Sentence.equivalentTo</text>
</g>
<!-- Node133 -->
<g id="node2" class="node"><title>Node133</title>
<g id="a_node2"><a xlink:href="../../dc/d59/a00364.html#ad85f45a7858737445d5158801774ff5f" target="_top" xlink:title="Equal terms have identical name, though not necessarily the same reference. ">
<polygon fill="none" stroke="black" points="206,-303 206,-322 340,-322 340,-303 206,-303"/>
<text text-anchor="middle" x="273" y="-310" font-family="Helvetica,sans-Serif" font-size="10.00">nars.language.Term.equals</text>
</a>
</g>
</g>
<!-- Node132&#45;&gt;Node133 -->
<g id="edge1" class="edge"><title>Node132&#45;&gt;Node133</title>
<path fill="none" stroke="midnightblue" d="M93.4326,-172.22C113.139,-191.289 158.918,-234.528 201,-266.5 215.774,-277.724 233.256,-289.073 247.176,-297.689"/>
<polygon fill="midnightblue" stroke="midnightblue" points="245.388,-300.698 255.745,-302.928 249.039,-294.726 245.388,-300.698"/>
</g>
<!-- Node135 -->
<g id="node4" class="node"><title>Node135</title>
<g id="a_node4"><a xlink:href="../../d7/d40/a00236.html#a6c90107ab2c878d9527d4330f08ecac8" target="_top" xlink:title="Compare two truth values. ">
<polygon fill="none" stroke="black" points="201,-238 201,-257 345,-257 345,-238 201,-238"/>
<text text-anchor="middle" x="273" y="-245" font-family="Helvetica,sans-Serif" font-size="10.00">nars.entity.TruthValue.equals</text>
</a>
</g>
</g>
<!-- Node132&#45;&gt;Node135 -->
<g id="edge3" class="edge"><title>Node132&#45;&gt;Node135</title>
<path fill="none" stroke="midnightblue" d="M98.9919,-172.052C121.033,-185.35 162.993,-209.595 201,-225.5 209.217,-228.938 218.164,-232.122 226.851,-234.938"/>
<polygon fill="midnightblue" stroke="midnightblue" points="225.906,-238.31 236.495,-237.956 227.996,-231.629 225.906,-238.31"/>
</g>
<!-- Node138 -->
<g id="node7" class="node"><title>Node138</title>
<g id="a_node7"><a xlink:href="../../d6/d43/a00216.html#adb33cdf9f13e1a919f7220cb622e7446" target="_top" xlink:title="Check if two stamps contains the same content. ">
<polygon fill="none" stroke="black" points="210.5,-197 210.5,-216 335.5,-216 335.5,-197 210.5,-197"/>
<text text-anchor="middle" x="273" y="-204" font-family="Helvetica,sans-Serif" font-size="10.00">nars.entity.Stamp.equals</text>
</a>
</g>
</g>
<!-- Node132&#45;&gt;Node138 -->
<g id="edge6" class="edge"><title>Node132&#45;&gt;Node138</title>
<path fill="none" stroke="midnightblue" d="M124.402,-172.047C152.808,-178.678 190.855,-187.559 221.206,-194.643"/>
<polygon fill="midnightblue" stroke="midnightblue" points="220.644,-198.106 231.178,-196.971 222.236,-191.29 220.644,-198.106"/>
</g>
<!-- Node145 -->
<g id="node14" class="node"><title>Node145</title>
<g id="a_node14"><a xlink:href="../../dd/dc1/a00212.html#ad1ded9a02cae3557948d05530cd4d37e" target="_top" xlink:title="The content of a Sentence is a Term. ">
<polygon fill="none" stroke="black" points="211.5,-147.5 211.5,-177.5 334.5,-177.5 334.5,-147.5 211.5,-147.5"/>
<text text-anchor="start" x="219.5" y="-165.5" font-family="Helvetica,sans-Serif" font-size="10.00">nars.entity.Sentence.get</text>
<text text-anchor="middle" x="273" y="-154.5" font-family="Helvetica,sans-Serif" font-size="10.00">Content</text>
</a>
</g>
</g>
<!-- Node132&#45;&gt;Node145 -->
<g id="edge14" class="edge"><title>Node132&#45;&gt;Node145</title>
<path fill="none" stroke="midnightblue" d="M165.083,-162.5C177.088,-162.5 189.373,-162.5 201.138,-162.5"/>
<polygon fill="midnightblue" stroke="midnightblue" points="201.324,-166 211.324,-162.5 201.324,-159 201.324,-166"/>
</g>
<!-- Node146 -->
<g id="node15" class="node"><title>Node146</title>
<g id="a_node15"><a xlink:href="../../dd/dc1/a00212.html#a68b153a51a5db6a4127b66158227697f" target="_top" xlink:title="The punctuation also indicates the type of the Sentence: Judgment, Question, or Goal. ">
<polygon fill="none" stroke="black" points="211.5,-98.5 211.5,-128.5 334.5,-128.5 334.5,-98.5 211.5,-98.5"/>
<text text-anchor="start" x="219.5" y="-116.5" font-family="Helvetica,sans-Serif" font-size="10.00">nars.entity.Sentence.get</text>
<text text-anchor="middle" x="273" y="-105.5" font-family="Helvetica,sans-Serif" font-size="10.00">Punctuation</text>
</a>
</g>
</g>
<!-- Node132&#45;&gt;Node146 -->
<g id="edge15" class="edge"><title>Node132&#45;&gt;Node146</title>
<path fill="none" stroke="midnightblue" d="M120.292,-152.936C144.157,-146.732 175.969,-138.463 204.298,-131.099"/>
<polygon fill="midnightblue" stroke="midnightblue" points="205.356,-134.44 214.154,-128.537 203.595,-127.665 205.356,-134.44"/>
</g>
<!-- Node147 -->
<g id="node16" class="node"><title>Node147</title>
<g id="a_node16"><a xlink:href="../../dd/dc1/a00212.html#ac0ed749c50e55120d5b63219ed7eb082" target="_top" xlink:title="Partial record of the derivation path. ">
<polygon fill="none" stroke="black" points="211.5,-49.5 211.5,-79.5 334.5,-79.5 334.5,-49.5 211.5,-49.5"/>
<text text-anchor="start" x="219.5" y="-67.5" font-family="Helvetica,sans-Serif" font-size="10.00">nars.entity.Sentence.get</text>
<text text-anchor="middle" x="273" y="-56.5" font-family="Helvetica,sans-Serif" font-size="10.00">Stamp</text>
</a>
</g>
</g>
<!-- Node132&#45;&gt;Node147 -->
<g id="edge16" class="edge"><title>Node132&#45;&gt;Node147</title>
<path fill="none" stroke="midnightblue" d="M96.7003,-152.96C117.888,-137.962 161.157,-108.611 201,-89.5 205.524,-87.3303 210.287,-85.2491 215.117,-83.2787"/>
<polygon fill="midnightblue" stroke="midnightblue" points="216.403,-86.534 224.441,-79.6318 213.853,-80.0149 216.403,-86.534"/>
</g>
<!-- Node148 -->
<g id="node17" class="node"><title>Node148</title>
<g id="a_node17"><a xlink:href="../../dd/dc1/a00212.html#a9f69b4fef64c81abad21404946cd41f9" target="_top" xlink:title="The truth value of Judgment. ">
<polygon fill="none" stroke="black" points="211.5,-0.5 211.5,-30.5 334.5,-30.5 334.5,-0.5 211.5,-0.5"/>
<text text-anchor="start" x="219.5" y="-18.5" font-family="Helvetica,sans-Serif" font-size="10.00">nars.entity.Sentence.get</text>
<text text-anchor="middle" x="273" y="-7.5" font-family="Helvetica,sans-Serif" font-size="10.00">Truth</text>
</a>
</g>
</g>
<!-- Node132&#45;&gt;Node148 -->
<g id="edge17" class="edge"><title>Node132&#45;&gt;Node148</title>
<path fill="none" stroke="midnightblue" d="M90.3091,-152.793C106.763,-130.012 151.034,-72.6234 201,-40.5 204.153,-38.4726 207.492,-36.5857 210.934,-34.8332"/>
<polygon fill="midnightblue" stroke="midnightblue" points="212.644,-37.8979 220.232,-30.504 209.689,-31.552 212.644,-37.8979"/>
</g>
<!-- Node134 -->
<g id="node3" class="node"><title>Node134</title>
<g id="a_node3"><a xlink:href="../../dc/d59/a00364.html#a3aad4654016b8615fd4fa8a26668e1db" target="_top" xlink:title="Reporting the name of the current Term. ">
<polygon fill="none" stroke="black" points="381,-331 381,-350 527,-350 527,-331 381,-331"/>
<text text-anchor="middle" x="454" y="-338" font-family="Helvetica,sans-Serif" font-size="10.00">nars.language.Term.getName</text>
</a>
</g>
</g>
<!-- Node133&#45;&gt;Node134 -->
<g id="edge2" class="edge"><title>Node133&#45;&gt;Node134</title>
<path fill="none" stroke="midnightblue" d="M334.851,-322.019C349.983,-324.386 366.336,-326.944 381.911,-329.38"/>
<polygon fill="midnightblue" stroke="midnightblue" points="381.592,-332.873 392.013,-330.96 382.674,-325.957 381.592,-332.873"/>
</g>
<!-- Node136 -->
<g id="node5" class="node"><title>Node136</title>
<g id="a_node5"><a xlink:href="../../d7/d40/a00236.html#a9eac33f2495441c77911a8581a5bbe61" target="_top" xlink:title="Get the frequency value. ">
<polygon fill="none" stroke="black" points="389.5,-281.5 389.5,-311.5 518.5,-311.5 518.5,-281.5 389.5,-281.5"/>
<text text-anchor="start" x="397.5" y="-299.5" font-family="Helvetica,sans-Serif" font-size="10.00">nars.entity.TruthValue.get</text>
<text text-anchor="middle" x="454" y="-288.5" font-family="Helvetica,sans-Serif" font-size="10.00">Frequency</text>
</a>
</g>
</g>
<!-- Node135&#45;&gt;Node136 -->
<g id="edge4" class="edge"><title>Node135&#45;&gt;Node136</title>
<path fill="none" stroke="midnightblue" d="M308.938,-257.064C331.501,-263.24 361.545,-271.465 388.357,-278.804"/>
<polygon fill="midnightblue" stroke="midnightblue" points="387.5,-282.198 398.069,-281.463 389.348,-275.447 387.5,-282.198"/>
</g>
<!-- Node137 -->
<g id="node6" class="node"><title>Node137</title>
<g id="a_node6"><a xlink:href="../../d7/d40/a00236.html#a68ca7d92e9ea20d2a9a9f578ad7b681c" target="_top" xlink:title="The confidence factor of the truth value. ">
<polygon fill="none" stroke="black" points="389.5,-232.5 389.5,-262.5 518.5,-262.5 518.5,-232.5 389.5,-232.5"/>
<text text-anchor="start" x="397.5" y="-250.5" font-family="Helvetica,sans-Serif" font-size="10.00">nars.entity.TruthValue.get</text>
<text text-anchor="middle" x="454" y="-239.5" font-family="Helvetica,sans-Serif" font-size="10.00">Confidence</text>
</a>
</g>
</g>
<!-- Node135&#45;&gt;Node137 -->
<g id="edge5" class="edge"><title>Node135&#45;&gt;Node137</title>
<path fill="none" stroke="midnightblue" d="M345.003,-247.5C356.212,-247.5 367.827,-247.5 379.101,-247.5"/>
<polygon fill="midnightblue" stroke="midnightblue" points="379.337,-251 389.337,-247.5 379.337,-244 379.337,-251"/>
</g>
<!-- Node139 -->
<g id="node8" class="node"><title>Node139</title>
<g id="a_node8"><a xlink:href="../../d6/d43/a00216.html#a7b5d3afaab9fc48e2d4d571b8508970d" target="_top" xlink:title="Convert the evidentialBase into a set. ">
<polygon fill="none" stroke="black" points="394,-194 394,-213 514,-213 514,-194 394,-194"/>
<text text-anchor="middle" x="454" y="-201" font-family="Helvetica,sans-Serif" font-size="10.00">nars.entity.Stamp.toSet</text>
</a>
</g>
</g>
<!-- Node138&#45;&gt;Node139 -->
<g id="edge7" class="edge"><title>Node138&#45;&gt;Node139</title>
<path fill="none" stroke="midnightblue" d="M335.602,-205.468C351.032,-205.209 367.691,-204.93 383.477,-204.665"/>
<polygon fill="midnightblue" stroke="midnightblue" points="383.763,-208.161 393.702,-204.494 383.645,-201.162 383.763,-208.161"/>
</g>
<!-- Node142 -->
<g id="node11" class="node"><title>Node142</title>
<g id="a_node11"><a xlink:href="../../d6/d43/a00216.html#a959f21fb20f72cfd277d994332e862c3" target="_top" xlink:title="Generate a new stamp, with a new serial number, for a new Task. ">
<polygon fill="none" stroke="black" points="391.5,-153 391.5,-172 516.5,-172 516.5,-153 391.5,-153"/>
<text text-anchor="middle" x="454" y="-160" font-family="Helvetica,sans-Serif" font-size="10.00">nars.entity.Stamp.Stamp</text>
</a>
</g>
</g>
<!-- Node138&#45;&gt;Node142 -->
<g id="edge10" class="edge"><title>Node138&#45;&gt;Node142</title>
<path fill="none" stroke="midnightblue" d="M312.84,-196.953C339.698,-190.351 375.631,-181.518 404.389,-174.449"/>
<polygon fill="midnightblue" stroke="midnightblue" points="405.36,-177.815 414.235,-172.029 403.689,-171.017 405.36,-177.815"/>
</g>
<!-- Node140 -->
<g id="node9" class="node"><title>Node140</title>
<g id="a_node9"><a xlink:href="../../d6/d43/a00216.html#ab6efde6c34037b63fc165d1bf95277a2" target="_top" xlink:title="evidentialBase baseLength ">
<polygon fill="none" stroke="black" points="584.5,-232.5 584.5,-262.5 717.5,-262.5 717.5,-232.5 584.5,-232.5"/>
<text text-anchor="start" x="592.5" y="-250.5" font-family="Helvetica,sans-Serif" font-size="10.00">nars.entity.Stamp.getBase</text>
<text text-anchor="middle" x="651" y="-239.5" font-family="Helvetica,sans-Serif" font-size="10.00">Length</text>
</a>
</g>
</g>
<!-- Node139&#45;&gt;Node140 -->
<g id="edge8" class="edge"><title>Node139&#45;&gt;Node140</title>
<path fill="none" stroke="midnightblue" d="M497.312,-213.047C519.859,-218.135 548.276,-224.547 574.464,-230.456"/>
<polygon fill="midnightblue" stroke="midnightblue" points="573.85,-233.905 584.375,-232.692 575.39,-227.077 573.85,-233.905"/>
</g>
<!-- Node141 -->
<g id="node10" class="node"><title>Node141</title>
<g id="a_node10"><a xlink:href="../../d6/d43/a00216.html#ac84c7f26ab8e0740bab4335f33396e2c" target="_top" xlink:title="serial numbers ">
<polygon fill="none" stroke="black" points="563,-194 563,-213 739,-213 739,-194 563,-194"/>
<text text-anchor="middle" x="651" y="-201" font-family="Helvetica,sans-Serif" font-size="10.00">nars.entity.Stamp.getEvidentialBase</text>
</a>
</g>
</g>
<!-- Node139&#45;&gt;Node141 -->
<g id="edge9" class="edge"><title>Node139&#45;&gt;Node141</title>
<path fill="none" stroke="midnightblue" d="M514.036,-203.5C526.273,-203.5 539.474,-203.5 552.671,-203.5"/>
<polygon fill="midnightblue" stroke="midnightblue" points="552.745,-207 562.745,-203.5 552.745,-200 552.745,-207"/>
</g>
<!-- Node142&#45;&gt;Node141 -->
<g id="edge13" class="edge"><title>Node142&#45;&gt;Node141</title>
<path fill="none" stroke="midnightblue" d="M500.227,-172.009C528.429,-177.939 564.916,-185.61 594.815,-191.897"/>
<polygon fill="midnightblue" stroke="midnightblue" points="594.175,-195.339 604.681,-193.971 595.615,-188.489 594.175,-195.339"/>
</g>
<!-- Node143 -->
<g id="node12" class="node"><title>Node143</title>
<g id="a_node12"><a xlink:href="../../d6/d43/a00216.html#a8b3fd059e38dcb039a01ab991ec6614f" target="_top" xlink:title="nars.entity.Stamp.setCurrent\lSerial">
<polygon fill="none" stroke="black" points="579.5,-144.5 579.5,-174.5 722.5,-174.5 722.5,-144.5 579.5,-144.5"/>
<text text-anchor="start" x="587.5" y="-162.5" font-family="Helvetica,sans-Serif" font-size="10.00">nars.entity.Stamp.setCurrent</text>
<text text-anchor="middle" x="651" y="-151.5" font-family="Helvetica,sans-Serif" font-size="10.00">Serial</text>
</a>
</g>
</g>
<!-- Node142&#45;&gt;Node143 -->
<g id="edge11" class="edge"><title>Node142&#45;&gt;Node143</title>
<path fill="none" stroke="midnightblue" d="M516.699,-161.551C533.302,-161.295 551.513,-161.015 568.995,-160.746"/>
<polygon fill="midnightblue" stroke="midnightblue" points="569.242,-164.243 579.187,-160.589 569.134,-157.244 569.242,-164.243"/>
</g>
<!-- Node144 -->
<g id="node13" class="node"><title>Node144</title>
<g id="a_node13"><a xlink:href="../../d6/d43/a00216.html#a7c3a7c21f049a6dfe9dbc088caae4abf" target="_top" xlink:title="serial number, for the whole system TODO : should it really be static? or a Stamp be a field in Reaso...">
<polygon fill="none" stroke="black" points="579.5,-95.5 579.5,-125.5 722.5,-125.5 722.5,-95.5 579.5,-95.5"/>
<text text-anchor="start" x="587.5" y="-113.5" font-family="Helvetica,sans-Serif" font-size="10.00">nars.entity.Stamp.getCurrent</text>
<text text-anchor="middle" x="651" y="-102.5" font-family="Helvetica,sans-Serif" font-size="10.00">Serial</text>
</a>
</g>
</g>
<!-- Node142&#45;&gt;Node144 -->
<g id="edge12" class="edge"><title>Node142&#45;&gt;Node144</title>
<path fill="none" stroke="midnightblue" d="M490.766,-152.962C516.661,-146.057 552.425,-136.52 583.5,-128.233"/>
<polygon fill="midnightblue" stroke="midnightblue" points="584.645,-131.55 593.406,-125.592 582.841,-124.787 584.645,-131.55"/>
</g>
</g>
</svg>
        <g id="navigator" transform="translate(0 0)" fill="#404254">
                <rect fill="#f2f5e9" fill-opacity="0.5" stroke="#606060" stroke-width=".5" x="0" y="0" width="60" height="60"/>
                <use id="zoomplus" xlink:href="#zoomPlus" x="17" y="9" onmousedown="handleZoom(evt,'in')"/>
                <use id="zoomminus" xlink:href="#zoomMin" x="42" y="9" onmousedown="handleZoom(evt,'out')"/>
                <use id="reset" xlink:href="#resetDef" x="30" y="36" onmousedown="handleReset()"/>
                <g id="arrowUp" xlink:href="#dirArrow" transform="translate(30 24)" onmousedown="handlePan(0,-1)">
                  <use xlink:href="#rim" fill="#404040">
                        <set attributeName="fill" to="#808080" begin="arrowUp.mouseover" end="arrowUp.mouseout"/>
                  </use>
                  <path fill="none" stroke="white" stroke-width="1.5" d="M0,-3.0v7 M-2.5,-0.5L0,-3.0L2.5,-0.5"/>
                </g>
                <g id="arrowRight" xlink:href="#dirArrow" transform="rotate(90) translate(36 -43)" onmousedown="handlePan(1,0)">
                  <use xlink:href="#rim" fill="#404040">
                        <set attributeName="fill" to="#808080" begin="arrowRight.mouseover" end="arrowRight.mouseout"/>
                  </use>
                  <path fill="none" stroke="white" stroke-width="1.5" d="M0,-3.0v7 M-2.5,-0.5L0,-3.0L2.5,-0.5"/>
                </g>
                <g id="arrowDown" xlink:href="#dirArrow" transform="rotate(180) translate(-30 -48)" onmousedown="handlePan(0,1)">
                  <use xlink:href="#rim" fill="#404040">
                        <set attributeName="fill" to="#808080" begin="arrowDown.mouseover" end="arrowDown.mouseout"/>
                  </use>
                  <path fill="none" stroke="white" stroke-width="1.5" d="M0,-3.0v7 M-2.5,-0.5L0,-3.0L2.5,-0.5"/>
                </g>
                <g id="arrowLeft" xlink:href="#dirArrow" transform="rotate(270) translate(-36 17)" onmousedown="handlePan(-1,0)">
                  <use xlink:href="#rim" fill="#404040">
                        <set attributeName="fill" to="#808080" begin="arrowLeft.mouseover" end="arrowLeft.mouseout"/>
                  </use>
                  <path fill="none" stroke="white" stroke-width="1.5" d="M0,-3.0v7 M-2.5,-0.5L0,-3.0L2.5,-0.5"/>
                </g>
        </g>
        <svg viewBox="0 0 15 15" width="100%" height="30px" preserveAspectRatio="xMaxYMin meet">
         <g id="arrow_out" transform="scale(0.3 0.3)">
          <a xlink:href="a00212_a83162edae863623803e811c0752d17fa_cgraph_org.svg" target="_base">
           <rect id="button" ry="5" rx="5" y="6" x="6" height="38" width="38"
                fill="#f2f5e9" fill-opacity="0.5" stroke="#606060" stroke-width="1.0"/>
           <path id="arrow"
             d="M 11.500037,31.436501 C 11.940474,20.09759 22.043105,11.32322 32.158766,21.979434 L 37.068811,17.246167 C 37.068811,17.246167 37.088388,32 37.088388,32 L 22.160133,31.978069 C 22.160133,31.978069 26.997745,27.140456 26.997745,27.140456 C 18.528582,18.264221 13.291696,25.230495 11.500037,31.436501 z"
             style="fill:#404040;"/>
          </a>
         </g>
        </svg>
</svg>
