<?xml version="1.0" encoding="UTF-8" standalone="no"?>
<!DOCTYPE svg PUBLIC "-//W3C//DTD SVG 1.1//EN"
 "http://www.w3.org/Graphics/SVG/1.1/DTD/svg11.dtd">
<!-- Generated by graphviz version 2.38.0 (20140413.2041)
 -->
<!-- Title: nars.entity.Sentence.toKey Pages: 1 -->
<svg width="468pt" height="210pt"
 viewBox="0.00 0.00 468.00 210.00" xmlns="http://www.w3.org/2000/svg" xmlns:xlink="http://www.w3.org/1999/xlink">
<g id="graph0" class="graph" transform="scale(1 1) rotate(0) translate(4 206)">
<title>nars.entity.Sentence.toKey</title>
<!-- Node734 -->
<g id="node1" class="node"><title>Node734</title>
<polygon fill="#bfbfbf" stroke="black" points="0,-103 0,-122 135,-122 135,-103 0,-103"/>
<text text-anchor="middle" x="67.5" y="-110" font-family="Helvetica,sans-Serif" font-size="10.00">nars.entity.Sentence.toKey</text>
</g>
<!-- Node735 -->
<g id="node2" class="node"><title>Node735</title>
<g id="a_node2"><a xlink:href="../../dd/dc1/a00212.html#ad1ded9a02cae3557948d05530cd4d37e" target="_top" xlink:title="The content of a Sentence is a Term. ">
<polygon fill="none" stroke="black" points="171.5,-171.5 171.5,-201.5 294.5,-201.5 294.5,-171.5 171.5,-171.5"/>
<text text-anchor="start" x="179.5" y="-189.5" font-family="Helvetica,sans-Serif" font-size="10.00">nars.entity.Sentence.get</text>
<text text-anchor="middle" x="233" y="-178.5" font-family="Helvetica,sans-Serif" font-size="10.00">Content</text>
</a>
</g>
</g>
<!-- Node734&#45;&gt;Node735 -->
<g id="edge1" class="edge"><title>Node734&#45;&gt;Node735</title>
<path fill="none" stroke="midnightblue" d="M87.1826,-122.166C107.57,-132.584 141.277,-149.428 171,-162.5 174.867,-164.201 178.896,-165.913 182.958,-167.598"/>
<polygon fill="midnightblue" stroke="midnightblue" points="181.853,-170.927 192.435,-171.46 184.495,-164.445 181.853,-170.927"/>
</g>
<!-- Node736 -->
<g id="node3" class="node"><title>Node736</title>
<g id="a_node3"><a xlink:href="../../dd/dc1/a00212.html#a68b153a51a5db6a4127b66158227697f" target="_top" xlink:title="The punctuation also indicates the type of the Sentence: Judgment, Question, or Goal. ">
<polygon fill="none" stroke="black" points="171.5,-122.5 171.5,-152.5 294.5,-152.5 294.5,-122.5 171.5,-122.5"/>
<text text-anchor="start" x="179.5" y="-140.5" font-family="Helvetica,sans-Serif" font-size="10.00">nars.entity.Sentence.get</text>
<text text-anchor="middle" x="233" y="-129.5" font-family="Helvetica,sans-Serif" font-size="10.00">Punctuation</text>
</a>
</g>
</g>
<!-- Node734&#45;&gt;Node736 -->
<g id="edge2" class="edge"><title>Node734&#45;&gt;Node736</title>
<path fill="none" stroke="midnightblue" d="M130.779,-122.023C140.728,-123.544 151.086,-125.128 161.215,-126.677"/>
<polygon fill="midnightblue" stroke="midnightblue" points="160.831,-130.158 171.245,-128.21 161.889,-123.239 160.831,-130.158"/>
</g>
<!-- Node737 -->
<g id="node4" class="node"><title>Node737</title>
<g id="a_node4"><a xlink:href="../../dd/dc1/a00212.html#a9f69b4fef64c81abad21404946cd41f9" target="_top" xlink:title="The truth value of Judgment. ">
<polygon fill="none" stroke="black" points="171.5,-73.5 171.5,-103.5 294.5,-103.5 294.5,-73.5 171.5,-73.5"/>
<text text-anchor="start" x="179.5" y="-91.5" font-family="Helvetica,sans-Serif" font-size="10.00">nars.entity.Sentence.get</text>
<text text-anchor="middle" x="233" y="-80.5" font-family="Helvetica,sans-Serif" font-size="10.00">Truth</text>
</a>
</g>
</g>
<!-- Node734&#45;&gt;Node737 -->
<g id="edge3" class="edge"><title>Node734&#45;&gt;Node737</title>
<path fill="none" stroke="midnightblue" d="M133.589,-102.946C142.745,-101.602 152.192,-100.215 161.444,-98.8569"/>
<polygon fill="midnightblue" stroke="midnightblue" points="161.998,-102.313 171.384,-97.3978 160.981,-95.3873 161.998,-102.313"/>
</g>
<!-- Node738 -->
<g id="node5" class="node"><title>Node738</title>
<g id="a_node5"><a xlink:href="../../d7/d40/a00236.html#a5af8b2fe37987ba1e8396ec1aad38e90" target="_top" xlink:title="A simplified String representation of a TruthValue, where each factor is accruate to 1%...">
<polygon fill="none" stroke="black" points="171,-24.5 171,-54.5 295,-54.5 295,-24.5 171,-24.5"/>
<text text-anchor="start" x="179" y="-42.5" font-family="Helvetica,sans-Serif" font-size="10.00">nars.entity.TruthValue.to</text>
<text text-anchor="middle" x="233" y="-31.5" font-family="Helvetica,sans-Serif" font-size="10.00">StringBrief</text>
</a>
</g>
</g>
<!-- Node734&#45;&gt;Node738 -->
<g id="edge4" class="edge"><title>Node734&#45;&gt;Node738</title>
<path fill="none" stroke="midnightblue" d="M88.4012,-102.827C108.958,-92.9188 142.03,-77.2107 171,-64.5 175.481,-62.5342 180.166,-60.5277 184.862,-58.5491"/>
<polygon fill="midnightblue" stroke="midnightblue" points="186.574,-61.6276 194.456,-54.5485 183.88,-55.1667 186.574,-61.6276"/>
</g>
<!-- Node739 -->
<g id="node6" class="node"><title>Node739</title>
<g id="a_node6"><a xlink:href="../../d7/d40/a00236.html#a9eac33f2495441c77911a8581a5bbe61" target="_top" xlink:title="Get the frequency value. ">
<polygon fill="none" stroke="black" points="331,-49.5 331,-79.5 460,-79.5 460,-49.5 331,-49.5"/>
<text text-anchor="start" x="339" y="-67.5" font-family="Helvetica,sans-Serif" font-size="10.00">nars.entity.TruthValue.get</text>
<text text-anchor="middle" x="395.5" y="-56.5" font-family="Helvetica,sans-Serif" font-size="10.00">Frequency</text>
</a>
</g>
</g>
<!-- Node738&#45;&gt;Node739 -->
<g id="edge5" class="edge"><title>Node738&#45;&gt;Node739</title>
<path fill="none" stroke="midnightblue" d="M295.136,-49.0227C303.541,-50.3319 312.243,-51.6873 320.843,-53.0269"/>
<polygon fill="midnightblue" stroke="midnightblue" points="320.448,-56.5076 330.868,-54.5885 321.526,-49.591 320.448,-56.5076"/>
</g>
<!-- Node740 -->
<g id="node7" class="node"><title>Node740</title>
<g id="a_node7"><a xlink:href="../../d7/d40/a00236.html#a68ca7d92e9ea20d2a9a9f578ad7b681c" target="_top" xlink:title="The confidence factor of the truth value. ">
<polygon fill="none" stroke="black" points="331,-0.5 331,-30.5 460,-30.5 460,-0.5 331,-0.5"/>
<text text-anchor="start" x="339" y="-18.5" font-family="Helvetica,sans-Serif" font-size="10.00">nars.entity.TruthValue.get</text>
<text text-anchor="middle" x="395.5" y="-7.5" font-family="Helvetica,sans-Serif" font-size="10.00">Confidence</text>
</a>
</g>
</g>
<!-- Node738&#45;&gt;Node740 -->
<g id="edge6" class="edge"><title>Node738&#45;&gt;Node740</title>
<path fill="none" stroke="midnightblue" d="M295.136,-30.3582C303.541,-29.1014 312.243,-27.8002 320.843,-26.5142"/>
<polygon fill="midnightblue" stroke="midnightblue" points="321.496,-29.9555 330.868,-25.0151 320.46,-23.0325 321.496,-29.9555"/>
</g>
</g>
</svg>
