<?xml version="1.0" encoding="UTF-8" standalone="no"?>
<!DOCTYPE svg PUBLIC "-//W3C//DTD SVG 1.1//EN"
 "http://www.w3.org/Graphics/SVG/1.1/DTD/svg11.dtd">
<!-- Generated by graphviz version 2.38.0 (20140413.2041)
 -->
<!-- Title: nars.entity.Sentence.containQueryVar Pages: 1 -->
<svg width="2651pt" height="137pt"
 viewBox="0.00 0.00 2651.00 137.00" xmlns="http://www.w3.org/2000/svg" xmlns:xlink="http://www.w3.org/1999/xlink">
<g id="graph0" class="graph" transform="scale(1 1) rotate(0) translate(4 133)">
<title>nars.entity.Sentence.containQueryVar</title>
<!-- Node86 -->
<g id="node1" class="node"><title>Node86</title>
<polygon fill="#bfbfbf" stroke="black" points="0,-53.5 0,-83.5 141,-83.5 141,-53.5 0,-53.5"/>
<text text-anchor="start" x="8" y="-71.5" font-family="Helvetica,sans-Serif" font-size="10.00">nars.entity.Sentence.contain</text>
<text text-anchor="middle" x="70.5" y="-60.5" font-family="Helvetica,sans-Serif" font-size="10.00">QueryVar</text>
</g>
<!-- Node87 -->
<g id="node2" class="node"><title>Node87</title>
<g id="a_node2"><a xlink:href="../../dd/dd7/a00248.html#abe52d51e24e841a754e3d6c0aa3c24da" target="_top" xlink:title="Evaluate the quality of the judgment as a solution to a problem. ">
<polygon fill="none" stroke="black" points="177,-53.5 177,-83.5 344,-83.5 344,-53.5 177,-53.5"/>
<text text-anchor="start" x="185" y="-71.5" font-family="Helvetica,sans-Serif" font-size="10.00">nars.inference.LocalRules.solution</text>
<text text-anchor="middle" x="260.5" y="-60.5" font-family="Helvetica,sans-Serif" font-size="10.00">Quality</text>
</a>
</g>
</g>
<!-- Node86&#45;&gt;Node87 -->
<g id="edge1" class="edge"><title>Node86&#45;&gt;Node87</title>
<path fill="none" stroke="midnightblue" d="M151.41,-68.5C159.828,-68.5 168.4,-68.5 176.848,-68.5"/>
<polygon fill="midnightblue" stroke="midnightblue" points="151.237,-65.0001 141.237,-68.5 151.237,-72.0001 151.237,-65.0001"/>
</g>
<!-- Node88 -->
<g id="node3" class="node"><title>Node88</title>
<g id="a_node3"><a xlink:href="../../d7/ded/a00196.html#a71914b2b9086bbc4e73d928ab3f9617d" target="_top" xlink:title="Evaluate a query against beliefs (and desires in the future) ">
<polygon fill="none" stroke="black" points="602,-97 602,-116 751,-116 751,-97 602,-97"/>
<text text-anchor="middle" x="676.5" y="-104" font-family="Helvetica,sans-Serif" font-size="10.00">nars.entity.Concept.evaluation</text>
</a>
</g>
</g>
<!-- Node87&#45;&gt;Node88 -->
<g id="edge2" class="edge"><title>Node87&#45;&gt;Node88</title>
<path fill="none" stroke="midnightblue" d="M354.375,-84.2486C363.023,-85.4561 371.666,-86.566 380,-87.5 455.355,-95.9445 541.974,-100.966 601.86,-103.705"/>
<polygon fill="midnightblue" stroke="midnightblue" points="354.634,-80.75 344.238,-82.7909 353.638,-87.6787 354.634,-80.75"/>
</g>
<!-- Node101 -->
<g id="node16" class="node"><title>Node101</title>
<g id="a_node16"><a xlink:href="../../dd/dd7/a00248.html#a3ecf859c238ad7f0c44c45e3e5df0081" target="_top" xlink:title="Check if a Sentence provide a better answer to a Question or Goal. ">
<polygon fill="none" stroke="black" points="604.5,-44.5 604.5,-74.5 748.5,-74.5 748.5,-44.5 604.5,-44.5"/>
<text text-anchor="start" x="612.5" y="-62.5" font-family="Helvetica,sans-Serif" font-size="10.00">nars.inference.LocalRules.try</text>
<text text-anchor="middle" x="676.5" y="-51.5" font-family="Helvetica,sans-Serif" font-size="10.00">Solution</text>
</a>
</g>
</g>
<!-- Node87&#45;&gt;Node101 -->
<g id="edge17" class="edge"><title>Node87&#45;&gt;Node101</title>
<path fill="none" stroke="midnightblue" d="M354.32,-52.1804C362.98,-51.0922 371.64,-50.1659 380,-49.5 462.406,-42.9356 483.419,-45.737 566,-49.5 578.395,-50.0648 591.555,-50.9875 604.293,-52.0499"/>
<polygon fill="midnightblue" stroke="midnightblue" points="353.625,-48.7417 344.172,-53.5263 354.546,-55.681 353.625,-48.7417"/>
</g>
<!-- Node106 -->
<g id="node21" class="node"><title>Node106</title>
<g id="a_node21"><a xlink:href="../../dd/dd7/a00248.html#a47cb028f5b51be6eb77e3e619fccfc7c" target="_top" xlink:title="Evaluate the quality of a belief as a solution to a problem, then reward the belief and de&#45;prioritize...">
<polygon fill="none" stroke="black" points="380,-59 380,-78 566,-78 566,-59 380,-59"/>
<text text-anchor="middle" x="473" y="-66" font-family="Helvetica,sans-Serif" font-size="10.00">nars.inference.LocalRules.solutionEval</text>
</a>
</g>
</g>
<!-- Node87&#45;&gt;Node106 -->
<g id="edge25" class="edge"><title>Node87&#45;&gt;Node106</title>
<path fill="none" stroke="midnightblue" d="M354.363,-68.5C362.841,-68.5 371.428,-68.5 379.899,-68.5"/>
<polygon fill="midnightblue" stroke="midnightblue" points="354.091,-65.0001 344.091,-68.5 354.091,-72.0001 354.091,-65.0001"/>
</g>
<!-- Node89 -->
<g id="node4" class="node"><title>Node89</title>
<g id="a_node4"><a xlink:href="../../d7/ded/a00196.html#a40cddcc82ee28a1cf5b1f4bc14e2b078" target="_top" xlink:title="To accept a new judgment as isBelief, and check for revisions and solutions. ">
<polygon fill="none" stroke="black" points="797,-93.5 797,-123.5 937,-123.5 937,-93.5 797,-93.5"/>
<text text-anchor="start" x="805" y="-111.5" font-family="Helvetica,sans-Serif" font-size="10.00">nars.entity.Concept.process</text>
<text text-anchor="middle" x="867" y="-100.5" font-family="Helvetica,sans-Serif" font-size="10.00">Judgment</text>
</a>
</g>
</g>
<!-- Node88&#45;&gt;Node89 -->
<g id="edge3" class="edge"><title>Node88&#45;&gt;Node89</title>
<path fill="none" stroke="midnightblue" d="M761.53,-107.392C773.384,-107.517 785.455,-107.645 796.983,-107.768"/>
<polygon fill="midnightblue" stroke="midnightblue" points="761.225,-103.888 751.189,-107.282 761.151,-110.888 761.225,-103.888"/>
</g>
<!-- Node100 -->
<g id="node15" class="node"><title>Node100</title>
<g id="a_node15"><a xlink:href="../../d7/ded/a00196.html#a3900248991e7adb57e82231312337f8f" target="_top" xlink:title="To answer a question by existing beliefs. ">
<polygon fill="none" stroke="black" points="797,-44.5 797,-74.5 937,-74.5 937,-44.5 797,-44.5"/>
<text text-anchor="start" x="805" y="-62.5" font-family="Helvetica,sans-Serif" font-size="10.00">nars.entity.Concept.process</text>
<text text-anchor="middle" x="867" y="-51.5" font-family="Helvetica,sans-Serif" font-size="10.00">Question</text>
</a>
</g>
</g>
<!-- Node88&#45;&gt;Node100 -->
<g id="edge15" class="edge"><title>Node88&#45;&gt;Node100</title>
<path fill="none" stroke="midnightblue" d="M725.389,-94.5595C749.781,-88.4776 779.691,-81.02 805.645,-74.5488"/>
<polygon fill="midnightblue" stroke="midnightblue" points="724.502,-91.1734 715.646,-96.9888 726.196,-97.9655 724.502,-91.1734"/>
</g>
<!-- Node90 -->
<g id="node5" class="node"><title>Node90</title>
<g id="a_node5"><a xlink:href="../../d7/ded/a00196.html#a9ea7c3154932d7a736c105eb55daeb5c" target="_top" xlink:title="Directly process a new task. ">
<polygon fill="none" stroke="black" points="1000,-71.5 1000,-101.5 1129,-101.5 1129,-71.5 1000,-71.5"/>
<text text-anchor="start" x="1008" y="-89.5" font-family="Helvetica,sans-Serif" font-size="10.00">nars.entity.Concept.direct</text>
<text text-anchor="middle" x="1064.5" y="-78.5" font-family="Helvetica,sans-Serif" font-size="10.00">Process</text>
</a>
</g>
</g>
<!-- Node89&#45;&gt;Node90 -->
<g id="edge4" class="edge"><title>Node89&#45;&gt;Node90</title>
<path fill="none" stroke="midnightblue" d="M947.386,-99.5665C964.875,-97.5985 983.177,-95.5389 999.943,-93.6522"/>
<polygon fill="midnightblue" stroke="midnightblue" points="946.747,-96.1163 937.201,-100.713 947.53,-103.072 946.747,-96.1163"/>
</g>
<!-- Node91 -->
<g id="node6" class="node"><title>Node91</title>
<g id="a_node6"><a xlink:href="../../d4/d27/a00392.html#af8d07412d21a441a5c7005a477b06468" target="_top" xlink:title="Immediate processing of a new task, in constant time Local processing, in one concept only...">
<polygon fill="none" stroke="black" points="1182,-71.5 1182,-101.5 1339,-101.5 1339,-71.5 1182,-71.5"/>
<text text-anchor="start" x="1190" y="-89.5" font-family="Helvetica,sans-Serif" font-size="10.00">nars.storage.Memory.immediate</text>
<text text-anchor="middle" x="1260.5" y="-78.5" font-family="Helvetica,sans-Serif" font-size="10.00">Process</text>
</a>
</g>
</g>
<!-- Node90&#45;&gt;Node91 -->
<g id="edge5" class="edge"><title>Node90&#45;&gt;Node91</title>
<path fill="none" stroke="midnightblue" d="M1139.09,-86.5C1153.1,-86.5 1167.81,-86.5 1181.95,-86.5"/>
<polygon fill="midnightblue" stroke="midnightblue" points="1139.02,-83.0001 1129.02,-86.5 1139.02,-90.0001 1139.02,-83.0001"/>
</g>
<!-- Node92 -->
<g id="node7" class="node"><title>Node92</title>
<g id="a_node7"><a xlink:href="../../d4/d27/a00392.html#ae43b86074c0d8f6a324696f69faa54b3" target="_top" xlink:title="Process the newTasks accumulated in the previous workCycle, accept input ones and those that correspo...">
<polygon fill="none" stroke="black" points="1375,-49.5 1375,-79.5 1521,-79.5 1521,-49.5 1375,-49.5"/>
<text text-anchor="start" x="1383" y="-67.5" font-family="Helvetica,sans-Serif" font-size="10.00">nars.storage.Memory.process</text>
<text text-anchor="middle" x="1448" y="-56.5" font-family="Helvetica,sans-Serif" font-size="10.00">NewTask</text>
</a>
</g>
</g>
<!-- Node91&#45;&gt;Node92 -->
<g id="edge6" class="edge"><title>Node91&#45;&gt;Node92</title>
<path fill="none" stroke="midnightblue" d="M1349.12,-76.1079C1357.71,-75.09 1366.35,-74.0651 1374.75,-73.0683"/>
<polygon fill="midnightblue" stroke="midnightblue" points="1348.61,-72.644 1339.09,-77.2975 1349.44,-79.5953 1348.61,-72.644"/>
</g>
<!-- Node99 -->
<g id="node14" class="node"><title>Node99</title>
<g id="a_node14"><a xlink:href="../../d4/d27/a00392.html#a5061708f88897cfdf4e0671c846762ca" target="_top" xlink:title="Select a novel task to process. ">
<polygon fill="none" stroke="black" points="1375,-98.5 1375,-128.5 1521,-128.5 1521,-98.5 1375,-98.5"/>
<text text-anchor="start" x="1383" y="-116.5" font-family="Helvetica,sans-Serif" font-size="10.00">nars.storage.Memory.process</text>
<text text-anchor="middle" x="1448" y="-105.5" font-family="Helvetica,sans-Serif" font-size="10.00">NovelTask</text>
</a>
</g>
</g>
<!-- Node91&#45;&gt;Node99 -->
<g id="edge13" class="edge"><title>Node91&#45;&gt;Node99</title>
<path fill="none" stroke="midnightblue" d="M1349.12,-99.254C1357.71,-100.503 1366.35,-101.761 1374.75,-102.984"/>
<polygon fill="midnightblue" stroke="midnightblue" points="1349.49,-95.7709 1339.09,-97.794 1348.49,-102.698 1349.49,-95.7709"/>
</g>
<!-- Node93 -->
<g id="node8" class="node"><title>Node93</title>
<g id="a_node8"><a xlink:href="../../d4/d27/a00392.html#a59ae339d666409988d90d29be4f73a91" target="_top" xlink:title="An atomic working workCycle of the system: process new Tasks, then fireFromProcessConcept a concept...">
<polygon fill="none" stroke="black" points="1557,-49.5 1557,-79.5 1690,-79.5 1690,-49.5 1557,-49.5"/>
<text text-anchor="start" x="1565" y="-67.5" font-family="Helvetica,sans-Serif" font-size="10.00">nars.storage.Memory.work</text>
<text text-anchor="middle" x="1623.5" y="-56.5" font-family="Helvetica,sans-Serif" font-size="10.00">Cycle</text>
</a>
</g>
</g>
<!-- Node92&#45;&gt;Node93 -->
<g id="edge7" class="edge"><title>Node92&#45;&gt;Node93</title>
<path fill="none" stroke="midnightblue" d="M1531.12,-64.5C1539.72,-64.5 1548.37,-64.5 1556.76,-64.5"/>
<polygon fill="midnightblue" stroke="midnightblue" points="1531.07,-61.0001 1521.07,-64.5 1531.07,-68.0001 1531.07,-61.0001"/>
</g>
<!-- Node94 -->
<g id="node9" class="node"><title>Node94</title>
<g id="a_node9"><a xlink:href="../../df/d15/a00416.html#a0d5c797dc17d9e8d0998852915e0f303" target="_top" xlink:title="nars.storage.ReasonerBatch.doTick">
<polygon fill="none" stroke="black" points="1726,-55 1726,-74 1899,-74 1899,-55 1726,-55"/>
<text text-anchor="middle" x="1812.5" y="-62" font-family="Helvetica,sans-Serif" font-size="10.00">nars.storage.ReasonerBatch.doTick</text>
</a>
</g>
</g>
<!-- Node93&#45;&gt;Node94 -->
<g id="edge8" class="edge"><title>Node93&#45;&gt;Node94</title>
<path fill="none" stroke="midnightblue" d="M1700.34,-64.5C1708.78,-64.5 1717.42,-64.5 1725.97,-64.5"/>
<polygon fill="midnightblue" stroke="midnightblue" points="1700.17,-61.0001 1690.17,-64.5 1700.17,-68.0001 1700.17,-61.0001"/>
</g>
<!-- Node95 -->
<g id="node10" class="node"><title>Node95</title>
<g id="a_node10"><a xlink:href="../../df/d15/a00416.html#a3468aa0f99edcd66412f27922dddb880" target="_top" xlink:title="A clock tick. ">
<polygon fill="none" stroke="black" points="1935,-55 1935,-74 2095,-74 2095,-55 1935,-55"/>
<text text-anchor="middle" x="2015" y="-62" font-family="Helvetica,sans-Serif" font-size="10.00">nars.storage.ReasonerBatch.tick</text>
</a>
</g>
</g>
<!-- Node94&#45;&gt;Node95 -->
<g id="edge9" class="edge"><title>Node94&#45;&gt;Node95</title>
<path fill="none" stroke="midnightblue" d="M1909.13,-64.5C1917.7,-64.5 1926.31,-64.5 1934.71,-64.5"/>
<polygon fill="midnightblue" stroke="midnightblue" points="1909.11,-61.0001 1899.11,-64.5 1909.11,-68.0001 1909.11,-61.0001"/>
</g>
<!-- Node96 -->
<g id="node11" class="node"><title>Node96</title>
<g id="a_node11"><a xlink:href="../../d9/da1/a00396.html#a5d9cfe517bcfbe41e5251910bcd119c1" target="_top" xlink:title="Run to completion: repeatedly execute NARS working cycle, until Inputs are Finished, or 1000 steps. ">
<polygon fill="none" stroke="black" points="2131,-55 2131,-74 2275,-74 2275,-55 2131,-55"/>
<text text-anchor="middle" x="2203" y="-62" font-family="Helvetica,sans-Serif" font-size="10.00">nars.storage.NARSBatch.run</text>
</a>
</g>
</g>
<!-- Node95&#45;&gt;Node96 -->
<g id="edge10" class="edge"><title>Node95&#45;&gt;Node96</title>
<path fill="none" stroke="midnightblue" d="M2105.22,-64.5C2113.82,-64.5 2122.47,-64.5 2130.87,-64.5"/>
<polygon fill="midnightblue" stroke="midnightblue" points="2105.15,-61.0001 2095.15,-64.5 2105.15,-68.0001 2105.15,-61.0001"/>
</g>
<!-- Node97 -->
<g id="node12" class="node"><title>Node97</title>
<g id="a_node12"><a xlink:href="../../d9/da1/a00396.html#a7c307c6b842f82664de6b0e52bdf8efc" target="_top" xlink:title="non&#45;static equivalent to main(String[]) : run to completion from an input file ">
<polygon fill="none" stroke="black" points="2311,-49.5 2311,-79.5 2455,-79.5 2455,-49.5 2311,-49.5"/>
<text text-anchor="start" x="2319" y="-67.5" font-family="Helvetica,sans-Serif" font-size="10.00">nars.storage.NARSBatch.run</text>
<text text-anchor="middle" x="2383" y="-56.5" font-family="Helvetica,sans-Serif" font-size="10.00">Inference</text>
</a>
</g>
</g>
<!-- Node96&#45;&gt;Node97 -->
<g id="edge11" class="edge"><title>Node96&#45;&gt;Node97</title>
<path fill="none" stroke="midnightblue" d="M2285.17,-64.5C2293.79,-64.5 2302.51,-64.5 2311,-64.5"/>
<polygon fill="midnightblue" stroke="midnightblue" points="2285.12,-61.0001 2275.12,-64.5 2285.12,-68.0001 2285.12,-61.0001"/>
</g>
<!-- Node98 -->
<g id="node13" class="node"><title>Node98</title>
<g id="a_node13"><a xlink:href="../../d9/da1/a00396.html#abafc597289bc2f6453b5cd0dd6634e54" target="_top" xlink:title="The entry point of the standalone application. ">
<polygon fill="none" stroke="black" points="2491,-55 2491,-74 2643,-74 2643,-55 2491,-55"/>
<text text-anchor="middle" x="2567" y="-62" font-family="Helvetica,sans-Serif" font-size="10.00">nars.storage.NARSBatch.main</text>
</a>
</g>
</g>
<!-- Node97&#45;&gt;Node98 -->
<g id="edge12" class="edge"><title>Node97&#45;&gt;Node98</title>
<path fill="none" stroke="midnightblue" d="M2465.17,-64.5C2473.76,-64.5 2482.48,-64.5 2491,-64.5"/>
<polygon fill="midnightblue" stroke="midnightblue" points="2465.15,-61.0001 2455.15,-64.5 2465.15,-68.0001 2465.15,-61.0001"/>
</g>
<!-- Node99&#45;&gt;Node93 -->
<g id="edge14" class="edge"><title>Node99&#45;&gt;Node93</title>
<path fill="none" stroke="midnightblue" d="M1512.1,-95.6788C1530.83,-90.3882 1551.16,-84.6478 1569.21,-79.5516"/>
<polygon fill="midnightblue" stroke="midnightblue" points="1511.14,-92.3123 1502.47,-98.3986 1513.05,-99.0488 1511.14,-92.3123"/>
</g>
<!-- Node100&#45;&gt;Node90 -->
<g id="edge16" class="edge"><title>Node100&#45;&gt;Node90</title>
<path fill="none" stroke="midnightblue" d="M947.386,-70.4638C964.875,-72.8791 983.177,-75.4068 999.943,-77.7224"/>
<polygon fill="midnightblue" stroke="midnightblue" points="947.586,-66.9583 937.201,-69.0572 946.628,-73.8925 947.586,-66.9583"/>
</g>
<!-- Node101&#45;&gt;Node89 -->
<g id="edge18" class="edge"><title>Node101&#45;&gt;Node89</title>
<path fill="none" stroke="midnightblue" d="M745.294,-77.1229C765.917,-82.4837 788.379,-88.3225 808.272,-93.4938"/>
<polygon fill="midnightblue" stroke="midnightblue" points="745.896,-73.6631 735.337,-74.5346 744.135,-80.438 745.896,-73.6631"/>
</g>
<!-- Node101&#45;&gt;Node100 -->
<g id="edge19" class="edge"><title>Node101&#45;&gt;Node100</title>
<path fill="none" stroke="midnightblue" d="M758.83,-59.5C771.488,-59.5 784.464,-59.5 796.819,-59.5"/>
<polygon fill="midnightblue" stroke="midnightblue" points="758.764,-56.0001 748.764,-59.5 758.764,-63.0001 758.764,-56.0001"/>
</g>
<!-- Node102 -->
<g id="node17" class="node"><title>Node102</title>
<g id="a_node17"><a xlink:href="../../dd/dd7/a00248.html#aac1c92950f50edd04d12229a8c992987" target="_top" xlink:title="The task and belief have the same content. ">
<polygon fill="none" stroke="black" points="787,-6 787,-25 947,-25 947,-6 787,-6"/>
<text text-anchor="middle" x="867" y="-13" font-family="Helvetica,sans-Serif" font-size="10.00">nars.inference.LocalRules.match</text>
</a>
</g>
</g>
<!-- Node101&#45;&gt;Node102 -->
<g id="edge20" class="edge"><title>Node101&#45;&gt;Node102</title>
<path fill="none" stroke="midnightblue" d="M751.695,-42.1813C776.74,-36.3352 803.766,-30.0268 825.248,-25.0124"/>
<polygon fill="midnightblue" stroke="midnightblue" points="750.786,-38.7992 741.844,-44.4808 752.378,-45.6159 750.786,-38.7992"/>
</g>
<!-- Node103 -->
<g id="node18" class="node"><title>Node103</title>
<g id="a_node18"><a xlink:href="../../dc/ded/a00252.html#ac2d01dfdc40bdd47c757cb549217e6e3" target="_top" xlink:title="Entry point of the inference engine. ">
<polygon fill="none" stroke="black" points="983,-6 983,-25 1146,-25 1146,-6 983,-6"/>
<text text-anchor="middle" x="1064.5" y="-13" font-family="Helvetica,sans-Serif" font-size="10.00">nars.inference.RuleTables.reason</text>
</a>
</g>
</g>
<!-- Node102&#45;&gt;Node103 -->
<g id="edge21" class="edge"><title>Node102&#45;&gt;Node103</title>
<path fill="none" stroke="midnightblue" d="M957.499,-15.5C965.962,-15.5 974.507,-15.5 982.88,-15.5"/>
<polygon fill="midnightblue" stroke="midnightblue" points="957.236,-12.0001 947.236,-15.5 957.235,-19.0001 957.236,-12.0001"/>
</g>
<!-- Node104 -->
<g id="node19" class="node"><title>Node104</title>
<g id="a_node19"><a xlink:href="../../d7/ded/a00196.html#ad6fb91dda799c3092ecb186ef24ca92a" target="_top" xlink:title="An atomic step in a concept, only called in Memory# processConcept. ">
<polygon fill="none" stroke="black" points="1201,-0.5 1201,-30.5 1320,-30.5 1320,-0.5 1201,-0.5"/>
<text text-anchor="start" x="1209" y="-18.5" font-family="Helvetica,sans-Serif" font-size="10.00">nars.entity.Concept.fire</text>
<text text-anchor="middle" x="1260.5" y="-7.5" font-family="Helvetica,sans-Serif" font-size="10.00">FromProcessConcept</text>
</a>
</g>
</g>
<!-- Node103&#45;&gt;Node104 -->
<g id="edge22" class="edge"><title>Node103&#45;&gt;Node104</title>
<path fill="none" stroke="midnightblue" d="M1156.46,-15.5C1171.52,-15.5 1186.76,-15.5 1200.75,-15.5"/>
<polygon fill="midnightblue" stroke="midnightblue" points="1156.09,-12.0001 1146.09,-15.5 1156.09,-19.0001 1156.09,-12.0001"/>
</g>
<!-- Node105 -->
<g id="node20" class="node"><title>Node105</title>
<g id="a_node20"><a xlink:href="../../d4/d27/a00392.html#a0acc4adbf6a2462245da46bcb529746c" target="_top" xlink:title="Select a concept to fireFromProcessConcept. ">
<polygon fill="none" stroke="black" points="1375,-0.5 1375,-30.5 1521,-30.5 1521,-0.5 1375,-0.5"/>
<text text-anchor="start" x="1383" y="-18.5" font-family="Helvetica,sans-Serif" font-size="10.00">nars.storage.Memory.process</text>
<text text-anchor="middle" x="1448" y="-7.5" font-family="Helvetica,sans-Serif" font-size="10.00">Concept</text>
</a>
</g>
</g>
<!-- Node104&#45;&gt;Node105 -->
<g id="edge23" class="edge"><title>Node104&#45;&gt;Node105</title>
<path fill="none" stroke="midnightblue" d="M1330.52,-15.5C1344.93,-15.5 1360.16,-15.5 1374.68,-15.5"/>
<polygon fill="midnightblue" stroke="midnightblue" points="1330.19,-12.0001 1320.19,-15.5 1330.19,-19.0001 1330.19,-12.0001"/>
</g>
<!-- Node105&#45;&gt;Node93 -->
<g id="edge24" class="edge"><title>Node105&#45;&gt;Node93</title>
<path fill="none" stroke="midnightblue" d="M1512.1,-33.3212C1530.83,-38.6118 1551.16,-44.3522 1569.21,-49.4484"/>
<polygon fill="midnightblue" stroke="midnightblue" points="1513.05,-29.9512 1502.47,-30.6014 1511.14,-36.6877 1513.05,-29.9512"/>
</g>
<!-- Node106&#45;&gt;Node101 -->
<g id="edge26" class="edge"><title>Node106&#45;&gt;Node101</title>
<path fill="none" stroke="midnightblue" d="M576.463,-63.9235C585.929,-63.5007 595.374,-63.0788 604.465,-62.6728"/>
<polygon fill="midnightblue" stroke="midnightblue" points="576.033,-60.4391 566.199,-64.3819 576.346,-67.4321 576.033,-60.4391"/>
</g>
</g>
</svg>
