<?xml version="1.0" encoding="UTF-8" standalone="no"?>
<!DOCTYPE svg PUBLIC "-//W3C//DTD SVG 1.1//EN"
 "http://www.w3.org/Graphics/SVG/1.1/DTD/svg11.dtd">
<!-- Generated by graphviz version 2.38.0 (20140413.2041)
 -->
<!-- Title: nars.storage.NARSBatch.init Pages: 1 -->
<svg width="560pt" height="78pt"
 viewBox="0.00 0.00 560.00 77.50" xmlns="http://www.w3.org/2000/svg" xmlns:xlink="http://www.w3.org/1999/xlink">
<g id="graph0" class="graph" transform="scale(1 1) rotate(0) translate(4 73.5)">
<title>nars.storage.NARSBatch.init</title>
<!-- Node20 -->
<g id="node1" class="node"><title>Node20</title>
<polygon fill="#bfbfbf" stroke="black" points="0,-28 0,-47 143,-47 143,-28 0,-28"/>
<text text-anchor="middle" x="71.5" y="-35" font-family="Helvetica,sans-Serif" font-size="10.00">nars.storage.NARSBatch.init</text>
</g>
<!-- Node21 -->
<g id="node2" class="node"><title>Node21</title>
<g id="a_node2"><a xlink:href="../../d9/da1/a00396.html#acbaf7780981f7c7f84d6faee5eda9f0a" target="_top" xlink:title="nars.storage.NARSBatch.NARSBatch">
<polygon fill="none" stroke="black" points="179,-50 179,-69 364,-69 364,-50 179,-50"/>
<text text-anchor="middle" x="271.5" y="-57" font-family="Helvetica,sans-Serif" font-size="10.00">nars.storage.NARSBatch.NARSBatch</text>
</a>
</g>
</g>
<!-- Node20&#45;&gt;Node21 -->
<g id="edge1" class="edge"><title>Node20&#45;&gt;Node21</title>
<path fill="none" stroke="midnightblue" d="M153.108,-46.4565C163.61,-47.6233 174.397,-48.8219 184.976,-49.9973"/>
<polygon fill="midnightblue" stroke="midnightblue" points="153.469,-42.9751 143.144,-45.3493 152.696,-49.9323 153.469,-42.9751"/>
</g>
<!-- Node23 -->
<g id="node4" class="node"><title>Node23</title>
<g id="a_node4"><a xlink:href="../../d9/da1/a00396.html#a7c307c6b842f82664de6b0e52bdf8efc" target="_top" xlink:title="non&#45;static equivalent to main(String[]) : run to completion from an input file ">
<polygon fill="none" stroke="black" points="199.5,-0.5 199.5,-30.5 343.5,-30.5 343.5,-0.5 199.5,-0.5"/>
<text text-anchor="start" x="207.5" y="-18.5" font-family="Helvetica,sans-Serif" font-size="10.00">nars.storage.NARSBatch.run</text>
<text text-anchor="middle" x="271.5" y="-7.5" font-family="Helvetica,sans-Serif" font-size="10.00">Inference</text>
</a>
</g>
</g>
<!-- Node20&#45;&gt;Node23 -->
<g id="edge3" class="edge"><title>Node20&#45;&gt;Node23</title>
<path fill="none" stroke="midnightblue" d="M153.519,-28.4979C168.664,-26.8151 184.391,-25.0676 199.216,-23.4204"/>
<polygon fill="midnightblue" stroke="midnightblue" points="152.696,-25.0677 143.144,-29.6507 153.469,-32.0249 152.696,-25.0677"/>
</g>
<!-- Node22 -->
<g id="node3" class="node"><title>Node22</title>
<g id="a_node3"><a xlink:href="../../d9/da1/a00396.html#abafc597289bc2f6453b5cd0dd6634e54" target="_top" xlink:title="The entry point of the standalone application. ">
<polygon fill="none" stroke="black" points="400,-28 400,-47 552,-47 552,-28 400,-28"/>
<text text-anchor="middle" x="476" y="-35" font-family="Helvetica,sans-Serif" font-size="10.00">nars.storage.NARSBatch.main</text>
</a>
</g>
</g>
<!-- Node21&#45;&gt;Node22 -->
<g id="edge2" class="edge"><title>Node21&#45;&gt;Node22</title>
<path fill="none" stroke="midnightblue" d="M370.127,-48.8936C380.143,-47.8054 390.207,-46.7121 399.925,-45.6563"/>
<polygon fill="midnightblue" stroke="midnightblue" points="369.705,-45.4188 360.142,-49.9784 370.461,-52.3778 369.705,-45.4188"/>
</g>
<!-- Node23&#45;&gt;Node22 -->
<g id="edge4" class="edge"><title>Node23&#45;&gt;Node22</title>
<path fill="none" stroke="midnightblue" d="M353.562,-24.3067C368.871,-25.97 384.823,-27.703 399.938,-29.3451"/>
<polygon fill="midnightblue" stroke="midnightblue" points="353.929,-20.8261 343.609,-23.2254 353.173,-27.7851 353.929,-20.8261"/>
</g>
</g>
</svg>
