<?xml version="1.0" encoding="UTF-8" standalone="no"?>
<!DOCTYPE svg PUBLIC "-//W3C//DTD SVG 1.1//EN"
 "http://www.w3.org/Graphics/SVG/1.1/DTD/svg11.dtd">
<!-- Generated by graphviz version 2.38.0 (20140413.2041)
 -->
<!-- Title: nars.storage.NARSBatch.NARSBatch Pages: 1 -->
<svg width="762pt" height="88pt"
 viewBox="0.00 0.00 762.00 88.00" xmlns="http://www.w3.org/2000/svg" xmlns:xlink="http://www.w3.org/1999/xlink">
<g id="graph0" class="graph" transform="scale(1 1) rotate(0) translate(4 84)">
<title>nars.storage.NARSBatch.NARSBatch</title>
<!-- Node0 -->
<g id="node1" class="node"><title>Node0</title>
<polygon fill="#bfbfbf" stroke="black" points="0,-30 0,-49 185,-49 185,-30 0,-30"/>
<text text-anchor="middle" x="92.5" y="-37" font-family="Helvetica,sans-Serif" font-size="10.00">nars.storage.NARSBatch.NARSBatch</text>
</g>
<!-- Node1 -->
<g id="node2" class="node"><title>Node1</title>
<g id="a_node2"><a xlink:href="../../d9/da1/a00396.html#a084e3f56fc018f145bc73c5e91067467" target="_top" xlink:title="initialize from an input file ">
<polygon fill="none" stroke="black" points="221,-30 221,-49 364,-49 364,-30 221,-30"/>
<text text-anchor="middle" x="292.5" y="-37" font-family="Helvetica,sans-Serif" font-size="10.00">nars.storage.NARSBatch.init</text>
</a>
</g>
</g>
<!-- Node0&#45;&gt;Node1 -->
<g id="edge1" class="edge"><title>Node0&#45;&gt;Node1</title>
<path fill="none" stroke="midnightblue" d="M185.255,-39.5C193.741,-39.5 202.299,-39.5 210.676,-39.5"/>
<polygon fill="midnightblue" stroke="midnightblue" points="210.79,-43.0001 220.789,-39.5 210.789,-36.0001 210.79,-43.0001"/>
</g>
<!-- Node2 -->
<g id="node3" class="node"><title>Node2</title>
<g id="a_node3"><a xlink:href="../../d9/dd6/a00272.html#a9f3c8bc8f7309340a49f51ff680811dd" target="_top" xlink:title="Open an input experience file with a FileDialog. ">
<polygon fill="none" stroke="black" points="403.5,-49.5 403.5,-79.5 556.5,-79.5 556.5,-49.5 403.5,-49.5"/>
<text text-anchor="start" x="411.5" y="-67.5" font-family="Helvetica,sans-Serif" font-size="10.00">nars.io.ExperienceReader.open</text>
<text text-anchor="middle" x="480" y="-56.5" font-family="Helvetica,sans-Serif" font-size="10.00">LoadFile</text>
</a>
</g>
</g>
<!-- Node1&#45;&gt;Node2 -->
<g id="edge2" class="edge"><title>Node1&#45;&gt;Node2</title>
<path fill="none" stroke="midnightblue" d="M364.159,-49.0227C373.658,-50.3029 383.485,-51.6273 393.209,-52.9379"/>
<polygon fill="midnightblue" stroke="midnightblue" points="392.91,-56.4291 403.288,-54.2962 393.845,-49.4918 392.91,-56.4291"/>
</g>
<!-- Node3 -->
<g id="node4" class="node"><title>Node3</title>
<g id="a_node4"><a xlink:href="../../df/d15/a00416.html#af0d8bb4c094b539b353d3294cff244fd" target="_top" xlink:title="nars.storage.ReasonerBatch.add\lOutputChannel">
<polygon fill="none" stroke="black" points="400,-0.5 400,-30.5 560,-30.5 560,-0.5 400,-0.5"/>
<text text-anchor="start" x="408" y="-18.5" font-family="Helvetica,sans-Serif" font-size="10.00">nars.storage.ReasonerBatch.add</text>
<text text-anchor="middle" x="480" y="-7.5" font-family="Helvetica,sans-Serif" font-size="10.00">OutputChannel</text>
</a>
</g>
</g>
<!-- Node1&#45;&gt;Node3 -->
<g id="edge3" class="edge"><title>Node1&#45;&gt;Node3</title>
<path fill="none" stroke="midnightblue" d="M364.159,-30.3582C372.548,-29.2728 381.193,-28.1542 389.798,-27.0409"/>
<polygon fill="midnightblue" stroke="midnightblue" points="390.394,-30.4931 399.863,-25.7388 389.496,-23.5509 390.394,-30.4931"/>
</g>
<!-- Node4 -->
<g id="node5" class="node"><title>Node4</title>
<g id="a_node5"><a xlink:href="../../df/d15/a00416.html#a8fe5b5d05200c4c4af03c606a64a034f" target="_top" xlink:title="The output channels of the reasoner. ">
<polygon fill="none" stroke="black" points="596,-0.5 596,-30.5 754,-30.5 754,-0.5 596,-0.5"/>
<text text-anchor="start" x="604" y="-18.5" font-family="Helvetica,sans-Serif" font-size="10.00">nars.storage.ReasonerBatch.get</text>
<text text-anchor="middle" x="675" y="-7.5" font-family="Helvetica,sans-Serif" font-size="10.00">OutputChannels</text>
</a>
</g>
</g>
<!-- Node3&#45;&gt;Node4 -->
<g id="edge4" class="edge"><title>Node3&#45;&gt;Node4</title>
<path fill="none" stroke="midnightblue" d="M560.057,-15.5C568.42,-15.5 576.964,-15.5 585.426,-15.5"/>
<polygon fill="midnightblue" stroke="midnightblue" points="585.69,-19.0001 595.69,-15.5 585.69,-12.0001 585.69,-19.0001"/>
</g>
</g>
</svg>
