<?xml version="1.0" encoding="UTF-8" standalone="no"?>
<!DOCTYPE svg PUBLIC "-//W3C//DTD SVG 1.1//EN"
 "http://www.w3.org/Graphics/SVG/1.1/DTD/svg11.dtd">
<!-- Generated by graphviz version 2.38.0 (20140413.2041)
 -->
<!-- Title: nars.language.IntersectionExt.make Pages: 1 -->
<svg width="591pt" height="197pt"
 viewBox="0.00 0.00 591.00 196.50" xmlns="http://www.w3.org/2000/svg" xmlns:xlink="http://www.w3.org/1999/xlink">
<g id="graph0" class="graph" transform="scale(1 1) rotate(0) translate(4 192.5)">
<title>nars.language.IntersectionExt.make</title>
<!-- Node62 -->
<g id="node1" class="node"><title>Node62</title>
<polygon fill="#bfbfbf" stroke="black" points="0,-84 0,-114 131,-114 131,-84 0,-84"/>
<text text-anchor="start" x="8" y="-102" font-family="Helvetica,sans-Serif" font-size="10.00">nars.language.Intersection</text>
<text text-anchor="middle" x="65.5" y="-91" font-family="Helvetica,sans-Serif" font-size="10.00">Ext.make</text>
</g>
<!-- Node63 -->
<g id="node2" class="node"><title>Node63</title>
<g id="a_node2"><a xlink:href="../../d4/db5/a00328.html#ac8507d8fd4891b78c7979f63b0e377db" target="_top" xlink:title="Constructor with partial values, called by make. ">
<polygon fill="none" stroke="black" points="190,-158 190,-188 321,-188 321,-158 190,-158"/>
<text text-anchor="start" x="198" y="-176" font-family="Helvetica,sans-Serif" font-size="10.00">nars.language.Intersection</text>
<text text-anchor="middle" x="255.5" y="-165" font-family="Helvetica,sans-Serif" font-size="10.00">Ext.IntersectionExt</text>
</a>
</g>
</g>
<!-- Node62&#45;&gt;Node63 -->
<g id="edge1" class="edge"><title>Node62&#45;&gt;Node63</title>
<path fill="none" stroke="midnightblue" d="M93.1585,-114.043C113.053,-124.826 141.147,-139.13 167,-149 172.468,-151.087 178.192,-153.074 183.982,-154.946"/>
<polygon fill="midnightblue" stroke="midnightblue" points="183.169,-158.358 193.757,-157.985 185.247,-151.674 183.169,-158.358"/>
</g>
<!-- Node64 -->
<g id="node3" class="node"><title>Node64</title>
<g id="a_node3"><a xlink:href="../../d8/d17/a00304.html#a8d1e610c509fa096c6b52eb5fe06d59b" target="_top" xlink:title="default method to make the oldName of a compound term from given fields ">
<polygon fill="none" stroke="black" points="167,-109 167,-139 344,-139 344,-109 167,-109"/>
<text text-anchor="start" x="175" y="-127" font-family="Helvetica,sans-Serif" font-size="10.00">nars.language.CompoundTerm.make</text>
<text text-anchor="middle" x="255.5" y="-116" font-family="Helvetica,sans-Serif" font-size="10.00">CompoundName</text>
</a>
</g>
</g>
<!-- Node62&#45;&gt;Node64 -->
<g id="edge2" class="edge"><title>Node62&#45;&gt;Node64</title>
<path fill="none" stroke="midnightblue" d="M131.199,-107.604C139.444,-108.7 148.023,-109.841 156.645,-110.987"/>
<polygon fill="midnightblue" stroke="midnightblue" points="156.395,-114.485 166.77,-112.334 157.318,-107.546 156.395,-114.485"/>
</g>
<!-- Node67 -->
<g id="node6" class="node"><title>Node67</title>
<g id="a_node6"><a xlink:href="../../d4/d27/a00392.html#ac7c5d438820208253d1a2ee59bf80ddc" target="_top" xlink:title="Get a Term for a given name of a Concept or Operator. ">
<polygon fill="none" stroke="black" points="187.5,-60 187.5,-90 323.5,-90 323.5,-60 187.5,-60"/>
<text text-anchor="start" x="195.5" y="-78" font-family="Helvetica,sans-Serif" font-size="10.00">nars.storage.Memory.name</text>
<text text-anchor="middle" x="255.5" y="-67" font-family="Helvetica,sans-Serif" font-size="10.00">ToListedTerm</text>
</a>
</g>
</g>
<!-- Node62&#45;&gt;Node67 -->
<g id="edge6" class="edge"><title>Node62&#45;&gt;Node67</title>
<path fill="none" stroke="midnightblue" d="M131.199,-90.7406C146.098,-88.8386 162.088,-86.7972 177.453,-84.8357"/>
<polygon fill="midnightblue" stroke="midnightblue" points="177.966,-88.2988 187.443,-83.5605 177.08,-81.3551 177.966,-88.2988"/>
</g>
<!-- Node71 -->
<g id="node10" class="node"><title>Node71</title>
<g id="a_node10"><a xlink:href="../../d8/d17/a00304.html#ac81c5851f664320ddec435641f198b03" target="_top" xlink:title="get the number of components ">
<polygon fill="none" stroke="black" points="170,-21.5 170,-40.5 341,-40.5 341,-21.5 170,-21.5"/>
<text text-anchor="middle" x="255.5" y="-28.5" font-family="Helvetica,sans-Serif" font-size="10.00">nars.language.CompoundTerm.size</text>
</a>
</g>
</g>
<!-- Node62&#45;&gt;Node71 -->
<g id="edge10" class="edge"><title>Node62&#45;&gt;Node71</title>
<path fill="none" stroke="midnightblue" d="M93.0454,-83.8751C112.884,-73.1179 140.957,-59.0293 167,-50 174.622,-47.3573 182.751,-45.0052 190.866,-42.9345"/>
<polygon fill="midnightblue" stroke="midnightblue" points="191.828,-46.3027 200.724,-40.5476 190.181,-39.4993 191.828,-46.3027"/>
</g>
<!-- Node65 -->
<g id="node4" class="node"><title>Node65</title>
<g id="a_node4"><a xlink:href="../../d8/d17/a00304.html#a89000afae8017231889aaa549292d1e0" target="_top" xlink:title="Default constructor. ">
<polygon fill="none" stroke="black" points="405,-153 405,-183 558,-183 558,-153 405,-153"/>
<text text-anchor="start" x="413" y="-171" font-family="Helvetica,sans-Serif" font-size="10.00">nars.language.CompoundTerm.</text>
<text text-anchor="middle" x="481.5" y="-160" font-family="Helvetica,sans-Serif" font-size="10.00">CompoundTerm</text>
</a>
</g>
</g>
<!-- Node64&#45;&gt;Node65 -->
<g id="edge3" class="edge"><title>Node64&#45;&gt;Node65</title>
<path fill="none" stroke="midnightblue" d="M332.962,-139.019C352.893,-142.934 374.501,-147.179 394.873,-151.18"/>
<polygon fill="midnightblue" stroke="midnightblue" points="394.276,-154.63 404.763,-153.123 395.625,-147.761 394.276,-154.63"/>
</g>
<!-- Node66 -->
<g id="node5" class="node"><title>Node66</title>
<g id="a_node5"><a xlink:href="../../d8/d17/a00304.html#aa26a304f6249c185836d8fde8b8f17a8" target="_top" xlink:title="default method to make the oldName of the current term from existing fields ">
<polygon fill="none" stroke="black" points="380,-114.5 380,-133.5 583,-133.5 583,-114.5 380,-114.5"/>
<text text-anchor="middle" x="481.5" y="-121.5" font-family="Helvetica,sans-Serif" font-size="10.00">nars.language.CompoundTerm.makeName</text>
</a>
</g>
</g>
<!-- Node64&#45;&gt;Node66 -->
<g id="edge4" class="edge"><title>Node64&#45;&gt;Node66</title>
<path fill="none" stroke="midnightblue" d="M344.067,-117.395C352.533,-117.293 361.196,-117.245 369.848,-117.25"/>
<polygon fill="midnightblue" stroke="midnightblue" points="369.976,-120.751 379.987,-117.282 369.998,-113.751 369.976,-120.751"/>
</g>
<!-- Node66&#45;&gt;Node64 -->
<g id="edge5" class="edge"><title>Node66&#45;&gt;Node64</title>
<path fill="none" stroke="midnightblue" d="M379.987,-130.718C371.375,-130.766 362.672,-130.76 354.083,-130.7"/>
<polygon fill="midnightblue" stroke="midnightblue" points="354.099,-127.2 344.067,-130.605 354.033,-134.2 354.099,-127.2"/>
</g>
<!-- Node68 -->
<g id="node7" class="node"><title>Node68</title>
<g id="a_node7"><a xlink:href="../../d4/d27/a00392.html#a33af7b3d806d32c85390563fec3c6d27" target="_top" xlink:title="Concept bag. ">
<polygon fill="none" stroke="black" points="398,-76.5 398,-95.5 565,-95.5 565,-76.5 398,-76.5"/>
<text text-anchor="middle" x="481.5" y="-83.5" font-family="Helvetica,sans-Serif" font-size="10.00">nars.storage.Memory.getConcepts</text>
</a>
</g>
</g>
<!-- Node67&#45;&gt;Node68 -->
<g id="edge7" class="edge"><title>Node67&#45;&gt;Node68</title>
<path fill="none" stroke="midnightblue" d="M323.707,-78.3004C343.844,-79.2892 366.292,-80.3916 387.767,-81.4462"/>
<polygon fill="midnightblue" stroke="midnightblue" points="387.724,-84.9482 397.884,-81.9429 388.067,-77.9566 387.724,-84.9482"/>
</g>
<!-- Node69 -->
<g id="node8" class="node"><title>Node69</title>
<g id="a_node8"><a xlink:href="../../d6/db8/a00376.html#a011b37fc683db7fb7b41e33712a37d92" target="_top" xlink:title="Get an Item by key. ">
<polygon fill="none" stroke="black" points="428,-38.5 428,-57.5 535,-57.5 535,-38.5 428,-38.5"/>
<text text-anchor="middle" x="481.5" y="-45.5" font-family="Helvetica,sans-Serif" font-size="10.00">nars.storage.Bag.get</text>
</a>
</g>
</g>
<!-- Node67&#45;&gt;Node69 -->
<g id="edge8" class="edge"><title>Node67&#45;&gt;Node69</title>
<path fill="none" stroke="midnightblue" d="M323.707,-66.8991C353.564,-63.3003 388.505,-59.0886 417.816,-55.5557"/>
<polygon fill="midnightblue" stroke="midnightblue" points="418.422,-59.0081 427.931,-54.3364 417.584,-52.0584 418.422,-59.0081"/>
</g>
<!-- Node70 -->
<g id="node9" class="node"><title>Node70</title>
<g id="a_node9"><a xlink:href="../../d7/ded/a00196.html#afcd1217b7680b073fa51f0d0f159dcea" target="_top" xlink:title="The term is the unique ID of the concept. ">
<polygon fill="none" stroke="black" points="411,-0.5 411,-19.5 552,-19.5 552,-0.5 411,-0.5"/>
<text text-anchor="middle" x="481.5" y="-7.5" font-family="Helvetica,sans-Serif" font-size="10.00">nars.entity.Concept.getTerm</text>
</a>
</g>
</g>
<!-- Node67&#45;&gt;Node70 -->
<g id="edge9" class="edge"><title>Node67&#45;&gt;Node70</title>
<path fill="none" stroke="midnightblue" d="M316.968,-59.8688C326.157,-56.9566 335.426,-53.6572 344,-50 361.038,-42.7324 362.648,-35.4812 380,-29 387.252,-26.2915 394.948,-23.9544 402.727,-21.9409"/>
<polygon fill="midnightblue" stroke="midnightblue" points="403.697,-25.3073 412.597,-19.5599 402.056,-18.5025 403.697,-25.3073"/>
</g>
</g>
</svg>
