<?xml version="1.0" encoding="UTF-8" standalone="no"?>
<!DOCTYPE svg PUBLIC "-//W3C//DTD SVG 1.1//EN"
 "http://www.w3.org/Graphics/SVG/1.1/DTD/svg11.dtd">
<!-- Generated by graphviz version 2.38.0 (20140413.2041)
 -->
<!-- Title: nars.language.IntersectionExt.make Pages: 1 -->
<svg width="791pt" height="203pt"
 viewBox="0.00 0.00 791.00 203.00" xmlns="http://www.w3.org/2000/svg" xmlns:xlink="http://www.w3.org/1999/xlink">
<g id="graph0" class="graph" transform="scale(1 1) rotate(0) translate(4 199)">
<title>nars.language.IntersectionExt.make</title>
<!-- Node27 -->
<g id="node1" class="node"><title>Node27</title>
<polygon fill="#bfbfbf" stroke="black" points="0,-77 0,-107 131,-107 131,-77 0,-77"/>
<text text-anchor="start" x="8" y="-95" font-family="Helvetica,sans-Serif" font-size="10.00">nars.language.Intersection</text>
<text text-anchor="middle" x="65.5" y="-84" font-family="Helvetica,sans-Serif" font-size="10.00">Ext.make</text>
</g>
<!-- Node28 -->
<g id="node2" class="node"><title>Node28</title>
<g id="a_node2"><a xlink:href="../../dc/d59/a00364.html#ae2dba162b71bb9b806f54832249a260c" target="_top" xlink:title="Make a new Term with the same name. ">
<polygon fill="none" stroke="black" points="190.5,-175.5 190.5,-194.5 319.5,-194.5 319.5,-175.5 190.5,-175.5"/>
<text text-anchor="middle" x="255" y="-182.5" font-family="Helvetica,sans-Serif" font-size="10.00">nars.language.Term.clone</text>
</a>
</g>
</g>
<!-- Node27&#45;&gt;Node28 -->
<g id="edge1" class="edge"><title>Node27&#45;&gt;Node28</title>
<path fill="none" stroke="midnightblue" d="M82.5409,-107.205C101.309,-124.139 134.032,-151.085 167,-166 172.639,-168.551 178.641,-170.769 184.756,-172.695"/>
<polygon fill="midnightblue" stroke="midnightblue" points="183.843,-176.074 194.421,-175.488 185.786,-169.35 183.843,-176.074"/>
</g>
<!-- Node30 -->
<g id="node4" class="node"><title>Node30</title>
<g id="a_node4"><a xlink:href="../../d8/d17/a00304.html#a5a2d25a17f77d898268e1637a3aa9c4d" target="_top" xlink:title="Clone the component list. ">
<polygon fill="none" stroke="black" points="167,-126 167,-156 343,-156 343,-126 167,-126"/>
<text text-anchor="start" x="175" y="-144" font-family="Helvetica,sans-Serif" font-size="10.00">nars.language.CompoundTerm.clone</text>
<text text-anchor="middle" x="255" y="-133" font-family="Helvetica,sans-Serif" font-size="10.00">Components</text>
</a>
</g>
</g>
<!-- Node27&#45;&gt;Node30 -->
<g id="edge3" class="edge"><title>Node27&#45;&gt;Node30</title>
<path fill="none" stroke="midnightblue" d="M124.03,-107.035C143.828,-112.208 166.172,-118.048 186.678,-123.407"/>
<polygon fill="midnightblue" stroke="midnightblue" points="186.018,-126.852 196.578,-125.994 187.788,-120.079 186.018,-126.852"/>
</g>
<!-- Node33 -->
<g id="node7" class="node"><title>Node33</title>
<g id="a_node7"><a xlink:href="../../d8/d17/a00304.html#a89000afae8017231889aaa549292d1e0" target="_top" xlink:title="Default constructor. ">
<polygon fill="none" stroke="black" points="178.5,-77 178.5,-107 331.5,-107 331.5,-77 178.5,-77"/>
<text text-anchor="start" x="186.5" y="-95" font-family="Helvetica,sans-Serif" font-size="10.00">nars.language.CompoundTerm.</text>
<text text-anchor="middle" x="255" y="-84" font-family="Helvetica,sans-Serif" font-size="10.00">CompoundTerm</text>
</a>
</g>
</g>
<!-- Node27&#45;&gt;Node33 -->
<g id="edge6" class="edge"><title>Node27&#45;&gt;Node33</title>
<path fill="none" stroke="midnightblue" d="M131.027,-92C143.063,-92 155.814,-92 168.369,-92"/>
<polygon fill="midnightblue" stroke="midnightblue" points="168.378,-95.5001 178.378,-92 168.378,-88.5001 168.378,-95.5001"/>
</g>
<!-- Node34 -->
<g id="node8" class="node"><title>Node34</title>
<g id="a_node8"><a xlink:href="../../d6/d9c/a00352.html#aaea0f2cc2ca804779d1bf346beb58fa1" target="_top" xlink:title="Try to make a new set from one component. ">
<polygon fill="none" stroke="black" points="188,-38.5 188,-57.5 322,-57.5 322,-38.5 188,-38.5"/>
<text text-anchor="middle" x="255" y="-45.5" font-family="Helvetica,sans-Serif" font-size="10.00">nars.language.SetInt.make</text>
</a>
</g>
</g>
<!-- Node27&#45;&gt;Node34 -->
<g id="edge7" class="edge"><title>Node27&#45;&gt;Node34</title>
<path fill="none" stroke="midnightblue" d="M129.205,-76.9392C141.72,-73.9576 154.774,-70.865 167,-68 178.321,-65.3471 190.478,-62.5315 202.009,-59.8763"/>
<polygon fill="midnightblue" stroke="midnightblue" points="202.983,-63.2438 211.945,-57.5924 201.415,-56.4217 202.983,-63.2438"/>
</g>
<!-- Node35 -->
<g id="node9" class="node"><title>Node35</title>
<g id="a_node9"><a xlink:href="../../df/d03/a00348.html#aa8f6526a59c3d7e578dd76a0eab75a0e" target="_top" xlink:title="Try to make a new set from one component. ">
<polygon fill="none" stroke="black" points="186.5,-0.5 186.5,-19.5 323.5,-19.5 323.5,-0.5 186.5,-0.5"/>
<text text-anchor="middle" x="255" y="-7.5" font-family="Helvetica,sans-Serif" font-size="10.00">nars.language.SetExt.make</text>
</a>
</g>
</g>
<!-- Node27&#45;&gt;Node35 -->
<g id="edge8" class="edge"><title>Node27&#45;&gt;Node35</title>
<path fill="none" stroke="midnightblue" d="M86.1637,-76.7763C105.654,-62.4106 136.876,-41.294 167,-29 173.251,-26.4488 179.901,-24.2151 186.633,-22.2649"/>
<polygon fill="midnightblue" stroke="midnightblue" points="187.768,-25.5839 196.516,-19.6063 185.95,-18.8242 187.768,-25.5839"/>
</g>
<!-- Node29 -->
<g id="node3" class="node"><title>Node29</title>
<g id="a_node3"><a xlink:href="../../dc/d59/a00364.html#a2d9973aada6190dd60b48a34448094c9" target="_top" xlink:title="Default constructor that build an internal Term. ">
<polygon fill="none" stroke="black" points="411,-175.5 411,-194.5 539,-194.5 539,-175.5 411,-175.5"/>
<text text-anchor="middle" x="475" y="-182.5" font-family="Helvetica,sans-Serif" font-size="10.00">nars.language.Term.Term</text>
</a>
</g>
</g>
<!-- Node28&#45;&gt;Node29 -->
<g id="edge2" class="edge"><title>Node28&#45;&gt;Node29</title>
<path fill="none" stroke="midnightblue" d="M319.641,-185C344.937,-185 374.2,-185 400.401,-185"/>
<polygon fill="midnightblue" stroke="midnightblue" points="400.657,-188.5 410.657,-185 400.657,-181.5 400.657,-188.5"/>
</g>
<!-- Node31 -->
<g id="node5" class="node"><title>Node31</title>
<g id="a_node5"><a xlink:href="../../d8/d17/a00304.html#a9cb7736a3f6b220d75366ab146488773" target="_top" xlink:title="Deep clone an array list of terms. ">
<polygon fill="none" stroke="black" points="379,-131.5 379,-150.5 571,-150.5 571,-131.5 379,-131.5"/>
<text text-anchor="middle" x="475" y="-138.5" font-family="Helvetica,sans-Serif" font-size="10.00">nars.language.CompoundTerm.cloneList</text>
</a>
</g>
</g>
<!-- Node30&#45;&gt;Node31 -->
<g id="edge4" class="edge"><title>Node30&#45;&gt;Node31</title>
<path fill="none" stroke="midnightblue" d="M343.099,-141C351.538,-141 360.16,-141 368.75,-141"/>
<polygon fill="midnightblue" stroke="midnightblue" points="368.808,-144.5 378.808,-141 368.807,-137.5 368.808,-144.5"/>
</g>
<!-- Node32 -->
<g id="node6" class="node"><title>Node32</title>
<g id="a_node6"><a xlink:href="../../d8/d17/a00304.html#a963e8aef1163f4ed8c364b5e448deaff" target="_top" xlink:title="Abstract clone method. ">
<polygon fill="none" stroke="black" points="607,-131.5 607,-150.5 783,-150.5 783,-131.5 607,-131.5"/>
<text text-anchor="middle" x="695" y="-138.5" font-family="Helvetica,sans-Serif" font-size="10.00">nars.language.CompoundTerm.clone</text>
</a>
</g>
</g>
<!-- Node31&#45;&gt;Node32 -->
<g id="edge5" class="edge"><title>Node31&#45;&gt;Node32</title>
<path fill="none" stroke="midnightblue" d="M571.301,-141C579.69,-141 588.19,-141 596.597,-141"/>
<polygon fill="midnightblue" stroke="midnightblue" points="596.791,-144.5 606.791,-141 596.791,-137.5 596.791,-144.5"/>
</g>
</g>
</svg>
