<?xml version="1.0" encoding="UTF-8" standalone="no"?>
<!DOCTYPE svg PUBLIC "-//W3C//DTD SVG 1.1//EN"
 "http://www.w3.org/Graphics/SVG/1.1/DTD/svg11.dtd">
<!-- Generated by graphviz version 2.38.0 (20140413.2041)
 -->
<!-- Title: nars.language.Similarity Pages: 1 -->
<svg width="280pt" height="252pt"
 viewBox="0.00 0.00 279.50 252.00" xmlns="http://www.w3.org/2000/svg" xmlns:xlink="http://www.w3.org/1999/xlink">
<g id="graph0" class="graph" transform="scale(1 1) rotate(0) translate(4 248)">
<title>nars.language.Similarity</title>
<!-- Node0 -->
<g id="node1" class="node"><title>Node0</title>
<polygon fill="#bfbfbf" stroke="black" points="72.5,-0.5 72.5,-19.5 193.5,-19.5 193.5,-0.5 72.5,-0.5"/>
<text text-anchor="middle" x="133" y="-7.5" font-family="Helvetica,sans-Serif" font-size="10.00">nars.language.Similarity</text>
</g>
<!-- Node1 -->
<g id="node2" class="node"><title>Node1</title>
<g id="a_node2"><a xlink:href="../../d0/d65/a00360.html" target="_top" xlink:title="A statement is a compound term, consisting of a subject, a predicate, and a relation symbol in betwee...">
<polygon fill="none" stroke="black" points="70.5,-56.5 70.5,-75.5 195.5,-75.5 195.5,-56.5 70.5,-56.5"/>
<text text-anchor="middle" x="133" y="-63.5" font-family="Helvetica,sans-Serif" font-size="10.00">nars.language.Statement</text>
</a>
</g>
</g>
<!-- Node1&#45;&gt;Node0 -->
<g id="edge1" class="edge"><title>Node1&#45;&gt;Node0</title>
<path fill="none" stroke="midnightblue" d="M133,-45.8045C133,-36.9102 133,-26.7798 133,-19.7511"/>
<polygon fill="midnightblue" stroke="midnightblue" points="129.5,-46.083 133,-56.083 136.5,-46.083 129.5,-46.083"/>
</g>
<!-- Node2 -->
<g id="node3" class="node"><title>Node2</title>
<g id="a_node3"><a xlink:href="../../d8/d17/a00304.html" target="_top" xlink:title="A CompoundTerm is a Term with internal (syntactic) structure. ">
<polygon fill="none" stroke="black" points="58,-112.5 58,-131.5 208,-131.5 208,-112.5 58,-112.5"/>
<text text-anchor="middle" x="133" y="-119.5" font-family="Helvetica,sans-Serif" font-size="10.00">nars.language.CompoundTerm</text>
</a>
</g>
</g>
<!-- Node2&#45;&gt;Node1 -->
<g id="edge2" class="edge"><title>Node2&#45;&gt;Node1</title>
<path fill="none" stroke="midnightblue" d="M133,-101.805C133,-92.9102 133,-82.7798 133,-75.7511"/>
<polygon fill="midnightblue" stroke="midnightblue" points="129.5,-102.083 133,-112.083 136.5,-102.083 129.5,-102.083"/>
</g>
<!-- Node3 -->
<g id="node4" class="node"><title>Node3</title>
<g id="a_node4"><a xlink:href="../../dc/d59/a00364.html" target="_top" xlink:title="Term is the basic component of Narsese, and the object of processing in NARS. ">
<polygon fill="none" stroke="black" points="81.5,-168.5 81.5,-187.5 184.5,-187.5 184.5,-168.5 81.5,-168.5"/>
<text text-anchor="middle" x="133" y="-175.5" font-family="Helvetica,sans-Serif" font-size="10.00">nars.language.Term</text>
</a>
</g>
</g>
<!-- Node3&#45;&gt;Node2 -->
<g id="edge3" class="edge"><title>Node3&#45;&gt;Node2</title>
<path fill="none" stroke="midnightblue" d="M133,-157.805C133,-148.91 133,-138.78 133,-131.751"/>
<polygon fill="midnightblue" stroke="midnightblue" points="129.5,-158.083 133,-168.083 136.5,-158.083 129.5,-158.083"/>
</g>
<!-- Node4 -->
<g id="node5" class="node"><title>Node4</title>
<polygon fill="none" stroke="#bfbfbf" points="0,-224.5 0,-243.5 60,-243.5 60,-224.5 0,-224.5"/>
<text text-anchor="middle" x="30" y="-231.5" font-family="Helvetica,sans-Serif" font-size="10.00">Cloneable</text>
</g>
<!-- Node4&#45;&gt;Node3 -->
<g id="edge4" class="edge"><title>Node4&#45;&gt;Node3</title>
<path fill="none" stroke="midnightblue" d="M55.5792,-219.59C74.6234,-209.605 100.064,-196.267 116.492,-187.655"/>
<polygon fill="midnightblue" stroke="midnightblue" points="53.7802,-216.581 46.5487,-224.324 57.0305,-222.78 53.7802,-216.581"/>
</g>
<!-- Node5 -->
<g id="node6" class="node"><title>Node5</title>
<polygon fill="none" stroke="#bfbfbf" points="78,-224.5 78,-243.5 188,-243.5 188,-224.5 78,-224.5"/>
<text text-anchor="middle" x="133" y="-231.5" font-family="Helvetica,sans-Serif" font-size="10.00">Comparable&lt; Term &gt;</text>
</g>
<!-- Node5&#45;&gt;Node3 -->
<g id="edge5" class="edge"><title>Node5&#45;&gt;Node3</title>
<path fill="none" stroke="midnightblue" d="M133,-213.805C133,-204.91 133,-194.78 133,-187.751"/>
<polygon fill="midnightblue" stroke="midnightblue" points="129.5,-214.083 133,-224.083 136.5,-214.083 129.5,-214.083"/>
</g>
<!-- Node6 -->
<g id="node7" class="node"><title>Node6</title>
<polygon fill="none" stroke="#bfbfbf" points="206.5,-224.5 206.5,-243.5 271.5,-243.5 271.5,-224.5 206.5,-224.5"/>
<text text-anchor="middle" x="239" y="-231.5" font-family="Helvetica,sans-Serif" font-size="10.00">TermStruct</text>
</g>
<!-- Node6&#45;&gt;Node3 -->
<g id="edge6" class="edge"><title>Node6&#45;&gt;Node3</title>
<path fill="none" stroke="midnightblue" d="M212.944,-219.726C193.316,-209.727 166.972,-196.307 149.988,-187.655"/>
<polygon fill="midnightblue" stroke="midnightblue" points="211.47,-222.903 221.969,-224.324 214.648,-216.666 211.47,-222.903"/>
</g>
</g>
</svg>
