<?xml version="1.0" encoding="UTF-8" standalone="no"?>
<!DOCTYPE svg PUBLIC "-//W3C//DTD SVG 1.1//EN"
 "http://www.w3.org/Graphics/SVG/1.1/DTD/svg11.dtd">
<!-- Generated by graphviz version 2.38.0 (20140413.2041)
 -->
<!-- Title: nars.io.ExperienceWriter.openSaveFile Pages: 1 -->
<svg width="546pt" height="39pt"
 viewBox="0.00 0.00 546.00 39.00" xmlns="http://www.w3.org/2000/svg" xmlns:xlink="http://www.w3.org/1999/xlink">
<g id="graph0" class="graph" transform="scale(1 1) rotate(0) translate(4 35)">
<title>nars.io.ExperienceWriter.openSaveFile</title>
<!-- Node10 -->
<g id="node1" class="node"><title>Node10</title>
<polygon fill="#bfbfbf" stroke="black" points="0,-0.5 0,-30.5 148,-30.5 148,-0.5 0,-0.5"/>
<text text-anchor="start" x="8" y="-18.5" font-family="Helvetica,sans-Serif" font-size="10.00">nars.io.ExperienceWriter.open</text>
<text text-anchor="middle" x="74" y="-7.5" font-family="Helvetica,sans-Serif" font-size="10.00">SaveFile</text>
</g>
<!-- Node11 -->
<g id="node2" class="node"><title>Node11</title>
<g id="a_node2"><a xlink:href="../../df/d15/a00416.html#af0d8bb4c094b539b353d3294cff244fd" target="_top" xlink:title="nars.storage.ReasonerBatch.add\lOutputChannel">
<polygon fill="none" stroke="black" points="184,-0.5 184,-30.5 344,-30.5 344,-0.5 184,-0.5"/>
<text text-anchor="start" x="192" y="-18.5" font-family="Helvetica,sans-Serif" font-size="10.00">nars.storage.ReasonerBatch.add</text>
<text text-anchor="middle" x="264" y="-7.5" font-family="Helvetica,sans-Serif" font-size="10.00">OutputChannel</text>
</a>
</g>
</g>
<!-- Node10&#45;&gt;Node11 -->
<g id="edge1" class="edge"><title>Node10&#45;&gt;Node11</title>
<path fill="none" stroke="midnightblue" d="M148.224,-15.5C156.507,-15.5 165.016,-15.5 173.477,-15.5"/>
<polygon fill="midnightblue" stroke="midnightblue" points="173.754,-19.0001 183.754,-15.5 173.754,-12.0001 173.754,-19.0001"/>
</g>
<!-- Node12 -->
<g id="node3" class="node"><title>Node12</title>
<g id="a_node3"><a xlink:href="../../df/d15/a00416.html#a8fe5b5d05200c4c4af03c606a64a034f" target="_top" xlink:title="The output channels of the reasoner. ">
<polygon fill="none" stroke="black" points="380,-0.5 380,-30.5 538,-30.5 538,-0.5 380,-0.5"/>
<text text-anchor="start" x="388" y="-18.5" font-family="Helvetica,sans-Serif" font-size="10.00">nars.storage.ReasonerBatch.get</text>
<text text-anchor="middle" x="459" y="-7.5" font-family="Helvetica,sans-Serif" font-size="10.00">OutputChannels</text>
</a>
</g>
</g>
<!-- Node11&#45;&gt;Node12 -->
<g id="edge2" class="edge"><title>Node11&#45;&gt;Node12</title>
<path fill="none" stroke="midnightblue" d="M344.057,-15.5C352.42,-15.5 360.964,-15.5 369.426,-15.5"/>
<polygon fill="midnightblue" stroke="midnightblue" points="369.69,-19.0001 379.69,-15.5 369.69,-12.0001 369.69,-19.0001"/>
</g>
</g>
</svg>
