<?xml version="1.0" encoding="UTF-8" standalone="no"?>
<!DOCTYPE svg PUBLIC "-//W3C//DTD SVG 1.1//EN"
 "http://www.w3.org/Graphics/SVG/1.1/DTD/svg11.dtd">
<!-- Generated by graphviz version 2.38.0 (20140413.2041)
 -->
<!-- Title: nars.inference.CompositionalRules.decomposeCompound Pages: 1 -->
<svg width="2425pt" height="39pt"
 viewBox="0.00 0.00 2425.00 39.00" xmlns="http://www.w3.org/2000/svg" xmlns:xlink="http://www.w3.org/1999/xlink">
<g id="graph0" class="graph" transform="scale(1 1) rotate(0) translate(4 35)">
<title>nars.inference.CompositionalRules.decomposeCompound</title>
<!-- Node209 -->
<g id="node1" class="node"><title>Node209</title>
<polygon fill="#bfbfbf" stroke="black" points="0,-0.5 0,-30.5 143,-30.5 143,-0.5 0,-0.5"/>
<text text-anchor="start" x="8" y="-18.5" font-family="Helvetica,sans-Serif" font-size="10.00">nars.inference.Compositional</text>
<text text-anchor="middle" x="71.5" y="-7.5" font-family="Helvetica,sans-Serif" font-size="10.00">Rules.decomposeCompound</text>
</g>
<!-- Node210 -->
<g id="node2" class="node"><title>Node210</title>
<g id="a_node2"><a xlink:href="../../d6/d08/a00244.html#a53f7edf7bfe7433da42e8fcf36fd6604" target="_top" xlink:title="{&lt;S ==&gt; M&gt;, ">
<polygon fill="none" stroke="black" points="179,-0.5 179,-30.5 322,-30.5 322,-0.5 179,-0.5"/>
<text text-anchor="start" x="187" y="-18.5" font-family="Helvetica,sans-Serif" font-size="10.00">nars.inference.Compositional</text>
<text text-anchor="middle" x="250.5" y="-7.5" font-family="Helvetica,sans-Serif" font-size="10.00">Rules.composeCompound</text>
</a>
</g>
</g>
<!-- Node209&#45;&gt;Node210 -->
<g id="edge1" class="edge"><title>Node209&#45;&gt;Node210</title>
<path fill="none" stroke="midnightblue" d="M153.494,-15.5C161.973,-15.5 170.544,-15.5 178.894,-15.5"/>
<polygon fill="midnightblue" stroke="midnightblue" points="153.218,-12.0001 143.218,-15.5 153.218,-19.0001 153.218,-12.0001"/>
</g>
<!-- Node211 -->
<g id="node3" class="node"><title>Node211</title>
<g id="a_node3"><a xlink:href="../../dc/ded/a00252.html#a34927349efcf87db97d23c60983b115b" target="_top" xlink:title="Syllogistic rules whose both premises are on the same asymmetric relation. ">
<polygon fill="none" stroke="black" points="358,-0.5 358,-30.5 543,-30.5 543,-0.5 358,-0.5"/>
<text text-anchor="start" x="366" y="-18.5" font-family="Helvetica,sans-Serif" font-size="10.00">nars.inference.RuleTables.asymmetric</text>
<text text-anchor="middle" x="450.5" y="-7.5" font-family="Helvetica,sans-Serif" font-size="10.00">Asymmetric</text>
</a>
</g>
</g>
<!-- Node210&#45;&gt;Node211 -->
<g id="edge2" class="edge"><title>Node210&#45;&gt;Node211</title>
<path fill="none" stroke="midnightblue" d="M332.284,-15.5C340.685,-15.5 349.267,-15.5 357.777,-15.5"/>
<polygon fill="midnightblue" stroke="midnightblue" points="332.144,-12.0001 322.144,-15.5 332.144,-19.0001 332.144,-12.0001"/>
</g>
<!-- Node212 -->
<g id="node4" class="node"><title>Node212</title>
<g id="a_node4"><a xlink:href="../../dc/ded/a00252.html#a8628d400a8ceda7fea05039ddfea319b" target="_top" xlink:title="Meta&#45;table of syllogistic rules, indexed by the content classes of the taskSentence and the belief...">
<polygon fill="none" stroke="black" points="579,-6 579,-25 759,-25 759,-6 579,-6"/>
<text text-anchor="middle" x="669" y="-13" font-family="Helvetica,sans-Serif" font-size="10.00">nars.inference.RuleTables.syllogisms</text>
</a>
</g>
</g>
<!-- Node211&#45;&gt;Node212 -->
<g id="edge3" class="edge"><title>Node211&#45;&gt;Node212</title>
<path fill="none" stroke="midnightblue" d="M553.084,-15.5C561.705,-15.5 570.383,-15.5 578.898,-15.5"/>
<polygon fill="midnightblue" stroke="midnightblue" points="553.002,-12.0001 543.002,-15.5 553.002,-19.0001 553.002,-12.0001"/>
</g>
<!-- Node213 -->
<g id="node5" class="node"><title>Node213</title>
<g id="a_node5"><a xlink:href="../../dc/ded/a00252.html#ac2d01dfdc40bdd47c757cb549217e6e3" target="_top" xlink:title="Entry point of the inference engine. ">
<polygon fill="none" stroke="black" points="795,-6 795,-25 958,-25 958,-6 795,-6"/>
<text text-anchor="middle" x="876.5" y="-13" font-family="Helvetica,sans-Serif" font-size="10.00">nars.inference.RuleTables.reason</text>
</a>
</g>
</g>
<!-- Node212&#45;&gt;Node213 -->
<g id="edge4" class="edge"><title>Node212&#45;&gt;Node213</title>
<path fill="none" stroke="midnightblue" d="M769.244,-15.5C777.792,-15.5 786.372,-15.5 794.747,-15.5"/>
<polygon fill="midnightblue" stroke="midnightblue" points="769.239,-12.0001 759.239,-15.5 769.239,-19.0001 769.239,-12.0001"/>
</g>
<!-- Node214 -->
<g id="node6" class="node"><title>Node214</title>
<g id="a_node6"><a xlink:href="../../d7/ded/a00196.html#ad6fb91dda799c3092ecb186ef24ca92a" target="_top" xlink:title="An atomic step in a concept, only called in Memory# processConcept. ">
<polygon fill="none" stroke="black" points="994,-0.5 994,-30.5 1113,-30.5 1113,-0.5 994,-0.5"/>
<text text-anchor="start" x="1002" y="-18.5" font-family="Helvetica,sans-Serif" font-size="10.00">nars.entity.Concept.fire</text>
<text text-anchor="middle" x="1053.5" y="-7.5" font-family="Helvetica,sans-Serif" font-size="10.00">FromProcessConcept</text>
</a>
</g>
</g>
<!-- Node213&#45;&gt;Node214 -->
<g id="edge5" class="edge"><title>Node213&#45;&gt;Node214</title>
<path fill="none" stroke="midnightblue" d="M968.249,-15.5C976.907,-15.5 985.523,-15.5 993.757,-15.5"/>
<polygon fill="midnightblue" stroke="midnightblue" points="968.085,-12.0001 958.085,-15.5 968.085,-19.0001 968.085,-12.0001"/>
</g>
<!-- Node215 -->
<g id="node7" class="node"><title>Node215</title>
<g id="a_node7"><a xlink:href="../../d4/d27/a00392.html#a0acc4adbf6a2462245da46bcb529746c" target="_top" xlink:title="Select a concept to fireFromProcessConcept. ">
<polygon fill="none" stroke="black" points="1149,-0.5 1149,-30.5 1295,-30.5 1295,-0.5 1149,-0.5"/>
<text text-anchor="start" x="1157" y="-18.5" font-family="Helvetica,sans-Serif" font-size="10.00">nars.storage.Memory.process</text>
<text text-anchor="middle" x="1222" y="-7.5" font-family="Helvetica,sans-Serif" font-size="10.00">Concept</text>
</a>
</g>
</g>
<!-- Node214&#45;&gt;Node215 -->
<g id="edge6" class="edge"><title>Node214&#45;&gt;Node215</title>
<path fill="none" stroke="midnightblue" d="M1123.34,-15.5C1131.75,-15.5 1140.36,-15.5 1148.82,-15.5"/>
<polygon fill="midnightblue" stroke="midnightblue" points="1123.2,-12.0001 1113.2,-15.5 1123.2,-19.0001 1123.2,-12.0001"/>
</g>
<!-- Node216 -->
<g id="node8" class="node"><title>Node216</title>
<g id="a_node8"><a xlink:href="../../d4/d27/a00392.html#a59ae339d666409988d90d29be4f73a91" target="_top" xlink:title="An atomic working workCycle of the system: process new Tasks, then fireFromProcessConcept a concept...">
<polygon fill="none" stroke="black" points="1331,-0.5 1331,-30.5 1464,-30.5 1464,-0.5 1331,-0.5"/>
<text text-anchor="start" x="1339" y="-18.5" font-family="Helvetica,sans-Serif" font-size="10.00">nars.storage.Memory.work</text>
<text text-anchor="middle" x="1397.5" y="-7.5" font-family="Helvetica,sans-Serif" font-size="10.00">Cycle</text>
</a>
</g>
</g>
<!-- Node215&#45;&gt;Node216 -->
<g id="edge7" class="edge"><title>Node215&#45;&gt;Node216</title>
<path fill="none" stroke="midnightblue" d="M1305.12,-15.5C1313.72,-15.5 1322.37,-15.5 1330.76,-15.5"/>
<polygon fill="midnightblue" stroke="midnightblue" points="1305.07,-12.0001 1295.07,-15.5 1305.07,-19.0001 1305.07,-12.0001"/>
</g>
<!-- Node217 -->
<g id="node9" class="node"><title>Node217</title>
<g id="a_node9"><a xlink:href="../../df/d15/a00416.html#a0d5c797dc17d9e8d0998852915e0f303" target="_top" xlink:title="nars.storage.ReasonerBatch.doTick">
<polygon fill="none" stroke="black" points="1500,-6 1500,-25 1673,-25 1673,-6 1500,-6"/>
<text text-anchor="middle" x="1586.5" y="-13" font-family="Helvetica,sans-Serif" font-size="10.00">nars.storage.ReasonerBatch.doTick</text>
</a>
</g>
</g>
<!-- Node216&#45;&gt;Node217 -->
<g id="edge8" class="edge"><title>Node216&#45;&gt;Node217</title>
<path fill="none" stroke="midnightblue" d="M1474.34,-15.5C1482.78,-15.5 1491.42,-15.5 1499.97,-15.5"/>
<polygon fill="midnightblue" stroke="midnightblue" points="1474.17,-12.0001 1464.17,-15.5 1474.17,-19.0001 1474.17,-12.0001"/>
</g>
<!-- Node218 -->
<g id="node10" class="node"><title>Node218</title>
<g id="a_node10"><a xlink:href="../../df/d15/a00416.html#a3468aa0f99edcd66412f27922dddb880" target="_top" xlink:title="A clock tick. ">
<polygon fill="none" stroke="black" points="1709,-6 1709,-25 1869,-25 1869,-6 1709,-6"/>
<text text-anchor="middle" x="1789" y="-13" font-family="Helvetica,sans-Serif" font-size="10.00">nars.storage.ReasonerBatch.tick</text>
</a>
</g>
</g>
<!-- Node217&#45;&gt;Node218 -->
<g id="edge9" class="edge"><title>Node217&#45;&gt;Node218</title>
<path fill="none" stroke="midnightblue" d="M1683.13,-15.5C1691.7,-15.5 1700.31,-15.5 1708.71,-15.5"/>
<polygon fill="midnightblue" stroke="midnightblue" points="1683.11,-12.0001 1673.11,-15.5 1683.11,-19.0001 1683.11,-12.0001"/>
</g>
<!-- Node219 -->
<g id="node11" class="node"><title>Node219</title>
<g id="a_node11"><a xlink:href="../../d9/da1/a00396.html#a5d9cfe517bcfbe41e5251910bcd119c1" target="_top" xlink:title="Run to completion: repeatedly execute NARS working cycle, until Inputs are Finished, or 1000 steps. ">
<polygon fill="none" stroke="black" points="1905,-6 1905,-25 2049,-25 2049,-6 1905,-6"/>
<text text-anchor="middle" x="1977" y="-13" font-family="Helvetica,sans-Serif" font-size="10.00">nars.storage.NARSBatch.run</text>
</a>
</g>
</g>
<!-- Node218&#45;&gt;Node219 -->
<g id="edge10" class="edge"><title>Node218&#45;&gt;Node219</title>
<path fill="none" stroke="midnightblue" d="M1879.22,-15.5C1887.82,-15.5 1896.47,-15.5 1904.87,-15.5"/>
<polygon fill="midnightblue" stroke="midnightblue" points="1879.15,-12.0001 1869.15,-15.5 1879.15,-19.0001 1879.15,-12.0001"/>
</g>
<!-- Node220 -->
<g id="node12" class="node"><title>Node220</title>
<g id="a_node12"><a xlink:href="../../d9/da1/a00396.html#a7c307c6b842f82664de6b0e52bdf8efc" target="_top" xlink:title="non&#45;static equivalent to main(String[]) : run to completion from an input file ">
<polygon fill="none" stroke="black" points="2085,-0.5 2085,-30.5 2229,-30.5 2229,-0.5 2085,-0.5"/>
<text text-anchor="start" x="2093" y="-18.5" font-family="Helvetica,sans-Serif" font-size="10.00">nars.storage.NARSBatch.run</text>
<text text-anchor="middle" x="2157" y="-7.5" font-family="Helvetica,sans-Serif" font-size="10.00">Inference</text>
</a>
</g>
</g>
<!-- Node219&#45;&gt;Node220 -->
<g id="edge11" class="edge"><title>Node219&#45;&gt;Node220</title>
<path fill="none" stroke="midnightblue" d="M2059.17,-15.5C2067.79,-15.5 2076.51,-15.5 2085,-15.5"/>
<polygon fill="midnightblue" stroke="midnightblue" points="2059.12,-12.0001 2049.12,-15.5 2059.12,-19.0001 2059.12,-12.0001"/>
</g>
<!-- Node221 -->
<g id="node13" class="node"><title>Node221</title>
<g id="a_node13"><a xlink:href="../../d9/da1/a00396.html#abafc597289bc2f6453b5cd0dd6634e54" target="_top" xlink:title="The entry point of the standalone application. ">
<polygon fill="none" stroke="black" points="2265,-6 2265,-25 2417,-25 2417,-6 2265,-6"/>
<text text-anchor="middle" x="2341" y="-13" font-family="Helvetica,sans-Serif" font-size="10.00">nars.storage.NARSBatch.main</text>
</a>
</g>
</g>
<!-- Node220&#45;&gt;Node221 -->
<g id="edge12" class="edge"><title>Node220&#45;&gt;Node221</title>
<path fill="none" stroke="midnightblue" d="M2239.17,-15.5C2247.76,-15.5 2256.48,-15.5 2265,-15.5"/>
<polygon fill="midnightblue" stroke="midnightblue" points="2239.15,-12.0001 2229.15,-15.5 2239.15,-19.0001 2239.15,-12.0001"/>
</g>
</g>
</svg>
