<?xml version="1.0" encoding="UTF-8" standalone="no"?>
<!DOCTYPE svg PUBLIC "-//W3C//DTD SVG 1.1//EN"
 "http://www.w3.org/Graphics/SVG/1.1/DTD/svg11.dtd">
<!-- Generated by graphviz version 2.38.0 (20140413.2041)
 -->
<!-- Title: nars.inference.CompositionalRules.secondCommonTerm Pages: 1 -->
<svg width="525pt" height="39pt"
 viewBox="0.00 0.00 525.00 39.00" xmlns="http://www.w3.org/2000/svg" xmlns:xlink="http://www.w3.org/1999/xlink">
<g id="graph0" class="graph" transform="scale(1 1) rotate(0) translate(4 35)">
<title>nars.inference.CompositionalRules.secondCommonTerm</title>
<!-- Node524 -->
<g id="node1" class="node"><title>Node524</title>
<polygon fill="#bfbfbf" stroke="black" points="0,-0.5 0,-30.5 143,-30.5 143,-0.5 0,-0.5"/>
<text text-anchor="start" x="8" y="-18.5" font-family="Helvetica,sans-Serif" font-size="10.00">nars.inference.Compositional</text>
<text text-anchor="middle" x="71.5" y="-7.5" font-family="Helvetica,sans-Serif" font-size="10.00">Rules.secondCommonTerm</text>
</g>
<!-- Node525 -->
<g id="node2" class="node"><title>Node525</title>
<g id="a_node2"><a xlink:href="../../d7/df2/a00312.html#a721633abbded2aa858fba35994f08c92" target="_top" xlink:title="Get the other term in the Image. ">
<polygon fill="none" stroke="black" points="179,-0.5 179,-30.5 314,-30.5 314,-0.5 179,-0.5"/>
<text text-anchor="start" x="187" y="-18.5" font-family="Helvetica,sans-Serif" font-size="10.00">nars.language.ImageInt.get</text>
<text text-anchor="middle" x="246.5" y="-7.5" font-family="Helvetica,sans-Serif" font-size="10.00">TheOtherComponent</text>
</a>
</g>
</g>
<!-- Node524&#45;&gt;Node525 -->
<g id="edge1" class="edge"><title>Node524&#45;&gt;Node525</title>
<path fill="none" stroke="midnightblue" d="M143.365,-15.5C151.724,-15.5 160.284,-15.5 168.719,-15.5"/>
<polygon fill="midnightblue" stroke="midnightblue" points="168.925,-19.0001 178.925,-15.5 168.925,-12.0001 168.925,-19.0001"/>
</g>
<!-- Node526 -->
<g id="node3" class="node"><title>Node526</title>
<g id="a_node3"><a xlink:href="../../d8/d17/a00304.html#a9778c35f9b602bee6ccac6a06809e546" target="_top" xlink:title="list of (direct) components ">
<polygon fill="none" stroke="black" points="350,-0.5 350,-30.5 517,-30.5 517,-0.5 350,-0.5"/>
<text text-anchor="start" x="358" y="-18.5" font-family="Helvetica,sans-Serif" font-size="10.00">nars.language.CompoundTerm.get</text>
<text text-anchor="middle" x="433.5" y="-7.5" font-family="Helvetica,sans-Serif" font-size="10.00">Components</text>
</a>
</g>
</g>
<!-- Node525&#45;&gt;Node526 -->
<g id="edge2" class="edge"><title>Node525&#45;&gt;Node526</title>
<path fill="none" stroke="midnightblue" d="M314.028,-15.5C322.367,-15.5 331.012,-15.5 339.662,-15.5"/>
<polygon fill="midnightblue" stroke="midnightblue" points="339.799,-19.0001 349.799,-15.5 339.799,-12.0001 339.799,-19.0001"/>
</g>
</g>
</svg>
