<?xml version="1.0" encoding="UTF-8" standalone="no"?>
<!DOCTYPE svg PUBLIC "-//W3C//DTD SVG 1.1//EN"
 "http://www.w3.org/Graphics/SVG/1.1/DTD/svg11.dtd">
<!-- Generated by graphviz version 2.38.0 (20140413.2041)
 -->
<!-- Title: nars.inference.CompositionalRules.reduceDisjunction Pages: 1 -->
<!--zoomable 39 -->
<svg id="main" version="1.1" xmlns="http://www.w3.org/2000/svg" xmlns:xlink="http://www.w3.org/1999/xlink" xml:space="preserve" onload="init(evt)">
<style type="text/css"><![CDATA[
.edge:hover path { stroke: red; }
.edge:hover polygon { stroke: red; fill: red; }
]]></style>
<script type="text/javascript"><![CDATA[
var edges = document.getElementsByTagName('g');
if (edges && edges.length) {
  for (var i=0;i<edges.length;i++) {
    if (edges[i].id.substr(0,4)=='edge') {
      edges[i].setAttribute('class','edge');
    }
  }
}
]]></script>
        <defs>
                <circle id="rim" cx="0" cy="0" r="7"/>
                <circle id="rim2" cx="0" cy="0" r="3.5"/>
                <g id="zoomPlus">
                        <use xlink:href="#rim" fill="#404040">
                                <set attributeName="fill" to="#808080" begin="zoomplus.mouseover" end="zoomplus.mouseout"/>
                        </use>
                        <path d="M-4,0h8M0,-4v8" fill="none" stroke="white" stroke-width="1.5" pointer-events="none"/>
                </g>
                <g id="zoomMin">
                        <use xlink:href="#rim" fill="#404040">
                                <set attributeName="fill" to="#808080" begin="zoomminus.mouseover" end="zoomminus.mouseout"/>
                        </use>
                        <path d="M-4,0h8" fill="none" stroke="white" stroke-width="1.5" pointer-events="none"/>
                </g>
                <g id="dirArrow">
                        <path fill="none" stroke="white" stroke-width="1.5" d="M0,-3.0v7 M-2.5,-0.5L0,-3.0L2.5,-0.5"/>
                </g>
               <g id="resetDef">
                       <use xlink:href="#rim2" fill="#404040">
                               <set attributeName="fill" to="#808080" begin="reset.mouseover" end="reset.mouseout"/>
                       </use>
               </g>
        </defs>

<script type="text/javascript">
var viewWidth = 2604;
var viewHeight = 39;
var sectionId = 'dynsection-13';
</script>
<script xlink:href="../../svgpan.js"/>
<svg id="graph" class="graph">
<g id="viewport">
<title>nars.inference.CompositionalRules.reduceDisjunction</title>
<!-- Node510 -->
<g id="node1" class="node"><title>Node510</title>
<polygon fill="#bfbfbf" stroke="black" points="0,-0.5 0,-30.5 143,-30.5 143,-0.5 0,-0.5"/>
<text text-anchor="start" x="8" y="-18.5" font-family="Helvetica,sans-Serif" font-size="10.00">nars.inference.Compositional</text>
<text text-anchor="middle" x="71.5" y="-7.5" font-family="Helvetica,sans-Serif" font-size="10.00">Rules.reduceDisjunction</text>
</g>
<!-- Node511 -->
<g id="node2" class="node"><title>Node511</title>
<g id="a_node2"><a xlink:href="../../d6/d08/a00244.html#a4479c479bb3ceeb78130e03ce5e3f293" target="_top" xlink:title="{&lt;(S|P) ==&gt; M&gt;, ">
<polygon fill="none" stroke="black" points="179,-0.5 179,-30.5 322,-30.5 322,-0.5 179,-0.5"/>
<text text-anchor="start" x="187" y="-18.5" font-family="Helvetica,sans-Serif" font-size="10.00">nars.inference.Compositional</text>
<text text-anchor="middle" x="250.5" y="-7.5" font-family="Helvetica,sans-Serif" font-size="10.00">Rules.decomposeCompound</text>
</a>
</g>
</g>
<!-- Node510&#45;&gt;Node511 -->
<g id="edge1" class="edge"><title>Node510&#45;&gt;Node511</title>
<path fill="none" stroke="midnightblue" d="M153.494,-15.5C161.973,-15.5 170.544,-15.5 178.894,-15.5"/>
<polygon fill="midnightblue" stroke="midnightblue" points="153.218,-12.0001 143.218,-15.5 153.218,-19.0001 153.218,-12.0001"/>
</g>
<!-- Node512 -->
<g id="node3" class="node"><title>Node512</title>
<g id="a_node3"><a xlink:href="../../d6/d08/a00244.html#a53f7edf7bfe7433da42e8fcf36fd6604" target="_top" xlink:title="{&lt;S ==&gt; M&gt;, ">
<polygon fill="none" stroke="black" points="358,-0.5 358,-30.5 501,-30.5 501,-0.5 358,-0.5"/>
<text text-anchor="start" x="366" y="-18.5" font-family="Helvetica,sans-Serif" font-size="10.00">nars.inference.Compositional</text>
<text text-anchor="middle" x="429.5" y="-7.5" font-family="Helvetica,sans-Serif" font-size="10.00">Rules.composeCompound</text>
</a>
</g>
</g>
<!-- Node511&#45;&gt;Node512 -->
<g id="edge2" class="edge"><title>Node511&#45;&gt;Node512</title>
<path fill="none" stroke="midnightblue" d="M332.494,-15.5C340.973,-15.5 349.544,-15.5 357.894,-15.5"/>
<polygon fill="midnightblue" stroke="midnightblue" points="332.218,-12.0001 322.218,-15.5 332.218,-19.0001 332.218,-12.0001"/>
</g>
<!-- Node513 -->
<g id="node4" class="node"><title>Node513</title>
<g id="a_node4"><a xlink:href="../../dc/ded/a00252.html#a34927349efcf87db97d23c60983b115b" target="_top" xlink:title="Syllogistic rules whose both premises are on the same asymmetric relation. ">
<polygon fill="none" stroke="black" points="537,-0.5 537,-30.5 722,-30.5 722,-0.5 537,-0.5"/>
<text text-anchor="start" x="545" y="-18.5" font-family="Helvetica,sans-Serif" font-size="10.00">nars.inference.RuleTables.asymmetric</text>
<text text-anchor="middle" x="629.5" y="-7.5" font-family="Helvetica,sans-Serif" font-size="10.00">Asymmetric</text>
</a>
</g>
</g>
<!-- Node512&#45;&gt;Node513 -->
<g id="edge3" class="edge"><title>Node512&#45;&gt;Node513</title>
<path fill="none" stroke="midnightblue" d="M511.284,-15.5C519.685,-15.5 528.267,-15.5 536.777,-15.5"/>
<polygon fill="midnightblue" stroke="midnightblue" points="511.144,-12.0001 501.144,-15.5 511.144,-19.0001 511.144,-12.0001"/>
</g>
<!-- Node514 -->
<g id="node5" class="node"><title>Node514</title>
<g id="a_node5"><a xlink:href="../../dc/ded/a00252.html#a8628d400a8ceda7fea05039ddfea319b" target="_top" xlink:title="Meta&#45;table of syllogistic rules, indexed by the content classes of the taskSentence and the belief...">
<polygon fill="none" stroke="black" points="758,-6 758,-25 938,-25 938,-6 758,-6"/>
<text text-anchor="middle" x="848" y="-13" font-family="Helvetica,sans-Serif" font-size="10.00">nars.inference.RuleTables.syllogisms</text>
</a>
</g>
</g>
<!-- Node513&#45;&gt;Node514 -->
<g id="edge4" class="edge"><title>Node513&#45;&gt;Node514</title>
<path fill="none" stroke="midnightblue" d="M732.084,-15.5C740.705,-15.5 749.383,-15.5 757.898,-15.5"/>
<polygon fill="midnightblue" stroke="midnightblue" points="732.002,-12.0001 722.002,-15.5 732.002,-19.0001 732.002,-12.0001"/>
</g>
<!-- Node515 -->
<g id="node6" class="node"><title>Node515</title>
<g id="a_node6"><a xlink:href="../../dc/ded/a00252.html#ac2d01dfdc40bdd47c757cb549217e6e3" target="_top" xlink:title="Entry point of the inference engine. ">
<polygon fill="none" stroke="black" points="974,-6 974,-25 1137,-25 1137,-6 974,-6"/>
<text text-anchor="middle" x="1055.5" y="-13" font-family="Helvetica,sans-Serif" font-size="10.00">nars.inference.RuleTables.reason</text>
</a>
</g>
</g>
<!-- Node514&#45;&gt;Node515 -->
<g id="edge5" class="edge"><title>Node514&#45;&gt;Node515</title>
<path fill="none" stroke="midnightblue" d="M948.244,-15.5C956.792,-15.5 965.372,-15.5 973.747,-15.5"/>
<polygon fill="midnightblue" stroke="midnightblue" points="948.239,-12.0001 938.239,-15.5 948.239,-19.0001 948.239,-12.0001"/>
</g>
<!-- Node516 -->
<g id="node7" class="node"><title>Node516</title>
<g id="a_node7"><a xlink:href="../../d7/ded/a00196.html#ad6fb91dda799c3092ecb186ef24ca92a" target="_top" xlink:title="An atomic step in a concept, only called in Memory# processConcept. ">
<polygon fill="none" stroke="black" points="1173,-0.5 1173,-30.5 1292,-30.5 1292,-0.5 1173,-0.5"/>
<text text-anchor="start" x="1181" y="-18.5" font-family="Helvetica,sans-Serif" font-size="10.00">nars.entity.Concept.fire</text>
<text text-anchor="middle" x="1232.5" y="-7.5" font-family="Helvetica,sans-Serif" font-size="10.00">FromProcessConcept</text>
</a>
</g>
</g>
<!-- Node515&#45;&gt;Node516 -->
<g id="edge6" class="edge"><title>Node515&#45;&gt;Node516</title>
<path fill="none" stroke="midnightblue" d="M1147.25,-15.5C1155.91,-15.5 1164.52,-15.5 1172.76,-15.5"/>
<polygon fill="midnightblue" stroke="midnightblue" points="1147.09,-12.0001 1137.09,-15.5 1147.08,-19.0001 1147.09,-12.0001"/>
</g>
<!-- Node517 -->
<g id="node8" class="node"><title>Node517</title>
<g id="a_node8"><a xlink:href="../../d4/d27/a00392.html#a0acc4adbf6a2462245da46bcb529746c" target="_top" xlink:title="Select a concept to fireFromProcessConcept. ">
<polygon fill="none" stroke="black" points="1328,-0.5 1328,-30.5 1474,-30.5 1474,-0.5 1328,-0.5"/>
<text text-anchor="start" x="1336" y="-18.5" font-family="Helvetica,sans-Serif" font-size="10.00">nars.storage.Memory.process</text>
<text text-anchor="middle" x="1401" y="-7.5" font-family="Helvetica,sans-Serif" font-size="10.00">Concept</text>
</a>
</g>
</g>
<!-- Node516&#45;&gt;Node517 -->
<g id="edge7" class="edge"><title>Node516&#45;&gt;Node517</title>
<path fill="none" stroke="midnightblue" d="M1302.34,-15.5C1310.75,-15.5 1319.36,-15.5 1327.82,-15.5"/>
<polygon fill="midnightblue" stroke="midnightblue" points="1302.2,-12.0001 1292.2,-15.5 1302.2,-19.0001 1302.2,-12.0001"/>
</g>
<!-- Node518 -->
<g id="node9" class="node"><title>Node518</title>
<g id="a_node9"><a xlink:href="../../d4/d27/a00392.html#a59ae339d666409988d90d29be4f73a91" target="_top" xlink:title="An atomic working workCycle of the system: process new Tasks, then fireFromProcessConcept a concept...">
<polygon fill="none" stroke="black" points="1510,-0.5 1510,-30.5 1643,-30.5 1643,-0.5 1510,-0.5"/>
<text text-anchor="start" x="1518" y="-18.5" font-family="Helvetica,sans-Serif" font-size="10.00">nars.storage.Memory.work</text>
<text text-anchor="middle" x="1576.5" y="-7.5" font-family="Helvetica,sans-Serif" font-size="10.00">Cycle</text>
</a>
</g>
</g>
<!-- Node517&#45;&gt;Node518 -->
<g id="edge8" class="edge"><title>Node517&#45;&gt;Node518</title>
<path fill="none" stroke="midnightblue" d="M1484.12,-15.5C1492.72,-15.5 1501.37,-15.5 1509.76,-15.5"/>
<polygon fill="midnightblue" stroke="midnightblue" points="1484.07,-12.0001 1474.07,-15.5 1484.07,-19.0001 1484.07,-12.0001"/>
</g>
<!-- Node519 -->
<g id="node10" class="node"><title>Node519</title>
<g id="a_node10"><a xlink:href="../../df/d15/a00416.html#a0d5c797dc17d9e8d0998852915e0f303" target="_top" xlink:title="nars.storage.ReasonerBatch.doTick">
<polygon fill="none" stroke="black" points="1679,-6 1679,-25 1852,-25 1852,-6 1679,-6"/>
<text text-anchor="middle" x="1765.5" y="-13" font-family="Helvetica,sans-Serif" font-size="10.00">nars.storage.ReasonerBatch.doTick</text>
</a>
</g>
</g>
<!-- Node518&#45;&gt;Node519 -->
<g id="edge9" class="edge"><title>Node518&#45;&gt;Node519</title>
<path fill="none" stroke="midnightblue" d="M1653.34,-15.5C1661.78,-15.5 1670.42,-15.5 1678.97,-15.5"/>
<polygon fill="midnightblue" stroke="midnightblue" points="1653.17,-12.0001 1643.17,-15.5 1653.17,-19.0001 1653.17,-12.0001"/>
</g>
<!-- Node520 -->
<g id="node11" class="node"><title>Node520</title>
<g id="a_node11"><a xlink:href="../../df/d15/a00416.html#a3468aa0f99edcd66412f27922dddb880" target="_top" xlink:title="A clock tick. ">
<polygon fill="none" stroke="black" points="1888,-6 1888,-25 2048,-25 2048,-6 1888,-6"/>
<text text-anchor="middle" x="1968" y="-13" font-family="Helvetica,sans-Serif" font-size="10.00">nars.storage.ReasonerBatch.tick</text>
</a>
</g>
</g>
<!-- Node519&#45;&gt;Node520 -->
<g id="edge10" class="edge"><title>Node519&#45;&gt;Node520</title>
<path fill="none" stroke="midnightblue" d="M1862.13,-15.5C1870.7,-15.5 1879.31,-15.5 1887.71,-15.5"/>
<polygon fill="midnightblue" stroke="midnightblue" points="1862.11,-12.0001 1852.11,-15.5 1862.11,-19.0001 1862.11,-12.0001"/>
</g>
<!-- Node521 -->
<g id="node12" class="node"><title>Node521</title>
<g id="a_node12"><a xlink:href="../../d9/da1/a00396.html#a5d9cfe517bcfbe41e5251910bcd119c1" target="_top" xlink:title="Run to completion: repeatedly execute NARS working cycle, until Inputs are Finished, or 1000 steps. ">
<polygon fill="none" stroke="black" points="2084,-6 2084,-25 2228,-25 2228,-6 2084,-6"/>
<text text-anchor="middle" x="2156" y="-13" font-family="Helvetica,sans-Serif" font-size="10.00">nars.storage.NARSBatch.run</text>
</a>
</g>
</g>
<!-- Node520&#45;&gt;Node521 -->
<g id="edge11" class="edge"><title>Node520&#45;&gt;Node521</title>
<path fill="none" stroke="midnightblue" d="M2058.22,-15.5C2066.82,-15.5 2075.47,-15.5 2083.87,-15.5"/>
<polygon fill="midnightblue" stroke="midnightblue" points="2058.15,-12.0001 2048.15,-15.5 2058.15,-19.0001 2058.15,-12.0001"/>
</g>
<!-- Node522 -->
<g id="node13" class="node"><title>Node522</title>
<g id="a_node13"><a xlink:href="../../d9/da1/a00396.html#a7c307c6b842f82664de6b0e52bdf8efc" target="_top" xlink:title="non&#45;static equivalent to main(String[]) : run to completion from an input file ">
<polygon fill="none" stroke="black" points="2264,-0.5 2264,-30.5 2408,-30.5 2408,-0.5 2264,-0.5"/>
<text text-anchor="start" x="2272" y="-18.5" font-family="Helvetica,sans-Serif" font-size="10.00">nars.storage.NARSBatch.run</text>
<text text-anchor="middle" x="2336" y="-7.5" font-family="Helvetica,sans-Serif" font-size="10.00">Inference</text>
</a>
</g>
</g>
<!-- Node521&#45;&gt;Node522 -->
<g id="edge12" class="edge"><title>Node521&#45;&gt;Node522</title>
<path fill="none" stroke="midnightblue" d="M2238.17,-15.5C2246.79,-15.5 2255.51,-15.5 2264,-15.5"/>
<polygon fill="midnightblue" stroke="midnightblue" points="2238.12,-12.0001 2228.12,-15.5 2238.12,-19.0001 2238.12,-12.0001"/>
</g>
<!-- Node523 -->
<g id="node14" class="node"><title>Node523</title>
<g id="a_node14"><a xlink:href="../../d9/da1/a00396.html#abafc597289bc2f6453b5cd0dd6634e54" target="_top" xlink:title="The entry point of the standalone application. ">
<polygon fill="none" stroke="black" points="2444,-6 2444,-25 2596,-25 2596,-6 2444,-6"/>
<text text-anchor="middle" x="2520" y="-13" font-family="Helvetica,sans-Serif" font-size="10.00">nars.storage.NARSBatch.main</text>
</a>
</g>
</g>
<!-- Node522&#45;&gt;Node523 -->
<g id="edge13" class="edge"><title>Node522&#45;&gt;Node523</title>
<path fill="none" stroke="midnightblue" d="M2418.17,-15.5C2426.76,-15.5 2435.48,-15.5 2444,-15.5"/>
<polygon fill="midnightblue" stroke="midnightblue" points="2418.15,-12.0001 2408.15,-15.5 2418.15,-19.0001 2418.15,-12.0001"/>
</g>
</g>
</svg>
        <g id="navigator" transform="translate(0 0)" fill="#404254">
                <rect fill="#f2f5e9" fill-opacity="0.5" stroke="#606060" stroke-width=".5" x="0" y="0" width="60" height="60"/>
                <use id="zoomplus" xlink:href="#zoomPlus" x="17" y="9" onmousedown="handleZoom(evt,'in')"/>
                <use id="zoomminus" xlink:href="#zoomMin" x="42" y="9" onmousedown="handleZoom(evt,'out')"/>
                <use id="reset" xlink:href="#resetDef" x="30" y="36" onmousedown="handleReset()"/>
                <g id="arrowUp" xlink:href="#dirArrow" transform="translate(30 24)" onmousedown="handlePan(0,-1)">
                  <use xlink:href="#rim" fill="#404040">
                        <set attributeName="fill" to="#808080" begin="arrowUp.mouseover" end="arrowUp.mouseout"/>
                  </use>
                  <path fill="none" stroke="white" stroke-width="1.5" d="M0,-3.0v7 M-2.5,-0.5L0,-3.0L2.5,-0.5"/>
                </g>
                <g id="arrowRight" xlink:href="#dirArrow" transform="rotate(90) translate(36 -43)" onmousedown="handlePan(1,0)">
                  <use xlink:href="#rim" fill="#404040">
                        <set attributeName="fill" to="#808080" begin="arrowRight.mouseover" end="arrowRight.mouseout"/>
                  </use>
                  <path fill="none" stroke="white" stroke-width="1.5" d="M0,-3.0v7 M-2.5,-0.5L0,-3.0L2.5,-0.5"/>
                </g>
                <g id="arrowDown" xlink:href="#dirArrow" transform="rotate(180) translate(-30 -48)" onmousedown="handlePan(0,1)">
                  <use xlink:href="#rim" fill="#404040">
                        <set attributeName="fill" to="#808080" begin="arrowDown.mouseover" end="arrowDown.mouseout"/>
                  </use>
                  <path fill="none" stroke="white" stroke-width="1.5" d="M0,-3.0v7 M-2.5,-0.5L0,-3.0L2.5,-0.5"/>
                </g>
                <g id="arrowLeft" xlink:href="#dirArrow" transform="rotate(270) translate(-36 17)" onmousedown="handlePan(-1,0)">
                  <use xlink:href="#rim" fill="#404040">
                        <set attributeName="fill" to="#808080" begin="arrowLeft.mouseover" end="arrowLeft.mouseout"/>
                  </use>
                  <path fill="none" stroke="white" stroke-width="1.5" d="M0,-3.0v7 M-2.5,-0.5L0,-3.0L2.5,-0.5"/>
                </g>
        </g>
        <svg viewBox="0 0 15 15" width="100%" height="30px" preserveAspectRatio="xMaxYMin meet">
         <g id="arrow_out" transform="scale(0.3 0.3)">
          <a xlink:href="a00244_ad2a05a4e1b1191d73ae292c27f7a7d1f_icgraph_org.svg" target="_base">
           <rect id="button" ry="5" rx="5" y="6" x="6" height="38" width="38"
                fill="#f2f5e9" fill-opacity="0.5" stroke="#606060" stroke-width="1.0"/>
           <path id="arrow"
             d="M 11.500037,31.436501 C 11.940474,20.09759 22.043105,11.32322 32.158766,21.979434 L 37.068811,17.246167 C 37.068811,17.246167 37.088388,32 37.088388,32 L 22.160133,31.978069 C 22.160133,31.978069 26.997745,27.140456 26.997745,27.140456 C 18.528582,18.264221 13.291696,25.230495 11.500037,31.436501 z"
             style="fill:#404040;"/>
          </a>
         </g>
        </svg>
</svg>
