<?xml version="1.0" encoding="UTF-8" standalone="no"?>
<!DOCTYPE svg PUBLIC "-//W3C//DTD SVG 1.1//EN"
 "http://www.w3.org/Graphics/SVG/1.1/DTD/svg11.dtd">
<!-- Generated by graphviz version 2.38.0 (20140413.2041)
 -->
<!-- Title: nars.language.Negation.clone Pages: 1 -->
<!--zoomable 214 -->
<svg id="main" version="1.1" xmlns="http://www.w3.org/2000/svg" xmlns:xlink="http://www.w3.org/1999/xlink" xml:space="preserve" onload="init(evt)">
<style type="text/css"><![CDATA[
.edge:hover path { stroke: red; }
.edge:hover polygon { stroke: red; fill: red; }
]]></style>
<script type="text/javascript"><![CDATA[
var edges = document.getElementsByTagName('g');
if (edges && edges.length) {
  for (var i=0;i<edges.length;i++) {
    if (edges[i].id.substr(0,4)=='edge') {
      edges[i].setAttribute('class','edge');
    }
  }
}
]]></script>
        <defs>
                <circle id="rim" cx="0" cy="0" r="7"/>
                <circle id="rim2" cx="0" cy="0" r="3.5"/>
                <g id="zoomPlus">
                        <use xlink:href="#rim" fill="#404040">
                                <set attributeName="fill" to="#808080" begin="zoomplus.mouseover" end="zoomplus.mouseout"/>
                        </use>
                        <path d="M-4,0h8M0,-4v8" fill="none" stroke="white" stroke-width="1.5" pointer-events="none"/>
                </g>
                <g id="zoomMin">
                        <use xlink:href="#rim" fill="#404040">
                                <set attributeName="fill" to="#808080" begin="zoomminus.mouseover" end="zoomminus.mouseout"/>
                        </use>
                        <path d="M-4,0h8" fill="none" stroke="white" stroke-width="1.5" pointer-events="none"/>
                </g>
                <g id="dirArrow">
                        <path fill="none" stroke="white" stroke-width="1.5" d="M0,-3.0v7 M-2.5,-0.5L0,-3.0L2.5,-0.5"/>
                </g>
               <g id="resetDef">
                       <use xlink:href="#rim2" fill="#404040">
                               <set attributeName="fill" to="#808080" begin="reset.mouseover" end="reset.mouseout"/>
                       </use>
               </g>
        </defs>

<script type="text/javascript">
var viewWidth = 594;
var viewHeight = 214;
var sectionId = 'dynsection-3';
</script>
<script xlink:href="../../svgpan.js"/>
<svg id="graph" class="graph">
<g id="viewport">
<title>nars.language.Negation.clone</title>
<!-- Node6 -->
<g id="node1" class="node"><title>Node6</title>
<polygon fill="#bfbfbf" stroke="black" points="0,-93.5 0,-112.5 146,-112.5 146,-93.5 0,-93.5"/>
<text text-anchor="middle" x="73" y="-100.5" font-family="Helvetica,sans-Serif" font-size="10.00">nars.language.Negation.clone</text>
</g>
<!-- Node7 -->
<g id="node2" class="node"><title>Node7</title>
<g id="a_node2"><a xlink:href="../../d8/d17/a00304.html#a9cb7736a3f6b220d75366ab146488773" target="_top" xlink:title="Deep clone an array list of terms. ">
<polygon fill="none" stroke="black" points="182,-186.5 182,-205.5 374,-205.5 374,-186.5 182,-186.5"/>
<text text-anchor="middle" x="278" y="-193.5" font-family="Helvetica,sans-Serif" font-size="10.00">nars.language.CompoundTerm.cloneList</text>
</a>
</g>
</g>
<!-- Node6&#45;&gt;Node7 -->
<g id="edge1" class="edge"><title>Node6&#45;&gt;Node7</title>
<path fill="none" stroke="midnightblue" d="M84.7728,-112.63C103.261,-128.612 142.836,-160.485 182,-177 188.196,-179.613 194.773,-181.873 201.461,-183.826"/>
<polygon fill="midnightblue" stroke="midnightblue" points="200.743,-187.257 211.309,-186.475 202.562,-180.498 200.743,-187.257"/>
</g>
<!-- Node9 -->
<g id="node4" class="node"><title>Node9</title>
<g id="a_node4"><a xlink:href="../../d8/d17/a00304.html#a4f04fa1bc71ade41d35e664ff4df5475" target="_top" xlink:title="syntactic complexity of the compound, the sum of those of its components plus 1 ">
<polygon fill="none" stroke="black" points="194.5,-137 194.5,-167 361.5,-167 361.5,-137 194.5,-137"/>
<text text-anchor="start" x="202.5" y="-155" font-family="Helvetica,sans-Serif" font-size="10.00">nars.language.CompoundTerm.get</text>
<text text-anchor="middle" x="278" y="-144" font-family="Helvetica,sans-Serif" font-size="10.00">Complexity</text>
</a>
</g>
</g>
<!-- Node6&#45;&gt;Node9 -->
<g id="edge3" class="edge"><title>Node6&#45;&gt;Node9</title>
<path fill="none" stroke="midnightblue" d="M113.622,-112.564C139.547,-118.822 174.181,-127.182 204.888,-134.594"/>
<polygon fill="midnightblue" stroke="midnightblue" points="204.162,-138.019 214.704,-136.963 205.804,-131.214 204.162,-138.019"/>
</g>
<!-- Node10 -->
<g id="node5" class="node"><title>Node10</title>
<g id="a_node5"><a xlink:href="../../d8/d17/a00304.html#a9778c35f9b602bee6ccac6a06809e546" target="_top" xlink:title="list of (direct) components ">
<polygon fill="none" stroke="black" points="194.5,-88 194.5,-118 361.5,-118 361.5,-88 194.5,-88"/>
<text text-anchor="start" x="202.5" y="-106" font-family="Helvetica,sans-Serif" font-size="10.00">nars.language.CompoundTerm.get</text>
<text text-anchor="middle" x="278" y="-95" font-family="Helvetica,sans-Serif" font-size="10.00">Components</text>
</a>
</g>
</g>
<!-- Node6&#45;&gt;Node10 -->
<g id="edge4" class="edge"><title>Node6&#45;&gt;Node10</title>
<path fill="none" stroke="midnightblue" d="M146.142,-103C158.461,-103 171.412,-103 184.178,-103"/>
<polygon fill="midnightblue" stroke="midnightblue" points="184.361,-106.5 194.361,-103 184.361,-99.5001 184.361,-106.5"/>
</g>
<!-- Node11 -->
<g id="node6" class="node"><title>Node11</title>
<g id="a_node6"><a xlink:href="../../d8/d17/a00304.html#aee0ef6fd533b58caf22bee2a98eef67d" target="_top" xlink:title="Whether the term names a concept. ">
<polygon fill="none" stroke="black" points="197.5,-39 197.5,-69 358.5,-69 358.5,-39 197.5,-39"/>
<text text-anchor="start" x="205.5" y="-57" font-family="Helvetica,sans-Serif" font-size="10.00">nars.language.CompoundTerm.is</text>
<text text-anchor="middle" x="278" y="-46" font-family="Helvetica,sans-Serif" font-size="10.00">Constant</text>
</a>
</g>
</g>
<!-- Node6&#45;&gt;Node11 -->
<g id="edge5" class="edge"><title>Node6&#45;&gt;Node11</title>
<path fill="none" stroke="midnightblue" d="M113.622,-93.436C139.547,-87.1782 174.181,-78.8183 204.888,-71.4063"/>
<polygon fill="midnightblue" stroke="midnightblue" points="205.804,-74.7857 214.704,-69.037 204.162,-67.9812 205.804,-74.7857"/>
</g>
<!-- Node12 -->
<g id="node7" class="node"><title>Node12</title>
<g id="a_node7"><a xlink:href="../../dd/d1d/a00336.html#a34890e3c7668863ca9e971c19c2e0016" target="_top" xlink:title="Constructor with partial values, called by make. ">
<polygon fill="none" stroke="black" points="197.5,-0.5 197.5,-19.5 358.5,-19.5 358.5,-0.5 197.5,-0.5"/>
<text text-anchor="middle" x="278" y="-7.5" font-family="Helvetica,sans-Serif" font-size="10.00">nars.language.Negation.Negation</text>
</a>
</g>
</g>
<!-- Node6&#45;&gt;Node12 -->
<g id="edge6" class="edge"><title>Node6&#45;&gt;Node12</title>
<path fill="none" stroke="midnightblue" d="M85.1157,-93.2957C103.793,-77.5207 143.244,-46.4288 182,-30 189.201,-26.9474 196.913,-24.3442 204.715,-22.128"/>
<polygon fill="midnightblue" stroke="midnightblue" points="205.832,-25.4531 214.612,-19.5229 204.051,-18.6836 205.832,-25.4531"/>
</g>
<!-- Node8 -->
<g id="node3" class="node"><title>Node8</title>
<g id="a_node3"><a xlink:href="../../d8/d17/a00304.html#a963e8aef1163f4ed8c364b5e448deaff" target="_top" xlink:title="Abstract clone method. ">
<polygon fill="none" stroke="black" points="410,-186.5 410,-205.5 586,-205.5 586,-186.5 410,-186.5"/>
<text text-anchor="middle" x="498" y="-193.5" font-family="Helvetica,sans-Serif" font-size="10.00">nars.language.CompoundTerm.clone</text>
</a>
</g>
</g>
<!-- Node7&#45;&gt;Node8 -->
<g id="edge2" class="edge"><title>Node7&#45;&gt;Node8</title>
<path fill="none" stroke="midnightblue" d="M374.301,-196C382.69,-196 391.19,-196 399.597,-196"/>
<polygon fill="midnightblue" stroke="midnightblue" points="399.791,-199.5 409.791,-196 399.791,-192.5 399.791,-199.5"/>
</g>
</g>
</svg>
        <g id="navigator" transform="translate(0 0)" fill="#404254">
                <rect fill="#f2f5e9" fill-opacity="0.5" stroke="#606060" stroke-width=".5" x="0" y="0" width="60" height="60"/>
                <use id="zoomplus" xlink:href="#zoomPlus" x="17" y="9" onmousedown="handleZoom(evt,'in')"/>
                <use id="zoomminus" xlink:href="#zoomMin" x="42" y="9" onmousedown="handleZoom(evt,'out')"/>
                <use id="reset" xlink:href="#resetDef" x="30" y="36" onmousedown="handleReset()"/>
                <g id="arrowUp" xlink:href="#dirArrow" transform="translate(30 24)" onmousedown="handlePan(0,-1)">
                  <use xlink:href="#rim" fill="#404040">
                        <set attributeName="fill" to="#808080" begin="arrowUp.mouseover" end="arrowUp.mouseout"/>
                  </use>
                  <path fill="none" stroke="white" stroke-width="1.5" d="M0,-3.0v7 M-2.5,-0.5L0,-3.0L2.5,-0.5"/>
                </g>
                <g id="arrowRight" xlink:href="#dirArrow" transform="rotate(90) translate(36 -43)" onmousedown="handlePan(1,0)">
                  <use xlink:href="#rim" fill="#404040">
                        <set attributeName="fill" to="#808080" begin="arrowRight.mouseover" end="arrowRight.mouseout"/>
                  </use>
                  <path fill="none" stroke="white" stroke-width="1.5" d="M0,-3.0v7 M-2.5,-0.5L0,-3.0L2.5,-0.5"/>
                </g>
                <g id="arrowDown" xlink:href="#dirArrow" transform="rotate(180) translate(-30 -48)" onmousedown="handlePan(0,1)">
                  <use xlink:href="#rim" fill="#404040">
                        <set attributeName="fill" to="#808080" begin="arrowDown.mouseover" end="arrowDown.mouseout"/>
                  </use>
                  <path fill="none" stroke="white" stroke-width="1.5" d="M0,-3.0v7 M-2.5,-0.5L0,-3.0L2.5,-0.5"/>
                </g>
                <g id="arrowLeft" xlink:href="#dirArrow" transform="rotate(270) translate(-36 17)" onmousedown="handlePan(-1,0)">
                  <use xlink:href="#rim" fill="#404040">
                        <set attributeName="fill" to="#808080" begin="arrowLeft.mouseover" end="arrowLeft.mouseout"/>
                  </use>
                  <path fill="none" stroke="white" stroke-width="1.5" d="M0,-3.0v7 M-2.5,-0.5L0,-3.0L2.5,-0.5"/>
                </g>
        </g>
        <svg viewBox="0 0 15 15" width="100%" height="30px" preserveAspectRatio="xMaxYMin meet">
         <g id="arrow_out" transform="scale(0.3 0.3)">
          <a xlink:href="a00336_aa75de1d079c9867de603470387c64998_cgraph_org.svg" target="_base">
           <rect id="button" ry="5" rx="5" y="6" x="6" height="38" width="38"
                fill="#f2f5e9" fill-opacity="0.5" stroke="#606060" stroke-width="1.0"/>
           <path id="arrow"
             d="M 11.500037,31.436501 C 11.940474,20.09759 22.043105,11.32322 32.158766,21.979434 L 37.068811,17.246167 C 37.068811,17.246167 37.088388,32 37.088388,32 L 22.160133,31.978069 C 22.160133,31.978069 26.997745,27.140456 26.997745,27.140456 C 18.528582,18.264221 13.291696,25.230495 11.500037,31.436501 z"
             style="fill:#404040;"/>
          </a>
         </g>
        </svg>
</svg>
