<?xml version="1.0" encoding="UTF-8" standalone="no"?>
<!DOCTYPE svg PUBLIC "-//W3C//DTD SVG 1.1//EN"
 "http://www.w3.org/Graphics/SVG/1.1/DTD/svg11.dtd">
<!-- Generated by graphviz version 2.38.0 (20140413.2041)
 -->
<!-- Title: nars.language.CompoundTerm Pages: 1 -->
<svg width="816pt" height="408pt"
 viewBox="0.00 0.00 816.00 408.00" xmlns="http://www.w3.org/2000/svg" xmlns:xlink="http://www.w3.org/1999/xlink">
<g id="graph0" class="graph" transform="scale(1 1) rotate(0) translate(4 404)">
<title>nars.language.CompoundTerm</title>
<!-- Node0 -->
<g id="node1" class="node"><title>Node0</title>
<polygon fill="#bfbfbf" stroke="black" points="285,-228.5 285,-247.5 435,-247.5 435,-228.5 285,-228.5"/>
<text text-anchor="middle" x="360" y="-235.5" font-family="Helvetica,sans-Serif" font-size="10.00">nars.language.CompoundTerm</text>
</g>
<!-- Node5 -->
<g id="node6" class="node"><title>Node5</title>
<g id="a_node6"><a xlink:href="../../d5/d0f/a00308.html" target="_top" xlink:title="An extension image. ">
<polygon fill="none" stroke="black" points="483,-380.5 483,-399.5 605,-399.5 605,-380.5 483,-380.5"/>
<text text-anchor="middle" x="544" y="-387.5" font-family="Helvetica,sans-Serif" font-size="10.00">nars.language.ImageExt</text>
</a>
</g>
</g>
<!-- Node0&#45;&gt;Node5 -->
<g id="edge5" class="edge"><title>Node0&#45;&gt;Node5</title>
<path fill="none" stroke="midnightblue" d="M371.137,-256.511C387.974,-285.477 424.504,-341.27 471,-371 477.099,-374.9 483.976,-378.003 490.997,-380.471"/>
<polygon fill="midnightblue" stroke="midnightblue" points="374.171,-254.767 366.196,-247.793 368.081,-258.218 374.171,-254.767"/>
</g>
<!-- Node6 -->
<g id="node7" class="node"><title>Node6</title>
<g id="a_node7"><a xlink:href="../../d7/df2/a00312.html" target="_top" xlink:title="An intension image. ">
<polygon fill="none" stroke="black" points="484.5,-342.5 484.5,-361.5 603.5,-361.5 603.5,-342.5 484.5,-342.5"/>
<text text-anchor="middle" x="544" y="-349.5" font-family="Helvetica,sans-Serif" font-size="10.00">nars.language.ImageInt</text>
</a>
</g>
</g>
<!-- Node0&#45;&gt;Node6 -->
<g id="edge6" class="edge"><title>Node0&#45;&gt;Node6</title>
<path fill="none" stroke="midnightblue" d="M376.306,-255.379C396.086,-276.77 432.574,-312.741 471,-333 478.319,-336.859 486.478,-339.976 494.601,-342.48"/>
<polygon fill="midnightblue" stroke="midnightblue" points="378.656,-252.76 369.346,-247.702 373.47,-257.462 378.656,-252.76"/>
</g>
<!-- Node7 -->
<g id="node8" class="node"><title>Node7</title>
<g id="a_node8"><a xlink:href="../../d4/db5/a00328.html" target="_top" xlink:title="A compound term whose extension is the intersection of the extensions of its components. ">
<polygon fill="none" stroke="black" points="471,-304.5 471,-323.5 617,-323.5 617,-304.5 471,-304.5"/>
<text text-anchor="middle" x="544" y="-311.5" font-family="Helvetica,sans-Serif" font-size="10.00">nars.language.IntersectionExt</text>
</a>
</g>
</g>
<!-- Node0&#45;&gt;Node7 -->
<g id="edge7" class="edge"><title>Node0&#45;&gt;Node7</title>
<path fill="none" stroke="midnightblue" d="M385.795,-252.861C407.623,-265.449 440.582,-283.27 471,-295 480.408,-298.628 490.768,-301.809 500.625,-304.479"/>
<polygon fill="midnightblue" stroke="midnightblue" points="387.28,-249.675 376.88,-247.653 383.749,-255.72 387.28,-249.675"/>
</g>
<!-- Node8 -->
<g id="node9" class="node"><title>Node8</title>
<g id="a_node9"><a xlink:href="../../dc/d50/a00332.html" target="_top" xlink:title="A compound term whose intension is the intersection of the extensions of its components. ">
<polygon fill="none" stroke="black" points="472.5,-266.5 472.5,-285.5 615.5,-285.5 615.5,-266.5 472.5,-266.5"/>
<text text-anchor="middle" x="544" y="-273.5" font-family="Helvetica,sans-Serif" font-size="10.00">nars.language.IntersectionInt</text>
</a>
</g>
</g>
<!-- Node0&#45;&gt;Node8 -->
<g id="edge8" class="edge"><title>Node0&#45;&gt;Node8</title>
<path fill="none" stroke="midnightblue" d="M416.946,-249.681C442.756,-255.07 473.007,-261.386 497.404,-266.48"/>
<polygon fill="midnightblue" stroke="midnightblue" points="417.431,-246.207 406.926,-247.589 416,-253.059 417.431,-246.207"/>
</g>
<!-- Node9 -->
<g id="node10" class="node"><title>Node9</title>
<g id="a_node10"><a xlink:href="../../dd/d1d/a00336.html" target="_top" xlink:title="A negation of a Statement. ">
<polygon fill="none" stroke="black" points="484.5,-228.5 484.5,-247.5 603.5,-247.5 603.5,-228.5 484.5,-228.5"/>
<text text-anchor="middle" x="544" y="-235.5" font-family="Helvetica,sans-Serif" font-size="10.00">nars.language.Negation</text>
</a>
</g>
</g>
<!-- Node0&#45;&gt;Node9 -->
<g id="edge9" class="edge"><title>Node0&#45;&gt;Node9</title>
<path fill="none" stroke="midnightblue" d="M445.117,-238C458.388,-238 471.855,-238 484.381,-238"/>
<polygon fill="midnightblue" stroke="midnightblue" points="445.026,-234.5 435.026,-238 445.026,-241.5 445.026,-234.5"/>
</g>
<!-- Node10 -->
<g id="node11" class="node"><title>Node10</title>
<g id="a_node11"><a xlink:href="../../df/df1/a00340.html" target="_top" xlink:title="A Product is a sequence of terms. ">
<polygon fill="none" stroke="black" points="487,-190.5 487,-209.5 601,-209.5 601,-190.5 487,-190.5"/>
<text text-anchor="middle" x="544" y="-197.5" font-family="Helvetica,sans-Serif" font-size="10.00">nars.language.Product</text>
</a>
</g>
</g>
<!-- Node0&#45;&gt;Node10 -->
<g id="edge10" class="edge"><title>Node0&#45;&gt;Node10</title>
<path fill="none" stroke="midnightblue" d="M416.946,-226.319C442.756,-220.93 473.007,-214.614 497.404,-209.52"/>
<polygon fill="midnightblue" stroke="midnightblue" points="416,-222.941 406.926,-228.411 417.431,-229.793 416,-222.941"/>
</g>
<!-- Node11 -->
<g id="node12" class="node"><title>Node11</title>
<g id="a_node12"><a xlink:href="../../df/d03/a00348.html" target="_top" xlink:title="An extensionally defined set, which contains one or more instances. ">
<polygon fill="none" stroke="black" points="489,-152.5 489,-171.5 599,-171.5 599,-152.5 489,-152.5"/>
<text text-anchor="middle" x="544" y="-159.5" font-family="Helvetica,sans-Serif" font-size="10.00">nars.language.SetExt</text>
</a>
</g>
</g>
<!-- Node0&#45;&gt;Node11 -->
<g id="edge11" class="edge"><title>Node0&#45;&gt;Node11</title>
<path fill="none" stroke="midnightblue" d="M385.795,-223.139C407.623,-210.551 440.582,-192.73 471,-181 480.408,-177.372 490.768,-174.191 500.625,-171.521"/>
<polygon fill="midnightblue" stroke="midnightblue" points="383.749,-220.28 376.88,-228.347 387.28,-226.325 383.749,-220.28"/>
</g>
<!-- Node12 -->
<g id="node13" class="node"><title>Node12</title>
<g id="a_node13"><a xlink:href="../../d6/d9c/a00352.html" target="_top" xlink:title="An intensionally defined set, which contains one or more instances defining the Term. ">
<polygon fill="none" stroke="black" points="490.5,-114.5 490.5,-133.5 597.5,-133.5 597.5,-114.5 490.5,-114.5"/>
<text text-anchor="middle" x="544" y="-121.5" font-family="Helvetica,sans-Serif" font-size="10.00">nars.language.SetInt</text>
</a>
</g>
</g>
<!-- Node0&#45;&gt;Node12 -->
<g id="edge12" class="edge"><title>Node0&#45;&gt;Node12</title>
<path fill="none" stroke="midnightblue" d="M376.306,-220.621C396.086,-199.23 432.574,-163.259 471,-143 478.319,-139.141 486.478,-136.024 494.601,-133.52"/>
<polygon fill="midnightblue" stroke="midnightblue" points="373.47,-218.538 369.346,-228.298 378.656,-223.24 373.47,-218.538"/>
</g>
<!-- Node13 -->
<g id="node14" class="node"><title>Node13</title>
<g id="a_node14"><a xlink:href="../../d0/d65/a00360.html" target="_top" xlink:title="A statement is a compound term, consisting of a subject, a predicate, and a relation symbol in betwee...">
<polygon fill="none" stroke="black" points="481.5,-76.5 481.5,-95.5 606.5,-95.5 606.5,-76.5 481.5,-76.5"/>
<text text-anchor="middle" x="544" y="-83.5" font-family="Helvetica,sans-Serif" font-size="10.00">nars.language.Statement</text>
</a>
</g>
</g>
<!-- Node0&#45;&gt;Node13 -->
<g id="edge13" class="edge"><title>Node0&#45;&gt;Node13</title>
<path fill="none" stroke="midnightblue" d="M371.137,-219.489C387.974,-190.523 424.504,-134.73 471,-105 477.099,-101.1 483.976,-97.9971 490.997,-95.5292"/>
<polygon fill="midnightblue" stroke="midnightblue" points="368.081,-217.782 366.196,-228.207 374.171,-221.233 368.081,-217.782"/>
</g>
<!-- Node1 -->
<g id="node2" class="node"><title>Node1</title>
<g id="a_node2"><a xlink:href="../../dc/d59/a00364.html" target="_top" xlink:title="Term is the basic component of Narsese, and the object of processing in NARS. ">
<polygon fill="none" stroke="black" points="146,-228.5 146,-247.5 249,-247.5 249,-228.5 146,-228.5"/>
<text text-anchor="middle" x="197.5" y="-235.5" font-family="Helvetica,sans-Serif" font-size="10.00">nars.language.Term</text>
</a>
</g>
</g>
<!-- Node1&#45;&gt;Node0 -->
<g id="edge1" class="edge"><title>Node1&#45;&gt;Node0</title>
<path fill="none" stroke="midnightblue" d="M259.555,-238C267.808,-238 276.348,-238 284.799,-238"/>
<polygon fill="midnightblue" stroke="midnightblue" points="259.283,-234.5 249.283,-238 259.283,-241.5 259.283,-234.5"/>
</g>
<!-- Node2 -->
<g id="node3" class="node"><title>Node2</title>
<polygon fill="none" stroke="#bfbfbf" points="25,-266.5 25,-285.5 85,-285.5 85,-266.5 25,-266.5"/>
<text text-anchor="middle" x="55" y="-273.5" font-family="Helvetica,sans-Serif" font-size="10.00">Cloneable</text>
</g>
<!-- Node2&#45;&gt;Node1 -->
<g id="edge2" class="edge"><title>Node2&#45;&gt;Node1</title>
<path fill="none" stroke="midnightblue" d="M94.8917,-265.481C115.653,-259.866 141.013,-253.007 161.203,-247.546"/>
<polygon fill="midnightblue" stroke="midnightblue" points="93.851,-262.137 85.1117,-268.126 95.6787,-268.894 93.851,-262.137"/>
</g>
<!-- Node3 -->
<g id="node4" class="node"><title>Node3</title>
<polygon fill="none" stroke="#bfbfbf" points="0,-228.5 0,-247.5 110,-247.5 110,-228.5 0,-228.5"/>
<text text-anchor="middle" x="55" y="-235.5" font-family="Helvetica,sans-Serif" font-size="10.00">Comparable&lt; Term &gt;</text>
</g>
<!-- Node3&#45;&gt;Node1 -->
<g id="edge3" class="edge"><title>Node3&#45;&gt;Node1</title>
<path fill="none" stroke="midnightblue" d="M120.486,-238C128.891,-238 137.407,-238 145.548,-238"/>
<polygon fill="midnightblue" stroke="midnightblue" points="120.321,-234.5 110.321,-238 120.321,-241.5 120.321,-234.5"/>
</g>
<!-- Node4 -->
<g id="node5" class="node"><title>Node4</title>
<polygon fill="none" stroke="#bfbfbf" points="22.5,-190.5 22.5,-209.5 87.5,-209.5 87.5,-190.5 22.5,-190.5"/>
<text text-anchor="middle" x="55" y="-197.5" font-family="Helvetica,sans-Serif" font-size="10.00">TermStruct</text>
</g>
<!-- Node4&#45;&gt;Node1 -->
<g id="edge4" class="edge"><title>Node4&#45;&gt;Node1</title>
<path fill="none" stroke="midnightblue" d="M97.4544,-211.212C117.773,-216.707 141.977,-223.254 161.372,-228.499"/>
<polygon fill="midnightblue" stroke="midnightblue" points="98.0979,-207.76 87.5309,-208.528 96.2703,-214.517 98.0979,-207.76"/>
</g>
<!-- Node14 -->
<g id="node15" class="node"><title>Node14</title>
<g id="a_node15"><a xlink:href="../../d3/db8/a00316.html" target="_top" xlink:title="A Statement about an Inheritance relation. ">
<polygon fill="none" stroke="black" points="666.5,-152.5 666.5,-171.5 794.5,-171.5 794.5,-152.5 666.5,-152.5"/>
<text text-anchor="middle" x="730.5" y="-159.5" font-family="Helvetica,sans-Serif" font-size="10.00">nars.language.Inheritance</text>
</a>
</g>
</g>
<!-- Node13&#45;&gt;Node14 -->
<g id="edge14" class="edge"><title>Node13&#45;&gt;Node14</title>
<path fill="none" stroke="midnightblue" d="M605.297,-99.1519C609.366,-100.872 613.31,-102.812 617,-105 637.011,-116.865 632.903,-131.281 653,-143 659.62,-146.86 667.005,-149.941 674.502,-152.398"/>
<polygon fill="midnightblue" stroke="midnightblue" points="606.226,-95.7625 595.634,-95.5265 603.767,-102.316 606.226,-95.7625"/>
</g>
<!-- Node15 -->
<g id="node16" class="node"><title>Node15</title>
<g id="a_node16"><a xlink:href="../../dd/de2/a00320.html" target="_top" xlink:title="A Statement about an Instance relation, which is used only in Narsese for I/O, and translated into In...">
<polygon fill="none" stroke="black" points="671.5,-114.5 671.5,-133.5 789.5,-133.5 789.5,-114.5 671.5,-114.5"/>
<text text-anchor="middle" x="730.5" y="-121.5" font-family="Helvetica,sans-Serif" font-size="10.00">nars.language.Instance</text>
</a>
</g>
</g>
<!-- Node13&#45;&gt;Node15 -->
<g id="edge15" class="edge"><title>Node13&#45;&gt;Node15</title>
<path fill="none" stroke="midnightblue" d="M601.367,-97.6095C627.607,-103.014 658.436,-109.364 683.278,-114.48"/>
<polygon fill="midnightblue" stroke="midnightblue" points="602.058,-94.1783 591.557,-95.589 600.645,-101.034 602.058,-94.1783"/>
</g>
<!-- Node16 -->
<g id="node17" class="node"><title>Node16</title>
<g id="a_node17"><a xlink:href="../../d4/d8f/a00324.html" target="_top" xlink:title="A Statement about an InstanceProperty relation, which is used only in Narsese for I/O...">
<polygon fill="none" stroke="black" points="653,-76.5 653,-95.5 808,-95.5 808,-76.5 653,-76.5"/>
<text text-anchor="middle" x="730.5" y="-83.5" font-family="Helvetica,sans-Serif" font-size="10.00">nars.language.InstanceProperty</text>
</a>
</g>
</g>
<!-- Node13&#45;&gt;Node16 -->
<g id="edge16" class="edge"><title>Node13&#45;&gt;Node16</title>
<path fill="none" stroke="midnightblue" d="M616.893,-86C628.66,-86 640.892,-86 652.77,-86"/>
<polygon fill="midnightblue" stroke="midnightblue" points="616.692,-82.5001 606.692,-86 616.692,-89.5001 616.692,-82.5001"/>
</g>
<!-- Node17 -->
<g id="node18" class="node"><title>Node17</title>
<g id="a_node18"><a xlink:href="../../d8/d8e/a00344.html" target="_top" xlink:title="A Statement about a Property relation, which is used only in Narsese for I/O, and translated into Inh...">
<polygon fill="none" stroke="black" points="672,-38.5 672,-57.5 789,-57.5 789,-38.5 672,-38.5"/>
<text text-anchor="middle" x="730.5" y="-45.5" font-family="Helvetica,sans-Serif" font-size="10.00">nars.language.Property</text>
</a>
</g>
</g>
<!-- Node13&#45;&gt;Node17 -->
<g id="edge17" class="edge"><title>Node13&#45;&gt;Node17</title>
<path fill="none" stroke="midnightblue" d="M601.367,-74.3905C627.607,-68.986 658.436,-62.6365 683.278,-57.5201"/>
<polygon fill="midnightblue" stroke="midnightblue" points="600.645,-70.9656 591.557,-76.411 602.058,-77.8217 600.645,-70.9656"/>
</g>
<!-- Node18 -->
<g id="node19" class="node"><title>Node18</title>
<g id="a_node19"><a xlink:href="../../d6/de1/a00356.html" target="_top" xlink:title="A Statement about a Similarity relation. ">
<polygon fill="none" stroke="black" points="670,-0.5 670,-19.5 791,-19.5 791,-0.5 670,-0.5"/>
<text text-anchor="middle" x="730.5" y="-7.5" font-family="Helvetica,sans-Serif" font-size="10.00">nars.language.Similarity</text>
</a>
</g>
</g>
<!-- Node13&#45;&gt;Node18 -->
<g id="edge18" class="edge"><title>Node13&#45;&gt;Node18</title>
<path fill="none" stroke="midnightblue" d="M568.897,-71.2204C590.274,-58.5337 622.804,-40.5222 653,-29 662.589,-25.3409 673.126,-22.1951 683.232,-19.5757"/>
<polygon fill="midnightblue" stroke="midnightblue" points="566.947,-68.3092 560.184,-76.4645 570.556,-74.3069 566.947,-68.3092"/>
</g>
</g>
</svg>
