<?xml version="1.0" encoding="UTF-8" standalone="no"?>
<!DOCTYPE svg PUBLIC "-//W3C//DTD SVG 1.1//EN"
 "http://www.w3.org/Graphics/SVG/1.1/DTD/svg11.dtd">
<!-- Generated by graphviz version 2.38.0 (20140413.2041)
 -->
<!-- Title: nars.entity.TaskLink Pages: 1 -->
<svg width="256pt" height="196pt"
 viewBox="0.00 0.00 256.00 196.00" xmlns="http://www.w3.org/2000/svg" xmlns:xlink="http://www.w3.org/1999/xlink">
<g id="graph0" class="graph" transform="scale(1 1) rotate(0) translate(4 192)">
<title>nars.entity.TaskLink</title>
<!-- Node0 -->
<g id="node1" class="node"><title>Node0</title>
<polygon fill="#bfbfbf" stroke="black" points="97,-0.5 97,-19.5 202,-19.5 202,-0.5 97,-0.5"/>
<text text-anchor="middle" x="149.5" y="-7.5" font-family="Helvetica,sans-Serif" font-size="10.00">nars.entity.TaskLink</text>
</g>
<!-- Node1 -->
<g id="node2" class="node"><title>Node1</title>
<g id="a_node2"><a xlink:href="../../d0/d53/a00232.html" target="_top" xlink:title="A link between a compound term and a component term. ">
<polygon fill="none" stroke="black" points="40.5,-56.5 40.5,-75.5 146.5,-75.5 146.5,-56.5 40.5,-56.5"/>
<text text-anchor="middle" x="93.5" y="-63.5" font-family="Helvetica,sans-Serif" font-size="10.00">nars.entity.TermLink</text>
</a>
</g>
</g>
<!-- Node1&#45;&gt;Node0 -->
<g id="edge1" class="edge"><title>Node1&#45;&gt;Node0</title>
<path fill="none" stroke="midnightblue" d="M109.83,-49.2533C119.765,-39.6731 132.088,-27.7906 140.339,-19.8339"/>
<polygon fill="midnightblue" stroke="midnightblue" points="107.266,-46.8631 102.497,-56.324 112.125,-51.902 107.266,-46.8631"/>
</g>
<!-- Node2 -->
<g id="node3" class="node"><title>Node2</title>
<g id="a_node3"><a xlink:href="../../dc/d31/a00208.html" target="_top" xlink:title="An item is an object that can be put into a Bag, to participate in the resource competition of the sy...">
<polygon fill="none" stroke="black" points="0,-112.5 0,-131.5 85,-131.5 85,-112.5 0,-112.5"/>
<text text-anchor="middle" x="42.5" y="-119.5" font-family="Helvetica,sans-Serif" font-size="10.00">nars.entity.Item</text>
</a>
</g>
</g>
<!-- Node2&#45;&gt;Node1 -->
<g id="edge2" class="edge"><title>Node2&#45;&gt;Node1</title>
<path fill="none" stroke="midnightblue" d="M57.8779,-104.718C66.8669,-95.1997 77.8592,-83.5608 85.2351,-75.7511"/>
<polygon fill="midnightblue" stroke="midnightblue" points="55.2433,-102.41 50.9216,-112.083 60.3324,-107.216 55.2433,-102.41"/>
</g>
<!-- Node3 -->
<g id="node4" class="node"><title>Node3</title>
<polygon fill="none" stroke="#bfbfbf" points="11.5,-168.5 11.5,-187.5 73.5,-187.5 73.5,-168.5 11.5,-168.5"/>
<text text-anchor="middle" x="42.5" y="-175.5" font-family="Helvetica,sans-Serif" font-size="10.00">ItemStruct</text>
</g>
<!-- Node3&#45;&gt;Node2 -->
<g id="edge3" class="edge"><title>Node3&#45;&gt;Node2</title>
<path fill="none" stroke="midnightblue" d="M42.5,-157.805C42.5,-148.91 42.5,-138.78 42.5,-131.751"/>
<polygon fill="midnightblue" stroke="midnightblue" points="39.0001,-158.083 42.5,-168.083 46.0001,-158.083 39.0001,-158.083"/>
</g>
<!-- Node4 -->
<g id="node5" class="node"><title>Node4</title>
<polygon fill="none" stroke="#bfbfbf" points="103,-112.5 103,-131.5 186,-131.5 186,-112.5 103,-112.5"/>
<text text-anchor="middle" x="144.5" y="-119.5" font-family="Helvetica,sans-Serif" font-size="10.00">TermLinkStruct</text>
</g>
<!-- Node4&#45;&gt;Node1 -->
<g id="edge4" class="edge"><title>Node4&#45;&gt;Node1</title>
<path fill="none" stroke="midnightblue" d="M129.122,-104.718C120.133,-95.1997 109.141,-83.5608 101.765,-75.7511"/>
<polygon fill="midnightblue" stroke="midnightblue" points="126.668,-107.216 136.078,-112.083 131.757,-102.41 126.668,-107.216"/>
</g>
<!-- Node5 -->
<g id="node6" class="node"><title>Node5</title>
<polygon fill="none" stroke="#bfbfbf" points="165,-56.5 165,-75.5 248,-75.5 248,-56.5 165,-56.5"/>
<text text-anchor="middle" x="206.5" y="-63.5" font-family="Helvetica,sans-Serif" font-size="10.00">TaskLinkStruct</text>
</g>
<!-- Node5&#45;&gt;Node0 -->
<g id="edge5" class="edge"><title>Node5&#45;&gt;Node0</title>
<path fill="none" stroke="midnightblue" d="M189.879,-49.2533C179.766,-39.6731 167.223,-27.7906 158.825,-19.8339"/>
<polygon fill="midnightblue" stroke="midnightblue" points="187.675,-51.9873 197.342,-56.324 192.49,-46.9056 187.675,-51.9873"/>
</g>
</g>
</svg>
