<?xml version="1.0" encoding="UTF-8" standalone="no"?>
<!DOCTYPE svg PUBLIC "-//W3C//DTD SVG 1.1//EN"
 "http://www.w3.org/Graphics/SVG/1.1/DTD/svg11.dtd">
<!-- Generated by graphviz version 2.38.0 (20140413.2041)
 -->
<!-- Title: nars.entity.BudgetValue.setDurability Pages: 1 -->
<svg width="2767pt" height="151pt"
 viewBox="0.00 0.00 2767.00 150.50" xmlns="http://www.w3.org/2000/svg" xmlns:xlink="http://www.w3.org/1999/xlink">
<g id="graph0" class="graph" transform="scale(1 1) rotate(0) translate(4 146.5)">
<title>nars.entity.BudgetValue.setDurability</title>
<!-- Node349 -->
<g id="node1" class="node"><title>Node349</title>
<polygon fill="#bfbfbf" stroke="black" points="0,-50.5 0,-80.5 137,-80.5 137,-50.5 0,-50.5"/>
<text text-anchor="start" x="8" y="-68.5" font-family="Helvetica,sans-Serif" font-size="10.00">nars.entity.BudgetValue.set</text>
<text text-anchor="middle" x="68.5" y="-57.5" font-family="Helvetica,sans-Serif" font-size="10.00">Durability</text>
</g>
<!-- Node350 -->
<g id="node2" class="node"><title>Node350</title>
<g id="a_node2"><a xlink:href="../../d9/d21/a00240.html#a64bec0b466ef31bc3150de23f0623309" target="_top" xlink:title="Merge an item into another one in a bag, when the two are identical except in budget values...">
<polygon fill="none" stroke="black" points="173,-76 173,-95 358,-95 358,-76 173,-76"/>
<text text-anchor="middle" x="265.5" y="-83" font-family="Helvetica,sans-Serif" font-size="10.00">nars.inference.BudgetFunctions.merge</text>
</a>
</g>
</g>
<!-- Node349&#45;&gt;Node350 -->
<g id="edge1" class="edge"><title>Node349&#45;&gt;Node350</title>
<path fill="none" stroke="midnightblue" d="M147.308,-73.4803C155.729,-74.344 164.355,-75.2288 172.921,-76.1072"/>
<polygon fill="midnightblue" stroke="midnightblue" points="147.459,-69.9775 137.154,-72.4389 146.745,-76.941 147.459,-69.9775"/>
</g>
<!-- Node355 -->
<g id="node7" class="node"><title>Node355</title>
<g id="a_node7"><a xlink:href="../../dc/d31/a00208.html#a0f27e5a39dc50b5f108732f59199db22" target="_top" xlink:title="Set durability value. ">
<polygon fill="none" stroke="black" points="194,-37 194,-56 337,-56 337,-37 194,-37"/>
<text text-anchor="middle" x="265.5" y="-44" font-family="Helvetica,sans-Serif" font-size="10.00">nars.entity.Item.setDurability</text>
</a>
</g>
</g>
<!-- Node349&#45;&gt;Node355 -->
<g id="edge6" class="edge"><title>Node349&#45;&gt;Node355</title>
<path fill="none" stroke="midnightblue" d="M147.191,-57.9301C162.643,-56.4245 178.788,-54.8515 193.983,-53.3709"/>
<polygon fill="midnightblue" stroke="midnightblue" points="146.768,-54.4547 137.154,-58.908 147.447,-61.4217 146.768,-54.4547"/>
</g>
<!-- Node351 -->
<g id="node3" class="node"><title>Node351</title>
<g id="a_node3"><a xlink:href="../../dd/da2/a00192.html#a4fdeae08389c60a4d89bc0b85a92848f" target="_top" xlink:title="Merge one BudgetValue into another. ">
<polygon fill="none" stroke="black" points="414.5,-78 414.5,-97 565.5,-97 565.5,-78 414.5,-78"/>
<text text-anchor="middle" x="490" y="-85" font-family="Helvetica,sans-Serif" font-size="10.00">nars.entity.BudgetValue.merge</text>
</a>
</g>
</g>
<!-- Node350&#45;&gt;Node351 -->
<g id="edge2" class="edge"><title>Node350&#45;&gt;Node351</title>
<path fill="none" stroke="midnightblue" d="M368.411,-86.4161C383.894,-86.5552 399.621,-86.6966 414.379,-86.8292"/>
<polygon fill="midnightblue" stroke="midnightblue" points="368.315,-82.9151 358.284,-86.325 368.252,-89.9149 368.315,-82.9151"/>
</g>
<!-- Node352 -->
<g id="node4" class="node"><title>Node352</title>
<g id="a_node4"><a xlink:href="../../dc/d31/a00208.html#a75638f93f001719a532326adabca171c" target="_top" xlink:title="Merge with another Item with identical key. ">
<polygon fill="none" stroke="black" points="637.5,-79 637.5,-98 752.5,-98 752.5,-79 637.5,-79"/>
<text text-anchor="middle" x="695" y="-86" font-family="Helvetica,sans-Serif" font-size="10.00">nars.entity.Item.merge</text>
</a>
</g>
</g>
<!-- Node351&#45;&gt;Node352 -->
<g id="edge3" class="edge"><title>Node351&#45;&gt;Node352</title>
<path fill="none" stroke="midnightblue" d="M575.801,-87.9177C596.514,-88.0198 618.181,-88.1265 637.223,-88.2203"/>
<polygon fill="midnightblue" stroke="midnightblue" points="575.742,-84.4175 565.725,-87.8681 575.707,-91.4174 575.742,-84.4175"/>
</g>
<!-- Node353 -->
<g id="node5" class="node"><title>Node353</title>
<g id="a_node5"><a xlink:href="../../d5/ddf/a00224.html#abae2edb1e9cccff191a095ebd7776895" target="_top" xlink:title="Merge one Task into another. ">
<polygon fill="none" stroke="black" points="814,-123 814,-142 931,-142 931,-123 814,-123"/>
<text text-anchor="middle" x="872.5" y="-130" font-family="Helvetica,sans-Serif" font-size="10.00">nars.entity.Task.merge</text>
</a>
</g>
</g>
<!-- Node352&#45;&gt;Node353 -->
<g id="edge4" class="edge"><title>Node352&#45;&gt;Node353</title>
<path fill="none" stroke="midnightblue" d="M744.11,-100.562C772.257,-107.618 807.293,-116.402 833.493,-122.971"/>
<polygon fill="midnightblue" stroke="midnightblue" points="744.632,-97.0843 734.081,-98.0473 742.93,-103.874 744.632,-97.0843"/>
</g>
<!-- Node354 -->
<g id="node6" class="node"><title>Node354</title>
<g id="a_node6"><a xlink:href="../../d6/db8/a00376.html#a9d42fa45681a07796750a350e08d095b" target="_top" xlink:title="Add a new Item into the Bag. ">
<polygon fill="none" stroke="black" points="804,-73.5 804,-103.5 941,-103.5 941,-73.5 804,-73.5"/>
<text text-anchor="start" x="812" y="-91.5" font-family="Helvetica,sans-Serif" font-size="10.00">nars.storage.Bag&lt; Concept</text>
<text text-anchor="middle" x="872.5" y="-80.5" font-family="Helvetica,sans-Serif" font-size="10.00"> &gt;::putIn</text>
</a>
</g>
</g>
<!-- Node352&#45;&gt;Node354 -->
<g id="edge5" class="edge"><title>Node352&#45;&gt;Node354</title>
<path fill="none" stroke="midnightblue" d="M763.037,-88.5C776.39,-88.5 790.423,-88.5 803.798,-88.5"/>
<polygon fill="midnightblue" stroke="midnightblue" points="762.98,-85.0001 752.98,-88.5 762.98,-92.0001 762.98,-85.0001"/>
</g>
<!-- Node356 -->
<g id="node8" class="node"><title>Node356</title>
<g id="a_node8"><a xlink:href="../../d9/d21/a00240.html#aabac530761ea7ac0f43f0d1ea8d085c8" target="_top" xlink:title="Activate a concept by an incoming TaskLink. ">
<polygon fill="none" stroke="black" points="394,-37 394,-56 586,-56 586,-37 394,-37"/>
<text text-anchor="middle" x="490" y="-44" font-family="Helvetica,sans-Serif" font-size="10.00">nars.inference.BudgetFunctions.activate</text>
</a>
</g>
</g>
<!-- Node355&#45;&gt;Node356 -->
<g id="edge7" class="edge"><title>Node355&#45;&gt;Node356</title>
<path fill="none" stroke="midnightblue" d="M347.456,-46.5C362.466,-46.5 378.272,-46.5 393.664,-46.5"/>
<polygon fill="midnightblue" stroke="midnightblue" points="347.206,-43.0001 337.206,-46.5 347.206,-50.0001 347.206,-43.0001"/>
</g>
<!-- Node357 -->
<g id="node9" class="node"><title>Node357</title>
<g id="a_node9"><a xlink:href="../../d4/d27/a00392.html#a7affdc42dcb55d27d76cf636eab6230f" target="_top" xlink:title="Adjust the activation level of a Concept. ">
<polygon fill="none" stroke="black" points="622,-27.5 622,-57.5 768,-57.5 768,-27.5 622,-27.5"/>
<text text-anchor="start" x="630" y="-45.5" font-family="Helvetica,sans-Serif" font-size="10.00">nars.storage.Memory.activate</text>
<text text-anchor="middle" x="695" y="-34.5" font-family="Helvetica,sans-Serif" font-size="10.00">Concept</text>
</a>
</g>
</g>
<!-- Node356&#45;&gt;Node357 -->
<g id="edge8" class="edge"><title>Node356&#45;&gt;Node357</title>
<path fill="none" stroke="midnightblue" d="M596.354,-44.4241C604.952,-44.2546 613.512,-44.086 621.789,-43.9229"/>
<polygon fill="midnightblue" stroke="midnightblue" points="596.188,-40.9266 586.259,-44.623 596.326,-47.9252 596.188,-40.9266"/>
</g>
<!-- Node358 -->
<g id="node10" class="node"><title>Node358</title>
<g id="a_node10"><a xlink:href="../../d7/ded/a00196.html#aef21f5ae7bef5194bd37ae526302843d" target="_top" xlink:title="Insert a TaskLink into the TaskLink bag. ">
<polygon fill="none" stroke="black" points="808,-24.5 808,-54.5 937,-54.5 937,-24.5 808,-24.5"/>
<text text-anchor="start" x="816" y="-42.5" font-family="Helvetica,sans-Serif" font-size="10.00">nars.entity.Concept.insert</text>
<text text-anchor="middle" x="872.5" y="-31.5" font-family="Helvetica,sans-Serif" font-size="10.00">TaskLink</text>
</a>
</g>
</g>
<!-- Node357&#45;&gt;Node358 -->
<g id="edge9" class="edge"><title>Node357&#45;&gt;Node358</title>
<path fill="none" stroke="midnightblue" d="M778.381,-41.0918C788.259,-40.9229 798.227,-40.7525 807.783,-40.5892"/>
<polygon fill="midnightblue" stroke="midnightblue" points="778.081,-37.5963 768.142,-41.2668 778.201,-44.5953 778.081,-37.5963"/>
</g>
<!-- Node359 -->
<g id="node11" class="node"><title>Node359</title>
<g id="a_node11"><a xlink:href="../../d7/ded/a00196.html#a501121a11fc046eea4b69720cb622d84" target="_top" xlink:title="Link to a new task from all relevant concepts for continued processing in the near future for unspeci...">
<polygon fill="none" stroke="black" points="977,-24.5 977,-54.5 1097,-54.5 1097,-24.5 977,-24.5"/>
<text text-anchor="start" x="985" y="-42.5" font-family="Helvetica,sans-Serif" font-size="10.00">nars.entity.Concept.link</text>
<text text-anchor="middle" x="1037" y="-31.5" font-family="Helvetica,sans-Serif" font-size="10.00">ToTask</text>
</a>
</g>
</g>
<!-- Node358&#45;&gt;Node359 -->
<g id="edge10" class="edge"><title>Node358&#45;&gt;Node359</title>
<path fill="none" stroke="midnightblue" d="M947.469,-39.5C957.341,-39.5 967.358,-39.5 976.931,-39.5"/>
<polygon fill="midnightblue" stroke="midnightblue" points="947.258,-36.0001 937.258,-39.5 947.258,-43.0001 947.258,-36.0001"/>
</g>
<!-- Node360 -->
<g id="node12" class="node"><title>Node360</title>
<g id="a_node12"><a xlink:href="../../d7/ded/a00196.html#a9ea7c3154932d7a736c105eb55daeb5c" target="_top" xlink:title="Directly process a new task. ">
<polygon fill="none" stroke="black" points="1133,-24.5 1133,-54.5 1262,-54.5 1262,-24.5 1133,-24.5"/>
<text text-anchor="start" x="1141" y="-42.5" font-family="Helvetica,sans-Serif" font-size="10.00">nars.entity.Concept.direct</text>
<text text-anchor="middle" x="1197.5" y="-31.5" font-family="Helvetica,sans-Serif" font-size="10.00">Process</text>
</a>
</g>
</g>
<!-- Node359&#45;&gt;Node360 -->
<g id="edge11" class="edge"><title>Node359&#45;&gt;Node360</title>
<path fill="none" stroke="midnightblue" d="M1107.02,-39.5C1115.63,-39.5 1124.4,-39.5 1132.91,-39.5"/>
<polygon fill="midnightblue" stroke="midnightblue" points="1107.02,-36.0001 1097.02,-39.5 1107.02,-43.0001 1107.02,-36.0001"/>
</g>
<!-- Node361 -->
<g id="node13" class="node"><title>Node361</title>
<g id="a_node13"><a xlink:href="../../d4/d27/a00392.html#af8d07412d21a441a5c7005a477b06468" target="_top" xlink:title="Immediate processing of a new task, in constant time Local processing, in one concept only...">
<polygon fill="none" stroke="black" points="1298,-24.5 1298,-54.5 1455,-54.5 1455,-24.5 1298,-24.5"/>
<text text-anchor="start" x="1306" y="-42.5" font-family="Helvetica,sans-Serif" font-size="10.00">nars.storage.Memory.immediate</text>
<text text-anchor="middle" x="1376.5" y="-31.5" font-family="Helvetica,sans-Serif" font-size="10.00">Process</text>
</a>
</g>
</g>
<!-- Node360&#45;&gt;Node361 -->
<g id="edge12" class="edge"><title>Node360&#45;&gt;Node361</title>
<path fill="none" stroke="midnightblue" d="M1272.49,-39.5C1280.85,-39.5 1289.39,-39.5 1297.8,-39.5"/>
<polygon fill="midnightblue" stroke="midnightblue" points="1272.4,-36.0001 1262.4,-39.5 1272.4,-43.0001 1272.4,-36.0001"/>
</g>
<!-- Node362 -->
<g id="node14" class="node"><title>Node362</title>
<g id="a_node14"><a xlink:href="../../d4/d27/a00392.html#ae43b86074c0d8f6a324696f69faa54b3" target="_top" xlink:title="Process the newTasks accumulated in the previous workCycle, accept input ones and those that correspo...">
<polygon fill="none" stroke="black" points="1491,-49.5 1491,-79.5 1637,-79.5 1637,-49.5 1491,-49.5"/>
<text text-anchor="start" x="1499" y="-67.5" font-family="Helvetica,sans-Serif" font-size="10.00">nars.storage.Memory.process</text>
<text text-anchor="middle" x="1564" y="-56.5" font-family="Helvetica,sans-Serif" font-size="10.00">NewTask</text>
</a>
</g>
</g>
<!-- Node361&#45;&gt;Node362 -->
<g id="edge13" class="edge"><title>Node361&#45;&gt;Node362</title>
<path fill="none" stroke="midnightblue" d="M1465.12,-51.3093C1473.71,-52.466 1482.35,-53.6306 1490.75,-54.7633"/>
<polygon fill="midnightblue" stroke="midnightblue" points="1465.47,-47.8245 1455.09,-49.9574 1464.54,-54.7618 1465.47,-47.8245"/>
</g>
<!-- Node369 -->
<g id="node21" class="node"><title>Node369</title>
<g id="a_node21"><a xlink:href="../../d4/d27/a00392.html#a5061708f88897cfdf4e0671c846762ca" target="_top" xlink:title="Select a novel task to process. ">
<polygon fill="none" stroke="black" points="1491,-0.5 1491,-30.5 1637,-30.5 1637,-0.5 1491,-0.5"/>
<text text-anchor="start" x="1499" y="-18.5" font-family="Helvetica,sans-Serif" font-size="10.00">nars.storage.Memory.process</text>
<text text-anchor="middle" x="1564" y="-7.5" font-family="Helvetica,sans-Serif" font-size="10.00">NovelTask</text>
</a>
</g>
</g>
<!-- Node361&#45;&gt;Node369 -->
<g id="edge20" class="edge"><title>Node361&#45;&gt;Node369</title>
<path fill="none" stroke="midnightblue" d="M1465.12,-28.1631C1473.71,-27.0527 1482.35,-25.9346 1490.75,-24.8472"/>
<polygon fill="midnightblue" stroke="midnightblue" points="1464.56,-24.7066 1455.09,-29.4609 1465.46,-31.6488 1464.56,-24.7066"/>
</g>
<!-- Node363 -->
<g id="node15" class="node"><title>Node363</title>
<g id="a_node15"><a xlink:href="../../d4/d27/a00392.html#a59ae339d666409988d90d29be4f73a91" target="_top" xlink:title="An atomic working workCycle of the system: process new Tasks, then fireFromProcessConcept a concept...">
<polygon fill="none" stroke="black" points="1673,-24.5 1673,-54.5 1806,-54.5 1806,-24.5 1673,-24.5"/>
<text text-anchor="start" x="1681" y="-42.5" font-family="Helvetica,sans-Serif" font-size="10.00">nars.storage.Memory.work</text>
<text text-anchor="middle" x="1739.5" y="-31.5" font-family="Helvetica,sans-Serif" font-size="10.00">Cycle</text>
</a>
</g>
</g>
<!-- Node362&#45;&gt;Node363 -->
<g id="edge14" class="edge"><title>Node362&#45;&gt;Node363</title>
<path fill="none" stroke="midnightblue" d="M1647.12,-52.6675C1655.72,-51.4286 1664.37,-50.1809 1672.76,-48.9733"/>
<polygon fill="midnightblue" stroke="midnightblue" points="1646.47,-49.2244 1637.07,-54.1149 1647.47,-56.1529 1646.47,-49.2244"/>
</g>
<!-- Node364 -->
<g id="node16" class="node"><title>Node364</title>
<g id="a_node16"><a xlink:href="../../df/d15/a00416.html#a0d5c797dc17d9e8d0998852915e0f303" target="_top" xlink:title="nars.storage.ReasonerBatch.doTick">
<polygon fill="none" stroke="black" points="1842,-30 1842,-49 2015,-49 2015,-30 1842,-30"/>
<text text-anchor="middle" x="1928.5" y="-37" font-family="Helvetica,sans-Serif" font-size="10.00">nars.storage.ReasonerBatch.doTick</text>
</a>
</g>
</g>
<!-- Node363&#45;&gt;Node364 -->
<g id="edge15" class="edge"><title>Node363&#45;&gt;Node364</title>
<path fill="none" stroke="midnightblue" d="M1816.34,-39.5C1824.78,-39.5 1833.42,-39.5 1841.97,-39.5"/>
<polygon fill="midnightblue" stroke="midnightblue" points="1816.17,-36.0001 1806.17,-39.5 1816.17,-43.0001 1816.17,-36.0001"/>
</g>
<!-- Node365 -->
<g id="node17" class="node"><title>Node365</title>
<g id="a_node17"><a xlink:href="../../df/d15/a00416.html#a3468aa0f99edcd66412f27922dddb880" target="_top" xlink:title="A clock tick. ">
<polygon fill="none" stroke="black" points="2051,-30 2051,-49 2211,-49 2211,-30 2051,-30"/>
<text text-anchor="middle" x="2131" y="-37" font-family="Helvetica,sans-Serif" font-size="10.00">nars.storage.ReasonerBatch.tick</text>
</a>
</g>
</g>
<!-- Node364&#45;&gt;Node365 -->
<g id="edge16" class="edge"><title>Node364&#45;&gt;Node365</title>
<path fill="none" stroke="midnightblue" d="M2025.13,-39.5C2033.7,-39.5 2042.31,-39.5 2050.71,-39.5"/>
<polygon fill="midnightblue" stroke="midnightblue" points="2025.11,-36.0001 2015.11,-39.5 2025.11,-43.0001 2025.11,-36.0001"/>
</g>
<!-- Node366 -->
<g id="node18" class="node"><title>Node366</title>
<g id="a_node18"><a xlink:href="../../d9/da1/a00396.html#a5d9cfe517bcfbe41e5251910bcd119c1" target="_top" xlink:title="Run to completion: repeatedly execute NARS working cycle, until Inputs are Finished, or 1000 steps. ">
<polygon fill="none" stroke="black" points="2247,-30 2247,-49 2391,-49 2391,-30 2247,-30"/>
<text text-anchor="middle" x="2319" y="-37" font-family="Helvetica,sans-Serif" font-size="10.00">nars.storage.NARSBatch.run</text>
</a>
</g>
</g>
<!-- Node365&#45;&gt;Node366 -->
<g id="edge17" class="edge"><title>Node365&#45;&gt;Node366</title>
<path fill="none" stroke="midnightblue" d="M2221.22,-39.5C2229.82,-39.5 2238.47,-39.5 2246.87,-39.5"/>
<polygon fill="midnightblue" stroke="midnightblue" points="2221.15,-36.0001 2211.15,-39.5 2221.15,-43.0001 2221.15,-36.0001"/>
</g>
<!-- Node367 -->
<g id="node19" class="node"><title>Node367</title>
<g id="a_node19"><a xlink:href="../../d9/da1/a00396.html#a7c307c6b842f82664de6b0e52bdf8efc" target="_top" xlink:title="non&#45;static equivalent to main(String[]) : run to completion from an input file ">
<polygon fill="none" stroke="black" points="2427,-24.5 2427,-54.5 2571,-54.5 2571,-24.5 2427,-24.5"/>
<text text-anchor="start" x="2435" y="-42.5" font-family="Helvetica,sans-Serif" font-size="10.00">nars.storage.NARSBatch.run</text>
<text text-anchor="middle" x="2499" y="-31.5" font-family="Helvetica,sans-Serif" font-size="10.00">Inference</text>
</a>
</g>
</g>
<!-- Node366&#45;&gt;Node367 -->
<g id="edge18" class="edge"><title>Node366&#45;&gt;Node367</title>
<path fill="none" stroke="midnightblue" d="M2401.17,-39.5C2409.79,-39.5 2418.51,-39.5 2427,-39.5"/>
<polygon fill="midnightblue" stroke="midnightblue" points="2401.12,-36.0001 2391.12,-39.5 2401.12,-43.0001 2401.12,-36.0001"/>
</g>
<!-- Node368 -->
<g id="node20" class="node"><title>Node368</title>
<g id="a_node20"><a xlink:href="../../d9/da1/a00396.html#abafc597289bc2f6453b5cd0dd6634e54" target="_top" xlink:title="The entry point of the standalone application. ">
<polygon fill="none" stroke="black" points="2607,-30 2607,-49 2759,-49 2759,-30 2607,-30"/>
<text text-anchor="middle" x="2683" y="-37" font-family="Helvetica,sans-Serif" font-size="10.00">nars.storage.NARSBatch.main</text>
</a>
</g>
</g>
<!-- Node367&#45;&gt;Node368 -->
<g id="edge19" class="edge"><title>Node367&#45;&gt;Node368</title>
<path fill="none" stroke="midnightblue" d="M2581.17,-39.5C2589.76,-39.5 2598.48,-39.5 2607,-39.5"/>
<polygon fill="midnightblue" stroke="midnightblue" points="2581.15,-36.0001 2571.15,-39.5 2581.15,-43.0001 2581.15,-36.0001"/>
</g>
<!-- Node369&#45;&gt;Node363 -->
<g id="edge21" class="edge"><title>Node369&#45;&gt;Node363</title>
<path fill="none" stroke="midnightblue" d="M1647.12,-26.8592C1655.72,-28.0486 1664.37,-29.2464 1672.76,-30.4056"/>
<polygon fill="midnightblue" stroke="midnightblue" points="1647.46,-23.373 1637.07,-25.4697 1646.5,-30.307 1647.46,-23.373"/>
</g>
</g>
</svg>
