<?xml version="1.0" encoding="UTF-8" standalone="no"?>
<!DOCTYPE svg PUBLIC "-//W3C//DTD SVG 1.1//EN"
 "http://www.w3.org/Graphics/SVG/1.1/DTD/svg11.dtd">
<!-- Generated by graphviz version 2.38.0 (20140413.2041)
 -->
<!-- Title: nars.entity.BudgetValue.getQuality Pages: 1 -->
<svg width="877pt" height="94pt"
 viewBox="0.00 0.00 877.00 93.50" xmlns="http://www.w3.org/2000/svg" xmlns:xlink="http://www.w3.org/1999/xlink">
<g id="graph0" class="graph" transform="scale(1 1) rotate(0) translate(4 89.5)">
<title>nars.entity.BudgetValue.getQuality</title>
<!-- Node254 -->
<g id="node1" class="node"><title>Node254</title>
<polygon fill="#bfbfbf" stroke="black" points="0,-41.5 0,-71.5 137,-71.5 137,-41.5 0,-41.5"/>
<text text-anchor="start" x="8" y="-59.5" font-family="Helvetica,sans-Serif" font-size="10.00">nars.entity.BudgetValue.get</text>
<text text-anchor="middle" x="68.5" y="-48.5" font-family="Helvetica,sans-Serif" font-size="10.00">Quality</text>
</g>
<!-- Node255 -->
<g id="node2" class="node"><title>Node255</title>
<g id="a_node2"><a xlink:href="../../dc/d31/a00208.html#af79c85ab2fe1dd641821a7503028ed6e" target="_top" xlink:title="Get quality value. ">
<polygon fill="none" stroke="black" points="199.5,-66 199.5,-85 331.5,-85 331.5,-66 199.5,-66"/>
<text text-anchor="middle" x="265.5" y="-73" font-family="Helvetica,sans-Serif" font-size="10.00">nars.entity.Item.getQuality</text>
</a>
</g>
</g>
<!-- Node254&#45;&gt;Node255 -->
<g id="edge1" class="edge"><title>Node254&#45;&gt;Node255</title>
<path fill="none" stroke="midnightblue" d="M147.197,-64.0704C164.451,-65.7517 182.57,-67.5171 199.266,-69.1439"/>
<polygon fill="midnightblue" stroke="midnightblue" points="147.447,-60.5783 137.154,-63.092 146.768,-67.5453 147.447,-60.5783"/>
</g>
<!-- Node256 -->
<g id="node3" class="node"><title>Node256</title>
<g id="a_node3"><a xlink:href="../../d9/d21/a00240.html#a64bec0b466ef31bc3150de23f0623309" target="_top" xlink:title="Merge an item into another one in a bag, when the two are identical except in budget values...">
<polygon fill="none" stroke="black" points="173,-28 173,-47 358,-47 358,-28 173,-28"/>
<text text-anchor="middle" x="265.5" y="-35" font-family="Helvetica,sans-Serif" font-size="10.00">nars.inference.BudgetFunctions.merge</text>
</a>
</g>
</g>
<!-- Node254&#45;&gt;Node256 -->
<g id="edge2" class="edge"><title>Node254&#45;&gt;Node256</title>
<path fill="none" stroke="midnightblue" d="M147.308,-48.9187C155.729,-48.0982 164.355,-47.2577 172.921,-46.4231"/>
<polygon fill="midnightblue" stroke="midnightblue" points="146.768,-45.4547 137.154,-49.908 147.447,-52.4217 146.768,-45.4547"/>
</g>
<!-- Node257 -->
<g id="node4" class="node"><title>Node257</title>
<g id="a_node4"><a xlink:href="../../dd/da2/a00192.html#a4fdeae08389c60a4d89bc0b85a92848f" target="_top" xlink:title="Merge one BudgetValue into another. ">
<polygon fill="none" stroke="black" points="394,-28 394,-47 545,-47 545,-28 394,-28"/>
<text text-anchor="middle" x="469.5" y="-35" font-family="Helvetica,sans-Serif" font-size="10.00">nars.entity.BudgetValue.merge</text>
</a>
</g>
</g>
<!-- Node256&#45;&gt;Node257 -->
<g id="edge3" class="edge"><title>Node256&#45;&gt;Node257</title>
<path fill="none" stroke="midnightblue" d="M368.2,-37.5C376.862,-37.5 385.517,-37.5 393.91,-37.5"/>
<polygon fill="midnightblue" stroke="midnightblue" points="368.044,-34.0001 358.044,-37.5 368.044,-41.0001 368.044,-34.0001"/>
</g>
<!-- Node258 -->
<g id="node5" class="node"><title>Node258</title>
<g id="a_node5"><a xlink:href="../../dc/d31/a00208.html#a75638f93f001719a532326adabca171c" target="_top" xlink:title="Merge with another Item with identical key. ">
<polygon fill="none" stroke="black" points="581,-28 581,-47 696,-47 696,-28 581,-28"/>
<text text-anchor="middle" x="638.5" y="-35" font-family="Helvetica,sans-Serif" font-size="10.00">nars.entity.Item.merge</text>
</a>
</g>
</g>
<!-- Node257&#45;&gt;Node258 -->
<g id="edge4" class="edge"><title>Node257&#45;&gt;Node258</title>
<path fill="none" stroke="midnightblue" d="M555.356,-37.5C564.011,-37.5 572.648,-37.5 580.892,-37.5"/>
<polygon fill="midnightblue" stroke="midnightblue" points="555.208,-34.0001 545.208,-37.5 555.208,-41.0001 555.208,-34.0001"/>
</g>
<!-- Node259 -->
<g id="node6" class="node"><title>Node259</title>
<g id="a_node6"><a xlink:href="../../d5/ddf/a00224.html#abae2edb1e9cccff191a095ebd7776895" target="_top" xlink:title="Merge one Task into another. ">
<polygon fill="none" stroke="black" points="742,-50 742,-69 859,-69 859,-50 742,-50"/>
<text text-anchor="middle" x="800.5" y="-57" font-family="Helvetica,sans-Serif" font-size="10.00">nars.entity.Task.merge</text>
</a>
</g>
</g>
<!-- Node258&#45;&gt;Node259 -->
<g id="edge5" class="edge"><title>Node258&#45;&gt;Node259</title>
<path fill="none" stroke="midnightblue" d="M706.523,-46.7157C718.229,-48.3252 730.315,-49.9871 741.743,-51.5585"/>
<polygon fill="midnightblue" stroke="midnightblue" points="706.744,-43.2132 696.361,-45.3183 705.791,-50.148 706.744,-43.2132"/>
</g>
<!-- Node260 -->
<g id="node7" class="node"><title>Node260</title>
<g id="a_node7"><a xlink:href="../../d6/db8/a00376.html#a9d42fa45681a07796750a350e08d095b" target="_top" xlink:title="Add a new Item into the Bag. ">
<polygon fill="none" stroke="black" points="732,-0.5 732,-30.5 869,-30.5 869,-0.5 732,-0.5"/>
<text text-anchor="start" x="740" y="-18.5" font-family="Helvetica,sans-Serif" font-size="10.00">nars.storage.Bag&lt; Concept</text>
<text text-anchor="middle" x="800.5" y="-7.5" font-family="Helvetica,sans-Serif" font-size="10.00"> &gt;::putIn</text>
</a>
</g>
</g>
<!-- Node258&#45;&gt;Node260 -->
<g id="edge6" class="edge"><title>Node258&#45;&gt;Node260</title>
<path fill="none" stroke="midnightblue" d="M706.48,-28.2903C714.877,-27.1357 723.471,-25.954 731.878,-24.7981"/>
<polygon fill="midnightblue" stroke="midnightblue" points="705.791,-24.852 696.361,-29.6817 706.744,-31.7868 705.791,-24.852"/>
</g>
</g>
</svg>
