<?xml version="1.0" encoding="UTF-8" standalone="no"?>
<!DOCTYPE svg PUBLIC "-//W3C//DTD SVG 1.1//EN"
 "http://www.w3.org/Graphics/SVG/1.1/DTD/svg11.dtd">
<!-- Generated by graphviz version 2.38.0 (20140413.2041)
 -->
<!-- Title: nars.entity.BudgetValue.toStringBrief Pages: 1 -->
<svg width="494pt" height="116pt"
 viewBox="0.00 0.00 494.00 115.50" xmlns="http://www.w3.org/2000/svg" xmlns:xlink="http://www.w3.org/1999/xlink">
<g id="graph0" class="graph" transform="scale(1 1) rotate(0) translate(4 111.5)">
<title>nars.entity.BudgetValue.toStringBrief</title>
<!-- Node480 -->
<g id="node1" class="node"><title>Node480</title>
<polygon fill="#bfbfbf" stroke="black" points="0,-44.5 0,-74.5 132,-74.5 132,-44.5 0,-44.5"/>
<text text-anchor="start" x="8" y="-62.5" font-family="Helvetica,sans-Serif" font-size="10.00">nars.entity.BudgetValue.to</text>
<text text-anchor="middle" x="66" y="-51.5" font-family="Helvetica,sans-Serif" font-size="10.00">StringBrief</text>
</g>
<!-- Node481 -->
<g id="node2" class="node"><title>Node481</title>
<g id="a_node2"><a xlink:href="../../dc/d31/a00208.html#a0560704e74c1856af8e98e862d55d626" target="_top" xlink:title="Return a String representation of the Item after simplification. ">
<polygon fill="none" stroke="black" points="168,-44.5 168,-74.5 290,-74.5 290,-44.5 168,-44.5"/>
<text text-anchor="start" x="176" y="-62.5" font-family="Helvetica,sans-Serif" font-size="10.00">nars.entity.Item.toString</text>
<text text-anchor="middle" x="229" y="-51.5" font-family="Helvetica,sans-Serif" font-size="10.00">Brief</text>
</a>
</g>
</g>
<!-- Node480&#45;&gt;Node481 -->
<g id="edge1" class="edge"><title>Node480&#45;&gt;Node481</title>
<path fill="none" stroke="midnightblue" d="M142.122,-59.5C150.78,-59.5 159.521,-59.5 167.942,-59.5"/>
<polygon fill="midnightblue" stroke="midnightblue" points="142.021,-56.0001 132.021,-59.5 142.021,-63.0001 142.021,-56.0001"/>
</g>
<!-- Node482 -->
<g id="node3" class="node"><title>Node482</title>
<g id="a_node3"><a xlink:href="../../d7/ded/a00196.html#a121514592016f7350b5a741db6465798" target="_top" xlink:title="called from NARSBatch ">
<polygon fill="none" stroke="black" points="326,-88 326,-107 486,-107 486,-88 326,-88"/>
<text text-anchor="middle" x="406" y="-95" font-family="Helvetica,sans-Serif" font-size="10.00">nars.entity.Concept.toStringLong</text>
</a>
</g>
</g>
<!-- Node481&#45;&gt;Node482 -->
<g id="edge2" class="edge"><title>Node481&#45;&gt;Node482</title>
<path fill="none" stroke="midnightblue" d="M300.218,-74.7474C320.836,-79.2243 342.787,-83.9908 361.242,-87.9983"/>
<polygon fill="midnightblue" stroke="midnightblue" points="300.74,-71.2792 290.225,-72.5774 299.255,-78.1198 300.74,-71.2792"/>
</g>
<!-- Node483 -->
<g id="node4" class="node"><title>Node483</title>
<g id="a_node4"><a xlink:href="../../d5/ddf/a00224.html#a73b96cd17fd93eeab0cc94bd36f25e66" target="_top" xlink:title="Get a String representation of the Task. ">
<polygon fill="none" stroke="black" points="344,-50 344,-69 468,-69 468,-50 344,-50"/>
<text text-anchor="middle" x="406" y="-57" font-family="Helvetica,sans-Serif" font-size="10.00">nars.entity.Task.toString</text>
</a>
</g>
</g>
<!-- Node481&#45;&gt;Node483 -->
<g id="edge3" class="edge"><title>Node481&#45;&gt;Node483</title>
<path fill="none" stroke="midnightblue" d="M300.521,-59.5C314.845,-59.5 329.801,-59.5 343.772,-59.5"/>
<polygon fill="midnightblue" stroke="midnightblue" points="300.225,-56.0001 290.225,-59.5 300.225,-63.0001 300.225,-56.0001"/>
</g>
<!-- Node484 -->
<g id="node5" class="node"><title>Node484</title>
<g id="a_node5"><a xlink:href="../../d6/db8/a00376.html#a4106abcc906c5ae1ce6828b0a88a1cca" target="_top" xlink:title="Collect Bag content into a String for display. ">
<polygon fill="none" stroke="black" points="337.5,-0.5 337.5,-30.5 474.5,-30.5 474.5,-0.5 337.5,-0.5"/>
<text text-anchor="start" x="345.5" y="-18.5" font-family="Helvetica,sans-Serif" font-size="10.00">nars.storage.Bag&lt; Concept</text>
<text text-anchor="middle" x="406" y="-7.5" font-family="Helvetica,sans-Serif" font-size="10.00"> &gt;::toString</text>
</a>
</g>
</g>
<!-- Node481&#45;&gt;Node484 -->
<g id="edge4" class="edge"><title>Node481&#45;&gt;Node484</title>
<path fill="none" stroke="midnightblue" d="M299.544,-42.0145C314.665,-38.2127 330.534,-34.223 345.237,-30.5262"/>
<polygon fill="midnightblue" stroke="midnightblue" points="298.58,-38.6479 289.736,-44.4808 300.287,-45.4366 298.58,-38.6479"/>
</g>
</g>
</svg>
