<?xml version="1.0" encoding="UTF-8" standalone="no"?>
<!DOCTYPE svg PUBLIC "-//W3C//DTD SVG 1.1//EN"
 "http://www.w3.org/Graphics/SVG/1.1/DTD/svg11.dtd">
<!-- Generated by graphviz version 2.38.0 (20140413.2041)
 -->
<!-- Title: nars.language.Term.isConstant Pages: 1 -->
<svg width="2509pt" height="241pt"
 viewBox="0.00 0.00 2509.00 240.86" xmlns="http://www.w3.org/2000/svg" xmlns:xlink="http://www.w3.org/1999/xlink">
<g id="graph0" class="graph" transform="scale(1 1) rotate(0) translate(4 236.862)">
<title>nars.language.Term.isConstant</title>
<!-- Node332 -->
<g id="node1" class="node"><title>Node332</title>
<polygon fill="#bfbfbf" stroke="black" points="0,-79 0,-98 153,-98 153,-79 0,-79"/>
<text text-anchor="middle" x="76.5" y="-86" font-family="Helvetica,sans-Serif" font-size="10.00">nars.language.Term.isConstant</text>
</g>
<!-- Node333 -->
<g id="node2" class="node"><title>Node333</title>
<g id="a_node2"><a xlink:href="../../dc/ded/a00252.html#af6c973743270b2739d4ad25f16975da1" target="_top" xlink:title="The detachment rule, with variable unification. ">
<polygon fill="none" stroke="black" points="189,-98.5 189,-128.5 374,-128.5 374,-98.5 189,-98.5"/>
<text text-anchor="start" x="197" y="-116.5" font-family="Helvetica,sans-Serif" font-size="10.00">nars.inference.RuleTables.detachment</text>
<text text-anchor="middle" x="281.5" y="-105.5" font-family="Helvetica,sans-Serif" font-size="10.00">WithVar</text>
</a>
</g>
</g>
<!-- Node332&#45;&gt;Node333 -->
<g id="edge1" class="edge"><title>Node332&#45;&gt;Node333</title>
<path fill="none" stroke="midnightblue" d="M163.264,-99.0621C171.678,-100.098 180.24,-101.153 188.711,-102.196"/>
<polygon fill="midnightblue" stroke="midnightblue" points="163.443,-95.5577 153.09,-97.8091 162.587,-102.505 163.443,-95.5577"/>
</g>
<!-- Node344 -->
<g id="node13" class="node"><title>Node344</title>
<g id="a_node13"><a xlink:href="../../d4/d27/a00392.html#aca4bbc5804f617906c8c18c3d4d81a6c" target="_top" xlink:title="Get the Concept associated to a Term, or create it. ">
<polygon fill="none" stroke="black" points="200.5,-155 200.5,-174 362.5,-174 362.5,-155 200.5,-155"/>
<text text-anchor="middle" x="281.5" y="-162" font-family="Helvetica,sans-Serif" font-size="10.00">nars.storage.Memory.getConcept</text>
</a>
</g>
</g>
<!-- Node332&#45;&gt;Node344 -->
<g id="edge12" class="edge"><title>Node332&#45;&gt;Node344</title>
<path fill="none" stroke="midnightblue" d="M106.556,-102.485C128.817,-112.901 160.457,-127.065 189,-137.5 206.889,-144.04 227.17,-150.153 244.085,-154.902"/>
<polygon fill="midnightblue" stroke="midnightblue" points="107.867,-99.234 97.3292,-98.1317 104.879,-105.565 107.867,-99.234"/>
</g>
<!-- Node351 -->
<g id="node20" class="node"><title>Node351</title>
<g id="a_node20"><a xlink:href="../../d8/d17/a00304.html#a43cdaac00db9c962696e13abd3e4a4c4" target="_top" xlink:title="Collect TermLink templates into a list, go down one level except in special cases. ">
<polygon fill="none" stroke="black" points="189,-49.5 189,-79.5 374,-79.5 374,-49.5 189,-49.5"/>
<text text-anchor="start" x="197" y="-67.5" font-family="Helvetica,sans-Serif" font-size="10.00">nars.language.CompoundTerm.prepare</text>
<text text-anchor="middle" x="281.5" y="-56.5" font-family="Helvetica,sans-Serif" font-size="10.00">ComponentLinks</text>
</a>
</g>
</g>
<!-- Node332&#45;&gt;Node351 -->
<g id="edge24" class="edge"><title>Node332&#45;&gt;Node351</title>
<path fill="none" stroke="midnightblue" d="M163.264,-78.3604C171.678,-77.3656 180.24,-76.3534 188.711,-75.3518"/>
<polygon fill="midnightblue" stroke="midnightblue" points="162.61,-74.9133 153.09,-79.5633 163.432,-81.8649 162.61,-74.9133"/>
</g>
<!-- Node352 -->
<g id="node21" class="node"><title>Node352</title>
<g id="a_node21"><a xlink:href="../../d0/def/a00256.html#aa98f40a1f1409b81531260124ebd13db" target="_top" xlink:title="{(&amp;&amp;, A, B), A@(&amp;&amp;, A, B)} |&#45; A {(||, A, B), A@(||, A, B)} |&#45; A ">
<polygon fill="none" stroke="black" points="215,-0.5 215,-30.5 348,-30.5 348,-0.5 215,-0.5"/>
<text text-anchor="start" x="223" y="-18.5" font-family="Helvetica,sans-Serif" font-size="10.00">nars.inference.Structural</text>
<text text-anchor="middle" x="281.5" y="-7.5" font-family="Helvetica,sans-Serif" font-size="10.00">Rules.structuralCompound</text>
</a>
</g>
</g>
<!-- Node332&#45;&gt;Node352 -->
<g id="edge25" class="edge"><title>Node332&#45;&gt;Node352</title>
<path fill="none" stroke="midnightblue" d="M106.063,-74.4547C128.297,-63.8893 160.127,-49.5604 189,-39.5 198.15,-36.3118 207.942,-33.3184 217.595,-30.5993"/>
<polygon fill="midnightblue" stroke="midnightblue" points="104.363,-71.3884 96.8633,-78.8719 107.393,-77.6987 104.363,-71.3884"/>
</g>
<!-- Node334 -->
<g id="node3" class="node"><title>Node334</title>
<g id="a_node3"><a xlink:href="../../dc/ded/a00252.html#a8628d400a8ceda7fea05039ddfea319b" target="_top" xlink:title="Meta&#45;table of syllogistic rules, indexed by the content classes of the taskSentence and the belief...">
<polygon fill="none" stroke="black" points="625,-87 625,-106 805,-106 805,-87 625,-87"/>
<text text-anchor="middle" x="715" y="-94" font-family="Helvetica,sans-Serif" font-size="10.00">nars.inference.RuleTables.syllogisms</text>
</a>
</g>
</g>
<!-- Node333&#45;&gt;Node334 -->
<g id="edge2" class="edge"><title>Node333&#45;&gt;Node334</title>
<path fill="none" stroke="midnightblue" d="M384.152,-109.495C457.219,-106.617 554.798,-102.772 624.838,-100.013"/>
<polygon fill="midnightblue" stroke="midnightblue" points="383.864,-106.004 374.01,-109.895 384.14,-112.998 383.864,-106.004"/>
</g>
<!-- Node335 -->
<g id="node4" class="node"><title>Node335</title>
<g id="a_node4"><a xlink:href="../../dc/ded/a00252.html#ac2d01dfdc40bdd47c757cb549217e6e3" target="_top" xlink:title="Entry point of the inference engine. ">
<polygon fill="none" stroke="black" points="841,-43 841,-62 1004,-62 1004,-43 841,-43"/>
<text text-anchor="middle" x="922.5" y="-50" font-family="Helvetica,sans-Serif" font-size="10.00">nars.inference.RuleTables.reason</text>
</a>
</g>
</g>
<!-- Node334&#45;&gt;Node335 -->
<g id="edge3" class="edge"><title>Node334&#45;&gt;Node335</title>
<path fill="none" stroke="midnightblue" d="M770.607,-84.808C803.849,-77.6904 845.779,-68.7128 876.997,-62.0287"/>
<polygon fill="midnightblue" stroke="midnightblue" points="769.636,-81.4365 760.59,-86.9527 771.102,-88.2813 769.636,-81.4365"/>
</g>
<!-- Node336 -->
<g id="node5" class="node"><title>Node336</title>
<g id="a_node5"><a xlink:href="../../d7/ded/a00196.html#ad6fb91dda799c3092ecb186ef24ca92a" target="_top" xlink:title="An atomic step in a concept, only called in Memory# processConcept. ">
<polygon fill="none" stroke="black" points="1059,-37.5 1059,-67.5 1178,-67.5 1178,-37.5 1059,-37.5"/>
<text text-anchor="start" x="1067" y="-55.5" font-family="Helvetica,sans-Serif" font-size="10.00">nars.entity.Concept.fire</text>
<text text-anchor="middle" x="1118.5" y="-44.5" font-family="Helvetica,sans-Serif" font-size="10.00">FromProcessConcept</text>
</a>
</g>
</g>
<!-- Node335&#45;&gt;Node336 -->
<g id="edge4" class="edge"><title>Node335&#45;&gt;Node336</title>
<path fill="none" stroke="midnightblue" d="M1014.46,-52.5C1029.52,-52.5 1044.76,-52.5 1058.75,-52.5"/>
<polygon fill="midnightblue" stroke="midnightblue" points="1014.09,-49.0001 1004.09,-52.5 1014.09,-56.0001 1014.09,-49.0001"/>
</g>
<!-- Node337 -->
<g id="node6" class="node"><title>Node337</title>
<g id="a_node6"><a xlink:href="../../d4/d27/a00392.html#a0acc4adbf6a2462245da46bcb529746c" target="_top" xlink:title="Select a concept to fireFromProcessConcept. ">
<polygon fill="none" stroke="black" points="1233,-37.5 1233,-67.5 1379,-67.5 1379,-37.5 1233,-37.5"/>
<text text-anchor="start" x="1241" y="-55.5" font-family="Helvetica,sans-Serif" font-size="10.00">nars.storage.Memory.process</text>
<text text-anchor="middle" x="1306" y="-44.5" font-family="Helvetica,sans-Serif" font-size="10.00">Concept</text>
</a>
</g>
</g>
<!-- Node336&#45;&gt;Node337 -->
<g id="edge5" class="edge"><title>Node336&#45;&gt;Node337</title>
<path fill="none" stroke="midnightblue" d="M1188.52,-52.5C1202.93,-52.5 1218.16,-52.5 1232.68,-52.5"/>
<polygon fill="midnightblue" stroke="midnightblue" points="1188.19,-49.0001 1178.19,-52.5 1188.19,-56.0001 1188.19,-49.0001"/>
</g>
<!-- Node338 -->
<g id="node7" class="node"><title>Node338</title>
<g id="a_node7"><a xlink:href="../../d4/d27/a00392.html#a59ae339d666409988d90d29be4f73a91" target="_top" xlink:title="An atomic working workCycle of the system: process new Tasks, then fireFromProcessConcept a concept...">
<polygon fill="none" stroke="black" points="1415,-86.5 1415,-116.5 1548,-116.5 1548,-86.5 1415,-86.5"/>
<text text-anchor="start" x="1423" y="-104.5" font-family="Helvetica,sans-Serif" font-size="10.00">nars.storage.Memory.work</text>
<text text-anchor="middle" x="1481.5" y="-93.5" font-family="Helvetica,sans-Serif" font-size="10.00">Cycle</text>
</a>
</g>
</g>
<!-- Node337&#45;&gt;Node338 -->
<g id="edge6" class="edge"><title>Node337&#45;&gt;Node338</title>
<path fill="none" stroke="midnightblue" d="M1370.1,-70.3212C1388.83,-75.6118 1409.16,-81.3522 1427.21,-86.4484"/>
<polygon fill="midnightblue" stroke="midnightblue" points="1371.05,-66.9512 1360.47,-67.6014 1369.14,-73.6877 1371.05,-66.9512"/>
</g>
<!-- Node339 -->
<g id="node8" class="node"><title>Node339</title>
<g id="a_node8"><a xlink:href="../../df/d15/a00416.html#a0d5c797dc17d9e8d0998852915e0f303" target="_top" xlink:title="nars.storage.ReasonerBatch.doTick">
<polygon fill="none" stroke="black" points="1584,-92 1584,-111 1757,-111 1757,-92 1584,-92"/>
<text text-anchor="middle" x="1670.5" y="-99" font-family="Helvetica,sans-Serif" font-size="10.00">nars.storage.ReasonerBatch.doTick</text>
</a>
</g>
</g>
<!-- Node338&#45;&gt;Node339 -->
<g id="edge7" class="edge"><title>Node338&#45;&gt;Node339</title>
<path fill="none" stroke="midnightblue" d="M1558.34,-101.5C1566.78,-101.5 1575.42,-101.5 1583.97,-101.5"/>
<polygon fill="midnightblue" stroke="midnightblue" points="1558.17,-98.0001 1548.17,-101.5 1558.17,-105 1558.17,-98.0001"/>
</g>
<!-- Node340 -->
<g id="node9" class="node"><title>Node340</title>
<g id="a_node9"><a xlink:href="../../df/d15/a00416.html#a3468aa0f99edcd66412f27922dddb880" target="_top" xlink:title="A clock tick. ">
<polygon fill="none" stroke="black" points="1793,-92 1793,-111 1953,-111 1953,-92 1793,-92"/>
<text text-anchor="middle" x="1873" y="-99" font-family="Helvetica,sans-Serif" font-size="10.00">nars.storage.ReasonerBatch.tick</text>
</a>
</g>
</g>
<!-- Node339&#45;&gt;Node340 -->
<g id="edge8" class="edge"><title>Node339&#45;&gt;Node340</title>
<path fill="none" stroke="midnightblue" d="M1767.13,-101.5C1775.7,-101.5 1784.31,-101.5 1792.71,-101.5"/>
<polygon fill="midnightblue" stroke="midnightblue" points="1767.11,-98.0001 1757.11,-101.5 1767.11,-105 1767.11,-98.0001"/>
</g>
<!-- Node341 -->
<g id="node10" class="node"><title>Node341</title>
<g id="a_node10"><a xlink:href="../../d9/da1/a00396.html#a5d9cfe517bcfbe41e5251910bcd119c1" target="_top" xlink:title="Run to completion: repeatedly execute NARS working cycle, until Inputs are Finished, or 1000 steps. ">
<polygon fill="none" stroke="black" points="1989,-92 1989,-111 2133,-111 2133,-92 1989,-92"/>
<text text-anchor="middle" x="2061" y="-99" font-family="Helvetica,sans-Serif" font-size="10.00">nars.storage.NARSBatch.run</text>
</a>
</g>
</g>
<!-- Node340&#45;&gt;Node341 -->
<g id="edge9" class="edge"><title>Node340&#45;&gt;Node341</title>
<path fill="none" stroke="midnightblue" d="M1963.22,-101.5C1971.82,-101.5 1980.47,-101.5 1988.87,-101.5"/>
<polygon fill="midnightblue" stroke="midnightblue" points="1963.15,-98.0001 1953.15,-101.5 1963.15,-105 1963.15,-98.0001"/>
</g>
<!-- Node342 -->
<g id="node11" class="node"><title>Node342</title>
<g id="a_node11"><a xlink:href="../../d9/da1/a00396.html#a7c307c6b842f82664de6b0e52bdf8efc" target="_top" xlink:title="non&#45;static equivalent to main(String[]) : run to completion from an input file ">
<polygon fill="none" stroke="black" points="2169,-86.5 2169,-116.5 2313,-116.5 2313,-86.5 2169,-86.5"/>
<text text-anchor="start" x="2177" y="-104.5" font-family="Helvetica,sans-Serif" font-size="10.00">nars.storage.NARSBatch.run</text>
<text text-anchor="middle" x="2241" y="-93.5" font-family="Helvetica,sans-Serif" font-size="10.00">Inference</text>
</a>
</g>
</g>
<!-- Node341&#45;&gt;Node342 -->
<g id="edge10" class="edge"><title>Node341&#45;&gt;Node342</title>
<path fill="none" stroke="midnightblue" d="M2143.17,-101.5C2151.79,-101.5 2160.51,-101.5 2169,-101.5"/>
<polygon fill="midnightblue" stroke="midnightblue" points="2143.12,-98.0001 2133.12,-101.5 2143.12,-105 2143.12,-98.0001"/>
</g>
<!-- Node343 -->
<g id="node12" class="node"><title>Node343</title>
<g id="a_node12"><a xlink:href="../../d9/da1/a00396.html#abafc597289bc2f6453b5cd0dd6634e54" target="_top" xlink:title="The entry point of the standalone application. ">
<polygon fill="none" stroke="black" points="2349,-92 2349,-111 2501,-111 2501,-92 2349,-92"/>
<text text-anchor="middle" x="2425" y="-99" font-family="Helvetica,sans-Serif" font-size="10.00">nars.storage.NARSBatch.main</text>
</a>
</g>
</g>
<!-- Node342&#45;&gt;Node343 -->
<g id="edge11" class="edge"><title>Node342&#45;&gt;Node343</title>
<path fill="none" stroke="midnightblue" d="M2323.17,-101.5C2331.76,-101.5 2340.48,-101.5 2349,-101.5"/>
<polygon fill="midnightblue" stroke="midnightblue" points="2323.15,-98.0001 2313.15,-101.5 2323.15,-105 2323.15,-98.0001"/>
</g>
<!-- Node345 -->
<g id="node14" class="node"><title>Node345</title>
<g id="a_node14"><a xlink:href="../../d7/ded/a00196.html#a501121a11fc046eea4b69720cb622d84" target="_top" xlink:title="Link to a new task from all relevant concepts for continued processing in the near future for unspeci...">
<polygon fill="none" stroke="black" points="655,-163.5 655,-193.5 775,-193.5 775,-163.5 655,-163.5"/>
<text text-anchor="start" x="663" y="-181.5" font-family="Helvetica,sans-Serif" font-size="10.00">nars.entity.Concept.link</text>
<text text-anchor="middle" x="715" y="-170.5" font-family="Helvetica,sans-Serif" font-size="10.00">ToTask</text>
</a>
</g>
</g>
<!-- Node344&#45;&gt;Node345 -->
<g id="edge13" class="edge"><title>Node344&#45;&gt;Node345</title>
<path fill="none" stroke="midnightblue" d="M307.018,-179.223C331.937,-193.262 372.152,-213.425 410,-221.5 487.804,-238.1 510.534,-234.619 589,-221.5 620.916,-216.164 655.594,-203.661 680.31,-193.505"/>
<polygon fill="midnightblue" stroke="midnightblue" points="308.667,-176.134 298.254,-174.18 305.176,-182.201 308.667,-176.134"/>
</g>
<!-- Node347 -->
<g id="node16" class="node"><title>Node347</title>
<g id="a_node16"><a xlink:href="../../d4/d27/a00392.html#af8d07412d21a441a5c7005a477b06468" target="_top" xlink:title="Immediate processing of a new task, in constant time Local processing, in one concept only...">
<polygon fill="none" stroke="black" points="1040,-127.5 1040,-157.5 1197,-157.5 1197,-127.5 1040,-127.5"/>
<text text-anchor="start" x="1048" y="-145.5" font-family="Helvetica,sans-Serif" font-size="10.00">nars.storage.Memory.immediate</text>
<text text-anchor="middle" x="1118.5" y="-134.5" font-family="Helvetica,sans-Serif" font-size="10.00">Process</text>
</a>
</g>
</g>
<!-- Node344&#45;&gt;Node347 -->
<g id="edge23" class="edge"><title>Node344&#45;&gt;Node347</title>
<path fill="none" stroke="midnightblue" d="M372.686,-155.923C385.21,-154.965 397.919,-154.114 410,-153.5 638.81,-141.866 909.732,-141.345 1039.97,-141.92"/>
<polygon fill="midnightblue" stroke="midnightblue" points="372.391,-152.436 362.697,-156.713 372.942,-159.414 372.391,-152.436"/>
</g>
<!-- Node350 -->
<g id="node19" class="node"><title>Node350</title>
<g id="a_node19"><a xlink:href="../../d7/ded/a00196.html#a3f3f026223e459e041fbdd8c0f49f7c6" target="_top" xlink:title="Recursively build TermLinks between a compound and its components. ">
<polygon fill="none" stroke="black" points="437,-163.5 437,-193.5 562,-193.5 562,-163.5 437,-163.5"/>
<text text-anchor="start" x="445" y="-181.5" font-family="Helvetica,sans-Serif" font-size="10.00">nars.entity.Concept.build</text>
<text text-anchor="middle" x="499.5" y="-170.5" font-family="Helvetica,sans-Serif" font-size="10.00">TermLinks</text>
</a>
</g>
</g>
<!-- Node344&#45;&gt;Node350 -->
<g id="edge20" class="edge"><title>Node344&#45;&gt;Node350</title>
<path fill="none" stroke="midnightblue" d="M372.77,-170.351C394.31,-171.747 416.816,-173.206 436.736,-174.497"/>
<polygon fill="midnightblue" stroke="midnightblue" points="372.829,-166.847 362.623,-169.693 372.376,-173.833 372.829,-166.847"/>
</g>
<!-- Node346 -->
<g id="node15" class="node"><title>Node346</title>
<g id="a_node15"><a xlink:href="../../d7/ded/a00196.html#a9ea7c3154932d7a736c105eb55daeb5c" target="_top" xlink:title="Directly process a new task. ">
<polygon fill="none" stroke="black" points="858,-163.5 858,-193.5 987,-193.5 987,-163.5 858,-163.5"/>
<text text-anchor="start" x="866" y="-181.5" font-family="Helvetica,sans-Serif" font-size="10.00">nars.entity.Concept.direct</text>
<text text-anchor="middle" x="922.5" y="-170.5" font-family="Helvetica,sans-Serif" font-size="10.00">Process</text>
</a>
</g>
</g>
<!-- Node345&#45;&gt;Node346 -->
<g id="edge14" class="edge"><title>Node345&#45;&gt;Node346</title>
<path fill="none" stroke="midnightblue" d="M785.366,-178.5C808.774,-178.5 834.775,-178.5 857.729,-178.5"/>
<polygon fill="midnightblue" stroke="midnightblue" points="785.163,-175 775.163,-178.5 785.163,-182 785.163,-175"/>
</g>
<!-- Node346&#45;&gt;Node347 -->
<g id="edge15" class="edge"><title>Node346&#45;&gt;Node347</title>
<path fill="none" stroke="midnightblue" d="M997.088,-164.844C1011.1,-162.243 1025.81,-159.514 1039.95,-156.891"/>
<polygon fill="midnightblue" stroke="midnightblue" points="996.216,-161.446 987.023,-166.712 997.494,-168.329 996.216,-161.446"/>
</g>
<!-- Node348 -->
<g id="node17" class="node"><title>Node348</title>
<g id="a_node17"><a xlink:href="../../d4/d27/a00392.html#ae43b86074c0d8f6a324696f69faa54b3" target="_top" xlink:title="Process the newTasks accumulated in the previous workCycle, accept input ones and those that correspo...">
<polygon fill="none" stroke="black" points="1233,-86.5 1233,-116.5 1379,-116.5 1379,-86.5 1233,-86.5"/>
<text text-anchor="start" x="1241" y="-104.5" font-family="Helvetica,sans-Serif" font-size="10.00">nars.storage.Memory.process</text>
<text text-anchor="middle" x="1306" y="-93.5" font-family="Helvetica,sans-Serif" font-size="10.00">NewTask</text>
</a>
</g>
</g>
<!-- Node347&#45;&gt;Node348 -->
<g id="edge16" class="edge"><title>Node347&#45;&gt;Node348</title>
<path fill="none" stroke="midnightblue" d="M1197.46,-125.268C1210.6,-122.365 1224.13,-119.373 1236.99,-116.532"/>
<polygon fill="midnightblue" stroke="midnightblue" points="1196.53,-121.89 1187.52,-127.466 1198.04,-128.725 1196.53,-121.89"/>
</g>
<!-- Node349 -->
<g id="node18" class="node"><title>Node349</title>
<g id="a_node18"><a xlink:href="../../d4/d27/a00392.html#a5061708f88897cfdf4e0671c846762ca" target="_top" xlink:title="Select a novel task to process. ">
<polygon fill="none" stroke="black" points="1233,-135.5 1233,-165.5 1379,-165.5 1379,-135.5 1233,-135.5"/>
<text text-anchor="start" x="1241" y="-153.5" font-family="Helvetica,sans-Serif" font-size="10.00">nars.storage.Memory.process</text>
<text text-anchor="middle" x="1306" y="-142.5" font-family="Helvetica,sans-Serif" font-size="10.00">NovelTask</text>
</a>
</g>
</g>
<!-- Node347&#45;&gt;Node349 -->
<g id="edge18" class="edge"><title>Node347&#45;&gt;Node349</title>
<path fill="none" stroke="midnightblue" d="M1207.12,-146.279C1215.71,-146.649 1224.35,-147.022 1232.75,-147.384"/>
<polygon fill="midnightblue" stroke="midnightblue" points="1207.24,-142.781 1197.09,-145.846 1206.93,-149.774 1207.24,-142.781"/>
</g>
<!-- Node348&#45;&gt;Node338 -->
<g id="edge17" class="edge"><title>Node348&#45;&gt;Node338</title>
<path fill="none" stroke="midnightblue" d="M1389.12,-101.5C1397.72,-101.5 1406.37,-101.5 1414.76,-101.5"/>
<polygon fill="midnightblue" stroke="midnightblue" points="1389.07,-98.0001 1379.07,-101.5 1389.07,-105 1389.07,-98.0001"/>
</g>
<!-- Node349&#45;&gt;Node338 -->
<g id="edge19" class="edge"><title>Node349&#45;&gt;Node338</title>
<path fill="none" stroke="midnightblue" d="M1370.1,-132.679C1388.83,-127.388 1409.16,-121.648 1427.21,-116.552"/>
<polygon fill="midnightblue" stroke="midnightblue" points="1369.14,-129.312 1360.47,-135.399 1371.05,-136.049 1369.14,-129.312"/>
</g>
<!-- Node350&#45;&gt;Node345 -->
<g id="edge22" class="edge"><title>Node350&#45;&gt;Node345</title>
<path fill="none" stroke="midnightblue" d="M572.367,-178.5C599.223,-178.5 629.388,-178.5 654.956,-178.5"/>
<polygon fill="midnightblue" stroke="midnightblue" points="572.253,-175 562.253,-178.5 572.253,-182 572.253,-175"/>
</g>
<!-- Node350&#45;&gt;Node350 -->
<g id="edge21" class="edge"><title>Node350&#45;&gt;Node350</title>
<path fill="none" stroke="midnightblue" d="M461.475,-203.958C466.194,-208.679 478.869,-212 499.5,-212 533.355,-212 545.787,-203.057 536.794,-193.659"/>
<polygon fill="midnightblue" stroke="midnightblue" points="464.989,-203.882 462.206,-193.659 458.006,-203.386 464.989,-203.882"/>
</g>
<!-- Node353 -->
<g id="node22" class="node"><title>Node353</title>
<g id="a_node22"><a xlink:href="../../dc/ded/a00252.html#a00ffbf7a9069cfd135acae4b46d78d05" target="_top" xlink:title="Inference between a compound term and a component of it. ">
<polygon fill="none" stroke="black" points="410,-0.5 410,-30.5 589,-30.5 589,-0.5 410,-0.5"/>
<text text-anchor="start" x="418" y="-18.5" font-family="Helvetica,sans-Serif" font-size="10.00">nars.inference.RuleTables.compound</text>
<text text-anchor="middle" x="499.5" y="-7.5" font-family="Helvetica,sans-Serif" font-size="10.00">AndSelf</text>
</a>
</g>
</g>
<!-- Node352&#45;&gt;Node353 -->
<g id="edge26" class="edge"><title>Node352&#45;&gt;Node353</title>
<path fill="none" stroke="midnightblue" d="M358.346,-15.5C374.918,-15.5 392.601,-15.5 409.629,-15.5"/>
<polygon fill="midnightblue" stroke="midnightblue" points="358.187,-12.0001 348.187,-15.5 358.187,-19.0001 358.187,-12.0001"/>
</g>
<!-- Node353&#45;&gt;Node335 -->
<g id="edge29" class="edge"><title>Node353&#45;&gt;Node335</title>
<path fill="none" stroke="midnightblue" d="M599.292,-15.1043C659.048,-15.9288 736.649,-18.8844 805,-27.5 832.091,-30.9148 862.218,-37.4548 885.048,-42.9893"/>
<polygon fill="midnightblue" stroke="midnightblue" points="599.147,-11.6024 589.106,-14.982 599.063,-18.6019 599.147,-11.6024"/>
</g>
<!-- Node354 -->
<g id="node23" class="node"><title>Node354</title>
<g id="a_node23"><a xlink:href="../../dc/ded/a00252.html#a764dbc9ccccf406df45e09fbfeda928f" target="_top" xlink:title="Inference between two compound terms. ">
<polygon fill="none" stroke="black" points="625.5,-37.5 625.5,-67.5 804.5,-67.5 804.5,-37.5 625.5,-37.5"/>
<text text-anchor="start" x="633.5" y="-55.5" font-family="Helvetica,sans-Serif" font-size="10.00">nars.inference.RuleTables.compound</text>
<text text-anchor="middle" x="715" y="-44.5" font-family="Helvetica,sans-Serif" font-size="10.00">AndCompound</text>
</a>
</g>
</g>
<!-- Node353&#45;&gt;Node354 -->
<g id="edge27" class="edge"><title>Node353&#45;&gt;Node354</title>
<path fill="none" stroke="midnightblue" d="M597.275,-32.2713C607.263,-34.0023 617.369,-35.7536 627.238,-37.464"/>
<polygon fill="midnightblue" stroke="midnightblue" points="597.789,-28.8084 587.339,-30.5493 596.594,-35.7056 597.789,-28.8084"/>
</g>
<!-- Node354&#45;&gt;Node335 -->
<g id="edge28" class="edge"><title>Node354&#45;&gt;Node335</title>
<path fill="none" stroke="midnightblue" d="M814.863,-52.5C823.598,-52.5 832.37,-52.5 840.927,-52.5"/>
<polygon fill="midnightblue" stroke="midnightblue" points="814.642,-49.0001 804.642,-52.5 814.642,-56.0001 814.642,-49.0001"/>
</g>
</g>
</svg>
