<?xml version="1.0" encoding="UTF-8" standalone="no"?>
<!DOCTYPE svg PUBLIC "-//W3C//DTD SVG 1.1//EN"
 "http://www.w3.org/Graphics/SVG/1.1/DTD/svg11.dtd">
<!-- Generated by graphviz version 2.38.0 (20140413.2041)
 -->
<!-- Title: nars.language.Term.Term Pages: 1 -->
<!--zoomable 447 -->
<svg id="main" version="1.1" xmlns="http://www.w3.org/2000/svg" xmlns:xlink="http://www.w3.org/1999/xlink" xml:space="preserve" onload="init(evt)">
<style type="text/css"><![CDATA[
.edge:hover path { stroke: red; }
.edge:hover polygon { stroke: red; fill: red; }
]]></style>
<script type="text/javascript"><![CDATA[
var edges = document.getElementsByTagName('g');
if (edges && edges.length) {
  for (var i=0;i<edges.length;i++) {
    if (edges[i].id.substr(0,4)=='edge') {
      edges[i].setAttribute('class','edge');
    }
  }
}
]]></script>
        <defs>
                <circle id="rim" cx="0" cy="0" r="7"/>
                <circle id="rim2" cx="0" cy="0" r="3.5"/>
                <g id="zoomPlus">
                        <use xlink:href="#rim" fill="#404040">
                                <set attributeName="fill" to="#808080" begin="zoomplus.mouseover" end="zoomplus.mouseout"/>
                        </use>
                        <path d="M-4,0h8M0,-4v8" fill="none" stroke="white" stroke-width="1.5" pointer-events="none"/>
                </g>
                <g id="zoomMin">
                        <use xlink:href="#rim" fill="#404040">
                                <set attributeName="fill" to="#808080" begin="zoomminus.mouseover" end="zoomminus.mouseout"/>
                        </use>
                        <path d="M-4,0h8" fill="none" stroke="white" stroke-width="1.5" pointer-events="none"/>
                </g>
                <g id="dirArrow">
                        <path fill="none" stroke="white" stroke-width="1.5" d="M0,-3.0v7 M-2.5,-0.5L0,-3.0L2.5,-0.5"/>
                </g>
               <g id="resetDef">
                       <use xlink:href="#rim2" fill="#404040">
                               <set attributeName="fill" to="#808080" begin="reset.mouseover" end="reset.mouseout"/>
                       </use>
               </g>
        </defs>

<script type="text/javascript">
var viewWidth = 2838;
var viewHeight = 447;
var sectionId = 'dynsection-2';
</script>
<script xlink:href="../../svgpan.js"/>
<svg id="graph" class="graph">
<g id="viewport">
<title>nars.language.Term.Term</title>
<!-- Node1 -->
<g id="node1" class="node"><title>Node1</title>
<polygon fill="#bfbfbf" stroke="black" points="0,-207.198 0,-226.198 128,-226.198 128,-207.198 0,-207.198"/>
<text text-anchor="middle" x="64" y="-214.198" font-family="Helvetica,sans-Serif" font-size="10.00">nars.language.Term.Term</text>
</g>
<!-- Node2 -->
<g id="node2" class="node"><title>Node2</title>
<g id="a_node2"><a xlink:href="../../dc/d59/a00364.html#ae2dba162b71bb9b806f54832249a260c" target="_top" xlink:title="Make a new Term with the same name. ">
<polygon fill="none" stroke="black" points="164,-207.198 164,-226.198 293,-226.198 293,-207.198 164,-207.198"/>
<text text-anchor="middle" x="228.5" y="-214.198" font-family="Helvetica,sans-Serif" font-size="10.00">nars.language.Term.clone</text>
</a>
</g>
</g>
<!-- Node1&#45;&gt;Node2 -->
<g id="edge1" class="edge"><title>Node1&#45;&gt;Node2</title>
<path fill="none" stroke="midnightblue" d="M138.521,-216.698C146.974,-216.698 155.539,-216.698 163.846,-216.698"/>
<polygon fill="midnightblue" stroke="midnightblue" points="138.292,-213.198 128.292,-216.698 138.292,-220.198 138.292,-213.198"/>
</g>
<!-- Node3 -->
<g id="node3" class="node"><title>Node3</title>
<g id="a_node3"><a xlink:href="../../dd/dc1/a00212.html#ac6fa0cb96108a540d7e768ffc1b95630" target="_top" xlink:title="Clone the content of the sentence. ">
<polygon fill="none" stroke="black" points="563,-201.698 563,-231.698 696,-231.698 696,-201.698 563,-201.698"/>
<text text-anchor="start" x="571" y="-219.698" font-family="Helvetica,sans-Serif" font-size="10.00">nars.entity.Sentence.clone</text>
<text text-anchor="middle" x="629.5" y="-208.698" font-family="Helvetica,sans-Serif" font-size="10.00">Content</text>
</a>
</g>
</g>
<!-- Node2&#45;&gt;Node3 -->
<g id="edge2" class="edge"><title>Node2&#45;&gt;Node3</title>
<path fill="none" stroke="midnightblue" d="M303.389,-216.698C377.763,-216.698 491.4,-216.698 562.74,-216.698"/>
<polygon fill="midnightblue" stroke="midnightblue" points="303.164,-213.198 293.164,-216.698 303.164,-220.198 303.164,-213.198"/>
</g>
<!-- Node6 -->
<g id="node6" class="node"><title>Node6</title>
<g id="a_node6"><a xlink:href="../../dc/ded/a00252.html#ac2d01dfdc40bdd47c757cb549217e6e3" target="_top" xlink:title="Entry point of the inference engine. ">
<polygon fill="none" stroke="black" points="1208,-294.198 1208,-313.198 1371,-313.198 1371,-294.198 1208,-294.198"/>
<text text-anchor="middle" x="1289.5" y="-301.198" font-family="Helvetica,sans-Serif" font-size="10.00">nars.inference.RuleTables.reason</text>
</a>
</g>
</g>
<!-- Node2&#45;&gt;Node6 -->
<g id="edge20" class="edge"><title>Node2&#45;&gt;Node6</title>
<path fill="none" stroke="midnightblue" d="M247.126,-232.852C265.979,-249.224 297.449,-274.032 329,-287.698 453.572,-341.655 492.744,-347.698 628.5,-347.698 628.5,-347.698 628.5,-347.698 847.5,-347.698 991.969,-347.698 1028.84,-348.133 1172,-328.698 1198.75,-325.066 1228.5,-318.641 1251.24,-313.213"/>
<polygon fill="midnightblue" stroke="midnightblue" points="249.43,-230.217 239.626,-226.201 244.786,-235.455 249.43,-230.217"/>
</g>
<!-- Node17 -->
<g id="node17" class="node"><title>Node17</title>
<g id="a_node17"><a xlink:href="../../dd/dd7/a00248.html#aac1c92950f50edd04d12229a8c992987" target="_top" xlink:title="The task and belief have the same content. ">
<polygon fill="none" stroke="black" points="993.5,-376.198 993.5,-395.198 1153.5,-395.198 1153.5,-376.198 993.5,-376.198"/>
<text text-anchor="middle" x="1073.5" y="-383.198" font-family="Helvetica,sans-Serif" font-size="10.00">nars.inference.LocalRules.match</text>
</a>
</g>
</g>
<!-- Node2&#45;&gt;Node17 -->
<g id="edge18" class="edge"><title>Node2&#45;&gt;Node17</title>
<path fill="none" stroke="midnightblue" d="M236.219,-236.24C248.664,-269.015 278.713,-334.172 329,-361.698 569.733,-493.47 923.105,-423.016 1036.25,-395.269"/>
<polygon fill="midnightblue" stroke="midnightblue" points="239.374,-234.672 232.67,-226.468 232.794,-237.062 239.374,-234.672"/>
</g>
<!-- Node18 -->
<g id="node18" class="node"><title>Node18</title>
<g id="a_node18"><a xlink:href="../../dc/ded/a00252.html#ab344d6ccee0f3671b57d092daeb65db4" target="_top" xlink:title="The TaskLink is of type TRANSFORM, and the conclusion is an equivalent transformation. ">
<polygon fill="none" stroke="black" points="975,-73.1979 975,-92.1979 1172,-92.1979 1172,-73.1979 975,-73.1979"/>
<text text-anchor="middle" x="1073.5" y="-80.1979" font-family="Helvetica,sans-Serif" font-size="10.00">nars.inference.RuleTables.transformTask</text>
</a>
</g>
</g>
<!-- Node2&#45;&gt;Node18 -->
<g id="edge21" class="edge"><title>Node2&#45;&gt;Node18</title>
<path fill="none" stroke="midnightblue" d="M236.37,-197.353C249.192,-164.115 279.993,-96.3124 329,-60.6979 407.744,-3.47294 444.442,-18.0193 541,-5.69793 733.837,18.909 965.122,-47.6432 1044.31,-73.1874"/>
<polygon fill="midnightblue" stroke="midnightblue" points="233.045,-196.252 232.838,-206.845 239.606,-198.693 233.045,-196.252"/>
</g>
<!-- Node19 -->
<g id="node19" class="node"><title>Node19</title>
<g id="a_node19"><a xlink:href="../../d8/d17/a00304.html#a82aa08a45653fbb88523fe2497469434" target="_top" xlink:title="Recursively apply a substitute to the current CompoundTerm. ">
<polygon fill="none" stroke="black" points="329,-248.698 329,-278.698 505,-278.698 505,-248.698 329,-248.698"/>
<text text-anchor="start" x="337" y="-266.698" font-family="Helvetica,sans-Serif" font-size="10.00">nars.language.CompoundTerm.apply</text>
<text text-anchor="middle" x="417" y="-255.698" font-family="Helvetica,sans-Serif" font-size="10.00">Substitute</text>
</a>
</g>
</g>
<!-- Node2&#45;&gt;Node19 -->
<g id="edge23" class="edge"><title>Node2&#45;&gt;Node19</title>
<path fill="none" stroke="midnightblue" d="M277.203,-228.72C301.278,-234.787 330.721,-242.207 356.285,-248.649"/>
<polygon fill="midnightblue" stroke="midnightblue" points="277.793,-225.259 267.241,-226.209 276.083,-232.047 277.793,-225.259"/>
</g>
<!-- Node23 -->
<g id="node23" class="node"><title>Node23</title>
<g id="a_node23"><a xlink:href="../../d4/db5/a00328.html#a84dcdd3c63e7219e8c3da43e163f2d78" target="_top" xlink:title="Try to make a new compound from two components. ">
<polygon fill="none" stroke="black" points="351.5,-130.698 351.5,-160.698 482.5,-160.698 482.5,-130.698 351.5,-130.698"/>
<text text-anchor="start" x="359.5" y="-148.698" font-family="Helvetica,sans-Serif" font-size="10.00">nars.language.Intersection</text>
<text text-anchor="middle" x="417" y="-137.698" font-family="Helvetica,sans-Serif" font-size="10.00">Ext.make</text>
</a>
</g>
</g>
<!-- Node2&#45;&gt;Node23 -->
<g id="edge29" class="edge"><title>Node2&#45;&gt;Node23</title>
<path fill="none" stroke="midnightblue" d="M264.403,-203.411C296.183,-191.312 343.077,-173.459 376.281,-160.819"/>
<polygon fill="midnightblue" stroke="midnightblue" points="262.753,-200.294 254.652,-207.123 265.243,-206.836 262.753,-200.294"/>
</g>
<!-- Node27 -->
<g id="node27" class="node"><title>Node27</title>
<g id="a_node27"><a xlink:href="../../dc/d50/a00332.html#acc3bb6e31a10d204254e827435391988" target="_top" xlink:title="Try to make a new compound from two components. ">
<polygon fill="none" stroke="black" points="351.5,-70.6979 351.5,-100.698 482.5,-100.698 482.5,-70.6979 351.5,-70.6979"/>
<text text-anchor="start" x="359.5" y="-88.6979" font-family="Helvetica,sans-Serif" font-size="10.00">nars.language.Intersection</text>
<text text-anchor="middle" x="417" y="-77.6979" font-family="Helvetica,sans-Serif" font-size="10.00">Int.make</text>
</a>
</g>
</g>
<!-- Node2&#45;&gt;Node27 -->
<g id="edge34" class="edge"><title>Node2&#45;&gt;Node27</title>
<path fill="none" stroke="midnightblue" d="M243.887,-199.177C261.92,-178.151 294.653,-142.956 329,-120.698 341.296,-112.729 355.7,-106.038 369.209,-100.71"/>
<polygon fill="midnightblue" stroke="midnightblue" points="241.072,-197.086 237.305,-206.989 246.425,-201.596 241.072,-197.086"/>
</g>
<!-- Node4 -->
<g id="node4" class="node"><title>Node4</title>
<g id="a_node4"><a xlink:href="../../dc/ded/a00252.html#a34927349efcf87db97d23c60983b115b" target="_top" xlink:title="Syllogistic rules whose both premises are on the same asymmetric relation. ">
<polygon fill="none" stroke="black" points="754,-103.698 754,-133.698 939,-133.698 939,-103.698 754,-103.698"/>
<text text-anchor="start" x="762" y="-121.698" font-family="Helvetica,sans-Serif" font-size="10.00">nars.inference.RuleTables.asymmetric</text>
<text text-anchor="middle" x="846.5" y="-110.698" font-family="Helvetica,sans-Serif" font-size="10.00">Asymmetric</text>
</a>
</g>
</g>
<!-- Node3&#45;&gt;Node4 -->
<g id="edge3" class="edge"><title>Node3&#45;&gt;Node4</title>
<path fill="none" stroke="midnightblue" d="M705.457,-199.036C709.85,-196.865 714.073,-194.43 718,-191.698 740.185,-176.267 731.648,-157.886 754,-142.698 759.026,-139.283 764.51,-136.353 770.216,-133.841"/>
<polygon fill="midnightblue" stroke="midnightblue" points="703.958,-195.872 696.24,-203.13 706.8,-202.269 703.958,-195.872"/>
</g>
<!-- Node15 -->
<g id="node15" class="node"><title>Node15</title>
<g id="a_node15"><a xlink:href="../../dc/ded/a00252.html#a4f61a7c2dc75c9da475030894eac0735" target="_top" xlink:title="Syllogistic rules whose first premise is on an asymmetric relation, and the second on a symmetric rel...">
<polygon fill="none" stroke="black" points="754,-201.698 754,-231.698 939,-231.698 939,-201.698 754,-201.698"/>
<text text-anchor="start" x="762" y="-219.698" font-family="Helvetica,sans-Serif" font-size="10.00">nars.inference.RuleTables.asymmetric</text>
<text text-anchor="middle" x="846.5" y="-208.698" font-family="Helvetica,sans-Serif" font-size="10.00">Symmetric</text>
</a>
</g>
</g>
<!-- Node3&#45;&gt;Node15 -->
<g id="edge14" class="edge"><title>Node3&#45;&gt;Node15</title>
<path fill="none" stroke="midnightblue" d="M706.568,-216.698C721.819,-216.698 737.994,-216.698 753.712,-216.698"/>
<polygon fill="midnightblue" stroke="midnightblue" points="706.175,-213.198 696.175,-216.698 706.175,-220.198 706.175,-213.198"/>
</g>
<!-- Node16 -->
<g id="node16" class="node"><title>Node16</title>
<g id="a_node16"><a xlink:href="../../dc/ded/a00252.html#ab64fca3ebda3499b831c2b93df736530" target="_top" xlink:title="Syllogistic rules whose both premises are on the same symmetric relation. ">
<polygon fill="none" stroke="black" points="757,-152.698 757,-182.698 936,-182.698 936,-152.698 757,-152.698"/>
<text text-anchor="start" x="765" y="-170.698" font-family="Helvetica,sans-Serif" font-size="10.00">nars.inference.RuleTables.symmetric</text>
<text text-anchor="middle" x="846.5" y="-159.698" font-family="Helvetica,sans-Serif" font-size="10.00">Symmetric</text>
</a>
</g>
</g>
<!-- Node3&#45;&gt;Node16 -->
<g id="edge16" class="edge"><title>Node3&#45;&gt;Node16</title>
<path fill="none" stroke="midnightblue" d="M705.937,-199.505C729.912,-194.041 756.229,-188.043 779.486,-182.743"/>
<polygon fill="midnightblue" stroke="midnightblue" points="705.148,-196.095 696.175,-201.73 706.703,-202.92 705.148,-196.095"/>
</g>
<!-- Node5 -->
<g id="node5" class="node"><title>Node5</title>
<g id="a_node5"><a xlink:href="../../dc/ded/a00252.html#a8628d400a8ceda7fea05039ddfea319b" target="_top" xlink:title="Meta&#45;table of syllogistic rules, indexed by the content classes of the taskSentence and the belief...">
<polygon fill="none" stroke="black" points="983.5,-207.198 983.5,-226.198 1163.5,-226.198 1163.5,-207.198 983.5,-207.198"/>
<text text-anchor="middle" x="1073.5" y="-214.198" font-family="Helvetica,sans-Serif" font-size="10.00">nars.inference.RuleTables.syllogisms</text>
</a>
</g>
</g>
<!-- Node4&#45;&gt;Node5 -->
<g id="edge4" class="edge"><title>Node4&#45;&gt;Node5</title>
<path fill="none" stroke="midnightblue" d="M923.016,-136.892C928.477,-138.699 933.855,-140.635 939,-142.698 984.503,-160.943 1033.96,-191.463 1057.89,-206.989"/>
<polygon fill="midnightblue" stroke="midnightblue" points="923.718,-133.444 913.129,-133.78 921.617,-140.121 923.718,-133.444"/>
</g>
<!-- Node5&#45;&gt;Node6 -->
<g id="edge5" class="edge"><title>Node5&#45;&gt;Node6</title>
<path fill="none" stroke="midnightblue" d="M1107.53,-230.126C1151.12,-247.849 1226.8,-278.614 1265,-294.144"/>
<polygon fill="midnightblue" stroke="midnightblue" points="1108.8,-226.865 1098.22,-226.341 1106.16,-233.349 1108.8,-226.865"/>
</g>
<!-- Node7 -->
<g id="node7" class="node"><title>Node7</title>
<g id="a_node7"><a xlink:href="../../d7/ded/a00196.html#ad6fb91dda799c3092ecb186ef24ca92a" target="_top" xlink:title="An atomic step in a concept, only called in Memory# processConcept. ">
<polygon fill="none" stroke="black" points="1407,-232.698 1407,-262.698 1526,-262.698 1526,-232.698 1407,-232.698"/>
<text text-anchor="start" x="1415" y="-250.698" font-family="Helvetica,sans-Serif" font-size="10.00">nars.entity.Concept.fire</text>
<text text-anchor="middle" x="1466.5" y="-239.698" font-family="Helvetica,sans-Serif" font-size="10.00">FromProcessConcept</text>
</a>
</g>
</g>
<!-- Node6&#45;&gt;Node7 -->
<g id="edge6" class="edge"><title>Node6&#45;&gt;Node7</title>
<path fill="none" stroke="midnightblue" d="M1330.18,-290.999C1356.37,-282.621 1390.79,-271.604 1418.37,-262.78"/>
<polygon fill="midnightblue" stroke="midnightblue" points="1329.04,-287.69 1320.58,-294.071 1331.17,-294.357 1329.04,-287.69"/>
</g>
<!-- Node8 -->
<g id="node8" class="node"><title>Node8</title>
<g id="a_node8"><a xlink:href="../../d4/d27/a00392.html#a0acc4adbf6a2462245da46bcb529746c" target="_top" xlink:title="Select a concept to fireFromProcessConcept. ">
<polygon fill="none" stroke="black" points="1562,-232.698 1562,-262.698 1708,-262.698 1708,-232.698 1562,-232.698"/>
<text text-anchor="start" x="1570" y="-250.698" font-family="Helvetica,sans-Serif" font-size="10.00">nars.storage.Memory.process</text>
<text text-anchor="middle" x="1635" y="-239.698" font-family="Helvetica,sans-Serif" font-size="10.00">Concept</text>
</a>
</g>
</g>
<!-- Node7&#45;&gt;Node8 -->
<g id="edge7" class="edge"><title>Node7&#45;&gt;Node8</title>
<path fill="none" stroke="midnightblue" d="M1536.34,-247.698C1544.75,-247.698 1553.36,-247.698 1561.82,-247.698"/>
<polygon fill="midnightblue" stroke="midnightblue" points="1536.2,-244.198 1526.2,-247.698 1536.2,-251.198 1536.2,-244.198"/>
</g>
<!-- Node9 -->
<g id="node9" class="node"><title>Node9</title>
<g id="a_node9"><a xlink:href="../../d4/d27/a00392.html#a59ae339d666409988d90d29be4f73a91" target="_top" xlink:title="An atomic working workCycle of the system: process new Tasks, then fireFromProcessConcept a concept...">
<polygon fill="none" stroke="black" points="1744,-232.698 1744,-262.698 1877,-262.698 1877,-232.698 1744,-232.698"/>
<text text-anchor="start" x="1752" y="-250.698" font-family="Helvetica,sans-Serif" font-size="10.00">nars.storage.Memory.work</text>
<text text-anchor="middle" x="1810.5" y="-239.698" font-family="Helvetica,sans-Serif" font-size="10.00">Cycle</text>
</a>
</g>
</g>
<!-- Node8&#45;&gt;Node9 -->
<g id="edge8" class="edge"><title>Node8&#45;&gt;Node9</title>
<path fill="none" stroke="midnightblue" d="M1718.12,-247.698C1726.72,-247.698 1735.37,-247.698 1743.76,-247.698"/>
<polygon fill="midnightblue" stroke="midnightblue" points="1718.07,-244.198 1708.07,-247.698 1718.07,-251.198 1718.07,-244.198"/>
</g>
<!-- Node10 -->
<g id="node10" class="node"><title>Node10</title>
<g id="a_node10"><a xlink:href="../../df/d15/a00416.html#a0d5c797dc17d9e8d0998852915e0f303" target="_top" xlink:title="nars.storage.ReasonerBatch.doTick">
<polygon fill="none" stroke="black" points="1913,-238.198 1913,-257.198 2086,-257.198 2086,-238.198 1913,-238.198"/>
<text text-anchor="middle" x="1999.5" y="-245.198" font-family="Helvetica,sans-Serif" font-size="10.00">nars.storage.ReasonerBatch.doTick</text>
</a>
</g>
</g>
<!-- Node9&#45;&gt;Node10 -->
<g id="edge9" class="edge"><title>Node9&#45;&gt;Node10</title>
<path fill="none" stroke="midnightblue" d="M1887.34,-247.698C1895.78,-247.698 1904.42,-247.698 1912.97,-247.698"/>
<polygon fill="midnightblue" stroke="midnightblue" points="1887.17,-244.198 1877.17,-247.698 1887.17,-251.198 1887.17,-244.198"/>
</g>
<!-- Node11 -->
<g id="node11" class="node"><title>Node11</title>
<g id="a_node11"><a xlink:href="../../df/d15/a00416.html#a3468aa0f99edcd66412f27922dddb880" target="_top" xlink:title="A clock tick. ">
<polygon fill="none" stroke="black" points="2122,-238.198 2122,-257.198 2282,-257.198 2282,-238.198 2122,-238.198"/>
<text text-anchor="middle" x="2202" y="-245.198" font-family="Helvetica,sans-Serif" font-size="10.00">nars.storage.ReasonerBatch.tick</text>
</a>
</g>
</g>
<!-- Node10&#45;&gt;Node11 -->
<g id="edge10" class="edge"><title>Node10&#45;&gt;Node11</title>
<path fill="none" stroke="midnightblue" d="M2096.13,-247.698C2104.7,-247.698 2113.31,-247.698 2121.71,-247.698"/>
<polygon fill="midnightblue" stroke="midnightblue" points="2096.11,-244.198 2086.11,-247.698 2096.11,-251.198 2096.11,-244.198"/>
</g>
<!-- Node12 -->
<g id="node12" class="node"><title>Node12</title>
<g id="a_node12"><a xlink:href="../../d9/da1/a00396.html#a5d9cfe517bcfbe41e5251910bcd119c1" target="_top" xlink:title="Run to completion: repeatedly execute NARS working cycle, until Inputs are Finished, or 1000 steps. ">
<polygon fill="none" stroke="black" points="2318,-238.198 2318,-257.198 2462,-257.198 2462,-238.198 2318,-238.198"/>
<text text-anchor="middle" x="2390" y="-245.198" font-family="Helvetica,sans-Serif" font-size="10.00">nars.storage.NARSBatch.run</text>
</a>
</g>
</g>
<!-- Node11&#45;&gt;Node12 -->
<g id="edge11" class="edge"><title>Node11&#45;&gt;Node12</title>
<path fill="none" stroke="midnightblue" d="M2292.22,-247.698C2300.82,-247.698 2309.47,-247.698 2317.87,-247.698"/>
<polygon fill="midnightblue" stroke="midnightblue" points="2292.15,-244.198 2282.15,-247.698 2292.15,-251.198 2292.15,-244.198"/>
</g>
<!-- Node13 -->
<g id="node13" class="node"><title>Node13</title>
<g id="a_node13"><a xlink:href="../../d9/da1/a00396.html#a7c307c6b842f82664de6b0e52bdf8efc" target="_top" xlink:title="non&#45;static equivalent to main(String[]) : run to completion from an input file ">
<polygon fill="none" stroke="black" points="2498,-232.698 2498,-262.698 2642,-262.698 2642,-232.698 2498,-232.698"/>
<text text-anchor="start" x="2506" y="-250.698" font-family="Helvetica,sans-Serif" font-size="10.00">nars.storage.NARSBatch.run</text>
<text text-anchor="middle" x="2570" y="-239.698" font-family="Helvetica,sans-Serif" font-size="10.00">Inference</text>
</a>
</g>
</g>
<!-- Node12&#45;&gt;Node13 -->
<g id="edge12" class="edge"><title>Node12&#45;&gt;Node13</title>
<path fill="none" stroke="midnightblue" d="M2472.17,-247.698C2480.79,-247.698 2489.51,-247.698 2498,-247.698"/>
<polygon fill="midnightblue" stroke="midnightblue" points="2472.12,-244.198 2462.12,-247.698 2472.12,-251.198 2472.12,-244.198"/>
</g>
<!-- Node14 -->
<g id="node14" class="node"><title>Node14</title>
<g id="a_node14"><a xlink:href="../../d9/da1/a00396.html#abafc597289bc2f6453b5cd0dd6634e54" target="_top" xlink:title="The entry point of the standalone application. ">
<polygon fill="none" stroke="black" points="2678,-238.198 2678,-257.198 2830,-257.198 2830,-238.198 2678,-238.198"/>
<text text-anchor="middle" x="2754" y="-245.198" font-family="Helvetica,sans-Serif" font-size="10.00">nars.storage.NARSBatch.main</text>
</a>
</g>
</g>
<!-- Node13&#45;&gt;Node14 -->
<g id="edge13" class="edge"><title>Node13&#45;&gt;Node14</title>
<path fill="none" stroke="midnightblue" d="M2652.17,-247.698C2660.76,-247.698 2669.48,-247.698 2678,-247.698"/>
<polygon fill="midnightblue" stroke="midnightblue" points="2652.15,-244.198 2642.15,-247.698 2652.15,-251.198 2652.15,-244.198"/>
</g>
<!-- Node15&#45;&gt;Node5 -->
<g id="edge15" class="edge"><title>Node15&#45;&gt;Node5</title>
<path fill="none" stroke="midnightblue" d="M949.349,-216.698C960.659,-216.698 972.114,-216.698 983.251,-216.698"/>
<polygon fill="midnightblue" stroke="midnightblue" points="949.016,-213.198 939.016,-216.698 949.016,-220.198 949.016,-213.198"/>
</g>
<!-- Node16&#45;&gt;Node5 -->
<g id="edge17" class="edge"><title>Node16&#45;&gt;Node5</title>
<path fill="none" stroke="midnightblue" d="M926.551,-184.914C960.867,-192.387 999.75,-200.855 1028.75,-207.17"/>
<polygon fill="midnightblue" stroke="midnightblue" points="927.052,-181.441 916.537,-182.733 925.563,-188.28 927.052,-181.441"/>
</g>
<!-- Node17&#45;&gt;Node6 -->
<g id="edge19" class="edge"><title>Node17&#45;&gt;Node6</title>
<path fill="none" stroke="midnightblue" d="M1132.21,-373.726C1145.45,-370.366 1159.35,-366.339 1172,-361.698 1209.12,-348.079 1249.93,-325.976 1272.04,-313.353"/>
<polygon fill="midnightblue" stroke="midnightblue" points="1131.12,-370.388 1122.24,-376.164 1132.79,-377.187 1131.12,-370.388"/>
</g>
<!-- Node18&#45;&gt;Node7 -->
<g id="edge22" class="edge"><title>Node18&#45;&gt;Node7</title>
<path fill="none" stroke="midnightblue" d="M1106.72,-96.295C1179.09,-126.833 1354.08,-200.678 1429.7,-232.59"/>
<polygon fill="midnightblue" stroke="midnightblue" points="1107.79,-92.9456 1097.21,-92.2822 1105.06,-99.3949 1107.79,-92.9456"/>
</g>
<!-- Node20 -->
<g id="node20" class="node"><title>Node20</title>
<g id="a_node20"><a xlink:href="../../d6/d08/a00244.html#ae7906cfca35e9c7568ace240aba808a0" target="_top" xlink:title="{&lt;M &#45;&#45;&gt; S&gt;, &lt;C ==&gt; &lt;M &#45;&#45;&gt; P&gt;&gt;} |&#45; &lt;(&amp;&amp;, &lt;#x &#45;&#45;&gt; S&gt;, C) ==&gt; &lt;#x &#45;&#45;&gt; P&gt;&gt; {&lt;M &#45;&#45;&gt; S&gt;, (&amp;&amp;, C, &lt;M &#45;&#45;&gt; P&gt;)} |&#45; (&amp;&amp;, C, &lt;&lt;#x &#45;&#45;&gt; S&gt; ==&gt; &lt;#x &#45;&#45;&gt; P&gt;&gt;) ">
<polygon fill="none" stroke="black" points="558,-250.698 558,-280.698 701,-280.698 701,-250.698 558,-250.698"/>
<text text-anchor="start" x="566" y="-268.698" font-family="Helvetica,sans-Serif" font-size="10.00">nars.inference.Compositional</text>
<text text-anchor="middle" x="629.5" y="-257.698" font-family="Helvetica,sans-Serif" font-size="10.00">Rules.introVarInner</text>
</a>
</g>
</g>
<!-- Node19&#45;&gt;Node20 -->
<g id="edge24" class="edge"><title>Node19&#45;&gt;Node20</title>
<path fill="none" stroke="midnightblue" d="M515.474,-264.624C529.737,-264.76 544.19,-264.897 557.78,-265.026"/>
<polygon fill="midnightblue" stroke="midnightblue" points="515.171,-261.121 505.138,-264.526 515.104,-268.121 515.171,-261.121"/>
</g>
<!-- Node21 -->
<g id="node21" class="node"><title>Node21</title>
<g id="a_node21"><a xlink:href="../../dc/ded/a00252.html#a54a7ceba4f123db5035e3b85063c91f1" target="_top" xlink:title="Inference between a compound term and a statement. ">
<polygon fill="none" stroke="black" points="984,-288.698 984,-318.698 1163,-318.698 1163,-288.698 984,-288.698"/>
<text text-anchor="start" x="992" y="-306.698" font-family="Helvetica,sans-Serif" font-size="10.00">nars.inference.RuleTables.compound</text>
<text text-anchor="middle" x="1073.5" y="-295.698" font-family="Helvetica,sans-Serif" font-size="10.00">AndStatement</text>
</a>
</g>
</g>
<!-- Node20&#45;&gt;Node21 -->
<g id="edge25" class="edge"><title>Node20&#45;&gt;Node21</title>
<path fill="none" stroke="midnightblue" d="M708.025,-282.58C723.206,-285.371 739.054,-287.927 754,-289.698 831.225,-298.848 919.619,-302.171 983.662,-303.308"/>
<polygon fill="midnightblue" stroke="midnightblue" points="708.637,-279.134 698.161,-280.718 707.339,-286.012 708.637,-279.134"/>
</g>
<!-- Node22 -->
<g id="node22" class="node"><title>Node22</title>
<g id="a_node22"><a xlink:href="../../dc/ded/a00252.html#af6c973743270b2739d4ad25f16975da1" target="_top" xlink:title="The detachment rule, with variable unification. ">
<polygon fill="none" stroke="black" points="754,-250.698 754,-280.698 939,-280.698 939,-250.698 754,-250.698"/>
<text text-anchor="start" x="762" y="-268.698" font-family="Helvetica,sans-Serif" font-size="10.00">nars.inference.RuleTables.detachment</text>
<text text-anchor="middle" x="846.5" y="-257.698" font-family="Helvetica,sans-Serif" font-size="10.00">WithVar</text>
</a>
</g>
</g>
<!-- Node20&#45;&gt;Node22 -->
<g id="edge27" class="edge"><title>Node20&#45;&gt;Node22</title>
<path fill="none" stroke="midnightblue" d="M711.567,-265.698C725.305,-265.698 739.657,-265.698 753.648,-265.698"/>
<polygon fill="midnightblue" stroke="midnightblue" points="711.197,-262.198 701.197,-265.698 711.197,-269.198 711.197,-262.198"/>
</g>
<!-- Node21&#45;&gt;Node6 -->
<g id="edge26" class="edge"><title>Node21&#45;&gt;Node6</title>
<path fill="none" stroke="midnightblue" d="M1173.23,-303.698C1184.83,-303.698 1196.55,-303.698 1207.86,-303.698"/>
<polygon fill="midnightblue" stroke="midnightblue" points="1173.09,-300.198 1163.09,-303.698 1173.09,-307.198 1173.09,-300.198"/>
</g>
<!-- Node22&#45;&gt;Node5 -->
<g id="edge28" class="edge"><title>Node22&#45;&gt;Node5</title>
<path fill="none" stroke="midnightblue" d="M926.551,-248.482C960.867,-241.009 999.75,-232.541 1028.75,-226.226"/>
<polygon fill="midnightblue" stroke="midnightblue" points="925.563,-245.115 916.537,-250.663 927.052,-251.955 925.563,-245.115"/>
</g>
<!-- Node24 -->
<g id="node24" class="node"><title>Node24</title>
<g id="a_node24"><a xlink:href="../../d6/d08/a00244.html#a53f7edf7bfe7433da42e8fcf36fd6604" target="_top" xlink:title="{&lt;S ==&gt; M&gt;, ">
<polygon fill="none" stroke="black" points="558,-103.698 558,-133.698 701,-133.698 701,-103.698 558,-103.698"/>
<text text-anchor="start" x="566" y="-121.698" font-family="Helvetica,sans-Serif" font-size="10.00">nars.inference.Compositional</text>
<text text-anchor="middle" x="629.5" y="-110.698" font-family="Helvetica,sans-Serif" font-size="10.00">Rules.composeCompound</text>
</a>
</g>
</g>
<!-- Node23&#45;&gt;Node24 -->
<g id="edge30" class="edge"><title>Node23&#45;&gt;Node24</title>
<path fill="none" stroke="midnightblue" d="M492.521,-136.139C513.751,-133.416 536.809,-130.459 557.804,-127.766"/>
<polygon fill="midnightblue" stroke="midnightblue" points="492.061,-132.67 482.587,-137.414 492.952,-139.613 492.061,-132.67"/>
</g>
<!-- Node25 -->
<g id="node25" class="node"><title>Node25</title>
<g id="a_node25"><a xlink:href="../../d4/db5/a00328.html#a834a3550042061ee3bd0ae7456d5fb3d" target="_top" xlink:title="Try to make a new IntersectionExt. ">
<polygon fill="none" stroke="black" points="564,-152.698 564,-182.698 695,-182.698 695,-152.698 564,-152.698"/>
<text text-anchor="start" x="572" y="-170.698" font-family="Helvetica,sans-Serif" font-size="10.00">nars.language.Intersection</text>
<text text-anchor="middle" x="629.5" y="-159.698" font-family="Helvetica,sans-Serif" font-size="10.00">Ext.make</text>
</a>
</g>
</g>
<!-- Node23&#45;&gt;Node25 -->
<g id="edge32" class="edge"><title>Node23&#45;&gt;Node25</title>
<path fill="none" stroke="midnightblue" d="M492.717,-153.507C515.891,-155.929 541.228,-158.577 563.672,-160.923"/>
<polygon fill="midnightblue" stroke="midnightblue" points="492.897,-150.007 482.587,-152.448 492.169,-156.969 492.897,-150.007"/>
</g>
<!-- Node26 -->
<g id="node26" class="node"><title>Node26</title>
<g id="a_node26"><a xlink:href="../../d8/d17/a00304.html#a7e26be1958a40da052dbfed62ad4935b" target="_top" xlink:title="Try to make a compound term from an operator and a list of components. ">
<polygon fill="none" stroke="black" points="541,-65.1979 541,-84.1979 718,-84.1979 718,-65.1979 541,-65.1979"/>
<text text-anchor="middle" x="629.5" y="-72.1979" font-family="Helvetica,sans-Serif" font-size="10.00">nars.language.CompoundTerm.make</text>
</a>
</g>
</g>
<!-- Node23&#45;&gt;Node26 -->
<g id="edge33" class="edge"><title>Node23&#45;&gt;Node26</title>
<path fill="none" stroke="midnightblue" d="M464.278,-126.809C477.464,-121.356 491.824,-115.351 505,-109.698 521.091,-102.794 524.358,-99.1396 541,-93.6979 552.229,-90.0262 564.503,-86.86 576.211,-84.2228"/>
<polygon fill="midnightblue" stroke="midnightblue" points="462.828,-123.621 454.918,-130.669 465.497,-130.092 462.828,-123.621"/>
</g>
<!-- Node24&#45;&gt;Node4 -->
<g id="edge31" class="edge"><title>Node24&#45;&gt;Node4</title>
<path fill="none" stroke="midnightblue" d="M711.567,-118.698C725.305,-118.698 739.657,-118.698 753.648,-118.698"/>
<polygon fill="midnightblue" stroke="midnightblue" points="711.197,-115.198 701.197,-118.698 711.197,-122.198 711.197,-115.198"/>
</g>
<!-- Node27&#45;&gt;Node24 -->
<g id="edge35" class="edge"><title>Node27&#45;&gt;Node24</title>
<path fill="none" stroke="midnightblue" d="M492.521,-97.3806C513.751,-100.709 536.809,-104.324 557.804,-107.615"/>
<polygon fill="midnightblue" stroke="midnightblue" points="493.009,-93.9144 482.587,-95.8233 491.925,-100.83 493.009,-93.9144"/>
</g>
<!-- Node27&#45;&gt;Node26 -->
<g id="edge37" class="edge"><title>Node27&#45;&gt;Node26</title>
<path fill="none" stroke="midnightblue" d="M492.663,-81.7963C508.234,-80.9826 524.783,-80.1178 540.777,-79.282"/>
<polygon fill="midnightblue" stroke="midnightblue" points="492.391,-78.3056 482.587,-82.3228 492.757,-85.2961 492.391,-78.3056"/>
</g>
<!-- Node28 -->
<g id="node28" class="node"><title>Node28</title>
<g id="a_node28"><a xlink:href="../../dc/d50/a00332.html#a00cefbbca224bfc923d56bf917f55578" target="_top" xlink:title="Try to make a new IntersectionExt. ">
<polygon fill="none" stroke="black" points="564,-15.6979 564,-45.6979 695,-45.6979 695,-15.6979 564,-15.6979"/>
<text text-anchor="start" x="572" y="-33.6979" font-family="Helvetica,sans-Serif" font-size="10.00">nars.language.Intersection</text>
<text text-anchor="middle" x="629.5" y="-22.6979" font-family="Helvetica,sans-Serif" font-size="10.00">Int.make</text>
</a>
</g>
</g>
<!-- Node27&#45;&gt;Node28 -->
<g id="edge36" class="edge"><title>Node27&#45;&gt;Node28</title>
<path fill="none" stroke="midnightblue" d="M485.48,-68.0666C513.05,-60.8631 544.605,-52.6182 571.049,-45.7087"/>
<polygon fill="midnightblue" stroke="midnightblue" points="484.31,-64.7546 475.52,-70.6689 486.08,-71.5272 484.31,-64.7546"/>
</g>
</g>
</svg>
        <g id="navigator" transform="translate(0 0)" fill="#404254">
                <rect fill="#f2f5e9" fill-opacity="0.5" stroke="#606060" stroke-width=".5" x="0" y="0" width="60" height="60"/>
                <use id="zoomplus" xlink:href="#zoomPlus" x="17" y="9" onmousedown="handleZoom(evt,'in')"/>
                <use id="zoomminus" xlink:href="#zoomMin" x="42" y="9" onmousedown="handleZoom(evt,'out')"/>
                <use id="reset" xlink:href="#resetDef" x="30" y="36" onmousedown="handleReset()"/>
                <g id="arrowUp" xlink:href="#dirArrow" transform="translate(30 24)" onmousedown="handlePan(0,-1)">
                  <use xlink:href="#rim" fill="#404040">
                        <set attributeName="fill" to="#808080" begin="arrowUp.mouseover" end="arrowUp.mouseout"/>
                  </use>
                  <path fill="none" stroke="white" stroke-width="1.5" d="M0,-3.0v7 M-2.5,-0.5L0,-3.0L2.5,-0.5"/>
                </g>
                <g id="arrowRight" xlink:href="#dirArrow" transform="rotate(90) translate(36 -43)" onmousedown="handlePan(1,0)">
                  <use xlink:href="#rim" fill="#404040">
                        <set attributeName="fill" to="#808080" begin="arrowRight.mouseover" end="arrowRight.mouseout"/>
                  </use>
                  <path fill="none" stroke="white" stroke-width="1.5" d="M0,-3.0v7 M-2.5,-0.5L0,-3.0L2.5,-0.5"/>
                </g>
                <g id="arrowDown" xlink:href="#dirArrow" transform="rotate(180) translate(-30 -48)" onmousedown="handlePan(0,1)">
                  <use xlink:href="#rim" fill="#404040">
                        <set attributeName="fill" to="#808080" begin="arrowDown.mouseover" end="arrowDown.mouseout"/>
                  </use>
                  <path fill="none" stroke="white" stroke-width="1.5" d="M0,-3.0v7 M-2.5,-0.5L0,-3.0L2.5,-0.5"/>
                </g>
                <g id="arrowLeft" xlink:href="#dirArrow" transform="rotate(270) translate(-36 17)" onmousedown="handlePan(-1,0)">
                  <use xlink:href="#rim" fill="#404040">
                        <set attributeName="fill" to="#808080" begin="arrowLeft.mouseover" end="arrowLeft.mouseout"/>
                  </use>
                  <path fill="none" stroke="white" stroke-width="1.5" d="M0,-3.0v7 M-2.5,-0.5L0,-3.0L2.5,-0.5"/>
                </g>
        </g>
        <svg viewBox="0 0 15 15" width="100%" height="30px" preserveAspectRatio="xMaxYMin meet">
         <g id="arrow_out" transform="scale(0.3 0.3)">
          <a xlink:href="a00364_a2d9973aada6190dd60b48a34448094c9_icgraph_org.svg" target="_base">
           <rect id="button" ry="5" rx="5" y="6" x="6" height="38" width="38"
                fill="#f2f5e9" fill-opacity="0.5" stroke="#606060" stroke-width="1.0"/>
           <path id="arrow"
             d="M 11.500037,31.436501 C 11.940474,20.09759 22.043105,11.32322 32.158766,21.979434 L 37.068811,17.246167 C 37.068811,17.246167 37.088388,32 37.088388,32 L 22.160133,31.978069 C 22.160133,31.978069 26.997745,27.140456 26.997745,27.140456 C 18.528582,18.264221 13.291696,25.230495 11.500037,31.436501 z"
             style="fill:#404040;"/>
          </a>
         </g>
        </svg>
</svg>
