<?xml version="1.0" encoding="UTF-8" standalone="no"?>
<!DOCTYPE svg PUBLIC "-//W3C//DTD SVG 1.1//EN"
 "http://www.w3.org/Graphics/SVG/1.1/DTD/svg11.dtd">
<!-- Generated by graphviz version 2.38.0 (20140413.2041)
 -->
<!-- Title: nars.language.Term.clone Pages: 1 -->
<!--zoomable 375 -->
<svg id="main" version="1.1" xmlns="http://www.w3.org/2000/svg" xmlns:xlink="http://www.w3.org/1999/xlink" xml:space="preserve" onload="init(evt)">
<style type="text/css"><![CDATA[
.edge:hover path { stroke: red; }
.edge:hover polygon { stroke: red; fill: red; }
]]></style>
<script type="text/javascript"><![CDATA[
var edges = document.getElementsByTagName('g');
if (edges && edges.length) {
  for (var i=0;i<edges.length;i++) {
    if (edges[i].id.substr(0,4)=='edge') {
      edges[i].setAttribute('class','edge');
    }
  }
}
]]></script>
        <defs>
                <circle id="rim" cx="0" cy="0" r="7"/>
                <circle id="rim2" cx="0" cy="0" r="3.5"/>
                <g id="zoomPlus">
                        <use xlink:href="#rim" fill="#404040">
                                <set attributeName="fill" to="#808080" begin="zoomplus.mouseover" end="zoomplus.mouseout"/>
                        </use>
                        <path d="M-4,0h8M0,-4v8" fill="none" stroke="white" stroke-width="1.5" pointer-events="none"/>
                </g>
                <g id="zoomMin">
                        <use xlink:href="#rim" fill="#404040">
                                <set attributeName="fill" to="#808080" begin="zoomminus.mouseover" end="zoomminus.mouseout"/>
                        </use>
                        <path d="M-4,0h8" fill="none" stroke="white" stroke-width="1.5" pointer-events="none"/>
                </g>
                <g id="dirArrow">
                        <path fill="none" stroke="white" stroke-width="1.5" d="M0,-3.0v7 M-2.5,-0.5L0,-3.0L2.5,-0.5"/>
                </g>
               <g id="resetDef">
                       <use xlink:href="#rim2" fill="#404040">
                               <set attributeName="fill" to="#808080" begin="reset.mouseover" end="reset.mouseout"/>
                       </use>
               </g>
        </defs>

<script type="text/javascript">
var viewWidth = 2691;
var viewHeight = 375;
var sectionId = 'dynsection-4';
</script>
<script xlink:href="../../svgpan.js"/>
<svg id="graph" class="graph">
<g id="viewport">
<title>nars.language.Term.clone</title>
<!-- Node35 -->
<g id="node1" class="node"><title>Node35</title>
<polygon fill="#bfbfbf" stroke="black" points="0,-166.539 0,-185.539 129,-185.539 129,-166.539 0,-166.539"/>
<text text-anchor="middle" x="64.5" y="-173.539" font-family="Helvetica,sans-Serif" font-size="10.00">nars.language.Term.clone</text>
</g>
<!-- Node36 -->
<g id="node2" class="node"><title>Node36</title>
<g id="a_node2"><a xlink:href="../../d8/d17/a00304.html#a82aa08a45653fbb88523fe2497469434" target="_top" xlink:title="Recursively apply a substitute to the current CompoundTerm. ">
<polygon fill="none" stroke="black" points="165,-93.0395 165,-123.039 341,-123.039 341,-93.0395 165,-93.0395"/>
<text text-anchor="start" x="173" y="-111.039" font-family="Helvetica,sans-Serif" font-size="10.00">nars.language.CompoundTerm.apply</text>
<text text-anchor="middle" x="253" y="-100.039" font-family="Helvetica,sans-Serif" font-size="10.00">Substitute</text>
</a>
</g>
</g>
<!-- Node35&#45;&gt;Node36 -->
<g id="edge1" class="edge"><title>Node35&#45;&gt;Node36</title>
<path fill="none" stroke="midnightblue" d="M101.446,-162.933C132.698,-151.538 177.975,-135.03 210.707,-123.095"/>
<polygon fill="midnightblue" stroke="midnightblue" points="100.021,-159.727 91.8253,-166.441 102.419,-166.304 100.021,-159.727"/>
</g>
<!-- Node39 -->
<g id="node5" class="node"><title>Node39</title>
<g id="a_node5"><a xlink:href="../../dc/ded/a00252.html#ac2d01dfdc40bdd47c757cb549217e6e3" target="_top" xlink:title="Entry point of the inference engine. ">
<polygon fill="none" stroke="black" points="1044,-78.5395 1044,-97.5395 1207,-97.5395 1207,-78.5395 1044,-78.5395"/>
<text text-anchor="middle" x="1125.5" y="-85.5395" font-family="Helvetica,sans-Serif" font-size="10.00">nars.inference.RuleTables.reason</text>
</a>
</g>
</g>
<!-- Node35&#45;&gt;Node39 -->
<g id="edge34" class="edge"><title>Node35&#45;&gt;Node39</title>
<path fill="none" stroke="midnightblue" d="M76.4315,-194.509C92.5502,-220.109 125.135,-266.041 165,-291.039 281.347,-363.998 327.17,-367.039 464.5,-367.039 464.5,-367.039 464.5,-367.039 683.5,-367.039 830.695,-367.039 874.343,-333.803 991,-244.039 1049.76,-198.824 1101.17,-124.099 1118.38,-97.6671"/>
<polygon fill="midnightblue" stroke="midnightblue" points="79.2899,-192.475 71.0792,-185.779 73.3222,-196.134 79.2899,-192.475"/>
</g>
<!-- Node50 -->
<g id="node16" class="node"><title>Node50</title>
<g id="a_node16"><a xlink:href="../../dd/dc1/a00212.html#ac6fa0cb96108a540d7e768ffc1b95630" target="_top" xlink:title="Clone the content of the sentence. ">
<polygon fill="none" stroke="black" points="399,-308.039 399,-338.039 532,-338.039 532,-308.039 399,-308.039"/>
<text text-anchor="start" x="407" y="-326.039" font-family="Helvetica,sans-Serif" font-size="10.00">nars.entity.Sentence.clone</text>
<text text-anchor="middle" x="465.5" y="-315.039" font-family="Helvetica,sans-Serif" font-size="10.00">Content</text>
</a>
</g>
</g>
<!-- Node35&#45;&gt;Node50 -->
<g id="edge16" class="edge"><title>Node35&#45;&gt;Node50</title>
<path fill="none" stroke="midnightblue" d="M83.1698,-192.382C102.059,-208.998 133.558,-234.329 165,-249.039 241.166,-284.674 336.556,-304.433 398.943,-314.386"/>
<polygon fill="midnightblue" stroke="midnightblue" points="85.4349,-189.712 75.6535,-185.641 80.7611,-194.923 85.4349,-189.712"/>
</g>
<!-- Node54 -->
<g id="node20" class="node"><title>Node54</title>
<g id="a_node20"><a xlink:href="../../dc/d50/a00332.html#acc3bb6e31a10d204254e827435391988" target="_top" xlink:title="Try to make a new compound from two components. ">
<polygon fill="none" stroke="black" points="187.5,-210.039 187.5,-240.039 318.5,-240.039 318.5,-210.039 187.5,-210.039"/>
<text text-anchor="start" x="195.5" y="-228.039" font-family="Helvetica,sans-Serif" font-size="10.00">nars.language.Intersection</text>
<text text-anchor="middle" x="253" y="-217.039" font-family="Helvetica,sans-Serif" font-size="10.00">Int.make</text>
</a>
</g>
</g>
<!-- Node35&#45;&gt;Node54 -->
<g id="edge23" class="edge"><title>Node35&#45;&gt;Node54</title>
<path fill="none" stroke="midnightblue" d="M111.895,-188.229C136.982,-194.82 168.182,-203.018 194.767,-210.003"/>
<polygon fill="midnightblue" stroke="midnightblue" points="112.463,-184.76 101.902,-185.604 110.684,-191.53 112.463,-184.76"/>
</g>
<!-- Node58 -->
<g id="node24" class="node"><title>Node58</title>
<g id="a_node24"><a xlink:href="../../d4/db5/a00328.html#a84dcdd3c63e7219e8c3da43e163f2d78" target="_top" xlink:title="Try to make a new compound from two components. ">
<polygon fill="none" stroke="black" points="187.5,-161.039 187.5,-191.039 318.5,-191.039 318.5,-161.039 187.5,-161.039"/>
<text text-anchor="start" x="195.5" y="-179.039" font-family="Helvetica,sans-Serif" font-size="10.00">nars.language.Intersection</text>
<text text-anchor="middle" x="253" y="-168.039" font-family="Helvetica,sans-Serif" font-size="10.00">Ext.make</text>
</a>
</g>
</g>
<!-- Node35&#45;&gt;Node58 -->
<g id="edge28" class="edge"><title>Node35&#45;&gt;Node58</title>
<path fill="none" stroke="midnightblue" d="M139.439,-176.039C155.281,-176.039 171.9,-176.039 187.358,-176.039"/>
<polygon fill="midnightblue" stroke="midnightblue" points="139.161,-172.54 129.161,-176.039 139.161,-179.54 139.161,-172.54"/>
</g>
<!-- Node60 -->
<g id="node26" class="node"><title>Node60</title>
<g id="a_node26"><a xlink:href="../../dd/dd7/a00248.html#aac1c92950f50edd04d12229a8c992987" target="_top" xlink:title="The task and belief have the same content. ">
<polygon fill="none" stroke="black" points="821,-34.5395 821,-53.5395 981,-53.5395 981,-34.5395 821,-34.5395"/>
<text text-anchor="middle" x="901" y="-41.5395" font-family="Helvetica,sans-Serif" font-size="10.00">nars.inference.LocalRules.match</text>
</a>
</g>
</g>
<!-- Node35&#45;&gt;Node60 -->
<g id="edge32" class="edge"><title>Node35&#45;&gt;Node60</title>
<path fill="none" stroke="midnightblue" d="M78.5497,-158.064C95.6461,-136.086 127.855,-99.7546 165,-83.0395 280.145,-31.2244 655.53,-36.1672 820.738,-41.1157"/>
<polygon fill="midnightblue" stroke="midnightblue" points="75.6064,-156.154 72.3704,-166.242 81.1914,-160.374 75.6064,-156.154"/>
</g>
<!-- Node61 -->
<g id="node27" class="node"><title>Node61</title>
<g id="a_node27"><a xlink:href="../../dc/ded/a00252.html#ab344d6ccee0f3671b57d092daeb65db4" target="_top" xlink:title="The TaskLink is of type TRANSFORM, and the conclusion is an equivalent transformation. ">
<polygon fill="none" stroke="black" points="1027,-18.5395 1027,-37.5395 1224,-37.5395 1224,-18.5395 1027,-18.5395"/>
<text text-anchor="middle" x="1125.5" y="-25.5395" font-family="Helvetica,sans-Serif" font-size="10.00">nars.inference.RuleTables.transformTask</text>
</a>
</g>
</g>
<!-- Node35&#45;&gt;Node61 -->
<g id="edge35" class="edge"><title>Node35&#45;&gt;Node61</title>
<path fill="none" stroke="midnightblue" d="M73.8837,-157.326C88.0518,-128.111 119.684,-72.2963 165,-46.0395 281.197,21.2869 330.207,-6.03949 464.5,-6.03949 464.5,-6.03949 464.5,-6.03949 683.5,-6.03949 801.745,-6.03949 937.602,-14.0267 1026.92,-20.3758"/>
<polygon fill="midnightblue" stroke="midnightblue" points="70.6783,-155.918 69.6067,-166.458 77.0176,-158.887 70.6783,-155.918"/>
</g>
<!-- Node37 -->
<g id="node3" class="node"><title>Node37</title>
<g id="a_node3"><a xlink:href="../../d6/d08/a00244.html#ae7906cfca35e9c7568ace240aba808a0" target="_top" xlink:title="{&lt;M &#45;&#45;&gt; S&gt;, &lt;C ==&gt; &lt;M &#45;&#45;&gt; P&gt;&gt;} |&#45; &lt;(&amp;&amp;, &lt;#x &#45;&#45;&gt; S&gt;, C) ==&gt; &lt;#x &#45;&#45;&gt; P&gt;&gt; {&lt;M &#45;&#45;&gt; S&gt;, (&amp;&amp;, C, &lt;M &#45;&#45;&gt; P&gt;)} |&#45; (&amp;&amp;, C, &lt;&lt;#x &#45;&#45;&gt; S&gt; ==&gt; &lt;#x &#45;&#45;&gt; P&gt;&gt;) ">
<polygon fill="none" stroke="black" points="394,-73.0395 394,-103.039 537,-103.039 537,-73.0395 394,-73.0395"/>
<text text-anchor="start" x="402" y="-91.0395" font-family="Helvetica,sans-Serif" font-size="10.00">nars.inference.Compositional</text>
<text text-anchor="middle" x="465.5" y="-80.0395" font-family="Helvetica,sans-Serif" font-size="10.00">Rules.introVarInner</text>
</a>
</g>
</g>
<!-- Node36&#45;&gt;Node37 -->
<g id="edge2" class="edge"><title>Node36&#45;&gt;Node37</title>
<path fill="none" stroke="midnightblue" d="M351.474,-98.7783C365.737,-97.4232 380.19,-96.0499 393.78,-94.7587"/>
<polygon fill="midnightblue" stroke="midnightblue" points="350.762,-95.3301 341.138,-99.7604 351.424,-102.299 350.762,-95.3301"/>
</g>
<!-- Node38 -->
<g id="node4" class="node"><title>Node38</title>
<g id="a_node4"><a xlink:href="../../dc/ded/a00252.html#a54a7ceba4f123db5035e3b85063c91f1" target="_top" xlink:title="Inference between a compound term and a statement. ">
<polygon fill="none" stroke="black" points="811.5,-73.0395 811.5,-103.039 990.5,-103.039 990.5,-73.0395 811.5,-73.0395"/>
<text text-anchor="start" x="819.5" y="-91.0395" font-family="Helvetica,sans-Serif" font-size="10.00">nars.inference.RuleTables.compound</text>
<text text-anchor="middle" x="901" y="-80.0395" font-family="Helvetica,sans-Serif" font-size="10.00">AndStatement</text>
</a>
</g>
</g>
<!-- Node37&#45;&gt;Node38 -->
<g id="edge3" class="edge"><title>Node37&#45;&gt;Node38</title>
<path fill="none" stroke="midnightblue" d="M547.458,-88.0395C622.528,-88.0395 733.989,-88.0395 811.409,-88.0395"/>
<polygon fill="midnightblue" stroke="midnightblue" points="547.114,-84.5396 537.114,-88.0395 547.114,-91.5396 547.114,-84.5396"/>
</g>
<!-- Node48 -->
<g id="node14" class="node"><title>Node48</title>
<g id="a_node14"><a xlink:href="../../dc/ded/a00252.html#af6c973743270b2739d4ad25f16975da1" target="_top" xlink:title="The detachment rule, with variable unification. ">
<polygon fill="none" stroke="black" points="590,-139.039 590,-169.039 775,-169.039 775,-139.039 590,-139.039"/>
<text text-anchor="start" x="598" y="-157.039" font-family="Helvetica,sans-Serif" font-size="10.00">nars.inference.RuleTables.detachment</text>
<text text-anchor="middle" x="682.5" y="-146.039" font-family="Helvetica,sans-Serif" font-size="10.00">WithVar</text>
</a>
</g>
</g>
<!-- Node37&#45;&gt;Node48 -->
<g id="edge13" class="edge"><title>Node37&#45;&gt;Node48</title>
<path fill="none" stroke="midnightblue" d="M532.831,-105.853C539.991,-107.889 547.157,-109.975 554,-112.039 582.002,-120.486 613.191,-130.745 637.713,-139.009"/>
<polygon fill="midnightblue" stroke="midnightblue" points="533.677,-102.455 523.103,-103.115 531.781,-109.193 533.677,-102.455"/>
</g>
<!-- Node38&#45;&gt;Node39 -->
<g id="edge4" class="edge"><title>Node38&#45;&gt;Node39</title>
<path fill="none" stroke="midnightblue" d="M1000.95,-88.0395C1015.28,-88.0395 1029.89,-88.0395 1043.8,-88.0395"/>
<polygon fill="midnightblue" stroke="midnightblue" points="1000.58,-84.5396 990.577,-88.0395 1000.58,-91.5396 1000.58,-84.5396"/>
</g>
<!-- Node40 -->
<g id="node6" class="node"><title>Node40</title>
<g id="a_node6"><a xlink:href="../../d7/ded/a00196.html#ad6fb91dda799c3092ecb186ef24ca92a" target="_top" xlink:title="An atomic step in a concept, only called in Memory# processConcept. ">
<polygon fill="none" stroke="black" points="1260,-43.0395 1260,-73.0395 1379,-73.0395 1379,-43.0395 1260,-43.0395"/>
<text text-anchor="start" x="1268" y="-61.0395" font-family="Helvetica,sans-Serif" font-size="10.00">nars.entity.Concept.fire</text>
<text text-anchor="middle" x="1319.5" y="-50.0395" font-family="Helvetica,sans-Serif" font-size="10.00">FromProcessConcept</text>
</a>
</g>
</g>
<!-- Node39&#45;&gt;Node40 -->
<g id="edge5" class="edge"><title>Node39&#45;&gt;Node40</title>
<path fill="none" stroke="midnightblue" d="M1197.46,-76.9525C1218.02,-73.7398 1240.23,-70.2697 1259.94,-67.1897"/>
<polygon fill="midnightblue" stroke="midnightblue" points="1196.85,-73.5042 1187.51,-78.5061 1197.93,-80.4203 1196.85,-73.5042"/>
</g>
<!-- Node41 -->
<g id="node7" class="node"><title>Node41</title>
<g id="a_node7"><a xlink:href="../../d4/d27/a00392.html#a0acc4adbf6a2462245da46bcb529746c" target="_top" xlink:title="Select a concept to fireFromProcessConcept. ">
<polygon fill="none" stroke="black" points="1415,-43.0395 1415,-73.0395 1561,-73.0395 1561,-43.0395 1415,-43.0395"/>
<text text-anchor="start" x="1423" y="-61.0395" font-family="Helvetica,sans-Serif" font-size="10.00">nars.storage.Memory.process</text>
<text text-anchor="middle" x="1488" y="-50.0395" font-family="Helvetica,sans-Serif" font-size="10.00">Concept</text>
</a>
</g>
</g>
<!-- Node40&#45;&gt;Node41 -->
<g id="edge6" class="edge"><title>Node40&#45;&gt;Node41</title>
<path fill="none" stroke="midnightblue" d="M1389.34,-58.0395C1397.75,-58.0395 1406.36,-58.0395 1414.82,-58.0395"/>
<polygon fill="midnightblue" stroke="midnightblue" points="1389.2,-54.5396 1379.2,-58.0395 1389.2,-61.5396 1389.2,-54.5396"/>
</g>
<!-- Node42 -->
<g id="node8" class="node"><title>Node42</title>
<g id="a_node8"><a xlink:href="../../d4/d27/a00392.html#a59ae339d666409988d90d29be4f73a91" target="_top" xlink:title="An atomic working workCycle of the system: process new Tasks, then fireFromProcessConcept a concept...">
<polygon fill="none" stroke="black" points="1597,-43.0395 1597,-73.0395 1730,-73.0395 1730,-43.0395 1597,-43.0395"/>
<text text-anchor="start" x="1605" y="-61.0395" font-family="Helvetica,sans-Serif" font-size="10.00">nars.storage.Memory.work</text>
<text text-anchor="middle" x="1663.5" y="-50.0395" font-family="Helvetica,sans-Serif" font-size="10.00">Cycle</text>
</a>
</g>
</g>
<!-- Node41&#45;&gt;Node42 -->
<g id="edge7" class="edge"><title>Node41&#45;&gt;Node42</title>
<path fill="none" stroke="midnightblue" d="M1571.12,-58.0395C1579.72,-58.0395 1588.37,-58.0395 1596.76,-58.0395"/>
<polygon fill="midnightblue" stroke="midnightblue" points="1571.07,-54.5396 1561.07,-58.0395 1571.07,-61.5396 1571.07,-54.5396"/>
</g>
<!-- Node43 -->
<g id="node9" class="node"><title>Node43</title>
<g id="a_node9"><a xlink:href="../../df/d15/a00416.html#a0d5c797dc17d9e8d0998852915e0f303" target="_top" xlink:title="nars.storage.ReasonerBatch.doTick">
<polygon fill="none" stroke="black" points="1766,-48.5395 1766,-67.5395 1939,-67.5395 1939,-48.5395 1766,-48.5395"/>
<text text-anchor="middle" x="1852.5" y="-55.5395" font-family="Helvetica,sans-Serif" font-size="10.00">nars.storage.ReasonerBatch.doTick</text>
</a>
</g>
</g>
<!-- Node42&#45;&gt;Node43 -->
<g id="edge8" class="edge"><title>Node42&#45;&gt;Node43</title>
<path fill="none" stroke="midnightblue" d="M1740.34,-58.0395C1748.78,-58.0395 1757.42,-58.0395 1765.97,-58.0395"/>
<polygon fill="midnightblue" stroke="midnightblue" points="1740.17,-54.5396 1730.17,-58.0395 1740.17,-61.5396 1740.17,-54.5396"/>
</g>
<!-- Node44 -->
<g id="node10" class="node"><title>Node44</title>
<g id="a_node10"><a xlink:href="../../df/d15/a00416.html#a3468aa0f99edcd66412f27922dddb880" target="_top" xlink:title="A clock tick. ">
<polygon fill="none" stroke="black" points="1975,-48.5395 1975,-67.5395 2135,-67.5395 2135,-48.5395 1975,-48.5395"/>
<text text-anchor="middle" x="2055" y="-55.5395" font-family="Helvetica,sans-Serif" font-size="10.00">nars.storage.ReasonerBatch.tick</text>
</a>
</g>
</g>
<!-- Node43&#45;&gt;Node44 -->
<g id="edge9" class="edge"><title>Node43&#45;&gt;Node44</title>
<path fill="none" stroke="midnightblue" d="M1949.13,-58.0395C1957.7,-58.0395 1966.31,-58.0395 1974.71,-58.0395"/>
<polygon fill="midnightblue" stroke="midnightblue" points="1949.11,-54.5396 1939.11,-58.0395 1949.11,-61.5396 1949.11,-54.5396"/>
</g>
<!-- Node45 -->
<g id="node11" class="node"><title>Node45</title>
<g id="a_node11"><a xlink:href="../../d9/da1/a00396.html#a5d9cfe517bcfbe41e5251910bcd119c1" target="_top" xlink:title="Run to completion: repeatedly execute NARS working cycle, until Inputs are Finished, or 1000 steps. ">
<polygon fill="none" stroke="black" points="2171,-48.5395 2171,-67.5395 2315,-67.5395 2315,-48.5395 2171,-48.5395"/>
<text text-anchor="middle" x="2243" y="-55.5395" font-family="Helvetica,sans-Serif" font-size="10.00">nars.storage.NARSBatch.run</text>
</a>
</g>
</g>
<!-- Node44&#45;&gt;Node45 -->
<g id="edge10" class="edge"><title>Node44&#45;&gt;Node45</title>
<path fill="none" stroke="midnightblue" d="M2145.22,-58.0395C2153.82,-58.0395 2162.47,-58.0395 2170.87,-58.0395"/>
<polygon fill="midnightblue" stroke="midnightblue" points="2145.15,-54.5396 2135.15,-58.0395 2145.15,-61.5396 2145.15,-54.5396"/>
</g>
<!-- Node46 -->
<g id="node12" class="node"><title>Node46</title>
<g id="a_node12"><a xlink:href="../../d9/da1/a00396.html#a7c307c6b842f82664de6b0e52bdf8efc" target="_top" xlink:title="non&#45;static equivalent to main(String[]) : run to completion from an input file ">
<polygon fill="none" stroke="black" points="2351,-43.0395 2351,-73.0395 2495,-73.0395 2495,-43.0395 2351,-43.0395"/>
<text text-anchor="start" x="2359" y="-61.0395" font-family="Helvetica,sans-Serif" font-size="10.00">nars.storage.NARSBatch.run</text>
<text text-anchor="middle" x="2423" y="-50.0395" font-family="Helvetica,sans-Serif" font-size="10.00">Inference</text>
</a>
</g>
</g>
<!-- Node45&#45;&gt;Node46 -->
<g id="edge11" class="edge"><title>Node45&#45;&gt;Node46</title>
<path fill="none" stroke="midnightblue" d="M2325.17,-58.0395C2333.79,-58.0395 2342.51,-58.0395 2351,-58.0395"/>
<polygon fill="midnightblue" stroke="midnightblue" points="2325.12,-54.5396 2315.12,-58.0395 2325.12,-61.5396 2325.12,-54.5396"/>
</g>
<!-- Node47 -->
<g id="node13" class="node"><title>Node47</title>
<g id="a_node13"><a xlink:href="../../d9/da1/a00396.html#abafc597289bc2f6453b5cd0dd6634e54" target="_top" xlink:title="The entry point of the standalone application. ">
<polygon fill="none" stroke="black" points="2531,-48.5395 2531,-67.5395 2683,-67.5395 2683,-48.5395 2531,-48.5395"/>
<text text-anchor="middle" x="2607" y="-55.5395" font-family="Helvetica,sans-Serif" font-size="10.00">nars.storage.NARSBatch.main</text>
</a>
</g>
</g>
<!-- Node46&#45;&gt;Node47 -->
<g id="edge12" class="edge"><title>Node46&#45;&gt;Node47</title>
<path fill="none" stroke="midnightblue" d="M2505.17,-58.0395C2513.76,-58.0395 2522.48,-58.0395 2531,-58.0395"/>
<polygon fill="midnightblue" stroke="midnightblue" points="2505.15,-54.5396 2495.15,-58.0395 2505.15,-61.5396 2505.15,-54.5396"/>
</g>
<!-- Node49 -->
<g id="node15" class="node"><title>Node49</title>
<g id="a_node15"><a xlink:href="../../dc/ded/a00252.html#a8628d400a8ceda7fea05039ddfea319b" target="_top" xlink:title="Meta&#45;table of syllogistic rules, indexed by the content classes of the taskSentence and the belief...">
<polygon fill="none" stroke="black" points="811,-215.539 811,-234.539 991,-234.539 991,-215.539 811,-215.539"/>
<text text-anchor="middle" x="901" y="-222.539" font-family="Helvetica,sans-Serif" font-size="10.00">nars.inference.RuleTables.syllogisms</text>
</a>
</g>
</g>
<!-- Node48&#45;&gt;Node49 -->
<g id="edge14" class="edge"><title>Node48&#45;&gt;Node49</title>
<path fill="none" stroke="midnightblue" d="M738.961,-172.228C780.985,-186.009 837.064,-204.4 870.746,-215.446"/>
<polygon fill="midnightblue" stroke="midnightblue" points="740.007,-168.887 729.414,-169.097 737.825,-175.539 740.007,-168.887"/>
</g>
<!-- Node49&#45;&gt;Node39 -->
<g id="edge15" class="edge"><title>Node49&#45;&gt;Node39</title>
<path fill="none" stroke="midnightblue" d="M926.364,-210.038C972.334,-181.733 1070.67,-121.184 1108.87,-97.6624"/>
<polygon fill="midnightblue" stroke="midnightblue" points="924.326,-207.182 917.646,-215.406 927.996,-213.143 924.326,-207.182"/>
</g>
<!-- Node51 -->
<g id="node17" class="node"><title>Node51</title>
<g id="a_node17"><a xlink:href="../../dc/ded/a00252.html#a34927349efcf87db97d23c60983b115b" target="_top" xlink:title="Syllogistic rules whose both premises are on the same asymmetric relation. ">
<polygon fill="none" stroke="black" points="590,-210.039 590,-240.039 775,-240.039 775,-210.039 590,-210.039"/>
<text text-anchor="start" x="598" y="-228.039" font-family="Helvetica,sans-Serif" font-size="10.00">nars.inference.RuleTables.asymmetric</text>
<text text-anchor="middle" x="682.5" y="-217.039" font-family="Helvetica,sans-Serif" font-size="10.00">Asymmetric</text>
</a>
</g>
</g>
<!-- Node50&#45;&gt;Node51 -->
<g id="edge17" class="edge"><title>Node50&#45;&gt;Node51</title>
<path fill="none" stroke="midnightblue" d="M541.457,-305.377C545.85,-303.207 550.073,-300.771 554,-298.039 576.185,-282.609 567.648,-264.228 590,-249.039 595.026,-245.624 600.51,-242.695 606.216,-240.182"/>
<polygon fill="midnightblue" stroke="midnightblue" points="539.958,-302.213 532.24,-309.472 542.8,-308.61 539.958,-302.213"/>
</g>
<!-- Node52 -->
<g id="node18" class="node"><title>Node52</title>
<g id="a_node18"><a xlink:href="../../dc/ded/a00252.html#a4f61a7c2dc75c9da475030894eac0735" target="_top" xlink:title="Syllogistic rules whose first premise is on an asymmetric relation, and the second on a symmetric rel...">
<polygon fill="none" stroke="black" points="590,-259.039 590,-289.039 775,-289.039 775,-259.039 590,-259.039"/>
<text text-anchor="start" x="598" y="-277.039" font-family="Helvetica,sans-Serif" font-size="10.00">nars.inference.RuleTables.asymmetric</text>
<text text-anchor="middle" x="682.5" y="-266.039" font-family="Helvetica,sans-Serif" font-size="10.00">Symmetric</text>
</a>
</g>
</g>
<!-- Node50&#45;&gt;Node52 -->
<g id="edge19" class="edge"><title>Node50&#45;&gt;Node52</title>
<path fill="none" stroke="midnightblue" d="M541.937,-305.847C565.912,-300.383 592.229,-294.385 615.486,-289.085"/>
<polygon fill="midnightblue" stroke="midnightblue" points="541.148,-302.437 532.175,-308.072 542.703,-309.262 541.148,-302.437"/>
</g>
<!-- Node53 -->
<g id="node19" class="node"><title>Node53</title>
<g id="a_node19"><a xlink:href="../../dc/ded/a00252.html#ab64fca3ebda3499b831c2b93df736530" target="_top" xlink:title="Syllogistic rules whose both premises are on the same symmetric relation. ">
<polygon fill="none" stroke="black" points="593,-308.039 593,-338.039 772,-338.039 772,-308.039 593,-308.039"/>
<text text-anchor="start" x="601" y="-326.039" font-family="Helvetica,sans-Serif" font-size="10.00">nars.inference.RuleTables.symmetric</text>
<text text-anchor="middle" x="682.5" y="-315.039" font-family="Helvetica,sans-Serif" font-size="10.00">Symmetric</text>
</a>
</g>
</g>
<!-- Node50&#45;&gt;Node53 -->
<g id="edge21" class="edge"><title>Node50&#45;&gt;Node53</title>
<path fill="none" stroke="midnightblue" d="M542.215,-323.039C558.589,-323.039 576.044,-323.039 592.863,-323.039"/>
<polygon fill="midnightblue" stroke="midnightblue" points="542.175,-319.54 532.175,-323.039 542.175,-326.54 542.175,-319.54"/>
</g>
<!-- Node51&#45;&gt;Node49 -->
<g id="edge18" class="edge"><title>Node51&#45;&gt;Node49</title>
<path fill="none" stroke="midnightblue" d="M785.084,-225.039C793.705,-225.039 802.383,-225.039 810.898,-225.039"/>
<polygon fill="midnightblue" stroke="midnightblue" points="785.002,-221.54 775.002,-225.039 785.002,-228.54 785.002,-221.54"/>
</g>
<!-- Node52&#45;&gt;Node49 -->
<g id="edge20" class="edge"><title>Node52&#45;&gt;Node49</title>
<path fill="none" stroke="midnightblue" d="M759.99,-256.728C792.905,-249.278 830.118,-240.856 857.902,-234.567"/>
<polygon fill="midnightblue" stroke="midnightblue" points="758.909,-253.384 749.928,-259.005 760.454,-260.211 758.909,-253.384"/>
</g>
<!-- Node53&#45;&gt;Node49 -->
<g id="edge22" class="edge"><title>Node53&#45;&gt;Node49</title>
<path fill="none" stroke="midnightblue" d="M756.969,-304.811C763.138,-302.725 769.221,-300.467 775,-298.039 817.865,-280.035 864.056,-249.93 886.38,-234.616"/>
<polygon fill="midnightblue" stroke="midnightblue" points="755.68,-301.548 747.235,-307.946 757.826,-308.211 755.68,-301.548"/>
</g>
<!-- Node55 -->
<g id="node21" class="node"><title>Node55</title>
<g id="a_node21"><a xlink:href="../../d6/d08/a00244.html#a53f7edf7bfe7433da42e8fcf36fd6604" target="_top" xlink:title="{&lt;S ==&gt; M&gt;, ">
<polygon fill="none" stroke="black" points="394,-210.039 394,-240.039 537,-240.039 537,-210.039 394,-210.039"/>
<text text-anchor="start" x="402" y="-228.039" font-family="Helvetica,sans-Serif" font-size="10.00">nars.inference.Compositional</text>
<text text-anchor="middle" x="465.5" y="-217.039" font-family="Helvetica,sans-Serif" font-size="10.00">Rules.composeCompound</text>
</a>
</g>
</g>
<!-- Node54&#45;&gt;Node55 -->
<g id="edge24" class="edge"><title>Node54&#45;&gt;Node55</title>
<path fill="none" stroke="midnightblue" d="M328.809,-225.039C349.96,-225.039 372.904,-225.039 393.804,-225.039"/>
<polygon fill="midnightblue" stroke="midnightblue" points="328.588,-221.54 318.587,-225.039 328.587,-228.54 328.588,-221.54"/>
</g>
<!-- Node56 -->
<g id="node22" class="node"><title>Node56</title>
<g id="a_node22"><a xlink:href="../../dc/d50/a00332.html#a00cefbbca224bfc923d56bf917f55578" target="_top" xlink:title="Try to make a new IntersectionExt. ">
<polygon fill="none" stroke="black" points="400,-259.039 400,-289.039 531,-289.039 531,-259.039 400,-259.039"/>
<text text-anchor="start" x="408" y="-277.039" font-family="Helvetica,sans-Serif" font-size="10.00">nars.language.Intersection</text>
<text text-anchor="middle" x="465.5" y="-266.039" font-family="Helvetica,sans-Serif" font-size="10.00">Int.make</text>
</a>
</g>
</g>
<!-- Node54&#45;&gt;Node56 -->
<g id="edge26" class="edge"><title>Node54&#45;&gt;Node56</title>
<path fill="none" stroke="midnightblue" d="M328.452,-242.37C351.823,-247.811 377.415,-253.768 400.035,-259.033"/>
<polygon fill="midnightblue" stroke="midnightblue" points="329.121,-238.932 318.587,-240.074 327.534,-245.75 329.121,-238.932"/>
</g>
<!-- Node57 -->
<g id="node23" class="node"><title>Node57</title>
<g id="a_node23"><a xlink:href="../../d8/d17/a00304.html#a7e26be1958a40da052dbfed62ad4935b" target="_top" xlink:title="Try to make a compound term from an operator and a list of components. ">
<polygon fill="none" stroke="black" points="377,-171.539 377,-190.539 554,-190.539 554,-171.539 377,-171.539"/>
<text text-anchor="middle" x="465.5" y="-178.539" font-family="Helvetica,sans-Serif" font-size="10.00">nars.language.CompoundTerm.make</text>
</a>
</g>
</g>
<!-- Node54&#45;&gt;Node57 -->
<g id="edge27" class="edge"><title>Node54&#45;&gt;Node57</title>
<path fill="none" stroke="midnightblue" d="M328.628,-209.44C358.694,-203.156 392.412,-196.108 418.737,-190.605"/>
<polygon fill="midnightblue" stroke="midnightblue" points="327.66,-206.067 318.587,-211.539 329.092,-212.919 327.66,-206.067"/>
</g>
<!-- Node55&#45;&gt;Node51 -->
<g id="edge25" class="edge"><title>Node55&#45;&gt;Node51</title>
<path fill="none" stroke="midnightblue" d="M547.567,-225.039C561.305,-225.039 575.657,-225.039 589.648,-225.039"/>
<polygon fill="midnightblue" stroke="midnightblue" points="547.197,-221.54 537.197,-225.039 547.197,-228.54 547.197,-221.54"/>
</g>
<!-- Node58&#45;&gt;Node55 -->
<g id="edge29" class="edge"><title>Node58&#45;&gt;Node55</title>
<path fill="none" stroke="midnightblue" d="M328.452,-193.37C351.823,-198.811 377.415,-204.768 400.035,-210.033"/>
<polygon fill="midnightblue" stroke="midnightblue" points="329.121,-189.932 318.587,-191.074 327.534,-196.75 329.121,-189.932"/>
</g>
<!-- Node58&#45;&gt;Node57 -->
<g id="edge31" class="edge"><title>Node58&#45;&gt;Node57</title>
<path fill="none" stroke="midnightblue" d="M328.663,-177.813C344.234,-178.183 360.783,-178.576 376.777,-178.956"/>
<polygon fill="midnightblue" stroke="midnightblue" points="328.668,-174.312 318.587,-177.574 328.502,-181.31 328.668,-174.312"/>
</g>
<!-- Node59 -->
<g id="node25" class="node"><title>Node59</title>
<g id="a_node25"><a xlink:href="../../d4/db5/a00328.html#a834a3550042061ee3bd0ae7456d5fb3d" target="_top" xlink:title="Try to make a new IntersectionExt. ">
<polygon fill="none" stroke="black" points="400,-122.039 400,-152.039 531,-152.039 531,-122.039 400,-122.039"/>
<text text-anchor="start" x="408" y="-140.039" font-family="Helvetica,sans-Serif" font-size="10.00">nars.language.Intersection</text>
<text text-anchor="middle" x="465.5" y="-129.039" font-family="Helvetica,sans-Serif" font-size="10.00">Ext.make</text>
</a>
</g>
</g>
<!-- Node58&#45;&gt;Node59 -->
<g id="edge30" class="edge"><title>Node58&#45;&gt;Node59</title>
<path fill="none" stroke="midnightblue" d="M328.717,-162.196C351.891,-157.903 377.228,-153.209 399.672,-149.05"/>
<polygon fill="midnightblue" stroke="midnightblue" points="327.783,-158.81 318.587,-164.073 329.058,-165.693 327.783,-158.81"/>
</g>
<!-- Node60&#45;&gt;Node39 -->
<g id="edge33" class="edge"><title>Node60&#45;&gt;Node39</title>
<path fill="none" stroke="midnightblue" d="M960.195,-55.5478C996.333,-62.6941 1042.22,-71.769 1076.32,-78.5108"/>
<polygon fill="midnightblue" stroke="midnightblue" points="960.768,-52.0934 950.279,-53.5868 959.41,-58.9604 960.768,-52.0934"/>
</g>
<!-- Node61&#45;&gt;Node40 -->
<g id="edge36" class="edge"><title>Node61&#45;&gt;Node40</title>
<path fill="none" stroke="midnightblue" d="M1197.46,-39.1265C1218.02,-42.3392 1240.23,-45.8093 1259.94,-48.8893"/>
<polygon fill="midnightblue" stroke="midnightblue" points="1197.93,-35.6587 1187.51,-37.5729 1196.85,-42.5748 1197.93,-35.6587"/>
</g>
</g>
</svg>
        <g id="navigator" transform="translate(0 0)" fill="#404254">
                <rect fill="#f2f5e9" fill-opacity="0.5" stroke="#606060" stroke-width=".5" x="0" y="0" width="60" height="60"/>
                <use id="zoomplus" xlink:href="#zoomPlus" x="17" y="9" onmousedown="handleZoom(evt,'in')"/>
                <use id="zoomminus" xlink:href="#zoomMin" x="42" y="9" onmousedown="handleZoom(evt,'out')"/>
                <use id="reset" xlink:href="#resetDef" x="30" y="36" onmousedown="handleReset()"/>
                <g id="arrowUp" xlink:href="#dirArrow" transform="translate(30 24)" onmousedown="handlePan(0,-1)">
                  <use xlink:href="#rim" fill="#404040">
                        <set attributeName="fill" to="#808080" begin="arrowUp.mouseover" end="arrowUp.mouseout"/>
                  </use>
                  <path fill="none" stroke="white" stroke-width="1.5" d="M0,-3.0v7 M-2.5,-0.5L0,-3.0L2.5,-0.5"/>
                </g>
                <g id="arrowRight" xlink:href="#dirArrow" transform="rotate(90) translate(36 -43)" onmousedown="handlePan(1,0)">
                  <use xlink:href="#rim" fill="#404040">
                        <set attributeName="fill" to="#808080" begin="arrowRight.mouseover" end="arrowRight.mouseout"/>
                  </use>
                  <path fill="none" stroke="white" stroke-width="1.5" d="M0,-3.0v7 M-2.5,-0.5L0,-3.0L2.5,-0.5"/>
                </g>
                <g id="arrowDown" xlink:href="#dirArrow" transform="rotate(180) translate(-30 -48)" onmousedown="handlePan(0,1)">
                  <use xlink:href="#rim" fill="#404040">
                        <set attributeName="fill" to="#808080" begin="arrowDown.mouseover" end="arrowDown.mouseout"/>
                  </use>
                  <path fill="none" stroke="white" stroke-width="1.5" d="M0,-3.0v7 M-2.5,-0.5L0,-3.0L2.5,-0.5"/>
                </g>
                <g id="arrowLeft" xlink:href="#dirArrow" transform="rotate(270) translate(-36 17)" onmousedown="handlePan(-1,0)">
                  <use xlink:href="#rim" fill="#404040">
                        <set attributeName="fill" to="#808080" begin="arrowLeft.mouseover" end="arrowLeft.mouseout"/>
                  </use>
                  <path fill="none" stroke="white" stroke-width="1.5" d="M0,-3.0v7 M-2.5,-0.5L0,-3.0L2.5,-0.5"/>
                </g>
        </g>
        <svg viewBox="0 0 15 15" width="100%" height="30px" preserveAspectRatio="xMaxYMin meet">
         <g id="arrow_out" transform="scale(0.3 0.3)">
          <a xlink:href="a00364_ae2dba162b71bb9b806f54832249a260c_icgraph_org.svg" target="_base">
           <rect id="button" ry="5" rx="5" y="6" x="6" height="38" width="38"
                fill="#f2f5e9" fill-opacity="0.5" stroke="#606060" stroke-width="1.0"/>
           <path id="arrow"
             d="M 11.500037,31.436501 C 11.940474,20.09759 22.043105,11.32322 32.158766,21.979434 L 37.068811,17.246167 C 37.068811,17.246167 37.088388,32 37.088388,32 L 22.160133,31.978069 C 22.160133,31.978069 26.997745,27.140456 26.997745,27.140456 C 18.528582,18.264221 13.291696,25.230495 11.500037,31.436501 z"
             style="fill:#404040;"/>
          </a>
         </g>
        </svg>
</svg>
