<?xml version="1.0" encoding="UTF-8" standalone="no"?>
<!DOCTYPE svg PUBLIC "-//W3C//DTD SVG 1.1//EN"
 "http://www.w3.org/Graphics/SVG/1.1/DTD/svg11.dtd">
<!-- Generated by graphviz version 2.38.0 (20140413.2041)
 -->
<!-- Title: nars.language.SetInt.makeName Pages: 1 -->
<svg width="381pt" height="88pt"
 viewBox="0.00 0.00 381.00 88.00" xmlns="http://www.w3.org/2000/svg" xmlns:xlink="http://www.w3.org/1999/xlink">
<g id="graph0" class="graph" transform="scale(1 1) rotate(0) translate(4 84)">
<title>nars.language.SetInt.makeName</title>
<!-- Node86 -->
<g id="node1" class="node"><title>Node86</title>
<polygon fill="#bfbfbf" stroke="black" points="0,-30 0,-49 160,-49 160,-30 0,-30"/>
<text text-anchor="middle" x="80" y="-37" font-family="Helvetica,sans-Serif" font-size="10.00">nars.language.SetInt.makeName</text>
</g>
<!-- Node87 -->
<g id="node2" class="node"><title>Node87</title>
<g id="a_node2"><a xlink:href="../../d8/d17/a00304.html#a9778c35f9b602bee6ccac6a06809e546" target="_top" xlink:title="list of (direct) components ">
<polygon fill="none" stroke="black" points="201,-49.5 201,-79.5 368,-79.5 368,-49.5 201,-49.5"/>
<text text-anchor="start" x="209" y="-67.5" font-family="Helvetica,sans-Serif" font-size="10.00">nars.language.CompoundTerm.get</text>
<text text-anchor="middle" x="284.5" y="-56.5" font-family="Helvetica,sans-Serif" font-size="10.00">Components</text>
</a>
</g>
</g>
<!-- Node86&#45;&gt;Node87 -->
<g id="edge1" class="edge"><title>Node86&#45;&gt;Node87</title>
<path fill="none" stroke="midnightblue" d="M158.134,-49.0227C168.831,-50.3433 179.909,-51.711 190.852,-53.062"/>
<polygon fill="midnightblue" stroke="midnightblue" points="190.496,-56.5445 200.849,-54.2962 191.353,-49.5972 190.496,-56.5445"/>
</g>
<!-- Node88 -->
<g id="node3" class="node"><title>Node88</title>
<g id="a_node3"><a xlink:href="../../d8/d17/a00304.html#a97f8c7c396de480e7a650b0afe4829a4" target="_top" xlink:title="make the oldName of an ExtensionSet or IntensionSet ">
<polygon fill="none" stroke="black" points="196,-0.5 196,-30.5 373,-30.5 373,-0.5 196,-0.5"/>
<text text-anchor="start" x="204" y="-18.5" font-family="Helvetica,sans-Serif" font-size="10.00">nars.language.CompoundTerm.make</text>
<text text-anchor="middle" x="284.5" y="-7.5" font-family="Helvetica,sans-Serif" font-size="10.00">SetName</text>
</a>
</g>
</g>
<!-- Node86&#45;&gt;Node88 -->
<g id="edge2" class="edge"><title>Node86&#45;&gt;Node88</title>
<path fill="none" stroke="midnightblue" d="M160.162,-30.1179C168.533,-29.1257 177.117,-28.1084 185.668,-27.0949"/>
<polygon fill="midnightblue" stroke="midnightblue" points="186.158,-30.5615 195.676,-25.9088 185.334,-23.6101 186.158,-30.5615"/>
</g>
</g>
</svg>
