<?xml version="1.0" encoding="UTF-8" standalone="no"?>
<!DOCTYPE svg PUBLIC "-//W3C//DTD SVG 1.1//EN"
 "http://www.w3.org/Graphics/SVG/1.1/DTD/svg11.dtd">
<!-- Generated by graphviz version 2.38.0 (20140413.2041)
 -->
<!-- Title: nars.language.SetInt.make Pages: 1 -->
<!--zoomable 127 -->
<svg id="main" version="1.1" xmlns="http://www.w3.org/2000/svg" xmlns:xlink="http://www.w3.org/1999/xlink" xml:space="preserve" onload="init(evt)">
<style type="text/css"><![CDATA[
.edge:hover path { stroke: red; }
.edge:hover polygon { stroke: red; fill: red; }
]]></style>
<script type="text/javascript"><![CDATA[
var edges = document.getElementsByTagName('g');
if (edges && edges.length) {
  for (var i=0;i<edges.length;i++) {
    if (edges[i].id.substr(0,4)=='edge') {
      edges[i].setAttribute('class','edge');
    }
  }
}
]]></script>
        <defs>
                <circle id="rim" cx="0" cy="0" r="7"/>
                <circle id="rim2" cx="0" cy="0" r="3.5"/>
                <g id="zoomPlus">
                        <use xlink:href="#rim" fill="#404040">
                                <set attributeName="fill" to="#808080" begin="zoomplus.mouseover" end="zoomplus.mouseout"/>
                        </use>
                        <path d="M-4,0h8M0,-4v8" fill="none" stroke="white" stroke-width="1.5" pointer-events="none"/>
                </g>
                <g id="zoomMin">
                        <use xlink:href="#rim" fill="#404040">
                                <set attributeName="fill" to="#808080" begin="zoomminus.mouseover" end="zoomminus.mouseout"/>
                        </use>
                        <path d="M-4,0h8" fill="none" stroke="white" stroke-width="1.5" pointer-events="none"/>
                </g>
                <g id="dirArrow">
                        <path fill="none" stroke="white" stroke-width="1.5" d="M0,-3.0v7 M-2.5,-0.5L0,-3.0L2.5,-0.5"/>
                </g>
               <g id="resetDef">
                       <use xlink:href="#rim2" fill="#404040">
                               <set attributeName="fill" to="#808080" begin="reset.mouseover" end="reset.mouseout"/>
                       </use>
               </g>
        </defs>

<script type="text/javascript">
var viewWidth = 558;
var viewHeight = 127;
var sectionId = 'dynsection-6';
</script>
<script xlink:href="../../svgpan.js"/>
<svg id="graph" class="graph">
<g id="viewport">
<title>nars.language.SetInt.make</title>
<!-- Node78 -->
<g id="node1" class="node"><title>Node78</title>
<polygon fill="#bfbfbf" stroke="black" points="5.68434e-14,-44.5 5.68434e-14,-63.5 134,-63.5 134,-44.5 5.68434e-14,-44.5"/>
<text text-anchor="middle" x="67" y="-51.5" font-family="Helvetica,sans-Serif" font-size="10.00">nars.language.SetInt.make</text>
</g>
<!-- Node79 -->
<g id="node2" class="node"><title>Node79</title>
<g id="a_node2"><a xlink:href="../../d8/d17/a00304.html#a97f8c7c396de480e7a650b0afe4829a4" target="_top" xlink:title="make the oldName of an ExtensionSet or IntensionSet ">
<polygon fill="none" stroke="black" points="170,-88 170,-118 347,-118 347,-88 170,-88"/>
<text text-anchor="start" x="178" y="-106" font-family="Helvetica,sans-Serif" font-size="10.00">nars.language.CompoundTerm.make</text>
<text text-anchor="middle" x="258.5" y="-95" font-family="Helvetica,sans-Serif" font-size="10.00">SetName</text>
</a>
</g>
</g>
<!-- Node78&#45;&gt;Node79 -->
<g id="edge1" class="edge"><title>Node78&#45;&gt;Node79</title>
<path fill="none" stroke="midnightblue" d="M104.987,-63.564C128.979,-69.7676 160.96,-78.0371 189.438,-85.401"/>
<polygon fill="midnightblue" stroke="midnightblue" points="188.789,-88.8481 199.347,-87.963 190.541,-82.071 188.789,-88.8481"/>
</g>
<!-- Node80 -->
<g id="node3" class="node"><title>Node80</title>
<g id="a_node3"><a xlink:href="../../d4/d27/a00392.html#ac7c5d438820208253d1a2ee59bf80ddc" target="_top" xlink:title="Get a Term for a given name of a Concept or Operator. ">
<polygon fill="none" stroke="black" points="190.5,-39 190.5,-69 326.5,-69 326.5,-39 190.5,-39"/>
<text text-anchor="start" x="198.5" y="-57" font-family="Helvetica,sans-Serif" font-size="10.00">nars.storage.Memory.name</text>
<text text-anchor="middle" x="258.5" y="-46" font-family="Helvetica,sans-Serif" font-size="10.00">ToListedTerm</text>
</a>
</g>
</g>
<!-- Node78&#45;&gt;Node80 -->
<g id="edge2" class="edge"><title>Node78&#45;&gt;Node80</title>
<path fill="none" stroke="midnightblue" d="M134.012,-54C148.995,-54 165.038,-54 180.434,-54"/>
<polygon fill="midnightblue" stroke="midnightblue" points="180.441,-57.5001 190.441,-54 180.441,-50.5001 180.441,-57.5001"/>
</g>
<!-- Node84 -->
<g id="node7" class="node"><title>Node84</title>
<g id="a_node7"><a xlink:href="../../d6/d9c/a00352.html#a92f205fbfd06f0744128155b3f39a3c5" target="_top" xlink:title="Constructor with partial values, called by make. ">
<polygon fill="none" stroke="black" points="190.5,-0.5 190.5,-19.5 326.5,-19.5 326.5,-0.5 190.5,-0.5"/>
<text text-anchor="middle" x="258.5" y="-7.5" font-family="Helvetica,sans-Serif" font-size="10.00">nars.language.SetInt.SetInt</text>
</a>
</g>
</g>
<!-- Node78&#45;&gt;Node84 -->
<g id="edge6" class="edge"><title>Node78&#45;&gt;Node84</title>
<path fill="none" stroke="midnightblue" d="M106.207,-44.3808C125.334,-39.6303 148.86,-33.8849 170,-29 180.552,-26.5616 191.842,-24.0431 202.686,-21.6688"/>
<polygon fill="midnightblue" stroke="midnightblue" points="203.459,-25.0825 212.486,-19.5352 201.97,-18.2428 203.459,-25.0825"/>
</g>
<!-- Node81 -->
<g id="node4" class="node"><title>Node81</title>
<g id="a_node4"><a xlink:href="../../d4/d27/a00392.html#a33af7b3d806d32c85390563fec3c6d27" target="_top" xlink:title="Concept bag. ">
<polygon fill="none" stroke="black" points="383,-82.5 383,-101.5 550,-101.5 550,-82.5 383,-82.5"/>
<text text-anchor="middle" x="466.5" y="-89.5" font-family="Helvetica,sans-Serif" font-size="10.00">nars.storage.Memory.getConcepts</text>
</a>
</g>
</g>
<!-- Node80&#45;&gt;Node81 -->
<g id="edge3" class="edge"><title>Node80&#45;&gt;Node81</title>
<path fill="none" stroke="midnightblue" d="M326.667,-66.39C351.537,-70.9777 379.591,-76.1526 403.937,-80.6438"/>
<polygon fill="midnightblue" stroke="midnightblue" points="403.302,-84.0856 413.771,-82.4578 404.572,-77.2018 403.302,-84.0856"/>
</g>
<!-- Node82 -->
<g id="node5" class="node"><title>Node82</title>
<g id="a_node5"><a xlink:href="../../d6/db8/a00376.html#a011b37fc683db7fb7b41e33712a37d92" target="_top" xlink:title="Get an Item by key. ">
<polygon fill="none" stroke="black" points="413,-44.5 413,-63.5 520,-63.5 520,-44.5 413,-44.5"/>
<text text-anchor="middle" x="466.5" y="-51.5" font-family="Helvetica,sans-Serif" font-size="10.00">nars.storage.Bag.get</text>
</a>
</g>
</g>
<!-- Node80&#45;&gt;Node82 -->
<g id="edge4" class="edge"><title>Node80&#45;&gt;Node82</title>
<path fill="none" stroke="midnightblue" d="M326.667,-54C351.118,-54 378.647,-54 402.704,-54"/>
<polygon fill="midnightblue" stroke="midnightblue" points="402.783,-57.5001 412.783,-54 402.783,-50.5001 402.783,-57.5001"/>
</g>
<!-- Node83 -->
<g id="node6" class="node"><title>Node83</title>
<g id="a_node6"><a xlink:href="../../d7/ded/a00196.html#afcd1217b7680b073fa51f0d0f159dcea" target="_top" xlink:title="The term is the unique ID of the concept. ">
<polygon fill="none" stroke="black" points="396,-6.5 396,-25.5 537,-25.5 537,-6.5 396,-6.5"/>
<text text-anchor="middle" x="466.5" y="-13.5" font-family="Helvetica,sans-Serif" font-size="10.00">nars.entity.Concept.getTerm</text>
</a>
</g>
</g>
<!-- Node80&#45;&gt;Node83 -->
<g id="edge5" class="edge"><title>Node80&#45;&gt;Node83</title>
<path fill="none" stroke="midnightblue" d="M326.667,-41.61C351.537,-37.0223 379.591,-31.8474 403.937,-27.3562"/>
<polygon fill="midnightblue" stroke="midnightblue" points="404.572,-30.7982 413.771,-25.5422 403.302,-23.9144 404.572,-30.7982"/>
</g>
</g>
</svg>
        <g id="navigator" transform="translate(0 0)" fill="#404254">
                <rect fill="#f2f5e9" fill-opacity="0.5" stroke="#606060" stroke-width=".5" x="0" y="0" width="60" height="60"/>
                <use id="zoomplus" xlink:href="#zoomPlus" x="17" y="9" onmousedown="handleZoom(evt,'in')"/>
                <use id="zoomminus" xlink:href="#zoomMin" x="42" y="9" onmousedown="handleZoom(evt,'out')"/>
                <use id="reset" xlink:href="#resetDef" x="30" y="36" onmousedown="handleReset()"/>
                <g id="arrowUp" xlink:href="#dirArrow" transform="translate(30 24)" onmousedown="handlePan(0,-1)">
                  <use xlink:href="#rim" fill="#404040">
                        <set attributeName="fill" to="#808080" begin="arrowUp.mouseover" end="arrowUp.mouseout"/>
                  </use>
                  <path fill="none" stroke="white" stroke-width="1.5" d="M0,-3.0v7 M-2.5,-0.5L0,-3.0L2.5,-0.5"/>
                </g>
                <g id="arrowRight" xlink:href="#dirArrow" transform="rotate(90) translate(36 -43)" onmousedown="handlePan(1,0)">
                  <use xlink:href="#rim" fill="#404040">
                        <set attributeName="fill" to="#808080" begin="arrowRight.mouseover" end="arrowRight.mouseout"/>
                  </use>
                  <path fill="none" stroke="white" stroke-width="1.5" d="M0,-3.0v7 M-2.5,-0.5L0,-3.0L2.5,-0.5"/>
                </g>
                <g id="arrowDown" xlink:href="#dirArrow" transform="rotate(180) translate(-30 -48)" onmousedown="handlePan(0,1)">
                  <use xlink:href="#rim" fill="#404040">
                        <set attributeName="fill" to="#808080" begin="arrowDown.mouseover" end="arrowDown.mouseout"/>
                  </use>
                  <path fill="none" stroke="white" stroke-width="1.5" d="M0,-3.0v7 M-2.5,-0.5L0,-3.0L2.5,-0.5"/>
                </g>
                <g id="arrowLeft" xlink:href="#dirArrow" transform="rotate(270) translate(-36 17)" onmousedown="handlePan(-1,0)">
                  <use xlink:href="#rim" fill="#404040">
                        <set attributeName="fill" to="#808080" begin="arrowLeft.mouseover" end="arrowLeft.mouseout"/>
                  </use>
                  <path fill="none" stroke="white" stroke-width="1.5" d="M0,-3.0v7 M-2.5,-0.5L0,-3.0L2.5,-0.5"/>
                </g>
        </g>
        <svg viewBox="0 0 15 15" width="100%" height="30px" preserveAspectRatio="xMaxYMin meet">
         <g id="arrow_out" transform="scale(0.3 0.3)">
          <a xlink:href="a00352_aa773636e50f9537c648c530c6298c5b6_cgraph_org.svg" target="_base">
           <rect id="button" ry="5" rx="5" y="6" x="6" height="38" width="38"
                fill="#f2f5e9" fill-opacity="0.5" stroke="#606060" stroke-width="1.0"/>
           <path id="arrow"
             d="M 11.500037,31.436501 C 11.940474,20.09759 22.043105,11.32322 32.158766,21.979434 L 37.068811,17.246167 C 37.068811,17.246167 37.088388,32 37.088388,32 L 22.160133,31.978069 C 22.160133,31.978069 26.997745,27.140456 26.997745,27.140456 C 18.528582,18.264221 13.291696,25.230495 11.500037,31.436501 z"
             style="fill:#404040;"/>
          </a>
         </g>
        </svg>
</svg>
