<?xml version="1.0" encoding="UTF-8" standalone="no"?>
<!DOCTYPE svg PUBLIC "-//W3C//DTD SVG 1.1//EN"
 "http://www.w3.org/Graphics/SVG/1.1/DTD/svg11.dtd">
<!-- Generated by graphviz version 2.38.0 (20140413.2041)
 -->
<!-- Title: nars.language.CompoundTerm Pages: 1 -->
<svg width="425pt" height="162pt"
 viewBox="0.00 0.00 425.00 162.00" xmlns="http://www.w3.org/2000/svg" xmlns:xlink="http://www.w3.org/1999/xlink">
<g id="graph0" class="graph" transform="scale(1 1) rotate(0) translate(4 158)">
<title>nars.language.CompoundTerm</title>
<!-- Node19 -->
<g id="node1" class="node"><title>Node19</title>
<polygon fill="#bfbfbf" stroke="black" points="179,-0.5 179,-19.5 329,-19.5 329,-0.5 179,-0.5"/>
<text text-anchor="middle" x="254" y="-7.5" font-family="Helvetica,sans-Serif" font-size="10.00">nars.language.CompoundTerm</text>
</g>
<!-- Node20 -->
<g id="node2" class="node"><title>Node20</title>
<g id="a_node2"><a xlink:href="../../dc/d59/a00364.html" target="_top" xlink:title="Term is the basic component of Narsese, and the object of processing in NARS. ">
<polygon fill="none" stroke="black" points="98.5,-67.5 98.5,-86.5 201.5,-86.5 201.5,-67.5 98.5,-67.5"/>
<text text-anchor="middle" x="150" y="-74.5" font-family="Helvetica,sans-Serif" font-size="10.00">nars.language.Term</text>
</a>
</g>
</g>
<!-- Node20&#45;&gt;Node19 -->
<g id="edge1" class="edge"><title>Node20&#45;&gt;Node19</title>
<path fill="none" stroke="midnightblue" d="M172.77,-61.7687C193.356,-48.9026 222.994,-30.379 240.196,-19.6273"/>
<polygon fill="midnightblue" stroke="midnightblue" points="170.651,-58.9658 164.026,-67.2338 174.361,-64.9018 170.651,-58.9658"/>
</g>
<!-- Node21 -->
<g id="node3" class="node"><title>Node21</title>
<polygon fill="none" stroke="#bfbfbf" points="0,-134.5 0,-153.5 60,-153.5 60,-134.5 0,-134.5"/>
<text text-anchor="middle" x="30" y="-141.5" font-family="Helvetica,sans-Serif" font-size="10.00">Cloneable</text>
</g>
<!-- Node21&#45;&gt;Node20 -->
<g id="edge2" class="edge"><title>Node21&#45;&gt;Node20</title>
<path fill="none" stroke="midnightblue" d="M54.9995,-129.459C78.7889,-116.573 113.866,-97.5727 134.073,-86.6273"/>
<polygon fill="midnightblue" stroke="midnightblue" points="53.3097,-126.393 46.1837,-134.234 56.6437,-132.548 53.3097,-126.393"/>
</g>
<!-- Node22 -->
<g id="node4" class="node"><title>Node22</title>
<polygon fill="none" stroke="#bfbfbf" points="78,-134.5 78,-153.5 188,-153.5 188,-134.5 78,-134.5"/>
<text text-anchor="middle" x="133" y="-141.5" font-family="Helvetica,sans-Serif" font-size="10.00">Comparable&lt; Term &gt;</text>
</g>
<!-- Node22&#45;&gt;Node20 -->
<g id="edge3" class="edge"><title>Node22&#45;&gt;Node20</title>
<path fill="none" stroke="midnightblue" d="M137.861,-124.415C141.111,-111.988 145.236,-96.2166 147.744,-86.6273"/>
<polygon fill="midnightblue" stroke="midnightblue" points="134.437,-123.674 135.293,-134.234 141.209,-125.445 134.437,-123.674"/>
</g>
<!-- Node23 -->
<g id="node5" class="node"><title>Node23</title>
<polygon fill="none" stroke="#bfbfbf" points="206.5,-134.5 206.5,-153.5 271.5,-153.5 271.5,-134.5 206.5,-134.5"/>
<text text-anchor="middle" x="239" y="-141.5" font-family="Helvetica,sans-Serif" font-size="10.00">TermStruct</text>
</g>
<!-- Node23&#45;&gt;Node20 -->
<g id="edge4" class="edge"><title>Node23&#45;&gt;Node20</title>
<path fill="none" stroke="midnightblue" d="M218.554,-128.068C200.987,-115.238 176.269,-97.1853 161.813,-86.6273"/>
<polygon fill="midnightblue" stroke="midnightblue" points="216.857,-131.162 226.997,-134.234 220.986,-125.509 216.857,-131.162"/>
</g>
<!-- Node24 -->
<g id="node6" class="node"><title>Node24</title>
<polygon fill="none" stroke="#bfbfbf" points="228.5,-67.5 228.5,-86.5 365.5,-86.5 365.5,-67.5 228.5,-67.5"/>
<text text-anchor="middle" x="297" y="-74.5" font-family="Helvetica,sans-Serif" font-size="10.00">List&lt; nars.language.Term &gt;</text>
</g>
<!-- Node24&#45;&gt;Node19 -->
<g id="edge5" class="edge"><title>Node24&#45;&gt;Node19</title>
<path fill="none" stroke="#9a32cd" stroke-dasharray="5,2" d="M285.446,-58.5347C277.121,-45.9499 266.243,-29.5072 259.707,-19.6273"/>
<polygon fill="#9a32cd" stroke="#9a32cd" points="282.764,-60.8247 291.201,-67.2338 288.603,-56.9625 282.764,-60.8247"/>
<text text-anchor="middle" x="307.5" y="-41" font-family="Helvetica,sans-Serif" font-size="10.00"> components</text>
</g>
<!-- Node25 -->
<g id="node7" class="node"><title>Node25</title>
<polygon fill="none" stroke="#bfbfbf" points="290,-134.5 290,-153.5 322,-153.5 322,-134.5 290,-134.5"/>
<text text-anchor="middle" x="306" y="-141.5" font-family="Helvetica,sans-Serif" font-size="10.00">List</text>
</g>
<!-- Node25&#45;&gt;Node24 -->
<g id="edge6" class="edge"><title>Node25&#45;&gt;Node24</title>
<path fill="none" stroke="orange" stroke-dasharray="5,2" d="M303.374,-124.037C301.662,-111.67 299.509,-96.1198 298.195,-86.6273"/>
<polygon fill="orange" stroke="orange" points="299.948,-124.808 304.786,-134.234 306.882,-123.848 299.948,-124.808"/>
<text text-anchor="middle" x="360" y="-108" font-family="Helvetica,sans-Serif" font-size="10.00"> &lt; nars::language::Term &gt;</text>
</g>
</g>
</svg>
