<?xml version="1.0" encoding="UTF-8" standalone="no"?>
<!DOCTYPE svg PUBLIC "-//W3C//DTD SVG 1.1//EN"
 "http://www.w3.org/Graphics/SVG/1.1/DTD/svg11.dtd">
<!-- Generated by graphviz version 2.38.0 (20140413.2041)
 -->
<!-- Title: nars.storage.Bag&lt; Type extends Item &gt; Pages: 1 -->
<svg width="797pt" height="142pt"
 viewBox="0.00 0.00 797.00 142.00" xmlns="http://www.w3.org/2000/svg" xmlns:xlink="http://www.w3.org/1999/xlink">
<g id="graph0" class="graph" transform="scale(1 1) rotate(0) translate(4 138)">
<title>nars.storage.Bag&lt; Type extends Item &gt;</title>
<!-- Node0 -->
<g id="node1" class="node"><title>Node0</title>
<polygon fill="#bfbfbf" stroke="black" points="245,-51 245,-81 367,-81 367,-51 245,-51"/>
<text text-anchor="start" x="253" y="-69" font-family="Helvetica,sans-Serif" font-size="10.00">nars.storage.Bag&lt; Type</text>
<text text-anchor="middle" x="306" y="-58" font-family="Helvetica,sans-Serif" font-size="10.00"> extends Item &gt;</text>
</g>
<!-- Node3 -->
<g id="node4" class="node"><title>Node3</title>
<g id="a_node4"><a xlink:href="../../d6/db8/a00376.html" target="_top" xlink:title="nars.storage.Bag\&lt; TaskLink \&gt;">
<polygon fill="none" stroke="black" points="465,-114.5 465,-133.5 614,-133.5 614,-114.5 465,-114.5"/>
<text text-anchor="middle" x="539.5" y="-121.5" font-family="Helvetica,sans-Serif" font-size="10.00">nars.storage.Bag&lt; TaskLink &gt;</text>
</a>
</g>
</g>
<!-- Node0&#45;&gt;Node3 -->
<g id="edge3" class="edge"><title>Node0&#45;&gt;Node3</title>
<path fill="none" stroke="orange" stroke-dasharray="5,2" d="M358.873,-84.223C367.545,-87.0008 376.489,-89.7028 385,-92 417.983,-100.903 455.518,-108.767 485.215,-114.472"/>
<polygon fill="orange" stroke="orange" points="359.826,-80.8525 349.234,-81.0721 357.651,-87.506 359.826,-80.8525"/>
<text text-anchor="middle" x="416" y="-109" font-family="Helvetica,sans-Serif" font-size="10.00"> &lt; TaskLink &gt;</text>
</g>
<!-- Node5 -->
<g id="node6" class="node"><title>Node5</title>
<g id="a_node6"><a xlink:href="../../d6/db8/a00376.html" target="_top" xlink:title="nars.storage.Bag\&lt; Task \&gt;">
<polygon fill="none" stroke="black" points="474,-76.5 474,-95.5 605,-95.5 605,-76.5 474,-76.5"/>
<text text-anchor="middle" x="539.5" y="-83.5" font-family="Helvetica,sans-Serif" font-size="10.00">nars.storage.Bag&lt; Task &gt;</text>
</a>
</g>
</g>
<!-- Node0&#45;&gt;Node5 -->
<g id="edge5" class="edge"><title>Node0&#45;&gt;Node5</title>
<path fill="none" stroke="orange" stroke-dasharray="5,2" d="M377.403,-72.0824C408.048,-74.7299 443.729,-77.8125 473.711,-80.4027"/>
<polygon fill="orange" stroke="orange" points="377.484,-68.5764 367.22,-71.2026 376.881,-75.5504 377.484,-68.5764"/>
<text text-anchor="middle" x="416" y="-80" font-family="Helvetica,sans-Serif" font-size="10.00"> &lt; Task &gt;</text>
</g>
<!-- Node7 -->
<g id="node8" class="node"><title>Node7</title>
<g id="a_node8"><a xlink:href="../../d6/db8/a00376.html" target="_top" xlink:title="nars.storage.Bag\&lt; TermLink \&gt;">
<polygon fill="none" stroke="black" points="465,-38.5 465,-57.5 614,-57.5 614,-38.5 465,-38.5"/>
<text text-anchor="middle" x="539.5" y="-45.5" font-family="Helvetica,sans-Serif" font-size="10.00">nars.storage.Bag&lt; TermLink &gt;</text>
</a>
</g>
</g>
<!-- Node0&#45;&gt;Node7 -->
<g id="edge7" class="edge"><title>Node0&#45;&gt;Node7</title>
<path fill="none" stroke="orange" stroke-dasharray="5,2" d="M377.352,-52.8702C379.929,-52.5492 382.485,-52.257 385,-52 410.99,-49.3444 439.576,-48.1358 464.962,-47.6555"/>
<polygon fill="orange" stroke="orange" points="376.774,-49.4166 367.34,-54.2382 377.721,-56.3522 376.774,-49.4166"/>
<text text-anchor="middle" x="416" y="-55" font-family="Helvetica,sans-Serif" font-size="10.00"> &lt; TermLink &gt;</text>
</g>
<!-- Node9 -->
<g id="node10" class="node"><title>Node9</title>
<g id="a_node10"><a xlink:href="../../d6/db8/a00376.html" target="_top" xlink:title="nars.storage.Bag\&lt; Concept \&gt;">
<polygon fill="none" stroke="black" points="466.5,-0.5 466.5,-19.5 612.5,-19.5 612.5,-0.5 466.5,-0.5"/>
<text text-anchor="middle" x="539.5" y="-7.5" font-family="Helvetica,sans-Serif" font-size="10.00">nars.storage.Bag&lt; Concept &gt;</text>
</a>
</g>
</g>
<!-- Node0&#45;&gt;Node9 -->
<g id="edge9" class="edge"><title>Node0&#45;&gt;Node9</title>
<path fill="none" stroke="orange" stroke-dasharray="5,2" d="M348.492,-46.8744C360.113,-42.0993 372.884,-37.3819 385,-34 411.11,-26.7118 440.376,-21.4472 466.297,-17.7405"/>
<polygon fill="orange" stroke="orange" points="346.888,-43.7528 339.04,-50.8711 349.614,-50.2001 346.888,-43.7528"/>
<text text-anchor="middle" x="416" y="-37" font-family="Helvetica,sans-Serif" font-size="10.00"> &lt; Concept &gt;</text>
</g>
<!-- Node1 -->
<g id="node2" class="node"><title>Node1</title>
<g id="a_node2"><a xlink:href="../../dc/d31/a00208.html" target="_top" xlink:title="An item is an object that can be put into a Bag, to participate in the resource competition of the sy...">
<polygon fill="none" stroke="black" points="99,-56.5 99,-75.5 184,-75.5 184,-56.5 99,-56.5"/>
<text text-anchor="middle" x="141.5" y="-63.5" font-family="Helvetica,sans-Serif" font-size="10.00">nars.entity.Item</text>
</a>
</g>
</g>
<!-- Node1&#45;&gt;Node0 -->
<g id="edge1" class="edge"><title>Node1&#45;&gt;Node0</title>
<path fill="none" stroke="orange" stroke-dasharray="5,2" d="M194.598,-66C210.626,-66 228.398,-66 244.917,-66"/>
<polygon fill="orange" stroke="orange" points="194.348,-62.5001 184.348,-66 194.348,-69.5001 194.348,-62.5001"/>
<text text-anchor="middle" x="214.5" y="-69" font-family="Helvetica,sans-Serif" font-size="10.00"> Type</text>
</g>
<!-- Node2 -->
<g id="node3" class="node"><title>Node2</title>
<polygon fill="none" stroke="#bfbfbf" points="0,-56.5 0,-75.5 62,-75.5 62,-56.5 0,-56.5"/>
<text text-anchor="middle" x="31" y="-63.5" font-family="Helvetica,sans-Serif" font-size="10.00">ItemStruct</text>
</g>
<!-- Node2&#45;&gt;Node1 -->
<g id="edge2" class="edge"><title>Node2&#45;&gt;Node1</title>
<path fill="none" stroke="midnightblue" d="M72.3836,-66C80.9669,-66 90.0465,-66 98.682,-66"/>
<polygon fill="midnightblue" stroke="midnightblue" points="72.2233,-62.5001 62.2233,-66 72.2233,-69.5001 72.2233,-62.5001"/>
</g>
<!-- Node4 -->
<g id="node5" class="node"><title>Node4</title>
<g id="a_node5"><a xlink:href="../../dc/df3/a00424.html" target="_top" xlink:title="TaskLinkBag contains links to tasks. ">
<polygon fill="none" stroke="black" points="654.5,-114.5 654.5,-133.5 785.5,-133.5 785.5,-114.5 654.5,-114.5"/>
<text text-anchor="middle" x="720" y="-121.5" font-family="Helvetica,sans-Serif" font-size="10.00">nars.storage.TaskLinkBag</text>
</a>
</g>
</g>
<!-- Node3&#45;&gt;Node4 -->
<g id="edge4" class="edge"><title>Node3&#45;&gt;Node4</title>
<path fill="none" stroke="midnightblue" d="M624.216,-124C634.349,-124 644.579,-124 654.378,-124"/>
<polygon fill="midnightblue" stroke="midnightblue" points="624.133,-120.5 614.133,-124 624.133,-127.5 624.133,-120.5"/>
</g>
<!-- Node6 -->
<g id="node7" class="node"><title>Node6</title>
<g id="a_node7"><a xlink:href="../../d9/d95/a00400.html" target="_top" xlink:title="New tasks that contain new Term. ">
<polygon fill="none" stroke="black" points="651,-76.5 651,-95.5 789,-95.5 789,-76.5 651,-76.5"/>
<text text-anchor="middle" x="720" y="-83.5" font-family="Helvetica,sans-Serif" font-size="10.00">nars.storage.NovelTaskBag</text>
</a>
</g>
</g>
<!-- Node5&#45;&gt;Node6 -->
<g id="edge6" class="edge"><title>Node5&#45;&gt;Node6</title>
<path fill="none" stroke="midnightblue" d="M615.43,-86C627.2,-86 639.312,-86 650.918,-86"/>
<polygon fill="midnightblue" stroke="midnightblue" points="615.195,-82.5001 605.195,-86 615.195,-89.5001 615.195,-82.5001"/>
</g>
<!-- Node8 -->
<g id="node9" class="node"><title>Node8</title>
<g id="a_node9"><a xlink:href="../../d4/dd3/a00428.html" target="_top" xlink:title="Contains TermLinks to relevant (compound or component) Terms. ">
<polygon fill="none" stroke="black" points="654.5,-38.5 654.5,-57.5 785.5,-57.5 785.5,-38.5 654.5,-38.5"/>
<text text-anchor="middle" x="720" y="-45.5" font-family="Helvetica,sans-Serif" font-size="10.00">nars.storage.TermLinkBag</text>
</a>
</g>
</g>
<!-- Node7&#45;&gt;Node8 -->
<g id="edge8" class="edge"><title>Node7&#45;&gt;Node8</title>
<path fill="none" stroke="midnightblue" d="M624.216,-48C634.349,-48 644.579,-48 654.378,-48"/>
<polygon fill="midnightblue" stroke="midnightblue" points="624.133,-44.5001 614.133,-48 624.133,-51.5001 624.133,-44.5001"/>
</g>
<!-- Node10 -->
<g id="node11" class="node"><title>Node10</title>
<g id="a_node11"><a xlink:href="../../d2/d56/a00384.html" target="_top" xlink:title="Contains Concepts. ">
<polygon fill="none" stroke="black" points="656,-0.5 656,-19.5 784,-19.5 784,-0.5 656,-0.5"/>
<text text-anchor="middle" x="720" y="-7.5" font-family="Helvetica,sans-Serif" font-size="10.00">nars.storage.ConceptBag</text>
</a>
</g>
</g>
<!-- Node9&#45;&gt;Node10 -->
<g id="edge10" class="edge"><title>Node9&#45;&gt;Node10</title>
<path fill="none" stroke="midnightblue" d="M622.738,-10C633.857,-10 645.121,-10 655.836,-10"/>
<polygon fill="midnightblue" stroke="midnightblue" points="622.588,-6.5001 612.588,-10 622.588,-13.5001 622.588,-6.5001"/>
</g>
</g>
</svg>
