<?xml version="1.0" encoding="UTF-8" standalone="no"?>
<!DOCTYPE svg PUBLIC "-//W3C//DTD SVG 1.1//EN"
 "http://www.w3.org/Graphics/SVG/1.1/DTD/svg11.dtd">
<!-- Generated by graphviz version 2.38.0 (20140413.2041)
 -->
<!-- Title: nars.entity.Sentence Pages: 1 -->
<svg width="592pt" height="229pt"
 viewBox="0.00 0.00 591.50 229.00" xmlns="http://www.w3.org/2000/svg" xmlns:xlink="http://www.w3.org/1999/xlink">
<g id="graph0" class="graph" transform="scale(1 1) rotate(0) translate(4 225)">
<title>nars.entity.Sentence</title>
<!-- Node3 -->
<g id="node1" class="node"><title>Node3</title>
<polygon fill="#bfbfbf" stroke="black" points="190,-0.5 190,-19.5 297,-19.5 297,-0.5 190,-0.5"/>
<text text-anchor="middle" x="243.5" y="-7.5" font-family="Helvetica,sans-Serif" font-size="10.00">nars.entity.Sentence</text>
</g>
<!-- Node4 -->
<g id="node2" class="node"><title>Node4</title>
<polygon fill="none" stroke="#bfbfbf" points="209.5,-134.5 209.5,-153.5 269.5,-153.5 269.5,-134.5 209.5,-134.5"/>
<text text-anchor="middle" x="239.5" y="-141.5" font-family="Helvetica,sans-Serif" font-size="10.00">Cloneable</text>
</g>
<!-- Node4&#45;&gt;Node3 -->
<g id="edge1" class="edge"><title>Node4&#45;&gt;Node3</title>
<path fill="none" stroke="midnightblue" d="M240.067,-124.275C240.947,-95.2462 242.605,-40.5381 243.242,-19.5212"/>
<polygon fill="midnightblue" stroke="midnightblue" points="236.567,-124.238 239.762,-134.339 243.564,-124.45 236.567,-124.238"/>
</g>
<!-- Node6 -->
<g id="node4" class="node"><title>Node6</title>
<g id="a_node4"><a xlink:href="../../d7/d40/a00236.html" target="_top" xlink:title="Frequency and confidence. ">
<polygon fill="none" stroke="black" points="0,-67.5 0,-86.5 113,-86.5 113,-67.5 0,-67.5"/>
<text text-anchor="middle" x="56.5" y="-74.5" font-family="Helvetica,sans-Serif" font-size="10.00">nars.entity.TruthValue</text>
</a>
</g>
</g>
<!-- Node4&#45;&gt;Node6 -->
<g id="edge4" class="edge"><title>Node4&#45;&gt;Node6</title>
<path fill="none" stroke="midnightblue" d="M205.536,-130.936C169.233,-118.042 112.594,-97.9243 80.61,-86.5637"/>
<polygon fill="midnightblue" stroke="midnightblue" points="204.604,-134.32 215.199,-134.369 206.947,-127.723 204.604,-134.32"/>
</g>
<!-- Node8 -->
<g id="node6" class="node"><title>Node8</title>
<g id="a_node6"><a xlink:href="../../dc/d59/a00364.html" target="_top" xlink:title="Term is the basic component of Narsese, and the object of processing in NARS. ">
<polygon fill="none" stroke="black" points="272,-67.5 272,-86.5 375,-86.5 375,-67.5 272,-67.5"/>
<text text-anchor="middle" x="323.5" y="-74.5" font-family="Helvetica,sans-Serif" font-size="10.00">nars.language.Term</text>
</a>
</g>
</g>
<!-- Node4&#45;&gt;Node8 -->
<g id="edge7" class="edge"><title>Node4&#45;&gt;Node8</title>
<path fill="none" stroke="midnightblue" d="M258.797,-128.068C275.378,-115.238 298.707,-97.1853 312.351,-86.6273"/>
<polygon fill="midnightblue" stroke="midnightblue" points="256.595,-125.346 250.829,-134.234 260.879,-130.882 256.595,-125.346"/>
</g>
<!-- Node11 -->
<g id="node9" class="node"><title>Node11</title>
<g id="a_node9"><a xlink:href="../../d6/d43/a00216.html" target="_top" xlink:title="Each Sentence has a time stamp, consisting the following components: (1) The creation time of the sen...">
<polygon fill="none" stroke="black" points="400.5,-67.5 400.5,-86.5 494.5,-86.5 494.5,-67.5 400.5,-67.5"/>
<text text-anchor="middle" x="447.5" y="-74.5" font-family="Helvetica,sans-Serif" font-size="10.00">nars.entity.Stamp</text>
</a>
</g>
</g>
<!-- Node4&#45;&gt;Node11 -->
<g id="edge11" class="edge"><title>Node4&#45;&gt;Node11</title>
<path fill="none" stroke="midnightblue" d="M276.789,-131.347C317.988,-118.473 383.354,-98.0456 420.096,-86.5637"/>
<polygon fill="midnightblue" stroke="midnightblue" points="275.622,-128.045 267.121,-134.369 277.71,-134.726 275.622,-128.045"/>
</g>
<!-- Node5 -->
<g id="node3" class="node"><title>Node5</title>
<polygon fill="none" stroke="#bfbfbf" points="131.5,-67.5 131.5,-86.5 215.5,-86.5 215.5,-67.5 131.5,-67.5"/>
<text text-anchor="middle" x="173.5" y="-74.5" font-family="Helvetica,sans-Serif" font-size="10.00">SentenceStruct</text>
</g>
<!-- Node5&#45;&gt;Node3 -->
<g id="edge2" class="edge"><title>Node5&#45;&gt;Node3</title>
<path fill="none" stroke="midnightblue" d="M190.347,-60.3564C204.109,-47.5777 223.048,-29.9915 234.209,-19.6273"/>
<polygon fill="midnightblue" stroke="midnightblue" points="187.887,-57.8645 182.941,-67.2338 192.65,-62.9941 187.887,-57.8645"/>
</g>
<!-- Node6&#45;&gt;Node3 -->
<g id="edge3" class="edge"><title>Node6&#45;&gt;Node3</title>
<path fill="none" stroke="#9a32cd" stroke-dasharray="5,2" d="M91.2062,-63.9363C128.303,-51.0417 186.179,-30.9243 218.863,-19.5637"/>
<polygon fill="#9a32cd" stroke="#9a32cd" points="89.6287,-60.7792 81.3322,-67.3685 91.927,-67.3912 89.6287,-60.7792"/>
<text text-anchor="middle" x="173" y="-41" font-family="Helvetica,sans-Serif" font-size="10.00"> truth</text>
</g>
<!-- Node7 -->
<g id="node5" class="node"><title>Node7</title>
<polygon fill="none" stroke="#bfbfbf" points="21.5,-134.5 21.5,-153.5 91.5,-153.5 91.5,-134.5 21.5,-134.5"/>
<text text-anchor="middle" x="56.5" y="-141.5" font-family="Helvetica,sans-Serif" font-size="10.00">TruthHandle</text>
</g>
<!-- Node7&#45;&gt;Node6 -->
<g id="edge5" class="edge"><title>Node7&#45;&gt;Node6</title>
<path fill="none" stroke="midnightblue" d="M56.5,-124.037C56.5,-111.67 56.5,-96.1198 56.5,-86.6273"/>
<polygon fill="midnightblue" stroke="midnightblue" points="53.0001,-124.234 56.5,-134.234 60.0001,-124.234 53.0001,-124.234"/>
</g>
<!-- Node8&#45;&gt;Node3 -->
<g id="edge6" class="edge"><title>Node8&#45;&gt;Node3</title>
<path fill="none" stroke="#9a32cd" stroke-dasharray="5,2" d="M304.686,-60.7134C288.924,-47.907 266.993,-30.0884 254.118,-19.6273"/>
<polygon fill="#9a32cd" stroke="#9a32cd" points="302.743,-63.6443 312.711,-67.2338 307.157,-58.2114 302.743,-63.6443"/>
<text text-anchor="middle" x="306.5" y="-41" font-family="Helvetica,sans-Serif" font-size="10.00"> content</text>
</g>
<!-- Node9 -->
<g id="node7" class="node"><title>Node9</title>
<polygon fill="none" stroke="#bfbfbf" points="287.5,-134.5 287.5,-153.5 397.5,-153.5 397.5,-134.5 287.5,-134.5"/>
<text text-anchor="middle" x="342.5" y="-141.5" font-family="Helvetica,sans-Serif" font-size="10.00">Comparable&lt; Term &gt;</text>
</g>
<!-- Node9&#45;&gt;Node8 -->
<g id="edge8" class="edge"><title>Node9&#45;&gt;Node8</title>
<path fill="none" stroke="midnightblue" d="M337.067,-124.415C333.435,-111.988 328.825,-96.2166 326.022,-86.6273"/>
<polygon fill="midnightblue" stroke="midnightblue" points="333.772,-125.617 339.938,-134.234 340.491,-123.653 333.772,-125.617"/>
</g>
<!-- Node10 -->
<g id="node8" class="node"><title>Node10</title>
<polygon fill="none" stroke="#bfbfbf" points="126,-134.5 126,-153.5 191,-153.5 191,-134.5 126,-134.5"/>
<text text-anchor="middle" x="158.5" y="-141.5" font-family="Helvetica,sans-Serif" font-size="10.00">TermStruct</text>
</g>
<!-- Node10&#45;&gt;Node8 -->
<g id="edge9" class="edge"><title>Node10&#45;&gt;Node8</title>
<path fill="none" stroke="midnightblue" d="M189.966,-130.604C222.727,-117.698 273.17,-97.8272 301.761,-86.5637"/>
<polygon fill="midnightblue" stroke="midnightblue" points="188.432,-127.447 180.411,-134.369 190.998,-133.96 188.432,-127.447"/>
</g>
<!-- Node11&#45;&gt;Node3 -->
<g id="edge10" class="edge"><title>Node11&#45;&gt;Node3</title>
<path fill="none" stroke="#9a32cd" stroke-dasharray="5,2" d="M410.981,-64.3227C387.439,-56.7986 356.165,-46.8109 328.5,-38 309.026,-31.7976 287.035,-24.813 270.301,-19.5018"/>
<polygon fill="#9a32cd" stroke="#9a32cd" points="409.974,-67.675 420.565,-67.3859 412.105,-61.0073 409.974,-67.675"/>
<text text-anchor="middle" x="377" y="-41" font-family="Helvetica,sans-Serif" font-size="10.00"> stamp</text>
</g>
<!-- Node12 -->
<g id="node10" class="node"><title>Node12</title>
<polygon fill="none" stroke="#bfbfbf" points="416,-134.5 416,-153.5 487,-153.5 487,-134.5 416,-134.5"/>
<text text-anchor="middle" x="451.5" y="-141.5" font-family="Helvetica,sans-Serif" font-size="10.00">StampStruct</text>
</g>
<!-- Node12&#45;&gt;Node11 -->
<g id="edge12" class="edge"><title>Node12&#45;&gt;Node11</title>
<path fill="none" stroke="midnightblue" d="M450.333,-124.037C449.572,-111.67 448.615,-96.1198 448.031,-86.6273"/>
<polygon fill="midnightblue" stroke="midnightblue" points="446.853,-124.468 450.961,-134.234 453.84,-124.038 446.853,-124.468"/>
</g>
<!-- Node13 -->
<g id="node11" class="node"><title>Node13</title>
<polygon fill="none" stroke="#bfbfbf" points="505,-134.5 505,-153.5 576,-153.5 576,-134.5 505,-134.5"/>
<text text-anchor="middle" x="540.5" y="-141.5" font-family="Helvetica,sans-Serif" font-size="10.00">List&lt; Long &gt;</text>
</g>
<!-- Node13&#45;&gt;Node11 -->
<g id="edge13" class="edge"><title>Node13&#45;&gt;Node11</title>
<path fill="none" stroke="#9a32cd" stroke-dasharray="5,2" d="M519.639,-128.42C501.253,-115.569 475.088,-97.2821 459.844,-86.6273"/>
<polygon fill="#9a32cd" stroke="#9a32cd" points="517.756,-131.374 527.958,-134.234 521.766,-125.636 517.756,-131.374"/>
<text text-anchor="middle" x="534" y="-108" font-family="Helvetica,sans-Serif" font-size="10.00"> evidentialBase</text>
</g>
<!-- Node14 -->
<g id="node12" class="node"><title>Node14</title>
<polygon fill="none" stroke="#bfbfbf" points="524.5,-201.5 524.5,-220.5 556.5,-220.5 556.5,-201.5 524.5,-201.5"/>
<text text-anchor="middle" x="540.5" y="-208.5" font-family="Helvetica,sans-Serif" font-size="10.00">List</text>
</g>
<!-- Node14&#45;&gt;Node13 -->
<g id="edge14" class="edge"><title>Node14&#45;&gt;Node13</title>
<path fill="none" stroke="orange" stroke-dasharray="5,2" d="M540.5,-191.037C540.5,-178.67 540.5,-163.12 540.5,-153.627"/>
<polygon fill="orange" stroke="orange" points="537,-191.234 540.5,-201.234 544,-191.234 537,-191.234"/>
<text text-anchor="middle" x="562" y="-175" font-family="Helvetica,sans-Serif" font-size="10.00"> &lt; Long &gt;</text>
</g>
</g>
</svg>
