<?xml version="1.0" encoding="UTF-8" standalone="no"?>
<!DOCTYPE svg PUBLIC "-//W3C//DTD SVG 1.1//EN"
 "http://www.w3.org/Graphics/SVG/1.1/DTD/svg11.dtd">
<!-- Generated by graphviz version 2.38.0 (20140413.2041)
 -->
<!-- Title: nars.inference.BudgetFunctions.compoundBackwardWeak Pages: 1 -->
<!--zoomable 88 -->
<svg id="main" version="1.1" xmlns="http://www.w3.org/2000/svg" xmlns:xlink="http://www.w3.org/1999/xlink" xml:space="preserve" onload="init(evt)">
<style type="text/css"><![CDATA[
.edge:hover path { stroke: red; }
.edge:hover polygon { stroke: red; fill: red; }
]]></style>
<script type="text/javascript"><![CDATA[
var edges = document.getElementsByTagName('g');
if (edges && edges.length) {
  for (var i=0;i<edges.length;i++) {
    if (edges[i].id.substr(0,4)=='edge') {
      edges[i].setAttribute('class','edge');
    }
  }
}
]]></script>
        <defs>
                <circle id="rim" cx="0" cy="0" r="7"/>
                <circle id="rim2" cx="0" cy="0" r="3.5"/>
                <g id="zoomPlus">
                        <use xlink:href="#rim" fill="#404040">
                                <set attributeName="fill" to="#808080" begin="zoomplus.mouseover" end="zoomplus.mouseout"/>
                        </use>
                        <path d="M-4,0h8M0,-4v8" fill="none" stroke="white" stroke-width="1.5" pointer-events="none"/>
                </g>
                <g id="zoomMin">
                        <use xlink:href="#rim" fill="#404040">
                                <set attributeName="fill" to="#808080" begin="zoomminus.mouseover" end="zoomminus.mouseout"/>
                        </use>
                        <path d="M-4,0h8" fill="none" stroke="white" stroke-width="1.5" pointer-events="none"/>
                </g>
                <g id="dirArrow">
                        <path fill="none" stroke="white" stroke-width="1.5" d="M0,-3.0v7 M-2.5,-0.5L0,-3.0L2.5,-0.5"/>
                </g>
               <g id="resetDef">
                       <use xlink:href="#rim2" fill="#404040">
                               <set attributeName="fill" to="#808080" begin="reset.mouseover" end="reset.mouseout"/>
                       </use>
               </g>
        </defs>

<script type="text/javascript">
var viewWidth = 2317;
var viewHeight = 88;
var sectionId = 'dynsection-13';
</script>
<script xlink:href="../../svgpan.js"/>
<svg id="graph" class="graph">
<g id="viewport">
<title>nars.inference.BudgetFunctions.compoundBackwardWeak</title>
<!-- Node273 -->
<g id="node1" class="node"><title>Node273</title>
<polygon fill="#bfbfbf" stroke="black" points="0,-24.5 0,-54.5 203,-54.5 203,-24.5 0,-24.5"/>
<text text-anchor="start" x="8" y="-42.5" font-family="Helvetica,sans-Serif" font-size="10.00">nars.inference.BudgetFunctions.compound</text>
<text text-anchor="middle" x="101.5" y="-31.5" font-family="Helvetica,sans-Serif" font-size="10.00">BackwardWeak</text>
</g>
<!-- Node274 -->
<g id="node2" class="node"><title>Node274</title>
<g id="a_node2"><a xlink:href="../../dc/ded/a00252.html#aaeb2049ede16ec8f63afafe0407f04a9" target="_top" xlink:title="{&lt;A ==&gt; B&gt;, A@(–, A)} |&#45; &lt;(–, B) ==&gt; (–, A)&gt; ">
<polygon fill="none" stroke="black" points="239,-53 239,-72 433,-72 433,-53 239,-53"/>
<text text-anchor="middle" x="336" y="-60" font-family="Helvetica,sans-Serif" font-size="10.00">nars.inference.RuleTables.contraposition</text>
</a>
</g>
</g>
<!-- Node273&#45;&gt;Node274 -->
<g id="edge1" class="edge"><title>Node273&#45;&gt;Node274</title>
<path fill="none" stroke="midnightblue" d="M213.211,-50.4521C221.829,-51.3046 230.487,-52.161 238.995,-53.0028"/>
<polygon fill="midnightblue" stroke="midnightblue" points="213.422,-46.9559 203.126,-49.4544 212.732,-53.9219 213.422,-46.9559"/>
</g>
<!-- Node285 -->
<g id="node13" class="node"><title>Node285</title>
<g id="a_node13"><a xlink:href="../../d0/def/a00256.html#ab3d78c70d8e8086fdabdc52a343cc416" target="_top" xlink:title="{&lt;S &#45;&#45;&gt; P&gt;, S@(S&amp;T)} |&#45; &lt;(S&amp;T) &#45;&#45;&gt; (P&amp;T)&gt; {&lt;S &#45;&#45;&gt; P&gt;, S@(M&#45;S)} |&#45; &lt;(M&#45;P) &#45;&#45;&gt; (M&#45;S)&gt; ...">
<polygon fill="none" stroke="black" points="269.5,-2.5 269.5,-32.5 402.5,-32.5 402.5,-2.5 269.5,-2.5"/>
<text text-anchor="start" x="277.5" y="-20.5" font-family="Helvetica,sans-Serif" font-size="10.00">nars.inference.Structural</text>
<text text-anchor="middle" x="336" y="-9.5" font-family="Helvetica,sans-Serif" font-size="10.00">Rules.structuralCompose2</text>
</a>
</g>
</g>
<!-- Node273&#45;&gt;Node285 -->
<g id="edge12" class="edge"><title>Node273&#45;&gt;Node285</title>
<path fill="none" stroke="midnightblue" d="M213.168,-29.0282C232.429,-27.2056 251.895,-25.3637 269.444,-23.7032"/>
<polygon fill="midnightblue" stroke="midnightblue" points="212.751,-25.5519 203.126,-29.9784 213.411,-32.5208 212.751,-25.5519"/>
</g>
<!-- Node275 -->
<g id="node3" class="node"><title>Node275</title>
<g id="a_node3"><a xlink:href="../../dc/ded/a00252.html#a08680eb3f85b0a37b7bd969de8b25904" target="_top" xlink:title="Inference between a component term (of the current term) and a statement. ">
<polygon fill="none" stroke="black" points="469,-49.5 469,-79.5 651,-79.5 651,-49.5 469,-49.5"/>
<text text-anchor="start" x="477" y="-67.5" font-family="Helvetica,sans-Serif" font-size="10.00">nars.inference.RuleTables.component</text>
<text text-anchor="middle" x="560" y="-56.5" font-family="Helvetica,sans-Serif" font-size="10.00">AndStatement</text>
</a>
</g>
</g>
<!-- Node274&#45;&gt;Node275 -->
<g id="edge2" class="edge"><title>Node274&#45;&gt;Node275</title>
<path fill="none" stroke="midnightblue" d="M443.11,-63.4559C451.679,-63.5331 460.286,-63.6107 468.728,-63.6867"/>
<polygon fill="midnightblue" stroke="midnightblue" points="443.112,-59.9559 433.081,-63.3656 443.049,-66.9556 443.112,-59.9559"/>
</g>
<!-- Node276 -->
<g id="node4" class="node"><title>Node276</title>
<g id="a_node4"><a xlink:href="../../dc/ded/a00252.html#ac2d01dfdc40bdd47c757cb549217e6e3" target="_top" xlink:title="Entry point of the inference engine. ">
<polygon fill="none" stroke="black" points="687,-30 687,-49 850,-49 850,-30 687,-30"/>
<text text-anchor="middle" x="768.5" y="-37" font-family="Helvetica,sans-Serif" font-size="10.00">nars.inference.RuleTables.reason</text>
</a>
</g>
</g>
<!-- Node275&#45;&gt;Node276 -->
<g id="edge3" class="edge"><title>Node275&#45;&gt;Node276</title>
<path fill="none" stroke="midnightblue" d="M661.259,-52.3621C670.487,-51.245 679.746,-50.124 688.741,-49.0349"/>
<polygon fill="midnightblue" stroke="midnightblue" points="660.78,-48.8944 651.274,-53.571 661.622,-55.8437 660.78,-48.8944"/>
</g>
<!-- Node277 -->
<g id="node5" class="node"><title>Node277</title>
<g id="a_node5"><a xlink:href="../../d7/ded/a00196.html#ad6fb91dda799c3092ecb186ef24ca92a" target="_top" xlink:title="An atomic step in a concept, only called in Memory# processConcept. ">
<polygon fill="none" stroke="black" points="886,-24.5 886,-54.5 1005,-54.5 1005,-24.5 886,-24.5"/>
<text text-anchor="start" x="894" y="-42.5" font-family="Helvetica,sans-Serif" font-size="10.00">nars.entity.Concept.fire</text>
<text text-anchor="middle" x="945.5" y="-31.5" font-family="Helvetica,sans-Serif" font-size="10.00">FromProcessConcept</text>
</a>
</g>
</g>
<!-- Node276&#45;&gt;Node277 -->
<g id="edge4" class="edge"><title>Node276&#45;&gt;Node277</title>
<path fill="none" stroke="midnightblue" d="M860.249,-39.5C868.907,-39.5 877.523,-39.5 885.757,-39.5"/>
<polygon fill="midnightblue" stroke="midnightblue" points="860.085,-36.0001 850.085,-39.5 860.085,-43.0001 860.085,-36.0001"/>
</g>
<!-- Node278 -->
<g id="node6" class="node"><title>Node278</title>
<g id="a_node6"><a xlink:href="../../d4/d27/a00392.html#a0acc4adbf6a2462245da46bcb529746c" target="_top" xlink:title="Select a concept to fireFromProcessConcept. ">
<polygon fill="none" stroke="black" points="1041,-24.5 1041,-54.5 1187,-54.5 1187,-24.5 1041,-24.5"/>
<text text-anchor="start" x="1049" y="-42.5" font-family="Helvetica,sans-Serif" font-size="10.00">nars.storage.Memory.process</text>
<text text-anchor="middle" x="1114" y="-31.5" font-family="Helvetica,sans-Serif" font-size="10.00">Concept</text>
</a>
</g>
</g>
<!-- Node277&#45;&gt;Node278 -->
<g id="edge5" class="edge"><title>Node277&#45;&gt;Node278</title>
<path fill="none" stroke="midnightblue" d="M1015.34,-39.5C1023.75,-39.5 1032.36,-39.5 1040.82,-39.5"/>
<polygon fill="midnightblue" stroke="midnightblue" points="1015.2,-36.0001 1005.2,-39.5 1015.2,-43.0001 1015.2,-36.0001"/>
</g>
<!-- Node279 -->
<g id="node7" class="node"><title>Node279</title>
<g id="a_node7"><a xlink:href="../../d4/d27/a00392.html#a59ae339d666409988d90d29be4f73a91" target="_top" xlink:title="An atomic working workCycle of the system: process new Tasks, then fireFromProcessConcept a concept...">
<polygon fill="none" stroke="black" points="1223,-24.5 1223,-54.5 1356,-54.5 1356,-24.5 1223,-24.5"/>
<text text-anchor="start" x="1231" y="-42.5" font-family="Helvetica,sans-Serif" font-size="10.00">nars.storage.Memory.work</text>
<text text-anchor="middle" x="1289.5" y="-31.5" font-family="Helvetica,sans-Serif" font-size="10.00">Cycle</text>
</a>
</g>
</g>
<!-- Node278&#45;&gt;Node279 -->
<g id="edge6" class="edge"><title>Node278&#45;&gt;Node279</title>
<path fill="none" stroke="midnightblue" d="M1197.12,-39.5C1205.72,-39.5 1214.37,-39.5 1222.76,-39.5"/>
<polygon fill="midnightblue" stroke="midnightblue" points="1197.07,-36.0001 1187.07,-39.5 1197.07,-43.0001 1197.07,-36.0001"/>
</g>
<!-- Node280 -->
<g id="node8" class="node"><title>Node280</title>
<g id="a_node8"><a xlink:href="../../df/d15/a00416.html#a0d5c797dc17d9e8d0998852915e0f303" target="_top" xlink:title="nars.storage.ReasonerBatch.doTick">
<polygon fill="none" stroke="black" points="1392,-30 1392,-49 1565,-49 1565,-30 1392,-30"/>
<text text-anchor="middle" x="1478.5" y="-37" font-family="Helvetica,sans-Serif" font-size="10.00">nars.storage.ReasonerBatch.doTick</text>
</a>
</g>
</g>
<!-- Node279&#45;&gt;Node280 -->
<g id="edge7" class="edge"><title>Node279&#45;&gt;Node280</title>
<path fill="none" stroke="midnightblue" d="M1366.34,-39.5C1374.78,-39.5 1383.42,-39.5 1391.97,-39.5"/>
<polygon fill="midnightblue" stroke="midnightblue" points="1366.17,-36.0001 1356.17,-39.5 1366.17,-43.0001 1366.17,-36.0001"/>
</g>
<!-- Node281 -->
<g id="node9" class="node"><title>Node281</title>
<g id="a_node9"><a xlink:href="../../df/d15/a00416.html#a3468aa0f99edcd66412f27922dddb880" target="_top" xlink:title="A clock tick. ">
<polygon fill="none" stroke="black" points="1601,-30 1601,-49 1761,-49 1761,-30 1601,-30"/>
<text text-anchor="middle" x="1681" y="-37" font-family="Helvetica,sans-Serif" font-size="10.00">nars.storage.ReasonerBatch.tick</text>
</a>
</g>
</g>
<!-- Node280&#45;&gt;Node281 -->
<g id="edge8" class="edge"><title>Node280&#45;&gt;Node281</title>
<path fill="none" stroke="midnightblue" d="M1575.13,-39.5C1583.7,-39.5 1592.31,-39.5 1600.71,-39.5"/>
<polygon fill="midnightblue" stroke="midnightblue" points="1575.11,-36.0001 1565.11,-39.5 1575.11,-43.0001 1575.11,-36.0001"/>
</g>
<!-- Node282 -->
<g id="node10" class="node"><title>Node282</title>
<g id="a_node10"><a xlink:href="../../d9/da1/a00396.html#a5d9cfe517bcfbe41e5251910bcd119c1" target="_top" xlink:title="Run to completion: repeatedly execute NARS working cycle, until Inputs are Finished, or 1000 steps. ">
<polygon fill="none" stroke="black" points="1797,-30 1797,-49 1941,-49 1941,-30 1797,-30"/>
<text text-anchor="middle" x="1869" y="-37" font-family="Helvetica,sans-Serif" font-size="10.00">nars.storage.NARSBatch.run</text>
</a>
</g>
</g>
<!-- Node281&#45;&gt;Node282 -->
<g id="edge9" class="edge"><title>Node281&#45;&gt;Node282</title>
<path fill="none" stroke="midnightblue" d="M1771.22,-39.5C1779.82,-39.5 1788.47,-39.5 1796.87,-39.5"/>
<polygon fill="midnightblue" stroke="midnightblue" points="1771.15,-36.0001 1761.15,-39.5 1771.15,-43.0001 1771.15,-36.0001"/>
</g>
<!-- Node283 -->
<g id="node11" class="node"><title>Node283</title>
<g id="a_node11"><a xlink:href="../../d9/da1/a00396.html#a7c307c6b842f82664de6b0e52bdf8efc" target="_top" xlink:title="non&#45;static equivalent to main(String[]) : run to completion from an input file ">
<polygon fill="none" stroke="black" points="1977,-24.5 1977,-54.5 2121,-54.5 2121,-24.5 1977,-24.5"/>
<text text-anchor="start" x="1985" y="-42.5" font-family="Helvetica,sans-Serif" font-size="10.00">nars.storage.NARSBatch.run</text>
<text text-anchor="middle" x="2049" y="-31.5" font-family="Helvetica,sans-Serif" font-size="10.00">Inference</text>
</a>
</g>
</g>
<!-- Node282&#45;&gt;Node283 -->
<g id="edge10" class="edge"><title>Node282&#45;&gt;Node283</title>
<path fill="none" stroke="midnightblue" d="M1951.17,-39.5C1959.79,-39.5 1968.51,-39.5 1977,-39.5"/>
<polygon fill="midnightblue" stroke="midnightblue" points="1951.12,-36.0001 1941.12,-39.5 1951.12,-43.0001 1951.12,-36.0001"/>
</g>
<!-- Node284 -->
<g id="node12" class="node"><title>Node284</title>
<g id="a_node12"><a xlink:href="../../d9/da1/a00396.html#abafc597289bc2f6453b5cd0dd6634e54" target="_top" xlink:title="The entry point of the standalone application. ">
<polygon fill="none" stroke="black" points="2157,-30 2157,-49 2309,-49 2309,-30 2157,-30"/>
<text text-anchor="middle" x="2233" y="-37" font-family="Helvetica,sans-Serif" font-size="10.00">nars.storage.NARSBatch.main</text>
</a>
</g>
</g>
<!-- Node283&#45;&gt;Node284 -->
<g id="edge11" class="edge"><title>Node283&#45;&gt;Node284</title>
<path fill="none" stroke="midnightblue" d="M2131.17,-39.5C2139.76,-39.5 2148.48,-39.5 2157,-39.5"/>
<polygon fill="midnightblue" stroke="midnightblue" points="2131.15,-36.0001 2121.15,-39.5 2131.15,-43.0001 2131.15,-36.0001"/>
</g>
<!-- Node286 -->
<g id="node14" class="node"><title>Node286</title>
<g id="a_node14"><a xlink:href="../../dc/ded/a00252.html#a54a7ceba4f123db5035e3b85063c91f1" target="_top" xlink:title="Inference between a compound term and a statement. ">
<polygon fill="none" stroke="black" points="470.5,-0.5 470.5,-30.5 649.5,-30.5 649.5,-0.5 470.5,-0.5"/>
<text text-anchor="start" x="478.5" y="-18.5" font-family="Helvetica,sans-Serif" font-size="10.00">nars.inference.RuleTables.compound</text>
<text text-anchor="middle" x="560" y="-7.5" font-family="Helvetica,sans-Serif" font-size="10.00">AndStatement</text>
</a>
</g>
</g>
<!-- Node285&#45;&gt;Node286 -->
<g id="edge13" class="edge"><title>Node285&#45;&gt;Node286</title>
<path fill="none" stroke="midnightblue" d="M412.835,-16.8168C431.365,-16.6499 451.352,-16.4698 470.419,-16.298"/>
<polygon fill="midnightblue" stroke="midnightblue" points="412.674,-13.318 402.706,-16.9081 412.737,-20.3177 412.674,-13.318"/>
</g>
<!-- Node286&#45;&gt;Node276 -->
<g id="edge14" class="edge"><title>Node286&#45;&gt;Node276</title>
<path fill="none" stroke="midnightblue" d="M659.954,-27.0007C669.002,-28.0523 678.093,-29.1089 686.95,-30.1383"/>
<polygon fill="midnightblue" stroke="midnightblue" points="660.11,-23.4954 649.773,-25.8174 659.302,-30.4486 660.11,-23.4954"/>
</g>
</g>
</svg>
        <g id="navigator" transform="translate(0 0)" fill="#404254">
                <rect fill="#f2f5e9" fill-opacity="0.5" stroke="#606060" stroke-width=".5" x="0" y="0" width="60" height="60"/>
                <use id="zoomplus" xlink:href="#zoomPlus" x="17" y="9" onmousedown="handleZoom(evt,'in')"/>
                <use id="zoomminus" xlink:href="#zoomMin" x="42" y="9" onmousedown="handleZoom(evt,'out')"/>
                <use id="reset" xlink:href="#resetDef" x="30" y="36" onmousedown="handleReset()"/>
                <g id="arrowUp" xlink:href="#dirArrow" transform="translate(30 24)" onmousedown="handlePan(0,-1)">
                  <use xlink:href="#rim" fill="#404040">
                        <set attributeName="fill" to="#808080" begin="arrowUp.mouseover" end="arrowUp.mouseout"/>
                  </use>
                  <path fill="none" stroke="white" stroke-width="1.5" d="M0,-3.0v7 M-2.5,-0.5L0,-3.0L2.5,-0.5"/>
                </g>
                <g id="arrowRight" xlink:href="#dirArrow" transform="rotate(90) translate(36 -43)" onmousedown="handlePan(1,0)">
                  <use xlink:href="#rim" fill="#404040">
                        <set attributeName="fill" to="#808080" begin="arrowRight.mouseover" end="arrowRight.mouseout"/>
                  </use>
                  <path fill="none" stroke="white" stroke-width="1.5" d="M0,-3.0v7 M-2.5,-0.5L0,-3.0L2.5,-0.5"/>
                </g>
                <g id="arrowDown" xlink:href="#dirArrow" transform="rotate(180) translate(-30 -48)" onmousedown="handlePan(0,1)">
                  <use xlink:href="#rim" fill="#404040">
                        <set attributeName="fill" to="#808080" begin="arrowDown.mouseover" end="arrowDown.mouseout"/>
                  </use>
                  <path fill="none" stroke="white" stroke-width="1.5" d="M0,-3.0v7 M-2.5,-0.5L0,-3.0L2.5,-0.5"/>
                </g>
                <g id="arrowLeft" xlink:href="#dirArrow" transform="rotate(270) translate(-36 17)" onmousedown="handlePan(-1,0)">
                  <use xlink:href="#rim" fill="#404040">
                        <set attributeName="fill" to="#808080" begin="arrowLeft.mouseover" end="arrowLeft.mouseout"/>
                  </use>
                  <path fill="none" stroke="white" stroke-width="1.5" d="M0,-3.0v7 M-2.5,-0.5L0,-3.0L2.5,-0.5"/>
                </g>
        </g>
        <svg viewBox="0 0 15 15" width="100%" height="30px" preserveAspectRatio="xMaxYMin meet">
         <g id="arrow_out" transform="scale(0.3 0.3)">
          <a xlink:href="a00240_a046cb01831a139bfd4d9bd25f27f1bee_icgraph_org.svg" target="_base">
           <rect id="button" ry="5" rx="5" y="6" x="6" height="38" width="38"
                fill="#f2f5e9" fill-opacity="0.5" stroke="#606060" stroke-width="1.0"/>
           <path id="arrow"
             d="M 11.500037,31.436501 C 11.940474,20.09759 22.043105,11.32322 32.158766,21.979434 L 37.068811,17.246167 C 37.068811,17.246167 37.088388,32 37.088388,32 L 22.160133,31.978069 C 22.160133,31.978069 26.997745,27.140456 26.997745,27.140456 C 18.528582,18.264221 13.291696,25.230495 11.500037,31.436501 z"
             style="fill:#404040;"/>
          </a>
         </g>
        </svg>
</svg>
