<?xml version="1.0" encoding="UTF-8" standalone="no"?>
<!DOCTYPE svg PUBLIC "-//W3C//DTD SVG 1.1//EN"
 "http://www.w3.org/Graphics/SVG/1.1/DTD/svg11.dtd">
<!-- Generated by graphviz version 2.38.0 (20140413.2041)
 -->
<!-- Title: nars.inference.BudgetFunctions.backwardWeak Pages: 1 -->
<!--zoomable 379 -->
<svg id="main" version="1.1" xmlns="http://www.w3.org/2000/svg" xmlns:xlink="http://www.w3.org/1999/xlink" xml:space="preserve" onload="init(evt)">
<style type="text/css"><![CDATA[
.edge:hover path { stroke: red; }
.edge:hover polygon { stroke: red; fill: red; }
]]></style>
<script type="text/javascript"><![CDATA[
var edges = document.getElementsByTagName('g');
if (edges && edges.length) {
  for (var i=0;i<edges.length;i++) {
    if (edges[i].id.substr(0,4)=='edge') {
      edges[i].setAttribute('class','edge');
    }
  }
}
]]></script>
        <defs>
                <circle id="rim" cx="0" cy="0" r="7"/>
                <circle id="rim2" cx="0" cy="0" r="3.5"/>
                <g id="zoomPlus">
                        <use xlink:href="#rim" fill="#404040">
                                <set attributeName="fill" to="#808080" begin="zoomplus.mouseover" end="zoomplus.mouseout"/>
                        </use>
                        <path d="M-4,0h8M0,-4v8" fill="none" stroke="white" stroke-width="1.5" pointer-events="none"/>
                </g>
                <g id="zoomMin">
                        <use xlink:href="#rim" fill="#404040">
                                <set attributeName="fill" to="#808080" begin="zoomminus.mouseover" end="zoomminus.mouseout"/>
                        </use>
                        <path d="M-4,0h8" fill="none" stroke="white" stroke-width="1.5" pointer-events="none"/>
                </g>
                <g id="dirArrow">
                        <path fill="none" stroke="white" stroke-width="1.5" d="M0,-3.0v7 M-2.5,-0.5L0,-3.0L2.5,-0.5"/>
                </g>
               <g id="resetDef">
                       <use xlink:href="#rim2" fill="#404040">
                               <set attributeName="fill" to="#808080" begin="reset.mouseover" end="reset.mouseout"/>
                       </use>
               </g>
        </defs>

<script type="text/javascript">
var viewWidth = 2794;
var viewHeight = 379;
var sectionId = 'dynsection-8';
</script>
<script xlink:href="../../svgpan.js"/>
<svg id="graph" class="graph">
<g id="viewport">
<title>nars.inference.BudgetFunctions.backwardWeak</title>
<!-- Node150 -->
<g id="node1" class="node"><title>Node150</title>
<polygon fill="#bfbfbf" stroke="black" points="0,-204 0,-223 225,-223 225,-204 0,-204"/>
<text text-anchor="middle" x="112.5" y="-211" font-family="Helvetica,sans-Serif" font-size="10.00">nars.inference.BudgetFunctions.backwardWeak</text>
</g>
<!-- Node151 -->
<g id="node2" class="node"><title>Node151</title>
<g id="a_node2"><a xlink:href="../../dc/ded/a00252.html#ab124c9151308789ed5f1e5562adeef96" target="_top" xlink:title="{&lt;M ==&gt; S&gt;, &lt;M ==&gt; P&gt;} |&#45; {&lt;S ==&gt; P&gt;, ">
<polygon fill="none" stroke="black" points="285,-340.5 285,-370.5 434,-370.5 434,-340.5 285,-340.5"/>
<text text-anchor="start" x="293" y="-358.5" font-family="Helvetica,sans-Serif" font-size="10.00">nars.inference.RuleTables.abd</text>
<text text-anchor="middle" x="359.5" y="-347.5" font-family="Helvetica,sans-Serif" font-size="10.00">IndCom</text>
</a>
</g>
</g>
<!-- Node150&#45;&gt;Node151 -->
<g id="edge1" class="edge"><title>Node150&#45;&gt;Node151</title>
<path fill="none" stroke="midnightblue" d="M129.877,-230.431C155.488,-255.928 207.637,-304.008 261,-330.5 268.748,-334.346 277.145,-337.64 285.65,-340.451"/>
<polygon fill="midnightblue" stroke="midnightblue" points="132.048,-227.649 122.526,-223.002 127.072,-232.573 132.048,-227.649"/>
</g>
<!-- Node163 -->
<g id="node14" class="node"><title>Node163</title>
<g id="a_node14"><a xlink:href="../../dd/dd7/a00260.html#a50197adbc4f3cd1f109fe4d3629cdf6c" target="_top" xlink:title="{&lt;S ==&gt; P&gt;, &lt;M &lt;=&gt; P&gt;} |&#45; &lt;S ==&gt; P&gt; ">
<polygon fill="none" stroke="black" points="523.5,-239.5 523.5,-269.5 649.5,-269.5 649.5,-239.5 523.5,-239.5"/>
<text text-anchor="start" x="531.5" y="-257.5" font-family="Helvetica,sans-Serif" font-size="10.00">nars.inference.Syllogistic</text>
<text text-anchor="middle" x="586.5" y="-246.5" font-family="Helvetica,sans-Serif" font-size="10.00">Rules.analogy</text>
</a>
</g>
</g>
<!-- Node150&#45;&gt;Node163 -->
<g id="edge13" class="edge"><title>Node150&#45;&gt;Node163</title>
<path fill="none" stroke="midnightblue" d="M232.945,-223.876C325.369,-231.904 449.64,-242.699 523.278,-249.095"/>
<polygon fill="midnightblue" stroke="midnightblue" points="233.238,-220.388 222.973,-223.009 232.632,-227.362 233.238,-220.388"/>
</g>
<!-- Node165 -->
<g id="node16" class="node"><title>Node165</title>
<g id="a_node16"><a xlink:href="../../dc/ded/a00252.html#ae7ff6eab9dca18af37064bc609eaf63c" target="_top" xlink:title="{&lt;(&amp;&amp;, S2, S3) ==&gt; P&gt;, &lt;(&amp;&amp;, S1, S3) ==&gt; P&gt;} |&#45; &lt;S1 ==&gt; S2&gt; ">
<polygon fill="none" stroke="black" points="261,-302 261,-321 458,-321 458,-302 261,-302"/>
<text text-anchor="middle" x="359.5" y="-309" font-family="Helvetica,sans-Serif" font-size="10.00">nars.inference.RuleTables.conditionalAbd</text>
</a>
</g>
</g>
<!-- Node150&#45;&gt;Node165 -->
<g id="edge16" class="edge"><title>Node150&#45;&gt;Node165</title>
<path fill="none" stroke="midnightblue" d="M136.6,-228.709C164.813,-246.6 214.531,-275.953 261,-292.5 271.723,-296.318 283.397,-299.43 294.819,-301.947"/>
<polygon fill="midnightblue" stroke="midnightblue" points="138.198,-225.576 127.893,-223.117 134.416,-231.466 138.198,-225.576"/>
</g>
<!-- Node166 -->
<g id="node17" class="node"><title>Node166</title>
<g id="a_node17"><a xlink:href="../../dc/ded/a00252.html#aac2b267fcfa9bb34e03d44a410bfd92b" target="_top" xlink:title="{&lt;(&amp;&amp;, S1, S2) &lt;=&gt; P&gt;, (&amp;&amp;, S1, S2)} |&#45; P ">
<polygon fill="none" stroke="black" points="715,-138 715,-157 912,-157 912,-138 715,-138"/>
<text text-anchor="middle" x="813.5" y="-145" font-family="Helvetica,sans-Serif" font-size="10.00">nars.inference.RuleTables.conditionalAna</text>
</a>
</g>
</g>
<!-- Node150&#45;&gt;Node166 -->
<g id="edge18" class="edge"><title>Node150&#45;&gt;Node166</title>
<path fill="none" stroke="midnightblue" d="M145.876,-200.344C175.34,-189.061 220.315,-173.545 261,-166.5 417.938,-139.325 603.629,-139.433 714.541,-142.848"/>
<polygon fill="midnightblue" stroke="midnightblue" points="144.558,-197.101 136.508,-203.99 147.096,-203.625 144.558,-197.101"/>
</g>
<!-- Node167 -->
<g id="node18" class="node"><title>Node167</title>
<g id="a_node18"><a xlink:href="../../dc/ded/a00252.html#a52bb3626302eb9f10567c24ec5dbc934" target="_top" xlink:title="{&lt;(&amp;&amp;, S1, S2, S3) ==&gt; P&gt;, S1} |&#45; &lt;(&amp;&amp;, S2, S3) ==&gt; P&gt; {&lt;(&amp;&amp;, S2, S3) ==&gt; P&gt;, &lt;S1 ==&gt; S2&gt;} |&#45; &lt;(&amp;&amp;...">
<polygon fill="none" stroke="black" points="723.5,-88.5 723.5,-118.5 903.5,-118.5 903.5,-88.5 723.5,-88.5"/>
<text text-anchor="start" x="731.5" y="-106.5" font-family="Helvetica,sans-Serif" font-size="10.00">nars.inference.RuleTables.conditional</text>
<text text-anchor="middle" x="813.5" y="-95.5" font-family="Helvetica,sans-Serif" font-size="10.00">DedInd</text>
</a>
</g>
</g>
<!-- Node150&#45;&gt;Node167 -->
<g id="edge20" class="edge"><title>Node150&#45;&gt;Node167</title>
<path fill="none" stroke="midnightblue" d="M137.443,-198.446C165.747,-181.506 214.852,-154.757 261,-142.5 419.867,-100.304 612.977,-97.1098 723.425,-99.6192"/>
<polygon fill="midnightblue" stroke="midnightblue" points="135.4,-195.592 128.676,-203.78 139.038,-201.572 135.4,-195.592"/>
</g>
<!-- Node169 -->
<g id="node20" class="node"><title>Node169</title>
<g id="a_node20"><a xlink:href="../../dc/ded/a00252.html#a25eeb7e192fb51fb7c1471e9af6489f4" target="_top" xlink:title="nars.inference.RuleTables.dedExe">
<polygon fill="none" stroke="black" points="276,-264 276,-283 443,-283 443,-264 276,-264"/>
<text text-anchor="middle" x="359.5" y="-271" font-family="Helvetica,sans-Serif" font-size="10.00">nars.inference.RuleTables.dedExe</text>
</a>
</g>
</g>
<!-- Node150&#45;&gt;Node169 -->
<g id="edge24" class="edge"><title>Node150&#45;&gt;Node169</title>
<path fill="none" stroke="midnightblue" d="M162.1,-225.402C208.253,-236.705 276.752,-253.48 319.456,-263.938"/>
<polygon fill="midnightblue" stroke="midnightblue" points="162.867,-221.986 152.321,-223.007 161.201,-228.785 162.867,-221.986"/>
</g>
<!-- Node170 -->
<g id="node21" class="node"><title>Node170</title>
<g id="a_node21"><a xlink:href="../../dc/ded/a00252.html#af34ec4e0da91e9422e25afd45af26559" target="_top" xlink:title="{(&amp;&amp;, &lt;#x() &#45;&#45;&gt; S&gt;, &lt;#x() &#45;&#45;&gt; P&gt;&gt;, &lt;M &#45;&#45;&gt; P&gt;} |&#45; &lt;M &#45;&#45;&gt; S&gt; ">
<polygon fill="none" stroke="black" points="509.5,-25.5 509.5,-55.5 663.5,-55.5 663.5,-25.5 509.5,-25.5"/>
<text text-anchor="start" x="517.5" y="-43.5" font-family="Helvetica,sans-Serif" font-size="10.00">nars.inference.RuleTables.elimi</text>
<text text-anchor="middle" x="586.5" y="-32.5" font-family="Helvetica,sans-Serif" font-size="10.00">VarDep</text>
</a>
</g>
</g>
<!-- Node150&#45;&gt;Node170 -->
<g id="edge26" class="edge"><title>Node150&#45;&gt;Node170</title>
<path fill="none" stroke="midnightblue" d="M128.4,-196.49C153.048,-169.571 205.162,-117.634 261,-92.5 340.733,-56.6104 441.292,-45.0554 509.17,-41.5615"/>
<polygon fill="midnightblue" stroke="midnightblue" points="125.744,-194.208 121.659,-203.984 130.949,-198.89 125.744,-194.208"/>
</g>
<!-- Node172 -->
<g id="node23" class="node"><title>Node172</title>
<g id="a_node23"><a xlink:href="../../dc/ded/a00252.html#aa57c06fe6fa6d3c396b196edaf631a92" target="_top" xlink:title="nars.inference.RuleTables.function\lBeggingToBeAsync">
<polygon fill="none" stroke="black" points="275.5,-176.5 275.5,-206.5 443.5,-206.5 443.5,-176.5 275.5,-176.5"/>
<text text-anchor="start" x="283.5" y="-194.5" font-family="Helvetica,sans-Serif" font-size="10.00">nars.inference.RuleTables.function</text>
<text text-anchor="middle" x="359.5" y="-183.5" font-family="Helvetica,sans-Serif" font-size="10.00">BeggingToBeAsync</text>
</a>
</g>
</g>
<!-- Node150&#45;&gt;Node172 -->
<g id="edge29" class="edge"><title>Node150&#45;&gt;Node172</title>
<path fill="none" stroke="midnightblue" d="M229.614,-203.073C244.996,-201.692 260.513,-200.299 275.191,-198.981"/>
<polygon fill="midnightblue" stroke="midnightblue" points="229.182,-199.598 219.536,-203.978 229.809,-206.57 229.182,-199.598"/>
</g>
<!-- Node152 -->
<g id="node3" class="node"><title>Node152</title>
<g id="a_node3"><a xlink:href="../../dc/ded/a00252.html#a34927349efcf87db97d23c60983b115b" target="_top" xlink:title="Syllogistic rules whose both premises are on the same asymmetric relation. ">
<polygon fill="none" stroke="black" points="494,-301.5 494,-331.5 679,-331.5 679,-301.5 494,-301.5"/>
<text text-anchor="start" x="502" y="-319.5" font-family="Helvetica,sans-Serif" font-size="10.00">nars.inference.RuleTables.asymmetric</text>
<text text-anchor="middle" x="586.5" y="-308.5" font-family="Helvetica,sans-Serif" font-size="10.00">Asymmetric</text>
</a>
</g>
</g>
<!-- Node151&#45;&gt;Node152 -->
<g id="edge2" class="edge"><title>Node151&#45;&gt;Node152</title>
<path fill="none" stroke="midnightblue" d="M444.475,-340.944C462.195,-337.873 480.926,-334.626 498.745,-331.537"/>
<polygon fill="midnightblue" stroke="midnightblue" points="443.429,-337.573 434.173,-342.73 444.624,-344.471 443.429,-337.573"/>
</g>
<!-- Node153 -->
<g id="node4" class="node"><title>Node153</title>
<g id="a_node4"><a xlink:href="../../dc/ded/a00252.html#a8628d400a8ceda7fea05039ddfea319b" target="_top" xlink:title="Meta&#45;table of syllogistic rules, indexed by the content classes of the taskSentence and the belief...">
<polygon fill="none" stroke="black" points="948,-244 948,-263 1128,-263 1128,-244 948,-244"/>
<text text-anchor="middle" x="1038" y="-251" font-family="Helvetica,sans-Serif" font-size="10.00">nars.inference.RuleTables.syllogisms</text>
</a>
</g>
</g>
<!-- Node152&#45;&gt;Node153 -->
<g id="edge3" class="edge"><title>Node152&#45;&gt;Node153</title>
<path fill="none" stroke="midnightblue" d="M689.273,-321.218C753.779,-322.055 838.593,-319.167 912,-303.5 951.545,-295.06 994.727,-275.193 1018.57,-263.198"/>
<polygon fill="midnightblue" stroke="midnightblue" points="689.155,-317.716 679.099,-321.053 689.041,-324.715 689.155,-317.716"/>
</g>
<!-- Node154 -->
<g id="node5" class="node"><title>Node154</title>
<g id="a_node5"><a xlink:href="../../dc/ded/a00252.html#ac2d01dfdc40bdd47c757cb549217e6e3" target="_top" xlink:title="Entry point of the inference engine. ">
<polygon fill="none" stroke="black" points="1164,-116 1164,-135 1327,-135 1327,-116 1164,-116"/>
<text text-anchor="middle" x="1245.5" y="-123" font-family="Helvetica,sans-Serif" font-size="10.00">nars.inference.RuleTables.reason</text>
</a>
</g>
</g>
<!-- Node153&#45;&gt;Node154 -->
<g id="edge4" class="edge"><title>Node153&#45;&gt;Node154</title>
<path fill="none" stroke="midnightblue" d="M1063.83,-238.624C1081.72,-227.853 1106.43,-212.895 1128,-199.5 1164.64,-176.75 1207.35,-149.408 1229.48,-135.178"/>
<polygon fill="midnightblue" stroke="midnightblue" points="1061.91,-235.693 1055.14,-243.844 1065.51,-241.693 1061.91,-235.693"/>
</g>
<!-- Node155 -->
<g id="node6" class="node"><title>Node155</title>
<g id="a_node6"><a xlink:href="../../d7/ded/a00196.html#ad6fb91dda799c3092ecb186ef24ca92a" target="_top" xlink:title="An atomic step in a concept, only called in Memory# processConcept. ">
<polygon fill="none" stroke="black" points="1363,-110.5 1363,-140.5 1482,-140.5 1482,-110.5 1363,-110.5"/>
<text text-anchor="start" x="1371" y="-128.5" font-family="Helvetica,sans-Serif" font-size="10.00">nars.entity.Concept.fire</text>
<text text-anchor="middle" x="1422.5" y="-117.5" font-family="Helvetica,sans-Serif" font-size="10.00">FromProcessConcept</text>
</a>
</g>
</g>
<!-- Node154&#45;&gt;Node155 -->
<g id="edge5" class="edge"><title>Node154&#45;&gt;Node155</title>
<path fill="none" stroke="midnightblue" d="M1337.25,-125.5C1345.91,-125.5 1354.52,-125.5 1362.76,-125.5"/>
<polygon fill="midnightblue" stroke="midnightblue" points="1337.09,-122 1327.09,-125.5 1337.08,-129 1337.09,-122"/>
</g>
<!-- Node156 -->
<g id="node7" class="node"><title>Node156</title>
<g id="a_node7"><a xlink:href="../../d4/d27/a00392.html#a0acc4adbf6a2462245da46bcb529746c" target="_top" xlink:title="Select a concept to fireFromProcessConcept. ">
<polygon fill="none" stroke="black" points="1518,-110.5 1518,-140.5 1664,-140.5 1664,-110.5 1518,-110.5"/>
<text text-anchor="start" x="1526" y="-128.5" font-family="Helvetica,sans-Serif" font-size="10.00">nars.storage.Memory.process</text>
<text text-anchor="middle" x="1591" y="-117.5" font-family="Helvetica,sans-Serif" font-size="10.00">Concept</text>
</a>
</g>
</g>
<!-- Node155&#45;&gt;Node156 -->
<g id="edge6" class="edge"><title>Node155&#45;&gt;Node156</title>
<path fill="none" stroke="midnightblue" d="M1492.34,-125.5C1500.75,-125.5 1509.36,-125.5 1517.82,-125.5"/>
<polygon fill="midnightblue" stroke="midnightblue" points="1492.2,-122 1482.2,-125.5 1492.2,-129 1492.2,-122"/>
</g>
<!-- Node157 -->
<g id="node8" class="node"><title>Node157</title>
<g id="a_node8"><a xlink:href="../../d4/d27/a00392.html#a59ae339d666409988d90d29be4f73a91" target="_top" xlink:title="An atomic working workCycle of the system: process new Tasks, then fireFromProcessConcept a concept...">
<polygon fill="none" stroke="black" points="1700,-110.5 1700,-140.5 1833,-140.5 1833,-110.5 1700,-110.5"/>
<text text-anchor="start" x="1708" y="-128.5" font-family="Helvetica,sans-Serif" font-size="10.00">nars.storage.Memory.work</text>
<text text-anchor="middle" x="1766.5" y="-117.5" font-family="Helvetica,sans-Serif" font-size="10.00">Cycle</text>
</a>
</g>
</g>
<!-- Node156&#45;&gt;Node157 -->
<g id="edge7" class="edge"><title>Node156&#45;&gt;Node157</title>
<path fill="none" stroke="midnightblue" d="M1674.12,-125.5C1682.72,-125.5 1691.37,-125.5 1699.76,-125.5"/>
<polygon fill="midnightblue" stroke="midnightblue" points="1674.07,-122 1664.07,-125.5 1674.07,-129 1674.07,-122"/>
</g>
<!-- Node158 -->
<g id="node9" class="node"><title>Node158</title>
<g id="a_node9"><a xlink:href="../../df/d15/a00416.html#a0d5c797dc17d9e8d0998852915e0f303" target="_top" xlink:title="nars.storage.ReasonerBatch.doTick">
<polygon fill="none" stroke="black" points="1869,-116 1869,-135 2042,-135 2042,-116 1869,-116"/>
<text text-anchor="middle" x="1955.5" y="-123" font-family="Helvetica,sans-Serif" font-size="10.00">nars.storage.ReasonerBatch.doTick</text>
</a>
</g>
</g>
<!-- Node157&#45;&gt;Node158 -->
<g id="edge8" class="edge"><title>Node157&#45;&gt;Node158</title>
<path fill="none" stroke="midnightblue" d="M1843.34,-125.5C1851.78,-125.5 1860.42,-125.5 1868.97,-125.5"/>
<polygon fill="midnightblue" stroke="midnightblue" points="1843.17,-122 1833.17,-125.5 1843.17,-129 1843.17,-122"/>
</g>
<!-- Node159 -->
<g id="node10" class="node"><title>Node159</title>
<g id="a_node10"><a xlink:href="../../df/d15/a00416.html#a3468aa0f99edcd66412f27922dddb880" target="_top" xlink:title="A clock tick. ">
<polygon fill="none" stroke="black" points="2078,-116 2078,-135 2238,-135 2238,-116 2078,-116"/>
<text text-anchor="middle" x="2158" y="-123" font-family="Helvetica,sans-Serif" font-size="10.00">nars.storage.ReasonerBatch.tick</text>
</a>
</g>
</g>
<!-- Node158&#45;&gt;Node159 -->
<g id="edge9" class="edge"><title>Node158&#45;&gt;Node159</title>
<path fill="none" stroke="midnightblue" d="M2052.13,-125.5C2060.7,-125.5 2069.31,-125.5 2077.71,-125.5"/>
<polygon fill="midnightblue" stroke="midnightblue" points="2052.11,-122 2042.11,-125.5 2052.11,-129 2052.11,-122"/>
</g>
<!-- Node160 -->
<g id="node11" class="node"><title>Node160</title>
<g id="a_node11"><a xlink:href="../../d9/da1/a00396.html#a5d9cfe517bcfbe41e5251910bcd119c1" target="_top" xlink:title="Run to completion: repeatedly execute NARS working cycle, until Inputs are Finished, or 1000 steps. ">
<polygon fill="none" stroke="black" points="2274,-116 2274,-135 2418,-135 2418,-116 2274,-116"/>
<text text-anchor="middle" x="2346" y="-123" font-family="Helvetica,sans-Serif" font-size="10.00">nars.storage.NARSBatch.run</text>
</a>
</g>
</g>
<!-- Node159&#45;&gt;Node160 -->
<g id="edge10" class="edge"><title>Node159&#45;&gt;Node160</title>
<path fill="none" stroke="midnightblue" d="M2248.22,-125.5C2256.82,-125.5 2265.47,-125.5 2273.87,-125.5"/>
<polygon fill="midnightblue" stroke="midnightblue" points="2248.15,-122 2238.15,-125.5 2248.15,-129 2248.15,-122"/>
</g>
<!-- Node161 -->
<g id="node12" class="node"><title>Node161</title>
<g id="a_node12"><a xlink:href="../../d9/da1/a00396.html#a7c307c6b842f82664de6b0e52bdf8efc" target="_top" xlink:title="non&#45;static equivalent to main(String[]) : run to completion from an input file ">
<polygon fill="none" stroke="black" points="2454,-110.5 2454,-140.5 2598,-140.5 2598,-110.5 2454,-110.5"/>
<text text-anchor="start" x="2462" y="-128.5" font-family="Helvetica,sans-Serif" font-size="10.00">nars.storage.NARSBatch.run</text>
<text text-anchor="middle" x="2526" y="-117.5" font-family="Helvetica,sans-Serif" font-size="10.00">Inference</text>
</a>
</g>
</g>
<!-- Node160&#45;&gt;Node161 -->
<g id="edge11" class="edge"><title>Node160&#45;&gt;Node161</title>
<path fill="none" stroke="midnightblue" d="M2428.17,-125.5C2436.79,-125.5 2445.51,-125.5 2454,-125.5"/>
<polygon fill="midnightblue" stroke="midnightblue" points="2428.12,-122 2418.12,-125.5 2428.12,-129 2428.12,-122"/>
</g>
<!-- Node162 -->
<g id="node13" class="node"><title>Node162</title>
<g id="a_node13"><a xlink:href="../../d9/da1/a00396.html#abafc597289bc2f6453b5cd0dd6634e54" target="_top" xlink:title="The entry point of the standalone application. ">
<polygon fill="none" stroke="black" points="2634,-116 2634,-135 2786,-135 2786,-116 2634,-116"/>
<text text-anchor="middle" x="2710" y="-123" font-family="Helvetica,sans-Serif" font-size="10.00">nars.storage.NARSBatch.main</text>
</a>
</g>
</g>
<!-- Node161&#45;&gt;Node162 -->
<g id="edge12" class="edge"><title>Node161&#45;&gt;Node162</title>
<path fill="none" stroke="midnightblue" d="M2608.17,-125.5C2616.76,-125.5 2625.48,-125.5 2634,-125.5"/>
<polygon fill="midnightblue" stroke="midnightblue" points="2608.15,-122 2598.15,-125.5 2608.15,-129 2608.15,-122"/>
</g>
<!-- Node164 -->
<g id="node15" class="node"><title>Node164</title>
<g id="a_node15"><a xlink:href="../../dc/ded/a00252.html#a4f61a7c2dc75c9da475030894eac0735" target="_top" xlink:title="Syllogistic rules whose first premise is on an asymmetric relation, and the second on a symmetric rel...">
<polygon fill="none" stroke="black" points="721,-263.5 721,-293.5 906,-293.5 906,-263.5 721,-263.5"/>
<text text-anchor="start" x="729" y="-281.5" font-family="Helvetica,sans-Serif" font-size="10.00">nars.inference.RuleTables.asymmetric</text>
<text text-anchor="middle" x="813.5" y="-270.5" font-family="Helvetica,sans-Serif" font-size="10.00">Symmetric</text>
</a>
</g>
</g>
<!-- Node163&#45;&gt;Node164 -->
<g id="edge14" class="edge"><title>Node163&#45;&gt;Node164</title>
<path fill="none" stroke="midnightblue" d="M659.566,-262.187C679.02,-264.262 700.334,-266.536 720.709,-268.709"/>
<polygon fill="midnightblue" stroke="midnightblue" points="659.893,-258.702 649.578,-261.122 659.15,-265.663 659.893,-258.702"/>
</g>
<!-- Node164&#45;&gt;Node153 -->
<g id="edge15" class="edge"><title>Node164&#45;&gt;Node153</title>
<path fill="none" stroke="midnightblue" d="M916.32,-267.06C928.324,-265.711 940.476,-264.345 952.21,-263.027"/>
<polygon fill="midnightblue" stroke="midnightblue" points="915.83,-263.592 906.284,-268.187 916.612,-270.549 915.83,-263.592"/>
</g>
<!-- Node165&#45;&gt;Node152 -->
<g id="edge17" class="edge"><title>Node165&#45;&gt;Node152</title>
<path fill="none" stroke="midnightblue" d="M468.254,-313.895C476.838,-314.085 485.458,-314.277 493.915,-314.465"/>
<polygon fill="midnightblue" stroke="midnightblue" points="468.282,-310.394 458.207,-313.671 468.126,-317.393 468.282,-310.394"/>
</g>
<!-- Node166&#45;&gt;Node154 -->
<g id="edge19" class="edge"><title>Node166&#45;&gt;Node154</title>
<path fill="none" stroke="midnightblue" d="M922.491,-141.975C997.455,-138.14 1095.71,-133.112 1163.88,-129.625"/>
<polygon fill="midnightblue" stroke="midnightblue" points="921.882,-138.501 912.074,-142.508 922.239,-145.492 921.882,-138.501"/>
</g>
<!-- Node167&#45;&gt;Node154 -->
<g id="edge21" class="edge"><title>Node167&#45;&gt;Node154</title>
<path fill="none" stroke="midnightblue" d="M888.101,-86.5001C952.035,-74.3714 1046.85,-62.7476 1128,-78.5 1164.83,-85.6483 1204.76,-104.408 1227,-115.949"/>
<polygon fill="midnightblue" stroke="midnightblue" points="887.258,-83.0985 878.112,-88.4469 888.597,-89.9692 887.258,-83.0985"/>
</g>
<!-- Node168 -->
<g id="node19" class="node"><title>Node168</title>
<g id="a_node19"><a xlink:href="../../dc/ded/a00252.html#aa167c7cb73f540ded591dc584ae623c1" target="_top" xlink:title="Conditional deduction or induction, with variable unification. ">
<polygon fill="none" stroke="black" points="948,-88.5 948,-118.5 1128,-118.5 1128,-88.5 948,-88.5"/>
<text text-anchor="start" x="956" y="-106.5" font-family="Helvetica,sans-Serif" font-size="10.00">nars.inference.RuleTables.conditional</text>
<text text-anchor="middle" x="1038" y="-95.5" font-family="Helvetica,sans-Serif" font-size="10.00">DedIndWithVar</text>
</a>
</g>
</g>
<!-- Node167&#45;&gt;Node168 -->
<g id="edge22" class="edge"><title>Node167&#45;&gt;Node168</title>
<path fill="none" stroke="midnightblue" d="M913.991,-103.5C925.242,-103.5 936.655,-103.5 947.763,-103.5"/>
<polygon fill="midnightblue" stroke="midnightblue" points="913.717,-100 903.717,-103.5 913.717,-107 913.717,-100"/>
</g>
<!-- Node168&#45;&gt;Node154 -->
<g id="edge23" class="edge"><title>Node168&#45;&gt;Node154</title>
<path fill="none" stroke="midnightblue" d="M1138.24,-114.125C1146.79,-115.04 1155.37,-115.958 1163.75,-116.855"/>
<polygon fill="midnightblue" stroke="midnightblue" points="1138.55,-110.638 1128.24,-113.054 1137.81,-117.598 1138.55,-110.638"/>
</g>
<!-- Node169&#45;&gt;Node152 -->
<g id="edge25" class="edge"><title>Node169&#45;&gt;Node152</title>
<path fill="none" stroke="midnightblue" d="M420.353,-284.938C446.921,-290.016 478.547,-296.06 506.979,-301.494"/>
<polygon fill="midnightblue" stroke="midnightblue" points="420.914,-281.483 410.435,-283.043 419.6,-288.358 420.914,-281.483"/>
</g>
<!-- Node171 -->
<g id="node22" class="node"><title>Node171</title>
<g id="a_node22"><a xlink:href="../../dc/ded/a00252.html#a54a7ceba4f123db5035e3b85063c91f1" target="_top" xlink:title="Inference between a compound term and a statement. ">
<polygon fill="none" stroke="black" points="948.5,-0.5 948.5,-30.5 1127.5,-30.5 1127.5,-0.5 948.5,-0.5"/>
<text text-anchor="start" x="956.5" y="-18.5" font-family="Helvetica,sans-Serif" font-size="10.00">nars.inference.RuleTables.compound</text>
<text text-anchor="middle" x="1038" y="-7.5" font-family="Helvetica,sans-Serif" font-size="10.00">AndStatement</text>
</a>
</g>
</g>
<!-- Node170&#45;&gt;Node171 -->
<g id="edge27" class="edge"><title>Node170&#45;&gt;Node171</title>
<path fill="none" stroke="midnightblue" d="M674.144,-35.6811C753.009,-31.2948 868.925,-24.8479 948.397,-20.4279"/>
<polygon fill="midnightblue" stroke="midnightblue" points="673.542,-32.2091 663.752,-36.2591 673.931,-39.1983 673.542,-32.2091"/>
</g>
<!-- Node171&#45;&gt;Node154 -->
<g id="edge28" class="edge"><title>Node171&#45;&gt;Node154</title>
<path fill="none" stroke="midnightblue" d="M1101.23,-34.0106C1110.38,-37.4351 1119.56,-41.2804 1128,-45.5 1169.26,-66.1193 1212.75,-99.5985 1232.94,-115.93"/>
<polygon fill="midnightblue" stroke="midnightblue" points="1102.34,-30.6893 1091.75,-30.5961 1099.97,-37.2757 1102.34,-30.6893"/>
</g>
<!-- Node173 -->
<g id="node24" class="node"><title>Node173</title>
<g id="a_node24"><a xlink:href="../../dc/ded/a00252.html#acacd7cd6f866a576bfad37e0003df853" target="_top" xlink:title="{&lt;&lt;M &#45;&#45;&gt; S&gt; ==&gt; &lt;M &#45;&#45;&gt; P&gt;&gt;, &lt;M &#45;&#45;&gt; S&gt;} |&#45; &lt;M &#45;&#45;&gt; P&gt; {&lt;&lt;M &#45;&#45;&gt; S&gt; ==&gt; &lt;M &#45;&#45;&gt; P&gt;&gt;, &lt;M &#45;&#45;&gt; P&gt;} |&#45; &lt;M &#45;&#45;&gt; ...">
<polygon fill="none" stroke="black" points="494,-182 494,-201 679,-201 679,-182 494,-182"/>
<text text-anchor="middle" x="586.5" y="-189" font-family="Helvetica,sans-Serif" font-size="10.00">nars.inference.RuleTables.detachment</text>
</a>
</g>
</g>
<!-- Node172&#45;&gt;Node173 -->
<g id="edge30" class="edge"><title>Node172&#45;&gt;Node173</title>
<path fill="none" stroke="midnightblue" d="M453.734,-191.5C467.041,-191.5 480.719,-191.5 493.993,-191.5"/>
<polygon fill="midnightblue" stroke="midnightblue" points="453.642,-188 443.642,-191.5 453.642,-195 453.642,-188"/>
</g>
<!-- Node173&#45;&gt;Node154 -->
<g id="edge31" class="edge"><title>Node173&#45;&gt;Node154</title>
<path fill="none" stroke="midnightblue" d="M689.247,-187.901C798.231,-183.086 976.039,-172.465 1128,-150.5 1154.41,-146.683 1183.79,-140.364 1206.43,-135.035"/>
<polygon fill="midnightblue" stroke="midnightblue" points="689.083,-184.404 679.244,-188.335 689.387,-191.398 689.083,-184.404"/>
</g>
<!-- Node174 -->
<g id="node25" class="node"><title>Node174</title>
<g id="a_node25"><a xlink:href="../../dc/ded/a00252.html#af6c973743270b2739d4ad25f16975da1" target="_top" xlink:title="The detachment rule, with variable unification. ">
<polygon fill="none" stroke="black" points="721,-214.5 721,-244.5 906,-244.5 906,-214.5 721,-214.5"/>
<text text-anchor="start" x="729" y="-232.5" font-family="Helvetica,sans-Serif" font-size="10.00">nars.inference.RuleTables.detachment</text>
<text text-anchor="middle" x="813.5" y="-221.5" font-family="Helvetica,sans-Serif" font-size="10.00">WithVar</text>
</a>
</g>
</g>
<!-- Node173&#45;&gt;Node174 -->
<g id="edge32" class="edge"><title>Node173&#45;&gt;Node174</title>
<path fill="none" stroke="midnightblue" d="M654.105,-202.749C675.876,-206.426 700.414,-210.57 723.56,-214.479"/>
<polygon fill="midnightblue" stroke="midnightblue" points="654.43,-199.254 643.987,-201.04 653.264,-206.156 654.43,-199.254"/>
</g>
<!-- Node174&#45;&gt;Node153 -->
<g id="edge33" class="edge"><title>Node174&#45;&gt;Node153</title>
<path fill="none" stroke="midnightblue" d="M916.522,-240.505C927.25,-241.662 938.094,-242.831 948.65,-243.97"/>
<polygon fill="midnightblue" stroke="midnightblue" points="916.602,-236.993 906.284,-239.4 915.851,-243.953 916.602,-236.993"/>
</g>
</g>
</svg>
        <g id="navigator" transform="translate(0 0)" fill="#404254">
                <rect fill="#f2f5e9" fill-opacity="0.5" stroke="#606060" stroke-width=".5" x="0" y="0" width="60" height="60"/>
                <use id="zoomplus" xlink:href="#zoomPlus" x="17" y="9" onmousedown="handleZoom(evt,'in')"/>
                <use id="zoomminus" xlink:href="#zoomMin" x="42" y="9" onmousedown="handleZoom(evt,'out')"/>
                <use id="reset" xlink:href="#resetDef" x="30" y="36" onmousedown="handleReset()"/>
                <g id="arrowUp" xlink:href="#dirArrow" transform="translate(30 24)" onmousedown="handlePan(0,-1)">
                  <use xlink:href="#rim" fill="#404040">
                        <set attributeName="fill" to="#808080" begin="arrowUp.mouseover" end="arrowUp.mouseout"/>
                  </use>
                  <path fill="none" stroke="white" stroke-width="1.5" d="M0,-3.0v7 M-2.5,-0.5L0,-3.0L2.5,-0.5"/>
                </g>
                <g id="arrowRight" xlink:href="#dirArrow" transform="rotate(90) translate(36 -43)" onmousedown="handlePan(1,0)">
                  <use xlink:href="#rim" fill="#404040">
                        <set attributeName="fill" to="#808080" begin="arrowRight.mouseover" end="arrowRight.mouseout"/>
                  </use>
                  <path fill="none" stroke="white" stroke-width="1.5" d="M0,-3.0v7 M-2.5,-0.5L0,-3.0L2.5,-0.5"/>
                </g>
                <g id="arrowDown" xlink:href="#dirArrow" transform="rotate(180) translate(-30 -48)" onmousedown="handlePan(0,1)">
                  <use xlink:href="#rim" fill="#404040">
                        <set attributeName="fill" to="#808080" begin="arrowDown.mouseover" end="arrowDown.mouseout"/>
                  </use>
                  <path fill="none" stroke="white" stroke-width="1.5" d="M0,-3.0v7 M-2.5,-0.5L0,-3.0L2.5,-0.5"/>
                </g>
                <g id="arrowLeft" xlink:href="#dirArrow" transform="rotate(270) translate(-36 17)" onmousedown="handlePan(-1,0)">
                  <use xlink:href="#rim" fill="#404040">
                        <set attributeName="fill" to="#808080" begin="arrowLeft.mouseover" end="arrowLeft.mouseout"/>
                  </use>
                  <path fill="none" stroke="white" stroke-width="1.5" d="M0,-3.0v7 M-2.5,-0.5L0,-3.0L2.5,-0.5"/>
                </g>
        </g>
        <svg viewBox="0 0 15 15" width="100%" height="30px" preserveAspectRatio="xMaxYMin meet">
         <g id="arrow_out" transform="scale(0.3 0.3)">
          <a xlink:href="a00240_a977c61dd8a64c4128052c6d5f69f47d3_icgraph_org.svg" target="_base">
           <rect id="button" ry="5" rx="5" y="6" x="6" height="38" width="38"
                fill="#f2f5e9" fill-opacity="0.5" stroke="#606060" stroke-width="1.0"/>
           <path id="arrow"
             d="M 11.500037,31.436501 C 11.940474,20.09759 22.043105,11.32322 32.158766,21.979434 L 37.068811,17.246167 C 37.068811,17.246167 37.088388,32 37.088388,32 L 22.160133,31.978069 C 22.160133,31.978069 26.997745,27.140456 26.997745,27.140456 C 18.528582,18.264221 13.291696,25.230495 11.500037,31.436501 z"
             style="fill:#404040;"/>
          </a>
         </g>
        </svg>
</svg>
