<?xml version="1.0" encoding="UTF-8" standalone="no"?>
<!DOCTYPE svg PUBLIC "-//W3C//DTD SVG 1.1//EN"
 "http://www.w3.org/Graphics/SVG/1.1/DTD/svg11.dtd">
<!-- Generated by graphviz version 2.38.0 (20140413.2041)
 -->
<!-- Title: nars.inference.BudgetFunctions.compoundBackwardWeak Pages: 1 -->
<svg width="1025pt" height="383pt"
 viewBox="0.00 0.00 1025.00 382.50" xmlns="http://www.w3.org/2000/svg" xmlns:xlink="http://www.w3.org/1999/xlink">
<g id="graph0" class="graph" transform="scale(1 1) rotate(0) translate(4 378.5)">
<title>nars.inference.BudgetFunctions.compoundBackwardWeak</title>
<!-- Node256 -->
<g id="node1" class="node"><title>Node256</title>
<polygon fill="#bfbfbf" stroke="black" points="0,-136.5 0,-166.5 203,-166.5 203,-136.5 0,-136.5"/>
<text text-anchor="start" x="8" y="-154.5" font-family="Helvetica,sans-Serif" font-size="10.00">nars.inference.BudgetFunctions.compound</text>
<text text-anchor="middle" x="101.5" y="-143.5" font-family="Helvetica,sans-Serif" font-size="10.00">BackwardWeak</text>
</g>
<!-- Node257 -->
<g id="node2" class="node"><title>Node257</title>
<g id="a_node2"><a xlink:href="../../d9/d21/a00240.html#a6c45e643d143a28d7514f3487fbfa494" target="_top" xlink:title="Common processing for all inference step. ">
<polygon fill="none" stroke="black" points="239,-180.5 239,-210.5 426,-210.5 426,-180.5 239,-180.5"/>
<text text-anchor="start" x="247" y="-198.5" font-family="Helvetica,sans-Serif" font-size="10.00">nars.inference.BudgetFunctions.budget</text>
<text text-anchor="middle" x="332.5" y="-187.5" font-family="Helvetica,sans-Serif" font-size="10.00">Inference</text>
</a>
</g>
</g>
<!-- Node256&#45;&gt;Node257 -->
<g id="edge1" class="edge"><title>Node256&#45;&gt;Node257</title>
<path fill="none" stroke="midnightblue" d="M180.668,-166.519C200.822,-170.392 222.652,-174.586 243.279,-178.549"/>
<polygon fill="midnightblue" stroke="midnightblue" points="242.815,-182.024 253.295,-180.474 244.135,-175.15 242.815,-182.024"/>
</g>
<!-- Node271 -->
<g id="node16" class="node"><title>Node271</title>
<g id="a_node16"><a xlink:href="../../dc/d59/a00364.html#ae14632d1d25bcde8d6698ea0b58eb19a" target="_top" xlink:title="The syntactic complexity, for constant automic Term, is 1. ">
<polygon fill="none" stroke="black" points="248,-142 248,-161 417,-161 417,-142 248,-142"/>
<text text-anchor="middle" x="332.5" y="-149" font-family="Helvetica,sans-Serif" font-size="10.00">nars.language.Term.getComplexity</text>
</a>
</g>
</g>
<!-- Node256&#45;&gt;Node271 -->
<g id="edge17" class="edge"><title>Node256&#45;&gt;Node271</title>
<path fill="none" stroke="midnightblue" d="M203.276,-151.5C214.668,-151.5 226.244,-151.5 237.544,-151.5"/>
<polygon fill="midnightblue" stroke="midnightblue" points="237.831,-155 247.831,-151.5 237.831,-148 237.831,-155"/>
</g>
<!-- Node272 -->
<g id="node17" class="node"><title>Node272</title>
<g id="a_node17"><a xlink:href="../../db/d12/a00268.html#a957a91e3b91d4a4043c3959838c370f2" target="_top" xlink:title="A function to convert weight to confidence. ">
<polygon fill="none" stroke="black" points="247.5,-104 247.5,-123 417.5,-123 417.5,-104 247.5,-104"/>
<text text-anchor="middle" x="332.5" y="-111" font-family="Helvetica,sans-Serif" font-size="10.00">nars.inference.UtilityFunctions.w2c</text>
</a>
</g>
</g>
<!-- Node256&#45;&gt;Node272 -->
<g id="edge18" class="edge"><title>Node256&#45;&gt;Node272</title>
<path fill="none" stroke="midnightblue" d="M193.007,-136.481C216.75,-132.542 241.933,-128.363 264.223,-124.664"/>
<polygon fill="midnightblue" stroke="midnightblue" points="264.952,-128.091 274.244,-123.001 263.806,-121.185 264.952,-128.091"/>
</g>
<!-- Node258 -->
<g id="node3" class="node"><title>Node258</title>
<g id="a_node3"><a xlink:href="../../db/d12/a00268.html#a46d2f048b6ba77afc60dcf49734f23c7" target="_top" xlink:title="A function where the output is conjunctively determined by the inputs. ">
<polygon fill="none" stroke="black" points="470.5,-355 470.5,-374 638.5,-374 638.5,-355 470.5,-355"/>
<text text-anchor="middle" x="554.5" y="-362" font-family="Helvetica,sans-Serif" font-size="10.00">nars.inference.UtilityFunctions.and</text>
</a>
</g>
</g>
<!-- Node257&#45;&gt;Node258 -->
<g id="edge2" class="edge"><title>Node257&#45;&gt;Node258</title>
<path fill="none" stroke="midnightblue" d="M341.831,-210.723C359.551,-241.549 404.133,-311.315 462,-345.5 465.693,-347.682 469.599,-349.615 473.635,-351.329"/>
<polygon fill="midnightblue" stroke="midnightblue" points="472.656,-354.7 483.248,-354.941 475.118,-348.147 472.656,-354.7"/>
</g>
<!-- Node259 -->
<g id="node4" class="node"><title>Node259</title>
<g id="a_node4"><a xlink:href="../../d9/d21/a00240.html#a5df1e2954d5ce62f08cbd4be287ddaba" target="_top" xlink:title="A function where the output is the arithmetic average the inputs. ">
<polygon fill="none" stroke="black" points="462,-317 462,-336 647,-336 647,-317 462,-317"/>
<text text-anchor="middle" x="554.5" y="-324" font-family="Helvetica,sans-Serif" font-size="10.00">nars.inference.BudgetFunctions.aveAri</text>
</a>
</g>
</g>
<!-- Node257&#45;&gt;Node259 -->
<g id="edge3" class="edge"><title>Node257&#45;&gt;Node259</title>
<path fill="none" stroke="midnightblue" d="M346.01,-210.552C367.204,-234.99 412.698,-283.023 462,-307.5 466.905,-309.935 472.106,-312.058 477.441,-313.909"/>
<polygon fill="midnightblue" stroke="midnightblue" points="476.565,-317.302 487.154,-316.957 478.66,-310.623 476.565,-317.302"/>
</g>
<!-- Node260 -->
<g id="node5" class="node"><title>Node260</title>
<g id="a_node5"><a xlink:href="../../dc/d31/a00208.html#a54fc0a370b847dd77c0a698c765e6e55" target="_top" xlink:title="The budget of the Item, consisting of 3 numbers. ">
<polygon fill="none" stroke="black" points="685.5,-99 685.5,-118 817.5,-118 817.5,-99 685.5,-99"/>
<text text-anchor="middle" x="751.5" y="-106" font-family="Helvetica,sans-Serif" font-size="10.00">nars.entity.Item.getBudget</text>
</a>
</g>
</g>
<!-- Node257&#45;&gt;Node260 -->
<g id="edge4" class="edge"><title>Node257&#45;&gt;Node260</title>
<path fill="none" stroke="midnightblue" d="M407.735,-180.374C414.176,-177.615 420.373,-174.354 426,-170.5 448.295,-155.229 438.17,-134.244 462,-121.5 534.722,-82.6084 633.095,-88.3271 694.134,-97.3858"/>
<polygon fill="midnightblue" stroke="midnightblue" points="693.92,-100.895 704.341,-98.9836 695.003,-93.979 693.92,-100.895"/>
</g>
<!-- Node261 -->
<g id="node6" class="node"><title>Node261</title>
<g id="a_node6"><a xlink:href="../../d9/dd5/a00432.html#a672e3b935dca6df8c7e47c6c69e0fc66" target="_top" xlink:title="nars.storage.WorkSpace.get\lCurrentBeliefLink">
<polygon fill="none" stroke="black" points="484,-229.5 484,-259.5 625,-259.5 625,-229.5 484,-229.5"/>
<text text-anchor="start" x="492" y="-247.5" font-family="Helvetica,sans-Serif" font-size="10.00">nars.storage.WorkSpace.get</text>
<text text-anchor="middle" x="554.5" y="-236.5" font-family="Helvetica,sans-Serif" font-size="10.00">CurrentBeliefLink</text>
</a>
</g>
</g>
<!-- Node257&#45;&gt;Node261 -->
<g id="edge5" class="edge"><title>Node257&#45;&gt;Node261</title>
<path fill="none" stroke="midnightblue" d="M401.002,-210.535C424.759,-215.826 451.641,-221.813 476.146,-227.271"/>
<polygon fill="midnightblue" stroke="midnightblue" points="475.604,-230.736 486.125,-229.494 477.125,-223.903 475.604,-230.736"/>
</g>
<!-- Node262 -->
<g id="node7" class="node"><title>Node262</title>
<g id="a_node7"><a xlink:href="../../d9/dd5/a00432.html#aefcc9dfcebdc79cd7e099afd4553b083" target="_top" xlink:title="nars.storage.WorkSpace.get\lCurrentTask">
<polygon fill="none" stroke="black" points="484,-180.5 484,-210.5 625,-210.5 625,-180.5 484,-180.5"/>
<text text-anchor="start" x="492" y="-198.5" font-family="Helvetica,sans-Serif" font-size="10.00">nars.storage.WorkSpace.get</text>
<text text-anchor="middle" x="554.5" y="-187.5" font-family="Helvetica,sans-Serif" font-size="10.00">CurrentTask</text>
</a>
</g>
</g>
<!-- Node257&#45;&gt;Node262 -->
<g id="edge6" class="edge"><title>Node257&#45;&gt;Node262</title>
<path fill="none" stroke="midnightblue" d="M426.162,-195.5C441.96,-195.5 458.248,-195.5 473.677,-195.5"/>
<polygon fill="midnightblue" stroke="midnightblue" points="473.678,-199 483.678,-195.5 473.678,-192 473.678,-199"/>
</g>
<!-- Node263 -->
<g id="node8" class="node"><title>Node263</title>
<g id="a_node8"><a xlink:href="../../d9/dd5/a00432.html#a585409e59ebb973c820683bc556ebe37" target="_top" xlink:title="nars.storage.WorkSpace.get\lCurrentTaskLink">
<polygon fill="none" stroke="black" points="484,-131.5 484,-161.5 625,-161.5 625,-131.5 484,-131.5"/>
<text text-anchor="start" x="492" y="-149.5" font-family="Helvetica,sans-Serif" font-size="10.00">nars.storage.WorkSpace.get</text>
<text text-anchor="middle" x="554.5" y="-138.5" font-family="Helvetica,sans-Serif" font-size="10.00">CurrentTaskLink</text>
</a>
</g>
</g>
<!-- Node257&#45;&gt;Node263 -->
<g id="edge7" class="edge"><title>Node257&#45;&gt;Node263</title>
<path fill="none" stroke="midnightblue" d="M401.002,-180.465C424.759,-175.174 451.641,-169.187 476.146,-163.729"/>
<polygon fill="midnightblue" stroke="midnightblue" points="477.125,-167.097 486.125,-161.506 475.604,-160.264 477.125,-167.097"/>
</g>
<!-- Node264 -->
<g id="node9" class="node"><title>Node264</title>
<g id="a_node9"><a xlink:href="../../dc/d31/a00208.html#adbb21c1891722e30c1d6cfaf5fee18ee" target="_top" xlink:title="Get durability value. ">
<polygon fill="none" stroke="black" points="483,-279 483,-298 626,-298 626,-279 483,-279"/>
<text text-anchor="middle" x="554.5" y="-286" font-family="Helvetica,sans-Serif" font-size="10.00">nars.entity.Item.getDurability</text>
</a>
</g>
</g>
<!-- Node257&#45;&gt;Node264 -->
<g id="edge8" class="edge"><title>Node257&#45;&gt;Node264</title>
<path fill="none" stroke="midnightblue" d="M355.232,-210.573C380.005,-227.09 422.228,-253.261 462,-268.5 470.053,-271.586 478.697,-274.251 487.342,-276.539"/>
<polygon fill="midnightblue" stroke="midnightblue" points="486.52,-279.941 497.07,-278.962 488.213,-273.149 486.52,-279.941"/>
</g>
<!-- Node266 -->
<g id="node11" class="node"><title>Node266</title>
<g id="a_node11"><a xlink:href="../../dc/d31/a00208.html#a97b35888ceaad90e7a428701051c51d7" target="_top" xlink:title="Get priority value. ">
<polygon fill="none" stroke="black" points="488.5,-55 488.5,-74 620.5,-74 620.5,-55 488.5,-55"/>
<text text-anchor="middle" x="554.5" y="-62" font-family="Helvetica,sans-Serif" font-size="10.00">nars.entity.Item.getPriority</text>
</a>
</g>
</g>
<!-- Node257&#45;&gt;Node266 -->
<g id="edge11" class="edge"><title>Node257&#45;&gt;Node266</title>
<path fill="none" stroke="midnightblue" d="M410.969,-180.498C416.369,-177.708 421.461,-174.406 426,-170.5 456.17,-144.54 431.733,-114.348 462,-88.5 467.118,-84.129 472.943,-80.5423 479.117,-77.601"/>
<polygon fill="midnightblue" stroke="midnightblue" points="480.491,-80.8202 488.37,-73.7372 477.793,-74.3607 480.491,-80.8202"/>
</g>
<!-- Node268 -->
<g id="node13" class="node"><title>Node268</title>
<g id="a_node13"><a xlink:href="../../dc/d31/a00208.html#a786a1e14b3904092f4a3b2fa4faa08a7" target="_top" xlink:title="Increase priority value. ">
<polygon fill="none" stroke="black" points="489,-12 489,-31 620,-31 620,-12 489,-12"/>
<text text-anchor="middle" x="554.5" y="-19" font-family="Helvetica,sans-Serif" font-size="10.00">nars.entity.Item.incPriority</text>
</a>
</g>
</g>
<!-- Node257&#45;&gt;Node268 -->
<g id="edge14" class="edge"><title>Node257&#45;&gt;Node268</title>
<path fill="none" stroke="midnightblue" d="M412.876,-180.403C417.645,-177.622 422.086,-174.35 426,-170.5 467.215,-129.957 420.634,-85.8891 462,-45.5 467.053,-40.5666 472.99,-36.6133 479.371,-33.4502"/>
<polygon fill="midnightblue" stroke="midnightblue" points="481.156,-36.4946 488.987,-29.3591 478.415,-30.0532 481.156,-36.4946"/>
</g>
<!-- Node264&#45;&gt;Node260 -->
<g id="edge9" class="edge"><title>Node264&#45;&gt;Node260</title>
<path fill="none" stroke="midnightblue" d="M626.319,-278.978C633.659,-276.281 640.718,-272.852 647,-268.5 698.53,-232.798 730.482,-162.285 743.607,-128.057"/>
<polygon fill="midnightblue" stroke="midnightblue" points="747.026,-128.902 747.207,-118.309 740.459,-126.477 747.026,-128.902"/>
</g>
<!-- Node265 -->
<g id="node10" class="node"><title>Node265</title>
<g id="a_node10"><a xlink:href="../../dd/da2/a00192.html#ab0e0dc2172d3fab6390670acb68da1a6" target="_top" xlink:title="Get durability value. ">
<polygon fill="none" stroke="black" points="683,-273.5 683,-303.5 820,-303.5 820,-273.5 683,-273.5"/>
<text text-anchor="start" x="691" y="-291.5" font-family="Helvetica,sans-Serif" font-size="10.00">nars.entity.BudgetValue.get</text>
<text text-anchor="middle" x="751.5" y="-280.5" font-family="Helvetica,sans-Serif" font-size="10.00">Durability</text>
</a>
</g>
</g>
<!-- Node264&#45;&gt;Node265 -->
<g id="edge10" class="edge"><title>Node264&#45;&gt;Node265</title>
<path fill="none" stroke="midnightblue" d="M626.175,-288.5C641.375,-288.5 657.518,-288.5 672.963,-288.5"/>
<polygon fill="midnightblue" stroke="midnightblue" points="672.994,-292 682.994,-288.5 672.994,-285 672.994,-292"/>
</g>
<!-- Node266&#45;&gt;Node260 -->
<g id="edge12" class="edge"><title>Node266&#45;&gt;Node260</title>
<path fill="none" stroke="midnightblue" d="M597.812,-74.0473C627.326,-80.7069 666.9,-89.6363 698.363,-96.7358"/>
<polygon fill="midnightblue" stroke="midnightblue" points="697.745,-100.184 708.27,-98.9713 699.286,-93.356 697.745,-100.184"/>
</g>
<!-- Node267 -->
<g id="node12" class="node"><title>Node267</title>
<g id="a_node12"><a xlink:href="../../dd/da2/a00192.html#a1e7b6826531f03f792f3516ce0e97ac3" target="_top" xlink:title="Get priority value. ">
<polygon fill="none" stroke="black" points="683,-49.5 683,-79.5 820,-79.5 820,-49.5 683,-49.5"/>
<text text-anchor="start" x="691" y="-67.5" font-family="Helvetica,sans-Serif" font-size="10.00">nars.entity.BudgetValue.get</text>
<text text-anchor="middle" x="751.5" y="-56.5" font-family="Helvetica,sans-Serif" font-size="10.00">Priority</text>
</a>
</g>
</g>
<!-- Node266&#45;&gt;Node267 -->
<g id="edge13" class="edge"><title>Node266&#45;&gt;Node267</title>
<path fill="none" stroke="midnightblue" d="M620.703,-64.5C637.363,-64.5 655.441,-64.5 672.665,-64.5"/>
<polygon fill="midnightblue" stroke="midnightblue" points="672.69,-68.0001 682.69,-64.5 672.69,-61.0001 672.69,-68.0001"/>
</g>
<!-- Node269 -->
<g id="node14" class="node"><title>Node269</title>
<g id="a_node14"><a xlink:href="../../dd/da2/a00192.html#a088e64163126211239b6afd25a9cdca3" target="_top" xlink:title="Increase priority value by a percentage of the remaining range. ">
<polygon fill="none" stroke="black" points="683,-0.5 683,-30.5 820,-30.5 820,-0.5 683,-0.5"/>
<text text-anchor="start" x="691" y="-18.5" font-family="Helvetica,sans-Serif" font-size="10.00">nars.entity.BudgetValue.inc</text>
<text text-anchor="middle" x="751.5" y="-7.5" font-family="Helvetica,sans-Serif" font-size="10.00">Priority</text>
</a>
</g>
</g>
<!-- Node268&#45;&gt;Node269 -->
<g id="edge15" class="edge"><title>Node268&#45;&gt;Node269</title>
<path fill="none" stroke="midnightblue" d="M620.161,-19.5104C636.936,-18.9943 655.178,-18.433 672.557,-17.8983"/>
<polygon fill="midnightblue" stroke="midnightblue" points="672.783,-21.393 682.671,-17.587 672.568,-14.3963 672.783,-21.393"/>
</g>
<!-- Node270 -->
<g id="node15" class="node"><title>Node270</title>
<g id="a_node15"><a xlink:href="../../db/d12/a00268.html#acaa4ebc080bc00d0e03be32d51d29e40" target="_top" xlink:title="A function where the output is disjunctively determined by the inputs. ">
<polygon fill="none" stroke="black" points="856,-6 856,-25 1017,-25 1017,-6 856,-6"/>
<text text-anchor="middle" x="936.5" y="-13" font-family="Helvetica,sans-Serif" font-size="10.00">nars.inference.UtilityFunctions.or</text>
</a>
</g>
</g>
<!-- Node269&#45;&gt;Node270 -->
<g id="edge16" class="edge"><title>Node269&#45;&gt;Node270</title>
<path fill="none" stroke="midnightblue" d="M820.123,-15.5C828.465,-15.5 837.092,-15.5 845.7,-15.5"/>
<polygon fill="midnightblue" stroke="midnightblue" points="845.776,-19.0001 855.776,-15.5 845.776,-12.0001 845.776,-19.0001"/>
</g>
</g>
</svg>
