<?xml version="1.0" encoding="UTF-8" standalone="no"?>
<!DOCTYPE svg PUBLIC "-//W3C//DTD SVG 1.1//EN"
 "http://www.w3.org/Graphics/SVG/1.1/DTD/svg11.dtd">
<!-- Generated by graphviz version 2.38.0 (20140413.2041)
 -->
<!-- Title: nars.inference.BudgetFunctions.backward Pages: 1 -->
<!--zoomable 253 -->
<svg id="main" version="1.1" xmlns="http://www.w3.org/2000/svg" xmlns:xlink="http://www.w3.org/1999/xlink" xml:space="preserve" onload="init(evt)">
<style type="text/css"><![CDATA[
.edge:hover path { stroke: red; }
.edge:hover polygon { stroke: red; fill: red; }
]]></style>
<script type="text/javascript"><![CDATA[
var edges = document.getElementsByTagName('g');
if (edges && edges.length) {
  for (var i=0;i<edges.length;i++) {
    if (edges[i].id.substr(0,4)=='edge') {
      edges[i].setAttribute('class','edge');
    }
  }
}
]]></script>
        <defs>
                <circle id="rim" cx="0" cy="0" r="7"/>
                <circle id="rim2" cx="0" cy="0" r="3.5"/>
                <g id="zoomPlus">
                        <use xlink:href="#rim" fill="#404040">
                                <set attributeName="fill" to="#808080" begin="zoomplus.mouseover" end="zoomplus.mouseout"/>
                        </use>
                        <path d="M-4,0h8M0,-4v8" fill="none" stroke="white" stroke-width="1.5" pointer-events="none"/>
                </g>
                <g id="zoomMin">
                        <use xlink:href="#rim" fill="#404040">
                                <set attributeName="fill" to="#808080" begin="zoomminus.mouseover" end="zoomminus.mouseout"/>
                        </use>
                        <path d="M-4,0h8" fill="none" stroke="white" stroke-width="1.5" pointer-events="none"/>
                </g>
                <g id="dirArrow">
                        <path fill="none" stroke="white" stroke-width="1.5" d="M0,-3.0v7 M-2.5,-0.5L0,-3.0L2.5,-0.5"/>
                </g>
               <g id="resetDef">
                       <use xlink:href="#rim2" fill="#404040">
                               <set attributeName="fill" to="#808080" begin="reset.mouseover" end="reset.mouseout"/>
                       </use>
               </g>
        </defs>

<script type="text/javascript">
var viewWidth = 2728;
var viewHeight = 253;
var sectionId = 'dynsection-6';
</script>
<script xlink:href="../../svgpan.js"/>
<svg id="graph" class="graph">
<g id="viewport">
<title>nars.inference.BudgetFunctions.backward</title>
<!-- Node110 -->
<g id="node1" class="node"><title>Node110</title>
<polygon fill="#bfbfbf" stroke="black" points="0,-116 0,-135 200,-135 200,-116 0,-116"/>
<text text-anchor="middle" x="100" y="-123" font-family="Helvetica,sans-Serif" font-size="10.00">nars.inference.BudgetFunctions.backward</text>
</g>
<!-- Node111 -->
<g id="node2" class="node"><title>Node111</title>
<g id="a_node2"><a xlink:href="../../dc/ded/a00252.html#ab124c9151308789ed5f1e5562adeef96" target="_top" xlink:title="{&lt;M ==&gt; S&gt;, &lt;M ==&gt; P&gt;} |&#45; {&lt;S ==&gt; P&gt;, ">
<polygon fill="none" stroke="black" points="245.5,-212.5 245.5,-242.5 394.5,-242.5 394.5,-212.5 245.5,-212.5"/>
<text text-anchor="start" x="253.5" y="-230.5" font-family="Helvetica,sans-Serif" font-size="10.00">nars.inference.RuleTables.abd</text>
<text text-anchor="middle" x="320" y="-219.5" font-family="Helvetica,sans-Serif" font-size="10.00">IndCom</text>
</a>
</g>
</g>
<!-- Node110&#45;&gt;Node111 -->
<g id="edge1" class="edge"><title>Node110&#45;&gt;Node111</title>
<path fill="none" stroke="midnightblue" d="M124.373,-140.658C150.697,-157.248 195.146,-183.833 236,-201.5 245.286,-205.516 255.397,-209.21 265.264,-212.477"/>
<polygon fill="midnightblue" stroke="midnightblue" points="126.17,-137.653 115.854,-135.238 122.412,-143.559 126.17,-137.653"/>
</g>
<!-- Node123 -->
<g id="node14" class="node"><title>Node123</title>
<g id="a_node14"><a xlink:href="../../dd/dd7/a00260.html#a50197adbc4f3cd1f109fe4d3629cdf6c" target="_top" xlink:title="{&lt;S ==&gt; P&gt;, &lt;M &lt;=&gt; P&gt;} |&#45; &lt;S ==&gt; P&gt; ">
<polygon fill="none" stroke="black" points="257,-162.5 257,-192.5 383,-192.5 383,-162.5 257,-162.5"/>
<text text-anchor="start" x="265" y="-180.5" font-family="Helvetica,sans-Serif" font-size="10.00">nars.inference.Syllogistic</text>
<text text-anchor="middle" x="320" y="-169.5" font-family="Helvetica,sans-Serif" font-size="10.00">Rules.analogy</text>
</a>
</g>
</g>
<!-- Node110&#45;&gt;Node123 -->
<g id="edge13" class="edge"><title>Node110&#45;&gt;Node123</title>
<path fill="none" stroke="midnightblue" d="M150.828,-137.386C182.229,-144.876 223.03,-154.608 256.58,-162.611"/>
<polygon fill="midnightblue" stroke="midnightblue" points="151.524,-133.953 140.985,-135.038 149.9,-140.762 151.524,-133.953"/>
</g>
<!-- Node125 -->
<g id="node16" class="node"><title>Node125</title>
<g id="a_node16"><a xlink:href="../../dc/ded/a00252.html#af34ec4e0da91e9422e25afd45af26559" target="_top" xlink:title="{(&amp;&amp;, &lt;#x() &#45;&#45;&gt; S&gt;, &lt;#x() &#45;&#45;&gt; P&gt;&gt;, &lt;M &#45;&#45;&gt; P&gt;} |&#45; &lt;M &#45;&#45;&gt; S&gt; ">
<polygon fill="none" stroke="black" points="676.5,-0.5 676.5,-30.5 830.5,-30.5 830.5,-0.5 676.5,-0.5"/>
<text text-anchor="start" x="684.5" y="-18.5" font-family="Helvetica,sans-Serif" font-size="10.00">nars.inference.RuleTables.elimi</text>
<text text-anchor="middle" x="753.5" y="-7.5" font-family="Helvetica,sans-Serif" font-size="10.00">VarDep</text>
</a>
</g>
</g>
<!-- Node110&#45;&gt;Node125 -->
<g id="edge16" class="edge"><title>Node110&#45;&gt;Node125</title>
<path fill="none" stroke="midnightblue" d="M120.701,-109.651C145.782,-90.5064 191.251,-59.1705 236,-45.5 386.758,0.555327 573.555,-2.43628 676.125,-8.87171"/>
<polygon fill="midnightblue" stroke="midnightblue" points="118.457,-106.962 112.714,-115.865 122.756,-112.487 118.457,-106.962"/>
</g>
<!-- Node127 -->
<g id="node18" class="node"><title>Node127</title>
<g id="a_node18"><a xlink:href="../../dc/ded/a00252.html#aa57c06fe6fa6d3c396b196edaf631a92" target="_top" xlink:title="nars.inference.RuleTables.function\lBeggingToBeAsync">
<polygon fill="none" stroke="black" points="236,-110.5 236,-140.5 404,-140.5 404,-110.5 236,-110.5"/>
<text text-anchor="start" x="244" y="-128.5" font-family="Helvetica,sans-Serif" font-size="10.00">nars.inference.RuleTables.function</text>
<text text-anchor="middle" x="320" y="-117.5" font-family="Helvetica,sans-Serif" font-size="10.00">BeggingToBeAsync</text>
</a>
</g>
</g>
<!-- Node110&#45;&gt;Node127 -->
<g id="edge19" class="edge"><title>Node110&#45;&gt;Node127</title>
<path fill="none" stroke="midnightblue" d="M210.197,-125.5C218.798,-125.5 227.397,-125.5 235.781,-125.5"/>
<polygon fill="midnightblue" stroke="midnightblue" points="210.113,-122 200.113,-125.5 210.113,-129 210.113,-122"/>
</g>
<!-- Node130 -->
<g id="node21" class="node"><title>Node130</title>
<g id="a_node21"><a xlink:href="../../dd/dd7/a00260.html#a16bc93d2dcbcc4d92d2fb066d60e9e5f" target="_top" xlink:title="{&lt;S &lt;=&gt; M&gt;, &lt;M &lt;=&gt; P&gt;} |&#45; &lt;S &lt;=&gt; P&gt; ">
<polygon fill="none" stroke="black" points="257,-55.5 257,-85.5 383,-85.5 383,-55.5 257,-55.5"/>
<text text-anchor="start" x="265" y="-73.5" font-family="Helvetica,sans-Serif" font-size="10.00">nars.inference.Syllogistic</text>
<text text-anchor="middle" x="320" y="-62.5" font-family="Helvetica,sans-Serif" font-size="10.00">Rules.resemblance</text>
</a>
</g>
</g>
<!-- Node110&#45;&gt;Node130 -->
<g id="edge24" class="edge"><title>Node110&#45;&gt;Node130</title>
<path fill="none" stroke="midnightblue" d="M148.694,-113.467C181.201,-105.266 224.488,-94.3447 259.286,-85.5654"/>
<polygon fill="midnightblue" stroke="midnightblue" points="147.813,-110.08 138.973,-115.92 149.525,-116.867 147.813,-110.08"/>
</g>
<!-- Node112 -->
<g id="node3" class="node"><title>Node112</title>
<g id="a_node3"><a xlink:href="../../dc/ded/a00252.html#a34927349efcf87db97d23c60983b115b" target="_top" xlink:title="Syllogistic rules whose both premises are on the same asymmetric relation. ">
<polygon fill="none" stroke="black" points="661,-214.5 661,-244.5 846,-244.5 846,-214.5 661,-214.5"/>
<text text-anchor="start" x="669" y="-232.5" font-family="Helvetica,sans-Serif" font-size="10.00">nars.inference.RuleTables.asymmetric</text>
<text text-anchor="middle" x="753.5" y="-221.5" font-family="Helvetica,sans-Serif" font-size="10.00">Asymmetric</text>
</a>
</g>
</g>
<!-- Node111&#45;&gt;Node112 -->
<g id="edge2" class="edge"><title>Node111&#45;&gt;Node112</title>
<path fill="none" stroke="midnightblue" d="M404.831,-227.889C478.322,-228.229 584.959,-228.723 660.722,-229.075"/>
<polygon fill="midnightblue" stroke="midnightblue" points="404.703,-224.388 394.687,-227.842 404.671,-231.388 404.703,-224.388"/>
</g>
<!-- Node113 -->
<g id="node4" class="node"><title>Node113</title>
<g id="a_node4"><a xlink:href="../../dc/ded/a00252.html#a8628d400a8ceda7fea05039ddfea319b" target="_top" xlink:title="Meta&#45;table of syllogistic rules, indexed by the content classes of the taskSentence and the belief...">
<polygon fill="none" stroke="black" points="882,-132 882,-151 1062,-151 1062,-132 882,-132"/>
<text text-anchor="middle" x="972" y="-139" font-family="Helvetica,sans-Serif" font-size="10.00">nars.inference.RuleTables.syllogisms</text>
</a>
</g>
</g>
<!-- Node112&#45;&gt;Node113 -->
<g id="edge3" class="edge"><title>Node112&#45;&gt;Node113</title>
<path fill="none" stroke="midnightblue" d="M814.005,-211.117C824.735,-207.484 835.76,-203.538 846,-199.5 884.502,-184.316 928.051,-163.167 952.243,-151.049"/>
<polygon fill="midnightblue" stroke="midnightblue" points="812.648,-207.88 804.266,-214.36 814.859,-214.521 812.648,-207.88"/>
</g>
<!-- Node114 -->
<g id="node5" class="node"><title>Node114</title>
<g id="a_node5"><a xlink:href="../../dc/ded/a00252.html#ac2d01dfdc40bdd47c757cb549217e6e3" target="_top" xlink:title="Entry point of the inference engine. ">
<polygon fill="none" stroke="black" points="1098,-88 1098,-107 1261,-107 1261,-88 1098,-88"/>
<text text-anchor="middle" x="1179.5" y="-95" font-family="Helvetica,sans-Serif" font-size="10.00">nars.inference.RuleTables.reason</text>
</a>
</g>
</g>
<!-- Node113&#45;&gt;Node114 -->
<g id="edge4" class="edge"><title>Node113&#45;&gt;Node114</title>
<path fill="none" stroke="midnightblue" d="M1027.61,-129.808C1060.85,-122.69 1102.78,-113.713 1134,-107.029"/>
<polygon fill="midnightblue" stroke="midnightblue" points="1026.64,-126.436 1017.59,-131.953 1028.1,-133.281 1026.64,-126.436"/>
</g>
<!-- Node115 -->
<g id="node6" class="node"><title>Node115</title>
<g id="a_node6"><a xlink:href="../../d7/ded/a00196.html#ad6fb91dda799c3092ecb186ef24ca92a" target="_top" xlink:title="An atomic step in a concept, only called in Memory# processConcept. ">
<polygon fill="none" stroke="black" points="1297,-82.5 1297,-112.5 1416,-112.5 1416,-82.5 1297,-82.5"/>
<text text-anchor="start" x="1305" y="-100.5" font-family="Helvetica,sans-Serif" font-size="10.00">nars.entity.Concept.fire</text>
<text text-anchor="middle" x="1356.5" y="-89.5" font-family="Helvetica,sans-Serif" font-size="10.00">FromProcessConcept</text>
</a>
</g>
</g>
<!-- Node114&#45;&gt;Node115 -->
<g id="edge5" class="edge"><title>Node114&#45;&gt;Node115</title>
<path fill="none" stroke="midnightblue" d="M1271.25,-97.5C1279.91,-97.5 1288.52,-97.5 1296.76,-97.5"/>
<polygon fill="midnightblue" stroke="midnightblue" points="1271.09,-94.0001 1261.09,-97.5 1271.08,-101 1271.09,-94.0001"/>
</g>
<!-- Node116 -->
<g id="node7" class="node"><title>Node116</title>
<g id="a_node7"><a xlink:href="../../d4/d27/a00392.html#a0acc4adbf6a2462245da46bcb529746c" target="_top" xlink:title="Select a concept to fireFromProcessConcept. ">
<polygon fill="none" stroke="black" points="1452,-82.5 1452,-112.5 1598,-112.5 1598,-82.5 1452,-82.5"/>
<text text-anchor="start" x="1460" y="-100.5" font-family="Helvetica,sans-Serif" font-size="10.00">nars.storage.Memory.process</text>
<text text-anchor="middle" x="1525" y="-89.5" font-family="Helvetica,sans-Serif" font-size="10.00">Concept</text>
</a>
</g>
</g>
<!-- Node115&#45;&gt;Node116 -->
<g id="edge6" class="edge"><title>Node115&#45;&gt;Node116</title>
<path fill="none" stroke="midnightblue" d="M1426.34,-97.5C1434.75,-97.5 1443.36,-97.5 1451.82,-97.5"/>
<polygon fill="midnightblue" stroke="midnightblue" points="1426.2,-94.0001 1416.2,-97.5 1426.2,-101 1426.2,-94.0001"/>
</g>
<!-- Node117 -->
<g id="node8" class="node"><title>Node117</title>
<g id="a_node8"><a xlink:href="../../d4/d27/a00392.html#a59ae339d666409988d90d29be4f73a91" target="_top" xlink:title="An atomic working workCycle of the system: process new Tasks, then fireFromProcessConcept a concept...">
<polygon fill="none" stroke="black" points="1634,-82.5 1634,-112.5 1767,-112.5 1767,-82.5 1634,-82.5"/>
<text text-anchor="start" x="1642" y="-100.5" font-family="Helvetica,sans-Serif" font-size="10.00">nars.storage.Memory.work</text>
<text text-anchor="middle" x="1700.5" y="-89.5" font-family="Helvetica,sans-Serif" font-size="10.00">Cycle</text>
</a>
</g>
</g>
<!-- Node116&#45;&gt;Node117 -->
<g id="edge7" class="edge"><title>Node116&#45;&gt;Node117</title>
<path fill="none" stroke="midnightblue" d="M1608.12,-97.5C1616.72,-97.5 1625.37,-97.5 1633.76,-97.5"/>
<polygon fill="midnightblue" stroke="midnightblue" points="1608.07,-94.0001 1598.07,-97.5 1608.07,-101 1608.07,-94.0001"/>
</g>
<!-- Node118 -->
<g id="node9" class="node"><title>Node118</title>
<g id="a_node9"><a xlink:href="../../df/d15/a00416.html#a0d5c797dc17d9e8d0998852915e0f303" target="_top" xlink:title="nars.storage.ReasonerBatch.doTick">
<polygon fill="none" stroke="black" points="1803,-88 1803,-107 1976,-107 1976,-88 1803,-88"/>
<text text-anchor="middle" x="1889.5" y="-95" font-family="Helvetica,sans-Serif" font-size="10.00">nars.storage.ReasonerBatch.doTick</text>
</a>
</g>
</g>
<!-- Node117&#45;&gt;Node118 -->
<g id="edge8" class="edge"><title>Node117&#45;&gt;Node118</title>
<path fill="none" stroke="midnightblue" d="M1777.34,-97.5C1785.78,-97.5 1794.42,-97.5 1802.97,-97.5"/>
<polygon fill="midnightblue" stroke="midnightblue" points="1777.17,-94.0001 1767.17,-97.5 1777.17,-101 1777.17,-94.0001"/>
</g>
<!-- Node119 -->
<g id="node10" class="node"><title>Node119</title>
<g id="a_node10"><a xlink:href="../../df/d15/a00416.html#a3468aa0f99edcd66412f27922dddb880" target="_top" xlink:title="A clock tick. ">
<polygon fill="none" stroke="black" points="2012,-88 2012,-107 2172,-107 2172,-88 2012,-88"/>
<text text-anchor="middle" x="2092" y="-95" font-family="Helvetica,sans-Serif" font-size="10.00">nars.storage.ReasonerBatch.tick</text>
</a>
</g>
</g>
<!-- Node118&#45;&gt;Node119 -->
<g id="edge9" class="edge"><title>Node118&#45;&gt;Node119</title>
<path fill="none" stroke="midnightblue" d="M1986.13,-97.5C1994.7,-97.5 2003.31,-97.5 2011.71,-97.5"/>
<polygon fill="midnightblue" stroke="midnightblue" points="1986.11,-94.0001 1976.11,-97.5 1986.11,-101 1986.11,-94.0001"/>
</g>
<!-- Node120 -->
<g id="node11" class="node"><title>Node120</title>
<g id="a_node11"><a xlink:href="../../d9/da1/a00396.html#a5d9cfe517bcfbe41e5251910bcd119c1" target="_top" xlink:title="Run to completion: repeatedly execute NARS working cycle, until Inputs are Finished, or 1000 steps. ">
<polygon fill="none" stroke="black" points="2208,-88 2208,-107 2352,-107 2352,-88 2208,-88"/>
<text text-anchor="middle" x="2280" y="-95" font-family="Helvetica,sans-Serif" font-size="10.00">nars.storage.NARSBatch.run</text>
</a>
</g>
</g>
<!-- Node119&#45;&gt;Node120 -->
<g id="edge10" class="edge"><title>Node119&#45;&gt;Node120</title>
<path fill="none" stroke="midnightblue" d="M2182.22,-97.5C2190.82,-97.5 2199.47,-97.5 2207.87,-97.5"/>
<polygon fill="midnightblue" stroke="midnightblue" points="2182.15,-94.0001 2172.15,-97.5 2182.15,-101 2182.15,-94.0001"/>
</g>
<!-- Node121 -->
<g id="node12" class="node"><title>Node121</title>
<g id="a_node12"><a xlink:href="../../d9/da1/a00396.html#a7c307c6b842f82664de6b0e52bdf8efc" target="_top" xlink:title="non&#45;static equivalent to main(String[]) : run to completion from an input file ">
<polygon fill="none" stroke="black" points="2388,-82.5 2388,-112.5 2532,-112.5 2532,-82.5 2388,-82.5"/>
<text text-anchor="start" x="2396" y="-100.5" font-family="Helvetica,sans-Serif" font-size="10.00">nars.storage.NARSBatch.run</text>
<text text-anchor="middle" x="2460" y="-89.5" font-family="Helvetica,sans-Serif" font-size="10.00">Inference</text>
</a>
</g>
</g>
<!-- Node120&#45;&gt;Node121 -->
<g id="edge11" class="edge"><title>Node120&#45;&gt;Node121</title>
<path fill="none" stroke="midnightblue" d="M2362.17,-97.5C2370.79,-97.5 2379.51,-97.5 2388,-97.5"/>
<polygon fill="midnightblue" stroke="midnightblue" points="2362.12,-94.0001 2352.12,-97.5 2362.12,-101 2362.12,-94.0001"/>
</g>
<!-- Node122 -->
<g id="node13" class="node"><title>Node122</title>
<g id="a_node13"><a xlink:href="../../d9/da1/a00396.html#abafc597289bc2f6453b5cd0dd6634e54" target="_top" xlink:title="The entry point of the standalone application. ">
<polygon fill="none" stroke="black" points="2568,-88 2568,-107 2720,-107 2720,-88 2568,-88"/>
<text text-anchor="middle" x="2644" y="-95" font-family="Helvetica,sans-Serif" font-size="10.00">nars.storage.NARSBatch.main</text>
</a>
</g>
</g>
<!-- Node121&#45;&gt;Node122 -->
<g id="edge12" class="edge"><title>Node121&#45;&gt;Node122</title>
<path fill="none" stroke="midnightblue" d="M2542.17,-97.5C2550.76,-97.5 2559.48,-97.5 2568,-97.5"/>
<polygon fill="midnightblue" stroke="midnightblue" points="2542.15,-94.0001 2532.15,-97.5 2542.15,-101 2542.15,-94.0001"/>
</g>
<!-- Node124 -->
<g id="node15" class="node"><title>Node124</title>
<g id="a_node15"><a xlink:href="../../dc/ded/a00252.html#a4f61a7c2dc75c9da475030894eac0735" target="_top" xlink:title="Syllogistic rules whose first premise is on an asymmetric relation, and the second on a symmetric rel...">
<polygon fill="none" stroke="black" points="440,-165.5 440,-195.5 625,-195.5 625,-165.5 440,-165.5"/>
<text text-anchor="start" x="448" y="-183.5" font-family="Helvetica,sans-Serif" font-size="10.00">nars.inference.RuleTables.asymmetric</text>
<text text-anchor="middle" x="532.5" y="-172.5" font-family="Helvetica,sans-Serif" font-size="10.00">Symmetric</text>
</a>
</g>
</g>
<!-- Node123&#45;&gt;Node124 -->
<g id="edge14" class="edge"><title>Node123&#45;&gt;Node124</title>
<path fill="none" stroke="midnightblue" d="M393.24,-178.53C408.26,-178.744 424.278,-178.972 439.889,-179.194"/>
<polygon fill="midnightblue" stroke="midnightblue" points="393.067,-175.027 383.018,-178.384 392.967,-182.026 393.067,-175.027"/>
</g>
<!-- Node124&#45;&gt;Node113 -->
<g id="edge15" class="edge"><title>Node124&#45;&gt;Node113</title>
<path fill="none" stroke="midnightblue" d="M635.117,-179.26C696.382,-177.609 775.881,-173.872 846,-165.5 873.976,-162.16 905.092,-156.194 929.28,-151.046"/>
<polygon fill="midnightblue" stroke="midnightblue" points="634.966,-175.762 625.059,-179.516 635.145,-182.76 634.966,-175.762"/>
</g>
<!-- Node126 -->
<g id="node17" class="node"><title>Node126</title>
<g id="a_node17"><a xlink:href="../../dc/ded/a00252.html#a54a7ceba4f123db5035e3b85063c91f1" target="_top" xlink:title="Inference between a compound term and a statement. ">
<polygon fill="none" stroke="black" points="882.5,-19.5 882.5,-49.5 1061.5,-49.5 1061.5,-19.5 882.5,-19.5"/>
<text text-anchor="start" x="890.5" y="-37.5" font-family="Helvetica,sans-Serif" font-size="10.00">nars.inference.RuleTables.compound</text>
<text text-anchor="middle" x="972" y="-26.5" font-family="Helvetica,sans-Serif" font-size="10.00">AndStatement</text>
</a>
</g>
</g>
<!-- Node125&#45;&gt;Node126 -->
<g id="edge17" class="edge"><title>Node125&#45;&gt;Node126</title>
<path fill="none" stroke="midnightblue" d="M840.821,-23.0755C854.428,-24.2697 868.517,-25.5061 882.179,-26.7051"/>
<polygon fill="midnightblue" stroke="midnightblue" points="840.793,-19.5597 830.525,-22.172 840.181,-26.5329 840.793,-19.5597"/>
</g>
<!-- Node126&#45;&gt;Node114 -->
<g id="edge18" class="edge"><title>Node126&#45;&gt;Node114</title>
<path fill="none" stroke="midnightblue" d="M1031.81,-52.5308C1069.51,-64.0866 1116.92,-78.622 1147.47,-87.9862"/>
<polygon fill="midnightblue" stroke="midnightblue" points="1032.55,-49.0949 1021.96,-49.51 1030.5,-55.7874 1032.55,-49.0949"/>
</g>
<!-- Node128 -->
<g id="node19" class="node"><title>Node128</title>
<g id="a_node19"><a xlink:href="../../dc/ded/a00252.html#acacd7cd6f866a576bfad37e0003df853" target="_top" xlink:title="{&lt;&lt;M &#45;&#45;&gt; S&gt; ==&gt; &lt;M &#45;&#45;&gt; P&gt;&gt;, &lt;M &#45;&#45;&gt; S&gt;} |&#45; &lt;M &#45;&#45;&gt; P&gt; {&lt;&lt;M &#45;&#45;&gt; S&gt; ==&gt; &lt;M &#45;&#45;&gt; P&gt;&gt;, &lt;M &#45;&#45;&gt; P&gt;} |&#45; &lt;M &#45;&#45;&gt; ...">
<polygon fill="none" stroke="black" points="440,-116 440,-135 625,-135 625,-116 440,-116"/>
<text text-anchor="middle" x="532.5" y="-123" font-family="Helvetica,sans-Serif" font-size="10.00">nars.inference.RuleTables.detachment</text>
</a>
</g>
</g>
<!-- Node127&#45;&gt;Node128 -->
<g id="edge20" class="edge"><title>Node127&#45;&gt;Node128</title>
<path fill="none" stroke="midnightblue" d="M414.441,-125.5C422.895,-125.5 431.451,-125.5 439.889,-125.5"/>
<polygon fill="midnightblue" stroke="midnightblue" points="414.195,-122 404.195,-125.5 414.195,-129 414.195,-122"/>
</g>
<!-- Node128&#45;&gt;Node114 -->
<g id="edge21" class="edge"><title>Node128&#45;&gt;Node114</title>
<path fill="none" stroke="midnightblue" d="M635.272,-118.007C643.972,-117.46 652.639,-116.948 661,-116.5 815.413,-108.218 995.942,-102.488 1097.79,-99.6194"/>
<polygon fill="midnightblue" stroke="midnightblue" points="634.814,-114.529 625.059,-118.663 635.263,-121.515 634.814,-114.529"/>
</g>
<!-- Node129 -->
<g id="node20" class="node"><title>Node129</title>
<g id="a_node20"><a xlink:href="../../dc/ded/a00252.html#af6c973743270b2739d4ad25f16975da1" target="_top" xlink:title="The detachment rule, with variable unification. ">
<polygon fill="none" stroke="black" points="661,-126.5 661,-156.5 846,-156.5 846,-126.5 661,-126.5"/>
<text text-anchor="start" x="669" y="-144.5" font-family="Helvetica,sans-Serif" font-size="10.00">nars.inference.RuleTables.detachment</text>
<text text-anchor="middle" x="753.5" y="-133.5" font-family="Helvetica,sans-Serif" font-size="10.00">WithVar</text>
</a>
</g>
</g>
<!-- Node128&#45;&gt;Node129 -->
<g id="edge22" class="edge"><title>Node128&#45;&gt;Node129</title>
<path fill="none" stroke="midnightblue" d="M635.151,-132.927C643.743,-133.554 652.4,-134.187 660.908,-134.808"/>
<polygon fill="midnightblue" stroke="midnightblue" points="635.335,-129.431 625.107,-132.193 634.825,-136.412 635.335,-129.431"/>
</g>
<!-- Node129&#45;&gt;Node113 -->
<g id="edge23" class="edge"><title>Node129&#45;&gt;Node113</title>
<path fill="none" stroke="midnightblue" d="M856.084,-141.5C864.705,-141.5 873.383,-141.5 881.898,-141.5"/>
<polygon fill="midnightblue" stroke="midnightblue" points="856.002,-138 846.002,-141.5 856.002,-145 856.002,-138"/>
</g>
<!-- Node131 -->
<g id="node22" class="node"><title>Node131</title>
<g id="a_node22"><a xlink:href="../../dc/ded/a00252.html#ab64fca3ebda3499b831c2b93df736530" target="_top" xlink:title="Syllogistic rules whose both premises are on the same symmetric relation. ">
<polygon fill="none" stroke="black" points="443,-44.5 443,-74.5 622,-74.5 622,-44.5 443,-44.5"/>
<text text-anchor="start" x="451" y="-62.5" font-family="Helvetica,sans-Serif" font-size="10.00">nars.inference.RuleTables.symmetric</text>
<text text-anchor="middle" x="532.5" y="-51.5" font-family="Helvetica,sans-Serif" font-size="10.00">Symmetric</text>
</a>
</g>
</g>
<!-- Node130&#45;&gt;Node131 -->
<g id="edge25" class="edge"><title>Node130&#45;&gt;Node131</title>
<path fill="none" stroke="midnightblue" d="M393.282,-66.7228C409.17,-65.8925 426.174,-65.004 442.629,-64.1441"/>
<polygon fill="midnightblue" stroke="midnightblue" points="392.822,-63.242 383.018,-67.2591 393.187,-70.2324 392.822,-63.242"/>
</g>
<!-- Node131&#45;&gt;Node113 -->
<g id="edge26" class="edge"><title>Node131&#45;&gt;Node113</title>
<path fill="none" stroke="midnightblue" d="M628.282,-76.3567C690.278,-87.4889 773.01,-102.545 846,-116.5 871.976,-121.466 900.939,-127.244 924.439,-131.993"/>
<polygon fill="midnightblue" stroke="midnightblue" points="628.587,-72.8556 618.126,-74.5349 627.351,-79.7456 628.587,-72.8556"/>
</g>
</g>
</svg>
        <g id="navigator" transform="translate(0 0)" fill="#404254">
                <rect fill="#f2f5e9" fill-opacity="0.5" stroke="#606060" stroke-width=".5" x="0" y="0" width="60" height="60"/>
                <use id="zoomplus" xlink:href="#zoomPlus" x="17" y="9" onmousedown="handleZoom(evt,'in')"/>
                <use id="zoomminus" xlink:href="#zoomMin" x="42" y="9" onmousedown="handleZoom(evt,'out')"/>
                <use id="reset" xlink:href="#resetDef" x="30" y="36" onmousedown="handleReset()"/>
                <g id="arrowUp" xlink:href="#dirArrow" transform="translate(30 24)" onmousedown="handlePan(0,-1)">
                  <use xlink:href="#rim" fill="#404040">
                        <set attributeName="fill" to="#808080" begin="arrowUp.mouseover" end="arrowUp.mouseout"/>
                  </use>
                  <path fill="none" stroke="white" stroke-width="1.5" d="M0,-3.0v7 M-2.5,-0.5L0,-3.0L2.5,-0.5"/>
                </g>
                <g id="arrowRight" xlink:href="#dirArrow" transform="rotate(90) translate(36 -43)" onmousedown="handlePan(1,0)">
                  <use xlink:href="#rim" fill="#404040">
                        <set attributeName="fill" to="#808080" begin="arrowRight.mouseover" end="arrowRight.mouseout"/>
                  </use>
                  <path fill="none" stroke="white" stroke-width="1.5" d="M0,-3.0v7 M-2.5,-0.5L0,-3.0L2.5,-0.5"/>
                </g>
                <g id="arrowDown" xlink:href="#dirArrow" transform="rotate(180) translate(-30 -48)" onmousedown="handlePan(0,1)">
                  <use xlink:href="#rim" fill="#404040">
                        <set attributeName="fill" to="#808080" begin="arrowDown.mouseover" end="arrowDown.mouseout"/>
                  </use>
                  <path fill="none" stroke="white" stroke-width="1.5" d="M0,-3.0v7 M-2.5,-0.5L0,-3.0L2.5,-0.5"/>
                </g>
                <g id="arrowLeft" xlink:href="#dirArrow" transform="rotate(270) translate(-36 17)" onmousedown="handlePan(-1,0)">
                  <use xlink:href="#rim" fill="#404040">
                        <set attributeName="fill" to="#808080" begin="arrowLeft.mouseover" end="arrowLeft.mouseout"/>
                  </use>
                  <path fill="none" stroke="white" stroke-width="1.5" d="M0,-3.0v7 M-2.5,-0.5L0,-3.0L2.5,-0.5"/>
                </g>
        </g>
        <svg viewBox="0 0 15 15" width="100%" height="30px" preserveAspectRatio="xMaxYMin meet">
         <g id="arrow_out" transform="scale(0.3 0.3)">
          <a xlink:href="a00240_a837063b568fd1d183a802ae03102693a_icgraph_org.svg" target="_base">
           <rect id="button" ry="5" rx="5" y="6" x="6" height="38" width="38"
                fill="#f2f5e9" fill-opacity="0.5" stroke="#606060" stroke-width="1.0"/>
           <path id="arrow"
             d="M 11.500037,31.436501 C 11.940474,20.09759 22.043105,11.32322 32.158766,21.979434 L 37.068811,17.246167 C 37.068811,17.246167 37.088388,32 37.088388,32 L 22.160133,31.978069 C 22.160133,31.978069 26.997745,27.140456 26.997745,27.140456 C 18.528582,18.264221 13.291696,25.230495 11.500037,31.436501 z"
             style="fill:#404040;"/>
          </a>
         </g>
        </svg>
</svg>
