<?xml version="1.0" encoding="UTF-8" standalone="no"?>
<!DOCTYPE svg PUBLIC "-//W3C//DTD SVG 1.1//EN"
 "http://www.w3.org/Graphics/SVG/1.1/DTD/svg11.dtd">
<!-- Generated by graphviz version 2.38.0 (20140413.2041)
 -->
<!-- Title: nars.inference.BudgetFunctions.forward Pages: 1 -->
<!--zoomable 410 -->
<svg id="main" version="1.1" xmlns="http://www.w3.org/2000/svg" xmlns:xlink="http://www.w3.org/1999/xlink" xml:space="preserve" onload="init(evt)">
<style type="text/css"><![CDATA[
.edge:hover path { stroke: red; }
.edge:hover polygon { stroke: red; fill: red; }
]]></style>
<script type="text/javascript"><![CDATA[
var edges = document.getElementsByTagName('g');
if (edges && edges.length) {
  for (var i=0;i<edges.length;i++) {
    if (edges[i].id.substr(0,4)=='edge') {
      edges[i].setAttribute('class','edge');
    }
  }
}
]]></script>
        <defs>
                <circle id="rim" cx="0" cy="0" r="7"/>
                <circle id="rim2" cx="0" cy="0" r="3.5"/>
                <g id="zoomPlus">
                        <use xlink:href="#rim" fill="#404040">
                                <set attributeName="fill" to="#808080" begin="zoomplus.mouseover" end="zoomplus.mouseout"/>
                        </use>
                        <path d="M-4,0h8M0,-4v8" fill="none" stroke="white" stroke-width="1.5" pointer-events="none"/>
                </g>
                <g id="zoomMin">
                        <use xlink:href="#rim" fill="#404040">
                                <set attributeName="fill" to="#808080" begin="zoomminus.mouseover" end="zoomminus.mouseout"/>
                        </use>
                        <path d="M-4,0h8" fill="none" stroke="white" stroke-width="1.5" pointer-events="none"/>
                </g>
                <g id="dirArrow">
                        <path fill="none" stroke="white" stroke-width="1.5" d="M0,-3.0v7 M-2.5,-0.5L0,-3.0L2.5,-0.5"/>
                </g>
               <g id="resetDef">
                       <use xlink:href="#rim2" fill="#404040">
                               <set attributeName="fill" to="#808080" begin="reset.mouseover" end="reset.mouseout"/>
                       </use>
               </g>
        </defs>

<script type="text/javascript">
var viewWidth = 1013;
var viewHeight = 410;
var sectionId = 'dynsection-17';
</script>
<script xlink:href="../../svgpan.js"/>
<svg id="graph" class="graph">
<g id="viewport">
<title>nars.inference.BudgetFunctions.forward</title>
<!-- Node324 -->
<g id="node1" class="node"><title>Node324</title>
<polygon fill="#bfbfbf" stroke="black" points="0,-138.5 0,-157.5 190,-157.5 190,-138.5 0,-138.5"/>
<text text-anchor="middle" x="95" y="-145.5" font-family="Helvetica,sans-Serif" font-size="10.00">nars.inference.BudgetFunctions.forward</text>
</g>
<!-- Node325 -->
<g id="node2" class="node"><title>Node325</title>
<g id="a_node2"><a xlink:href="../../d9/d21/a00240.html#a6c45e643d143a28d7514f3487fbfa494" target="_top" xlink:title="Common processing for all inference step. ">
<polygon fill="none" stroke="black" points="226,-188 226,-218 413,-218 413,-188 226,-188"/>
<text text-anchor="start" x="234" y="-206" font-family="Helvetica,sans-Serif" font-size="10.00">nars.inference.BudgetFunctions.budget</text>
<text text-anchor="middle" x="319.5" y="-195" font-family="Helvetica,sans-Serif" font-size="10.00">Inference</text>
</a>
</g>
</g>
<!-- Node324&#45;&gt;Node325 -->
<g id="edge1" class="edge"><title>Node324&#45;&gt;Node325</title>
<path fill="none" stroke="midnightblue" d="M134.503,-157.517C165.559,-165.194 210.083,-176.2 247.554,-185.463"/>
<polygon fill="midnightblue" stroke="midnightblue" points="246.868,-188.899 257.416,-187.901 248.548,-182.103 246.868,-188.899"/>
</g>
<!-- Node339 -->
<g id="node16" class="node"><title>Node339</title>
<g id="a_node16"><a xlink:href="../../d9/d21/a00240.html#a1cabe922021909c7226988e5aa00ea95" target="_top" xlink:title="Determine the quality of a judgment by its truth value alone. ">
<polygon fill="none" stroke="black" points="231,-79 231,-109 408,-109 408,-79 231,-79"/>
<text text-anchor="start" x="239" y="-97" font-family="Helvetica,sans-Serif" font-size="10.00">nars.inference.BudgetFunctions.truth</text>
<text text-anchor="middle" x="319.5" y="-86" font-family="Helvetica,sans-Serif" font-size="10.00">ToQuality</text>
</a>
</g>
</g>
<!-- Node324&#45;&gt;Node339 -->
<g id="edge17" class="edge"><title>Node324&#45;&gt;Node339</title>
<path fill="none" stroke="midnightblue" d="M135.266,-138.47C166.073,-130.994 209.785,-120.385 246.789,-111.404"/>
<polygon fill="midnightblue" stroke="midnightblue" points="247.642,-114.799 256.534,-109.039 245.991,-107.996 247.642,-114.799"/>
</g>
<!-- Node326 -->
<g id="node3" class="node"><title>Node326</title>
<g id="a_node3"><a xlink:href="../../db/d12/a00268.html#a46d2f048b6ba77afc60dcf49734f23c7" target="_top" xlink:title="A function where the output is conjunctively determined by the inputs. ">
<polygon fill="none" stroke="black" points="458,-338.5 458,-357.5 626,-357.5 626,-338.5 458,-338.5"/>
<text text-anchor="middle" x="542" y="-345.5" font-family="Helvetica,sans-Serif" font-size="10.00">nars.inference.UtilityFunctions.and</text>
</a>
</g>
</g>
<!-- Node325&#45;&gt;Node326 -->
<g id="edge2" class="edge"><title>Node325&#45;&gt;Node326</title>
<path fill="none" stroke="midnightblue" d="M331.273,-218.239C351.203,-245.199 396.61,-301.082 449,-329 453.473,-331.384 458.216,-333.469 463.097,-335.292"/>
<polygon fill="midnightblue" stroke="midnightblue" points="462.026,-338.625 472.62,-338.487 464.253,-331.988 462.026,-338.625"/>
</g>
<!-- Node327 -->
<g id="node4" class="node"><title>Node327</title>
<g id="a_node4"><a xlink:href="../../d9/d21/a00240.html#a5df1e2954d5ce62f08cbd4be287ddaba" target="_top" xlink:title="A function where the output is the arithmetic average the inputs. ">
<polygon fill="none" stroke="black" points="449.5,-300.5 449.5,-319.5 634.5,-319.5 634.5,-300.5 449.5,-300.5"/>
<text text-anchor="middle" x="542" y="-307.5" font-family="Helvetica,sans-Serif" font-size="10.00">nars.inference.BudgetFunctions.aveAri</text>
</a>
</g>
</g>
<!-- Node325&#45;&gt;Node327 -->
<g id="edge3" class="edge"><title>Node325&#45;&gt;Node327</title>
<path fill="none" stroke="midnightblue" d="M337.875,-218.294C361.396,-238.16 405.455,-272.484 449,-291 455.151,-293.616 461.691,-295.881 468.337,-297.841"/>
<polygon fill="midnightblue" stroke="midnightblue" points="467.55,-301.254 478.118,-300.499 469.385,-294.499 467.55,-301.254"/>
</g>
<!-- Node328 -->
<g id="node5" class="node"><title>Node328</title>
<g id="a_node5"><a xlink:href="../../dc/d31/a00208.html#a54fc0a370b847dd77c0a698c765e6e55" target="_top" xlink:title="The budget of the Item, consisting of 3 numbers. ">
<polygon fill="none" stroke="black" points="673.5,-79.5 673.5,-98.5 805.5,-98.5 805.5,-79.5 673.5,-79.5"/>
<text text-anchor="middle" x="739.5" y="-86.5" font-family="Helvetica,sans-Serif" font-size="10.00">nars.entity.Item.getBudget</text>
</a>
</g>
</g>
<!-- Node325&#45;&gt;Node328 -->
<g id="edge4" class="edge"><title>Node325&#45;&gt;Node328</title>
<path fill="none" stroke="midnightblue" d="M334.137,-187.973C355.864,-165.212 400.829,-122.768 449,-105 518.31,-79.4342 603.296,-77.9228 663.206,-81.2881"/>
<polygon fill="midnightblue" stroke="midnightblue" points="663.146,-84.791 673.344,-81.9174 663.58,-77.8045 663.146,-84.791"/>
</g>
<!-- Node329 -->
<g id="node6" class="node"><title>Node329</title>
<g id="a_node6"><a xlink:href="../../d9/dd5/a00432.html#a672e3b935dca6df8c7e47c6c69e0fc66" target="_top" xlink:title="nars.storage.WorkSpace.get\lCurrentBeliefLink">
<polygon fill="none" stroke="black" points="471.5,-213 471.5,-243 612.5,-243 612.5,-213 471.5,-213"/>
<text text-anchor="start" x="479.5" y="-231" font-family="Helvetica,sans-Serif" font-size="10.00">nars.storage.WorkSpace.get</text>
<text text-anchor="middle" x="542" y="-220" font-family="Helvetica,sans-Serif" font-size="10.00">CurrentBeliefLink</text>
</a>
</g>
</g>
<!-- Node325&#45;&gt;Node329 -->
<g id="edge5" class="edge"><title>Node325&#45;&gt;Node329</title>
<path fill="none" stroke="midnightblue" d="M413.053,-213.494C429.102,-215.313 445.664,-217.191 461.332,-218.967"/>
<polygon fill="midnightblue" stroke="midnightblue" points="461.154,-222.469 471.484,-220.118 461.942,-215.514 461.154,-222.469"/>
</g>
<!-- Node330 -->
<g id="node7" class="node"><title>Node330</title>
<g id="a_node7"><a xlink:href="../../d9/dd5/a00432.html#aefcc9dfcebdc79cd7e099afd4553b083" target="_top" xlink:title="nars.storage.WorkSpace.get\lCurrentTask">
<polygon fill="none" stroke="black" points="471.5,-164 471.5,-194 612.5,-194 612.5,-164 471.5,-164"/>
<text text-anchor="start" x="479.5" y="-182" font-family="Helvetica,sans-Serif" font-size="10.00">nars.storage.WorkSpace.get</text>
<text text-anchor="middle" x="542" y="-171" font-family="Helvetica,sans-Serif" font-size="10.00">CurrentTask</text>
</a>
</g>
</g>
<!-- Node325&#45;&gt;Node330 -->
<g id="edge6" class="edge"><title>Node325&#45;&gt;Node330</title>
<path fill="none" stroke="midnightblue" d="M413.053,-192.926C429.102,-191.179 445.664,-189.377 461.332,-187.671"/>
<polygon fill="midnightblue" stroke="midnightblue" points="461.922,-191.128 471.484,-186.566 461.164,-184.169 461.922,-191.128"/>
</g>
<!-- Node331 -->
<g id="node8" class="node"><title>Node331</title>
<g id="a_node8"><a xlink:href="../../d9/dd5/a00432.html#a585409e59ebb973c820683bc556ebe37" target="_top" xlink:title="nars.storage.WorkSpace.get\lCurrentTaskLink">
<polygon fill="none" stroke="black" points="471.5,-115 471.5,-145 612.5,-145 612.5,-115 471.5,-115"/>
<text text-anchor="start" x="479.5" y="-133" font-family="Helvetica,sans-Serif" font-size="10.00">nars.storage.WorkSpace.get</text>
<text text-anchor="middle" x="542" y="-122" font-family="Helvetica,sans-Serif" font-size="10.00">CurrentTaskLink</text>
</a>
</g>
</g>
<!-- Node325&#45;&gt;Node331 -->
<g id="edge7" class="edge"><title>Node325&#45;&gt;Node331</title>
<path fill="none" stroke="midnightblue" d="M356.681,-187.989C382.224,-177.693 417.392,-164.116 449,-154 455.549,-151.904 462.402,-149.855 469.288,-147.892"/>
<polygon fill="midnightblue" stroke="midnightblue" points="470.674,-151.14 479.368,-145.084 468.795,-144.397 470.674,-151.14"/>
</g>
<!-- Node332 -->
<g id="node9" class="node"><title>Node332</title>
<g id="a_node9"><a xlink:href="../../dc/d31/a00208.html#adbb21c1891722e30c1d6cfaf5fee18ee" target="_top" xlink:title="Get durability value. ">
<polygon fill="none" stroke="black" points="470.5,-262.5 470.5,-281.5 613.5,-281.5 613.5,-262.5 470.5,-262.5"/>
<text text-anchor="middle" x="542" y="-269.5" font-family="Helvetica,sans-Serif" font-size="10.00">nars.entity.Item.getDurability</text>
</a>
</g>
</g>
<!-- Node325&#45;&gt;Node332 -->
<g id="edge8" class="edge"><title>Node325&#45;&gt;Node332</title>
<path fill="none" stroke="midnightblue" d="M354.588,-218.069C380.177,-228.934 416.287,-243.332 449,-253 458.054,-255.676 467.718,-258.113 477.253,-260.283"/>
<polygon fill="midnightblue" stroke="midnightblue" points="476.594,-263.722 487.112,-262.446 478.094,-256.884 476.594,-263.722"/>
</g>
<!-- Node334 -->
<g id="node11" class="node"><title>Node334</title>
<g id="a_node11"><a xlink:href="../../dc/d31/a00208.html#a97b35888ceaad90e7a428701051c51d7" target="_top" xlink:title="Get priority value. ">
<polygon fill="none" stroke="black" points="476,-38.5 476,-57.5 608,-57.5 608,-38.5 476,-38.5"/>
<text text-anchor="middle" x="542" y="-45.5" font-family="Helvetica,sans-Serif" font-size="10.00">nars.entity.Item.getPriority</text>
</a>
</g>
</g>
<!-- Node325&#45;&gt;Node334 -->
<g id="edge11" class="edge"><title>Node325&#45;&gt;Node334</title>
<path fill="none" stroke="midnightblue" d="M338.702,-187.835C357.972,-171.432 388.876,-144.112 413,-118 430.617,-98.9311 427.298,-86.2482 449,-72 455.867,-67.4915 463.541,-63.8289 471.448,-60.8538"/>
<polygon fill="midnightblue" stroke="midnightblue" points="472.826,-64.0824 481.171,-57.555 470.577,-57.4536 472.826,-64.0824"/>
</g>
<!-- Node336 -->
<g id="node13" class="node"><title>Node336</title>
<g id="a_node13"><a xlink:href="../../dc/d31/a00208.html#a786a1e14b3904092f4a3b2fa4faa08a7" target="_top" xlink:title="Increase priority value. ">
<polygon fill="none" stroke="black" points="476.5,-376.5 476.5,-395.5 607.5,-395.5 607.5,-376.5 476.5,-376.5"/>
<text text-anchor="middle" x="542" y="-383.5" font-family="Helvetica,sans-Serif" font-size="10.00">nars.entity.Item.incPriority</text>
</a>
</g>
</g>
<!-- Node325&#45;&gt;Node336 -->
<g id="edge14" class="edge"><title>Node325&#45;&gt;Node336</title>
<path fill="none" stroke="midnightblue" d="M327.676,-218.13C344.108,-251.012 387.82,-329.075 449,-367 454.458,-370.383 460.414,-373.176 466.585,-375.478"/>
<polygon fill="midnightblue" stroke="midnightblue" points="465.825,-378.913 476.418,-378.708 468.01,-372.262 465.825,-378.913"/>
</g>
<!-- Node332&#45;&gt;Node328 -->
<g id="edge9" class="edge"><title>Node332&#45;&gt;Node328</title>
<path fill="none" stroke="midnightblue" d="M613.764,-263.581C621.308,-260.911 628.564,-257.457 635,-253 687.925,-216.344 719.532,-142.947 732.139,-108.149"/>
<polygon fill="midnightblue" stroke="midnightblue" points="735.455,-109.266 735.444,-98.6714 728.846,-106.961 735.455,-109.266"/>
</g>
<!-- Node333 -->
<g id="node10" class="node"><title>Node333</title>
<g id="a_node10"><a xlink:href="../../dd/da2/a00192.html#ab0e0dc2172d3fab6390670acb68da1a6" target="_top" xlink:title="Get durability value. ">
<polygon fill="none" stroke="black" points="671,-257 671,-287 808,-287 808,-257 671,-257"/>
<text text-anchor="start" x="679" y="-275" font-family="Helvetica,sans-Serif" font-size="10.00">nars.entity.BudgetValue.get</text>
<text text-anchor="middle" x="739.5" y="-264" font-family="Helvetica,sans-Serif" font-size="10.00">Durability</text>
</a>
</g>
</g>
<!-- Node332&#45;&gt;Node333 -->
<g id="edge10" class="edge"><title>Node332&#45;&gt;Node333</title>
<path fill="none" stroke="midnightblue" d="M613.58,-272C628.922,-272 645.234,-272 660.833,-272"/>
<polygon fill="midnightblue" stroke="midnightblue" points="660.963,-275.5 670.963,-272 660.963,-268.5 660.963,-275.5"/>
</g>
<!-- Node334&#45;&gt;Node328 -->
<g id="edge12" class="edge"><title>Node334&#45;&gt;Node328</title>
<path fill="none" stroke="midnightblue" d="M588.343,-57.5093C616.617,-63.439 653.197,-71.1105 683.174,-77.397"/>
<polygon fill="midnightblue" stroke="midnightblue" points="682.559,-80.8442 693.065,-79.4714 683.996,-73.9933 682.559,-80.8442"/>
</g>
<!-- Node335 -->
<g id="node12" class="node"><title>Node335</title>
<g id="a_node12"><a xlink:href="../../dd/da2/a00192.html#a1e7b6826531f03f792f3516ce0e97ac3" target="_top" xlink:title="Get priority value. ">
<polygon fill="none" stroke="black" points="671,-30 671,-60 808,-60 808,-30 671,-30"/>
<text text-anchor="start" x="679" y="-48" font-family="Helvetica,sans-Serif" font-size="10.00">nars.entity.BudgetValue.get</text>
<text text-anchor="middle" x="739.5" y="-37" font-family="Helvetica,sans-Serif" font-size="10.00">Priority</text>
</a>
</g>
</g>
<!-- Node334&#45;&gt;Node335 -->
<g id="edge13" class="edge"><title>Node334&#45;&gt;Node335</title>
<path fill="none" stroke="midnightblue" d="M608.099,-47.001C624.905,-46.7431 643.166,-46.4629 660.555,-46.1961"/>
<polygon fill="midnightblue" stroke="midnightblue" points="660.729,-49.6939 670.674,-46.0408 660.622,-42.6947 660.729,-49.6939"/>
</g>
<!-- Node337 -->
<g id="node14" class="node"><title>Node337</title>
<g id="a_node14"><a xlink:href="../../dd/da2/a00192.html#a088e64163126211239b6afd25a9cdca3" target="_top" xlink:title="Increase priority value by a percentage of the remaining range. ">
<polygon fill="none" stroke="black" points="671,-371 671,-401 808,-401 808,-371 671,-371"/>
<text text-anchor="start" x="679" y="-389" font-family="Helvetica,sans-Serif" font-size="10.00">nars.entity.BudgetValue.inc</text>
<text text-anchor="middle" x="739.5" y="-378" font-family="Helvetica,sans-Serif" font-size="10.00">Priority</text>
</a>
</g>
</g>
<!-- Node336&#45;&gt;Node337 -->
<g id="edge15" class="edge"><title>Node336&#45;&gt;Node337</title>
<path fill="none" stroke="midnightblue" d="M607.556,-386C624.57,-386 643.107,-386 660.737,-386"/>
<polygon fill="midnightblue" stroke="midnightblue" points="660.994,-389.5 670.994,-386 660.994,-382.5 660.994,-389.5"/>
</g>
<!-- Node338 -->
<g id="node15" class="node"><title>Node338</title>
<g id="a_node15"><a xlink:href="../../db/d12/a00268.html#acaa4ebc080bc00d0e03be32d51d29e40" target="_top" xlink:title="A function where the output is disjunctively determined by the inputs. ">
<polygon fill="none" stroke="black" points="844,-376.5 844,-395.5 1005,-395.5 1005,-376.5 844,-376.5"/>
<text text-anchor="middle" x="924.5" y="-383.5" font-family="Helvetica,sans-Serif" font-size="10.00">nars.inference.UtilityFunctions.or</text>
</a>
</g>
</g>
<!-- Node337&#45;&gt;Node338 -->
<g id="edge16" class="edge"><title>Node337&#45;&gt;Node338</title>
<path fill="none" stroke="midnightblue" d="M808.123,-386C816.465,-386 825.092,-386 833.7,-386"/>
<polygon fill="midnightblue" stroke="midnightblue" points="833.776,-389.5 843.776,-386 833.776,-382.5 833.776,-389.5"/>
</g>
<!-- Node340 -->
<g id="node17" class="node"><title>Node340</title>
<g id="a_node17"><a xlink:href="../../db/d12/a00268.html#ae9f34c27ee5675fa2b97f2def9e1fb99" target="_top" xlink:title="A function where the output is the geometric average the inputs. ">
<polygon fill="none" stroke="black" points="449,-0.5 449,-19.5 635,-19.5 635,-0.5 449,-0.5"/>
<text text-anchor="middle" x="542" y="-7.5" font-family="Helvetica,sans-Serif" font-size="10.00">nars.inference.UtilityFunctions.aveGeo</text>
</a>
</g>
</g>
<!-- Node339&#45;&gt;Node340 -->
<g id="edge18" class="edge"><title>Node339&#45;&gt;Node340</title>
<path fill="none" stroke="midnightblue" d="M345.226,-78.9974C370.481,-64.2818 411.235,-42.1883 449,-29 456.663,-26.324 464.823,-23.9705 472.997,-21.9151"/>
<polygon fill="midnightblue" stroke="midnightblue" points="474.022,-25.2692 482.943,-19.5542 472.405,-18.4584 474.022,-25.2692"/>
</g>
</g>
</svg>
        <g id="navigator" transform="translate(0 0)" fill="#404254">
                <rect fill="#f2f5e9" fill-opacity="0.5" stroke="#606060" stroke-width=".5" x="0" y="0" width="60" height="60"/>
                <use id="zoomplus" xlink:href="#zoomPlus" x="17" y="9" onmousedown="handleZoom(evt,'in')"/>
                <use id="zoomminus" xlink:href="#zoomMin" x="42" y="9" onmousedown="handleZoom(evt,'out')"/>
                <use id="reset" xlink:href="#resetDef" x="30" y="36" onmousedown="handleReset()"/>
                <g id="arrowUp" xlink:href="#dirArrow" transform="translate(30 24)" onmousedown="handlePan(0,-1)">
                  <use xlink:href="#rim" fill="#404040">
                        <set attributeName="fill" to="#808080" begin="arrowUp.mouseover" end="arrowUp.mouseout"/>
                  </use>
                  <path fill="none" stroke="white" stroke-width="1.5" d="M0,-3.0v7 M-2.5,-0.5L0,-3.0L2.5,-0.5"/>
                </g>
                <g id="arrowRight" xlink:href="#dirArrow" transform="rotate(90) translate(36 -43)" onmousedown="handlePan(1,0)">
                  <use xlink:href="#rim" fill="#404040">
                        <set attributeName="fill" to="#808080" begin="arrowRight.mouseover" end="arrowRight.mouseout"/>
                  </use>
                  <path fill="none" stroke="white" stroke-width="1.5" d="M0,-3.0v7 M-2.5,-0.5L0,-3.0L2.5,-0.5"/>
                </g>
                <g id="arrowDown" xlink:href="#dirArrow" transform="rotate(180) translate(-30 -48)" onmousedown="handlePan(0,1)">
                  <use xlink:href="#rim" fill="#404040">
                        <set attributeName="fill" to="#808080" begin="arrowDown.mouseover" end="arrowDown.mouseout"/>
                  </use>
                  <path fill="none" stroke="white" stroke-width="1.5" d="M0,-3.0v7 M-2.5,-0.5L0,-3.0L2.5,-0.5"/>
                </g>
                <g id="arrowLeft" xlink:href="#dirArrow" transform="rotate(270) translate(-36 17)" onmousedown="handlePan(-1,0)">
                  <use xlink:href="#rim" fill="#404040">
                        <set attributeName="fill" to="#808080" begin="arrowLeft.mouseover" end="arrowLeft.mouseout"/>
                  </use>
                  <path fill="none" stroke="white" stroke-width="1.5" d="M0,-3.0v7 M-2.5,-0.5L0,-3.0L2.5,-0.5"/>
                </g>
        </g>
        <svg viewBox="0 0 15 15" width="100%" height="30px" preserveAspectRatio="xMaxYMin meet">
         <g id="arrow_out" transform="scale(0.3 0.3)">
          <a xlink:href="a00240_a2db9aa6bf208e45b225924b2ba1769da_cgraph_org.svg" target="_base">
           <rect id="button" ry="5" rx="5" y="6" x="6" height="38" width="38"
                fill="#f2f5e9" fill-opacity="0.5" stroke="#606060" stroke-width="1.0"/>
           <path id="arrow"
             d="M 11.500037,31.436501 C 11.940474,20.09759 22.043105,11.32322 32.158766,21.979434 L 37.068811,17.246167 C 37.068811,17.246167 37.088388,32 37.088388,32 L 22.160133,31.978069 C 22.160133,31.978069 26.997745,27.140456 26.997745,27.140456 C 18.528582,18.264221 13.291696,25.230495 11.500037,31.436501 z"
             style="fill:#404040;"/>
          </a>
         </g>
        </svg>
</svg>
