<?xml version="1.0" encoding="UTF-8" standalone="no"?>
<!DOCTYPE svg PUBLIC "-//W3C//DTD SVG 1.1//EN"
 "http://www.w3.org/Graphics/SVG/1.1/DTD/svg11.dtd">
<!-- Generated by graphviz version 2.38.0 (20140413.2041)
 -->
<!-- Title: nars.inference.BudgetFunctions.activate Pages: 1 -->
<!--zoomable 487 -->
<svg id="main" version="1.1" xmlns="http://www.w3.org/2000/svg" xmlns:xlink="http://www.w3.org/1999/xlink" xml:space="preserve" onload="init(evt)">
<style type="text/css"><![CDATA[
.edge:hover path { stroke: red; }
.edge:hover polygon { stroke: red; fill: red; }
]]></style>
<script type="text/javascript"><![CDATA[
var edges = document.getElementsByTagName('g');
if (edges && edges.length) {
  for (var i=0;i<edges.length;i++) {
    if (edges[i].id.substr(0,4)=='edge') {
      edges[i].setAttribute('class','edge');
    }
  }
}
]]></script>
        <defs>
                <circle id="rim" cx="0" cy="0" r="7"/>
                <circle id="rim2" cx="0" cy="0" r="3.5"/>
                <g id="zoomPlus">
                        <use xlink:href="#rim" fill="#404040">
                                <set attributeName="fill" to="#808080" begin="zoomplus.mouseover" end="zoomplus.mouseout"/>
                        </use>
                        <path d="M-4,0h8M0,-4v8" fill="none" stroke="white" stroke-width="1.5" pointer-events="none"/>
                </g>
                <g id="zoomMin">
                        <use xlink:href="#rim" fill="#404040">
                                <set attributeName="fill" to="#808080" begin="zoomminus.mouseover" end="zoomminus.mouseout"/>
                        </use>
                        <path d="M-4,0h8" fill="none" stroke="white" stroke-width="1.5" pointer-events="none"/>
                </g>
                <g id="dirArrow">
                        <path fill="none" stroke="white" stroke-width="1.5" d="M0,-3.0v7 M-2.5,-0.5L0,-3.0L2.5,-0.5"/>
                </g>
               <g id="resetDef">
                       <use xlink:href="#rim2" fill="#404040">
                               <set attributeName="fill" to="#808080" begin="reset.mouseover" end="reset.mouseout"/>
                       </use>
               </g>
        </defs>

<script type="text/javascript">
var viewWidth = 626;
var viewHeight = 487;
var sectionId = 'dynsection-2';
</script>
<script xlink:href="../../svgpan.js"/>
<svg id="graph" class="graph">
<g id="viewport">
<title>nars.inference.BudgetFunctions.activate</title>
<!-- Node0 -->
<g id="node1" class="node"><title>Node0</title>
<polygon fill="#bfbfbf" stroke="black" points="0,-289.5 0,-308.5 192,-308.5 192,-289.5 0,-289.5"/>
<text text-anchor="middle" x="96" y="-296.5" font-family="Helvetica,sans-Serif" font-size="10.00">nars.inference.BudgetFunctions.activate</text>
</g>
<!-- Node1 -->
<g id="node2" class="node"><title>Node1</title>
<g id="a_node2"><a xlink:href="../../d9/d21/a00240.html#a5df1e2954d5ce62f08cbd4be287ddaba" target="_top" xlink:title="A function where the output is the arithmetic average the inputs. ">
<polygon fill="none" stroke="black" points="228,-422.5 228,-441.5 413,-441.5 413,-422.5 228,-422.5"/>
<text text-anchor="middle" x="320.5" y="-429.5" font-family="Helvetica,sans-Serif" font-size="10.00">nars.inference.BudgetFunctions.aveAri</text>
</a>
</g>
</g>
<!-- Node0&#45;&gt;Node1 -->
<g id="edge1" class="edge"><title>Node0&#45;&gt;Node1</title>
<path fill="none" stroke="midnightblue" d="M105.024,-308.796C123.915,-331.152 173.711,-386.074 228,-413 232.905,-415.433 238.108,-417.555 243.444,-419.405"/>
<polygon fill="midnightblue" stroke="midnightblue" points="242.567,-422.798 253.157,-422.451 244.662,-416.119 242.567,-422.798"/>
</g>
<!-- Node2 -->
<g id="node3" class="node"><title>Node2</title>
<g id="a_node3"><a xlink:href="../../dc/d31/a00208.html#adbb21c1891722e30c1d6cfaf5fee18ee" target="_top" xlink:title="Get durability value. ">
<polygon fill="none" stroke="black" points="249,-346.5 249,-365.5 392,-365.5 392,-346.5 249,-346.5"/>
<text text-anchor="middle" x="320.5" y="-353.5" font-family="Helvetica,sans-Serif" font-size="10.00">nars.entity.Item.getDurability</text>
</a>
</g>
</g>
<!-- Node0&#45;&gt;Node2 -->
<g id="edge2" class="edge"><title>Node0&#45;&gt;Node2</title>
<path fill="none" stroke="midnightblue" d="M127.26,-308.502C153.696,-316.629 193.183,-328.349 228,-337 238.262,-339.55 249.229,-342.033 259.877,-344.317"/>
<polygon fill="midnightblue" stroke="midnightblue" points="259.448,-347.804 269.955,-346.443 260.892,-340.955 259.448,-347.804"/>
</g>
<!-- Node5 -->
<g id="node6" class="node"><title>Node5</title>
<g id="a_node6"><a xlink:href="../../dc/d31/a00208.html#a97b35888ceaad90e7a428701051c51d7" target="_top" xlink:title="Get priority value. ">
<polygon fill="none" stroke="black" points="254.5,-384.5 254.5,-403.5 386.5,-403.5 386.5,-384.5 254.5,-384.5"/>
<text text-anchor="middle" x="320.5" y="-391.5" font-family="Helvetica,sans-Serif" font-size="10.00">nars.entity.Item.getPriority</text>
</a>
</g>
</g>
<!-- Node0&#45;&gt;Node5 -->
<g id="edge5" class="edge"><title>Node0&#45;&gt;Node5</title>
<path fill="none" stroke="midnightblue" d="M110.045,-308.501C132.822,-324.634 181.829,-357.345 228,-375 234.954,-377.659 242.356,-379.976 249.82,-381.987"/>
<polygon fill="midnightblue" stroke="midnightblue" points="249.086,-385.411 259.638,-384.457 250.794,-378.622 249.086,-385.411"/>
</g>
<!-- Node7 -->
<g id="node8" class="node"><title>Node7</title>
<g id="a_node8"><a xlink:href="../../d7/ded/a00196.html#acf3c7af84e64586a6b1d549f02bfeead" target="_top" xlink:title="Recalculate the quality of the concept [to be refined to show extension/intension balance]...">
<polygon fill="none" stroke="black" points="246,-100.5 246,-119.5 395,-119.5 395,-100.5 246,-100.5"/>
<text text-anchor="middle" x="320.5" y="-107.5" font-family="Helvetica,sans-Serif" font-size="10.00">nars.entity.Concept.getQuality</text>
</a>
</g>
</g>
<!-- Node0&#45;&gt;Node7 -->
<g id="edge8" class="edge"><title>Node0&#45;&gt;Node7</title>
<path fill="none" stroke="midnightblue" d="M108.34,-289.368C144.197,-258.909 255.402,-164.447 300.355,-126.262"/>
<polygon fill="midnightblue" stroke="midnightblue" points="302.828,-128.755 308.183,-119.613 298.296,-123.419 302.828,-128.755"/>
</g>
<!-- Node12 -->
<g id="node13" class="node"><title>Node12</title>
<g id="a_node13"><a xlink:href="../../db/d12/a00268.html#acaa4ebc080bc00d0e03be32d51d29e40" target="_top" xlink:title="A function where the output is disjunctively determined by the inputs. ">
<polygon fill="none" stroke="black" points="453,-0.5 453,-19.5 614,-19.5 614,-0.5 453,-0.5"/>
<text text-anchor="middle" x="533.5" y="-7.5" font-family="Helvetica,sans-Serif" font-size="10.00">nars.inference.UtilityFunctions.or</text>
</a>
</g>
</g>
<!-- Node0&#45;&gt;Node12 -->
<g id="edge14" class="edge"><title>Node0&#45;&gt;Node12</title>
<path fill="none" stroke="midnightblue" d="M100.184,-289.391C111.653,-256.307 154.125,-146.133 228,-91 290.421,-44.4153 377.601,-24.5933 442.689,-16.1746"/>
<polygon fill="midnightblue" stroke="midnightblue" points="443.439,-19.6091 452.939,-14.919 442.587,-12.661 443.439,-19.6091"/>
</g>
<!-- Node13 -->
<g id="node14" class="node"><title>Node13</title>
<g id="a_node14"><a xlink:href="../../dc/d31/a00208.html#a0f27e5a39dc50b5f108732f59199db22" target="_top" xlink:title="Set durability value. ">
<polygon fill="none" stroke="black" points="249,-308.5 249,-327.5 392,-327.5 392,-308.5 249,-308.5"/>
<text text-anchor="middle" x="320.5" y="-315.5" font-family="Helvetica,sans-Serif" font-size="10.00">nars.entity.Item.setDurability</text>
</a>
</g>
</g>
<!-- Node0&#45;&gt;Node13 -->
<g id="edge15" class="edge"><title>Node0&#45;&gt;Node13</title>
<path fill="none" stroke="midnightblue" d="M192.005,-307.113C207.456,-308.432 223.334,-309.788 238.413,-311.076"/>
<polygon fill="midnightblue" stroke="midnightblue" points="238.447,-314.591 248.709,-311.955 239.043,-307.617 238.447,-314.591"/>
</g>
<!-- Node15 -->
<g id="node16" class="node"><title>Node15</title>
<g id="a_node16"><a xlink:href="../../dc/d31/a00208.html#aeda0763b2c90f6fef3f23b9b4d3d68f0" target="_top" xlink:title="Set priority value. ">
<polygon fill="none" stroke="black" points="254.5,-270.5 254.5,-289.5 386.5,-289.5 386.5,-270.5 254.5,-270.5"/>
<text text-anchor="middle" x="320.5" y="-277.5" font-family="Helvetica,sans-Serif" font-size="10.00">nars.entity.Item.setPriority</text>
</a>
</g>
</g>
<!-- Node0&#45;&gt;Node15 -->
<g id="edge18" class="edge"><title>Node0&#45;&gt;Node15</title>
<path fill="none" stroke="midnightblue" d="M192.005,-290.887C209.416,-289.4 227.37,-287.867 244.11,-286.438"/>
<polygon fill="midnightblue" stroke="midnightblue" points="244.695,-289.901 254.361,-285.562 244.099,-282.926 244.695,-289.901"/>
</g>
<!-- Node17 -->
<g id="node18" class="node"><title>Node17</title>
<g id="a_node18"><a xlink:href="../../dc/d31/a00208.html#a686c257308a15eba9458a438cc60227a" target="_top" xlink:title="Set quality value. ">
<polygon fill="none" stroke="black" points="254.5,-232.5 254.5,-251.5 386.5,-251.5 386.5,-232.5 254.5,-232.5"/>
<text text-anchor="middle" x="320.5" y="-239.5" font-family="Helvetica,sans-Serif" font-size="10.00">nars.entity.Item.setQuality</text>
</a>
</g>
</g>
<!-- Node0&#45;&gt;Node17 -->
<g id="edge21" class="edge"><title>Node0&#45;&gt;Node17</title>
<path fill="none" stroke="midnightblue" d="M127.26,-289.498C153.696,-281.371 193.183,-269.651 228,-261 238.262,-258.45 249.229,-255.967 259.877,-253.683"/>
<polygon fill="midnightblue" stroke="midnightblue" points="260.892,-257.045 269.955,-251.557 259.448,-250.196 260.892,-257.045"/>
</g>
<!-- Node3 -->
<g id="node4" class="node"><title>Node3</title>
<g id="a_node4"><a xlink:href="../../dc/d31/a00208.html#a54fc0a370b847dd77c0a698c765e6e55" target="_top" xlink:title="The budget of the Item, consisting of 3 numbers. ">
<polygon fill="none" stroke="black" points="467.5,-311.5 467.5,-330.5 599.5,-330.5 599.5,-311.5 467.5,-311.5"/>
<text text-anchor="middle" x="533.5" y="-318.5" font-family="Helvetica,sans-Serif" font-size="10.00">nars.entity.Item.getBudget</text>
</a>
</g>
</g>
<!-- Node2&#45;&gt;Node3 -->
<g id="edge3" class="edge"><title>Node2&#45;&gt;Node3</title>
<path fill="none" stroke="midnightblue" d="M378.878,-346.482C405.506,-342.065 437.34,-336.785 465.105,-332.179"/>
<polygon fill="midnightblue" stroke="midnightblue" points="465.841,-335.605 475.133,-330.516 464.695,-328.699 465.841,-335.605"/>
</g>
<!-- Node4 -->
<g id="node5" class="node"><title>Node4</title>
<g id="a_node5"><a xlink:href="../../dd/da2/a00192.html#ab0e0dc2172d3fab6390670acb68da1a6" target="_top" xlink:title="Get durability value. ">
<polygon fill="none" stroke="black" points="465,-399 465,-429 602,-429 602,-399 465,-399"/>
<text text-anchor="start" x="473" y="-417" font-family="Helvetica,sans-Serif" font-size="10.00">nars.entity.BudgetValue.get</text>
<text text-anchor="middle" x="533.5" y="-406" font-family="Helvetica,sans-Serif" font-size="10.00">Durability</text>
</a>
</g>
</g>
<!-- Node2&#45;&gt;Node4 -->
<g id="edge4" class="edge"><title>Node2&#45;&gt;Node4</title>
<path fill="none" stroke="midnightblue" d="M376.123,-365.57C388.369,-368.205 401.219,-371.359 413,-375 429.56,-380.118 432.644,-384.263 449,-390 454.791,-392.031 460.851,-394.023 466.947,-395.937"/>
<polygon fill="midnightblue" stroke="midnightblue" points="465.937,-399.288 476.524,-398.874 467.99,-392.595 465.937,-399.288"/>
</g>
<!-- Node5&#45;&gt;Node3 -->
<g id="edge6" class="edge"><title>Node5&#45;&gt;Node3</title>
<path fill="none" stroke="midnightblue" d="M386.548,-385.16C395.716,-382.591 404.801,-379.277 413,-375 432.513,-364.822 429.644,-351.473 449,-341 454.123,-338.228 459.628,-335.836 465.279,-333.773"/>
<polygon fill="midnightblue" stroke="midnightblue" points="466.485,-337.061 474.884,-330.602 464.291,-330.413 466.485,-337.061"/>
</g>
<!-- Node6 -->
<g id="node7" class="node"><title>Node6</title>
<g id="a_node7"><a xlink:href="../../dd/da2/a00192.html#a1e7b6826531f03f792f3516ce0e97ac3" target="_top" xlink:title="Get priority value. ">
<polygon fill="none" stroke="black" points="465,-448 465,-478 602,-478 602,-448 465,-448"/>
<text text-anchor="start" x="473" y="-466" font-family="Helvetica,sans-Serif" font-size="10.00">nars.entity.BudgetValue.get</text>
<text text-anchor="middle" x="533.5" y="-455" font-family="Helvetica,sans-Serif" font-size="10.00">Priority</text>
</a>
</g>
</g>
<!-- Node5&#45;&gt;Node6 -->
<g id="edge7" class="edge"><title>Node5&#45;&gt;Node6</title>
<path fill="none" stroke="midnightblue" d="M385.099,-403.579C394.659,-406.049 404.241,-409.14 413,-413 431.06,-420.96 431.251,-430.368 449,-439 452.999,-440.945 457.185,-442.761 461.461,-444.45"/>
<polygon fill="midnightblue" stroke="midnightblue" points="460.336,-447.766 470.929,-447.951 462.763,-441.2 460.336,-447.766"/>
</g>
<!-- Node8 -->
<g id="node9" class="node"><title>Node8</title>
<g id="a_node9"><a xlink:href="../../d6/db8/a00376.html#a5ff587f448a7a832732b4d86eb9a7642" target="_top" xlink:title="Get the average priority of Items. ">
<polygon fill="none" stroke="black" points="469.5,-115 469.5,-145 597.5,-145 597.5,-115 469.5,-115"/>
<text text-anchor="start" x="477.5" y="-133" font-family="Helvetica,sans-Serif" font-size="10.00">nars.storage.Bag.average</text>
<text text-anchor="middle" x="533.5" y="-122" font-family="Helvetica,sans-Serif" font-size="10.00">Priority</text>
</a>
</g>
</g>
<!-- Node7&#45;&gt;Node8 -->
<g id="edge9" class="edge"><title>Node7&#45;&gt;Node8</title>
<path fill="none" stroke="midnightblue" d="M395.001,-116.967C415.852,-118.943 438.545,-121.094 459.373,-123.069"/>
<polygon fill="midnightblue" stroke="midnightblue" points="459.146,-126.563 469.432,-124.022 459.807,-119.594 459.146,-126.563"/>
</g>
<!-- Node9 -->
<g id="node10" class="node"><title>Node9</title>
<g id="a_node10"><a xlink:href="../../dc/d59/a00364.html#ae14632d1d25bcde8d6698ea0b58eb19a" target="_top" xlink:title="The syntactic complexity, for constant automic Term, is 1. ">
<polygon fill="none" stroke="black" points="449,-76.5 449,-95.5 618,-95.5 618,-76.5 449,-76.5"/>
<text text-anchor="middle" x="533.5" y="-83.5" font-family="Helvetica,sans-Serif" font-size="10.00">nars.language.Term.getComplexity</text>
</a>
</g>
</g>
<!-- Node7&#45;&gt;Node9 -->
<g id="edge10" class="edge"><title>Node7&#45;&gt;Node9</title>
<path fill="none" stroke="midnightblue" d="M395.001,-101.64C409.11,-100.035 424.062,-98.3342 438.709,-96.6682"/>
<polygon fill="midnightblue" stroke="midnightblue" points="439.246,-100.13 448.786,-95.5219 438.455,-93.1746 439.246,-100.13"/>
</g>
<!-- Node10 -->
<g id="node11" class="node"><title>Node10</title>
<g id="a_node11"><a xlink:href="../../d7/ded/a00196.html#afcd1217b7680b073fa51f0d0f159dcea" target="_top" xlink:title="The term is the unique ID of the concept. ">
<polygon fill="none" stroke="black" points="463,-38.5 463,-57.5 604,-57.5 604,-38.5 463,-38.5"/>
<text text-anchor="middle" x="533.5" y="-45.5" font-family="Helvetica,sans-Serif" font-size="10.00">nars.entity.Concept.getTerm</text>
</a>
</g>
</g>
<!-- Node7&#45;&gt;Node10 -->
<g id="edge11" class="edge"><title>Node7&#45;&gt;Node10</title>
<path fill="none" stroke="midnightblue" d="M347.145,-100.494C372.722,-91.2175 413.248,-77.0684 449,-67 457.933,-64.4844 467.474,-62.0659 476.796,-59.8467"/>
<polygon fill="midnightblue" stroke="midnightblue" points="477.839,-63.1975 486.785,-57.5218 476.252,-56.3797 477.839,-63.1975"/>
</g>
<!-- Node11 -->
<g id="node12" class="node"><title>Node11</title>
<g id="a_node12"><a xlink:href="../../d7/ded/a00196.html#a9f031bcf593e4c6f27e82d2b97a2d83d" target="_top" xlink:title="Term links between the term and its components and compounds. ">
<polygon fill="none" stroke="black" points="463,-164 463,-194 604,-194 604,-164 463,-164"/>
<text text-anchor="start" x="471" y="-182" font-family="Helvetica,sans-Serif" font-size="10.00">nars.entity.Concept.getTerm</text>
<text text-anchor="middle" x="533.5" y="-171" font-family="Helvetica,sans-Serif" font-size="10.00">Links</text>
</a>
</g>
</g>
<!-- Node7&#45;&gt;Node11 -->
<g id="edge12" class="edge"><title>Node7&#45;&gt;Node11</title>
<path fill="none" stroke="midnightblue" d="M348.256,-119.594C373.98,-128.733 414.007,-142.729 449,-154 456.292,-156.349 463.965,-158.746 471.584,-161.081"/>
<polygon fill="midnightblue" stroke="midnightblue" points="470.586,-164.436 481.172,-163.997 472.623,-157.739 470.586,-164.436"/>
</g>
<!-- Node7&#45;&gt;Node12 -->
<g id="edge13" class="edge"><title>Node7&#45;&gt;Node12</title>
<path fill="none" stroke="midnightblue" d="M333.383,-100.446C355.053,-83.5012 403.007,-48.1669 449,-29 455.178,-26.4256 461.764,-24.1691 468.426,-22.1982"/>
<polygon fill="midnightblue" stroke="midnightblue" points="469.485,-25.537 478.199,-19.5114 467.629,-18.7874 469.485,-25.537"/>
</g>
<!-- Node13&#45;&gt;Node3 -->
<g id="edge16" class="edge"><title>Node13&#45;&gt;Node3</title>
<path fill="none" stroke="midnightblue" d="M392.053,-319.003C412.953,-319.3 435.916,-319.627 457.11,-319.928"/>
<polygon fill="midnightblue" stroke="midnightblue" points="457.306,-323.431 467.355,-320.074 457.406,-316.432 457.306,-323.431"/>
</g>
<!-- Node14 -->
<g id="node15" class="node"><title>Node14</title>
<g id="a_node15"><a xlink:href="../../dd/da2/a00192.html#ab72bce41fd8a1512fc8baa07ed93fc1b" target="_top" xlink:title="Change durability value. ">
<polygon fill="none" stroke="black" points="465,-350 465,-380 602,-380 602,-350 465,-350"/>
<text text-anchor="start" x="473" y="-368" font-family="Helvetica,sans-Serif" font-size="10.00">nars.entity.BudgetValue.set</text>
<text text-anchor="middle" x="533.5" y="-357" font-family="Helvetica,sans-Serif" font-size="10.00">Durability</text>
</a>
</g>
</g>
<!-- Node13&#45;&gt;Node14 -->
<g id="edge17" class="edge"><title>Node13&#45;&gt;Node14</title>
<path fill="none" stroke="midnightblue" d="M368.568,-327.535C382.855,-330.493 398.584,-333.815 413,-337 428.105,-340.337 444.253,-344.034 459.638,-347.617"/>
<polygon fill="midnightblue" stroke="midnightblue" points="459.085,-351.082 469.619,-349.95 460.679,-344.266 459.085,-351.082"/>
</g>
<!-- Node15&#45;&gt;Node3 -->
<g id="edge19" class="edge"><title>Node15&#45;&gt;Node3</title>
<path fill="none" stroke="midnightblue" d="M370.438,-289.509C401.22,-295.491 441.122,-303.244 473.629,-309.561"/>
<polygon fill="midnightblue" stroke="midnightblue" points="472.978,-313 483.462,-311.471 474.314,-306.128 472.978,-313"/>
</g>
<!-- Node16 -->
<g id="node17" class="node"><title>Node16</title>
<g id="a_node17"><a xlink:href="../../dd/da2/a00192.html#ac2cb3449a15125e5f0e4165aeee0befb" target="_top" xlink:title="Change priority value. ">
<polygon fill="none" stroke="black" points="465,-262 465,-292 602,-292 602,-262 465,-262"/>
<text text-anchor="start" x="473" y="-280" font-family="Helvetica,sans-Serif" font-size="10.00">nars.entity.BudgetValue.set</text>
<text text-anchor="middle" x="533.5" y="-269" font-family="Helvetica,sans-Serif" font-size="10.00">Priority</text>
</a>
</g>
</g>
<!-- Node15&#45;&gt;Node16 -->
<g id="edge20" class="edge"><title>Node15&#45;&gt;Node16</title>
<path fill="none" stroke="midnightblue" d="M386.529,-279.075C408.055,-278.769 432.231,-278.426 454.621,-278.107"/>
<polygon fill="midnightblue" stroke="midnightblue" points="454.817,-281.605 464.767,-277.963 454.718,-274.606 454.817,-281.605"/>
</g>
<!-- Node17&#45;&gt;Node3 -->
<g id="edge22" class="edge"><title>Node17&#45;&gt;Node3</title>
<path fill="none" stroke="midnightblue" d="M386.926,-250.155C396.041,-252.821 405.009,-256.345 413,-261 433.954,-273.207 428.163,-289.595 449,-302 452.665,-304.182 456.557,-306.113 460.579,-307.823"/>
<polygon fill="midnightblue" stroke="midnightblue" points="459.563,-311.18 470.155,-311.423 462.026,-304.628 459.563,-311.18"/>
</g>
<!-- Node18 -->
<g id="node19" class="node"><title>Node18</title>
<g id="a_node19"><a xlink:href="../../dd/da2/a00192.html#ab134287bfbdfe703501697c5f9eac50b" target="_top" xlink:title="Change quality value. ">
<polygon fill="none" stroke="black" points="465,-213 465,-243 602,-243 602,-213 465,-213"/>
<text text-anchor="start" x="473" y="-231" font-family="Helvetica,sans-Serif" font-size="10.00">nars.entity.BudgetValue.set</text>
<text text-anchor="middle" x="533.5" y="-220" font-family="Helvetica,sans-Serif" font-size="10.00">Quality</text>
</a>
</g>
</g>
<!-- Node17&#45;&gt;Node18 -->
<g id="edge23" class="edge"><title>Node17&#45;&gt;Node18</title>
<path fill="none" stroke="midnightblue" d="M386.529,-237.685C408.055,-236.257 432.231,-234.653 454.621,-233.167"/>
<polygon fill="midnightblue" stroke="midnightblue" points="455.02,-236.649 464.767,-232.494 454.557,-229.664 455.02,-236.649"/>
</g>
</g>
</svg>
        <g id="navigator" transform="translate(0 0)" fill="#404254">
                <rect fill="#f2f5e9" fill-opacity="0.5" stroke="#606060" stroke-width=".5" x="0" y="0" width="60" height="60"/>
                <use id="zoomplus" xlink:href="#zoomPlus" x="17" y="9" onmousedown="handleZoom(evt,'in')"/>
                <use id="zoomminus" xlink:href="#zoomMin" x="42" y="9" onmousedown="handleZoom(evt,'out')"/>
                <use id="reset" xlink:href="#resetDef" x="30" y="36" onmousedown="handleReset()"/>
                <g id="arrowUp" xlink:href="#dirArrow" transform="translate(30 24)" onmousedown="handlePan(0,-1)">
                  <use xlink:href="#rim" fill="#404040">
                        <set attributeName="fill" to="#808080" begin="arrowUp.mouseover" end="arrowUp.mouseout"/>
                  </use>
                  <path fill="none" stroke="white" stroke-width="1.5" d="M0,-3.0v7 M-2.5,-0.5L0,-3.0L2.5,-0.5"/>
                </g>
                <g id="arrowRight" xlink:href="#dirArrow" transform="rotate(90) translate(36 -43)" onmousedown="handlePan(1,0)">
                  <use xlink:href="#rim" fill="#404040">
                        <set attributeName="fill" to="#808080" begin="arrowRight.mouseover" end="arrowRight.mouseout"/>
                  </use>
                  <path fill="none" stroke="white" stroke-width="1.5" d="M0,-3.0v7 M-2.5,-0.5L0,-3.0L2.5,-0.5"/>
                </g>
                <g id="arrowDown" xlink:href="#dirArrow" transform="rotate(180) translate(-30 -48)" onmousedown="handlePan(0,1)">
                  <use xlink:href="#rim" fill="#404040">
                        <set attributeName="fill" to="#808080" begin="arrowDown.mouseover" end="arrowDown.mouseout"/>
                  </use>
                  <path fill="none" stroke="white" stroke-width="1.5" d="M0,-3.0v7 M-2.5,-0.5L0,-3.0L2.5,-0.5"/>
                </g>
                <g id="arrowLeft" xlink:href="#dirArrow" transform="rotate(270) translate(-36 17)" onmousedown="handlePan(-1,0)">
                  <use xlink:href="#rim" fill="#404040">
                        <set attributeName="fill" to="#808080" begin="arrowLeft.mouseover" end="arrowLeft.mouseout"/>
                  </use>
                  <path fill="none" stroke="white" stroke-width="1.5" d="M0,-3.0v7 M-2.5,-0.5L0,-3.0L2.5,-0.5"/>
                </g>
        </g>
        <svg viewBox="0 0 15 15" width="100%" height="30px" preserveAspectRatio="xMaxYMin meet">
         <g id="arrow_out" transform="scale(0.3 0.3)">
          <a xlink:href="a00240_aabac530761ea7ac0f43f0d1ea8d085c8_cgraph_org.svg" target="_base">
           <rect id="button" ry="5" rx="5" y="6" x="6" height="38" width="38"
                fill="#f2f5e9" fill-opacity="0.5" stroke="#606060" stroke-width="1.0"/>
           <path id="arrow"
             d="M 11.500037,31.436501 C 11.940474,20.09759 22.043105,11.32322 32.158766,21.979434 L 37.068811,17.246167 C 37.068811,17.246167 37.088388,32 37.088388,32 L 22.160133,31.978069 C 22.160133,31.978069 26.997745,27.140456 26.997745,27.140456 C 18.528582,18.264221 13.291696,25.230495 11.500037,31.436501 z"
             style="fill:#404040;"/>
          </a>
         </g>
        </svg>
</svg>
