<?xml version="1.0" encoding="UTF-8" standalone="no"?>
<!DOCTYPE svg PUBLIC "-//W3C//DTD SVG 1.1//EN"
 "http://www.w3.org/Graphics/SVG/1.1/DTD/svg11.dtd">
<!-- Generated by graphviz version 2.38.0 (20140413.2041)
 -->
<!-- Title: nars.inference.BudgetFunctions.activate Pages: 1 -->
<svg width="2365pt" height="88pt"
 viewBox="0.00 0.00 2365.00 88.00" xmlns="http://www.w3.org/2000/svg" xmlns:xlink="http://www.w3.org/1999/xlink">
<g id="graph0" class="graph" transform="scale(1 1) rotate(0) translate(4 84)">
<title>nars.inference.BudgetFunctions.activate</title>
<!-- Node19 -->
<g id="node1" class="node"><title>Node19</title>
<polygon fill="#bfbfbf" stroke="black" points="0,-30 0,-49 192,-49 192,-30 0,-30"/>
<text text-anchor="middle" x="96" y="-37" font-family="Helvetica,sans-Serif" font-size="10.00">nars.inference.BudgetFunctions.activate</text>
</g>
<!-- Node20 -->
<g id="node2" class="node"><title>Node20</title>
<g id="a_node2"><a xlink:href="../../d4/d27/a00392.html#a7affdc42dcb55d27d76cf636eab6230f" target="_top" xlink:title="Adjust the activation level of a Concept. ">
<polygon fill="none" stroke="black" points="228,-24.5 228,-54.5 374,-54.5 374,-24.5 228,-24.5"/>
<text text-anchor="start" x="236" y="-42.5" font-family="Helvetica,sans-Serif" font-size="10.00">nars.storage.Memory.activate</text>
<text text-anchor="middle" x="301" y="-31.5" font-family="Helvetica,sans-Serif" font-size="10.00">Concept</text>
</a>
</g>
</g>
<!-- Node19&#45;&gt;Node20 -->
<g id="edge1" class="edge"><title>Node19&#45;&gt;Node20</title>
<path fill="none" stroke="midnightblue" d="M202.354,-39.5C210.952,-39.5 219.512,-39.5 227.789,-39.5"/>
<polygon fill="midnightblue" stroke="midnightblue" points="202.259,-36.0001 192.259,-39.5 202.259,-43.0001 202.259,-36.0001"/>
</g>
<!-- Node21 -->
<g id="node3" class="node"><title>Node21</title>
<g id="a_node3"><a xlink:href="../../d7/ded/a00196.html#aef21f5ae7bef5194bd37ae526302843d" target="_top" xlink:title="Insert a TaskLink into the TaskLink bag. ">
<polygon fill="none" stroke="black" points="410,-24.5 410,-54.5 539,-54.5 539,-24.5 410,-24.5"/>
<text text-anchor="start" x="418" y="-42.5" font-family="Helvetica,sans-Serif" font-size="10.00">nars.entity.Concept.insert</text>
<text text-anchor="middle" x="474.5" y="-31.5" font-family="Helvetica,sans-Serif" font-size="10.00">TaskLink</text>
</a>
</g>
</g>
<!-- Node20&#45;&gt;Node21 -->
<g id="edge2" class="edge"><title>Node20&#45;&gt;Node21</title>
<path fill="none" stroke="midnightblue" d="M384.261,-39.5C392.838,-39.5 401.461,-39.5 409.787,-39.5"/>
<polygon fill="midnightblue" stroke="midnightblue" points="384.234,-36.0001 374.234,-39.5 384.234,-43.0001 384.234,-36.0001"/>
</g>
<!-- Node22 -->
<g id="node4" class="node"><title>Node22</title>
<g id="a_node4"><a xlink:href="../../d7/ded/a00196.html#a501121a11fc046eea4b69720cb622d84" target="_top" xlink:title="Link to a new task from all relevant concepts for continued processing in the near future for unspeci...">
<polygon fill="none" stroke="black" points="575,-24.5 575,-54.5 695,-54.5 695,-24.5 575,-24.5"/>
<text text-anchor="start" x="583" y="-42.5" font-family="Helvetica,sans-Serif" font-size="10.00">nars.entity.Concept.link</text>
<text text-anchor="middle" x="635" y="-31.5" font-family="Helvetica,sans-Serif" font-size="10.00">ToTask</text>
</a>
</g>
</g>
<!-- Node21&#45;&gt;Node22 -->
<g id="edge3" class="edge"><title>Node21&#45;&gt;Node22</title>
<path fill="none" stroke="midnightblue" d="M549.1,-39.5C557.714,-39.5 566.417,-39.5 574.799,-39.5"/>
<polygon fill="midnightblue" stroke="midnightblue" points="549.055,-36.0001 539.055,-39.5 549.055,-43.0001 549.055,-36.0001"/>
</g>
<!-- Node23 -->
<g id="node5" class="node"><title>Node23</title>
<g id="a_node5"><a xlink:href="../../d7/ded/a00196.html#a9ea7c3154932d7a736c105eb55daeb5c" target="_top" xlink:title="Directly process a new task. ">
<polygon fill="none" stroke="black" points="731,-24.5 731,-54.5 860,-54.5 860,-24.5 731,-24.5"/>
<text text-anchor="start" x="739" y="-42.5" font-family="Helvetica,sans-Serif" font-size="10.00">nars.entity.Concept.direct</text>
<text text-anchor="middle" x="795.5" y="-31.5" font-family="Helvetica,sans-Serif" font-size="10.00">Process</text>
</a>
</g>
</g>
<!-- Node22&#45;&gt;Node23 -->
<g id="edge4" class="edge"><title>Node22&#45;&gt;Node23</title>
<path fill="none" stroke="midnightblue" d="M705.021,-39.5C713.627,-39.5 722.396,-39.5 730.913,-39.5"/>
<polygon fill="midnightblue" stroke="midnightblue" points="705.02,-36.0001 695.02,-39.5 705.02,-43.0001 705.02,-36.0001"/>
</g>
<!-- Node24 -->
<g id="node6" class="node"><title>Node24</title>
<g id="a_node6"><a xlink:href="../../d4/d27/a00392.html#af8d07412d21a441a5c7005a477b06468" target="_top" xlink:title="Immediate processing of a new task, in constant time Local processing, in one concept only...">
<polygon fill="none" stroke="black" points="896,-24.5 896,-54.5 1053,-54.5 1053,-24.5 896,-24.5"/>
<text text-anchor="start" x="904" y="-42.5" font-family="Helvetica,sans-Serif" font-size="10.00">nars.storage.Memory.immediate</text>
<text text-anchor="middle" x="974.5" y="-31.5" font-family="Helvetica,sans-Serif" font-size="10.00">Process</text>
</a>
</g>
</g>
<!-- Node23&#45;&gt;Node24 -->
<g id="edge5" class="edge"><title>Node23&#45;&gt;Node24</title>
<path fill="none" stroke="midnightblue" d="M870.492,-39.5C878.854,-39.5 887.393,-39.5 895.801,-39.5"/>
<polygon fill="midnightblue" stroke="midnightblue" points="870.401,-36.0001 860.401,-39.5 870.401,-43.0001 870.401,-36.0001"/>
</g>
<!-- Node25 -->
<g id="node7" class="node"><title>Node25</title>
<g id="a_node7"><a xlink:href="../../d4/d27/a00392.html#ae43b86074c0d8f6a324696f69faa54b3" target="_top" xlink:title="Process the newTasks accumulated in the previous workCycle, accept input ones and those that correspo...">
<polygon fill="none" stroke="black" points="1089,-49.5 1089,-79.5 1235,-79.5 1235,-49.5 1089,-49.5"/>
<text text-anchor="start" x="1097" y="-67.5" font-family="Helvetica,sans-Serif" font-size="10.00">nars.storage.Memory.process</text>
<text text-anchor="middle" x="1162" y="-56.5" font-family="Helvetica,sans-Serif" font-size="10.00">NewTask</text>
</a>
</g>
</g>
<!-- Node24&#45;&gt;Node25 -->
<g id="edge6" class="edge"><title>Node24&#45;&gt;Node25</title>
<path fill="none" stroke="midnightblue" d="M1063.12,-51.3093C1071.71,-52.466 1080.35,-53.6306 1088.75,-54.7633"/>
<polygon fill="midnightblue" stroke="midnightblue" points="1063.47,-47.8245 1053.09,-49.9574 1062.54,-54.7618 1063.47,-47.8245"/>
</g>
<!-- Node32 -->
<g id="node14" class="node"><title>Node32</title>
<g id="a_node14"><a xlink:href="../../d4/d27/a00392.html#a5061708f88897cfdf4e0671c846762ca" target="_top" xlink:title="Select a novel task to process. ">
<polygon fill="none" stroke="black" points="1089,-0.5 1089,-30.5 1235,-30.5 1235,-0.5 1089,-0.5"/>
<text text-anchor="start" x="1097" y="-18.5" font-family="Helvetica,sans-Serif" font-size="10.00">nars.storage.Memory.process</text>
<text text-anchor="middle" x="1162" y="-7.5" font-family="Helvetica,sans-Serif" font-size="10.00">NovelTask</text>
</a>
</g>
</g>
<!-- Node24&#45;&gt;Node32 -->
<g id="edge13" class="edge"><title>Node24&#45;&gt;Node32</title>
<path fill="none" stroke="midnightblue" d="M1063.12,-28.1631C1071.71,-27.0527 1080.35,-25.9346 1088.75,-24.8472"/>
<polygon fill="midnightblue" stroke="midnightblue" points="1062.56,-24.7066 1053.09,-29.4609 1063.46,-31.6488 1062.56,-24.7066"/>
</g>
<!-- Node26 -->
<g id="node8" class="node"><title>Node26</title>
<g id="a_node8"><a xlink:href="../../d4/d27/a00392.html#a59ae339d666409988d90d29be4f73a91" target="_top" xlink:title="An atomic working workCycle of the system: process new Tasks, then fireFromProcessConcept a concept...">
<polygon fill="none" stroke="black" points="1271,-24.5 1271,-54.5 1404,-54.5 1404,-24.5 1271,-24.5"/>
<text text-anchor="start" x="1279" y="-42.5" font-family="Helvetica,sans-Serif" font-size="10.00">nars.storage.Memory.work</text>
<text text-anchor="middle" x="1337.5" y="-31.5" font-family="Helvetica,sans-Serif" font-size="10.00">Cycle</text>
</a>
</g>
</g>
<!-- Node25&#45;&gt;Node26 -->
<g id="edge7" class="edge"><title>Node25&#45;&gt;Node26</title>
<path fill="none" stroke="midnightblue" d="M1245.12,-52.6675C1253.72,-51.4286 1262.37,-50.1809 1270.76,-48.9733"/>
<polygon fill="midnightblue" stroke="midnightblue" points="1244.47,-49.2244 1235.07,-54.1149 1245.47,-56.1529 1244.47,-49.2244"/>
</g>
<!-- Node27 -->
<g id="node9" class="node"><title>Node27</title>
<g id="a_node9"><a xlink:href="../../df/d15/a00416.html#a0d5c797dc17d9e8d0998852915e0f303" target="_top" xlink:title="nars.storage.ReasonerBatch.doTick">
<polygon fill="none" stroke="black" points="1440,-30 1440,-49 1613,-49 1613,-30 1440,-30"/>
<text text-anchor="middle" x="1526.5" y="-37" font-family="Helvetica,sans-Serif" font-size="10.00">nars.storage.ReasonerBatch.doTick</text>
</a>
</g>
</g>
<!-- Node26&#45;&gt;Node27 -->
<g id="edge8" class="edge"><title>Node26&#45;&gt;Node27</title>
<path fill="none" stroke="midnightblue" d="M1414.34,-39.5C1422.78,-39.5 1431.42,-39.5 1439.97,-39.5"/>
<polygon fill="midnightblue" stroke="midnightblue" points="1414.17,-36.0001 1404.17,-39.5 1414.17,-43.0001 1414.17,-36.0001"/>
</g>
<!-- Node28 -->
<g id="node10" class="node"><title>Node28</title>
<g id="a_node10"><a xlink:href="../../df/d15/a00416.html#a3468aa0f99edcd66412f27922dddb880" target="_top" xlink:title="A clock tick. ">
<polygon fill="none" stroke="black" points="1649,-30 1649,-49 1809,-49 1809,-30 1649,-30"/>
<text text-anchor="middle" x="1729" y="-37" font-family="Helvetica,sans-Serif" font-size="10.00">nars.storage.ReasonerBatch.tick</text>
</a>
</g>
</g>
<!-- Node27&#45;&gt;Node28 -->
<g id="edge9" class="edge"><title>Node27&#45;&gt;Node28</title>
<path fill="none" stroke="midnightblue" d="M1623.13,-39.5C1631.7,-39.5 1640.31,-39.5 1648.71,-39.5"/>
<polygon fill="midnightblue" stroke="midnightblue" points="1623.11,-36.0001 1613.11,-39.5 1623.11,-43.0001 1623.11,-36.0001"/>
</g>
<!-- Node29 -->
<g id="node11" class="node"><title>Node29</title>
<g id="a_node11"><a xlink:href="../../d9/da1/a00396.html#a5d9cfe517bcfbe41e5251910bcd119c1" target="_top" xlink:title="Run to completion: repeatedly execute NARS working cycle, until Inputs are Finished, or 1000 steps. ">
<polygon fill="none" stroke="black" points="1845,-30 1845,-49 1989,-49 1989,-30 1845,-30"/>
<text text-anchor="middle" x="1917" y="-37" font-family="Helvetica,sans-Serif" font-size="10.00">nars.storage.NARSBatch.run</text>
</a>
</g>
</g>
<!-- Node28&#45;&gt;Node29 -->
<g id="edge10" class="edge"><title>Node28&#45;&gt;Node29</title>
<path fill="none" stroke="midnightblue" d="M1819.22,-39.5C1827.82,-39.5 1836.47,-39.5 1844.87,-39.5"/>
<polygon fill="midnightblue" stroke="midnightblue" points="1819.15,-36.0001 1809.15,-39.5 1819.15,-43.0001 1819.15,-36.0001"/>
</g>
<!-- Node30 -->
<g id="node12" class="node"><title>Node30</title>
<g id="a_node12"><a xlink:href="../../d9/da1/a00396.html#a7c307c6b842f82664de6b0e52bdf8efc" target="_top" xlink:title="non&#45;static equivalent to main(String[]) : run to completion from an input file ">
<polygon fill="none" stroke="black" points="2025,-24.5 2025,-54.5 2169,-54.5 2169,-24.5 2025,-24.5"/>
<text text-anchor="start" x="2033" y="-42.5" font-family="Helvetica,sans-Serif" font-size="10.00">nars.storage.NARSBatch.run</text>
<text text-anchor="middle" x="2097" y="-31.5" font-family="Helvetica,sans-Serif" font-size="10.00">Inference</text>
</a>
</g>
</g>
<!-- Node29&#45;&gt;Node30 -->
<g id="edge11" class="edge"><title>Node29&#45;&gt;Node30</title>
<path fill="none" stroke="midnightblue" d="M1999.17,-39.5C2007.79,-39.5 2016.51,-39.5 2025,-39.5"/>
<polygon fill="midnightblue" stroke="midnightblue" points="1999.12,-36.0001 1989.12,-39.5 1999.12,-43.0001 1999.12,-36.0001"/>
</g>
<!-- Node31 -->
<g id="node13" class="node"><title>Node31</title>
<g id="a_node13"><a xlink:href="../../d9/da1/a00396.html#abafc597289bc2f6453b5cd0dd6634e54" target="_top" xlink:title="The entry point of the standalone application. ">
<polygon fill="none" stroke="black" points="2205,-30 2205,-49 2357,-49 2357,-30 2205,-30"/>
<text text-anchor="middle" x="2281" y="-37" font-family="Helvetica,sans-Serif" font-size="10.00">nars.storage.NARSBatch.main</text>
</a>
</g>
</g>
<!-- Node30&#45;&gt;Node31 -->
<g id="edge12" class="edge"><title>Node30&#45;&gt;Node31</title>
<path fill="none" stroke="midnightblue" d="M2179.17,-39.5C2187.76,-39.5 2196.48,-39.5 2205,-39.5"/>
<polygon fill="midnightblue" stroke="midnightblue" points="2179.15,-36.0001 2169.15,-39.5 2179.15,-43.0001 2179.15,-36.0001"/>
</g>
<!-- Node32&#45;&gt;Node26 -->
<g id="edge14" class="edge"><title>Node32&#45;&gt;Node26</title>
<path fill="none" stroke="midnightblue" d="M1245.12,-26.8592C1253.72,-28.0486 1262.37,-29.2464 1270.76,-30.4056"/>
<polygon fill="midnightblue" stroke="midnightblue" points="1245.46,-23.373 1235.07,-25.4697 1244.5,-30.307 1245.46,-23.373"/>
</g>
</g>
</svg>
