<?xml version="1.0" encoding="UTF-8" standalone="no"?>
<!DOCTYPE svg PUBLIC "-//W3C//DTD SVG 1.1//EN"
 "http://www.w3.org/Graphics/SVG/1.1/DTD/svg11.dtd">
<!-- Generated by graphviz version 2.38.0 (20140413.2041)
 -->
<!-- Title: nars.inference.BudgetFunctions.forward Pages: 1 -->
<!--zoomable 641 -->
<svg id="main" version="1.1" xmlns="http://www.w3.org/2000/svg" xmlns:xlink="http://www.w3.org/1999/xlink" xml:space="preserve" onload="init(evt)">
<style type="text/css"><![CDATA[
.edge:hover path { stroke: red; }
.edge:hover polygon { stroke: red; fill: red; }
]]></style>
<script type="text/javascript"><![CDATA[
var edges = document.getElementsByTagName('g');
if (edges && edges.length) {
  for (var i=0;i<edges.length;i++) {
    if (edges[i].id.substr(0,4)=='edge') {
      edges[i].setAttribute('class','edge');
    }
  }
}
]]></script>
        <defs>
                <circle id="rim" cx="0" cy="0" r="7"/>
                <circle id="rim2" cx="0" cy="0" r="3.5"/>
                <g id="zoomPlus">
                        <use xlink:href="#rim" fill="#404040">
                                <set attributeName="fill" to="#808080" begin="zoomplus.mouseover" end="zoomplus.mouseout"/>
                        </use>
                        <path d="M-4,0h8M0,-4v8" fill="none" stroke="white" stroke-width="1.5" pointer-events="none"/>
                </g>
                <g id="zoomMin">
                        <use xlink:href="#rim" fill="#404040">
                                <set attributeName="fill" to="#808080" begin="zoomminus.mouseover" end="zoomminus.mouseout"/>
                        </use>
                        <path d="M-4,0h8" fill="none" stroke="white" stroke-width="1.5" pointer-events="none"/>
                </g>
                <g id="dirArrow">
                        <path fill="none" stroke="white" stroke-width="1.5" d="M0,-3.0v7 M-2.5,-0.5L0,-3.0L2.5,-0.5"/>
                </g>
               <g id="resetDef">
                       <use xlink:href="#rim2" fill="#404040">
                               <set attributeName="fill" to="#808080" begin="reset.mouseover" end="reset.mouseout"/>
                       </use>
               </g>
        </defs>

<script type="text/javascript">
var viewWidth = 2764;
var viewHeight = 641;
var sectionId = 'dynsection-18';
</script>
<script xlink:href="../../svgpan.js"/>
<svg id="graph" class="graph">
<g id="viewport">
<title>nars.inference.BudgetFunctions.forward</title>
<!-- Node341 -->
<g id="node1" class="node"><title>Node341</title>
<polygon fill="#bfbfbf" stroke="black" points="0,-334 0,-353 190,-353 190,-334 0,-334"/>
<text text-anchor="middle" x="95" y="-341" font-family="Helvetica,sans-Serif" font-size="10.00">nars.inference.BudgetFunctions.forward</text>
</g>
<!-- Node342 -->
<g id="node2" class="node"><title>Node342</title>
<g id="a_node2"><a xlink:href="../../dc/ded/a00252.html#ab124c9151308789ed5f1e5562adeef96" target="_top" xlink:title="{&lt;M ==&gt; S&gt;, &lt;M ==&gt; P&gt;} |&#45; {&lt;S ==&gt; P&gt;, ">
<polygon fill="none" stroke="black" points="477,-394.5 477,-424.5 626,-424.5 626,-394.5 477,-394.5"/>
<text text-anchor="start" x="485" y="-412.5" font-family="Helvetica,sans-Serif" font-size="10.00">nars.inference.RuleTables.abd</text>
<text text-anchor="middle" x="551.5" y="-401.5" font-family="Helvetica,sans-Serif" font-size="10.00">IndCom</text>
</a>
</g>
</g>
<!-- Node341&#45;&gt;Node342 -->
<g id="edge1" class="edge"><title>Node341&#45;&gt;Node342</title>
<path fill="none" stroke="midnightblue" d="M124.904,-357.352C150.749,-369.013 189.995,-384.961 226,-392.5 310.758,-410.247 410.54,-412.823 476.857,-412.041"/>
<polygon fill="midnightblue" stroke="midnightblue" points="126.237,-354.113 115.689,-353.119 123.315,-360.474 126.237,-354.113"/>
</g>
<!-- Node354 -->
<g id="node14" class="node"><title>Node354</title>
<g id="a_node14"><a xlink:href="../../dd/dd7/a00260.html#a50197adbc4f3cd1f109fe4d3629cdf6c" target="_top" xlink:title="{&lt;S ==&gt; P&gt;, &lt;M &lt;=&gt; P&gt;} |&#45; &lt;S ==&gt; P&gt; ">
<polygon fill="none" stroke="black" points="488.5,-266.5 488.5,-296.5 614.5,-296.5 614.5,-266.5 488.5,-266.5"/>
<text text-anchor="start" x="496.5" y="-284.5" font-family="Helvetica,sans-Serif" font-size="10.00">nars.inference.Syllogistic</text>
<text text-anchor="middle" x="551.5" y="-273.5" font-family="Helvetica,sans-Serif" font-size="10.00">Rules.analogy</text>
</a>
</g>
</g>
<!-- Node341&#45;&gt;Node354 -->
<g id="edge13" class="edge"><title>Node341&#45;&gt;Node354</title>
<path fill="none" stroke="midnightblue" d="M124.881,-329.54C150.712,-317.808 189.949,-301.817 226,-294.5 315.928,-276.247 422.667,-275.949 488.495,-278.153"/>
<polygon fill="midnightblue" stroke="midnightblue" points="123.278,-326.425 115.673,-333.801 126.218,-332.778 123.278,-326.425"/>
</g>
<!-- Node356 -->
<g id="node16" class="node"><title>Node356</title>
<g id="a_node16"><a xlink:href="../../dc/ded/a00252.html#ae7ff6eab9dca18af37064bc609eaf63c" target="_top" xlink:title="{&lt;(&amp;&amp;, S2, S3) ==&gt; P&gt;, &lt;(&amp;&amp;, S1, S3) ==&gt; P&gt;} |&#45; &lt;S1 ==&gt; S2&gt; ">
<polygon fill="none" stroke="black" points="226,-567 226,-586 423,-586 423,-567 226,-567"/>
<text text-anchor="middle" x="324.5" y="-574" font-family="Helvetica,sans-Serif" font-size="10.00">nars.inference.RuleTables.conditionalAbd</text>
</a>
</g>
</g>
<!-- Node341&#45;&gt;Node356 -->
<g id="edge16" class="edge"><title>Node341&#45;&gt;Node356</title>
<path fill="none" stroke="midnightblue" d="M101.843,-362.706C115.789,-405.084 155.243,-506.776 226,-556.5 232.079,-560.772 238.867,-564.173 245.954,-566.876"/>
<polygon fill="midnightblue" stroke="midnightblue" points="105.142,-361.53 98.7767,-353.061 98.4706,-363.651 105.142,-361.53"/>
</g>
<!-- Node357 -->
<g id="node17" class="node"><title>Node357</title>
<g id="a_node17"><a xlink:href="../../dc/ded/a00252.html#aac2b267fcfa9bb34e03d44a410bfd92b" target="_top" xlink:title="{&lt;(&amp;&amp;, S1, S2) &lt;=&gt; P&gt;, (&amp;&amp;, S1, S2)} |&#45; P ">
<polygon fill="none" stroke="black" points="901,-176 901,-195 1098,-195 1098,-176 901,-176"/>
<text text-anchor="middle" x="999.5" y="-183" font-family="Helvetica,sans-Serif" font-size="10.00">nars.inference.RuleTables.conditionalAna</text>
</a>
</g>
</g>
<!-- Node341&#45;&gt;Node357 -->
<g id="edge18" class="edge"><title>Node341&#45;&gt;Node357</title>
<path fill="none" stroke="midnightblue" d="M103.652,-324.424C119.788,-287.124 161.232,-205.316 226,-172.5 347.147,-111.118 759.993,-154.978 927.259,-175.992"/>
<polygon fill="midnightblue" stroke="midnightblue" points="100.408,-323.11 99.7738,-333.686 106.864,-325.814 100.408,-323.11"/>
</g>
<!-- Node358 -->
<g id="node18" class="node"><title>Node358</title>
<g id="a_node18"><a xlink:href="../../dc/ded/a00252.html#a52bb3626302eb9f10567c24ec5dbc934" target="_top" xlink:title="{&lt;(&amp;&amp;, S1, S2, S3) ==&gt; P&gt;, S1} |&#45; &lt;(&amp;&amp;, S2, S3) ==&gt; P&gt; {&lt;(&amp;&amp;, S2, S3) ==&gt; P&gt;, &lt;S1 ==&gt; S2&gt;} |&#45; &lt;(&amp;&amp;...">
<polygon fill="none" stroke="black" points="682.5,-90.5 682.5,-120.5 862.5,-120.5 862.5,-90.5 682.5,-90.5"/>
<text text-anchor="start" x="690.5" y="-108.5" font-family="Helvetica,sans-Serif" font-size="10.00">nars.inference.RuleTables.conditional</text>
<text text-anchor="middle" x="772.5" y="-97.5" font-family="Helvetica,sans-Serif" font-size="10.00">DedInd</text>
</a>
</g>
</g>
<!-- Node341&#45;&gt;Node358 -->
<g id="edge20" class="edge"><title>Node341&#45;&gt;Node358</title>
<path fill="none" stroke="midnightblue" d="M101.488,-323.971C114.716,-281.018 152.809,-178.736 226,-135.5 300.773,-91.3298 547.704,-95.0013 682.23,-100.671"/>
<polygon fill="midnightblue" stroke="midnightblue" points="98.0728,-323.179 98.5925,-333.761 104.785,-325.165 98.0728,-323.179"/>
</g>
<!-- Node360 -->
<g id="node20" class="node"><title>Node360</title>
<g id="a_node20"><a xlink:href="../../dd/dd7/a00248.html#aeb46ba9d63958c022519607076ce1273" target="_top" xlink:title="{ ">
<polygon fill="none" stroke="black" points="234.5,-479 234.5,-498 414.5,-498 414.5,-479 234.5,-479"/>
<text text-anchor="middle" x="324.5" y="-486" font-family="Helvetica,sans-Serif" font-size="10.00">nars.inference.LocalRules.conversion</text>
</a>
</g>
</g>
<!-- Node341&#45;&gt;Node360 -->
<g id="edge24" class="edge"><title>Node341&#45;&gt;Node360</title>
<path fill="none" stroke="midnightblue" d="M108.872,-361.407C129.966,-389.309 174.711,-442.725 226,-469.5 233.491,-473.411 241.686,-476.52 250.042,-478.992"/>
<polygon fill="midnightblue" stroke="midnightblue" points="111.641,-359.265 102.877,-353.311 106.015,-363.431 111.641,-359.265"/>
</g>
<!-- Node362 -->
<g id="node22" class="node"><title>Node362</title>
<g id="a_node22"><a xlink:href="../../dd/dd7/a00248.html#ae878f1b2fff31ef78b7916bde1b939b3" target="_top" xlink:title="{&lt;S &#45;&#45;&gt; P&gt;} |&#45; &lt;S &lt;&#45;&gt; P&gt; {&lt;S &lt;&#45;&gt; P&gt;} |&#45; &lt;S &#45;&#45;&gt; P&gt; Switch between Inheritance/Implication and Similari...">
<polygon fill="none" stroke="black" points="242,-304.5 242,-334.5 407,-334.5 407,-304.5 242,-304.5"/>
<text text-anchor="start" x="250" y="-322.5" font-family="Helvetica,sans-Serif" font-size="10.00">nars.inference.LocalRules.convert</text>
<text text-anchor="middle" x="324.5" y="-311.5" font-family="Helvetica,sans-Serif" font-size="10.00">Relation</text>
</a>
</g>
</g>
<!-- Node341&#45;&gt;Node362 -->
<g id="edge27" class="edge"><title>Node341&#45;&gt;Node362</title>
<path fill="none" stroke="midnightblue" d="M196.209,-332.928C211.468,-331.319 227.058,-329.674 241.857,-328.113"/>
<polygon fill="midnightblue" stroke="midnightblue" points="195.818,-329.45 186.241,-333.98 196.553,-336.412 195.818,-329.45"/>
</g>
<!-- Node364 -->
<g id="node24" class="node"><title>Node364</title>
<g id="a_node24"><a xlink:href="../../dc/ded/a00252.html#a25eeb7e192fb51fb7c1471e9af6489f4" target="_top" xlink:title="nars.inference.RuleTables.dedExe">
<polygon fill="none" stroke="black" points="241,-441 241,-460 408,-460 408,-441 241,-441"/>
<text text-anchor="middle" x="324.5" y="-448" font-family="Helvetica,sans-Serif" font-size="10.00">nars.inference.RuleTables.dedExe</text>
</a>
</g>
</g>
<!-- Node341&#45;&gt;Node364 -->
<g id="edge30" class="edge"><title>Node341&#45;&gt;Node364</title>
<path fill="none" stroke="midnightblue" d="M116.33,-359.495C140.96,-378.136 184.35,-408.655 226,-426.5 240.261,-432.61 256.39,-437.373 271.366,-440.986"/>
<polygon fill="midnightblue" stroke="midnightblue" points="118.206,-356.523 108.142,-353.21 113.943,-362.076 118.206,-356.523"/>
</g>
<!-- Node365 -->
<g id="node25" class="node"><title>Node365</title>
<g id="a_node25"><a xlink:href="../../dc/ded/a00252.html#aa57c06fe6fa6d3c396b196edaf631a92" target="_top" xlink:title="nars.inference.RuleTables.function\lBeggingToBeAsync">
<polygon fill="none" stroke="black" points="240.5,-216.5 240.5,-246.5 408.5,-246.5 408.5,-216.5 240.5,-216.5"/>
<text text-anchor="start" x="248.5" y="-234.5" font-family="Helvetica,sans-Serif" font-size="10.00">nars.inference.RuleTables.function</text>
<text text-anchor="middle" x="324.5" y="-223.5" font-family="Helvetica,sans-Serif" font-size="10.00">BeggingToBeAsync</text>
</a>
</g>
</g>
<!-- Node341&#45;&gt;Node365 -->
<g id="edge32" class="edge"><title>Node341&#45;&gt;Node365</title>
<path fill="none" stroke="midnightblue" d="M116.936,-327.832C141.838,-309.795 185.184,-280.25 226,-261.5 238.472,-255.771 252.329,-250.761 265.588,-246.56"/>
<polygon fill="midnightblue" stroke="midnightblue" points="114.632,-325.182 108.635,-333.916 118.77,-330.828 114.632,-325.182"/>
</g>
<!-- Node368 -->
<g id="node28" class="node"><title>Node368</title>
<g id="a_node28"><a xlink:href="../../dd/dd7/a00248.html#abde426effec7b2e378751a9fa8769356" target="_top" xlink:title="{&lt;S &lt;&#45;&gt; P&gt;, ">
<polygon fill="none" stroke="black" points="248.5,-353.5 248.5,-383.5 400.5,-383.5 400.5,-353.5 248.5,-353.5"/>
<text text-anchor="start" x="256.5" y="-371.5" font-family="Helvetica,sans-Serif" font-size="10.00">nars.inference.LocalRules.infer</text>
<text text-anchor="middle" x="324.5" y="-360.5" font-family="Helvetica,sans-Serif" font-size="10.00">ToAsym</text>
</a>
</g>
</g>
<!-- Node341&#45;&gt;Node368 -->
<g id="edge37" class="edge"><title>Node341&#45;&gt;Node368</title>
<path fill="none" stroke="midnightblue" d="M192.612,-354.117C211.211,-356.161 230.435,-358.273 248.234,-360.229"/>
<polygon fill="midnightblue" stroke="midnightblue" points="192.979,-350.636 182.657,-353.023 192.215,-357.594 192.979,-350.636"/>
</g>
<!-- Node369 -->
<g id="node29" class="node"><title>Node369</title>
<g id="a_node29"><a xlink:href="../../dd/dd7/a00248.html#aa28c13b04b498c8937bca7b1f6eb20d1" target="_top" xlink:title="{&lt;S &#45;&#45;&gt; P&gt;, ">
<polygon fill="none" stroke="black" points="248.5,-517.5 248.5,-547.5 400.5,-547.5 400.5,-517.5 248.5,-517.5"/>
<text text-anchor="start" x="256.5" y="-535.5" font-family="Helvetica,sans-Serif" font-size="10.00">nars.inference.LocalRules.infer</text>
<text text-anchor="middle" x="324.5" y="-524.5" font-family="Helvetica,sans-Serif" font-size="10.00">ToSym</text>
</a>
</g>
</g>
<!-- Node341&#45;&gt;Node369 -->
<g id="edge39" class="edge"><title>Node341&#45;&gt;Node369</title>
<path fill="none" stroke="midnightblue" d="M105.329,-361.98C123.6,-396.226 167.475,-469.51 226,-507.5 232.889,-511.972 240.535,-515.644 248.427,-518.66"/>
<polygon fill="midnightblue" stroke="midnightblue" points="108.402,-360.303 100.678,-353.052 102.194,-363.537 108.402,-360.303"/>
</g>
<!-- Node370 -->
<g id="node30" class="node"><title>Node370</title>
<g id="a_node30"><a xlink:href="../../d6/d08/a00244.html#ae7906cfca35e9c7568ace240aba808a0" target="_top" xlink:title="{&lt;M &#45;&#45;&gt; S&gt;, &lt;C ==&gt; &lt;M &#45;&#45;&gt; P&gt;&gt;} |&#45; &lt;(&amp;&amp;, &lt;#x &#45;&#45;&gt; S&gt;, C) ==&gt; &lt;#x &#45;&#45;&gt; P&gt;&gt; {&lt;M &#45;&#45;&gt; S&gt;, (&amp;&amp;, C, &lt;M &#45;&#45;&gt; P&gt;)} |&#45; (&amp;&amp;, C, &lt;&lt;#x &#45;&#45;&gt; S&gt; ==&gt; &lt;#x &#45;&#45;&gt; P&gt;&gt;) ">
<polygon fill="none" stroke="black" points="480,-178.5 480,-208.5 623,-208.5 623,-178.5 480,-178.5"/>
<text text-anchor="start" x="488" y="-196.5" font-family="Helvetica,sans-Serif" font-size="10.00">nars.inference.Compositional</text>
<text text-anchor="middle" x="551.5" y="-185.5" font-family="Helvetica,sans-Serif" font-size="10.00">Rules.introVarInner</text>
</a>
</g>
</g>
<!-- Node341&#45;&gt;Node370 -->
<g id="edge41" class="edge"><title>Node341&#45;&gt;Node370</title>
<path fill="none" stroke="midnightblue" d="M106.858,-324.871C126.213,-293.706 169.956,-231.921 226,-206.5 307.128,-169.702 411.722,-173.375 479.913,-181.579"/>
<polygon fill="midnightblue" stroke="midnightblue" points="103.622,-323.459 101.446,-333.828 109.613,-327.079 103.622,-323.459"/>
</g>
<!-- Node372 -->
<g id="node32" class="node"><title>Node372</title>
<g id="a_node32"><a xlink:href="../../dd/dd7/a00260.html#a16bc93d2dcbcc4d92d2fb066d60e9e5f" target="_top" xlink:title="{&lt;S &lt;=&gt; M&gt;, &lt;M &lt;=&gt; P&gt;} |&#45; &lt;S &lt;=&gt; P&gt; ">
<polygon fill="none" stroke="black" points="488.5,-591.5 488.5,-621.5 614.5,-621.5 614.5,-591.5 488.5,-591.5"/>
<text text-anchor="start" x="496.5" y="-609.5" font-family="Helvetica,sans-Serif" font-size="10.00">nars.inference.Syllogistic</text>
<text text-anchor="middle" x="551.5" y="-598.5" font-family="Helvetica,sans-Serif" font-size="10.00">Rules.resemblance</text>
</a>
</g>
</g>
<!-- Node341&#45;&gt;Node372 -->
<g id="edge45" class="edge"><title>Node341&#45;&gt;Node372</title>
<path fill="none" stroke="midnightblue" d="M99.2651,-363.073C108.651,-412.366 140.711,-541.527 226,-595.5 305.904,-646.065 420.425,-635.086 489.886,-621.507"/>
<polygon fill="midnightblue" stroke="midnightblue" points="102.683,-362.304 97.4702,-353.081 95.7935,-363.542 102.683,-362.304"/>
</g>
<!-- Node374 -->
<g id="node34" class="node"><title>Node374</title>
<g id="a_node34"><a xlink:href="../../d0/def/a00256.html#aa98f40a1f1409b81531260124ebd13db" target="_top" xlink:title="{(&amp;&amp;, A, B), A@(&amp;&amp;, A, B)} |&#45; A {(||, A, B), A@(||, A, B)} |&#45; A ">
<polygon fill="none" stroke="black" points="485,-47.5 485,-77.5 618,-77.5 618,-47.5 485,-47.5"/>
<text text-anchor="start" x="493" y="-65.5" font-family="Helvetica,sans-Serif" font-size="10.00">nars.inference.Structural</text>
<text text-anchor="middle" x="551.5" y="-54.5" font-family="Helvetica,sans-Serif" font-size="10.00">Rules.structuralCompound</text>
</a>
</g>
</g>
<!-- Node341&#45;&gt;Node374 -->
<g id="edge48" class="edge"><title>Node341&#45;&gt;Node374</title>
<path fill="none" stroke="midnightblue" d="M99.6871,-323.84C109.911,-275.401 143.501,-150.213 226,-94.5 302.94,-42.5417 414.475,-44.0221 484.705,-51.7967"/>
<polygon fill="midnightblue" stroke="midnightblue" points="96.1973,-323.442 97.6654,-333.935 103.061,-324.817 96.1973,-323.442"/>
</g>
<!-- Node343 -->
<g id="node3" class="node"><title>Node343</title>
<g id="a_node3"><a xlink:href="../../dc/ded/a00252.html#a34927349efcf87db97d23c60983b115b" target="_top" xlink:title="Syllogistic rules whose both premises are on the same asymmetric relation. ">
<polygon fill="none" stroke="black" points="680,-438.5 680,-468.5 865,-468.5 865,-438.5 680,-438.5"/>
<text text-anchor="start" x="688" y="-456.5" font-family="Helvetica,sans-Serif" font-size="10.00">nars.inference.RuleTables.asymmetric</text>
<text text-anchor="middle" x="772.5" y="-445.5" font-family="Helvetica,sans-Serif" font-size="10.00">Asymmetric</text>
</a>
</g>
</g>
<!-- Node342&#45;&gt;Node343 -->
<g id="edge2" class="edge"><title>Node342&#45;&gt;Node343</title>
<path fill="none" stroke="midnightblue" d="M636.025,-426.281C655.972,-430.289 677.14,-434.542 696.667,-438.465"/>
<polygon fill="midnightblue" stroke="midnightblue" points="636.527,-422.812 626.033,-424.274 635.148,-429.675 636.527,-422.812"/>
</g>
<!-- Node344 -->
<g id="node4" class="node"><title>Node344</title>
<g id="a_node4"><a xlink:href="../../dc/ded/a00252.html#a8628d400a8ceda7fea05039ddfea319b" target="_top" xlink:title="Meta&#45;table of syllogistic rules, indexed by the content classes of the taskSentence and the belief...">
<polygon fill="none" stroke="black" points="909.5,-319 909.5,-338 1089.5,-338 1089.5,-319 909.5,-319"/>
<text text-anchor="middle" x="999.5" y="-326" font-family="Helvetica,sans-Serif" font-size="10.00">nars.inference.RuleTables.syllogisms</text>
</a>
</g>
</g>
<!-- Node343&#45;&gt;Node344 -->
<g id="edge3" class="edge"><title>Node343&#45;&gt;Node344</title>
<path fill="none" stroke="midnightblue" d="M809.658,-433.412C858.787,-406.118 944.687,-358.396 981.242,-338.088"/>
<polygon fill="midnightblue" stroke="midnightblue" points="807.682,-430.506 800.64,-438.422 811.082,-436.625 807.682,-430.506"/>
</g>
<!-- Node345 -->
<g id="node5" class="node"><title>Node345</title>
<g id="a_node5"><a xlink:href="../../dc/ded/a00252.html#ac2d01dfdc40bdd47c757cb549217e6e3" target="_top" xlink:title="Entry point of the inference engine. ">
<polygon fill="none" stroke="black" points="1134,-157 1134,-176 1297,-176 1297,-157 1134,-157"/>
<text text-anchor="middle" x="1215.5" y="-164" font-family="Helvetica,sans-Serif" font-size="10.00">nars.inference.RuleTables.reason</text>
</a>
</g>
</g>
<!-- Node344&#45;&gt;Node345 -->
<g id="edge4" class="edge"><title>Node344&#45;&gt;Node345</title>
<path fill="none" stroke="midnightblue" d="M1053.66,-315.911C1068.73,-310.945 1084.65,-304.274 1098,-295.5 1149.45,-261.695 1192.88,-199.851 1208.4,-176.121"/>
<polygon fill="midnightblue" stroke="midnightblue" points="1052.44,-312.627 1043.92,-318.934 1054.51,-319.313 1052.44,-312.627"/>
</g>
<!-- Node346 -->
<g id="node6" class="node"><title>Node346</title>
<g id="a_node6"><a xlink:href="../../d7/ded/a00196.html#ad6fb91dda799c3092ecb186ef24ca92a" target="_top" xlink:title="An atomic step in a concept, only called in Memory# processConcept. ">
<polygon fill="none" stroke="black" points="1333,-151.5 1333,-181.5 1452,-181.5 1452,-151.5 1333,-151.5"/>
<text text-anchor="start" x="1341" y="-169.5" font-family="Helvetica,sans-Serif" font-size="10.00">nars.entity.Concept.fire</text>
<text text-anchor="middle" x="1392.5" y="-158.5" font-family="Helvetica,sans-Serif" font-size="10.00">FromProcessConcept</text>
</a>
</g>
</g>
<!-- Node345&#45;&gt;Node346 -->
<g id="edge5" class="edge"><title>Node345&#45;&gt;Node346</title>
<path fill="none" stroke="midnightblue" d="M1307.25,-166.5C1315.91,-166.5 1324.52,-166.5 1332.76,-166.5"/>
<polygon fill="midnightblue" stroke="midnightblue" points="1307.09,-163 1297.09,-166.5 1307.08,-170 1307.09,-163"/>
</g>
<!-- Node347 -->
<g id="node7" class="node"><title>Node347</title>
<g id="a_node7"><a xlink:href="../../d4/d27/a00392.html#a0acc4adbf6a2462245da46bcb529746c" target="_top" xlink:title="Select a concept to fireFromProcessConcept. ">
<polygon fill="none" stroke="black" points="1488,-151.5 1488,-181.5 1634,-181.5 1634,-151.5 1488,-151.5"/>
<text text-anchor="start" x="1496" y="-169.5" font-family="Helvetica,sans-Serif" font-size="10.00">nars.storage.Memory.process</text>
<text text-anchor="middle" x="1561" y="-158.5" font-family="Helvetica,sans-Serif" font-size="10.00">Concept</text>
</a>
</g>
</g>
<!-- Node346&#45;&gt;Node347 -->
<g id="edge6" class="edge"><title>Node346&#45;&gt;Node347</title>
<path fill="none" stroke="midnightblue" d="M1462.34,-166.5C1470.75,-166.5 1479.36,-166.5 1487.82,-166.5"/>
<polygon fill="midnightblue" stroke="midnightblue" points="1462.2,-163 1452.2,-166.5 1462.2,-170 1462.2,-163"/>
</g>
<!-- Node348 -->
<g id="node8" class="node"><title>Node348</title>
<g id="a_node8"><a xlink:href="../../d4/d27/a00392.html#a59ae339d666409988d90d29be4f73a91" target="_top" xlink:title="An atomic working workCycle of the system: process new Tasks, then fireFromProcessConcept a concept...">
<polygon fill="none" stroke="black" points="1670,-151.5 1670,-181.5 1803,-181.5 1803,-151.5 1670,-151.5"/>
<text text-anchor="start" x="1678" y="-169.5" font-family="Helvetica,sans-Serif" font-size="10.00">nars.storage.Memory.work</text>
<text text-anchor="middle" x="1736.5" y="-158.5" font-family="Helvetica,sans-Serif" font-size="10.00">Cycle</text>
</a>
</g>
</g>
<!-- Node347&#45;&gt;Node348 -->
<g id="edge7" class="edge"><title>Node347&#45;&gt;Node348</title>
<path fill="none" stroke="midnightblue" d="M1644.12,-166.5C1652.72,-166.5 1661.37,-166.5 1669.76,-166.5"/>
<polygon fill="midnightblue" stroke="midnightblue" points="1644.07,-163 1634.07,-166.5 1644.07,-170 1644.07,-163"/>
</g>
<!-- Node349 -->
<g id="node9" class="node"><title>Node349</title>
<g id="a_node9"><a xlink:href="../../df/d15/a00416.html#a0d5c797dc17d9e8d0998852915e0f303" target="_top" xlink:title="nars.storage.ReasonerBatch.doTick">
<polygon fill="none" stroke="black" points="1839,-157 1839,-176 2012,-176 2012,-157 1839,-157"/>
<text text-anchor="middle" x="1925.5" y="-164" font-family="Helvetica,sans-Serif" font-size="10.00">nars.storage.ReasonerBatch.doTick</text>
</a>
</g>
</g>
<!-- Node348&#45;&gt;Node349 -->
<g id="edge8" class="edge"><title>Node348&#45;&gt;Node349</title>
<path fill="none" stroke="midnightblue" d="M1813.34,-166.5C1821.78,-166.5 1830.42,-166.5 1838.97,-166.5"/>
<polygon fill="midnightblue" stroke="midnightblue" points="1813.17,-163 1803.17,-166.5 1813.17,-170 1813.17,-163"/>
</g>
<!-- Node350 -->
<g id="node10" class="node"><title>Node350</title>
<g id="a_node10"><a xlink:href="../../df/d15/a00416.html#a3468aa0f99edcd66412f27922dddb880" target="_top" xlink:title="A clock tick. ">
<polygon fill="none" stroke="black" points="2048,-157 2048,-176 2208,-176 2208,-157 2048,-157"/>
<text text-anchor="middle" x="2128" y="-164" font-family="Helvetica,sans-Serif" font-size="10.00">nars.storage.ReasonerBatch.tick</text>
</a>
</g>
</g>
<!-- Node349&#45;&gt;Node350 -->
<g id="edge9" class="edge"><title>Node349&#45;&gt;Node350</title>
<path fill="none" stroke="midnightblue" d="M2022.13,-166.5C2030.7,-166.5 2039.31,-166.5 2047.71,-166.5"/>
<polygon fill="midnightblue" stroke="midnightblue" points="2022.11,-163 2012.11,-166.5 2022.11,-170 2022.11,-163"/>
</g>
<!-- Node351 -->
<g id="node11" class="node"><title>Node351</title>
<g id="a_node11"><a xlink:href="../../d9/da1/a00396.html#a5d9cfe517bcfbe41e5251910bcd119c1" target="_top" xlink:title="Run to completion: repeatedly execute NARS working cycle, until Inputs are Finished, or 1000 steps. ">
<polygon fill="none" stroke="black" points="2244,-157 2244,-176 2388,-176 2388,-157 2244,-157"/>
<text text-anchor="middle" x="2316" y="-164" font-family="Helvetica,sans-Serif" font-size="10.00">nars.storage.NARSBatch.run</text>
</a>
</g>
</g>
<!-- Node350&#45;&gt;Node351 -->
<g id="edge10" class="edge"><title>Node350&#45;&gt;Node351</title>
<path fill="none" stroke="midnightblue" d="M2218.22,-166.5C2226.82,-166.5 2235.47,-166.5 2243.87,-166.5"/>
<polygon fill="midnightblue" stroke="midnightblue" points="2218.15,-163 2208.15,-166.5 2218.15,-170 2218.15,-163"/>
</g>
<!-- Node352 -->
<g id="node12" class="node"><title>Node352</title>
<g id="a_node12"><a xlink:href="../../d9/da1/a00396.html#a7c307c6b842f82664de6b0e52bdf8efc" target="_top" xlink:title="non&#45;static equivalent to main(String[]) : run to completion from an input file ">
<polygon fill="none" stroke="black" points="2424,-151.5 2424,-181.5 2568,-181.5 2568,-151.5 2424,-151.5"/>
<text text-anchor="start" x="2432" y="-169.5" font-family="Helvetica,sans-Serif" font-size="10.00">nars.storage.NARSBatch.run</text>
<text text-anchor="middle" x="2496" y="-158.5" font-family="Helvetica,sans-Serif" font-size="10.00">Inference</text>
</a>
</g>
</g>
<!-- Node351&#45;&gt;Node352 -->
<g id="edge11" class="edge"><title>Node351&#45;&gt;Node352</title>
<path fill="none" stroke="midnightblue" d="M2398.17,-166.5C2406.79,-166.5 2415.51,-166.5 2424,-166.5"/>
<polygon fill="midnightblue" stroke="midnightblue" points="2398.12,-163 2388.12,-166.5 2398.12,-170 2398.12,-163"/>
</g>
<!-- Node353 -->
<g id="node13" class="node"><title>Node353</title>
<g id="a_node13"><a xlink:href="../../d9/da1/a00396.html#abafc597289bc2f6453b5cd0dd6634e54" target="_top" xlink:title="The entry point of the standalone application. ">
<polygon fill="none" stroke="black" points="2604,-157 2604,-176 2756,-176 2756,-157 2604,-157"/>
<text text-anchor="middle" x="2680" y="-164" font-family="Helvetica,sans-Serif" font-size="10.00">nars.storage.NARSBatch.main</text>
</a>
</g>
</g>
<!-- Node352&#45;&gt;Node353 -->
<g id="edge12" class="edge"><title>Node352&#45;&gt;Node353</title>
<path fill="none" stroke="midnightblue" d="M2578.17,-166.5C2586.76,-166.5 2595.48,-166.5 2604,-166.5"/>
<polygon fill="midnightblue" stroke="midnightblue" points="2578.15,-163 2568.15,-166.5 2578.15,-170 2578.15,-163"/>
</g>
<!-- Node355 -->
<g id="node15" class="node"><title>Node355</title>
<g id="a_node15"><a xlink:href="../../dc/ded/a00252.html#a4f61a7c2dc75c9da475030894eac0735" target="_top" xlink:title="Syllogistic rules whose first premise is on an asymmetric relation, and the second on a symmetric rel...">
<polygon fill="none" stroke="black" points="680,-313.5 680,-343.5 865,-343.5 865,-313.5 680,-313.5"/>
<text text-anchor="start" x="688" y="-331.5" font-family="Helvetica,sans-Serif" font-size="10.00">nars.inference.RuleTables.asymmetric</text>
<text text-anchor="middle" x="772.5" y="-320.5" font-family="Helvetica,sans-Serif" font-size="10.00">Symmetric</text>
</a>
</g>
</g>
<!-- Node354&#45;&gt;Node355 -->
<g id="edge14" class="edge"><title>Node354&#45;&gt;Node355</title>
<path fill="none" stroke="midnightblue" d="M624.696,-296.994C649.385,-302.293 676.948,-308.208 701.464,-313.469"/>
<polygon fill="midnightblue" stroke="midnightblue" points="625.183,-293.519 614.671,-294.843 623.714,-300.363 625.183,-293.519"/>
</g>
<!-- Node355&#45;&gt;Node344 -->
<g id="edge15" class="edge"><title>Node355&#45;&gt;Node344</title>
<path fill="none" stroke="midnightblue" d="M875.349,-328.5C886.659,-328.5 898.114,-328.5 909.251,-328.5"/>
<polygon fill="midnightblue" stroke="midnightblue" points="875.016,-325 865.016,-328.5 875.016,-332 875.016,-325"/>
</g>
<!-- Node356&#45;&gt;Node343 -->
<g id="edge17" class="edge"><title>Node356&#45;&gt;Node343</title>
<path fill="none" stroke="midnightblue" d="M433.623,-566.502C496.29,-558.582 575.999,-544.828 644,-521.5 682.679,-508.231 723.792,-484.291 748.559,-468.649"/>
<polygon fill="midnightblue" stroke="midnightblue" points="432.818,-563.075 423.321,-567.771 433.674,-570.022 432.818,-563.075"/>
</g>
<!-- Node357&#45;&gt;Node345 -->
<g id="edge19" class="edge"><title>Node357&#45;&gt;Node345</title>
<path fill="none" stroke="midnightblue" d="M1108.18,-175.94C1116.76,-175.178 1125.34,-174.416 1133.7,-173.674"/>
<polygon fill="midnightblue" stroke="midnightblue" points="1107.76,-172.463 1098.11,-176.834 1108.38,-179.436 1107.76,-172.463"/>
</g>
<!-- Node358&#45;&gt;Node345 -->
<g id="edge21" class="edge"><title>Node358&#45;&gt;Node345</title>
<path fill="none" stroke="midnightblue" d="M867.073,-122.165C878.489,-124.044 890.001,-125.868 901,-127.5 979.937,-139.214 1070.42,-150.21 1133.82,-157.521"/>
<polygon fill="midnightblue" stroke="midnightblue" points="867.52,-118.691 857.081,-120.502 866.371,-125.596 867.52,-118.691"/>
</g>
<!-- Node359 -->
<g id="node19" class="node"><title>Node359</title>
<g id="a_node19"><a xlink:href="../../dc/ded/a00252.html#aa167c7cb73f540ded591dc584ae623c1" target="_top" xlink:title="Conditional deduction or induction, with variable unification. ">
<polygon fill="none" stroke="black" points="909.5,-88.5 909.5,-118.5 1089.5,-118.5 1089.5,-88.5 909.5,-88.5"/>
<text text-anchor="start" x="917.5" y="-106.5" font-family="Helvetica,sans-Serif" font-size="10.00">nars.inference.RuleTables.conditional</text>
<text text-anchor="middle" x="999.5" y="-95.5" font-family="Helvetica,sans-Serif" font-size="10.00">DedIndWithVar</text>
</a>
</g>
</g>
<!-- Node358&#45;&gt;Node359 -->
<g id="edge22" class="edge"><title>Node358&#45;&gt;Node359</title>
<path fill="none" stroke="midnightblue" d="M872.888,-104.617C885.03,-104.509 897.379,-104.399 909.359,-104.292"/>
<polygon fill="midnightblue" stroke="midnightblue" points="872.718,-101.118 862.749,-104.707 872.78,-108.118 872.718,-101.118"/>
</g>
<!-- Node359&#45;&gt;Node345 -->
<g id="edge23" class="edge"><title>Node359&#45;&gt;Node345</title>
<path fill="none" stroke="midnightblue" d="M1061.25,-121.383C1100.58,-132.963 1150.24,-147.582 1182.18,-156.986"/>
<polygon fill="midnightblue" stroke="midnightblue" points="1062.07,-117.977 1051.49,-118.51 1060.09,-124.692 1062.07,-117.977"/>
</g>
<!-- Node361 -->
<g id="node21" class="node"><title>Node361</title>
<g id="a_node21"><a xlink:href="../../dd/dd7/a00248.html#a93af32adec92cf57671c32e9ccc2dffc" target="_top" xlink:title="The task and belief match reversely. ">
<polygon fill="none" stroke="black" points="471.5,-482.5 471.5,-512.5 631.5,-512.5 631.5,-482.5 471.5,-482.5"/>
<text text-anchor="start" x="479.5" y="-500.5" font-family="Helvetica,sans-Serif" font-size="10.00">nars.inference.LocalRules.match</text>
<text text-anchor="middle" x="551.5" y="-489.5" font-family="Helvetica,sans-Serif" font-size="10.00">Reverse</text>
</a>
</g>
</g>
<!-- Node360&#45;&gt;Node361 -->
<g id="edge25" class="edge"><title>Node360&#45;&gt;Node361</title>
<path fill="none" stroke="midnightblue" d="M424.876,-492.475C440.379,-493.095 456.22,-493.729 471.198,-494.328"/>
<polygon fill="midnightblue" stroke="midnightblue" points="424.881,-488.973 414.749,-492.07 424.601,-495.967 424.881,-488.973"/>
</g>
<!-- Node361&#45;&gt;Node343 -->
<g id="edge26" class="edge"><title>Node361&#45;&gt;Node343</title>
<path fill="none" stroke="midnightblue" d="M637.102,-480.502C656.748,-476.555 677.522,-472.381 696.71,-468.526"/>
<polygon fill="midnightblue" stroke="midnightblue" points="636.369,-477.079 627.255,-482.481 637.748,-483.942 636.369,-477.079"/>
</g>
<!-- Node363 -->
<g id="node23" class="node"><title>Node363</title>
<g id="a_node23"><a xlink:href="../../dd/dd7/a00248.html#a901b20a8e57ac01ce97b4d1302224e39" target="_top" xlink:title="Inheritance/Implication matches Similarity/Equivalence. ">
<polygon fill="none" stroke="black" points="471.5,-315.5 471.5,-345.5 631.5,-345.5 631.5,-315.5 471.5,-315.5"/>
<text text-anchor="start" x="479.5" y="-333.5" font-family="Helvetica,sans-Serif" font-size="10.00">nars.inference.LocalRules.match</text>
<text text-anchor="middle" x="551.5" y="-322.5" font-family="Helvetica,sans-Serif" font-size="10.00">AsymSym</text>
</a>
</g>
</g>
<!-- Node362&#45;&gt;Node363 -->
<g id="edge28" class="edge"><title>Node362&#45;&gt;Node363</title>
<path fill="none" stroke="midnightblue" d="M417.246,-323.985C435.235,-324.865 453.957,-325.78 471.485,-326.637"/>
<polygon fill="midnightblue" stroke="midnightblue" points="417.207,-320.479 407.048,-323.487 416.865,-327.471 417.207,-320.479"/>
</g>
<!-- Node363&#45;&gt;Node355 -->
<g id="edge29" class="edge"><title>Node363&#45;&gt;Node355</title>
<path fill="none" stroke="midnightblue" d="M641.595,-329.686C654.221,-329.571 667.221,-329.452 679.893,-329.337"/>
<polygon fill="midnightblue" stroke="midnightblue" points="641.532,-326.187 631.564,-329.778 641.596,-333.186 641.532,-326.187"/>
</g>
<!-- Node364&#45;&gt;Node343 -->
<g id="edge31" class="edge"><title>Node364&#45;&gt;Node343</title>
<path fill="none" stroke="midnightblue" d="M418.219,-451.124C494.934,-451.64 603.329,-452.369 679.77,-452.883"/>
<polygon fill="midnightblue" stroke="midnightblue" points="418.107,-447.623 408.083,-451.055 418.06,-454.623 418.107,-447.623"/>
</g>
<!-- Node366 -->
<g id="node26" class="node"><title>Node366</title>
<g id="a_node26"><a xlink:href="../../dc/ded/a00252.html#acacd7cd6f866a576bfad37e0003df853" target="_top" xlink:title="{&lt;&lt;M &#45;&#45;&gt; S&gt; ==&gt; &lt;M &#45;&#45;&gt; P&gt;&gt;, &lt;M &#45;&#45;&gt; S&gt;} |&#45; &lt;M &#45;&#45;&gt; P&gt; {&lt;&lt;M &#45;&#45;&gt; S&gt; ==&gt; &lt;M &#45;&#45;&gt; P&gt;&gt;, &lt;M &#45;&#45;&gt; P&gt;} |&#45; &lt;M &#45;&#45;&gt; ...">
<polygon fill="none" stroke="black" points="459,-228 459,-247 644,-247 644,-228 459,-228"/>
<text text-anchor="middle" x="551.5" y="-235" font-family="Helvetica,sans-Serif" font-size="10.00">nars.inference.RuleTables.detachment</text>
</a>
</g>
</g>
<!-- Node365&#45;&gt;Node366 -->
<g id="edge33" class="edge"><title>Node365&#45;&gt;Node366</title>
<path fill="none" stroke="midnightblue" d="M418.734,-233.986C432.041,-234.341 445.719,-234.706 458.993,-235.06"/>
<polygon fill="midnightblue" stroke="midnightblue" points="418.732,-230.485 408.642,-233.717 418.546,-237.483 418.732,-230.485"/>
</g>
<!-- Node366&#45;&gt;Node345 -->
<g id="edge34" class="edge"><title>Node366&#45;&gt;Node345</title>
<path fill="none" stroke="midnightblue" d="M608.283,-249.055C635.846,-254.55 666.118,-260.205 680,-261.5 865.008,-278.761 922.694,-315.094 1098,-253.5 1144.44,-237.183 1187.73,-195.245 1205.72,-176.186"/>
<polygon fill="midnightblue" stroke="midnightblue" points="608.779,-245.585 598.285,-247.046 607.4,-252.447 608.779,-245.585"/>
</g>
<!-- Node367 -->
<g id="node27" class="node"><title>Node367</title>
<g id="a_node27"><a xlink:href="../../dc/ded/a00252.html#af6c973743270b2739d4ad25f16975da1" target="_top" xlink:title="The detachment rule, with variable unification. ">
<polygon fill="none" stroke="black" points="680,-222.5 680,-252.5 865,-252.5 865,-222.5 680,-222.5"/>
<text text-anchor="start" x="688" y="-240.5" font-family="Helvetica,sans-Serif" font-size="10.00">nars.inference.RuleTables.detachment</text>
<text text-anchor="middle" x="772.5" y="-229.5" font-family="Helvetica,sans-Serif" font-size="10.00">WithVar</text>
</a>
</g>
</g>
<!-- Node366&#45;&gt;Node367 -->
<g id="edge35" class="edge"><title>Node366&#45;&gt;Node367</title>
<path fill="none" stroke="midnightblue" d="M654.151,-237.5C662.743,-237.5 671.4,-237.5 679.908,-237.5"/>
<polygon fill="midnightblue" stroke="midnightblue" points="654.107,-234 644.107,-237.5 654.107,-241 654.107,-234"/>
</g>
<!-- Node367&#45;&gt;Node344 -->
<g id="edge36" class="edge"><title>Node367&#45;&gt;Node344</title>
<path fill="none" stroke="midnightblue" d="M820.034,-256.321C867.156,-275.379 938.153,-304.093 974.777,-318.905"/>
<polygon fill="midnightblue" stroke="midnightblue" points="821.237,-253.032 810.654,-252.527 818.612,-259.521 821.237,-253.032"/>
</g>
<!-- Node368&#45;&gt;Node363 -->
<g id="edge38" class="edge"><title>Node368&#45;&gt;Node363</title>
<path fill="none" stroke="midnightblue" d="M410.725,-354.106C430.667,-350.738 451.826,-347.165 471.484,-343.845"/>
<polygon fill="midnightblue" stroke="midnightblue" points="410.012,-350.677 400.735,-355.794 411.178,-357.579 410.012,-350.677"/>
</g>
<!-- Node369&#45;&gt;Node361 -->
<g id="edge40" class="edge"><title>Node369&#45;&gt;Node361</title>
<path fill="none" stroke="midnightblue" d="M410.725,-519.243C430.667,-516.141 451.826,-512.849 471.484,-509.791"/>
<polygon fill="midnightblue" stroke="midnightblue" points="410.078,-515.801 400.735,-520.797 411.154,-522.718 410.078,-515.801"/>
</g>
<!-- Node370&#45;&gt;Node367 -->
<g id="edge42" class="edge"><title>Node370&#45;&gt;Node367</title>
<path fill="none" stroke="midnightblue" d="M633.36,-209.746C654.121,-213.917 676.36,-218.385 696.795,-222.491"/>
<polygon fill="midnightblue" stroke="midnightblue" points="633.794,-206.263 623.301,-207.725 632.415,-213.126 633.794,-206.263"/>
</g>
<!-- Node371 -->
<g id="node31" class="node"><title>Node371</title>
<g id="a_node31"><a xlink:href="../../dc/ded/a00252.html#a54a7ceba4f123db5035e3b85063c91f1" target="_top" xlink:title="Inference between a compound term and a statement. ">
<polygon fill="none" stroke="black" points="910,-214.5 910,-244.5 1089,-244.5 1089,-214.5 910,-214.5"/>
<text text-anchor="start" x="918" y="-232.5" font-family="Helvetica,sans-Serif" font-size="10.00">nars.inference.RuleTables.compound</text>
<text text-anchor="middle" x="999.5" y="-221.5" font-family="Helvetica,sans-Serif" font-size="10.00">AndStatement</text>
</a>
</g>
</g>
<!-- Node370&#45;&gt;Node371 -->
<g id="edge43" class="edge"><title>Node370&#45;&gt;Node371</title>
<path fill="none" stroke="midnightblue" d="M633.329,-196.949C696.491,-199.999 786.442,-205.118 865,-212.5 879.539,-213.866 894.936,-215.579 909.905,-217.387"/>
<polygon fill="midnightblue" stroke="midnightblue" points="633.191,-193.439 623.036,-196.459 632.858,-200.431 633.191,-193.439"/>
</g>
<!-- Node371&#45;&gt;Node345 -->
<g id="edge44" class="edge"><title>Node371&#45;&gt;Node345</title>
<path fill="none" stroke="midnightblue" d="M1071.26,-211.928C1080.28,-209.52 1089.37,-207.01 1098,-204.5 1128.64,-195.584 1163.37,-184.071 1186.88,-176.064"/>
<polygon fill="midnightblue" stroke="midnightblue" points="1070.29,-208.563 1061.52,-214.498 1072.08,-215.331 1070.29,-208.563"/>
</g>
<!-- Node373 -->
<g id="node33" class="node"><title>Node373</title>
<g id="a_node33"><a xlink:href="../../dc/ded/a00252.html#ab64fca3ebda3499b831c2b93df736530" target="_top" xlink:title="Syllogistic rules whose both premises are on the same symmetric relation. ">
<polygon fill="none" stroke="black" points="683,-539.5 683,-569.5 862,-569.5 862,-539.5 683,-539.5"/>
<text text-anchor="start" x="691" y="-557.5" font-family="Helvetica,sans-Serif" font-size="10.00">nars.inference.RuleTables.symmetric</text>
<text text-anchor="middle" x="772.5" y="-546.5" font-family="Helvetica,sans-Serif" font-size="10.00">Symmetric</text>
</a>
</g>
</g>
<!-- Node372&#45;&gt;Node373 -->
<g id="edge46" class="edge"><title>Node372&#45;&gt;Node373</title>
<path fill="none" stroke="midnightblue" d="M624.441,-589.418C651.425,-583.011 681.871,-575.782 708.032,-569.57"/>
<polygon fill="midnightblue" stroke="midnightblue" points="623.592,-586.022 614.671,-591.738 625.209,-592.833 623.592,-586.022"/>
</g>
<!-- Node373&#45;&gt;Node344 -->
<g id="edge47" class="edge"><title>Node373&#45;&gt;Node344</title>
<path fill="none" stroke="midnightblue" d="M800.937,-533.094C819.58,-518.149 844.483,-497.39 865,-477.5 915.873,-428.182 970.441,-362.848 990.51,-338.341"/>
<polygon fill="midnightblue" stroke="midnightblue" points="798.752,-530.36 793.106,-539.326 803.11,-535.838 798.752,-530.36"/>
</g>
<!-- Node375 -->
<g id="node35" class="node"><title>Node375</title>
<g id="a_node35"><a xlink:href="../../dc/ded/a00252.html#a00ffbf7a9069cfd135acae4b46d78d05" target="_top" xlink:title="Inference between a compound term and a component of it. ">
<polygon fill="none" stroke="black" points="683,-41.5 683,-71.5 862,-71.5 862,-41.5 683,-41.5"/>
<text text-anchor="start" x="691" y="-59.5" font-family="Helvetica,sans-Serif" font-size="10.00">nars.inference.RuleTables.compound</text>
<text text-anchor="middle" x="772.5" y="-48.5" font-family="Helvetica,sans-Serif" font-size="10.00">AndSelf</text>
</a>
</g>
</g>
<!-- Node374&#45;&gt;Node375 -->
<g id="edge49" class="edge"><title>Node374&#45;&gt;Node375</title>
<path fill="none" stroke="midnightblue" d="M628.369,-60.4214C645.905,-59.9409 664.716,-59.4256 682.747,-58.9316"/>
<polygon fill="midnightblue" stroke="midnightblue" points="628.108,-56.9271 618.207,-60.6998 628.299,-63.9245 628.108,-56.9271"/>
</g>
<!-- Node375&#45;&gt;Node345 -->
<g id="edge50" class="edge"><title>Node375&#45;&gt;Node345</title>
<path fill="none" stroke="midnightblue" d="M872.482,-48.7818C938.394,-47.0809 1025.82,-51.552 1098,-78.5 1144.31,-95.7875 1187.66,-137.798 1205.7,-156.836"/>
<polygon fill="midnightblue" stroke="midnightblue" points="871.98,-45.2956 862.094,-49.1053 872.198,-52.2922 871.98,-45.2956"/>
</g>
<!-- Node376 -->
<g id="node36" class="node"><title>Node376</title>
<g id="a_node36"><a xlink:href="../../dc/ded/a00252.html#a764dbc9ccccf406df45e09fbfeda928f" target="_top" xlink:title="Inference between two compound terms. ">
<polygon fill="none" stroke="black" points="910,-0.5 910,-30.5 1089,-30.5 1089,-0.5 910,-0.5"/>
<text text-anchor="start" x="918" y="-18.5" font-family="Helvetica,sans-Serif" font-size="10.00">nars.inference.RuleTables.compound</text>
<text text-anchor="middle" x="999.5" y="-7.5" font-family="Helvetica,sans-Serif" font-size="10.00">AndCompound</text>
</a>
</g>
</g>
<!-- Node375&#45;&gt;Node376 -->
<g id="edge51" class="edge"><title>Node375&#45;&gt;Node376</title>
<path fill="none" stroke="midnightblue" d="M866.195,-39.6089C882.705,-36.6003 899.804,-33.4847 916.006,-30.5323"/>
<polygon fill="midnightblue" stroke="midnightblue" points="865.215,-36.2298 856.004,-41.4659 866.47,-43.1164 865.215,-36.2298"/>
</g>
<!-- Node376&#45;&gt;Node345 -->
<g id="edge52" class="edge"><title>Node376&#45;&gt;Node345</title>
<path fill="none" stroke="midnightblue" d="M1075.13,-34.1018C1083.11,-37.3558 1090.9,-41.1319 1098,-45.5 1148.17,-76.3605 1191.7,-133.856 1207.83,-156.739"/>
<polygon fill="midnightblue" stroke="midnightblue" points="1076.29,-30.7999 1065.7,-30.5173 1073.81,-37.3429 1076.29,-30.7999"/>
</g>
</g>
</svg>
        <g id="navigator" transform="translate(0 0)" fill="#404254">
                <rect fill="#f2f5e9" fill-opacity="0.5" stroke="#606060" stroke-width=".5" x="0" y="0" width="60" height="60"/>
                <use id="zoomplus" xlink:href="#zoomPlus" x="17" y="9" onmousedown="handleZoom(evt,'in')"/>
                <use id="zoomminus" xlink:href="#zoomMin" x="42" y="9" onmousedown="handleZoom(evt,'out')"/>
                <use id="reset" xlink:href="#resetDef" x="30" y="36" onmousedown="handleReset()"/>
                <g id="arrowUp" xlink:href="#dirArrow" transform="translate(30 24)" onmousedown="handlePan(0,-1)">
                  <use xlink:href="#rim" fill="#404040">
                        <set attributeName="fill" to="#808080" begin="arrowUp.mouseover" end="arrowUp.mouseout"/>
                  </use>
                  <path fill="none" stroke="white" stroke-width="1.5" d="M0,-3.0v7 M-2.5,-0.5L0,-3.0L2.5,-0.5"/>
                </g>
                <g id="arrowRight" xlink:href="#dirArrow" transform="rotate(90) translate(36 -43)" onmousedown="handlePan(1,0)">
                  <use xlink:href="#rim" fill="#404040">
                        <set attributeName="fill" to="#808080" begin="arrowRight.mouseover" end="arrowRight.mouseout"/>
                  </use>
                  <path fill="none" stroke="white" stroke-width="1.5" d="M0,-3.0v7 M-2.5,-0.5L0,-3.0L2.5,-0.5"/>
                </g>
                <g id="arrowDown" xlink:href="#dirArrow" transform="rotate(180) translate(-30 -48)" onmousedown="handlePan(0,1)">
                  <use xlink:href="#rim" fill="#404040">
                        <set attributeName="fill" to="#808080" begin="arrowDown.mouseover" end="arrowDown.mouseout"/>
                  </use>
                  <path fill="none" stroke="white" stroke-width="1.5" d="M0,-3.0v7 M-2.5,-0.5L0,-3.0L2.5,-0.5"/>
                </g>
                <g id="arrowLeft" xlink:href="#dirArrow" transform="rotate(270) translate(-36 17)" onmousedown="handlePan(-1,0)">
                  <use xlink:href="#rim" fill="#404040">
                        <set attributeName="fill" to="#808080" begin="arrowLeft.mouseover" end="arrowLeft.mouseout"/>
                  </use>
                  <path fill="none" stroke="white" stroke-width="1.5" d="M0,-3.0v7 M-2.5,-0.5L0,-3.0L2.5,-0.5"/>
                </g>
        </g>
        <svg viewBox="0 0 15 15" width="100%" height="30px" preserveAspectRatio="xMaxYMin meet">
         <g id="arrow_out" transform="scale(0.3 0.3)">
          <a xlink:href="a00240_a2db9aa6bf208e45b225924b2ba1769da_icgraph_org.svg" target="_base">
           <rect id="button" ry="5" rx="5" y="6" x="6" height="38" width="38"
                fill="#f2f5e9" fill-opacity="0.5" stroke="#606060" stroke-width="1.0"/>
           <path id="arrow"
             d="M 11.500037,31.436501 C 11.940474,20.09759 22.043105,11.32322 32.158766,21.979434 L 37.068811,17.246167 C 37.068811,17.246167 37.088388,32 37.088388,32 L 22.160133,31.978069 C 22.160133,31.978069 26.997745,27.140456 26.997745,27.140456 C 18.528582,18.264221 13.291696,25.230495 11.500037,31.436501 z"
             style="fill:#404040;"/>
          </a>
         </g>
        </svg>
</svg>
