<?xml version="1.0" encoding="UTF-8" standalone="no"?>
<!DOCTYPE svg PUBLIC "-//W3C//DTD SVG 1.1//EN"
 "http://www.w3.org/Graphics/SVG/1.1/DTD/svg11.dtd">
<!-- Generated by graphviz version 2.38.0 (20140413.2041)
 -->
<!-- Title: nars.inference.BudgetFunctions.compoundForward Pages: 1 -->
<!--zoomable 410 -->
<svg id="main" version="1.1" xmlns="http://www.w3.org/2000/svg" xmlns:xlink="http://www.w3.org/1999/xlink" xml:space="preserve" onload="init(evt)">
<style type="text/css"><![CDATA[
.edge:hover path { stroke: red; }
.edge:hover polygon { stroke: red; fill: red; }
]]></style>
<script type="text/javascript"><![CDATA[
var edges = document.getElementsByTagName('g');
if (edges && edges.length) {
  for (var i=0;i<edges.length;i++) {
    if (edges[i].id.substr(0,4)=='edge') {
      edges[i].setAttribute('class','edge');
    }
  }
}
]]></script>
        <defs>
                <circle id="rim" cx="0" cy="0" r="7"/>
                <circle id="rim2" cx="0" cy="0" r="3.5"/>
                <g id="zoomPlus">
                        <use xlink:href="#rim" fill="#404040">
                                <set attributeName="fill" to="#808080" begin="zoomplus.mouseover" end="zoomplus.mouseout"/>
                        </use>
                        <path d="M-4,0h8M0,-4v8" fill="none" stroke="white" stroke-width="1.5" pointer-events="none"/>
                </g>
                <g id="zoomMin">
                        <use xlink:href="#rim" fill="#404040">
                                <set attributeName="fill" to="#808080" begin="zoomminus.mouseover" end="zoomminus.mouseout"/>
                        </use>
                        <path d="M-4,0h8" fill="none" stroke="white" stroke-width="1.5" pointer-events="none"/>
                </g>
                <g id="dirArrow">
                        <path fill="none" stroke="white" stroke-width="1.5" d="M0,-3.0v7 M-2.5,-0.5L0,-3.0L2.5,-0.5"/>
                </g>
               <g id="resetDef">
                       <use xlink:href="#rim2" fill="#404040">
                               <set attributeName="fill" to="#808080" begin="reset.mouseover" end="reset.mouseout"/>
                       </use>
               </g>
        </defs>

<script type="text/javascript">
var viewWidth = 1026;
var viewHeight = 410;
var sectionId = 'dynsection-14';
</script>
<script xlink:href="../../svgpan.js"/>
<svg id="graph" class="graph">
<g id="viewport">
<title>nars.inference.BudgetFunctions.compoundForward</title>
<!-- Node287 -->
<g id="node1" class="node"><title>Node287</title>
<polygon fill="#bfbfbf" stroke="black" points="0,-124 0,-154 203,-154 203,-124 0,-124"/>
<text text-anchor="start" x="8" y="-142" font-family="Helvetica,sans-Serif" font-size="10.00">nars.inference.BudgetFunctions.compound</text>
<text text-anchor="middle" x="101.5" y="-131" font-family="Helvetica,sans-Serif" font-size="10.00">Forward</text>
</g>
<!-- Node288 -->
<g id="node2" class="node"><title>Node288</title>
<g id="a_node2"><a xlink:href="../../d9/d21/a00240.html#a6c45e643d143a28d7514f3487fbfa494" target="_top" xlink:title="Common processing for all inference step. ">
<polygon fill="none" stroke="black" points="239,-188 239,-218 426,-218 426,-188 239,-188"/>
<text text-anchor="start" x="247" y="-206" font-family="Helvetica,sans-Serif" font-size="10.00">nars.inference.BudgetFunctions.budget</text>
<text text-anchor="middle" x="332.5" y="-195" font-family="Helvetica,sans-Serif" font-size="10.00">Inference</text>
</a>
</g>
</g>
<!-- Node287&#45;&gt;Node288 -->
<g id="edge1" class="edge"><title>Node287&#45;&gt;Node288</title>
<path fill="none" stroke="midnightblue" d="M156.19,-154.005C189.662,-163.36 232.901,-175.444 268.062,-185.271"/>
<polygon fill="midnightblue" stroke="midnightblue" points="267.177,-188.657 277.75,-187.978 269.061,-181.916 267.177,-188.657"/>
</g>
<!-- Node302 -->
<g id="node16" class="node"><title>Node302</title>
<g id="a_node16"><a xlink:href="../../dc/d59/a00364.html#ae14632d1d25bcde8d6698ea0b58eb19a" target="_top" xlink:title="The syntactic complexity, for constant automic Term, is 1. ">
<polygon fill="none" stroke="black" points="248,-129.5 248,-148.5 417,-148.5 417,-129.5 248,-129.5"/>
<text text-anchor="middle" x="332.5" y="-136.5" font-family="Helvetica,sans-Serif" font-size="10.00">nars.language.Term.getComplexity</text>
</a>
</g>
</g>
<!-- Node287&#45;&gt;Node302 -->
<g id="edge17" class="edge"><title>Node287&#45;&gt;Node302</title>
<path fill="none" stroke="midnightblue" d="M203.276,-139C214.668,-139 226.244,-139 237.544,-139"/>
<polygon fill="midnightblue" stroke="midnightblue" points="237.831,-142.5 247.831,-139 237.831,-135.5 237.831,-142.5"/>
</g>
<!-- Node303 -->
<g id="node17" class="node"><title>Node303</title>
<g id="a_node17"><a xlink:href="../../d9/d21/a00240.html#a1cabe922021909c7226988e5aa00ea95" target="_top" xlink:title="Determine the quality of a judgment by its truth value alone. ">
<polygon fill="none" stroke="black" points="244,-40 244,-70 421,-70 421,-40 244,-40"/>
<text text-anchor="start" x="252" y="-58" font-family="Helvetica,sans-Serif" font-size="10.00">nars.inference.BudgetFunctions.truth</text>
<text text-anchor="middle" x="332.5" y="-47" font-family="Helvetica,sans-Serif" font-size="10.00">ToQuality</text>
</a>
</g>
</g>
<!-- Node287&#45;&gt;Node303 -->
<g id="edge18" class="edge"><title>Node287&#45;&gt;Node303</title>
<path fill="none" stroke="midnightblue" d="M143.441,-123.982C181.91,-109.871 239.592,-88.7131 280.922,-73.5527"/>
<polygon fill="midnightblue" stroke="midnightblue" points="282.345,-76.7586 290.528,-70.0289 279.935,-70.1868 282.345,-76.7586"/>
</g>
<!-- Node289 -->
<g id="node3" class="node"><title>Node289</title>
<g id="a_node3"><a xlink:href="../../db/d12/a00268.html#a46d2f048b6ba77afc60dcf49734f23c7" target="_top" xlink:title="A function where the output is conjunctively determined by the inputs. ">
<polygon fill="none" stroke="black" points="471,-338.5 471,-357.5 639,-357.5 639,-338.5 471,-338.5"/>
<text text-anchor="middle" x="555" y="-345.5" font-family="Helvetica,sans-Serif" font-size="10.00">nars.inference.UtilityFunctions.and</text>
</a>
</g>
</g>
<!-- Node288&#45;&gt;Node289 -->
<g id="edge2" class="edge"><title>Node288&#45;&gt;Node289</title>
<path fill="none" stroke="midnightblue" d="M344.273,-218.239C364.203,-245.199 409.61,-301.082 462,-329 466.473,-331.384 471.216,-333.469 476.097,-335.292"/>
<polygon fill="midnightblue" stroke="midnightblue" points="475.026,-338.625 485.62,-338.487 477.253,-331.988 475.026,-338.625"/>
</g>
<!-- Node290 -->
<g id="node4" class="node"><title>Node290</title>
<g id="a_node4"><a xlink:href="../../d9/d21/a00240.html#a5df1e2954d5ce62f08cbd4be287ddaba" target="_top" xlink:title="A function where the output is the arithmetic average the inputs. ">
<polygon fill="none" stroke="black" points="462.5,-300.5 462.5,-319.5 647.5,-319.5 647.5,-300.5 462.5,-300.5"/>
<text text-anchor="middle" x="555" y="-307.5" font-family="Helvetica,sans-Serif" font-size="10.00">nars.inference.BudgetFunctions.aveAri</text>
</a>
</g>
</g>
<!-- Node288&#45;&gt;Node290 -->
<g id="edge3" class="edge"><title>Node288&#45;&gt;Node290</title>
<path fill="none" stroke="midnightblue" d="M350.875,-218.294C374.396,-238.16 418.455,-272.484 462,-291 468.151,-293.616 474.691,-295.881 481.337,-297.841"/>
<polygon fill="midnightblue" stroke="midnightblue" points="480.55,-301.254 491.118,-300.499 482.385,-294.499 480.55,-301.254"/>
</g>
<!-- Node291 -->
<g id="node5" class="node"><title>Node291</title>
<g id="a_node5"><a xlink:href="../../dc/d31/a00208.html#a54fc0a370b847dd77c0a698c765e6e55" target="_top" xlink:title="The budget of the Item, consisting of 3 numbers. ">
<polygon fill="none" stroke="black" points="686.5,-79.5 686.5,-98.5 818.5,-98.5 818.5,-79.5 686.5,-79.5"/>
<text text-anchor="middle" x="752.5" y="-86.5" font-family="Helvetica,sans-Serif" font-size="10.00">nars.entity.Item.getBudget</text>
</a>
</g>
</g>
<!-- Node288&#45;&gt;Node291 -->
<g id="edge4" class="edge"><title>Node288&#45;&gt;Node291</title>
<path fill="none" stroke="midnightblue" d="M375.879,-187.926C392.675,-180.604 411.417,-170.623 426,-158 447.531,-139.364 437.213,-119.017 462,-105 533.908,-64.3351 632.596,-69.2327 694.176,-77.9874"/>
<polygon fill="midnightblue" stroke="midnightblue" points="693.696,-81.4545 704.104,-79.4782 694.735,-74.5321 693.696,-81.4545"/>
</g>
<!-- Node292 -->
<g id="node6" class="node"><title>Node292</title>
<g id="a_node6"><a xlink:href="../../d9/dd5/a00432.html#a672e3b935dca6df8c7e47c6c69e0fc66" target="_top" xlink:title="nars.storage.WorkSpace.get\lCurrentBeliefLink">
<polygon fill="none" stroke="black" points="484.5,-213 484.5,-243 625.5,-243 625.5,-213 484.5,-213"/>
<text text-anchor="start" x="492.5" y="-231" font-family="Helvetica,sans-Serif" font-size="10.00">nars.storage.WorkSpace.get</text>
<text text-anchor="middle" x="555" y="-220" font-family="Helvetica,sans-Serif" font-size="10.00">CurrentBeliefLink</text>
</a>
</g>
</g>
<!-- Node288&#45;&gt;Node292 -->
<g id="edge5" class="edge"><title>Node288&#45;&gt;Node292</title>
<path fill="none" stroke="midnightblue" d="M426.053,-213.494C442.102,-215.313 458.664,-217.191 474.332,-218.967"/>
<polygon fill="midnightblue" stroke="midnightblue" points="474.154,-222.469 484.484,-220.118 474.942,-215.514 474.154,-222.469"/>
</g>
<!-- Node293 -->
<g id="node7" class="node"><title>Node293</title>
<g id="a_node7"><a xlink:href="../../d9/dd5/a00432.html#aefcc9dfcebdc79cd7e099afd4553b083" target="_top" xlink:title="nars.storage.WorkSpace.get\lCurrentTask">
<polygon fill="none" stroke="black" points="484.5,-164 484.5,-194 625.5,-194 625.5,-164 484.5,-164"/>
<text text-anchor="start" x="492.5" y="-182" font-family="Helvetica,sans-Serif" font-size="10.00">nars.storage.WorkSpace.get</text>
<text text-anchor="middle" x="555" y="-171" font-family="Helvetica,sans-Serif" font-size="10.00">CurrentTask</text>
</a>
</g>
</g>
<!-- Node288&#45;&gt;Node293 -->
<g id="edge6" class="edge"><title>Node288&#45;&gt;Node293</title>
<path fill="none" stroke="midnightblue" d="M426.053,-192.926C442.102,-191.179 458.664,-189.377 474.332,-187.671"/>
<polygon fill="midnightblue" stroke="midnightblue" points="474.922,-191.128 484.484,-186.566 474.164,-184.169 474.922,-191.128"/>
</g>
<!-- Node294 -->
<g id="node8" class="node"><title>Node294</title>
<g id="a_node8"><a xlink:href="../../d9/dd5/a00432.html#a585409e59ebb973c820683bc556ebe37" target="_top" xlink:title="nars.storage.WorkSpace.get\lCurrentTaskLink">
<polygon fill="none" stroke="black" points="484.5,-115 484.5,-145 625.5,-145 625.5,-115 484.5,-115"/>
<text text-anchor="start" x="492.5" y="-133" font-family="Helvetica,sans-Serif" font-size="10.00">nars.storage.WorkSpace.get</text>
<text text-anchor="middle" x="555" y="-122" font-family="Helvetica,sans-Serif" font-size="10.00">CurrentTaskLink</text>
</a>
</g>
</g>
<!-- Node288&#45;&gt;Node294 -->
<g id="edge7" class="edge"><title>Node288&#45;&gt;Node294</title>
<path fill="none" stroke="midnightblue" d="M369.681,-187.989C395.224,-177.693 430.392,-164.116 462,-154 468.549,-151.904 475.402,-149.855 482.288,-147.892"/>
<polygon fill="midnightblue" stroke="midnightblue" points="483.674,-151.14 492.368,-145.084 481.795,-144.397 483.674,-151.14"/>
</g>
<!-- Node295 -->
<g id="node9" class="node"><title>Node295</title>
<g id="a_node9"><a xlink:href="../../dc/d31/a00208.html#adbb21c1891722e30c1d6cfaf5fee18ee" target="_top" xlink:title="Get durability value. ">
<polygon fill="none" stroke="black" points="483.5,-262.5 483.5,-281.5 626.5,-281.5 626.5,-262.5 483.5,-262.5"/>
<text text-anchor="middle" x="555" y="-269.5" font-family="Helvetica,sans-Serif" font-size="10.00">nars.entity.Item.getDurability</text>
</a>
</g>
</g>
<!-- Node288&#45;&gt;Node295 -->
<g id="edge8" class="edge"><title>Node288&#45;&gt;Node295</title>
<path fill="none" stroke="midnightblue" d="M367.588,-218.069C393.177,-228.934 429.287,-243.332 462,-253 471.054,-255.676 480.718,-258.113 490.253,-260.283"/>
<polygon fill="midnightblue" stroke="midnightblue" points="489.594,-263.722 500.112,-262.446 491.094,-256.884 489.594,-263.722"/>
</g>
<!-- Node297 -->
<g id="node11" class="node"><title>Node297</title>
<g id="a_node11"><a xlink:href="../../dc/d31/a00208.html#a97b35888ceaad90e7a428701051c51d7" target="_top" xlink:title="Get priority value. ">
<polygon fill="none" stroke="black" points="489,-38.5 489,-57.5 621,-57.5 621,-38.5 489,-38.5"/>
<text text-anchor="middle" x="555" y="-45.5" font-family="Helvetica,sans-Serif" font-size="10.00">nars.entity.Item.getPriority</text>
</a>
</g>
</g>
<!-- Node288&#45;&gt;Node297 -->
<g id="edge11" class="edge"><title>Node288&#45;&gt;Node297</title>
<path fill="none" stroke="midnightblue" d="M380.541,-187.903C396.599,-180.878 413.61,-171.108 426,-158 454.463,-127.887 430.706,-99.1589 462,-72 467.193,-67.4931 473.132,-63.8175 479.437,-60.8219"/>
<polygon fill="midnightblue" stroke="midnightblue" points="480.994,-63.9652 488.891,-56.902 478.313,-57.4989 480.994,-63.9652"/>
</g>
<!-- Node299 -->
<g id="node13" class="node"><title>Node299</title>
<g id="a_node13"><a xlink:href="../../dc/d31/a00208.html#a786a1e14b3904092f4a3b2fa4faa08a7" target="_top" xlink:title="Increase priority value. ">
<polygon fill="none" stroke="black" points="489.5,-376.5 489.5,-395.5 620.5,-395.5 620.5,-376.5 489.5,-376.5"/>
<text text-anchor="middle" x="555" y="-383.5" font-family="Helvetica,sans-Serif" font-size="10.00">nars.entity.Item.incPriority</text>
</a>
</g>
</g>
<!-- Node288&#45;&gt;Node299 -->
<g id="edge14" class="edge"><title>Node288&#45;&gt;Node299</title>
<path fill="none" stroke="midnightblue" d="M340.676,-218.13C357.108,-251.012 400.82,-329.075 462,-367 467.458,-370.383 473.414,-373.176 479.585,-375.478"/>
<polygon fill="midnightblue" stroke="midnightblue" points="478.825,-378.913 489.418,-378.708 481.01,-372.262 478.825,-378.913"/>
</g>
<!-- Node295&#45;&gt;Node291 -->
<g id="edge9" class="edge"><title>Node295&#45;&gt;Node291</title>
<path fill="none" stroke="midnightblue" d="M626.764,-263.581C634.308,-260.911 641.564,-257.457 648,-253 700.925,-216.344 732.532,-142.947 745.139,-108.149"/>
<polygon fill="midnightblue" stroke="midnightblue" points="748.455,-109.266 748.444,-98.6714 741.846,-106.961 748.455,-109.266"/>
</g>
<!-- Node296 -->
<g id="node10" class="node"><title>Node296</title>
<g id="a_node10"><a xlink:href="../../dd/da2/a00192.html#ab0e0dc2172d3fab6390670acb68da1a6" target="_top" xlink:title="Get durability value. ">
<polygon fill="none" stroke="black" points="684,-257 684,-287 821,-287 821,-257 684,-257"/>
<text text-anchor="start" x="692" y="-275" font-family="Helvetica,sans-Serif" font-size="10.00">nars.entity.BudgetValue.get</text>
<text text-anchor="middle" x="752.5" y="-264" font-family="Helvetica,sans-Serif" font-size="10.00">Durability</text>
</a>
</g>
</g>
<!-- Node295&#45;&gt;Node296 -->
<g id="edge10" class="edge"><title>Node295&#45;&gt;Node296</title>
<path fill="none" stroke="midnightblue" d="M626.58,-272C641.922,-272 658.234,-272 673.833,-272"/>
<polygon fill="midnightblue" stroke="midnightblue" points="673.963,-275.5 683.963,-272 673.963,-268.5 673.963,-275.5"/>
</g>
<!-- Node297&#45;&gt;Node291 -->
<g id="edge12" class="edge"><title>Node297&#45;&gt;Node291</title>
<path fill="none" stroke="midnightblue" d="M601.343,-57.5093C629.617,-63.439 666.197,-71.1105 696.174,-77.397"/>
<polygon fill="midnightblue" stroke="midnightblue" points="695.559,-80.8442 706.065,-79.4714 696.996,-73.9933 695.559,-80.8442"/>
</g>
<!-- Node298 -->
<g id="node12" class="node"><title>Node298</title>
<g id="a_node12"><a xlink:href="../../dd/da2/a00192.html#a1e7b6826531f03f792f3516ce0e97ac3" target="_top" xlink:title="Get priority value. ">
<polygon fill="none" stroke="black" points="684,-30 684,-60 821,-60 821,-30 684,-30"/>
<text text-anchor="start" x="692" y="-48" font-family="Helvetica,sans-Serif" font-size="10.00">nars.entity.BudgetValue.get</text>
<text text-anchor="middle" x="752.5" y="-37" font-family="Helvetica,sans-Serif" font-size="10.00">Priority</text>
</a>
</g>
</g>
<!-- Node297&#45;&gt;Node298 -->
<g id="edge13" class="edge"><title>Node297&#45;&gt;Node298</title>
<path fill="none" stroke="midnightblue" d="M621.099,-47.001C637.905,-46.7431 656.166,-46.4629 673.555,-46.1961"/>
<polygon fill="midnightblue" stroke="midnightblue" points="673.729,-49.6939 683.674,-46.0408 673.622,-42.6947 673.729,-49.6939"/>
</g>
<!-- Node300 -->
<g id="node14" class="node"><title>Node300</title>
<g id="a_node14"><a xlink:href="../../dd/da2/a00192.html#a088e64163126211239b6afd25a9cdca3" target="_top" xlink:title="Increase priority value by a percentage of the remaining range. ">
<polygon fill="none" stroke="black" points="684,-371 684,-401 821,-401 821,-371 684,-371"/>
<text text-anchor="start" x="692" y="-389" font-family="Helvetica,sans-Serif" font-size="10.00">nars.entity.BudgetValue.inc</text>
<text text-anchor="middle" x="752.5" y="-378" font-family="Helvetica,sans-Serif" font-size="10.00">Priority</text>
</a>
</g>
</g>
<!-- Node299&#45;&gt;Node300 -->
<g id="edge15" class="edge"><title>Node299&#45;&gt;Node300</title>
<path fill="none" stroke="midnightblue" d="M620.556,-386C637.57,-386 656.107,-386 673.737,-386"/>
<polygon fill="midnightblue" stroke="midnightblue" points="673.994,-389.5 683.994,-386 673.994,-382.5 673.994,-389.5"/>
</g>
<!-- Node301 -->
<g id="node15" class="node"><title>Node301</title>
<g id="a_node15"><a xlink:href="../../db/d12/a00268.html#acaa4ebc080bc00d0e03be32d51d29e40" target="_top" xlink:title="A function where the output is disjunctively determined by the inputs. ">
<polygon fill="none" stroke="black" points="857,-376.5 857,-395.5 1018,-395.5 1018,-376.5 857,-376.5"/>
<text text-anchor="middle" x="937.5" y="-383.5" font-family="Helvetica,sans-Serif" font-size="10.00">nars.inference.UtilityFunctions.or</text>
</a>
</g>
</g>
<!-- Node300&#45;&gt;Node301 -->
<g id="edge16" class="edge"><title>Node300&#45;&gt;Node301</title>
<path fill="none" stroke="midnightblue" d="M821.123,-386C829.465,-386 838.092,-386 846.7,-386"/>
<polygon fill="midnightblue" stroke="midnightblue" points="846.776,-389.5 856.776,-386 846.776,-382.5 846.776,-389.5"/>
</g>
<!-- Node304 -->
<g id="node18" class="node"><title>Node304</title>
<g id="a_node18"><a xlink:href="../../db/d12/a00268.html#ae9f34c27ee5675fa2b97f2def9e1fb99" target="_top" xlink:title="A function where the output is the geometric average the inputs. ">
<polygon fill="none" stroke="black" points="462,-0.5 462,-19.5 648,-19.5 648,-0.5 462,-0.5"/>
<text text-anchor="middle" x="555" y="-7.5" font-family="Helvetica,sans-Serif" font-size="10.00">nars.inference.UtilityFunctions.aveGeo</text>
</a>
</g>
</g>
<!-- Node303&#45;&gt;Node304 -->
<g id="edge19" class="edge"><title>Node303&#45;&gt;Node304</title>
<path fill="none" stroke="midnightblue" d="M407.23,-39.9531C436.667,-33.9455 470.02,-27.1388 497.484,-21.5339"/>
<polygon fill="midnightblue" stroke="midnightblue" points="498.22,-24.956 507.318,-19.527 496.82,-18.0974 498.22,-24.956"/>
</g>
</g>
</svg>
        <g id="navigator" transform="translate(0 0)" fill="#404254">
                <rect fill="#f2f5e9" fill-opacity="0.5" stroke="#606060" stroke-width=".5" x="0" y="0" width="60" height="60"/>
                <use id="zoomplus" xlink:href="#zoomPlus" x="17" y="9" onmousedown="handleZoom(evt,'in')"/>
                <use id="zoomminus" xlink:href="#zoomMin" x="42" y="9" onmousedown="handleZoom(evt,'out')"/>
                <use id="reset" xlink:href="#resetDef" x="30" y="36" onmousedown="handleReset()"/>
                <g id="arrowUp" xlink:href="#dirArrow" transform="translate(30 24)" onmousedown="handlePan(0,-1)">
                  <use xlink:href="#rim" fill="#404040">
                        <set attributeName="fill" to="#808080" begin="arrowUp.mouseover" end="arrowUp.mouseout"/>
                  </use>
                  <path fill="none" stroke="white" stroke-width="1.5" d="M0,-3.0v7 M-2.5,-0.5L0,-3.0L2.5,-0.5"/>
                </g>
                <g id="arrowRight" xlink:href="#dirArrow" transform="rotate(90) translate(36 -43)" onmousedown="handlePan(1,0)">
                  <use xlink:href="#rim" fill="#404040">
                        <set attributeName="fill" to="#808080" begin="arrowRight.mouseover" end="arrowRight.mouseout"/>
                  </use>
                  <path fill="none" stroke="white" stroke-width="1.5" d="M0,-3.0v7 M-2.5,-0.5L0,-3.0L2.5,-0.5"/>
                </g>
                <g id="arrowDown" xlink:href="#dirArrow" transform="rotate(180) translate(-30 -48)" onmousedown="handlePan(0,1)">
                  <use xlink:href="#rim" fill="#404040">
                        <set attributeName="fill" to="#808080" begin="arrowDown.mouseover" end="arrowDown.mouseout"/>
                  </use>
                  <path fill="none" stroke="white" stroke-width="1.5" d="M0,-3.0v7 M-2.5,-0.5L0,-3.0L2.5,-0.5"/>
                </g>
                <g id="arrowLeft" xlink:href="#dirArrow" transform="rotate(270) translate(-36 17)" onmousedown="handlePan(-1,0)">
                  <use xlink:href="#rim" fill="#404040">
                        <set attributeName="fill" to="#808080" begin="arrowLeft.mouseover" end="arrowLeft.mouseout"/>
                  </use>
                  <path fill="none" stroke="white" stroke-width="1.5" d="M0,-3.0v7 M-2.5,-0.5L0,-3.0L2.5,-0.5"/>
                </g>
        </g>
        <svg viewBox="0 0 15 15" width="100%" height="30px" preserveAspectRatio="xMaxYMin meet">
         <g id="arrow_out" transform="scale(0.3 0.3)">
          <a xlink:href="a00240_a3212d7841cbe20d022ff6f54ab7fac3e_cgraph_org.svg" target="_base">
           <rect id="button" ry="5" rx="5" y="6" x="6" height="38" width="38"
                fill="#f2f5e9" fill-opacity="0.5" stroke="#606060" stroke-width="1.0"/>
           <path id="arrow"
             d="M 11.500037,31.436501 C 11.940474,20.09759 22.043105,11.32322 32.158766,21.979434 L 37.068811,17.246167 C 37.068811,17.246167 37.088388,32 37.088388,32 L 22.160133,31.978069 C 22.160133,31.978069 26.997745,27.140456 26.997745,27.140456 C 18.528582,18.264221 13.291696,25.230495 11.500037,31.436501 z"
             style="fill:#404040;"/>
          </a>
         </g>
        </svg>
</svg>
