<?xml version="1.0" encoding="UTF-8" standalone="no"?>
<!DOCTYPE svg PUBLIC "-//W3C//DTD SVG 1.1//EN"
 "http://www.w3.org/Graphics/SVG/1.1/DTD/svg11.dtd">
<!-- Generated by graphviz version 2.38.0 (20140413.2041)
 -->
<!-- Title: nars.inference.BudgetFunctions.compoundForward Pages: 1 -->
<svg width="2664pt" height="137pt"
 viewBox="0.00 0.00 2664.00 137.00" xmlns="http://www.w3.org/2000/svg" xmlns:xlink="http://www.w3.org/1999/xlink">
<g id="graph0" class="graph" transform="scale(1 1) rotate(0) translate(4 133)">
<title>nars.inference.BudgetFunctions.compoundForward</title>
<!-- Node305 -->
<g id="node1" class="node"><title>Node305</title>
<polygon fill="#bfbfbf" stroke="black" points="0,-49.5 0,-79.5 203,-79.5 203,-49.5 0,-49.5"/>
<text text-anchor="start" x="8" y="-67.5" font-family="Helvetica,sans-Serif" font-size="10.00">nars.inference.BudgetFunctions.compound</text>
<text text-anchor="middle" x="101.5" y="-56.5" font-family="Helvetica,sans-Serif" font-size="10.00">Forward</text>
</g>
<!-- Node306 -->
<g id="node2" class="node"><title>Node306</title>
<g id="a_node2"><a xlink:href="../../d6/d08/a00244.html#a4479c479bb3ceeb78130e03ce5e3f293" target="_top" xlink:title="{&lt;(S|P) ==&gt; M&gt;, ">
<polygon fill="none" stroke="black" points="239,-98.5 239,-128.5 382,-128.5 382,-98.5 239,-98.5"/>
<text text-anchor="start" x="247" y="-116.5" font-family="Helvetica,sans-Serif" font-size="10.00">nars.inference.Compositional</text>
<text text-anchor="middle" x="310.5" y="-105.5" font-family="Helvetica,sans-Serif" font-size="10.00">Rules.decomposeCompound</text>
</a>
</g>
</g>
<!-- Node305&#45;&gt;Node306 -->
<g id="edge1" class="edge"><title>Node305&#45;&gt;Node306</title>
<path fill="none" stroke="midnightblue" d="M176.022,-81.9038C198.921,-87.3243 223.963,-93.252 246.107,-98.4938"/>
<polygon fill="midnightblue" stroke="midnightblue" points="176.551,-78.4323 166.014,-79.5346 174.938,-85.2441 176.551,-78.4323"/>
</g>
<!-- Node319 -->
<g id="node15" class="node"><title>Node319</title>
<g id="a_node15"><a xlink:href="../../d6/d08/a00244.html#a4e01a00f3a024ecdbd3949fefb803dae" target="_top" xlink:title="Introduce a dependent variable in an outer&#45;layer conjunction. ">
<polygon fill="none" stroke="black" points="239,-49.5 239,-79.5 382,-79.5 382,-49.5 239,-49.5"/>
<text text-anchor="start" x="247" y="-67.5" font-family="Helvetica,sans-Serif" font-size="10.00">nars.inference.Compositional</text>
<text text-anchor="middle" x="310.5" y="-56.5" font-family="Helvetica,sans-Serif" font-size="10.00">Rules.introVarOuter</text>
</a>
</g>
</g>
<!-- Node305&#45;&gt;Node319 -->
<g id="edge14" class="edge"><title>Node305&#45;&gt;Node319</title>
<path fill="none" stroke="midnightblue" d="M213.419,-64.5C222.048,-64.5 230.608,-64.5 238.858,-64.5"/>
<polygon fill="midnightblue" stroke="midnightblue" points="213.271,-61.0001 203.271,-64.5 213.271,-68.0001 213.271,-61.0001"/>
</g>
<!-- Node320 -->
<g id="node16" class="node"><title>Node320</title>
<g id="a_node16"><a xlink:href="../../d6/d08/a00244.html#a06a7361732a36328f25d2b1de5825558" target="_top" xlink:title="Finish composing implication term. ">
<polygon fill="none" stroke="black" points="239,-0.5 239,-30.5 382,-30.5 382,-0.5 239,-0.5"/>
<text text-anchor="start" x="247" y="-18.5" font-family="Helvetica,sans-Serif" font-size="10.00">nars.inference.Compositional</text>
<text text-anchor="middle" x="310.5" y="-7.5" font-family="Helvetica,sans-Serif" font-size="10.00">Rules.processComposed</text>
</a>
</g>
</g>
<!-- Node305&#45;&gt;Node320 -->
<g id="edge16" class="edge"><title>Node305&#45;&gt;Node320</title>
<path fill="none" stroke="midnightblue" d="M176.022,-47.0962C198.921,-41.6757 223.963,-35.748 246.107,-30.5062"/>
<polygon fill="midnightblue" stroke="midnightblue" points="174.938,-43.7559 166.014,-49.4654 176.551,-50.5677 174.938,-43.7559"/>
</g>
<!-- Node307 -->
<g id="node3" class="node"><title>Node307</title>
<g id="a_node3"><a xlink:href="../../d6/d08/a00244.html#a53f7edf7bfe7433da42e8fcf36fd6604" target="_top" xlink:title="{&lt;S ==&gt; M&gt;, ">
<polygon fill="none" stroke="black" points="418,-49.5 418,-79.5 561,-79.5 561,-49.5 418,-49.5"/>
<text text-anchor="start" x="426" y="-67.5" font-family="Helvetica,sans-Serif" font-size="10.00">nars.inference.Compositional</text>
<text text-anchor="middle" x="489.5" y="-56.5" font-family="Helvetica,sans-Serif" font-size="10.00">Rules.composeCompound</text>
</a>
</g>
</g>
<!-- Node306&#45;&gt;Node307 -->
<g id="edge2" class="edge"><title>Node306&#45;&gt;Node307</title>
<path fill="none" stroke="midnightblue" d="M375.875,-95.6788C394.985,-90.3882 415.721,-84.6478 434.13,-79.5516"/>
<polygon fill="midnightblue" stroke="midnightblue" points="374.754,-92.3573 366.05,-98.3986 376.621,-99.1036 374.754,-92.3573"/>
</g>
<!-- Node308 -->
<g id="node4" class="node"><title>Node308</title>
<g id="a_node4"><a xlink:href="../../dc/ded/a00252.html#a34927349efcf87db97d23c60983b115b" target="_top" xlink:title="Syllogistic rules whose both premises are on the same asymmetric relation. ">
<polygon fill="none" stroke="black" points="597,-49.5 597,-79.5 782,-79.5 782,-49.5 597,-49.5"/>
<text text-anchor="start" x="605" y="-67.5" font-family="Helvetica,sans-Serif" font-size="10.00">nars.inference.RuleTables.asymmetric</text>
<text text-anchor="middle" x="689.5" y="-56.5" font-family="Helvetica,sans-Serif" font-size="10.00">Asymmetric</text>
</a>
</g>
</g>
<!-- Node307&#45;&gt;Node308 -->
<g id="edge3" class="edge"><title>Node307&#45;&gt;Node308</title>
<path fill="none" stroke="midnightblue" d="M571.284,-64.5C579.685,-64.5 588.267,-64.5 596.777,-64.5"/>
<polygon fill="midnightblue" stroke="midnightblue" points="571.144,-61.0001 561.144,-64.5 571.144,-68.0001 571.144,-61.0001"/>
</g>
<!-- Node309 -->
<g id="node5" class="node"><title>Node309</title>
<g id="a_node5"><a xlink:href="../../dc/ded/a00252.html#a8628d400a8ceda7fea05039ddfea319b" target="_top" xlink:title="Meta&#45;table of syllogistic rules, indexed by the content classes of the taskSentence and the belief...">
<polygon fill="none" stroke="black" points="818,-55 818,-74 998,-74 998,-55 818,-55"/>
<text text-anchor="middle" x="908" y="-62" font-family="Helvetica,sans-Serif" font-size="10.00">nars.inference.RuleTables.syllogisms</text>
</a>
</g>
</g>
<!-- Node308&#45;&gt;Node309 -->
<g id="edge4" class="edge"><title>Node308&#45;&gt;Node309</title>
<path fill="none" stroke="midnightblue" d="M792.084,-64.5C800.705,-64.5 809.383,-64.5 817.898,-64.5"/>
<polygon fill="midnightblue" stroke="midnightblue" points="792.002,-61.0001 782.002,-64.5 792.002,-68.0001 792.002,-61.0001"/>
</g>
<!-- Node310 -->
<g id="node6" class="node"><title>Node310</title>
<g id="a_node6"><a xlink:href="../../dc/ded/a00252.html#ac2d01dfdc40bdd47c757cb549217e6e3" target="_top" xlink:title="Entry point of the inference engine. ">
<polygon fill="none" stroke="black" points="1034,-55 1034,-74 1197,-74 1197,-55 1034,-55"/>
<text text-anchor="middle" x="1115.5" y="-62" font-family="Helvetica,sans-Serif" font-size="10.00">nars.inference.RuleTables.reason</text>
</a>
</g>
</g>
<!-- Node309&#45;&gt;Node310 -->
<g id="edge5" class="edge"><title>Node309&#45;&gt;Node310</title>
<path fill="none" stroke="midnightblue" d="M1008.24,-64.5C1016.79,-64.5 1025.37,-64.5 1033.75,-64.5"/>
<polygon fill="midnightblue" stroke="midnightblue" points="1008.24,-61.0001 998.239,-64.5 1008.24,-68.0001 1008.24,-61.0001"/>
</g>
<!-- Node311 -->
<g id="node7" class="node"><title>Node311</title>
<g id="a_node7"><a xlink:href="../../d7/ded/a00196.html#ad6fb91dda799c3092ecb186ef24ca92a" target="_top" xlink:title="An atomic step in a concept, only called in Memory# processConcept. ">
<polygon fill="none" stroke="black" points="1233,-49.5 1233,-79.5 1352,-79.5 1352,-49.5 1233,-49.5"/>
<text text-anchor="start" x="1241" y="-67.5" font-family="Helvetica,sans-Serif" font-size="10.00">nars.entity.Concept.fire</text>
<text text-anchor="middle" x="1292.5" y="-56.5" font-family="Helvetica,sans-Serif" font-size="10.00">FromProcessConcept</text>
</a>
</g>
</g>
<!-- Node310&#45;&gt;Node311 -->
<g id="edge6" class="edge"><title>Node310&#45;&gt;Node311</title>
<path fill="none" stroke="midnightblue" d="M1207.25,-64.5C1215.91,-64.5 1224.52,-64.5 1232.76,-64.5"/>
<polygon fill="midnightblue" stroke="midnightblue" points="1207.09,-61.0001 1197.09,-64.5 1207.08,-68.0001 1207.09,-61.0001"/>
</g>
<!-- Node312 -->
<g id="node8" class="node"><title>Node312</title>
<g id="a_node8"><a xlink:href="../../d4/d27/a00392.html#a0acc4adbf6a2462245da46bcb529746c" target="_top" xlink:title="Select a concept to fireFromProcessConcept. ">
<polygon fill="none" stroke="black" points="1388,-49.5 1388,-79.5 1534,-79.5 1534,-49.5 1388,-49.5"/>
<text text-anchor="start" x="1396" y="-67.5" font-family="Helvetica,sans-Serif" font-size="10.00">nars.storage.Memory.process</text>
<text text-anchor="middle" x="1461" y="-56.5" font-family="Helvetica,sans-Serif" font-size="10.00">Concept</text>
</a>
</g>
</g>
<!-- Node311&#45;&gt;Node312 -->
<g id="edge7" class="edge"><title>Node311&#45;&gt;Node312</title>
<path fill="none" stroke="midnightblue" d="M1362.34,-64.5C1370.75,-64.5 1379.36,-64.5 1387.82,-64.5"/>
<polygon fill="midnightblue" stroke="midnightblue" points="1362.2,-61.0001 1352.2,-64.5 1362.2,-68.0001 1362.2,-61.0001"/>
</g>
<!-- Node313 -->
<g id="node9" class="node"><title>Node313</title>
<g id="a_node9"><a xlink:href="../../d4/d27/a00392.html#a59ae339d666409988d90d29be4f73a91" target="_top" xlink:title="An atomic working workCycle of the system: process new Tasks, then fireFromProcessConcept a concept...">
<polygon fill="none" stroke="black" points="1570,-49.5 1570,-79.5 1703,-79.5 1703,-49.5 1570,-49.5"/>
<text text-anchor="start" x="1578" y="-67.5" font-family="Helvetica,sans-Serif" font-size="10.00">nars.storage.Memory.work</text>
<text text-anchor="middle" x="1636.5" y="-56.5" font-family="Helvetica,sans-Serif" font-size="10.00">Cycle</text>
</a>
</g>
</g>
<!-- Node312&#45;&gt;Node313 -->
<g id="edge8" class="edge"><title>Node312&#45;&gt;Node313</title>
<path fill="none" stroke="midnightblue" d="M1544.12,-64.5C1552.72,-64.5 1561.37,-64.5 1569.76,-64.5"/>
<polygon fill="midnightblue" stroke="midnightblue" points="1544.07,-61.0001 1534.07,-64.5 1544.07,-68.0001 1544.07,-61.0001"/>
</g>
<!-- Node314 -->
<g id="node10" class="node"><title>Node314</title>
<g id="a_node10"><a xlink:href="../../df/d15/a00416.html#a0d5c797dc17d9e8d0998852915e0f303" target="_top" xlink:title="nars.storage.ReasonerBatch.doTick">
<polygon fill="none" stroke="black" points="1739,-55 1739,-74 1912,-74 1912,-55 1739,-55"/>
<text text-anchor="middle" x="1825.5" y="-62" font-family="Helvetica,sans-Serif" font-size="10.00">nars.storage.ReasonerBatch.doTick</text>
</a>
</g>
</g>
<!-- Node313&#45;&gt;Node314 -->
<g id="edge9" class="edge"><title>Node313&#45;&gt;Node314</title>
<path fill="none" stroke="midnightblue" d="M1713.34,-64.5C1721.78,-64.5 1730.42,-64.5 1738.97,-64.5"/>
<polygon fill="midnightblue" stroke="midnightblue" points="1713.17,-61.0001 1703.17,-64.5 1713.17,-68.0001 1713.17,-61.0001"/>
</g>
<!-- Node315 -->
<g id="node11" class="node"><title>Node315</title>
<g id="a_node11"><a xlink:href="../../df/d15/a00416.html#a3468aa0f99edcd66412f27922dddb880" target="_top" xlink:title="A clock tick. ">
<polygon fill="none" stroke="black" points="1948,-55 1948,-74 2108,-74 2108,-55 1948,-55"/>
<text text-anchor="middle" x="2028" y="-62" font-family="Helvetica,sans-Serif" font-size="10.00">nars.storage.ReasonerBatch.tick</text>
</a>
</g>
</g>
<!-- Node314&#45;&gt;Node315 -->
<g id="edge10" class="edge"><title>Node314&#45;&gt;Node315</title>
<path fill="none" stroke="midnightblue" d="M1922.13,-64.5C1930.7,-64.5 1939.31,-64.5 1947.71,-64.5"/>
<polygon fill="midnightblue" stroke="midnightblue" points="1922.11,-61.0001 1912.11,-64.5 1922.11,-68.0001 1922.11,-61.0001"/>
</g>
<!-- Node316 -->
<g id="node12" class="node"><title>Node316</title>
<g id="a_node12"><a xlink:href="../../d9/da1/a00396.html#a5d9cfe517bcfbe41e5251910bcd119c1" target="_top" xlink:title="Run to completion: repeatedly execute NARS working cycle, until Inputs are Finished, or 1000 steps. ">
<polygon fill="none" stroke="black" points="2144,-55 2144,-74 2288,-74 2288,-55 2144,-55"/>
<text text-anchor="middle" x="2216" y="-62" font-family="Helvetica,sans-Serif" font-size="10.00">nars.storage.NARSBatch.run</text>
</a>
</g>
</g>
<!-- Node315&#45;&gt;Node316 -->
<g id="edge11" class="edge"><title>Node315&#45;&gt;Node316</title>
<path fill="none" stroke="midnightblue" d="M2118.22,-64.5C2126.82,-64.5 2135.47,-64.5 2143.87,-64.5"/>
<polygon fill="midnightblue" stroke="midnightblue" points="2118.15,-61.0001 2108.15,-64.5 2118.15,-68.0001 2118.15,-61.0001"/>
</g>
<!-- Node317 -->
<g id="node13" class="node"><title>Node317</title>
<g id="a_node13"><a xlink:href="../../d9/da1/a00396.html#a7c307c6b842f82664de6b0e52bdf8efc" target="_top" xlink:title="non&#45;static equivalent to main(String[]) : run to completion from an input file ">
<polygon fill="none" stroke="black" points="2324,-49.5 2324,-79.5 2468,-79.5 2468,-49.5 2324,-49.5"/>
<text text-anchor="start" x="2332" y="-67.5" font-family="Helvetica,sans-Serif" font-size="10.00">nars.storage.NARSBatch.run</text>
<text text-anchor="middle" x="2396" y="-56.5" font-family="Helvetica,sans-Serif" font-size="10.00">Inference</text>
</a>
</g>
</g>
<!-- Node316&#45;&gt;Node317 -->
<g id="edge12" class="edge"><title>Node316&#45;&gt;Node317</title>
<path fill="none" stroke="midnightblue" d="M2298.17,-64.5C2306.79,-64.5 2315.51,-64.5 2324,-64.5"/>
<polygon fill="midnightblue" stroke="midnightblue" points="2298.12,-61.0001 2288.12,-64.5 2298.12,-68.0001 2298.12,-61.0001"/>
</g>
<!-- Node318 -->
<g id="node14" class="node"><title>Node318</title>
<g id="a_node14"><a xlink:href="../../d9/da1/a00396.html#abafc597289bc2f6453b5cd0dd6634e54" target="_top" xlink:title="The entry point of the standalone application. ">
<polygon fill="none" stroke="black" points="2504,-55 2504,-74 2656,-74 2656,-55 2504,-55"/>
<text text-anchor="middle" x="2580" y="-62" font-family="Helvetica,sans-Serif" font-size="10.00">nars.storage.NARSBatch.main</text>
</a>
</g>
</g>
<!-- Node317&#45;&gt;Node318 -->
<g id="edge13" class="edge"><title>Node317&#45;&gt;Node318</title>
<path fill="none" stroke="midnightblue" d="M2478.17,-64.5C2486.76,-64.5 2495.48,-64.5 2504,-64.5"/>
<polygon fill="midnightblue" stroke="midnightblue" points="2478.15,-61.0001 2468.15,-64.5 2478.15,-68.0001 2478.15,-61.0001"/>
</g>
<!-- Node319&#45;&gt;Node307 -->
<g id="edge15" class="edge"><title>Node319&#45;&gt;Node307</title>
<path fill="none" stroke="midnightblue" d="M392.494,-64.5C400.973,-64.5 409.544,-64.5 417.894,-64.5"/>
<polygon fill="midnightblue" stroke="midnightblue" points="392.218,-61.0001 382.218,-64.5 392.218,-68.0001 392.218,-61.0001"/>
</g>
<!-- Node320&#45;&gt;Node307 -->
<g id="edge17" class="edge"><title>Node320&#45;&gt;Node307</title>
<path fill="none" stroke="midnightblue" d="M375.875,-33.3212C394.985,-38.6118 415.721,-44.3522 434.13,-49.4484"/>
<polygon fill="midnightblue" stroke="midnightblue" points="376.621,-29.8964 366.05,-30.6014 374.754,-36.6427 376.621,-29.8964"/>
</g>
</g>
</svg>
