<?xml version="1.0" encoding="UTF-8" standalone="no"?>
<!DOCTYPE svg PUBLIC "-//W3C//DTD SVG 1.1//EN"
 "http://www.w3.org/Graphics/SVG/1.1/DTD/svg11.dtd">
<!-- Generated by graphviz version 2.38.0 (20140413.2041)
 -->
<!-- Title: nars.storage.ConceptBag Pages: 1 -->
<svg width="154pt" height="287pt"
 viewBox="0.00 0.00 154.00 287.00" xmlns="http://www.w3.org/2000/svg" xmlns:xlink="http://www.w3.org/1999/xlink">
<g id="graph0" class="graph" transform="scale(1 1) rotate(0) translate(4 283)">
<title>nars.storage.ConceptBag</title>
<!-- Node0 -->
<g id="node1" class="node"><title>Node0</title>
<polygon fill="#bfbfbf" stroke="black" points="9,-0.5 9,-19.5 137,-19.5 137,-0.5 9,-0.5"/>
<text text-anchor="middle" x="73" y="-7.5" font-family="Helvetica,sans-Serif" font-size="10.00">nars.storage.ConceptBag</text>
</g>
<!-- Node1 -->
<g id="node2" class="node"><title>Node1</title>
<g id="a_node2"><a xlink:href="../../d6/db8/a00376.html" target="_top" xlink:title="nars.storage.Bag\&lt; Concept \&gt;">
<polygon fill="none" stroke="black" points="0,-57.5 0,-76.5 146,-76.5 146,-57.5 0,-57.5"/>
<text text-anchor="middle" x="73" y="-64.5" font-family="Helvetica,sans-Serif" font-size="10.00">nars.storage.Bag&lt; Concept &gt;</text>
</a>
</g>
</g>
<!-- Node1&#45;&gt;Node0 -->
<g id="edge1" class="edge"><title>Node1&#45;&gt;Node0</title>
<path fill="none" stroke="midnightblue" d="M73,-47.1166C73,-37.8173 73,-27.0557 73,-19.7149"/>
<polygon fill="midnightblue" stroke="midnightblue" points="69.5001,-47.4062 73,-57.4062 76.5001,-47.4063 69.5001,-47.4062"/>
</g>
<!-- Node2 -->
<g id="node3" class="node"><title>Node2</title>
<g id="a_node3"><a xlink:href="../../d6/db8/a00376.html" target="_top" xlink:title="A Bag is a storage with a constant capacity and maintains an internal priority distribution for retri...">
<polygon fill="none" stroke="black" points="12,-124.5 12,-154.5 134,-154.5 134,-124.5 12,-124.5"/>
<text text-anchor="start" x="20" y="-142.5" font-family="Helvetica,sans-Serif" font-size="10.00">nars.storage.Bag&lt; Type</text>
<text text-anchor="middle" x="73" y="-131.5" font-family="Helvetica,sans-Serif" font-size="10.00"> extends Item &gt;</text>
</a>
</g>
</g>
<!-- Node2&#45;&gt;Node1 -->
<g id="edge2" class="edge"><title>Node2&#45;&gt;Node1</title>
<path fill="none" stroke="orange" stroke-dasharray="5,2" d="M73,-114.091C73,-101.214 73,-86.1974 73,-76.8932"/>
<polygon fill="orange" stroke="orange" points="69.5001,-114.233 73,-124.233 76.5001,-114.233 69.5001,-114.233"/>
<text text-anchor="middle" x="102" y="-98" font-family="Helvetica,sans-Serif" font-size="10.00"> &lt; Concept &gt;</text>
</g>
<!-- Node3 -->
<g id="node4" class="node"><title>Node3</title>
<g id="a_node4"><a xlink:href="../../dc/d31/a00208.html" target="_top" xlink:title="An item is an object that can be put into a Bag, to participate in the resource competition of the sy...">
<polygon fill="none" stroke="black" points="30.5,-202.5 30.5,-221.5 115.5,-221.5 115.5,-202.5 30.5,-202.5"/>
<text text-anchor="middle" x="73" y="-209.5" font-family="Helvetica,sans-Serif" font-size="10.00">nars.entity.Item</text>
</a>
</g>
</g>
<!-- Node3&#45;&gt;Node2 -->
<g id="edge3" class="edge"><title>Node3&#45;&gt;Node2</title>
<path fill="none" stroke="orange" stroke-dasharray="5,2" d="M73,-192.236C73,-180.408 73,-165.383 73,-154.576"/>
<polygon fill="orange" stroke="orange" points="69.5001,-192.355 73,-202.355 76.5001,-192.355 69.5001,-192.355"/>
<text text-anchor="middle" x="85.5" y="-176" font-family="Helvetica,sans-Serif" font-size="10.00"> Type</text>
</g>
<!-- Node4 -->
<g id="node5" class="node"><title>Node4</title>
<polygon fill="none" stroke="#bfbfbf" points="42,-259.5 42,-278.5 104,-278.5 104,-259.5 42,-259.5"/>
<text text-anchor="middle" x="73" y="-266.5" font-family="Helvetica,sans-Serif" font-size="10.00">ItemStruct</text>
</g>
<!-- Node4&#45;&gt;Node3 -->
<g id="edge4" class="edge"><title>Node4&#45;&gt;Node3</title>
<path fill="none" stroke="midnightblue" d="M73,-249.117C73,-239.817 73,-229.056 73,-221.715"/>
<polygon fill="midnightblue" stroke="midnightblue" points="69.5001,-249.406 73,-259.406 76.5001,-249.406 69.5001,-249.406"/>
</g>
</g>
</svg>
