<?xml version="1.0" encoding="UTF-8" standalone="no"?>
<!DOCTYPE svg PUBLIC "-//W3C//DTD SVG 1.1//EN"
 "http://www.w3.org/Graphics/SVG/1.1/DTD/svg11.dtd">
<!-- Generated by graphviz version 2.38.0 (20140413.2041)
 -->
<!-- Title: nars.language.Statement.invalid Pages: 1 -->
<svg width="748pt" height="225pt"
 viewBox="0.00 0.00 748.00 225.00" xmlns="http://www.w3.org/2000/svg" xmlns:xlink="http://www.w3.org/1999/xlink">
<g id="graph0" class="graph" transform="scale(1 1) rotate(0) translate(4 221)">
<title>nars.language.Statement.invalid</title>
<!-- Node208 -->
<g id="node1" class="node"><title>Node208</title>
<polygon fill="#bfbfbf" stroke="black" points="0,-143 0,-162 156,-162 156,-143 0,-143"/>
<text text-anchor="middle" x="78" y="-150" font-family="Helvetica,sans-Serif" font-size="10.00">nars.language.Statement.invalid</text>
</g>
<!-- Node209 -->
<g id="node2" class="node"><title>Node209</title>
<g id="a_node2"><a xlink:href="../../d0/d65/a00360.html#ababe6155e2f78e769f76493317e118e0" target="_top" xlink:title="Return the second component of the statement. ">
<polygon fill="none" stroke="black" points="389.5,-137.5 389.5,-167.5 531.5,-167.5 531.5,-137.5 389.5,-137.5"/>
<text text-anchor="start" x="397.5" y="-155.5" font-family="Helvetica,sans-Serif" font-size="10.00">nars.language.Statement.get</text>
<text text-anchor="middle" x="460.5" y="-144.5" font-family="Helvetica,sans-Serif" font-size="10.00">Predicate</text>
</a>
</g>
</g>
<!-- Node208&#45;&gt;Node209 -->
<g id="edge1" class="edge"><title>Node208&#45;&gt;Node209</title>
<path fill="none" stroke="midnightblue" d="M156.458,-152.5C221.223,-152.5 313.28,-152.5 378.905,-152.5"/>
<polygon fill="midnightblue" stroke="midnightblue" points="379.203,-156 389.203,-152.5 379.203,-149 379.203,-156"/>
</g>
<!-- Node211 -->
<g id="node4" class="node"><title>Node211</title>
<g id="a_node4"><a xlink:href="../../d0/d65/a00360.html#ace4f80751d303c613e467163913bebf5" target="_top" xlink:title="Return the first component of the statement. ">
<polygon fill="none" stroke="black" points="389.5,-186.5 389.5,-216.5 531.5,-216.5 531.5,-186.5 389.5,-186.5"/>
<text text-anchor="start" x="397.5" y="-204.5" font-family="Helvetica,sans-Serif" font-size="10.00">nars.language.Statement.get</text>
<text text-anchor="middle" x="460.5" y="-193.5" font-family="Helvetica,sans-Serif" font-size="10.00">Subject</text>
</a>
</g>
</g>
<!-- Node208&#45;&gt;Node211 -->
<g id="edge3" class="edge"><title>Node208&#45;&gt;Node211</title>
<path fill="none" stroke="midnightblue" d="M152.815,-162.006C217.876,-170.384 312.455,-182.564 379.348,-191.178"/>
<polygon fill="midnightblue" stroke="midnightblue" points="379.057,-194.67 389.423,-192.476 379.952,-187.727 379.057,-194.67"/>
</g>
<!-- Node212 -->
<g id="node5" class="node"><title>Node212</title>
<g id="a_node5"><a xlink:href="../../d0/d65/a00360.html#a96d4bf7bb99f48b6496cdb7457bc0e50" target="_top" xlink:title="Check the validity of a potential Statement. ">
<polygon fill="none" stroke="black" points="192,-93.5 192,-123.5 348,-123.5 348,-93.5 192,-93.5"/>
<text text-anchor="start" x="200" y="-111.5" font-family="Helvetica,sans-Serif" font-size="10.00">nars.language.Statement.invalid</text>
<text text-anchor="middle" x="270" y="-100.5" font-family="Helvetica,sans-Serif" font-size="10.00">Statement</text>
</a>
</g>
</g>
<!-- Node208&#45;&gt;Node212 -->
<g id="edge5" class="edge"><title>Node208&#45;&gt;Node212</title>
<path fill="none" stroke="midnightblue" d="M120.227,-142.953C141.81,-137.955 168.914,-131.678 194.055,-125.856"/>
<polygon fill="midnightblue" stroke="midnightblue" points="194.992,-129.231 203.945,-123.565 193.413,-122.412 194.992,-129.231"/>
</g>
<!-- Node210 -->
<g id="node3" class="node"><title>Node210</title>
<g id="a_node3"><a xlink:href="../../d8/d17/a00304.html#a9778c35f9b602bee6ccac6a06809e546" target="_top" xlink:title="list of (direct) components ">
<polygon fill="none" stroke="black" points="573,-161.5 573,-191.5 740,-191.5 740,-161.5 573,-161.5"/>
<text text-anchor="start" x="581" y="-179.5" font-family="Helvetica,sans-Serif" font-size="10.00">nars.language.CompoundTerm.get</text>
<text text-anchor="middle" x="656.5" y="-168.5" font-family="Helvetica,sans-Serif" font-size="10.00">Components</text>
</a>
</g>
</g>
<!-- Node209&#45;&gt;Node210 -->
<g id="edge2" class="edge"><title>Node209&#45;&gt;Node210</title>
<path fill="none" stroke="midnightblue" d="M531.538,-161.165C541.655,-162.416 552.196,-163.72 562.673,-165.016"/>
<polygon fill="midnightblue" stroke="midnightblue" points="562.327,-168.5 572.681,-166.254 563.187,-161.553 562.327,-168.5"/>
</g>
<!-- Node211&#45;&gt;Node210 -->
<g id="edge4" class="edge"><title>Node211&#45;&gt;Node210</title>
<path fill="none" stroke="midnightblue" d="M531.538,-192.474C541.655,-191.171 552.196,-189.812 562.673,-188.462"/>
<polygon fill="midnightblue" stroke="midnightblue" points="563.211,-191.922 572.681,-187.172 562.316,-184.979 563.211,-191.922"/>
</g>
<!-- Node212&#45;&gt;Node209 -->
<g id="edge11" class="edge"><title>Node212&#45;&gt;Node209</title>
<path fill="none" stroke="midnightblue" d="M335.344,-123.519C351.33,-127.251 368.597,-131.281 385.025,-135.116"/>
<polygon fill="midnightblue" stroke="midnightblue" points="384.593,-138.609 395.126,-137.474 386.184,-131.792 384.593,-138.609"/>
</g>
<!-- Node212&#45;&gt;Node211 -->
<g id="edge10" class="edge"><title>Node212&#45;&gt;Node211</title>
<path fill="none" stroke="midnightblue" d="M292.224,-123.608C314.317,-138.809 350.33,-162.14 384,-177.5 388.124,-179.381 392.437,-181.176 396.822,-182.875"/>
<polygon fill="midnightblue" stroke="midnightblue" points="395.899,-186.264 406.492,-186.438 398.319,-179.696 395.899,-186.264"/>
</g>
<!-- Node213 -->
<g id="node6" class="node"><title>Node213</title>
<g id="a_node6"><a xlink:href="../../dc/d59/a00364.html#ad85f45a7858737445d5158801774ff5f" target="_top" xlink:title="Equal terms have identical name, though not necessarily the same reference. ">
<polygon fill="none" stroke="black" points="393.5,-99 393.5,-118 527.5,-118 527.5,-99 393.5,-99"/>
<text text-anchor="middle" x="460.5" y="-106" font-family="Helvetica,sans-Serif" font-size="10.00">nars.language.Term.equals</text>
</a>
</g>
</g>
<!-- Node212&#45;&gt;Node213 -->
<g id="edge6" class="edge"><title>Node212&#45;&gt;Node213</title>
<path fill="none" stroke="midnightblue" d="M348.214,-108.5C359.774,-108.5 371.687,-108.5 383.227,-108.5"/>
<polygon fill="midnightblue" stroke="midnightblue" points="383.254,-112 393.254,-108.5 383.254,-105 383.254,-112"/>
</g>
<!-- Node215 -->
<g id="node8" class="node"><title>Node215</title>
<g id="a_node8"><a xlink:href="../../d8/d17/a00304.html#a89000afae8017231889aaa549292d1e0" target="_top" xlink:title="Default constructor. ">
<polygon fill="none" stroke="black" points="384,-49.5 384,-79.5 537,-79.5 537,-49.5 384,-49.5"/>
<text text-anchor="start" x="392" y="-67.5" font-family="Helvetica,sans-Serif" font-size="10.00">nars.language.CompoundTerm.</text>
<text text-anchor="middle" x="460.5" y="-56.5" font-family="Helvetica,sans-Serif" font-size="10.00">CompoundTerm</text>
</a>
</g>
</g>
<!-- Node212&#45;&gt;Node215 -->
<g id="edge8" class="edge"><title>Node212&#45;&gt;Node215</title>
<path fill="none" stroke="midnightblue" d="M335.344,-93.4808C351.33,-89.7492 368.597,-85.7186 385.025,-81.884"/>
<polygon fill="midnightblue" stroke="midnightblue" points="386.184,-85.2078 395.126,-79.5262 384.593,-78.391 386.184,-85.2078"/>
</g>
<!-- Node216 -->
<g id="node9" class="node"><title>Node216</title>
<g id="a_node9"><a xlink:href="../../d0/d65/a00360.html#ac56b558891dd2088e0b66b437780c7b7" target="_top" xlink:title="Default constructor. ">
<polygon fill="none" stroke="black" points="396.5,-0.5 396.5,-30.5 524.5,-30.5 524.5,-0.5 396.5,-0.5"/>
<text text-anchor="start" x="404.5" y="-18.5" font-family="Helvetica,sans-Serif" font-size="10.00">nars.language.Statement.</text>
<text text-anchor="middle" x="460.5" y="-7.5" font-family="Helvetica,sans-Serif" font-size="10.00">Statement</text>
</a>
</g>
</g>
<!-- Node212&#45;&gt;Node216 -->
<g id="edge9" class="edge"><title>Node212&#45;&gt;Node216</title>
<path fill="none" stroke="midnightblue" d="M292.224,-93.3918C314.317,-78.1909 350.33,-54.8597 384,-39.5 388.124,-37.6189 392.437,-35.8244 396.822,-34.1254"/>
<polygon fill="midnightblue" stroke="midnightblue" points="398.319,-37.3038 406.492,-30.5619 395.899,-30.7355 398.319,-37.3038"/>
</g>
<!-- Node214 -->
<g id="node7" class="node"><title>Node214</title>
<g id="a_node7"><a xlink:href="../../dc/d59/a00364.html#a3aad4654016b8615fd4fa8a26668e1db" target="_top" xlink:title="Reporting the name of the current Term. ">
<polygon fill="none" stroke="black" points="583.5,-99 583.5,-118 729.5,-118 729.5,-99 583.5,-99"/>
<text text-anchor="middle" x="656.5" y="-106" font-family="Helvetica,sans-Serif" font-size="10.00">nars.language.Term.getName</text>
</a>
</g>
</g>
<!-- Node213&#45;&gt;Node214 -->
<g id="edge7" class="edge"><title>Node213&#45;&gt;Node214</title>
<path fill="none" stroke="midnightblue" d="M527.721,-108.5C542.258,-108.5 557.824,-108.5 572.915,-108.5"/>
<polygon fill="midnightblue" stroke="midnightblue" points="573.267,-112 583.267,-108.5 573.267,-105 573.267,-112"/>
</g>
</g>
</svg>
