<?xml version="1.0" encoding="UTF-8" standalone="no"?>
<!DOCTYPE svg PUBLIC "-//W3C//DTD SVG 1.1//EN"
 "http://www.w3.org/Graphics/SVG/1.1/DTD/svg11.dtd">
<!-- Generated by graphviz version 2.38.0 (20140413.2041)
 -->
<!-- Title: nars.language.Statement.make Pages: 1 -->
<!--zoomable 426 -->
<svg id="main" version="1.1" xmlns="http://www.w3.org/2000/svg" xmlns:xlink="http://www.w3.org/1999/xlink" xml:space="preserve" onload="init(evt)">
<style type="text/css"><![CDATA[
.edge:hover path { stroke: red; }
.edge:hover polygon { stroke: red; fill: red; }
]]></style>
<script type="text/javascript"><![CDATA[
var edges = document.getElementsByTagName('g');
if (edges && edges.length) {
  for (var i=0;i<edges.length;i++) {
    if (edges[i].id.substr(0,4)=='edge') {
      edges[i].setAttribute('class','edge');
    }
  }
}
]]></script>
        <defs>
                <circle id="rim" cx="0" cy="0" r="7"/>
                <circle id="rim2" cx="0" cy="0" r="3.5"/>
                <g id="zoomPlus">
                        <use xlink:href="#rim" fill="#404040">
                                <set attributeName="fill" to="#808080" begin="zoomplus.mouseover" end="zoomplus.mouseout"/>
                        </use>
                        <path d="M-4,0h8M0,-4v8" fill="none" stroke="white" stroke-width="1.5" pointer-events="none"/>
                </g>
                <g id="zoomMin">
                        <use xlink:href="#rim" fill="#404040">
                                <set attributeName="fill" to="#808080" begin="zoomminus.mouseover" end="zoomminus.mouseout"/>
                        </use>
                        <path d="M-4,0h8" fill="none" stroke="white" stroke-width="1.5" pointer-events="none"/>
                </g>
                <g id="dirArrow">
                        <path fill="none" stroke="white" stroke-width="1.5" d="M0,-3.0v7 M-2.5,-0.5L0,-3.0L2.5,-0.5"/>
                </g>
               <g id="resetDef">
                       <use xlink:href="#rim2" fill="#404040">
                               <set attributeName="fill" to="#808080" begin="reset.mouseover" end="reset.mouseout"/>
                       </use>
               </g>
        </defs>

<script type="text/javascript">
var viewWidth = 992;
var viewHeight = 426;
var sectionId = 'dynsection-13';
</script>
<script xlink:href="../../svgpan.js"/>
<svg id="graph" class="graph">
<g id="viewport">
<title>nars.language.Statement.make</title>
<!-- Node376 -->
<g id="node1" class="node"><title>Node376</title>
<polygon fill="#bfbfbf" stroke="black" points="0,-236 0,-255 152,-255 152,-236 0,-236"/>
<text text-anchor="middle" x="76" y="-243" font-family="Helvetica,sans-Serif" font-size="10.00">nars.language.Statement.make</text>
</g>
<!-- Node377 -->
<g id="node2" class="node"><title>Node377</title>
<g id="a_node2"><a xlink:href="../../d3/db8/a00316.html#a5ccaf18d33e722f438944debb2757b34" target="_top" xlink:title="Try to make a new compound from two components. ">
<polygon fill="none" stroke="black" points="188,-212 188,-231 343,-231 343,-212 188,-212"/>
<text text-anchor="middle" x="265.5" y="-219" font-family="Helvetica,sans-Serif" font-size="10.00">nars.language.Inheritance.make</text>
</a>
</g>
</g>
<!-- Node376&#45;&gt;Node377 -->
<g id="edge1" class="edge"><title>Node376&#45;&gt;Node377</title>
<path fill="none" stroke="midnightblue" d="M151.374,-235.98C160.86,-234.766 170.622,-233.516 180.249,-232.284"/>
<polygon fill="midnightblue" stroke="midnightblue" points="180.741,-235.75 190.216,-231.008 179.852,-228.806 180.741,-235.75"/>
</g>
<!-- Node393 -->
<g id="node18" class="node"><title>Node393</title>
<g id="a_node18"><a xlink:href="../../d6/de1/a00356.html#ae72436d78c25d4735b4201d773dd1901" target="_top" xlink:title="Try to make a new compound from two components. ">
<polygon fill="none" stroke="black" points="191.5,-256 191.5,-275 339.5,-275 339.5,-256 191.5,-256"/>
<text text-anchor="middle" x="265.5" y="-263" font-family="Helvetica,sans-Serif" font-size="10.00">nars.language.Similarity.make</text>
</a>
</g>
</g>
<!-- Node376&#45;&gt;Node393 -->
<g id="edge18" class="edge"><title>Node376&#45;&gt;Node393</title>
<path fill="none" stroke="midnightblue" d="M152.183,-253.52C161.786,-254.544 171.66,-255.597 181.38,-256.634"/>
<polygon fill="midnightblue" stroke="midnightblue" points="181.12,-260.126 191.435,-257.706 181.863,-253.165 181.12,-260.126"/>
</g>
<!-- Node378 -->
<g id="node3" class="node"><title>Node378</title>
<g id="a_node3"><a xlink:href="../../d8/d17/a00304.html#a9aacee8d6903ff6eb186d37f78569353" target="_top" xlink:title="build a component list from two terms ">
<polygon fill="none" stroke="black" points="379,-299.5 379,-329.5 578,-329.5 578,-299.5 379,-299.5"/>
<text text-anchor="start" x="387" y="-317.5" font-family="Helvetica,sans-Serif" font-size="10.00">nars.language.CompoundTerm.arguments</text>
<text text-anchor="middle" x="478.5" y="-306.5" font-family="Helvetica,sans-Serif" font-size="10.00">ToList</text>
</a>
</g>
</g>
<!-- Node377&#45;&gt;Node378 -->
<g id="edge2" class="edge"><title>Node377&#45;&gt;Node378</title>
<path fill="none" stroke="midnightblue" d="M309.734,-231.024C321.148,-234.736 333.047,-239.767 343,-246.5 363.644,-260.467 357.898,-276.236 379,-289.5 382.39,-291.631 385.953,-293.58 389.632,-295.364"/>
<polygon fill="midnightblue" stroke="midnightblue" points="388.419,-298.654 398.982,-299.465 391.23,-292.243 388.419,-298.654"/>
</g>
<!-- Node379 -->
<g id="node4" class="node"><title>Node379</title>
<g id="a_node4"><a xlink:href="../../d3/db8/a00316.html#a20635d9d55f73d39b29a07653cde6bc6" target="_top" xlink:title="Constructor with partial values, called by make. ">
<polygon fill="none" stroke="black" points="413,-100.5 413,-130.5 544,-130.5 544,-100.5 413,-100.5"/>
<text text-anchor="start" x="421" y="-118.5" font-family="Helvetica,sans-Serif" font-size="10.00">nars.language.Inheritance.</text>
<text text-anchor="middle" x="478.5" y="-107.5" font-family="Helvetica,sans-Serif" font-size="10.00">Inheritance</text>
</a>
</g>
</g>
<!-- Node377&#45;&gt;Node379 -->
<g id="edge3" class="edge"><title>Node377&#45;&gt;Node379</title>
<path fill="none" stroke="midnightblue" d="M276.771,-211.813C295.552,-194.635 337.345,-158.828 379,-139.5 386.631,-135.959 394.847,-132.904 403.162,-130.276"/>
<polygon fill="midnightblue" stroke="midnightblue" points="404.343,-133.577 412.94,-127.385 402.358,-126.864 404.343,-133.577"/>
</g>
<!-- Node380 -->
<g id="node5" class="node"><title>Node380</title>
<g id="a_node5"><a xlink:href="../../d0/d65/a00360.html#a96d4bf7bb99f48b6496cdb7457bc0e50" target="_top" xlink:title="Check the validity of a potential Statement. ">
<polygon fill="none" stroke="black" points="400.5,-149.5 400.5,-179.5 556.5,-179.5 556.5,-149.5 400.5,-149.5"/>
<text text-anchor="start" x="408.5" y="-167.5" font-family="Helvetica,sans-Serif" font-size="10.00">nars.language.Statement.invalid</text>
<text text-anchor="middle" x="478.5" y="-156.5" font-family="Helvetica,sans-Serif" font-size="10.00">Statement</text>
</a>
</g>
</g>
<!-- Node377&#45;&gt;Node380 -->
<g id="edge4" class="edge"><title>Node377&#45;&gt;Node380</title>
<path fill="none" stroke="midnightblue" d="M301.817,-211.959C331.735,-203.877 375.436,-192.072 411.766,-182.257"/>
<polygon fill="midnightblue" stroke="midnightblue" points="413.059,-185.534 421.8,-179.547 411.234,-178.776 413.059,-185.534"/>
</g>
<!-- Node388 -->
<g id="node13" class="node"><title>Node388</title>
<g id="a_node13"><a xlink:href="../../d0/d65/a00360.html#a7123aba1c8c566f291e2c9b9d147557d" target="_top" xlink:title="Default method to make the nameStr of an image term from given fields. ">
<polygon fill="none" stroke="black" points="402.5,-250.5 402.5,-280.5 554.5,-280.5 554.5,-250.5 402.5,-250.5"/>
<text text-anchor="start" x="410.5" y="-268.5" font-family="Helvetica,sans-Serif" font-size="10.00">nars.language.Statement.make</text>
<text text-anchor="middle" x="478.5" y="-257.5" font-family="Helvetica,sans-Serif" font-size="10.00">StatementName</text>
</a>
</g>
</g>
<!-- Node377&#45;&gt;Node388 -->
<g id="edge13" class="edge"><title>Node377&#45;&gt;Node388</title>
<path fill="none" stroke="midnightblue" d="M312.284,-231.047C336.57,-236.112 367.152,-242.489 395.382,-248.376"/>
<polygon fill="midnightblue" stroke="midnightblue" points="394.751,-251.819 405.255,-250.435 396.18,-244.967 394.751,-251.819"/>
</g>
<!-- Node389 -->
<g id="node14" class="node"><title>Node389</title>
<g id="a_node14"><a xlink:href="../../d4/d27/a00392.html#ac7c5d438820208253d1a2ee59bf80ddc" target="_top" xlink:title="Get a Term for a given name of a Concept or Operator. ">
<polygon fill="none" stroke="black" points="410.5,-201.5 410.5,-231.5 546.5,-231.5 546.5,-201.5 410.5,-201.5"/>
<text text-anchor="start" x="418.5" y="-219.5" font-family="Helvetica,sans-Serif" font-size="10.00">nars.storage.Memory.name</text>
<text text-anchor="middle" x="478.5" y="-208.5" font-family="Helvetica,sans-Serif" font-size="10.00">ToListedTerm</text>
</a>
</g>
</g>
<!-- Node377&#45;&gt;Node389 -->
<g id="edge14" class="edge"><title>Node377&#45;&gt;Node389</title>
<path fill="none" stroke="midnightblue" d="M343.273,-219.681C361.765,-219.243 381.532,-218.774 400.055,-218.335"/>
<polygon fill="midnightblue" stroke="midnightblue" points="400.287,-221.831 410.201,-218.095 400.121,-214.833 400.287,-221.831"/>
</g>
<!-- Node381 -->
<g id="node6" class="node"><title>Node381</title>
<g id="a_node6"><a xlink:href="../../d8/d17/a00304.html#a89000afae8017231889aaa549292d1e0" target="_top" xlink:title="Default constructor. ">
<polygon fill="none" stroke="black" points="621,-147.5 621,-177.5 774,-177.5 774,-147.5 621,-147.5"/>
<text text-anchor="start" x="629" y="-165.5" font-family="Helvetica,sans-Serif" font-size="10.00">nars.language.CompoundTerm.</text>
<text text-anchor="middle" x="697.5" y="-154.5" font-family="Helvetica,sans-Serif" font-size="10.00">CompoundTerm</text>
</a>
</g>
</g>
<!-- Node380&#45;&gt;Node381 -->
<g id="edge5" class="edge"><title>Node380&#45;&gt;Node381</title>
<path fill="none" stroke="midnightblue" d="M556.617,-163.789C574.031,-163.629 592.624,-163.457 610.382,-163.294"/>
<polygon fill="midnightblue" stroke="midnightblue" points="610.758,-166.79 620.725,-163.198 610.693,-159.791 610.758,-166.79"/>
</g>
<!-- Node382 -->
<g id="node7" class="node"><title>Node382</title>
<g id="a_node7"><a xlink:href="../../dc/d59/a00364.html#ad85f45a7858737445d5158801774ff5f" target="_top" xlink:title="Equal terms have identical name, though not necessarily the same reference. ">
<polygon fill="none" stroke="black" points="630.5,-197 630.5,-216 764.5,-216 764.5,-197 630.5,-197"/>
<text text-anchor="middle" x="697.5" y="-204" font-family="Helvetica,sans-Serif" font-size="10.00">nars.language.Term.equals</text>
</a>
</g>
</g>
<!-- Node380&#45;&gt;Node382 -->
<g id="edge6" class="edge"><title>Node380&#45;&gt;Node382</title>
<path fill="none" stroke="midnightblue" d="M556.617,-179.426C583.17,-184.565 612.467,-190.236 637.359,-195.053"/>
<polygon fill="midnightblue" stroke="midnightblue" points="636.895,-198.528 647.378,-196.993 638.225,-191.656 636.895,-198.528"/>
</g>
<!-- Node384 -->
<g id="node9" class="node"><title>Node384</title>
<g id="a_node9"><a xlink:href="../../d0/d65/a00360.html#ababe6155e2f78e769f76493317e118e0" target="_top" xlink:title="Return the second component of the statement. ">
<polygon fill="none" stroke="black" points="626.5,-98.5 626.5,-128.5 768.5,-128.5 768.5,-98.5 626.5,-98.5"/>
<text text-anchor="start" x="634.5" y="-116.5" font-family="Helvetica,sans-Serif" font-size="10.00">nars.language.Statement.get</text>
<text text-anchor="middle" x="697.5" y="-105.5" font-family="Helvetica,sans-Serif" font-size="10.00">Predicate</text>
</a>
</g>
</g>
<!-- Node380&#45;&gt;Node384 -->
<g id="edge8" class="edge"><title>Node380&#45;&gt;Node384</title>
<path fill="none" stroke="midnightblue" d="M543.433,-149.474C568.266,-143.638 596.869,-136.916 622.579,-130.873"/>
<polygon fill="midnightblue" stroke="midnightblue" points="623.715,-134.202 632.649,-128.506 622.113,-127.387 623.715,-134.202"/>
</g>
<!-- Node386 -->
<g id="node11" class="node"><title>Node386</title>
<g id="a_node11"><a xlink:href="../../d0/d65/a00360.html#ace4f80751d303c613e467163913bebf5" target="_top" xlink:title="Return the first component of the statement. ">
<polygon fill="none" stroke="black" points="626.5,-0.5 626.5,-30.5 768.5,-30.5 768.5,-0.5 626.5,-0.5"/>
<text text-anchor="start" x="634.5" y="-18.5" font-family="Helvetica,sans-Serif" font-size="10.00">nars.language.Statement.get</text>
<text text-anchor="middle" x="697.5" y="-7.5" font-family="Helvetica,sans-Serif" font-size="10.00">Subject</text>
</a>
</g>
</g>
<!-- Node380&#45;&gt;Node386 -->
<g id="edge10" class="edge"><title>Node380&#45;&gt;Node386</title>
<path fill="none" stroke="midnightblue" d="M556.98,-152.861C564.653,-149.441 571.859,-145.072 578,-139.5 612.981,-107.757 579.572,-71.8422 614,-39.5 615.271,-38.3063 616.597,-37.1716 617.972,-36.093"/>
<polygon fill="midnightblue" stroke="midnightblue" points="619.954,-38.9783 626.318,-30.5084 616.061,-33.1605 619.954,-38.9783"/>
</g>
<!-- Node387 -->
<g id="node12" class="node"><title>Node387</title>
<g id="a_node12"><a xlink:href="../../d0/d65/a00360.html#ac56b558891dd2088e0b66b437780c7b7" target="_top" xlink:title="Default constructor. ">
<polygon fill="none" stroke="black" points="633.5,-49.5 633.5,-79.5 761.5,-79.5 761.5,-49.5 633.5,-49.5"/>
<text text-anchor="start" x="641.5" y="-67.5" font-family="Helvetica,sans-Serif" font-size="10.00">nars.language.Statement.</text>
<text text-anchor="middle" x="697.5" y="-56.5" font-family="Helvetica,sans-Serif" font-size="10.00">Statement</text>
</a>
</g>
</g>
<!-- Node380&#45;&gt;Node387 -->
<g id="edge12" class="edge"><title>Node380&#45;&gt;Node387</title>
<path fill="none" stroke="midnightblue" d="M556.607,-150.713C564.172,-147.688 571.458,-143.998 578,-139.5 600.862,-123.78 591.413,-104.612 614,-88.5 617.097,-86.2911 620.395,-84.2841 623.824,-82.4607"/>
<polygon fill="midnightblue" stroke="midnightblue" points="625.611,-85.4872 633.158,-78.0504 622.621,-79.1582 625.611,-85.4872"/>
</g>
<!-- Node383 -->
<g id="node8" class="node"><title>Node383</title>
<g id="a_node8"><a xlink:href="../../dc/d59/a00364.html#a3aad4654016b8615fd4fa8a26668e1db" target="_top" xlink:title="Reporting the name of the current Term. ">
<polygon fill="none" stroke="black" points="827.5,-273 827.5,-292 973.5,-292 973.5,-273 827.5,-273"/>
<text text-anchor="middle" x="900.5" y="-280" font-family="Helvetica,sans-Serif" font-size="10.00">nars.language.Term.getName</text>
</a>
</g>
</g>
<!-- Node382&#45;&gt;Node383 -->
<g id="edge7" class="edge"><title>Node382&#45;&gt;Node383</title>
<path fill="none" stroke="midnightblue" d="M748.306,-216.091C759.21,-218.71 770.598,-221.851 781,-225.5 814.134,-237.122 850.229,-255.354 873.767,-268.059"/>
<polygon fill="midnightblue" stroke="midnightblue" points="872.286,-271.238 882.74,-272.963 875.644,-265.096 872.286,-271.238"/>
</g>
<!-- Node385 -->
<g id="node10" class="node"><title>Node385</title>
<g id="a_node10"><a xlink:href="../../d8/d17/a00304.html#a9778c35f9b602bee6ccac6a06809e546" target="_top" xlink:title="list of (direct) components ">
<polygon fill="none" stroke="black" points="817,-49.5 817,-79.5 984,-79.5 984,-49.5 817,-49.5"/>
<text text-anchor="start" x="825" y="-67.5" font-family="Helvetica,sans-Serif" font-size="10.00">nars.language.CompoundTerm.get</text>
<text text-anchor="middle" x="900.5" y="-56.5" font-family="Helvetica,sans-Serif" font-size="10.00">Components</text>
</a>
</g>
</g>
<!-- Node384&#45;&gt;Node385 -->
<g id="edge9" class="edge"><title>Node384&#45;&gt;Node385</title>
<path fill="none" stroke="midnightblue" d="M760.173,-98.4654C781.588,-93.2446 805.784,-87.3463 827.93,-81.9474"/>
<polygon fill="midnightblue" stroke="midnightblue" points="829.058,-85.2751 837.944,-79.5062 827.4,-78.4743 829.058,-85.2751"/>
</g>
<!-- Node386&#45;&gt;Node385 -->
<g id="edge11" class="edge"><title>Node386&#45;&gt;Node385</title>
<path fill="none" stroke="midnightblue" d="M760.173,-30.5346C781.588,-35.7554 805.784,-41.6537 827.93,-47.0526"/>
<polygon fill="midnightblue" stroke="midnightblue" points="827.4,-50.5257 837.944,-49.4938 829.058,-43.7249 827.4,-50.5257"/>
</g>
<!-- Node390 -->
<g id="node15" class="node"><title>Node390</title>
<g id="a_node15"><a xlink:href="../../d4/d27/a00392.html#a33af7b3d806d32c85390563fec3c6d27" target="_top" xlink:title="Concept bag. ">
<polygon fill="none" stroke="black" points="614,-311 614,-330 781,-330 781,-311 614,-311"/>
<text text-anchor="middle" x="697.5" y="-318" font-family="Helvetica,sans-Serif" font-size="10.00">nars.storage.Memory.getConcepts</text>
</a>
</g>
</g>
<!-- Node389&#45;&gt;Node390 -->
<g id="edge15" class="edge"><title>Node389&#45;&gt;Node390</title>
<path fill="none" stroke="midnightblue" d="M546.574,-225.179C557.772,-228.705 568.741,-233.631 578,-240.5 603.282,-259.257 588.6,-282.903 614,-301.5 616.527,-303.351 619.206,-305.025 621.993,-306.539"/>
<polygon fill="midnightblue" stroke="midnightblue" points="620.668,-309.783 631.209,-310.851 623.635,-303.443 620.668,-309.783"/>
</g>
<!-- Node391 -->
<g id="node16" class="node"><title>Node391</title>
<g id="a_node16"><a xlink:href="../../d6/db8/a00376.html#a011b37fc683db7fb7b41e33712a37d92" target="_top" xlink:title="Get an Item by key. ">
<polygon fill="none" stroke="black" points="644,-273 644,-292 751,-292 751,-273 644,-273"/>
<text text-anchor="middle" x="697.5" y="-280" font-family="Helvetica,sans-Serif" font-size="10.00">nars.storage.Bag.get</text>
</a>
</g>
</g>
<!-- Node389&#45;&gt;Node391 -->
<g id="edge16" class="edge"><title>Node389&#45;&gt;Node391</title>
<path fill="none" stroke="midnightblue" d="M546.701,-229.719C557.366,-232.711 568.127,-236.282 578,-240.5 595.46,-247.959 596.493,-256.151 614,-263.5 620.283,-266.137 626.995,-268.443 633.776,-270.45"/>
<polygon fill="midnightblue" stroke="midnightblue" points="633.148,-273.907 643.718,-273.18 635.002,-267.157 633.148,-273.907"/>
</g>
<!-- Node392 -->
<g id="node17" class="node"><title>Node392</title>
<g id="a_node17"><a xlink:href="../../d7/ded/a00196.html#afcd1217b7680b073fa51f0d0f159dcea" target="_top" xlink:title="The term is the unique ID of the concept. ">
<polygon fill="none" stroke="black" points="627,-235 627,-254 768,-254 768,-235 627,-235"/>
<text text-anchor="middle" x="697.5" y="-242" font-family="Helvetica,sans-Serif" font-size="10.00">nars.entity.Concept.getTerm</text>
</a>
</g>
</g>
<!-- Node389&#45;&gt;Node392 -->
<g id="edge17" class="edge"><title>Node389&#45;&gt;Node392</title>
<path fill="none" stroke="midnightblue" d="M546.674,-225.168C568.793,-228.022 593.607,-231.223 616.58,-234.188"/>
<polygon fill="midnightblue" stroke="midnightblue" points="616.277,-237.678 626.643,-235.486 617.173,-230.735 616.277,-237.678"/>
</g>
<!-- Node393&#45;&gt;Node378 -->
<g id="edge19" class="edge"><title>Node393&#45;&gt;Node378</title>
<path fill="none" stroke="midnightblue" d="M307.433,-275.006C334.477,-281.286 370.717,-289.702 402.795,-297.151"/>
<polygon fill="midnightblue" stroke="midnightblue" points="402.069,-300.576 412.601,-299.429 403.652,-293.757 402.069,-300.576"/>
</g>
<!-- Node393&#45;&gt;Node380 -->
<g id="edge22" class="edge"><title>Node393&#45;&gt;Node380</title>
<path fill="none" stroke="midnightblue" d="M311.219,-255.996C322.261,-252.318 333.605,-247.3 343,-240.5 364.891,-224.656 356.732,-206.811 379,-191.5 383.229,-188.592 387.761,-185.997 392.474,-183.68"/>
<polygon fill="midnightblue" stroke="midnightblue" points="394.014,-186.825 401.726,-179.56 391.167,-180.431 394.014,-186.825"/>
</g>
<!-- Node393&#45;&gt;Node388 -->
<g id="edge23" class="edge"><title>Node393&#45;&gt;Node388</title>
<path fill="none" stroke="midnightblue" d="M339.705,-265.5C356.62,-265.5 374.761,-265.5 392.144,-265.5"/>
<polygon fill="midnightblue" stroke="midnightblue" points="392.276,-269 402.276,-265.5 392.276,-262 392.276,-269"/>
</g>
<!-- Node393&#45;&gt;Node389 -->
<g id="edge24" class="edge"><title>Node393&#45;&gt;Node389</title>
<path fill="none" stroke="midnightblue" d="M307.433,-255.994C334.477,-249.714 370.717,-241.298 402.795,-233.849"/>
<polygon fill="midnightblue" stroke="midnightblue" points="403.652,-237.243 412.601,-231.571 402.069,-230.424 403.652,-237.243"/>
</g>
<!-- Node394 -->
<g id="node19" class="node"><title>Node394</title>
<g id="a_node19"><a xlink:href="../../dc/d59/a00364.html#ab9bc1c9cc779c07b09983b41ed8491e1" target="_top" xlink:title="Check the relative order of two Terms. ">
<polygon fill="none" stroke="black" points="401,-349 401,-368 556,-368 556,-349 401,-349"/>
<text text-anchor="middle" x="478.5" y="-356" font-family="Helvetica,sans-Serif" font-size="10.00">nars.language.Term.compareTo</text>
</a>
</g>
</g>
<!-- Node393&#45;&gt;Node394 -->
<g id="edge20" class="edge"><title>Node393&#45;&gt;Node394</title>
<path fill="none" stroke="midnightblue" d="M278.142,-275.215C297.689,-291.005 338.912,-322.117 379,-338.5 386.522,-341.574 394.566,-344.191 402.694,-346.417"/>
<polygon fill="midnightblue" stroke="midnightblue" points="402.067,-349.868 412.621,-348.941 403.792,-343.084 402.067,-349.868"/>
</g>
<!-- Node395 -->
<g id="node20" class="node"><title>Node395</title>
<g id="a_node20"><a xlink:href="../../d6/de1/a00356.html#a5d3eff893c9406991d1c3e81737a408b" target="_top" xlink:title="Constructor with partial values, called by make. ">
<polygon fill="none" stroke="black" points="416.5,-387.5 416.5,-417.5 540.5,-417.5 540.5,-387.5 416.5,-387.5"/>
<text text-anchor="start" x="424.5" y="-405.5" font-family="Helvetica,sans-Serif" font-size="10.00">nars.language.Similarity.</text>
<text text-anchor="middle" x="478.5" y="-394.5" font-family="Helvetica,sans-Serif" font-size="10.00">Similarity</text>
</a>
</g>
</g>
<!-- Node393&#45;&gt;Node395 -->
<g id="edge25" class="edge"><title>Node393&#45;&gt;Node395</title>
<path fill="none" stroke="midnightblue" d="M273.174,-275.004C288.942,-296.714 330.813,-350.174 379,-377.5 387.575,-382.363 397.099,-386.294 406.75,-389.468"/>
<polygon fill="midnightblue" stroke="midnightblue" points="405.827,-392.846 416.412,-392.397 407.857,-386.147 405.827,-392.846"/>
</g>
<!-- Node394&#45;&gt;Node383 -->
<g id="edge21" class="edge"><title>Node394&#45;&gt;Node383</title>
<path fill="none" stroke="midnightblue" d="M556.048,-361.699C617.767,-362.378 706.281,-359.028 781,-339.5 815.749,-330.418 852.542,-310.972 875.743,-297.33"/>
<polygon fill="midnightblue" stroke="midnightblue" points="877.744,-300.21 884.518,-292.064 874.142,-294.208 877.744,-300.21"/>
</g>
</g>
</svg>
        <g id="navigator" transform="translate(0 0)" fill="#404254">
                <rect fill="#f2f5e9" fill-opacity="0.5" stroke="#606060" stroke-width=".5" x="0" y="0" width="60" height="60"/>
                <use id="zoomplus" xlink:href="#zoomPlus" x="17" y="9" onmousedown="handleZoom(evt,'in')"/>
                <use id="zoomminus" xlink:href="#zoomMin" x="42" y="9" onmousedown="handleZoom(evt,'out')"/>
                <use id="reset" xlink:href="#resetDef" x="30" y="36" onmousedown="handleReset()"/>
                <g id="arrowUp" xlink:href="#dirArrow" transform="translate(30 24)" onmousedown="handlePan(0,-1)">
                  <use xlink:href="#rim" fill="#404040">
                        <set attributeName="fill" to="#808080" begin="arrowUp.mouseover" end="arrowUp.mouseout"/>
                  </use>
                  <path fill="none" stroke="white" stroke-width="1.5" d="M0,-3.0v7 M-2.5,-0.5L0,-3.0L2.5,-0.5"/>
                </g>
                <g id="arrowRight" xlink:href="#dirArrow" transform="rotate(90) translate(36 -43)" onmousedown="handlePan(1,0)">
                  <use xlink:href="#rim" fill="#404040">
                        <set attributeName="fill" to="#808080" begin="arrowRight.mouseover" end="arrowRight.mouseout"/>
                  </use>
                  <path fill="none" stroke="white" stroke-width="1.5" d="M0,-3.0v7 M-2.5,-0.5L0,-3.0L2.5,-0.5"/>
                </g>
                <g id="arrowDown" xlink:href="#dirArrow" transform="rotate(180) translate(-30 -48)" onmousedown="handlePan(0,1)">
                  <use xlink:href="#rim" fill="#404040">
                        <set attributeName="fill" to="#808080" begin="arrowDown.mouseover" end="arrowDown.mouseout"/>
                  </use>
                  <path fill="none" stroke="white" stroke-width="1.5" d="M0,-3.0v7 M-2.5,-0.5L0,-3.0L2.5,-0.5"/>
                </g>
                <g id="arrowLeft" xlink:href="#dirArrow" transform="rotate(270) translate(-36 17)" onmousedown="handlePan(-1,0)">
                  <use xlink:href="#rim" fill="#404040">
                        <set attributeName="fill" to="#808080" begin="arrowLeft.mouseover" end="arrowLeft.mouseout"/>
                  </use>
                  <path fill="none" stroke="white" stroke-width="1.5" d="M0,-3.0v7 M-2.5,-0.5L0,-3.0L2.5,-0.5"/>
                </g>
        </g>
        <svg viewBox="0 0 15 15" width="100%" height="30px" preserveAspectRatio="xMaxYMin meet">
         <g id="arrow_out" transform="scale(0.3 0.3)">
          <a xlink:href="a00360_ab839b6d67872f03e59994ba7dc30f616_cgraph_org.svg" target="_base">
           <rect id="button" ry="5" rx="5" y="6" x="6" height="38" width="38"
                fill="#f2f5e9" fill-opacity="0.5" stroke="#606060" stroke-width="1.0"/>
           <path id="arrow"
             d="M 11.500037,31.436501 C 11.940474,20.09759 22.043105,11.32322 32.158766,21.979434 L 37.068811,17.246167 C 37.068811,17.246167 37.088388,32 37.088388,32 L 22.160133,31.978069 C 22.160133,31.978069 26.997745,27.140456 26.997745,27.140456 C 18.528582,18.264221 13.291696,25.230495 11.500037,31.436501 z"
             style="fill:#404040;"/>
          </a>
         </g>
        </svg>
</svg>
