<?xml version="1.0" encoding="UTF-8" standalone="no"?>
<!DOCTYPE svg PUBLIC "-//W3C//DTD SVG 1.1//EN"
 "http://www.w3.org/Graphics/SVG/1.1/DTD/svg11.dtd">
<!-- Generated by graphviz version 2.38.0 (20140413.2041)
 -->
<!-- Title: nars.language.Statement.invalid Pages: 1 -->
<!--zoomable 225 -->
<svg id="main" version="1.1" xmlns="http://www.w3.org/2000/svg" xmlns:xlink="http://www.w3.org/1999/xlink" xml:space="preserve" onload="init(evt)">
<style type="text/css"><![CDATA[
.edge:hover path { stroke: red; }
.edge:hover polygon { stroke: red; fill: red; }
]]></style>
<script type="text/javascript"><![CDATA[
var edges = document.getElementsByTagName('g');
if (edges && edges.length) {
  for (var i=0;i<edges.length;i++) {
    if (edges[i].id.substr(0,4)=='edge') {
      edges[i].setAttribute('class','edge');
    }
  }
}
]]></script>
        <defs>
                <circle id="rim" cx="0" cy="0" r="7"/>
                <circle id="rim2" cx="0" cy="0" r="3.5"/>
                <g id="zoomPlus">
                        <use xlink:href="#rim" fill="#404040">
                                <set attributeName="fill" to="#808080" begin="zoomplus.mouseover" end="zoomplus.mouseout"/>
                        </use>
                        <path d="M-4,0h8M0,-4v8" fill="none" stroke="white" stroke-width="1.5" pointer-events="none"/>
                </g>
                <g id="zoomMin">
                        <use xlink:href="#rim" fill="#404040">
                                <set attributeName="fill" to="#808080" begin="zoomminus.mouseover" end="zoomminus.mouseout"/>
                        </use>
                        <path d="M-4,0h8" fill="none" stroke="white" stroke-width="1.5" pointer-events="none"/>
                </g>
                <g id="dirArrow">
                        <path fill="none" stroke="white" stroke-width="1.5" d="M0,-3.0v7 M-2.5,-0.5L0,-3.0L2.5,-0.5"/>
                </g>
               <g id="resetDef">
                       <use xlink:href="#rim2" fill="#404040">
                               <set attributeName="fill" to="#808080" begin="reset.mouseover" end="reset.mouseout"/>
                       </use>
               </g>
        </defs>

<script type="text/javascript">
var viewWidth = 748;
var viewHeight = 225;
var sectionId = 'dynsection-7';
</script>
<script xlink:href="../../svgpan.js"/>
<svg id="graph" class="graph">
<g id="viewport">
<title>nars.language.Statement.invalid</title>
<!-- Node208 -->
<g id="node1" class="node"><title>Node208</title>
<polygon fill="#bfbfbf" stroke="black" points="0,-143 0,-162 156,-162 156,-143 0,-143"/>
<text text-anchor="middle" x="78" y="-150" font-family="Helvetica,sans-Serif" font-size="10.00">nars.language.Statement.invalid</text>
</g>
<!-- Node209 -->
<g id="node2" class="node"><title>Node209</title>
<g id="a_node2"><a xlink:href="../../d0/d65/a00360.html#ababe6155e2f78e769f76493317e118e0" target="_top" xlink:title="Return the second component of the statement. ">
<polygon fill="none" stroke="black" points="389.5,-137.5 389.5,-167.5 531.5,-167.5 531.5,-137.5 389.5,-137.5"/>
<text text-anchor="start" x="397.5" y="-155.5" font-family="Helvetica,sans-Serif" font-size="10.00">nars.language.Statement.get</text>
<text text-anchor="middle" x="460.5" y="-144.5" font-family="Helvetica,sans-Serif" font-size="10.00">Predicate</text>
</a>
</g>
</g>
<!-- Node208&#45;&gt;Node209 -->
<g id="edge1" class="edge"><title>Node208&#45;&gt;Node209</title>
<path fill="none" stroke="midnightblue" d="M156.458,-152.5C221.223,-152.5 313.28,-152.5 378.905,-152.5"/>
<polygon fill="midnightblue" stroke="midnightblue" points="379.203,-156 389.203,-152.5 379.203,-149 379.203,-156"/>
</g>
<!-- Node211 -->
<g id="node4" class="node"><title>Node211</title>
<g id="a_node4"><a xlink:href="../../d0/d65/a00360.html#ace4f80751d303c613e467163913bebf5" target="_top" xlink:title="Return the first component of the statement. ">
<polygon fill="none" stroke="black" points="389.5,-186.5 389.5,-216.5 531.5,-216.5 531.5,-186.5 389.5,-186.5"/>
<text text-anchor="start" x="397.5" y="-204.5" font-family="Helvetica,sans-Serif" font-size="10.00">nars.language.Statement.get</text>
<text text-anchor="middle" x="460.5" y="-193.5" font-family="Helvetica,sans-Serif" font-size="10.00">Subject</text>
</a>
</g>
</g>
<!-- Node208&#45;&gt;Node211 -->
<g id="edge3" class="edge"><title>Node208&#45;&gt;Node211</title>
<path fill="none" stroke="midnightblue" d="M152.815,-162.006C217.876,-170.384 312.455,-182.564 379.348,-191.178"/>
<polygon fill="midnightblue" stroke="midnightblue" points="379.057,-194.67 389.423,-192.476 379.952,-187.727 379.057,-194.67"/>
</g>
<!-- Node212 -->
<g id="node5" class="node"><title>Node212</title>
<g id="a_node5"><a xlink:href="../../d0/d65/a00360.html#a96d4bf7bb99f48b6496cdb7457bc0e50" target="_top" xlink:title="Check the validity of a potential Statement. ">
<polygon fill="none" stroke="black" points="192,-93.5 192,-123.5 348,-123.5 348,-93.5 192,-93.5"/>
<text text-anchor="start" x="200" y="-111.5" font-family="Helvetica,sans-Serif" font-size="10.00">nars.language.Statement.invalid</text>
<text text-anchor="middle" x="270" y="-100.5" font-family="Helvetica,sans-Serif" font-size="10.00">Statement</text>
</a>
</g>
</g>
<!-- Node208&#45;&gt;Node212 -->
<g id="edge5" class="edge"><title>Node208&#45;&gt;Node212</title>
<path fill="none" stroke="midnightblue" d="M120.227,-142.953C141.81,-137.955 168.914,-131.678 194.055,-125.856"/>
<polygon fill="midnightblue" stroke="midnightblue" points="194.992,-129.231 203.945,-123.565 193.413,-122.412 194.992,-129.231"/>
</g>
<!-- Node210 -->
<g id="node3" class="node"><title>Node210</title>
<g id="a_node3"><a xlink:href="../../d8/d17/a00304.html#a9778c35f9b602bee6ccac6a06809e546" target="_top" xlink:title="list of (direct) components ">
<polygon fill="none" stroke="black" points="573,-161.5 573,-191.5 740,-191.5 740,-161.5 573,-161.5"/>
<text text-anchor="start" x="581" y="-179.5" font-family="Helvetica,sans-Serif" font-size="10.00">nars.language.CompoundTerm.get</text>
<text text-anchor="middle" x="656.5" y="-168.5" font-family="Helvetica,sans-Serif" font-size="10.00">Components</text>
</a>
</g>
</g>
<!-- Node209&#45;&gt;Node210 -->
<g id="edge2" class="edge"><title>Node209&#45;&gt;Node210</title>
<path fill="none" stroke="midnightblue" d="M531.538,-161.165C541.655,-162.416 552.196,-163.72 562.673,-165.016"/>
<polygon fill="midnightblue" stroke="midnightblue" points="562.327,-168.5 572.681,-166.254 563.187,-161.553 562.327,-168.5"/>
</g>
<!-- Node211&#45;&gt;Node210 -->
<g id="edge4" class="edge"><title>Node211&#45;&gt;Node210</title>
<path fill="none" stroke="midnightblue" d="M531.538,-192.474C541.655,-191.171 552.196,-189.812 562.673,-188.462"/>
<polygon fill="midnightblue" stroke="midnightblue" points="563.211,-191.922 572.681,-187.172 562.316,-184.979 563.211,-191.922"/>
</g>
<!-- Node212&#45;&gt;Node209 -->
<g id="edge11" class="edge"><title>Node212&#45;&gt;Node209</title>
<path fill="none" stroke="midnightblue" d="M335.344,-123.519C351.33,-127.251 368.597,-131.281 385.025,-135.116"/>
<polygon fill="midnightblue" stroke="midnightblue" points="384.593,-138.609 395.126,-137.474 386.184,-131.792 384.593,-138.609"/>
</g>
<!-- Node212&#45;&gt;Node211 -->
<g id="edge10" class="edge"><title>Node212&#45;&gt;Node211</title>
<path fill="none" stroke="midnightblue" d="M292.224,-123.608C314.317,-138.809 350.33,-162.14 384,-177.5 388.124,-179.381 392.437,-181.176 396.822,-182.875"/>
<polygon fill="midnightblue" stroke="midnightblue" points="395.899,-186.264 406.492,-186.438 398.319,-179.696 395.899,-186.264"/>
</g>
<!-- Node213 -->
<g id="node6" class="node"><title>Node213</title>
<g id="a_node6"><a xlink:href="../../dc/d59/a00364.html#ad85f45a7858737445d5158801774ff5f" target="_top" xlink:title="Equal terms have identical name, though not necessarily the same reference. ">
<polygon fill="none" stroke="black" points="393.5,-99 393.5,-118 527.5,-118 527.5,-99 393.5,-99"/>
<text text-anchor="middle" x="460.5" y="-106" font-family="Helvetica,sans-Serif" font-size="10.00">nars.language.Term.equals</text>
</a>
</g>
</g>
<!-- Node212&#45;&gt;Node213 -->
<g id="edge6" class="edge"><title>Node212&#45;&gt;Node213</title>
<path fill="none" stroke="midnightblue" d="M348.214,-108.5C359.774,-108.5 371.687,-108.5 383.227,-108.5"/>
<polygon fill="midnightblue" stroke="midnightblue" points="383.254,-112 393.254,-108.5 383.254,-105 383.254,-112"/>
</g>
<!-- Node215 -->
<g id="node8" class="node"><title>Node215</title>
<g id="a_node8"><a xlink:href="../../d8/d17/a00304.html#a89000afae8017231889aaa549292d1e0" target="_top" xlink:title="Default constructor. ">
<polygon fill="none" stroke="black" points="384,-49.5 384,-79.5 537,-79.5 537,-49.5 384,-49.5"/>
<text text-anchor="start" x="392" y="-67.5" font-family="Helvetica,sans-Serif" font-size="10.00">nars.language.CompoundTerm.</text>
<text text-anchor="middle" x="460.5" y="-56.5" font-family="Helvetica,sans-Serif" font-size="10.00">CompoundTerm</text>
</a>
</g>
</g>
<!-- Node212&#45;&gt;Node215 -->
<g id="edge8" class="edge"><title>Node212&#45;&gt;Node215</title>
<path fill="none" stroke="midnightblue" d="M335.344,-93.4808C351.33,-89.7492 368.597,-85.7186 385.025,-81.884"/>
<polygon fill="midnightblue" stroke="midnightblue" points="386.184,-85.2078 395.126,-79.5262 384.593,-78.391 386.184,-85.2078"/>
</g>
<!-- Node216 -->
<g id="node9" class="node"><title>Node216</title>
<g id="a_node9"><a xlink:href="../../d0/d65/a00360.html#ac56b558891dd2088e0b66b437780c7b7" target="_top" xlink:title="Default constructor. ">
<polygon fill="none" stroke="black" points="396.5,-0.5 396.5,-30.5 524.5,-30.5 524.5,-0.5 396.5,-0.5"/>
<text text-anchor="start" x="404.5" y="-18.5" font-family="Helvetica,sans-Serif" font-size="10.00">nars.language.Statement.</text>
<text text-anchor="middle" x="460.5" y="-7.5" font-family="Helvetica,sans-Serif" font-size="10.00">Statement</text>
</a>
</g>
</g>
<!-- Node212&#45;&gt;Node216 -->
<g id="edge9" class="edge"><title>Node212&#45;&gt;Node216</title>
<path fill="none" stroke="midnightblue" d="M292.224,-93.3918C314.317,-78.1909 350.33,-54.8597 384,-39.5 388.124,-37.6189 392.437,-35.8244 396.822,-34.1254"/>
<polygon fill="midnightblue" stroke="midnightblue" points="398.319,-37.3038 406.492,-30.5619 395.899,-30.7355 398.319,-37.3038"/>
</g>
<!-- Node214 -->
<g id="node7" class="node"><title>Node214</title>
<g id="a_node7"><a xlink:href="../../dc/d59/a00364.html#a3aad4654016b8615fd4fa8a26668e1db" target="_top" xlink:title="Reporting the name of the current Term. ">
<polygon fill="none" stroke="black" points="583.5,-99 583.5,-118 729.5,-118 729.5,-99 583.5,-99"/>
<text text-anchor="middle" x="656.5" y="-106" font-family="Helvetica,sans-Serif" font-size="10.00">nars.language.Term.getName</text>
</a>
</g>
</g>
<!-- Node213&#45;&gt;Node214 -->
<g id="edge7" class="edge"><title>Node213&#45;&gt;Node214</title>
<path fill="none" stroke="midnightblue" d="M527.721,-108.5C542.258,-108.5 557.824,-108.5 572.915,-108.5"/>
<polygon fill="midnightblue" stroke="midnightblue" points="573.267,-112 583.267,-108.5 573.267,-105 573.267,-112"/>
</g>
</g>
</svg>
        <g id="navigator" transform="translate(0 0)" fill="#404254">
                <rect fill="#f2f5e9" fill-opacity="0.5" stroke="#606060" stroke-width=".5" x="0" y="0" width="60" height="60"/>
                <use id="zoomplus" xlink:href="#zoomPlus" x="17" y="9" onmousedown="handleZoom(evt,'in')"/>
                <use id="zoomminus" xlink:href="#zoomMin" x="42" y="9" onmousedown="handleZoom(evt,'out')"/>
                <use id="reset" xlink:href="#resetDef" x="30" y="36" onmousedown="handleReset()"/>
                <g id="arrowUp" xlink:href="#dirArrow" transform="translate(30 24)" onmousedown="handlePan(0,-1)">
                  <use xlink:href="#rim" fill="#404040">
                        <set attributeName="fill" to="#808080" begin="arrowUp.mouseover" end="arrowUp.mouseout"/>
                  </use>
                  <path fill="none" stroke="white" stroke-width="1.5" d="M0,-3.0v7 M-2.5,-0.5L0,-3.0L2.5,-0.5"/>
                </g>
                <g id="arrowRight" xlink:href="#dirArrow" transform="rotate(90) translate(36 -43)" onmousedown="handlePan(1,0)">
                  <use xlink:href="#rim" fill="#404040">
                        <set attributeName="fill" to="#808080" begin="arrowRight.mouseover" end="arrowRight.mouseout"/>
                  </use>
                  <path fill="none" stroke="white" stroke-width="1.5" d="M0,-3.0v7 M-2.5,-0.5L0,-3.0L2.5,-0.5"/>
                </g>
                <g id="arrowDown" xlink:href="#dirArrow" transform="rotate(180) translate(-30 -48)" onmousedown="handlePan(0,1)">
                  <use xlink:href="#rim" fill="#404040">
                        <set attributeName="fill" to="#808080" begin="arrowDown.mouseover" end="arrowDown.mouseout"/>
                  </use>
                  <path fill="none" stroke="white" stroke-width="1.5" d="M0,-3.0v7 M-2.5,-0.5L0,-3.0L2.5,-0.5"/>
                </g>
                <g id="arrowLeft" xlink:href="#dirArrow" transform="rotate(270) translate(-36 17)" onmousedown="handlePan(-1,0)">
                  <use xlink:href="#rim" fill="#404040">
                        <set attributeName="fill" to="#808080" begin="arrowLeft.mouseover" end="arrowLeft.mouseout"/>
                  </use>
                  <path fill="none" stroke="white" stroke-width="1.5" d="M0,-3.0v7 M-2.5,-0.5L0,-3.0L2.5,-0.5"/>
                </g>
        </g>
        <svg viewBox="0 0 15 15" width="100%" height="30px" preserveAspectRatio="xMaxYMin meet">
         <g id="arrow_out" transform="scale(0.3 0.3)">
          <a xlink:href="a00360_a2e096047bde22ee7445fdc8087e9678e_cgraph_org.svg" target="_base">
           <rect id="button" ry="5" rx="5" y="6" x="6" height="38" width="38"
                fill="#f2f5e9" fill-opacity="0.5" stroke="#606060" stroke-width="1.0"/>
           <path id="arrow"
             d="M 11.500037,31.436501 C 11.940474,20.09759 22.043105,11.32322 32.158766,21.979434 L 37.068811,17.246167 C 37.068811,17.246167 37.088388,32 37.088388,32 L 22.160133,31.978069 C 22.160133,31.978069 26.997745,27.140456 26.997745,27.140456 C 18.528582,18.264221 13.291696,25.230495 11.500037,31.436501 z"
             style="fill:#404040;"/>
          </a>
         </g>
        </svg>
</svg>
