<?xml version="1.0" encoding="UTF-8" standalone="no"?>
<!DOCTYPE svg PUBLIC "-//W3C//DTD SVG 1.1//EN"
 "http://www.w3.org/Graphics/SVG/1.1/DTD/svg11.dtd">
<!-- Generated by graphviz version 2.38.0 (20140413.2041)
 -->
<!-- Title: nars.language.Statement.invalid Pages: 1 -->
<!--zoomable 63 -->
<svg id="main" version="1.1" xmlns="http://www.w3.org/2000/svg" xmlns:xlink="http://www.w3.org/1999/xlink" xml:space="preserve" onload="init(evt)">
<style type="text/css"><![CDATA[
.edge:hover path { stroke: red; }
.edge:hover polygon { stroke: red; fill: red; }
]]></style>
<script type="text/javascript"><![CDATA[
var edges = document.getElementsByTagName('g');
if (edges && edges.length) {
  for (var i=0;i<edges.length;i++) {
    if (edges[i].id.substr(0,4)=='edge') {
      edges[i].setAttribute('class','edge');
    }
  }
}
]]></script>
        <defs>
                <circle id="rim" cx="0" cy="0" r="7"/>
                <circle id="rim2" cx="0" cy="0" r="3.5"/>
                <g id="zoomPlus">
                        <use xlink:href="#rim" fill="#404040">
                                <set attributeName="fill" to="#808080" begin="zoomplus.mouseover" end="zoomplus.mouseout"/>
                        </use>
                        <path d="M-4,0h8M0,-4v8" fill="none" stroke="white" stroke-width="1.5" pointer-events="none"/>
                </g>
                <g id="zoomMin">
                        <use xlink:href="#rim" fill="#404040">
                                <set attributeName="fill" to="#808080" begin="zoomminus.mouseover" end="zoomminus.mouseout"/>
                        </use>
                        <path d="M-4,0h8" fill="none" stroke="white" stroke-width="1.5" pointer-events="none"/>
                </g>
                <g id="dirArrow">
                        <path fill="none" stroke="white" stroke-width="1.5" d="M0,-3.0v7 M-2.5,-0.5L0,-3.0L2.5,-0.5"/>
                </g>
               <g id="resetDef">
                       <use xlink:href="#rim2" fill="#404040">
                               <set attributeName="fill" to="#808080" begin="reset.mouseover" end="reset.mouseout"/>
                       </use>
               </g>
        </defs>

<script type="text/javascript">
var viewWidth = 2480;
var viewHeight = 63;
var sectionId = 'dynsection-8';
</script>
<script xlink:href="../../svgpan.js"/>
<svg id="graph" class="graph">
<g id="viewport">
<title>nars.language.Statement.invalid</title>
<!-- Node217 -->
<g id="node1" class="node"><title>Node217</title>
<polygon fill="#bfbfbf" stroke="black" points="0,-8 0,-27 156,-27 156,-8 0,-8"/>
<text text-anchor="middle" x="78" y="-15" font-family="Helvetica,sans-Serif" font-size="10.00">nars.language.Statement.invalid</text>
</g>
<!-- Node218 -->
<g id="node2" class="node"><title>Node218</title>
<g id="a_node2"><a xlink:href="../../dc/ded/a00252.html#acacd7cd6f866a576bfad37e0003df853" target="_top" xlink:title="{&lt;&lt;M &#45;&#45;&gt; S&gt; ==&gt; &lt;M &#45;&#45;&gt; P&gt;&gt;, &lt;M &#45;&#45;&gt; S&gt;} |&#45; &lt;M &#45;&#45;&gt; P&gt; {&lt;&lt;M &#45;&#45;&gt; S&gt; ==&gt; &lt;M &#45;&#45;&gt; P&gt;&gt;, &lt;M &#45;&#45;&gt; P&gt;} |&#45; &lt;M &#45;&#45;&gt; ...">
<polygon fill="none" stroke="black" points="192,-8 192,-27 377,-27 377,-8 192,-8"/>
<text text-anchor="middle" x="284.5" y="-15" font-family="Helvetica,sans-Serif" font-size="10.00">nars.inference.RuleTables.detachment</text>
</a>
</g>
</g>
<!-- Node217&#45;&gt;Node218 -->
<g id="edge1" class="edge"><title>Node217&#45;&gt;Node218</title>
<path fill="none" stroke="midnightblue" d="M166.235,-17.5C174.679,-17.5 183.262,-17.5 191.748,-17.5"/>
<polygon fill="midnightblue" stroke="midnightblue" points="166.021,-14.0001 156.021,-17.5 166.021,-21.0001 166.021,-14.0001"/>
</g>
<!-- Node219 -->
<g id="node3" class="node"><title>Node219</title>
<g id="a_node3"><a xlink:href="../../dc/ded/a00252.html#af6c973743270b2739d4ad25f16975da1" target="_top" xlink:title="The detachment rule, with variable unification. ">
<polygon fill="none" stroke="black" points="413,-24.5 413,-54.5 598,-54.5 598,-24.5 413,-24.5"/>
<text text-anchor="start" x="421" y="-42.5" font-family="Helvetica,sans-Serif" font-size="10.00">nars.inference.RuleTables.detachment</text>
<text text-anchor="middle" x="505.5" y="-31.5" font-family="Helvetica,sans-Serif" font-size="10.00">WithVar</text>
</a>
</g>
</g>
<!-- Node218&#45;&gt;Node219 -->
<g id="edge2" class="edge"><title>Node218&#45;&gt;Node219</title>
<path fill="none" stroke="midnightblue" d="M387.151,-27.7115C395.743,-28.5746 404.4,-29.4442 412.908,-30.299"/>
<polygon fill="midnightblue" stroke="midnightblue" points="387.407,-24.2197 377.107,-26.7025 386.707,-31.1846 387.407,-24.2197"/>
</g>
<!-- Node221 -->
<g id="node5" class="node"><title>Node221</title>
<g id="a_node5"><a xlink:href="../../dc/ded/a00252.html#ac2d01dfdc40bdd47c757cb549217e6e3" target="_top" xlink:title="Entry point of the inference engine. ">
<polygon fill="none" stroke="black" points="850,-6 850,-25 1013,-25 1013,-6 850,-6"/>
<text text-anchor="middle" x="931.5" y="-13" font-family="Helvetica,sans-Serif" font-size="10.00">nars.inference.RuleTables.reason</text>
</a>
</g>
</g>
<!-- Node218&#45;&gt;Node221 -->
<g id="edge13" class="edge"><title>Node218&#45;&gt;Node221</title>
<path fill="none" stroke="midnightblue" d="M387.287,-14.8906C395.984,-14.7328 404.646,-14.5983 413,-14.5 567.521,-12.6824 748.012,-13.7586 849.823,-14.6606"/>
<polygon fill="midnightblue" stroke="midnightblue" points="387.009,-11.3952 377.078,-15.086 387.143,-18.3939 387.009,-11.3952"/>
</g>
<!-- Node220 -->
<g id="node4" class="node"><title>Node220</title>
<g id="a_node4"><a xlink:href="../../dc/ded/a00252.html#a8628d400a8ceda7fea05039ddfea319b" target="_top" xlink:title="Meta&#45;table of syllogistic rules, indexed by the content classes of the taskSentence and the belief...">
<polygon fill="none" stroke="black" points="634,-27 634,-46 814,-46 814,-27 634,-27"/>
<text text-anchor="middle" x="724" y="-34" font-family="Helvetica,sans-Serif" font-size="10.00">nars.inference.RuleTables.syllogisms</text>
</a>
</g>
</g>
<!-- Node219&#45;&gt;Node220 -->
<g id="edge3" class="edge"><title>Node219&#45;&gt;Node220</title>
<path fill="none" stroke="midnightblue" d="M608.084,-38.0924C616.705,-37.9729 625.383,-37.8527 633.898,-37.7347"/>
<polygon fill="midnightblue" stroke="midnightblue" points="607.952,-34.5938 598.002,-38.2321 608.049,-41.5931 607.952,-34.5938"/>
</g>
<!-- Node220&#45;&gt;Node221 -->
<g id="edge4" class="edge"><title>Node220&#45;&gt;Node221</title>
<path fill="none" stroke="midnightblue" d="M824.244,-26.3583C832.792,-25.4848 841.372,-24.608 849.747,-23.7521"/>
<polygon fill="midnightblue" stroke="midnightblue" points="823.831,-22.8822 814.239,-27.3807 824.543,-29.8459 823.831,-22.8822"/>
</g>
<!-- Node222 -->
<g id="node6" class="node"><title>Node222</title>
<g id="a_node6"><a xlink:href="../../d7/ded/a00196.html#ad6fb91dda799c3092ecb186ef24ca92a" target="_top" xlink:title="An atomic step in a concept, only called in Memory# processConcept. ">
<polygon fill="none" stroke="black" points="1049,-0.5 1049,-30.5 1168,-30.5 1168,-0.5 1049,-0.5"/>
<text text-anchor="start" x="1057" y="-18.5" font-family="Helvetica,sans-Serif" font-size="10.00">nars.entity.Concept.fire</text>
<text text-anchor="middle" x="1108.5" y="-7.5" font-family="Helvetica,sans-Serif" font-size="10.00">FromProcessConcept</text>
</a>
</g>
</g>
<!-- Node221&#45;&gt;Node222 -->
<g id="edge5" class="edge"><title>Node221&#45;&gt;Node222</title>
<path fill="none" stroke="midnightblue" d="M1023.25,-15.5C1031.91,-15.5 1040.52,-15.5 1048.76,-15.5"/>
<polygon fill="midnightblue" stroke="midnightblue" points="1023.09,-12.0001 1013.09,-15.5 1023.08,-19.0001 1023.09,-12.0001"/>
</g>
<!-- Node223 -->
<g id="node7" class="node"><title>Node223</title>
<g id="a_node7"><a xlink:href="../../d4/d27/a00392.html#a0acc4adbf6a2462245da46bcb529746c" target="_top" xlink:title="Select a concept to fireFromProcessConcept. ">
<polygon fill="none" stroke="black" points="1204,-0.5 1204,-30.5 1350,-30.5 1350,-0.5 1204,-0.5"/>
<text text-anchor="start" x="1212" y="-18.5" font-family="Helvetica,sans-Serif" font-size="10.00">nars.storage.Memory.process</text>
<text text-anchor="middle" x="1277" y="-7.5" font-family="Helvetica,sans-Serif" font-size="10.00">Concept</text>
</a>
</g>
</g>
<!-- Node222&#45;&gt;Node223 -->
<g id="edge6" class="edge"><title>Node222&#45;&gt;Node223</title>
<path fill="none" stroke="midnightblue" d="M1178.34,-15.5C1186.75,-15.5 1195.36,-15.5 1203.82,-15.5"/>
<polygon fill="midnightblue" stroke="midnightblue" points="1178.2,-12.0001 1168.2,-15.5 1178.2,-19.0001 1178.2,-12.0001"/>
</g>
<!-- Node224 -->
<g id="node8" class="node"><title>Node224</title>
<g id="a_node8"><a xlink:href="../../d4/d27/a00392.html#a59ae339d666409988d90d29be4f73a91" target="_top" xlink:title="An atomic working workCycle of the system: process new Tasks, then fireFromProcessConcept a concept...">
<polygon fill="none" stroke="black" points="1386,-0.5 1386,-30.5 1519,-30.5 1519,-0.5 1386,-0.5"/>
<text text-anchor="start" x="1394" y="-18.5" font-family="Helvetica,sans-Serif" font-size="10.00">nars.storage.Memory.work</text>
<text text-anchor="middle" x="1452.5" y="-7.5" font-family="Helvetica,sans-Serif" font-size="10.00">Cycle</text>
</a>
</g>
</g>
<!-- Node223&#45;&gt;Node224 -->
<g id="edge7" class="edge"><title>Node223&#45;&gt;Node224</title>
<path fill="none" stroke="midnightblue" d="M1360.12,-15.5C1368.72,-15.5 1377.37,-15.5 1385.76,-15.5"/>
<polygon fill="midnightblue" stroke="midnightblue" points="1360.07,-12.0001 1350.07,-15.5 1360.07,-19.0001 1360.07,-12.0001"/>
</g>
<!-- Node225 -->
<g id="node9" class="node"><title>Node225</title>
<g id="a_node9"><a xlink:href="../../df/d15/a00416.html#a0d5c797dc17d9e8d0998852915e0f303" target="_top" xlink:title="nars.storage.ReasonerBatch.doTick">
<polygon fill="none" stroke="black" points="1555,-6 1555,-25 1728,-25 1728,-6 1555,-6"/>
<text text-anchor="middle" x="1641.5" y="-13" font-family="Helvetica,sans-Serif" font-size="10.00">nars.storage.ReasonerBatch.doTick</text>
</a>
</g>
</g>
<!-- Node224&#45;&gt;Node225 -->
<g id="edge8" class="edge"><title>Node224&#45;&gt;Node225</title>
<path fill="none" stroke="midnightblue" d="M1529.34,-15.5C1537.78,-15.5 1546.42,-15.5 1554.97,-15.5"/>
<polygon fill="midnightblue" stroke="midnightblue" points="1529.17,-12.0001 1519.17,-15.5 1529.17,-19.0001 1529.17,-12.0001"/>
</g>
<!-- Node226 -->
<g id="node10" class="node"><title>Node226</title>
<g id="a_node10"><a xlink:href="../../df/d15/a00416.html#a3468aa0f99edcd66412f27922dddb880" target="_top" xlink:title="A clock tick. ">
<polygon fill="none" stroke="black" points="1764,-6 1764,-25 1924,-25 1924,-6 1764,-6"/>
<text text-anchor="middle" x="1844" y="-13" font-family="Helvetica,sans-Serif" font-size="10.00">nars.storage.ReasonerBatch.tick</text>
</a>
</g>
</g>
<!-- Node225&#45;&gt;Node226 -->
<g id="edge9" class="edge"><title>Node225&#45;&gt;Node226</title>
<path fill="none" stroke="midnightblue" d="M1738.13,-15.5C1746.7,-15.5 1755.31,-15.5 1763.71,-15.5"/>
<polygon fill="midnightblue" stroke="midnightblue" points="1738.11,-12.0001 1728.11,-15.5 1738.11,-19.0001 1738.11,-12.0001"/>
</g>
<!-- Node227 -->
<g id="node11" class="node"><title>Node227</title>
<g id="a_node11"><a xlink:href="../../d9/da1/a00396.html#a5d9cfe517bcfbe41e5251910bcd119c1" target="_top" xlink:title="Run to completion: repeatedly execute NARS working cycle, until Inputs are Finished, or 1000 steps. ">
<polygon fill="none" stroke="black" points="1960,-6 1960,-25 2104,-25 2104,-6 1960,-6"/>
<text text-anchor="middle" x="2032" y="-13" font-family="Helvetica,sans-Serif" font-size="10.00">nars.storage.NARSBatch.run</text>
</a>
</g>
</g>
<!-- Node226&#45;&gt;Node227 -->
<g id="edge10" class="edge"><title>Node226&#45;&gt;Node227</title>
<path fill="none" stroke="midnightblue" d="M1934.22,-15.5C1942.82,-15.5 1951.47,-15.5 1959.87,-15.5"/>
<polygon fill="midnightblue" stroke="midnightblue" points="1934.15,-12.0001 1924.15,-15.5 1934.15,-19.0001 1934.15,-12.0001"/>
</g>
<!-- Node228 -->
<g id="node12" class="node"><title>Node228</title>
<g id="a_node12"><a xlink:href="../../d9/da1/a00396.html#a7c307c6b842f82664de6b0e52bdf8efc" target="_top" xlink:title="non&#45;static equivalent to main(String[]) : run to completion from an input file ">
<polygon fill="none" stroke="black" points="2140,-0.5 2140,-30.5 2284,-30.5 2284,-0.5 2140,-0.5"/>
<text text-anchor="start" x="2148" y="-18.5" font-family="Helvetica,sans-Serif" font-size="10.00">nars.storage.NARSBatch.run</text>
<text text-anchor="middle" x="2212" y="-7.5" font-family="Helvetica,sans-Serif" font-size="10.00">Inference</text>
</a>
</g>
</g>
<!-- Node227&#45;&gt;Node228 -->
<g id="edge11" class="edge"><title>Node227&#45;&gt;Node228</title>
<path fill="none" stroke="midnightblue" d="M2114.17,-15.5C2122.79,-15.5 2131.51,-15.5 2140,-15.5"/>
<polygon fill="midnightblue" stroke="midnightblue" points="2114.12,-12.0001 2104.12,-15.5 2114.12,-19.0001 2114.12,-12.0001"/>
</g>
<!-- Node229 -->
<g id="node13" class="node"><title>Node229</title>
<g id="a_node13"><a xlink:href="../../d9/da1/a00396.html#abafc597289bc2f6453b5cd0dd6634e54" target="_top" xlink:title="The entry point of the standalone application. ">
<polygon fill="none" stroke="black" points="2320,-6 2320,-25 2472,-25 2472,-6 2320,-6"/>
<text text-anchor="middle" x="2396" y="-13" font-family="Helvetica,sans-Serif" font-size="10.00">nars.storage.NARSBatch.main</text>
</a>
</g>
</g>
<!-- Node228&#45;&gt;Node229 -->
<g id="edge12" class="edge"><title>Node228&#45;&gt;Node229</title>
<path fill="none" stroke="midnightblue" d="M2294.17,-15.5C2302.76,-15.5 2311.48,-15.5 2320,-15.5"/>
<polygon fill="midnightblue" stroke="midnightblue" points="2294.15,-12.0001 2284.15,-15.5 2294.15,-19.0001 2294.15,-12.0001"/>
</g>
</g>
</svg>
        <g id="navigator" transform="translate(0 0)" fill="#404254">
                <rect fill="#f2f5e9" fill-opacity="0.5" stroke="#606060" stroke-width=".5" x="0" y="0" width="60" height="60"/>
                <use id="zoomplus" xlink:href="#zoomPlus" x="17" y="9" onmousedown="handleZoom(evt,'in')"/>
                <use id="zoomminus" xlink:href="#zoomMin" x="42" y="9" onmousedown="handleZoom(evt,'out')"/>
                <use id="reset" xlink:href="#resetDef" x="30" y="36" onmousedown="handleReset()"/>
                <g id="arrowUp" xlink:href="#dirArrow" transform="translate(30 24)" onmousedown="handlePan(0,-1)">
                  <use xlink:href="#rim" fill="#404040">
                        <set attributeName="fill" to="#808080" begin="arrowUp.mouseover" end="arrowUp.mouseout"/>
                  </use>
                  <path fill="none" stroke="white" stroke-width="1.5" d="M0,-3.0v7 M-2.5,-0.5L0,-3.0L2.5,-0.5"/>
                </g>
                <g id="arrowRight" xlink:href="#dirArrow" transform="rotate(90) translate(36 -43)" onmousedown="handlePan(1,0)">
                  <use xlink:href="#rim" fill="#404040">
                        <set attributeName="fill" to="#808080" begin="arrowRight.mouseover" end="arrowRight.mouseout"/>
                  </use>
                  <path fill="none" stroke="white" stroke-width="1.5" d="M0,-3.0v7 M-2.5,-0.5L0,-3.0L2.5,-0.5"/>
                </g>
                <g id="arrowDown" xlink:href="#dirArrow" transform="rotate(180) translate(-30 -48)" onmousedown="handlePan(0,1)">
                  <use xlink:href="#rim" fill="#404040">
                        <set attributeName="fill" to="#808080" begin="arrowDown.mouseover" end="arrowDown.mouseout"/>
                  </use>
                  <path fill="none" stroke="white" stroke-width="1.5" d="M0,-3.0v7 M-2.5,-0.5L0,-3.0L2.5,-0.5"/>
                </g>
                <g id="arrowLeft" xlink:href="#dirArrow" transform="rotate(270) translate(-36 17)" onmousedown="handlePan(-1,0)">
                  <use xlink:href="#rim" fill="#404040">
                        <set attributeName="fill" to="#808080" begin="arrowLeft.mouseover" end="arrowLeft.mouseout"/>
                  </use>
                  <path fill="none" stroke="white" stroke-width="1.5" d="M0,-3.0v7 M-2.5,-0.5L0,-3.0L2.5,-0.5"/>
                </g>
        </g>
        <svg viewBox="0 0 15 15" width="100%" height="30px" preserveAspectRatio="xMaxYMin meet">
         <g id="arrow_out" transform="scale(0.3 0.3)">
          <a xlink:href="a00360_a2e096047bde22ee7445fdc8087e9678e_icgraph_org.svg" target="_base">
           <rect id="button" ry="5" rx="5" y="6" x="6" height="38" width="38"
                fill="#f2f5e9" fill-opacity="0.5" stroke="#606060" stroke-width="1.0"/>
           <path id="arrow"
             d="M 11.500037,31.436501 C 11.940474,20.09759 22.043105,11.32322 32.158766,21.979434 L 37.068811,17.246167 C 37.068811,17.246167 37.088388,32 37.088388,32 L 22.160133,31.978069 C 22.160133,31.978069 26.997745,27.140456 26.997745,27.140456 C 18.528582,18.264221 13.291696,25.230495 11.500037,31.436501 z"
             style="fill:#404040;"/>
          </a>
         </g>
        </svg>
</svg>
