<?xml version="1.0" encoding="UTF-8" standalone="no"?>
<!DOCTYPE svg PUBLIC "-//W3C//DTD SVG 1.1//EN"
 "http://www.w3.org/Graphics/SVG/1.1/DTD/svg11.dtd">
<!-- Generated by graphviz version 2.38.0 (20140413.2041)
 -->
<!-- Title: nars.language.Statement.make Pages: 1 -->
<svg width="1210pt" height="424pt"
 viewBox="0.00 0.00 1210.00 424.00" xmlns="http://www.w3.org/2000/svg" xmlns:xlink="http://www.w3.org/1999/xlink">
<g id="graph0" class="graph" transform="scale(1 1) rotate(0) translate(4 420)">
<title>nars.language.Statement.make</title>
<!-- Node302 -->
<g id="node1" class="node"><title>Node302</title>
<polygon fill="#bfbfbf" stroke="black" points="0,-181 0,-200 152,-200 152,-181 0,-181"/>
<text text-anchor="middle" x="76" y="-188" font-family="Helvetica,sans-Serif" font-size="10.00">nars.language.Statement.make</text>
</g>
<!-- Node302&#45;&gt;Node302 -->
<g id="edge37" class="edge"><title>Node302&#45;&gt;Node302</title>
<path fill="none" stroke="midnightblue" d="M44.8659,-200.257C29.7196,-209.065 40.0977,-218.5 76,-218.5 101.244,-218.5 113.869,-213.836 113.875,-208.004"/>
<polygon fill="midnightblue" stroke="midnightblue" points="116.339,-205.504 107.134,-200.257 111.058,-210.099 116.339,-205.504"/>
</g>
<!-- Node303 -->
<g id="node2" class="node"><title>Node303</title>
<g id="a_node2"><a xlink:href="../../d0/d65/a00360.html#a96d4bf7bb99f48b6496cdb7457bc0e50" target="_top" xlink:title="Check the validity of a potential Statement. ">
<polygon fill="none" stroke="black" points="618.5,-238.5 618.5,-268.5 774.5,-268.5 774.5,-238.5 618.5,-238.5"/>
<text text-anchor="start" x="626.5" y="-256.5" font-family="Helvetica,sans-Serif" font-size="10.00">nars.language.Statement.invalid</text>
<text text-anchor="middle" x="696.5" y="-245.5" font-family="Helvetica,sans-Serif" font-size="10.00">Statement</text>
</a>
</g>
</g>
<!-- Node302&#45;&gt;Node303 -->
<g id="edge1" class="edge"><title>Node302&#45;&gt;Node303</title>
<path fill="none" stroke="midnightblue" d="M86.5924,-200.16C104.572,-217.496 145.387,-253.309 188,-266.5 335.075,-312.026 517.732,-289.369 618.932,-270.382"/>
<polygon fill="midnightblue" stroke="midnightblue" points="619.603,-273.817 628.767,-268.5 618.287,-266.942 619.603,-273.817"/>
</g>
<!-- Node311 -->
<g id="node10" class="node"><title>Node311</title>
<g id="a_node10"><a xlink:href="../../dd/de2/a00320.html#a94badab1e9fc19ebe33b06fcbb169453" target="_top" xlink:title="Try to make a new compound from two components. ">
<polygon fill="none" stroke="black" points="206.5,-238 206.5,-257 351.5,-257 351.5,-238 206.5,-238"/>
<text text-anchor="middle" x="279" y="-245" font-family="Helvetica,sans-Serif" font-size="10.00">nars.language.Instance.make</text>
</a>
</g>
</g>
<!-- Node302&#45;&gt;Node311 -->
<g id="edge10" class="edge"><title>Node302&#45;&gt;Node311</title>
<path fill="none" stroke="midnightblue" d="M102.295,-200.146C124.617,-208.419 158.152,-220.273 188,-228.5 197.468,-231.11 207.581,-233.562 217.483,-235.782"/>
<polygon fill="midnightblue" stroke="midnightblue" points="216.766,-239.208 227.283,-237.922 218.259,-232.369 216.766,-239.208"/>
</g>
<!-- Node312 -->
<g id="node11" class="node"><title>Node312</title>
<g id="a_node11"><a xlink:href="../../d3/db8/a00316.html#a5ccaf18d33e722f438944debb2757b34" target="_top" xlink:title="Try to make a new compound from two components. ">
<polygon fill="none" stroke="black" points="406,-192 406,-211 561,-211 561,-192 406,-192"/>
<text text-anchor="middle" x="483.5" y="-199" font-family="Helvetica,sans-Serif" font-size="10.00">nars.language.Inheritance.make</text>
</a>
</g>
</g>
<!-- Node302&#45;&gt;Node312 -->
<g id="edge36" class="edge"><title>Node302&#45;&gt;Node312</title>
<path fill="none" stroke="midnightblue" d="M152.018,-188.49C211.243,-187.389 295.948,-186.888 370,-190.5 378.312,-190.905 386.957,-191.478 395.597,-192.152"/>
<polygon fill="midnightblue" stroke="midnightblue" points="395.464,-195.653 405.717,-192.986 396.038,-188.677 395.464,-195.653"/>
</g>
<!-- Node321 -->
<g id="node20" class="node"><title>Node321</title>
<g id="a_node20"><a xlink:href="../../d8/d8e/a00344.html#a808d99e39dfc525841db6b645d118979" target="_top" xlink:title="Try to make a new compound from two components. ">
<polygon fill="none" stroke="black" points="207,-124 207,-143 351,-143 351,-124 207,-124"/>
<text text-anchor="middle" x="279" y="-131" font-family="Helvetica,sans-Serif" font-size="10.00">nars.language.Property.make</text>
</a>
</g>
</g>
<!-- Node302&#45;&gt;Node321 -->
<g id="edge21" class="edge"><title>Node302&#45;&gt;Node321</title>
<path fill="none" stroke="midnightblue" d="M108.509,-180.873C130.69,-174.16 161.103,-165.083 188,-157.5 202.027,-153.545 217.333,-149.401 231.277,-145.69"/>
<polygon fill="midnightblue" stroke="midnightblue" points="232.383,-149.018 241.153,-143.073 230.59,-142.251 232.383,-149.018"/>
</g>
<!-- Node323 -->
<g id="node22" class="node"><title>Node323</title>
<g id="a_node22"><a xlink:href="../../d4/d8f/a00324.html#a429b8b61ed41ea338c8fc668fb8304f7" target="_top" xlink:title="Try to make a new compound from two components. ">
<polygon fill="none" stroke="black" points="188,-200 188,-219 370,-219 370,-200 188,-200"/>
<text text-anchor="middle" x="279" y="-207" font-family="Helvetica,sans-Serif" font-size="10.00">nars.language.InstanceProperty.make</text>
</a>
</g>
</g>
<!-- Node302&#45;&gt;Node323 -->
<g id="edge24" class="edge"><title>Node302&#45;&gt;Node323</title>
<path fill="none" stroke="midnightblue" d="M152.131,-197.602C160.466,-198.39 169.05,-199.201 177.633,-200.013"/>
<polygon fill="midnightblue" stroke="midnightblue" points="177.408,-203.507 187.693,-200.964 178.067,-196.538 177.408,-203.507"/>
</g>
<!-- Node324 -->
<g id="node23" class="node"><title>Node324</title>
<g id="a_node23"><a xlink:href="../../d6/de1/a00356.html#ae72436d78c25d4735b4201d773dd1901" target="_top" xlink:title="Try to make a new compound from two components. ">
<polygon fill="none" stroke="black" points="409.5,-94 409.5,-113 557.5,-113 557.5,-94 409.5,-94"/>
<text text-anchor="middle" x="483.5" y="-101" font-family="Helvetica,sans-Serif" font-size="10.00">nars.language.Similarity.make</text>
</a>
</g>
</g>
<!-- Node302&#45;&gt;Node324 -->
<g id="edge28" class="edge"><title>Node302&#45;&gt;Node324</title>
<path fill="none" stroke="midnightblue" d="M86.6415,-180.994C104.7,-163.907 145.64,-128.484 188,-114.5 256.548,-91.8711 338.99,-90.8438 399.191,-94.481"/>
<polygon fill="midnightblue" stroke="midnightblue" points="399.199,-97.9891 409.408,-95.1558 399.661,-91.0043 399.199,-97.9891"/>
</g>
<!-- Node304 -->
<g id="node3" class="node"><title>Node304</title>
<g id="a_node3"><a xlink:href="../../d8/d17/a00304.html#a89000afae8017231889aaa549292d1e0" target="_top" xlink:title="Default constructor. ">
<polygon fill="none" stroke="black" points="839,-336.5 839,-366.5 992,-366.5 992,-336.5 839,-336.5"/>
<text text-anchor="start" x="847" y="-354.5" font-family="Helvetica,sans-Serif" font-size="10.00">nars.language.CompoundTerm.</text>
<text text-anchor="middle" x="915.5" y="-343.5" font-family="Helvetica,sans-Serif" font-size="10.00">CompoundTerm</text>
</a>
</g>
</g>
<!-- Node303&#45;&gt;Node304 -->
<g id="edge2" class="edge"><title>Node303&#45;&gt;Node304</title>
<path fill="none" stroke="midnightblue" d="M774.509,-266.581C782.093,-269.515 789.41,-273.106 796,-277.5 818.484,-292.492 809.939,-310.893 832,-326.5 834.835,-328.506 837.834,-330.353 840.943,-332.054"/>
<polygon fill="midnightblue" stroke="midnightblue" points="839.437,-335.214 849.956,-336.473 842.518,-328.928 839.437,-335.214"/>
</g>
<!-- Node305 -->
<g id="node4" class="node"><title>Node305</title>
<g id="a_node4"><a xlink:href="../../dc/d59/a00364.html#ad85f45a7858737445d5158801774ff5f" target="_top" xlink:title="Equal terms have identical name, though not necessarily the same reference. ">
<polygon fill="none" stroke="black" points="848.5,-200 848.5,-219 982.5,-219 982.5,-200 848.5,-200"/>
<text text-anchor="middle" x="915.5" y="-207" font-family="Helvetica,sans-Serif" font-size="10.00">nars.language.Term.equals</text>
</a>
</g>
</g>
<!-- Node303&#45;&gt;Node305 -->
<g id="edge3" class="edge"><title>Node303&#45;&gt;Node305</title>
<path fill="none" stroke="midnightblue" d="M771.572,-238.481C799.77,-232.763 831.428,-226.344 857.77,-221.003"/>
<polygon fill="midnightblue" stroke="midnightblue" points="858.481,-224.43 867.586,-219.012 857.09,-217.57 858.481,-224.43"/>
</g>
<!-- Node307 -->
<g id="node6" class="node"><title>Node307</title>
<g id="a_node6"><a xlink:href="../../d0/d65/a00360.html#ababe6155e2f78e769f76493317e118e0" target="_top" xlink:title="Return the second component of the statement. ">
<polygon fill="none" stroke="black" points="844.5,-238.5 844.5,-268.5 986.5,-268.5 986.5,-238.5 844.5,-238.5"/>
<text text-anchor="start" x="852.5" y="-256.5" font-family="Helvetica,sans-Serif" font-size="10.00">nars.language.Statement.get</text>
<text text-anchor="middle" x="915.5" y="-245.5" font-family="Helvetica,sans-Serif" font-size="10.00">Predicate</text>
</a>
</g>
</g>
<!-- Node303&#45;&gt;Node307 -->
<g id="edge5" class="edge"><title>Node303&#45;&gt;Node307</title>
<path fill="none" stroke="midnightblue" d="M774.617,-253.5C793.912,-253.5 814.656,-253.5 834.106,-253.5"/>
<polygon fill="midnightblue" stroke="midnightblue" points="834.145,-257 844.145,-253.5 834.145,-250 834.145,-257"/>
</g>
<!-- Node309 -->
<g id="node8" class="node"><title>Node309</title>
<g id="a_node8"><a xlink:href="../../d0/d65/a00360.html#ace4f80751d303c613e467163913bebf5" target="_top" xlink:title="Return the first component of the statement. ">
<polygon fill="none" stroke="black" points="844.5,-287.5 844.5,-317.5 986.5,-317.5 986.5,-287.5 844.5,-287.5"/>
<text text-anchor="start" x="852.5" y="-305.5" font-family="Helvetica,sans-Serif" font-size="10.00">nars.language.Statement.get</text>
<text text-anchor="middle" x="915.5" y="-294.5" font-family="Helvetica,sans-Serif" font-size="10.00">Subject</text>
</a>
</g>
</g>
<!-- Node303&#45;&gt;Node309 -->
<g id="edge7" class="edge"><title>Node303&#45;&gt;Node309</title>
<path fill="none" stroke="midnightblue" d="M764.082,-268.535C787.515,-273.826 814.03,-279.813 838.201,-285.271"/>
<polygon fill="midnightblue" stroke="midnightblue" points="837.519,-288.705 848.044,-287.494 839.061,-281.877 837.519,-288.705"/>
</g>
<!-- Node310 -->
<g id="node9" class="node"><title>Node310</title>
<g id="a_node9"><a xlink:href="../../d0/d65/a00360.html#ac56b558891dd2088e0b66b437780c7b7" target="_top" xlink:title="Default constructor. ">
<polygon fill="none" stroke="black" points="851.5,-385.5 851.5,-415.5 979.5,-415.5 979.5,-385.5 851.5,-385.5"/>
<text text-anchor="start" x="859.5" y="-403.5" font-family="Helvetica,sans-Serif" font-size="10.00">nars.language.Statement.</text>
<text text-anchor="middle" x="915.5" y="-392.5" font-family="Helvetica,sans-Serif" font-size="10.00">Statement</text>
</a>
</g>
</g>
<!-- Node303&#45;&gt;Node310 -->
<g id="edge9" class="edge"><title>Node303&#45;&gt;Node310</title>
<path fill="none" stroke="midnightblue" d="M774.92,-264.353C782.604,-267.695 789.829,-271.99 796,-277.5 830.612,-308.405 798.255,-343.651 832,-375.5 835.122,-378.447 838.581,-381.047 842.261,-383.342"/>
<polygon fill="midnightblue" stroke="midnightblue" points="840.734,-386.494 851.197,-388.16 844.056,-380.333 840.734,-386.494"/>
</g>
<!-- Node306 -->
<g id="node5" class="node"><title>Node306</title>
<g id="a_node5"><a xlink:href="../../dc/d59/a00364.html#a3aad4654016b8615fd4fa8a26668e1db" target="_top" xlink:title="Reporting the name of the current Term. ">
<polygon fill="none" stroke="black" points="1045.5,-124 1045.5,-143 1191.5,-143 1191.5,-124 1045.5,-124"/>
<text text-anchor="middle" x="1118.5" y="-131" font-family="Helvetica,sans-Serif" font-size="10.00">nars.language.Term.getName</text>
</a>
</g>
</g>
<!-- Node305&#45;&gt;Node306 -->
<g id="edge4" class="edge"><title>Node305&#45;&gt;Node306</title>
<path fill="none" stroke="midnightblue" d="M966.306,-199.909C977.21,-197.29 988.598,-194.149 999,-190.5 1032.13,-178.878 1068.23,-160.646 1091.77,-147.941"/>
<polygon fill="midnightblue" stroke="midnightblue" points="1093.64,-150.904 1100.74,-143.037 1090.29,-144.762 1093.64,-150.904"/>
</g>
<!-- Node308 -->
<g id="node7" class="node"><title>Node308</title>
<g id="a_node7"><a xlink:href="../../d8/d17/a00304.html#a9778c35f9b602bee6ccac6a06809e546" target="_top" xlink:title="list of (direct) components ">
<polygon fill="none" stroke="black" points="1035,-262.5 1035,-292.5 1202,-292.5 1202,-262.5 1035,-262.5"/>
<text text-anchor="start" x="1043" y="-280.5" font-family="Helvetica,sans-Serif" font-size="10.00">nars.language.CompoundTerm.get</text>
<text text-anchor="middle" x="1118.5" y="-269.5" font-family="Helvetica,sans-Serif" font-size="10.00">Components</text>
</a>
</g>
</g>
<!-- Node307&#45;&gt;Node308 -->
<g id="edge6" class="edge"><title>Node307&#45;&gt;Node308</title>
<path fill="none" stroke="midnightblue" d="M986.518,-261.86C998.855,-263.333 1011.87,-264.887 1024.71,-266.421"/>
<polygon fill="midnightblue" stroke="midnightblue" points="1024.62,-269.934 1034.96,-267.645 1025.45,-262.984 1024.62,-269.934"/>
</g>
<!-- Node309&#45;&gt;Node308 -->
<g id="edge8" class="edge"><title>Node309&#45;&gt;Node308</title>
<path fill="none" stroke="midnightblue" d="M986.518,-293.791C998.855,-292.257 1011.87,-290.638 1024.71,-289.041"/>
<polygon fill="midnightblue" stroke="midnightblue" points="1025.47,-292.473 1034.96,-287.766 1024.61,-285.527 1025.47,-292.473"/>
</g>
<!-- Node311&#45;&gt;Node312 -->
<g id="edge11" class="edge"><title>Node311&#45;&gt;Node312</title>
<path fill="none" stroke="midnightblue" d="M326.301,-237.98C340.354,-235.022 355.824,-231.697 370,-228.5 391.12,-223.737 414.399,-218.199 434.275,-213.382"/>
<polygon fill="midnightblue" stroke="midnightblue" points="435.141,-216.773 444.031,-211.009 433.487,-209.971 435.141,-216.773"/>
</g>
<!-- Node320 -->
<g id="node19" class="node"><title>Node320</title>
<g id="a_node19"><a xlink:href="../../df/d03/a00348.html#aa8f6526a59c3d7e578dd76a0eab75a0e" target="_top" xlink:title="Try to make a new set from one component. ">
<polygon fill="none" stroke="black" points="415,-234 415,-253 552,-253 552,-234 415,-234"/>
<text text-anchor="middle" x="483.5" y="-241" font-family="Helvetica,sans-Serif" font-size="10.00">nars.language.SetExt.make</text>
</a>
</g>
</g>
<!-- Node311&#45;&gt;Node320 -->
<g id="edge20" class="edge"><title>Node311&#45;&gt;Node320</title>
<path fill="none" stroke="midnightblue" d="M351.679,-246.084C368.894,-245.744 387.359,-245.379 404.831,-245.034"/>
<polygon fill="midnightblue" stroke="midnightblue" points="405.059,-248.53 414.987,-244.834 404.92,-241.532 405.059,-248.53"/>
</g>
<!-- Node312&#45;&gt;Node303 -->
<g id="edge14" class="edge"><title>Node312&#45;&gt;Node303</title>
<path fill="none" stroke="midnightblue" d="M523.201,-211.038C551.463,-218.003 590.589,-227.645 624.415,-235.982"/>
<polygon fill="midnightblue" stroke="midnightblue" points="623.715,-239.414 634.262,-238.408 625.39,-232.617 623.715,-239.414"/>
</g>
<!-- Node313 -->
<g id="node12" class="node"><title>Node313</title>
<g id="a_node12"><a xlink:href="../../d8/d17/a00304.html#a9aacee8d6903ff6eb186d37f78569353" target="_top" xlink:title="build a component list from two terms ">
<polygon fill="none" stroke="black" points="597,-88.5 597,-118.5 796,-118.5 796,-88.5 597,-88.5"/>
<text text-anchor="start" x="605" y="-106.5" font-family="Helvetica,sans-Serif" font-size="10.00">nars.language.CompoundTerm.arguments</text>
<text text-anchor="middle" x="696.5" y="-95.5" font-family="Helvetica,sans-Serif" font-size="10.00">ToList</text>
</a>
</g>
</g>
<!-- Node312&#45;&gt;Node313 -->
<g id="edge12" class="edge"><title>Node312&#45;&gt;Node313</title>
<path fill="none" stroke="midnightblue" d="M519.538,-191.974C533.271,-187.201 548.66,-180.486 561,-171.5 581.425,-156.626 575.62,-140.965 597,-127.5 599.669,-125.819 602.447,-124.256 605.306,-122.802"/>
<polygon fill="midnightblue" stroke="midnightblue" points="607.035,-125.86 614.676,-118.522 604.126,-119.493 607.035,-125.86"/>
</g>
<!-- Node314 -->
<g id="node13" class="node"><title>Node314</title>
<g id="a_node13"><a xlink:href="../../d3/db8/a00316.html#a20635d9d55f73d39b29a07653cde6bc6" target="_top" xlink:title="Constructor with partial values, called by make. ">
<polygon fill="none" stroke="black" points="631,-287.5 631,-317.5 762,-317.5 762,-287.5 631,-287.5"/>
<text text-anchor="start" x="639" y="-305.5" font-family="Helvetica,sans-Serif" font-size="10.00">nars.language.Inheritance.</text>
<text text-anchor="middle" x="696.5" y="-294.5" font-family="Helvetica,sans-Serif" font-size="10.00">Inheritance</text>
</a>
</g>
</g>
<!-- Node312&#45;&gt;Node314 -->
<g id="edge13" class="edge"><title>Node312&#45;&gt;Node314</title>
<path fill="none" stroke="midnightblue" d="M534.174,-211.047C543.642,-214.311 553.062,-218.674 561,-224.5 583.957,-241.347 573.682,-261.156 597,-277.5 604.295,-282.613 612.545,-286.682 621.089,-289.92"/>
<polygon fill="midnightblue" stroke="midnightblue" points="620.23,-293.325 630.825,-293.233 622.486,-286.698 620.23,-293.325"/>
</g>
<!-- Node315 -->
<g id="node14" class="node"><title>Node315</title>
<g id="a_node14"><a xlink:href="../../d0/d65/a00360.html#a7123aba1c8c566f291e2c9b9d147557d" target="_top" xlink:title="Default method to make the nameStr of an image term from given fields. ">
<polygon fill="none" stroke="black" points="620.5,-186.5 620.5,-216.5 772.5,-216.5 772.5,-186.5 620.5,-186.5"/>
<text text-anchor="start" x="628.5" y="-204.5" font-family="Helvetica,sans-Serif" font-size="10.00">nars.language.Statement.make</text>
<text text-anchor="middle" x="696.5" y="-193.5" font-family="Helvetica,sans-Serif" font-size="10.00">StatementName</text>
</a>
</g>
</g>
<!-- Node312&#45;&gt;Node315 -->
<g id="edge15" class="edge"><title>Node312&#45;&gt;Node315</title>
<path fill="none" stroke="midnightblue" d="M561.273,-201.5C577.028,-201.5 593.709,-201.5 609.757,-201.5"/>
<polygon fill="midnightblue" stroke="midnightblue" points="610.196,-205 620.196,-201.5 610.196,-198 610.196,-205"/>
</g>
<!-- Node316 -->
<g id="node15" class="node"><title>Node316</title>
<g id="a_node15"><a xlink:href="../../d4/d27/a00392.html#ac7c5d438820208253d1a2ee59bf80ddc" target="_top" xlink:title="Get a Term for a given name of a Concept or Operator. ">
<polygon fill="none" stroke="black" points="628.5,-137.5 628.5,-167.5 764.5,-167.5 764.5,-137.5 628.5,-137.5"/>
<text text-anchor="start" x="636.5" y="-155.5" font-family="Helvetica,sans-Serif" font-size="10.00">nars.storage.Memory.name</text>
<text text-anchor="middle" x="696.5" y="-144.5" font-family="Helvetica,sans-Serif" font-size="10.00">ToListedTerm</text>
</a>
</g>
</g>
<!-- Node312&#45;&gt;Node316 -->
<g id="edge16" class="edge"><title>Node312&#45;&gt;Node316</title>
<path fill="none" stroke="midnightblue" d="M525.433,-191.994C552.477,-185.714 588.717,-177.298 620.795,-169.849"/>
<polygon fill="midnightblue" stroke="midnightblue" points="621.652,-173.243 630.601,-167.571 620.069,-166.424 621.652,-173.243"/>
</g>
<!-- Node317 -->
<g id="node16" class="node"><title>Node317</title>
<g id="a_node16"><a xlink:href="../../d4/d27/a00392.html#a33af7b3d806d32c85390563fec3c6d27" target="_top" xlink:title="Concept bag. ">
<polygon fill="none" stroke="black" points="832,-162 832,-181 999,-181 999,-162 832,-162"/>
<text text-anchor="middle" x="915.5" y="-169" font-family="Helvetica,sans-Serif" font-size="10.00">nars.storage.Memory.getConcepts</text>
</a>
</g>
</g>
<!-- Node316&#45;&gt;Node317 -->
<g id="edge17" class="edge"><title>Node316&#45;&gt;Node317</title>
<path fill="none" stroke="midnightblue" d="M764.674,-158.382C782.8,-159.969 802.734,-161.714 821.983,-163.399"/>
<polygon fill="midnightblue" stroke="midnightblue" points="821.705,-166.888 831.973,-164.274 822.316,-159.915 821.705,-166.888"/>
</g>
<!-- Node318 -->
<g id="node17" class="node"><title>Node318</title>
<g id="a_node17"><a xlink:href="../../d6/db8/a00376.html#a011b37fc683db7fb7b41e33712a37d92" target="_top" xlink:title="Get an Item by key. ">
<polygon fill="none" stroke="black" points="862,-124 862,-143 969,-143 969,-124 862,-124"/>
<text text-anchor="middle" x="915.5" y="-131" font-family="Helvetica,sans-Serif" font-size="10.00">nars.storage.Bag.get</text>
</a>
</g>
</g>
<!-- Node316&#45;&gt;Node318 -->
<g id="edge18" class="edge"><title>Node316&#45;&gt;Node318</title>
<path fill="none" stroke="midnightblue" d="M764.674,-146.618C792.378,-144.193 824.308,-141.397 851.554,-139.011"/>
<polygon fill="midnightblue" stroke="midnightblue" points="852.093,-142.478 861.749,-138.119 851.482,-135.504 852.093,-142.478"/>
</g>
<!-- Node319 -->
<g id="node18" class="node"><title>Node319</title>
<g id="a_node18"><a xlink:href="../../d7/ded/a00196.html#afcd1217b7680b073fa51f0d0f159dcea" target="_top" xlink:title="The term is the unique ID of the concept. ">
<polygon fill="none" stroke="black" points="845,-86 845,-105 986,-105 986,-86 845,-86"/>
<text text-anchor="middle" x="915.5" y="-93" font-family="Helvetica,sans-Serif" font-size="10.00">nars.entity.Concept.getTerm</text>
</a>
</g>
</g>
<!-- Node316&#45;&gt;Node319 -->
<g id="edge19" class="edge"><title>Node316&#45;&gt;Node319</title>
<path fill="none" stroke="midnightblue" d="M760.548,-137.477C772.385,-134.38 784.614,-130.991 796,-127.5 812.264,-122.513 815.682,-119.306 832,-114.5 840.502,-111.996 849.577,-109.617 858.482,-107.443"/>
<polygon fill="midnightblue" stroke="midnightblue" points="859.506,-110.798 868.426,-105.081 857.887,-103.987 859.506,-110.798"/>
</g>
<!-- Node321&#45;&gt;Node312 -->
<g id="edge23" class="edge"><title>Node321&#45;&gt;Node312</title>
<path fill="none" stroke="midnightblue" d="M319.71,-143.065C335.481,-147.129 353.711,-152.161 370,-157.5 372.009,-158.159 416.156,-175.458 448.538,-188.165"/>
<polygon fill="midnightblue" stroke="midnightblue" points="447.563,-191.542 458.15,-191.937 450.12,-185.026 447.563,-191.542"/>
</g>
<!-- Node322 -->
<g id="node21" class="node"><title>Node322</title>
<g id="a_node21"><a xlink:href="../../d6/d9c/a00352.html#aaea0f2cc2ca804779d1bf346beb58fa1" target="_top" xlink:title="Try to make a new set from one component. ">
<polygon fill="none" stroke="black" points="416.5,-143 416.5,-162 550.5,-162 550.5,-143 416.5,-143"/>
<text text-anchor="middle" x="483.5" y="-150" font-family="Helvetica,sans-Serif" font-size="10.00">nars.language.SetInt.make</text>
</a>
</g>
</g>
<!-- Node321&#45;&gt;Node322 -->
<g id="edge22" class="edge"><title>Node321&#45;&gt;Node322</title>
<path fill="none" stroke="midnightblue" d="M351.109,-140.172C368.911,-141.842 388.081,-143.641 406.127,-145.334"/>
<polygon fill="midnightblue" stroke="midnightblue" points="406.028,-148.84 416.311,-146.29 406.682,-141.871 406.028,-148.84"/>
</g>
<!-- Node323&#45;&gt;Node312 -->
<g id="edge26" class="edge"><title>Node323&#45;&gt;Node312</title>
<path fill="none" stroke="midnightblue" d="M370.294,-205.933C378.767,-205.598 387.343,-205.259 395.782,-204.926"/>
<polygon fill="midnightblue" stroke="midnightblue" points="396.137,-208.415 405.991,-204.523 395.861,-201.42 396.137,-208.415"/>
</g>
<!-- Node323&#45;&gt;Node320 -->
<g id="edge27" class="edge"><title>Node323&#45;&gt;Node320</title>
<path fill="none" stroke="midnightblue" d="M336.677,-219.016C361.261,-223.144 390.225,-228.007 415.834,-232.307"/>
<polygon fill="midnightblue" stroke="midnightblue" points="415.395,-235.782 425.837,-233.986 416.554,-228.879 415.395,-235.782"/>
</g>
<!-- Node323&#45;&gt;Node322 -->
<g id="edge25" class="edge"><title>Node323&#45;&gt;Node322</title>
<path fill="none" stroke="midnightblue" d="M313.894,-199.959C348.208,-190.301 401.411,-175.325 438.859,-164.784"/>
<polygon fill="midnightblue" stroke="midnightblue" points="439.818,-168.15 448.495,-162.072 437.921,-161.412 439.818,-168.15"/>
</g>
<!-- Node324&#45;&gt;Node303 -->
<g id="edge32" class="edge"><title>Node324&#45;&gt;Node303</title>
<path fill="none" stroke="midnightblue" d="M526.642,-113.085C538.962,-117.59 551.622,-124.115 561,-133.5 592.036,-164.559 564.498,-195.978 597,-225.5 600.672,-228.836 604.715,-231.777 609.003,-234.37"/>
<polygon fill="midnightblue" stroke="midnightblue" points="607.637,-237.608 618.109,-239.218 610.927,-231.429 607.637,-237.608"/>
</g>
<!-- Node324&#45;&gt;Node313 -->
<g id="edge29" class="edge"><title>Node324&#45;&gt;Node313</title>
<path fill="none" stroke="midnightblue" d="M557.705,-103.5C567.069,-103.5 576.809,-103.5 586.588,-103.5"/>
<polygon fill="midnightblue" stroke="midnightblue" points="586.779,-107 596.779,-103.5 586.779,-100 586.779,-107"/>
</g>
<!-- Node324&#45;&gt;Node315 -->
<g id="edge33" class="edge"><title>Node324&#45;&gt;Node315</title>
<path fill="none" stroke="midnightblue" d="M519.487,-113.097C533.213,-117.881 548.61,-124.584 561,-133.5 581.231,-148.058 575.898,-163.236 597,-176.5 601.369,-179.246 606.026,-181.691 610.847,-183.868"/>
<polygon fill="midnightblue" stroke="midnightblue" points="609.709,-187.184 620.29,-187.733 612.36,-180.706 609.709,-187.184"/>
</g>
<!-- Node324&#45;&gt;Node316 -->
<g id="edge34" class="edge"><title>Node324&#45;&gt;Node316</title>
<path fill="none" stroke="midnightblue" d="M525.433,-113.006C552.477,-119.286 588.717,-127.702 620.795,-135.151"/>
<polygon fill="midnightblue" stroke="midnightblue" points="620.069,-138.576 630.601,-137.429 621.652,-131.757 620.069,-138.576"/>
</g>
<!-- Node325 -->
<g id="node24" class="node"><title>Node325</title>
<g id="a_node24"><a xlink:href="../../dc/d59/a00364.html#ab9bc1c9cc779c07b09983b41ed8491e1" target="_top" xlink:title="Check the relative order of two Terms. ">
<polygon fill="none" stroke="black" points="619,-50 619,-69 774,-69 774,-50 619,-50"/>
<text text-anchor="middle" x="696.5" y="-57" font-family="Helvetica,sans-Serif" font-size="10.00">nars.language.Term.compareTo</text>
</a>
</g>
</g>
<!-- Node324&#45;&gt;Node325 -->
<g id="edge30" class="edge"><title>Node324&#45;&gt;Node325</title>
<path fill="none" stroke="midnightblue" d="M526.112,-93.96C547.303,-89.1764 573.492,-83.3783 597,-78.5 609.177,-75.973 622.225,-73.3774 634.711,-70.9481"/>
<polygon fill="midnightblue" stroke="midnightblue" points="635.423,-74.3754 644.576,-69.04 634.093,-67.5028 635.423,-74.3754"/>
</g>
<!-- Node326 -->
<g id="node25" class="node"><title>Node326</title>
<g id="a_node25"><a xlink:href="../../d6/de1/a00356.html#a5d3eff893c9406991d1c3e81737a408b" target="_top" xlink:title="Constructor with partial values, called by make. ">
<polygon fill="none" stroke="black" points="634.5,-0.5 634.5,-30.5 758.5,-30.5 758.5,-0.5 634.5,-0.5"/>
<text text-anchor="start" x="642.5" y="-18.5" font-family="Helvetica,sans-Serif" font-size="10.00">nars.language.Similarity.</text>
<text text-anchor="middle" x="696.5" y="-7.5" font-family="Helvetica,sans-Serif" font-size="10.00">Similarity</text>
</a>
</g>
</g>
<!-- Node324&#45;&gt;Node326 -->
<g id="edge35" class="edge"><title>Node324&#45;&gt;Node326</title>
<path fill="none" stroke="midnightblue" d="M498.809,-93.859C519.609,-80.2313 559.782,-55.3449 597,-40.5 605.757,-37.0072 615.15,-33.8832 624.532,-31.1263"/>
<polygon fill="midnightblue" stroke="midnightblue" points="625.599,-34.4623 634.278,-28.3862 623.704,-27.7235 625.599,-34.4623"/>
</g>
<!-- Node325&#45;&gt;Node306 -->
<g id="edge31" class="edge"><title>Node325&#45;&gt;Node306</title>
<path fill="none" stroke="midnightblue" d="M774.029,-55.6626C835.737,-54.5004 924.246,-57.2262 999,-76.5 1033.78,-85.4669 1070.56,-104.94 1093.76,-118.619"/>
<polygon fill="midnightblue" stroke="midnightblue" points="1092.15,-121.74 1102.53,-123.901 1095.77,-115.744 1092.15,-121.74"/>
</g>
</g>
</svg>
