<?xml version="1.0" encoding="UTF-8" standalone="no"?>
<!DOCTYPE svg PUBLIC "-//W3C//DTD SVG 1.1//EN"
 "http://www.w3.org/Graphics/SVG/1.1/DTD/svg11.dtd">
<!-- Generated by graphviz version 2.38.0 (20140413.2041)
 -->
<!-- Title: nars.language.Statement.invalidStatement Pages: 1 -->
<!--zoomable 225 -->
<svg id="main" version="1.1" xmlns="http://www.w3.org/2000/svg" xmlns:xlink="http://www.w3.org/1999/xlink" xml:space="preserve" onload="init(evt)">
<style type="text/css"><![CDATA[
.edge:hover path { stroke: red; }
.edge:hover polygon { stroke: red; fill: red; }
]]></style>
<script type="text/javascript"><![CDATA[
var edges = document.getElementsByTagName('g');
if (edges && edges.length) {
  for (var i=0;i<edges.length;i++) {
    if (edges[i].id.substr(0,4)=='edge') {
      edges[i].setAttribute('class','edge');
    }
  }
}
]]></script>
        <defs>
                <circle id="rim" cx="0" cy="0" r="7"/>
                <circle id="rim2" cx="0" cy="0" r="3.5"/>
                <g id="zoomPlus">
                        <use xlink:href="#rim" fill="#404040">
                                <set attributeName="fill" to="#808080" begin="zoomplus.mouseover" end="zoomplus.mouseout"/>
                        </use>
                        <path d="M-4,0h8M0,-4v8" fill="none" stroke="white" stroke-width="1.5" pointer-events="none"/>
                </g>
                <g id="zoomMin">
                        <use xlink:href="#rim" fill="#404040">
                                <set attributeName="fill" to="#808080" begin="zoomminus.mouseover" end="zoomminus.mouseout"/>
                        </use>
                        <path d="M-4,0h8" fill="none" stroke="white" stroke-width="1.5" pointer-events="none"/>
                </g>
                <g id="dirArrow">
                        <path fill="none" stroke="white" stroke-width="1.5" d="M0,-3.0v7 M-2.5,-0.5L0,-3.0L2.5,-0.5"/>
                </g>
               <g id="resetDef">
                       <use xlink:href="#rim2" fill="#404040">
                               <set attributeName="fill" to="#808080" begin="reset.mouseover" end="reset.mouseout"/>
                       </use>
               </g>
        </defs>

<script type="text/javascript">
var viewWidth = 556;
var viewHeight = 225;
var sectionId = 'dynsection-9';
</script>
<script xlink:href="../../svgpan.js"/>
<svg id="graph" class="graph">
<g id="viewport">
<title>nars.language.Statement.invalidStatement</title>
<!-- Node230 -->
<g id="node1" class="node"><title>Node230</title>
<polygon fill="#bfbfbf" stroke="black" points="0,-98.5 0,-128.5 156,-128.5 156,-98.5 0,-98.5"/>
<text text-anchor="start" x="8" y="-116.5" font-family="Helvetica,sans-Serif" font-size="10.00">nars.language.Statement.invalid</text>
<text text-anchor="middle" x="78" y="-105.5" font-family="Helvetica,sans-Serif" font-size="10.00">Statement</text>
</g>
<!-- Node231 -->
<g id="node2" class="node"><title>Node231</title>
<g id="a_node2"><a xlink:href="../../d8/d17/a00304.html#a89000afae8017231889aaa549292d1e0" target="_top" xlink:title="Default constructor. ">
<polygon fill="none" stroke="black" points="192,-186.5 192,-216.5 345,-216.5 345,-186.5 192,-186.5"/>
<text text-anchor="start" x="200" y="-204.5" font-family="Helvetica,sans-Serif" font-size="10.00">nars.language.CompoundTerm.</text>
<text text-anchor="middle" x="268.5" y="-193.5" font-family="Helvetica,sans-Serif" font-size="10.00">CompoundTerm</text>
</a>
</g>
</g>
<!-- Node230&#45;&gt;Node231 -->
<g id="edge1" class="edge"><title>Node230&#45;&gt;Node231</title>
<path fill="none" stroke="midnightblue" d="M103.006,-128.638C125.427,-142.349 160.129,-162.489 192,-176.5 197.056,-178.723 202.375,-180.861 207.752,-182.887"/>
<polygon fill="midnightblue" stroke="midnightblue" points="206.854,-186.285 217.448,-186.408 209.243,-179.705 206.854,-186.285"/>
</g>
<!-- Node232 -->
<g id="node3" class="node"><title>Node232</title>
<g id="a_node3"><a xlink:href="../../dc/d59/a00364.html#ad85f45a7858737445d5158801774ff5f" target="_top" xlink:title="Equal terms have identical name, though not necessarily the same reference. ">
<polygon fill="none" stroke="black" points="201.5,-148 201.5,-167 335.5,-167 335.5,-148 201.5,-148"/>
<text text-anchor="middle" x="268.5" y="-155" font-family="Helvetica,sans-Serif" font-size="10.00">nars.language.Term.equals</text>
</a>
</g>
</g>
<!-- Node230&#45;&gt;Node232 -->
<g id="edge2" class="edge"><title>Node230&#45;&gt;Node232</title>
<path fill="none" stroke="midnightblue" d="M143.344,-128.519C167.406,-134.136 194.37,-140.43 217.006,-145.714"/>
<polygon fill="midnightblue" stroke="midnightblue" points="216.214,-149.123 226.748,-147.988 217.805,-142.306 216.214,-149.123"/>
</g>
<!-- Node234 -->
<g id="node5" class="node"><title>Node234</title>
<g id="a_node5"><a xlink:href="../../d0/d65/a00360.html#ababe6155e2f78e769f76493317e118e0" target="_top" xlink:title="Return the second component of the statement. ">
<polygon fill="none" stroke="black" points="197.5,-98.5 197.5,-128.5 339.5,-128.5 339.5,-98.5 197.5,-98.5"/>
<text text-anchor="start" x="205.5" y="-116.5" font-family="Helvetica,sans-Serif" font-size="10.00">nars.language.Statement.get</text>
<text text-anchor="middle" x="268.5" y="-105.5" font-family="Helvetica,sans-Serif" font-size="10.00">Predicate</text>
</a>
</g>
</g>
<!-- Node230&#45;&gt;Node234 -->
<g id="edge4" class="edge"><title>Node230&#45;&gt;Node234</title>
<path fill="none" stroke="midnightblue" d="M156.214,-113.5C166.432,-113.5 176.927,-113.5 187.195,-113.5"/>
<polygon fill="midnightblue" stroke="midnightblue" points="187.37,-117 197.37,-113.5 187.37,-110 187.37,-117"/>
</g>
<!-- Node236 -->
<g id="node7" class="node"><title>Node236</title>
<g id="a_node7"><a xlink:href="../../d0/d65/a00360.html#ace4f80751d303c613e467163913bebf5" target="_top" xlink:title="Return the first component of the statement. ">
<polygon fill="none" stroke="black" points="197.5,-49.5 197.5,-79.5 339.5,-79.5 339.5,-49.5 197.5,-49.5"/>
<text text-anchor="start" x="205.5" y="-67.5" font-family="Helvetica,sans-Serif" font-size="10.00">nars.language.Statement.get</text>
<text text-anchor="middle" x="268.5" y="-56.5" font-family="Helvetica,sans-Serif" font-size="10.00">Subject</text>
</a>
</g>
</g>
<!-- Node230&#45;&gt;Node236 -->
<g id="edge6" class="edge"><title>Node230&#45;&gt;Node236</title>
<path fill="none" stroke="midnightblue" d="M136.837,-98.4654C156.74,-93.2917 179.203,-87.4525 199.819,-82.0934"/>
<polygon fill="midnightblue" stroke="midnightblue" points="200.974,-85.4095 209.772,-79.5062 199.213,-78.6347 200.974,-85.4095"/>
</g>
<!-- Node237 -->
<g id="node8" class="node"><title>Node237</title>
<g id="a_node8"><a xlink:href="../../d0/d65/a00360.html#ac56b558891dd2088e0b66b437780c7b7" target="_top" xlink:title="Default constructor. ">
<polygon fill="none" stroke="black" points="204.5,-0.5 204.5,-30.5 332.5,-30.5 332.5,-0.5 204.5,-0.5"/>
<text text-anchor="start" x="212.5" y="-18.5" font-family="Helvetica,sans-Serif" font-size="10.00">nars.language.Statement.</text>
<text text-anchor="middle" x="268.5" y="-7.5" font-family="Helvetica,sans-Serif" font-size="10.00">Statement</text>
</a>
</g>
</g>
<!-- Node230&#45;&gt;Node237 -->
<g id="edge8" class="edge"><title>Node230&#45;&gt;Node237</title>
<path fill="none" stroke="midnightblue" d="M98.9079,-98.403C120.795,-82.3514 157.455,-57.0456 192,-40.5 196.629,-38.2829 201.506,-36.1826 206.46,-34.2119"/>
<polygon fill="midnightblue" stroke="midnightblue" points="207.927,-37.3992 216.04,-30.5852 205.448,-30.8526 207.927,-37.3992"/>
</g>
<!-- Node233 -->
<g id="node4" class="node"><title>Node233</title>
<g id="a_node4"><a xlink:href="../../dc/d59/a00364.html#a3aad4654016b8615fd4fa8a26668e1db" target="_top" xlink:title="Reporting the name of the current Term. ">
<polygon fill="none" stroke="black" points="391.5,-148 391.5,-167 537.5,-167 537.5,-148 391.5,-148"/>
<text text-anchor="middle" x="464.5" y="-155" font-family="Helvetica,sans-Serif" font-size="10.00">nars.language.Term.getName</text>
</a>
</g>
</g>
<!-- Node232&#45;&gt;Node233 -->
<g id="edge3" class="edge"><title>Node232&#45;&gt;Node233</title>
<path fill="none" stroke="midnightblue" d="M335.721,-157.5C350.258,-157.5 365.824,-157.5 380.915,-157.5"/>
<polygon fill="midnightblue" stroke="midnightblue" points="381.267,-161 391.267,-157.5 381.267,-154 381.267,-161"/>
</g>
<!-- Node235 -->
<g id="node6" class="node"><title>Node235</title>
<g id="a_node6"><a xlink:href="../../d8/d17/a00304.html#a9778c35f9b602bee6ccac6a06809e546" target="_top" xlink:title="list of (direct) components ">
<polygon fill="none" stroke="black" points="381,-74.5 381,-104.5 548,-104.5 548,-74.5 381,-74.5"/>
<text text-anchor="start" x="389" y="-92.5" font-family="Helvetica,sans-Serif" font-size="10.00">nars.language.CompoundTerm.get</text>
<text text-anchor="middle" x="464.5" y="-81.5" font-family="Helvetica,sans-Serif" font-size="10.00">Components</text>
</a>
</g>
</g>
<!-- Node234&#45;&gt;Node235 -->
<g id="edge5" class="edge"><title>Node234&#45;&gt;Node235</title>
<path fill="none" stroke="midnightblue" d="M339.538,-104.835C349.655,-103.584 360.196,-102.28 370.673,-100.984"/>
<polygon fill="midnightblue" stroke="midnightblue" points="371.187,-104.447 380.681,-99.7456 370.327,-97.4999 371.187,-104.447"/>
</g>
<!-- Node236&#45;&gt;Node235 -->
<g id="edge7" class="edge"><title>Node236&#45;&gt;Node235</title>
<path fill="none" stroke="midnightblue" d="M339.538,-73.5256C349.655,-74.8292 360.196,-76.1877 370.673,-77.5377"/>
<polygon fill="midnightblue" stroke="midnightblue" points="370.316,-81.0206 380.681,-78.8275 371.211,-74.078 370.316,-81.0206"/>
</g>
</g>
</svg>
        <g id="navigator" transform="translate(0 0)" fill="#404254">
                <rect fill="#f2f5e9" fill-opacity="0.5" stroke="#606060" stroke-width=".5" x="0" y="0" width="60" height="60"/>
                <use id="zoomplus" xlink:href="#zoomPlus" x="17" y="9" onmousedown="handleZoom(evt,'in')"/>
                <use id="zoomminus" xlink:href="#zoomMin" x="42" y="9" onmousedown="handleZoom(evt,'out')"/>
                <use id="reset" xlink:href="#resetDef" x="30" y="36" onmousedown="handleReset()"/>
                <g id="arrowUp" xlink:href="#dirArrow" transform="translate(30 24)" onmousedown="handlePan(0,-1)">
                  <use xlink:href="#rim" fill="#404040">
                        <set attributeName="fill" to="#808080" begin="arrowUp.mouseover" end="arrowUp.mouseout"/>
                  </use>
                  <path fill="none" stroke="white" stroke-width="1.5" d="M0,-3.0v7 M-2.5,-0.5L0,-3.0L2.5,-0.5"/>
                </g>
                <g id="arrowRight" xlink:href="#dirArrow" transform="rotate(90) translate(36 -43)" onmousedown="handlePan(1,0)">
                  <use xlink:href="#rim" fill="#404040">
                        <set attributeName="fill" to="#808080" begin="arrowRight.mouseover" end="arrowRight.mouseout"/>
                  </use>
                  <path fill="none" stroke="white" stroke-width="1.5" d="M0,-3.0v7 M-2.5,-0.5L0,-3.0L2.5,-0.5"/>
                </g>
                <g id="arrowDown" xlink:href="#dirArrow" transform="rotate(180) translate(-30 -48)" onmousedown="handlePan(0,1)">
                  <use xlink:href="#rim" fill="#404040">
                        <set attributeName="fill" to="#808080" begin="arrowDown.mouseover" end="arrowDown.mouseout"/>
                  </use>
                  <path fill="none" stroke="white" stroke-width="1.5" d="M0,-3.0v7 M-2.5,-0.5L0,-3.0L2.5,-0.5"/>
                </g>
                <g id="arrowLeft" xlink:href="#dirArrow" transform="rotate(270) translate(-36 17)" onmousedown="handlePan(-1,0)">
                  <use xlink:href="#rim" fill="#404040">
                        <set attributeName="fill" to="#808080" begin="arrowLeft.mouseover" end="arrowLeft.mouseout"/>
                  </use>
                  <path fill="none" stroke="white" stroke-width="1.5" d="M0,-3.0v7 M-2.5,-0.5L0,-3.0L2.5,-0.5"/>
                </g>
        </g>
        <svg viewBox="0 0 15 15" width="100%" height="30px" preserveAspectRatio="xMaxYMin meet">
         <g id="arrow_out" transform="scale(0.3 0.3)">
          <a xlink:href="a00360_a96d4bf7bb99f48b6496cdb7457bc0e50_cgraph_org.svg" target="_base">
           <rect id="button" ry="5" rx="5" y="6" x="6" height="38" width="38"
                fill="#f2f5e9" fill-opacity="0.5" stroke="#606060" stroke-width="1.0"/>
           <path id="arrow"
             d="M 11.500037,31.436501 C 11.940474,20.09759 22.043105,11.32322 32.158766,21.979434 L 37.068811,17.246167 C 37.068811,17.246167 37.088388,32 37.088388,32 L 22.160133,31.978069 C 22.160133,31.978069 26.997745,27.140456 26.997745,27.140456 C 18.528582,18.264221 13.291696,25.230495 11.500037,31.436501 z"
             style="fill:#404040;"/>
          </a>
         </g>
        </svg>
</svg>
