<?xml version="1.0" encoding="UTF-8" standalone="no"?>
<!DOCTYPE svg PUBLIC "-//W3C//DTD SVG 1.1//EN"
 "http://www.w3.org/Graphics/SVG/1.1/DTD/svg11.dtd">
<!-- Generated by graphviz version 2.38.0 (20140413.2041)
 -->
<!-- Title: nars.io.StringParser.parseStatement Pages: 1 -->
<svg width="1102pt" height="107pt"
 viewBox="0.00 0.00 1102.00 107.00" xmlns="http://www.w3.org/2000/svg" xmlns:xlink="http://www.w3.org/1999/xlink">
<g id="graph0" class="graph" transform="scale(1 1) rotate(0) translate(4 103)">
<title>nars.io.StringParser.parseStatement</title>
<!-- Node248 -->
<g id="node1" class="node"><title>Node248</title>
<polygon fill="#bfbfbf" stroke="black" points="0,-24.5 0,-54.5 130,-54.5 130,-24.5 0,-24.5"/>
<text text-anchor="start" x="8" y="-42.5" font-family="Helvetica,sans-Serif" font-size="10.00">nars.io.StringParser.parse</text>
<text text-anchor="middle" x="65" y="-31.5" font-family="Helvetica,sans-Serif" font-size="10.00">Statement</text>
</g>
<!-- Node249 -->
<g id="node2" class="node"><title>Node249</title>
<g id="a_node2"><a xlink:href="../../d8/d0a/a00292.html#a5c31494d6f7862dcf15a4d5716b6200e" target="_top" xlink:title="Top&#45;level method that parse a Term in general, which may recursively call itself. ...">
<polygon fill="none" stroke="black" points="166,-30 166,-49 318,-49 318,-30 166,-30"/>
<text text-anchor="middle" x="242" y="-37" font-family="Helvetica,sans-Serif" font-size="10.00">nars.io.StringParser.parseTerm</text>
</a>
</g>
</g>
<!-- Node248&#45;&gt;Node249 -->
<g id="edge1" class="edge"><title>Node248&#45;&gt;Node249</title>
<path fill="none" stroke="midnightblue" d="M140.363,-32.8181C148.805,-32.73 157.414,-32.7274 165.866,-32.8103"/>
<polygon fill="midnightblue" stroke="midnightblue" points="140.117,-29.3212 130.17,-32.9679 140.22,-36.3205 140.117,-29.3212"/>
</g>
<!-- Node249&#45;&gt;Node248 -->
<g id="edge6" class="edge"><title>Node249&#45;&gt;Node248</title>
<path fill="none" stroke="midnightblue" d="M155.781,-46.248C147.162,-46.2634 138.513,-46.1914 130.17,-46.0321"/>
<polygon fill="midnightblue" stroke="midnightblue" points="155.886,-49.7475 165.866,-46.1897 155.846,-42.7476 155.886,-49.7475"/>
</g>
<!-- Node250 -->
<g id="node3" class="node"><title>Node250</title>
<g id="a_node3"><a xlink:href="../../d8/d0a/a00292.html#a75b446999d71c676a9915ecc75077a7d" target="_top" xlink:title="Enter a new Task in String into the memory, called from InputWindow or locally. ">
<polygon fill="none" stroke="black" points="354,-74 354,-93 506,-93 506,-74 354,-74"/>
<text text-anchor="middle" x="430" y="-81" font-family="Helvetica,sans-Serif" font-size="10.00">nars.io.StringParser.parseTask</text>
</a>
</g>
</g>
<!-- Node249&#45;&gt;Node250 -->
<g id="edge2" class="edge"><title>Node249&#45;&gt;Node250</title>
<path fill="none" stroke="midnightblue" d="M293.205,-51.3764C323.167,-58.4642 360.708,-67.3448 388.72,-73.9713"/>
<polygon fill="midnightblue" stroke="midnightblue" points="293.896,-47.9435 283.359,-49.0473 292.285,-54.7555 293.896,-47.9435"/>
</g>
<!-- Node254 -->
<g id="node7" class="node"><title>Node254</title>
<g id="a_node7"><a xlink:href="../../d8/d0a/a00292.html#a9b9bc5f94ac6aaa86c3d9c2bcd21c332" target="_top" xlink:title="Parse a String into the argument get of a CompoundTerm. ">
<polygon fill="none" stroke="black" points="365,-24.5 365,-54.5 495,-54.5 495,-24.5 365,-24.5"/>
<text text-anchor="start" x="373" y="-42.5" font-family="Helvetica,sans-Serif" font-size="10.00">nars.io.StringParser.parse</text>
<text text-anchor="middle" x="430" y="-31.5" font-family="Helvetica,sans-Serif" font-size="10.00">Arguments</text>
</a>
</g>
</g>
<!-- Node249&#45;&gt;Node254 -->
<g id="edge7" class="edge"><title>Node249&#45;&gt;Node254</title>
<path fill="none" stroke="midnightblue" d="M328.387,-32.7701C340.685,-32.7049 353.163,-32.7981 364.951,-33.0495"/>
<polygon fill="midnightblue" stroke="midnightblue" points="328.085,-29.2726 318.117,-32.8622 328.148,-36.2723 328.085,-29.2726"/>
</g>
<!-- Node251 -->
<g id="node4" class="node"><title>Node251</title>
<g id="a_node4"><a xlink:href="../../df/d15/a00416.html#a4766dfcaabdf586d60b9ac9827e41cad" target="_top" xlink:title="Parse a line of input experience. ">
<polygon fill="none" stroke="black" points="542,-68.5 542,-98.5 710,-98.5 710,-68.5 542,-68.5"/>
<text text-anchor="start" x="550" y="-86.5" font-family="Helvetica,sans-Serif" font-size="10.00">nars.storage.ReasonerBatch.parse</text>
<text text-anchor="middle" x="626" y="-75.5" font-family="Helvetica,sans-Serif" font-size="10.00">Experience</text>
</a>
</g>
</g>
<!-- Node250&#45;&gt;Node251 -->
<g id="edge3" class="edge"><title>Node250&#45;&gt;Node251</title>
<path fill="none" stroke="midnightblue" d="M516.272,-83.5C524.753,-83.5 533.355,-83.5 541.814,-83.5"/>
<polygon fill="midnightblue" stroke="midnightblue" points="516.005,-80.0001 506.005,-83.5 516.005,-87.0001 516.005,-80.0001"/>
</g>
<!-- Node252 -->
<g id="node5" class="node"><title>Node252</title>
<g id="a_node5"><a xlink:href="../../df/d15/a00416.html#a1823f1575021b1ca67e6174923923fbb" target="_top" xlink:title="To process a line of input text. ">
<polygon fill="none" stroke="black" points="746,-68.5 746,-98.5 907,-98.5 907,-68.5 746,-68.5"/>
<text text-anchor="start" x="754" y="-86.5" font-family="Helvetica,sans-Serif" font-size="10.00">nars.storage.ReasonerBatch.text</text>
<text text-anchor="middle" x="826.5" y="-75.5" font-family="Helvetica,sans-Serif" font-size="10.00">InputLine</text>
</a>
</g>
</g>
<!-- Node251&#45;&gt;Node252 -->
<g id="edge4" class="edge"><title>Node251&#45;&gt;Node252</title>
<path fill="none" stroke="midnightblue" d="M720.131,-83.5C728.772,-83.5 737.476,-83.5 745.978,-83.5"/>
<polygon fill="midnightblue" stroke="midnightblue" points="720.032,-80.0001 710.032,-83.5 720.032,-87.0001 720.032,-80.0001"/>
</g>
<!-- Node253 -->
<g id="node6" class="node"><title>Node253</title>
<g id="a_node6"><a xlink:href="../../d9/dd6/a00272.html#a1a4b66a6e6cf89d5c2ea7a5923195247" target="_top" xlink:title="Process the next chunk of input data TODO duplicated code with InputWindow#nextInput(). ">
<polygon fill="none" stroke="black" points="943,-68.5 943,-98.5 1094,-98.5 1094,-68.5 943,-68.5"/>
<text text-anchor="start" x="951" y="-86.5" font-family="Helvetica,sans-Serif" font-size="10.00">nars.io.ExperienceReader.next</text>
<text text-anchor="middle" x="1018.5" y="-75.5" font-family="Helvetica,sans-Serif" font-size="10.00">Input</text>
</a>
</g>
</g>
<!-- Node252&#45;&gt;Node253 -->
<g id="edge5" class="edge"><title>Node252&#45;&gt;Node253</title>
<path fill="none" stroke="midnightblue" d="M917.529,-83.5C925.992,-83.5 934.507,-83.5 942.805,-83.5"/>
<polygon fill="midnightblue" stroke="midnightblue" points="917.251,-80.0001 907.251,-83.5 917.251,-87.0001 917.251,-80.0001"/>
</g>
<!-- Node254&#45;&gt;Node249 -->
<g id="edge10" class="edge"><title>Node254&#45;&gt;Node249</title>
<path fill="none" stroke="midnightblue" d="M354.906,-46.1245C342.8,-46.2873 330.248,-46.2917 318.117,-46.1378"/>
<polygon fill="midnightblue" stroke="midnightblue" points="355.013,-49.6232 364.951,-45.9505 354.892,-42.6243 355.013,-49.6232"/>
</g>
<!-- Node255 -->
<g id="node8" class="node"><title>Node255</title>
<g id="a_node8"><a xlink:href="../../d8/d0a/a00292.html#a944bb677dff9f232ce6b896c853e24e0" target="_top" xlink:title="Parse a String to create a CompoundTerm. ">
<polygon fill="none" stroke="black" points="561,-0.5 561,-30.5 691,-30.5 691,-0.5 561,-0.5"/>
<text text-anchor="start" x="569" y="-18.5" font-family="Helvetica,sans-Serif" font-size="10.00">nars.io.StringParser.parse</text>
<text text-anchor="middle" x="626" y="-7.5" font-family="Helvetica,sans-Serif" font-size="10.00">CompoundTerm</text>
</a>
</g>
</g>
<!-- Node254&#45;&gt;Node255 -->
<g id="edge8" class="edge"><title>Node254&#45;&gt;Node255</title>
<path fill="none" stroke="midnightblue" d="M505.096,-30.3334C523.407,-28.0682 542.873,-25.6601 560.676,-23.4577"/>
<polygon fill="midnightblue" stroke="midnightblue" points="504.555,-26.8736 495.061,-31.575 505.415,-33.8207 504.555,-26.8736"/>
</g>
<!-- Node255&#45;&gt;Node249 -->
<g id="edge9" class="edge"><title>Node255&#45;&gt;Node249</title>
<path fill="none" stroke="midnightblue" d="M550.708,-10.6687C496.114,-8.22455 420.224,-7.13464 354,-14.5 327.496,-17.4478 298.077,-24.2388 276.189,-30"/>
<polygon fill="midnightblue" stroke="midnightblue" points="550.835,-14.1786 560.99,-11.1563 551.167,-7.18647 550.835,-14.1786"/>
</g>
</g>
</svg>
