<?xml version="1.0" encoding="UTF-8" standalone="no"?>
<!DOCTYPE svg PUBLIC "-//W3C//DTD SVG 1.1//EN"
 "http://www.w3.org/Graphics/SVG/1.1/DTD/svg11.dtd">
<!-- Generated by graphviz version 2.38.0 (20140413.2041)
 -->
<!-- Title: nars.io.StringParser.nextSeparator Pages: 1 -->
<svg width="1429pt" height="136pt"
 viewBox="0.00 0.00 1429.00 136.00" xmlns="http://www.w3.org/2000/svg" xmlns:xlink="http://www.w3.org/1999/xlink">
<g id="graph0" class="graph" transform="scale(1 1) rotate(0) translate(4 132)">
<title>nars.io.StringParser.nextSeparator</title>
<!-- Node66 -->
<g id="node1" class="node"><title>Node66</title>
<polygon fill="#bfbfbf" stroke="black" points="0,-53.5 0,-83.5 125,-83.5 125,-53.5 0,-53.5"/>
<text text-anchor="start" x="8" y="-71.5" font-family="Helvetica,sans-Serif" font-size="10.00">nars.io.StringParser.next</text>
<text text-anchor="middle" x="62.5" y="-60.5" font-family="Helvetica,sans-Serif" font-size="10.00">Separator</text>
</g>
<!-- Node67 -->
<g id="node2" class="node"><title>Node67</title>
<g id="a_node2"><a xlink:href="../../d8/d0a/a00292.html#a9b9bc5f94ac6aaa86c3d9c2bcd21c332" target="_top" xlink:title="Parse a String into the argument get of a CompoundTerm. ">
<polygon fill="none" stroke="black" points="161,-53.5 161,-83.5 291,-83.5 291,-53.5 161,-53.5"/>
<text text-anchor="start" x="169" y="-71.5" font-family="Helvetica,sans-Serif" font-size="10.00">nars.io.StringParser.parse</text>
<text text-anchor="middle" x="226" y="-60.5" font-family="Helvetica,sans-Serif" font-size="10.00">Arguments</text>
</a>
</g>
</g>
<!-- Node66&#45;&gt;Node67 -->
<g id="edge1" class="edge"><title>Node66&#45;&gt;Node67</title>
<path fill="none" stroke="midnightblue" d="M135.058,-68.5C143.688,-68.5 152.459,-68.5 160.972,-68.5"/>
<polygon fill="midnightblue" stroke="midnightblue" points="135.017,-65.0001 125.017,-68.5 135.017,-72.0001 135.017,-65.0001"/>
</g>
<!-- Node68 -->
<g id="node3" class="node"><title>Node68</title>
<g id="a_node3"><a xlink:href="../../d8/d0a/a00292.html#a5c31494d6f7862dcf15a4d5716b6200e" target="_top" xlink:title="Top&#45;level method that parse a Term in general, which may recursively call itself. ...">
<polygon fill="none" stroke="black" points="493,-59 493,-78 645,-78 645,-59 493,-59"/>
<text text-anchor="middle" x="569" y="-66" font-family="Helvetica,sans-Serif" font-size="10.00">nars.io.StringParser.parseTerm</text>
</a>
</g>
</g>
<!-- Node67&#45;&gt;Node68 -->
<g id="edge2" class="edge"><title>Node67&#45;&gt;Node68</title>
<path fill="none" stroke="midnightblue" d="M301.476,-62.8095C358.2,-61.4024 435.964,-61.3969 492.853,-62.793"/>
<polygon fill="midnightblue" stroke="midnightblue" points="301.041,-59.3199 291.139,-63.0885 301.23,-66.3173 301.041,-59.3199"/>
</g>
<!-- Node74 -->
<g id="node9" class="node"><title>Node74</title>
<g id="a_node9"><a xlink:href="../../d8/d0a/a00292.html#a944bb677dff9f232ce6b896c853e24e0" target="_top" xlink:title="Parse a String to create a CompoundTerm. ">
<polygon fill="none" stroke="black" points="327,-0.5 327,-30.5 457,-30.5 457,-0.5 327,-0.5"/>
<text text-anchor="start" x="335" y="-18.5" font-family="Helvetica,sans-Serif" font-size="10.00">nars.io.StringParser.parse</text>
<text text-anchor="middle" x="392" y="-7.5" font-family="Helvetica,sans-Serif" font-size="10.00">CompoundTerm</text>
</a>
</g>
</g>
<!-- Node67&#45;&gt;Node74 -->
<g id="edge10" class="edge"><title>Node67&#45;&gt;Node74</title>
<path fill="none" stroke="midnightblue" d="M283.136,-50.3586C303.067,-43.9173 325.27,-36.7419 344.326,-30.5835"/>
<polygon fill="midnightblue" stroke="midnightblue" points="281.996,-47.0485 273.557,-53.4541 284.149,-53.7093 281.996,-47.0485"/>
</g>
<!-- Node68&#45;&gt;Node67 -->
<g id="edge9" class="edge"><title>Node68&#45;&gt;Node67</title>
<path fill="none" stroke="midnightblue" d="M482.736,-74.4362C423.317,-75.6745 345.306,-75.4996 291.139,-73.9115"/>
<polygon fill="midnightblue" stroke="midnightblue" points="482.935,-77.9326 492.853,-74.207 482.776,-70.9344 482.935,-77.9326"/>
</g>
<!-- Node69 -->
<g id="node4" class="node"><title>Node69</title>
<g id="a_node4"><a xlink:href="../../d8/d0a/a00292.html#a75b446999d71c676a9915ecc75077a7d" target="_top" xlink:title="Enter a new Task in String into the memory, called from InputWindow or locally. ">
<polygon fill="none" stroke="black" points="681,-103 681,-122 833,-122 833,-103 681,-103"/>
<text text-anchor="middle" x="757" y="-110" font-family="Helvetica,sans-Serif" font-size="10.00">nars.io.StringParser.parseTask</text>
</a>
</g>
</g>
<!-- Node68&#45;&gt;Node69 -->
<g id="edge3" class="edge"><title>Node68&#45;&gt;Node69</title>
<path fill="none" stroke="midnightblue" d="M620.205,-80.3764C650.167,-87.4642 687.708,-96.3448 715.72,-102.971"/>
<polygon fill="midnightblue" stroke="midnightblue" points="620.896,-76.9435 610.359,-78.0473 619.285,-83.7555 620.896,-76.9435"/>
</g>
<!-- Node73 -->
<g id="node8" class="node"><title>Node73</title>
<g id="a_node8"><a xlink:href="../../d8/d0a/a00292.html#a7c129938c8d721e3db0a9804988f0588" target="_top" xlink:title="Parse a String to create a Statement. ">
<polygon fill="none" stroke="black" points="692,-53.5 692,-83.5 822,-83.5 822,-53.5 692,-53.5"/>
<text text-anchor="start" x="700" y="-71.5" font-family="Helvetica,sans-Serif" font-size="10.00">nars.io.StringParser.parse</text>
<text text-anchor="middle" x="757" y="-60.5" font-family="Helvetica,sans-Serif" font-size="10.00">Statement</text>
</a>
</g>
</g>
<!-- Node68&#45;&gt;Node73 -->
<g id="edge7" class="edge"><title>Node68&#45;&gt;Node73</title>
<path fill="none" stroke="midnightblue" d="M655.387,-61.7701C667.685,-61.7049 680.163,-61.7981 691.951,-62.0495"/>
<polygon fill="midnightblue" stroke="midnightblue" points="655.085,-58.2726 645.117,-61.8622 655.148,-65.2723 655.085,-58.2726"/>
</g>
<!-- Node70 -->
<g id="node5" class="node"><title>Node70</title>
<g id="a_node5"><a xlink:href="../../df/d15/a00416.html#a4766dfcaabdf586d60b9ac9827e41cad" target="_top" xlink:title="Parse a line of input experience. ">
<polygon fill="none" stroke="black" points="869,-97.5 869,-127.5 1037,-127.5 1037,-97.5 869,-97.5"/>
<text text-anchor="start" x="877" y="-115.5" font-family="Helvetica,sans-Serif" font-size="10.00">nars.storage.ReasonerBatch.parse</text>
<text text-anchor="middle" x="953" y="-104.5" font-family="Helvetica,sans-Serif" font-size="10.00">Experience</text>
</a>
</g>
</g>
<!-- Node69&#45;&gt;Node70 -->
<g id="edge4" class="edge"><title>Node69&#45;&gt;Node70</title>
<path fill="none" stroke="midnightblue" d="M843.272,-112.5C851.753,-112.5 860.355,-112.5 868.814,-112.5"/>
<polygon fill="midnightblue" stroke="midnightblue" points="843.005,-109 833.005,-112.5 843.005,-116 843.005,-109"/>
</g>
<!-- Node71 -->
<g id="node6" class="node"><title>Node71</title>
<g id="a_node6"><a xlink:href="../../df/d15/a00416.html#a1823f1575021b1ca67e6174923923fbb" target="_top" xlink:title="To process a line of input text. ">
<polygon fill="none" stroke="black" points="1073,-97.5 1073,-127.5 1234,-127.5 1234,-97.5 1073,-97.5"/>
<text text-anchor="start" x="1081" y="-115.5" font-family="Helvetica,sans-Serif" font-size="10.00">nars.storage.ReasonerBatch.text</text>
<text text-anchor="middle" x="1153.5" y="-104.5" font-family="Helvetica,sans-Serif" font-size="10.00">InputLine</text>
</a>
</g>
</g>
<!-- Node70&#45;&gt;Node71 -->
<g id="edge5" class="edge"><title>Node70&#45;&gt;Node71</title>
<path fill="none" stroke="midnightblue" d="M1047.13,-112.5C1055.77,-112.5 1064.48,-112.5 1072.98,-112.5"/>
<polygon fill="midnightblue" stroke="midnightblue" points="1047.03,-109 1037.03,-112.5 1047.03,-116 1047.03,-109"/>
</g>
<!-- Node72 -->
<g id="node7" class="node"><title>Node72</title>
<g id="a_node7"><a xlink:href="../../d9/dd6/a00272.html#a1a4b66a6e6cf89d5c2ea7a5923195247" target="_top" xlink:title="Process the next chunk of input data TODO duplicated code with InputWindow#nextInput(). ">
<polygon fill="none" stroke="black" points="1270,-97.5 1270,-127.5 1421,-127.5 1421,-97.5 1270,-97.5"/>
<text text-anchor="start" x="1278" y="-115.5" font-family="Helvetica,sans-Serif" font-size="10.00">nars.io.ExperienceReader.next</text>
<text text-anchor="middle" x="1345.5" y="-104.5" font-family="Helvetica,sans-Serif" font-size="10.00">Input</text>
</a>
</g>
</g>
<!-- Node71&#45;&gt;Node72 -->
<g id="edge6" class="edge"><title>Node71&#45;&gt;Node72</title>
<path fill="none" stroke="midnightblue" d="M1244.53,-112.5C1252.99,-112.5 1261.51,-112.5 1269.81,-112.5"/>
<polygon fill="midnightblue" stroke="midnightblue" points="1244.25,-109 1234.25,-112.5 1244.25,-116 1244.25,-109"/>
</g>
<!-- Node73&#45;&gt;Node68 -->
<g id="edge8" class="edge"><title>Node73&#45;&gt;Node68</title>
<path fill="none" stroke="midnightblue" d="M681.906,-75.1245C669.8,-75.2873 657.248,-75.2917 645.117,-75.1378"/>
<polygon fill="midnightblue" stroke="midnightblue" points="682.013,-78.6232 691.951,-74.9505 681.892,-71.6243 682.013,-78.6232"/>
</g>
<!-- Node74&#45;&gt;Node68 -->
<g id="edge11" class="edge"><title>Node74&#45;&gt;Node68</title>
<path fill="none" stroke="midnightblue" d="M452.433,-33.4996C480.579,-42.0239 513.058,-51.8605 536.404,-58.9309"/>
<polygon fill="midnightblue" stroke="midnightblue" points="453.265,-30.0948 442.68,-30.5459 451.236,-36.7943 453.265,-30.0948"/>
</g>
</g>
</svg>
