<?xml version="1.0" encoding="UTF-8" standalone="no"?>
<!DOCTYPE svg PUBLIC "-//W3C//DTD SVG 1.1//EN"
 "http://www.w3.org/Graphics/SVG/1.1/DTD/svg11.dtd">
<!-- Generated by graphviz version 2.38.0 (20140413.2041)
 -->
<!-- Title: nars.io.StringParser.parseTask Pages: 1 -->
<svg width="748pt" height="39pt"
 viewBox="0.00 0.00 748.00 39.00" xmlns="http://www.w3.org/2000/svg" xmlns:xlink="http://www.w3.org/1999/xlink">
<g id="graph0" class="graph" transform="scale(1 1) rotate(0) translate(4 35)">
<title>nars.io.StringParser.parseTask</title>
<!-- Node313 -->
<g id="node1" class="node"><title>Node313</title>
<polygon fill="#bfbfbf" stroke="black" points="0,-6 0,-25 152,-25 152,-6 0,-6"/>
<text text-anchor="middle" x="76" y="-13" font-family="Helvetica,sans-Serif" font-size="10.00">nars.io.StringParser.parseTask</text>
</g>
<!-- Node314 -->
<g id="node2" class="node"><title>Node314</title>
<g id="a_node2"><a xlink:href="../../df/d15/a00416.html#a4766dfcaabdf586d60b9ac9827e41cad" target="_top" xlink:title="Parse a line of input experience. ">
<polygon fill="none" stroke="black" points="188,-0.5 188,-30.5 356,-30.5 356,-0.5 188,-0.5"/>
<text text-anchor="start" x="196" y="-18.5" font-family="Helvetica,sans-Serif" font-size="10.00">nars.storage.ReasonerBatch.parse</text>
<text text-anchor="middle" x="272" y="-7.5" font-family="Helvetica,sans-Serif" font-size="10.00">Experience</text>
</a>
</g>
</g>
<!-- Node313&#45;&gt;Node314 -->
<g id="edge1" class="edge"><title>Node313&#45;&gt;Node314</title>
<path fill="none" stroke="midnightblue" d="M162.272,-15.5C170.753,-15.5 179.355,-15.5 187.814,-15.5"/>
<polygon fill="midnightblue" stroke="midnightblue" points="162.005,-12.0001 152.005,-15.5 162.005,-19.0001 162.005,-12.0001"/>
</g>
<!-- Node315 -->
<g id="node3" class="node"><title>Node315</title>
<g id="a_node3"><a xlink:href="../../df/d15/a00416.html#a1823f1575021b1ca67e6174923923fbb" target="_top" xlink:title="To process a line of input text. ">
<polygon fill="none" stroke="black" points="392,-0.5 392,-30.5 553,-30.5 553,-0.5 392,-0.5"/>
<text text-anchor="start" x="400" y="-18.5" font-family="Helvetica,sans-Serif" font-size="10.00">nars.storage.ReasonerBatch.text</text>
<text text-anchor="middle" x="472.5" y="-7.5" font-family="Helvetica,sans-Serif" font-size="10.00">InputLine</text>
</a>
</g>
</g>
<!-- Node314&#45;&gt;Node315 -->
<g id="edge2" class="edge"><title>Node314&#45;&gt;Node315</title>
<path fill="none" stroke="midnightblue" d="M366.131,-15.5C374.772,-15.5 383.476,-15.5 391.978,-15.5"/>
<polygon fill="midnightblue" stroke="midnightblue" points="366.032,-12.0001 356.032,-15.5 366.032,-19.0001 366.032,-12.0001"/>
</g>
<!-- Node316 -->
<g id="node4" class="node"><title>Node316</title>
<g id="a_node4"><a xlink:href="../../d9/dd6/a00272.html#a1a4b66a6e6cf89d5c2ea7a5923195247" target="_top" xlink:title="Process the next chunk of input data TODO duplicated code with InputWindow#nextInput(). ">
<polygon fill="none" stroke="black" points="589,-0.5 589,-30.5 740,-30.5 740,-0.5 589,-0.5"/>
<text text-anchor="start" x="597" y="-18.5" font-family="Helvetica,sans-Serif" font-size="10.00">nars.io.ExperienceReader.next</text>
<text text-anchor="middle" x="664.5" y="-7.5" font-family="Helvetica,sans-Serif" font-size="10.00">Input</text>
</a>
</g>
</g>
<!-- Node315&#45;&gt;Node316 -->
<g id="edge3" class="edge"><title>Node315&#45;&gt;Node316</title>
<path fill="none" stroke="midnightblue" d="M563.529,-15.5C571.992,-15.5 580.507,-15.5 588.805,-15.5"/>
<polygon fill="midnightblue" stroke="midnightblue" points="563.251,-12.0001 553.251,-15.5 563.251,-19.0001 563.251,-12.0001"/>
</g>
</g>
</svg>
