<?xml version="1.0" encoding="UTF-8" standalone="no"?>
<!DOCTYPE svg PUBLIC "-//W3C//DTD SVG 1.1//EN"
 "http://www.w3.org/Graphics/SVG/1.1/DTD/svg11.dtd">
<!-- Generated by graphviz version 2.38.0 (20140413.2041)
 -->
<!-- Title: nars.io.StringParser.topRelation Pages: 1 -->
<!--zoomable 121 -->
<svg id="main" version="1.1" xmlns="http://www.w3.org/2000/svg" xmlns:xlink="http://www.w3.org/1999/xlink" xml:space="preserve" onload="init(evt)">
<style type="text/css"><![CDATA[
.edge:hover path { stroke: red; }
.edge:hover polygon { stroke: red; fill: red; }
]]></style>
<script type="text/javascript"><![CDATA[
var edges = document.getElementsByTagName('g');
if (edges && edges.length) {
  for (var i=0;i<edges.length;i++) {
    if (edges[i].id.substr(0,4)=='edge') {
      edges[i].setAttribute('class','edge');
    }
  }
}
]]></script>
        <defs>
                <circle id="rim" cx="0" cy="0" r="7"/>
                <circle id="rim2" cx="0" cy="0" r="3.5"/>
                <g id="zoomPlus">
                        <use xlink:href="#rim" fill="#404040">
                                <set attributeName="fill" to="#808080" begin="zoomplus.mouseover" end="zoomplus.mouseout"/>
                        </use>
                        <path d="M-4,0h8M0,-4v8" fill="none" stroke="white" stroke-width="1.5" pointer-events="none"/>
                </g>
                <g id="zoomMin">
                        <use xlink:href="#rim" fill="#404040">
                                <set attributeName="fill" to="#808080" begin="zoomminus.mouseover" end="zoomminus.mouseout"/>
                        </use>
                        <path d="M-4,0h8" fill="none" stroke="white" stroke-width="1.5" pointer-events="none"/>
                </g>
                <g id="dirArrow">
                        <path fill="none" stroke="white" stroke-width="1.5" d="M0,-3.0v7 M-2.5,-0.5L0,-3.0L2.5,-0.5"/>
                </g>
               <g id="resetDef">
                       <use xlink:href="#rim2" fill="#404040">
                               <set attributeName="fill" to="#808080" begin="reset.mouseover" end="reset.mouseout"/>
                       </use>
               </g>
        </defs>

<script type="text/javascript">
var viewWidth = 1257;
var viewHeight = 121;
var sectionId = 'dynsection-29';
</script>
<script xlink:href="../../svgpan.js"/>
<svg id="graph" class="graph">
<g id="viewport">
<title>nars.io.StringParser.topRelation</title>
<!-- Node390 -->
<g id="node1" class="node"><title>Node390</title>
<polygon fill="#bfbfbf" stroke="black" points="0,-60.5 0,-90.5 119,-90.5 119,-60.5 0,-60.5"/>
<text text-anchor="start" x="8" y="-78.5" font-family="Helvetica,sans-Serif" font-size="10.00">nars.io.StringParser.top</text>
<text text-anchor="middle" x="59.5" y="-67.5" font-family="Helvetica,sans-Serif" font-size="10.00">Relation</text>
</g>
<!-- Node391 -->
<g id="node2" class="node"><title>Node391</title>
<g id="a_node2"><a xlink:href="../../d8/d0a/a00292.html#a7c129938c8d721e3db0a9804988f0588" target="_top" xlink:title="Parse a String to create a Statement. ">
<polygon fill="none" stroke="black" points="155,-60.5 155,-90.5 285,-90.5 285,-60.5 155,-60.5"/>
<text text-anchor="start" x="163" y="-78.5" font-family="Helvetica,sans-Serif" font-size="10.00">nars.io.StringParser.parse</text>
<text text-anchor="middle" x="220" y="-67.5" font-family="Helvetica,sans-Serif" font-size="10.00">Statement</text>
</a>
</g>
</g>
<!-- Node390&#45;&gt;Node391 -->
<g id="edge1" class="edge"><title>Node390&#45;&gt;Node391</title>
<path fill="none" stroke="midnightblue" d="M129.297,-75.5C137.771,-75.5 146.406,-75.5 154.807,-75.5"/>
<polygon fill="midnightblue" stroke="midnightblue" points="129.069,-72.0001 119.069,-75.5 129.069,-79.0001 129.069,-72.0001"/>
</g>
<!-- Node392 -->
<g id="node3" class="node"><title>Node392</title>
<g id="a_node3"><a xlink:href="../../d8/d0a/a00292.html#a5c31494d6f7862dcf15a4d5716b6200e" target="_top" xlink:title="Top&#45;level method that parse a Term in general, which may recursively call itself. ...">
<polygon fill="none" stroke="black" points="321,-66 321,-85 473,-85 473,-66 321,-66"/>
<text text-anchor="middle" x="397" y="-73" font-family="Helvetica,sans-Serif" font-size="10.00">nars.io.StringParser.parseTerm</text>
</a>
</g>
</g>
<!-- Node391&#45;&gt;Node392 -->
<g id="edge2" class="edge"><title>Node391&#45;&gt;Node392</title>
<path fill="none" stroke="midnightblue" d="M295.363,-68.8181C303.805,-68.73 312.414,-68.7274 320.866,-68.8103"/>
<polygon fill="midnightblue" stroke="midnightblue" points="295.117,-65.3212 285.17,-68.9679 295.22,-72.3205 295.117,-65.3212"/>
</g>
<!-- Node392&#45;&gt;Node391 -->
<g id="edge7" class="edge"><title>Node392&#45;&gt;Node391</title>
<path fill="none" stroke="midnightblue" d="M310.781,-82.248C302.162,-82.2634 293.513,-82.1914 285.17,-82.0321"/>
<polygon fill="midnightblue" stroke="midnightblue" points="310.886,-85.7475 320.866,-82.1897 310.846,-78.7476 310.886,-85.7475"/>
</g>
<!-- Node393 -->
<g id="node4" class="node"><title>Node393</title>
<g id="a_node4"><a xlink:href="../../d8/d0a/a00292.html#a9b9bc5f94ac6aaa86c3d9c2bcd21c332" target="_top" xlink:title="Parse a String into the argument get of a CompoundTerm. ">
<polygon fill="none" stroke="black" points="520,-82.5 520,-112.5 650,-112.5 650,-82.5 520,-82.5"/>
<text text-anchor="start" x="528" y="-100.5" font-family="Helvetica,sans-Serif" font-size="10.00">nars.io.StringParser.parse</text>
<text text-anchor="middle" x="585" y="-89.5" font-family="Helvetica,sans-Serif" font-size="10.00">Arguments</text>
</a>
</g>
</g>
<!-- Node392&#45;&gt;Node393 -->
<g id="edge3" class="edge"><title>Node392&#45;&gt;Node393</title>
<path fill="none" stroke="midnightblue" d="M483.387,-78.8697C495.685,-80.2591 508.163,-81.8281 519.951,-83.4738"/>
<polygon fill="midnightblue" stroke="midnightblue" points="483.438,-75.3545 473.117,-77.747 482.678,-82.3131 483.438,-75.3545"/>
</g>
<!-- Node395 -->
<g id="node6" class="node"><title>Node395</title>
<g id="a_node6"><a xlink:href="../../d8/d0a/a00292.html#a75b446999d71c676a9915ecc75077a7d" target="_top" xlink:title="Enter a new Task in String into the memory, called from InputWindow or locally. ">
<polygon fill="none" stroke="black" points="509,-6 509,-25 661,-25 661,-6 509,-6"/>
<text text-anchor="middle" x="585" y="-13" font-family="Helvetica,sans-Serif" font-size="10.00">nars.io.StringParser.parseTask</text>
</a>
</g>
</g>
<!-- Node392&#45;&gt;Node395 -->
<g id="edge8" class="edge"><title>Node392&#45;&gt;Node395</title>
<path fill="none" stroke="midnightblue" d="M436.868,-62.8528C458.164,-55.934 485.029,-47.2226 509,-39.5 523.834,-34.7209 540.33,-29.4389 554.065,-25.0497"/>
<polygon fill="midnightblue" stroke="midnightblue" points="435.632,-59.5745 427.203,-65.9942 437.795,-66.2317 435.632,-59.5745"/>
</g>
<!-- Node393&#45;&gt;Node392 -->
<g id="edge6" class="edge"><title>Node393&#45;&gt;Node392</title>
<path fill="none" stroke="midnightblue" d="M509.774,-95.3468C483.265,-92.5652 454.634,-88.7738 432.985,-85.0495"/>
<polygon fill="midnightblue" stroke="midnightblue" points="509.509,-98.8378 519.81,-96.3611 510.213,-91.8733 509.509,-98.8378"/>
</g>
<!-- Node394 -->
<g id="node5" class="node"><title>Node394</title>
<g id="a_node5"><a xlink:href="../../d8/d0a/a00292.html#a944bb677dff9f232ce6b896c853e24e0" target="_top" xlink:title="Parse a String to create a CompoundTerm. ">
<polygon fill="none" stroke="black" points="716,-65.5 716,-95.5 846,-95.5 846,-65.5 716,-65.5"/>
<text text-anchor="start" x="724" y="-83.5" font-family="Helvetica,sans-Serif" font-size="10.00">nars.io.StringParser.parse</text>
<text text-anchor="middle" x="781" y="-72.5" font-family="Helvetica,sans-Serif" font-size="10.00">CompoundTerm</text>
</a>
</g>
</g>
<!-- Node393&#45;&gt;Node394 -->
<g id="edge4" class="edge"><title>Node393&#45;&gt;Node394</title>
<path fill="none" stroke="midnightblue" d="M660.096,-91.007C678.407,-89.4025 697.873,-87.6967 715.676,-86.1367"/>
<polygon fill="midnightblue" stroke="midnightblue" points="659.717,-87.5268 650.061,-91.8865 660.328,-94.5001 659.717,-87.5268"/>
</g>
<!-- Node394&#45;&gt;Node392 -->
<g id="edge5" class="edge"><title>Node394&#45;&gt;Node392</title>
<path fill="none" stroke="midnightblue" d="M705.68,-75.4534C690.884,-74.6392 675.455,-73.9248 661,-73.5 593.474,-71.5156 576.553,-72.8915 509,-73.5 497.436,-73.6042 485.195,-73.7694 473.23,-73.9613"/>
<polygon fill="midnightblue" stroke="midnightblue" points="705.618,-78.9555 715.801,-76.0308 706.017,-71.9669 705.618,-78.9555"/>
</g>
<!-- Node396 -->
<g id="node7" class="node"><title>Node396</title>
<g id="a_node7"><a xlink:href="../../df/d15/a00416.html#a4766dfcaabdf586d60b9ac9827e41cad" target="_top" xlink:title="Parse a line of input experience. ">
<polygon fill="none" stroke="black" points="697,-0.5 697,-30.5 865,-30.5 865,-0.5 697,-0.5"/>
<text text-anchor="start" x="705" y="-18.5" font-family="Helvetica,sans-Serif" font-size="10.00">nars.storage.ReasonerBatch.parse</text>
<text text-anchor="middle" x="781" y="-7.5" font-family="Helvetica,sans-Serif" font-size="10.00">Experience</text>
</a>
</g>
</g>
<!-- Node395&#45;&gt;Node396 -->
<g id="edge9" class="edge"><title>Node395&#45;&gt;Node396</title>
<path fill="none" stroke="midnightblue" d="M671.272,-15.5C679.753,-15.5 688.355,-15.5 696.814,-15.5"/>
<polygon fill="midnightblue" stroke="midnightblue" points="671.005,-12.0001 661.005,-15.5 671.005,-19.0001 671.005,-12.0001"/>
</g>
<!-- Node397 -->
<g id="node8" class="node"><title>Node397</title>
<g id="a_node8"><a xlink:href="../../df/d15/a00416.html#a1823f1575021b1ca67e6174923923fbb" target="_top" xlink:title="To process a line of input text. ">
<polygon fill="none" stroke="black" points="901,-0.5 901,-30.5 1062,-30.5 1062,-0.5 901,-0.5"/>
<text text-anchor="start" x="909" y="-18.5" font-family="Helvetica,sans-Serif" font-size="10.00">nars.storage.ReasonerBatch.text</text>
<text text-anchor="middle" x="981.5" y="-7.5" font-family="Helvetica,sans-Serif" font-size="10.00">InputLine</text>
</a>
</g>
</g>
<!-- Node396&#45;&gt;Node397 -->
<g id="edge10" class="edge"><title>Node396&#45;&gt;Node397</title>
<path fill="none" stroke="midnightblue" d="M875.131,-15.5C883.772,-15.5 892.476,-15.5 900.978,-15.5"/>
<polygon fill="midnightblue" stroke="midnightblue" points="875.032,-12.0001 865.032,-15.5 875.032,-19.0001 875.032,-12.0001"/>
</g>
<!-- Node398 -->
<g id="node9" class="node"><title>Node398</title>
<g id="a_node9"><a xlink:href="../../d9/dd6/a00272.html#a1a4b66a6e6cf89d5c2ea7a5923195247" target="_top" xlink:title="Process the next chunk of input data TODO duplicated code with InputWindow#nextInput(). ">
<polygon fill="none" stroke="black" points="1098,-0.5 1098,-30.5 1249,-30.5 1249,-0.5 1098,-0.5"/>
<text text-anchor="start" x="1106" y="-18.5" font-family="Helvetica,sans-Serif" font-size="10.00">nars.io.ExperienceReader.next</text>
<text text-anchor="middle" x="1173.5" y="-7.5" font-family="Helvetica,sans-Serif" font-size="10.00">Input</text>
</a>
</g>
</g>
<!-- Node397&#45;&gt;Node398 -->
<g id="edge11" class="edge"><title>Node397&#45;&gt;Node398</title>
<path fill="none" stroke="midnightblue" d="M1072.53,-15.5C1080.99,-15.5 1089.51,-15.5 1097.81,-15.5"/>
<polygon fill="midnightblue" stroke="midnightblue" points="1072.25,-12.0001 1062.25,-15.5 1072.25,-19.0001 1072.25,-12.0001"/>
</g>
</g>
</svg>
        <g id="navigator" transform="translate(0 0)" fill="#404254">
                <rect fill="#f2f5e9" fill-opacity="0.5" stroke="#606060" stroke-width=".5" x="0" y="0" width="60" height="60"/>
                <use id="zoomplus" xlink:href="#zoomPlus" x="17" y="9" onmousedown="handleZoom(evt,'in')"/>
                <use id="zoomminus" xlink:href="#zoomMin" x="42" y="9" onmousedown="handleZoom(evt,'out')"/>
                <use id="reset" xlink:href="#resetDef" x="30" y="36" onmousedown="handleReset()"/>
                <g id="arrowUp" xlink:href="#dirArrow" transform="translate(30 24)" onmousedown="handlePan(0,-1)">
                  <use xlink:href="#rim" fill="#404040">
                        <set attributeName="fill" to="#808080" begin="arrowUp.mouseover" end="arrowUp.mouseout"/>
                  </use>
                  <path fill="none" stroke="white" stroke-width="1.5" d="M0,-3.0v7 M-2.5,-0.5L0,-3.0L2.5,-0.5"/>
                </g>
                <g id="arrowRight" xlink:href="#dirArrow" transform="rotate(90) translate(36 -43)" onmousedown="handlePan(1,0)">
                  <use xlink:href="#rim" fill="#404040">
                        <set attributeName="fill" to="#808080" begin="arrowRight.mouseover" end="arrowRight.mouseout"/>
                  </use>
                  <path fill="none" stroke="white" stroke-width="1.5" d="M0,-3.0v7 M-2.5,-0.5L0,-3.0L2.5,-0.5"/>
                </g>
                <g id="arrowDown" xlink:href="#dirArrow" transform="rotate(180) translate(-30 -48)" onmousedown="handlePan(0,1)">
                  <use xlink:href="#rim" fill="#404040">
                        <set attributeName="fill" to="#808080" begin="arrowDown.mouseover" end="arrowDown.mouseout"/>
                  </use>
                  <path fill="none" stroke="white" stroke-width="1.5" d="M0,-3.0v7 M-2.5,-0.5L0,-3.0L2.5,-0.5"/>
                </g>
                <g id="arrowLeft" xlink:href="#dirArrow" transform="rotate(270) translate(-36 17)" onmousedown="handlePan(-1,0)">
                  <use xlink:href="#rim" fill="#404040">
                        <set attributeName="fill" to="#808080" begin="arrowLeft.mouseover" end="arrowLeft.mouseout"/>
                  </use>
                  <path fill="none" stroke="white" stroke-width="1.5" d="M0,-3.0v7 M-2.5,-0.5L0,-3.0L2.5,-0.5"/>
                </g>
        </g>
        <svg viewBox="0 0 15 15" width="100%" height="30px" preserveAspectRatio="xMaxYMin meet">
         <g id="arrow_out" transform="scale(0.3 0.3)">
          <a xlink:href="a00292_a841830a5d2348da4024f4db083b37c2a_icgraph_org.svg" target="_base">
           <rect id="button" ry="5" rx="5" y="6" x="6" height="38" width="38"
                fill="#f2f5e9" fill-opacity="0.5" stroke="#606060" stroke-width="1.0"/>
           <path id="arrow"
             d="M 11.500037,31.436501 C 11.940474,20.09759 22.043105,11.32322 32.158766,21.979434 L 37.068811,17.246167 C 37.068811,17.246167 37.088388,32 37.088388,32 L 22.160133,31.978069 C 22.160133,31.978069 26.997745,27.140456 26.997745,27.140456 C 18.528582,18.264221 13.291696,25.230495 11.500037,31.436501 z"
             style="fill:#404040;"/>
          </a>
         </g>
        </svg>
</svg>
