<?xml version="1.0" encoding="UTF-8" standalone="no"?>
<!DOCTYPE svg PUBLIC "-//W3C//DTD SVG 1.1//EN"
 "http://www.w3.org/Graphics/SVG/1.1/DTD/svg11.dtd">
<!-- Generated by graphviz version 2.38.0 (20140413.2041)
 -->
<!-- Title: nars.io.StringParser.parseArguments Pages: 1 -->
<svg width="1268pt" height="92pt"
 viewBox="0.00 0.00 1268.00 92.00" xmlns="http://www.w3.org/2000/svg" xmlns:xlink="http://www.w3.org/1999/xlink">
<g id="graph0" class="graph" transform="scale(1 1) rotate(0) translate(4 88)">
<title>nars.io.StringParser.parseArguments</title>
<!-- Node120 -->
<g id="node1" class="node"><title>Node120</title>
<polygon fill="#bfbfbf" stroke="black" points="0,-0.5 0,-30.5 130,-30.5 130,-0.5 0,-0.5"/>
<text text-anchor="start" x="8" y="-18.5" font-family="Helvetica,sans-Serif" font-size="10.00">nars.io.StringParser.parse</text>
<text text-anchor="middle" x="65" y="-7.5" font-family="Helvetica,sans-Serif" font-size="10.00">Arguments</text>
</g>
<!-- Node121 -->
<g id="node2" class="node"><title>Node121</title>
<g id="a_node2"><a xlink:href="../../d8/d0a/a00292.html#a944bb677dff9f232ce6b896c853e24e0" target="_top" xlink:title="Parse a String to create a CompoundTerm. ">
<polygon fill="none" stroke="black" points="166,-53.5 166,-83.5 296,-83.5 296,-53.5 166,-53.5"/>
<text text-anchor="start" x="174" y="-71.5" font-family="Helvetica,sans-Serif" font-size="10.00">nars.io.StringParser.parse</text>
<text text-anchor="middle" x="231" y="-60.5" font-family="Helvetica,sans-Serif" font-size="10.00">CompoundTerm</text>
</a>
</g>
</g>
<!-- Node120&#45;&gt;Node121 -->
<g id="edge1" class="edge"><title>Node120&#45;&gt;Node121</title>
<path fill="none" stroke="midnightblue" d="M122.136,-33.6414C142.067,-40.0827 164.27,-47.2581 183.326,-53.4165"/>
<polygon fill="midnightblue" stroke="midnightblue" points="123.149,-30.2907 112.557,-30.5459 120.996,-36.9515 123.149,-30.2907"/>
</g>
<!-- Node122 -->
<g id="node3" class="node"><title>Node122</title>
<g id="a_node3"><a xlink:href="../../d8/d0a/a00292.html#a5c31494d6f7862dcf15a4d5716b6200e" target="_top" xlink:title="Top&#45;level method that parse a Term in general, which may recursively call itself. ...">
<polygon fill="none" stroke="black" points="332,-6 332,-25 484,-25 484,-6 332,-6"/>
<text text-anchor="middle" x="408" y="-13" font-family="Helvetica,sans-Serif" font-size="10.00">nars.io.StringParser.parseTerm</text>
</a>
</g>
</g>
<!-- Node120&#45;&gt;Node122 -->
<g id="edge10" class="edge"><title>Node120&#45;&gt;Node122</title>
<path fill="none" stroke="midnightblue" d="M140.476,-9.80951C197.2,-8.40237 274.964,-8.39685 331.853,-9.79296"/>
<polygon fill="midnightblue" stroke="midnightblue" points="140.041,-6.31989 130.139,-10.0885 140.23,-13.3173 140.041,-6.31989"/>
</g>
<!-- Node121&#45;&gt;Node122 -->
<g id="edge2" class="edge"><title>Node121&#45;&gt;Node122</title>
<path fill="none" stroke="midnightblue" d="M291.433,-50.5004C319.579,-41.9761 352.058,-32.1395 375.404,-25.0691"/>
<polygon fill="midnightblue" stroke="midnightblue" points="290.236,-47.2057 281.68,-53.4541 292.265,-53.9052 290.236,-47.2057"/>
</g>
<!-- Node122&#45;&gt;Node120 -->
<g id="edge9" class="edge"><title>Node122&#45;&gt;Node120</title>
<path fill="none" stroke="midnightblue" d="M321.736,-21.4362C262.317,-22.6745 184.306,-22.4996 130.139,-20.9115"/>
<polygon fill="midnightblue" stroke="midnightblue" points="321.935,-24.9326 331.853,-21.207 321.776,-17.9344 321.935,-24.9326"/>
</g>
<!-- Node123 -->
<g id="node4" class="node"><title>Node123</title>
<g id="a_node4"><a xlink:href="../../d8/d0a/a00292.html#a75b446999d71c676a9915ecc75077a7d" target="_top" xlink:title="Enter a new Task in String into the memory, called from InputWindow or locally. ">
<polygon fill="none" stroke="black" points="520,-50 520,-69 672,-69 672,-50 520,-50"/>
<text text-anchor="middle" x="596" y="-57" font-family="Helvetica,sans-Serif" font-size="10.00">nars.io.StringParser.parseTask</text>
</a>
</g>
</g>
<!-- Node122&#45;&gt;Node123 -->
<g id="edge3" class="edge"><title>Node122&#45;&gt;Node123</title>
<path fill="none" stroke="midnightblue" d="M459.205,-27.3764C489.167,-34.4642 526.708,-43.3448 554.72,-49.9713"/>
<polygon fill="midnightblue" stroke="midnightblue" points="459.896,-23.9435 449.359,-25.0473 458.285,-30.7555 459.896,-23.9435"/>
</g>
<!-- Node127 -->
<g id="node8" class="node"><title>Node127</title>
<g id="a_node8"><a xlink:href="../../d8/d0a/a00292.html#a7c129938c8d721e3db0a9804988f0588" target="_top" xlink:title="Parse a String to create a Statement. ">
<polygon fill="none" stroke="black" points="531,-0.5 531,-30.5 661,-30.5 661,-0.5 531,-0.5"/>
<text text-anchor="start" x="539" y="-18.5" font-family="Helvetica,sans-Serif" font-size="10.00">nars.io.StringParser.parse</text>
<text text-anchor="middle" x="596" y="-7.5" font-family="Helvetica,sans-Serif" font-size="10.00">Statement</text>
</a>
</g>
</g>
<!-- Node122&#45;&gt;Node127 -->
<g id="edge7" class="edge"><title>Node122&#45;&gt;Node127</title>
<path fill="none" stroke="midnightblue" d="M494.387,-8.77014C506.685,-8.70493 519.163,-8.79805 530.951,-9.04951"/>
<polygon fill="midnightblue" stroke="midnightblue" points="494.085,-5.27261 484.117,-8.86216 494.148,-12.2723 494.085,-5.27261"/>
</g>
<!-- Node124 -->
<g id="node5" class="node"><title>Node124</title>
<g id="a_node5"><a xlink:href="../../df/d15/a00416.html#a4766dfcaabdf586d60b9ac9827e41cad" target="_top" xlink:title="Parse a line of input experience. ">
<polygon fill="none" stroke="black" points="708,-44.5 708,-74.5 876,-74.5 876,-44.5 708,-44.5"/>
<text text-anchor="start" x="716" y="-62.5" font-family="Helvetica,sans-Serif" font-size="10.00">nars.storage.ReasonerBatch.parse</text>
<text text-anchor="middle" x="792" y="-51.5" font-family="Helvetica,sans-Serif" font-size="10.00">Experience</text>
</a>
</g>
</g>
<!-- Node123&#45;&gt;Node124 -->
<g id="edge4" class="edge"><title>Node123&#45;&gt;Node124</title>
<path fill="none" stroke="midnightblue" d="M682.272,-59.5C690.753,-59.5 699.355,-59.5 707.814,-59.5"/>
<polygon fill="midnightblue" stroke="midnightblue" points="682.005,-56.0001 672.005,-59.5 682.005,-63.0001 682.005,-56.0001"/>
</g>
<!-- Node125 -->
<g id="node6" class="node"><title>Node125</title>
<g id="a_node6"><a xlink:href="../../df/d15/a00416.html#a1823f1575021b1ca67e6174923923fbb" target="_top" xlink:title="To process a line of input text. ">
<polygon fill="none" stroke="black" points="912,-44.5 912,-74.5 1073,-74.5 1073,-44.5 912,-44.5"/>
<text text-anchor="start" x="920" y="-62.5" font-family="Helvetica,sans-Serif" font-size="10.00">nars.storage.ReasonerBatch.text</text>
<text text-anchor="middle" x="992.5" y="-51.5" font-family="Helvetica,sans-Serif" font-size="10.00">InputLine</text>
</a>
</g>
</g>
<!-- Node124&#45;&gt;Node125 -->
<g id="edge5" class="edge"><title>Node124&#45;&gt;Node125</title>
<path fill="none" stroke="midnightblue" d="M886.131,-59.5C894.772,-59.5 903.476,-59.5 911.978,-59.5"/>
<polygon fill="midnightblue" stroke="midnightblue" points="886.032,-56.0001 876.032,-59.5 886.032,-63.0001 886.032,-56.0001"/>
</g>
<!-- Node126 -->
<g id="node7" class="node"><title>Node126</title>
<g id="a_node7"><a xlink:href="../../d9/dd6/a00272.html#a1a4b66a6e6cf89d5c2ea7a5923195247" target="_top" xlink:title="Process the next chunk of input data TODO duplicated code with InputWindow#nextInput(). ">
<polygon fill="none" stroke="black" points="1109,-44.5 1109,-74.5 1260,-74.5 1260,-44.5 1109,-44.5"/>
<text text-anchor="start" x="1117" y="-62.5" font-family="Helvetica,sans-Serif" font-size="10.00">nars.io.ExperienceReader.next</text>
<text text-anchor="middle" x="1184.5" y="-51.5" font-family="Helvetica,sans-Serif" font-size="10.00">Input</text>
</a>
</g>
</g>
<!-- Node125&#45;&gt;Node126 -->
<g id="edge6" class="edge"><title>Node125&#45;&gt;Node126</title>
<path fill="none" stroke="midnightblue" d="M1083.53,-59.5C1091.99,-59.5 1100.51,-59.5 1108.81,-59.5"/>
<polygon fill="midnightblue" stroke="midnightblue" points="1083.25,-56.0001 1073.25,-59.5 1083.25,-63.0001 1083.25,-56.0001"/>
</g>
<!-- Node127&#45;&gt;Node122 -->
<g id="edge8" class="edge"><title>Node127&#45;&gt;Node122</title>
<path fill="none" stroke="midnightblue" d="M520.906,-22.1245C508.8,-22.2873 496.248,-22.2917 484.117,-22.1378"/>
<polygon fill="midnightblue" stroke="midnightblue" points="521.013,-25.6232 530.951,-21.9505 520.892,-18.6243 521.013,-25.6232"/>
</g>
</g>
</svg>
