<?xml version="1.0" encoding="UTF-8" standalone="no"?>
<!DOCTYPE svg PUBLIC "-//W3C//DTD SVG 1.1//EN"
 "http://www.w3.org/Graphics/SVG/1.1/DTD/svg11.dtd">
<!-- Generated by graphviz version 2.38.0 (20140413.2041)
 -->
<!-- Title: nars.io.StringParser.isRelation Pages: 1 -->
<!--zoomable 121 -->
<svg id="main" version="1.1" xmlns="http://www.w3.org/2000/svg" xmlns:xlink="http://www.w3.org/1999/xlink" xml:space="preserve" onload="init(evt)">
<style type="text/css"><![CDATA[
.edge:hover path { stroke: red; }
.edge:hover polygon { stroke: red; fill: red; }
]]></style>
<script type="text/javascript"><![CDATA[
var edges = document.getElementsByTagName('g');
if (edges && edges.length) {
  for (var i=0;i<edges.length;i++) {
    if (edges[i].id.substr(0,4)=='edge') {
      edges[i].setAttribute('class','edge');
    }
  }
}
]]></script>
        <defs>
                <circle id="rim" cx="0" cy="0" r="7"/>
                <circle id="rim2" cx="0" cy="0" r="3.5"/>
                <g id="zoomPlus">
                        <use xlink:href="#rim" fill="#404040">
                                <set attributeName="fill" to="#808080" begin="zoomplus.mouseover" end="zoomplus.mouseout"/>
                        </use>
                        <path d="M-4,0h8M0,-4v8" fill="none" stroke="white" stroke-width="1.5" pointer-events="none"/>
                </g>
                <g id="zoomMin">
                        <use xlink:href="#rim" fill="#404040">
                                <set attributeName="fill" to="#808080" begin="zoomminus.mouseover" end="zoomminus.mouseout"/>
                        </use>
                        <path d="M-4,0h8" fill="none" stroke="white" stroke-width="1.5" pointer-events="none"/>
                </g>
                <g id="dirArrow">
                        <path fill="none" stroke="white" stroke-width="1.5" d="M0,-3.0v7 M-2.5,-0.5L0,-3.0L2.5,-0.5"/>
                </g>
               <g id="resetDef">
                       <use xlink:href="#rim2" fill="#404040">
                               <set attributeName="fill" to="#808080" begin="reset.mouseover" end="reset.mouseout"/>
                       </use>
               </g>
        </defs>

<script type="text/javascript">
var viewWidth = 1795;
var viewHeight = 121;
var sectionId = 'dynsection-9';
</script>
<script xlink:href="../../svgpan.js"/>
<svg id="graph" class="graph">
<g id="viewport">
<title>nars.io.StringParser.isRelation</title>
<!-- Node49 -->
<g id="node1" class="node"><title>Node49</title>
<polygon fill="#bfbfbf" stroke="black" points="0,-31 0,-50 149,-50 149,-31 0,-31"/>
<text text-anchor="middle" x="74.5" y="-38" font-family="Helvetica,sans-Serif" font-size="10.00">nars.io.StringParser.isRelation</text>
</g>
<!-- Node50 -->
<g id="node2" class="node"><title>Node50</title>
<g id="a_node2"><a xlink:href="../../d8/d0a/a00292.html#aa579e2d90aa176b8fa99af6fda484bf7" target="_top" xlink:title="Check CompoundTerm closer symbol. ">
<polygon fill="none" stroke="black" points="186.5,-31 186.5,-50 328.5,-50 328.5,-31 186.5,-31"/>
<text text-anchor="middle" x="257.5" y="-38" font-family="Helvetica,sans-Serif" font-size="10.00">nars.io.StringParser.isCloser</text>
</a>
</g>
</g>
<!-- Node49&#45;&gt;Node50 -->
<g id="edge1" class="edge"><title>Node49&#45;&gt;Node50</title>
<path fill="none" stroke="midnightblue" d="M159.313,-40.5C168.393,-40.5 177.564,-40.5 186.456,-40.5"/>
<polygon fill="midnightblue" stroke="midnightblue" points="159.12,-37.0001 149.12,-40.5 159.12,-44.0001 159.12,-37.0001"/>
</g>
<!-- Node60 -->
<g id="node12" class="node"><title>Node60</title>
<g id="a_node12"><a xlink:href="../../d8/d0a/a00292.html#a841830a5d2348da4024f4db083b37c2a" target="_top" xlink:title="locate the top&#45;level relation in a statement ">
<polygon fill="none" stroke="black" points="369,-0.5 369,-30.5 488,-30.5 488,-0.5 369,-0.5"/>
<text text-anchor="start" x="377" y="-18.5" font-family="Helvetica,sans-Serif" font-size="10.00">nars.io.StringParser.top</text>
<text text-anchor="middle" x="428.5" y="-7.5" font-family="Helvetica,sans-Serif" font-size="10.00">Relation</text>
</a>
</g>
</g>
<!-- Node49&#45;&gt;Node60 -->
<g id="edge19" class="edge"><title>Node49&#45;&gt;Node60</title>
<path fill="none" stroke="midnightblue" d="M131.251,-29.1958C148.417,-26.1556 167.424,-23.2328 185,-21.5 247.446,-15.3435 319.351,-14.321 368.549,-14.5417"/>
<polygon fill="midnightblue" stroke="midnightblue" points="130.592,-25.758 121.38,-30.9913 131.845,-32.645 130.592,-25.758"/>
</g>
<!-- Node61 -->
<g id="node13" class="node"><title>Node61</title>
<g id="a_node13"><a xlink:href="../../d8/d0a/a00292.html#ae9b91054186389c3930bc2aaecd4aee8" target="_top" xlink:title="Check CompoundTerm opener symbol. ">
<polygon fill="none" stroke="black" points="185,-69 185,-88 330,-88 330,-69 185,-69"/>
<text text-anchor="middle" x="257.5" y="-76" font-family="Helvetica,sans-Serif" font-size="10.00">nars.io.StringParser.isOpener</text>
</a>
</g>
</g>
<!-- Node49&#45;&gt;Node61 -->
<g id="edge16" class="edge"><title>Node49&#45;&gt;Node61</title>
<path fill="none" stroke="midnightblue" d="M131.138,-52.181C156.807,-57.5699 186.891,-63.8861 211.154,-68.9799"/>
<polygon fill="midnightblue" stroke="midnightblue" points="131.68,-48.7184 121.174,-50.089 130.241,-55.5691 131.68,-48.7184"/>
</g>
<!-- Node51 -->
<g id="node3" class="node"><title>Node51</title>
<g id="a_node3"><a xlink:href="../../d8/d0a/a00292.html#aa197c4c362373f0e74165794ba7b033a" target="_top" xlink:title="Locate the first top&#45;level separator in a CompoundTerm. ">
<polygon fill="none" stroke="black" points="366,-63.5 366,-93.5 491,-93.5 491,-63.5 366,-63.5"/>
<text text-anchor="start" x="374" y="-81.5" font-family="Helvetica,sans-Serif" font-size="10.00">nars.io.StringParser.next</text>
<text text-anchor="middle" x="428.5" y="-70.5" font-family="Helvetica,sans-Serif" font-size="10.00">Separator</text>
</a>
</g>
</g>
<!-- Node50&#45;&gt;Node51 -->
<g id="edge2" class="edge"><title>Node50&#45;&gt;Node51</title>
<path fill="none" stroke="midnightblue" d="M311.067,-52.3199C328.376,-56.2117 347.78,-60.5747 365.71,-64.6064"/>
<polygon fill="midnightblue" stroke="midnightblue" points="311.67,-48.8681 301.146,-50.089 310.134,-55.6976 311.67,-48.8681"/>
</g>
<!-- Node50&#45;&gt;Node60 -->
<g id="edge14" class="edge"><title>Node50&#45;&gt;Node60</title>
<path fill="none" stroke="midnightblue" d="M332.9,-29.4941C344.939,-27.7132 357.256,-25.8912 368.853,-24.1755"/>
<polygon fill="midnightblue" stroke="midnightblue" points="332.254,-26.0515 322.874,-30.9773 333.278,-32.9761 332.254,-26.0515"/>
</g>
<!-- Node52 -->
<g id="node4" class="node"><title>Node52</title>
<g id="a_node4"><a xlink:href="../../d8/d0a/a00292.html#a9b9bc5f94ac6aaa86c3d9c2bcd21c332" target="_top" xlink:title="Parse a String into the argument get of a CompoundTerm. ">
<polygon fill="none" stroke="black" points="527,-75.5 527,-105.5 657,-105.5 657,-75.5 527,-75.5"/>
<text text-anchor="start" x="535" y="-93.5" font-family="Helvetica,sans-Serif" font-size="10.00">nars.io.StringParser.parse</text>
<text text-anchor="middle" x="592" y="-82.5" font-family="Helvetica,sans-Serif" font-size="10.00">Arguments</text>
</a>
</g>
</g>
<!-- Node51&#45;&gt;Node52 -->
<g id="edge3" class="edge"><title>Node51&#45;&gt;Node52</title>
<path fill="none" stroke="midnightblue" d="M501.058,-83.817C509.688,-84.4582 518.459,-85.11 526.972,-85.7425"/>
<polygon fill="midnightblue" stroke="midnightblue" points="501.249,-80.3216 491.017,-83.0709 500.73,-87.3024 501.249,-80.3216"/>
</g>
<!-- Node53 -->
<g id="node5" class="node"><title>Node53</title>
<g id="a_node5"><a xlink:href="../../d8/d0a/a00292.html#a5c31494d6f7862dcf15a4d5716b6200e" target="_top" xlink:title="Top&#45;level method that parse a Term in general, which may recursively call itself. ...">
<polygon fill="none" stroke="black" points="859,-66 859,-85 1011,-85 1011,-66 859,-66"/>
<text text-anchor="middle" x="935" y="-73" font-family="Helvetica,sans-Serif" font-size="10.00">nars.io.StringParser.parseTerm</text>
</a>
</g>
</g>
<!-- Node52&#45;&gt;Node53 -->
<g id="edge4" class="edge"><title>Node52&#45;&gt;Node53</title>
<path fill="none" stroke="midnightblue" d="M667.124,-81.5577C723.877,-77.6453 801.846,-74.2072 858.853,-73.0986"/>
<polygon fill="midnightblue" stroke="midnightblue" points="666.866,-78.0671 657.139,-82.2672 667.362,-85.0495 666.866,-78.0671"/>
</g>
<!-- Node59 -->
<g id="node11" class="node"><title>Node59</title>
<g id="a_node11"><a xlink:href="../../d8/d0a/a00292.html#a944bb677dff9f232ce6b896c853e24e0" target="_top" xlink:title="Parse a String to create a CompoundTerm. ">
<polygon fill="none" stroke="black" points="693,-34.5 693,-64.5 823,-64.5 823,-34.5 693,-34.5"/>
<text text-anchor="start" x="701" y="-52.5" font-family="Helvetica,sans-Serif" font-size="10.00">nars.io.StringParser.parse</text>
<text text-anchor="middle" x="758" y="-41.5" font-family="Helvetica,sans-Serif" font-size="10.00">CompoundTerm</text>
</a>
</g>
</g>
<!-- Node52&#45;&gt;Node59 -->
<g id="edge12" class="edge"><title>Node52&#45;&gt;Node59</title>
<path fill="none" stroke="midnightblue" d="M662.954,-73.0116C674.242,-70.1895 685.841,-67.2897 696.871,-64.5323"/>
<polygon fill="midnightblue" stroke="midnightblue" points="661.989,-69.645 653.136,-75.4659 663.687,-76.436 661.989,-69.645"/>
</g>
<!-- Node53&#45;&gt;Node52 -->
<g id="edge11" class="edge"><title>Node53&#45;&gt;Node52</title>
<path fill="none" stroke="midnightblue" d="M848.736,-85.1868C789.317,-89.0389 711.306,-92.2956 657.139,-93.0901"/>
<polygon fill="midnightblue" stroke="midnightblue" points="849.108,-88.6698 858.853,-84.5126 848.642,-81.6853 849.108,-88.6698"/>
</g>
<!-- Node54 -->
<g id="node6" class="node"><title>Node54</title>
<g id="a_node6"><a xlink:href="../../d8/d0a/a00292.html#a75b446999d71c676a9915ecc75077a7d" target="_top" xlink:title="Enter a new Task in String into the memory, called from InputWindow or locally. ">
<polygon fill="none" stroke="black" points="1047,-88 1047,-107 1199,-107 1199,-88 1047,-88"/>
<text text-anchor="middle" x="1123" y="-95" font-family="Helvetica,sans-Serif" font-size="10.00">nars.io.StringParser.parseTask</text>
</a>
</g>
</g>
<!-- Node53&#45;&gt;Node54 -->
<g id="edge5" class="edge"><title>Node53&#45;&gt;Node54</title>
<path fill="none" stroke="midnightblue" d="M1021.15,-85.5712C1029.74,-86.5877 1038.43,-87.615 1046.9,-88.6178"/>
<polygon fill="midnightblue" stroke="midnightblue" points="1021.46,-82.0838 1011.12,-84.3848 1020.64,-89.0353 1021.46,-82.0838"/>
</g>
<!-- Node58 -->
<g id="node10" class="node"><title>Node58</title>
<g id="a_node10"><a xlink:href="../../d8/d0a/a00292.html#a7c129938c8d721e3db0a9804988f0588" target="_top" xlink:title="Parse a String to create a Statement. ">
<polygon fill="none" stroke="black" points="1058,-38.5 1058,-68.5 1188,-68.5 1188,-38.5 1058,-38.5"/>
<text text-anchor="start" x="1066" y="-56.5" font-family="Helvetica,sans-Serif" font-size="10.00">nars.io.StringParser.parse</text>
<text text-anchor="middle" x="1123" y="-45.5" font-family="Helvetica,sans-Serif" font-size="10.00">Statement</text>
</a>
</g>
</g>
<!-- Node53&#45;&gt;Node58 -->
<g id="edge9" class="edge"><title>Node53&#45;&gt;Node58</title>
<path fill="none" stroke="midnightblue" d="M981.152,-64.2761C1004.17,-60.6378 1032.56,-57.0896 1057.81,-54.6389"/>
<polygon fill="midnightblue" stroke="midnightblue" points="980.283,-60.872 970.985,-65.9505 981.421,-67.7789 980.283,-60.872"/>
</g>
<!-- Node55 -->
<g id="node7" class="node"><title>Node55</title>
<g id="a_node7"><a xlink:href="../../df/d15/a00416.html#a4766dfcaabdf586d60b9ac9827e41cad" target="_top" xlink:title="Parse a line of input experience. ">
<polygon fill="none" stroke="black" points="1235,-82.5 1235,-112.5 1403,-112.5 1403,-82.5 1235,-82.5"/>
<text text-anchor="start" x="1243" y="-100.5" font-family="Helvetica,sans-Serif" font-size="10.00">nars.storage.ReasonerBatch.parse</text>
<text text-anchor="middle" x="1319" y="-89.5" font-family="Helvetica,sans-Serif" font-size="10.00">Experience</text>
</a>
</g>
</g>
<!-- Node54&#45;&gt;Node55 -->
<g id="edge6" class="edge"><title>Node54&#45;&gt;Node55</title>
<path fill="none" stroke="midnightblue" d="M1209.27,-97.5C1217.75,-97.5 1226.36,-97.5 1234.81,-97.5"/>
<polygon fill="midnightblue" stroke="midnightblue" points="1209.01,-94.0001 1199.01,-97.5 1209.01,-101 1209.01,-94.0001"/>
</g>
<!-- Node56 -->
<g id="node8" class="node"><title>Node56</title>
<g id="a_node8"><a xlink:href="../../df/d15/a00416.html#a1823f1575021b1ca67e6174923923fbb" target="_top" xlink:title="To process a line of input text. ">
<polygon fill="none" stroke="black" points="1439,-82.5 1439,-112.5 1600,-112.5 1600,-82.5 1439,-82.5"/>
<text text-anchor="start" x="1447" y="-100.5" font-family="Helvetica,sans-Serif" font-size="10.00">nars.storage.ReasonerBatch.text</text>
<text text-anchor="middle" x="1519.5" y="-89.5" font-family="Helvetica,sans-Serif" font-size="10.00">InputLine</text>
</a>
</g>
</g>
<!-- Node55&#45;&gt;Node56 -->
<g id="edge7" class="edge"><title>Node55&#45;&gt;Node56</title>
<path fill="none" stroke="midnightblue" d="M1413.13,-97.5C1421.77,-97.5 1430.48,-97.5 1438.98,-97.5"/>
<polygon fill="midnightblue" stroke="midnightblue" points="1413.03,-94.0001 1403.03,-97.5 1413.03,-101 1413.03,-94.0001"/>
</g>
<!-- Node57 -->
<g id="node9" class="node"><title>Node57</title>
<g id="a_node9"><a xlink:href="../../d9/dd6/a00272.html#a1a4b66a6e6cf89d5c2ea7a5923195247" target="_top" xlink:title="Process the next chunk of input data TODO duplicated code with InputWindow#nextInput(). ">
<polygon fill="none" stroke="black" points="1636,-82.5 1636,-112.5 1787,-112.5 1787,-82.5 1636,-82.5"/>
<text text-anchor="start" x="1644" y="-100.5" font-family="Helvetica,sans-Serif" font-size="10.00">nars.io.ExperienceReader.next</text>
<text text-anchor="middle" x="1711.5" y="-89.5" font-family="Helvetica,sans-Serif" font-size="10.00">Input</text>
</a>
</g>
</g>
<!-- Node56&#45;&gt;Node57 -->
<g id="edge8" class="edge"><title>Node56&#45;&gt;Node57</title>
<path fill="none" stroke="midnightblue" d="M1610.53,-97.5C1618.99,-97.5 1627.51,-97.5 1635.81,-97.5"/>
<polygon fill="midnightblue" stroke="midnightblue" points="1610.25,-94.0001 1600.25,-97.5 1610.25,-101 1610.25,-94.0001"/>
</g>
<!-- Node58&#45;&gt;Node53 -->
<g id="edge10" class="edge"><title>Node58&#45;&gt;Node53</title>
<path fill="none" stroke="midnightblue" d="M1047.91,-68.8883C1035.8,-70.483 1023.25,-71.9721 1011.12,-73.253"/>
<polygon fill="midnightblue" stroke="midnightblue" points="1048.51,-72.3383 1057.95,-67.5262 1047.57,-65.4017 1048.51,-72.3383"/>
</g>
<!-- Node59&#45;&gt;Node53 -->
<g id="edge13" class="edge"><title>Node59&#45;&gt;Node53</title>
<path fill="none" stroke="midnightblue" d="M833.281,-60.536C845.441,-62.3426 857.949,-64.2011 869.838,-65.9673"/>
<polygon fill="midnightblue" stroke="midnightblue" points="833.576,-57.0415 823.17,-59.0338 832.547,-63.9655 833.576,-57.0415"/>
</g>
<!-- Node60&#45;&gt;Node58 -->
<g id="edge15" class="edge"><title>Node60&#45;&gt;Node58</title>
<path fill="none" stroke="midnightblue" d="M498.481,-15.5384C577.097,-15.9397 709.411,-17.7018 823,-24.5 904.214,-29.3606 997.478,-39.0661 1057.95,-45.9069"/>
<polygon fill="midnightblue" stroke="midnightblue" points="498.239,-12.0374 488.223,-15.4922 498.207,-19.0373 498.239,-12.0374"/>
</g>
<!-- Node61&#45;&gt;Node51 -->
<g id="edge17" class="edge"><title>Node61&#45;&gt;Node51</title>
<path fill="none" stroke="midnightblue" d="M340.251,-78.5C348.872,-78.5 357.53,-78.5 365.867,-78.5"/>
<polygon fill="midnightblue" stroke="midnightblue" points="340.171,-75.0001 330.171,-78.5 340.171,-82.0001 340.171,-75.0001"/>
</g>
<!-- Node61&#45;&gt;Node60 -->
<g id="edge18" class="edge"><title>Node61&#45;&gt;Node60</title>
<path fill="none" stroke="midnightblue" d="M308.681,-66.286C315.893,-64.2067 323.178,-61.9272 330,-59.5 353.095,-51.2829 378.296,-39.8414 397.29,-30.6854"/>
<polygon fill="midnightblue" stroke="midnightblue" points="307.638,-62.9431 298.94,-68.9923 309.512,-69.6876 307.638,-62.9431"/>
</g>
</g>
</svg>
        <g id="navigator" transform="translate(0 0)" fill="#404254">
                <rect fill="#f2f5e9" fill-opacity="0.5" stroke="#606060" stroke-width=".5" x="0" y="0" width="60" height="60"/>
                <use id="zoomplus" xlink:href="#zoomPlus" x="17" y="9" onmousedown="handleZoom(evt,'in')"/>
                <use id="zoomminus" xlink:href="#zoomMin" x="42" y="9" onmousedown="handleZoom(evt,'out')"/>
                <use id="reset" xlink:href="#resetDef" x="30" y="36" onmousedown="handleReset()"/>
                <g id="arrowUp" xlink:href="#dirArrow" transform="translate(30 24)" onmousedown="handlePan(0,-1)">
                  <use xlink:href="#rim" fill="#404040">
                        <set attributeName="fill" to="#808080" begin="arrowUp.mouseover" end="arrowUp.mouseout"/>
                  </use>
                  <path fill="none" stroke="white" stroke-width="1.5" d="M0,-3.0v7 M-2.5,-0.5L0,-3.0L2.5,-0.5"/>
                </g>
                <g id="arrowRight" xlink:href="#dirArrow" transform="rotate(90) translate(36 -43)" onmousedown="handlePan(1,0)">
                  <use xlink:href="#rim" fill="#404040">
                        <set attributeName="fill" to="#808080" begin="arrowRight.mouseover" end="arrowRight.mouseout"/>
                  </use>
                  <path fill="none" stroke="white" stroke-width="1.5" d="M0,-3.0v7 M-2.5,-0.5L0,-3.0L2.5,-0.5"/>
                </g>
                <g id="arrowDown" xlink:href="#dirArrow" transform="rotate(180) translate(-30 -48)" onmousedown="handlePan(0,1)">
                  <use xlink:href="#rim" fill="#404040">
                        <set attributeName="fill" to="#808080" begin="arrowDown.mouseover" end="arrowDown.mouseout"/>
                  </use>
                  <path fill="none" stroke="white" stroke-width="1.5" d="M0,-3.0v7 M-2.5,-0.5L0,-3.0L2.5,-0.5"/>
                </g>
                <g id="arrowLeft" xlink:href="#dirArrow" transform="rotate(270) translate(-36 17)" onmousedown="handlePan(-1,0)">
                  <use xlink:href="#rim" fill="#404040">
                        <set attributeName="fill" to="#808080" begin="arrowLeft.mouseover" end="arrowLeft.mouseout"/>
                  </use>
                  <path fill="none" stroke="white" stroke-width="1.5" d="M0,-3.0v7 M-2.5,-0.5L0,-3.0L2.5,-0.5"/>
                </g>
        </g>
        <svg viewBox="0 0 15 15" width="100%" height="30px" preserveAspectRatio="xMaxYMin meet">
         <g id="arrow_out" transform="scale(0.3 0.3)">
          <a xlink:href="a00292_ae4e1b531a416aaa35056fd3798713098_icgraph_org.svg" target="_base">
           <rect id="button" ry="5" rx="5" y="6" x="6" height="38" width="38"
                fill="#f2f5e9" fill-opacity="0.5" stroke="#606060" stroke-width="1.0"/>
           <path id="arrow"
             d="M 11.500037,31.436501 C 11.940474,20.09759 22.043105,11.32322 32.158766,21.979434 L 37.068811,17.246167 C 37.068811,17.246167 37.088388,32 37.088388,32 L 22.160133,31.978069 C 22.160133,31.978069 26.997745,27.140456 26.997745,27.140456 C 18.528582,18.264221 13.291696,25.230495 11.500037,31.436501 z"
             style="fill:#404040;"/>
          </a>
         </g>
        </svg>
</svg>
