<?xml version="1.0" encoding="UTF-8" standalone="no"?>
<!DOCTYPE svg PUBLIC "-//W3C//DTD SVG 1.1//EN"
 "http://www.w3.org/Graphics/SVG/1.1/DTD/svg11.dtd">
<!-- Generated by graphviz version 2.38.0 (20140413.2041)
 -->
<!-- Title: nars.io.StringParser.parseStatement Pages: 1 -->
<svg width="1398pt" height="725pt"
 viewBox="0.00 0.00 1398.00 724.50" xmlns="http://www.w3.org/2000/svg" xmlns:xlink="http://www.w3.org/1999/xlink">
<g id="graph0" class="graph" transform="scale(1 1) rotate(0) translate(4 720.5)">
<title>nars.io.StringParser.parseStatement</title>
<!-- Node203 -->
<g id="node1" class="node"><title>Node203</title>
<polygon fill="#bfbfbf" stroke="black" points="0,-215.5 0,-245.5 130,-245.5 130,-215.5 0,-215.5"/>
<text text-anchor="start" x="8" y="-233.5" font-family="Helvetica,sans-Serif" font-size="10.00">nars.io.StringParser.parse</text>
<text text-anchor="middle" x="65" y="-222.5" font-family="Helvetica,sans-Serif" font-size="10.00">Statement</text>
</g>
<!-- Node204 -->
<g id="node2" class="node"><title>Node204</title>
<g id="a_node2"><a xlink:href="../../d0/d65/a00360.html#a4e4c29fc305a6741da88ce55fbf11e4a" target="_top" xlink:title="Make a Statement from String, called by StringParser. ">
<polygon fill="none" stroke="black" points="166,-482 166,-501 318,-501 318,-482 166,-482"/>
<text text-anchor="middle" x="242" y="-489" font-family="Helvetica,sans-Serif" font-size="10.00">nars.language.Statement.make</text>
</a>
</g>
</g>
<!-- Node203&#45;&gt;Node204 -->
<g id="edge1" class="edge"><title>Node203&#45;&gt;Node204</title>
<path fill="none" stroke="midnightblue" d="M76.1652,-245.661C106.461,-290.845 196.065,-424.483 228.827,-473.344"/>
<polygon fill="midnightblue" stroke="midnightblue" points="226.11,-475.578 234.587,-481.935 231.925,-471.68 226.11,-475.578"/>
</g>
<!-- Node229 -->
<g id="node27" class="node"><title>Node229</title>
<g id="a_node27"><a xlink:href="../../d8/d0a/a00292.html#a5c31494d6f7862dcf15a4d5716b6200e" target="_top" xlink:title="Top&#45;level method that parse a Term in general, which may recursively call itself. ...">
<polygon fill="none" stroke="black" points="166,-221 166,-240 318,-240 318,-221 166,-221"/>
<text text-anchor="middle" x="242" y="-228" font-family="Helvetica,sans-Serif" font-size="10.00">nars.io.StringParser.parseTerm</text>
</a>
</g>
</g>
<!-- Node203&#45;&gt;Node229 -->
<g id="edge39" class="edge"><title>Node203&#45;&gt;Node229</title>
<path fill="none" stroke="midnightblue" d="M130.17,-223.968C138.513,-223.809 147.162,-223.737 155.781,-223.752"/>
<polygon fill="midnightblue" stroke="midnightblue" points="155.846,-227.252 165.866,-223.81 155.886,-220.252 155.846,-227.252"/>
</g>
<!-- Node247 -->
<g id="node45" class="node"><title>Node247</title>
<g id="a_node45"><a xlink:href="../../d8/d0a/a00292.html#a841830a5d2348da4024f4db083b37c2a" target="_top" xlink:title="locate the top&#45;level relation in a statement ">
<polygon fill="none" stroke="black" points="825,-0.5 825,-30.5 944,-30.5 944,-0.5 825,-0.5"/>
<text text-anchor="start" x="833" y="-18.5" font-family="Helvetica,sans-Serif" font-size="10.00">nars.io.StringParser.top</text>
<text text-anchor="middle" x="884.5" y="-7.5" font-family="Helvetica,sans-Serif" font-size="10.00">Relation</text>
</a>
</g>
</g>
<!-- Node203&#45;&gt;Node247 -->
<g id="edge64" class="edge"><title>Node203&#45;&gt;Node247</title>
<path fill="none" stroke="midnightblue" d="M87.5218,-215.401C133.8,-183.786 247.255,-110.806 354,-77.5 513.736,-27.6591 711.939,-17.2931 814.61,-15.5041"/>
<polygon fill="midnightblue" stroke="midnightblue" points="814.899,-19.0003 824.845,-15.3489 814.793,-12.0011 814.899,-19.0003"/>
</g>
<!-- Node204&#45;&gt;Node204 -->
<g id="edge38" class="edge"><title>Node204&#45;&gt;Node204</title>
<path fill="none" stroke="midnightblue" d="M214.873,-501.257C201.677,-510.065 210.719,-519.5 242,-519.5 263.506,-519.5 274.5,-515.041 274.983,-509.391"/>
<polygon fill="midnightblue" stroke="midnightblue" points="277.81,-507.327 269.127,-501.257 272.129,-511.417 277.81,-507.327"/>
</g>
<!-- Node205 -->
<g id="node3" class="node"><title>Node205</title>
<g id="a_node3"><a xlink:href="../../d0/d65/a00360.html#a96d4bf7bb99f48b6496cdb7457bc0e50" target="_top" xlink:title="Check the validity of a potential Statement. ">
<polygon fill="none" stroke="black" points="806.5,-568.5 806.5,-598.5 962.5,-598.5 962.5,-568.5 806.5,-568.5"/>
<text text-anchor="start" x="814.5" y="-586.5" font-family="Helvetica,sans-Serif" font-size="10.00">nars.language.Statement.invalid</text>
<text text-anchor="middle" x="884.5" y="-575.5" font-family="Helvetica,sans-Serif" font-size="10.00">Statement</text>
</a>
</g>
</g>
<!-- Node204&#45;&gt;Node205 -->
<g id="edge2" class="edge"><title>Node204&#45;&gt;Node205</title>
<path fill="none" stroke="midnightblue" d="M255.509,-501.081C275.254,-515.661 315.381,-543.132 354,-556.5 502.726,-607.984 688.992,-602.74 796.305,-593.578"/>
<polygon fill="midnightblue" stroke="midnightblue" points="796.787,-597.049 806.439,-592.681 796.17,-590.077 796.787,-597.049"/>
</g>
<!-- Node213 -->
<g id="node11" class="node"><title>Node213</title>
<g id="a_node11"><a xlink:href="../../d3/db8/a00316.html#a5ccaf18d33e722f438944debb2757b34" target="_top" xlink:title="Try to make a new compound from two components. ">
<polygon fill="none" stroke="black" points="583,-476 583,-495 738,-495 738,-476 583,-476"/>
<text text-anchor="middle" x="660.5" y="-483" font-family="Helvetica,sans-Serif" font-size="10.00">nars.language.Inheritance.make</text>
</a>
</g>
</g>
<!-- Node204&#45;&gt;Node213 -->
<g id="edge11" class="edge"><title>Node204&#45;&gt;Node213</title>
<path fill="none" stroke="midnightblue" d="M288.141,-501.012C308.208,-504.778 332.181,-508.646 354,-510.5 434.598,-517.348 455.514,-518.565 536,-510.5 561.597,-507.935 589.738,-502.451 612.684,-497.271"/>
<polygon fill="midnightblue" stroke="midnightblue" points="613.549,-500.664 622.505,-495.002 611.973,-493.844 613.549,-500.664"/>
</g>
<!-- Node221 -->
<g id="node19" class="node"><title>Node221</title>
<g id="a_node19"><a xlink:href="../../d6/de1/a00356.html#ae72436d78c25d4735b4201d773dd1901" target="_top" xlink:title="Try to make a new compound from two components. ">
<polygon fill="none" stroke="black" points="586.5,-558 586.5,-577 734.5,-577 734.5,-558 586.5,-558"/>
<text text-anchor="middle" x="660.5" y="-565" font-family="Helvetica,sans-Serif" font-size="10.00">nars.language.Similarity.make</text>
</a>
</g>
</g>
<!-- Node204&#45;&gt;Node221 -->
<g id="edge20" class="edge"><title>Node204&#45;&gt;Node221</title>
<path fill="none" stroke="midnightblue" d="M268.201,-501.141C290.462,-509.302 323.961,-520.723 354,-527.5 428.265,-544.256 514.381,-554.744 576.216,-560.755"/>
<polygon fill="midnightblue" stroke="midnightblue" points="576.024,-564.252 586.311,-561.717 576.689,-557.284 576.024,-564.252"/>
</g>
<!-- Node224 -->
<g id="node22" class="node"><title>Node224</title>
<g id="a_node22"><a xlink:href="../../dd/de2/a00320.html#a94badab1e9fc19ebe33b06fcbb169453" target="_top" xlink:title="Try to make a new compound from two components. ">
<polygon fill="none" stroke="black" points="372.5,-444 372.5,-463 517.5,-463 517.5,-444 372.5,-444"/>
<text text-anchor="middle" x="445" y="-451" font-family="Helvetica,sans-Serif" font-size="10.00">nars.language.Instance.make</text>
</a>
</g>
</g>
<!-- Node204&#45;&gt;Node224 -->
<g id="edge28" class="edge"><title>Node204&#45;&gt;Node224</title>
<path fill="none" stroke="midnightblue" d="M293.461,-481.96C320.82,-476.788 354.82,-470.36 383.582,-464.922"/>
<polygon fill="midnightblue" stroke="midnightblue" points="384.342,-468.341 393.518,-463.044 383.042,-461.463 384.342,-468.341"/>
</g>
<!-- Node226 -->
<g id="node24" class="node"><title>Node226</title>
<g id="a_node24"><a xlink:href="../../d8/d8e/a00344.html#a808d99e39dfc525841db6b645d118979" target="_top" xlink:title="Try to make a new compound from two components. ">
<polygon fill="none" stroke="black" points="373,-482 373,-501 517,-501 517,-482 373,-482"/>
<text text-anchor="middle" x="445" y="-489" font-family="Helvetica,sans-Serif" font-size="10.00">nars.language.Property.make</text>
</a>
</g>
</g>
<!-- Node204&#45;&gt;Node226 -->
<g id="edge31" class="edge"><title>Node204&#45;&gt;Node226</title>
<path fill="none" stroke="midnightblue" d="M318.131,-491.5C332.717,-491.5 348.066,-491.5 362.837,-491.5"/>
<polygon fill="midnightblue" stroke="midnightblue" points="362.953,-495 372.953,-491.5 362.953,-488 362.953,-495"/>
</g>
<!-- Node228 -->
<g id="node26" class="node"><title>Node228</title>
<g id="a_node26"><a xlink:href="../../d4/d8f/a00324.html#a429b8b61ed41ea338c8fc668fb8304f7" target="_top" xlink:title="Try to make a new compound from two components. ">
<polygon fill="none" stroke="black" points="354,-406 354,-425 536,-425 536,-406 354,-406"/>
<text text-anchor="middle" x="445" y="-413" font-family="Helvetica,sans-Serif" font-size="10.00">nars.language.InstanceProperty.make</text>
</a>
</g>
</g>
<!-- Node204&#45;&gt;Node228 -->
<g id="edge34" class="edge"><title>Node204&#45;&gt;Node228</title>
<path fill="none" stroke="midnightblue" d="M258.576,-481.802C279.523,-469.164 318.275,-447.187 354,-434.5 361.489,-431.84 369.468,-429.497 377.462,-427.447"/>
<polygon fill="midnightblue" stroke="midnightblue" points="378.295,-430.847 387.19,-425.091 376.647,-424.043 378.295,-430.847"/>
</g>
<!-- Node206 -->
<g id="node4" class="node"><title>Node206</title>
<g id="a_node4"><a xlink:href="../../dc/d59/a00364.html#ad85f45a7858737445d5158801774ff5f" target="_top" xlink:title="Equal terms have identical name, though not necessarily the same reference. ">
<polygon fill="none" stroke="black" points="1036.5,-659 1036.5,-678 1170.5,-678 1170.5,-659 1036.5,-659"/>
<text text-anchor="middle" x="1103.5" y="-666" font-family="Helvetica,sans-Serif" font-size="10.00">nars.language.Term.equals</text>
</a>
</g>
</g>
<!-- Node205&#45;&gt;Node206 -->
<g id="edge3" class="edge"><title>Node205&#45;&gt;Node206</title>
<path fill="none" stroke="midnightblue" d="M962.643,-597.362C970.119,-600.146 977.376,-603.488 984,-607.5 1004.74,-620.064 999.251,-635.948 1020,-648.5 1024.38,-651.15 1029.09,-653.448 1033.96,-655.443"/>
<polygon fill="midnightblue" stroke="midnightblue" points="1032.88,-658.776 1043.48,-658.915 1035.28,-652.2 1032.88,-658.776"/>
</g>
<!-- Node208 -->
<g id="node6" class="node"><title>Node208</title>
<g id="a_node6"><a xlink:href="../../d8/d17/a00304.html#a89000afae8017231889aaa549292d1e0" target="_top" xlink:title="Default constructor. ">
<polygon fill="none" stroke="black" points="1027,-609.5 1027,-639.5 1180,-639.5 1180,-609.5 1027,-609.5"/>
<text text-anchor="start" x="1035" y="-627.5" font-family="Helvetica,sans-Serif" font-size="10.00">nars.language.CompoundTerm.</text>
<text text-anchor="middle" x="1103.5" y="-616.5" font-family="Helvetica,sans-Serif" font-size="10.00">CompoundTerm</text>
</a>
</g>
</g>
<!-- Node205&#45;&gt;Node208 -->
<g id="edge5" class="edge"><title>Node205&#45;&gt;Node208</title>
<path fill="none" stroke="midnightblue" d="M962.617,-598.071C980.193,-601.391 998.972,-604.939 1016.88,-608.323"/>
<polygon fill="midnightblue" stroke="midnightblue" points="1016.25,-611.766 1026.73,-610.183 1017.55,-604.887 1016.25,-611.766"/>
</g>
<!-- Node209 -->
<g id="node7" class="node"><title>Node209</title>
<g id="a_node7"><a xlink:href="../../d0/d65/a00360.html#ac56b558891dd2088e0b66b437780c7b7" target="_top" xlink:title="Default constructor. ">
<polygon fill="none" stroke="black" points="1039.5,-560.5 1039.5,-590.5 1167.5,-590.5 1167.5,-560.5 1039.5,-560.5"/>
<text text-anchor="start" x="1047.5" y="-578.5" font-family="Helvetica,sans-Serif" font-size="10.00">nars.language.Statement.</text>
<text text-anchor="middle" x="1103.5" y="-567.5" font-family="Helvetica,sans-Serif" font-size="10.00">Statement</text>
</a>
</g>
</g>
<!-- Node205&#45;&gt;Node209 -->
<g id="edge6" class="edge"><title>Node205&#45;&gt;Node209</title>
<path fill="none" stroke="midnightblue" d="M962.617,-580.657C984.281,-579.858 1007.77,-578.992 1029.21,-578.202"/>
<polygon fill="midnightblue" stroke="midnightblue" points="1029.36,-581.699 1039.22,-577.833 1029.1,-574.704 1029.36,-581.699"/>
</g>
<!-- Node210 -->
<g id="node8" class="node"><title>Node210</title>
<g id="a_node8"><a xlink:href="../../d0/d65/a00360.html#ace4f80751d303c613e467163913bebf5" target="_top" xlink:title="Return the first component of the statement. ">
<polygon fill="none" stroke="black" points="1032.5,-462.5 1032.5,-492.5 1174.5,-492.5 1174.5,-462.5 1032.5,-462.5"/>
<text text-anchor="start" x="1040.5" y="-480.5" font-family="Helvetica,sans-Serif" font-size="10.00">nars.language.Statement.get</text>
<text text-anchor="middle" x="1103.5" y="-469.5" font-family="Helvetica,sans-Serif" font-size="10.00">Subject</text>
</a>
</g>
</g>
<!-- Node205&#45;&gt;Node210 -->
<g id="edge7" class="edge"><title>Node205&#45;&gt;Node210</title>
<path fill="none" stroke="midnightblue" d="M962.596,-570.155C970.206,-567.046 977.504,-563.217 984,-558.5 1008.25,-540.895 996.062,-519.521 1020,-501.5 1021.84,-500.115 1023.76,-498.81 1025.74,-497.58"/>
<polygon fill="midnightblue" stroke="midnightblue" points="1027.66,-500.516 1034.77,-492.654 1024.31,-494.371 1027.66,-500.516"/>
</g>
<!-- Node212 -->
<g id="node10" class="node"><title>Node212</title>
<g id="a_node10"><a xlink:href="../../d0/d65/a00360.html#ababe6155e2f78e769f76493317e118e0" target="_top" xlink:title="Return the second component of the statement. ">
<polygon fill="none" stroke="black" points="1032.5,-511.5 1032.5,-541.5 1174.5,-541.5 1174.5,-511.5 1032.5,-511.5"/>
<text text-anchor="start" x="1040.5" y="-529.5" font-family="Helvetica,sans-Serif" font-size="10.00">nars.language.Statement.get</text>
<text text-anchor="middle" x="1103.5" y="-518.5" font-family="Helvetica,sans-Serif" font-size="10.00">Predicate</text>
</a>
</g>
</g>
<!-- Node205&#45;&gt;Node212 -->
<g id="edge9" class="edge"><title>Node205&#45;&gt;Node212</title>
<path fill="none" stroke="midnightblue" d="M945.44,-568.442C958.178,-565.198 971.541,-561.763 984,-558.5 1001.32,-553.964 1020.03,-548.959 1037.36,-544.281"/>
<polygon fill="midnightblue" stroke="midnightblue" points="1038.64,-547.56 1047.38,-541.571 1036.81,-540.803 1038.64,-547.56"/>
</g>
<!-- Node207 -->
<g id="node5" class="node"><title>Node207</title>
<g id="a_node5"><a xlink:href="../../dc/d59/a00364.html#a3aad4654016b8615fd4fa8a26668e1db" target="_top" xlink:title="Reporting the name of the current Term. ">
<polygon fill="none" stroke="black" points="1233.5,-678 1233.5,-697 1379.5,-697 1379.5,-678 1233.5,-678"/>
<text text-anchor="middle" x="1306.5" y="-685" font-family="Helvetica,sans-Serif" font-size="10.00">nars.language.Term.getName</text>
</a>
</g>
</g>
<!-- Node206&#45;&gt;Node207 -->
<g id="edge4" class="edge"><title>Node206&#45;&gt;Node207</title>
<path fill="none" stroke="midnightblue" d="M1170.59,-674.748C1187.43,-676.339 1205.73,-678.069 1223.26,-679.726"/>
<polygon fill="midnightblue" stroke="midnightblue" points="1223.19,-683.235 1233.48,-680.692 1223.85,-676.266 1223.19,-683.235"/>
</g>
<!-- Node211 -->
<g id="node9" class="node"><title>Node211</title>
<g id="a_node9"><a xlink:href="../../d8/d17/a00304.html#a9778c35f9b602bee6ccac6a06809e546" target="_top" xlink:title="list of (direct) components ">
<polygon fill="none" stroke="black" points="1223,-487.5 1223,-517.5 1390,-517.5 1390,-487.5 1223,-487.5"/>
<text text-anchor="start" x="1231" y="-505.5" font-family="Helvetica,sans-Serif" font-size="10.00">nars.language.CompoundTerm.get</text>
<text text-anchor="middle" x="1306.5" y="-494.5" font-family="Helvetica,sans-Serif" font-size="10.00">Components</text>
</a>
</g>
</g>
<!-- Node210&#45;&gt;Node211 -->
<g id="edge8" class="edge"><title>Node210&#45;&gt;Node211</title>
<path fill="none" stroke="midnightblue" d="M1174.52,-486.209C1186.85,-487.743 1199.87,-489.362 1212.71,-490.959"/>
<polygon fill="midnightblue" stroke="midnightblue" points="1212.61,-494.473 1222.96,-492.234 1213.47,-487.527 1212.61,-494.473"/>
</g>
<!-- Node212&#45;&gt;Node211 -->
<g id="edge10" class="edge"><title>Node212&#45;&gt;Node211</title>
<path fill="none" stroke="midnightblue" d="M1174.52,-518.14C1186.85,-516.667 1199.87,-515.113 1212.71,-513.579"/>
<polygon fill="midnightblue" stroke="midnightblue" points="1213.45,-517.016 1222.96,-512.355 1212.62,-510.066 1213.45,-517.016"/>
</g>
<!-- Node213&#45;&gt;Node205 -->
<g id="edge12" class="edge"><title>Node213&#45;&gt;Node205</title>
<path fill="none" stroke="midnightblue" d="M674.9,-495.177C696.877,-510.632 742.404,-540.931 785,-558.5 791.137,-561.031 797.597,-563.358 804.154,-565.487"/>
<polygon fill="midnightblue" stroke="midnightblue" points="803.215,-568.86 813.802,-568.464 805.279,-562.171 803.215,-568.86"/>
</g>
<!-- Node214 -->
<g id="node12" class="node"><title>Node214</title>
<g id="a_node12"><a xlink:href="../../d0/d65/a00360.html#a7123aba1c8c566f291e2c9b9d147557d" target="_top" xlink:title="Default method to make the nameStr of an image term from given fields. ">
<polygon fill="none" stroke="black" points="808.5,-519.5 808.5,-549.5 960.5,-549.5 960.5,-519.5 808.5,-519.5"/>
<text text-anchor="start" x="816.5" y="-537.5" font-family="Helvetica,sans-Serif" font-size="10.00">nars.language.Statement.make</text>
<text text-anchor="middle" x="884.5" y="-526.5" font-family="Helvetica,sans-Serif" font-size="10.00">StatementName</text>
</a>
</g>
</g>
<!-- Node213&#45;&gt;Node214 -->
<g id="edge13" class="edge"><title>Node213&#45;&gt;Node214</title>
<path fill="none" stroke="midnightblue" d="M704.567,-495.006C733.143,-501.313 771.479,-509.775 805.336,-517.248"/>
<polygon fill="midnightblue" stroke="midnightblue" points="804.699,-520.691 815.218,-519.429 806.207,-513.856 804.699,-520.691"/>
</g>
<!-- Node215 -->
<g id="node13" class="node"><title>Node215</title>
<g id="a_node13"><a xlink:href="../../d4/d27/a00392.html#ac7c5d438820208253d1a2ee59bf80ddc" target="_top" xlink:title="Get a Term for a given name of a Concept or Operator. ">
<polygon fill="none" stroke="black" points="816.5,-372.5 816.5,-402.5 952.5,-402.5 952.5,-372.5 816.5,-372.5"/>
<text text-anchor="start" x="824.5" y="-390.5" font-family="Helvetica,sans-Serif" font-size="10.00">nars.storage.Memory.name</text>
<text text-anchor="middle" x="884.5" y="-379.5" font-family="Helvetica,sans-Serif" font-size="10.00">ToListedTerm</text>
</a>
</g>
</g>
<!-- Node213&#45;&gt;Node215 -->
<g id="edge14" class="edge"><title>Node213&#45;&gt;Node215</title>
<path fill="none" stroke="midnightblue" d="M695.231,-475.932C712.254,-470.159 732.694,-461.726 749,-450.5 768.43,-437.123 764.673,-423.47 785,-411.5 791.718,-407.544 799.061,-404.238 806.611,-401.476"/>
<polygon fill="midnightblue" stroke="midnightblue" points="807.873,-404.745 816.253,-398.261 805.659,-398.104 807.873,-404.745"/>
</g>
<!-- Node219 -->
<g id="node17" class="node"><title>Node219</title>
<g id="a_node17"><a xlink:href="../../d3/db8/a00316.html#a20635d9d55f73d39b29a07653cde6bc6" target="_top" xlink:title="Constructor with partial values, called by make. ">
<polygon fill="none" stroke="black" points="819,-421.5 819,-451.5 950,-451.5 950,-421.5 819,-421.5"/>
<text text-anchor="start" x="827" y="-439.5" font-family="Helvetica,sans-Serif" font-size="10.00">nars.language.Inheritance.</text>
<text text-anchor="middle" x="884.5" y="-428.5" font-family="Helvetica,sans-Serif" font-size="10.00">Inheritance</text>
</a>
</g>
</g>
<!-- Node213&#45;&gt;Node219 -->
<g id="edge18" class="edge"><title>Node213&#45;&gt;Node219</title>
<path fill="none" stroke="midnightblue" d="M704.567,-475.994C734.061,-469.484 773.953,-460.679 808.585,-453.035"/>
<polygon fill="midnightblue" stroke="midnightblue" points="809.662,-456.382 818.672,-450.809 808.153,-449.546 809.662,-456.382"/>
</g>
<!-- Node220 -->
<g id="node18" class="node"><title>Node220</title>
<g id="a_node18"><a xlink:href="../../d8/d17/a00304.html#a9aacee8d6903ff6eb186d37f78569353" target="_top" xlink:title="build a component list from two terms ">
<polygon fill="none" stroke="black" points="785,-470.5 785,-500.5 984,-500.5 984,-470.5 785,-470.5"/>
<text text-anchor="start" x="793" y="-488.5" font-family="Helvetica,sans-Serif" font-size="10.00">nars.language.CompoundTerm.arguments</text>
<text text-anchor="middle" x="884.5" y="-477.5" font-family="Helvetica,sans-Serif" font-size="10.00">ToList</text>
</a>
</g>
</g>
<!-- Node213&#45;&gt;Node220 -->
<g id="edge19" class="edge"><title>Node213&#45;&gt;Node220</title>
<path fill="none" stroke="midnightblue" d="M738.211,-485.5C749.96,-485.5 762.278,-485.5 774.562,-485.5"/>
<polygon fill="midnightblue" stroke="midnightblue" points="774.86,-489 784.86,-485.5 774.86,-482 774.86,-489"/>
</g>
<!-- Node216 -->
<g id="node14" class="node"><title>Node216</title>
<g id="a_node14"><a xlink:href="../../d4/d27/a00392.html#a33af7b3d806d32c85390563fec3c6d27" target="_top" xlink:title="Concept bag. ">
<polygon fill="none" stroke="black" points="1020,-378 1020,-397 1187,-397 1187,-378 1020,-378"/>
<text text-anchor="middle" x="1103.5" y="-385" font-family="Helvetica,sans-Serif" font-size="10.00">nars.storage.Memory.getConcepts</text>
</a>
</g>
</g>
<!-- Node215&#45;&gt;Node216 -->
<g id="edge15" class="edge"><title>Node215&#45;&gt;Node216</title>
<path fill="none" stroke="midnightblue" d="M952.674,-387.5C970.716,-387.5 990.551,-387.5 1009.72,-387.5"/>
<polygon fill="midnightblue" stroke="midnightblue" points="1009.97,-391 1019.97,-387.5 1009.97,-384 1009.97,-391"/>
</g>
<!-- Node217 -->
<g id="node15" class="node"><title>Node217</title>
<g id="a_node15"><a xlink:href="../../d6/db8/a00376.html#a011b37fc683db7fb7b41e33712a37d92" target="_top" xlink:title="Get an Item by key. ">
<polygon fill="none" stroke="black" points="1050,-340 1050,-359 1157,-359 1157,-340 1050,-340"/>
<text text-anchor="middle" x="1103.5" y="-347" font-family="Helvetica,sans-Serif" font-size="10.00">nars.storage.Bag.get</text>
</a>
</g>
</g>
<!-- Node215&#45;&gt;Node217 -->
<g id="edge16" class="edge"><title>Node215&#45;&gt;Node217</title>
<path fill="none" stroke="midnightblue" d="M952.674,-375.737C980.378,-370.885 1012.31,-365.294 1039.55,-360.523"/>
<polygon fill="midnightblue" stroke="midnightblue" points="1040.5,-363.91 1049.75,-358.737 1039.3,-357.015 1040.5,-363.91"/>
</g>
<!-- Node218 -->
<g id="node16" class="node"><title>Node218</title>
<g id="a_node16"><a xlink:href="../../d7/ded/a00196.html#afcd1217b7680b073fa51f0d0f159dcea" target="_top" xlink:title="The term is the unique ID of the concept. ">
<polygon fill="none" stroke="black" points="1033,-416 1033,-435 1174,-435 1174,-416 1033,-416"/>
<text text-anchor="middle" x="1103.5" y="-423" font-family="Helvetica,sans-Serif" font-size="10.00">nars.entity.Concept.getTerm</text>
</a>
</g>
</g>
<!-- Node215&#45;&gt;Node218 -->
<g id="edge17" class="edge"><title>Node215&#45;&gt;Node218</title>
<path fill="none" stroke="midnightblue" d="M952.674,-399.263C979.826,-404.018 1011.04,-409.483 1037.92,-414.191"/>
<polygon fill="midnightblue" stroke="midnightblue" points="1037.54,-417.678 1047.99,-415.955 1038.75,-410.783 1037.54,-417.678"/>
</g>
<!-- Node221&#45;&gt;Node205 -->
<g id="edge21" class="edge"><title>Node221&#45;&gt;Node205</title>
<path fill="none" stroke="midnightblue" d="M734.806,-572.783C754.47,-574.201 775.925,-575.747 796.263,-577.213"/>
<polygon fill="midnightblue" stroke="midnightblue" points="796.235,-580.72 806.461,-577.948 796.739,-573.738 796.235,-580.72"/>
</g>
<!-- Node221&#45;&gt;Node214 -->
<g id="edge24" class="edge"><title>Node221&#45;&gt;Node214</title>
<path fill="none" stroke="midnightblue" d="M725.414,-557.999C748.155,-554.619 774.133,-550.757 798.369,-547.155"/>
<polygon fill="midnightblue" stroke="midnightblue" points="798.898,-550.615 808.274,-545.682 797.868,-543.691 798.898,-550.615"/>
</g>
<!-- Node221&#45;&gt;Node215 -->
<g id="edge25" class="edge"><title>Node221&#45;&gt;Node215</title>
<path fill="none" stroke="midnightblue" d="M680.727,-557.96C700.341,-547.348 730.454,-528.492 749,-504.5 776.106,-469.433 751.685,-440.733 785,-411.5 791.419,-405.868 798.942,-401.509 806.921,-398.142"/>
<polygon fill="midnightblue" stroke="midnightblue" points="808.284,-401.37 816.458,-394.629 805.865,-394.801 808.284,-401.37"/>
</g>
<!-- Node221&#45;&gt;Node220 -->
<g id="edge27" class="edge"><title>Node221&#45;&gt;Node220</title>
<path fill="none" stroke="midnightblue" d="M679.026,-557.895C702.549,-545.328 745.906,-523.286 785,-509.5 791.245,-507.298 797.783,-505.224 804.391,-503.289"/>
<polygon fill="midnightblue" stroke="midnightblue" points="805.422,-506.635 814.099,-500.555 803.524,-499.897 805.422,-506.635"/>
</g>
<!-- Node222 -->
<g id="node20" class="node"><title>Node222</title>
<g id="a_node20"><a xlink:href="../../dc/d59/a00364.html#ab9bc1c9cc779c07b09983b41ed8491e1" target="_top" xlink:title="Check the relative order of two Terms. ">
<polygon fill="none" stroke="black" points="1026,-697 1026,-716 1181,-716 1181,-697 1026,-697"/>
<text text-anchor="middle" x="1103.5" y="-704" font-family="Helvetica,sans-Serif" font-size="10.00">nars.language.Term.compareTo</text>
</a>
</g>
</g>
<!-- Node221&#45;&gt;Node222 -->
<g id="edge22" class="edge"><title>Node221&#45;&gt;Node222</title>
<path fill="none" stroke="midnightblue" d="M671.38,-577.2C691.11,-595.94 737.585,-636.992 785,-656.5 859.087,-686.982 949.935,-699 1015.44,-703.677"/>
<polygon fill="midnightblue" stroke="midnightblue" points="1015.52,-707.19 1025.73,-704.366 1015.99,-700.206 1015.52,-707.19"/>
</g>
<!-- Node223 -->
<g id="node21" class="node"><title>Node223</title>
<g id="a_node21"><a xlink:href="../../d6/de1/a00356.html#a5d3eff893c9406991d1c3e81737a408b" target="_top" xlink:title="Constructor with partial values, called by make. ">
<polygon fill="none" stroke="black" points="822.5,-617.5 822.5,-647.5 946.5,-647.5 946.5,-617.5 822.5,-617.5"/>
<text text-anchor="start" x="830.5" y="-635.5" font-family="Helvetica,sans-Serif" font-size="10.00">nars.language.Similarity.</text>
<text text-anchor="middle" x="884.5" y="-624.5" font-family="Helvetica,sans-Serif" font-size="10.00">Similarity</text>
</a>
</g>
</g>
<!-- Node221&#45;&gt;Node223 -->
<g id="edge26" class="edge"><title>Node221&#45;&gt;Node223</title>
<path fill="none" stroke="midnightblue" d="M689.299,-577.073C714.227,-585.52 751.869,-597.941 785,-607.5 793.933,-610.077 803.361,-612.653 812.703,-615.118"/>
<polygon fill="midnightblue" stroke="midnightblue" points="811.823,-618.506 822.383,-617.643 813.59,-611.732 811.823,-618.506"/>
</g>
<!-- Node222&#45;&gt;Node207 -->
<g id="edge23" class="edge"><title>Node222&#45;&gt;Node207</title>
<path fill="none" stroke="midnightblue" d="M1181.06,-699.263C1194.9,-697.955 1209.38,-696.586 1223.37,-695.264"/>
<polygon fill="midnightblue" stroke="midnightblue" points="1223.83,-698.736 1233.45,-694.31 1223.17,-691.767 1223.83,-698.736"/>
</g>
<!-- Node224&#45;&gt;Node213 -->
<g id="edge29" class="edge"><title>Node224&#45;&gt;Node213</title>
<path fill="none" stroke="midnightblue" d="M509.479,-463.014C533.462,-466.609 560.953,-470.73 585.796,-474.453"/>
<polygon fill="midnightblue" stroke="midnightblue" points="585.489,-477.946 595.897,-475.967 586.526,-471.023 585.489,-477.946"/>
</g>
<!-- Node225 -->
<g id="node23" class="node"><title>Node225</title>
<g id="a_node23"><a xlink:href="../../df/d03/a00348.html#aa8f6526a59c3d7e578dd76a0eab75a0e" target="_top" xlink:title="Try to make a new set from one component. ">
<polygon fill="none" stroke="black" points="592,-384 592,-403 729,-403 729,-384 592,-384"/>
<text text-anchor="middle" x="660.5" y="-391" font-family="Helvetica,sans-Serif" font-size="10.00">nars.language.SetExt.make</text>
</a>
</g>
</g>
<!-- Node224&#45;&gt;Node225 -->
<g id="edge30" class="edge"><title>Node224&#45;&gt;Node225</title>
<path fill="none" stroke="midnightblue" d="M505.431,-443.955C515.804,-441.446 526.354,-438.334 536,-434.5 553.425,-427.574 554.595,-419.476 572,-412.5 578.398,-409.936 585.206,-407.689 592.088,-405.728"/>
<polygon fill="midnightblue" stroke="midnightblue" points="593.415,-408.998 602.186,-403.055 591.624,-402.231 593.415,-408.998"/>
</g>
<!-- Node226&#45;&gt;Node213 -->
<g id="edge32" class="edge"><title>Node226&#45;&gt;Node213</title>
<path fill="none" stroke="midnightblue" d="M517.092,-489.502C534.901,-489.002 554.206,-488.459 572.684,-487.94"/>
<polygon fill="midnightblue" stroke="midnightblue" points="572.953,-491.434 582.85,-487.654 572.756,-484.436 572.953,-491.434"/>
</g>
<!-- Node227 -->
<g id="node25" class="node"><title>Node227</title>
<g id="a_node25"><a xlink:href="../../d6/d9c/a00352.html#aaea0f2cc2ca804779d1bf346beb58fa1" target="_top" xlink:title="Try to make a new set from one component. ">
<polygon fill="none" stroke="black" points="593.5,-422 593.5,-441 727.5,-441 727.5,-422 593.5,-422"/>
<text text-anchor="middle" x="660.5" y="-429" font-family="Helvetica,sans-Serif" font-size="10.00">nars.language.SetInt.make</text>
</a>
</g>
</g>
<!-- Node226&#45;&gt;Node227 -->
<g id="edge33" class="edge"><title>Node226&#45;&gt;Node227</title>
<path fill="none" stroke="midnightblue" d="M496.224,-481.94C509.247,-479.177 523.206,-475.962 536,-472.5 565.9,-464.408 599.198,-453.223 623.677,-444.58"/>
<polygon fill="midnightblue" stroke="midnightblue" points="625.015,-447.819 633.261,-441.166 622.667,-441.224 625.015,-447.819"/>
</g>
<!-- Node228&#45;&gt;Node213 -->
<g id="edge35" class="edge"><title>Node228&#45;&gt;Node213</title>
<path fill="none" stroke="midnightblue" d="M500.264,-425.03C512.163,-427.652 524.605,-430.81 536,-434.5 552.658,-439.894 555.869,-443.692 572,-450.5 589.476,-457.876 609.069,-465.749 625.278,-472.157"/>
<polygon fill="midnightblue" stroke="midnightblue" points="624.296,-475.532 634.883,-475.94 626.861,-469.019 624.296,-475.532"/>
</g>
<!-- Node228&#45;&gt;Node225 -->
<g id="edge36" class="edge"><title>Node228&#45;&gt;Node225</title>
<path fill="none" stroke="midnightblue" d="M536.234,-406.202C551.399,-404.639 567.019,-403.03 581.831,-401.503"/>
<polygon fill="midnightblue" stroke="midnightblue" points="582.352,-404.968 591.94,-400.462 581.634,-398.005 582.352,-404.968"/>
</g>
<!-- Node228&#45;&gt;Node227 -->
<g id="edge37" class="edge"><title>Node228&#45;&gt;Node227</title>
<path fill="none" stroke="midnightblue" d="M536.234,-422.262C551.768,-423.426 567.781,-424.626 582.913,-425.76"/>
<polygon fill="midnightblue" stroke="midnightblue" points="582.998,-429.277 593.232,-426.534 583.521,-422.296 582.998,-429.277"/>
</g>
<!-- Node229&#45;&gt;Node203 -->
<g id="edge57" class="edge"><title>Node229&#45;&gt;Node203</title>
<path fill="none" stroke="midnightblue" d="M165.866,-237.19C157.414,-237.273 148.805,-237.27 140.363,-237.182"/>
<polygon fill="midnightblue" stroke="midnightblue" points="140.22,-233.68 130.17,-237.032 140.117,-240.679 140.22,-233.68"/>
</g>
<!-- Node229&#45;&gt;Node215 -->
<g id="edge40" class="edge"><title>Node229&#45;&gt;Node215</title>
<path fill="none" stroke="midnightblue" d="M260.154,-240.001C281.523,-251.451 319.438,-270.517 354,-281.5 432.424,-306.422 455.263,-299.596 536,-315.5 629.05,-333.829 735.838,-356.148 806.201,-371.031"/>
<polygon fill="midnightblue" stroke="midnightblue" points="805.804,-374.524 816.312,-373.172 807.254,-367.676 805.804,-374.524"/>
</g>
<!-- Node229&#45;&gt;Node225 -->
<g id="edge54" class="edge"><title>Node229&#45;&gt;Node225</title>
<path fill="none" stroke="midnightblue" d="M252.767,-240.243C271.031,-257.907 312.291,-295.262 354,-315.5 365.668,-321.162 527.535,-361.2 610.787,-381.605"/>
<polygon fill="midnightblue" stroke="midnightblue" points="609.989,-385.013 620.534,-383.992 611.654,-378.214 609.989,-385.013"/>
</g>
<!-- Node229&#45;&gt;Node227 -->
<g id="edge56" class="edge"><title>Node229&#45;&gt;Node227</title>
<path fill="none" stroke="midnightblue" d="M248.841,-240.309C263.396,-263.845 303.748,-323.764 354,-353.5 425.531,-395.827 457.238,-369.951 536,-396.5 552.592,-402.093 555.358,-407.058 572,-412.5 580.071,-415.139 588.681,-417.517 597.234,-419.625"/>
<polygon fill="midnightblue" stroke="midnightblue" points="596.675,-423.089 607.211,-421.975 598.28,-416.276 596.675,-423.089"/>
</g>
<!-- Node230 -->
<g id="node28" class="node"><title>Node230</title>
<g id="a_node28"><a xlink:href="../../d8/d0a/a00292.html#a944bb677dff9f232ce6b896c853e24e0" target="_top" xlink:title="Parse a String to create a CompoundTerm. ">
<polygon fill="none" stroke="black" points="380,-242.5 380,-272.5 510,-272.5 510,-242.5 380,-242.5"/>
<text text-anchor="start" x="388" y="-260.5" font-family="Helvetica,sans-Serif" font-size="10.00">nars.io.StringParser.parse</text>
<text text-anchor="middle" x="445" y="-249.5" font-family="Helvetica,sans-Serif" font-size="10.00">CompoundTerm</text>
</a>
</g>
</g>
<!-- Node229&#45;&gt;Node230 -->
<g id="edge41" class="edge"><title>Node229&#45;&gt;Node230</title>
<path fill="none" stroke="midnightblue" d="M313.865,-240.019C331.984,-242.453 351.515,-245.077 369.797,-247.532"/>
<polygon fill="midnightblue" stroke="midnightblue" points="369.432,-251.015 379.809,-248.877 370.364,-244.077 369.432,-251.015"/>
</g>
<!-- Node236 -->
<g id="node34" class="node"><title>Node236</title>
<g id="a_node34"><a xlink:href="../../d8/d0a/a00292.html#a9b9bc5f94ac6aaa86c3d9c2bcd21c332" target="_top" xlink:title="Parse a String into the argument get of a CompoundTerm. ">
<polygon fill="none" stroke="black" points="595.5,-189.5 595.5,-219.5 725.5,-219.5 725.5,-189.5 595.5,-189.5"/>
<text text-anchor="start" x="603.5" y="-207.5" font-family="Helvetica,sans-Serif" font-size="10.00">nars.io.StringParser.parse</text>
<text text-anchor="middle" x="660.5" y="-196.5" font-family="Helvetica,sans-Serif" font-size="10.00">Arguments</text>
</a>
</g>
</g>
<!-- Node229&#45;&gt;Node236 -->
<g id="edge55" class="edge"><title>Node229&#45;&gt;Node236</title>
<path fill="none" stroke="midnightblue" d="M312.244,-220.998C387.623,-214.245 507.718,-206.702 585.074,-203.831"/>
<polygon fill="midnightblue" stroke="midnightblue" points="585.357,-207.323 595.227,-203.473 585.11,-200.328 585.357,-207.323"/>
</g>
<!-- Node241 -->
<g id="node39" class="node"><title>Node241</title>
<g id="a_node39"><a xlink:href="../../d8/d0a/a00292.html#a4521720744de2b8638667be01b4be64a" target="_top" xlink:title="Parse a Term that has no internal structure. ">
<polygon fill="none" stroke="black" points="380,-136.5 380,-166.5 510,-166.5 510,-136.5 380,-136.5"/>
<text text-anchor="start" x="388" y="-154.5" font-family="Helvetica,sans-Serif" font-size="10.00">nars.io.StringParser.parse</text>
<text text-anchor="middle" x="445" y="-143.5" font-family="Helvetica,sans-Serif" font-size="10.00">AtomicTerm</text>
</a>
</g>
</g>
<!-- Node229&#45;&gt;Node241 -->
<g id="edge58" class="edge"><title>Node229&#45;&gt;Node241</title>
<path fill="none" stroke="midnightblue" d="M263.218,-220.888C285.284,-210.559 321.775,-193.952 354,-181.5 364.351,-177.5 375.487,-173.528 386.279,-169.846"/>
<polygon fill="midnightblue" stroke="midnightblue" points="387.699,-173.061 396.06,-166.553 385.466,-166.426 387.699,-173.061"/>
</g>
<!-- Node246 -->
<g id="node44" class="node"><title>Node246</title>
<g id="a_node44"><a xlink:href="../../d8/d0a/a00292.html#a4fc8012616d44d8e7670044f9a0d2976" target="_top" xlink:title="nars.io.StringParser.show\lWarning">
<polygon fill="none" stroke="black" points="380.5,-87.5 380.5,-117.5 509.5,-117.5 509.5,-87.5 380.5,-87.5"/>
<text text-anchor="start" x="388.5" y="-105.5" font-family="Helvetica,sans-Serif" font-size="10.00">nars.io.StringParser.show</text>
<text text-anchor="middle" x="445" y="-94.5" font-family="Helvetica,sans-Serif" font-size="10.00">Warning</text>
</a>
</g>
</g>
<!-- Node229&#45;&gt;Node246 -->
<g id="edge63" class="edge"><title>Node229&#45;&gt;Node246</title>
<path fill="none" stroke="midnightblue" d="M250.471,-220.812C266.884,-200.212 308.283,-151.876 354,-126.5 359.253,-123.584 364.878,-121.009 370.655,-118.737"/>
<polygon fill="midnightblue" stroke="midnightblue" points="372.263,-121.878 380.483,-115.194 369.888,-115.293 372.263,-121.878"/>
</g>
<!-- Node231 -->
<g id="node29" class="node"><title>Node231</title>
<g id="a_node29"><a xlink:href="../../d8/d0a/a00292.html#a3ac70603f33f8d2d9475ed7ce42e873b" target="_top" xlink:title="Check CompoundTerm operator symbol. ">
<polygon fill="none" stroke="black" points="585,-239 585,-258 736,-258 736,-239 585,-239"/>
<text text-anchor="middle" x="660.5" y="-246" font-family="Helvetica,sans-Serif" font-size="10.00">nars.io.StringParser.isOperator</text>
</a>
</g>
</g>
<!-- Node230&#45;&gt;Node231 -->
<g id="edge42" class="edge"><title>Node230&#45;&gt;Node231</title>
<path fill="none" stroke="midnightblue" d="M510.057,-254.8C530.416,-253.941 553.255,-252.979 574.835,-252.069"/>
<polygon fill="midnightblue" stroke="midnightblue" points="575.134,-255.56 584.978,-251.641 574.839,-248.566 575.134,-255.56"/>
</g>
<!-- Node232 -->
<g id="node30" class="node"><title>Node232</title>
<g id="a_node30"><a xlink:href="../../d8/d17/a00304.html#ac5f82b4dd2c0f4aa60e1e97600526d21" target="_top" xlink:title="Try to make a compound term from a template and a list of components. ">
<polygon fill="none" stroke="black" points="572,-277 572,-296 749,-296 749,-277 572,-277"/>
<text text-anchor="middle" x="660.5" y="-284" font-family="Helvetica,sans-Serif" font-size="10.00">nars.language.CompoundTerm.make</text>
</a>
</g>
</g>
<!-- Node230&#45;&gt;Node232 -->
<g id="edge43" class="edge"><title>Node230&#45;&gt;Node232</title>
<path fill="none" stroke="midnightblue" d="M510.057,-266.201C531.884,-269.166 556.562,-272.518 579.482,-275.631"/>
<polygon fill="midnightblue" stroke="midnightblue" points="579.147,-279.118 589.527,-276.996 580.09,-272.181 579.147,-279.118"/>
</g>
<!-- Node230&#45;&gt;Node236 -->
<g id="edge47" class="edge"><title>Node230&#45;&gt;Node236</title>
<path fill="none" stroke="midnightblue" d="M506.609,-242.454C532.189,-236.104 562.146,-228.667 588.731,-222.068"/>
<polygon fill="midnightblue" stroke="midnightblue" points="589.877,-225.39 598.739,-219.584 588.19,-218.596 589.877,-225.39"/>
</g>
<!-- Node233 -->
<g id="node31" class="node"><title>Node233</title>
<g id="a_node31"><a xlink:href="../../d5/d0f/a00308.html#afb24af5cc6c098ad3f5d837fa383e69c" target="_top" xlink:title="Try to make a new ImageExt. ">
<polygon fill="none" stroke="black" points="810,-322 810,-341 959,-341 959,-322 810,-322"/>
<text text-anchor="middle" x="884.5" y="-329" font-family="Helvetica,sans-Serif" font-size="10.00">nars.language.ImageExt.make</text>
</a>
</g>
</g>
<!-- Node232&#45;&gt;Node233 -->
<g id="edge44" class="edge"><title>Node232&#45;&gt;Node233</title>
<path fill="none" stroke="midnightblue" d="M705.762,-296.008C729.28,-301.012 758.689,-307.193 785,-312.5 797.393,-315 810.678,-317.609 823.353,-320.066"/>
<polygon fill="midnightblue" stroke="midnightblue" points="822.876,-323.538 833.358,-321.998 824.203,-316.665 822.876,-323.538"/>
</g>
<!-- Node234 -->
<g id="node32" class="node"><title>Node234</title>
<g id="a_node32"><a xlink:href="../../d7/df2/a00312.html#ad05e4231ed31d78ad4c8b4fefbc964fa" target="_top" xlink:title="Try to make a new ImageExt. ">
<polygon fill="none" stroke="black" points="811.5,-284 811.5,-303 957.5,-303 957.5,-284 811.5,-284"/>
<text text-anchor="middle" x="884.5" y="-291" font-family="Helvetica,sans-Serif" font-size="10.00">nars.language.ImageInt.make</text>
</a>
</g>
</g>
<!-- Node232&#45;&gt;Node234 -->
<g id="edge45" class="edge"><title>Node232&#45;&gt;Node234</title>
<path fill="none" stroke="midnightblue" d="M749.24,-289.267C766.303,-289.805 784.132,-290.367 801.018,-290.899"/>
<polygon fill="midnightblue" stroke="midnightblue" points="801.289,-294.409 811.394,-291.226 801.51,-287.413 801.289,-294.409"/>
</g>
<!-- Node235 -->
<g id="node33" class="node"><title>Node235</title>
<g id="a_node33"><a xlink:href="../../d8/d17/a00304.html#a786848bcf438b17b9aa566b9b0c04e5f" target="_top" xlink:title="Abstract method to get the operator of the compound. ">
<polygon fill="none" stroke="black" points="790.5,-246 790.5,-265 978.5,-265 978.5,-246 790.5,-246"/>
<text text-anchor="middle" x="884.5" y="-253" font-family="Helvetica,sans-Serif" font-size="10.00">nars.language.CompoundTerm.operator</text>
</a>
</g>
</g>
<!-- Node232&#45;&gt;Node235 -->
<g id="edge46" class="edge"><title>Node232&#45;&gt;Node235</title>
<path fill="none" stroke="midnightblue" d="M729.616,-276.988C753.477,-273.656 780.462,-269.888 805.096,-266.448"/>
<polygon fill="midnightblue" stroke="midnightblue" points="805.71,-269.897 815.13,-265.047 804.742,-262.964 805.71,-269.897"/>
</g>
<!-- Node236&#45;&gt;Node229 -->
<g id="edge53" class="edge"><title>Node236&#45;&gt;Node229</title>
<path fill="none" stroke="midnightblue" d="M595.22,-213.552C523.766,-220.095 408.025,-227.501 328.86,-230.723"/>
<polygon fill="midnightblue" stroke="midnightblue" points="328.281,-227.243 318.425,-231.132 328.554,-234.238 328.281,-227.243"/>
</g>
<!-- Node237 -->
<g id="node35" class="node"><title>Node237</title>
<g id="a_node35"><a xlink:href="../../d8/d0a/a00292.html#aa197c4c362373f0e74165794ba7b033a" target="_top" xlink:title="Locate the first top&#45;level separator in a CompoundTerm. ">
<polygon fill="none" stroke="black" points="822,-196.5 822,-226.5 947,-226.5 947,-196.5 822,-196.5"/>
<text text-anchor="start" x="830" y="-214.5" font-family="Helvetica,sans-Serif" font-size="10.00">nars.io.StringParser.next</text>
<text text-anchor="middle" x="884.5" y="-203.5" font-family="Helvetica,sans-Serif" font-size="10.00">Separator</text>
</a>
</g>
</g>
<!-- Node236&#45;&gt;Node237 -->
<g id="edge48" class="edge"><title>Node236&#45;&gt;Node237</title>
<path fill="none" stroke="midnightblue" d="M725.712,-206.525C752.628,-207.373 784.036,-208.364 811.713,-209.236"/>
<polygon fill="midnightblue" stroke="midnightblue" points="811.62,-212.735 821.725,-209.552 811.84,-205.739 811.62,-212.735"/>
</g>
<!-- Node238 -->
<g id="node36" class="node"><title>Node238</title>
<g id="a_node36"><a xlink:href="../../d8/d0a/a00292.html#aa579e2d90aa176b8fa99af6fda484bf7" target="_top" xlink:title="Check CompoundTerm closer symbol. ">
<polygon fill="none" stroke="black" points="1032.5,-44 1032.5,-63 1174.5,-63 1174.5,-44 1032.5,-44"/>
<text text-anchor="middle" x="1103.5" y="-51" font-family="Helvetica,sans-Serif" font-size="10.00">nars.io.StringParser.isCloser</text>
</a>
</g>
</g>
<!-- Node237&#45;&gt;Node238 -->
<g id="edge49" class="edge"><title>Node237&#45;&gt;Node238</title>
<path fill="none" stroke="midnightblue" d="M947.115,-205.896C960.606,-202.113 973.866,-196.069 984,-186.5 1022.63,-150.021 980.966,-108.548 1020,-72.5 1021.54,-71.079 1023.16,-69.7574 1024.85,-68.5284"/>
<polygon fill="midnightblue" stroke="midnightblue" points="1027.07,-71.2781 1033.84,-63.125 1023.47,-65.2793 1027.07,-71.2781"/>
</g>
<!-- Node240 -->
<g id="node38" class="node"><title>Node240</title>
<g id="a_node38"><a xlink:href="../../d8/d0a/a00292.html#ae9b91054186389c3930bc2aaecd4aee8" target="_top" xlink:title="Check CompoundTerm opener symbol. ">
<polygon fill="none" stroke="black" points="1031,-82 1031,-101 1176,-101 1176,-82 1031,-82"/>
<text text-anchor="middle" x="1103.5" y="-89" font-family="Helvetica,sans-Serif" font-size="10.00">nars.io.StringParser.isOpener</text>
</a>
</g>
</g>
<!-- Node237&#45;&gt;Node240 -->
<g id="edge51" class="edge"><title>Node237&#45;&gt;Node240</title>
<path fill="none" stroke="midnightblue" d="M947.127,-200.171C959.686,-196.681 972.551,-192.203 984,-186.5 1024.99,-166.081 1064.9,-129.645 1086.33,-108.321"/>
<polygon fill="midnightblue" stroke="midnightblue" points="1088.82,-110.78 1093.36,-101.206 1083.84,-105.861 1088.82,-110.78"/>
</g>
<!-- Node239 -->
<g id="node37" class="node"><title>Node239</title>
<g id="a_node37"><a xlink:href="../../d8/d0a/a00292.html#ae4e1b531a416aaa35056fd3798713098" target="_top" xlink:title="Check Statement relation symbol, called in StringPaser. ">
<polygon fill="none" stroke="black" points="1232,-44 1232,-63 1381,-63 1381,-44 1232,-44"/>
<text text-anchor="middle" x="1306.5" y="-51" font-family="Helvetica,sans-Serif" font-size="10.00">nars.io.StringParser.isRelation</text>
</a>
</g>
</g>
<!-- Node238&#45;&gt;Node239 -->
<g id="edge50" class="edge"><title>Node238&#45;&gt;Node239</title>
<path fill="none" stroke="midnightblue" d="M1174.52,-53.5C1189.76,-53.5 1206.04,-53.5 1221.75,-53.5"/>
<polygon fill="midnightblue" stroke="midnightblue" points="1221.98,-57.0001 1231.98,-53.5 1221.98,-50.0001 1221.98,-57.0001"/>
</g>
<!-- Node240&#45;&gt;Node239 -->
<g id="edge52" class="edge"><title>Node240&#45;&gt;Node239</title>
<path fill="none" stroke="midnightblue" d="M1154.96,-81.96C1182.32,-76.7878 1216.32,-70.3599 1245.08,-64.9222"/>
<polygon fill="midnightblue" stroke="midnightblue" points="1245.84,-68.3407 1255.02,-63.0439 1244.54,-61.4625 1245.84,-68.3407"/>
</g>
<!-- Node242 -->
<g id="node40" class="node"><title>Node242</title>
<g id="a_node40"><a xlink:href="../../d8/d21/a00368.html#a2c36e85a56295a27aba7a4ee162f5850" target="_top" xlink:title="Check whether a string represent a name of a term that contains a variable. ">
<polygon fill="none" stroke="black" points="578,-123 578,-142 743,-142 743,-123 578,-123"/>
<text text-anchor="middle" x="660.5" y="-130" font-family="Helvetica,sans-Serif" font-size="10.00">nars.language.Variable.containVar</text>
</a>
</g>
</g>
<!-- Node241&#45;&gt;Node242 -->
<g id="edge59" class="edge"><title>Node241&#45;&gt;Node242</title>
<path fill="none" stroke="midnightblue" d="M510.057,-145.799C528.152,-144.189 548.207,-142.404 567.595,-140.679"/>
<polygon fill="midnightblue" stroke="midnightblue" points="568.009,-144.156 577.659,-139.783 567.388,-137.184 568.009,-144.156"/>
</g>
<!-- Node243 -->
<g id="node41" class="node"><title>Node243</title>
<g id="a_node41"><a xlink:href="../../d8/d21/a00368.html#a9caa9f23d798ce1913cfca744ddd1c15" target="_top" xlink:title="Check whether a string represent a name of a term that contains an independent variable. ">
<polygon fill="none" stroke="black" points="809.5,-147.5 809.5,-177.5 959.5,-177.5 959.5,-147.5 809.5,-147.5"/>
<text text-anchor="start" x="817.5" y="-165.5" font-family="Helvetica,sans-Serif" font-size="10.00">nars.language.Variable.contain</text>
<text text-anchor="middle" x="884.5" y="-154.5" font-family="Helvetica,sans-Serif" font-size="10.00">VarIndep</text>
</a>
</g>
</g>
<!-- Node242&#45;&gt;Node243 -->
<g id="edge60" class="edge"><title>Node242&#45;&gt;Node243</title>
<path fill="none" stroke="midnightblue" d="M732.047,-142.033C753.407,-144.92 777.081,-148.119 799.243,-151.114"/>
<polygon fill="midnightblue" stroke="midnightblue" points="798.927,-154.603 809.306,-152.474 799.865,-147.666 798.927,-154.603"/>
</g>
<!-- Node244 -->
<g id="node42" class="node"><title>Node244</title>
<g id="a_node42"><a xlink:href="../../d8/d21/a00368.html#a3a7ee29b5a23255edf3dbca5f85f7b44" target="_top" xlink:title="Check whether a string represent a name of a term that contains a dependent variable. ">
<polygon fill="none" stroke="black" points="809.5,-98.5 809.5,-128.5 959.5,-128.5 959.5,-98.5 809.5,-98.5"/>
<text text-anchor="start" x="817.5" y="-116.5" font-family="Helvetica,sans-Serif" font-size="10.00">nars.language.Variable.contain</text>
<text text-anchor="middle" x="884.5" y="-105.5" font-family="Helvetica,sans-Serif" font-size="10.00">VarDep</text>
</a>
</g>
</g>
<!-- Node242&#45;&gt;Node244 -->
<g id="edge61" class="edge"><title>Node242&#45;&gt;Node244</title>
<path fill="none" stroke="midnightblue" d="M743.219,-125.506C761.474,-123.944 780.867,-122.284 799.223,-120.713"/>
<polygon fill="midnightblue" stroke="midnightblue" points="799.635,-124.19 809.301,-119.85 799.038,-117.216 799.635,-124.19"/>
</g>
<!-- Node245 -->
<g id="node43" class="node"><title>Node245</title>
<g id="a_node43"><a xlink:href="../../d8/d21/a00368.html#a25dcc4d5882131d679903f93d41420c9" target="_top" xlink:title="Check whether a string represent a name of a term that contains a query variable. ...">
<polygon fill="none" stroke="black" points="809.5,-49.5 809.5,-79.5 959.5,-79.5 959.5,-49.5 809.5,-49.5"/>
<text text-anchor="start" x="817.5" y="-67.5" font-family="Helvetica,sans-Serif" font-size="10.00">nars.language.Variable.contain</text>
<text text-anchor="middle" x="884.5" y="-56.5" font-family="Helvetica,sans-Serif" font-size="10.00">VarQuery</text>
</a>
</g>
</g>
<!-- Node242&#45;&gt;Node245 -->
<g id="edge62" class="edge"><title>Node242&#45;&gt;Node245</title>
<path fill="none" stroke="midnightblue" d="M685.857,-122.981C710.59,-113.514 750.109,-98.9356 785,-88.5 792.41,-86.2836 800.179,-84.1209 807.965,-82.0588"/>
<polygon fill="midnightblue" stroke="midnightblue" points="809.01,-85.4036 817.81,-79.5041 807.252,-78.628 809.01,-85.4036"/>
</g>
<!-- Node247&#45;&gt;Node238 -->
<g id="edge67" class="edge"><title>Node247&#45;&gt;Node238</title>
<path fill="none" stroke="midnightblue" d="M944.223,-25.7833C973.318,-30.8783 1008.51,-37.0409 1038.31,-42.2601"/>
<polygon fill="midnightblue" stroke="midnightblue" points="1037.75,-45.7136 1048.2,-43.991 1038.95,-38.8185 1037.75,-45.7136"/>
</g>
<!-- Node247&#45;&gt;Node239 -->
<g id="edge65" class="edge"><title>Node247&#45;&gt;Node239</title>
<path fill="none" stroke="midnightblue" d="M944.007,-17.5214C1004.86,-20.0137 1102.82,-25.1207 1187,-34.5 1205.26,-36.5346 1225,-39.4219 1243.04,-42.3332"/>
<polygon fill="midnightblue" stroke="midnightblue" points="1242.71,-45.8265 1253.15,-43.9955 1243.85,-38.9193 1242.71,-45.8265"/>
</g>
<!-- Node247&#45;&gt;Node240 -->
<g id="edge66" class="edge"><title>Node247&#45;&gt;Node240</title>
<path fill="none" stroke="midnightblue" d="M944.058,-24.6609C957.659,-28.1574 971.734,-32.9503 984,-39.5 1003.15,-49.724 1000.79,-62.3972 1020,-72.5 1024.52,-74.8763 1029.33,-76.9575 1034.27,-78.7799"/>
<polygon fill="midnightblue" stroke="midnightblue" points="1033.3,-82.1445 1043.89,-81.9753 1035.5,-75.5014 1033.3,-82.1445"/>
</g>
</g>
</svg>
