<?xml version="1.0" encoding="UTF-8" standalone="no"?>
<!DOCTYPE svg PUBLIC "-//W3C//DTD SVG 1.1//EN"
 "http://www.w3.org/Graphics/SVG/1.1/DTD/svg11.dtd">
<!-- Generated by graphviz version 2.38.0 (20140413.2041)
 -->
<!-- Title: nars.io.StringParser.topRelation Pages: 1 -->
<svg width="493pt" height="104pt"
 viewBox="0.00 0.00 493.00 104.00" xmlns="http://www.w3.org/2000/svg" xmlns:xlink="http://www.w3.org/1999/xlink">
<g id="graph0" class="graph" transform="scale(1 1) rotate(0) translate(4 100)">
<title>nars.io.StringParser.topRelation</title>
<!-- Node386 -->
<g id="node1" class="node"><title>Node386</title>
<polygon fill="#bfbfbf" stroke="black" points="0,-33 0,-63 119,-63 119,-33 0,-33"/>
<text text-anchor="start" x="8" y="-51" font-family="Helvetica,sans-Serif" font-size="10.00">nars.io.StringParser.top</text>
<text text-anchor="middle" x="59.5" y="-40" font-family="Helvetica,sans-Serif" font-size="10.00">Relation</text>
</g>
<!-- Node387 -->
<g id="node2" class="node"><title>Node387</title>
<g id="a_node2"><a xlink:href="../../d8/d0a/a00292.html#aa579e2d90aa176b8fa99af6fda484bf7" target="_top" xlink:title="Check CompoundTerm closer symbol. ">
<polygon fill="none" stroke="black" points="156.5,-76.5 156.5,-95.5 298.5,-95.5 298.5,-76.5 156.5,-76.5"/>
<text text-anchor="middle" x="227.5" y="-83.5" font-family="Helvetica,sans-Serif" font-size="10.00">nars.io.StringParser.isCloser</text>
</a>
</g>
</g>
<!-- Node386&#45;&gt;Node387 -->
<g id="edge1" class="edge"><title>Node386&#45;&gt;Node387</title>
<path fill="none" stroke="midnightblue" d="M119.025,-61.3974C137.206,-65.5593 157.108,-70.1151 174.79,-74.1628"/>
<polygon fill="midnightblue" stroke="midnightblue" points="174.386,-77.6608 184.915,-76.4805 175.948,-70.8373 174.386,-77.6608"/>
</g>
<!-- Node388 -->
<g id="node3" class="node"><title>Node388</title>
<g id="a_node3"><a xlink:href="../../d8/d0a/a00292.html#ae4e1b531a416aaa35056fd3798713098" target="_top" xlink:title="Check Statement relation symbol, called in StringPaser. ">
<polygon fill="none" stroke="black" points="336,-38.5 336,-57.5 485,-57.5 485,-38.5 336,-38.5"/>
<text text-anchor="middle" x="410.5" y="-45.5" font-family="Helvetica,sans-Serif" font-size="10.00">nars.io.StringParser.isRelation</text>
</a>
</g>
</g>
<!-- Node386&#45;&gt;Node388 -->
<g id="edge5" class="edge"><title>Node386&#45;&gt;Node388</title>
<path fill="none" stroke="midnightblue" d="M119.308,-48C175.918,-48 262.094,-48 325.841,-48"/>
<polygon fill="midnightblue" stroke="midnightblue" points="325.872,-51.5001 335.872,-48 325.872,-44.5001 325.872,-51.5001"/>
</g>
<!-- Node389 -->
<g id="node4" class="node"><title>Node389</title>
<g id="a_node4"><a xlink:href="../../d8/d0a/a00292.html#ae9b91054186389c3930bc2aaecd4aee8" target="_top" xlink:title="Check CompoundTerm opener symbol. ">
<polygon fill="none" stroke="black" points="155,-0.5 155,-19.5 300,-19.5 300,-0.5 155,-0.5"/>
<text text-anchor="middle" x="227.5" y="-7.5" font-family="Helvetica,sans-Serif" font-size="10.00">nars.io.StringParser.isOpener</text>
</a>
</g>
</g>
<!-- Node386&#45;&gt;Node389 -->
<g id="edge3" class="edge"><title>Node386&#45;&gt;Node389</title>
<path fill="none" stroke="midnightblue" d="M119.025,-34.6026C137.206,-30.4407 157.108,-25.8849 174.79,-21.8372"/>
<polygon fill="midnightblue" stroke="midnightblue" points="175.948,-25.1627 184.915,-19.5195 174.386,-18.3392 175.948,-25.1627"/>
</g>
<!-- Node387&#45;&gt;Node388 -->
<g id="edge2" class="edge"><title>Node387&#45;&gt;Node388</title>
<path fill="none" stroke="midnightblue" d="M274.174,-76.411C298.489,-71.3061 328.58,-64.9887 354.208,-59.6082"/>
<polygon fill="midnightblue" stroke="midnightblue" points="355.087,-63.0001 364.154,-57.5201 353.649,-56.1495 355.087,-63.0001"/>
</g>
<!-- Node389&#45;&gt;Node388 -->
<g id="edge4" class="edge"><title>Node389&#45;&gt;Node388</title>
<path fill="none" stroke="midnightblue" d="M274.174,-19.589C298.489,-24.6939 328.58,-31.0113 354.208,-36.3918"/>
<polygon fill="midnightblue" stroke="midnightblue" points="353.649,-39.8505 364.154,-38.4799 355.087,-32.9999 353.649,-39.8505"/>
</g>
</g>
</svg>
