<?xml version="1.0" encoding="UTF-8" standalone="no"?>
<!DOCTYPE svg PUBLIC "-//W3C//DTD SVG 1.1//EN"
 "http://www.w3.org/Graphics/SVG/1.1/DTD/svg11.dtd">
<!-- Generated by graphviz version 2.38.0 (20140413.2041)
 -->
<!-- Title: nars.entity.Task Pages: 1 -->
<svg width="810pt" height="306pt"
 viewBox="0.00 0.00 810.00 306.00" xmlns="http://www.w3.org/2000/svg" xmlns:xlink="http://www.w3.org/1999/xlink">
<g id="graph0" class="graph" transform="scale(1 1) rotate(0) translate(4 302)">
<title>nars.entity.Task</title>
<!-- Node4 -->
<g id="node1" class="node"><title>Node4</title>
<polygon fill="#bfbfbf" stroke="black" points="715,-200.5 715,-219.5 802,-219.5 802,-200.5 715,-200.5"/>
<text text-anchor="middle" x="758.5" y="-207.5" font-family="Helvetica,sans-Serif" font-size="10.00">nars.entity.Task</text>
</g>
<!-- Node4&#45;&gt;Node4 -->
<g id="edge6" class="edge"><title>Node4&#45;&gt;Node4</title>
<path fill="none" stroke="#9a32cd" stroke-dasharray="5,2" d="M742.205,-229.4C743.293,-234.315 748.725,-238 758.5,-238 774.141,-238 778.662,-228.565 772.063,-219.757"/>
<polygon fill="#9a32cd" stroke="#9a32cd" points="745.578,-230.332 744.937,-219.757 738.843,-228.424 745.578,-230.332"/>
<text text-anchor="middle" x="758.5" y="-241" font-family="Helvetica,sans-Serif" font-size="10.00"> parentTask</text>
</g>
<!-- Node5 -->
<g id="node2" class="node"><title>Node5</title>
<g id="a_node2"><a xlink:href="../../dc/d31/a00208.html" target="_top" xlink:title="An item is an object that can be put into a Bag, to participate in the resource competition of the sy...">
<polygon fill="none" stroke="black" points="528,-240.5 528,-259.5 613,-259.5 613,-240.5 528,-240.5"/>
<text text-anchor="middle" x="570.5" y="-247.5" font-family="Helvetica,sans-Serif" font-size="10.00">nars.entity.Item</text>
</a>
</g>
</g>
<!-- Node5&#45;&gt;Node4 -->
<g id="edge1" class="edge"><title>Node5&#45;&gt;Node4</title>
<path fill="none" stroke="midnightblue" d="M623.193,-239.571C645.867,-234.924 672.78,-229.31 697,-224 703.424,-222.592 710.221,-221.059 716.85,-219.542"/>
<polygon fill="midnightblue" stroke="midnightblue" points="622.196,-236.202 613.099,-241.633 623.597,-243.06 622.196,-236.202"/>
</g>
<!-- Node6 -->
<g id="node3" class="node"><title>Node6</title>
<polygon fill="none" stroke="#bfbfbf" points="353.5,-240.5 353.5,-259.5 415.5,-259.5 415.5,-240.5 353.5,-240.5"/>
<text text-anchor="middle" x="384.5" y="-247.5" font-family="Helvetica,sans-Serif" font-size="10.00">ItemStruct</text>
</g>
<!-- Node6&#45;&gt;Node5 -->
<g id="edge2" class="edge"><title>Node6&#45;&gt;Node5</title>
<path fill="none" stroke="midnightblue" d="M426.064,-250C456.226,-250 497.256,-250 527.708,-250"/>
<polygon fill="midnightblue" stroke="midnightblue" points="425.884,-246.5 415.884,-250 425.884,-253.5 425.884,-246.5"/>
</g>
<!-- Node7 -->
<g id="node4" class="node"><title>Node7</title>
<g id="a_node4"><a xlink:href="../../dd/da2/a00192.html" target="_top" xlink:title="A triple of priority (current), durability (decay), and quality (long&#45;term average). ">
<polygon fill="none" stroke="black" points="324,-278.5 324,-297.5 445,-297.5 445,-278.5 324,-278.5"/>
<text text-anchor="middle" x="384.5" y="-285.5" font-family="Helvetica,sans-Serif" font-size="10.00">nars.entity.BudgetValue</text>
</a>
</g>
</g>
<!-- Node7&#45;&gt;Node5 -->
<g id="edge3" class="edge"><title>Node7&#45;&gt;Node5</title>
<path fill="none" stroke="#9a32cd" stroke-dasharray="5,2" d="M441.884,-276.355C469.588,-270.634 502.388,-263.86 527.798,-258.612"/>
<polygon fill="#9a32cd" stroke="#9a32cd" points="441.016,-272.961 431.931,-278.411 442.432,-279.816 441.016,-272.961"/>
<text text-anchor="middle" x="481" y="-275" font-family="Helvetica,sans-Serif" font-size="10.00"> budget</text>
</g>
<!-- Node8 -->
<g id="node5" class="node"><title>Node8</title>
<polygon fill="none" stroke="#bfbfbf" points="129,-278.5 129,-297.5 203,-297.5 203,-278.5 129,-278.5"/>
<text text-anchor="middle" x="166" y="-285.5" font-family="Helvetica,sans-Serif" font-size="10.00">BudgetStruct</text>
</g>
<!-- Node8&#45;&gt;Node7 -->
<g id="edge4" class="edge"><title>Node8&#45;&gt;Node7</title>
<path fill="none" stroke="midnightblue" d="M213.304,-288C245.584,-288 288.941,-288 323.816,-288"/>
<polygon fill="midnightblue" stroke="midnightblue" points="213.237,-284.5 203.237,-288 213.237,-291.5 213.237,-284.5"/>
</g>
<!-- Node9 -->
<g id="node6" class="node"><title>Node9</title>
<polygon fill="none" stroke="#bfbfbf" points="538,-200.5 538,-219.5 603,-219.5 603,-200.5 538,-200.5"/>
<text text-anchor="middle" x="570.5" y="-207.5" font-family="Helvetica,sans-Serif" font-size="10.00">TaskStruct</text>
</g>
<!-- Node9&#45;&gt;Node4 -->
<g id="edge5" class="edge"><title>Node9&#45;&gt;Node4</title>
<path fill="none" stroke="midnightblue" d="M613.3,-210C643.613,-210 684.469,-210 714.954,-210"/>
<polygon fill="midnightblue" stroke="midnightblue" points="613.052,-206.5 603.052,-210 613.052,-213.5 613.052,-206.5"/>
</g>
<!-- Node10 -->
<g id="node7" class="node"><title>Node10</title>
<g id="a_node7"><a xlink:href="../../dd/dc1/a00212.html" target="_top" xlink:title="A Sentence is an abstract class, mainly containing a Term, a TruthValue, and a Stamp. ">
<polygon fill="none" stroke="black" points="517,-131.5 517,-150.5 624,-150.5 624,-131.5 517,-131.5"/>
<text text-anchor="middle" x="570.5" y="-138.5" font-family="Helvetica,sans-Serif" font-size="10.00">nars.entity.Sentence</text>
</a>
</g>
</g>
<!-- Node10&#45;&gt;Node4 -->
<g id="edge7" class="edge"><title>Node10&#45;&gt;Node4</title>
<path fill="none" stroke="#9a32cd" stroke-dasharray="5,2" d="M633.275,-152.87C653.968,-157.858 676.882,-164.512 697,-173 714.242,-180.275 732.338,-191.955 744.195,-200.244"/>
<polygon fill="#9a32cd" stroke="#9a32cd" points="633.849,-149.41 623.316,-150.554 632.263,-156.228 633.849,-149.41"/>
<text text-anchor="middle" x="669.5" y="-198" font-family="Helvetica,sans-Serif" font-size="10.00"> parentBelief</text>
<text text-anchor="middle" x="669.5" y="-187" font-family="Helvetica,sans-Serif" font-size="10.00">sentence</text>
<text text-anchor="middle" x="669.5" y="-176" font-family="Helvetica,sans-Serif" font-size="10.00">bestSolution</text>
</g>
<!-- Node11 -->
<g id="node8" class="node"><title>Node11</title>
<polygon fill="none" stroke="#bfbfbf" points="136,-101.5 136,-120.5 196,-120.5 196,-101.5 136,-101.5"/>
<text text-anchor="middle" x="166" y="-108.5" font-family="Helvetica,sans-Serif" font-size="10.00">Cloneable</text>
</g>
<!-- Node11&#45;&gt;Node10 -->
<g id="edge8" class="edge"><title>Node11&#45;&gt;Node10</title>
<path fill="none" stroke="midnightblue" d="M206.495,-109.763C260.514,-108.547 360.393,-107.997 445,-117 473.456,-120.028 505.116,-126.17 529.389,-131.482"/>
<polygon fill="midnightblue" stroke="midnightblue" points="206.232,-106.268 196.321,-110.012 206.404,-113.266 206.232,-106.268"/>
</g>
<!-- Node13 -->
<g id="node10" class="node"><title>Node13</title>
<g id="a_node10"><a xlink:href="../../d7/d40/a00236.html" target="_top" xlink:title="Frequency and confidence. ">
<polygon fill="none" stroke="black" points="328,-126.5 328,-145.5 441,-145.5 441,-126.5 328,-126.5"/>
<text text-anchor="middle" x="384.5" y="-133.5" font-family="Helvetica,sans-Serif" font-size="10.00">nars.entity.TruthValue</text>
</a>
</g>
</g>
<!-- Node11&#45;&gt;Node13 -->
<g id="edge11" class="edge"><title>Node11&#45;&gt;Node13</title>
<path fill="none" stroke="midnightblue" d="M206.203,-115.527C240.147,-119.447 289.637,-125.161 327.709,-129.558"/>
<polygon fill="midnightblue" stroke="midnightblue" points="206.534,-112.042 196.198,-114.372 205.731,-118.996 206.534,-112.042"/>
</g>
<!-- Node15 -->
<g id="node12" class="node"><title>Node15</title>
<g id="a_node12"><a xlink:href="../../dc/d59/a00364.html" target="_top" xlink:title="Term is the basic component of Narsese, and the object of processing in NARS. ">
<polygon fill="none" stroke="black" points="333,-44.5 333,-63.5 436,-63.5 436,-44.5 333,-44.5"/>
<text text-anchor="middle" x="384.5" y="-51.5" font-family="Helvetica,sans-Serif" font-size="10.00">nars.language.Term</text>
</a>
</g>
</g>
<!-- Node11&#45;&gt;Node15 -->
<g id="edge14" class="edge"><title>Node11&#45;&gt;Node15</title>
<path fill="none" stroke="midnightblue" d="M203.116,-98.1978C214.523,-94.3603 227.224,-90.2988 239,-87 271.212,-77.9761 307.972,-69.6072 336.353,-63.5552"/>
<polygon fill="midnightblue" stroke="midnightblue" points="201.812,-94.9443 193.48,-101.488 204.074,-101.569 201.812,-94.9443"/>
</g>
<!-- Node18 -->
<g id="node15" class="node"><title>Node18</title>
<g id="a_node15"><a xlink:href="../../d6/d43/a00216.html" target="_top" xlink:title="Each Sentence has a time stamp, consisting the following components: (1) The creation time of the sen...">
<polygon fill="none" stroke="black" points="337.5,-202.5 337.5,-221.5 431.5,-221.5 431.5,-202.5 337.5,-202.5"/>
<text text-anchor="middle" x="384.5" y="-209.5" font-family="Helvetica,sans-Serif" font-size="10.00">nars.entity.Stamp</text>
</a>
</g>
</g>
<!-- Node11&#45;&gt;Node18 -->
<g id="edge18" class="edge"><title>Node11&#45;&gt;Node18</title>
<path fill="none" stroke="midnightblue" d="M191.714,-125.614C222.115,-143.187 275.647,-172.829 324,-193 332.307,-196.465 341.481,-199.681 350.088,-202.444"/>
<polygon fill="midnightblue" stroke="midnightblue" points="193.457,-122.579 183.054,-120.572 189.935,-128.628 193.457,-122.579"/>
</g>
<!-- Node12 -->
<g id="node9" class="node"><title>Node12</title>
<polygon fill="none" stroke="#bfbfbf" points="342.5,-164.5 342.5,-183.5 426.5,-183.5 426.5,-164.5 342.5,-164.5"/>
<text text-anchor="middle" x="384.5" y="-171.5" font-family="Helvetica,sans-Serif" font-size="10.00">SentenceStruct</text>
</g>
<!-- Node12&#45;&gt;Node10 -->
<g id="edge9" class="edge"><title>Node12&#45;&gt;Node10</title>
<path fill="none" stroke="midnightblue" d="M436.668,-165.072C456.182,-161.644 478.627,-157.673 499,-154 505.124,-152.896 511.546,-151.727 517.914,-150.561"/>
<polygon fill="midnightblue" stroke="midnightblue" points="436.002,-161.636 426.757,-166.811 437.211,-168.53 436.002,-161.636"/>
</g>
<!-- Node13&#45;&gt;Node10 -->
<g id="edge10" class="edge"><title>Node13&#45;&gt;Node10</title>
<path fill="none" stroke="#9a32cd" stroke-dasharray="5,2" d="M451.253,-137.787C472.775,-138.372 496.39,-139.013 516.818,-139.568"/>
<polygon fill="#9a32cd" stroke="#9a32cd" points="451.297,-134.287 441.205,-137.514 451.107,-141.284 451.297,-134.287"/>
<text text-anchor="middle" x="481" y="-142" font-family="Helvetica,sans-Serif" font-size="10.00"> truth</text>
</g>
<!-- Node14 -->
<g id="node11" class="node"><title>Node14</title>
<polygon fill="none" stroke="#bfbfbf" points="131,-163.5 131,-182.5 201,-182.5 201,-163.5 131,-163.5"/>
<text text-anchor="middle" x="166" y="-170.5" font-family="Helvetica,sans-Serif" font-size="10.00">TruthHandle</text>
</g>
<!-- Node14&#45;&gt;Node13 -->
<g id="edge12" class="edge"><title>Node14&#45;&gt;Node13</title>
<path fill="none" stroke="midnightblue" d="M211.328,-165.424C245.038,-159.663 291.637,-151.7 327.855,-145.51"/>
<polygon fill="midnightblue" stroke="midnightblue" points="210.573,-162.003 201.305,-167.137 211.752,-168.903 210.573,-162.003"/>
</g>
<!-- Node15&#45;&gt;Node10 -->
<g id="edge13" class="edge"><title>Node15&#45;&gt;Node10</title>
<path fill="none" stroke="#9a32cd" stroke-dasharray="5,2" d="M446.357,-57.3769C464.028,-60.1316 482.891,-64.8858 499,-73 526.945,-87.0759 551.139,-116.047 562.538,-131.229"/>
<polygon fill="#9a32cd" stroke="#9a32cd" points="446.502,-53.8642 436.12,-55.9756 445.553,-60.7995 446.502,-53.8642"/>
<text text-anchor="middle" x="481" y="-76" font-family="Helvetica,sans-Serif" font-size="10.00"> content</text>
</g>
<!-- Node16 -->
<g id="node13" class="node"><title>Node16</title>
<polygon fill="none" stroke="#bfbfbf" points="111,-38.5 111,-57.5 221,-57.5 221,-38.5 111,-38.5"/>
<text text-anchor="middle" x="166" y="-45.5" font-family="Helvetica,sans-Serif" font-size="10.00">Comparable&lt; Term &gt;</text>
</g>
<!-- Node16&#45;&gt;Node15 -->
<g id="edge15" class="edge"><title>Node16&#45;&gt;Node15</title>
<path fill="none" stroke="midnightblue" d="M231.35,-49.7834C263.743,-50.6811 302.449,-51.7538 332.716,-52.5926"/>
<polygon fill="midnightblue" stroke="midnightblue" points="231.167,-46.277 221.074,-49.4986 230.973,-53.2744 231.167,-46.277"/>
</g>
<!-- Node17 -->
<g id="node14" class="node"><title>Node17</title>
<polygon fill="none" stroke="#bfbfbf" points="133.5,-0.5 133.5,-19.5 198.5,-19.5 198.5,-0.5 133.5,-0.5"/>
<text text-anchor="middle" x="166" y="-7.5" font-family="Helvetica,sans-Serif" font-size="10.00">TermStruct</text>
</g>
<!-- Node17&#45;&gt;Node15 -->
<g id="edge16" class="edge"><title>Node17&#45;&gt;Node15</title>
<path fill="none" stroke="midnightblue" d="M208.807,-18.4965C245.418,-25.9371 298.564,-36.7381 336.61,-44.4704"/>
<polygon fill="midnightblue" stroke="midnightblue" points="209.442,-15.0542 198.945,-16.4924 208.048,-21.9139 209.442,-15.0542"/>
</g>
<!-- Node18&#45;&gt;Node10 -->
<g id="edge17" class="edge"><title>Node18&#45;&gt;Node10</title>
<path fill="none" stroke="#9a32cd" stroke-dasharray="5,2" d="M426.24,-199.359C432.543,-197.297 438.962,-195.136 445,-193 482.1,-179.877 524.124,-161.583 548.631,-150.557"/>
<polygon fill="#9a32cd" stroke="#9a32cd" points="424.946,-196.099 416.503,-202.499 427.095,-202.761 424.946,-196.099"/>
<text text-anchor="middle" x="481" y="-189" font-family="Helvetica,sans-Serif" font-size="10.00"> stamp</text>
</g>
<!-- Node19 -->
<g id="node16" class="node"><title>Node19</title>
<polygon fill="none" stroke="#bfbfbf" points="130.5,-202.5 130.5,-221.5 201.5,-221.5 201.5,-202.5 130.5,-202.5"/>
<text text-anchor="middle" x="166" y="-209.5" font-family="Helvetica,sans-Serif" font-size="10.00">StampStruct</text>
</g>
<!-- Node19&#45;&gt;Node18 -->
<g id="edge19" class="edge"><title>Node19&#45;&gt;Node18</title>
<path fill="none" stroke="midnightblue" d="M212.199,-212C248.929,-212 300.528,-212 337.478,-212"/>
<polygon fill="midnightblue" stroke="midnightblue" points="211.785,-208.5 201.784,-212 211.784,-215.5 211.785,-208.5"/>
</g>
<!-- Node20 -->
<g id="node17" class="node"><title>Node20</title>
<polygon fill="none" stroke="#bfbfbf" points="130.5,-240.5 130.5,-259.5 201.5,-259.5 201.5,-240.5 130.5,-240.5"/>
<text text-anchor="middle" x="166" y="-247.5" font-family="Helvetica,sans-Serif" font-size="10.00">List&lt; Long &gt;</text>
</g>
<!-- Node20&#45;&gt;Node18 -->
<g id="edge20" class="edge"><title>Node20&#45;&gt;Node18</title>
<path fill="none" stroke="#9a32cd" stroke-dasharray="5,2" d="M211.592,-242.391C238.865,-237.715 274.459,-231.572 306,-226 316.098,-224.216 326.931,-222.276 337.202,-220.424"/>
<polygon fill="#9a32cd" stroke="#9a32cd" points="210.838,-238.969 201.572,-244.107 212.02,-245.869 210.838,-238.969"/>
<text text-anchor="middle" x="272.5" y="-241" font-family="Helvetica,sans-Serif" font-size="10.00"> evidentialBase</text>
</g>
<!-- Node21 -->
<g id="node18" class="node"><title>Node21</title>
<polygon fill="none" stroke="#bfbfbf" points="0,-240.5 0,-259.5 32,-259.5 32,-240.5 0,-240.5"/>
<text text-anchor="middle" x="16" y="-247.5" font-family="Helvetica,sans-Serif" font-size="10.00">List</text>
</g>
<!-- Node21&#45;&gt;Node20 -->
<g id="edge21" class="edge"><title>Node21&#45;&gt;Node20</title>
<path fill="none" stroke="orange" stroke-dasharray="5,2" d="M42.1945,-250C66.4867,-250 103.443,-250 130.47,-250"/>
<polygon fill="orange" stroke="orange" points="42.0055,-246.5 32.0055,-250 42.0055,-253.5 42.0055,-246.5"/>
<text text-anchor="middle" x="71.5" y="-253" font-family="Helvetica,sans-Serif" font-size="10.00"> &lt; Long &gt;</text>
</g>
</g>
</svg>
