<?xml version="1.0" encoding="UTF-8" standalone="no"?>
<!DOCTYPE svg PUBLIC "-//W3C//DTD SVG 1.1//EN"
 "http://www.w3.org/Graphics/SVG/1.1/DTD/svg11.dtd">
<!-- Generated by graphviz version 2.38.0 (20140413.2041)
 -->
<!-- Title: nars.storage.Memory.inputTask Pages: 1 -->
<svg width="547pt" height="39pt"
 viewBox="0.00 0.00 547.00 39.00" xmlns="http://www.w3.org/2000/svg" xmlns:xlink="http://www.w3.org/1999/xlink">
<g id="graph0" class="graph" transform="scale(1 1) rotate(0) translate(4 35)">
<title>nars.storage.Memory.inputTask</title>
<!-- Node1081 -->
<g id="node1" class="node"><title>Node1081</title>
<polygon fill="#bfbfbf" stroke="black" points="0,-6 0,-25 155,-25 155,-6 0,-6"/>
<text text-anchor="middle" x="77.5" y="-13" font-family="Helvetica,sans-Serif" font-size="10.00">nars.storage.Memory.inputTask</text>
</g>
<!-- Node1082 -->
<g id="node2" class="node"><title>Node1082</title>
<g id="a_node2"><a xlink:href="../../df/d15/a00416.html#a1823f1575021b1ca67e6174923923fbb" target="_top" xlink:title="To process a line of input text. ">
<polygon fill="none" stroke="black" points="191,-0.5 191,-30.5 352,-30.5 352,-0.5 191,-0.5"/>
<text text-anchor="start" x="199" y="-18.5" font-family="Helvetica,sans-Serif" font-size="10.00">nars.storage.ReasonerBatch.text</text>
<text text-anchor="middle" x="271.5" y="-7.5" font-family="Helvetica,sans-Serif" font-size="10.00">InputLine</text>
</a>
</g>
</g>
<!-- Node1081&#45;&gt;Node1082 -->
<g id="edge1" class="edge"><title>Node1081&#45;&gt;Node1082</title>
<path fill="none" stroke="midnightblue" d="M165.438,-15.5C173.876,-15.5 182.407,-15.5 190.769,-15.5"/>
<polygon fill="midnightblue" stroke="midnightblue" points="165.211,-12.0001 155.211,-15.5 165.211,-19.0001 165.211,-12.0001"/>
</g>
<!-- Node1083 -->
<g id="node3" class="node"><title>Node1083</title>
<g id="a_node3"><a xlink:href="../../d9/dd6/a00272.html#a1a4b66a6e6cf89d5c2ea7a5923195247" target="_top" xlink:title="Process the next chunk of input data TODO duplicated code with InputWindow#nextInput(). ">
<polygon fill="none" stroke="black" points="388,-0.5 388,-30.5 539,-30.5 539,-0.5 388,-0.5"/>
<text text-anchor="start" x="396" y="-18.5" font-family="Helvetica,sans-Serif" font-size="10.00">nars.io.ExperienceReader.next</text>
<text text-anchor="middle" x="463.5" y="-7.5" font-family="Helvetica,sans-Serif" font-size="10.00">Input</text>
</a>
</g>
</g>
<!-- Node1082&#45;&gt;Node1083 -->
<g id="edge2" class="edge"><title>Node1082&#45;&gt;Node1083</title>
<path fill="none" stroke="midnightblue" d="M362.529,-15.5C370.992,-15.5 379.507,-15.5 387.805,-15.5"/>
<polygon fill="midnightblue" stroke="midnightblue" points="362.251,-12.0001 352.251,-15.5 362.251,-19.0001 362.251,-12.0001"/>
</g>
</g>
</svg>
