<?xml version="1.0" encoding="UTF-8" standalone="no"?>
<!DOCTYPE svg PUBLIC "-//W3C//DTD SVG 1.1//EN"
 "http://www.w3.org/Graphics/SVG/1.1/DTD/svg11.dtd">
<!-- Generated by graphviz version 2.38.0 (20140413.2041)
 -->
<!-- Title: nars.storage.Memory.getTime Pages: 1 -->
<svg width="370pt" height="116pt"
 viewBox="0.00 0.00 370.00 115.50" xmlns="http://www.w3.org/2000/svg" xmlns:xlink="http://www.w3.org/1999/xlink">
<g id="graph0" class="graph" transform="scale(1 1) rotate(0) translate(4 111.5)">
<title>nars.storage.Memory.getTime</title>
<!-- Node873 -->
<g id="node1" class="node"><title>Node873</title>
<polygon fill="#bfbfbf" stroke="black" points="0,-38.5 0,-57.5 147,-57.5 147,-38.5 0,-38.5"/>
<text text-anchor="middle" x="73.5" y="-45.5" font-family="Helvetica,sans-Serif" font-size="10.00">nars.storage.Memory.getTime</text>
</g>
<!-- Node874 -->
<g id="node2" class="node"><title>Node874</title>
<g id="a_node2"><a xlink:href="../../df/d15/a00416.html#ae7cc80bb901b1e8008537fe24e5d1bb2" target="_top" xlink:title="System clock, relatively defined to guarantee the repeatability of behaviors. ">
<polygon fill="none" stroke="black" points="193.5,-77 193.5,-107 351.5,-107 351.5,-77 193.5,-77"/>
<text text-anchor="start" x="201.5" y="-95" font-family="Helvetica,sans-Serif" font-size="10.00">nars.storage.ReasonerBatch.get</text>
<text text-anchor="middle" x="272.5" y="-84" font-family="Helvetica,sans-Serif" font-size="10.00">Clock</text>
</a>
</g>
</g>
<!-- Node873&#45;&gt;Node874 -->
<g id="edge1" class="edge"><title>Node873&#45;&gt;Node874</title>
<path fill="none" stroke="midnightblue" d="M117.246,-57.5473C139.723,-62.5676 167.975,-68.8777 194.139,-74.7215"/>
<polygon fill="midnightblue" stroke="midnightblue" points="193.526,-78.1706 204.048,-76.9346 195.052,-71.3389 193.526,-78.1706"/>
</g>
<!-- Node875 -->
<g id="node3" class="node"><title>Node875</title>
<g id="a_node3"><a xlink:href="../../d4/d27/a00392.html#a076ad9a0e872386bca3f2d17fa7cb2d4" target="_top" xlink:title="Backward pointer to the reasoner. ">
<polygon fill="none" stroke="black" points="189,-38.5 189,-57.5 356,-57.5 356,-38.5 189,-38.5"/>
<text text-anchor="middle" x="272.5" y="-45.5" font-family="Helvetica,sans-Serif" font-size="10.00">nars.storage.Memory.getReasoner</text>
</a>
</g>
</g>
<!-- Node873&#45;&gt;Node875 -->
<g id="edge2" class="edge"><title>Node873&#45;&gt;Node875</title>
<path fill="none" stroke="midnightblue" d="M147.016,-48C157.326,-48 168.044,-48 178.674,-48"/>
<polygon fill="midnightblue" stroke="midnightblue" points="178.822,-51.5001 188.822,-48 178.822,-44.5001 178.822,-51.5001"/>
</g>
<!-- Node876 -->
<g id="node4" class="node"><title>Node876</title>
<g id="a_node4"><a xlink:href="../../df/d15/a00416.html#aeb34e5ff1c0a1f220e7b8715cee2d9d3" target="_top" xlink:title="Get the current time from the clock Called in nars.entity.Stamp. ">
<polygon fill="none" stroke="black" points="183,-0.5 183,-19.5 362,-19.5 362,-0.5 183,-0.5"/>
<text text-anchor="middle" x="272.5" y="-7.5" font-family="Helvetica,sans-Serif" font-size="10.00">nars.storage.ReasonerBatch.getTime</text>
</a>
</g>
</g>
<!-- Node873&#45;&gt;Node876 -->
<g id="edge3" class="edge"><title>Node873&#45;&gt;Node876</title>
<path fill="none" stroke="midnightblue" d="M123.957,-38.46C150.654,-33.3104 183.804,-26.916 211.915,-21.4935"/>
<polygon fill="midnightblue" stroke="midnightblue" points="212.866,-24.8746 222.023,-19.5439 211.541,-18.0013 212.866,-24.8746"/>
</g>
</g>
</svg>
