<?xml version="1.0" encoding="UTF-8" standalone="no"?>
<!DOCTYPE svg PUBLIC "-//W3C//DTD SVG 1.1//EN"
 "http://www.w3.org/Graphics/SVG/1.1/DTD/svg11.dtd">
<!-- Generated by graphviz version 2.38.0 (20140413.2041)
 -->
<!-- Title: nars.storage.Memory.getNovelTasks Pages: 1 -->
<!--zoomable 264 -->
<svg id="main" version="1.1" xmlns="http://www.w3.org/2000/svg" xmlns:xlink="http://www.w3.org/1999/xlink" xml:space="preserve" onload="init(evt)">
<style type="text/css"><![CDATA[
.edge:hover path { stroke: red; }
.edge:hover polygon { stroke: red; fill: red; }
]]></style>
<script type="text/javascript"><![CDATA[
var edges = document.getElementsByTagName('g');
if (edges && edges.length) {
  for (var i=0;i<edges.length;i++) {
    if (edges[i].id.substr(0,4)=='edge') {
      edges[i].setAttribute('class','edge');
    }
  }
}
]]></script>
        <defs>
                <circle id="rim" cx="0" cy="0" r="7"/>
                <circle id="rim2" cx="0" cy="0" r="3.5"/>
                <g id="zoomPlus">
                        <use xlink:href="#rim" fill="#404040">
                                <set attributeName="fill" to="#808080" begin="zoomplus.mouseover" end="zoomplus.mouseout"/>
                        </use>
                        <path d="M-4,0h8M0,-4v8" fill="none" stroke="white" stroke-width="1.5" pointer-events="none"/>
                </g>
                <g id="zoomMin">
                        <use xlink:href="#rim" fill="#404040">
                                <set attributeName="fill" to="#808080" begin="zoomminus.mouseover" end="zoomminus.mouseout"/>
                        </use>
                        <path d="M-4,0h8" fill="none" stroke="white" stroke-width="1.5" pointer-events="none"/>
                </g>
                <g id="dirArrow">
                        <path fill="none" stroke="white" stroke-width="1.5" d="M0,-3.0v7 M-2.5,-0.5L0,-3.0L2.5,-0.5"/>
                </g>
               <g id="resetDef">
                       <use xlink:href="#rim2" fill="#404040">
                               <set attributeName="fill" to="#808080" begin="reset.mouseover" end="reset.mouseout"/>
                       </use>
               </g>
        </defs>

<script type="text/javascript">
var viewWidth = 1496;
var viewHeight = 264;
var sectionId = 'dynsection-24';
</script>
<script xlink:href="../../svgpan.js"/>
<svg id="graph" class="graph">
<g id="viewport">
<title>nars.storage.Memory.getNovelTasks</title>
<!-- Node732 -->
<g id="node1" class="node"><title>Node732</title>
<polygon fill="#bfbfbf" stroke="black" points="0,-115.5 0,-145.5 151,-145.5 151,-115.5 0,-115.5"/>
<text text-anchor="start" x="8" y="-133.5" font-family="Helvetica,sans-Serif" font-size="10.00">nars.storage.Memory.getNovel</text>
<text text-anchor="middle" x="75.5" y="-122.5" font-family="Helvetica,sans-Serif" font-size="10.00">Tasks</text>
</g>
<!-- Node733 -->
<g id="node2" class="node"><title>Node733</title>
<g id="a_node2"><a xlink:href="../../d4/d27/a00392.html#a4b342885c51299f76ad698b629f7515c" target="_top" xlink:title="nars.storage.Memory.init">
<polygon fill="none" stroke="black" points="197.5,-231 197.5,-250 322.5,-250 322.5,-231 197.5,-231"/>
<text text-anchor="middle" x="260" y="-238" font-family="Helvetica,sans-Serif" font-size="10.00">nars.storage.Memory.init</text>
</a>
</g>
</g>
<!-- Node732&#45;&gt;Node733 -->
<g id="edge1" class="edge"><title>Node732&#45;&gt;Node733</title>
<path fill="none" stroke="midnightblue" d="M97.8149,-152.919C118.689,-173.61 152.33,-203.737 187,-221.5 194.479,-225.332 202.801,-228.442 211.057,-230.951"/>
<polygon fill="midnightblue" stroke="midnightblue" points="100.249,-150.402 90.724,-145.763 95.2768,-155.33 100.249,-150.402"/>
</g>
<!-- Node737 -->
<g id="node6" class="node"><title>Node737</title>
<g id="a_node6"><a xlink:href="../../d4/d27/a00392.html#ae43b86074c0d8f6a324696f69faa54b3" target="_top" xlink:title="Process the newTasks accumulated in the previous workCycle, accept input ones and those that correspo...">
<polygon fill="none" stroke="black" points="187,-181.5 187,-211.5 333,-211.5 333,-181.5 187,-181.5"/>
<text text-anchor="start" x="195" y="-199.5" font-family="Helvetica,sans-Serif" font-size="10.00">nars.storage.Memory.process</text>
<text text-anchor="middle" x="260" y="-188.5" font-family="Helvetica,sans-Serif" font-size="10.00">NewTask</text>
</a>
</g>
</g>
<!-- Node732&#45;&gt;Node737 -->
<g id="edge5" class="edge"><title>Node732&#45;&gt;Node737</title>
<path fill="none" stroke="midnightblue" d="M128.068,-149.149C156.297,-159.358 190.818,-171.843 217.326,-181.429"/>
<polygon fill="midnightblue" stroke="midnightblue" points="128.963,-145.751 118.369,-145.642 126.583,-152.334 128.963,-145.751"/>
</g>
<!-- Node738 -->
<g id="node7" class="node"><title>Node738</title>
<g id="a_node7"><a xlink:href="../../d4/d27/a00392.html#a59ae339d666409988d90d29be4f73a91" target="_top" xlink:title="An atomic working workCycle of the system: process new Tasks, then fireFromProcessConcept a concept...">
<polygon fill="none" stroke="black" points="385.5,-137.5 385.5,-167.5 518.5,-167.5 518.5,-137.5 385.5,-137.5"/>
<text text-anchor="start" x="393.5" y="-155.5" font-family="Helvetica,sans-Serif" font-size="10.00">nars.storage.Memory.work</text>
<text text-anchor="middle" x="452" y="-144.5" font-family="Helvetica,sans-Serif" font-size="10.00">Cycle</text>
</a>
</g>
</g>
<!-- Node732&#45;&gt;Node738 -->
<g id="edge18" class="edge"><title>Node732&#45;&gt;Node738</title>
<path fill="none" stroke="midnightblue" d="M161.626,-135.501C229.497,-139.488 323.155,-144.99 385.323,-148.642"/>
<polygon fill="midnightblue" stroke="midnightblue" points="161.574,-131.992 151.386,-134.899 161.163,-138.98 161.574,-131.992"/>
</g>
<!-- Node744 -->
<g id="node13" class="node"><title>Node744</title>
<g id="a_node13"><a xlink:href="../../d4/d27/a00392.html#a5061708f88897cfdf4e0671c846762ca" target="_top" xlink:title="Select a novel task to process. ">
<polygon fill="none" stroke="black" points="187,-93.5 187,-123.5 333,-123.5 333,-93.5 187,-93.5"/>
<text text-anchor="start" x="195" y="-111.5" font-family="Helvetica,sans-Serif" font-size="10.00">nars.storage.Memory.process</text>
<text text-anchor="middle" x="260" y="-100.5" font-family="Helvetica,sans-Serif" font-size="10.00">NovelTask</text>
</a>
</g>
</g>
<!-- Node732&#45;&gt;Node744 -->
<g id="edge12" class="edge"><title>Node732&#45;&gt;Node744</title>
<path fill="none" stroke="midnightblue" d="M161.211,-120.288C169.736,-119.261 178.338,-118.224 186.717,-117.214"/>
<polygon fill="midnightblue" stroke="midnightblue" points="160.766,-116.817 151.256,-121.488 161.603,-123.766 160.766,-116.817"/>
</g>
<!-- Node745 -->
<g id="node14" class="node"><title>Node745</title>
<g id="a_node14"><a xlink:href="../../d4/d27/a00392.html#a7f2f79bf2e3013e5eebabeca37ffe2c8" target="_top" xlink:title="Display new tasks, called from MainWindow. ">
<polygon fill="none" stroke="black" points="194.5,-44.5 194.5,-74.5 325.5,-74.5 325.5,-44.5 194.5,-44.5"/>
<text text-anchor="start" x="202.5" y="-62.5" font-family="Helvetica,sans-Serif" font-size="10.00">nars.storage.Memory.task</text>
<text text-anchor="middle" x="260" y="-51.5" font-family="Helvetica,sans-Serif" font-size="10.00">BuffersStartPlay</text>
</a>
</g>
</g>
<!-- Node732&#45;&gt;Node745 -->
<g id="edge14" class="edge"><title>Node732&#45;&gt;Node745</title>
<path fill="none" stroke="midnightblue" d="M119.374,-111.315C139.713,-102.458 164.447,-92.0396 187,-83.5 195.01,-80.4673 203.594,-77.4274 211.944,-74.5795"/>
<polygon fill="midnightblue" stroke="midnightblue" points="117.823,-108.173 110.068,-115.391 120.632,-114.585 117.823,-108.173"/>
</g>
<!-- Node746 -->
<g id="node15" class="node"><title>Node746</title>
<g id="a_node15"><a xlink:href="../../d4/d27/a00392.html#aaf94683fe32443a90619071e13b7fe41" target="_top" xlink:title="nars.storage.Memory.toString">
<polygon fill="none" stroke="black" points="187,-6 187,-25 333,-25 333,-6 187,-6"/>
<text text-anchor="middle" x="260" y="-13" font-family="Helvetica,sans-Serif" font-size="10.00">nars.storage.Memory.toString</text>
</a>
</g>
</g>
<!-- Node732&#45;&gt;Node746 -->
<g id="edge15" class="edge"><title>Node732&#45;&gt;Node746</title>
<path fill="none" stroke="midnightblue" d="M96.5244,-107.91C117.128,-86.0252 151.19,-53.4468 187,-34.5 194.313,-30.6306 202.47,-27.5084 210.591,-25.0016"/>
<polygon fill="midnightblue" stroke="midnightblue" points="93.7794,-105.723 89.5642,-115.443 98.921,-110.473 93.7794,-105.723"/>
</g>
<!-- Node734 -->
<g id="node3" class="node"><title>Node734</title>
<g id="a_node3"><a xlink:href="../../df/d15/a00416.html#ab89758e9f42673fedcc4a895a2f4a928" target="_top" xlink:title="Reset the system with an empty memory and reset clock. ">
<polygon fill="none" stroke="black" points="369,-231 369,-250 535,-250 535,-231 369,-231"/>
<text text-anchor="middle" x="452" y="-238" font-family="Helvetica,sans-Serif" font-size="10.00">nars.storage.ReasonerBatch.reset</text>
</a>
</g>
</g>
<!-- Node733&#45;&gt;Node734 -->
<g id="edge2" class="edge"><title>Node733&#45;&gt;Node734</title>
<path fill="none" stroke="midnightblue" d="M332.873,-240.5C344.633,-240.5 356.896,-240.5 368.88,-240.5"/>
<polygon fill="midnightblue" stroke="midnightblue" points="332.688,-237 322.688,-240.5 332.688,-244 332.688,-237"/>
</g>
<!-- Node735 -->
<g id="node4" class="node"><title>Node735</title>
<g id="a_node4"><a xlink:href="../../df/d15/a00416.html#a1823f1575021b1ca67e6174923923fbb" target="_top" xlink:title="To process a line of input text. ">
<polygon fill="none" stroke="black" points="577,-225.5 577,-255.5 738,-255.5 738,-225.5 577,-225.5"/>
<text text-anchor="start" x="585" y="-243.5" font-family="Helvetica,sans-Serif" font-size="10.00">nars.storage.ReasonerBatch.text</text>
<text text-anchor="middle" x="657.5" y="-232.5" font-family="Helvetica,sans-Serif" font-size="10.00">InputLine</text>
</a>
</g>
</g>
<!-- Node734&#45;&gt;Node735 -->
<g id="edge3" class="edge"><title>Node734&#45;&gt;Node735</title>
<path fill="none" stroke="midnightblue" d="M545.276,-240.5C555.86,-240.5 566.583,-240.5 576.98,-240.5"/>
<polygon fill="midnightblue" stroke="midnightblue" points="545.185,-237 535.185,-240.5 545.185,-244 545.185,-237"/>
</g>
<!-- Node736 -->
<g id="node5" class="node"><title>Node736</title>
<g id="a_node5"><a xlink:href="../../d9/dd6/a00272.html#a1a4b66a6e6cf89d5c2ea7a5923195247" target="_top" xlink:title="Process the next chunk of input data TODO duplicated code with InputWindow#nextInput(). ">
<polygon fill="none" stroke="black" points="784.5,-225.5 784.5,-255.5 935.5,-255.5 935.5,-225.5 784.5,-225.5"/>
<text text-anchor="start" x="792.5" y="-243.5" font-family="Helvetica,sans-Serif" font-size="10.00">nars.io.ExperienceReader.next</text>
<text text-anchor="middle" x="860" y="-232.5" font-family="Helvetica,sans-Serif" font-size="10.00">Input</text>
</a>
</g>
</g>
<!-- Node735&#45;&gt;Node736 -->
<g id="edge4" class="edge"><title>Node735&#45;&gt;Node736</title>
<path fill="none" stroke="midnightblue" d="M748.157,-240.5C760.289,-240.5 772.63,-240.5 784.459,-240.5"/>
<polygon fill="midnightblue" stroke="midnightblue" points="748.031,-237 738.031,-240.5 748.031,-244 748.031,-237"/>
</g>
<!-- Node737&#45;&gt;Node738 -->
<g id="edge6" class="edge"><title>Node737&#45;&gt;Node738</title>
<path fill="none" stroke="midnightblue" d="M336.037,-179.123C352.594,-175.289 369.999,-171.258 386.114,-167.526"/>
<polygon fill="midnightblue" stroke="midnightblue" points="334.808,-175.815 325.856,-181.481 336.388,-182.634 334.808,-175.815"/>
</g>
<!-- Node739 -->
<g id="node8" class="node"><title>Node739</title>
<g id="a_node8"><a xlink:href="../../df/d15/a00416.html#a0d5c797dc17d9e8d0998852915e0f303" target="_top" xlink:title="nars.storage.ReasonerBatch.doTick">
<polygon fill="none" stroke="black" points="571,-143 571,-162 744,-162 744,-143 571,-143"/>
<text text-anchor="middle" x="657.5" y="-150" font-family="Helvetica,sans-Serif" font-size="10.00">nars.storage.ReasonerBatch.doTick</text>
</a>
</g>
</g>
<!-- Node738&#45;&gt;Node739 -->
<g id="edge7" class="edge"><title>Node738&#45;&gt;Node739</title>
<path fill="none" stroke="midnightblue" d="M528.8,-152.5C542.45,-152.5 556.768,-152.5 570.679,-152.5"/>
<polygon fill="midnightblue" stroke="midnightblue" points="528.509,-149 518.509,-152.5 528.509,-156 528.509,-149"/>
</g>
<!-- Node740 -->
<g id="node9" class="node"><title>Node740</title>
<g id="a_node9"><a xlink:href="../../df/d15/a00416.html#a3468aa0f99edcd66412f27922dddb880" target="_top" xlink:title="A clock tick. ">
<polygon fill="none" stroke="black" points="780,-143 780,-162 940,-162 940,-143 780,-143"/>
<text text-anchor="middle" x="860" y="-150" font-family="Helvetica,sans-Serif" font-size="10.00">nars.storage.ReasonerBatch.tick</text>
</a>
</g>
</g>
<!-- Node739&#45;&gt;Node740 -->
<g id="edge8" class="edge"><title>Node739&#45;&gt;Node740</title>
<path fill="none" stroke="midnightblue" d="M754.131,-152.5C762.696,-152.5 771.306,-152.5 779.711,-152.5"/>
<polygon fill="midnightblue" stroke="midnightblue" points="754.112,-149 744.112,-152.5 754.112,-156 754.112,-149"/>
</g>
<!-- Node741 -->
<g id="node10" class="node"><title>Node741</title>
<g id="a_node10"><a xlink:href="../../d9/da1/a00396.html#a5d9cfe517bcfbe41e5251910bcd119c1" target="_top" xlink:title="Run to completion: repeatedly execute NARS working cycle, until Inputs are Finished, or 1000 steps. ">
<polygon fill="none" stroke="black" points="976,-143 976,-162 1120,-162 1120,-143 976,-143"/>
<text text-anchor="middle" x="1048" y="-150" font-family="Helvetica,sans-Serif" font-size="10.00">nars.storage.NARSBatch.run</text>
</a>
</g>
</g>
<!-- Node740&#45;&gt;Node741 -->
<g id="edge9" class="edge"><title>Node740&#45;&gt;Node741</title>
<path fill="none" stroke="midnightblue" d="M950.217,-152.5C958.824,-152.5 967.475,-152.5 975.873,-152.5"/>
<polygon fill="midnightblue" stroke="midnightblue" points="950.15,-149 940.15,-152.5 950.15,-156 950.15,-149"/>
</g>
<!-- Node742 -->
<g id="node11" class="node"><title>Node742</title>
<g id="a_node11"><a xlink:href="../../d9/da1/a00396.html#a7c307c6b842f82664de6b0e52bdf8efc" target="_top" xlink:title="non&#45;static equivalent to main(String[]) : run to completion from an input file ">
<polygon fill="none" stroke="black" points="1156,-137.5 1156,-167.5 1300,-167.5 1300,-137.5 1156,-137.5"/>
<text text-anchor="start" x="1164" y="-155.5" font-family="Helvetica,sans-Serif" font-size="10.00">nars.storage.NARSBatch.run</text>
<text text-anchor="middle" x="1228" y="-144.5" font-family="Helvetica,sans-Serif" font-size="10.00">Inference</text>
</a>
</g>
</g>
<!-- Node741&#45;&gt;Node742 -->
<g id="edge10" class="edge"><title>Node741&#45;&gt;Node742</title>
<path fill="none" stroke="midnightblue" d="M1130.17,-152.5C1138.79,-152.5 1147.51,-152.5 1156,-152.5"/>
<polygon fill="midnightblue" stroke="midnightblue" points="1130.12,-149 1120.12,-152.5 1130.12,-156 1130.12,-149"/>
</g>
<!-- Node743 -->
<g id="node12" class="node"><title>Node743</title>
<g id="a_node12"><a xlink:href="../../d9/da1/a00396.html#abafc597289bc2f6453b5cd0dd6634e54" target="_top" xlink:title="The entry point of the standalone application. ">
<polygon fill="none" stroke="black" points="1336,-143 1336,-162 1488,-162 1488,-143 1336,-143"/>
<text text-anchor="middle" x="1412" y="-150" font-family="Helvetica,sans-Serif" font-size="10.00">nars.storage.NARSBatch.main</text>
</a>
</g>
</g>
<!-- Node742&#45;&gt;Node743 -->
<g id="edge11" class="edge"><title>Node742&#45;&gt;Node743</title>
<path fill="none" stroke="midnightblue" d="M1310.17,-152.5C1318.76,-152.5 1327.48,-152.5 1336,-152.5"/>
<polygon fill="midnightblue" stroke="midnightblue" points="1310.15,-149 1300.15,-152.5 1310.15,-156 1310.15,-149"/>
</g>
<!-- Node744&#45;&gt;Node738 -->
<g id="edge13" class="edge"><title>Node744&#45;&gt;Node738</title>
<path fill="none" stroke="midnightblue" d="M336.037,-125.877C352.594,-129.711 369.999,-133.742 386.114,-137.474"/>
<polygon fill="midnightblue" stroke="midnightblue" points="336.388,-122.366 325.856,-123.519 334.808,-129.185 336.388,-122.366"/>
</g>
<!-- Node747 -->
<g id="node16" class="node"><title>Node747</title>
<g id="a_node16"><a xlink:href="../../df/d15/a00416.html#ab08b1d98b8efca20e2a96b48681a39f2" target="_top" xlink:title="nars.storage.ReasonerBatch.as\lString">
<polygon fill="none" stroke="black" points="374.5,-0.5 374.5,-30.5 529.5,-30.5 529.5,-0.5 374.5,-0.5"/>
<text text-anchor="start" x="382.5" y="-18.5" font-family="Helvetica,sans-Serif" font-size="10.00">nars.storage.ReasonerBatch.as</text>
<text text-anchor="middle" x="452" y="-7.5" font-family="Helvetica,sans-Serif" font-size="10.00">String</text>
</a>
</g>
</g>
<!-- Node746&#45;&gt;Node747 -->
<g id="edge16" class="edge"><title>Node746&#45;&gt;Node747</title>
<path fill="none" stroke="midnightblue" d="M343.283,-15.5C353.551,-15.5 364.02,-15.5 374.199,-15.5"/>
<polygon fill="midnightblue" stroke="midnightblue" points="343.102,-12.0001 333.102,-15.5 343.102,-19.0001 343.102,-12.0001"/>
</g>
<!-- Node748 -->
<g id="node17" class="node"><title>Node748</title>
<g id="a_node17"><a xlink:href="../../df/d15/a00416.html#a01f10884e9aaa407c0eb497422c2ec1d" target="_top" xlink:title="nars.storage.ReasonerBatch.to\lString">
<polygon fill="none" stroke="black" points="581.5,-0.5 581.5,-30.5 733.5,-30.5 733.5,-0.5 581.5,-0.5"/>
<text text-anchor="start" x="589.5" y="-18.5" font-family="Helvetica,sans-Serif" font-size="10.00">nars.storage.ReasonerBatch.to</text>
<text text-anchor="middle" x="657.5" y="-7.5" font-family="Helvetica,sans-Serif" font-size="10.00">String</text>
</a>
</g>
</g>
<!-- Node747&#45;&gt;Node748 -->
<g id="edge17" class="edge"><title>Node747&#45;&gt;Node748</title>
<path fill="none" stroke="midnightblue" d="M539.645,-15.5C553.492,-15.5 567.72,-15.5 581.274,-15.5"/>
<polygon fill="midnightblue" stroke="midnightblue" points="539.645,-12.0001 529.645,-15.5 539.645,-19.0001 539.645,-12.0001"/>
</g>
</g>
</svg>
        <g id="navigator" transform="translate(0 0)" fill="#404254">
                <rect fill="#f2f5e9" fill-opacity="0.5" stroke="#606060" stroke-width=".5" x="0" y="0" width="60" height="60"/>
                <use id="zoomplus" xlink:href="#zoomPlus" x="17" y="9" onmousedown="handleZoom(evt,'in')"/>
                <use id="zoomminus" xlink:href="#zoomMin" x="42" y="9" onmousedown="handleZoom(evt,'out')"/>
                <use id="reset" xlink:href="#resetDef" x="30" y="36" onmousedown="handleReset()"/>
                <g id="arrowUp" xlink:href="#dirArrow" transform="translate(30 24)" onmousedown="handlePan(0,-1)">
                  <use xlink:href="#rim" fill="#404040">
                        <set attributeName="fill" to="#808080" begin="arrowUp.mouseover" end="arrowUp.mouseout"/>
                  </use>
                  <path fill="none" stroke="white" stroke-width="1.5" d="M0,-3.0v7 M-2.5,-0.5L0,-3.0L2.5,-0.5"/>
                </g>
                <g id="arrowRight" xlink:href="#dirArrow" transform="rotate(90) translate(36 -43)" onmousedown="handlePan(1,0)">
                  <use xlink:href="#rim" fill="#404040">
                        <set attributeName="fill" to="#808080" begin="arrowRight.mouseover" end="arrowRight.mouseout"/>
                  </use>
                  <path fill="none" stroke="white" stroke-width="1.5" d="M0,-3.0v7 M-2.5,-0.5L0,-3.0L2.5,-0.5"/>
                </g>
                <g id="arrowDown" xlink:href="#dirArrow" transform="rotate(180) translate(-30 -48)" onmousedown="handlePan(0,1)">
                  <use xlink:href="#rim" fill="#404040">
                        <set attributeName="fill" to="#808080" begin="arrowDown.mouseover" end="arrowDown.mouseout"/>
                  </use>
                  <path fill="none" stroke="white" stroke-width="1.5" d="M0,-3.0v7 M-2.5,-0.5L0,-3.0L2.5,-0.5"/>
                </g>
                <g id="arrowLeft" xlink:href="#dirArrow" transform="rotate(270) translate(-36 17)" onmousedown="handlePan(-1,0)">
                  <use xlink:href="#rim" fill="#404040">
                        <set attributeName="fill" to="#808080" begin="arrowLeft.mouseover" end="arrowLeft.mouseout"/>
                  </use>
                  <path fill="none" stroke="white" stroke-width="1.5" d="M0,-3.0v7 M-2.5,-0.5L0,-3.0L2.5,-0.5"/>
                </g>
        </g>
        <svg viewBox="0 0 15 15" width="100%" height="30px" preserveAspectRatio="xMaxYMin meet">
         <g id="arrow_out" transform="scale(0.3 0.3)">
          <a xlink:href="a00392_aa15a4cd104018dc9b98ceaa12d54255d_icgraph_org.svg" target="_base">
           <rect id="button" ry="5" rx="5" y="6" x="6" height="38" width="38"
                fill="#f2f5e9" fill-opacity="0.5" stroke="#606060" stroke-width="1.0"/>
           <path id="arrow"
             d="M 11.500037,31.436501 C 11.940474,20.09759 22.043105,11.32322 32.158766,21.979434 L 37.068811,17.246167 C 37.068811,17.246167 37.088388,32 37.088388,32 L 22.160133,31.978069 C 22.160133,31.978069 26.997745,27.140456 26.997745,27.140456 C 18.528582,18.264221 13.291696,25.230495 11.500037,31.436501 z"
             style="fill:#404040;"/>
          </a>
         </g>
        </svg>
</svg>
