<?xml version="1.0" encoding="UTF-8" standalone="no"?>
<!DOCTYPE svg PUBLIC "-//W3C//DTD SVG 1.1//EN"
 "http://www.w3.org/Graphics/SVG/1.1/DTD/svg11.dtd">
<!-- Generated by graphviz version 2.38.0 (20140413.2041)
 -->
<!-- Title: nars.storage.Memory.setNewStamp Pages: 1 -->
<svg width="2029pt" height="137pt"
 viewBox="0.00 0.00 2029.00 137.00" xmlns="http://www.w3.org/2000/svg" xmlns:xlink="http://www.w3.org/1999/xlink">
<g id="graph0" class="graph" transform="scale(1 1) rotate(0) translate(4 133)">
<title>nars.storage.Memory.setNewStamp</title>
<!-- Node1900 -->
<g id="node1" class="node"><title>Node1900</title>
<polygon fill="#bfbfbf" stroke="black" points="0,-51.5 0,-81.5 146,-81.5 146,-51.5 0,-51.5"/>
<text text-anchor="start" x="8" y="-69.5" font-family="Helvetica,sans-Serif" font-size="10.00">nars.storage.Memory.setNew</text>
<text text-anchor="middle" x="73" y="-58.5" font-family="Helvetica,sans-Serif" font-size="10.00">Stamp</text>
</g>
<!-- Node1901 -->
<g id="node2" class="node"><title>Node1901</title>
<g id="a_node2"><a xlink:href="../../d7/ded/a00196.html#a37e00599fc19c5931da40bd446890f89" target="_top" xlink:title="Select a isBelief to interact with the given task in inference. ">
<polygon fill="none" stroke="black" points="182,-102 182,-121 325,-121 325,-102 182,-102"/>
<text text-anchor="middle" x="253.5" y="-109" font-family="Helvetica,sans-Serif" font-size="10.00">nars.entity.Concept.getBelief</text>
</a>
</g>
</g>
<!-- Node1900&#45;&gt;Node1901 -->
<g id="edge1" class="edge"><title>Node1900&#45;&gt;Node1901</title>
<path fill="none" stroke="midnightblue" d="M143.802,-84.0971C167.999,-90.1972 194.2,-96.8026 214.815,-102"/>
<polygon fill="midnightblue" stroke="midnightblue" points="144.487,-80.6603 133.934,-81.6095 142.775,-87.4479 144.487,-80.6603"/>
</g>
<!-- Node1911 -->
<g id="node12" class="node"><title>Node1911</title>
<g id="a_node12"><a xlink:href="../../d7/ded/a00196.html#a40cddcc82ee28a1cf5b1f4bc14e2b078" target="_top" xlink:title="To accept a new judgment as isBelief, and check for revisions and solutions. ">
<polygon fill="none" stroke="black" points="183.5,-51.5 183.5,-81.5 323.5,-81.5 323.5,-51.5 183.5,-51.5"/>
<text text-anchor="start" x="191.5" y="-69.5" font-family="Helvetica,sans-Serif" font-size="10.00">nars.entity.Concept.process</text>
<text text-anchor="middle" x="253.5" y="-58.5" font-family="Helvetica,sans-Serif" font-size="10.00">Judgment</text>
</a>
</g>
</g>
<!-- Node1900&#45;&gt;Node1911 -->
<g id="edge11" class="edge"><title>Node1900&#45;&gt;Node1911</title>
<path fill="none" stroke="midnightblue" d="M156.25,-66.5C165.304,-66.5 174.455,-66.5 183.327,-66.5"/>
<polygon fill="midnightblue" stroke="midnightblue" points="156.088,-63.0001 146.088,-66.5 156.088,-70.0001 156.088,-63.0001"/>
</g>
<!-- Node1916 -->
<g id="node17" class="node"><title>Node1916</title>
<g id="a_node17"><a xlink:href="../../d4/d27/a00392.html#aa0bc5b42c9b4999df3f43a546c5c8dfe" target="_top" xlink:title="Shared final operations by all single&#45;premise rules, called in StructuralRules. ">
<polygon fill="none" stroke="black" points="185,-2.5 185,-32.5 322,-32.5 322,-2.5 185,-2.5"/>
<text text-anchor="start" x="193" y="-20.5" font-family="Helvetica,sans-Serif" font-size="10.00">nars.storage.Memory.single</text>
<text text-anchor="middle" x="253.5" y="-9.5" font-family="Helvetica,sans-Serif" font-size="10.00">PremiseTask</text>
</a>
</g>
</g>
<!-- Node1900&#45;&gt;Node1916 -->
<g id="edge18" class="edge"><title>Node1900&#45;&gt;Node1916</title>
<path fill="none" stroke="midnightblue" d="M138.92,-48.6788C158.193,-43.3882 179.104,-37.6478 197.669,-32.5516"/>
<polygon fill="midnightblue" stroke="midnightblue" points="137.729,-45.3762 129.012,-51.3986 139.582,-52.1265 137.729,-45.3762"/>
</g>
<!-- Node1902 -->
<g id="node3" class="node"><title>Node1902</title>
<g id="a_node3"><a xlink:href="../../dc/ded/a00252.html#ac2d01dfdc40bdd47c757cb549217e6e3" target="_top" xlink:title="Entry point of the inference engine. ">
<polygon fill="none" stroke="black" points="361,-103 361,-122 524,-122 524,-103 361,-103"/>
<text text-anchor="middle" x="442.5" y="-110" font-family="Helvetica,sans-Serif" font-size="10.00">nars.inference.RuleTables.reason</text>
</a>
</g>
</g>
<!-- Node1901&#45;&gt;Node1902 -->
<g id="edge2" class="edge"><title>Node1901&#45;&gt;Node1902</title>
<path fill="none" stroke="midnightblue" d="M335.44,-111.933C343.91,-111.978 352.52,-112.024 360.985,-112.069"/>
<polygon fill="midnightblue" stroke="midnightblue" points="335.215,-108.432 325.197,-111.878 335.178,-115.432 335.215,-108.432"/>
</g>
<!-- Node1903 -->
<g id="node4" class="node"><title>Node1903</title>
<g id="a_node4"><a xlink:href="../../d7/ded/a00196.html#ad6fb91dda799c3092ecb186ef24ca92a" target="_top" xlink:title="An atomic step in a concept, only called in Memory# processConcept. ">
<polygon fill="none" stroke="black" points="579,-98.5 579,-128.5 698,-128.5 698,-98.5 579,-98.5"/>
<text text-anchor="start" x="587" y="-116.5" font-family="Helvetica,sans-Serif" font-size="10.00">nars.entity.Concept.fire</text>
<text text-anchor="middle" x="638.5" y="-105.5" font-family="Helvetica,sans-Serif" font-size="10.00">FromProcessConcept</text>
</a>
</g>
</g>
<!-- Node1902&#45;&gt;Node1903 -->
<g id="edge3" class="edge"><title>Node1902&#45;&gt;Node1903</title>
<path fill="none" stroke="midnightblue" d="M534.461,-112.969C549.516,-113.046 564.765,-113.125 578.751,-113.197"/>
<polygon fill="midnightblue" stroke="midnightblue" points="534.106,-109.467 524.088,-112.915 534.07,-116.467 534.106,-109.467"/>
</g>
<!-- Node1904 -->
<g id="node5" class="node"><title>Node1904</title>
<g id="a_node5"><a xlink:href="../../d4/d27/a00392.html#a0acc4adbf6a2462245da46bcb529746c" target="_top" xlink:title="Select a concept to fireFromProcessConcept. ">
<polygon fill="none" stroke="black" points="753,-98.5 753,-128.5 899,-128.5 899,-98.5 753,-98.5"/>
<text text-anchor="start" x="761" y="-116.5" font-family="Helvetica,sans-Serif" font-size="10.00">nars.storage.Memory.process</text>
<text text-anchor="middle" x="826" y="-105.5" font-family="Helvetica,sans-Serif" font-size="10.00">Concept</text>
</a>
</g>
</g>
<!-- Node1903&#45;&gt;Node1904 -->
<g id="edge4" class="edge"><title>Node1903&#45;&gt;Node1904</title>
<path fill="none" stroke="midnightblue" d="M708.519,-113.5C722.929,-113.5 738.158,-113.5 752.683,-113.5"/>
<polygon fill="midnightblue" stroke="midnightblue" points="708.193,-110 698.193,-113.5 708.193,-117 708.193,-110"/>
</g>
<!-- Node1905 -->
<g id="node6" class="node"><title>Node1905</title>
<g id="a_node6"><a xlink:href="../../d4/d27/a00392.html#a59ae339d666409988d90d29be4f73a91" target="_top" xlink:title="An atomic working workCycle of the system: process new Tasks, then fireFromProcessConcept a concept...">
<polygon fill="none" stroke="black" points="935,-49.5 935,-79.5 1068,-79.5 1068,-49.5 935,-49.5"/>
<text text-anchor="start" x="943" y="-67.5" font-family="Helvetica,sans-Serif" font-size="10.00">nars.storage.Memory.work</text>
<text text-anchor="middle" x="1001.5" y="-56.5" font-family="Helvetica,sans-Serif" font-size="10.00">Cycle</text>
</a>
</g>
</g>
<!-- Node1904&#45;&gt;Node1905 -->
<g id="edge5" class="edge"><title>Node1904&#45;&gt;Node1905</title>
<path fill="none" stroke="midnightblue" d="M890.102,-95.6788C908.835,-90.3882 929.16,-84.6478 947.205,-79.5516"/>
<polygon fill="midnightblue" stroke="midnightblue" points="889.144,-92.3123 880.471,-98.3986 891.046,-99.0488 889.144,-92.3123"/>
</g>
<!-- Node1906 -->
<g id="node7" class="node"><title>Node1906</title>
<g id="a_node7"><a xlink:href="../../df/d15/a00416.html#a0d5c797dc17d9e8d0998852915e0f303" target="_top" xlink:title="nars.storage.ReasonerBatch.doTick">
<polygon fill="none" stroke="black" points="1104,-55 1104,-74 1277,-74 1277,-55 1104,-55"/>
<text text-anchor="middle" x="1190.5" y="-62" font-family="Helvetica,sans-Serif" font-size="10.00">nars.storage.ReasonerBatch.doTick</text>
</a>
</g>
</g>
<!-- Node1905&#45;&gt;Node1906 -->
<g id="edge6" class="edge"><title>Node1905&#45;&gt;Node1906</title>
<path fill="none" stroke="midnightblue" d="M1078.34,-64.5C1086.78,-64.5 1095.42,-64.5 1103.97,-64.5"/>
<polygon fill="midnightblue" stroke="midnightblue" points="1078.17,-61.0001 1068.17,-64.5 1078.17,-68.0001 1078.17,-61.0001"/>
</g>
<!-- Node1907 -->
<g id="node8" class="node"><title>Node1907</title>
<g id="a_node8"><a xlink:href="../../df/d15/a00416.html#a3468aa0f99edcd66412f27922dddb880" target="_top" xlink:title="A clock tick. ">
<polygon fill="none" stroke="black" points="1313,-55 1313,-74 1473,-74 1473,-55 1313,-55"/>
<text text-anchor="middle" x="1393" y="-62" font-family="Helvetica,sans-Serif" font-size="10.00">nars.storage.ReasonerBatch.tick</text>
</a>
</g>
</g>
<!-- Node1906&#45;&gt;Node1907 -->
<g id="edge7" class="edge"><title>Node1906&#45;&gt;Node1907</title>
<path fill="none" stroke="midnightblue" d="M1287.13,-64.5C1295.7,-64.5 1304.31,-64.5 1312.71,-64.5"/>
<polygon fill="midnightblue" stroke="midnightblue" points="1287.11,-61.0001 1277.11,-64.5 1287.11,-68.0001 1287.11,-61.0001"/>
</g>
<!-- Node1908 -->
<g id="node9" class="node"><title>Node1908</title>
<g id="a_node9"><a xlink:href="../../d9/da1/a00396.html#a5d9cfe517bcfbe41e5251910bcd119c1" target="_top" xlink:title="Run to completion: repeatedly execute NARS working cycle, until Inputs are Finished, or 1000 steps. ">
<polygon fill="none" stroke="black" points="1509,-55 1509,-74 1653,-74 1653,-55 1509,-55"/>
<text text-anchor="middle" x="1581" y="-62" font-family="Helvetica,sans-Serif" font-size="10.00">nars.storage.NARSBatch.run</text>
</a>
</g>
</g>
<!-- Node1907&#45;&gt;Node1908 -->
<g id="edge8" class="edge"><title>Node1907&#45;&gt;Node1908</title>
<path fill="none" stroke="midnightblue" d="M1483.22,-64.5C1491.82,-64.5 1500.47,-64.5 1508.87,-64.5"/>
<polygon fill="midnightblue" stroke="midnightblue" points="1483.15,-61.0001 1473.15,-64.5 1483.15,-68.0001 1483.15,-61.0001"/>
</g>
<!-- Node1909 -->
<g id="node10" class="node"><title>Node1909</title>
<g id="a_node10"><a xlink:href="../../d9/da1/a00396.html#a7c307c6b842f82664de6b0e52bdf8efc" target="_top" xlink:title="non&#45;static equivalent to main(String[]) : run to completion from an input file ">
<polygon fill="none" stroke="black" points="1689,-49.5 1689,-79.5 1833,-79.5 1833,-49.5 1689,-49.5"/>
<text text-anchor="start" x="1697" y="-67.5" font-family="Helvetica,sans-Serif" font-size="10.00">nars.storage.NARSBatch.run</text>
<text text-anchor="middle" x="1761" y="-56.5" font-family="Helvetica,sans-Serif" font-size="10.00">Inference</text>
</a>
</g>
</g>
<!-- Node1908&#45;&gt;Node1909 -->
<g id="edge9" class="edge"><title>Node1908&#45;&gt;Node1909</title>
<path fill="none" stroke="midnightblue" d="M1663.17,-64.5C1671.79,-64.5 1680.51,-64.5 1689,-64.5"/>
<polygon fill="midnightblue" stroke="midnightblue" points="1663.12,-61.0001 1653.12,-64.5 1663.12,-68.0001 1663.12,-61.0001"/>
</g>
<!-- Node1910 -->
<g id="node11" class="node"><title>Node1910</title>
<g id="a_node11"><a xlink:href="../../d9/da1/a00396.html#abafc597289bc2f6453b5cd0dd6634e54" target="_top" xlink:title="The entry point of the standalone application. ">
<polygon fill="none" stroke="black" points="1869,-55 1869,-74 2021,-74 2021,-55 1869,-55"/>
<text text-anchor="middle" x="1945" y="-62" font-family="Helvetica,sans-Serif" font-size="10.00">nars.storage.NARSBatch.main</text>
</a>
</g>
</g>
<!-- Node1909&#45;&gt;Node1910 -->
<g id="edge10" class="edge"><title>Node1909&#45;&gt;Node1910</title>
<path fill="none" stroke="midnightblue" d="M1843.17,-64.5C1851.76,-64.5 1860.48,-64.5 1869,-64.5"/>
<polygon fill="midnightblue" stroke="midnightblue" points="1843.15,-61.0001 1833.15,-64.5 1843.15,-68.0001 1843.15,-61.0001"/>
</g>
<!-- Node1912 -->
<g id="node13" class="node"><title>Node1912</title>
<g id="a_node13"><a xlink:href="../../d7/ded/a00196.html#a9ea7c3154932d7a736c105eb55daeb5c" target="_top" xlink:title="Directly process a new task. ">
<polygon fill="none" stroke="black" points="378,-49.5 378,-79.5 507,-79.5 507,-49.5 378,-49.5"/>
<text text-anchor="start" x="386" y="-67.5" font-family="Helvetica,sans-Serif" font-size="10.00">nars.entity.Concept.direct</text>
<text text-anchor="middle" x="442.5" y="-56.5" font-family="Helvetica,sans-Serif" font-size="10.00">Process</text>
</a>
</g>
</g>
<!-- Node1911&#45;&gt;Node1912 -->
<g id="edge12" class="edge"><title>Node1911&#45;&gt;Node1912</title>
<path fill="none" stroke="midnightblue" d="M333.723,-65.6527C348.484,-65.4948 363.73,-65.3318 377.945,-65.1797"/>
<polygon fill="midnightblue" stroke="midnightblue" points="333.563,-62.1541 323.601,-65.761 333.637,-69.1537 333.563,-62.1541"/>
</g>
<!-- Node1913 -->
<g id="node14" class="node"><title>Node1913</title>
<g id="a_node14"><a xlink:href="../../d4/d27/a00392.html#af8d07412d21a441a5c7005a477b06468" target="_top" xlink:title="Immediate processing of a new task, in constant time Local processing, in one concept only...">
<polygon fill="none" stroke="black" points="560,-49.5 560,-79.5 717,-79.5 717,-49.5 560,-49.5"/>
<text text-anchor="start" x="568" y="-67.5" font-family="Helvetica,sans-Serif" font-size="10.00">nars.storage.Memory.immediate</text>
<text text-anchor="middle" x="638.5" y="-56.5" font-family="Helvetica,sans-Serif" font-size="10.00">Process</text>
</a>
</g>
</g>
<!-- Node1912&#45;&gt;Node1913 -->
<g id="edge13" class="edge"><title>Node1912&#45;&gt;Node1913</title>
<path fill="none" stroke="midnightblue" d="M517.088,-64.5C531.105,-64.5 545.815,-64.5 559.95,-64.5"/>
<polygon fill="midnightblue" stroke="midnightblue" points="517.023,-61.0001 507.023,-64.5 517.023,-68.0001 517.023,-61.0001"/>
</g>
<!-- Node1914 -->
<g id="node15" class="node"><title>Node1914</title>
<g id="a_node15"><a xlink:href="../../d4/d27/a00392.html#ae43b86074c0d8f6a324696f69faa54b3" target="_top" xlink:title="Process the newTasks accumulated in the previous workCycle, accept input ones and those that correspo...">
<polygon fill="none" stroke="black" points="753,-49.5 753,-79.5 899,-79.5 899,-49.5 753,-49.5"/>
<text text-anchor="start" x="761" y="-67.5" font-family="Helvetica,sans-Serif" font-size="10.00">nars.storage.Memory.process</text>
<text text-anchor="middle" x="826" y="-56.5" font-family="Helvetica,sans-Serif" font-size="10.00">NewTask</text>
</a>
</g>
</g>
<!-- Node1913&#45;&gt;Node1914 -->
<g id="edge14" class="edge"><title>Node1913&#45;&gt;Node1914</title>
<path fill="none" stroke="midnightblue" d="M727.125,-64.5C735.707,-64.5 744.349,-64.5 752.754,-64.5"/>
<polygon fill="midnightblue" stroke="midnightblue" points="727.094,-61.0001 717.094,-64.5 727.094,-68.0001 727.094,-61.0001"/>
</g>
<!-- Node1915 -->
<g id="node16" class="node"><title>Node1915</title>
<g id="a_node16"><a xlink:href="../../d4/d27/a00392.html#a5061708f88897cfdf4e0671c846762ca" target="_top" xlink:title="Select a novel task to process. ">
<polygon fill="none" stroke="black" points="753,-0.5 753,-30.5 899,-30.5 899,-0.5 753,-0.5"/>
<text text-anchor="start" x="761" y="-18.5" font-family="Helvetica,sans-Serif" font-size="10.00">nars.storage.Memory.process</text>
<text text-anchor="middle" x="826" y="-7.5" font-family="Helvetica,sans-Serif" font-size="10.00">NovelTask</text>
</a>
</g>
</g>
<!-- Node1913&#45;&gt;Node1915 -->
<g id="edge16" class="edge"><title>Node1913&#45;&gt;Node1915</title>
<path fill="none" stroke="midnightblue" d="M706.215,-46.8771C726.51,-41.5163 748.614,-35.6775 768.191,-30.5062"/>
<polygon fill="midnightblue" stroke="midnightblue" points="705.191,-43.5275 696.417,-49.4654 706.979,-50.2953 705.191,-43.5275"/>
</g>
<!-- Node1914&#45;&gt;Node1905 -->
<g id="edge15" class="edge"><title>Node1914&#45;&gt;Node1905</title>
<path fill="none" stroke="midnightblue" d="M909.118,-64.5C917.716,-64.5 926.375,-64.5 934.755,-64.5"/>
<polygon fill="midnightblue" stroke="midnightblue" points="909.072,-61.0001 899.072,-64.5 909.072,-68.0001 909.072,-61.0001"/>
</g>
<!-- Node1915&#45;&gt;Node1905 -->
<g id="edge17" class="edge"><title>Node1915&#45;&gt;Node1905</title>
<path fill="none" stroke="midnightblue" d="M890.102,-33.3212C908.835,-38.6118 929.16,-44.3522 947.205,-49.4484"/>
<polygon fill="midnightblue" stroke="midnightblue" points="891.046,-29.9512 880.471,-30.6014 889.144,-36.6877 891.046,-29.9512"/>
</g>
</g>
</svg>
