<?xml version="1.0" encoding="UTF-8" standalone="no"?>
<!DOCTYPE svg PUBLIC "-//W3C//DTD SVG 1.1//EN"
 "http://www.w3.org/Graphics/SVG/1.1/DTD/svg11.dtd">
<!-- Generated by graphviz version 2.38.0 (20140413.2041)
 -->
<!-- Title: nars.storage.Memory.setCurrentTask Pages: 1 -->
<!--zoomable 137 -->
<svg id="main" version="1.1" xmlns="http://www.w3.org/2000/svg" xmlns:xlink="http://www.w3.org/1999/xlink" xml:space="preserve" onload="init(evt)">
<style type="text/css"><![CDATA[
.edge:hover path { stroke: red; }
.edge:hover polygon { stroke: red; fill: red; }
]]></style>
<script type="text/javascript"><![CDATA[
var edges = document.getElementsByTagName('g');
if (edges && edges.length) {
  for (var i=0;i<edges.length;i++) {
    if (edges[i].id.substr(0,4)=='edge') {
      edges[i].setAttribute('class','edge');
    }
  }
}
]]></script>
        <defs>
                <circle id="rim" cx="0" cy="0" r="7"/>
                <circle id="rim2" cx="0" cy="0" r="3.5"/>
                <g id="zoomPlus">
                        <use xlink:href="#rim" fill="#404040">
                                <set attributeName="fill" to="#808080" begin="zoomplus.mouseover" end="zoomplus.mouseout"/>
                        </use>
                        <path d="M-4,0h8M0,-4v8" fill="none" stroke="white" stroke-width="1.5" pointer-events="none"/>
                </g>
                <g id="zoomMin">
                        <use xlink:href="#rim" fill="#404040">
                                <set attributeName="fill" to="#808080" begin="zoomminus.mouseover" end="zoomminus.mouseout"/>
                        </use>
                        <path d="M-4,0h8" fill="none" stroke="white" stroke-width="1.5" pointer-events="none"/>
                </g>
                <g id="dirArrow">
                        <path fill="none" stroke="white" stroke-width="1.5" d="M0,-3.0v7 M-2.5,-0.5L0,-3.0L2.5,-0.5"/>
                </g>
               <g id="resetDef">
                       <use xlink:href="#rim2" fill="#404040">
                               <set attributeName="fill" to="#808080" begin="reset.mouseover" end="reset.mouseout"/>
                       </use>
               </g>
        </defs>

<script type="text/javascript">
var viewWidth = 1684;
var viewHeight = 137;
var sectionId = 'dynsection-53';
</script>
<script xlink:href="../../svgpan.js"/>
<svg id="graph" class="graph">
<g id="viewport">
<title>nars.storage.Memory.setCurrentTask</title>
<!-- Node1862 -->
<g id="node1" class="node"><title>Node1862</title>
<polygon fill="#bfbfbf" stroke="black" points="0,-79 0,-98 179,-98 179,-79 0,-79"/>
<text text-anchor="middle" x="89.5" y="-86" font-family="Helvetica,sans-Serif" font-size="10.00">nars.storage.Memory.setCurrentTask</text>
</g>
<!-- Node1863 -->
<g id="node2" class="node"><title>Node1863</title>
<g id="a_node2"><a xlink:href="../../d7/ded/a00196.html#ad6fb91dda799c3092ecb186ef24ca92a" target="_top" xlink:title="An atomic step in a concept, only called in Memory# processConcept. ">
<polygon fill="none" stroke="black" points="234,-98.5 234,-128.5 353,-128.5 353,-98.5 234,-98.5"/>
<text text-anchor="start" x="242" y="-116.5" font-family="Helvetica,sans-Serif" font-size="10.00">nars.entity.Concept.fire</text>
<text text-anchor="middle" x="293.5" y="-105.5" font-family="Helvetica,sans-Serif" font-size="10.00">FromProcessConcept</text>
</a>
</g>
</g>
<!-- Node1862&#45;&gt;Node1863 -->
<g id="edge1" class="edge"><title>Node1862&#45;&gt;Node1863</title>
<path fill="none" stroke="midnightblue" d="M177.63,-99.2835C196.674,-101.64 216.388,-104.08 233.995,-106.259"/>
<polygon fill="midnightblue" stroke="midnightblue" points="177.798,-95.7776 167.444,-98.0227 176.938,-102.725 177.798,-95.7776"/>
</g>
<!-- Node1871 -->
<g id="node10" class="node"><title>Node1871</title>
<g id="a_node10"><a xlink:href="../../d4/d27/a00392.html#af8d07412d21a441a5c7005a477b06468" target="_top" xlink:title="Immediate processing of a new task, in constant time Local processing, in one concept only...">
<polygon fill="none" stroke="black" points="215,-49.5 215,-79.5 372,-79.5 372,-49.5 215,-49.5"/>
<text text-anchor="start" x="223" y="-67.5" font-family="Helvetica,sans-Serif" font-size="10.00">nars.storage.Memory.immediate</text>
<text text-anchor="middle" x="293.5" y="-56.5" font-family="Helvetica,sans-Serif" font-size="10.00">Process</text>
</a>
</g>
</g>
<!-- Node1862&#45;&gt;Node1871 -->
<g id="edge9" class="edge"><title>Node1862&#45;&gt;Node1871</title>
<path fill="none" stroke="midnightblue" d="M180.587,-77.7966C191.993,-76.4414 203.587,-75.0639 214.778,-73.7342"/>
<polygon fill="midnightblue" stroke="midnightblue" points="180.143,-74.3246 170.626,-78.9801 180.969,-81.2757 180.143,-74.3246"/>
</g>
<!-- Node1864 -->
<g id="node3" class="node"><title>Node1864</title>
<g id="a_node3"><a xlink:href="../../d4/d27/a00392.html#a0acc4adbf6a2462245da46bcb529746c" target="_top" xlink:title="Select a concept to fireFromProcessConcept. ">
<polygon fill="none" stroke="black" points="408,-98.5 408,-128.5 554,-128.5 554,-98.5 408,-98.5"/>
<text text-anchor="start" x="416" y="-116.5" font-family="Helvetica,sans-Serif" font-size="10.00">nars.storage.Memory.process</text>
<text text-anchor="middle" x="481" y="-105.5" font-family="Helvetica,sans-Serif" font-size="10.00">Concept</text>
</a>
</g>
</g>
<!-- Node1863&#45;&gt;Node1864 -->
<g id="edge2" class="edge"><title>Node1863&#45;&gt;Node1864</title>
<path fill="none" stroke="midnightblue" d="M363.519,-113.5C377.929,-113.5 393.158,-113.5 407.683,-113.5"/>
<polygon fill="midnightblue" stroke="midnightblue" points="363.193,-110 353.193,-113.5 363.193,-117 363.193,-110"/>
</g>
<!-- Node1865 -->
<g id="node4" class="node"><title>Node1865</title>
<g id="a_node4"><a xlink:href="../../d4/d27/a00392.html#a59ae339d666409988d90d29be4f73a91" target="_top" xlink:title="An atomic working workCycle of the system: process new Tasks, then fireFromProcessConcept a concept...">
<polygon fill="none" stroke="black" points="590,-49.5 590,-79.5 723,-79.5 723,-49.5 590,-49.5"/>
<text text-anchor="start" x="598" y="-67.5" font-family="Helvetica,sans-Serif" font-size="10.00">nars.storage.Memory.work</text>
<text text-anchor="middle" x="656.5" y="-56.5" font-family="Helvetica,sans-Serif" font-size="10.00">Cycle</text>
</a>
</g>
</g>
<!-- Node1864&#45;&gt;Node1865 -->
<g id="edge3" class="edge"><title>Node1864&#45;&gt;Node1865</title>
<path fill="none" stroke="midnightblue" d="M545.102,-95.6788C563.835,-90.3882 584.16,-84.6478 602.205,-79.5516"/>
<polygon fill="midnightblue" stroke="midnightblue" points="544.144,-92.3123 535.471,-98.3986 546.046,-99.0488 544.144,-92.3123"/>
</g>
<!-- Node1866 -->
<g id="node5" class="node"><title>Node1866</title>
<g id="a_node5"><a xlink:href="../../df/d15/a00416.html#a0d5c797dc17d9e8d0998852915e0f303" target="_top" xlink:title="nars.storage.ReasonerBatch.doTick">
<polygon fill="none" stroke="black" points="759,-55 759,-74 932,-74 932,-55 759,-55"/>
<text text-anchor="middle" x="845.5" y="-62" font-family="Helvetica,sans-Serif" font-size="10.00">nars.storage.ReasonerBatch.doTick</text>
</a>
</g>
</g>
<!-- Node1865&#45;&gt;Node1866 -->
<g id="edge4" class="edge"><title>Node1865&#45;&gt;Node1866</title>
<path fill="none" stroke="midnightblue" d="M733.343,-64.5C741.782,-64.5 750.421,-64.5 758.971,-64.5"/>
<polygon fill="midnightblue" stroke="midnightblue" points="733.166,-61.0001 723.166,-64.5 733.166,-68.0001 733.166,-61.0001"/>
</g>
<!-- Node1867 -->
<g id="node6" class="node"><title>Node1867</title>
<g id="a_node6"><a xlink:href="../../df/d15/a00416.html#a3468aa0f99edcd66412f27922dddb880" target="_top" xlink:title="A clock tick. ">
<polygon fill="none" stroke="black" points="968,-55 968,-74 1128,-74 1128,-55 968,-55"/>
<text text-anchor="middle" x="1048" y="-62" font-family="Helvetica,sans-Serif" font-size="10.00">nars.storage.ReasonerBatch.tick</text>
</a>
</g>
</g>
<!-- Node1866&#45;&gt;Node1867 -->
<g id="edge5" class="edge"><title>Node1866&#45;&gt;Node1867</title>
<path fill="none" stroke="midnightblue" d="M942.131,-64.5C950.696,-64.5 959.306,-64.5 967.711,-64.5"/>
<polygon fill="midnightblue" stroke="midnightblue" points="942.112,-61.0001 932.112,-64.5 942.112,-68.0001 942.112,-61.0001"/>
</g>
<!-- Node1868 -->
<g id="node7" class="node"><title>Node1868</title>
<g id="a_node7"><a xlink:href="../../d9/da1/a00396.html#a5d9cfe517bcfbe41e5251910bcd119c1" target="_top" xlink:title="Run to completion: repeatedly execute NARS working cycle, until Inputs are Finished, or 1000 steps. ">
<polygon fill="none" stroke="black" points="1164,-55 1164,-74 1308,-74 1308,-55 1164,-55"/>
<text text-anchor="middle" x="1236" y="-62" font-family="Helvetica,sans-Serif" font-size="10.00">nars.storage.NARSBatch.run</text>
</a>
</g>
</g>
<!-- Node1867&#45;&gt;Node1868 -->
<g id="edge6" class="edge"><title>Node1867&#45;&gt;Node1868</title>
<path fill="none" stroke="midnightblue" d="M1138.22,-64.5C1146.82,-64.5 1155.47,-64.5 1163.87,-64.5"/>
<polygon fill="midnightblue" stroke="midnightblue" points="1138.15,-61.0001 1128.15,-64.5 1138.15,-68.0001 1138.15,-61.0001"/>
</g>
<!-- Node1869 -->
<g id="node8" class="node"><title>Node1869</title>
<g id="a_node8"><a xlink:href="../../d9/da1/a00396.html#a7c307c6b842f82664de6b0e52bdf8efc" target="_top" xlink:title="non&#45;static equivalent to main(String[]) : run to completion from an input file ">
<polygon fill="none" stroke="black" points="1344,-49.5 1344,-79.5 1488,-79.5 1488,-49.5 1344,-49.5"/>
<text text-anchor="start" x="1352" y="-67.5" font-family="Helvetica,sans-Serif" font-size="10.00">nars.storage.NARSBatch.run</text>
<text text-anchor="middle" x="1416" y="-56.5" font-family="Helvetica,sans-Serif" font-size="10.00">Inference</text>
</a>
</g>
</g>
<!-- Node1868&#45;&gt;Node1869 -->
<g id="edge7" class="edge"><title>Node1868&#45;&gt;Node1869</title>
<path fill="none" stroke="midnightblue" d="M1318.17,-64.5C1326.79,-64.5 1335.51,-64.5 1344,-64.5"/>
<polygon fill="midnightblue" stroke="midnightblue" points="1318.12,-61.0001 1308.12,-64.5 1318.12,-68.0001 1318.12,-61.0001"/>
</g>
<!-- Node1870 -->
<g id="node9" class="node"><title>Node1870</title>
<g id="a_node9"><a xlink:href="../../d9/da1/a00396.html#abafc597289bc2f6453b5cd0dd6634e54" target="_top" xlink:title="The entry point of the standalone application. ">
<polygon fill="none" stroke="black" points="1524,-55 1524,-74 1676,-74 1676,-55 1524,-55"/>
<text text-anchor="middle" x="1600" y="-62" font-family="Helvetica,sans-Serif" font-size="10.00">nars.storage.NARSBatch.main</text>
</a>
</g>
</g>
<!-- Node1869&#45;&gt;Node1870 -->
<g id="edge8" class="edge"><title>Node1869&#45;&gt;Node1870</title>
<path fill="none" stroke="midnightblue" d="M1498.17,-64.5C1506.76,-64.5 1515.48,-64.5 1524,-64.5"/>
<polygon fill="midnightblue" stroke="midnightblue" points="1498.15,-61.0001 1488.15,-64.5 1498.15,-68.0001 1498.15,-61.0001"/>
</g>
<!-- Node1872 -->
<g id="node11" class="node"><title>Node1872</title>
<g id="a_node11"><a xlink:href="../../d4/d27/a00392.html#ae43b86074c0d8f6a324696f69faa54b3" target="_top" xlink:title="Process the newTasks accumulated in the previous workCycle, accept input ones and those that correspo...">
<polygon fill="none" stroke="black" points="408,-49.5 408,-79.5 554,-79.5 554,-49.5 408,-49.5"/>
<text text-anchor="start" x="416" y="-67.5" font-family="Helvetica,sans-Serif" font-size="10.00">nars.storage.Memory.process</text>
<text text-anchor="middle" x="481" y="-56.5" font-family="Helvetica,sans-Serif" font-size="10.00">NewTask</text>
</a>
</g>
</g>
<!-- Node1871&#45;&gt;Node1872 -->
<g id="edge10" class="edge"><title>Node1871&#45;&gt;Node1872</title>
<path fill="none" stroke="midnightblue" d="M382.125,-64.5C390.707,-64.5 399.349,-64.5 407.754,-64.5"/>
<polygon fill="midnightblue" stroke="midnightblue" points="382.094,-61.0001 372.094,-64.5 382.094,-68.0001 382.094,-61.0001"/>
</g>
<!-- Node1873 -->
<g id="node12" class="node"><title>Node1873</title>
<g id="a_node12"><a xlink:href="../../d4/d27/a00392.html#a5061708f88897cfdf4e0671c846762ca" target="_top" xlink:title="Select a novel task to process. ">
<polygon fill="none" stroke="black" points="408,-0.5 408,-30.5 554,-30.5 554,-0.5 408,-0.5"/>
<text text-anchor="start" x="416" y="-18.5" font-family="Helvetica,sans-Serif" font-size="10.00">nars.storage.Memory.process</text>
<text text-anchor="middle" x="481" y="-7.5" font-family="Helvetica,sans-Serif" font-size="10.00">NovelTask</text>
</a>
</g>
</g>
<!-- Node1871&#45;&gt;Node1873 -->
<g id="edge12" class="edge"><title>Node1871&#45;&gt;Node1873</title>
<path fill="none" stroke="midnightblue" d="M361.215,-46.8771C381.51,-41.5163 403.614,-35.6775 423.191,-30.5062"/>
<polygon fill="midnightblue" stroke="midnightblue" points="360.191,-43.5275 351.417,-49.4654 361.979,-50.2953 360.191,-43.5275"/>
</g>
<!-- Node1872&#45;&gt;Node1865 -->
<g id="edge11" class="edge"><title>Node1872&#45;&gt;Node1865</title>
<path fill="none" stroke="midnightblue" d="M564.118,-64.5C572.716,-64.5 581.375,-64.5 589.755,-64.5"/>
<polygon fill="midnightblue" stroke="midnightblue" points="564.072,-61.0001 554.072,-64.5 564.072,-68.0001 564.072,-61.0001"/>
</g>
<!-- Node1873&#45;&gt;Node1865 -->
<g id="edge13" class="edge"><title>Node1873&#45;&gt;Node1865</title>
<path fill="none" stroke="midnightblue" d="M545.102,-33.3212C563.835,-38.6118 584.16,-44.3522 602.205,-49.4484"/>
<polygon fill="midnightblue" stroke="midnightblue" points="546.046,-29.9512 535.471,-30.6014 544.144,-36.6877 546.046,-29.9512"/>
</g>
</g>
</svg>
        <g id="navigator" transform="translate(0 0)" fill="#404254">
                <rect fill="#f2f5e9" fill-opacity="0.5" stroke="#606060" stroke-width=".5" x="0" y="0" width="60" height="60"/>
                <use id="zoomplus" xlink:href="#zoomPlus" x="17" y="9" onmousedown="handleZoom(evt,'in')"/>
                <use id="zoomminus" xlink:href="#zoomMin" x="42" y="9" onmousedown="handleZoom(evt,'out')"/>
                <use id="reset" xlink:href="#resetDef" x="30" y="36" onmousedown="handleReset()"/>
                <g id="arrowUp" xlink:href="#dirArrow" transform="translate(30 24)" onmousedown="handlePan(0,-1)">
                  <use xlink:href="#rim" fill="#404040">
                        <set attributeName="fill" to="#808080" begin="arrowUp.mouseover" end="arrowUp.mouseout"/>
                  </use>
                  <path fill="none" stroke="white" stroke-width="1.5" d="M0,-3.0v7 M-2.5,-0.5L0,-3.0L2.5,-0.5"/>
                </g>
                <g id="arrowRight" xlink:href="#dirArrow" transform="rotate(90) translate(36 -43)" onmousedown="handlePan(1,0)">
                  <use xlink:href="#rim" fill="#404040">
                        <set attributeName="fill" to="#808080" begin="arrowRight.mouseover" end="arrowRight.mouseout"/>
                  </use>
                  <path fill="none" stroke="white" stroke-width="1.5" d="M0,-3.0v7 M-2.5,-0.5L0,-3.0L2.5,-0.5"/>
                </g>
                <g id="arrowDown" xlink:href="#dirArrow" transform="rotate(180) translate(-30 -48)" onmousedown="handlePan(0,1)">
                  <use xlink:href="#rim" fill="#404040">
                        <set attributeName="fill" to="#808080" begin="arrowDown.mouseover" end="arrowDown.mouseout"/>
                  </use>
                  <path fill="none" stroke="white" stroke-width="1.5" d="M0,-3.0v7 M-2.5,-0.5L0,-3.0L2.5,-0.5"/>
                </g>
                <g id="arrowLeft" xlink:href="#dirArrow" transform="rotate(270) translate(-36 17)" onmousedown="handlePan(-1,0)">
                  <use xlink:href="#rim" fill="#404040">
                        <set attributeName="fill" to="#808080" begin="arrowLeft.mouseover" end="arrowLeft.mouseout"/>
                  </use>
                  <path fill="none" stroke="white" stroke-width="1.5" d="M0,-3.0v7 M-2.5,-0.5L0,-3.0L2.5,-0.5"/>
                </g>
        </g>
        <svg viewBox="0 0 15 15" width="100%" height="30px" preserveAspectRatio="xMaxYMin meet">
         <g id="arrow_out" transform="scale(0.3 0.3)">
          <a xlink:href="a00392_a5daaf2cedc2672912d0727173eb2d935_icgraph_org.svg" target="_base">
           <rect id="button" ry="5" rx="5" y="6" x="6" height="38" width="38"
                fill="#f2f5e9" fill-opacity="0.5" stroke="#606060" stroke-width="1.0"/>
           <path id="arrow"
             d="M 11.500037,31.436501 C 11.940474,20.09759 22.043105,11.32322 32.158766,21.979434 L 37.068811,17.246167 C 37.068811,17.246167 37.088388,32 37.088388,32 L 22.160133,31.978069 C 22.160133,31.978069 26.997745,27.140456 26.997745,27.140456 C 18.528582,18.264221 13.291696,25.230495 11.500037,31.436501 z"
             style="fill:#404040;"/>
          </a>
         </g>
        </svg>
</svg>
