<?xml version="1.0" encoding="UTF-8" standalone="no"?>
<!DOCTYPE svg PUBLIC "-//W3C//DTD SVG 1.1//EN"
 "http://www.w3.org/Graphics/SVG/1.1/DTD/svg11.dtd">
<!-- Generated by graphviz version 2.38.0 (20140413.2041)
 -->
<!-- Title: nars.storage.Memory.setCurrentTaskLink Pages: 1 -->
<svg width="1625pt" height="39pt"
 viewBox="0.00 0.00 1625.00 39.00" xmlns="http://www.w3.org/2000/svg" xmlns:xlink="http://www.w3.org/1999/xlink">
<g id="graph0" class="graph" transform="scale(1 1) rotate(0) translate(4 35)">
<title>nars.storage.Memory.setCurrentTaskLink</title>
<!-- Node1875 -->
<g id="node1" class="node"><title>Node1875</title>
<polygon fill="#bfbfbf" stroke="black" points="0,-0.5 0,-30.5 158,-30.5 158,-0.5 0,-0.5"/>
<text text-anchor="start" x="8" y="-18.5" font-family="Helvetica,sans-Serif" font-size="10.00">nars.storage.Memory.setCurrent</text>
<text text-anchor="middle" x="79" y="-7.5" font-family="Helvetica,sans-Serif" font-size="10.00">TaskLink</text>
</g>
<!-- Node1876 -->
<g id="node2" class="node"><title>Node1876</title>
<g id="a_node2"><a xlink:href="../../d7/ded/a00196.html#ad6fb91dda799c3092ecb186ef24ca92a" target="_top" xlink:title="An atomic step in a concept, only called in Memory# processConcept. ">
<polygon fill="none" stroke="black" points="194,-0.5 194,-30.5 313,-30.5 313,-0.5 194,-0.5"/>
<text text-anchor="start" x="202" y="-18.5" font-family="Helvetica,sans-Serif" font-size="10.00">nars.entity.Concept.fire</text>
<text text-anchor="middle" x="253.5" y="-7.5" font-family="Helvetica,sans-Serif" font-size="10.00">FromProcessConcept</text>
</a>
</g>
</g>
<!-- Node1875&#45;&gt;Node1876 -->
<g id="edge1" class="edge"><title>Node1875&#45;&gt;Node1876</title>
<path fill="none" stroke="midnightblue" d="M168.358,-15.5C177.039,-15.5 185.692,-15.5 193.964,-15.5"/>
<polygon fill="midnightblue" stroke="midnightblue" points="168.175,-12.0001 158.175,-15.5 168.175,-19.0001 168.175,-12.0001"/>
</g>
<!-- Node1877 -->
<g id="node3" class="node"><title>Node1877</title>
<g id="a_node3"><a xlink:href="../../d4/d27/a00392.html#a0acc4adbf6a2462245da46bcb529746c" target="_top" xlink:title="Select a concept to fireFromProcessConcept. ">
<polygon fill="none" stroke="black" points="349,-0.5 349,-30.5 495,-30.5 495,-0.5 349,-0.5"/>
<text text-anchor="start" x="357" y="-18.5" font-family="Helvetica,sans-Serif" font-size="10.00">nars.storage.Memory.process</text>
<text text-anchor="middle" x="422" y="-7.5" font-family="Helvetica,sans-Serif" font-size="10.00">Concept</text>
</a>
</g>
</g>
<!-- Node1876&#45;&gt;Node1877 -->
<g id="edge2" class="edge"><title>Node1876&#45;&gt;Node1877</title>
<path fill="none" stroke="midnightblue" d="M323.337,-15.5C331.748,-15.5 340.361,-15.5 348.819,-15.5"/>
<polygon fill="midnightblue" stroke="midnightblue" points="323.202,-12.0001 313.202,-15.5 323.202,-19.0001 323.202,-12.0001"/>
</g>
<!-- Node1878 -->
<g id="node4" class="node"><title>Node1878</title>
<g id="a_node4"><a xlink:href="../../d4/d27/a00392.html#a59ae339d666409988d90d29be4f73a91" target="_top" xlink:title="An atomic working workCycle of the system: process new Tasks, then fireFromProcessConcept a concept...">
<polygon fill="none" stroke="black" points="531,-0.5 531,-30.5 664,-30.5 664,-0.5 531,-0.5"/>
<text text-anchor="start" x="539" y="-18.5" font-family="Helvetica,sans-Serif" font-size="10.00">nars.storage.Memory.work</text>
<text text-anchor="middle" x="597.5" y="-7.5" font-family="Helvetica,sans-Serif" font-size="10.00">Cycle</text>
</a>
</g>
</g>
<!-- Node1877&#45;&gt;Node1878 -->
<g id="edge3" class="edge"><title>Node1877&#45;&gt;Node1878</title>
<path fill="none" stroke="midnightblue" d="M505.118,-15.5C513.716,-15.5 522.375,-15.5 530.755,-15.5"/>
<polygon fill="midnightblue" stroke="midnightblue" points="505.072,-12.0001 495.072,-15.5 505.072,-19.0001 505.072,-12.0001"/>
</g>
<!-- Node1879 -->
<g id="node5" class="node"><title>Node1879</title>
<g id="a_node5"><a xlink:href="../../df/d15/a00416.html#a0d5c797dc17d9e8d0998852915e0f303" target="_top" xlink:title="nars.storage.ReasonerBatch.doTick">
<polygon fill="none" stroke="black" points="700,-6 700,-25 873,-25 873,-6 700,-6"/>
<text text-anchor="middle" x="786.5" y="-13" font-family="Helvetica,sans-Serif" font-size="10.00">nars.storage.ReasonerBatch.doTick</text>
</a>
</g>
</g>
<!-- Node1878&#45;&gt;Node1879 -->
<g id="edge4" class="edge"><title>Node1878&#45;&gt;Node1879</title>
<path fill="none" stroke="midnightblue" d="M674.343,-15.5C682.782,-15.5 691.421,-15.5 699.971,-15.5"/>
<polygon fill="midnightblue" stroke="midnightblue" points="674.166,-12.0001 664.166,-15.5 674.166,-19.0001 674.166,-12.0001"/>
</g>
<!-- Node1880 -->
<g id="node6" class="node"><title>Node1880</title>
<g id="a_node6"><a xlink:href="../../df/d15/a00416.html#a3468aa0f99edcd66412f27922dddb880" target="_top" xlink:title="A clock tick. ">
<polygon fill="none" stroke="black" points="909,-6 909,-25 1069,-25 1069,-6 909,-6"/>
<text text-anchor="middle" x="989" y="-13" font-family="Helvetica,sans-Serif" font-size="10.00">nars.storage.ReasonerBatch.tick</text>
</a>
</g>
</g>
<!-- Node1879&#45;&gt;Node1880 -->
<g id="edge5" class="edge"><title>Node1879&#45;&gt;Node1880</title>
<path fill="none" stroke="midnightblue" d="M883.131,-15.5C891.696,-15.5 900.306,-15.5 908.711,-15.5"/>
<polygon fill="midnightblue" stroke="midnightblue" points="883.112,-12.0001 873.112,-15.5 883.112,-19.0001 883.112,-12.0001"/>
</g>
<!-- Node1881 -->
<g id="node7" class="node"><title>Node1881</title>
<g id="a_node7"><a xlink:href="../../d9/da1/a00396.html#a5d9cfe517bcfbe41e5251910bcd119c1" target="_top" xlink:title="Run to completion: repeatedly execute NARS working cycle, until Inputs are Finished, or 1000 steps. ">
<polygon fill="none" stroke="black" points="1105,-6 1105,-25 1249,-25 1249,-6 1105,-6"/>
<text text-anchor="middle" x="1177" y="-13" font-family="Helvetica,sans-Serif" font-size="10.00">nars.storage.NARSBatch.run</text>
</a>
</g>
</g>
<!-- Node1880&#45;&gt;Node1881 -->
<g id="edge6" class="edge"><title>Node1880&#45;&gt;Node1881</title>
<path fill="none" stroke="midnightblue" d="M1079.22,-15.5C1087.82,-15.5 1096.47,-15.5 1104.87,-15.5"/>
<polygon fill="midnightblue" stroke="midnightblue" points="1079.15,-12.0001 1069.15,-15.5 1079.15,-19.0001 1079.15,-12.0001"/>
</g>
<!-- Node1882 -->
<g id="node8" class="node"><title>Node1882</title>
<g id="a_node8"><a xlink:href="../../d9/da1/a00396.html#a7c307c6b842f82664de6b0e52bdf8efc" target="_top" xlink:title="non&#45;static equivalent to main(String[]) : run to completion from an input file ">
<polygon fill="none" stroke="black" points="1285,-0.5 1285,-30.5 1429,-30.5 1429,-0.5 1285,-0.5"/>
<text text-anchor="start" x="1293" y="-18.5" font-family="Helvetica,sans-Serif" font-size="10.00">nars.storage.NARSBatch.run</text>
<text text-anchor="middle" x="1357" y="-7.5" font-family="Helvetica,sans-Serif" font-size="10.00">Inference</text>
</a>
</g>
</g>
<!-- Node1881&#45;&gt;Node1882 -->
<g id="edge7" class="edge"><title>Node1881&#45;&gt;Node1882</title>
<path fill="none" stroke="midnightblue" d="M1259.17,-15.5C1267.79,-15.5 1276.51,-15.5 1285,-15.5"/>
<polygon fill="midnightblue" stroke="midnightblue" points="1259.12,-12.0001 1249.12,-15.5 1259.12,-19.0001 1259.12,-12.0001"/>
</g>
<!-- Node1883 -->
<g id="node9" class="node"><title>Node1883</title>
<g id="a_node9"><a xlink:href="../../d9/da1/a00396.html#abafc597289bc2f6453b5cd0dd6634e54" target="_top" xlink:title="The entry point of the standalone application. ">
<polygon fill="none" stroke="black" points="1465,-6 1465,-25 1617,-25 1617,-6 1465,-6"/>
<text text-anchor="middle" x="1541" y="-13" font-family="Helvetica,sans-Serif" font-size="10.00">nars.storage.NARSBatch.main</text>
</a>
</g>
</g>
<!-- Node1882&#45;&gt;Node1883 -->
<g id="edge8" class="edge"><title>Node1882&#45;&gt;Node1883</title>
<path fill="none" stroke="midnightblue" d="M1439.17,-15.5C1447.76,-15.5 1456.48,-15.5 1465,-15.5"/>
<polygon fill="midnightblue" stroke="midnightblue" points="1439.15,-12.0001 1429.15,-15.5 1439.15,-19.0001 1439.15,-12.0001"/>
</g>
</g>
</svg>
