<?xml version="1.0" encoding="UTF-8" standalone="no"?>
<!DOCTYPE svg PUBLIC "-//W3C//DTD SVG 1.1//EN"
 "http://www.w3.org/Graphics/SVG/1.1/DTD/svg11.dtd">
<!-- Generated by graphviz version 2.38.0 (20140413.2041)
 -->
<!-- Title: nars.storage.Memory.singlePremiseTask Pages: 1 -->
<svg width="2917pt" height="497pt"
 viewBox="0.00 0.00 2917.00 496.80" xmlns="http://www.w3.org/2000/svg" xmlns:xlink="http://www.w3.org/1999/xlink">
<g id="graph0" class="graph" transform="scale(1 1) rotate(0) translate(4 492.8)">
<title>nars.storage.Memory.singlePremiseTask</title>
<!-- Node1937 -->
<g id="node1" class="node"><title>Node1937</title>
<polygon fill="#bfbfbf" stroke="black" points="0,-233.3 0,-263.3 137,-263.3 137,-233.3 0,-233.3"/>
<text text-anchor="start" x="8" y="-251.3" font-family="Helvetica,sans-Serif" font-size="10.00">nars.storage.Memory.single</text>
<text text-anchor="middle" x="68.5" y="-240.3" font-family="Helvetica,sans-Serif" font-size="10.00">PremiseTask</text>
</g>
<!-- Node1938 -->
<g id="node2" class="node"><title>Node1938</title>
<g id="a_node2"><a xlink:href="../../dc/ded/a00252.html#aaeb2049ede16ec8f63afafe0407f04a9" target="_top" xlink:title="{&lt;A ==&gt; B&gt;, A@(–, A)} |&#45; &lt;(–, B) ==&gt; (–, A)&gt; ">
<polygon fill="none" stroke="black" points="385,-419.8 385,-438.8 579,-438.8 579,-419.8 385,-419.8"/>
<text text-anchor="middle" x="482" y="-426.8" font-family="Helvetica,sans-Serif" font-size="10.00">nars.inference.RuleTables.contraposition</text>
</a>
</g>
</g>
<!-- Node1937&#45;&gt;Node1938 -->
<g id="edge1" class="edge"><title>Node1937&#45;&gt;Node1938</title>
<path fill="none" stroke="midnightblue" d="M77.3043,-272.972C90.4412,-309.918 120.785,-378.555 173,-409.3 207.747,-429.759 308.088,-433.075 384.891,-432.333"/>
<polygon fill="midnightblue" stroke="midnightblue" points="80.5962,-271.782 74.0515,-263.45 73.9721,-274.044 80.5962,-271.782"/>
</g>
<!-- Node1949 -->
<g id="node13" class="node"><title>Node1949</title>
<g id="a_node13"><a xlink:href="../../dd/dd7/a00248.html#a19ea934d3f2b6eb6a01f09db55afb4f0" target="_top" xlink:title="Convert jusgment into different relation. ">
<polygon fill="none" stroke="black" points="173,-135.3 173,-165.3 349,-165.3 349,-135.3 173,-135.3"/>
<text text-anchor="start" x="181" y="-153.3" font-family="Helvetica,sans-Serif" font-size="10.00">nars.inference.LocalRules.converted</text>
<text text-anchor="middle" x="261" y="-142.3" font-family="Helvetica,sans-Serif" font-size="10.00">Judgment</text>
</a>
</g>
</g>
<!-- Node1937&#45;&gt;Node1949 -->
<g id="edge12" class="edge"><title>Node1937&#45;&gt;Node1949</title>
<path fill="none" stroke="midnightblue" d="M94.3239,-226.707C114.361,-210.267 143.91,-188.171 173,-174.3 180.071,-170.928 187.699,-167.958 195.397,-165.361"/>
<polygon fill="midnightblue" stroke="midnightblue" points="92.0454,-224.05 86.6098,-233.144 96.5302,-229.424 92.0454,-224.05"/>
</g>
<!-- Node1957 -->
<g id="node21" class="node"><title>Node1957</title>
<g id="a_node21"><a xlink:href="../../d0/def/a00256.html#ab3d78c70d8e8086fdabdc52a343cc416" target="_top" xlink:title="{&lt;S &#45;&#45;&gt; P&gt;, S@(S&amp;T)} |&#45; &lt;(S&amp;T) &#45;&#45;&gt; (P&amp;T)&gt; {&lt;S &#45;&#45;&gt; P&gt;, S@(M&#45;S)} |&#45; &lt;(M&#45;P) &#45;&#45;&gt; (M&#45;S)&gt; ...">
<polygon fill="none" stroke="black" points="415.5,-234.3 415.5,-264.3 548.5,-264.3 548.5,-234.3 415.5,-234.3"/>
<text text-anchor="start" x="423.5" y="-252.3" font-family="Helvetica,sans-Serif" font-size="10.00">nars.inference.Structural</text>
<text text-anchor="middle" x="482" y="-241.3" font-family="Helvetica,sans-Serif" font-size="10.00">Rules.structuralCompose2</text>
</a>
</g>
</g>
<!-- Node1937&#45;&gt;Node1957 -->
<g id="edge22" class="edge"><title>Node1937&#45;&gt;Node1957</title>
<path fill="none" stroke="midnightblue" d="M134.012,-265.641C146.838,-268.412 160.275,-270.844 173,-272.3 250.715,-281.192 271.069,-279.039 349,-272.3 370.785,-270.416 394.369,-266.815 415.493,-263.011"/>
<polygon fill="midnightblue" stroke="midnightblue" points="134.407,-262.142 123.882,-263.358 132.868,-268.971 134.407,-262.142"/>
</g>
<!-- Node1959 -->
<g id="node23" class="node"><title>Node1959</title>
<g id="a_node23"><a xlink:href="../../d0/def/a00256.html#aa98f40a1f1409b81531260124ebd13db" target="_top" xlink:title="{(&amp;&amp;, A, B), A@(&amp;&amp;, A, B)} |&#45; A {(||, A, B), A@(||, A, B)} |&#45; A ">
<polygon fill="none" stroke="black" points="194.5,-184.3 194.5,-214.3 327.5,-214.3 327.5,-184.3 194.5,-184.3"/>
<text text-anchor="start" x="202.5" y="-202.3" font-family="Helvetica,sans-Serif" font-size="10.00">nars.inference.Structural</text>
<text text-anchor="middle" x="261" y="-191.3" font-family="Helvetica,sans-Serif" font-size="10.00">Rules.structuralCompound</text>
</a>
</g>
</g>
<!-- Node1937&#45;&gt;Node1959 -->
<g id="edge25" class="edge"><title>Node1937&#45;&gt;Node1959</title>
<path fill="none" stroke="midnightblue" d="M137.729,-230.75C158.649,-225.369 181.464,-219.501 201.66,-214.306"/>
<polygon fill="midnightblue" stroke="midnightblue" points="136.764,-227.384 127.951,-233.265 138.508,-234.164 136.764,-227.384"/>
</g>
<!-- Node1962 -->
<g id="node26" class="node"><title>Node1962</title>
<g id="a_node26"><a xlink:href="../../d0/def/a00256.html#a38aabb9f3b3a70e03852da1e32ec665d" target="_top" xlink:title="{&lt;(S&amp;T) &#45;&#45;&gt; (P&amp;T)&gt;, S@(S&amp;T)} |&#45; &lt;S &#45;&#45;&gt; P&gt; ">
<polygon fill="none" stroke="black" points="189.5,-370.3 189.5,-400.3 332.5,-400.3 332.5,-370.3 189.5,-370.3"/>
<text text-anchor="start" x="197.5" y="-388.3" font-family="Helvetica,sans-Serif" font-size="10.00">nars.inference.Structural</text>
<text text-anchor="middle" x="261" y="-377.3" font-family="Helvetica,sans-Serif" font-size="10.00">Rules.structuralDecompose2</text>
</a>
</g>
</g>
<!-- Node1937&#45;&gt;Node1962 -->
<g id="edge30" class="edge"><title>Node1937&#45;&gt;Node1962</title>
<path fill="none" stroke="midnightblue" d="M85.1775,-271.781C103.374,-297.242 135.701,-337.312 173,-360.3 179.288,-364.175 186.2,-367.47 193.294,-370.267"/>
<polygon fill="midnightblue" stroke="midnightblue" points="87.9429,-269.628 79.3456,-263.436 82.2053,-273.638 87.9429,-269.628"/>
</g>
<!-- Node1963 -->
<g id="node27" class="node"><title>Node1963</title>
<g id="a_node27"><a xlink:href="../../d0/def/a00256.html#a85867ea2f5c08252344131858cf95bfd" target="_top" xlink:title="Common final operations of the above two methods. ">
<polygon fill="none" stroke="black" points="195.5,-321.3 195.5,-351.3 326.5,-351.3 326.5,-321.3 195.5,-321.3"/>
<text text-anchor="start" x="203.5" y="-339.3" font-family="Helvetica,sans-Serif" font-size="10.00">nars.inference.Structural</text>
<text text-anchor="middle" x="261" y="-328.3" font-family="Helvetica,sans-Serif" font-size="10.00">Rules.structuralStatement</text>
</a>
</g>
</g>
<!-- Node1937&#45;&gt;Node1963 -->
<g id="edge32" class="edge"><title>Node1937&#45;&gt;Node1963</title>
<path fill="none" stroke="midnightblue" d="M102.244,-268.638C122.226,-280.543 148.551,-295.34 173,-306.3 185.101,-311.724 198.5,-316.785 211.084,-321.147"/>
<polygon fill="midnightblue" stroke="midnightblue" points="103.911,-265.557 93.5384,-263.396 100.3,-271.553 103.911,-265.557"/>
</g>
<!-- Node1966 -->
<g id="node30" class="node"><title>Node1966</title>
<g id="a_node30"><a xlink:href="../../dc/ded/a00252.html#a4892ac6afc9d0f59d14e2f1c5e8fc816" target="_top" xlink:title="{A, A@(–, A)} |&#45; (–, A) ">
<polygon fill="none" stroke="black" points="173.5,-233.3 173.5,-263.3 348.5,-263.3 348.5,-233.3 173.5,-233.3"/>
<text text-anchor="start" x="181.5" y="-251.3" font-family="Helvetica,sans-Serif" font-size="10.00">nars.inference.RuleTables.transform</text>
<text text-anchor="middle" x="261" y="-240.3" font-family="Helvetica,sans-Serif" font-size="10.00">Negation</text>
</a>
</g>
</g>
<!-- Node1937&#45;&gt;Node1966 -->
<g id="edge37" class="edge"><title>Node1937&#45;&gt;Node1966</title>
<path fill="none" stroke="midnightblue" d="M147.44,-248.3C155.929,-248.3 164.607,-248.3 173.192,-248.3"/>
<polygon fill="midnightblue" stroke="midnightblue" points="147.2,-244.8 137.2,-248.3 147.2,-251.8 147.2,-244.8"/>
</g>
<!-- Node1967 -->
<g id="node31" class="node"><title>Node1967</title>
<g id="a_node31"><a xlink:href="../../d0/def/a00256.html#ad34f61108459aea34b27a7547ac4ba48" target="_top" xlink:title="Equivalent transformation between products and images when the predicate is a compound {&lt;(*...">
<polygon fill="none" stroke="black" points="192.5,-86.2999 192.5,-116.3 329.5,-116.3 329.5,-86.2999 192.5,-86.2999"/>
<text text-anchor="start" x="200.5" y="-104.3" font-family="Helvetica,sans-Serif" font-size="10.00">nars.inference.Structural</text>
<text text-anchor="middle" x="261" y="-93.2999" font-family="Helvetica,sans-Serif" font-size="10.00">Rules.transformPredicatePI</text>
</a>
</g>
</g>
<!-- Node1937&#45;&gt;Node1967 -->
<g id="edge39" class="edge"><title>Node1937&#45;&gt;Node1967</title>
<path fill="none" stroke="midnightblue" d="M83.2319,-224.558C100.6,-196.643 133.108,-150.882 173,-125.3 178.935,-121.494 185.472,-118.284 192.216,-115.579"/>
<polygon fill="midnightblue" stroke="midnightblue" points="80.131,-222.921 77.9334,-233.286 86.1147,-226.554 80.131,-222.921"/>
</g>
<!-- Node1968 -->
<g id="node32" class="node"><title>Node1968</title>
<g id="a_node32"><a xlink:href="../../d0/def/a00256.html#ab621fd6a291394ad962761cd0ae1ff08" target="_top" xlink:title="Equivalent transformation between products and images {&lt;(*, S, M) &#45;&#45;&gt; P&gt;, S@(*, S, M)} |&#45; &lt;S &#45;&#45;&gt; (/, P, _, M)&gt; {&lt;S &#45;&#45;&gt; (/, P, _, M)&gt;, P@(/, P, _, M)} |&#45; &lt;(*, S, M) &#45;&#45;&gt; P&gt; {&lt;S &#45;&#45;&gt; (/, P, _, M)&gt;, M@(/, P, _, M)} |&#45; &lt;M &#45;&#45;&gt; (/, P, S, _)&gt; ">
<polygon fill="none" stroke="black" points="408.5,-38.2999 408.5,-68.2999 555.5,-68.2999 555.5,-38.2999 408.5,-38.2999"/>
<text text-anchor="start" x="416.5" y="-56.2999" font-family="Helvetica,sans-Serif" font-size="10.00">nars.inference.Structural</text>
<text text-anchor="middle" x="482" y="-45.2999" font-family="Helvetica,sans-Serif" font-size="10.00">Rules.transformProductImage</text>
</a>
</g>
</g>
<!-- Node1937&#45;&gt;Node1968 -->
<g id="edge43" class="edge"><title>Node1937&#45;&gt;Node1968</title>
<path fill="none" stroke="midnightblue" d="M72.6328,-223.03C80.1061,-174.97 103.846,-71.2754 173,-27.2999 259.263,27.5552 387.696,-13.6269 447.77,-38.2915"/>
<polygon fill="midnightblue" stroke="midnightblue" points="69.1303,-222.797 71.1687,-233.194 76.0588,-223.795 69.1303,-222.797"/>
</g>
<!-- Node1970 -->
<g id="node34" class="node"><title>Node1970</title>
<g id="a_node34"><a xlink:href="../../dc/ded/a00252.html#a2a79778de40e45fdf7786cb318b5b772" target="_top" xlink:title="{&lt;S &#45;&#45;&gt; {P}&gt;} |&#45; &lt;S &lt;&#45;&gt; {P}&gt; ">
<polygon fill="none" stroke="black" points="173.5,-458.3 173.5,-488.3 348.5,-488.3 348.5,-458.3 173.5,-458.3"/>
<text text-anchor="start" x="181.5" y="-476.3" font-family="Helvetica,sans-Serif" font-size="10.00">nars.inference.RuleTables.transform</text>
<text text-anchor="middle" x="261" y="-465.3" font-family="Helvetica,sans-Serif" font-size="10.00">SetRelation</text>
</a>
</g>
</g>
<!-- Node1937&#45;&gt;Node1970 -->
<g id="edge44" class="edge"><title>Node1937&#45;&gt;Node1970</title>
<path fill="none" stroke="midnightblue" d="M76.1824,-273.179C88.4925,-314.368 118.602,-396.784 173,-443.3 180.164,-449.426 188.647,-454.322 197.461,-458.229"/>
<polygon fill="midnightblue" stroke="midnightblue" points="79.4999,-272.051 73.3681,-263.411 72.7735,-273.99 79.4999,-272.051"/>
</g>
<!-- Node1971 -->
<g id="node35" class="node"><title>Node1971</title>
<g id="a_node35"><a xlink:href="../../d0/def/a00256.html#a45ae086cf44c9f32cbe9a729f2419594" target="_top" xlink:title="Equivalent transformation between products and images when the subject is a compound {&lt;(*...">
<polygon fill="none" stroke="black" points="196.5,-37.2999 196.5,-67.2999 325.5,-67.2999 325.5,-37.2999 196.5,-37.2999"/>
<text text-anchor="start" x="204.5" y="-55.2999" font-family="Helvetica,sans-Serif" font-size="10.00">nars.inference.Structural</text>
<text text-anchor="middle" x="261" y="-44.2999" font-family="Helvetica,sans-Serif" font-size="10.00">Rules.transformSubjectPI</text>
</a>
</g>
</g>
<!-- Node1937&#45;&gt;Node1971 -->
<g id="edge46" class="edge"><title>Node1937&#45;&gt;Node1971</title>
<path fill="none" stroke="midnightblue" d="M77.5966,-223.607C91.2003,-186.033 122.247,-114.813 173,-76.2999 179.99,-70.9959 188.084,-66.8639 196.466,-63.6451"/>
<polygon fill="midnightblue" stroke="midnightblue" points="74.219,-222.663 74.2203,-233.258 80.8263,-224.975 74.219,-222.663"/>
</g>
<!-- Node1939 -->
<g id="node3" class="node"><title>Node1939</title>
<g id="a_node3"><a xlink:href="../../dc/ded/a00252.html#a08680eb3f85b0a37b7bd969de8b25904" target="_top" xlink:title="Inference between a component term (of the current term) and a statement. ">
<polygon fill="none" stroke="black" points="615,-376.3 615,-406.3 797,-406.3 797,-376.3 615,-376.3"/>
<text text-anchor="start" x="623" y="-394.3" font-family="Helvetica,sans-Serif" font-size="10.00">nars.inference.RuleTables.component</text>
<text text-anchor="middle" x="706" y="-383.3" font-family="Helvetica,sans-Serif" font-size="10.00">AndStatement</text>
</a>
</g>
</g>
<!-- Node1938&#45;&gt;Node1939 -->
<g id="edge2" class="edge"><title>Node1938&#45;&gt;Node1939</title>
<path fill="none" stroke="midnightblue" d="M548.717,-418.051C570.198,-414.374 594.409,-410.23 617.245,-406.321"/>
<polygon fill="midnightblue" stroke="midnightblue" points="548,-414.623 538.733,-419.76 549.181,-421.522 548,-414.623"/>
</g>
<!-- Node1940 -->
<g id="node4" class="node"><title>Node1940</title>
<g id="a_node4"><a xlink:href="../../dc/ded/a00252.html#ac2d01dfdc40bdd47c757cb549217e6e3" target="_top" xlink:title="Entry point of the inference engine. ">
<polygon fill="none" stroke="black" points="1287,-212.8 1287,-231.8 1450,-231.8 1450,-212.8 1287,-212.8"/>
<text text-anchor="middle" x="1368.5" y="-219.8" font-family="Helvetica,sans-Serif" font-size="10.00">nars.inference.RuleTables.reason</text>
</a>
</g>
</g>
<!-- Node1939&#45;&gt;Node1940 -->
<g id="edge3" class="edge"><title>Node1939&#45;&gt;Node1940</title>
<path fill="none" stroke="midnightblue" d="M807.36,-380.124C918.283,-365.778 1101.09,-336.188 1251,-283.3 1289.54,-269.703 1331.14,-245.297 1352.68,-231.846"/>
<polygon fill="midnightblue" stroke="midnightblue" points="806.66,-376.685 797.184,-381.423 807.547,-383.628 806.66,-376.685"/>
</g>
<!-- Node1941 -->
<g id="node5" class="node"><title>Node1941</title>
<g id="a_node5"><a xlink:href="../../d7/ded/a00196.html#ad6fb91dda799c3092ecb186ef24ca92a" target="_top" xlink:title="An atomic step in a concept, only called in Memory# processConcept. ">
<polygon fill="none" stroke="black" points="1486,-157.3 1486,-187.3 1605,-187.3 1605,-157.3 1486,-157.3"/>
<text text-anchor="start" x="1494" y="-175.3" font-family="Helvetica,sans-Serif" font-size="10.00">nars.entity.Concept.fire</text>
<text text-anchor="middle" x="1545.5" y="-164.3" font-family="Helvetica,sans-Serif" font-size="10.00">FromProcessConcept</text>
</a>
</g>
</g>
<!-- Node1940&#45;&gt;Node1941 -->
<g id="edge4" class="edge"><title>Node1940&#45;&gt;Node1941</title>
<path fill="none" stroke="midnightblue" d="M1412.67,-209.967C1436.55,-203.144 1466.41,-194.61 1491.68,-187.391"/>
<polygon fill="midnightblue" stroke="midnightblue" points="1411.48,-206.665 1402.83,-212.778 1413.4,-213.396 1411.48,-206.665"/>
</g>
<!-- Node1942 -->
<g id="node6" class="node"><title>Node1942</title>
<g id="a_node6"><a xlink:href="../../d4/d27/a00392.html#a0acc4adbf6a2462245da46bcb529746c" target="_top" xlink:title="Select a concept to fireFromProcessConcept. ">
<polygon fill="none" stroke="black" points="1641,-157.3 1641,-187.3 1787,-187.3 1787,-157.3 1641,-157.3"/>
<text text-anchor="start" x="1649" y="-175.3" font-family="Helvetica,sans-Serif" font-size="10.00">nars.storage.Memory.process</text>
<text text-anchor="middle" x="1714" y="-164.3" font-family="Helvetica,sans-Serif" font-size="10.00">Concept</text>
</a>
</g>
</g>
<!-- Node1941&#45;&gt;Node1942 -->
<g id="edge5" class="edge"><title>Node1941&#45;&gt;Node1942</title>
<path fill="none" stroke="midnightblue" d="M1615.34,-172.3C1623.75,-172.3 1632.36,-172.3 1640.82,-172.3"/>
<polygon fill="midnightblue" stroke="midnightblue" points="1615.2,-168.8 1605.2,-172.3 1615.2,-175.8 1615.2,-168.8"/>
</g>
<!-- Node1943 -->
<g id="node7" class="node"><title>Node1943</title>
<g id="a_node7"><a xlink:href="../../d4/d27/a00392.html#a59ae339d666409988d90d29be4f73a91" target="_top" xlink:title="An atomic working workCycle of the system: process new Tasks, then fireFromProcessConcept a concept...">
<polygon fill="none" stroke="black" points="1823,-157.3 1823,-187.3 1956,-187.3 1956,-157.3 1823,-157.3"/>
<text text-anchor="start" x="1831" y="-175.3" font-family="Helvetica,sans-Serif" font-size="10.00">nars.storage.Memory.work</text>
<text text-anchor="middle" x="1889.5" y="-164.3" font-family="Helvetica,sans-Serif" font-size="10.00">Cycle</text>
</a>
</g>
</g>
<!-- Node1942&#45;&gt;Node1943 -->
<g id="edge6" class="edge"><title>Node1942&#45;&gt;Node1943</title>
<path fill="none" stroke="midnightblue" d="M1797.12,-172.3C1805.72,-172.3 1814.37,-172.3 1822.76,-172.3"/>
<polygon fill="midnightblue" stroke="midnightblue" points="1797.07,-168.8 1787.07,-172.3 1797.07,-175.8 1797.07,-168.8"/>
</g>
<!-- Node1944 -->
<g id="node8" class="node"><title>Node1944</title>
<g id="a_node8"><a xlink:href="../../df/d15/a00416.html#a0d5c797dc17d9e8d0998852915e0f303" target="_top" xlink:title="nars.storage.ReasonerBatch.doTick">
<polygon fill="none" stroke="black" points="1992,-162.8 1992,-181.8 2165,-181.8 2165,-162.8 1992,-162.8"/>
<text text-anchor="middle" x="2078.5" y="-169.8" font-family="Helvetica,sans-Serif" font-size="10.00">nars.storage.ReasonerBatch.doTick</text>
</a>
</g>
</g>
<!-- Node1943&#45;&gt;Node1944 -->
<g id="edge7" class="edge"><title>Node1943&#45;&gt;Node1944</title>
<path fill="none" stroke="midnightblue" d="M1966.34,-172.3C1974.78,-172.3 1983.42,-172.3 1991.97,-172.3"/>
<polygon fill="midnightblue" stroke="midnightblue" points="1966.17,-168.8 1956.17,-172.3 1966.17,-175.8 1966.17,-168.8"/>
</g>
<!-- Node1945 -->
<g id="node9" class="node"><title>Node1945</title>
<g id="a_node9"><a xlink:href="../../df/d15/a00416.html#a3468aa0f99edcd66412f27922dddb880" target="_top" xlink:title="A clock tick. ">
<polygon fill="none" stroke="black" points="2201,-162.8 2201,-181.8 2361,-181.8 2361,-162.8 2201,-162.8"/>
<text text-anchor="middle" x="2281" y="-169.8" font-family="Helvetica,sans-Serif" font-size="10.00">nars.storage.ReasonerBatch.tick</text>
</a>
</g>
</g>
<!-- Node1944&#45;&gt;Node1945 -->
<g id="edge8" class="edge"><title>Node1944&#45;&gt;Node1945</title>
<path fill="none" stroke="midnightblue" d="M2175.13,-172.3C2183.7,-172.3 2192.31,-172.3 2200.71,-172.3"/>
<polygon fill="midnightblue" stroke="midnightblue" points="2175.11,-168.8 2165.11,-172.3 2175.11,-175.8 2175.11,-168.8"/>
</g>
<!-- Node1946 -->
<g id="node10" class="node"><title>Node1946</title>
<g id="a_node10"><a xlink:href="../../d9/da1/a00396.html#a5d9cfe517bcfbe41e5251910bcd119c1" target="_top" xlink:title="Run to completion: repeatedly execute NARS working cycle, until Inputs are Finished, or 1000 steps. ">
<polygon fill="none" stroke="black" points="2397,-162.8 2397,-181.8 2541,-181.8 2541,-162.8 2397,-162.8"/>
<text text-anchor="middle" x="2469" y="-169.8" font-family="Helvetica,sans-Serif" font-size="10.00">nars.storage.NARSBatch.run</text>
</a>
</g>
</g>
<!-- Node1945&#45;&gt;Node1946 -->
<g id="edge9" class="edge"><title>Node1945&#45;&gt;Node1946</title>
<path fill="none" stroke="midnightblue" d="M2371.22,-172.3C2379.82,-172.3 2388.47,-172.3 2396.87,-172.3"/>
<polygon fill="midnightblue" stroke="midnightblue" points="2371.15,-168.8 2361.15,-172.3 2371.15,-175.8 2371.15,-168.8"/>
</g>
<!-- Node1947 -->
<g id="node11" class="node"><title>Node1947</title>
<g id="a_node11"><a xlink:href="../../d9/da1/a00396.html#a7c307c6b842f82664de6b0e52bdf8efc" target="_top" xlink:title="non&#45;static equivalent to main(String[]) : run to completion from an input file ">
<polygon fill="none" stroke="black" points="2577,-157.3 2577,-187.3 2721,-187.3 2721,-157.3 2577,-157.3"/>
<text text-anchor="start" x="2585" y="-175.3" font-family="Helvetica,sans-Serif" font-size="10.00">nars.storage.NARSBatch.run</text>
<text text-anchor="middle" x="2649" y="-164.3" font-family="Helvetica,sans-Serif" font-size="10.00">Inference</text>
</a>
</g>
</g>
<!-- Node1946&#45;&gt;Node1947 -->
<g id="edge10" class="edge"><title>Node1946&#45;&gt;Node1947</title>
<path fill="none" stroke="midnightblue" d="M2551.17,-172.3C2559.79,-172.3 2568.51,-172.3 2577,-172.3"/>
<polygon fill="midnightblue" stroke="midnightblue" points="2551.12,-168.8 2541.12,-172.3 2551.12,-175.8 2551.12,-168.8"/>
</g>
<!-- Node1948 -->
<g id="node12" class="node"><title>Node1948</title>
<g id="a_node12"><a xlink:href="../../d9/da1/a00396.html#abafc597289bc2f6453b5cd0dd6634e54" target="_top" xlink:title="The entry point of the standalone application. ">
<polygon fill="none" stroke="black" points="2757,-162.8 2757,-181.8 2909,-181.8 2909,-162.8 2757,-162.8"/>
<text text-anchor="middle" x="2833" y="-169.8" font-family="Helvetica,sans-Serif" font-size="10.00">nars.storage.NARSBatch.main</text>
</a>
</g>
</g>
<!-- Node1947&#45;&gt;Node1948 -->
<g id="edge11" class="edge"><title>Node1947&#45;&gt;Node1948</title>
<path fill="none" stroke="midnightblue" d="M2731.17,-172.3C2739.76,-172.3 2748.48,-172.3 2757,-172.3"/>
<polygon fill="midnightblue" stroke="midnightblue" points="2731.15,-168.8 2721.15,-172.3 2731.15,-175.8 2731.15,-168.8"/>
</g>
<!-- Node1950 -->
<g id="node14" class="node"><title>Node1950</title>
<g id="a_node14"><a xlink:href="../../dd/dd7/a00248.html#aeb46ba9d63958c022519607076ce1273" target="_top" xlink:title="{ ">
<polygon fill="none" stroke="black" points="392,-93.7999 392,-112.8 572,-112.8 572,-93.7999 392,-93.7999"/>
<text text-anchor="middle" x="482" y="-100.8" font-family="Helvetica,sans-Serif" font-size="10.00">nars.inference.LocalRules.conversion</text>
</a>
</g>
</g>
<!-- Node1949&#45;&gt;Node1950 -->
<g id="edge13" class="edge"><title>Node1949&#45;&gt;Node1950</title>
<path fill="none" stroke="midnightblue" d="M341.686,-133.198C373.659,-126.337 409.302,-118.687 436.532,-112.843"/>
<polygon fill="midnightblue" stroke="midnightblue" points="340.938,-129.779 331.895,-135.3 342.407,-136.623 340.938,-129.779"/>
</g>
<!-- Node1954 -->
<g id="node18" class="node"><title>Node1954</title>
<g id="a_node18"><a xlink:href="../../dd/dd7/a00248.html#ae878f1b2fff31ef78b7916bde1b939b3" target="_top" xlink:title="{&lt;S &#45;&#45;&gt; P&gt;} |&#45; &lt;S &lt;&#45;&gt; P&gt; {&lt;S &lt;&#45;&gt; P&gt;} |&#45; &lt;S &#45;&#45;&gt; P&gt; Switch between Inheritance/Implication and Similari...">
<polygon fill="none" stroke="black" points="399.5,-135.3 399.5,-165.3 564.5,-165.3 564.5,-135.3 399.5,-135.3"/>
<text text-anchor="start" x="407.5" y="-153.3" font-family="Helvetica,sans-Serif" font-size="10.00">nars.inference.LocalRules.convert</text>
<text text-anchor="middle" x="482" y="-142.3" font-family="Helvetica,sans-Serif" font-size="10.00">Relation</text>
</a>
</g>
</g>
<!-- Node1949&#45;&gt;Node1954 -->
<g id="edge18" class="edge"><title>Node1949&#45;&gt;Node1954</title>
<path fill="none" stroke="midnightblue" d="M359.362,-150.3C372.752,-150.3 386.388,-150.3 399.454,-150.3"/>
<polygon fill="midnightblue" stroke="midnightblue" points="359.184,-146.8 349.184,-150.3 359.184,-153.8 359.184,-146.8"/>
</g>
<!-- Node1951 -->
<g id="node15" class="node"><title>Node1951</title>
<g id="a_node15"><a xlink:href="../../dd/dd7/a00248.html#a93af32adec92cf57671c32e9ccc2dffc" target="_top" xlink:title="The task and belief match reversely. ">
<polygon fill="none" stroke="black" points="626,-86.2999 626,-116.3 786,-116.3 786,-86.2999 626,-86.2999"/>
<text text-anchor="start" x="634" y="-104.3" font-family="Helvetica,sans-Serif" font-size="10.00">nars.inference.LocalRules.match</text>
<text text-anchor="middle" x="706" y="-93.2999" font-family="Helvetica,sans-Serif" font-size="10.00">Reverse</text>
</a>
</g>
</g>
<!-- Node1950&#45;&gt;Node1951 -->
<g id="edge14" class="edge"><title>Node1950&#45;&gt;Node1951</title>
<path fill="none" stroke="midnightblue" d="M582.13,-102.407C596.82,-102.274 611.792,-102.14 625.998,-102.012"/>
<polygon fill="midnightblue" stroke="midnightblue" points="581.985,-98.9079 572.017,-102.498 582.048,-105.908 581.985,-98.9079"/>
</g>
<!-- Node1952 -->
<g id="node16" class="node"><title>Node1952</title>
<g id="a_node16"><a xlink:href="../../dc/ded/a00252.html#a34927349efcf87db97d23c60983b115b" target="_top" xlink:title="Syllogistic rules whose both premises are on the same asymmetric relation. ">
<polygon fill="none" stroke="black" points="833,-86.2999 833,-116.3 1018,-116.3 1018,-86.2999 833,-86.2999"/>
<text text-anchor="start" x="841" y="-104.3" font-family="Helvetica,sans-Serif" font-size="10.00">nars.inference.RuleTables.asymmetric</text>
<text text-anchor="middle" x="925.5" y="-93.2999" font-family="Helvetica,sans-Serif" font-size="10.00">Asymmetric</text>
</a>
</g>
</g>
<!-- Node1951&#45;&gt;Node1952 -->
<g id="edge15" class="edge"><title>Node1951&#45;&gt;Node1952</title>
<path fill="none" stroke="midnightblue" d="M796.207,-101.3C808.305,-101.3 820.736,-101.3 832.875,-101.3"/>
<polygon fill="midnightblue" stroke="midnightblue" points="796.138,-97.8 786.138,-101.3 796.138,-104.8 796.138,-97.8"/>
</g>
<!-- Node1953 -->
<g id="node17" class="node"><title>Node1953</title>
<g id="a_node17"><a xlink:href="../../dc/ded/a00252.html#a8628d400a8ceda7fea05039ddfea319b" target="_top" xlink:title="Meta&#45;table of syllogistic rules, indexed by the content classes of the taskSentence and the belief...">
<polygon fill="none" stroke="black" points="1062.5,-140.8 1062.5,-159.8 1242.5,-159.8 1242.5,-140.8 1062.5,-140.8"/>
<text text-anchor="middle" x="1152.5" y="-147.8" font-family="Helvetica,sans-Serif" font-size="10.00">nars.inference.RuleTables.syllogisms</text>
</a>
</g>
</g>
<!-- Node1952&#45;&gt;Node1953 -->
<g id="edge16" class="edge"><title>Node1952&#45;&gt;Node1953</title>
<path fill="none" stroke="midnightblue" d="M1005.55,-118.515C1039.87,-125.989 1078.75,-134.457 1107.75,-140.772"/>
<polygon fill="midnightblue" stroke="midnightblue" points="1006.05,-115.043 995.537,-116.334 1004.56,-121.882 1006.05,-115.043"/>
</g>
<!-- Node1953&#45;&gt;Node1940 -->
<g id="edge17" class="edge"><title>Node1953&#45;&gt;Node1940</title>
<path fill="none" stroke="midnightblue" d="M1191.57,-163.108C1233.81,-177.32 1301.01,-199.93 1338.96,-212.699"/>
<polygon fill="midnightblue" stroke="midnightblue" points="1192.51,-159.733 1181.92,-159.861 1190.28,-166.367 1192.51,-159.733"/>
</g>
<!-- Node1955 -->
<g id="node19" class="node"><title>Node1955</title>
<g id="a_node19"><a xlink:href="../../dd/dd7/a00248.html#a901b20a8e57ac01ce97b4d1302224e39" target="_top" xlink:title="Inheritance/Implication matches Similarity/Equivalence. ">
<polygon fill="none" stroke="black" points="626,-135.3 626,-165.3 786,-165.3 786,-135.3 626,-135.3"/>
<text text-anchor="start" x="634" y="-153.3" font-family="Helvetica,sans-Serif" font-size="10.00">nars.inference.LocalRules.match</text>
<text text-anchor="middle" x="706" y="-142.3" font-family="Helvetica,sans-Serif" font-size="10.00">AsymSym</text>
</a>
</g>
</g>
<!-- Node1954&#45;&gt;Node1955 -->
<g id="edge19" class="edge"><title>Node1954&#45;&gt;Node1955</title>
<path fill="none" stroke="midnightblue" d="M575.088,-150.3C591.888,-150.3 609.283,-150.3 625.673,-150.3"/>
<polygon fill="midnightblue" stroke="midnightblue" points="574.719,-146.8 564.719,-150.3 574.719,-153.8 574.719,-146.8"/>
</g>
<!-- Node1956 -->
<g id="node20" class="node"><title>Node1956</title>
<g id="a_node20"><a xlink:href="../../dc/ded/a00252.html#a4f61a7c2dc75c9da475030894eac0735" target="_top" xlink:title="Syllogistic rules whose first premise is on an asymmetric relation, and the second on a symmetric rel...">
<polygon fill="none" stroke="black" points="833,-135.3 833,-165.3 1018,-165.3 1018,-135.3 833,-135.3"/>
<text text-anchor="start" x="841" y="-153.3" font-family="Helvetica,sans-Serif" font-size="10.00">nars.inference.RuleTables.asymmetric</text>
<text text-anchor="middle" x="925.5" y="-142.3" font-family="Helvetica,sans-Serif" font-size="10.00">Symmetric</text>
</a>
</g>
</g>
<!-- Node1955&#45;&gt;Node1956 -->
<g id="edge20" class="edge"><title>Node1955&#45;&gt;Node1956</title>
<path fill="none" stroke="midnightblue" d="M796.207,-150.3C808.305,-150.3 820.736,-150.3 832.875,-150.3"/>
<polygon fill="midnightblue" stroke="midnightblue" points="796.138,-146.8 786.138,-150.3 796.138,-153.8 796.138,-146.8"/>
</g>
<!-- Node1956&#45;&gt;Node1953 -->
<g id="edge21" class="edge"><title>Node1956&#45;&gt;Node1953</title>
<path fill="none" stroke="midnightblue" d="M1028.35,-150.3C1039.66,-150.3 1051.11,-150.3 1062.25,-150.3"/>
<polygon fill="midnightblue" stroke="midnightblue" points="1028.02,-146.8 1018.02,-150.3 1028.02,-153.8 1028.02,-146.8"/>
</g>
<!-- Node1958 -->
<g id="node22" class="node"><title>Node1958</title>
<g id="a_node22"><a xlink:href="../../dc/ded/a00252.html#a54a7ceba4f123db5035e3b85063c91f1" target="_top" xlink:title="Inference between a compound term and a statement. ">
<polygon fill="none" stroke="black" points="616.5,-272.3 616.5,-302.3 795.5,-302.3 795.5,-272.3 616.5,-272.3"/>
<text text-anchor="start" x="624.5" y="-290.3" font-family="Helvetica,sans-Serif" font-size="10.00">nars.inference.RuleTables.compound</text>
<text text-anchor="middle" x="706" y="-279.3" font-family="Helvetica,sans-Serif" font-size="10.00">AndStatement</text>
</a>
</g>
</g>
<!-- Node1957&#45;&gt;Node1958 -->
<g id="edge23" class="edge"><title>Node1957&#45;&gt;Node1958</title>
<path fill="none" stroke="midnightblue" d="M558.699,-262.257C577.531,-265.481 597.876,-268.963 617.235,-272.277"/>
<polygon fill="midnightblue" stroke="midnightblue" points="559.153,-258.784 548.706,-260.547 557.972,-265.684 559.153,-258.784"/>
</g>
<!-- Node1958&#45;&gt;Node1940 -->
<g id="edge24" class="edge"><title>Node1958&#45;&gt;Node1940</title>
<path fill="none" stroke="midnightblue" d="M805.882,-288.834C915.509,-288.919 1097.18,-284.254 1251,-257.3 1283.03,-251.686 1318.69,-240.161 1342.01,-231.868"/>
<polygon fill="midnightblue" stroke="midnightblue" points="805.836,-285.334 795.828,-288.813 805.821,-292.334 805.836,-285.334"/>
</g>
<!-- Node1960 -->
<g id="node24" class="node"><title>Node1960</title>
<g id="a_node24"><a xlink:href="../../dc/ded/a00252.html#a00ffbf7a9069cfd135acae4b46d78d05" target="_top" xlink:title="Inference between a compound term and a component of it. ">
<polygon fill="none" stroke="black" points="392.5,-184.3 392.5,-214.3 571.5,-214.3 571.5,-184.3 392.5,-184.3"/>
<text text-anchor="start" x="400.5" y="-202.3" font-family="Helvetica,sans-Serif" font-size="10.00">nars.inference.RuleTables.compound</text>
<text text-anchor="middle" x="482" y="-191.3" font-family="Helvetica,sans-Serif" font-size="10.00">AndSelf</text>
</a>
</g>
</g>
<!-- Node1959&#45;&gt;Node1960 -->
<g id="edge26" class="edge"><title>Node1959&#45;&gt;Node1960</title>
<path fill="none" stroke="midnightblue" d="M337.869,-199.3C355.405,-199.3 374.216,-199.3 392.247,-199.3"/>
<polygon fill="midnightblue" stroke="midnightblue" points="337.707,-195.8 327.707,-199.3 337.707,-202.8 337.707,-195.8"/>
</g>
<!-- Node1960&#45;&gt;Node1940 -->
<g id="edge29" class="edge"><title>Node1960&#45;&gt;Node1940</title>
<path fill="none" stroke="midnightblue" d="M581.903,-210.439C593.059,-211.502 604.268,-212.485 615,-213.3 859.107,-231.827 1149.01,-228.054 1286.89,-224.7"/>
<polygon fill="midnightblue" stroke="midnightblue" points="581.981,-206.93 571.689,-209.442 581.301,-213.897 581.981,-206.93"/>
</g>
<!-- Node1961 -->
<g id="node25" class="node"><title>Node1961</title>
<g id="a_node25"><a xlink:href="../../dc/ded/a00252.html#a764dbc9ccccf406df45e09fbfeda928f" target="_top" xlink:title="Inference between two compound terms. ">
<polygon fill="none" stroke="black" points="836,-184.3 836,-214.3 1015,-214.3 1015,-184.3 836,-184.3"/>
<text text-anchor="start" x="844" y="-202.3" font-family="Helvetica,sans-Serif" font-size="10.00">nars.inference.RuleTables.compound</text>
<text text-anchor="middle" x="925.5" y="-191.3" font-family="Helvetica,sans-Serif" font-size="10.00">AndCompound</text>
</a>
</g>
</g>
<!-- Node1960&#45;&gt;Node1961 -->
<g id="edge27" class="edge"><title>Node1960&#45;&gt;Node1961</title>
<path fill="none" stroke="midnightblue" d="M581.627,-199.3C657.763,-199.3 762.18,-199.3 835.722,-199.3"/>
<polygon fill="midnightblue" stroke="midnightblue" points="581.548,-195.8 571.548,-199.3 581.548,-202.8 581.548,-195.8"/>
</g>
<!-- Node1961&#45;&gt;Node1940 -->
<g id="edge28" class="edge"><title>Node1961&#45;&gt;Node1940</title>
<path fill="none" stroke="midnightblue" d="M1025.64,-204.47C1104.41,-208.578 1213.19,-214.252 1286.73,-218.087"/>
<polygon fill="midnightblue" stroke="midnightblue" points="1025.38,-200.952 1015.21,-203.927 1025.02,-207.943 1025.38,-200.952"/>
</g>
<!-- Node1962&#45;&gt;Node1939 -->
<g id="edge31" class="edge"><title>Node1962&#45;&gt;Node1939</title>
<path fill="none" stroke="midnightblue" d="M342.787,-386.394C419.567,-387.434 534.845,-388.995 614.64,-390.076"/>
<polygon fill="midnightblue" stroke="midnightblue" points="342.731,-382.893 332.685,-386.257 342.636,-389.892 342.731,-382.893"/>
</g>
<!-- Node1964 -->
<g id="node28" class="node"><title>Node1964</title>
<g id="a_node28"><a xlink:href="../../d0/def/a00256.html#a406d19539e5938cf190f153430f96b9b" target="_top" xlink:title="{&lt;S &#45;&#45;&gt; P&gt;, P@(P&amp;Q)} |&#45; &lt;S &#45;&#45;&gt; (P&amp;Q)&gt; ">
<polygon fill="none" stroke="black" points="415.5,-283.3 415.5,-313.3 548.5,-313.3 548.5,-283.3 415.5,-283.3"/>
<text text-anchor="start" x="423.5" y="-301.3" font-family="Helvetica,sans-Serif" font-size="10.00">nars.inference.Structural</text>
<text text-anchor="middle" x="482" y="-290.3" font-family="Helvetica,sans-Serif" font-size="10.00">Rules.structuralCompose1</text>
</a>
</g>
</g>
<!-- Node1963&#45;&gt;Node1964 -->
<g id="edge33" class="edge"><title>Node1963&#45;&gt;Node1964</title>
<path fill="none" stroke="midnightblue" d="M336.551,-323.364C362.148,-318.923 390.591,-313.987 415.423,-309.679"/>
<polygon fill="midnightblue" stroke="midnightblue" points="335.777,-319.946 326.523,-325.104 336.974,-326.843 335.777,-319.946"/>
</g>
<!-- Node1965 -->
<g id="node29" class="node"><title>Node1965</title>
<g id="a_node29"><a xlink:href="../../d0/def/a00256.html#a9acdf1ff41d9de191e132c7cbe1e04fc" target="_top" xlink:title="{&lt;(S&amp;T) &#45;&#45;&gt; P&gt;, S@(S&amp;T)} |&#45; &lt;S &#45;&#45;&gt; P&gt; ">
<polygon fill="none" stroke="black" points="410.5,-332.3 410.5,-362.3 553.5,-362.3 553.5,-332.3 410.5,-332.3"/>
<text text-anchor="start" x="418.5" y="-350.3" font-family="Helvetica,sans-Serif" font-size="10.00">nars.inference.Structural</text>
<text text-anchor="middle" x="482" y="-339.3" font-family="Helvetica,sans-Serif" font-size="10.00">Rules.structuralDecompose1</text>
</a>
</g>
</g>
<!-- Node1963&#45;&gt;Node1965 -->
<g id="edge35" class="edge"><title>Node1963&#45;&gt;Node1965</title>
<path fill="none" stroke="midnightblue" d="M336.594,-340.047C360.481,-341.246 386.844,-342.571 410.435,-343.756"/>
<polygon fill="midnightblue" stroke="midnightblue" points="336.686,-336.547 326.523,-339.541 336.335,-343.538 336.686,-336.547"/>
</g>
<!-- Node1964&#45;&gt;Node1958 -->
<g id="edge34" class="edge"><title>Node1964&#45;&gt;Node1958</title>
<path fill="none" stroke="midnightblue" d="M558.835,-294.542C577.365,-293.624 597.352,-292.634 616.419,-291.689"/>
<polygon fill="midnightblue" stroke="midnightblue" points="558.521,-291.053 548.706,-295.044 558.867,-298.045 558.521,-291.053"/>
</g>
<!-- Node1965&#45;&gt;Node1939 -->
<g id="edge36" class="edge"><title>Node1965&#45;&gt;Node1939</title>
<path fill="none" stroke="midnightblue" d="M563.593,-363.273C585.026,-367.521 608.098,-372.094 629.261,-376.289"/>
<polygon fill="midnightblue" stroke="midnightblue" points="564.037,-359.793 553.547,-361.282 562.676,-366.66 564.037,-359.793"/>
</g>
<!-- Node1966&#45;&gt;Node1960 -->
<g id="edge38" class="edge"><title>Node1966&#45;&gt;Node1960</title>
<path fill="none" stroke="midnightblue" d="M339.133,-231.042C363.535,-225.582 390.294,-219.595 413.932,-214.306"/>
<polygon fill="midnightblue" stroke="midnightblue" points="338.19,-227.666 329.196,-233.265 339.718,-234.497 338.19,-227.666"/>
</g>
<!-- Node1967&#45;&gt;Node1968 -->
<g id="edge40" class="edge"><title>Node1967&#45;&gt;Node1968</title>
<path fill="none" stroke="midnightblue" d="M339.8,-84.2477C363.494,-79.0545 389.355,-73.3864 412.395,-68.3365"/>
<polygon fill="midnightblue" stroke="midnightblue" points="338.812,-80.8812 329.793,-86.4411 340.311,-87.7189 338.812,-80.8812"/>
</g>
<!-- Node1969 -->
<g id="node33" class="node"><title>Node1969</title>
<g id="a_node33"><a xlink:href="../../dc/ded/a00252.html#ab344d6ccee0f3671b57d092daeb65db4" target="_top" xlink:title="The TaskLink is of type TRANSFORM, and the conclusion is an equivalent transformation. ">
<polygon fill="none" stroke="black" points="1054,-74.7999 1054,-93.7999 1251,-93.7999 1251,-74.7999 1054,-74.7999"/>
<text text-anchor="middle" x="1152.5" y="-81.7999" font-family="Helvetica,sans-Serif" font-size="10.00">nars.inference.RuleTables.transformTask</text>
</a>
</g>
</g>
<!-- Node1968&#45;&gt;Node1969 -->
<g id="edge41" class="edge"><title>Node1968&#45;&gt;Node1969</title>
<path fill="none" stroke="midnightblue" d="M565.939,-56.431C671.122,-60.5018 858.062,-68.0704 1018,-76.2999 1029.59,-76.8964 1041.75,-77.5651 1053.81,-78.255"/>
<polygon fill="midnightblue" stroke="midnightblue" points="565.835,-52.9244 555.707,-56.036 565.565,-59.9192 565.835,-52.9244"/>
</g>
<!-- Node1969&#45;&gt;Node1941 -->
<g id="edge42" class="edge"><title>Node1969&#45;&gt;Node1941</title>
<path fill="none" stroke="midnightblue" d="M1205.56,-96.0173C1278.2,-112.365 1409.57,-141.931 1485.66,-159.058"/>
<polygon fill="midnightblue" stroke="midnightblue" points="1206.24,-92.5822 1195.72,-93.801 1204.7,-99.4114 1206.24,-92.5822"/>
</g>
<!-- Node1970&#45;&gt;Node1939 -->
<g id="edge45" class="edge"><title>Node1970&#45;&gt;Node1939</title>
<path fill="none" stroke="midnightblue" d="M358.765,-474.276C422.285,-472.826 506.681,-466.902 579,-448.3 615.274,-438.969 654.127,-419.844 678.947,-406.326"/>
<polygon fill="midnightblue" stroke="midnightblue" points="358.684,-470.777 348.754,-474.471 358.821,-477.775 358.684,-470.777"/>
</g>
<!-- Node1971&#45;&gt;Node1968 -->
<g id="edge47" class="edge"><title>Node1971&#45;&gt;Node1968</title>
<path fill="none" stroke="midnightblue" d="M335.842,-52.637C359.223,-52.7438 385.039,-52.8617 408.337,-52.9681"/>
<polygon fill="midnightblue" stroke="midnightblue" points="335.654,-49.1362 325.638,-52.5904 335.622,-56.1362 335.654,-49.1362"/>
</g>
</g>
</svg>
