<?xml version="1.0" encoding="UTF-8" standalone="no"?>
<!DOCTYPE svg PUBLIC "-//W3C//DTD SVG 1.1//EN"
 "http://www.w3.org/Graphics/SVG/1.1/DTD/svg11.dtd">
<!-- Generated by graphviz version 2.38.0 (20140413.2041)
 -->
<!-- Title: nars.storage.Memory.toStringLongIfNotNull Pages: 1 -->
<svg width="659pt" height="66pt"
 viewBox="0.00 0.00 659.00 66.00" xmlns="http://www.w3.org/2000/svg" xmlns:xlink="http://www.w3.org/1999/xlink">
<g id="graph0" class="graph" transform="scale(1 1) rotate(0) translate(4 62)">
<title>nars.storage.Memory.toStringLongIfNotNull</title>
<!-- Node2060 -->
<g id="node1" class="node"><title>Node2060</title>
<polygon fill="#bfbfbf" stroke="black" points="0,-14 0,-44 146,-44 146,-14 0,-14"/>
<text text-anchor="start" x="8" y="-32" font-family="Helvetica,sans-Serif" font-size="10.00">nars.storage.Memory.toString</text>
<text text-anchor="middle" x="73" y="-21" font-family="Helvetica,sans-Serif" font-size="10.00">LongIfNotNull</text>
</g>
<!-- Node2061 -->
<g id="node2" class="node"><title>Node2061</title>
<g id="a_node2"><a xlink:href="../../dc/d31/a00208.html#a7adee9838f91c397f4b747351ead9f75" target="_top" xlink:title="nars.entity.Item.toStringLong">
<polygon fill="none" stroke="black" points="182,-19.5 182,-38.5 325,-38.5 325,-19.5 182,-19.5"/>
<text text-anchor="middle" x="253.5" y="-26.5" font-family="Helvetica,sans-Serif" font-size="10.00">nars.entity.Item.toStringLong</text>
</a>
</g>
</g>
<!-- Node2060&#45;&gt;Node2061 -->
<g id="edge1" class="edge"><title>Node2060&#45;&gt;Node2061</title>
<path fill="none" stroke="midnightblue" d="M146.088,-29C154.573,-29 163.272,-29 171.864,-29"/>
<polygon fill="midnightblue" stroke="midnightblue" points="171.882,-32.5001 181.882,-29 171.882,-25.5001 171.882,-32.5001"/>
</g>
<!-- Node2062 -->
<g id="node3" class="node"><title>Node2062</title>
<g id="a_node3"><a xlink:href="../../dc/d31/a00208.html#aa09cfb045062f89cbea45a6975e6a2f2" target="_top" xlink:title="Return a String representation of the Item. ">
<polygon fill="none" stroke="black" points="361,-19.5 361,-38.5 483,-38.5 483,-19.5 361,-19.5"/>
<text text-anchor="middle" x="422" y="-26.5" font-family="Helvetica,sans-Serif" font-size="10.00">nars.entity.Item.toString</text>
</a>
</g>
</g>
<!-- Node2061&#45;&gt;Node2062 -->
<g id="edge2" class="edge"><title>Node2061&#45;&gt;Node2062</title>
<path fill="none" stroke="midnightblue" d="M325.111,-29C333.555,-29 342.176,-29 350.616,-29"/>
<polygon fill="midnightblue" stroke="midnightblue" points="350.798,-32.5001 360.798,-29 350.798,-25.5001 350.798,-32.5001"/>
</g>
<!-- Node2063 -->
<g id="node4" class="node"><title>Node2063</title>
<g id="a_node4"><a xlink:href="../../dc/d31/a00208.html#a54fc0a370b847dd77c0a698c765e6e55" target="_top" xlink:title="The budget of the Item, consisting of 3 numbers. ">
<polygon fill="none" stroke="black" points="519,-38.5 519,-57.5 651,-57.5 651,-38.5 519,-38.5"/>
<text text-anchor="middle" x="585" y="-45.5" font-family="Helvetica,sans-Serif" font-size="10.00">nars.entity.Item.getBudget</text>
</a>
</g>
</g>
<!-- Node2062&#45;&gt;Node2063 -->
<g id="edge3" class="edge"><title>Node2062&#45;&gt;Node2063</title>
<path fill="none" stroke="midnightblue" d="M483.409,-36.129C491.746,-37.1128 500.39,-38.133 508.952,-39.1434"/>
<polygon fill="midnightblue" stroke="midnightblue" points="508.6,-42.626 518.941,-40.3222 509.42,-35.6743 508.6,-42.626"/>
</g>
<!-- Node2064 -->
<g id="node5" class="node"><title>Node2064</title>
<g id="a_node5"><a xlink:href="../../dc/d31/a00208.html#ab5c9fbb171f325844966b496010acf60" target="_top" xlink:title="The key of the Item, unique in a Bag. ">
<polygon fill="none" stroke="black" points="525.5,-0.5 525.5,-19.5 644.5,-19.5 644.5,-0.5 525.5,-0.5"/>
<text text-anchor="middle" x="585" y="-7.5" font-family="Helvetica,sans-Serif" font-size="10.00">nars.entity.Item.getKey</text>
</a>
</g>
</g>
<!-- Node2062&#45;&gt;Node2064 -->
<g id="edge4" class="edge"><title>Node2062&#45;&gt;Node2064</title>
<path fill="none" stroke="midnightblue" d="M483.409,-21.871C493.822,-20.6422 504.714,-19.3567 515.326,-18.1044"/>
<polygon fill="midnightblue" stroke="midnightblue" points="515.869,-21.5647 525.39,-16.9168 515.048,-14.613 515.869,-21.5647"/>
</g>
</g>
</svg>
