<?xml version="1.0" encoding="UTF-8" standalone="no"?>
<!DOCTYPE svg PUBLIC "-//W3C//DTD SVG 1.1//EN"
 "http://www.w3.org/Graphics/SVG/1.1/DTD/svg11.dtd">
<!-- Generated by graphviz version 2.38.0 (20140413.2041)
 -->
<!-- Title: nars.storage.Memory.doublePremiseTask Pages: 1 -->
<!--zoomable 691 -->
<svg id="main" version="1.1" xmlns="http://www.w3.org/2000/svg" xmlns:xlink="http://www.w3.org/1999/xlink" xml:space="preserve" onload="init(evt)">
<style type="text/css"><![CDATA[
.edge:hover path { stroke: red; }
.edge:hover polygon { stroke: red; fill: red; }
]]></style>
<script type="text/javascript"><![CDATA[
var edges = document.getElementsByTagName('g');
if (edges && edges.length) {
  for (var i=0;i<edges.length;i++) {
    if (edges[i].id.substr(0,4)=='edge') {
      edges[i].setAttribute('class','edge');
    }
  }
}
]]></script>
        <defs>
                <circle id="rim" cx="0" cy="0" r="7"/>
                <circle id="rim2" cx="0" cy="0" r="3.5"/>
                <g id="zoomPlus">
                        <use xlink:href="#rim" fill="#404040">
                                <set attributeName="fill" to="#808080" begin="zoomplus.mouseover" end="zoomplus.mouseout"/>
                        </use>
                        <path d="M-4,0h8M0,-4v8" fill="none" stroke="white" stroke-width="1.5" pointer-events="none"/>
                </g>
                <g id="zoomMin">
                        <use xlink:href="#rim" fill="#404040">
                                <set attributeName="fill" to="#808080" begin="zoomminus.mouseover" end="zoomminus.mouseout"/>
                        </use>
                        <path d="M-4,0h8" fill="none" stroke="white" stroke-width="1.5" pointer-events="none"/>
                </g>
                <g id="dirArrow">
                        <path fill="none" stroke="white" stroke-width="1.5" d="M0,-3.0v7 M-2.5,-0.5L0,-3.0L2.5,-0.5"/>
                </g>
               <g id="resetDef">
                       <use xlink:href="#rim2" fill="#404040">
                               <set attributeName="fill" to="#808080" begin="reset.mouseover" end="reset.mouseout"/>
                       </use>
               </g>
        </defs>

<script type="text/javascript">
var viewWidth = 1362;
var viewHeight = 691;
var sectionId = 'dynsection-10';
</script>
<script xlink:href="../../svgpan.js"/>
<svg id="graph" class="graph">
<g id="viewport">
<title>nars.storage.Memory.doublePremiseTask</title>
<!-- Node175 -->
<g id="node1" class="node"><title>Node175</title>
<polygon fill="#bfbfbf" stroke="black" points="0,-110.5 0,-140.5 140,-140.5 140,-110.5 0,-110.5"/>
<text text-anchor="start" x="8" y="-128.5" font-family="Helvetica,sans-Serif" font-size="10.00">nars.storage.Memory.double</text>
<text text-anchor="middle" x="70" y="-117.5" font-family="Helvetica,sans-Serif" font-size="10.00">PremiseTask</text>
</g>
<!-- Node176 -->
<g id="node2" class="node"><title>Node176</title>
<g id="a_node2"><a xlink:href="../../d4/d27/a00392.html#a831fc87d7e6d1f11df73b38bdd628b9b" target="_top" xlink:title="Derived task comes from the inference rules. ">
<polygon fill="none" stroke="black" points="183,-450 183,-469 348,-469 348,-450 183,-450"/>
<text text-anchor="middle" x="265.5" y="-457" font-family="Helvetica,sans-Serif" font-size="10.00">nars.storage.Memory.derivedTask</text>
</a>
</g>
</g>
<!-- Node175&#45;&gt;Node176 -->
<g id="edge1" class="edge"><title>Node175&#45;&gt;Node176</title>
<path fill="none" stroke="midnightblue" d="M79.8171,-140.719C111.473,-195.36 219.338,-381.545 253.813,-441.053"/>
<polygon fill="midnightblue" stroke="midnightblue" points="250.821,-442.871 258.863,-449.769 256.878,-439.362 250.821,-442.871"/>
</g>
<!-- Node185 -->
<g id="node11" class="node"><title>Node185</title>
<g id="a_node11"><a xlink:href="../../d5/ddf/a00224.html#ab140cb553a6cf40b07093d1df283567f" target="_top" xlink:title="The sentence of the Task. ">
<polygon fill="none" stroke="black" points="402,-231 402,-250 547,-250 547,-231 402,-231"/>
<text text-anchor="middle" x="474.5" y="-238" font-family="Helvetica,sans-Serif" font-size="10.00">nars.entity.Task.getSentence</text>
</a>
</g>
</g>
<!-- Node175&#45;&gt;Node185 -->
<g id="edge37" class="edge"><title>Node175&#45;&gt;Node185</title>
<path fill="none" stroke="midnightblue" d="M112.677,-140.547C131.859,-147.277 154.98,-155.114 176,-161.5 262.521,-187.784 364.641,-213.836 423.938,-228.48"/>
<polygon fill="midnightblue" stroke="midnightblue" points="423.241,-231.913 433.788,-230.905 424.914,-225.116 423.241,-231.913"/>
</g>
<!-- Node200 -->
<g id="node26" class="node"><title>Node200</title>
<g id="a_node26"><a xlink:href="../../dd/dc1/a00212.html#a68b153a51a5db6a4127b66158227697f" target="_top" xlink:title="The punctuation also indicates the type of the Sentence: Judgment, Question, or Goal. ">
<polygon fill="none" stroke="black" points="1048.5,-98.5 1048.5,-128.5 1171.5,-128.5 1171.5,-98.5 1048.5,-98.5"/>
<text text-anchor="start" x="1056.5" y="-116.5" font-family="Helvetica,sans-Serif" font-size="10.00">nars.entity.Sentence.get</text>
<text text-anchor="middle" x="1110" y="-105.5" font-family="Helvetica,sans-Serif" font-size="10.00">Punctuation</text>
</a>
</g>
</g>
<!-- Node175&#45;&gt;Node200 -->
<g id="edge36" class="edge"><title>Node175&#45;&gt;Node200</title>
<path fill="none" stroke="midnightblue" d="M140.023,-131.57C220.141,-138.082 356.279,-147.5 473.5,-147.5 473.5,-147.5 473.5,-147.5 684.5,-147.5 809.363,-147.5 954.228,-132.703 1038.36,-122.632"/>
<polygon fill="midnightblue" stroke="midnightblue" points="1038.81,-126.104 1048.32,-121.429 1037.97,-119.154 1038.81,-126.104"/>
</g>
<!-- Node205 -->
<g id="node31" class="node"><title>Node205</title>
<g id="a_node31"><a xlink:href="../../d4/d27/a00392.html#aae366ea198c2340fef786120d5c2163b" target="_top" xlink:title="The selected belief. ">
<polygon fill="none" stroke="black" points="186.5,-88.5 186.5,-118.5 344.5,-118.5 344.5,-88.5 186.5,-88.5"/>
<text text-anchor="start" x="194.5" y="-106.5" font-family="Helvetica,sans-Serif" font-size="10.00">nars.storage.Memory.getCurrent</text>
<text text-anchor="middle" x="265.5" y="-95.5" font-family="Helvetica,sans-Serif" font-size="10.00">Belief</text>
</a>
</g>
</g>
<!-- Node175&#45;&gt;Node205 -->
<g id="edge33" class="edge"><title>Node175&#45;&gt;Node205</title>
<path fill="none" stroke="midnightblue" d="M140.038,-117.651C151.74,-116.32 164.032,-114.923 176.147,-113.545"/>
<polygon fill="midnightblue" stroke="midnightblue" points="176.725,-117.002 186.266,-112.395 175.934,-110.047 176.725,-117.002"/>
</g>
<!-- Node206 -->
<g id="node32" class="node"><title>Node206</title>
<g id="a_node32"><a xlink:href="../../d4/d27/a00392.html#a26eda4f00b333b706b4e3d069fdf1508" target="_top" xlink:title="The selected Task. ">
<polygon fill="none" stroke="black" points="176,-50 176,-69 355,-69 355,-50 176,-50"/>
<text text-anchor="middle" x="265.5" y="-57" font-family="Helvetica,sans-Serif" font-size="10.00">nars.storage.Memory.getCurrentTask</text>
</a>
</g>
</g>
<!-- Node175&#45;&gt;Node206 -->
<g id="edge34" class="edge"><title>Node175&#45;&gt;Node206</title>
<path fill="none" stroke="midnightblue" d="M100.215,-110.431C120.927,-100.246 149.615,-87.1319 176,-78.5 184.051,-75.866 192.636,-73.4989 201.172,-71.4029"/>
<polygon fill="midnightblue" stroke="midnightblue" points="202.199,-74.7572 211.136,-69.0674 200.601,-67.9419 202.199,-74.7572"/>
</g>
<!-- Node207 -->
<g id="node33" class="node"><title>Node207</title>
<g id="a_node33"><a xlink:href="../../d4/d27/a00392.html#a09af34150e8562d5c93170388c8804b7" target="_top" xlink:title="The new Stamp. ">
<polygon fill="none" stroke="black" points="192.5,-0.5 192.5,-30.5 338.5,-30.5 338.5,-0.5 192.5,-0.5"/>
<text text-anchor="start" x="200.5" y="-18.5" font-family="Helvetica,sans-Serif" font-size="10.00">nars.storage.Memory.getNew</text>
<text text-anchor="middle" x="265.5" y="-7.5" font-family="Helvetica,sans-Serif" font-size="10.00">Stamp</text>
</a>
</g>
</g>
<!-- Node175&#45;&gt;Node207 -->
<g id="edge35" class="edge"><title>Node175&#45;&gt;Node207</title>
<path fill="none" stroke="midnightblue" d="M85.5934,-110.374C104.686,-91.4187 139.972,-59.1615 176,-40.5 180.492,-38.1731 185.228,-36.0393 190.079,-34.0863"/>
<polygon fill="midnightblue" stroke="midnightblue" points="191.379,-37.3369 199.515,-30.5503 188.923,-30.7821 191.379,-37.3369"/>
</g>
<!-- Node177 -->
<g id="node3" class="node"><title>Node177</title>
<g id="a_node3"><a xlink:href="../../dd/da2/a00192.html#ae83b822f3bab4c1831e94d72fc770f58" target="_top" xlink:title="Whether the budget should get any processing at all. ">
<polygon fill="none" stroke="black" points="399.5,-652.5 399.5,-682.5 549.5,-682.5 549.5,-652.5 399.5,-652.5"/>
<text text-anchor="start" x="407.5" y="-670.5" font-family="Helvetica,sans-Serif" font-size="10.00">nars.entity.BudgetValue.above</text>
<text text-anchor="middle" x="474.5" y="-659.5" font-family="Helvetica,sans-Serif" font-size="10.00">Threshold</text>
</a>
</g>
</g>
<!-- Node176&#45;&gt;Node177 -->
<g id="edge2" class="edge"><title>Node176&#45;&gt;Node177</title>
<path fill="none" stroke="midnightblue" d="M270.649,-469.153C283.818,-498.697 327.578,-588.823 391,-637.5 396.28,-641.552 402.159,-645.095 408.28,-648.184"/>
<polygon fill="midnightblue" stroke="midnightblue" points="406.833,-651.371 417.379,-652.392 409.771,-645.018 406.833,-651.371"/>
</g>
<!-- Node178 -->
<g id="node4" class="node"><title>Node178</title>
<g id="a_node4"><a xlink:href="../../dd/da2/a00192.html#af414899759992288edbba78d7457c534" target="_top" xlink:title="To summarize a BudgetValue into a single number in [0, 1]. ">
<polygon fill="none" stroke="black" points="601.5,-636 601.5,-655 765.5,-655 765.5,-636 601.5,-636"/>
<text text-anchor="middle" x="683.5" y="-643" font-family="Helvetica,sans-Serif" font-size="10.00">nars.entity.BudgetValue.summary</text>
</a>
</g>
</g>
<!-- Node176&#45;&gt;Node178 -->
<g id="edge32" class="edge"><title>Node176&#45;&gt;Node178</title>
<path fill="none" stroke="midnightblue" d="M271.396,-469.003C285.679,-495.635 330.161,-571.222 391,-604.5 424.616,-622.887 518.86,-633.801 591.176,-639.688"/>
<polygon fill="midnightblue" stroke="midnightblue" points="590.98,-643.183 601.226,-640.485 591.534,-636.205 590.98,-643.183"/>
</g>
<!-- Node180 -->
<g id="node6" class="node"><title>Node180</title>
<g id="a_node6"><a xlink:href="../../d0/dcd/a00280.html#acb473be6e5d774c10781bc8e74453459" target="_top" xlink:title="Add new text to display. ">
<polygon fill="none" stroke="black" points="391,-576 391,-595 558,-595 558,-576 391,-576"/>
<text text-anchor="middle" x="474.5" y="-583" font-family="Helvetica,sans-Serif" font-size="10.00">nars.io.IInferenceRecorder.append</text>
</a>
</g>
</g>
<!-- Node176&#45;&gt;Node180 -->
<g id="edge5" class="edge"><title>Node176&#45;&gt;Node180</title>
<path fill="none" stroke="midnightblue" d="M274.74,-469.245C293.23,-490.447 340.387,-540.908 391,-566.5 395.636,-568.844 400.564,-570.903 405.616,-572.711"/>
<polygon fill="midnightblue" stroke="midnightblue" points="404.846,-576.141 415.438,-575.887 407,-569.48 404.846,-576.141"/>
</g>
<!-- Node181 -->
<g id="node7" class="node"><title>Node181</title>
<g id="a_node7"><a xlink:href="../../dc/d31/a00208.html#a54fc0a370b847dd77c0a698c765e6e55" target="_top" xlink:title="The budget of the Item, consisting of 3 numbers. ">
<polygon fill="none" stroke="black" points="408.5,-538 408.5,-557 540.5,-557 540.5,-538 408.5,-538"/>
<text text-anchor="middle" x="474.5" y="-545" font-family="Helvetica,sans-Serif" font-size="10.00">nars.entity.Item.getBudget</text>
</a>
</g>
</g>
<!-- Node176&#45;&gt;Node181 -->
<g id="edge6" class="edge"><title>Node176&#45;&gt;Node181</title>
<path fill="none" stroke="midnightblue" d="M280.797,-469.182C303.299,-484.005 348.776,-512.306 391,-528.5 397.699,-531.069 404.842,-533.349 412.017,-535.357"/>
<polygon fill="midnightblue" stroke="midnightblue" points="411.221,-538.767 421.783,-537.928 413.003,-531.997 411.221,-538.767"/>
</g>
<!-- Node182 -->
<g id="node8" class="node"><title>Node182</title>
<g id="a_node8"><a xlink:href="../../d4/d27/a00392.html#a8c50bdf4f2750032f24965e12e9fb59c" target="_top" xlink:title="List of new tasks accumulated in one cycle, to be processed in the next cycle. ">
<polygon fill="none" stroke="black" points="401.5,-488.5 401.5,-518.5 547.5,-518.5 547.5,-488.5 401.5,-488.5"/>
<text text-anchor="start" x="409.5" y="-506.5" font-family="Helvetica,sans-Serif" font-size="10.00">nars.storage.Memory.getNew</text>
<text text-anchor="middle" x="474.5" y="-495.5" font-family="Helvetica,sans-Serif" font-size="10.00">Tasks</text>
</a>
</g>
</g>
<!-- Node176&#45;&gt;Node182 -->
<g id="edge7" class="edge"><title>Node176&#45;&gt;Node182</title>
<path fill="none" stroke="midnightblue" d="M311.416,-469.047C335.138,-474.09 364.982,-480.433 392.576,-486.299"/>
<polygon fill="midnightblue" stroke="midnightblue" points="392.115,-489.779 402.624,-488.435 393.571,-482.932 392.115,-489.779"/>
</g>
<!-- Node183 -->
<g id="node9" class="node"><title>Node183</title>
<g id="a_node9"><a xlink:href="../../d4/d27/a00392.html#a076ad9a0e872386bca3f2d17fa7cb2d4" target="_top" xlink:title="Backward pointer to the reasoner. ">
<polygon fill="none" stroke="black" points="600,-500 600,-519 767,-519 767,-500 600,-500"/>
<text text-anchor="middle" x="683.5" y="-507" font-family="Helvetica,sans-Serif" font-size="10.00">nars.storage.Memory.getReasoner</text>
</a>
</g>
</g>
<!-- Node176&#45;&gt;Node183 -->
<g id="edge8" class="edge"><title>Node176&#45;&gt;Node183</title>
<path fill="none" stroke="midnightblue" d="M348.168,-460.14C406.954,-461.803 487.913,-466.563 558,-479.5 574.452,-482.537 577.807,-486.296 594,-490.5 603.811,-493.047 614.296,-495.517 624.493,-497.786"/>
<polygon fill="midnightblue" stroke="midnightblue" points="624.041,-501.27 634.558,-499.985 625.535,-494.431 624.041,-501.27"/>
</g>
<!-- Node184 -->
<g id="node10" class="node"><title>Node184</title>
<g id="a_node10"><a xlink:href="../../d4/d27/a00392.html#aa4c7e1f5823d0404c0cab49b617968f1" target="_top" xlink:title="Inference record text to be written into a log file. ">
<polygon fill="none" stroke="black" points="392,-412 392,-431 557,-431 557,-412 392,-412"/>
<text text-anchor="middle" x="474.5" y="-419" font-family="Helvetica,sans-Serif" font-size="10.00">nars.storage.Memory.getRecorder</text>
</a>
</g>
</g>
<!-- Node176&#45;&gt;Node184 -->
<g id="edge9" class="edge"><title>Node176&#45;&gt;Node184</title>
<path fill="none" stroke="midnightblue" d="M318.468,-449.96C346.766,-444.765 381.964,-438.304 411.667,-432.851"/>
<polygon fill="midnightblue" stroke="midnightblue" points="412.307,-436.292 421.511,-431.044 411.043,-429.407 412.307,-436.292"/>
</g>
<!-- Node176&#45;&gt;Node185 -->
<g id="edge10" class="edge"><title>Node176&#45;&gt;Node185</title>
<path fill="none" stroke="midnightblue" d="M273.964,-449.971C292.709,-426.23 343.659,-362.877 391,-314.5 411.585,-293.464 437.026,-271.146 454.17,-256.589"/>
<polygon fill="midnightblue" stroke="midnightblue" points="456.471,-259.227 461.862,-250.106 451.96,-253.874 456.471,-259.227"/>
</g>
<!-- Node186 -->
<g id="node12" class="node"><title>Node186</title>
<g id="a_node12"><a xlink:href="../../df/d15/a00416.html#a240088fef0488e21e2f3953c92302541" target="_top" xlink:title="Report Silence Level. ">
<polygon fill="none" stroke="black" points="395.5,-362.5 395.5,-392.5 553.5,-392.5 553.5,-362.5 395.5,-362.5"/>
<text text-anchor="start" x="403.5" y="-380.5" font-family="Helvetica,sans-Serif" font-size="10.00">nars.storage.ReasonerBatch.get</text>
<text text-anchor="middle" x="474.5" y="-369.5" font-family="Helvetica,sans-Serif" font-size="10.00">SilenceValue</text>
</a>
</g>
</g>
<!-- Node176&#45;&gt;Node186 -->
<g id="edge11" class="edge"><title>Node176&#45;&gt;Node186</title>
<path fill="none" stroke="midnightblue" d="M285.565,-449.791C309.703,-437.728 352.759,-416.972 391,-402.5 397.207,-400.151 403.739,-397.866 410.297,-395.692"/>
<polygon fill="midnightblue" stroke="midnightblue" points="411.449,-398.998 419.89,-392.594 409.298,-392.337 411.449,-398.998"/>
</g>
<!-- Node187 -->
<g id="node13" class="node"><title>Node187</title>
<g id="a_node13"><a xlink:href="../../d4/d27/a00392.html#ad89bc0ba08c0b5bfbddf247cdab5eaa9" target="_top" xlink:title="Display input/output sentence in the output channels. ">
<polygon fill="none" stroke="black" points="406,-324 406,-343 543,-343 543,-324 406,-324"/>
<text text-anchor="middle" x="474.5" y="-331" font-family="Helvetica,sans-Serif" font-size="10.00">nars.storage.Memory.report</text>
</a>
</g>
</g>
<!-- Node176&#45;&gt;Node187 -->
<g id="edge12" class="edge"><title>Node176&#45;&gt;Node187</title>
<path fill="none" stroke="midnightblue" d="M274.74,-449.755C293.23,-428.553 340.387,-378.092 391,-352.5 395.636,-350.156 400.564,-348.097 405.616,-346.289"/>
<polygon fill="midnightblue" stroke="midnightblue" points="407,-349.52 415.438,-343.113 404.846,-342.859 407,-349.52"/>
</g>
<!-- Node177&#45;&gt;Node178 -->
<g id="edge3" class="edge"><title>Node177&#45;&gt;Node178</title>
<path fill="none" stroke="midnightblue" d="M549.647,-659.62C563.09,-658.191 577.252,-656.686 591.121,-655.212"/>
<polygon fill="midnightblue" stroke="midnightblue" points="591.578,-658.683 601.152,-654.146 590.838,-651.722 591.578,-658.683"/>
</g>
<!-- Node179 -->
<g id="node5" class="node"><title>Node179</title>
<g id="a_node5"><a xlink:href="../../db/d12/a00268.html#ae9f34c27ee5675fa2b97f2def9e1fb99" target="_top" xlink:title="A function where the output is the geometric average the inputs. ">
<polygon fill="none" stroke="black" points="809,-636 809,-655 995,-655 995,-636 809,-636"/>
<text text-anchor="middle" x="902" y="-643" font-family="Helvetica,sans-Serif" font-size="10.00">nars.inference.UtilityFunctions.aveGeo</text>
</a>
</g>
</g>
<!-- Node178&#45;&gt;Node179 -->
<g id="edge4" class="edge"><title>Node178&#45;&gt;Node179</title>
<path fill="none" stroke="midnightblue" d="M765.733,-645.5C776.481,-645.5 787.608,-645.5 798.654,-645.5"/>
<polygon fill="midnightblue" stroke="midnightblue" points="798.761,-649 808.761,-645.5 798.761,-642 798.761,-649"/>
</g>
<!-- Node187&#45;&gt;Node183 -->
<g id="edge15" class="edge"><title>Node187&#45;&gt;Node183</title>
<path fill="none" stroke="midnightblue" d="M543.184,-342.308C548.624,-344.959 553.678,-348.301 558,-352.5 603.462,-396.67 548.211,-446.669 594,-490.5 595.49,-491.926 597.06,-493.256 598.697,-494.496"/>
<polygon fill="midnightblue" stroke="midnightblue" points="597.066,-497.605 607.394,-499.972 600.796,-491.681 597.066,-497.605"/>
</g>
<!-- Node188 -->
<g id="node14" class="node"><title>Node188</title>
<g id="a_node14"><a xlink:href="../../df/d15/a00416.html#a55398625fb088534ef3fce8c38f95423" target="_top" xlink:title="global DEBUG print switch ">
<polygon fill="none" stroke="black" points="607.5,-450.5 607.5,-480.5 759.5,-480.5 759.5,-450.5 607.5,-450.5"/>
<text text-anchor="start" x="615.5" y="-468.5" font-family="Helvetica,sans-Serif" font-size="10.00">nars.storage.ReasonerBatch.is</text>
<text text-anchor="middle" x="683.5" y="-457.5" font-family="Helvetica,sans-Serif" font-size="10.00">DEBUG</text>
</a>
</g>
</g>
<!-- Node187&#45;&gt;Node188 -->
<g id="edge13" class="edge"><title>Node187&#45;&gt;Node188</title>
<path fill="none" stroke="midnightblue" d="M543.019,-343.122C548.426,-345.611 553.52,-348.693 558,-352.5 590.2,-379.865 562.48,-412.355 594,-440.5 595.742,-442.055 597.573,-443.514 599.479,-444.883"/>
<polygon fill="midnightblue" stroke="midnightblue" points="597.914,-448.031 608.257,-450.326 601.602,-442.082 597.914,-448.031"/>
</g>
<!-- Node189 -->
<g id="node15" class="node"><title>Node189</title>
<g id="a_node15"><a xlink:href="../../df/d15/a00416.html#aeb34e5ff1c0a1f220e7b8715cee2d9d3" target="_top" xlink:title="Get the current time from the clock Called in nars.entity.Stamp. ">
<polygon fill="none" stroke="black" points="594,-412 594,-431 773,-431 773,-412 594,-412"/>
<text text-anchor="middle" x="683.5" y="-419" font-family="Helvetica,sans-Serif" font-size="10.00">nars.storage.ReasonerBatch.getTime</text>
</a>
</g>
</g>
<!-- Node187&#45;&gt;Node189 -->
<g id="edge14" class="edge"><title>Node187&#45;&gt;Node189</title>
<path fill="none" stroke="midnightblue" d="M538.75,-343.013C545.552,-345.486 552.124,-348.595 558,-352.5 580.806,-367.657 571.082,-387.513 594,-402.5 597.144,-404.556 600.473,-406.394 603.924,-408.036"/>
<polygon fill="midnightblue" stroke="midnightblue" points="602.727,-411.329 613.304,-411.942 605.418,-404.867 602.727,-411.329"/>
</g>
<!-- Node190 -->
<g id="node16" class="node"><title>Node190</title>
<g id="a_node16"><a xlink:href="../../df/d15/a00416.html#ae7cc80bb901b1e8008537fe24e5d1bb2" target="_top" xlink:title="System clock, relatively defined to guarantee the repeatability of behaviors. ">
<polygon fill="none" stroke="black" points="604.5,-362.5 604.5,-392.5 762.5,-392.5 762.5,-362.5 604.5,-362.5"/>
<text text-anchor="start" x="612.5" y="-380.5" font-family="Helvetica,sans-Serif" font-size="10.00">nars.storage.ReasonerBatch.get</text>
<text text-anchor="middle" x="683.5" y="-369.5" font-family="Helvetica,sans-Serif" font-size="10.00">Clock</text>
</a>
</g>
</g>
<!-- Node187&#45;&gt;Node190 -->
<g id="edge16" class="edge"><title>Node187&#45;&gt;Node190</title>
<path fill="none" stroke="midnightblue" d="M520.416,-343.047C544.138,-348.09 573.982,-354.433 601.576,-360.299"/>
<polygon fill="midnightblue" stroke="midnightblue" points="601.115,-363.779 611.624,-362.435 602.571,-356.932 601.115,-363.779"/>
</g>
<!-- Node191 -->
<g id="node17" class="node"><title>Node191</title>
<g id="a_node17"><a xlink:href="../../df/d15/a00416.html#a64586e56057f3a2d498dc7fd98c4f773" target="_top" xlink:title="System clock &#45; number of cycles since last output. ">
<polygon fill="none" stroke="black" points="823,-315.5 823,-345.5 981,-345.5 981,-315.5 823,-315.5"/>
<text text-anchor="start" x="831" y="-333.5" font-family="Helvetica,sans-Serif" font-size="10.00">nars.storage.ReasonerBatch.get</text>
<text text-anchor="middle" x="902" y="-322.5" font-family="Helvetica,sans-Serif" font-size="10.00">Timer</text>
</a>
</g>
</g>
<!-- Node187&#45;&gt;Node191 -->
<g id="edge17" class="edge"><title>Node187&#45;&gt;Node191</title>
<path fill="none" stroke="midnightblue" d="M543.392,-333.021C616.407,-332.507 732.771,-331.686 812.817,-331.122"/>
<polygon fill="midnightblue" stroke="midnightblue" points="812.907,-334.621 822.882,-331.051 812.857,-327.621 812.907,-334.621"/>
</g>
<!-- Node192 -->
<g id="node18" class="node"><title>Node192</title>
<g id="a_node18"><a xlink:href="../../d4/d27/a00392.html#a1a17565c7b06ca4ecc1ed57c3fce973f" target="_top" xlink:title="List of Strings or Tasks to be sent to the output channels. ">
<polygon fill="none" stroke="black" points="606.5,-274.5 606.5,-304.5 760.5,-304.5 760.5,-274.5 606.5,-274.5"/>
<text text-anchor="start" x="614.5" y="-292.5" font-family="Helvetica,sans-Serif" font-size="10.00">nars.storage.Memory.getExport</text>
<text text-anchor="middle" x="683.5" y="-281.5" font-family="Helvetica,sans-Serif" font-size="10.00">Strings</text>
</a>
</g>
</g>
<!-- Node187&#45;&gt;Node192 -->
<g id="edge18" class="edge"><title>Node187&#45;&gt;Node192</title>
<path fill="none" stroke="midnightblue" d="M520.416,-323.953C544.138,-318.91 573.982,-312.567 601.576,-306.701"/>
<polygon fill="midnightblue" stroke="midnightblue" points="602.571,-310.068 611.624,-304.565 601.115,-303.221 602.571,-310.068"/>
</g>
<!-- Node193 -->
<g id="node19" class="node"><title>Node193</title>
<g id="a_node19"><a xlink:href="../../df/d15/a00416.html#a84cc1236020f7c170bfcee70c861ce20" target="_top" xlink:title="To get the timer value and then to reset it. ">
<polygon fill="none" stroke="black" points="597,-225.5 597,-255.5 770,-255.5 770,-225.5 597,-225.5"/>
<text text-anchor="start" x="605" y="-243.5" font-family="Helvetica,sans-Serif" font-size="10.00">nars.storage.ReasonerBatch.update</text>
<text text-anchor="middle" x="683.5" y="-232.5" font-family="Helvetica,sans-Serif" font-size="10.00">Timer</text>
</a>
</g>
</g>
<!-- Node187&#45;&gt;Node193 -->
<g id="edge19" class="edge"><title>Node187&#45;&gt;Node193</title>
<path fill="none" stroke="midnightblue" d="M489.107,-323.968C510.524,-309.344 553.807,-281.307 594,-264.5 598.957,-262.427 604.145,-260.484 609.417,-258.672"/>
<polygon fill="midnightblue" stroke="midnightblue" points="610.548,-261.985 618.966,-255.552 608.374,-255.331 610.548,-261.985"/>
</g>
<!-- Node196 -->
<g id="node22" class="node"><title>Node196</title>
<g id="a_node22"><a xlink:href="../../dd/dc1/a00212.html#aea2f809b2d4c375f3c4ec3d0328d8787" target="_top" xlink:title="Get a String representation of the sentence, with 2&#45;digit accuracy. ">
<polygon fill="none" stroke="black" points="612,-176.5 612,-206.5 755,-206.5 755,-176.5 612,-176.5"/>
<text text-anchor="start" x="620" y="-194.5" font-family="Helvetica,sans-Serif" font-size="10.00">nars.entity.Sentence.toString</text>
<text text-anchor="middle" x="683.5" y="-183.5" font-family="Helvetica,sans-Serif" font-size="10.00">Brief</text>
</a>
</g>
</g>
<!-- Node187&#45;&gt;Node196 -->
<g id="edge23" class="edge"><title>Node187&#45;&gt;Node196</title>
<path fill="none" stroke="midnightblue" d="M487.22,-323.973C503.696,-310.364 534.339,-284.261 558,-259.5 575.456,-241.233 572.795,-229.24 594,-215.5 596.739,-213.725 599.606,-212.081 602.565,-210.558"/>
<polygon fill="midnightblue" stroke="midnightblue" points="604.07,-213.718 611.674,-206.34 601.129,-207.366 604.07,-213.718"/>
</g>
<!-- Node193&#45;&gt;Node191 -->
<g id="edge20" class="edge"><title>Node193&#45;&gt;Node191</title>
<path fill="none" stroke="midnightblue" d="M755.153,-255.615C761.391,-258.141 767.44,-261.081 773,-264.5 793.373,-277.03 788.694,-291.862 809,-304.5 813.1,-307.052 817.456,-309.359 821.957,-311.445"/>
<polygon fill="midnightblue" stroke="midnightblue" points="820.791,-314.752 831.365,-315.422 823.517,-308.304 820.791,-314.752"/>
</g>
<!-- Node194 -->
<g id="node20" class="node"><title>Node194</title>
<g id="a_node20"><a xlink:href="../../df/d15/a00416.html#aa243bca18963b74438535cd125039740" target="_top" xlink:title="nars.storage.ReasonerBatch.init\lTimer">
<polygon fill="none" stroke="black" points="823.5,-265.5 823.5,-295.5 980.5,-295.5 980.5,-265.5 823.5,-265.5"/>
<text text-anchor="start" x="831.5" y="-283.5" font-family="Helvetica,sans-Serif" font-size="10.00">nars.storage.ReasonerBatch.init</text>
<text text-anchor="middle" x="902" y="-272.5" font-family="Helvetica,sans-Serif" font-size="10.00">Timer</text>
</a>
</g>
</g>
<!-- Node193&#45;&gt;Node194 -->
<g id="edge21" class="edge"><title>Node193&#45;&gt;Node194</title>
<path fill="none" stroke="midnightblue" d="M765.733,-255.508C781.185,-258.363 797.423,-261.363 813.073,-264.255"/>
<polygon fill="midnightblue" stroke="midnightblue" points="812.788,-267.761 823.258,-266.137 814.06,-260.878 812.788,-267.761"/>
</g>
<!-- Node195 -->
<g id="node21" class="node"><title>Node195</title>
<g id="a_node21"><a xlink:href="../../df/d15/a00416.html#ac3e769632e8a90ddc85970d3fee28e5f" target="_top" xlink:title="nars.storage.ReasonerBatch.set\lTimer">
<polygon fill="none" stroke="black" points="1031,-294.5 1031,-324.5 1189,-324.5 1189,-294.5 1031,-294.5"/>
<text text-anchor="start" x="1039" y="-312.5" font-family="Helvetica,sans-Serif" font-size="10.00">nars.storage.ReasonerBatch.set</text>
<text text-anchor="middle" x="1110" y="-301.5" font-family="Helvetica,sans-Serif" font-size="10.00">Timer</text>
</a>
</g>
</g>
<!-- Node194&#45;&gt;Node195 -->
<g id="edge22" class="edge"><title>Node194&#45;&gt;Node195</title>
<path fill="none" stroke="midnightblue" d="M980.586,-291.422C993.674,-293.265 1007.35,-295.189 1020.68,-297.067"/>
<polygon fill="midnightblue" stroke="midnightblue" points="1020.41,-300.563 1030.8,-298.491 1021.38,-293.631 1020.41,-300.563"/>
</g>
<!-- Node197 -->
<g id="node23" class="node"><title>Node197</title>
<g id="a_node23"><a xlink:href="../../dd/dc1/a00212.html#ac0ed749c50e55120d5b63219ed7eb082" target="_top" xlink:title="Partial record of the derivation path. ">
<polygon fill="none" stroke="black" points="840.5,-215.5 840.5,-245.5 963.5,-245.5 963.5,-215.5 840.5,-215.5"/>
<text text-anchor="start" x="848.5" y="-233.5" font-family="Helvetica,sans-Serif" font-size="10.00">nars.entity.Sentence.get</text>
<text text-anchor="middle" x="902" y="-222.5" font-family="Helvetica,sans-Serif" font-size="10.00">Stamp</text>
</a>
</g>
</g>
<!-- Node196&#45;&gt;Node197 -->
<g id="edge24" class="edge"><title>Node196&#45;&gt;Node197</title>
<path fill="none" stroke="midnightblue" d="M755.091,-204.216C779.168,-208.553 806.086,-213.402 830.181,-217.743"/>
<polygon fill="midnightblue" stroke="midnightblue" points="829.857,-221.241 840.319,-219.569 831.098,-214.351 829.857,-221.241"/>
</g>
<!-- Node198 -->
<g id="node24" class="node"><title>Node198</title>
<g id="a_node24"><a xlink:href="../../dd/dc1/a00212.html#a8b6d9355c0211d37f881ec6717a6b636" target="_top" xlink:title="Get a String representation of the sentence for key of Task and TaskLink. ">
<polygon fill="none" stroke="black" points="834.5,-177 834.5,-196 969.5,-196 969.5,-177 834.5,-177"/>
<text text-anchor="middle" x="902" y="-184" font-family="Helvetica,sans-Serif" font-size="10.00">nars.entity.Sentence.toKey</text>
</a>
</g>
</g>
<!-- Node196&#45;&gt;Node198 -->
<g id="edge25" class="edge"><title>Node196&#45;&gt;Node198</title>
<path fill="none" stroke="midnightblue" d="M755.091,-189.87C777.134,-189.361 801.558,-188.797 824.017,-188.278"/>
<polygon fill="midnightblue" stroke="midnightblue" points="824.266,-191.773 834.183,-188.043 824.105,-184.775 824.266,-191.773"/>
</g>
<!-- Node199 -->
<g id="node25" class="node"><title>Node199</title>
<g id="a_node25"><a xlink:href="../../dd/dc1/a00212.html#ad1ded9a02cae3557948d05530cd4d37e" target="_top" xlink:title="The content of a Sentence is a Term. ">
<polygon fill="none" stroke="black" points="1048.5,-245.5 1048.5,-275.5 1171.5,-275.5 1171.5,-245.5 1048.5,-245.5"/>
<text text-anchor="start" x="1056.5" y="-263.5" font-family="Helvetica,sans-Serif" font-size="10.00">nars.entity.Sentence.get</text>
<text text-anchor="middle" x="1110" y="-252.5" font-family="Helvetica,sans-Serif" font-size="10.00">Content</text>
</a>
</g>
</g>
<!-- Node198&#45;&gt;Node199 -->
<g id="edge26" class="edge"><title>Node198&#45;&gt;Node199</title>
<path fill="none" stroke="midnightblue" d="M969.141,-196.042C978.065,-198.506 986.92,-201.605 995,-205.5 1013.76,-214.544 1012.75,-225.47 1031,-235.5 1034.96,-237.677 1039.14,-239.7 1043.43,-241.572"/>
<polygon fill="midnightblue" stroke="midnightblue" points="1042.35,-244.91 1052.93,-245.432 1044.98,-238.425 1042.35,-244.91"/>
</g>
<!-- Node198&#45;&gt;Node200 -->
<g id="edge27" class="edge"><title>Node198&#45;&gt;Node200</title>
<path fill="none" stroke="midnightblue" d="M949.41,-176.994C964.326,-173.128 980.686,-168.007 995,-161.5 1012.51,-153.542 1013.63,-145.747 1031,-137.5 1035,-135.603 1039.18,-133.812 1043.44,-132.129"/>
<polygon fill="midnightblue" stroke="midnightblue" points="1044.71,-135.39 1052.86,-128.618 1042.26,-128.831 1044.71,-135.39"/>
</g>
<!-- Node201 -->
<g id="node27" class="node"><title>Node201</title>
<g id="a_node27"><a xlink:href="../../dd/dc1/a00212.html#a9f69b4fef64c81abad21404946cd41f9" target="_top" xlink:title="The truth value of Judgment. ">
<polygon fill="none" stroke="black" points="1048.5,-196.5 1048.5,-226.5 1171.5,-226.5 1171.5,-196.5 1048.5,-196.5"/>
<text text-anchor="start" x="1056.5" y="-214.5" font-family="Helvetica,sans-Serif" font-size="10.00">nars.entity.Sentence.get</text>
<text text-anchor="middle" x="1110" y="-203.5" font-family="Helvetica,sans-Serif" font-size="10.00">Truth</text>
</a>
</g>
</g>
<!-- Node198&#45;&gt;Node201 -->
<g id="edge28" class="edge"><title>Node198&#45;&gt;Node201</title>
<path fill="none" stroke="midnightblue" d="M969.598,-194.582C991.515,-197.242 1015.95,-200.208 1038.17,-202.905"/>
<polygon fill="midnightblue" stroke="midnightblue" points="1037.86,-206.392 1048.21,-204.123 1038.7,-199.443 1037.86,-206.392"/>
</g>
<!-- Node202 -->
<g id="node28" class="node"><title>Node202</title>
<g id="a_node28"><a xlink:href="../../d7/d40/a00236.html#a5af8b2fe37987ba1e8396ec1aad38e90" target="_top" xlink:title="A simplified String representation of a TruthValue, where each factor is accruate to 1%...">
<polygon fill="none" stroke="black" points="1048,-147.5 1048,-177.5 1172,-177.5 1172,-147.5 1048,-147.5"/>
<text text-anchor="start" x="1056" y="-165.5" font-family="Helvetica,sans-Serif" font-size="10.00">nars.entity.TruthValue.to</text>
<text text-anchor="middle" x="1110" y="-154.5" font-family="Helvetica,sans-Serif" font-size="10.00">StringBrief</text>
</a>
</g>
</g>
<!-- Node198&#45;&gt;Node202 -->
<g id="edge29" class="edge"><title>Node198&#45;&gt;Node202</title>
<path fill="none" stroke="midnightblue" d="M969.598,-178.741C991.413,-176.2 1015.73,-173.367 1037.86,-170.788"/>
<polygon fill="midnightblue" stroke="midnightblue" points="1038.34,-174.256 1047.87,-169.623 1037.53,-167.303 1038.34,-174.256"/>
</g>
<!-- Node203 -->
<g id="node29" class="node"><title>Node203</title>
<g id="a_node29"><a xlink:href="../../d7/d40/a00236.html#a68ca7d92e9ea20d2a9a9f578ad7b681c" target="_top" xlink:title="The confidence factor of the truth value. ">
<polygon fill="none" stroke="black" points="1225,-172.5 1225,-202.5 1354,-202.5 1354,-172.5 1225,-172.5"/>
<text text-anchor="start" x="1233" y="-190.5" font-family="Helvetica,sans-Serif" font-size="10.00">nars.entity.TruthValue.get</text>
<text text-anchor="middle" x="1289.5" y="-179.5" font-family="Helvetica,sans-Serif" font-size="10.00">Confidence</text>
</a>
</g>
</g>
<!-- Node202&#45;&gt;Node203 -->
<g id="edge30" class="edge"><title>Node202&#45;&gt;Node203</title>
<path fill="none" stroke="midnightblue" d="M1172.09,-171.104C1185.8,-173.036 1200.5,-175.106 1214.68,-177.102"/>
<polygon fill="midnightblue" stroke="midnightblue" points="1214.49,-180.611 1224.88,-178.54 1215.47,-173.68 1214.49,-180.611"/>
</g>
<!-- Node204 -->
<g id="node30" class="node"><title>Node204</title>
<g id="a_node30"><a xlink:href="../../d7/d40/a00236.html#a9eac33f2495441c77911a8581a5bbe61" target="_top" xlink:title="Get the frequency value. ">
<polygon fill="none" stroke="black" points="1225,-123.5 1225,-153.5 1354,-153.5 1354,-123.5 1225,-123.5"/>
<text text-anchor="start" x="1233" y="-141.5" font-family="Helvetica,sans-Serif" font-size="10.00">nars.entity.TruthValue.get</text>
<text text-anchor="middle" x="1289.5" y="-130.5" font-family="Helvetica,sans-Serif" font-size="10.00">Frequency</text>
</a>
</g>
</g>
<!-- Node202&#45;&gt;Node204 -->
<g id="edge31" class="edge"><title>Node202&#45;&gt;Node204</title>
<path fill="none" stroke="midnightblue" d="M1172.09,-154.241C1185.8,-152.386 1200.5,-150.398 1214.68,-148.482"/>
<polygon fill="midnightblue" stroke="midnightblue" points="1215.44,-151.91 1224.88,-147.102 1214.51,-144.973 1215.44,-151.91"/>
</g>
</g>
</svg>
        <g id="navigator" transform="translate(0 0)" fill="#404254">
                <rect fill="#f2f5e9" fill-opacity="0.5" stroke="#606060" stroke-width=".5" x="0" y="0" width="60" height="60"/>
                <use id="zoomplus" xlink:href="#zoomPlus" x="17" y="9" onmousedown="handleZoom(evt,'in')"/>
                <use id="zoomminus" xlink:href="#zoomMin" x="42" y="9" onmousedown="handleZoom(evt,'out')"/>
                <use id="reset" xlink:href="#resetDef" x="30" y="36" onmousedown="handleReset()"/>
                <g id="arrowUp" xlink:href="#dirArrow" transform="translate(30 24)" onmousedown="handlePan(0,-1)">
                  <use xlink:href="#rim" fill="#404040">
                        <set attributeName="fill" to="#808080" begin="arrowUp.mouseover" end="arrowUp.mouseout"/>
                  </use>
                  <path fill="none" stroke="white" stroke-width="1.5" d="M0,-3.0v7 M-2.5,-0.5L0,-3.0L2.5,-0.5"/>
                </g>
                <g id="arrowRight" xlink:href="#dirArrow" transform="rotate(90) translate(36 -43)" onmousedown="handlePan(1,0)">
                  <use xlink:href="#rim" fill="#404040">
                        <set attributeName="fill" to="#808080" begin="arrowRight.mouseover" end="arrowRight.mouseout"/>
                  </use>
                  <path fill="none" stroke="white" stroke-width="1.5" d="M0,-3.0v7 M-2.5,-0.5L0,-3.0L2.5,-0.5"/>
                </g>
                <g id="arrowDown" xlink:href="#dirArrow" transform="rotate(180) translate(-30 -48)" onmousedown="handlePan(0,1)">
                  <use xlink:href="#rim" fill="#404040">
                        <set attributeName="fill" to="#808080" begin="arrowDown.mouseover" end="arrowDown.mouseout"/>
                  </use>
                  <path fill="none" stroke="white" stroke-width="1.5" d="M0,-3.0v7 M-2.5,-0.5L0,-3.0L2.5,-0.5"/>
                </g>
                <g id="arrowLeft" xlink:href="#dirArrow" transform="rotate(270) translate(-36 17)" onmousedown="handlePan(-1,0)">
                  <use xlink:href="#rim" fill="#404040">
                        <set attributeName="fill" to="#808080" begin="arrowLeft.mouseover" end="arrowLeft.mouseout"/>
                  </use>
                  <path fill="none" stroke="white" stroke-width="1.5" d="M0,-3.0v7 M-2.5,-0.5L0,-3.0L2.5,-0.5"/>
                </g>
        </g>
        <svg viewBox="0 0 15 15" width="100%" height="30px" preserveAspectRatio="xMaxYMin meet">
         <g id="arrow_out" transform="scale(0.3 0.3)">
          <a xlink:href="a00392_aef985ce01b98005b7fa3065b834ded7e_cgraph_org.svg" target="_base">
           <rect id="button" ry="5" rx="5" y="6" x="6" height="38" width="38"
                fill="#f2f5e9" fill-opacity="0.5" stroke="#606060" stroke-width="1.0"/>
           <path id="arrow"
             d="M 11.500037,31.436501 C 11.940474,20.09759 22.043105,11.32322 32.158766,21.979434 L 37.068811,17.246167 C 37.068811,17.246167 37.088388,32 37.088388,32 L 22.160133,31.978069 C 22.160133,31.978069 26.997745,27.140456 26.997745,27.140456 C 18.528582,18.264221 13.291696,25.230495 11.500037,31.436501 z"
             style="fill:#404040;"/>
          </a>
         </g>
        </svg>
</svg>
