<?xml version="1.0" encoding="UTF-8" standalone="no"?>
<!DOCTYPE svg PUBLIC "-//W3C//DTD SVG 1.1//EN"
 "http://www.w3.org/Graphics/SVG/1.1/DTD/svg11.dtd">
<!-- Generated by graphviz version 2.38.0 (20140413.2041)
 -->
<!-- Title: nars.storage.Memory.toStringLongIfNotNull Pages: 1 -->
<!--zoomable 39 -->
<svg id="main" version="1.1" xmlns="http://www.w3.org/2000/svg" xmlns:xlink="http://www.w3.org/1999/xlink" xml:space="preserve" onload="init(evt)">
<style type="text/css"><![CDATA[
.edge:hover path { stroke: red; }
.edge:hover polygon { stroke: red; fill: red; }
]]></style>
<script type="text/javascript"><![CDATA[
var edges = document.getElementsByTagName('g');
if (edges && edges.length) {
  for (var i=0;i<edges.length;i++) {
    if (edges[i].id.substr(0,4)=='edge') {
      edges[i].setAttribute('class','edge');
    }
  }
}
]]></script>
        <defs>
                <circle id="rim" cx="0" cy="0" r="7"/>
                <circle id="rim2" cx="0" cy="0" r="3.5"/>
                <g id="zoomPlus">
                        <use xlink:href="#rim" fill="#404040">
                                <set attributeName="fill" to="#808080" begin="zoomplus.mouseover" end="zoomplus.mouseout"/>
                        </use>
                        <path d="M-4,0h8M0,-4v8" fill="none" stroke="white" stroke-width="1.5" pointer-events="none"/>
                </g>
                <g id="zoomMin">
                        <use xlink:href="#rim" fill="#404040">
                                <set attributeName="fill" to="#808080" begin="zoomminus.mouseover" end="zoomminus.mouseout"/>
                        </use>
                        <path d="M-4,0h8" fill="none" stroke="white" stroke-width="1.5" pointer-events="none"/>
                </g>
                <g id="dirArrow">
                        <path fill="none" stroke="white" stroke-width="1.5" d="M0,-3.0v7 M-2.5,-0.5L0,-3.0L2.5,-0.5"/>
                </g>
               <g id="resetDef">
                       <use xlink:href="#rim2" fill="#404040">
                               <set attributeName="fill" to="#808080" begin="reset.mouseover" end="reset.mouseout"/>
                       </use>
               </g>
        </defs>

<script type="text/javascript">
var viewWidth = 715;
var viewHeight = 39;
var sectionId = 'dynsection-72';
</script>
<script xlink:href="../../svgpan.js"/>
<svg id="graph" class="graph">
<g id="viewport">
<title>nars.storage.Memory.toStringLongIfNotNull</title>
<!-- Node2056 -->
<g id="node1" class="node"><title>Node2056</title>
<polygon fill="#bfbfbf" stroke="black" points="0,-0.5 0,-30.5 146,-30.5 146,-0.5 0,-0.5"/>
<text text-anchor="start" x="8" y="-18.5" font-family="Helvetica,sans-Serif" font-size="10.00">nars.storage.Memory.toString</text>
<text text-anchor="middle" x="73" y="-7.5" font-family="Helvetica,sans-Serif" font-size="10.00">LongIfNotNull</text>
</g>
<!-- Node2057 -->
<g id="node2" class="node"><title>Node2057</title>
<g id="a_node2"><a xlink:href="../../d4/d27/a00392.html#aaf94683fe32443a90619071e13b7fe41" target="_top" xlink:title="nars.storage.Memory.toString">
<polygon fill="none" stroke="black" points="182,-6 182,-25 328,-25 328,-6 182,-6"/>
<text text-anchor="middle" x="255" y="-13" font-family="Helvetica,sans-Serif" font-size="10.00">nars.storage.Memory.toString</text>
</a>
</g>
</g>
<!-- Node2056&#45;&gt;Node2057 -->
<g id="edge1" class="edge"><title>Node2056&#45;&gt;Node2057</title>
<path fill="none" stroke="midnightblue" d="M156.439,-15.5C164.906,-15.5 173.464,-15.5 181.808,-15.5"/>
<polygon fill="midnightblue" stroke="midnightblue" points="156.176,-12.0001 146.176,-15.5 156.176,-19.0001 156.176,-12.0001"/>
</g>
<!-- Node2058 -->
<g id="node3" class="node"><title>Node2058</title>
<g id="a_node3"><a xlink:href="../../df/d15/a00416.html#ab08b1d98b8efca20e2a96b48681a39f2" target="_top" xlink:title="nars.storage.ReasonerBatch.as\lString">
<polygon fill="none" stroke="black" points="364,-0.5 364,-30.5 519,-30.5 519,-0.5 364,-0.5"/>
<text text-anchor="start" x="372" y="-18.5" font-family="Helvetica,sans-Serif" font-size="10.00">nars.storage.ReasonerBatch.as</text>
<text text-anchor="middle" x="441.5" y="-7.5" font-family="Helvetica,sans-Serif" font-size="10.00">String</text>
</a>
</g>
</g>
<!-- Node2057&#45;&gt;Node2058 -->
<g id="edge2" class="edge"><title>Node2057&#45;&gt;Node2058</title>
<path fill="none" stroke="midnightblue" d="M338.387,-15.5C346.861,-15.5 355.448,-15.5 363.856,-15.5"/>
<polygon fill="midnightblue" stroke="midnightblue" points="338.125,-12.0001 328.125,-15.5 338.125,-19.0001 338.125,-12.0001"/>
</g>
<!-- Node2059 -->
<g id="node4" class="node"><title>Node2059</title>
<g id="a_node4"><a xlink:href="../../df/d15/a00416.html#a01f10884e9aaa407c0eb497422c2ec1d" target="_top" xlink:title="nars.storage.ReasonerBatch.to\lString">
<polygon fill="none" stroke="black" points="555,-0.5 555,-30.5 707,-30.5 707,-0.5 555,-0.5"/>
<text text-anchor="start" x="563" y="-18.5" font-family="Helvetica,sans-Serif" font-size="10.00">nars.storage.ReasonerBatch.to</text>
<text text-anchor="middle" x="631" y="-7.5" font-family="Helvetica,sans-Serif" font-size="10.00">String</text>
</a>
</g>
</g>
<!-- Node2058&#45;&gt;Node2059 -->
<g id="edge3" class="edge"><title>Node2058&#45;&gt;Node2059</title>
<path fill="none" stroke="midnightblue" d="M529.103,-15.5C537.727,-15.5 546.432,-15.5 554.924,-15.5"/>
<polygon fill="midnightblue" stroke="midnightblue" points="529.034,-12.0001 519.034,-15.5 529.034,-19.0001 529.034,-12.0001"/>
</g>
</g>
</svg>
        <g id="navigator" transform="translate(0 0)" fill="#404254">
                <rect fill="#f2f5e9" fill-opacity="0.5" stroke="#606060" stroke-width=".5" x="0" y="0" width="60" height="60"/>
                <use id="zoomplus" xlink:href="#zoomPlus" x="17" y="9" onmousedown="handleZoom(evt,'in')"/>
                <use id="zoomminus" xlink:href="#zoomMin" x="42" y="9" onmousedown="handleZoom(evt,'out')"/>
                <use id="reset" xlink:href="#resetDef" x="30" y="36" onmousedown="handleReset()"/>
                <g id="arrowUp" xlink:href="#dirArrow" transform="translate(30 24)" onmousedown="handlePan(0,-1)">
                  <use xlink:href="#rim" fill="#404040">
                        <set attributeName="fill" to="#808080" begin="arrowUp.mouseover" end="arrowUp.mouseout"/>
                  </use>
                  <path fill="none" stroke="white" stroke-width="1.5" d="M0,-3.0v7 M-2.5,-0.5L0,-3.0L2.5,-0.5"/>
                </g>
                <g id="arrowRight" xlink:href="#dirArrow" transform="rotate(90) translate(36 -43)" onmousedown="handlePan(1,0)">
                  <use xlink:href="#rim" fill="#404040">
                        <set attributeName="fill" to="#808080" begin="arrowRight.mouseover" end="arrowRight.mouseout"/>
                  </use>
                  <path fill="none" stroke="white" stroke-width="1.5" d="M0,-3.0v7 M-2.5,-0.5L0,-3.0L2.5,-0.5"/>
                </g>
                <g id="arrowDown" xlink:href="#dirArrow" transform="rotate(180) translate(-30 -48)" onmousedown="handlePan(0,1)">
                  <use xlink:href="#rim" fill="#404040">
                        <set attributeName="fill" to="#808080" begin="arrowDown.mouseover" end="arrowDown.mouseout"/>
                  </use>
                  <path fill="none" stroke="white" stroke-width="1.5" d="M0,-3.0v7 M-2.5,-0.5L0,-3.0L2.5,-0.5"/>
                </g>
                <g id="arrowLeft" xlink:href="#dirArrow" transform="rotate(270) translate(-36 17)" onmousedown="handlePan(-1,0)">
                  <use xlink:href="#rim" fill="#404040">
                        <set attributeName="fill" to="#808080" begin="arrowLeft.mouseover" end="arrowLeft.mouseout"/>
                  </use>
                  <path fill="none" stroke="white" stroke-width="1.5" d="M0,-3.0v7 M-2.5,-0.5L0,-3.0L2.5,-0.5"/>
                </g>
        </g>
        <svg viewBox="0 0 15 15" width="100%" height="30px" preserveAspectRatio="xMaxYMin meet">
         <g id="arrow_out" transform="scale(0.3 0.3)">
          <a xlink:href="a00392_a6e4896a995e7810caf43ffac9d0ad44e_icgraph_org.svg" target="_base">
           <rect id="button" ry="5" rx="5" y="6" x="6" height="38" width="38"
                fill="#f2f5e9" fill-opacity="0.5" stroke="#606060" stroke-width="1.0"/>
           <path id="arrow"
             d="M 11.500037,31.436501 C 11.940474,20.09759 22.043105,11.32322 32.158766,21.979434 L 37.068811,17.246167 C 37.068811,17.246167 37.088388,32 37.088388,32 L 22.160133,31.978069 C 22.160133,31.978069 26.997745,27.140456 26.997745,27.140456 C 18.528582,18.264221 13.291696,25.230495 11.500037,31.436501 z"
             style="fill:#404040;"/>
          </a>
         </g>
        </svg>
</svg>
