<?xml version="1.0" encoding="UTF-8" standalone="no"?>
<!DOCTYPE svg PUBLIC "-//W3C//DTD SVG 1.1//EN"
 "http://www.w3.org/Graphics/SVG/1.1/DTD/svg11.dtd">
<!-- Generated by graphviz version 2.38.0 (20140413.2041)
 -->
<!-- Title: nars.storage.Memory.getCurrentBeliefLink Pages: 1 -->
<svg width="727pt" height="39pt"
 viewBox="0.00 0.00 727.00 39.00" xmlns="http://www.w3.org/2000/svg" xmlns:xlink="http://www.w3.org/1999/xlink">
<g id="graph0" class="graph" transform="scale(1 1) rotate(0) translate(4 35)">
<title>nars.storage.Memory.getCurrentBeliefLink</title>
<!-- Node457 -->
<g id="node1" class="node"><title>Node457</title>
<polygon fill="#bfbfbf" stroke="black" points="0,-0.5 0,-30.5 158,-30.5 158,-0.5 0,-0.5"/>
<text text-anchor="start" x="8" y="-18.5" font-family="Helvetica,sans-Serif" font-size="10.00">nars.storage.Memory.getCurrent</text>
<text text-anchor="middle" x="79" y="-7.5" font-family="Helvetica,sans-Serif" font-size="10.00">BeliefLink</text>
</g>
<!-- Node458 -->
<g id="node2" class="node"><title>Node458</title>
<g id="a_node2"><a xlink:href="../../d4/d27/a00392.html#aaf94683fe32443a90619071e13b7fe41" target="_top" xlink:title="nars.storage.Memory.toString">
<polygon fill="none" stroke="black" points="194,-6 194,-25 340,-25 340,-6 194,-6"/>
<text text-anchor="middle" x="267" y="-13" font-family="Helvetica,sans-Serif" font-size="10.00">nars.storage.Memory.toString</text>
</a>
</g>
</g>
<!-- Node457&#45;&gt;Node458 -->
<g id="edge1" class="edge"><title>Node457&#45;&gt;Node458</title>
<path fill="none" stroke="midnightblue" d="M168.115,-15.5C176.707,-15.5 185.355,-15.5 193.764,-15.5"/>
<polygon fill="midnightblue" stroke="midnightblue" points="168.072,-12.0001 158.072,-15.5 168.072,-19.0001 168.072,-12.0001"/>
</g>
<!-- Node459 -->
<g id="node3" class="node"><title>Node459</title>
<g id="a_node3"><a xlink:href="../../df/d15/a00416.html#ab08b1d98b8efca20e2a96b48681a39f2" target="_top" xlink:title="nars.storage.ReasonerBatch.as\lString">
<polygon fill="none" stroke="black" points="376,-0.5 376,-30.5 531,-30.5 531,-0.5 376,-0.5"/>
<text text-anchor="start" x="384" y="-18.5" font-family="Helvetica,sans-Serif" font-size="10.00">nars.storage.ReasonerBatch.as</text>
<text text-anchor="middle" x="453.5" y="-7.5" font-family="Helvetica,sans-Serif" font-size="10.00">String</text>
</a>
</g>
</g>
<!-- Node458&#45;&gt;Node459 -->
<g id="edge2" class="edge"><title>Node458&#45;&gt;Node459</title>
<path fill="none" stroke="midnightblue" d="M350.387,-15.5C358.861,-15.5 367.448,-15.5 375.856,-15.5"/>
<polygon fill="midnightblue" stroke="midnightblue" points="350.125,-12.0001 340.125,-15.5 350.125,-19.0001 350.125,-12.0001"/>
</g>
<!-- Node460 -->
<g id="node4" class="node"><title>Node460</title>
<g id="a_node4"><a xlink:href="../../df/d15/a00416.html#a01f10884e9aaa407c0eb497422c2ec1d" target="_top" xlink:title="nars.storage.ReasonerBatch.to\lString">
<polygon fill="none" stroke="black" points="567,-0.5 567,-30.5 719,-30.5 719,-0.5 567,-0.5"/>
<text text-anchor="start" x="575" y="-18.5" font-family="Helvetica,sans-Serif" font-size="10.00">nars.storage.ReasonerBatch.to</text>
<text text-anchor="middle" x="643" y="-7.5" font-family="Helvetica,sans-Serif" font-size="10.00">String</text>
</a>
</g>
</g>
<!-- Node459&#45;&gt;Node460 -->
<g id="edge3" class="edge"><title>Node459&#45;&gt;Node460</title>
<path fill="none" stroke="midnightblue" d="M541.103,-15.5C549.727,-15.5 558.432,-15.5 566.924,-15.5"/>
<polygon fill="midnightblue" stroke="midnightblue" points="541.034,-12.0001 531.034,-15.5 541.034,-19.0001 541.034,-12.0001"/>
</g>
</g>
</svg>
