<?xml version="1.0" encoding="UTF-8" standalone="no"?>
<!DOCTYPE svg PUBLIC "-//W3C//DTD SVG 1.1//EN"
 "http://www.w3.org/Graphics/SVG/1.1/DTD/svg11.dtd">
<!-- Generated by graphviz version 2.38.0 (20140413.2041)
 -->
<!-- Title: nars.storage.Memory.termToConcept Pages: 1 -->
<svg width="1824pt" height="88pt"
 viewBox="0.00 0.00 1824.00 88.00" xmlns="http://www.w3.org/2000/svg" xmlns:xlink="http://www.w3.org/1999/xlink">
<g id="graph0" class="graph" transform="scale(1 1) rotate(0) translate(4 84)">
<title>nars.storage.Memory.termToConcept</title>
<!-- Node2025 -->
<g id="node1" class="node"><title>Node2025</title>
<polygon fill="#bfbfbf" stroke="black" points="0,-25.5 0,-55.5 131,-55.5 131,-25.5 0,-25.5"/>
<text text-anchor="start" x="8" y="-43.5" font-family="Helvetica,sans-Serif" font-size="10.00">nars.storage.Memory.term</text>
<text text-anchor="middle" x="65.5" y="-32.5" font-family="Helvetica,sans-Serif" font-size="10.00">ToConcept</text>
</g>
<!-- Node2026 -->
<g id="node2" class="node"><title>Node2026</title>
<g id="a_node2"><a xlink:href="../../d4/d27/a00392.html#ae43b86074c0d8f6a324696f69faa54b3" target="_top" xlink:title="Process the newTasks accumulated in the previous workCycle, accept input ones and those that correspo...">
<polygon fill="none" stroke="black" points="366,-49.5 366,-79.5 512,-79.5 512,-49.5 366,-49.5"/>
<text text-anchor="start" x="374" y="-67.5" font-family="Helvetica,sans-Serif" font-size="10.00">nars.storage.Memory.process</text>
<text text-anchor="middle" x="439" y="-56.5" font-family="Helvetica,sans-Serif" font-size="10.00">NewTask</text>
</a>
</g>
</g>
<!-- Node2025&#45;&gt;Node2026 -->
<g id="edge1" class="edge"><title>Node2025&#45;&gt;Node2026</title>
<path fill="none" stroke="midnightblue" d="M141.452,-45.3422C206.87,-49.5683 301.182,-55.6612 365.779,-59.8343"/>
<polygon fill="midnightblue" stroke="midnightblue" points="141.415,-41.8325 131.21,-44.6805 140.964,-48.818 141.415,-41.8325"/>
</g>
<!-- Node2033 -->
<g id="node9" class="node"><title>Node2033</title>
<g id="a_node9"><a xlink:href="../../dc/ded/a00252.html#ac2d01dfdc40bdd47c757cb549217e6e3" target="_top" xlink:title="Entry point of the inference engine. ">
<polygon fill="none" stroke="black" points="167,-11 167,-30 330,-30 330,-11 167,-11"/>
<text text-anchor="middle" x="248.5" y="-18" font-family="Helvetica,sans-Serif" font-size="10.00">nars.inference.RuleTables.reason</text>
</a>
</g>
</g>
<!-- Node2025&#45;&gt;Node2033 -->
<g id="edge8" class="edge"><title>Node2025&#45;&gt;Node2033</title>
<path fill="none" stroke="midnightblue" d="M141.25,-32.2404C149.681,-31.3087 158.301,-30.3562 166.804,-29.4167"/>
<polygon fill="midnightblue" stroke="midnightblue" points="140.634,-28.787 131.079,-33.3642 141.403,-35.7447 140.634,-28.787"/>
</g>
<!-- Node2027 -->
<g id="node3" class="node"><title>Node2027</title>
<g id="a_node3"><a xlink:href="../../d4/d27/a00392.html#a59ae339d666409988d90d29be4f73a91" target="_top" xlink:title="An atomic working workCycle of the system: process new Tasks, then fireFromProcessConcept a concept...">
<polygon fill="none" stroke="black" points="730,-24.5 730,-54.5 863,-54.5 863,-24.5 730,-24.5"/>
<text text-anchor="start" x="738" y="-42.5" font-family="Helvetica,sans-Serif" font-size="10.00">nars.storage.Memory.work</text>
<text text-anchor="middle" x="796.5" y="-31.5" font-family="Helvetica,sans-Serif" font-size="10.00">Cycle</text>
</a>
</g>
</g>
<!-- Node2026&#45;&gt;Node2027 -->
<g id="edge2" class="edge"><title>Node2026&#45;&gt;Node2027</title>
<path fill="none" stroke="midnightblue" d="M522.682,-58.6855C585.739,-54.2511 671.414,-48.2262 729.822,-44.1187"/>
<polygon fill="midnightblue" stroke="midnightblue" points="522.099,-55.2178 512.369,-59.4107 522.59,-62.2005 522.099,-55.2178"/>
</g>
<!-- Node2028 -->
<g id="node4" class="node"><title>Node2028</title>
<g id="a_node4"><a xlink:href="../../df/d15/a00416.html#a0d5c797dc17d9e8d0998852915e0f303" target="_top" xlink:title="nars.storage.ReasonerBatch.doTick">
<polygon fill="none" stroke="black" points="899,-30 899,-49 1072,-49 1072,-30 899,-30"/>
<text text-anchor="middle" x="985.5" y="-37" font-family="Helvetica,sans-Serif" font-size="10.00">nars.storage.ReasonerBatch.doTick</text>
</a>
</g>
</g>
<!-- Node2027&#45;&gt;Node2028 -->
<g id="edge3" class="edge"><title>Node2027&#45;&gt;Node2028</title>
<path fill="none" stroke="midnightblue" d="M873.343,-39.5C881.782,-39.5 890.421,-39.5 898.971,-39.5"/>
<polygon fill="midnightblue" stroke="midnightblue" points="873.166,-36.0001 863.166,-39.5 873.166,-43.0001 873.166,-36.0001"/>
</g>
<!-- Node2029 -->
<g id="node5" class="node"><title>Node2029</title>
<g id="a_node5"><a xlink:href="../../df/d15/a00416.html#a3468aa0f99edcd66412f27922dddb880" target="_top" xlink:title="A clock tick. ">
<polygon fill="none" stroke="black" points="1108,-30 1108,-49 1268,-49 1268,-30 1108,-30"/>
<text text-anchor="middle" x="1188" y="-37" font-family="Helvetica,sans-Serif" font-size="10.00">nars.storage.ReasonerBatch.tick</text>
</a>
</g>
</g>
<!-- Node2028&#45;&gt;Node2029 -->
<g id="edge4" class="edge"><title>Node2028&#45;&gt;Node2029</title>
<path fill="none" stroke="midnightblue" d="M1082.13,-39.5C1090.7,-39.5 1099.31,-39.5 1107.71,-39.5"/>
<polygon fill="midnightblue" stroke="midnightblue" points="1082.11,-36.0001 1072.11,-39.5 1082.11,-43.0001 1082.11,-36.0001"/>
</g>
<!-- Node2030 -->
<g id="node6" class="node"><title>Node2030</title>
<g id="a_node6"><a xlink:href="../../d9/da1/a00396.html#a5d9cfe517bcfbe41e5251910bcd119c1" target="_top" xlink:title="Run to completion: repeatedly execute NARS working cycle, until Inputs are Finished, or 1000 steps. ">
<polygon fill="none" stroke="black" points="1304,-30 1304,-49 1448,-49 1448,-30 1304,-30"/>
<text text-anchor="middle" x="1376" y="-37" font-family="Helvetica,sans-Serif" font-size="10.00">nars.storage.NARSBatch.run</text>
</a>
</g>
</g>
<!-- Node2029&#45;&gt;Node2030 -->
<g id="edge5" class="edge"><title>Node2029&#45;&gt;Node2030</title>
<path fill="none" stroke="midnightblue" d="M1278.22,-39.5C1286.82,-39.5 1295.47,-39.5 1303.87,-39.5"/>
<polygon fill="midnightblue" stroke="midnightblue" points="1278.15,-36.0001 1268.15,-39.5 1278.15,-43.0001 1278.15,-36.0001"/>
</g>
<!-- Node2031 -->
<g id="node7" class="node"><title>Node2031</title>
<g id="a_node7"><a xlink:href="../../d9/da1/a00396.html#a7c307c6b842f82664de6b0e52bdf8efc" target="_top" xlink:title="non&#45;static equivalent to main(String[]) : run to completion from an input file ">
<polygon fill="none" stroke="black" points="1484,-24.5 1484,-54.5 1628,-54.5 1628,-24.5 1484,-24.5"/>
<text text-anchor="start" x="1492" y="-42.5" font-family="Helvetica,sans-Serif" font-size="10.00">nars.storage.NARSBatch.run</text>
<text text-anchor="middle" x="1556" y="-31.5" font-family="Helvetica,sans-Serif" font-size="10.00">Inference</text>
</a>
</g>
</g>
<!-- Node2030&#45;&gt;Node2031 -->
<g id="edge6" class="edge"><title>Node2030&#45;&gt;Node2031</title>
<path fill="none" stroke="midnightblue" d="M1458.17,-39.5C1466.79,-39.5 1475.51,-39.5 1484,-39.5"/>
<polygon fill="midnightblue" stroke="midnightblue" points="1458.12,-36.0001 1448.12,-39.5 1458.12,-43.0001 1458.12,-36.0001"/>
</g>
<!-- Node2032 -->
<g id="node8" class="node"><title>Node2032</title>
<g id="a_node8"><a xlink:href="../../d9/da1/a00396.html#abafc597289bc2f6453b5cd0dd6634e54" target="_top" xlink:title="The entry point of the standalone application. ">
<polygon fill="none" stroke="black" points="1664,-30 1664,-49 1816,-49 1816,-30 1664,-30"/>
<text text-anchor="middle" x="1740" y="-37" font-family="Helvetica,sans-Serif" font-size="10.00">nars.storage.NARSBatch.main</text>
</a>
</g>
</g>
<!-- Node2031&#45;&gt;Node2032 -->
<g id="edge7" class="edge"><title>Node2031&#45;&gt;Node2032</title>
<path fill="none" stroke="midnightblue" d="M1638.17,-39.5C1646.76,-39.5 1655.48,-39.5 1664,-39.5"/>
<polygon fill="midnightblue" stroke="midnightblue" points="1638.15,-36.0001 1628.15,-39.5 1638.15,-43.0001 1638.15,-36.0001"/>
</g>
<!-- Node2034 -->
<g id="node10" class="node"><title>Node2034</title>
<g id="a_node10"><a xlink:href="../../d7/ded/a00196.html#ad6fb91dda799c3092ecb186ef24ca92a" target="_top" xlink:title="An atomic step in a concept, only called in Memory# processConcept. ">
<polygon fill="none" stroke="black" points="379.5,-0.5 379.5,-30.5 498.5,-30.5 498.5,-0.5 379.5,-0.5"/>
<text text-anchor="start" x="387.5" y="-18.5" font-family="Helvetica,sans-Serif" font-size="10.00">nars.entity.Concept.fire</text>
<text text-anchor="middle" x="439" y="-7.5" font-family="Helvetica,sans-Serif" font-size="10.00">FromProcessConcept</text>
</a>
</g>
</g>
<!-- Node2033&#45;&gt;Node2034 -->
<g id="edge9" class="edge"><title>Node2033&#45;&gt;Node2034</title>
<path fill="none" stroke="midnightblue" d="M340.361,-18.0899C353.613,-17.7384 366.955,-17.3845 379.337,-17.0561"/>
<polygon fill="midnightblue" stroke="midnightblue" points="340.165,-14.5938 330.261,-18.3578 340.351,-21.5913 340.165,-14.5938"/>
</g>
<!-- Node2035 -->
<g id="node11" class="node"><title>Node2035</title>
<g id="a_node11"><a xlink:href="../../d4/d27/a00392.html#a0acc4adbf6a2462245da46bcb529746c" target="_top" xlink:title="Select a concept to fireFromProcessConcept. ">
<polygon fill="none" stroke="black" points="548,-2.5 548,-32.5 694,-32.5 694,-2.5 548,-2.5"/>
<text text-anchor="start" x="556" y="-20.5" font-family="Helvetica,sans-Serif" font-size="10.00">nars.storage.Memory.process</text>
<text text-anchor="middle" x="621" y="-9.5" font-family="Helvetica,sans-Serif" font-size="10.00">Concept</text>
</a>
</g>
</g>
<!-- Node2034&#45;&gt;Node2035 -->
<g id="edge10" class="edge"><title>Node2034&#45;&gt;Node2035</title>
<path fill="none" stroke="midnightblue" d="M508.969,-16.2663C521.66,-16.4073 534.942,-16.5549 547.727,-16.697"/>
<polygon fill="midnightblue" stroke="midnightblue" points="508.977,-12.7663 498.939,-16.1549 508.899,-19.7659 508.977,-12.7663"/>
</g>
<!-- Node2035&#45;&gt;Node2027 -->
<g id="edge11" class="edge"><title>Node2035&#45;&gt;Node2027</title>
<path fill="none" stroke="midnightblue" d="M704.118,-27.9126C712.716,-29.0029 721.375,-30.1008 729.755,-31.1635"/>
<polygon fill="midnightblue" stroke="midnightblue" points="704.433,-24.4247 694.072,-26.6389 703.553,-31.3691 704.433,-24.4247"/>
</g>
</g>
</svg>
