<?xml version="1.0" encoding="UTF-8" standalone="no"?>
<!DOCTYPE svg PUBLIC "-//W3C//DTD SVG 1.1//EN"
 "http://www.w3.org/Graphics/SVG/1.1/DTD/svg11.dtd">
<!-- Generated by graphviz version 2.38.0 (20140413.2041)
 -->
<!-- Title: nars.storage.Memory.activatedTask Pages: 1 -->
<svg width="1171pt" height="455pt"
 viewBox="0.00 0.00 1171.00 455.00" xmlns="http://www.w3.org/2000/svg" xmlns:xlink="http://www.w3.org/1999/xlink">
<g id="graph0" class="graph" transform="scale(1 1) rotate(0) translate(4 451)">
<title>nars.storage.Memory.activatedTask</title>
<!-- Node45 -->
<g id="node1" class="node"><title>Node45</title>
<polygon fill="#bfbfbf" stroke="black" points="0,-202.5 0,-221.5 173,-221.5 173,-202.5 0,-202.5"/>
<text text-anchor="middle" x="86.5" y="-209.5" font-family="Helvetica,sans-Serif" font-size="10.00">nars.storage.Memory.activatedTask</text>
</g>
<!-- Node46 -->
<g id="node2" class="node"><title>Node46</title>
<g id="a_node2"><a xlink:href="../../d0/dcd/a00280.html#acb473be6e5d774c10781bc8e74453459" target="_top" xlink:title="Add new text to display. ">
<polygon fill="none" stroke="black" points="215,-404.5 215,-423.5 382,-423.5 382,-404.5 215,-404.5"/>
<text text-anchor="middle" x="298.5" y="-411.5" font-family="Helvetica,sans-Serif" font-size="10.00">nars.io.IInferenceRecorder.append</text>
</a>
</g>
</g>
<!-- Node45&#45;&gt;Node46 -->
<g id="edge1" class="edge"><title>Node45&#45;&gt;Node46</title>
<path fill="none" stroke="midnightblue" d="M90.9504,-221.884C102.337,-252.949 141.871,-349.263 209,-395 211.879,-396.962 214.924,-398.726 218.083,-400.313"/>
<polygon fill="midnightblue" stroke="midnightblue" points="216.686,-403.522 227.25,-404.33 219.495,-397.11 216.686,-403.522"/>
</g>
<!-- Node47 -->
<g id="node3" class="node"><title>Node47</title>
<g id="a_node3"><a xlink:href="../../dc/d31/a00208.html#a54fc0a370b847dd77c0a698c765e6e55" target="_top" xlink:title="The budget of the Item, consisting of 3 numbers. ">
<polygon fill="none" stroke="black" points="232.5,-366.5 232.5,-385.5 364.5,-385.5 364.5,-366.5 232.5,-366.5"/>
<text text-anchor="middle" x="298.5" y="-373.5" font-family="Helvetica,sans-Serif" font-size="10.00">nars.entity.Item.getBudget</text>
</a>
</g>
</g>
<!-- Node45&#45;&gt;Node47 -->
<g id="edge2" class="edge"><title>Node45&#45;&gt;Node47</title>
<path fill="none" stroke="midnightblue" d="M92.5419,-221.662C106.851,-248.053 150.492,-321.736 209,-357 213.347,-359.62 218.006,-361.881 222.828,-363.833"/>
<polygon fill="midnightblue" stroke="midnightblue" points="221.671,-367.136 232.265,-367.216 224.033,-360.547 221.671,-367.136"/>
</g>
<!-- Node48 -->
<g id="node4" class="node"><title>Node48</title>
<g id="a_node4"><a xlink:href="../../d4/d27/a00392.html#a26eda4f00b333b706b4e3d069fdf1508" target="_top" xlink:title="The selected Task. ">
<polygon fill="none" stroke="black" points="209,-328.5 209,-347.5 388,-347.5 388,-328.5 209,-328.5"/>
<text text-anchor="middle" x="298.5" y="-335.5" font-family="Helvetica,sans-Serif" font-size="10.00">nars.storage.Memory.getCurrentTask</text>
</a>
</g>
</g>
<!-- Node45&#45;&gt;Node48 -->
<g id="edge3" class="edge"><title>Node45&#45;&gt;Node48</title>
<path fill="none" stroke="midnightblue" d="M95.459,-221.808C113.338,-243.135 159.049,-293.83 209,-319 213.824,-321.431 218.948,-323.551 224.205,-325.401"/>
<polygon fill="midnightblue" stroke="midnightblue" points="223.184,-328.749 233.774,-328.447 225.307,-322.079 223.184,-328.749"/>
</g>
<!-- Node49 -->
<g id="node5" class="node"><title>Node49</title>
<g id="a_node5"><a xlink:href="../../d4/d27/a00392.html#a8c50bdf4f2750032f24965e12e9fb59c" target="_top" xlink:title="List of new tasks accumulated in one cycle, to be processed in the next cycle. ">
<polygon fill="none" stroke="black" points="225.5,-279 225.5,-309 371.5,-309 371.5,-279 225.5,-279"/>
<text text-anchor="start" x="233.5" y="-297" font-family="Helvetica,sans-Serif" font-size="10.00">nars.storage.Memory.getNew</text>
<text text-anchor="middle" x="298.5" y="-286" font-family="Helvetica,sans-Serif" font-size="10.00">Tasks</text>
</a>
</g>
</g>
<!-- Node45&#45;&gt;Node49 -->
<g id="edge4" class="edge"><title>Node45&#45;&gt;Node49</title>
<path fill="none" stroke="midnightblue" d="M108.369,-221.518C132.414,-232.346 173.215,-250.301 209,-264 219.324,-267.952 230.422,-271.926 241.151,-275.63"/>
<polygon fill="midnightblue" stroke="midnightblue" points="240.273,-279.028 250.867,-278.947 242.534,-272.404 240.273,-279.028"/>
</g>
<!-- Node50 -->
<g id="node6" class="node"><title>Node50</title>
<g id="a_node6"><a xlink:href="../../d4/d27/a00392.html#a076ad9a0e872386bca3f2d17fa7cb2d4" target="_top" xlink:title="Backward pointer to the reasoner. ">
<polygon fill="none" stroke="black" points="433.5,-427.5 433.5,-446.5 600.5,-446.5 600.5,-427.5 433.5,-427.5"/>
<text text-anchor="middle" x="517" y="-434.5" font-family="Helvetica,sans-Serif" font-size="10.00">nars.storage.Memory.getReasoner</text>
</a>
</g>
</g>
<!-- Node45&#45;&gt;Node50 -->
<g id="edge5" class="edge"><title>Node45&#45;&gt;Node50</title>
<path fill="none" stroke="midnightblue" d="M145.419,-221.53C230.244,-235.721 379.226,-261.637 388,-270 437.002,-316.707 375.303,-370.976 424,-418 425.452,-419.402 426.978,-420.713 428.569,-421.938"/>
<polygon fill="midnightblue" stroke="midnightblue" points="426.704,-424.9 437.006,-427.376 430.497,-419.017 426.704,-424.9"/>
</g>
<!-- Node51 -->
<g id="node7" class="node"><title>Node51</title>
<g id="a_node7"><a xlink:href="../../d4/d27/a00392.html#aa4c7e1f5823d0404c0cab49b617968f1" target="_top" xlink:title="Inference record text to be written into a log file. ">
<polygon fill="none" stroke="black" points="216,-126.5 216,-145.5 381,-145.5 381,-126.5 216,-126.5"/>
<text text-anchor="middle" x="298.5" y="-133.5" font-family="Helvetica,sans-Serif" font-size="10.00">nars.storage.Memory.getRecorder</text>
</a>
</g>
</g>
<!-- Node45&#45;&gt;Node51 -->
<g id="edge6" class="edge"><title>Node45&#45;&gt;Node51</title>
<path fill="none" stroke="midnightblue" d="M107.37,-202.477C131.156,-191.317 172.374,-172.734 209,-160 221.339,-155.71 234.862,-151.704 247.541,-148.241"/>
<polygon fill="midnightblue" stroke="midnightblue" points="248.731,-151.546 257.49,-145.585 246.925,-144.783 248.731,-151.546"/>
</g>
<!-- Node52 -->
<g id="node8" class="node"><title>Node52</title>
<g id="a_node8"><a xlink:href="../../d5/ddf/a00224.html#ab140cb553a6cf40b07093d1df283567f" target="_top" xlink:title="The sentence of the Task. ">
<polygon fill="none" stroke="black" points="226,-88.5 226,-107.5 371,-107.5 371,-88.5 226,-88.5"/>
<text text-anchor="middle" x="298.5" y="-95.5" font-family="Helvetica,sans-Serif" font-size="10.00">nars.entity.Task.getSentence</text>
</a>
</g>
</g>
<!-- Node45&#45;&gt;Node52 -->
<g id="edge7" class="edge"><title>Node45&#45;&gt;Node52</title>
<path fill="none" stroke="midnightblue" d="M96.5601,-202.455C115.496,-183.111 161.463,-139.237 209,-117 214.289,-114.526 219.907,-112.37 225.647,-110.491"/>
<polygon fill="midnightblue" stroke="midnightblue" points="226.804,-113.799 235.386,-107.585 224.803,-107.091 226.804,-113.799"/>
</g>
<!-- Node53 -->
<g id="node9" class="node"><title>Node53</title>
<g id="a_node9"><a xlink:href="../../df/d15/a00416.html#a240088fef0488e21e2f3953c92302541" target="_top" xlink:title="Report Silence Level. ">
<polygon fill="none" stroke="black" points="219.5,-39 219.5,-69 377.5,-69 377.5,-39 219.5,-39"/>
<text text-anchor="start" x="227.5" y="-57" font-family="Helvetica,sans-Serif" font-size="10.00">nars.storage.ReasonerBatch.get</text>
<text text-anchor="middle" x="298.5" y="-46" font-family="Helvetica,sans-Serif" font-size="10.00">SilenceValue</text>
</a>
</g>
</g>
<!-- Node45&#45;&gt;Node53 -->
<g id="edge8" class="edge"><title>Node45&#45;&gt;Node53</title>
<path fill="none" stroke="midnightblue" d="M93.5489,-202.277C109.35,-177.702 154.441,-112.671 209,-79 212.418,-76.8906 216.019,-74.9544 219.733,-73.1777"/>
<polygon fill="midnightblue" stroke="midnightblue" points="221.385,-76.2764 229.162,-69.082 218.596,-69.8559 221.385,-76.2764"/>
</g>
<!-- Node54 -->
<g id="node10" class="node"><title>Node54</title>
<g id="a_node10"><a xlink:href="../../dd/dc1/a00212.html#acb98b40c8990dbe5e15061f0759c60ee" target="_top" xlink:title="Distinguish Question from Quest (&quot;instanceof Question&quot; doesn&#39;t work) ">
<polygon fill="none" stroke="black" points="647,-65.5 647,-84.5 803,-84.5 803,-65.5 647,-65.5"/>
<text text-anchor="middle" x="725" y="-72.5" font-family="Helvetica,sans-Serif" font-size="10.00">nars.entity.Sentence.isQuestion</text>
</a>
</g>
</g>
<!-- Node45&#45;&gt;Node54 -->
<g id="edge9" class="edge"><title>Node45&#45;&gt;Node54</title>
<path fill="none" stroke="midnightblue" d="M144.445,-202.442C228.776,-188.11 378.062,-161.984 388,-155 413.757,-136.9 397.17,-110.466 424,-94 498.625,-48.2016 604.288,-54.2722 668.255,-63.896"/>
<polygon fill="midnightblue" stroke="midnightblue" points="667.728,-67.356 678.152,-65.4636 668.823,-60.4422 667.728,-67.356"/>
</g>
<!-- Node56 -->
<g id="node12" class="node"><title>Node56</title>
<g id="a_node12"><a xlink:href="../../d4/d27/a00392.html#ad89bc0ba08c0b5bfbddf247cdab5eaa9" target="_top" xlink:title="Display input/output sentence in the output channels. ">
<polygon fill="none" stroke="black" points="230,-202.5 230,-221.5 367,-221.5 367,-202.5 230,-202.5"/>
<text text-anchor="middle" x="298.5" y="-209.5" font-family="Helvetica,sans-Serif" font-size="10.00">nars.storage.Memory.report</text>
</a>
</g>
</g>
<!-- Node45&#45;&gt;Node56 -->
<g id="edge11" class="edge"><title>Node45&#45;&gt;Node56</title>
<path fill="none" stroke="midnightblue" d="M173.218,-212C188.514,-212 204.376,-212 219.444,-212"/>
<polygon fill="midnightblue" stroke="midnightblue" points="219.732,-215.5 229.732,-212 219.732,-208.5 219.732,-215.5"/>
</g>
<!-- Node73 -->
<g id="node29" class="node"><title>Node73</title>
<g id="a_node29"><a xlink:href="../../dd/da2/a00192.html#af414899759992288edbba78d7457c534" target="_top" xlink:title="To summarize a BudgetValue into a single number in [0, 1]. ">
<polygon fill="none" stroke="black" points="216.5,-0.5 216.5,-19.5 380.5,-19.5 380.5,-0.5 216.5,-0.5"/>
<text text-anchor="middle" x="298.5" y="-7.5" font-family="Helvetica,sans-Serif" font-size="10.00">nars.entity.BudgetValue.summary</text>
</a>
</g>
</g>
<!-- Node45&#45;&gt;Node73 -->
<g id="edge31" class="edge"><title>Node45&#45;&gt;Node73</title>
<path fill="none" stroke="midnightblue" d="M90.9504,-202.116C102.337,-171.051 141.871,-74.7368 209,-29 211.879,-27.0382 214.924,-25.2736 218.083,-23.6869"/>
<polygon fill="midnightblue" stroke="midnightblue" points="219.495,-26.8896 227.25,-19.6701 216.686,-20.4782 219.495,-26.8896"/>
</g>
<!-- Node55 -->
<g id="node11" class="node"><title>Node55</title>
<g id="a_node11"><a xlink:href="../../dd/dc1/a00212.html#a68b153a51a5db6a4127b66158227697f" target="_top" xlink:title="The punctuation also indicates the type of the Sentence: Judgment, Question, or Goal. ">
<polygon fill="none" stroke="black" points="857.5,-60 857.5,-90 980.5,-90 980.5,-60 857.5,-60"/>
<text text-anchor="start" x="865.5" y="-78" font-family="Helvetica,sans-Serif" font-size="10.00">nars.entity.Sentence.get</text>
<text text-anchor="middle" x="919" y="-67" font-family="Helvetica,sans-Serif" font-size="10.00">Punctuation</text>
</a>
</g>
</g>
<!-- Node54&#45;&gt;Node55 -->
<g id="edge10" class="edge"><title>Node54&#45;&gt;Node55</title>
<path fill="none" stroke="midnightblue" d="M803.264,-75C817.77,-75 832.87,-75 847.168,-75"/>
<polygon fill="midnightblue" stroke="midnightblue" points="847.418,-78.5001 857.418,-75 847.418,-71.5001 847.418,-78.5001"/>
</g>
<!-- Node56&#45;&gt;Node50 -->
<g id="edge14" class="edge"><title>Node56&#45;&gt;Node50</title>
<path fill="none" stroke="midnightblue" d="M366.895,-221.505C374.809,-225.012 382.136,-229.714 388,-236 444.243,-296.297 365.939,-359.451 424,-418 425.263,-419.274 426.588,-420.473 427.966,-421.602"/>
<polygon fill="midnightblue" stroke="midnightblue" points="426.155,-424.604 436.394,-427.328 430.089,-418.813 426.155,-424.604"/>
</g>
<!-- Node57 -->
<g id="node13" class="node"><title>Node57</title>
<g id="a_node13"><a xlink:href="../../df/d15/a00416.html#a55398625fb088534ef3fce8c38f95423" target="_top" xlink:title="global DEBUG print switch ">
<polygon fill="none" stroke="black" points="441,-241 441,-271 593,-271 593,-241 441,-241"/>
<text text-anchor="start" x="449" y="-259" font-family="Helvetica,sans-Serif" font-size="10.00">nars.storage.ReasonerBatch.is</text>
<text text-anchor="middle" x="517" y="-248" font-family="Helvetica,sans-Serif" font-size="10.00">DEBUG</text>
</a>
</g>
</g>
<!-- Node56&#45;&gt;Node57 -->
<g id="edge12" class="edge"><title>Node56&#45;&gt;Node57</title>
<path fill="none" stroke="midnightblue" d="M346.477,-221.547C371.397,-226.612 402.776,-232.989 431.741,-238.876"/>
<polygon fill="midnightblue" stroke="midnightblue" points="431.375,-242.373 441.872,-240.935 432.769,-235.513 431.375,-242.373"/>
</g>
<!-- Node58 -->
<g id="node14" class="node"><title>Node58</title>
<g id="a_node14"><a xlink:href="../../df/d15/a00416.html#aeb34e5ff1c0a1f220e7b8715cee2d9d3" target="_top" xlink:title="Get the current time from the clock Called in nars.entity.Stamp. ">
<polygon fill="none" stroke="black" points="427.5,-202.5 427.5,-221.5 606.5,-221.5 606.5,-202.5 427.5,-202.5"/>
<text text-anchor="middle" x="517" y="-209.5" font-family="Helvetica,sans-Serif" font-size="10.00">nars.storage.ReasonerBatch.getTime</text>
</a>
</g>
</g>
<!-- Node56&#45;&gt;Node58 -->
<g id="edge13" class="edge"><title>Node56&#45;&gt;Node58</title>
<path fill="none" stroke="midnightblue" d="M367.111,-212C382.934,-212 400.112,-212 416.988,-212"/>
<polygon fill="midnightblue" stroke="midnightblue" points="417.442,-215.5 427.442,-212 417.442,-208.5 417.442,-215.5"/>
</g>
<!-- Node59 -->
<g id="node15" class="node"><title>Node59</title>
<g id="a_node15"><a xlink:href="../../df/d15/a00416.html#ae7cc80bb901b1e8008537fe24e5d1bb2" target="_top" xlink:title="System clock, relatively defined to guarantee the repeatability of behaviors. ">
<polygon fill="none" stroke="black" points="438,-153 438,-183 596,-183 596,-153 438,-153"/>
<text text-anchor="start" x="446" y="-171" font-family="Helvetica,sans-Serif" font-size="10.00">nars.storage.ReasonerBatch.get</text>
<text text-anchor="middle" x="517" y="-160" font-family="Helvetica,sans-Serif" font-size="10.00">Clock</text>
</a>
</g>
</g>
<!-- Node56&#45;&gt;Node59 -->
<g id="edge15" class="edge"><title>Node56&#45;&gt;Node59</title>
<path fill="none" stroke="midnightblue" d="M346.477,-202.453C371.397,-197.388 402.776,-191.011 431.741,-185.124"/>
<polygon fill="midnightblue" stroke="midnightblue" points="432.769,-188.487 441.872,-183.065 431.375,-181.627 432.769,-188.487"/>
</g>
<!-- Node60 -->
<g id="node16" class="node"><title>Node60</title>
<g id="a_node16"><a xlink:href="../../df/d15/a00416.html#a64586e56057f3a2d498dc7fd98c4f773" target="_top" xlink:title="System clock &#45; number of cycles since last output. ">
<polygon fill="none" stroke="black" points="646,-307 646,-337 804,-337 804,-307 646,-307"/>
<text text-anchor="start" x="654" y="-325" font-family="Helvetica,sans-Serif" font-size="10.00">nars.storage.ReasonerBatch.get</text>
<text text-anchor="middle" x="725" y="-314" font-family="Helvetica,sans-Serif" font-size="10.00">Timer</text>
</a>
</g>
</g>
<!-- Node56&#45;&gt;Node60 -->
<g id="edge16" class="edge"><title>Node56&#45;&gt;Node60</title>
<path fill="none" stroke="midnightblue" d="M356.082,-221.631C367.221,-225.066 378.415,-229.714 388,-236 409.418,-250.046 401.722,-268.364 424,-281 459.155,-300.939 560.314,-311.718 635.502,-317.146"/>
<polygon fill="midnightblue" stroke="midnightblue" points="635.709,-320.669 645.929,-317.877 636.199,-313.686 635.709,-320.669"/>
</g>
<!-- Node61 -->
<g id="node17" class="node"><title>Node61</title>
<g id="a_node17"><a xlink:href="../../d4/d27/a00392.html#a1a17565c7b06ca4ecc1ed57c3fce973f" target="_top" xlink:title="List of Strings or Tasks to be sent to the output channels. ">
<polygon fill="none" stroke="black" points="440,-329 440,-359 594,-359 594,-329 440,-329"/>
<text text-anchor="start" x="448" y="-347" font-family="Helvetica,sans-Serif" font-size="10.00">nars.storage.Memory.getExport</text>
<text text-anchor="middle" x="517" y="-336" font-family="Helvetica,sans-Serif" font-size="10.00">Strings</text>
</a>
</g>
</g>
<!-- Node56&#45;&gt;Node61 -->
<g id="edge17" class="edge"><title>Node56&#45;&gt;Node61</title>
<path fill="none" stroke="midnightblue" d="M362.409,-221.651C371.675,-225.089 380.583,-229.732 388,-236 417.163,-260.644 395.467,-288.629 424,-314 428.424,-317.933 433.372,-321.352 438.618,-324.324"/>
<polygon fill="midnightblue" stroke="midnightblue" points="437.182,-327.52 447.685,-328.914 440.344,-321.275 437.182,-327.52"/>
</g>
<!-- Node62 -->
<g id="node18" class="node"><title>Node62</title>
<g id="a_node18"><a xlink:href="../../df/d15/a00416.html#a84cc1236020f7c170bfcee70c861ce20" target="_top" xlink:title="To get the timer value and then to reset it. ">
<polygon fill="none" stroke="black" points="430.5,-378 430.5,-408 603.5,-408 603.5,-378 430.5,-378"/>
<text text-anchor="start" x="438.5" y="-396" font-family="Helvetica,sans-Serif" font-size="10.00">nars.storage.ReasonerBatch.update</text>
<text text-anchor="middle" x="517" y="-385" font-family="Helvetica,sans-Serif" font-size="10.00">Timer</text>
</a>
</g>
</g>
<!-- Node56&#45;&gt;Node62 -->
<g id="edge18" class="edge"><title>Node56&#45;&gt;Node62</title>
<path fill="none" stroke="midnightblue" d="M365.608,-221.512C373.918,-225 381.698,-229.695 388,-236 431.292,-279.312 380.5,-325.897 424,-369 424.956,-369.948 425.945,-370.859 426.963,-371.736"/>
<polygon fill="midnightblue" stroke="midnightblue" points="425.151,-374.746 435.295,-377.802 429.271,-369.087 425.151,-374.746"/>
</g>
<!-- Node65 -->
<g id="node21" class="node"><title>Node65</title>
<g id="a_node21"><a xlink:href="../../dd/dc1/a00212.html#aea2f809b2d4c375f3c4ec3d0328d8787" target="_top" xlink:title="Get a String representation of the sentence, with 2&#45;digit accuracy. ">
<polygon fill="none" stroke="black" points="445.5,-104 445.5,-134 588.5,-134 588.5,-104 445.5,-104"/>
<text text-anchor="start" x="453.5" y="-122" font-family="Helvetica,sans-Serif" font-size="10.00">nars.entity.Sentence.toString</text>
<text text-anchor="middle" x="517" y="-111" font-family="Helvetica,sans-Serif" font-size="10.00">Brief</text>
</a>
</g>
</g>
<!-- Node56&#45;&gt;Node65 -->
<g id="edge22" class="edge"><title>Node56&#45;&gt;Node65</title>
<path fill="none" stroke="midnightblue" d="M356.082,-202.369C367.221,-198.934 378.415,-194.286 388,-188 409.418,-173.954 402.515,-156.942 424,-143 427.762,-140.558 431.763,-138.365 435.908,-136.394"/>
<polygon fill="midnightblue" stroke="midnightblue" points="437.362,-139.579 445.177,-132.426 434.607,-133.144 437.362,-139.579"/>
</g>
<!-- Node62&#45;&gt;Node60 -->
<g id="edge19" class="edge"><title>Node62&#45;&gt;Node60</title>
<path fill="none" stroke="midnightblue" d="M580.692,-377.867C590.566,-375.134 600.608,-372.145 610,-369 633.941,-360.983 660.018,-350.378 681.182,-341.27"/>
<polygon fill="midnightblue" stroke="midnightblue" points="682.759,-344.402 690.535,-337.206 679.969,-337.982 682.759,-344.402"/>
</g>
<!-- Node63 -->
<g id="node19" class="node"><title>Node63</title>
<g id="a_node19"><a xlink:href="../../df/d15/a00416.html#aa243bca18963b74438535cd125039740" target="_top" xlink:title="nars.storage.ReasonerBatch.init\lTimer">
<polygon fill="none" stroke="black" points="646.5,-378 646.5,-408 803.5,-408 803.5,-378 646.5,-378"/>
<text text-anchor="start" x="654.5" y="-396" font-family="Helvetica,sans-Serif" font-size="10.00">nars.storage.ReasonerBatch.init</text>
<text text-anchor="middle" x="725" y="-385" font-family="Helvetica,sans-Serif" font-size="10.00">Timer</text>
</a>
</g>
</g>
<!-- Node62&#45;&gt;Node63 -->
<g id="edge20" class="edge"><title>Node62&#45;&gt;Node63</title>
<path fill="none" stroke="midnightblue" d="M603.573,-393C614.296,-393 625.278,-393 636.036,-393"/>
<polygon fill="midnightblue" stroke="midnightblue" points="636.267,-396.5 646.267,-393 636.267,-389.5 636.267,-396.5"/>
</g>
<!-- Node64 -->
<g id="node20" class="node"><title>Node64</title>
<g id="a_node20"><a xlink:href="../../df/d15/a00416.html#ac3e769632e8a90ddc85970d3fee28e5f" target="_top" xlink:title="nars.storage.ReasonerBatch.set\lTimer">
<polygon fill="none" stroke="black" points="840,-378 840,-408 998,-408 998,-378 840,-378"/>
<text text-anchor="start" x="848" y="-396" font-family="Helvetica,sans-Serif" font-size="10.00">nars.storage.ReasonerBatch.set</text>
<text text-anchor="middle" x="919" y="-385" font-family="Helvetica,sans-Serif" font-size="10.00">Timer</text>
</a>
</g>
</g>
<!-- Node63&#45;&gt;Node64 -->
<g id="edge21" class="edge"><title>Node63&#45;&gt;Node64</title>
<path fill="none" stroke="midnightblue" d="M803.54,-393C812.143,-393 820.951,-393 829.674,-393"/>
<polygon fill="midnightblue" stroke="midnightblue" points="829.858,-396.5 839.858,-393 829.858,-389.5 829.858,-396.5"/>
</g>
<!-- Node66 -->
<g id="node22" class="node"><title>Node66</title>
<g id="a_node22"><a xlink:href="../../dd/dc1/a00212.html#ac0ed749c50e55120d5b63219ed7eb082" target="_top" xlink:title="Partial record of the derivation path. ">
<polygon fill="none" stroke="black" points="663.5,-104 663.5,-134 786.5,-134 786.5,-104 663.5,-104"/>
<text text-anchor="start" x="671.5" y="-122" font-family="Helvetica,sans-Serif" font-size="10.00">nars.entity.Sentence.get</text>
<text text-anchor="middle" x="725" y="-111" font-family="Helvetica,sans-Serif" font-size="10.00">Stamp</text>
</a>
</g>
</g>
<!-- Node65&#45;&gt;Node66 -->
<g id="edge23" class="edge"><title>Node65&#45;&gt;Node66</title>
<path fill="none" stroke="midnightblue" d="M588.605,-119C609.524,-119 632.429,-119 653.35,-119"/>
<polygon fill="midnightblue" stroke="midnightblue" points="653.445,-122.5 663.445,-119 653.445,-115.5 653.445,-122.5"/>
</g>
<!-- Node67 -->
<g id="node23" class="node"><title>Node67</title>
<g id="a_node23"><a xlink:href="../../dd/dc1/a00212.html#a8b6d9355c0211d37f881ec6717a6b636" target="_top" xlink:title="Get a String representation of the sentence for key of Task and TaskLink. ">
<polygon fill="none" stroke="black" points="657.5,-153.5 657.5,-172.5 792.5,-172.5 792.5,-153.5 657.5,-153.5"/>
<text text-anchor="middle" x="725" y="-160.5" font-family="Helvetica,sans-Serif" font-size="10.00">nars.entity.Sentence.toKey</text>
</a>
</g>
</g>
<!-- Node65&#45;&gt;Node67 -->
<g id="edge24" class="edge"><title>Node65&#45;&gt;Node67</title>
<path fill="none" stroke="midnightblue" d="M588.317,-134.019C614.85,-139.686 644.61,-146.043 669.483,-151.356"/>
<polygon fill="midnightblue" stroke="midnightblue" points="668.954,-154.821 679.465,-153.488 670.416,-147.976 668.954,-154.821"/>
</g>
<!-- Node67&#45;&gt;Node55 -->
<g id="edge26" class="edge"><title>Node67&#45;&gt;Node55</title>
<path fill="none" stroke="midnightblue" d="M781.537,-153.443C789.423,-150.774 797.165,-147.362 804,-143 825.299,-129.407 819.03,-113.095 840,-99 842.563,-97.2773 845.255,-95.6739 848.036,-94.1821"/>
<polygon fill="midnightblue" stroke="midnightblue" points="849.674,-97.2778 857.167,-89.7875 846.639,-90.9702 849.674,-97.2778"/>
</g>
<!-- Node68 -->
<g id="node24" class="node"><title>Node68</title>
<g id="a_node24"><a xlink:href="../../dd/dc1/a00212.html#ad1ded9a02cae3557948d05530cd4d37e" target="_top" xlink:title="The content of a Sentence is a Term. ">
<polygon fill="none" stroke="black" points="857.5,-109 857.5,-139 980.5,-139 980.5,-109 857.5,-109"/>
<text text-anchor="start" x="865.5" y="-127" font-family="Helvetica,sans-Serif" font-size="10.00">nars.entity.Sentence.get</text>
<text text-anchor="middle" x="919" y="-116" font-family="Helvetica,sans-Serif" font-size="10.00">Content</text>
</a>
</g>
</g>
<!-- Node67&#45;&gt;Node68 -->
<g id="edge25" class="edge"><title>Node67&#45;&gt;Node68</title>
<path fill="none" stroke="midnightblue" d="M772.968,-153.46C795.313,-148.921 822.502,-143.398 847.274,-138.366"/>
<polygon fill="midnightblue" stroke="midnightblue" points="848.253,-141.739 857.356,-136.318 846.859,-134.879 848.253,-141.739"/>
</g>
<!-- Node69 -->
<g id="node25" class="node"><title>Node69</title>
<g id="a_node25"><a xlink:href="../../dd/dc1/a00212.html#a9f69b4fef64c81abad21404946cd41f9" target="_top" xlink:title="The truth value of Judgment. ">
<polygon fill="none" stroke="black" points="857.5,-207 857.5,-237 980.5,-237 980.5,-207 857.5,-207"/>
<text text-anchor="start" x="865.5" y="-225" font-family="Helvetica,sans-Serif" font-size="10.00">nars.entity.Sentence.get</text>
<text text-anchor="middle" x="919" y="-214" font-family="Helvetica,sans-Serif" font-size="10.00">Truth</text>
</a>
</g>
</g>
<!-- Node67&#45;&gt;Node69 -->
<g id="edge27" class="edge"><title>Node67&#45;&gt;Node69</title>
<path fill="none" stroke="midnightblue" d="M757.275,-172.611C784.839,-181.081 825.727,-193.645 859.364,-203.982"/>
<polygon fill="midnightblue" stroke="midnightblue" points="858.506,-207.38 869.093,-206.971 860.563,-200.688 858.506,-207.38"/>
</g>
<!-- Node70 -->
<g id="node26" class="node"><title>Node70</title>
<g id="a_node26"><a xlink:href="../../d7/d40/a00236.html#a5af8b2fe37987ba1e8396ec1aad38e90" target="_top" xlink:title="A simplified String representation of a TruthValue, where each factor is accruate to 1%...">
<polygon fill="none" stroke="black" points="857,-158 857,-188 981,-188 981,-158 857,-158"/>
<text text-anchor="start" x="865" y="-176" font-family="Helvetica,sans-Serif" font-size="10.00">nars.entity.TruthValue.to</text>
<text text-anchor="middle" x="919" y="-165" font-family="Helvetica,sans-Serif" font-size="10.00">StringBrief</text>
</a>
</g>
</g>
<!-- Node67&#45;&gt;Node70 -->
<g id="edge28" class="edge"><title>Node67&#45;&gt;Node70</title>
<path fill="none" stroke="midnightblue" d="M792.613,-166.469C810.088,-167.38 828.999,-168.365 846.708,-169.287"/>
<polygon fill="midnightblue" stroke="midnightblue" points="846.806,-172.797 856.975,-169.822 847.17,-165.806 846.806,-172.797"/>
</g>
<!-- Node71 -->
<g id="node27" class="node"><title>Node71</title>
<g id="a_node27"><a xlink:href="../../d7/d40/a00236.html#a68ca7d92e9ea20d2a9a9f578ad7b681c" target="_top" xlink:title="The confidence factor of the truth value. ">
<polygon fill="none" stroke="black" points="1034,-183 1034,-213 1163,-213 1163,-183 1034,-183"/>
<text text-anchor="start" x="1042" y="-201" font-family="Helvetica,sans-Serif" font-size="10.00">nars.entity.TruthValue.get</text>
<text text-anchor="middle" x="1098.5" y="-190" font-family="Helvetica,sans-Serif" font-size="10.00">Confidence</text>
</a>
</g>
</g>
<!-- Node70&#45;&gt;Node71 -->
<g id="edge29" class="edge"><title>Node70&#45;&gt;Node71</title>
<path fill="none" stroke="midnightblue" d="M981.085,-181.604C994.804,-183.536 1009.5,-185.606 1023.68,-187.602"/>
<polygon fill="midnightblue" stroke="midnightblue" points="1023.49,-191.111 1033.88,-189.04 1024.47,-184.18 1023.49,-191.111"/>
</g>
<!-- Node72 -->
<g id="node28" class="node"><title>Node72</title>
<g id="a_node28"><a xlink:href="../../d7/d40/a00236.html#a9eac33f2495441c77911a8581a5bbe61" target="_top" xlink:title="Get the frequency value. ">
<polygon fill="none" stroke="black" points="1034,-134 1034,-164 1163,-164 1163,-134 1034,-134"/>
<text text-anchor="start" x="1042" y="-152" font-family="Helvetica,sans-Serif" font-size="10.00">nars.entity.TruthValue.get</text>
<text text-anchor="middle" x="1098.5" y="-141" font-family="Helvetica,sans-Serif" font-size="10.00">Frequency</text>
</a>
</g>
</g>
<!-- Node70&#45;&gt;Node72 -->
<g id="edge30" class="edge"><title>Node70&#45;&gt;Node72</title>
<path fill="none" stroke="midnightblue" d="M981.085,-164.741C994.804,-162.886 1009.5,-160.898 1023.68,-158.982"/>
<polygon fill="midnightblue" stroke="midnightblue" points="1024.44,-162.41 1033.88,-157.602 1023.51,-155.473 1024.44,-162.41"/>
</g>
<!-- Node74 -->
<g id="node30" class="node"><title>Node74</title>
<g id="a_node30"><a xlink:href="../../db/d12/a00268.html#ae9f34c27ee5675fa2b97f2def9e1fb99" target="_top" xlink:title="A function where the output is the geometric average the inputs. ">
<polygon fill="none" stroke="black" points="424,-0.5 424,-19.5 610,-19.5 610,-0.5 424,-0.5"/>
<text text-anchor="middle" x="517" y="-7.5" font-family="Helvetica,sans-Serif" font-size="10.00">nars.inference.UtilityFunctions.aveGeo</text>
</a>
</g>
</g>
<!-- Node73&#45;&gt;Node74 -->
<g id="edge32" class="edge"><title>Node73&#45;&gt;Node74</title>
<path fill="none" stroke="midnightblue" d="M380.733,-10C391.481,-10 402.608,-10 413.654,-10"/>
<polygon fill="midnightblue" stroke="midnightblue" points="413.761,-13.5001 423.761,-10 413.761,-6.5001 413.761,-13.5001"/>
</g>
</g>
</svg>
