<?xml version="1.0" encoding="UTF-8" standalone="no"?>
<!DOCTYPE svg PUBLIC "-//W3C//DTD SVG 1.1//EN"
 "http://www.w3.org/Graphics/SVG/1.1/DTD/svg11.dtd">
<!-- Generated by graphviz version 2.38.0 (20140413.2041)
 -->
<!-- Title: nars.storage.Memory.toStringIfNotNull Pages: 1 -->
<svg width="715pt" height="39pt"
 viewBox="0.00 0.00 715.00 39.00" xmlns="http://www.w3.org/2000/svg" xmlns:xlink="http://www.w3.org/1999/xlink">
<g id="graph0" class="graph" transform="scale(1 1) rotate(0) translate(4 35)">
<title>nars.storage.Memory.toStringIfNotNull</title>
<!-- Node2050 -->
<g id="node1" class="node"><title>Node2050</title>
<polygon fill="#bfbfbf" stroke="black" points="0,-0.5 0,-30.5 146,-30.5 146,-0.5 0,-0.5"/>
<text text-anchor="start" x="8" y="-18.5" font-family="Helvetica,sans-Serif" font-size="10.00">nars.storage.Memory.toString</text>
<text text-anchor="middle" x="73" y="-7.5" font-family="Helvetica,sans-Serif" font-size="10.00">IfNotNull</text>
</g>
<!-- Node2051 -->
<g id="node2" class="node"><title>Node2051</title>
<g id="a_node2"><a xlink:href="../../d4/d27/a00392.html#aaf94683fe32443a90619071e13b7fe41" target="_top" xlink:title="nars.storage.Memory.toString">
<polygon fill="none" stroke="black" points="182,-6 182,-25 328,-25 328,-6 182,-6"/>
<text text-anchor="middle" x="255" y="-13" font-family="Helvetica,sans-Serif" font-size="10.00">nars.storage.Memory.toString</text>
</a>
</g>
</g>
<!-- Node2050&#45;&gt;Node2051 -->
<g id="edge1" class="edge"><title>Node2050&#45;&gt;Node2051</title>
<path fill="none" stroke="midnightblue" d="M156.439,-15.5C164.906,-15.5 173.464,-15.5 181.808,-15.5"/>
<polygon fill="midnightblue" stroke="midnightblue" points="156.176,-12.0001 146.176,-15.5 156.176,-19.0001 156.176,-12.0001"/>
</g>
<!-- Node2052 -->
<g id="node3" class="node"><title>Node2052</title>
<g id="a_node3"><a xlink:href="../../df/d15/a00416.html#ab08b1d98b8efca20e2a96b48681a39f2" target="_top" xlink:title="nars.storage.ReasonerBatch.as\lString">
<polygon fill="none" stroke="black" points="364,-0.5 364,-30.5 519,-30.5 519,-0.5 364,-0.5"/>
<text text-anchor="start" x="372" y="-18.5" font-family="Helvetica,sans-Serif" font-size="10.00">nars.storage.ReasonerBatch.as</text>
<text text-anchor="middle" x="441.5" y="-7.5" font-family="Helvetica,sans-Serif" font-size="10.00">String</text>
</a>
</g>
</g>
<!-- Node2051&#45;&gt;Node2052 -->
<g id="edge2" class="edge"><title>Node2051&#45;&gt;Node2052</title>
<path fill="none" stroke="midnightblue" d="M338.387,-15.5C346.861,-15.5 355.448,-15.5 363.856,-15.5"/>
<polygon fill="midnightblue" stroke="midnightblue" points="338.125,-12.0001 328.125,-15.5 338.125,-19.0001 338.125,-12.0001"/>
</g>
<!-- Node2053 -->
<g id="node4" class="node"><title>Node2053</title>
<g id="a_node4"><a xlink:href="../../df/d15/a00416.html#a01f10884e9aaa407c0eb497422c2ec1d" target="_top" xlink:title="nars.storage.ReasonerBatch.to\lString">
<polygon fill="none" stroke="black" points="555,-0.5 555,-30.5 707,-30.5 707,-0.5 555,-0.5"/>
<text text-anchor="start" x="563" y="-18.5" font-family="Helvetica,sans-Serif" font-size="10.00">nars.storage.ReasonerBatch.to</text>
<text text-anchor="middle" x="631" y="-7.5" font-family="Helvetica,sans-Serif" font-size="10.00">String</text>
</a>
</g>
</g>
<!-- Node2052&#45;&gt;Node2053 -->
<g id="edge3" class="edge"><title>Node2052&#45;&gt;Node2053</title>
<path fill="none" stroke="midnightblue" d="M529.103,-15.5C537.727,-15.5 546.432,-15.5 554.924,-15.5"/>
<polygon fill="midnightblue" stroke="midnightblue" points="529.034,-12.0001 519.034,-15.5 529.034,-19.0001 529.034,-12.0001"/>
</g>
</g>
</svg>
