<?xml version="1.0" encoding="UTF-8" standalone="no"?>
<!DOCTYPE svg PUBLIC "-//W3C//DTD SVG 1.1//EN"
 "http://www.w3.org/Graphics/SVG/1.1/DTD/svg11.dtd">
<!-- Generated by graphviz version 2.38.0 (20140413.2041)
 -->
<!-- Title: nars.storage.Memory.inputTask Pages: 1 -->
<!--zoomable 618 -->
<svg id="main" version="1.1" xmlns="http://www.w3.org/2000/svg" xmlns:xlink="http://www.w3.org/1999/xlink" xml:space="preserve" onload="init(evt)">
<style type="text/css"><![CDATA[
.edge:hover path { stroke: red; }
.edge:hover polygon { stroke: red; fill: red; }
]]></style>
<script type="text/javascript"><![CDATA[
var edges = document.getElementsByTagName('g');
if (edges && edges.length) {
  for (var i=0;i<edges.length;i++) {
    if (edges[i].id.substr(0,4)=='edge') {
      edges[i].setAttribute('class','edge');
    }
  }
}
]]></script>
        <defs>
                <circle id="rim" cx="0" cy="0" r="7"/>
                <circle id="rim2" cx="0" cy="0" r="3.5"/>
                <g id="zoomPlus">
                        <use xlink:href="#rim" fill="#404040">
                                <set attributeName="fill" to="#808080" begin="zoomplus.mouseover" end="zoomplus.mouseout"/>
                        </use>
                        <path d="M-4,0h8M0,-4v8" fill="none" stroke="white" stroke-width="1.5" pointer-events="none"/>
                </g>
                <g id="zoomMin">
                        <use xlink:href="#rim" fill="#404040">
                                <set attributeName="fill" to="#808080" begin="zoomminus.mouseover" end="zoomminus.mouseout"/>
                        </use>
                        <path d="M-4,0h8" fill="none" stroke="white" stroke-width="1.5" pointer-events="none"/>
                </g>
                <g id="dirArrow">
                        <path fill="none" stroke="white" stroke-width="1.5" d="M0,-3.0v7 M-2.5,-0.5L0,-3.0L2.5,-0.5"/>
                </g>
               <g id="resetDef">
                       <use xlink:href="#rim2" fill="#404040">
                               <set attributeName="fill" to="#808080" begin="reset.mouseover" end="reset.mouseout"/>
                       </use>
               </g>
        </defs>

<script type="text/javascript">
var viewWidth = 1162;
var viewHeight = 618;
var sectionId = 'dynsection-33';
</script>
<script xlink:href="../../svgpan.js"/>
<svg id="graph" class="graph">
<g id="viewport">
<title>nars.storage.Memory.inputTask</title>
<!-- Node1053 -->
<g id="node1" class="node"><title>Node1053</title>
<polygon fill="#bfbfbf" stroke="black" points="0,-459 0,-478 155,-478 155,-459 0,-459"/>
<text text-anchor="middle" x="77.5" y="-466" font-family="Helvetica,sans-Serif" font-size="10.00">nars.storage.Memory.inputTask</text>
</g>
<!-- Node1054 -->
<g id="node2" class="node"><title>Node1054</title>
<g id="a_node2"><a xlink:href="../../dd/da2/a00192.html#ae83b822f3bab4c1831e94d72fc770f58" target="_top" xlink:title="Whether the budget should get any processing at all. ">
<polygon fill="none" stroke="black" points="199.5,-579.5 199.5,-609.5 349.5,-609.5 349.5,-579.5 199.5,-579.5"/>
<text text-anchor="start" x="207.5" y="-597.5" font-family="Helvetica,sans-Serif" font-size="10.00">nars.entity.BudgetValue.above</text>
<text text-anchor="middle" x="274.5" y="-586.5" font-family="Helvetica,sans-Serif" font-size="10.00">Threshold</text>
</a>
</g>
</g>
<!-- Node1053&#45;&gt;Node1054 -->
<g id="edge1" class="edge"><title>Node1053&#45;&gt;Node1054</title>
<path fill="none" stroke="midnightblue" d="M86.493,-478.078C103.613,-497.994 145.946,-544.126 191,-569.5 194.92,-571.708 199.057,-573.742 203.307,-575.612"/>
<polygon fill="midnightblue" stroke="midnightblue" points="202.165,-578.926 212.747,-579.451 204.801,-572.442 202.165,-578.926"/>
</g>
<!-- Node1057 -->
<g id="node5" class="node"><title>Node1057</title>
<g id="a_node5"><a xlink:href="../../d0/dcd/a00280.html#acb473be6e5d774c10781bc8e74453459" target="_top" xlink:title="Add new text to display. ">
<polygon fill="none" stroke="black" points="191,-541 191,-560 358,-560 358,-541 191,-541"/>
<text text-anchor="middle" x="274.5" y="-548" font-family="Helvetica,sans-Serif" font-size="10.00">nars.io.IInferenceRecorder.append</text>
</a>
</g>
</g>
<!-- Node1053&#45;&gt;Node1057 -->
<g id="edge4" class="edge"><title>Node1053&#45;&gt;Node1057</title>
<path fill="none" stroke="midnightblue" d="M92.4195,-478.024C113.063,-491.738 153.41,-516.989 191,-531.5 197.693,-534.084 204.833,-536.373 212.006,-538.386"/>
<polygon fill="midnightblue" stroke="midnightblue" points="211.208,-541.795 221.77,-540.962 212.993,-535.027 211.208,-541.795"/>
</g>
<!-- Node1058 -->
<g id="node6" class="node"><title>Node1058</title>
<g id="a_node6"><a xlink:href="../../dc/d31/a00208.html#a54fc0a370b847dd77c0a698c765e6e55" target="_top" xlink:title="The budget of the Item, consisting of 3 numbers. ">
<polygon fill="none" stroke="black" points="208.5,-503 208.5,-522 340.5,-522 340.5,-503 208.5,-503"/>
<text text-anchor="middle" x="274.5" y="-510" font-family="Helvetica,sans-Serif" font-size="10.00">nars.entity.Item.getBudget</text>
</a>
</g>
</g>
<!-- Node1053&#45;&gt;Node1058 -->
<g id="edge5" class="edge"><title>Node1053&#45;&gt;Node1058</title>
<path fill="none" stroke="midnightblue" d="M120.812,-478.047C150.326,-484.707 189.9,-493.636 221.363,-500.736"/>
<polygon fill="midnightblue" stroke="midnightblue" points="220.745,-504.184 231.27,-502.971 222.286,-497.356 220.745,-504.184"/>
</g>
<!-- Node1059 -->
<g id="node7" class="node"><title>Node1059</title>
<g id="a_node7"><a xlink:href="../../d4/d27/a00392.html#a8c50bdf4f2750032f24965e12e9fb59c" target="_top" xlink:title="List of new tasks accumulated in one cycle, to be processed in the next cycle. ">
<polygon fill="none" stroke="black" points="201.5,-453.5 201.5,-483.5 347.5,-483.5 347.5,-453.5 201.5,-453.5"/>
<text text-anchor="start" x="209.5" y="-471.5" font-family="Helvetica,sans-Serif" font-size="10.00">nars.storage.Memory.getNew</text>
<text text-anchor="middle" x="274.5" y="-460.5" font-family="Helvetica,sans-Serif" font-size="10.00">Tasks</text>
</a>
</g>
</g>
<!-- Node1053&#45;&gt;Node1059 -->
<g id="edge6" class="edge"><title>Node1053&#45;&gt;Node1059</title>
<path fill="none" stroke="midnightblue" d="M155.009,-468.5C166.93,-468.5 179.29,-468.5 191.33,-468.5"/>
<polygon fill="midnightblue" stroke="midnightblue" points="191.351,-472 201.351,-468.5 191.351,-465 191.351,-472"/>
</g>
<!-- Node1060 -->
<g id="node8" class="node"><title>Node1060</title>
<g id="a_node8"><a xlink:href="../../d4/d27/a00392.html#aa4c7e1f5823d0404c0cab49b617968f1" target="_top" xlink:title="Inference record text to be written into a log file. ">
<polygon fill="none" stroke="black" points="192,-415 192,-434 357,-434 357,-415 192,-415"/>
<text text-anchor="middle" x="274.5" y="-422" font-family="Helvetica,sans-Serif" font-size="10.00">nars.storage.Memory.getRecorder</text>
</a>
</g>
</g>
<!-- Node1053&#45;&gt;Node1060 -->
<g id="edge7" class="edge"><title>Node1053&#45;&gt;Node1060</title>
<path fill="none" stroke="midnightblue" d="M120.812,-458.953C150.326,-452.293 189.9,-443.364 221.363,-436.264"/>
<polygon fill="midnightblue" stroke="midnightblue" points="222.286,-439.644 231.27,-434.029 220.745,-432.816 222.286,-439.644"/>
</g>
<!-- Node1061 -->
<g id="node9" class="node"><title>Node1061</title>
<g id="a_node9"><a xlink:href="../../d5/ddf/a00224.html#ab140cb553a6cf40b07093d1df283567f" target="_top" xlink:title="The sentence of the Task. ">
<polygon fill="none" stroke="black" points="202,-377 202,-396 347,-396 347,-377 202,-377"/>
<text text-anchor="middle" x="274.5" y="-384" font-family="Helvetica,sans-Serif" font-size="10.00">nars.entity.Task.getSentence</text>
</a>
</g>
</g>
<!-- Node1053&#45;&gt;Node1061 -->
<g id="edge8" class="edge"><title>Node1053&#45;&gt;Node1061</title>
<path fill="none" stroke="midnightblue" d="M92.4195,-458.976C113.063,-445.262 153.41,-420.011 191,-405.5 197.693,-402.916 204.833,-400.627 212.006,-398.614"/>
<polygon fill="midnightblue" stroke="midnightblue" points="212.993,-401.973 221.77,-396.038 211.208,-395.205 212.993,-401.973"/>
</g>
<!-- Node1062 -->
<g id="node10" class="node"><title>Node1062</title>
<g id="a_node10"><a xlink:href="../../d4/d27/a00392.html#ad89bc0ba08c0b5bfbddf247cdab5eaa9" target="_top" xlink:title="Display input/output sentence in the output channels. ">
<polygon fill="none" stroke="black" points="206,-339 206,-358 343,-358 343,-339 206,-339"/>
<text text-anchor="middle" x="274.5" y="-346" font-family="Helvetica,sans-Serif" font-size="10.00">nars.storage.Memory.report</text>
</a>
</g>
</g>
<!-- Node1053&#45;&gt;Node1062 -->
<g id="edge9" class="edge"><title>Node1053&#45;&gt;Node1062</title>
<path fill="none" stroke="midnightblue" d="M86.105,-458.984C102.803,-438.772 144.878,-391.451 191,-367.5 195.531,-365.147 200.351,-363.083 205.298,-361.273"/>
<polygon fill="midnightblue" stroke="midnightblue" points="206.528,-364.553 214.927,-358.094 204.334,-357.905 206.528,-364.553"/>
</g>
<!-- Node1055 -->
<g id="node3" class="node"><title>Node1055</title>
<g id="a_node3"><a xlink:href="../../dd/da2/a00192.html#af414899759992288edbba78d7457c534" target="_top" xlink:title="To summarize a BudgetValue into a single number in [0, 1]. ">
<polygon fill="none" stroke="black" points="401.5,-585 401.5,-604 565.5,-604 565.5,-585 401.5,-585"/>
<text text-anchor="middle" x="483.5" y="-592" font-family="Helvetica,sans-Serif" font-size="10.00">nars.entity.BudgetValue.summary</text>
</a>
</g>
</g>
<!-- Node1054&#45;&gt;Node1055 -->
<g id="edge2" class="edge"><title>Node1054&#45;&gt;Node1055</title>
<path fill="none" stroke="midnightblue" d="M349.647,-594.5C363.09,-594.5 377.252,-594.5 391.121,-594.5"/>
<polygon fill="midnightblue" stroke="midnightblue" points="391.152,-598 401.152,-594.5 391.152,-591 391.152,-598"/>
</g>
<!-- Node1056 -->
<g id="node4" class="node"><title>Node1056</title>
<g id="a_node4"><a xlink:href="../../db/d12/a00268.html#ae9f34c27ee5675fa2b97f2def9e1fb99" target="_top" xlink:title="A function where the output is the geometric average the inputs. ">
<polygon fill="none" stroke="black" points="609,-585 609,-604 795,-604 795,-585 609,-585"/>
<text text-anchor="middle" x="702" y="-592" font-family="Helvetica,sans-Serif" font-size="10.00">nars.inference.UtilityFunctions.aveGeo</text>
</a>
</g>
</g>
<!-- Node1055&#45;&gt;Node1056 -->
<g id="edge3" class="edge"><title>Node1055&#45;&gt;Node1056</title>
<path fill="none" stroke="midnightblue" d="M565.733,-594.5C576.481,-594.5 587.608,-594.5 598.654,-594.5"/>
<polygon fill="midnightblue" stroke="midnightblue" points="598.761,-598 608.761,-594.5 598.761,-591 598.761,-598"/>
</g>
<!-- Node1063 -->
<g id="node11" class="node"><title>Node1063</title>
<g id="a_node11"><a xlink:href="../../df/d15/a00416.html#a55398625fb088534ef3fce8c38f95423" target="_top" xlink:title="global DEBUG print switch ">
<polygon fill="none" stroke="black" points="407.5,-481.5 407.5,-511.5 559.5,-511.5 559.5,-481.5 407.5,-481.5"/>
<text text-anchor="start" x="415.5" y="-499.5" font-family="Helvetica,sans-Serif" font-size="10.00">nars.storage.ReasonerBatch.is</text>
<text text-anchor="middle" x="483.5" y="-488.5" font-family="Helvetica,sans-Serif" font-size="10.00">DEBUG</text>
</a>
</g>
</g>
<!-- Node1062&#45;&gt;Node1063 -->
<g id="edge10" class="edge"><title>Node1062&#45;&gt;Node1063</title>
<path fill="none" stroke="midnightblue" d="M343.247,-357.862C348.606,-360.406 353.627,-363.571 358,-367.5 394.385,-400.19 358.426,-437.929 394,-471.5 395.651,-473.058 397.392,-474.52 399.207,-475.892"/>
<polygon fill="midnightblue" stroke="midnightblue" points="397.306,-478.831 407.597,-481.349 401.122,-472.963 397.306,-478.831"/>
</g>
<!-- Node1064 -->
<g id="node12" class="node"><title>Node1064</title>
<g id="a_node12"><a xlink:href="../../df/d15/a00416.html#aeb34e5ff1c0a1f220e7b8715cee2d9d3" target="_top" xlink:title="Get the current time from the clock Called in nars.entity.Stamp. ">
<polygon fill="none" stroke="black" points="394,-443 394,-462 573,-462 573,-443 394,-443"/>
<text text-anchor="middle" x="483.5" y="-450" font-family="Helvetica,sans-Serif" font-size="10.00">nars.storage.ReasonerBatch.getTime</text>
</a>
</g>
</g>
<!-- Node1062&#45;&gt;Node1064 -->
<g id="edge11" class="edge"><title>Node1062&#45;&gt;Node1064</title>
<path fill="none" stroke="midnightblue" d="M341.341,-358.14C347.293,-360.608 352.964,-363.681 358,-367.5 384.622,-387.692 367.229,-413.507 394,-433.5 396.5,-435.367 399.146,-437.059 401.898,-438.592"/>
<polygon fill="midnightblue" stroke="midnightblue" points="400.477,-441.792 411.006,-442.964 403.506,-435.481 400.477,-441.792"/>
</g>
<!-- Node1065 -->
<g id="node13" class="node"><title>Node1065</title>
<g id="a_node13"><a xlink:href="../../d4/d27/a00392.html#a076ad9a0e872386bca3f2d17fa7cb2d4" target="_top" xlink:title="Backward pointer to the reasoner. ">
<polygon fill="none" stroke="black" points="400,-405 400,-424 567,-424 567,-405 400,-405"/>
<text text-anchor="middle" x="483.5" y="-412" font-family="Helvetica,sans-Serif" font-size="10.00">nars.storage.Memory.getReasoner</text>
</a>
</g>
</g>
<!-- Node1062&#45;&gt;Node1065 -->
<g id="edge12" class="edge"><title>Node1062&#45;&gt;Node1065</title>
<path fill="none" stroke="midnightblue" d="M332.085,-358.078C340.98,-360.558 349.902,-363.651 358,-367.5 376.307,-376.201 375.629,-386.935 394,-395.5 399.292,-397.967 404.912,-400.119 410.654,-401.994"/>
<polygon fill="midnightblue" stroke="midnightblue" points="409.812,-405.395 420.395,-404.896 411.81,-398.686 409.812,-405.395"/>
</g>
<!-- Node1066 -->
<g id="node14" class="node"><title>Node1066</title>
<g id="a_node14"><a xlink:href="../../df/d15/a00416.html#ae7cc80bb901b1e8008537fe24e5d1bb2" target="_top" xlink:title="System clock, relatively defined to guarantee the repeatability of behaviors. ">
<polygon fill="none" stroke="black" points="404.5,-355.5 404.5,-385.5 562.5,-385.5 562.5,-355.5 404.5,-355.5"/>
<text text-anchor="start" x="412.5" y="-373.5" font-family="Helvetica,sans-Serif" font-size="10.00">nars.storage.ReasonerBatch.get</text>
<text text-anchor="middle" x="483.5" y="-362.5" font-family="Helvetica,sans-Serif" font-size="10.00">Clock</text>
</a>
</g>
</g>
<!-- Node1062&#45;&gt;Node1066 -->
<g id="edge13" class="edge"><title>Node1062&#45;&gt;Node1066</title>
<path fill="none" stroke="midnightblue" d="M343.28,-355.704C359.543,-357.432 377.147,-359.303 394.19,-361.114"/>
<polygon fill="midnightblue" stroke="midnightblue" points="393.831,-364.596 404.145,-362.172 394.571,-357.635 393.831,-364.596"/>
</g>
<!-- Node1067 -->
<g id="node15" class="node"><title>Node1067</title>
<g id="a_node15"><a xlink:href="../../df/d15/a00416.html#a64586e56057f3a2d498dc7fd98c4f773" target="_top" xlink:title="System clock &#45; number of cycles since last output. ">
<polygon fill="none" stroke="black" points="623,-291.5 623,-321.5 781,-321.5 781,-291.5 623,-291.5"/>
<text text-anchor="start" x="631" y="-309.5" font-family="Helvetica,sans-Serif" font-size="10.00">nars.storage.ReasonerBatch.get</text>
<text text-anchor="middle" x="702" y="-298.5" font-family="Helvetica,sans-Serif" font-size="10.00">Timer</text>
</a>
</g>
</g>
<!-- Node1062&#45;&gt;Node1067 -->
<g id="edge14" class="edge"><title>Node1062&#45;&gt;Node1067</title>
<path fill="none" stroke="midnightblue" d="M343.392,-341.799C416.407,-334.591 532.771,-323.105 612.817,-315.204"/>
<polygon fill="midnightblue" stroke="midnightblue" points="613.274,-318.676 622.882,-314.211 612.586,-311.71 613.274,-318.676"/>
</g>
<!-- Node1068 -->
<g id="node16" class="node"><title>Node1068</title>
<g id="a_node16"><a xlink:href="../../d4/d27/a00392.html#a1a17565c7b06ca4ecc1ed57c3fce973f" target="_top" xlink:title="List of Strings or Tasks to be sent to the output channels. ">
<polygon fill="none" stroke="black" points="406.5,-267.5 406.5,-297.5 560.5,-297.5 560.5,-267.5 406.5,-267.5"/>
<text text-anchor="start" x="414.5" y="-285.5" font-family="Helvetica,sans-Serif" font-size="10.00">nars.storage.Memory.getExport</text>
<text text-anchor="middle" x="483.5" y="-274.5" font-family="Helvetica,sans-Serif" font-size="10.00">Strings</text>
</a>
</g>
</g>
<!-- Node1062&#45;&gt;Node1068 -->
<g id="edge15" class="edge"><title>Node1062&#45;&gt;Node1068</title>
<path fill="none" stroke="midnightblue" d="M305.6,-338.903C336.921,-328.917 386.719,-313.039 425.511,-300.67"/>
<polygon fill="midnightblue" stroke="midnightblue" points="426.654,-303.98 435.119,-297.607 424.528,-297.31 426.654,-303.98"/>
</g>
<!-- Node1069 -->
<g id="node17" class="node"><title>Node1069</title>
<g id="a_node17"><a xlink:href="../../df/d15/a00416.html#a84cc1236020f7c170bfcee70c861ce20" target="_top" xlink:title="To get the timer value and then to reset it. ">
<polygon fill="none" stroke="black" points="397,-218.5 397,-248.5 570,-248.5 570,-218.5 397,-218.5"/>
<text text-anchor="start" x="405" y="-236.5" font-family="Helvetica,sans-Serif" font-size="10.00">nars.storage.ReasonerBatch.update</text>
<text text-anchor="middle" x="483.5" y="-225.5" font-family="Helvetica,sans-Serif" font-size="10.00">Timer</text>
</a>
</g>
</g>
<!-- Node1062&#45;&gt;Node1069 -->
<g id="edge16" class="edge"><title>Node1062&#45;&gt;Node1069</title>
<path fill="none" stroke="midnightblue" d="M285.39,-338.872C304.685,-320.602 349.377,-280.743 394,-258.5 398.615,-256.2 403.474,-254.082 408.442,-252.137"/>
<polygon fill="midnightblue" stroke="midnightblue" points="409.905,-255.329 418.095,-248.608 407.501,-248.754 409.905,-255.329"/>
</g>
<!-- Node1072 -->
<g id="node20" class="node"><title>Node1072</title>
<g id="a_node20"><a xlink:href="../../dd/dc1/a00212.html#aea2f809b2d4c375f3c4ec3d0328d8787" target="_top" xlink:title="Get a String representation of the sentence, with 2&#45;digit accuracy. ">
<polygon fill="none" stroke="black" points="412,-168.5 412,-198.5 555,-198.5 555,-168.5 412,-168.5"/>
<text text-anchor="start" x="420" y="-186.5" font-family="Helvetica,sans-Serif" font-size="10.00">nars.entity.Sentence.toString</text>
<text text-anchor="middle" x="483.5" y="-175.5" font-family="Helvetica,sans-Serif" font-size="10.00">Brief</text>
</a>
</g>
</g>
<!-- Node1062&#45;&gt;Node1072 -->
<g id="edge20" class="edge"><title>Node1062&#45;&gt;Node1072</title>
<path fill="none" stroke="midnightblue" d="M280.77,-338.997C295.303,-313.691 338.571,-244.173 394,-208.5 397.304,-206.374 400.791,-204.425 404.394,-202.64"/>
<polygon fill="midnightblue" stroke="midnightblue" points="405.864,-205.817 413.555,-198.53 402.999,-199.43 405.864,-205.817"/>
</g>
<!-- Node1069&#45;&gt;Node1067 -->
<g id="edge17" class="edge"><title>Node1069&#45;&gt;Node1067</title>
<path fill="none" stroke="midnightblue" d="M540.422,-248.533C551.279,-251.666 562.533,-255.066 573,-258.5 600.054,-267.377 629.862,-278.475 653.902,-287.764"/>
<polygon fill="midnightblue" stroke="midnightblue" points="652.899,-291.129 663.487,-291.489 655.435,-284.604 652.899,-291.129"/>
</g>
<!-- Node1070 -->
<g id="node18" class="node"><title>Node1070</title>
<g id="a_node18"><a xlink:href="../../df/d15/a00416.html#aa243bca18963b74438535cd125039740" target="_top" xlink:title="nars.storage.ReasonerBatch.init\lTimer">
<polygon fill="none" stroke="black" points="623.5,-219.5 623.5,-249.5 780.5,-249.5 780.5,-219.5 623.5,-219.5"/>
<text text-anchor="start" x="631.5" y="-237.5" font-family="Helvetica,sans-Serif" font-size="10.00">nars.storage.ReasonerBatch.init</text>
<text text-anchor="middle" x="702" y="-226.5" font-family="Helvetica,sans-Serif" font-size="10.00">Timer</text>
</a>
</g>
</g>
<!-- Node1069&#45;&gt;Node1070 -->
<g id="edge18" class="edge"><title>Node1069&#45;&gt;Node1070</title>
<path fill="none" stroke="midnightblue" d="M570.067,-233.895C584.238,-233.961 598.952,-234.029 613.178,-234.094"/>
<polygon fill="midnightblue" stroke="midnightblue" points="613.42,-237.595 623.436,-234.142 613.452,-230.595 613.42,-237.595"/>
</g>
<!-- Node1071 -->
<g id="node19" class="node"><title>Node1071</title>
<g id="a_node19"><a xlink:href="../../df/d15/a00416.html#ac3e769632e8a90ddc85970d3fee28e5f" target="_top" xlink:title="nars.storage.ReasonerBatch.set\lTimer">
<polygon fill="none" stroke="black" points="831,-220.5 831,-250.5 989,-250.5 989,-220.5 831,-220.5"/>
<text text-anchor="start" x="839" y="-238.5" font-family="Helvetica,sans-Serif" font-size="10.00">nars.storage.ReasonerBatch.set</text>
<text text-anchor="middle" x="910" y="-227.5" font-family="Helvetica,sans-Serif" font-size="10.00">Timer</text>
</a>
</g>
</g>
<!-- Node1070&#45;&gt;Node1071 -->
<g id="edge19" class="edge"><title>Node1070&#45;&gt;Node1071</title>
<path fill="none" stroke="midnightblue" d="M780.586,-234.877C793.674,-234.94 807.345,-235.007 820.681,-235.071"/>
<polygon fill="midnightblue" stroke="midnightblue" points="820.782,-238.572 830.799,-235.12 820.816,-231.572 820.782,-238.572"/>
</g>
<!-- Node1073 -->
<g id="node21" class="node"><title>Node1073</title>
<g id="a_node21"><a xlink:href="../../dd/dc1/a00212.html#ac0ed749c50e55120d5b63219ed7eb082" target="_top" xlink:title="Partial record of the derivation path. ">
<polygon fill="none" stroke="black" points="640.5,-168.5 640.5,-198.5 763.5,-198.5 763.5,-168.5 640.5,-168.5"/>
<text text-anchor="start" x="648.5" y="-186.5" font-family="Helvetica,sans-Serif" font-size="10.00">nars.entity.Sentence.get</text>
<text text-anchor="middle" x="702" y="-175.5" font-family="Helvetica,sans-Serif" font-size="10.00">Stamp</text>
</a>
</g>
</g>
<!-- Node1072&#45;&gt;Node1073 -->
<g id="edge21" class="edge"><title>Node1072&#45;&gt;Node1073</title>
<path fill="none" stroke="midnightblue" d="M555.091,-183.5C579.168,-183.5 606.086,-183.5 630.181,-183.5"/>
<polygon fill="midnightblue" stroke="midnightblue" points="630.319,-187 640.319,-183.5 630.319,-180 630.319,-187"/>
</g>
<!-- Node1074 -->
<g id="node22" class="node"><title>Node1074</title>
<g id="a_node22"><a xlink:href="../../dd/dc1/a00212.html#a8b6d9355c0211d37f881ec6717a6b636" target="_top" xlink:title="Get a String representation of the sentence for key of Task and TaskLink. ">
<polygon fill="none" stroke="black" points="634.5,-128 634.5,-147 769.5,-147 769.5,-128 634.5,-128"/>
<text text-anchor="middle" x="702" y="-135" font-family="Helvetica,sans-Serif" font-size="10.00">nars.entity.Sentence.toKey</text>
</a>
</g>
</g>
<!-- Node1072&#45;&gt;Node1074 -->
<g id="edge22" class="edge"><title>Node1072&#45;&gt;Node1074</title>
<path fill="none" stroke="midnightblue" d="M555.091,-168.502C584.654,-162.22 618.498,-155.029 646.143,-149.155"/>
<polygon fill="midnightblue" stroke="midnightblue" points="646.974,-152.557 656.029,-147.055 645.52,-145.71 646.974,-152.557"/>
</g>
<!-- Node1075 -->
<g id="node23" class="node"><title>Node1075</title>
<g id="a_node23"><a xlink:href="../../dd/dc1/a00212.html#ad1ded9a02cae3557948d05530cd4d37e" target="_top" xlink:title="The content of a Sentence is a Term. ">
<polygon fill="none" stroke="black" points="848.5,-171.5 848.5,-201.5 971.5,-201.5 971.5,-171.5 848.5,-171.5"/>
<text text-anchor="start" x="856.5" y="-189.5" font-family="Helvetica,sans-Serif" font-size="10.00">nars.entity.Sentence.get</text>
<text text-anchor="middle" x="910" y="-178.5" font-family="Helvetica,sans-Serif" font-size="10.00">Content</text>
</a>
</g>
</g>
<!-- Node1074&#45;&gt;Node1075 -->
<g id="edge23" class="edge"><title>Node1074&#45;&gt;Node1075</title>
<path fill="none" stroke="midnightblue" d="M745.631,-147.078C761.182,-150.612 778.899,-154.685 795,-158.5 809.179,-161.859 824.331,-165.526 838.805,-169.067"/>
<polygon fill="midnightblue" stroke="midnightblue" points="838.152,-172.511 848.698,-171.493 839.819,-165.712 838.152,-172.511"/>
</g>
<!-- Node1076 -->
<g id="node24" class="node"><title>Node1076</title>
<g id="a_node24"><a xlink:href="../../dd/dc1/a00212.html#a68b153a51a5db6a4127b66158227697f" target="_top" xlink:title="The punctuation also indicates the type of the Sentence: Judgment, Question, or Goal. ">
<polygon fill="none" stroke="black" points="848.5,-122.5 848.5,-152.5 971.5,-152.5 971.5,-122.5 848.5,-122.5"/>
<text text-anchor="start" x="856.5" y="-140.5" font-family="Helvetica,sans-Serif" font-size="10.00">nars.entity.Sentence.get</text>
<text text-anchor="middle" x="910" y="-129.5" font-family="Helvetica,sans-Serif" font-size="10.00">Punctuation</text>
</a>
</g>
</g>
<!-- Node1074&#45;&gt;Node1076 -->
<g id="edge24" class="edge"><title>Node1074&#45;&gt;Node1076</title>
<path fill="none" stroke="midnightblue" d="M769.598,-137.5C791.515,-137.5 815.955,-137.5 838.174,-137.5"/>
<polygon fill="midnightblue" stroke="midnightblue" points="838.21,-141 848.21,-137.5 838.21,-134 838.21,-141"/>
</g>
<!-- Node1077 -->
<g id="node25" class="node"><title>Node1077</title>
<g id="a_node25"><a xlink:href="../../dd/dc1/a00212.html#a9f69b4fef64c81abad21404946cd41f9" target="_top" xlink:title="The truth value of Judgment. ">
<polygon fill="none" stroke="black" points="848.5,-73.5 848.5,-103.5 971.5,-103.5 971.5,-73.5 848.5,-73.5"/>
<text text-anchor="start" x="856.5" y="-91.5" font-family="Helvetica,sans-Serif" font-size="10.00">nars.entity.Sentence.get</text>
<text text-anchor="middle" x="910" y="-80.5" font-family="Helvetica,sans-Serif" font-size="10.00">Truth</text>
</a>
</g>
</g>
<!-- Node1074&#45;&gt;Node1077 -->
<g id="edge25" class="edge"><title>Node1074&#45;&gt;Node1077</title>
<path fill="none" stroke="midnightblue" d="M743.208,-127.936C770.15,-121.527 806.361,-112.914 838.068,-105.372"/>
<polygon fill="midnightblue" stroke="midnightblue" points="839.268,-108.684 848.187,-102.965 837.648,-101.874 839.268,-108.684"/>
</g>
<!-- Node1078 -->
<g id="node26" class="node"><title>Node1078</title>
<g id="a_node26"><a xlink:href="../../d7/d40/a00236.html#a5af8b2fe37987ba1e8396ec1aad38e90" target="_top" xlink:title="A simplified String representation of a TruthValue, where each factor is accruate to 1%...">
<polygon fill="none" stroke="black" points="848,-24.5 848,-54.5 972,-54.5 972,-24.5 848,-24.5"/>
<text text-anchor="start" x="856" y="-42.5" font-family="Helvetica,sans-Serif" font-size="10.00">nars.entity.TruthValue.to</text>
<text text-anchor="middle" x="910" y="-31.5" font-family="Helvetica,sans-Serif" font-size="10.00">StringBrief</text>
</a>
</g>
</g>
<!-- Node1074&#45;&gt;Node1078 -->
<g id="edge26" class="edge"><title>Node1074&#45;&gt;Node1078</title>
<path fill="none" stroke="midnightblue" d="M717.032,-127.963C740.011,-112.677 787.474,-82.4871 831,-63.5 835.395,-61.5828 839.991,-59.753 844.659,-58.0211"/>
<polygon fill="midnightblue" stroke="midnightblue" points="846.04,-61.245 854.297,-54.6068 843.703,-54.6467 846.04,-61.245"/>
</g>
<!-- Node1079 -->
<g id="node27" class="node"><title>Node1079</title>
<g id="a_node27"><a xlink:href="../../d7/d40/a00236.html#a68ca7d92e9ea20d2a9a9f578ad7b681c" target="_top" xlink:title="The confidence factor of the truth value. ">
<polygon fill="none" stroke="black" points="1025,-49.5 1025,-79.5 1154,-79.5 1154,-49.5 1025,-49.5"/>
<text text-anchor="start" x="1033" y="-67.5" font-family="Helvetica,sans-Serif" font-size="10.00">nars.entity.TruthValue.get</text>
<text text-anchor="middle" x="1089.5" y="-56.5" font-family="Helvetica,sans-Serif" font-size="10.00">Confidence</text>
</a>
</g>
</g>
<!-- Node1078&#45;&gt;Node1079 -->
<g id="edge27" class="edge"><title>Node1078&#45;&gt;Node1079</title>
<path fill="none" stroke="midnightblue" d="M972.085,-48.1036C985.804,-50.0357 1000.5,-52.1059 1014.68,-54.1024"/>
<polygon fill="midnightblue" stroke="midnightblue" points="1014.49,-57.6111 1024.88,-55.5401 1015.47,-50.6795 1014.49,-57.6111"/>
</g>
<!-- Node1080 -->
<g id="node28" class="node"><title>Node1080</title>
<g id="a_node28"><a xlink:href="../../d7/d40/a00236.html#a9eac33f2495441c77911a8581a5bbe61" target="_top" xlink:title="Get the frequency value. ">
<polygon fill="none" stroke="black" points="1025,-0.5 1025,-30.5 1154,-30.5 1154,-0.5 1025,-0.5"/>
<text text-anchor="start" x="1033" y="-18.5" font-family="Helvetica,sans-Serif" font-size="10.00">nars.entity.TruthValue.get</text>
<text text-anchor="middle" x="1089.5" y="-7.5" font-family="Helvetica,sans-Serif" font-size="10.00">Frequency</text>
</a>
</g>
</g>
<!-- Node1078&#45;&gt;Node1080 -->
<g id="edge28" class="edge"><title>Node1078&#45;&gt;Node1080</title>
<path fill="none" stroke="midnightblue" d="M972.085,-31.2406C985.804,-29.3857 1000.5,-27.3983 1014.68,-25.4817"/>
<polygon fill="midnightblue" stroke="midnightblue" points="1015.44,-28.91 1024.88,-24.1015 1014.51,-21.9731 1015.44,-28.91"/>
</g>
</g>
</svg>
        <g id="navigator" transform="translate(0 0)" fill="#404254">
                <rect fill="#f2f5e9" fill-opacity="0.5" stroke="#606060" stroke-width=".5" x="0" y="0" width="60" height="60"/>
                <use id="zoomplus" xlink:href="#zoomPlus" x="17" y="9" onmousedown="handleZoom(evt,'in')"/>
                <use id="zoomminus" xlink:href="#zoomMin" x="42" y="9" onmousedown="handleZoom(evt,'out')"/>
                <use id="reset" xlink:href="#resetDef" x="30" y="36" onmousedown="handleReset()"/>
                <g id="arrowUp" xlink:href="#dirArrow" transform="translate(30 24)" onmousedown="handlePan(0,-1)">
                  <use xlink:href="#rim" fill="#404040">
                        <set attributeName="fill" to="#808080" begin="arrowUp.mouseover" end="arrowUp.mouseout"/>
                  </use>
                  <path fill="none" stroke="white" stroke-width="1.5" d="M0,-3.0v7 M-2.5,-0.5L0,-3.0L2.5,-0.5"/>
                </g>
                <g id="arrowRight" xlink:href="#dirArrow" transform="rotate(90) translate(36 -43)" onmousedown="handlePan(1,0)">
                  <use xlink:href="#rim" fill="#404040">
                        <set attributeName="fill" to="#808080" begin="arrowRight.mouseover" end="arrowRight.mouseout"/>
                  </use>
                  <path fill="none" stroke="white" stroke-width="1.5" d="M0,-3.0v7 M-2.5,-0.5L0,-3.0L2.5,-0.5"/>
                </g>
                <g id="arrowDown" xlink:href="#dirArrow" transform="rotate(180) translate(-30 -48)" onmousedown="handlePan(0,1)">
                  <use xlink:href="#rim" fill="#404040">
                        <set attributeName="fill" to="#808080" begin="arrowDown.mouseover" end="arrowDown.mouseout"/>
                  </use>
                  <path fill="none" stroke="white" stroke-width="1.5" d="M0,-3.0v7 M-2.5,-0.5L0,-3.0L2.5,-0.5"/>
                </g>
                <g id="arrowLeft" xlink:href="#dirArrow" transform="rotate(270) translate(-36 17)" onmousedown="handlePan(-1,0)">
                  <use xlink:href="#rim" fill="#404040">
                        <set attributeName="fill" to="#808080" begin="arrowLeft.mouseover" end="arrowLeft.mouseout"/>
                  </use>
                  <path fill="none" stroke="white" stroke-width="1.5" d="M0,-3.0v7 M-2.5,-0.5L0,-3.0L2.5,-0.5"/>
                </g>
        </g>
        <svg viewBox="0 0 15 15" width="100%" height="30px" preserveAspectRatio="xMaxYMin meet">
         <g id="arrow_out" transform="scale(0.3 0.3)">
          <a xlink:href="a00392_aa35448d01b9f72402aa8623dc75c8209_cgraph_org.svg" target="_base">
           <rect id="button" ry="5" rx="5" y="6" x="6" height="38" width="38"
                fill="#f2f5e9" fill-opacity="0.5" stroke="#606060" stroke-width="1.0"/>
           <path id="arrow"
             d="M 11.500037,31.436501 C 11.940474,20.09759 22.043105,11.32322 32.158766,21.979434 L 37.068811,17.246167 C 37.068811,17.246167 37.088388,32 37.088388,32 L 22.160133,31.978069 C 22.160133,31.978069 26.997745,27.140456 26.997745,27.140456 C 18.528582,18.264221 13.291696,25.230495 11.500037,31.436501 z"
             style="fill:#404040;"/>
          </a>
         </g>
        </svg>
</svg>
