<?xml version="1.0" encoding="UTF-8" standalone="no"?>
<!DOCTYPE svg PUBLIC "-//W3C//DTD SVG 1.1//EN"
 "http://www.w3.org/Graphics/SVG/1.1/DTD/svg11.dtd">
<!-- Generated by graphviz version 2.38.0 (20140413.2041)
 -->
<!-- Title: nars.storage.Memory.processConcept Pages: 1 -->
<svg width="1276pt" height="39pt"
 viewBox="0.00 0.00 1276.00 39.00" xmlns="http://www.w3.org/2000/svg" xmlns:xlink="http://www.w3.org/1999/xlink">
<g id="graph0" class="graph" transform="scale(1 1) rotate(0) translate(4 35)">
<title>nars.storage.Memory.processConcept</title>
<!-- Node1444 -->
<g id="node1" class="node"><title>Node1444</title>
<polygon fill="#bfbfbf" stroke="black" points="0,-0.5 0,-30.5 146,-30.5 146,-0.5 0,-0.5"/>
<text text-anchor="start" x="8" y="-18.5" font-family="Helvetica,sans-Serif" font-size="10.00">nars.storage.Memory.process</text>
<text text-anchor="middle" x="73" y="-7.5" font-family="Helvetica,sans-Serif" font-size="10.00">Concept</text>
</g>
<!-- Node1445 -->
<g id="node2" class="node"><title>Node1445</title>
<g id="a_node2"><a xlink:href="../../d4/d27/a00392.html#a59ae339d666409988d90d29be4f73a91" target="_top" xlink:title="An atomic working workCycle of the system: process new Tasks, then fireFromProcessConcept a concept...">
<polygon fill="none" stroke="black" points="182,-0.5 182,-30.5 315,-30.5 315,-0.5 182,-0.5"/>
<text text-anchor="start" x="190" y="-18.5" font-family="Helvetica,sans-Serif" font-size="10.00">nars.storage.Memory.work</text>
<text text-anchor="middle" x="248.5" y="-7.5" font-family="Helvetica,sans-Serif" font-size="10.00">Cycle</text>
</a>
</g>
</g>
<!-- Node1444&#45;&gt;Node1445 -->
<g id="edge1" class="edge"><title>Node1444&#45;&gt;Node1445</title>
<path fill="none" stroke="midnightblue" d="M156.118,-15.5C164.716,-15.5 173.375,-15.5 181.755,-15.5"/>
<polygon fill="midnightblue" stroke="midnightblue" points="156.072,-12.0001 146.072,-15.5 156.072,-19.0001 156.072,-12.0001"/>
</g>
<!-- Node1446 -->
<g id="node3" class="node"><title>Node1446</title>
<g id="a_node3"><a xlink:href="../../df/d15/a00416.html#a0d5c797dc17d9e8d0998852915e0f303" target="_top" xlink:title="nars.storage.ReasonerBatch.doTick">
<polygon fill="none" stroke="black" points="351,-6 351,-25 524,-25 524,-6 351,-6"/>
<text text-anchor="middle" x="437.5" y="-13" font-family="Helvetica,sans-Serif" font-size="10.00">nars.storage.ReasonerBatch.doTick</text>
</a>
</g>
</g>
<!-- Node1445&#45;&gt;Node1446 -->
<g id="edge2" class="edge"><title>Node1445&#45;&gt;Node1446</title>
<path fill="none" stroke="midnightblue" d="M325.343,-15.5C333.782,-15.5 342.421,-15.5 350.971,-15.5"/>
<polygon fill="midnightblue" stroke="midnightblue" points="325.166,-12.0001 315.166,-15.5 325.166,-19.0001 325.166,-12.0001"/>
</g>
<!-- Node1447 -->
<g id="node4" class="node"><title>Node1447</title>
<g id="a_node4"><a xlink:href="../../df/d15/a00416.html#a3468aa0f99edcd66412f27922dddb880" target="_top" xlink:title="A clock tick. ">
<polygon fill="none" stroke="black" points="560,-6 560,-25 720,-25 720,-6 560,-6"/>
<text text-anchor="middle" x="640" y="-13" font-family="Helvetica,sans-Serif" font-size="10.00">nars.storage.ReasonerBatch.tick</text>
</a>
</g>
</g>
<!-- Node1446&#45;&gt;Node1447 -->
<g id="edge3" class="edge"><title>Node1446&#45;&gt;Node1447</title>
<path fill="none" stroke="midnightblue" d="M534.131,-15.5C542.696,-15.5 551.306,-15.5 559.711,-15.5"/>
<polygon fill="midnightblue" stroke="midnightblue" points="534.112,-12.0001 524.112,-15.5 534.112,-19.0001 534.112,-12.0001"/>
</g>
<!-- Node1448 -->
<g id="node5" class="node"><title>Node1448</title>
<g id="a_node5"><a xlink:href="../../d9/da1/a00396.html#a5d9cfe517bcfbe41e5251910bcd119c1" target="_top" xlink:title="Run to completion: repeatedly execute NARS working cycle, until Inputs are Finished, or 1000 steps. ">
<polygon fill="none" stroke="black" points="756,-6 756,-25 900,-25 900,-6 756,-6"/>
<text text-anchor="middle" x="828" y="-13" font-family="Helvetica,sans-Serif" font-size="10.00">nars.storage.NARSBatch.run</text>
</a>
</g>
</g>
<!-- Node1447&#45;&gt;Node1448 -->
<g id="edge4" class="edge"><title>Node1447&#45;&gt;Node1448</title>
<path fill="none" stroke="midnightblue" d="M730.217,-15.5C738.824,-15.5 747.475,-15.5 755.873,-15.5"/>
<polygon fill="midnightblue" stroke="midnightblue" points="730.15,-12.0001 720.15,-15.5 730.15,-19.0001 730.15,-12.0001"/>
</g>
<!-- Node1449 -->
<g id="node6" class="node"><title>Node1449</title>
<g id="a_node6"><a xlink:href="../../d9/da1/a00396.html#a7c307c6b842f82664de6b0e52bdf8efc" target="_top" xlink:title="non&#45;static equivalent to main(String[]) : run to completion from an input file ">
<polygon fill="none" stroke="black" points="936,-0.5 936,-30.5 1080,-30.5 1080,-0.5 936,-0.5"/>
<text text-anchor="start" x="944" y="-18.5" font-family="Helvetica,sans-Serif" font-size="10.00">nars.storage.NARSBatch.run</text>
<text text-anchor="middle" x="1008" y="-7.5" font-family="Helvetica,sans-Serif" font-size="10.00">Inference</text>
</a>
</g>
</g>
<!-- Node1448&#45;&gt;Node1449 -->
<g id="edge5" class="edge"><title>Node1448&#45;&gt;Node1449</title>
<path fill="none" stroke="midnightblue" d="M910.17,-15.5C918.789,-15.5 927.506,-15.5 935.995,-15.5"/>
<polygon fill="midnightblue" stroke="midnightblue" points="910.118,-12.0001 900.118,-15.5 910.118,-19.0001 910.118,-12.0001"/>
</g>
<!-- Node1450 -->
<g id="node7" class="node"><title>Node1450</title>
<g id="a_node7"><a xlink:href="../../d9/da1/a00396.html#abafc597289bc2f6453b5cd0dd6634e54" target="_top" xlink:title="The entry point of the standalone application. ">
<polygon fill="none" stroke="black" points="1116,-6 1116,-25 1268,-25 1268,-6 1116,-6"/>
<text text-anchor="middle" x="1192" y="-13" font-family="Helvetica,sans-Serif" font-size="10.00">nars.storage.NARSBatch.main</text>
</a>
</g>
</g>
<!-- Node1449&#45;&gt;Node1450 -->
<g id="edge6" class="edge"><title>Node1449&#45;&gt;Node1450</title>
<path fill="none" stroke="midnightblue" d="M1090.17,-15.5C1098.76,-15.5 1107.48,-15.5 1116,-15.5"/>
<polygon fill="midnightblue" stroke="midnightblue" points="1090.15,-12.0001 1080.15,-15.5 1090.15,-19.0001 1090.15,-12.0001"/>
</g>
</g>
</svg>
