<?xml version="1.0" encoding="UTF-8" standalone="no"?>
<!DOCTYPE svg PUBLIC "-//W3C//DTD SVG 1.1//EN"
 "http://www.w3.org/Graphics/SVG/1.1/DTD/svg11.dtd">
<!-- Generated by graphviz version 2.38.0 (20140413.2041)
 -->
<!-- Title: nars.storage.Memory.derivedTask Pages: 1 -->
<!--zoomable 734 -->
<svg id="main" version="1.1" xmlns="http://www.w3.org/2000/svg" xmlns:xlink="http://www.w3.org/1999/xlink" xml:space="preserve" onload="init(evt)">
<style type="text/css"><![CDATA[
.edge:hover path { stroke: red; }
.edge:hover polygon { stroke: red; fill: red; }
]]></style>
<script type="text/javascript"><![CDATA[
var edges = document.getElementsByTagName('g');
if (edges && edges.length) {
  for (var i=0;i<edges.length;i++) {
    if (edges[i].id.substr(0,4)=='edge') {
      edges[i].setAttribute('class','edge');
    }
  }
}
]]></script>
        <defs>
                <circle id="rim" cx="0" cy="0" r="7"/>
                <circle id="rim2" cx="0" cy="0" r="3.5"/>
                <g id="zoomPlus">
                        <use xlink:href="#rim" fill="#404040">
                                <set attributeName="fill" to="#808080" begin="zoomplus.mouseover" end="zoomplus.mouseout"/>
                        </use>
                        <path d="M-4,0h8M0,-4v8" fill="none" stroke="white" stroke-width="1.5" pointer-events="none"/>
                </g>
                <g id="zoomMin">
                        <use xlink:href="#rim" fill="#404040">
                                <set attributeName="fill" to="#808080" begin="zoomminus.mouseover" end="zoomminus.mouseout"/>
                        </use>
                        <path d="M-4,0h8" fill="none" stroke="white" stroke-width="1.5" pointer-events="none"/>
                </g>
                <g id="dirArrow">
                        <path fill="none" stroke="white" stroke-width="1.5" d="M0,-3.0v7 M-2.5,-0.5L0,-3.0L2.5,-0.5"/>
                </g>
               <g id="resetDef">
                       <use xlink:href="#rim2" fill="#404040">
                               <set attributeName="fill" to="#808080" begin="reset.mouseover" end="reset.mouseout"/>
                       </use>
               </g>
        </defs>

<script type="text/javascript">
var viewWidth = 1172;
var viewHeight = 734;
var sectionId = 'dynsection-8';
</script>
<script xlink:href="../../svgpan.js"/>
<svg id="graph" class="graph">
<g id="viewport">
<title>nars.storage.Memory.derivedTask</title>
<!-- Node98 -->
<g id="node1" class="node"><title>Node98</title>
<polygon fill="#bfbfbf" stroke="black" points="0,-515 0,-534 165,-534 165,-515 0,-515"/>
<text text-anchor="middle" x="82.5" y="-522" font-family="Helvetica,sans-Serif" font-size="10.00">nars.storage.Memory.derivedTask</text>
</g>
<!-- Node99 -->
<g id="node2" class="node"><title>Node99</title>
<g id="a_node2"><a xlink:href="../../dd/da2/a00192.html#ae83b822f3bab4c1831e94d72fc770f58" target="_top" xlink:title="Whether the budget should get any processing at all. ">
<polygon fill="none" stroke="black" points="209.5,-695.5 209.5,-725.5 359.5,-725.5 359.5,-695.5 209.5,-695.5"/>
<text text-anchor="start" x="217.5" y="-713.5" font-family="Helvetica,sans-Serif" font-size="10.00">nars.entity.BudgetValue.above</text>
<text text-anchor="middle" x="284.5" y="-702.5" font-family="Helvetica,sans-Serif" font-size="10.00">Threshold</text>
</a>
</g>
</g>
<!-- Node98&#45;&gt;Node99 -->
<g id="edge1" class="edge"><title>Node98&#45;&gt;Node99</title>
<path fill="none" stroke="midnightblue" d="M88.1669,-534.082C101.767,-561.046 144.034,-638.35 201,-680.5 206.433,-684.52 212.459,-688.047 218.71,-691.132"/>
<polygon fill="midnightblue" stroke="midnightblue" points="217.433,-694.396 227.986,-695.341 220.325,-688.021 217.433,-694.396"/>
</g>
<!-- Node100 -->
<g id="node3" class="node"><title>Node100</title>
<g id="a_node3"><a xlink:href="../../dd/da2/a00192.html#af414899759992288edbba78d7457c534" target="_top" xlink:title="To summarize a BudgetValue into a single number in [0, 1]. ">
<polygon fill="none" stroke="black" points="411.5,-679 411.5,-698 575.5,-698 575.5,-679 411.5,-679"/>
<text text-anchor="middle" x="493.5" y="-686" font-family="Helvetica,sans-Serif" font-size="10.00">nars.entity.BudgetValue.summary</text>
</a>
</g>
</g>
<!-- Node98&#45;&gt;Node100 -->
<g id="edge31" class="edge"><title>Node98&#45;&gt;Node100</title>
<path fill="none" stroke="midnightblue" d="M89.4396,-534.259C104.61,-558.222 147.397,-620.001 201,-647.5 235.092,-664.989 329.254,-676.057 401.421,-682.225"/>
<polygon fill="midnightblue" stroke="midnightblue" points="401.193,-685.718 411.449,-683.063 401.776,-678.743 401.193,-685.718"/>
</g>
<!-- Node102 -->
<g id="node5" class="node"><title>Node102</title>
<g id="a_node5"><a xlink:href="../../d0/dcd/a00280.html#acb473be6e5d774c10781bc8e74453459" target="_top" xlink:title="Add new text to display. ">
<polygon fill="none" stroke="black" points="201,-619 201,-638 368,-638 368,-619 201,-619"/>
<text text-anchor="middle" x="284.5" y="-626" font-family="Helvetica,sans-Serif" font-size="10.00">nars.io.IInferenceRecorder.append</text>
</a>
</g>
</g>
<!-- Node98&#45;&gt;Node102 -->
<g id="edge4" class="edge"><title>Node98&#45;&gt;Node102</title>
<path fill="none" stroke="midnightblue" d="M93.6068,-534.033C112.899,-551.693 156.986,-589.511 201,-609.5 206.401,-611.953 212.15,-614.105 218.002,-615.989"/>
<polygon fill="midnightblue" stroke="midnightblue" points="217.324,-619.438 227.906,-618.915 219.307,-612.725 217.324,-619.438"/>
</g>
<!-- Node103 -->
<g id="node6" class="node"><title>Node103</title>
<g id="a_node6"><a xlink:href="../../dc/d31/a00208.html#a54fc0a370b847dd77c0a698c765e6e55" target="_top" xlink:title="The budget of the Item, consisting of 3 numbers. ">
<polygon fill="none" stroke="black" points="218.5,-581 218.5,-600 350.5,-600 350.5,-581 218.5,-581"/>
<text text-anchor="middle" x="284.5" y="-588" font-family="Helvetica,sans-Serif" font-size="10.00">nars.entity.Item.getBudget</text>
</a>
</g>
</g>
<!-- Node98&#45;&gt;Node103 -->
<g id="edge5" class="edge"><title>Node98&#45;&gt;Node103</title>
<path fill="none" stroke="midnightblue" d="M104.795,-534.176C128.063,-544.473 166.614,-560.734 201,-571.5 209.166,-574.057 217.885,-576.433 226.482,-578.579"/>
<polygon fill="midnightblue" stroke="midnightblue" points="225.937,-582.048 236.479,-580.99 227.578,-575.243 225.937,-582.048"/>
</g>
<!-- Node104 -->
<g id="node7" class="node"><title>Node104</title>
<g id="a_node7"><a xlink:href="../../d4/d27/a00392.html#a8c50bdf4f2750032f24965e12e9fb59c" target="_top" xlink:title="List of new tasks accumulated in one cycle, to be processed in the next cycle. ">
<polygon fill="none" stroke="black" points="211.5,-531.5 211.5,-561.5 357.5,-561.5 357.5,-531.5 211.5,-531.5"/>
<text text-anchor="start" x="219.5" y="-549.5" font-family="Helvetica,sans-Serif" font-size="10.00">nars.storage.Memory.getNew</text>
<text text-anchor="middle" x="284.5" y="-538.5" font-family="Helvetica,sans-Serif" font-size="10.00">Tasks</text>
</a>
</g>
</g>
<!-- Node98&#45;&gt;Node104 -->
<g id="edge6" class="edge"><title>Node98&#45;&gt;Node104</title>
<path fill="none" stroke="midnightblue" d="M165.136,-533.48C177.119,-534.798 189.466,-536.156 201.456,-537.475"/>
<polygon fill="midnightblue" stroke="midnightblue" points="201.106,-540.958 211.429,-538.572 201.872,-534 201.106,-540.958"/>
</g>
<!-- Node105 -->
<g id="node8" class="node"><title>Node105</title>
<g id="a_node8"><a xlink:href="../../d4/d27/a00392.html#a076ad9a0e872386bca3f2d17fa7cb2d4" target="_top" xlink:title="Backward pointer to the reasoner. ">
<polygon fill="none" stroke="black" points="410,-493 410,-512 577,-512 577,-493 410,-493"/>
<text text-anchor="middle" x="493.5" y="-500" font-family="Helvetica,sans-Serif" font-size="10.00">nars.storage.Memory.getReasoner</text>
</a>
</g>
</g>
<!-- Node98&#45;&gt;Node105 -->
<g id="edge7" class="edge"><title>Node98&#45;&gt;Node105</title>
<path fill="none" stroke="midnightblue" d="M165.284,-520.101C232.941,-516.462 329.036,-511.293 399.589,-507.498"/>
<polygon fill="midnightblue" stroke="midnightblue" points="400.009,-510.98 409.807,-506.948 399.633,-503.99 400.009,-510.98"/>
</g>
<!-- Node106 -->
<g id="node9" class="node"><title>Node106</title>
<g id="a_node9"><a xlink:href="../../d4/d27/a00392.html#aa4c7e1f5823d0404c0cab49b617968f1" target="_top" xlink:title="Inference record text to be written into a log file. ">
<polygon fill="none" stroke="black" points="202,-455 202,-474 367,-474 367,-455 202,-455"/>
<text text-anchor="middle" x="284.5" y="-462" font-family="Helvetica,sans-Serif" font-size="10.00">nars.storage.Memory.getRecorder</text>
</a>
</g>
</g>
<!-- Node98&#45;&gt;Node106 -->
<g id="edge8" class="edge"><title>Node98&#45;&gt;Node106</title>
<path fill="none" stroke="midnightblue" d="M114.388,-514.905C138.064,-507.583 171.562,-497.291 201,-488.5 213.744,-484.694 227.619,-480.628 240.291,-476.945"/>
<polygon fill="midnightblue" stroke="midnightblue" points="241.522,-480.232 250.151,-474.085 239.572,-473.509 241.522,-480.232"/>
</g>
<!-- Node107 -->
<g id="node10" class="node"><title>Node107</title>
<g id="a_node10"><a xlink:href="../../d5/ddf/a00224.html#ab140cb553a6cf40b07093d1df283567f" target="_top" xlink:title="The sentence of the Task. ">
<polygon fill="none" stroke="black" points="212,-417 212,-436 357,-436 357,-417 212,-417"/>
<text text-anchor="middle" x="284.5" y="-424" font-family="Helvetica,sans-Serif" font-size="10.00">nars.entity.Task.getSentence</text>
</a>
</g>
</g>
<!-- Node98&#45;&gt;Node107 -->
<g id="edge9" class="edge"><title>Node98&#45;&gt;Node107</title>
<path fill="none" stroke="midnightblue" d="M94.6734,-514.897C114.644,-498.234 158.376,-463.982 201,-445.5 206.752,-443.006 212.878,-440.815 219.093,-438.897"/>
<polygon fill="midnightblue" stroke="midnightblue" points="220.237,-442.21 228.892,-436.1 218.316,-435.479 220.237,-442.21"/>
</g>
<!-- Node108 -->
<g id="node11" class="node"><title>Node108</title>
<g id="a_node11"><a xlink:href="../../df/d15/a00416.html#a240088fef0488e21e2f3953c92302541" target="_top" xlink:title="Report Silence Level. ">
<polygon fill="none" stroke="black" points="205.5,-367.5 205.5,-397.5 363.5,-397.5 363.5,-367.5 205.5,-367.5"/>
<text text-anchor="start" x="213.5" y="-385.5" font-family="Helvetica,sans-Serif" font-size="10.00">nars.storage.ReasonerBatch.get</text>
<text text-anchor="middle" x="284.5" y="-374.5" font-family="Helvetica,sans-Serif" font-size="10.00">SilenceValue</text>
</a>
</g>
</g>
<!-- Node98&#45;&gt;Node108 -->
<g id="edge10" class="edge"><title>Node98&#45;&gt;Node108</title>
<path fill="none" stroke="midnightblue" d="M90.5627,-514.73C107.223,-492.383 151.333,-437.188 201,-407.5 204.613,-405.34 208.428,-403.354 212.357,-401.528"/>
<polygon fill="midnightblue" stroke="midnightblue" points="213.86,-404.692 221.689,-397.553 211.117,-398.251 213.86,-404.692"/>
</g>
<!-- Node109 -->
<g id="node12" class="node"><title>Node109</title>
<g id="a_node12"><a xlink:href="../../d4/d27/a00392.html#ad89bc0ba08c0b5bfbddf247cdab5eaa9" target="_top" xlink:title="Display input/output sentence in the output channels. ">
<polygon fill="none" stroke="black" points="216,-329 216,-348 353,-348 353,-329 216,-329"/>
<text text-anchor="middle" x="284.5" y="-336" font-family="Helvetica,sans-Serif" font-size="10.00">nars.storage.Memory.report</text>
</a>
</g>
</g>
<!-- Node98&#45;&gt;Node109 -->
<g id="edge11" class="edge"><title>Node98&#45;&gt;Node109</title>
<path fill="none" stroke="midnightblue" d="M87.4015,-514.794C99.5069,-485.98 139.358,-400.341 201,-358.5 204.736,-355.964 208.76,-353.748 212.949,-351.813"/>
<polygon fill="midnightblue" stroke="midnightblue" points="214.383,-355.008 222.336,-348.008 211.753,-348.521 214.383,-355.008"/>
</g>
<!-- Node99&#45;&gt;Node100 -->
<g id="edge2" class="edge"><title>Node99&#45;&gt;Node100</title>
<path fill="none" stroke="midnightblue" d="M359.647,-702.62C373.09,-701.191 387.252,-699.686 401.121,-698.212"/>
<polygon fill="midnightblue" stroke="midnightblue" points="401.578,-701.683 411.152,-697.146 400.838,-694.722 401.578,-701.683"/>
</g>
<!-- Node101 -->
<g id="node4" class="node"><title>Node101</title>
<g id="a_node4"><a xlink:href="../../db/d12/a00268.html#ae9f34c27ee5675fa2b97f2def9e1fb99" target="_top" xlink:title="A function where the output is the geometric average the inputs. ">
<polygon fill="none" stroke="black" points="619,-679 619,-698 805,-698 805,-679 619,-679"/>
<text text-anchor="middle" x="712" y="-686" font-family="Helvetica,sans-Serif" font-size="10.00">nars.inference.UtilityFunctions.aveGeo</text>
</a>
</g>
</g>
<!-- Node100&#45;&gt;Node101 -->
<g id="edge3" class="edge"><title>Node100&#45;&gt;Node101</title>
<path fill="none" stroke="midnightblue" d="M575.733,-688.5C586.481,-688.5 597.608,-688.5 608.654,-688.5"/>
<polygon fill="midnightblue" stroke="midnightblue" points="608.761,-692 618.761,-688.5 608.761,-685 608.761,-692"/>
</g>
<!-- Node109&#45;&gt;Node105 -->
<g id="edge14" class="edge"><title>Node109&#45;&gt;Node105</title>
<path fill="none" stroke="midnightblue" d="M352.698,-348.083C358.308,-350.801 363.531,-354.217 368,-358.5 409.741,-398.501 361.735,-444.053 404,-483.5 405.508,-484.907 407.094,-486.22 408.746,-487.445"/>
<polygon fill="midnightblue" stroke="midnightblue" points="407.154,-490.576 417.5,-492.859 410.836,-484.622 407.154,-490.576"/>
</g>
<!-- Node110 -->
<g id="node13" class="node"><title>Node110</title>
<g id="a_node13"><a xlink:href="../../df/d15/a00416.html#a55398625fb088534ef3fce8c38f95423" target="_top" xlink:title="global DEBUG print switch ">
<polygon fill="none" stroke="black" points="417.5,-443.5 417.5,-473.5 569.5,-473.5 569.5,-443.5 417.5,-443.5"/>
<text text-anchor="start" x="425.5" y="-461.5" font-family="Helvetica,sans-Serif" font-size="10.00">nars.storage.ReasonerBatch.is</text>
<text text-anchor="middle" x="493.5" y="-450.5" font-family="Helvetica,sans-Serif" font-size="10.00">DEBUG</text>
</a>
</g>
</g>
<!-- Node109&#45;&gt;Node110 -->
<g id="edge12" class="edge"><title>Node109&#45;&gt;Node110</title>
<path fill="none" stroke="midnightblue" d="M349.914,-348.01C356.429,-350.709 362.616,-354.142 368,-358.5 396.737,-381.765 375.704,-409.7 404,-433.5 406.031,-435.209 408.172,-436.801 410.399,-438.284"/>
<polygon fill="midnightblue" stroke="midnightblue" points="408.965,-441.498 419.372,-443.485 412.475,-435.442 408.965,-441.498"/>
</g>
<!-- Node111 -->
<g id="node14" class="node"><title>Node111</title>
<g id="a_node14"><a xlink:href="../../df/d15/a00416.html#aeb34e5ff1c0a1f220e7b8715cee2d9d3" target="_top" xlink:title="Get the current time from the clock Called in nars.entity.Stamp. ">
<polygon fill="none" stroke="black" points="404,-405 404,-424 583,-424 583,-405 404,-405"/>
<text text-anchor="middle" x="493.5" y="-412" font-family="Helvetica,sans-Serif" font-size="10.00">nars.storage.ReasonerBatch.getTime</text>
</a>
</g>
</g>
<!-- Node109&#45;&gt;Node111 -->
<g id="edge13" class="edge"><title>Node109&#45;&gt;Node111</title>
<path fill="none" stroke="midnightblue" d="M343.022,-348.013C351.707,-350.691 360.319,-354.118 368,-358.5 387.929,-369.87 383.923,-384.394 404,-395.5 408.164,-397.803 412.581,-399.828 417.133,-401.607"/>
<polygon fill="midnightblue" stroke="midnightblue" points="416.034,-404.93 426.629,-404.925 418.343,-398.322 416.034,-404.93"/>
</g>
<!-- Node112 -->
<g id="node15" class="node"><title>Node112</title>
<g id="a_node15"><a xlink:href="../../df/d15/a00416.html#ae7cc80bb901b1e8008537fe24e5d1bb2" target="_top" xlink:title="System clock, relatively defined to guarantee the repeatability of behaviors. ">
<polygon fill="none" stroke="black" points="414.5,-355.5 414.5,-385.5 572.5,-385.5 572.5,-355.5 414.5,-355.5"/>
<text text-anchor="start" x="422.5" y="-373.5" font-family="Helvetica,sans-Serif" font-size="10.00">nars.storage.ReasonerBatch.get</text>
<text text-anchor="middle" x="493.5" y="-362.5" font-family="Helvetica,sans-Serif" font-size="10.00">Clock</text>
</a>
</g>
</g>
<!-- Node109&#45;&gt;Node112 -->
<g id="edge15" class="edge"><title>Node109&#45;&gt;Node112</title>
<path fill="none" stroke="midnightblue" d="M347.046,-348.014C365.009,-350.791 385.002,-353.882 404.272,-356.861"/>
<polygon fill="midnightblue" stroke="midnightblue" points="403.851,-360.337 414.269,-358.406 404.921,-353.42 403.851,-360.337"/>
</g>
<!-- Node113 -->
<g id="node16" class="node"><title>Node113</title>
<g id="a_node16"><a xlink:href="../../df/d15/a00416.html#a64586e56057f3a2d498dc7fd98c4f773" target="_top" xlink:title="System clock &#45; number of cycles since last output. ">
<polygon fill="none" stroke="black" points="633,-291.5 633,-321.5 791,-321.5 791,-291.5 633,-291.5"/>
<text text-anchor="start" x="641" y="-309.5" font-family="Helvetica,sans-Serif" font-size="10.00">nars.storage.ReasonerBatch.get</text>
<text text-anchor="middle" x="712" y="-298.5" font-family="Helvetica,sans-Serif" font-size="10.00">Timer</text>
</a>
</g>
</g>
<!-- Node109&#45;&gt;Node113 -->
<g id="edge16" class="edge"><title>Node109&#45;&gt;Node113</title>
<path fill="none" stroke="midnightblue" d="M353.392,-333.394C426.407,-327.903 542.771,-319.152 622.817,-313.132"/>
<polygon fill="midnightblue" stroke="midnightblue" points="623.172,-316.615 632.882,-312.375 622.647,-309.635 623.172,-316.615"/>
</g>
<!-- Node114 -->
<g id="node17" class="node"><title>Node114</title>
<g id="a_node17"><a xlink:href="../../d4/d27/a00392.html#a1a17565c7b06ca4ecc1ed57c3fce973f" target="_top" xlink:title="List of Strings or Tasks to be sent to the output channels. ">
<polygon fill="none" stroke="black" points="416.5,-267.5 416.5,-297.5 570.5,-297.5 570.5,-267.5 416.5,-267.5"/>
<text text-anchor="start" x="424.5" y="-285.5" font-family="Helvetica,sans-Serif" font-size="10.00">nars.storage.Memory.getExport</text>
<text text-anchor="middle" x="493.5" y="-274.5" font-family="Helvetica,sans-Serif" font-size="10.00">Strings</text>
</a>
</g>
</g>
<!-- Node109&#45;&gt;Node114 -->
<g id="edge17" class="edge"><title>Node109&#45;&gt;Node114</title>
<path fill="none" stroke="midnightblue" d="M321.085,-328.873C350.141,-321.013 391.984,-309.693 427.054,-300.205"/>
<polygon fill="midnightblue" stroke="midnightblue" points="428.011,-303.572 436.75,-297.582 426.183,-296.815 428.011,-303.572"/>
</g>
<!-- Node115 -->
<g id="node18" class="node"><title>Node115</title>
<g id="a_node18"><a xlink:href="../../df/d15/a00416.html#a84cc1236020f7c170bfcee70c861ce20" target="_top" xlink:title="To get the timer value and then to reset it. ">
<polygon fill="none" stroke="black" points="407,-218.5 407,-248.5 580,-248.5 580,-218.5 407,-218.5"/>
<text text-anchor="start" x="415" y="-236.5" font-family="Helvetica,sans-Serif" font-size="10.00">nars.storage.ReasonerBatch.update</text>
<text text-anchor="middle" x="493.5" y="-225.5" font-family="Helvetica,sans-Serif" font-size="10.00">Timer</text>
</a>
</g>
</g>
<!-- Node109&#45;&gt;Node115 -->
<g id="edge18" class="edge"><title>Node109&#45;&gt;Node115</title>
<path fill="none" stroke="midnightblue" d="M296.814,-328.813C317.024,-311.976 361.232,-277.228 404,-257.5 408.292,-255.52 412.778,-253.677 417.356,-251.965"/>
<polygon fill="midnightblue" stroke="midnightblue" points="418.573,-255.248 426.85,-248.634 416.255,-248.642 418.573,-255.248"/>
</g>
<!-- Node118 -->
<g id="node21" class="node"><title>Node118</title>
<g id="a_node21"><a xlink:href="../../dd/dc1/a00212.html#aea2f809b2d4c375f3c4ec3d0328d8787" target="_top" xlink:title="Get a String representation of the sentence, with 2&#45;digit accuracy. ">
<polygon fill="none" stroke="black" points="422,-168.5 422,-198.5 565,-198.5 565,-168.5 422,-168.5"/>
<text text-anchor="start" x="430" y="-186.5" font-family="Helvetica,sans-Serif" font-size="10.00">nars.entity.Sentence.toString</text>
<text text-anchor="middle" x="493.5" y="-175.5" font-family="Helvetica,sans-Serif" font-size="10.00">Brief</text>
</a>
</g>
</g>
<!-- Node109&#45;&gt;Node118 -->
<g id="edge22" class="edge"><title>Node109&#45;&gt;Node118</title>
<path fill="none" stroke="midnightblue" d="M291.394,-328.996C306.792,-304.974 350.742,-241.408 404,-208.5 407.417,-206.389 411.017,-204.451 414.731,-202.673"/>
<polygon fill="midnightblue" stroke="midnightblue" points="416.382,-205.772 424.158,-198.575 413.592,-199.352 416.382,-205.772"/>
</g>
<!-- Node115&#45;&gt;Node113 -->
<g id="edge19" class="edge"><title>Node115&#45;&gt;Node113</title>
<path fill="none" stroke="midnightblue" d="M553.3,-248.553C563.263,-251.358 573.465,-254.391 583,-257.5 610.66,-266.52 641.098,-278.101 665.349,-287.74"/>
<polygon fill="midnightblue" stroke="midnightblue" points="664.075,-290.999 674.659,-291.465 666.675,-284.5 664.075,-290.999"/>
</g>
<!-- Node116 -->
<g id="node19" class="node"><title>Node116</title>
<g id="a_node19"><a xlink:href="../../df/d15/a00416.html#aa243bca18963b74438535cd125039740" target="_top" xlink:title="nars.storage.ReasonerBatch.init\lTimer">
<polygon fill="none" stroke="black" points="633.5,-219.5 633.5,-249.5 790.5,-249.5 790.5,-219.5 633.5,-219.5"/>
<text text-anchor="start" x="641.5" y="-237.5" font-family="Helvetica,sans-Serif" font-size="10.00">nars.storage.ReasonerBatch.init</text>
<text text-anchor="middle" x="712" y="-226.5" font-family="Helvetica,sans-Serif" font-size="10.00">Timer</text>
</a>
</g>
</g>
<!-- Node115&#45;&gt;Node116 -->
<g id="edge20" class="edge"><title>Node115&#45;&gt;Node116</title>
<path fill="none" stroke="midnightblue" d="M580.067,-233.895C594.238,-233.961 608.952,-234.029 623.178,-234.094"/>
<polygon fill="midnightblue" stroke="midnightblue" points="623.42,-237.595 633.436,-234.142 623.452,-230.595 623.42,-237.595"/>
</g>
<!-- Node117 -->
<g id="node20" class="node"><title>Node117</title>
<g id="a_node20"><a xlink:href="../../df/d15/a00416.html#ac3e769632e8a90ddc85970d3fee28e5f" target="_top" xlink:title="nars.storage.ReasonerBatch.set\lTimer">
<polygon fill="none" stroke="black" points="841,-220.5 841,-250.5 999,-250.5 999,-220.5 841,-220.5"/>
<text text-anchor="start" x="849" y="-238.5" font-family="Helvetica,sans-Serif" font-size="10.00">nars.storage.ReasonerBatch.set</text>
<text text-anchor="middle" x="920" y="-227.5" font-family="Helvetica,sans-Serif" font-size="10.00">Timer</text>
</a>
</g>
</g>
<!-- Node116&#45;&gt;Node117 -->
<g id="edge21" class="edge"><title>Node116&#45;&gt;Node117</title>
<path fill="none" stroke="midnightblue" d="M790.586,-234.877C803.674,-234.94 817.345,-235.007 830.681,-235.071"/>
<polygon fill="midnightblue" stroke="midnightblue" points="830.782,-238.572 840.799,-235.12 830.816,-231.572 830.782,-238.572"/>
</g>
<!-- Node119 -->
<g id="node22" class="node"><title>Node119</title>
<g id="a_node22"><a xlink:href="../../dd/dc1/a00212.html#ac0ed749c50e55120d5b63219ed7eb082" target="_top" xlink:title="Partial record of the derivation path. ">
<polygon fill="none" stroke="black" points="650.5,-168.5 650.5,-198.5 773.5,-198.5 773.5,-168.5 650.5,-168.5"/>
<text text-anchor="start" x="658.5" y="-186.5" font-family="Helvetica,sans-Serif" font-size="10.00">nars.entity.Sentence.get</text>
<text text-anchor="middle" x="712" y="-175.5" font-family="Helvetica,sans-Serif" font-size="10.00">Stamp</text>
</a>
</g>
</g>
<!-- Node118&#45;&gt;Node119 -->
<g id="edge23" class="edge"><title>Node118&#45;&gt;Node119</title>
<path fill="none" stroke="midnightblue" d="M565.091,-183.5C589.168,-183.5 616.086,-183.5 640.181,-183.5"/>
<polygon fill="midnightblue" stroke="midnightblue" points="640.319,-187 650.319,-183.5 640.319,-180 640.319,-187"/>
</g>
<!-- Node120 -->
<g id="node23" class="node"><title>Node120</title>
<g id="a_node23"><a xlink:href="../../dd/dc1/a00212.html#a8b6d9355c0211d37f881ec6717a6b636" target="_top" xlink:title="Get a String representation of the sentence for key of Task and TaskLink. ">
<polygon fill="none" stroke="black" points="644.5,-128 644.5,-147 779.5,-147 779.5,-128 644.5,-128"/>
<text text-anchor="middle" x="712" y="-135" font-family="Helvetica,sans-Serif" font-size="10.00">nars.entity.Sentence.toKey</text>
</a>
</g>
</g>
<!-- Node118&#45;&gt;Node120 -->
<g id="edge24" class="edge"><title>Node118&#45;&gt;Node120</title>
<path fill="none" stroke="midnightblue" d="M565.091,-168.502C594.654,-162.22 628.498,-155.029 656.143,-149.155"/>
<polygon fill="midnightblue" stroke="midnightblue" points="656.974,-152.557 666.029,-147.055 655.52,-145.71 656.974,-152.557"/>
</g>
<!-- Node121 -->
<g id="node24" class="node"><title>Node121</title>
<g id="a_node24"><a xlink:href="../../dd/dc1/a00212.html#ad1ded9a02cae3557948d05530cd4d37e" target="_top" xlink:title="The content of a Sentence is a Term. ">
<polygon fill="none" stroke="black" points="858.5,-171.5 858.5,-201.5 981.5,-201.5 981.5,-171.5 858.5,-171.5"/>
<text text-anchor="start" x="866.5" y="-189.5" font-family="Helvetica,sans-Serif" font-size="10.00">nars.entity.Sentence.get</text>
<text text-anchor="middle" x="920" y="-178.5" font-family="Helvetica,sans-Serif" font-size="10.00">Content</text>
</a>
</g>
</g>
<!-- Node120&#45;&gt;Node121 -->
<g id="edge25" class="edge"><title>Node120&#45;&gt;Node121</title>
<path fill="none" stroke="midnightblue" d="M755.631,-147.078C771.182,-150.612 788.899,-154.685 805,-158.5 819.179,-161.859 834.331,-165.526 848.805,-169.067"/>
<polygon fill="midnightblue" stroke="midnightblue" points="848.152,-172.511 858.698,-171.493 849.819,-165.712 848.152,-172.511"/>
</g>
<!-- Node122 -->
<g id="node25" class="node"><title>Node122</title>
<g id="a_node25"><a xlink:href="../../dd/dc1/a00212.html#a68b153a51a5db6a4127b66158227697f" target="_top" xlink:title="The punctuation also indicates the type of the Sentence: Judgment, Question, or Goal. ">
<polygon fill="none" stroke="black" points="858.5,-122.5 858.5,-152.5 981.5,-152.5 981.5,-122.5 858.5,-122.5"/>
<text text-anchor="start" x="866.5" y="-140.5" font-family="Helvetica,sans-Serif" font-size="10.00">nars.entity.Sentence.get</text>
<text text-anchor="middle" x="920" y="-129.5" font-family="Helvetica,sans-Serif" font-size="10.00">Punctuation</text>
</a>
</g>
</g>
<!-- Node120&#45;&gt;Node122 -->
<g id="edge26" class="edge"><title>Node120&#45;&gt;Node122</title>
<path fill="none" stroke="midnightblue" d="M779.598,-137.5C801.515,-137.5 825.955,-137.5 848.174,-137.5"/>
<polygon fill="midnightblue" stroke="midnightblue" points="848.21,-141 858.21,-137.5 848.21,-134 848.21,-141"/>
</g>
<!-- Node123 -->
<g id="node26" class="node"><title>Node123</title>
<g id="a_node26"><a xlink:href="../../dd/dc1/a00212.html#a9f69b4fef64c81abad21404946cd41f9" target="_top" xlink:title="The truth value of Judgment. ">
<polygon fill="none" stroke="black" points="858.5,-73.5 858.5,-103.5 981.5,-103.5 981.5,-73.5 858.5,-73.5"/>
<text text-anchor="start" x="866.5" y="-91.5" font-family="Helvetica,sans-Serif" font-size="10.00">nars.entity.Sentence.get</text>
<text text-anchor="middle" x="920" y="-80.5" font-family="Helvetica,sans-Serif" font-size="10.00">Truth</text>
</a>
</g>
</g>
<!-- Node120&#45;&gt;Node123 -->
<g id="edge27" class="edge"><title>Node120&#45;&gt;Node123</title>
<path fill="none" stroke="midnightblue" d="M753.208,-127.936C780.15,-121.527 816.361,-112.914 848.068,-105.372"/>
<polygon fill="midnightblue" stroke="midnightblue" points="849.268,-108.684 858.187,-102.965 847.648,-101.874 849.268,-108.684"/>
</g>
<!-- Node124 -->
<g id="node27" class="node"><title>Node124</title>
<g id="a_node27"><a xlink:href="../../d7/d40/a00236.html#a5af8b2fe37987ba1e8396ec1aad38e90" target="_top" xlink:title="A simplified String representation of a TruthValue, where each factor is accruate to 1%...">
<polygon fill="none" stroke="black" points="858,-24.5 858,-54.5 982,-54.5 982,-24.5 858,-24.5"/>
<text text-anchor="start" x="866" y="-42.5" font-family="Helvetica,sans-Serif" font-size="10.00">nars.entity.TruthValue.to</text>
<text text-anchor="middle" x="920" y="-31.5" font-family="Helvetica,sans-Serif" font-size="10.00">StringBrief</text>
</a>
</g>
</g>
<!-- Node120&#45;&gt;Node124 -->
<g id="edge28" class="edge"><title>Node120&#45;&gt;Node124</title>
<path fill="none" stroke="midnightblue" d="M727.032,-127.963C750.011,-112.677 797.474,-82.4871 841,-63.5 845.395,-61.5828 849.991,-59.753 854.659,-58.0211"/>
<polygon fill="midnightblue" stroke="midnightblue" points="856.04,-61.245 864.297,-54.6068 853.703,-54.6467 856.04,-61.245"/>
</g>
<!-- Node125 -->
<g id="node28" class="node"><title>Node125</title>
<g id="a_node28"><a xlink:href="../../d7/d40/a00236.html#a68ca7d92e9ea20d2a9a9f578ad7b681c" target="_top" xlink:title="The confidence factor of the truth value. ">
<polygon fill="none" stroke="black" points="1035,-49.5 1035,-79.5 1164,-79.5 1164,-49.5 1035,-49.5"/>
<text text-anchor="start" x="1043" y="-67.5" font-family="Helvetica,sans-Serif" font-size="10.00">nars.entity.TruthValue.get</text>
<text text-anchor="middle" x="1099.5" y="-56.5" font-family="Helvetica,sans-Serif" font-size="10.00">Confidence</text>
</a>
</g>
</g>
<!-- Node124&#45;&gt;Node125 -->
<g id="edge29" class="edge"><title>Node124&#45;&gt;Node125</title>
<path fill="none" stroke="midnightblue" d="M982.085,-48.1036C995.804,-50.0357 1010.5,-52.1059 1024.68,-54.1024"/>
<polygon fill="midnightblue" stroke="midnightblue" points="1024.49,-57.6111 1034.88,-55.5401 1025.47,-50.6795 1024.49,-57.6111"/>
</g>
<!-- Node126 -->
<g id="node29" class="node"><title>Node126</title>
<g id="a_node29"><a xlink:href="../../d7/d40/a00236.html#a9eac33f2495441c77911a8581a5bbe61" target="_top" xlink:title="Get the frequency value. ">
<polygon fill="none" stroke="black" points="1035,-0.5 1035,-30.5 1164,-30.5 1164,-0.5 1035,-0.5"/>
<text text-anchor="start" x="1043" y="-18.5" font-family="Helvetica,sans-Serif" font-size="10.00">nars.entity.TruthValue.get</text>
<text text-anchor="middle" x="1099.5" y="-7.5" font-family="Helvetica,sans-Serif" font-size="10.00">Frequency</text>
</a>
</g>
</g>
<!-- Node124&#45;&gt;Node126 -->
<g id="edge30" class="edge"><title>Node124&#45;&gt;Node126</title>
<path fill="none" stroke="midnightblue" d="M982.085,-31.2406C995.804,-29.3857 1010.5,-27.3983 1024.68,-25.4817"/>
<polygon fill="midnightblue" stroke="midnightblue" points="1025.44,-28.91 1034.88,-24.1015 1024.51,-21.9731 1025.44,-28.91"/>
</g>
</g>
</svg>
        <g id="navigator" transform="translate(0 0)" fill="#404254">
                <rect fill="#f2f5e9" fill-opacity="0.5" stroke="#606060" stroke-width=".5" x="0" y="0" width="60" height="60"/>
                <use id="zoomplus" xlink:href="#zoomPlus" x="17" y="9" onmousedown="handleZoom(evt,'in')"/>
                <use id="zoomminus" xlink:href="#zoomMin" x="42" y="9" onmousedown="handleZoom(evt,'out')"/>
                <use id="reset" xlink:href="#resetDef" x="30" y="36" onmousedown="handleReset()"/>
                <g id="arrowUp" xlink:href="#dirArrow" transform="translate(30 24)" onmousedown="handlePan(0,-1)">
                  <use xlink:href="#rim" fill="#404040">
                        <set attributeName="fill" to="#808080" begin="arrowUp.mouseover" end="arrowUp.mouseout"/>
                  </use>
                  <path fill="none" stroke="white" stroke-width="1.5" d="M0,-3.0v7 M-2.5,-0.5L0,-3.0L2.5,-0.5"/>
                </g>
                <g id="arrowRight" xlink:href="#dirArrow" transform="rotate(90) translate(36 -43)" onmousedown="handlePan(1,0)">
                  <use xlink:href="#rim" fill="#404040">
                        <set attributeName="fill" to="#808080" begin="arrowRight.mouseover" end="arrowRight.mouseout"/>
                  </use>
                  <path fill="none" stroke="white" stroke-width="1.5" d="M0,-3.0v7 M-2.5,-0.5L0,-3.0L2.5,-0.5"/>
                </g>
                <g id="arrowDown" xlink:href="#dirArrow" transform="rotate(180) translate(-30 -48)" onmousedown="handlePan(0,1)">
                  <use xlink:href="#rim" fill="#404040">
                        <set attributeName="fill" to="#808080" begin="arrowDown.mouseover" end="arrowDown.mouseout"/>
                  </use>
                  <path fill="none" stroke="white" stroke-width="1.5" d="M0,-3.0v7 M-2.5,-0.5L0,-3.0L2.5,-0.5"/>
                </g>
                <g id="arrowLeft" xlink:href="#dirArrow" transform="rotate(270) translate(-36 17)" onmousedown="handlePan(-1,0)">
                  <use xlink:href="#rim" fill="#404040">
                        <set attributeName="fill" to="#808080" begin="arrowLeft.mouseover" end="arrowLeft.mouseout"/>
                  </use>
                  <path fill="none" stroke="white" stroke-width="1.5" d="M0,-3.0v7 M-2.5,-0.5L0,-3.0L2.5,-0.5"/>
                </g>
        </g>
        <svg viewBox="0 0 15 15" width="100%" height="30px" preserveAspectRatio="xMaxYMin meet">
         <g id="arrow_out" transform="scale(0.3 0.3)">
          <a xlink:href="a00392_a831fc87d7e6d1f11df73b38bdd628b9b_cgraph_org.svg" target="_base">
           <rect id="button" ry="5" rx="5" y="6" x="6" height="38" width="38"
                fill="#f2f5e9" fill-opacity="0.5" stroke="#606060" stroke-width="1.0"/>
           <path id="arrow"
             d="M 11.500037,31.436501 C 11.940474,20.09759 22.043105,11.32322 32.158766,21.979434 L 37.068811,17.246167 C 37.068811,17.246167 37.088388,32 37.088388,32 L 22.160133,31.978069 C 22.160133,31.978069 26.997745,27.140456 26.997745,27.140456 C 18.528582,18.264221 13.291696,25.230495 11.500037,31.436501 z"
             style="fill:#404040;"/>
          </a>
         </g>
        </svg>
</svg>
