<?xml version="1.0" encoding="UTF-8" standalone="no"?>
<!DOCTYPE svg PUBLIC "-//W3C//DTD SVG 1.1//EN"
 "http://www.w3.org/Graphics/SVG/1.1/DTD/svg11.dtd">
<!-- Generated by graphviz version 2.38.0 (20140413.2041)
 -->
<!-- Title: nars.storage.Memory.init Pages: 1 -->
<svg width="719pt" height="39pt"
 viewBox="0.00 0.00 719.00 39.00" xmlns="http://www.w3.org/2000/svg" xmlns:xlink="http://www.w3.org/1999/xlink">
<g id="graph0" class="graph" transform="scale(1 1) rotate(0) translate(4 35)">
<title>nars.storage.Memory.init</title>
<!-- Node1049 -->
<g id="node1" class="node"><title>Node1049</title>
<polygon fill="#bfbfbf" stroke="black" points="0,-6 0,-25 125,-25 125,-6 0,-6"/>
<text text-anchor="middle" x="62.5" y="-13" font-family="Helvetica,sans-Serif" font-size="10.00">nars.storage.Memory.init</text>
</g>
<!-- Node1050 -->
<g id="node2" class="node"><title>Node1050</title>
<g id="a_node2"><a xlink:href="../../df/d15/a00416.html#ab89758e9f42673fedcc4a895a2f4a928" target="_top" xlink:title="Reset the system with an empty memory and reset clock. ">
<polygon fill="none" stroke="black" points="161,-6 161,-25 327,-25 327,-6 161,-6"/>
<text text-anchor="middle" x="244" y="-13" font-family="Helvetica,sans-Serif" font-size="10.00">nars.storage.ReasonerBatch.reset</text>
</a>
</g>
</g>
<!-- Node1049&#45;&gt;Node1050 -->
<g id="edge1" class="edge"><title>Node1049&#45;&gt;Node1050</title>
<path fill="none" stroke="midnightblue" d="M135.209,-15.5C143.668,-15.5 152.35,-15.5 160.938,-15.5"/>
<polygon fill="midnightblue" stroke="midnightblue" points="135.023,-12.0001 125.023,-15.5 135.023,-19.0001 135.023,-12.0001"/>
</g>
<!-- Node1051 -->
<g id="node3" class="node"><title>Node1051</title>
<g id="a_node3"><a xlink:href="../../df/d15/a00416.html#a1823f1575021b1ca67e6174923923fbb" target="_top" xlink:title="To process a line of input text. ">
<polygon fill="none" stroke="black" points="363,-0.5 363,-30.5 524,-30.5 524,-0.5 363,-0.5"/>
<text text-anchor="start" x="371" y="-18.5" font-family="Helvetica,sans-Serif" font-size="10.00">nars.storage.ReasonerBatch.text</text>
<text text-anchor="middle" x="443.5" y="-7.5" font-family="Helvetica,sans-Serif" font-size="10.00">InputLine</text>
</a>
</g>
</g>
<!-- Node1050&#45;&gt;Node1051 -->
<g id="edge2" class="edge"><title>Node1050&#45;&gt;Node1051</title>
<path fill="none" stroke="midnightblue" d="M337.12,-15.5C345.745,-15.5 354.438,-15.5 362.934,-15.5"/>
<polygon fill="midnightblue" stroke="midnightblue" points="337.042,-12.0001 327.042,-15.5 337.042,-19.0001 337.042,-12.0001"/>
</g>
<!-- Node1052 -->
<g id="node4" class="node"><title>Node1052</title>
<g id="a_node4"><a xlink:href="../../d9/dd6/a00272.html#a1a4b66a6e6cf89d5c2ea7a5923195247" target="_top" xlink:title="Process the next chunk of input data TODO duplicated code with InputWindow#nextInput(). ">
<polygon fill="none" stroke="black" points="560,-0.5 560,-30.5 711,-30.5 711,-0.5 560,-0.5"/>
<text text-anchor="start" x="568" y="-18.5" font-family="Helvetica,sans-Serif" font-size="10.00">nars.io.ExperienceReader.next</text>
<text text-anchor="middle" x="635.5" y="-7.5" font-family="Helvetica,sans-Serif" font-size="10.00">Input</text>
</a>
</g>
</g>
<!-- Node1051&#45;&gt;Node1052 -->
<g id="edge3" class="edge"><title>Node1051&#45;&gt;Node1052</title>
<path fill="none" stroke="midnightblue" d="M534.529,-15.5C542.992,-15.5 551.507,-15.5 559.805,-15.5"/>
<polygon fill="midnightblue" stroke="midnightblue" points="534.251,-12.0001 524.251,-15.5 534.251,-19.0001 534.251,-12.0001"/>
</g>
</g>
</svg>
