<?xml version="1.0" encoding="UTF-8" standalone="no"?>
<!DOCTYPE svg PUBLIC "-//W3C//DTD SVG 1.1//EN"
 "http://www.w3.org/Graphics/SVG/1.1/DTD/svg11.dtd">
<!-- Generated by graphviz version 2.38.0 (20140413.2041)
 -->
<!-- Title: nars.language.ImageExt.getRelationIndex Pages: 1 -->
<!--zoomable 137 -->
<svg id="main" version="1.1" xmlns="http://www.w3.org/2000/svg" xmlns:xlink="http://www.w3.org/1999/xlink" xml:space="preserve" onload="init(evt)">
<style type="text/css"><![CDATA[
.edge:hover path { stroke: red; }
.edge:hover polygon { stroke: red; fill: red; }
]]></style>
<script type="text/javascript"><![CDATA[
var edges = document.getElementsByTagName('g');
if (edges && edges.length) {
  for (var i=0;i<edges.length;i++) {
    if (edges[i].id.substr(0,4)=='edge') {
      edges[i].setAttribute('class','edge');
    }
  }
}
]]></script>
        <defs>
                <circle id="rim" cx="0" cy="0" r="7"/>
                <circle id="rim2" cx="0" cy="0" r="3.5"/>
                <g id="zoomPlus">
                        <use xlink:href="#rim" fill="#404040">
                                <set attributeName="fill" to="#808080" begin="zoomplus.mouseover" end="zoomplus.mouseout"/>
                        </use>
                        <path d="M-4,0h8M0,-4v8" fill="none" stroke="white" stroke-width="1.5" pointer-events="none"/>
                </g>
                <g id="zoomMin">
                        <use xlink:href="#rim" fill="#404040">
                                <set attributeName="fill" to="#808080" begin="zoomminus.mouseover" end="zoomminus.mouseout"/>
                        </use>
                        <path d="M-4,0h8" fill="none" stroke="white" stroke-width="1.5" pointer-events="none"/>
                </g>
                <g id="dirArrow">
                        <path fill="none" stroke="white" stroke-width="1.5" d="M0,-3.0v7 M-2.5,-0.5L0,-3.0L2.5,-0.5"/>
                </g>
               <g id="resetDef">
                       <use xlink:href="#rim2" fill="#404040">
                               <set attributeName="fill" to="#808080" begin="reset.mouseover" end="reset.mouseout"/>
                       </use>
               </g>
        </defs>

<script type="text/javascript">
var viewWidth = 2421;
var viewHeight = 137;
var sectionId = 'dynsection-5';
</script>
<script xlink:href="../../svgpan.js"/>
<svg id="graph" class="graph">
<g id="viewport">
<title>nars.language.ImageExt.getRelationIndex</title>
<!-- Node18 -->
<g id="node1" class="node"><title>Node18</title>
<polygon fill="#bfbfbf" stroke="black" points="0,-49.5 0,-79.5 139,-79.5 139,-49.5 0,-49.5"/>
<text text-anchor="start" x="8" y="-67.5" font-family="Helvetica,sans-Serif" font-size="10.00">nars.language.ImageExt.get</text>
<text text-anchor="middle" x="69.5" y="-56.5" font-family="Helvetica,sans-Serif" font-size="10.00">RelationIndex</text>
</g>
<!-- Node19 -->
<g id="node2" class="node"><title>Node19</title>
<g id="a_node2"><a xlink:href="../../d5/d0f/a00308.html#a9671a858b21aa4e96b7159499ecef136" target="_top" xlink:title="Try to make an Image from an existing Image and a component. ">
<polygon fill="none" stroke="black" points="175,-99 175,-118 324,-118 324,-99 175,-99"/>
<text text-anchor="middle" x="249.5" y="-106" font-family="Helvetica,sans-Serif" font-size="10.00">nars.language.ImageExt.make</text>
</a>
</g>
</g>
<!-- Node18&#45;&gt;Node19 -->
<g id="edge1" class="edge"><title>Node18&#45;&gt;Node19</title>
<path fill="none" stroke="midnightblue" d="M141.191,-81.9741C164.663,-87.7763 189.912,-94.0176 210.018,-98.9876"/>
<polygon fill="midnightblue" stroke="midnightblue" points="141.807,-78.5213 131.26,-79.5192 140.128,-85.3167 141.807,-78.5213"/>
</g>
<!-- Node20 -->
<g id="node3" class="node"><title>Node20</title>
<g id="a_node3"><a xlink:href="../../d0/def/a00256.html#a0c301bbd183397254ef3aeb7d8af7480" target="_top" xlink:title="List the cases where the direction of inheritance is revised in conclusion. ">
<polygon fill="none" stroke="black" points="188,-49.5 188,-79.5 311,-79.5 311,-49.5 188,-49.5"/>
<text text-anchor="start" x="196" y="-67.5" font-family="Helvetica,sans-Serif" font-size="10.00">nars.inference.Structural</text>
<text text-anchor="middle" x="249.5" y="-56.5" font-family="Helvetica,sans-Serif" font-size="10.00">Rules.switchOrder</text>
</a>
</g>
</g>
<!-- Node18&#45;&gt;Node20 -->
<g id="edge2" class="edge"><title>Node18&#45;&gt;Node20</title>
<path fill="none" stroke="midnightblue" d="M149.333,-64.5C162.24,-64.5 175.436,-64.5 187.816,-64.5"/>
<polygon fill="midnightblue" stroke="midnightblue" points="149.065,-61.0001 139.065,-64.5 149.065,-68.0001 149.065,-61.0001"/>
</g>
<!-- Node34 -->
<g id="node17" class="node"><title>Node34</title>
<g id="a_node17"><a xlink:href="../../d0/def/a00256.html#ad34f61108459aea34b27a7547ac4ba48" target="_top" xlink:title="Equivalent transformation between products and images when the predicate is a compound {&lt;(*...">
<polygon fill="none" stroke="black" points="363,-0.5 363,-30.5 500,-30.5 500,-0.5 363,-0.5"/>
<text text-anchor="start" x="371" y="-18.5" font-family="Helvetica,sans-Serif" font-size="10.00">nars.inference.Structural</text>
<text text-anchor="middle" x="431.5" y="-7.5" font-family="Helvetica,sans-Serif" font-size="10.00">Rules.transformPredicatePI</text>
</a>
</g>
</g>
<!-- Node18&#45;&gt;Node34 -->
<g id="edge17" class="edge"><title>Node18&#45;&gt;Node34</title>
<path fill="none" stroke="midnightblue" d="M136.85,-47.1418C149.455,-44.2671 162.584,-41.5577 175,-39.5 238.293,-29.0103 311.223,-22.7278 362.922,-19.2383"/>
<polygon fill="midnightblue" stroke="midnightblue" points="135.818,-43.7886 126.878,-49.4734 137.412,-50.6048 135.818,-43.7886"/>
</g>
<!-- Node21 -->
<g id="node4" class="node"><title>Node21</title>
<g id="a_node4"><a xlink:href="../../d0/def/a00256.html#ab3d78c70d8e8086fdabdc52a343cc416" target="_top" xlink:title="{&lt;S &#45;&#45;&gt; P&gt;, S@(S&amp;T)} |&#45; &lt;(S&amp;T) &#45;&#45;&gt; (P&amp;T)&gt; {&lt;S &#45;&#45;&gt; P&gt;, S@(M&#45;S)} |&#45; &lt;(M&#45;P) &#45;&#45;&gt; (M&#45;S)&gt; ...">
<polygon fill="none" stroke="black" points="365,-98.5 365,-128.5 498,-128.5 498,-98.5 365,-98.5"/>
<text text-anchor="start" x="373" y="-116.5" font-family="Helvetica,sans-Serif" font-size="10.00">nars.inference.Structural</text>
<text text-anchor="middle" x="431.5" y="-105.5" font-family="Helvetica,sans-Serif" font-size="10.00">Rules.structuralCompose2</text>
</a>
</g>
</g>
<!-- Node20&#45;&gt;Node21 -->
<g id="edge3" class="edge"><title>Node20&#45;&gt;Node21</title>
<path fill="none" stroke="midnightblue" d="M315.698,-82.2485C335.207,-87.5591 356.402,-93.3288 375.208,-98.4484"/>
<polygon fill="midnightblue" stroke="midnightblue" points="316.543,-78.851 305.975,-79.6014 314.704,-85.6053 316.543,-78.851"/>
</g>
<!-- Node32 -->
<g id="node15" class="node"><title>Node32</title>
<g id="a_node15"><a xlink:href="../../d0/def/a00256.html#a38aabb9f3b3a70e03852da1e32ec665d" target="_top" xlink:title="{&lt;(S&amp;T) &#45;&#45;&gt; (P&amp;T)&gt;, S@(S&amp;T)} |&#45; &lt;S &#45;&#45;&gt; P&gt; ">
<polygon fill="none" stroke="black" points="360,-49.5 360,-79.5 503,-79.5 503,-49.5 360,-49.5"/>
<text text-anchor="start" x="368" y="-67.5" font-family="Helvetica,sans-Serif" font-size="10.00">nars.inference.Structural</text>
<text text-anchor="middle" x="431.5" y="-56.5" font-family="Helvetica,sans-Serif" font-size="10.00">Rules.structuralDecompose2</text>
</a>
</g>
</g>
<!-- Node20&#45;&gt;Node32 -->
<g id="edge14" class="edge"><title>Node20&#45;&gt;Node32</title>
<path fill="none" stroke="midnightblue" d="M321.226,-64.5C333.911,-64.5 347.132,-64.5 359.816,-64.5"/>
<polygon fill="midnightblue" stroke="midnightblue" points="321.189,-61.0001 311.189,-64.5 321.189,-68.0001 321.189,-61.0001"/>
</g>
<!-- Node22 -->
<g id="node5" class="node"><title>Node22</title>
<g id="a_node5"><a xlink:href="../../dc/ded/a00252.html#a54a7ceba4f123db5035e3b85063c91f1" target="_top" xlink:title="Inference between a compound term and a statement. ">
<polygon fill="none" stroke="black" points="540.5,-98.5 540.5,-128.5 719.5,-128.5 719.5,-98.5 540.5,-98.5"/>
<text text-anchor="start" x="548.5" y="-116.5" font-family="Helvetica,sans-Serif" font-size="10.00">nars.inference.RuleTables.compound</text>
<text text-anchor="middle" x="630" y="-105.5" font-family="Helvetica,sans-Serif" font-size="10.00">AndStatement</text>
</a>
</g>
</g>
<!-- Node21&#45;&gt;Node22 -->
<g id="edge4" class="edge"><title>Node21&#45;&gt;Node22</title>
<path fill="none" stroke="midnightblue" d="M508.485,-113.5C518.9,-113.5 529.668,-113.5 540.287,-113.5"/>
<polygon fill="midnightblue" stroke="midnightblue" points="508.205,-110 498.205,-113.5 508.205,-117 508.205,-110"/>
</g>
<!-- Node23 -->
<g id="node6" class="node"><title>Node23</title>
<g id="a_node6"><a xlink:href="../../dc/ded/a00252.html#ac2d01dfdc40bdd47c757cb549217e6e3" target="_top" xlink:title="Entry point of the inference engine. ">
<polygon fill="none" stroke="black" points="774,-55 774,-74 937,-74 937,-55 774,-55"/>
<text text-anchor="middle" x="855.5" y="-62" font-family="Helvetica,sans-Serif" font-size="10.00">nars.inference.RuleTables.reason</text>
</a>
</g>
</g>
<!-- Node22&#45;&gt;Node23 -->
<g id="edge5" class="edge"><title>Node22&#45;&gt;Node23</title>
<path fill="none" stroke="midnightblue" d="M709.524,-96.2844C743.611,-88.8112 782.235,-80.3433 811.041,-74.028"/>
<polygon fill="midnightblue" stroke="midnightblue" points="708.595,-92.905 699.576,-98.4654 710.094,-99.7426 708.595,-92.905"/>
</g>
<!-- Node24 -->
<g id="node7" class="node"><title>Node24</title>
<g id="a_node7"><a xlink:href="../../d7/ded/a00196.html#ad6fb91dda799c3092ecb186ef24ca92a" target="_top" xlink:title="An atomic step in a concept, only called in Memory# processConcept. ">
<polygon fill="none" stroke="black" points="990,-27.5 990,-57.5 1109,-57.5 1109,-27.5 990,-27.5"/>
<text text-anchor="start" x="998" y="-45.5" font-family="Helvetica,sans-Serif" font-size="10.00">nars.entity.Concept.fire</text>
<text text-anchor="middle" x="1049.5" y="-34.5" font-family="Helvetica,sans-Serif" font-size="10.00">FromProcessConcept</text>
</a>
</g>
</g>
<!-- Node23&#45;&gt;Node24 -->
<g id="edge6" class="edge"><title>Node23&#45;&gt;Node24</title>
<path fill="none" stroke="midnightblue" d="M947.078,-54.1212C961.567,-52.4611 976.22,-50.782 989.714,-49.2359"/>
<polygon fill="midnightblue" stroke="midnightblue" points="946.627,-50.6499 937.091,-55.2656 947.424,-57.6044 946.627,-50.6499"/>
</g>
<!-- Node25 -->
<g id="node8" class="node"><title>Node25</title>
<g id="a_node8"><a xlink:href="../../d4/d27/a00392.html#a0acc4adbf6a2462245da46bcb529746c" target="_top" xlink:title="Select a concept to fireFromProcessConcept. ">
<polygon fill="none" stroke="black" points="1145,-27.5 1145,-57.5 1291,-57.5 1291,-27.5 1145,-27.5"/>
<text text-anchor="start" x="1153" y="-45.5" font-family="Helvetica,sans-Serif" font-size="10.00">nars.storage.Memory.process</text>
<text text-anchor="middle" x="1218" y="-34.5" font-family="Helvetica,sans-Serif" font-size="10.00">Concept</text>
</a>
</g>
</g>
<!-- Node24&#45;&gt;Node25 -->
<g id="edge7" class="edge"><title>Node24&#45;&gt;Node25</title>
<path fill="none" stroke="midnightblue" d="M1119.34,-42.5C1127.75,-42.5 1136.36,-42.5 1144.82,-42.5"/>
<polygon fill="midnightblue" stroke="midnightblue" points="1119.2,-39.0001 1109.2,-42.5 1119.2,-46.0001 1119.2,-39.0001"/>
</g>
<!-- Node26 -->
<g id="node9" class="node"><title>Node26</title>
<g id="a_node9"><a xlink:href="../../d4/d27/a00392.html#a59ae339d666409988d90d29be4f73a91" target="_top" xlink:title="An atomic working workCycle of the system: process new Tasks, then fireFromProcessConcept a concept...">
<polygon fill="none" stroke="black" points="1327,-27.5 1327,-57.5 1460,-57.5 1460,-27.5 1327,-27.5"/>
<text text-anchor="start" x="1335" y="-45.5" font-family="Helvetica,sans-Serif" font-size="10.00">nars.storage.Memory.work</text>
<text text-anchor="middle" x="1393.5" y="-34.5" font-family="Helvetica,sans-Serif" font-size="10.00">Cycle</text>
</a>
</g>
</g>
<!-- Node25&#45;&gt;Node26 -->
<g id="edge8" class="edge"><title>Node25&#45;&gt;Node26</title>
<path fill="none" stroke="midnightblue" d="M1301.12,-42.5C1309.72,-42.5 1318.37,-42.5 1326.76,-42.5"/>
<polygon fill="midnightblue" stroke="midnightblue" points="1301.07,-39.0001 1291.07,-42.5 1301.07,-46.0001 1301.07,-39.0001"/>
</g>
<!-- Node27 -->
<g id="node10" class="node"><title>Node27</title>
<g id="a_node10"><a xlink:href="../../df/d15/a00416.html#a0d5c797dc17d9e8d0998852915e0f303" target="_top" xlink:title="nars.storage.ReasonerBatch.doTick">
<polygon fill="none" stroke="black" points="1496,-33 1496,-52 1669,-52 1669,-33 1496,-33"/>
<text text-anchor="middle" x="1582.5" y="-40" font-family="Helvetica,sans-Serif" font-size="10.00">nars.storage.ReasonerBatch.doTick</text>
</a>
</g>
</g>
<!-- Node26&#45;&gt;Node27 -->
<g id="edge9" class="edge"><title>Node26&#45;&gt;Node27</title>
<path fill="none" stroke="midnightblue" d="M1470.34,-42.5C1478.78,-42.5 1487.42,-42.5 1495.97,-42.5"/>
<polygon fill="midnightblue" stroke="midnightblue" points="1470.17,-39.0001 1460.17,-42.5 1470.17,-46.0001 1470.17,-39.0001"/>
</g>
<!-- Node28 -->
<g id="node11" class="node"><title>Node28</title>
<g id="a_node11"><a xlink:href="../../df/d15/a00416.html#a3468aa0f99edcd66412f27922dddb880" target="_top" xlink:title="A clock tick. ">
<polygon fill="none" stroke="black" points="1705,-33 1705,-52 1865,-52 1865,-33 1705,-33"/>
<text text-anchor="middle" x="1785" y="-40" font-family="Helvetica,sans-Serif" font-size="10.00">nars.storage.ReasonerBatch.tick</text>
</a>
</g>
</g>
<!-- Node27&#45;&gt;Node28 -->
<g id="edge10" class="edge"><title>Node27&#45;&gt;Node28</title>
<path fill="none" stroke="midnightblue" d="M1679.13,-42.5C1687.7,-42.5 1696.31,-42.5 1704.71,-42.5"/>
<polygon fill="midnightblue" stroke="midnightblue" points="1679.11,-39.0001 1669.11,-42.5 1679.11,-46.0001 1679.11,-39.0001"/>
</g>
<!-- Node29 -->
<g id="node12" class="node"><title>Node29</title>
<g id="a_node12"><a xlink:href="../../d9/da1/a00396.html#a5d9cfe517bcfbe41e5251910bcd119c1" target="_top" xlink:title="Run to completion: repeatedly execute NARS working cycle, until Inputs are Finished, or 1000 steps. ">
<polygon fill="none" stroke="black" points="1901,-33 1901,-52 2045,-52 2045,-33 1901,-33"/>
<text text-anchor="middle" x="1973" y="-40" font-family="Helvetica,sans-Serif" font-size="10.00">nars.storage.NARSBatch.run</text>
</a>
</g>
</g>
<!-- Node28&#45;&gt;Node29 -->
<g id="edge11" class="edge"><title>Node28&#45;&gt;Node29</title>
<path fill="none" stroke="midnightblue" d="M1875.22,-42.5C1883.82,-42.5 1892.47,-42.5 1900.87,-42.5"/>
<polygon fill="midnightblue" stroke="midnightblue" points="1875.15,-39.0001 1865.15,-42.5 1875.15,-46.0001 1875.15,-39.0001"/>
</g>
<!-- Node30 -->
<g id="node13" class="node"><title>Node30</title>
<g id="a_node13"><a xlink:href="../../d9/da1/a00396.html#a7c307c6b842f82664de6b0e52bdf8efc" target="_top" xlink:title="non&#45;static equivalent to main(String[]) : run to completion from an input file ">
<polygon fill="none" stroke="black" points="2081,-27.5 2081,-57.5 2225,-57.5 2225,-27.5 2081,-27.5"/>
<text text-anchor="start" x="2089" y="-45.5" font-family="Helvetica,sans-Serif" font-size="10.00">nars.storage.NARSBatch.run</text>
<text text-anchor="middle" x="2153" y="-34.5" font-family="Helvetica,sans-Serif" font-size="10.00">Inference</text>
</a>
</g>
</g>
<!-- Node29&#45;&gt;Node30 -->
<g id="edge12" class="edge"><title>Node29&#45;&gt;Node30</title>
<path fill="none" stroke="midnightblue" d="M2055.17,-42.5C2063.79,-42.5 2072.51,-42.5 2081,-42.5"/>
<polygon fill="midnightblue" stroke="midnightblue" points="2055.12,-39.0001 2045.12,-42.5 2055.12,-46.0001 2055.12,-39.0001"/>
</g>
<!-- Node31 -->
<g id="node14" class="node"><title>Node31</title>
<g id="a_node14"><a xlink:href="../../d9/da1/a00396.html#abafc597289bc2f6453b5cd0dd6634e54" target="_top" xlink:title="The entry point of the standalone application. ">
<polygon fill="none" stroke="black" points="2261,-33 2261,-52 2413,-52 2413,-33 2261,-33"/>
<text text-anchor="middle" x="2337" y="-40" font-family="Helvetica,sans-Serif" font-size="10.00">nars.storage.NARSBatch.main</text>
</a>
</g>
</g>
<!-- Node30&#45;&gt;Node31 -->
<g id="edge13" class="edge"><title>Node30&#45;&gt;Node31</title>
<path fill="none" stroke="midnightblue" d="M2235.17,-42.5C2243.76,-42.5 2252.48,-42.5 2261,-42.5"/>
<polygon fill="midnightblue" stroke="midnightblue" points="2235.15,-39.0001 2225.15,-42.5 2235.15,-46.0001 2235.15,-39.0001"/>
</g>
<!-- Node33 -->
<g id="node16" class="node"><title>Node33</title>
<g id="a_node16"><a xlink:href="../../dc/ded/a00252.html#a08680eb3f85b0a37b7bd969de8b25904" target="_top" xlink:title="Inference between a component term (of the current term) and a statement. ">
<polygon fill="none" stroke="black" points="539,-49.5 539,-79.5 721,-79.5 721,-49.5 539,-49.5"/>
<text text-anchor="start" x="547" y="-67.5" font-family="Helvetica,sans-Serif" font-size="10.00">nars.inference.RuleTables.component</text>
<text text-anchor="middle" x="630" y="-56.5" font-family="Helvetica,sans-Serif" font-size="10.00">AndStatement</text>
</a>
</g>
</g>
<!-- Node32&#45;&gt;Node33 -->
<g id="edge15" class="edge"><title>Node32&#45;&gt;Node33</title>
<path fill="none" stroke="midnightblue" d="M513.304,-64.5C521.702,-64.5 530.277,-64.5 538.771,-64.5"/>
<polygon fill="midnightblue" stroke="midnightblue" points="513.163,-61.0001 503.163,-64.5 513.163,-68.0001 513.163,-61.0001"/>
</g>
<!-- Node33&#45;&gt;Node23 -->
<g id="edge16" class="edge"><title>Node33&#45;&gt;Node23</title>
<path fill="none" stroke="midnightblue" d="M731.554,-64.5C745.765,-64.5 760.221,-64.5 773.989,-64.5"/>
<polygon fill="midnightblue" stroke="midnightblue" points="731.262,-61.0001 721.262,-64.5 731.262,-68.0001 731.262,-61.0001"/>
</g>
<!-- Node35 -->
<g id="node18" class="node"><title>Node35</title>
<g id="a_node18"><a xlink:href="../../d0/def/a00256.html#ab621fd6a291394ad962761cd0ae1ff08" target="_top" xlink:title="Equivalent transformation between products and images {&lt;(*, S, M) &#45;&#45;&gt; P&gt;, S@(*, S, M)} |&#45; &lt;S &#45;&#45;&gt; (/, P, _, M)&gt; {&lt;S &#45;&#45;&gt; (/, P, _, M)&gt;, P@(/, P, _, M)} |&#45; &lt;(*, S, M) &#45;&#45;&gt; P&gt; {&lt;S &#45;&#45;&gt; (/, P, _, M)&gt;, M@(/, P, _, M)} |&#45; &lt;M &#45;&#45;&gt; (/, P, S, _)&gt; ">
<polygon fill="none" stroke="black" points="556.5,-0.5 556.5,-30.5 703.5,-30.5 703.5,-0.5 556.5,-0.5"/>
<text text-anchor="start" x="564.5" y="-18.5" font-family="Helvetica,sans-Serif" font-size="10.00">nars.inference.Structural</text>
<text text-anchor="middle" x="630" y="-7.5" font-family="Helvetica,sans-Serif" font-size="10.00">Rules.transformProductImage</text>
</a>
</g>
</g>
<!-- Node34&#45;&gt;Node35 -->
<g id="edge18" class="edge"><title>Node34&#45;&gt;Node35</title>
<path fill="none" stroke="midnightblue" d="M510.447,-15.5C525.538,-15.5 541.298,-15.5 556.217,-15.5"/>
<polygon fill="midnightblue" stroke="midnightblue" points="510.124,-12.0001 500.124,-15.5 510.124,-19.0001 510.124,-12.0001"/>
</g>
<!-- Node36 -->
<g id="node19" class="node"><title>Node36</title>
<g id="a_node19"><a xlink:href="../../dc/ded/a00252.html#ab344d6ccee0f3671b57d092daeb65db4" target="_top" xlink:title="The TaskLink is of type TRANSFORM, and the conclusion is an equivalent transformation. ">
<polygon fill="none" stroke="black" points="757,-12 757,-31 954,-31 954,-12 757,-12"/>
<text text-anchor="middle" x="855.5" y="-19" font-family="Helvetica,sans-Serif" font-size="10.00">nars.inference.RuleTables.transformTask</text>
</a>
</g>
</g>
<!-- Node35&#45;&gt;Node36 -->
<g id="edge19" class="edge"><title>Node35&#45;&gt;Node36</title>
<path fill="none" stroke="midnightblue" d="M713.641,-17.7185C727.658,-18.0949 742.332,-18.4888 756.694,-18.8743"/>
<polygon fill="midnightblue" stroke="midnightblue" points="713.654,-14.2177 703.564,-17.448 713.466,-21.2152 713.654,-14.2177"/>
</g>
<!-- Node36&#45;&gt;Node24 -->
<g id="edge20" class="edge"><title>Node36&#45;&gt;Node24</title>
<path fill="none" stroke="midnightblue" d="M953.459,-32.1049C965.877,-33.4631 978.274,-34.819 989.818,-36.0816"/>
<polygon fill="midnightblue" stroke="midnightblue" points="953.833,-28.625 943.512,-31.0169 953.072,-35.5835 953.833,-28.625"/>
</g>
</g>
</svg>
        <g id="navigator" transform="translate(0 0)" fill="#404254">
                <rect fill="#f2f5e9" fill-opacity="0.5" stroke="#606060" stroke-width=".5" x="0" y="0" width="60" height="60"/>
                <use id="zoomplus" xlink:href="#zoomPlus" x="17" y="9" onmousedown="handleZoom(evt,'in')"/>
                <use id="zoomminus" xlink:href="#zoomMin" x="42" y="9" onmousedown="handleZoom(evt,'out')"/>
                <use id="reset" xlink:href="#resetDef" x="30" y="36" onmousedown="handleReset()"/>
                <g id="arrowUp" xlink:href="#dirArrow" transform="translate(30 24)" onmousedown="handlePan(0,-1)">
                  <use xlink:href="#rim" fill="#404040">
                        <set attributeName="fill" to="#808080" begin="arrowUp.mouseover" end="arrowUp.mouseout"/>
                  </use>
                  <path fill="none" stroke="white" stroke-width="1.5" d="M0,-3.0v7 M-2.5,-0.5L0,-3.0L2.5,-0.5"/>
                </g>
                <g id="arrowRight" xlink:href="#dirArrow" transform="rotate(90) translate(36 -43)" onmousedown="handlePan(1,0)">
                  <use xlink:href="#rim" fill="#404040">
                        <set attributeName="fill" to="#808080" begin="arrowRight.mouseover" end="arrowRight.mouseout"/>
                  </use>
                  <path fill="none" stroke="white" stroke-width="1.5" d="M0,-3.0v7 M-2.5,-0.5L0,-3.0L2.5,-0.5"/>
                </g>
                <g id="arrowDown" xlink:href="#dirArrow" transform="rotate(180) translate(-30 -48)" onmousedown="handlePan(0,1)">
                  <use xlink:href="#rim" fill="#404040">
                        <set attributeName="fill" to="#808080" begin="arrowDown.mouseover" end="arrowDown.mouseout"/>
                  </use>
                  <path fill="none" stroke="white" stroke-width="1.5" d="M0,-3.0v7 M-2.5,-0.5L0,-3.0L2.5,-0.5"/>
                </g>
                <g id="arrowLeft" xlink:href="#dirArrow" transform="rotate(270) translate(-36 17)" onmousedown="handlePan(-1,0)">
                  <use xlink:href="#rim" fill="#404040">
                        <set attributeName="fill" to="#808080" begin="arrowLeft.mouseover" end="arrowLeft.mouseout"/>
                  </use>
                  <path fill="none" stroke="white" stroke-width="1.5" d="M0,-3.0v7 M-2.5,-0.5L0,-3.0L2.5,-0.5"/>
                </g>
        </g>
        <svg viewBox="0 0 15 15" width="100%" height="30px" preserveAspectRatio="xMaxYMin meet">
         <g id="arrow_out" transform="scale(0.3 0.3)">
          <a xlink:href="a00308_a52a40e43bd7a74ef9461cbb658f86a62_icgraph_org.svg" target="_base">
           <rect id="button" ry="5" rx="5" y="6" x="6" height="38" width="38"
                fill="#f2f5e9" fill-opacity="0.5" stroke="#606060" stroke-width="1.0"/>
           <path id="arrow"
             d="M 11.500037,31.436501 C 11.940474,20.09759 22.043105,11.32322 32.158766,21.979434 L 37.068811,17.246167 C 37.068811,17.246167 37.088388,32 37.088388,32 L 22.160133,31.978069 C 22.160133,31.978069 26.997745,27.140456 26.997745,27.140456 C 18.528582,18.264221 13.291696,25.230495 11.500037,31.436501 z"
             style="fill:#404040;"/>
          </a>
         </g>
        </svg>
</svg>
