<?xml version="1.0" encoding="UTF-8" standalone="no"?>
<!DOCTYPE svg PUBLIC "-//W3C//DTD SVG 1.1//EN"
 "http://www.w3.org/Graphics/SVG/1.1/DTD/svg11.dtd">
<!-- Generated by graphviz version 2.38.0 (20140413.2041)
 -->
<!-- Title: nars.language.ImageExt.makeName Pages: 1 -->
<svg width="397pt" height="88pt"
 viewBox="0.00 0.00 397.00 88.00" xmlns="http://www.w3.org/2000/svg" xmlns:xlink="http://www.w3.org/1999/xlink">
<g id="graph0" class="graph" transform="scale(1 1) rotate(0) translate(4 84)">
<title>nars.language.ImageExt.makeName</title>
<!-- Node109 -->
<g id="node1" class="node"><title>Node109</title>
<polygon fill="#bfbfbf" stroke="black" points="0,-30 0,-49 176,-49 176,-30 0,-30"/>
<text text-anchor="middle" x="88" y="-37" font-family="Helvetica,sans-Serif" font-size="10.00">nars.language.ImageExt.makeName</text>
</g>
<!-- Node110 -->
<g id="node2" class="node"><title>Node110</title>
<g id="a_node2"><a xlink:href="../../d8/d17/a00304.html#a9778c35f9b602bee6ccac6a06809e546" target="_top" xlink:title="list of (direct) components ">
<polygon fill="none" stroke="black" points="217,-49.5 217,-79.5 384,-79.5 384,-49.5 217,-49.5"/>
<text text-anchor="start" x="225" y="-67.5" font-family="Helvetica,sans-Serif" font-size="10.00">nars.language.CompoundTerm.get</text>
<text text-anchor="middle" x="300.5" y="-56.5" font-family="Helvetica,sans-Serif" font-size="10.00">Components</text>
</a>
</g>
</g>
<!-- Node109&#45;&gt;Node110 -->
<g id="edge1" class="edge"><title>Node109&#45;&gt;Node110</title>
<path fill="none" stroke="midnightblue" d="M169.182,-49.0227C181.466,-50.4818 194.235,-51.9982 206.764,-53.4862"/>
<polygon fill="midnightblue" stroke="midnightblue" points="206.403,-56.9679 216.746,-54.6718 207.229,-50.0167 206.403,-56.9679"/>
</g>
<!-- Node111 -->
<g id="node3" class="node"><title>Node111</title>
<g id="a_node3"><a xlink:href="../../d8/d17/a00304.html#adf2b3d71c10b80f512455c952137b200" target="_top" xlink:title="default method to make the oldName of an image term from given fields ">
<polygon fill="none" stroke="black" points="212,-0.5 212,-30.5 389,-30.5 389,-0.5 212,-0.5"/>
<text text-anchor="start" x="220" y="-18.5" font-family="Helvetica,sans-Serif" font-size="10.00">nars.language.CompoundTerm.make</text>
<text text-anchor="middle" x="300.5" y="-7.5" font-family="Helvetica,sans-Serif" font-size="10.00">ImageName</text>
</a>
</g>
</g>
<!-- Node109&#45;&gt;Node111 -->
<g id="edge2" class="edge"><title>Node109&#45;&gt;Node111</title>
<path fill="none" stroke="midnightblue" d="M172.498,-29.9801C182.124,-28.8825 192.005,-27.756 201.798,-26.6394"/>
<polygon fill="midnightblue" stroke="midnightblue" points="202.418,-30.0915 211.957,-25.4811 201.625,-23.1365 202.418,-30.0915"/>
</g>
</g>
</svg>
