<?xml version="1.0" encoding="UTF-8" standalone="no"?>
<!DOCTYPE svg PUBLIC "-//W3C//DTD SVG 1.1//EN"
 "http://www.w3.org/Graphics/SVG/1.1/DTD/svg11.dtd">
<!-- Generated by graphviz version 2.38.0 (20140413.2041)
 -->
<!-- Title: nars.language.ImageExt.make Pages: 1 -->
<svg width="809pt" height="127pt"
 viewBox="0.00 0.00 809.00 126.50" xmlns="http://www.w3.org/2000/svg" xmlns:xlink="http://www.w3.org/1999/xlink">
<g id="graph0" class="graph" transform="scale(1 1) rotate(0) translate(4 122.5)">
<title>nars.language.ImageExt.make</title>
<!-- Node94 -->
<g id="node1" class="node"><title>Node94</title>
<polygon fill="#bfbfbf" stroke="black" points="0,-44.5 0,-63.5 149,-63.5 149,-44.5 0,-44.5"/>
<text text-anchor="middle" x="74.5" y="-51.5" font-family="Helvetica,sans-Serif" font-size="10.00">nars.language.ImageExt.make</text>
</g>
<!-- Node95 -->
<g id="node2" class="node"><title>Node95</title>
<g id="a_node2"><a xlink:href="../../d8/d17/a00304.html#a5a2d25a17f77d898268e1637a3aa9c4d" target="_top" xlink:title="Clone the component list. ">
<polygon fill="none" stroke="black" points="185,-88 185,-118 361,-118 361,-88 185,-88"/>
<text text-anchor="start" x="193" y="-106" font-family="Helvetica,sans-Serif" font-size="10.00">nars.language.CompoundTerm.clone</text>
<text text-anchor="middle" x="273" y="-95" font-family="Helvetica,sans-Serif" font-size="10.00">Components</text>
</a>
</g>
</g>
<!-- Node94&#45;&gt;Node95 -->
<g id="edge1" class="edge"><title>Node94&#45;&gt;Node95</title>
<path fill="none" stroke="midnightblue" d="M113.854,-63.564C138.84,-69.7947 172.183,-78.1094 201.811,-85.4974"/>
<polygon fill="midnightblue" stroke="midnightblue" points="201.149,-88.9394 211.699,-87.963 202.843,-82.1474 201.149,-88.9394"/>
</g>
<!-- Node98 -->
<g id="node5" class="node"><title>Node98</title>
<g id="a_node5"><a xlink:href="../../d5/d0f/a00308.html#a52a40e43bd7a74ef9461cbb658f86a62" target="_top" xlink:title="get the index of the relation in the component list ">
<polygon fill="none" stroke="black" points="203.5,-39 203.5,-69 342.5,-69 342.5,-39 203.5,-39"/>
<text text-anchor="start" x="211.5" y="-57" font-family="Helvetica,sans-Serif" font-size="10.00">nars.language.ImageExt.get</text>
<text text-anchor="middle" x="273" y="-46" font-family="Helvetica,sans-Serif" font-size="10.00">RelationIndex</text>
</a>
</g>
</g>
<!-- Node94&#45;&gt;Node98 -->
<g id="edge4" class="edge"><title>Node94&#45;&gt;Node98</title>
<path fill="none" stroke="midnightblue" d="M149.228,-54C163.512,-54 178.535,-54 192.981,-54"/>
<polygon fill="midnightblue" stroke="midnightblue" points="193.378,-57.5001 203.378,-54 193.378,-50.5001 193.378,-57.5001"/>
</g>
<!-- Node99 -->
<g id="node6" class="node"><title>Node99</title>
<g id="a_node6"><a xlink:href="../../d5/d0f/a00308.html#afb24af5cc6c098ad3f5d837fa383e69c" target="_top" xlink:title="Try to make a new ImageExt. ">
<polygon fill="none" stroke="black" points="198.5,-0.5 198.5,-19.5 347.5,-19.5 347.5,-0.5 198.5,-0.5"/>
<text text-anchor="middle" x="273" y="-7.5" font-family="Helvetica,sans-Serif" font-size="10.00">nars.language.ImageExt.make</text>
</a>
</g>
</g>
<!-- Node94&#45;&gt;Node99 -->
<g id="edge5" class="edge"><title>Node94&#45;&gt;Node99</title>
<path fill="none" stroke="midnightblue" d="M118.138,-44.4527C147.878,-37.7931 187.757,-28.8637 219.462,-21.7642"/>
<polygon fill="midnightblue" stroke="midnightblue" points="220.452,-25.1293 229.446,-19.5287 218.922,-18.2984 220.452,-25.1293"/>
</g>
<!-- Node96 -->
<g id="node3" class="node"><title>Node96</title>
<g id="a_node3"><a xlink:href="../../d8/d17/a00304.html#a9cb7736a3f6b220d75366ab146488773" target="_top" xlink:title="Deep clone an array list of terms. ">
<polygon fill="none" stroke="black" points="397,-93.5 397,-112.5 589,-112.5 589,-93.5 397,-93.5"/>
<text text-anchor="middle" x="493" y="-100.5" font-family="Helvetica,sans-Serif" font-size="10.00">nars.language.CompoundTerm.cloneList</text>
</a>
</g>
</g>
<!-- Node95&#45;&gt;Node96 -->
<g id="edge2" class="edge"><title>Node95&#45;&gt;Node96</title>
<path fill="none" stroke="midnightblue" d="M361.099,-103C369.538,-103 378.16,-103 386.75,-103"/>
<polygon fill="midnightblue" stroke="midnightblue" points="386.808,-106.5 396.808,-103 386.807,-99.5001 386.808,-106.5"/>
</g>
<!-- Node97 -->
<g id="node4" class="node"><title>Node97</title>
<g id="a_node4"><a xlink:href="../../d8/d17/a00304.html#a963e8aef1163f4ed8c364b5e448deaff" target="_top" xlink:title="Abstract clone method. ">
<polygon fill="none" stroke="black" points="625,-93.5 625,-112.5 801,-112.5 801,-93.5 625,-93.5"/>
<text text-anchor="middle" x="713" y="-100.5" font-family="Helvetica,sans-Serif" font-size="10.00">nars.language.CompoundTerm.clone</text>
</a>
</g>
</g>
<!-- Node96&#45;&gt;Node97 -->
<g id="edge3" class="edge"><title>Node96&#45;&gt;Node97</title>
<path fill="none" stroke="midnightblue" d="M589.301,-103C597.69,-103 606.19,-103 614.597,-103"/>
<polygon fill="midnightblue" stroke="midnightblue" points="614.791,-106.5 624.791,-103 614.791,-99.5001 614.791,-106.5"/>
</g>
</g>
</svg>
