<?xml version="1.0" encoding="UTF-8" standalone="no"?>
<!DOCTYPE svg PUBLIC "-//W3C//DTD SVG 1.1//EN"
 "http://www.w3.org/Graphics/SVG/1.1/DTD/svg11.dtd">
<!-- Generated by graphviz version 2.38.0 (20140413.2041)
 -->
<!-- Title: nars.language.ImageExt.clone Pages: 1 -->
<svg width="597pt" height="215pt"
 viewBox="0.00 0.00 597.00 214.50" xmlns="http://www.w3.org/2000/svg" xmlns:xlink="http://www.w3.org/1999/xlink">
<g id="graph0" class="graph" transform="scale(1 1) rotate(0) translate(4 210.5)">
<title>nars.language.ImageExt.clone</title>
<!-- Node6 -->
<g id="node1" class="node"><title>Node6</title>
<polygon fill="#bfbfbf" stroke="black" points="0,-94 0,-113 149,-113 149,-94 0,-94"/>
<text text-anchor="middle" x="74.5" y="-101" font-family="Helvetica,sans-Serif" font-size="10.00">nars.language.ImageExt.clone</text>
</g>
<!-- Node7 -->
<g id="node2" class="node"><title>Node7</title>
<g id="a_node2"><a xlink:href="../../d8/d17/a00304.html#a9cb7736a3f6b220d75366ab146488773" target="_top" xlink:title="Deep clone an array list of terms. ">
<polygon fill="none" stroke="black" points="185,-187 185,-206 377,-206 377,-187 185,-187"/>
<text text-anchor="middle" x="281" y="-194" font-family="Helvetica,sans-Serif" font-size="10.00">nars.language.CompoundTerm.cloneList</text>
</a>
</g>
</g>
<!-- Node6&#45;&gt;Node7 -->
<g id="edge1" class="edge"><title>Node6&#45;&gt;Node7</title>
<path fill="none" stroke="midnightblue" d="M86.4485,-113.124C105.232,-129.096 145.412,-160.956 185,-177.5 191.256,-180.114 197.898,-182.377 204.648,-184.333"/>
<polygon fill="midnightblue" stroke="midnightblue" points="204.019,-187.787 214.584,-186.985 205.825,-181.024 204.019,-187.787"/>
</g>
<!-- Node9 -->
<g id="node4" class="node"><title>Node9</title>
<g id="a_node4"><a xlink:href="../../d8/d17/a00304.html#a4f04fa1bc71ade41d35e664ff4df5475" target="_top" xlink:title="syntactic complexity of the compound, the sum of those of its components plus 1 ">
<polygon fill="none" stroke="black" points="197.5,-137.5 197.5,-167.5 364.5,-167.5 364.5,-137.5 197.5,-137.5"/>
<text text-anchor="start" x="205.5" y="-155.5" font-family="Helvetica,sans-Serif" font-size="10.00">nars.language.CompoundTerm.get</text>
<text text-anchor="middle" x="281" y="-144.5" font-family="Helvetica,sans-Serif" font-size="10.00">Complexity</text>
</a>
</g>
</g>
<!-- Node6&#45;&gt;Node9 -->
<g id="edge3" class="edge"><title>Node6&#45;&gt;Node9</title>
<path fill="none" stroke="midnightblue" d="M115.415,-113.064C141.532,-119.322 176.422,-127.682 207.355,-135.094"/>
<polygon fill="midnightblue" stroke="midnightblue" points="206.703,-138.536 217.244,-137.463 208.335,-131.729 206.703,-138.536"/>
</g>
<!-- Node10 -->
<g id="node5" class="node"><title>Node10</title>
<g id="a_node5"><a xlink:href="../../d8/d17/a00304.html#a9778c35f9b602bee6ccac6a06809e546" target="_top" xlink:title="list of (direct) components ">
<polygon fill="none" stroke="black" points="197.5,-88.5 197.5,-118.5 364.5,-118.5 364.5,-88.5 197.5,-88.5"/>
<text text-anchor="start" x="205.5" y="-106.5" font-family="Helvetica,sans-Serif" font-size="10.00">nars.language.CompoundTerm.get</text>
<text text-anchor="middle" x="281" y="-95.5" font-family="Helvetica,sans-Serif" font-size="10.00">Components</text>
</a>
</g>
</g>
<!-- Node6&#45;&gt;Node10 -->
<g id="edge4" class="edge"><title>Node6&#45;&gt;Node10</title>
<path fill="none" stroke="midnightblue" d="M149.04,-103.5C161.419,-103.5 174.408,-103.5 187.199,-103.5"/>
<polygon fill="midnightblue" stroke="midnightblue" points="187.398,-107 197.398,-103.5 187.398,-100 187.398,-107"/>
</g>
<!-- Node11 -->
<g id="node6" class="node"><title>Node11</title>
<g id="a_node6"><a xlink:href="../../d5/d0f/a00308.html#a777c1a50cfac6f496570ffd8d846a938" target="_top" xlink:title="Constructor with partial values, called by make. ">
<polygon fill="none" stroke="black" points="197.5,-50 197.5,-69 364.5,-69 364.5,-50 197.5,-50"/>
<text text-anchor="middle" x="281" y="-57" font-family="Helvetica,sans-Serif" font-size="10.00">nars.language.ImageExt.ImageExt</text>
</a>
</g>
</g>
<!-- Node6&#45;&gt;Node11 -->
<g id="edge5" class="edge"><title>Node6&#45;&gt;Node11</title>
<path fill="none" stroke="midnightblue" d="M118.648,-93.9567C138.799,-89.5218 163.118,-84.2012 185,-79.5 197.613,-76.7902 211.175,-73.913 223.993,-71.2107"/>
<polygon fill="midnightblue" stroke="midnightblue" points="225.015,-74.5723 234.08,-69.0875 223.573,-67.7223 225.015,-74.5723"/>
</g>
<!-- Node12 -->
<g id="node7" class="node"><title>Node12</title>
<g id="a_node7"><a xlink:href="../../d8/d17/a00304.html#aee0ef6fd533b58caf22bee2a98eef67d" target="_top" xlink:title="Whether the term names a concept. ">
<polygon fill="none" stroke="black" points="200.5,-0.5 200.5,-30.5 361.5,-30.5 361.5,-0.5 200.5,-0.5"/>
<text text-anchor="start" x="208.5" y="-18.5" font-family="Helvetica,sans-Serif" font-size="10.00">nars.language.CompoundTerm.is</text>
<text text-anchor="middle" x="281" y="-7.5" font-family="Helvetica,sans-Serif" font-size="10.00">Constant</text>
</a>
</g>
</g>
<!-- Node6&#45;&gt;Node12 -->
<g id="edge6" class="edge"><title>Node6&#45;&gt;Node12</title>
<path fill="none" stroke="midnightblue" d="M89.4036,-93.878C109.619,-80.2735 148.685,-55.4151 185,-40.5 191.095,-37.9968 197.513,-35.6799 204.019,-33.5498"/>
<polygon fill="midnightblue" stroke="midnightblue" points="205.084,-36.8841 213.587,-30.563 202.998,-30.2022 205.084,-36.8841"/>
</g>
<!-- Node8 -->
<g id="node3" class="node"><title>Node8</title>
<g id="a_node3"><a xlink:href="../../d8/d17/a00304.html#a963e8aef1163f4ed8c364b5e448deaff" target="_top" xlink:title="Abstract clone method. ">
<polygon fill="none" stroke="black" points="413,-187 413,-206 589,-206 589,-187 413,-187"/>
<text text-anchor="middle" x="501" y="-194" font-family="Helvetica,sans-Serif" font-size="10.00">nars.language.CompoundTerm.clone</text>
</a>
</g>
</g>
<!-- Node7&#45;&gt;Node8 -->
<g id="edge2" class="edge"><title>Node7&#45;&gt;Node8</title>
<path fill="none" stroke="midnightblue" d="M377.301,-196.5C385.69,-196.5 394.19,-196.5 402.597,-196.5"/>
<polygon fill="midnightblue" stroke="midnightblue" points="402.791,-200 412.791,-196.5 402.791,-193 402.791,-200"/>
</g>
</g>
</svg>
