<?xml version="1.0" encoding="UTF-8" standalone="no"?>
<!DOCTYPE svg PUBLIC "-//W3C//DTD SVG 1.1//EN"
 "http://www.w3.org/Graphics/SVG/1.1/DTD/svg11.dtd">
<!-- Generated by graphviz version 2.38.0 (20140413.2041)
 -->
<!-- Title: nars.inference.LocalRules.inferToSym Pages: 1 -->
<svg width="2451pt" height="39pt"
 viewBox="0.00 0.00 2451.00 39.00" xmlns="http://www.w3.org/2000/svg" xmlns:xlink="http://www.w3.org/1999/xlink">
<g id="graph0" class="graph" transform="scale(1 1) rotate(0) translate(4 35)">
<title>nars.inference.LocalRules.inferToSym</title>
<!-- Node348 -->
<g id="node1" class="node"><title>Node348</title>
<polygon fill="#bfbfbf" stroke="black" points="0,-0.5 0,-30.5 152,-30.5 152,-0.5 0,-0.5"/>
<text text-anchor="start" x="8" y="-18.5" font-family="Helvetica,sans-Serif" font-size="10.00">nars.inference.LocalRules.infer</text>
<text text-anchor="middle" x="76" y="-7.5" font-family="Helvetica,sans-Serif" font-size="10.00">ToSym</text>
</g>
<!-- Node349 -->
<g id="node2" class="node"><title>Node349</title>
<g id="a_node2"><a xlink:href="../../dd/dd7/a00248.html#a93af32adec92cf57671c32e9ccc2dffc" target="_top" xlink:title="The task and belief match reversely. ">
<polygon fill="none" stroke="black" points="188,-0.5 188,-30.5 348,-30.5 348,-0.5 188,-0.5"/>
<text text-anchor="start" x="196" y="-18.5" font-family="Helvetica,sans-Serif" font-size="10.00">nars.inference.LocalRules.match</text>
<text text-anchor="middle" x="268" y="-7.5" font-family="Helvetica,sans-Serif" font-size="10.00">Reverse</text>
</a>
</g>
</g>
<!-- Node348&#45;&gt;Node349 -->
<g id="edge1" class="edge"><title>Node348&#45;&gt;Node349</title>
<path fill="none" stroke="midnightblue" d="M162.345,-15.5C170.807,-15.5 179.372,-15.5 187.769,-15.5"/>
<polygon fill="midnightblue" stroke="midnightblue" points="162.093,-12.0001 152.093,-15.5 162.093,-19.0001 162.093,-12.0001"/>
</g>
<!-- Node350 -->
<g id="node3" class="node"><title>Node350</title>
<g id="a_node3"><a xlink:href="../../dc/ded/a00252.html#a34927349efcf87db97d23c60983b115b" target="_top" xlink:title="Syllogistic rules whose both premises are on the same asymmetric relation. ">
<polygon fill="none" stroke="black" points="384,-0.5 384,-30.5 569,-30.5 569,-0.5 384,-0.5"/>
<text text-anchor="start" x="392" y="-18.5" font-family="Helvetica,sans-Serif" font-size="10.00">nars.inference.RuleTables.asymmetric</text>
<text text-anchor="middle" x="476.5" y="-7.5" font-family="Helvetica,sans-Serif" font-size="10.00">Asymmetric</text>
</a>
</g>
</g>
<!-- Node349&#45;&gt;Node350 -->
<g id="edge2" class="edge"><title>Node349&#45;&gt;Node350</title>
<path fill="none" stroke="midnightblue" d="M358.4,-15.5C366.787,-15.5 375.297,-15.5 383.705,-15.5"/>
<polygon fill="midnightblue" stroke="midnightblue" points="358.248,-12.0001 348.248,-15.5 358.248,-19.0001 358.248,-12.0001"/>
</g>
<!-- Node351 -->
<g id="node4" class="node"><title>Node351</title>
<g id="a_node4"><a xlink:href="../../dc/ded/a00252.html#a8628d400a8ceda7fea05039ddfea319b" target="_top" xlink:title="Meta&#45;table of syllogistic rules, indexed by the content classes of the taskSentence and the belief...">
<polygon fill="none" stroke="black" points="605,-6 605,-25 785,-25 785,-6 605,-6"/>
<text text-anchor="middle" x="695" y="-13" font-family="Helvetica,sans-Serif" font-size="10.00">nars.inference.RuleTables.syllogisms</text>
</a>
</g>
</g>
<!-- Node350&#45;&gt;Node351 -->
<g id="edge3" class="edge"><title>Node350&#45;&gt;Node351</title>
<path fill="none" stroke="midnightblue" d="M579.084,-15.5C587.705,-15.5 596.383,-15.5 604.898,-15.5"/>
<polygon fill="midnightblue" stroke="midnightblue" points="579.002,-12.0001 569.002,-15.5 579.002,-19.0001 579.002,-12.0001"/>
</g>
<!-- Node352 -->
<g id="node5" class="node"><title>Node352</title>
<g id="a_node5"><a xlink:href="../../dc/ded/a00252.html#ac2d01dfdc40bdd47c757cb549217e6e3" target="_top" xlink:title="Entry point of the inference engine. ">
<polygon fill="none" stroke="black" points="821,-6 821,-25 984,-25 984,-6 821,-6"/>
<text text-anchor="middle" x="902.5" y="-13" font-family="Helvetica,sans-Serif" font-size="10.00">nars.inference.RuleTables.reason</text>
</a>
</g>
</g>
<!-- Node351&#45;&gt;Node352 -->
<g id="edge4" class="edge"><title>Node351&#45;&gt;Node352</title>
<path fill="none" stroke="midnightblue" d="M795.244,-15.5C803.792,-15.5 812.372,-15.5 820.747,-15.5"/>
<polygon fill="midnightblue" stroke="midnightblue" points="795.239,-12.0001 785.239,-15.5 795.239,-19.0001 795.239,-12.0001"/>
</g>
<!-- Node353 -->
<g id="node6" class="node"><title>Node353</title>
<g id="a_node6"><a xlink:href="../../d7/ded/a00196.html#ad6fb91dda799c3092ecb186ef24ca92a" target="_top" xlink:title="An atomic step in a concept, only called in Memory# processConcept. ">
<polygon fill="none" stroke="black" points="1020,-0.5 1020,-30.5 1139,-30.5 1139,-0.5 1020,-0.5"/>
<text text-anchor="start" x="1028" y="-18.5" font-family="Helvetica,sans-Serif" font-size="10.00">nars.entity.Concept.fire</text>
<text text-anchor="middle" x="1079.5" y="-7.5" font-family="Helvetica,sans-Serif" font-size="10.00">FromProcessConcept</text>
</a>
</g>
</g>
<!-- Node352&#45;&gt;Node353 -->
<g id="edge5" class="edge"><title>Node352&#45;&gt;Node353</title>
<path fill="none" stroke="midnightblue" d="M994.249,-15.5C1002.91,-15.5 1011.52,-15.5 1019.76,-15.5"/>
<polygon fill="midnightblue" stroke="midnightblue" points="994.085,-12.0001 984.085,-15.5 994.085,-19.0001 994.085,-12.0001"/>
</g>
<!-- Node354 -->
<g id="node7" class="node"><title>Node354</title>
<g id="a_node7"><a xlink:href="../../d4/d27/a00392.html#a0acc4adbf6a2462245da46bcb529746c" target="_top" xlink:title="Select a concept to fireFromProcessConcept. ">
<polygon fill="none" stroke="black" points="1175,-0.5 1175,-30.5 1321,-30.5 1321,-0.5 1175,-0.5"/>
<text text-anchor="start" x="1183" y="-18.5" font-family="Helvetica,sans-Serif" font-size="10.00">nars.storage.Memory.process</text>
<text text-anchor="middle" x="1248" y="-7.5" font-family="Helvetica,sans-Serif" font-size="10.00">Concept</text>
</a>
</g>
</g>
<!-- Node353&#45;&gt;Node354 -->
<g id="edge6" class="edge"><title>Node353&#45;&gt;Node354</title>
<path fill="none" stroke="midnightblue" d="M1149.34,-15.5C1157.75,-15.5 1166.36,-15.5 1174.82,-15.5"/>
<polygon fill="midnightblue" stroke="midnightblue" points="1149.2,-12.0001 1139.2,-15.5 1149.2,-19.0001 1149.2,-12.0001"/>
</g>
<!-- Node355 -->
<g id="node8" class="node"><title>Node355</title>
<g id="a_node8"><a xlink:href="../../d4/d27/a00392.html#a59ae339d666409988d90d29be4f73a91" target="_top" xlink:title="An atomic working workCycle of the system: process new Tasks, then fireFromProcessConcept a concept...">
<polygon fill="none" stroke="black" points="1357,-0.5 1357,-30.5 1490,-30.5 1490,-0.5 1357,-0.5"/>
<text text-anchor="start" x="1365" y="-18.5" font-family="Helvetica,sans-Serif" font-size="10.00">nars.storage.Memory.work</text>
<text text-anchor="middle" x="1423.5" y="-7.5" font-family="Helvetica,sans-Serif" font-size="10.00">Cycle</text>
</a>
</g>
</g>
<!-- Node354&#45;&gt;Node355 -->
<g id="edge7" class="edge"><title>Node354&#45;&gt;Node355</title>
<path fill="none" stroke="midnightblue" d="M1331.12,-15.5C1339.72,-15.5 1348.37,-15.5 1356.76,-15.5"/>
<polygon fill="midnightblue" stroke="midnightblue" points="1331.07,-12.0001 1321.07,-15.5 1331.07,-19.0001 1331.07,-12.0001"/>
</g>
<!-- Node356 -->
<g id="node9" class="node"><title>Node356</title>
<g id="a_node9"><a xlink:href="../../df/d15/a00416.html#a0d5c797dc17d9e8d0998852915e0f303" target="_top" xlink:title="nars.storage.ReasonerBatch.doTick">
<polygon fill="none" stroke="black" points="1526,-6 1526,-25 1699,-25 1699,-6 1526,-6"/>
<text text-anchor="middle" x="1612.5" y="-13" font-family="Helvetica,sans-Serif" font-size="10.00">nars.storage.ReasonerBatch.doTick</text>
</a>
</g>
</g>
<!-- Node355&#45;&gt;Node356 -->
<g id="edge8" class="edge"><title>Node355&#45;&gt;Node356</title>
<path fill="none" stroke="midnightblue" d="M1500.34,-15.5C1508.78,-15.5 1517.42,-15.5 1525.97,-15.5"/>
<polygon fill="midnightblue" stroke="midnightblue" points="1500.17,-12.0001 1490.17,-15.5 1500.17,-19.0001 1500.17,-12.0001"/>
</g>
<!-- Node357 -->
<g id="node10" class="node"><title>Node357</title>
<g id="a_node10"><a xlink:href="../../df/d15/a00416.html#a3468aa0f99edcd66412f27922dddb880" target="_top" xlink:title="A clock tick. ">
<polygon fill="none" stroke="black" points="1735,-6 1735,-25 1895,-25 1895,-6 1735,-6"/>
<text text-anchor="middle" x="1815" y="-13" font-family="Helvetica,sans-Serif" font-size="10.00">nars.storage.ReasonerBatch.tick</text>
</a>
</g>
</g>
<!-- Node356&#45;&gt;Node357 -->
<g id="edge9" class="edge"><title>Node356&#45;&gt;Node357</title>
<path fill="none" stroke="midnightblue" d="M1709.13,-15.5C1717.7,-15.5 1726.31,-15.5 1734.71,-15.5"/>
<polygon fill="midnightblue" stroke="midnightblue" points="1709.11,-12.0001 1699.11,-15.5 1709.11,-19.0001 1709.11,-12.0001"/>
</g>
<!-- Node358 -->
<g id="node11" class="node"><title>Node358</title>
<g id="a_node11"><a xlink:href="../../d9/da1/a00396.html#a5d9cfe517bcfbe41e5251910bcd119c1" target="_top" xlink:title="Run to completion: repeatedly execute NARS working cycle, until Inputs are Finished, or 1000 steps. ">
<polygon fill="none" stroke="black" points="1931,-6 1931,-25 2075,-25 2075,-6 1931,-6"/>
<text text-anchor="middle" x="2003" y="-13" font-family="Helvetica,sans-Serif" font-size="10.00">nars.storage.NARSBatch.run</text>
</a>
</g>
</g>
<!-- Node357&#45;&gt;Node358 -->
<g id="edge10" class="edge"><title>Node357&#45;&gt;Node358</title>
<path fill="none" stroke="midnightblue" d="M1905.22,-15.5C1913.82,-15.5 1922.47,-15.5 1930.87,-15.5"/>
<polygon fill="midnightblue" stroke="midnightblue" points="1905.15,-12.0001 1895.15,-15.5 1905.15,-19.0001 1905.15,-12.0001"/>
</g>
<!-- Node359 -->
<g id="node12" class="node"><title>Node359</title>
<g id="a_node12"><a xlink:href="../../d9/da1/a00396.html#a7c307c6b842f82664de6b0e52bdf8efc" target="_top" xlink:title="non&#45;static equivalent to main(String[]) : run to completion from an input file ">
<polygon fill="none" stroke="black" points="2111,-0.5 2111,-30.5 2255,-30.5 2255,-0.5 2111,-0.5"/>
<text text-anchor="start" x="2119" y="-18.5" font-family="Helvetica,sans-Serif" font-size="10.00">nars.storage.NARSBatch.run</text>
<text text-anchor="middle" x="2183" y="-7.5" font-family="Helvetica,sans-Serif" font-size="10.00">Inference</text>
</a>
</g>
</g>
<!-- Node358&#45;&gt;Node359 -->
<g id="edge11" class="edge"><title>Node358&#45;&gt;Node359</title>
<path fill="none" stroke="midnightblue" d="M2085.17,-15.5C2093.79,-15.5 2102.51,-15.5 2111,-15.5"/>
<polygon fill="midnightblue" stroke="midnightblue" points="2085.12,-12.0001 2075.12,-15.5 2085.12,-19.0001 2085.12,-12.0001"/>
</g>
<!-- Node360 -->
<g id="node13" class="node"><title>Node360</title>
<g id="a_node13"><a xlink:href="../../d9/da1/a00396.html#abafc597289bc2f6453b5cd0dd6634e54" target="_top" xlink:title="The entry point of the standalone application. ">
<polygon fill="none" stroke="black" points="2291,-6 2291,-25 2443,-25 2443,-6 2291,-6"/>
<text text-anchor="middle" x="2367" y="-13" font-family="Helvetica,sans-Serif" font-size="10.00">nars.storage.NARSBatch.main</text>
</a>
</g>
</g>
<!-- Node359&#45;&gt;Node360 -->
<g id="edge12" class="edge"><title>Node359&#45;&gt;Node360</title>
<path fill="none" stroke="midnightblue" d="M2265.17,-15.5C2273.76,-15.5 2282.48,-15.5 2291,-15.5"/>
<polygon fill="midnightblue" stroke="midnightblue" points="2265.15,-12.0001 2255.15,-15.5 2265.15,-19.0001 2265.15,-12.0001"/>
</g>
</g>
</svg>
