<?xml version="1.0" encoding="UTF-8" standalone="no"?>
<!DOCTYPE svg PUBLIC "-//W3C//DTD SVG 1.1//EN"
 "http://www.w3.org/Graphics/SVG/1.1/DTD/svg11.dtd">
<!-- Generated by graphviz version 2.38.0 (20140413.2041)
 -->
<!-- Title: nars.inference.LocalRules.conversion Pages: 1 -->
<svg width="2479pt" height="39pt"
 viewBox="0.00 0.00 2479.00 39.00" xmlns="http://www.w3.org/2000/svg" xmlns:xlink="http://www.w3.org/1999/xlink">
<g id="graph0" class="graph" transform="scale(1 1) rotate(0) translate(4 35)">
<title>nars.inference.LocalRules.conversion</title>
<!-- Node56 -->
<g id="node1" class="node"><title>Node56</title>
<polygon fill="#bfbfbf" stroke="black" points="0,-6 0,-25 180,-25 180,-6 0,-6"/>
<text text-anchor="middle" x="90" y="-13" font-family="Helvetica,sans-Serif" font-size="10.00">nars.inference.LocalRules.conversion</text>
</g>
<!-- Node57 -->
<g id="node2" class="node"><title>Node57</title>
<g id="a_node2"><a xlink:href="../../dd/dd7/a00248.html#a93af32adec92cf57671c32e9ccc2dffc" target="_top" xlink:title="The task and belief match reversely. ">
<polygon fill="none" stroke="black" points="216,-0.5 216,-30.5 376,-30.5 376,-0.5 216,-0.5"/>
<text text-anchor="start" x="224" y="-18.5" font-family="Helvetica,sans-Serif" font-size="10.00">nars.inference.LocalRules.match</text>
<text text-anchor="middle" x="296" y="-7.5" font-family="Helvetica,sans-Serif" font-size="10.00">Reverse</text>
</a>
</g>
</g>
<!-- Node56&#45;&gt;Node57 -->
<g id="edge1" class="edge"><title>Node56&#45;&gt;Node57</title>
<path fill="none" stroke="midnightblue" d="M190.263,-15.5C198.875,-15.5 207.512,-15.5 215.93,-15.5"/>
<polygon fill="midnightblue" stroke="midnightblue" points="190.181,-12.0001 180.181,-15.5 190.181,-19.0001 190.181,-12.0001"/>
</g>
<!-- Node58 -->
<g id="node3" class="node"><title>Node58</title>
<g id="a_node3"><a xlink:href="../../dc/ded/a00252.html#a34927349efcf87db97d23c60983b115b" target="_top" xlink:title="Syllogistic rules whose both premises are on the same asymmetric relation. ">
<polygon fill="none" stroke="black" points="412,-0.5 412,-30.5 597,-30.5 597,-0.5 412,-0.5"/>
<text text-anchor="start" x="420" y="-18.5" font-family="Helvetica,sans-Serif" font-size="10.00">nars.inference.RuleTables.asymmetric</text>
<text text-anchor="middle" x="504.5" y="-7.5" font-family="Helvetica,sans-Serif" font-size="10.00">Asymmetric</text>
</a>
</g>
</g>
<!-- Node57&#45;&gt;Node58 -->
<g id="edge2" class="edge"><title>Node57&#45;&gt;Node58</title>
<path fill="none" stroke="midnightblue" d="M386.4,-15.5C394.787,-15.5 403.297,-15.5 411.705,-15.5"/>
<polygon fill="midnightblue" stroke="midnightblue" points="386.248,-12.0001 376.248,-15.5 386.248,-19.0001 386.248,-12.0001"/>
</g>
<!-- Node59 -->
<g id="node4" class="node"><title>Node59</title>
<g id="a_node4"><a xlink:href="../../dc/ded/a00252.html#a8628d400a8ceda7fea05039ddfea319b" target="_top" xlink:title="Meta&#45;table of syllogistic rules, indexed by the content classes of the taskSentence and the belief...">
<polygon fill="none" stroke="black" points="633,-6 633,-25 813,-25 813,-6 633,-6"/>
<text text-anchor="middle" x="723" y="-13" font-family="Helvetica,sans-Serif" font-size="10.00">nars.inference.RuleTables.syllogisms</text>
</a>
</g>
</g>
<!-- Node58&#45;&gt;Node59 -->
<g id="edge3" class="edge"><title>Node58&#45;&gt;Node59</title>
<path fill="none" stroke="midnightblue" d="M607.084,-15.5C615.705,-15.5 624.383,-15.5 632.898,-15.5"/>
<polygon fill="midnightblue" stroke="midnightblue" points="607.002,-12.0001 597.002,-15.5 607.002,-19.0001 607.002,-12.0001"/>
</g>
<!-- Node60 -->
<g id="node5" class="node"><title>Node60</title>
<g id="a_node5"><a xlink:href="../../dc/ded/a00252.html#ac2d01dfdc40bdd47c757cb549217e6e3" target="_top" xlink:title="Entry point of the inference engine. ">
<polygon fill="none" stroke="black" points="849,-6 849,-25 1012,-25 1012,-6 849,-6"/>
<text text-anchor="middle" x="930.5" y="-13" font-family="Helvetica,sans-Serif" font-size="10.00">nars.inference.RuleTables.reason</text>
</a>
</g>
</g>
<!-- Node59&#45;&gt;Node60 -->
<g id="edge4" class="edge"><title>Node59&#45;&gt;Node60</title>
<path fill="none" stroke="midnightblue" d="M823.244,-15.5C831.792,-15.5 840.372,-15.5 848.747,-15.5"/>
<polygon fill="midnightblue" stroke="midnightblue" points="823.239,-12.0001 813.239,-15.5 823.239,-19.0001 823.239,-12.0001"/>
</g>
<!-- Node61 -->
<g id="node6" class="node"><title>Node61</title>
<g id="a_node6"><a xlink:href="../../d7/ded/a00196.html#ad6fb91dda799c3092ecb186ef24ca92a" target="_top" xlink:title="An atomic step in a concept, only called in Memory# processConcept. ">
<polygon fill="none" stroke="black" points="1048,-0.5 1048,-30.5 1167,-30.5 1167,-0.5 1048,-0.5"/>
<text text-anchor="start" x="1056" y="-18.5" font-family="Helvetica,sans-Serif" font-size="10.00">nars.entity.Concept.fire</text>
<text text-anchor="middle" x="1107.5" y="-7.5" font-family="Helvetica,sans-Serif" font-size="10.00">FromProcessConcept</text>
</a>
</g>
</g>
<!-- Node60&#45;&gt;Node61 -->
<g id="edge5" class="edge"><title>Node60&#45;&gt;Node61</title>
<path fill="none" stroke="midnightblue" d="M1022.25,-15.5C1030.91,-15.5 1039.52,-15.5 1047.76,-15.5"/>
<polygon fill="midnightblue" stroke="midnightblue" points="1022.09,-12.0001 1012.09,-15.5 1022.08,-19.0001 1022.09,-12.0001"/>
</g>
<!-- Node62 -->
<g id="node7" class="node"><title>Node62</title>
<g id="a_node7"><a xlink:href="../../d4/d27/a00392.html#a0acc4adbf6a2462245da46bcb529746c" target="_top" xlink:title="Select a concept to fireFromProcessConcept. ">
<polygon fill="none" stroke="black" points="1203,-0.5 1203,-30.5 1349,-30.5 1349,-0.5 1203,-0.5"/>
<text text-anchor="start" x="1211" y="-18.5" font-family="Helvetica,sans-Serif" font-size="10.00">nars.storage.Memory.process</text>
<text text-anchor="middle" x="1276" y="-7.5" font-family="Helvetica,sans-Serif" font-size="10.00">Concept</text>
</a>
</g>
</g>
<!-- Node61&#45;&gt;Node62 -->
<g id="edge6" class="edge"><title>Node61&#45;&gt;Node62</title>
<path fill="none" stroke="midnightblue" d="M1177.34,-15.5C1185.75,-15.5 1194.36,-15.5 1202.82,-15.5"/>
<polygon fill="midnightblue" stroke="midnightblue" points="1177.2,-12.0001 1167.2,-15.5 1177.2,-19.0001 1177.2,-12.0001"/>
</g>
<!-- Node63 -->
<g id="node8" class="node"><title>Node63</title>
<g id="a_node8"><a xlink:href="../../d4/d27/a00392.html#a59ae339d666409988d90d29be4f73a91" target="_top" xlink:title="An atomic working workCycle of the system: process new Tasks, then fireFromProcessConcept a concept...">
<polygon fill="none" stroke="black" points="1385,-0.5 1385,-30.5 1518,-30.5 1518,-0.5 1385,-0.5"/>
<text text-anchor="start" x="1393" y="-18.5" font-family="Helvetica,sans-Serif" font-size="10.00">nars.storage.Memory.work</text>
<text text-anchor="middle" x="1451.5" y="-7.5" font-family="Helvetica,sans-Serif" font-size="10.00">Cycle</text>
</a>
</g>
</g>
<!-- Node62&#45;&gt;Node63 -->
<g id="edge7" class="edge"><title>Node62&#45;&gt;Node63</title>
<path fill="none" stroke="midnightblue" d="M1359.12,-15.5C1367.72,-15.5 1376.37,-15.5 1384.76,-15.5"/>
<polygon fill="midnightblue" stroke="midnightblue" points="1359.07,-12.0001 1349.07,-15.5 1359.07,-19.0001 1359.07,-12.0001"/>
</g>
<!-- Node64 -->
<g id="node9" class="node"><title>Node64</title>
<g id="a_node9"><a xlink:href="../../df/d15/a00416.html#a0d5c797dc17d9e8d0998852915e0f303" target="_top" xlink:title="nars.storage.ReasonerBatch.doTick">
<polygon fill="none" stroke="black" points="1554,-6 1554,-25 1727,-25 1727,-6 1554,-6"/>
<text text-anchor="middle" x="1640.5" y="-13" font-family="Helvetica,sans-Serif" font-size="10.00">nars.storage.ReasonerBatch.doTick</text>
</a>
</g>
</g>
<!-- Node63&#45;&gt;Node64 -->
<g id="edge8" class="edge"><title>Node63&#45;&gt;Node64</title>
<path fill="none" stroke="midnightblue" d="M1528.34,-15.5C1536.78,-15.5 1545.42,-15.5 1553.97,-15.5"/>
<polygon fill="midnightblue" stroke="midnightblue" points="1528.17,-12.0001 1518.17,-15.5 1528.17,-19.0001 1528.17,-12.0001"/>
</g>
<!-- Node65 -->
<g id="node10" class="node"><title>Node65</title>
<g id="a_node10"><a xlink:href="../../df/d15/a00416.html#a3468aa0f99edcd66412f27922dddb880" target="_top" xlink:title="A clock tick. ">
<polygon fill="none" stroke="black" points="1763,-6 1763,-25 1923,-25 1923,-6 1763,-6"/>
<text text-anchor="middle" x="1843" y="-13" font-family="Helvetica,sans-Serif" font-size="10.00">nars.storage.ReasonerBatch.tick</text>
</a>
</g>
</g>
<!-- Node64&#45;&gt;Node65 -->
<g id="edge9" class="edge"><title>Node64&#45;&gt;Node65</title>
<path fill="none" stroke="midnightblue" d="M1737.13,-15.5C1745.7,-15.5 1754.31,-15.5 1762.71,-15.5"/>
<polygon fill="midnightblue" stroke="midnightblue" points="1737.11,-12.0001 1727.11,-15.5 1737.11,-19.0001 1737.11,-12.0001"/>
</g>
<!-- Node66 -->
<g id="node11" class="node"><title>Node66</title>
<g id="a_node11"><a xlink:href="../../d9/da1/a00396.html#a5d9cfe517bcfbe41e5251910bcd119c1" target="_top" xlink:title="Run to completion: repeatedly execute NARS working cycle, until Inputs are Finished, or 1000 steps. ">
<polygon fill="none" stroke="black" points="1959,-6 1959,-25 2103,-25 2103,-6 1959,-6"/>
<text text-anchor="middle" x="2031" y="-13" font-family="Helvetica,sans-Serif" font-size="10.00">nars.storage.NARSBatch.run</text>
</a>
</g>
</g>
<!-- Node65&#45;&gt;Node66 -->
<g id="edge10" class="edge"><title>Node65&#45;&gt;Node66</title>
<path fill="none" stroke="midnightblue" d="M1933.22,-15.5C1941.82,-15.5 1950.47,-15.5 1958.87,-15.5"/>
<polygon fill="midnightblue" stroke="midnightblue" points="1933.15,-12.0001 1923.15,-15.5 1933.15,-19.0001 1933.15,-12.0001"/>
</g>
<!-- Node67 -->
<g id="node12" class="node"><title>Node67</title>
<g id="a_node12"><a xlink:href="../../d9/da1/a00396.html#a7c307c6b842f82664de6b0e52bdf8efc" target="_top" xlink:title="non&#45;static equivalent to main(String[]) : run to completion from an input file ">
<polygon fill="none" stroke="black" points="2139,-0.5 2139,-30.5 2283,-30.5 2283,-0.5 2139,-0.5"/>
<text text-anchor="start" x="2147" y="-18.5" font-family="Helvetica,sans-Serif" font-size="10.00">nars.storage.NARSBatch.run</text>
<text text-anchor="middle" x="2211" y="-7.5" font-family="Helvetica,sans-Serif" font-size="10.00">Inference</text>
</a>
</g>
</g>
<!-- Node66&#45;&gt;Node67 -->
<g id="edge11" class="edge"><title>Node66&#45;&gt;Node67</title>
<path fill="none" stroke="midnightblue" d="M2113.17,-15.5C2121.79,-15.5 2130.51,-15.5 2139,-15.5"/>
<polygon fill="midnightblue" stroke="midnightblue" points="2113.12,-12.0001 2103.12,-15.5 2113.12,-19.0001 2113.12,-12.0001"/>
</g>
<!-- Node68 -->
<g id="node13" class="node"><title>Node68</title>
<g id="a_node13"><a xlink:href="../../d9/da1/a00396.html#abafc597289bc2f6453b5cd0dd6634e54" target="_top" xlink:title="The entry point of the standalone application. ">
<polygon fill="none" stroke="black" points="2319,-6 2319,-25 2471,-25 2471,-6 2319,-6"/>
<text text-anchor="middle" x="2395" y="-13" font-family="Helvetica,sans-Serif" font-size="10.00">nars.storage.NARSBatch.main</text>
</a>
</g>
</g>
<!-- Node67&#45;&gt;Node68 -->
<g id="edge12" class="edge"><title>Node67&#45;&gt;Node68</title>
<path fill="none" stroke="midnightblue" d="M2293.17,-15.5C2301.76,-15.5 2310.48,-15.5 2319,-15.5"/>
<polygon fill="midnightblue" stroke="midnightblue" points="2293.15,-12.0001 2283.15,-15.5 2293.15,-19.0001 2293.15,-12.0001"/>
</g>
</g>
</svg>
