<?xml version="1.0" encoding="UTF-8" standalone="no"?>
<!DOCTYPE svg PUBLIC "-//W3C//DTD SVG 1.1//EN"
 "http://www.w3.org/Graphics/SVG/1.1/DTD/svg11.dtd">
<!-- Generated by graphviz version 2.38.0 (20140413.2041)
 -->
<!-- Title: nars.inference.LocalRules.inferToAsym Pages: 1 -->
<!--zoomable 39 -->
<svg id="main" version="1.1" xmlns="http://www.w3.org/2000/svg" xmlns:xlink="http://www.w3.org/1999/xlink" xml:space="preserve" onload="init(evt)">
<style type="text/css"><![CDATA[
.edge:hover path { stroke: red; }
.edge:hover polygon { stroke: red; fill: red; }
]]></style>
<script type="text/javascript"><![CDATA[
var edges = document.getElementsByTagName('g');
if (edges && edges.length) {
  for (var i=0;i<edges.length;i++) {
    if (edges[i].id.substr(0,4)=='edge') {
      edges[i].setAttribute('class','edge');
    }
  }
}
]]></script>
        <defs>
                <circle id="rim" cx="0" cy="0" r="7"/>
                <circle id="rim2" cx="0" cy="0" r="3.5"/>
                <g id="zoomPlus">
                        <use xlink:href="#rim" fill="#404040">
                                <set attributeName="fill" to="#808080" begin="zoomplus.mouseover" end="zoomplus.mouseout"/>
                        </use>
                        <path d="M-4,0h8M0,-4v8" fill="none" stroke="white" stroke-width="1.5" pointer-events="none"/>
                </g>
                <g id="zoomMin">
                        <use xlink:href="#rim" fill="#404040">
                                <set attributeName="fill" to="#808080" begin="zoomminus.mouseover" end="zoomminus.mouseout"/>
                        </use>
                        <path d="M-4,0h8" fill="none" stroke="white" stroke-width="1.5" pointer-events="none"/>
                </g>
                <g id="dirArrow">
                        <path fill="none" stroke="white" stroke-width="1.5" d="M0,-3.0v7 M-2.5,-0.5L0,-3.0L2.5,-0.5"/>
                </g>
               <g id="resetDef">
                       <use xlink:href="#rim2" fill="#404040">
                               <set attributeName="fill" to="#808080" begin="reset.mouseover" end="reset.mouseout"/>
                       </use>
               </g>
        </defs>

<script type="text/javascript">
var viewWidth = 2451;
var viewHeight = 39;
var sectionId = 'dynsection-7';
</script>
<script xlink:href="../../svgpan.js"/>
<svg id="graph" class="graph">
<g id="viewport">
<title>nars.inference.LocalRules.inferToAsym</title>
<!-- Node268 -->
<g id="node1" class="node"><title>Node268</title>
<polygon fill="#bfbfbf" stroke="black" points="0,-0.5 0,-30.5 152,-30.5 152,-0.5 0,-0.5"/>
<text text-anchor="start" x="8" y="-18.5" font-family="Helvetica,sans-Serif" font-size="10.00">nars.inference.LocalRules.infer</text>
<text text-anchor="middle" x="76" y="-7.5" font-family="Helvetica,sans-Serif" font-size="10.00">ToAsym</text>
</g>
<!-- Node269 -->
<g id="node2" class="node"><title>Node269</title>
<g id="a_node2"><a xlink:href="../../dd/dd7/a00248.html#a901b20a8e57ac01ce97b4d1302224e39" target="_top" xlink:title="Inheritance/Implication matches Similarity/Equivalence. ">
<polygon fill="none" stroke="black" points="188,-0.5 188,-30.5 348,-30.5 348,-0.5 188,-0.5"/>
<text text-anchor="start" x="196" y="-18.5" font-family="Helvetica,sans-Serif" font-size="10.00">nars.inference.LocalRules.match</text>
<text text-anchor="middle" x="268" y="-7.5" font-family="Helvetica,sans-Serif" font-size="10.00">AsymSym</text>
</a>
</g>
</g>
<!-- Node268&#45;&gt;Node269 -->
<g id="edge1" class="edge"><title>Node268&#45;&gt;Node269</title>
<path fill="none" stroke="midnightblue" d="M162.345,-15.5C170.807,-15.5 179.372,-15.5 187.769,-15.5"/>
<polygon fill="midnightblue" stroke="midnightblue" points="162.093,-12.0001 152.093,-15.5 162.093,-19.0001 162.093,-12.0001"/>
</g>
<!-- Node270 -->
<g id="node3" class="node"><title>Node270</title>
<g id="a_node3"><a xlink:href="../../dc/ded/a00252.html#a4f61a7c2dc75c9da475030894eac0735" target="_top" xlink:title="Syllogistic rules whose first premise is on an asymmetric relation, and the second on a symmetric rel...">
<polygon fill="none" stroke="black" points="384,-0.5 384,-30.5 569,-30.5 569,-0.5 384,-0.5"/>
<text text-anchor="start" x="392" y="-18.5" font-family="Helvetica,sans-Serif" font-size="10.00">nars.inference.RuleTables.asymmetric</text>
<text text-anchor="middle" x="476.5" y="-7.5" font-family="Helvetica,sans-Serif" font-size="10.00">Symmetric</text>
</a>
</g>
</g>
<!-- Node269&#45;&gt;Node270 -->
<g id="edge2" class="edge"><title>Node269&#45;&gt;Node270</title>
<path fill="none" stroke="midnightblue" d="M358.4,-15.5C366.787,-15.5 375.297,-15.5 383.705,-15.5"/>
<polygon fill="midnightblue" stroke="midnightblue" points="358.248,-12.0001 348.248,-15.5 358.248,-19.0001 358.248,-12.0001"/>
</g>
<!-- Node271 -->
<g id="node4" class="node"><title>Node271</title>
<g id="a_node4"><a xlink:href="../../dc/ded/a00252.html#a8628d400a8ceda7fea05039ddfea319b" target="_top" xlink:title="Meta&#45;table of syllogistic rules, indexed by the content classes of the taskSentence and the belief...">
<polygon fill="none" stroke="black" points="605,-6 605,-25 785,-25 785,-6 605,-6"/>
<text text-anchor="middle" x="695" y="-13" font-family="Helvetica,sans-Serif" font-size="10.00">nars.inference.RuleTables.syllogisms</text>
</a>
</g>
</g>
<!-- Node270&#45;&gt;Node271 -->
<g id="edge3" class="edge"><title>Node270&#45;&gt;Node271</title>
<path fill="none" stroke="midnightblue" d="M579.084,-15.5C587.705,-15.5 596.383,-15.5 604.898,-15.5"/>
<polygon fill="midnightblue" stroke="midnightblue" points="579.002,-12.0001 569.002,-15.5 579.002,-19.0001 579.002,-12.0001"/>
</g>
<!-- Node272 -->
<g id="node5" class="node"><title>Node272</title>
<g id="a_node5"><a xlink:href="../../dc/ded/a00252.html#ac2d01dfdc40bdd47c757cb549217e6e3" target="_top" xlink:title="Entry point of the inference engine. ">
<polygon fill="none" stroke="black" points="821,-6 821,-25 984,-25 984,-6 821,-6"/>
<text text-anchor="middle" x="902.5" y="-13" font-family="Helvetica,sans-Serif" font-size="10.00">nars.inference.RuleTables.reason</text>
</a>
</g>
</g>
<!-- Node271&#45;&gt;Node272 -->
<g id="edge4" class="edge"><title>Node271&#45;&gt;Node272</title>
<path fill="none" stroke="midnightblue" d="M795.244,-15.5C803.792,-15.5 812.372,-15.5 820.747,-15.5"/>
<polygon fill="midnightblue" stroke="midnightblue" points="795.239,-12.0001 785.239,-15.5 795.239,-19.0001 795.239,-12.0001"/>
</g>
<!-- Node273 -->
<g id="node6" class="node"><title>Node273</title>
<g id="a_node6"><a xlink:href="../../d7/ded/a00196.html#ad6fb91dda799c3092ecb186ef24ca92a" target="_top" xlink:title="An atomic step in a concept, only called in Memory# processConcept. ">
<polygon fill="none" stroke="black" points="1020,-0.5 1020,-30.5 1139,-30.5 1139,-0.5 1020,-0.5"/>
<text text-anchor="start" x="1028" y="-18.5" font-family="Helvetica,sans-Serif" font-size="10.00">nars.entity.Concept.fire</text>
<text text-anchor="middle" x="1079.5" y="-7.5" font-family="Helvetica,sans-Serif" font-size="10.00">FromProcessConcept</text>
</a>
</g>
</g>
<!-- Node272&#45;&gt;Node273 -->
<g id="edge5" class="edge"><title>Node272&#45;&gt;Node273</title>
<path fill="none" stroke="midnightblue" d="M994.249,-15.5C1002.91,-15.5 1011.52,-15.5 1019.76,-15.5"/>
<polygon fill="midnightblue" stroke="midnightblue" points="994.085,-12.0001 984.085,-15.5 994.085,-19.0001 994.085,-12.0001"/>
</g>
<!-- Node274 -->
<g id="node7" class="node"><title>Node274</title>
<g id="a_node7"><a xlink:href="../../d4/d27/a00392.html#a0acc4adbf6a2462245da46bcb529746c" target="_top" xlink:title="Select a concept to fireFromProcessConcept. ">
<polygon fill="none" stroke="black" points="1175,-0.5 1175,-30.5 1321,-30.5 1321,-0.5 1175,-0.5"/>
<text text-anchor="start" x="1183" y="-18.5" font-family="Helvetica,sans-Serif" font-size="10.00">nars.storage.Memory.process</text>
<text text-anchor="middle" x="1248" y="-7.5" font-family="Helvetica,sans-Serif" font-size="10.00">Concept</text>
</a>
</g>
</g>
<!-- Node273&#45;&gt;Node274 -->
<g id="edge6" class="edge"><title>Node273&#45;&gt;Node274</title>
<path fill="none" stroke="midnightblue" d="M1149.34,-15.5C1157.75,-15.5 1166.36,-15.5 1174.82,-15.5"/>
<polygon fill="midnightblue" stroke="midnightblue" points="1149.2,-12.0001 1139.2,-15.5 1149.2,-19.0001 1149.2,-12.0001"/>
</g>
<!-- Node275 -->
<g id="node8" class="node"><title>Node275</title>
<g id="a_node8"><a xlink:href="../../d4/d27/a00392.html#a59ae339d666409988d90d29be4f73a91" target="_top" xlink:title="An atomic working workCycle of the system: process new Tasks, then fireFromProcessConcept a concept...">
<polygon fill="none" stroke="black" points="1357,-0.5 1357,-30.5 1490,-30.5 1490,-0.5 1357,-0.5"/>
<text text-anchor="start" x="1365" y="-18.5" font-family="Helvetica,sans-Serif" font-size="10.00">nars.storage.Memory.work</text>
<text text-anchor="middle" x="1423.5" y="-7.5" font-family="Helvetica,sans-Serif" font-size="10.00">Cycle</text>
</a>
</g>
</g>
<!-- Node274&#45;&gt;Node275 -->
<g id="edge7" class="edge"><title>Node274&#45;&gt;Node275</title>
<path fill="none" stroke="midnightblue" d="M1331.12,-15.5C1339.72,-15.5 1348.37,-15.5 1356.76,-15.5"/>
<polygon fill="midnightblue" stroke="midnightblue" points="1331.07,-12.0001 1321.07,-15.5 1331.07,-19.0001 1331.07,-12.0001"/>
</g>
<!-- Node276 -->
<g id="node9" class="node"><title>Node276</title>
<g id="a_node9"><a xlink:href="../../df/d15/a00416.html#a0d5c797dc17d9e8d0998852915e0f303" target="_top" xlink:title="nars.storage.ReasonerBatch.doTick">
<polygon fill="none" stroke="black" points="1526,-6 1526,-25 1699,-25 1699,-6 1526,-6"/>
<text text-anchor="middle" x="1612.5" y="-13" font-family="Helvetica,sans-Serif" font-size="10.00">nars.storage.ReasonerBatch.doTick</text>
</a>
</g>
</g>
<!-- Node275&#45;&gt;Node276 -->
<g id="edge8" class="edge"><title>Node275&#45;&gt;Node276</title>
<path fill="none" stroke="midnightblue" d="M1500.34,-15.5C1508.78,-15.5 1517.42,-15.5 1525.97,-15.5"/>
<polygon fill="midnightblue" stroke="midnightblue" points="1500.17,-12.0001 1490.17,-15.5 1500.17,-19.0001 1500.17,-12.0001"/>
</g>
<!-- Node277 -->
<g id="node10" class="node"><title>Node277</title>
<g id="a_node10"><a xlink:href="../../df/d15/a00416.html#a3468aa0f99edcd66412f27922dddb880" target="_top" xlink:title="A clock tick. ">
<polygon fill="none" stroke="black" points="1735,-6 1735,-25 1895,-25 1895,-6 1735,-6"/>
<text text-anchor="middle" x="1815" y="-13" font-family="Helvetica,sans-Serif" font-size="10.00">nars.storage.ReasonerBatch.tick</text>
</a>
</g>
</g>
<!-- Node276&#45;&gt;Node277 -->
<g id="edge9" class="edge"><title>Node276&#45;&gt;Node277</title>
<path fill="none" stroke="midnightblue" d="M1709.13,-15.5C1717.7,-15.5 1726.31,-15.5 1734.71,-15.5"/>
<polygon fill="midnightblue" stroke="midnightblue" points="1709.11,-12.0001 1699.11,-15.5 1709.11,-19.0001 1709.11,-12.0001"/>
</g>
<!-- Node278 -->
<g id="node11" class="node"><title>Node278</title>
<g id="a_node11"><a xlink:href="../../d9/da1/a00396.html#a5d9cfe517bcfbe41e5251910bcd119c1" target="_top" xlink:title="Run to completion: repeatedly execute NARS working cycle, until Inputs are Finished, or 1000 steps. ">
<polygon fill="none" stroke="black" points="1931,-6 1931,-25 2075,-25 2075,-6 1931,-6"/>
<text text-anchor="middle" x="2003" y="-13" font-family="Helvetica,sans-Serif" font-size="10.00">nars.storage.NARSBatch.run</text>
</a>
</g>
</g>
<!-- Node277&#45;&gt;Node278 -->
<g id="edge10" class="edge"><title>Node277&#45;&gt;Node278</title>
<path fill="none" stroke="midnightblue" d="M1905.22,-15.5C1913.82,-15.5 1922.47,-15.5 1930.87,-15.5"/>
<polygon fill="midnightblue" stroke="midnightblue" points="1905.15,-12.0001 1895.15,-15.5 1905.15,-19.0001 1905.15,-12.0001"/>
</g>
<!-- Node279 -->
<g id="node12" class="node"><title>Node279</title>
<g id="a_node12"><a xlink:href="../../d9/da1/a00396.html#a7c307c6b842f82664de6b0e52bdf8efc" target="_top" xlink:title="non&#45;static equivalent to main(String[]) : run to completion from an input file ">
<polygon fill="none" stroke="black" points="2111,-0.5 2111,-30.5 2255,-30.5 2255,-0.5 2111,-0.5"/>
<text text-anchor="start" x="2119" y="-18.5" font-family="Helvetica,sans-Serif" font-size="10.00">nars.storage.NARSBatch.run</text>
<text text-anchor="middle" x="2183" y="-7.5" font-family="Helvetica,sans-Serif" font-size="10.00">Inference</text>
</a>
</g>
</g>
<!-- Node278&#45;&gt;Node279 -->
<g id="edge11" class="edge"><title>Node278&#45;&gt;Node279</title>
<path fill="none" stroke="midnightblue" d="M2085.17,-15.5C2093.79,-15.5 2102.51,-15.5 2111,-15.5"/>
<polygon fill="midnightblue" stroke="midnightblue" points="2085.12,-12.0001 2075.12,-15.5 2085.12,-19.0001 2085.12,-12.0001"/>
</g>
<!-- Node280 -->
<g id="node13" class="node"><title>Node280</title>
<g id="a_node13"><a xlink:href="../../d9/da1/a00396.html#abafc597289bc2f6453b5cd0dd6634e54" target="_top" xlink:title="The entry point of the standalone application. ">
<polygon fill="none" stroke="black" points="2291,-6 2291,-25 2443,-25 2443,-6 2291,-6"/>
<text text-anchor="middle" x="2367" y="-13" font-family="Helvetica,sans-Serif" font-size="10.00">nars.storage.NARSBatch.main</text>
</a>
</g>
</g>
<!-- Node279&#45;&gt;Node280 -->
<g id="edge12" class="edge"><title>Node279&#45;&gt;Node280</title>
<path fill="none" stroke="midnightblue" d="M2265.17,-15.5C2273.76,-15.5 2282.48,-15.5 2291,-15.5"/>
<polygon fill="midnightblue" stroke="midnightblue" points="2265.15,-12.0001 2255.15,-15.5 2265.15,-19.0001 2265.15,-12.0001"/>
</g>
</g>
</svg>
        <g id="navigator" transform="translate(0 0)" fill="#404254">
                <rect fill="#f2f5e9" fill-opacity="0.5" stroke="#606060" stroke-width=".5" x="0" y="0" width="60" height="60"/>
                <use id="zoomplus" xlink:href="#zoomPlus" x="17" y="9" onmousedown="handleZoom(evt,'in')"/>
                <use id="zoomminus" xlink:href="#zoomMin" x="42" y="9" onmousedown="handleZoom(evt,'out')"/>
                <use id="reset" xlink:href="#resetDef" x="30" y="36" onmousedown="handleReset()"/>
                <g id="arrowUp" xlink:href="#dirArrow" transform="translate(30 24)" onmousedown="handlePan(0,-1)">
                  <use xlink:href="#rim" fill="#404040">
                        <set attributeName="fill" to="#808080" begin="arrowUp.mouseover" end="arrowUp.mouseout"/>
                  </use>
                  <path fill="none" stroke="white" stroke-width="1.5" d="M0,-3.0v7 M-2.5,-0.5L0,-3.0L2.5,-0.5"/>
                </g>
                <g id="arrowRight" xlink:href="#dirArrow" transform="rotate(90) translate(36 -43)" onmousedown="handlePan(1,0)">
                  <use xlink:href="#rim" fill="#404040">
                        <set attributeName="fill" to="#808080" begin="arrowRight.mouseover" end="arrowRight.mouseout"/>
                  </use>
                  <path fill="none" stroke="white" stroke-width="1.5" d="M0,-3.0v7 M-2.5,-0.5L0,-3.0L2.5,-0.5"/>
                </g>
                <g id="arrowDown" xlink:href="#dirArrow" transform="rotate(180) translate(-30 -48)" onmousedown="handlePan(0,1)">
                  <use xlink:href="#rim" fill="#404040">
                        <set attributeName="fill" to="#808080" begin="arrowDown.mouseover" end="arrowDown.mouseout"/>
                  </use>
                  <path fill="none" stroke="white" stroke-width="1.5" d="M0,-3.0v7 M-2.5,-0.5L0,-3.0L2.5,-0.5"/>
                </g>
                <g id="arrowLeft" xlink:href="#dirArrow" transform="rotate(270) translate(-36 17)" onmousedown="handlePan(-1,0)">
                  <use xlink:href="#rim" fill="#404040">
                        <set attributeName="fill" to="#808080" begin="arrowLeft.mouseover" end="arrowLeft.mouseout"/>
                  </use>
                  <path fill="none" stroke="white" stroke-width="1.5" d="M0,-3.0v7 M-2.5,-0.5L0,-3.0L2.5,-0.5"/>
                </g>
        </g>
        <svg viewBox="0 0 15 15" width="100%" height="30px" preserveAspectRatio="xMaxYMin meet">
         <g id="arrow_out" transform="scale(0.3 0.3)">
          <a xlink:href="a00248_abde426effec7b2e378751a9fa8769356_icgraph_org.svg" target="_base">
           <rect id="button" ry="5" rx="5" y="6" x="6" height="38" width="38"
                fill="#f2f5e9" fill-opacity="0.5" stroke="#606060" stroke-width="1.0"/>
           <path id="arrow"
             d="M 11.500037,31.436501 C 11.940474,20.09759 22.043105,11.32322 32.158766,21.979434 L 37.068811,17.246167 C 37.068811,17.246167 37.088388,32 37.088388,32 L 22.160133,31.978069 C 22.160133,31.978069 26.997745,27.140456 26.997745,27.140456 C 18.528582,18.264221 13.291696,25.230495 11.500037,31.436501 z"
             style="fill:#404040;"/>
          </a>
         </g>
        </svg>
</svg>
