<?xml version="1.0" encoding="UTF-8" standalone="no"?>
<!DOCTYPE svg PUBLIC "-//W3C//DTD SVG 1.1//EN"
 "http://www.w3.org/Graphics/SVG/1.1/DTD/svg11.dtd">
<!-- Generated by graphviz version 2.38.0 (20140413.2041)
 -->
<!-- Title: nars.inference.LocalRules.revisible Pages: 1 -->
<!--zoomable 137 -->
<svg id="main" version="1.1" xmlns="http://www.w3.org/2000/svg" xmlns:xlink="http://www.w3.org/1999/xlink" xml:space="preserve" onload="init(evt)">
<style type="text/css"><![CDATA[
.edge:hover path { stroke: red; }
.edge:hover polygon { stroke: red; fill: red; }
]]></style>
<script type="text/javascript"><![CDATA[
var edges = document.getElementsByTagName('g');
if (edges && edges.length) {
  for (var i=0;i<edges.length;i++) {
    if (edges[i].id.substr(0,4)=='edge') {
      edges[i].setAttribute('class','edge');
    }
  }
}
]]></script>
        <defs>
                <circle id="rim" cx="0" cy="0" r="7"/>
                <circle id="rim2" cx="0" cy="0" r="3.5"/>
                <g id="zoomPlus">
                        <use xlink:href="#rim" fill="#404040">
                                <set attributeName="fill" to="#808080" begin="zoomplus.mouseover" end="zoomplus.mouseout"/>
                        </use>
                        <path d="M-4,0h8M0,-4v8" fill="none" stroke="white" stroke-width="1.5" pointer-events="none"/>
                </g>
                <g id="zoomMin">
                        <use xlink:href="#rim" fill="#404040">
                                <set attributeName="fill" to="#808080" begin="zoomminus.mouseover" end="zoomminus.mouseout"/>
                        </use>
                        <path d="M-4,0h8" fill="none" stroke="white" stroke-width="1.5" pointer-events="none"/>
                </g>
                <g id="dirArrow">
                        <path fill="none" stroke="white" stroke-width="1.5" d="M0,-3.0v7 M-2.5,-0.5L0,-3.0L2.5,-0.5"/>
                </g>
               <g id="resetDef">
                       <use xlink:href="#rim2" fill="#404040">
                               <set attributeName="fill" to="#808080" begin="reset.mouseover" end="reset.mouseout"/>
                       </use>
               </g>
        </defs>

<script type="text/javascript">
var viewWidth = 2069;
var viewHeight = 137;
var sectionId = 'dynsection-19';
</script>
<script xlink:href="../../svgpan.js"/>
<svg id="graph" class="graph">
<g id="viewport">
<title>nars.inference.LocalRules.revisible</title>
<!-- Node697 -->
<g id="node1" class="node"><title>Node697</title>
<polygon fill="#bfbfbf" stroke="black" points="0,-79 0,-98 169,-98 169,-79 0,-79"/>
<text text-anchor="middle" x="84.5" y="-86" font-family="Helvetica,sans-Serif" font-size="10.00">nars.inference.LocalRules.revisible</text>
</g>
<!-- Node698 -->
<g id="node2" class="node"><title>Node698</title>
<g id="a_node2"><a xlink:href="../../dd/dd7/a00248.html#aac1c92950f50edd04d12229a8c992987" target="_top" xlink:title="The task and belief have the same content. ">
<polygon fill="none" stroke="black" points="205,-102 205,-121 365,-121 365,-102 205,-102"/>
<text text-anchor="middle" x="285" y="-109" font-family="Helvetica,sans-Serif" font-size="10.00">nars.inference.LocalRules.match</text>
</a>
</g>
</g>
<!-- Node697&#45;&gt;Node698 -->
<g id="edge1" class="edge"><title>Node697&#45;&gt;Node698</title>
<path fill="none" stroke="midnightblue" d="M177.797,-99.1943C186.809,-100.239 195.897,-101.292 204.764,-102.319"/>
<polygon fill="midnightblue" stroke="midnightblue" points="178.007,-95.6953 167.67,-98.021 177.201,-102.649 178.007,-95.6953"/>
</g>
<!-- Node708 -->
<g id="node12" class="node"><title>Node708</title>
<g id="a_node12"><a xlink:href="../../d7/ded/a00196.html#a40cddcc82ee28a1cf5b1f4bc14e2b078" target="_top" xlink:title="To accept a new judgment as isBelief, and check for revisions and solutions. ">
<polygon fill="none" stroke="black" points="215,-51.5 215,-81.5 355,-81.5 355,-51.5 215,-51.5"/>
<text text-anchor="start" x="223" y="-69.5" font-family="Helvetica,sans-Serif" font-size="10.00">nars.entity.Concept.process</text>
<text text-anchor="middle" x="285" y="-58.5" font-family="Helvetica,sans-Serif" font-size="10.00">Judgment</text>
</a>
</g>
</g>
<!-- Node697&#45;&gt;Node708 -->
<g id="edge11" class="edge"><title>Node697&#45;&gt;Node708</title>
<path fill="none" stroke="midnightblue" d="M179.176,-78.1177C191.213,-76.7837 203.36,-75.4374 214.905,-74.1579"/>
<polygon fill="midnightblue" stroke="midnightblue" points="178.66,-74.6534 169.107,-79.2338 179.431,-81.6108 178.66,-74.6534"/>
</g>
<!-- Node699 -->
<g id="node3" class="node"><title>Node699</title>
<g id="a_node3"><a xlink:href="../../dc/ded/a00252.html#ac2d01dfdc40bdd47c757cb549217e6e3" target="_top" xlink:title="Entry point of the inference engine. ">
<polygon fill="none" stroke="black" points="401,-103 401,-122 564,-122 564,-103 401,-103"/>
<text text-anchor="middle" x="482.5" y="-110" font-family="Helvetica,sans-Serif" font-size="10.00">nars.inference.RuleTables.reason</text>
</a>
</g>
</g>
<!-- Node698&#45;&gt;Node699 -->
<g id="edge2" class="edge"><title>Node698&#45;&gt;Node699</title>
<path fill="none" stroke="midnightblue" d="M375.499,-111.958C383.962,-112.001 392.507,-112.045 400.88,-112.088"/>
<polygon fill="midnightblue" stroke="midnightblue" points="375.253,-108.457 365.236,-111.905 375.217,-115.456 375.253,-108.457"/>
</g>
<!-- Node700 -->
<g id="node4" class="node"><title>Node700</title>
<g id="a_node4"><a xlink:href="../../d7/ded/a00196.html#ad6fb91dda799c3092ecb186ef24ca92a" target="_top" xlink:title="An atomic step in a concept, only called in Memory# processConcept. ">
<polygon fill="none" stroke="black" points="619,-98.5 619,-128.5 738,-128.5 738,-98.5 619,-98.5"/>
<text text-anchor="start" x="627" y="-116.5" font-family="Helvetica,sans-Serif" font-size="10.00">nars.entity.Concept.fire</text>
<text text-anchor="middle" x="678.5" y="-105.5" font-family="Helvetica,sans-Serif" font-size="10.00">FromProcessConcept</text>
</a>
</g>
</g>
<!-- Node699&#45;&gt;Node700 -->
<g id="edge3" class="edge"><title>Node699&#45;&gt;Node700</title>
<path fill="none" stroke="midnightblue" d="M574.461,-112.969C589.516,-113.046 604.765,-113.125 618.751,-113.197"/>
<polygon fill="midnightblue" stroke="midnightblue" points="574.106,-109.467 564.088,-112.915 574.07,-116.467 574.106,-109.467"/>
</g>
<!-- Node701 -->
<g id="node5" class="node"><title>Node701</title>
<g id="a_node5"><a xlink:href="../../d4/d27/a00392.html#a0acc4adbf6a2462245da46bcb529746c" target="_top" xlink:title="Select a concept to fireFromProcessConcept. ">
<polygon fill="none" stroke="black" points="793,-98.5 793,-128.5 939,-128.5 939,-98.5 793,-98.5"/>
<text text-anchor="start" x="801" y="-116.5" font-family="Helvetica,sans-Serif" font-size="10.00">nars.storage.Memory.process</text>
<text text-anchor="middle" x="866" y="-105.5" font-family="Helvetica,sans-Serif" font-size="10.00">Concept</text>
</a>
</g>
</g>
<!-- Node700&#45;&gt;Node701 -->
<g id="edge4" class="edge"><title>Node700&#45;&gt;Node701</title>
<path fill="none" stroke="midnightblue" d="M748.519,-113.5C762.929,-113.5 778.158,-113.5 792.683,-113.5"/>
<polygon fill="midnightblue" stroke="midnightblue" points="748.193,-110 738.193,-113.5 748.193,-117 748.193,-110"/>
</g>
<!-- Node702 -->
<g id="node6" class="node"><title>Node702</title>
<g id="a_node6"><a xlink:href="../../d4/d27/a00392.html#a59ae339d666409988d90d29be4f73a91" target="_top" xlink:title="An atomic working workCycle of the system: process new Tasks, then fireFromProcessConcept a concept...">
<polygon fill="none" stroke="black" points="975,-49.5 975,-79.5 1108,-79.5 1108,-49.5 975,-49.5"/>
<text text-anchor="start" x="983" y="-67.5" font-family="Helvetica,sans-Serif" font-size="10.00">nars.storage.Memory.work</text>
<text text-anchor="middle" x="1041.5" y="-56.5" font-family="Helvetica,sans-Serif" font-size="10.00">Cycle</text>
</a>
</g>
</g>
<!-- Node701&#45;&gt;Node702 -->
<g id="edge5" class="edge"><title>Node701&#45;&gt;Node702</title>
<path fill="none" stroke="midnightblue" d="M930.102,-95.6788C948.835,-90.3882 969.16,-84.6478 987.205,-79.5516"/>
<polygon fill="midnightblue" stroke="midnightblue" points="929.144,-92.3123 920.471,-98.3986 931.046,-99.0488 929.144,-92.3123"/>
</g>
<!-- Node703 -->
<g id="node7" class="node"><title>Node703</title>
<g id="a_node7"><a xlink:href="../../df/d15/a00416.html#a0d5c797dc17d9e8d0998852915e0f303" target="_top" xlink:title="nars.storage.ReasonerBatch.doTick">
<polygon fill="none" stroke="black" points="1144,-55 1144,-74 1317,-74 1317,-55 1144,-55"/>
<text text-anchor="middle" x="1230.5" y="-62" font-family="Helvetica,sans-Serif" font-size="10.00">nars.storage.ReasonerBatch.doTick</text>
</a>
</g>
</g>
<!-- Node702&#45;&gt;Node703 -->
<g id="edge6" class="edge"><title>Node702&#45;&gt;Node703</title>
<path fill="none" stroke="midnightblue" d="M1118.34,-64.5C1126.78,-64.5 1135.42,-64.5 1143.97,-64.5"/>
<polygon fill="midnightblue" stroke="midnightblue" points="1118.17,-61.0001 1108.17,-64.5 1118.17,-68.0001 1118.17,-61.0001"/>
</g>
<!-- Node704 -->
<g id="node8" class="node"><title>Node704</title>
<g id="a_node8"><a xlink:href="../../df/d15/a00416.html#a3468aa0f99edcd66412f27922dddb880" target="_top" xlink:title="A clock tick. ">
<polygon fill="none" stroke="black" points="1353,-55 1353,-74 1513,-74 1513,-55 1353,-55"/>
<text text-anchor="middle" x="1433" y="-62" font-family="Helvetica,sans-Serif" font-size="10.00">nars.storage.ReasonerBatch.tick</text>
</a>
</g>
</g>
<!-- Node703&#45;&gt;Node704 -->
<g id="edge7" class="edge"><title>Node703&#45;&gt;Node704</title>
<path fill="none" stroke="midnightblue" d="M1327.13,-64.5C1335.7,-64.5 1344.31,-64.5 1352.71,-64.5"/>
<polygon fill="midnightblue" stroke="midnightblue" points="1327.11,-61.0001 1317.11,-64.5 1327.11,-68.0001 1327.11,-61.0001"/>
</g>
<!-- Node705 -->
<g id="node9" class="node"><title>Node705</title>
<g id="a_node9"><a xlink:href="../../d9/da1/a00396.html#a5d9cfe517bcfbe41e5251910bcd119c1" target="_top" xlink:title="Run to completion: repeatedly execute NARS working cycle, until Inputs are Finished, or 1000 steps. ">
<polygon fill="none" stroke="black" points="1549,-55 1549,-74 1693,-74 1693,-55 1549,-55"/>
<text text-anchor="middle" x="1621" y="-62" font-family="Helvetica,sans-Serif" font-size="10.00">nars.storage.NARSBatch.run</text>
</a>
</g>
</g>
<!-- Node704&#45;&gt;Node705 -->
<g id="edge8" class="edge"><title>Node704&#45;&gt;Node705</title>
<path fill="none" stroke="midnightblue" d="M1523.22,-64.5C1531.82,-64.5 1540.47,-64.5 1548.87,-64.5"/>
<polygon fill="midnightblue" stroke="midnightblue" points="1523.15,-61.0001 1513.15,-64.5 1523.15,-68.0001 1523.15,-61.0001"/>
</g>
<!-- Node706 -->
<g id="node10" class="node"><title>Node706</title>
<g id="a_node10"><a xlink:href="../../d9/da1/a00396.html#a7c307c6b842f82664de6b0e52bdf8efc" target="_top" xlink:title="non&#45;static equivalent to main(String[]) : run to completion from an input file ">
<polygon fill="none" stroke="black" points="1729,-49.5 1729,-79.5 1873,-79.5 1873,-49.5 1729,-49.5"/>
<text text-anchor="start" x="1737" y="-67.5" font-family="Helvetica,sans-Serif" font-size="10.00">nars.storage.NARSBatch.run</text>
<text text-anchor="middle" x="1801" y="-56.5" font-family="Helvetica,sans-Serif" font-size="10.00">Inference</text>
</a>
</g>
</g>
<!-- Node705&#45;&gt;Node706 -->
<g id="edge9" class="edge"><title>Node705&#45;&gt;Node706</title>
<path fill="none" stroke="midnightblue" d="M1703.17,-64.5C1711.79,-64.5 1720.51,-64.5 1729,-64.5"/>
<polygon fill="midnightblue" stroke="midnightblue" points="1703.12,-61.0001 1693.12,-64.5 1703.12,-68.0001 1703.12,-61.0001"/>
</g>
<!-- Node707 -->
<g id="node11" class="node"><title>Node707</title>
<g id="a_node11"><a xlink:href="../../d9/da1/a00396.html#abafc597289bc2f6453b5cd0dd6634e54" target="_top" xlink:title="The entry point of the standalone application. ">
<polygon fill="none" stroke="black" points="1909,-55 1909,-74 2061,-74 2061,-55 1909,-55"/>
<text text-anchor="middle" x="1985" y="-62" font-family="Helvetica,sans-Serif" font-size="10.00">nars.storage.NARSBatch.main</text>
</a>
</g>
</g>
<!-- Node706&#45;&gt;Node707 -->
<g id="edge10" class="edge"><title>Node706&#45;&gt;Node707</title>
<path fill="none" stroke="midnightblue" d="M1883.17,-64.5C1891.76,-64.5 1900.48,-64.5 1909,-64.5"/>
<polygon fill="midnightblue" stroke="midnightblue" points="1883.15,-61.0001 1873.15,-64.5 1883.15,-68.0001 1883.15,-61.0001"/>
</g>
<!-- Node709 -->
<g id="node13" class="node"><title>Node709</title>
<g id="a_node13"><a xlink:href="../../d7/ded/a00196.html#a9ea7c3154932d7a736c105eb55daeb5c" target="_top" xlink:title="Directly process a new task. ">
<polygon fill="none" stroke="black" points="418,-49.5 418,-79.5 547,-79.5 547,-49.5 418,-49.5"/>
<text text-anchor="start" x="426" y="-67.5" font-family="Helvetica,sans-Serif" font-size="10.00">nars.entity.Concept.direct</text>
<text text-anchor="middle" x="482.5" y="-56.5" font-family="Helvetica,sans-Serif" font-size="10.00">Process</text>
</a>
</g>
</g>
<!-- Node708&#45;&gt;Node709 -->
<g id="edge12" class="edge"><title>Node708&#45;&gt;Node709</title>
<path fill="none" stroke="midnightblue" d="M365.386,-65.6879C382.875,-65.509 401.177,-65.3217 417.943,-65.1502"/>
<polygon fill="midnightblue" stroke="midnightblue" points="365.165,-62.1898 355.201,-65.7921 365.236,-69.1895 365.165,-62.1898"/>
</g>
<!-- Node710 -->
<g id="node14" class="node"><title>Node710</title>
<g id="a_node14"><a xlink:href="../../d4/d27/a00392.html#af8d07412d21a441a5c7005a477b06468" target="_top" xlink:title="Immediate processing of a new task, in constant time Local processing, in one concept only...">
<polygon fill="none" stroke="black" points="600,-49.5 600,-79.5 757,-79.5 757,-49.5 600,-49.5"/>
<text text-anchor="start" x="608" y="-67.5" font-family="Helvetica,sans-Serif" font-size="10.00">nars.storage.Memory.immediate</text>
<text text-anchor="middle" x="678.5" y="-56.5" font-family="Helvetica,sans-Serif" font-size="10.00">Process</text>
</a>
</g>
</g>
<!-- Node709&#45;&gt;Node710 -->
<g id="edge13" class="edge"><title>Node709&#45;&gt;Node710</title>
<path fill="none" stroke="midnightblue" d="M557.088,-64.5C571.105,-64.5 585.815,-64.5 599.95,-64.5"/>
<polygon fill="midnightblue" stroke="midnightblue" points="557.023,-61.0001 547.023,-64.5 557.023,-68.0001 557.023,-61.0001"/>
</g>
<!-- Node711 -->
<g id="node15" class="node"><title>Node711</title>
<g id="a_node15"><a xlink:href="../../d4/d27/a00392.html#ae43b86074c0d8f6a324696f69faa54b3" target="_top" xlink:title="Process the newTasks accumulated in the previous workCycle, accept input ones and those that correspo...">
<polygon fill="none" stroke="black" points="793,-49.5 793,-79.5 939,-79.5 939,-49.5 793,-49.5"/>
<text text-anchor="start" x="801" y="-67.5" font-family="Helvetica,sans-Serif" font-size="10.00">nars.storage.Memory.process</text>
<text text-anchor="middle" x="866" y="-56.5" font-family="Helvetica,sans-Serif" font-size="10.00">NewTask</text>
</a>
</g>
</g>
<!-- Node710&#45;&gt;Node711 -->
<g id="edge14" class="edge"><title>Node710&#45;&gt;Node711</title>
<path fill="none" stroke="midnightblue" d="M767.125,-64.5C775.707,-64.5 784.349,-64.5 792.754,-64.5"/>
<polygon fill="midnightblue" stroke="midnightblue" points="767.094,-61.0001 757.094,-64.5 767.094,-68.0001 767.094,-61.0001"/>
</g>
<!-- Node712 -->
<g id="node16" class="node"><title>Node712</title>
<g id="a_node16"><a xlink:href="../../d4/d27/a00392.html#a5061708f88897cfdf4e0671c846762ca" target="_top" xlink:title="Select a novel task to process. ">
<polygon fill="none" stroke="black" points="793,-0.5 793,-30.5 939,-30.5 939,-0.5 793,-0.5"/>
<text text-anchor="start" x="801" y="-18.5" font-family="Helvetica,sans-Serif" font-size="10.00">nars.storage.Memory.process</text>
<text text-anchor="middle" x="866" y="-7.5" font-family="Helvetica,sans-Serif" font-size="10.00">NovelTask</text>
</a>
</g>
</g>
<!-- Node710&#45;&gt;Node712 -->
<g id="edge16" class="edge"><title>Node710&#45;&gt;Node712</title>
<path fill="none" stroke="midnightblue" d="M746.215,-46.8771C766.51,-41.5163 788.614,-35.6775 808.191,-30.5062"/>
<polygon fill="midnightblue" stroke="midnightblue" points="745.191,-43.5275 736.417,-49.4654 746.979,-50.2953 745.191,-43.5275"/>
</g>
<!-- Node711&#45;&gt;Node702 -->
<g id="edge15" class="edge"><title>Node711&#45;&gt;Node702</title>
<path fill="none" stroke="midnightblue" d="M949.118,-64.5C957.716,-64.5 966.375,-64.5 974.755,-64.5"/>
<polygon fill="midnightblue" stroke="midnightblue" points="949.072,-61.0001 939.072,-64.5 949.072,-68.0001 949.072,-61.0001"/>
</g>
<!-- Node712&#45;&gt;Node702 -->
<g id="edge17" class="edge"><title>Node712&#45;&gt;Node702</title>
<path fill="none" stroke="midnightblue" d="M930.102,-33.3212C948.835,-38.6118 969.16,-44.3522 987.205,-49.4484"/>
<polygon fill="midnightblue" stroke="midnightblue" points="931.046,-29.9512 920.471,-30.6014 929.144,-36.6877 931.046,-29.9512"/>
</g>
</g>
</svg>
        <g id="navigator" transform="translate(0 0)" fill="#404254">
                <rect fill="#f2f5e9" fill-opacity="0.5" stroke="#606060" stroke-width=".5" x="0" y="0" width="60" height="60"/>
                <use id="zoomplus" xlink:href="#zoomPlus" x="17" y="9" onmousedown="handleZoom(evt,'in')"/>
                <use id="zoomminus" xlink:href="#zoomMin" x="42" y="9" onmousedown="handleZoom(evt,'out')"/>
                <use id="reset" xlink:href="#resetDef" x="30" y="36" onmousedown="handleReset()"/>
                <g id="arrowUp" xlink:href="#dirArrow" transform="translate(30 24)" onmousedown="handlePan(0,-1)">
                  <use xlink:href="#rim" fill="#404040">
                        <set attributeName="fill" to="#808080" begin="arrowUp.mouseover" end="arrowUp.mouseout"/>
                  </use>
                  <path fill="none" stroke="white" stroke-width="1.5" d="M0,-3.0v7 M-2.5,-0.5L0,-3.0L2.5,-0.5"/>
                </g>
                <g id="arrowRight" xlink:href="#dirArrow" transform="rotate(90) translate(36 -43)" onmousedown="handlePan(1,0)">
                  <use xlink:href="#rim" fill="#404040">
                        <set attributeName="fill" to="#808080" begin="arrowRight.mouseover" end="arrowRight.mouseout"/>
                  </use>
                  <path fill="none" stroke="white" stroke-width="1.5" d="M0,-3.0v7 M-2.5,-0.5L0,-3.0L2.5,-0.5"/>
                </g>
                <g id="arrowDown" xlink:href="#dirArrow" transform="rotate(180) translate(-30 -48)" onmousedown="handlePan(0,1)">
                  <use xlink:href="#rim" fill="#404040">
                        <set attributeName="fill" to="#808080" begin="arrowDown.mouseover" end="arrowDown.mouseout"/>
                  </use>
                  <path fill="none" stroke="white" stroke-width="1.5" d="M0,-3.0v7 M-2.5,-0.5L0,-3.0L2.5,-0.5"/>
                </g>
                <g id="arrowLeft" xlink:href="#dirArrow" transform="rotate(270) translate(-36 17)" onmousedown="handlePan(-1,0)">
                  <use xlink:href="#rim" fill="#404040">
                        <set attributeName="fill" to="#808080" begin="arrowLeft.mouseover" end="arrowLeft.mouseout"/>
                  </use>
                  <path fill="none" stroke="white" stroke-width="1.5" d="M0,-3.0v7 M-2.5,-0.5L0,-3.0L2.5,-0.5"/>
                </g>
        </g>
        <svg viewBox="0 0 15 15" width="100%" height="30px" preserveAspectRatio="xMaxYMin meet">
         <g id="arrow_out" transform="scale(0.3 0.3)">
          <a xlink:href="a00248_af19c25ad445401b14b7624994d38e0f5_icgraph_org.svg" target="_base">
           <rect id="button" ry="5" rx="5" y="6" x="6" height="38" width="38"
                fill="#f2f5e9" fill-opacity="0.5" stroke="#606060" stroke-width="1.0"/>
           <path id="arrow"
             d="M 11.500037,31.436501 C 11.940474,20.09759 22.043105,11.32322 32.158766,21.979434 L 37.068811,17.246167 C 37.068811,17.246167 37.088388,32 37.088388,32 L 22.160133,31.978069 C 22.160133,31.978069 26.997745,27.140456 26.997745,27.140456 C 18.528582,18.264221 13.291696,25.230495 11.500037,31.436501 z"
             style="fill:#404040;"/>
          </a>
         </g>
        </svg>
</svg>
