<?xml version="1.0" encoding="UTF-8" standalone="no"?>
<!DOCTYPE svg PUBLIC "-//W3C//DTD SVG 1.1//EN"
 "http://www.w3.org/Graphics/SVG/1.1/DTD/svg11.dtd">
<!-- Generated by graphviz version 2.38.0 (20140413.2041)
 -->
<!-- Title: nars.inference.LocalRules.solutionEval Pages: 1 -->
<svg width="826pt" height="586pt"
 viewBox="0.00 0.00 826.00 585.50" xmlns="http://www.w3.org/2000/svg" xmlns:xlink="http://www.w3.org/1999/xlink">
<g id="graph0" class="graph" transform="scale(1 1) rotate(0) translate(4 581.5)">
<title>nars.inference.LocalRules.solutionEval</title>
<!-- Node783 -->
<g id="node1" class="node"><title>Node783</title>
<polygon fill="#bfbfbf" stroke="black" points="0,-314.5 0,-333.5 186,-333.5 186,-314.5 0,-314.5"/>
<text text-anchor="middle" x="93" y="-321.5" font-family="Helvetica,sans-Serif" font-size="10.00">nars.inference.LocalRules.solutionEval</text>
</g>
<!-- Node784 -->
<g id="node2" class="node"><title>Node784</title>
<g id="a_node2"><a xlink:href="../../dc/d31/a00208.html#a54fc0a370b847dd77c0a698c765e6e55" target="_top" xlink:title="The budget of the Item, consisting of 3 numbers. ">
<polygon fill="none" stroke="black" points="462,-508.5 462,-527.5 594,-527.5 594,-508.5 462,-508.5"/>
<text text-anchor="middle" x="528" y="-515.5" font-family="Helvetica,sans-Serif" font-size="10.00">nars.entity.Item.getBudget</text>
</a>
</g>
</g>
<!-- Node783&#45;&gt;Node784 -->
<g id="edge1" class="edge"><title>Node783&#45;&gt;Node784</title>
<path fill="none" stroke="midnightblue" d="M97.6678,-333.895C109.761,-364.921 151.667,-460.508 222,-499 297.542,-540.343 399.905,-536.897 464.708,-528.839"/>
<polygon fill="midnightblue" stroke="midnightblue" points="465.319,-532.289 474.776,-527.512 464.404,-525.349 465.319,-532.289"/>
</g>
<!-- Node785 -->
<g id="node3" class="node"><title>Node785</title>
<g id="a_node3"><a xlink:href="../../d9/dd5/a00432.html#a672e3b935dca6df8c7e47c6c69e0fc66" target="_top" xlink:title="nars.storage.WorkSpace.get\lCurrentBeliefLink">
<polygon fill="none" stroke="black" points="240,-383 240,-413 381,-413 381,-383 240,-383"/>
<text text-anchor="start" x="248" y="-401" font-family="Helvetica,sans-Serif" font-size="10.00">nars.storage.WorkSpace.get</text>
<text text-anchor="middle" x="310.5" y="-390" font-family="Helvetica,sans-Serif" font-size="10.00">CurrentBeliefLink</text>
</a>
</g>
</g>
<!-- Node783&#45;&gt;Node785 -->
<g id="edge2" class="edge"><title>Node783&#45;&gt;Node785</title>
<path fill="none" stroke="midnightblue" d="M117.369,-333.652C142.862,-344.015 184.981,-360.652 222,-373 229.271,-375.425 236.929,-377.829 244.566,-380.133"/>
<polygon fill="midnightblue" stroke="midnightblue" points="243.614,-383.501 254.197,-382.991 245.606,-376.791 243.614,-383.501"/>
</g>
<!-- Node786 -->
<g id="node4" class="node"><title>Node786</title>
<g id="a_node4"><a xlink:href="../../d9/dd5/a00432.html#aefcc9dfcebdc79cd7e099afd4553b083" target="_top" xlink:title="nars.storage.WorkSpace.get\lCurrentTask">
<polygon fill="none" stroke="black" points="240,-334 240,-364 381,-364 381,-334 240,-334"/>
<text text-anchor="start" x="248" y="-352" font-family="Helvetica,sans-Serif" font-size="10.00">nars.storage.WorkSpace.get</text>
<text text-anchor="middle" x="310.5" y="-341" font-family="Helvetica,sans-Serif" font-size="10.00">CurrentTask</text>
</a>
</g>
</g>
<!-- Node783&#45;&gt;Node786 -->
<g id="edge3" class="edge"><title>Node783&#45;&gt;Node786</title>
<path fill="none" stroke="midnightblue" d="M176.086,-333.523C193.685,-335.564 212.255,-337.719 229.763,-339.75"/>
<polygon fill="midnightblue" stroke="midnightblue" points="229.598,-343.254 239.934,-340.93 230.404,-336.301 229.598,-343.254"/>
</g>
<!-- Node787 -->
<g id="node5" class="node"><title>Node787</title>
<g id="a_node5"><a xlink:href="../../d9/dd5/a00432.html#a585409e59ebb973c820683bc556ebe37" target="_top" xlink:title="nars.storage.WorkSpace.get\lCurrentTaskLink">
<polygon fill="none" stroke="black" points="240,-285 240,-315 381,-315 381,-285 240,-285"/>
<text text-anchor="start" x="248" y="-303" font-family="Helvetica,sans-Serif" font-size="10.00">nars.storage.WorkSpace.get</text>
<text text-anchor="middle" x="310.5" y="-292" font-family="Helvetica,sans-Serif" font-size="10.00">CurrentTaskLink</text>
</a>
</g>
</g>
<!-- Node783&#45;&gt;Node787 -->
<g id="edge4" class="edge"><title>Node783&#45;&gt;Node787</title>
<path fill="none" stroke="midnightblue" d="M179.481,-314.48C196.024,-312.638 213.3,-310.714 229.655,-308.892"/>
<polygon fill="midnightblue" stroke="midnightblue" points="230.153,-312.359 239.704,-307.773 229.378,-305.402 230.153,-312.359"/>
</g>
<!-- Node788 -->
<g id="node6" class="node"><title>Node788</title>
<g id="a_node6"><a xlink:href="../../dc/d31/a00208.html#adbb21c1891722e30c1d6cfaf5fee18ee" target="_top" xlink:title="Get durability value. ">
<polygon fill="none" stroke="black" points="239,-546.5 239,-565.5 382,-565.5 382,-546.5 239,-546.5"/>
<text text-anchor="middle" x="310.5" y="-553.5" font-family="Helvetica,sans-Serif" font-size="10.00">nars.entity.Item.getDurability</text>
</a>
</g>
</g>
<!-- Node783&#45;&gt;Node788 -->
<g id="edge5" class="edge"><title>Node783&#45;&gt;Node788</title>
<path fill="none" stroke="midnightblue" d="M97.0317,-333.623C107.977,-366.751 148.727,-477.054 222,-532 227.805,-536.353 234.354,-539.917 241.191,-542.834"/>
<polygon fill="midnightblue" stroke="midnightblue" points="240.059,-546.148 250.65,-546.425 242.543,-539.603 240.059,-546.148"/>
</g>
<!-- Node790 -->
<g id="node8" class="node"><title>Node790</title>
<g id="a_node8"><a xlink:href="../../dc/d31/a00208.html#a97b35888ceaad90e7a428701051c51d7" target="_top" xlink:title="Get priority value. ">
<polygon fill="none" stroke="black" points="244.5,-470.5 244.5,-489.5 376.5,-489.5 376.5,-470.5 244.5,-470.5"/>
<text text-anchor="middle" x="310.5" y="-477.5" font-family="Helvetica,sans-Serif" font-size="10.00">nars.entity.Item.getPriority</text>
</a>
</g>
</g>
<!-- Node783&#45;&gt;Node790 -->
<g id="edge8" class="edge"><title>Node783&#45;&gt;Node790</title>
<path fill="none" stroke="midnightblue" d="M100.069,-333.847C116.342,-359.352 163.696,-427.881 222,-461 225.985,-463.264 230.213,-465.258 234.575,-467.015"/>
<polygon fill="midnightblue" stroke="midnightblue" points="233.701,-470.42 244.296,-470.495 236.06,-463.829 233.701,-470.42"/>
</g>
<!-- Node792 -->
<g id="node10" class="node"><title>Node792</title>
<g id="a_node10"><a xlink:href="../../d5/ddf/a00224.html#ab140cb553a6cf40b07093d1df283567f" target="_top" xlink:title="The sentence of the Task. ">
<polygon fill="none" stroke="black" points="238,-246.5 238,-265.5 383,-265.5 383,-246.5 238,-246.5"/>
<text text-anchor="middle" x="310.5" y="-253.5" font-family="Helvetica,sans-Serif" font-size="10.00">nars.entity.Task.getSentence</text>
</a>
</g>
</g>
<!-- Node783&#45;&gt;Node792 -->
<g id="edge11" class="edge"><title>Node783&#45;&gt;Node792</title>
<path fill="none" stroke="midnightblue" d="M115.847,-314.467C141.051,-303.745 183.919,-286.352 222,-275 230.752,-272.391 240.095,-269.979 249.298,-267.811"/>
<polygon fill="midnightblue" stroke="midnightblue" points="250.221,-271.19 259.193,-265.556 248.665,-264.365 250.221,-271.19"/>
</g>
<!-- Node793 -->
<g id="node11" class="node"><title>Node793</title>
<g id="a_node11"><a xlink:href="../../dc/d31/a00208.html#a786a1e14b3904092f4a3b2fa4faa08a7" target="_top" xlink:title="Increase priority value. ">
<polygon fill="none" stroke="black" points="245,-208.5 245,-227.5 376,-227.5 376,-208.5 245,-208.5"/>
<text text-anchor="middle" x="310.5" y="-215.5" font-family="Helvetica,sans-Serif" font-size="10.00">nars.entity.Item.incPriority</text>
</a>
</g>
</g>
<!-- Node783&#45;&gt;Node793 -->
<g id="edge12" class="edge"><title>Node783&#45;&gt;Node793</title>
<path fill="none" stroke="midnightblue" d="M105.111,-314.221C126.296,-296.11 174.592,-257.346 222,-237 227.906,-234.465 234.186,-232.254 240.567,-230.327"/>
<polygon fill="midnightblue" stroke="midnightblue" points="241.937,-233.579 250.635,-227.529 240.063,-226.835 241.937,-233.579"/>
</g>
<!-- Node796 -->
<g id="node14" class="node"><title>Node796</title>
<g id="a_node14"><a xlink:href="../../dd/dc1/a00212.html#a7d95d60caaf4c895559182a7eb2ff71e" target="_top" xlink:title="Distinguish Judgment from Goal (&quot;instanceof Judgment&quot; doesn&#39;t work) ">
<polygon fill="none" stroke="black" points="230.5,-170.5 230.5,-189.5 390.5,-189.5 390.5,-170.5 230.5,-170.5"/>
<text text-anchor="middle" x="310.5" y="-177.5" font-family="Helvetica,sans-Serif" font-size="10.00">nars.entity.Sentence.isJudgment</text>
</a>
</g>
</g>
<!-- Node783&#45;&gt;Node796 -->
<g id="edge15" class="edge"><title>Node783&#45;&gt;Node796</title>
<path fill="none" stroke="midnightblue" d="M100.792,-314.339C118.051,-290.574 166.202,-229.026 222,-199 226.308,-196.682 230.879,-194.647 235.583,-192.86"/>
<polygon fill="midnightblue" stroke="midnightblue" points="237.042,-196.06 245.384,-189.529 234.79,-189.433 237.042,-196.06"/>
</g>
<!-- Node798 -->
<g id="node16" class="node"><title>Node798</title>
<g id="a_node16"><a xlink:href="../../dc/d31/a00208.html#aeda0763b2c90f6fef3f23b9b4d3d68f0" target="_top" xlink:title="Set priority value. ">
<polygon fill="none" stroke="black" points="244.5,-432.5 244.5,-451.5 376.5,-451.5 376.5,-432.5 244.5,-432.5"/>
<text text-anchor="middle" x="310.5" y="-439.5" font-family="Helvetica,sans-Serif" font-size="10.00">nars.entity.Item.setPriority</text>
</a>
</g>
</g>
<!-- Node783&#45;&gt;Node798 -->
<g id="edge17" class="edge"><title>Node783&#45;&gt;Node798</title>
<path fill="none" stroke="midnightblue" d="M103.615,-333.784C123.694,-353.623 172.348,-398.681 222,-422 228.16,-424.893 234.764,-427.381 241.483,-429.518"/>
<polygon fill="midnightblue" stroke="midnightblue" points="240.789,-432.961 251.369,-432.404 242.75,-426.242 240.789,-432.961"/>
</g>
<!-- Node800 -->
<g id="node18" class="node"><title>Node800</title>
<g id="a_node18"><a xlink:href="../../dd/dd7/a00248.html#abe52d51e24e841a754e3d6c0aa3c24da" target="_top" xlink:title="Evaluate the quality of the judgment as a solution to a problem. ">
<polygon fill="none" stroke="black" points="227,-99 227,-129 394,-129 394,-99 227,-99"/>
<text text-anchor="start" x="235" y="-117" font-family="Helvetica,sans-Serif" font-size="10.00">nars.inference.LocalRules.solution</text>
<text text-anchor="middle" x="310.5" y="-106" font-family="Helvetica,sans-Serif" font-size="10.00">Quality</text>
</a>
</g>
</g>
<!-- Node783&#45;&gt;Node800 -->
<g id="edge20" class="edge"><title>Node783&#45;&gt;Node800</title>
<path fill="none" stroke="midnightblue" d="M99.5382,-314.428C115.549,-287.41 164.435,-209.388 222,-161 234.669,-150.351 250.137,-141.08 264.525,-133.652"/>
<polygon fill="midnightblue" stroke="midnightblue" points="266.393,-136.631 273.783,-129.04 263.272,-130.366 266.393,-136.631"/>
</g>
<!-- Node805 -->
<g id="node23" class="node"><title>Node805</title>
<g id="a_node23"><a xlink:href="../../d9/d21/a00240.html#a1cabe922021909c7226988e5aa00ea95" target="_top" xlink:title="Determine the quality of a judgment by its truth value alone. ">
<polygon fill="none" stroke="black" points="222,-28 222,-58 399,-58 399,-28 222,-28"/>
<text text-anchor="start" x="230" y="-46" font-family="Helvetica,sans-Serif" font-size="10.00">nars.inference.BudgetFunctions.truth</text>
<text text-anchor="middle" x="310.5" y="-35" font-family="Helvetica,sans-Serif" font-size="10.00">ToQuality</text>
</a>
</g>
</g>
<!-- Node783&#45;&gt;Node805 -->
<g id="edge26" class="edge"><title>Node783&#45;&gt;Node805</title>
<path fill="none" stroke="midnightblue" d="M97.0072,-314.226C108.15,-279.412 150.19,-159.759 222,-89 232.826,-78.332 246.634,-69.5398 260.065,-62.6024"/>
<polygon fill="midnightblue" stroke="midnightblue" points="261.822,-65.6391 269.261,-58.0956 258.741,-59.3533 261.822,-65.6391"/>
</g>
<!-- Node788&#45;&gt;Node784 -->
<g id="edge6" class="edge"><title>Node788&#45;&gt;Node784</title>
<path fill="none" stroke="midnightblue" d="M365.602,-546.46C395.062,-541.265 431.705,-534.804 462.627,-529.351"/>
<polygon fill="midnightblue" stroke="midnightblue" points="463.636,-532.727 472.876,-527.544 462.42,-525.834 463.636,-532.727"/>
</g>
<!-- Node789 -->
<g id="node7" class="node"><title>Node789</title>
<g id="a_node7"><a xlink:href="../../dd/da2/a00192.html#ab0e0dc2172d3fab6390670acb68da1a6" target="_top" xlink:title="Get durability value. ">
<polygon fill="none" stroke="black" points="459.5,-547 459.5,-577 596.5,-577 596.5,-547 459.5,-547"/>
<text text-anchor="start" x="467.5" y="-565" font-family="Helvetica,sans-Serif" font-size="10.00">nars.entity.BudgetValue.get</text>
<text text-anchor="middle" x="528" y="-554" font-family="Helvetica,sans-Serif" font-size="10.00">Durability</text>
</a>
</g>
</g>
<!-- Node788&#45;&gt;Node789 -->
<g id="edge7" class="edge"><title>Node788&#45;&gt;Node789</title>
<path fill="none" stroke="midnightblue" d="M382.063,-557.965C403.469,-558.561 427.106,-559.219 448.972,-559.828"/>
<polygon fill="midnightblue" stroke="midnightblue" points="449.118,-563.333 459.212,-560.113 449.313,-556.336 449.118,-563.333"/>
</g>
<!-- Node790&#45;&gt;Node784 -->
<g id="edge9" class="edge"><title>Node790&#45;&gt;Node784</title>
<path fill="none" stroke="midnightblue" d="M365.602,-489.54C395.062,-494.735 431.705,-501.196 462.627,-506.649"/>
<polygon fill="midnightblue" stroke="midnightblue" points="462.42,-510.166 472.876,-508.456 463.636,-503.273 462.42,-510.166"/>
</g>
<!-- Node791 -->
<g id="node9" class="node"><title>Node791</title>
<g id="a_node9"><a xlink:href="../../dd/da2/a00192.html#a1e7b6826531f03f792f3516ce0e97ac3" target="_top" xlink:title="Get priority value. ">
<polygon fill="none" stroke="black" points="459.5,-459 459.5,-489 596.5,-489 596.5,-459 459.5,-459"/>
<text text-anchor="start" x="467.5" y="-477" font-family="Helvetica,sans-Serif" font-size="10.00">nars.entity.BudgetValue.get</text>
<text text-anchor="middle" x="528" y="-466" font-family="Helvetica,sans-Serif" font-size="10.00">Priority</text>
</a>
</g>
</g>
<!-- Node790&#45;&gt;Node791 -->
<g id="edge10" class="edge"><title>Node790&#45;&gt;Node791</title>
<path fill="none" stroke="midnightblue" d="M376.742,-478.184C399.614,-477.547 425.528,-476.825 449.317,-476.163"/>
<polygon fill="midnightblue" stroke="midnightblue" points="449.469,-479.66 459.368,-475.883 449.274,-472.663 449.469,-479.66"/>
</g>
<!-- Node794 -->
<g id="node12" class="node"><title>Node794</title>
<g id="a_node12"><a xlink:href="../../dd/da2/a00192.html#a088e64163126211239b6afd25a9cdca3" target="_top" xlink:title="Increase priority value by a percentage of the remaining range. ">
<polygon fill="none" stroke="black" points="459.5,-225 459.5,-255 596.5,-255 596.5,-225 459.5,-225"/>
<text text-anchor="start" x="467.5" y="-243" font-family="Helvetica,sans-Serif" font-size="10.00">nars.entity.BudgetValue.inc</text>
<text text-anchor="middle" x="528" y="-232" font-family="Helvetica,sans-Serif" font-size="10.00">Priority</text>
</a>
</g>
</g>
<!-- Node793&#45;&gt;Node794 -->
<g id="edge13" class="edge"><title>Node793&#45;&gt;Node794</title>
<path fill="none" stroke="midnightblue" d="M376.157,-224.601C399.155,-226.949 425.289,-229.616 449.267,-232.064"/>
<polygon fill="midnightblue" stroke="midnightblue" points="449.093,-235.565 459.396,-233.098 449.804,-228.601 449.093,-235.565"/>
</g>
<!-- Node795 -->
<g id="node13" class="node"><title>Node795</title>
<g id="a_node13"><a xlink:href="../../db/d12/a00268.html#acaa4ebc080bc00d0e03be32d51d29e40" target="_top" xlink:title="A function where the output is disjunctively determined by the inputs. ">
<polygon fill="none" stroke="black" points="657,-230.5 657,-249.5 818,-249.5 818,-230.5 657,-230.5"/>
<text text-anchor="middle" x="737.5" y="-237.5" font-family="Helvetica,sans-Serif" font-size="10.00">nars.inference.UtilityFunctions.or</text>
</a>
</g>
</g>
<!-- Node794&#45;&gt;Node795 -->
<g id="edge14" class="edge"><title>Node794&#45;&gt;Node795</title>
<path fill="none" stroke="midnightblue" d="M596.656,-240C612.522,-240 629.675,-240 646.351,-240"/>
<polygon fill="midnightblue" stroke="midnightblue" points="646.657,-243.5 656.656,-240 646.656,-236.5 646.657,-243.5"/>
</g>
<!-- Node797 -->
<g id="node15" class="node"><title>Node797</title>
<g id="a_node15"><a xlink:href="../../dd/dc1/a00212.html#a68b153a51a5db6a4127b66158227697f" target="_top" xlink:title="The punctuation also indicates the type of the Sentence: Judgment, Question, or Goal. ">
<polygon fill="none" stroke="black" points="466.5,-176 466.5,-206 589.5,-206 589.5,-176 466.5,-176"/>
<text text-anchor="start" x="474.5" y="-194" font-family="Helvetica,sans-Serif" font-size="10.00">nars.entity.Sentence.get</text>
<text text-anchor="middle" x="528" y="-183" font-family="Helvetica,sans-Serif" font-size="10.00">Punctuation</text>
</a>
</g>
</g>
<!-- Node796&#45;&gt;Node797 -->
<g id="edge16" class="edge"><title>Node796&#45;&gt;Node797</title>
<path fill="none" stroke="midnightblue" d="M390.521,-184.034C411.993,-185.13 435.107,-186.309 456.1,-187.381"/>
<polygon fill="midnightblue" stroke="midnightblue" points="456.053,-190.883 466.218,-187.897 456.41,-183.892 456.053,-190.883"/>
</g>
<!-- Node798&#45;&gt;Node784 -->
<g id="edge18" class="edge"><title>Node798&#45;&gt;Node784</title>
<path fill="none" stroke="midnightblue" d="M376.678,-451.551C384.465,-454.013 392.093,-457.108 399,-461 419.268,-472.42 414.674,-487.683 435,-499 440.424,-502.02 446.268,-504.562 452.289,-506.701"/>
<polygon fill="midnightblue" stroke="midnightblue" points="451.269,-510.049 461.859,-509.742 453.389,-503.378 451.269,-510.049"/>
</g>
<!-- Node799 -->
<g id="node17" class="node"><title>Node799</title>
<g id="a_node17"><a xlink:href="../../dd/da2/a00192.html#ac2cb3449a15125e5f0e4165aeee0befb" target="_top" xlink:title="Change priority value. ">
<polygon fill="none" stroke="black" points="459.5,-410 459.5,-440 596.5,-440 596.5,-410 459.5,-410"/>
<text text-anchor="start" x="467.5" y="-428" font-family="Helvetica,sans-Serif" font-size="10.00">nars.entity.BudgetValue.set</text>
<text text-anchor="middle" x="528" y="-417" font-family="Helvetica,sans-Serif" font-size="10.00">Priority</text>
</a>
</g>
</g>
<!-- Node798&#45;&gt;Node799 -->
<g id="edge19" class="edge"><title>Node798&#45;&gt;Node799</title>
<path fill="none" stroke="midnightblue" d="M376.742,-436.853C399.614,-435.049 425.528,-433.005 449.317,-431.128"/>
<polygon fill="midnightblue" stroke="midnightblue" points="449.674,-434.611 459.368,-430.335 449.123,-427.633 449.674,-434.611"/>
</g>
<!-- Node801 -->
<g id="node19" class="node"><title>Node801</title>
<g id="a_node19"><a xlink:href="../../d7/d40/a00236.html#aa5ffcde3ae611b087ba7fdd4cd67b216" target="_top" xlink:title="Calculate the expectation value of the truth value. ">
<polygon fill="none" stroke="black" points="463.5,-88 463.5,-118 592.5,-118 592.5,-88 463.5,-88"/>
<text text-anchor="start" x="471.5" y="-106" font-family="Helvetica,sans-Serif" font-size="10.00">nars.entity.TruthValue.get</text>
<text text-anchor="middle" x="528" y="-95" font-family="Helvetica,sans-Serif" font-size="10.00">Expectation</text>
</a>
</g>
</g>
<!-- Node800&#45;&gt;Node801 -->
<g id="edge21" class="edge"><title>Node800&#45;&gt;Node801</title>
<path fill="none" stroke="midnightblue" d="M394.202,-109.779C413.62,-108.787 434.187,-107.738 453.187,-106.768"/>
<polygon fill="midnightblue" stroke="midnightblue" points="453.455,-110.259 463.263,-106.253 453.098,-103.268 453.455,-110.259"/>
</g>
<!-- Node802 -->
<g id="node20" class="node"><title>Node802</title>
<g id="a_node20"><a xlink:href="../../d7/d40/a00236.html#a68ca7d92e9ea20d2a9a9f578ad7b681c" target="_top" xlink:title="The confidence factor of the truth value. ">
<polygon fill="none" stroke="black" points="673,-132 673,-162 802,-162 802,-132 673,-132"/>
<text text-anchor="start" x="681" y="-150" font-family="Helvetica,sans-Serif" font-size="10.00">nars.entity.TruthValue.get</text>
<text text-anchor="middle" x="737.5" y="-139" font-family="Helvetica,sans-Serif" font-size="10.00">Confidence</text>
</a>
</g>
</g>
<!-- Node800&#45;&gt;Node802 -->
<g id="edge25" class="edge"><title>Node800&#45;&gt;Node802</title>
<path fill="none" stroke="midnightblue" d="M394.165,-123.148C407.799,-124.528 421.789,-125.867 435,-127 512.571,-133.653 601.535,-139.314 662.609,-142.897"/>
<polygon fill="midnightblue" stroke="midnightblue" points="662.734,-146.41 672.921,-143.498 663.142,-139.422 662.734,-146.41"/>
</g>
<!-- Node804 -->
<g id="node22" class="node"><title>Node804</title>
<g id="a_node22"><a xlink:href="../../dd/dc1/a00212.html#a244c4fd3b9cb81b8882e7e4c962188ec" target="_top" xlink:title="nars.entity.Sentence.contain\lQueryVar">
<polygon fill="none" stroke="black" points="457.5,-39 457.5,-69 598.5,-69 598.5,-39 457.5,-39"/>
<text text-anchor="start" x="465.5" y="-57" font-family="Helvetica,sans-Serif" font-size="10.00">nars.entity.Sentence.contain</text>
<text text-anchor="middle" x="528" y="-46" font-family="Helvetica,sans-Serif" font-size="10.00">QueryVar</text>
</a>
</g>
</g>
<!-- Node800&#45;&gt;Node804 -->
<g id="edge24" class="edge"><title>Node800&#45;&gt;Node804</title>
<path fill="none" stroke="midnightblue" d="M361.881,-98.9621C384.236,-92.3805 410.889,-84.6576 435,-78 442.496,-75.9303 450.348,-73.8095 458.172,-71.7267"/>
<polygon fill="midnightblue" stroke="midnightblue" points="459.267,-75.0575 468.038,-69.1154 457.476,-68.2905 459.267,-75.0575"/>
</g>
<!-- Node801&#45;&gt;Node802 -->
<g id="edge22" class="edge"><title>Node801&#45;&gt;Node802</title>
<path fill="none" stroke="midnightblue" d="M592.667,-116.5C614.875,-121.21 639.978,-126.533 662.925,-131.398"/>
<polygon fill="midnightblue" stroke="midnightblue" points="662.445,-134.874 672.953,-133.525 663.897,-128.027 662.445,-134.874"/>
</g>
<!-- Node803 -->
<g id="node21" class="node"><title>Node803</title>
<g id="a_node21"><a xlink:href="../../d7/d40/a00236.html#a9eac33f2495441c77911a8581a5bbe61" target="_top" xlink:title="Get the frequency value. ">
<polygon fill="none" stroke="black" points="673,-83 673,-113 802,-113 802,-83 673,-83"/>
<text text-anchor="start" x="681" y="-101" font-family="Helvetica,sans-Serif" font-size="10.00">nars.entity.TruthValue.get</text>
<text text-anchor="middle" x="737.5" y="-90" font-family="Helvetica,sans-Serif" font-size="10.00">Frequency</text>
</a>
</g>
</g>
<!-- Node801&#45;&gt;Node803 -->
<g id="edge23" class="edge"><title>Node801&#45;&gt;Node803</title>
<path fill="none" stroke="midnightblue" d="M592.667,-101.466C614.875,-100.931 639.978,-100.326 662.925,-99.7729"/>
<polygon fill="midnightblue" stroke="midnightblue" points="663.041,-103.271 672.953,-99.5312 662.872,-96.2733 663.041,-103.271"/>
</g>
<!-- Node806 -->
<g id="node24" class="node"><title>Node806</title>
<g id="a_node24"><a xlink:href="../../db/d12/a00268.html#ae9f34c27ee5675fa2b97f2def9e1fb99" target="_top" xlink:title="A function where the output is the geometric average the inputs. ">
<polygon fill="none" stroke="black" points="435,-0.5 435,-19.5 621,-19.5 621,-0.5 435,-0.5"/>
<text text-anchor="middle" x="528" y="-7.5" font-family="Helvetica,sans-Serif" font-size="10.00">nars.inference.UtilityFunctions.aveGeo</text>
</a>
</g>
</g>
<!-- Node805&#45;&gt;Node806 -->
<g id="edge27" class="edge"><title>Node805&#45;&gt;Node806</title>
<path fill="none" stroke="midnightblue" d="M399.152,-29.5776C417.563,-26.7584 436.785,-23.8149 454.564,-21.0922"/>
<polygon fill="midnightblue" stroke="midnightblue" points="455.494,-24.4907 464.849,-19.5173 454.435,-17.5714 455.494,-24.4907"/>
</g>
</g>
</svg>
