<?xml version="1.0" encoding="UTF-8" standalone="no"?>
<!DOCTYPE svg PUBLIC "-//W3C//DTD SVG 1.1//EN"
 "http://www.w3.org/Graphics/SVG/1.1/DTD/svg11.dtd">
<!-- Generated by graphviz version 2.38.0 (20140413.2041)
 -->
<!-- Title: nars.inference.LocalRules.convertRelation Pages: 1 -->
<svg width="2464pt" height="39pt"
 viewBox="0.00 0.00 2464.00 39.00" xmlns="http://www.w3.org/2000/svg" xmlns:xlink="http://www.w3.org/1999/xlink">
<g id="graph0" class="graph" transform="scale(1 1) rotate(0) translate(4 35)">
<title>nars.inference.LocalRules.convertRelation</title>
<!-- Node177 -->
<g id="node1" class="node"><title>Node177</title>
<polygon fill="#bfbfbf" stroke="black" points="0,-0.5 0,-30.5 165,-30.5 165,-0.5 0,-0.5"/>
<text text-anchor="start" x="8" y="-18.5" font-family="Helvetica,sans-Serif" font-size="10.00">nars.inference.LocalRules.convert</text>
<text text-anchor="middle" x="82.5" y="-7.5" font-family="Helvetica,sans-Serif" font-size="10.00">Relation</text>
</g>
<!-- Node178 -->
<g id="node2" class="node"><title>Node178</title>
<g id="a_node2"><a xlink:href="../../dd/dd7/a00248.html#a901b20a8e57ac01ce97b4d1302224e39" target="_top" xlink:title="Inheritance/Implication matches Similarity/Equivalence. ">
<polygon fill="none" stroke="black" points="201,-0.5 201,-30.5 361,-30.5 361,-0.5 201,-0.5"/>
<text text-anchor="start" x="209" y="-18.5" font-family="Helvetica,sans-Serif" font-size="10.00">nars.inference.LocalRules.match</text>
<text text-anchor="middle" x="281" y="-7.5" font-family="Helvetica,sans-Serif" font-size="10.00">AsymSym</text>
</a>
</g>
</g>
<!-- Node177&#45;&gt;Node178 -->
<g id="edge1" class="edge"><title>Node177&#45;&gt;Node178</title>
<path fill="none" stroke="midnightblue" d="M175.154,-15.5C183.735,-15.5 192.384,-15.5 200.837,-15.5"/>
<polygon fill="midnightblue" stroke="midnightblue" points="175.127,-12.0001 165.127,-15.5 175.127,-19.0001 175.127,-12.0001"/>
</g>
<!-- Node179 -->
<g id="node3" class="node"><title>Node179</title>
<g id="a_node3"><a xlink:href="../../dc/ded/a00252.html#a4f61a7c2dc75c9da475030894eac0735" target="_top" xlink:title="Syllogistic rules whose first premise is on an asymmetric relation, and the second on a symmetric rel...">
<polygon fill="none" stroke="black" points="397,-0.5 397,-30.5 582,-30.5 582,-0.5 397,-0.5"/>
<text text-anchor="start" x="405" y="-18.5" font-family="Helvetica,sans-Serif" font-size="10.00">nars.inference.RuleTables.asymmetric</text>
<text text-anchor="middle" x="489.5" y="-7.5" font-family="Helvetica,sans-Serif" font-size="10.00">Symmetric</text>
</a>
</g>
</g>
<!-- Node178&#45;&gt;Node179 -->
<g id="edge2" class="edge"><title>Node178&#45;&gt;Node179</title>
<path fill="none" stroke="midnightblue" d="M371.4,-15.5C379.787,-15.5 388.297,-15.5 396.705,-15.5"/>
<polygon fill="midnightblue" stroke="midnightblue" points="371.248,-12.0001 361.248,-15.5 371.248,-19.0001 371.248,-12.0001"/>
</g>
<!-- Node180 -->
<g id="node4" class="node"><title>Node180</title>
<g id="a_node4"><a xlink:href="../../dc/ded/a00252.html#a8628d400a8ceda7fea05039ddfea319b" target="_top" xlink:title="Meta&#45;table of syllogistic rules, indexed by the content classes of the taskSentence and the belief...">
<polygon fill="none" stroke="black" points="618,-6 618,-25 798,-25 798,-6 618,-6"/>
<text text-anchor="middle" x="708" y="-13" font-family="Helvetica,sans-Serif" font-size="10.00">nars.inference.RuleTables.syllogisms</text>
</a>
</g>
</g>
<!-- Node179&#45;&gt;Node180 -->
<g id="edge3" class="edge"><title>Node179&#45;&gt;Node180</title>
<path fill="none" stroke="midnightblue" d="M592.084,-15.5C600.705,-15.5 609.383,-15.5 617.898,-15.5"/>
<polygon fill="midnightblue" stroke="midnightblue" points="592.002,-12.0001 582.002,-15.5 592.002,-19.0001 592.002,-12.0001"/>
</g>
<!-- Node181 -->
<g id="node5" class="node"><title>Node181</title>
<g id="a_node5"><a xlink:href="../../dc/ded/a00252.html#ac2d01dfdc40bdd47c757cb549217e6e3" target="_top" xlink:title="Entry point of the inference engine. ">
<polygon fill="none" stroke="black" points="834,-6 834,-25 997,-25 997,-6 834,-6"/>
<text text-anchor="middle" x="915.5" y="-13" font-family="Helvetica,sans-Serif" font-size="10.00">nars.inference.RuleTables.reason</text>
</a>
</g>
</g>
<!-- Node180&#45;&gt;Node181 -->
<g id="edge4" class="edge"><title>Node180&#45;&gt;Node181</title>
<path fill="none" stroke="midnightblue" d="M808.244,-15.5C816.792,-15.5 825.372,-15.5 833.747,-15.5"/>
<polygon fill="midnightblue" stroke="midnightblue" points="808.239,-12.0001 798.239,-15.5 808.239,-19.0001 808.239,-12.0001"/>
</g>
<!-- Node182 -->
<g id="node6" class="node"><title>Node182</title>
<g id="a_node6"><a xlink:href="../../d7/ded/a00196.html#ad6fb91dda799c3092ecb186ef24ca92a" target="_top" xlink:title="An atomic step in a concept, only called in Memory# processConcept. ">
<polygon fill="none" stroke="black" points="1033,-0.5 1033,-30.5 1152,-30.5 1152,-0.5 1033,-0.5"/>
<text text-anchor="start" x="1041" y="-18.5" font-family="Helvetica,sans-Serif" font-size="10.00">nars.entity.Concept.fire</text>
<text text-anchor="middle" x="1092.5" y="-7.5" font-family="Helvetica,sans-Serif" font-size="10.00">FromProcessConcept</text>
</a>
</g>
</g>
<!-- Node181&#45;&gt;Node182 -->
<g id="edge5" class="edge"><title>Node181&#45;&gt;Node182</title>
<path fill="none" stroke="midnightblue" d="M1007.25,-15.5C1015.91,-15.5 1024.52,-15.5 1032.76,-15.5"/>
<polygon fill="midnightblue" stroke="midnightblue" points="1007.09,-12.0001 997.085,-15.5 1007.08,-19.0001 1007.09,-12.0001"/>
</g>
<!-- Node183 -->
<g id="node7" class="node"><title>Node183</title>
<g id="a_node7"><a xlink:href="../../d4/d27/a00392.html#a0acc4adbf6a2462245da46bcb529746c" target="_top" xlink:title="Select a concept to fireFromProcessConcept. ">
<polygon fill="none" stroke="black" points="1188,-0.5 1188,-30.5 1334,-30.5 1334,-0.5 1188,-0.5"/>
<text text-anchor="start" x="1196" y="-18.5" font-family="Helvetica,sans-Serif" font-size="10.00">nars.storage.Memory.process</text>
<text text-anchor="middle" x="1261" y="-7.5" font-family="Helvetica,sans-Serif" font-size="10.00">Concept</text>
</a>
</g>
</g>
<!-- Node182&#45;&gt;Node183 -->
<g id="edge6" class="edge"><title>Node182&#45;&gt;Node183</title>
<path fill="none" stroke="midnightblue" d="M1162.34,-15.5C1170.75,-15.5 1179.36,-15.5 1187.82,-15.5"/>
<polygon fill="midnightblue" stroke="midnightblue" points="1162.2,-12.0001 1152.2,-15.5 1162.2,-19.0001 1162.2,-12.0001"/>
</g>
<!-- Node184 -->
<g id="node8" class="node"><title>Node184</title>
<g id="a_node8"><a xlink:href="../../d4/d27/a00392.html#a59ae339d666409988d90d29be4f73a91" target="_top" xlink:title="An atomic working workCycle of the system: process new Tasks, then fireFromProcessConcept a concept...">
<polygon fill="none" stroke="black" points="1370,-0.5 1370,-30.5 1503,-30.5 1503,-0.5 1370,-0.5"/>
<text text-anchor="start" x="1378" y="-18.5" font-family="Helvetica,sans-Serif" font-size="10.00">nars.storage.Memory.work</text>
<text text-anchor="middle" x="1436.5" y="-7.5" font-family="Helvetica,sans-Serif" font-size="10.00">Cycle</text>
</a>
</g>
</g>
<!-- Node183&#45;&gt;Node184 -->
<g id="edge7" class="edge"><title>Node183&#45;&gt;Node184</title>
<path fill="none" stroke="midnightblue" d="M1344.12,-15.5C1352.72,-15.5 1361.37,-15.5 1369.76,-15.5"/>
<polygon fill="midnightblue" stroke="midnightblue" points="1344.07,-12.0001 1334.07,-15.5 1344.07,-19.0001 1344.07,-12.0001"/>
</g>
<!-- Node185 -->
<g id="node9" class="node"><title>Node185</title>
<g id="a_node9"><a xlink:href="../../df/d15/a00416.html#a0d5c797dc17d9e8d0998852915e0f303" target="_top" xlink:title="nars.storage.ReasonerBatch.doTick">
<polygon fill="none" stroke="black" points="1539,-6 1539,-25 1712,-25 1712,-6 1539,-6"/>
<text text-anchor="middle" x="1625.5" y="-13" font-family="Helvetica,sans-Serif" font-size="10.00">nars.storage.ReasonerBatch.doTick</text>
</a>
</g>
</g>
<!-- Node184&#45;&gt;Node185 -->
<g id="edge8" class="edge"><title>Node184&#45;&gt;Node185</title>
<path fill="none" stroke="midnightblue" d="M1513.34,-15.5C1521.78,-15.5 1530.42,-15.5 1538.97,-15.5"/>
<polygon fill="midnightblue" stroke="midnightblue" points="1513.17,-12.0001 1503.17,-15.5 1513.17,-19.0001 1513.17,-12.0001"/>
</g>
<!-- Node186 -->
<g id="node10" class="node"><title>Node186</title>
<g id="a_node10"><a xlink:href="../../df/d15/a00416.html#a3468aa0f99edcd66412f27922dddb880" target="_top" xlink:title="A clock tick. ">
<polygon fill="none" stroke="black" points="1748,-6 1748,-25 1908,-25 1908,-6 1748,-6"/>
<text text-anchor="middle" x="1828" y="-13" font-family="Helvetica,sans-Serif" font-size="10.00">nars.storage.ReasonerBatch.tick</text>
</a>
</g>
</g>
<!-- Node185&#45;&gt;Node186 -->
<g id="edge9" class="edge"><title>Node185&#45;&gt;Node186</title>
<path fill="none" stroke="midnightblue" d="M1722.13,-15.5C1730.7,-15.5 1739.31,-15.5 1747.71,-15.5"/>
<polygon fill="midnightblue" stroke="midnightblue" points="1722.11,-12.0001 1712.11,-15.5 1722.11,-19.0001 1722.11,-12.0001"/>
</g>
<!-- Node187 -->
<g id="node11" class="node"><title>Node187</title>
<g id="a_node11"><a xlink:href="../../d9/da1/a00396.html#a5d9cfe517bcfbe41e5251910bcd119c1" target="_top" xlink:title="Run to completion: repeatedly execute NARS working cycle, until Inputs are Finished, or 1000 steps. ">
<polygon fill="none" stroke="black" points="1944,-6 1944,-25 2088,-25 2088,-6 1944,-6"/>
<text text-anchor="middle" x="2016" y="-13" font-family="Helvetica,sans-Serif" font-size="10.00">nars.storage.NARSBatch.run</text>
</a>
</g>
</g>
<!-- Node186&#45;&gt;Node187 -->
<g id="edge10" class="edge"><title>Node186&#45;&gt;Node187</title>
<path fill="none" stroke="midnightblue" d="M1918.22,-15.5C1926.82,-15.5 1935.47,-15.5 1943.87,-15.5"/>
<polygon fill="midnightblue" stroke="midnightblue" points="1918.15,-12.0001 1908.15,-15.5 1918.15,-19.0001 1918.15,-12.0001"/>
</g>
<!-- Node188 -->
<g id="node12" class="node"><title>Node188</title>
<g id="a_node12"><a xlink:href="../../d9/da1/a00396.html#a7c307c6b842f82664de6b0e52bdf8efc" target="_top" xlink:title="non&#45;static equivalent to main(String[]) : run to completion from an input file ">
<polygon fill="none" stroke="black" points="2124,-0.5 2124,-30.5 2268,-30.5 2268,-0.5 2124,-0.5"/>
<text text-anchor="start" x="2132" y="-18.5" font-family="Helvetica,sans-Serif" font-size="10.00">nars.storage.NARSBatch.run</text>
<text text-anchor="middle" x="2196" y="-7.5" font-family="Helvetica,sans-Serif" font-size="10.00">Inference</text>
</a>
</g>
</g>
<!-- Node187&#45;&gt;Node188 -->
<g id="edge11" class="edge"><title>Node187&#45;&gt;Node188</title>
<path fill="none" stroke="midnightblue" d="M2098.17,-15.5C2106.79,-15.5 2115.51,-15.5 2124,-15.5"/>
<polygon fill="midnightblue" stroke="midnightblue" points="2098.12,-12.0001 2088.12,-15.5 2098.12,-19.0001 2098.12,-12.0001"/>
</g>
<!-- Node189 -->
<g id="node13" class="node"><title>Node189</title>
<g id="a_node13"><a xlink:href="../../d9/da1/a00396.html#abafc597289bc2f6453b5cd0dd6634e54" target="_top" xlink:title="The entry point of the standalone application. ">
<polygon fill="none" stroke="black" points="2304,-6 2304,-25 2456,-25 2456,-6 2304,-6"/>
<text text-anchor="middle" x="2380" y="-13" font-family="Helvetica,sans-Serif" font-size="10.00">nars.storage.NARSBatch.main</text>
</a>
</g>
</g>
<!-- Node188&#45;&gt;Node189 -->
<g id="edge12" class="edge"><title>Node188&#45;&gt;Node189</title>
<path fill="none" stroke="midnightblue" d="M2278.17,-15.5C2286.76,-15.5 2295.48,-15.5 2304,-15.5"/>
<polygon fill="midnightblue" stroke="midnightblue" points="2278.15,-12.0001 2268.15,-15.5 2278.15,-19.0001 2278.15,-12.0001"/>
</g>
</g>
</svg>
