<?xml version="1.0" encoding="UTF-8" standalone="no"?>
<!DOCTYPE svg PUBLIC "-//W3C//DTD SVG 1.1//EN"
 "http://www.w3.org/Graphics/SVG/1.1/DTD/svg11.dtd">
<!-- Generated by graphviz version 2.38.0 (20140413.2041)
 -->
<!-- Title: nars.inference.LocalRules.revise Pages: 1 -->
<!--zoomable 137 -->
<svg id="main" version="1.1" xmlns="http://www.w3.org/2000/svg" xmlns:xlink="http://www.w3.org/1999/xlink" xml:space="preserve" onload="init(evt)">
<style type="text/css"><![CDATA[
.edge:hover path { stroke: red; }
.edge:hover polygon { stroke: red; fill: red; }
]]></style>
<script type="text/javascript"><![CDATA[
var edges = document.getElementsByTagName('g');
if (edges && edges.length) {
  for (var i=0;i<edges.length;i++) {
    if (edges[i].id.substr(0,4)=='edge') {
      edges[i].setAttribute('class','edge');
    }
  }
}
]]></script>
        <defs>
                <circle id="rim" cx="0" cy="0" r="7"/>
                <circle id="rim2" cx="0" cy="0" r="3.5"/>
                <g id="zoomPlus">
                        <use xlink:href="#rim" fill="#404040">
                                <set attributeName="fill" to="#808080" begin="zoomplus.mouseover" end="zoomplus.mouseout"/>
                        </use>
                        <path d="M-4,0h8M0,-4v8" fill="none" stroke="white" stroke-width="1.5" pointer-events="none"/>
                </g>
                <g id="zoomMin">
                        <use xlink:href="#rim" fill="#404040">
                                <set attributeName="fill" to="#808080" begin="zoomminus.mouseover" end="zoomminus.mouseout"/>
                        </use>
                        <path d="M-4,0h8" fill="none" stroke="white" stroke-width="1.5" pointer-events="none"/>
                </g>
                <g id="dirArrow">
                        <path fill="none" stroke="white" stroke-width="1.5" d="M0,-3.0v7 M-2.5,-0.5L0,-3.0L2.5,-0.5"/>
                </g>
               <g id="resetDef">
                       <use xlink:href="#rim2" fill="#404040">
                               <set attributeName="fill" to="#808080" begin="reset.mouseover" end="reset.mouseout"/>
                       </use>
               </g>
        </defs>

<script type="text/javascript">
var viewWidth = 2262;
var viewHeight = 137;
var sectionId = 'dynsection-17';
</script>
<script xlink:href="../../svgpan.js"/>
<svg id="graph" class="graph">
<g id="viewport">
<title>nars.inference.LocalRules.revise</title>
<!-- Node674 -->
<g id="node1" class="node"><title>Node674</title>
<polygon fill="#bfbfbf" stroke="black" points="0,-30 0,-49 159,-49 159,-30 0,-30"/>
<text text-anchor="middle" x="79.5" y="-37" font-family="Helvetica,sans-Serif" font-size="10.00">nars.inference.LocalRules.revise</text>
</g>
<!-- Node675 -->
<g id="node2" class="node"><title>Node675</title>
<g id="a_node2"><a xlink:href="../../dd/dd7/a00248.html#afcdec4a07d241f98cd54ef706781c3cb" target="_top" xlink:title="Belief revision. ">
<polygon fill="none" stroke="black" points="195,-30 195,-49 362,-49 362,-30 195,-30"/>
<text text-anchor="middle" x="278.5" y="-37" font-family="Helvetica,sans-Serif" font-size="10.00">nars.inference.LocalRules.revision</text>
</a>
</g>
</g>
<!-- Node674&#45;&gt;Node675 -->
<g id="edge1" class="edge"><title>Node674&#45;&gt;Node675</title>
<path fill="none" stroke="midnightblue" d="M169.42,-39.5C177.843,-39.5 186.36,-39.5 194.722,-39.5"/>
<polygon fill="midnightblue" stroke="midnightblue" points="169.209,-36.0001 159.209,-39.5 169.209,-43.0001 169.209,-36.0001"/>
</g>
<!-- Node676 -->
<g id="node3" class="node"><title>Node676</title>
<g id="a_node3"><a xlink:href="../../d7/ded/a00196.html#a40cddcc82ee28a1cf5b1f4bc14e2b078" target="_top" xlink:title="To accept a new judgment as isBelief, and check for revisions and solutions. ">
<polygon fill="none" stroke="black" points="408,-47.5 408,-77.5 548,-77.5 548,-47.5 408,-47.5"/>
<text text-anchor="start" x="416" y="-65.5" font-family="Helvetica,sans-Serif" font-size="10.00">nars.entity.Concept.process</text>
<text text-anchor="middle" x="478" y="-54.5" font-family="Helvetica,sans-Serif" font-size="10.00">Judgment</text>
</a>
</g>
</g>
<!-- Node675&#45;&gt;Node676 -->
<g id="edge2" class="edge"><title>Node675&#45;&gt;Node676</title>
<path fill="none" stroke="midnightblue" d="M371.49,-50.2128C383.732,-51.6384 396.113,-53.0802 407.875,-54.45"/>
<polygon fill="midnightblue" stroke="midnightblue" points="371.594,-46.7013 361.256,-49.021 370.784,-53.6543 371.594,-46.7013"/>
</g>
<!-- Node687 -->
<g id="node14" class="node"><title>Node687</title>
<g id="a_node14"><a xlink:href="../../dd/dd7/a00248.html#aac1c92950f50edd04d12229a8c992987" target="_top" xlink:title="The task and belief have the same content. ">
<polygon fill="none" stroke="black" points="398,-8 398,-27 558,-27 558,-8 398,-8"/>
<text text-anchor="middle" x="478" y="-15" font-family="Helvetica,sans-Serif" font-size="10.00">nars.inference.LocalRules.match</text>
</a>
</g>
</g>
<!-- Node675&#45;&gt;Node687 -->
<g id="edge14" class="edge"><title>Node675&#45;&gt;Node687</title>
<path fill="none" stroke="midnightblue" d="M372.162,-29.1781C380.76,-28.2204 389.419,-27.2558 397.878,-26.3136"/>
<polygon fill="midnightblue" stroke="midnightblue" points="371.664,-25.7118 362.113,-30.2975 372.439,-32.6688 371.664,-25.7118"/>
</g>
<!-- Node677 -->
<g id="node4" class="node"><title>Node677</title>
<g id="a_node4"><a xlink:href="../../d7/ded/a00196.html#a9ea7c3154932d7a736c105eb55daeb5c" target="_top" xlink:title="Directly process a new task. ">
<polygon fill="none" stroke="black" points="611,-48.5 611,-78.5 740,-78.5 740,-48.5 611,-48.5"/>
<text text-anchor="start" x="619" y="-66.5" font-family="Helvetica,sans-Serif" font-size="10.00">nars.entity.Concept.direct</text>
<text text-anchor="middle" x="675.5" y="-55.5" font-family="Helvetica,sans-Serif" font-size="10.00">Process</text>
</a>
</g>
</g>
<!-- Node676&#45;&gt;Node677 -->
<g id="edge3" class="edge"><title>Node676&#45;&gt;Node677</title>
<path fill="none" stroke="midnightblue" d="M558.386,-62.9061C575.875,-62.9955 594.177,-63.0891 610.943,-63.1749"/>
<polygon fill="midnightblue" stroke="midnightblue" points="558.219,-59.4053 548.201,-62.854 558.183,-66.4052 558.219,-59.4053"/>
</g>
<!-- Node678 -->
<g id="node5" class="node"><title>Node678</title>
<g id="a_node5"><a xlink:href="../../d4/d27/a00392.html#af8d07412d21a441a5c7005a477b06468" target="_top" xlink:title="Immediate processing of a new task, in constant time Local processing, in one concept only...">
<polygon fill="none" stroke="black" points="793,-49.5 793,-79.5 950,-79.5 950,-49.5 793,-49.5"/>
<text text-anchor="start" x="801" y="-67.5" font-family="Helvetica,sans-Serif" font-size="10.00">nars.storage.Memory.immediate</text>
<text text-anchor="middle" x="871.5" y="-56.5" font-family="Helvetica,sans-Serif" font-size="10.00">Process</text>
</a>
</g>
</g>
<!-- Node677&#45;&gt;Node678 -->
<g id="edge4" class="edge"><title>Node677&#45;&gt;Node678</title>
<path fill="none" stroke="midnightblue" d="M750.088,-63.8793C764.105,-63.9516 778.815,-64.0274 792.95,-64.1003"/>
<polygon fill="midnightblue" stroke="midnightblue" points="750.041,-60.3791 740.023,-63.8274 750.005,-67.379 750.041,-60.3791"/>
</g>
<!-- Node679 -->
<g id="node6" class="node"><title>Node679</title>
<g id="a_node6"><a xlink:href="../../d4/d27/a00392.html#ae43b86074c0d8f6a324696f69faa54b3" target="_top" xlink:title="Process the newTasks accumulated in the previous workCycle, accept input ones and those that correspo...">
<polygon fill="none" stroke="black" points="986,-98.5 986,-128.5 1132,-128.5 1132,-98.5 986,-98.5"/>
<text text-anchor="start" x="994" y="-116.5" font-family="Helvetica,sans-Serif" font-size="10.00">nars.storage.Memory.process</text>
<text text-anchor="middle" x="1059" y="-105.5" font-family="Helvetica,sans-Serif" font-size="10.00">NewTask</text>
</a>
</g>
</g>
<!-- Node678&#45;&gt;Node679 -->
<g id="edge5" class="edge"><title>Node678&#45;&gt;Node679</title>
<path fill="none" stroke="midnightblue" d="M939.215,-82.1229C959.51,-87.4837 981.614,-93.3225 1001.19,-98.4938"/>
<polygon fill="midnightblue" stroke="midnightblue" points="939.979,-78.7047 929.417,-79.5346 938.191,-85.4725 939.979,-78.7047"/>
</g>
<!-- Node686 -->
<g id="node13" class="node"><title>Node686</title>
<g id="a_node13"><a xlink:href="../../d4/d27/a00392.html#a5061708f88897cfdf4e0671c846762ca" target="_top" xlink:title="Select a novel task to process. ">
<polygon fill="none" stroke="black" points="986,-49.5 986,-79.5 1132,-79.5 1132,-49.5 986,-49.5"/>
<text text-anchor="start" x="994" y="-67.5" font-family="Helvetica,sans-Serif" font-size="10.00">nars.storage.Memory.process</text>
<text text-anchor="middle" x="1059" y="-56.5" font-family="Helvetica,sans-Serif" font-size="10.00">NovelTask</text>
</a>
</g>
</g>
<!-- Node678&#45;&gt;Node686 -->
<g id="edge12" class="edge"><title>Node678&#45;&gt;Node686</title>
<path fill="none" stroke="midnightblue" d="M960.125,-64.5C968.707,-64.5 977.349,-64.5 985.754,-64.5"/>
<polygon fill="midnightblue" stroke="midnightblue" points="960.094,-61.0001 950.094,-64.5 960.094,-68.0001 960.094,-61.0001"/>
</g>
<!-- Node680 -->
<g id="node7" class="node"><title>Node680</title>
<g id="a_node7"><a xlink:href="../../d4/d27/a00392.html#a59ae339d666409988d90d29be4f73a91" target="_top" xlink:title="An atomic working workCycle of the system: process new Tasks, then fireFromProcessConcept a concept...">
<polygon fill="none" stroke="black" points="1168,-49.5 1168,-79.5 1301,-79.5 1301,-49.5 1168,-49.5"/>
<text text-anchor="start" x="1176" y="-67.5" font-family="Helvetica,sans-Serif" font-size="10.00">nars.storage.Memory.work</text>
<text text-anchor="middle" x="1234.5" y="-56.5" font-family="Helvetica,sans-Serif" font-size="10.00">Cycle</text>
</a>
</g>
</g>
<!-- Node679&#45;&gt;Node680 -->
<g id="edge6" class="edge"><title>Node679&#45;&gt;Node680</title>
<path fill="none" stroke="midnightblue" d="M1123.1,-95.6788C1141.83,-90.3882 1162.16,-84.6478 1180.21,-79.5516"/>
<polygon fill="midnightblue" stroke="midnightblue" points="1122.14,-92.3123 1113.47,-98.3986 1124.05,-99.0488 1122.14,-92.3123"/>
</g>
<!-- Node681 -->
<g id="node8" class="node"><title>Node681</title>
<g id="a_node8"><a xlink:href="../../df/d15/a00416.html#a0d5c797dc17d9e8d0998852915e0f303" target="_top" xlink:title="nars.storage.ReasonerBatch.doTick">
<polygon fill="none" stroke="black" points="1337,-55 1337,-74 1510,-74 1510,-55 1337,-55"/>
<text text-anchor="middle" x="1423.5" y="-62" font-family="Helvetica,sans-Serif" font-size="10.00">nars.storage.ReasonerBatch.doTick</text>
</a>
</g>
</g>
<!-- Node680&#45;&gt;Node681 -->
<g id="edge7" class="edge"><title>Node680&#45;&gt;Node681</title>
<path fill="none" stroke="midnightblue" d="M1311.34,-64.5C1319.78,-64.5 1328.42,-64.5 1336.97,-64.5"/>
<polygon fill="midnightblue" stroke="midnightblue" points="1311.17,-61.0001 1301.17,-64.5 1311.17,-68.0001 1311.17,-61.0001"/>
</g>
<!-- Node682 -->
<g id="node9" class="node"><title>Node682</title>
<g id="a_node9"><a xlink:href="../../df/d15/a00416.html#a3468aa0f99edcd66412f27922dddb880" target="_top" xlink:title="A clock tick. ">
<polygon fill="none" stroke="black" points="1546,-55 1546,-74 1706,-74 1706,-55 1546,-55"/>
<text text-anchor="middle" x="1626" y="-62" font-family="Helvetica,sans-Serif" font-size="10.00">nars.storage.ReasonerBatch.tick</text>
</a>
</g>
</g>
<!-- Node681&#45;&gt;Node682 -->
<g id="edge8" class="edge"><title>Node681&#45;&gt;Node682</title>
<path fill="none" stroke="midnightblue" d="M1520.13,-64.5C1528.7,-64.5 1537.31,-64.5 1545.71,-64.5"/>
<polygon fill="midnightblue" stroke="midnightblue" points="1520.11,-61.0001 1510.11,-64.5 1520.11,-68.0001 1520.11,-61.0001"/>
</g>
<!-- Node683 -->
<g id="node10" class="node"><title>Node683</title>
<g id="a_node10"><a xlink:href="../../d9/da1/a00396.html#a5d9cfe517bcfbe41e5251910bcd119c1" target="_top" xlink:title="Run to completion: repeatedly execute NARS working cycle, until Inputs are Finished, or 1000 steps. ">
<polygon fill="none" stroke="black" points="1742,-55 1742,-74 1886,-74 1886,-55 1742,-55"/>
<text text-anchor="middle" x="1814" y="-62" font-family="Helvetica,sans-Serif" font-size="10.00">nars.storage.NARSBatch.run</text>
</a>
</g>
</g>
<!-- Node682&#45;&gt;Node683 -->
<g id="edge9" class="edge"><title>Node682&#45;&gt;Node683</title>
<path fill="none" stroke="midnightblue" d="M1716.22,-64.5C1724.82,-64.5 1733.47,-64.5 1741.87,-64.5"/>
<polygon fill="midnightblue" stroke="midnightblue" points="1716.15,-61.0001 1706.15,-64.5 1716.15,-68.0001 1716.15,-61.0001"/>
</g>
<!-- Node684 -->
<g id="node11" class="node"><title>Node684</title>
<g id="a_node11"><a xlink:href="../../d9/da1/a00396.html#a7c307c6b842f82664de6b0e52bdf8efc" target="_top" xlink:title="non&#45;static equivalent to main(String[]) : run to completion from an input file ">
<polygon fill="none" stroke="black" points="1922,-49.5 1922,-79.5 2066,-79.5 2066,-49.5 1922,-49.5"/>
<text text-anchor="start" x="1930" y="-67.5" font-family="Helvetica,sans-Serif" font-size="10.00">nars.storage.NARSBatch.run</text>
<text text-anchor="middle" x="1994" y="-56.5" font-family="Helvetica,sans-Serif" font-size="10.00">Inference</text>
</a>
</g>
</g>
<!-- Node683&#45;&gt;Node684 -->
<g id="edge10" class="edge"><title>Node683&#45;&gt;Node684</title>
<path fill="none" stroke="midnightblue" d="M1896.17,-64.5C1904.79,-64.5 1913.51,-64.5 1922,-64.5"/>
<polygon fill="midnightblue" stroke="midnightblue" points="1896.12,-61.0001 1886.12,-64.5 1896.12,-68.0001 1896.12,-61.0001"/>
</g>
<!-- Node685 -->
<g id="node12" class="node"><title>Node685</title>
<g id="a_node12"><a xlink:href="../../d9/da1/a00396.html#abafc597289bc2f6453b5cd0dd6634e54" target="_top" xlink:title="The entry point of the standalone application. ">
<polygon fill="none" stroke="black" points="2102,-55 2102,-74 2254,-74 2254,-55 2102,-55"/>
<text text-anchor="middle" x="2178" y="-62" font-family="Helvetica,sans-Serif" font-size="10.00">nars.storage.NARSBatch.main</text>
</a>
</g>
</g>
<!-- Node684&#45;&gt;Node685 -->
<g id="edge11" class="edge"><title>Node684&#45;&gt;Node685</title>
<path fill="none" stroke="midnightblue" d="M2076.17,-64.5C2084.76,-64.5 2093.48,-64.5 2102,-64.5"/>
<polygon fill="midnightblue" stroke="midnightblue" points="2076.15,-61.0001 2066.15,-64.5 2076.15,-68.0001 2076.15,-61.0001"/>
</g>
<!-- Node686&#45;&gt;Node680 -->
<g id="edge13" class="edge"><title>Node686&#45;&gt;Node680</title>
<path fill="none" stroke="midnightblue" d="M1142.12,-64.5C1150.72,-64.5 1159.37,-64.5 1167.76,-64.5"/>
<polygon fill="midnightblue" stroke="midnightblue" points="1142.07,-61.0001 1132.07,-64.5 1142.07,-68.0001 1142.07,-61.0001"/>
</g>
<!-- Node688 -->
<g id="node15" class="node"><title>Node688</title>
<g id="a_node15"><a xlink:href="../../dc/ded/a00252.html#ac2d01dfdc40bdd47c757cb549217e6e3" target="_top" xlink:title="Entry point of the inference engine. ">
<polygon fill="none" stroke="black" points="594,-6 594,-25 757,-25 757,-6 594,-6"/>
<text text-anchor="middle" x="675.5" y="-13" font-family="Helvetica,sans-Serif" font-size="10.00">nars.inference.RuleTables.reason</text>
</a>
</g>
</g>
<!-- Node687&#45;&gt;Node688 -->
<g id="edge15" class="edge"><title>Node687&#45;&gt;Node688</title>
<path fill="none" stroke="midnightblue" d="M568.499,-16.5844C576.962,-16.4978 585.507,-16.4104 593.88,-16.3248"/>
<polygon fill="midnightblue" stroke="midnightblue" points="568.199,-13.0872 558.236,-16.6894 568.271,-20.0868 568.199,-13.0872"/>
</g>
<!-- Node689 -->
<g id="node16" class="node"><title>Node689</title>
<g id="a_node16"><a xlink:href="../../d7/ded/a00196.html#ad6fb91dda799c3092ecb186ef24ca92a" target="_top" xlink:title="An atomic step in a concept, only called in Memory# processConcept. ">
<polygon fill="none" stroke="black" points="812,-0.5 812,-30.5 931,-30.5 931,-0.5 812,-0.5"/>
<text text-anchor="start" x="820" y="-18.5" font-family="Helvetica,sans-Serif" font-size="10.00">nars.entity.Concept.fire</text>
<text text-anchor="middle" x="871.5" y="-7.5" font-family="Helvetica,sans-Serif" font-size="10.00">FromProcessConcept</text>
</a>
</g>
</g>
<!-- Node688&#45;&gt;Node689 -->
<g id="edge16" class="edge"><title>Node688&#45;&gt;Node689</title>
<path fill="none" stroke="midnightblue" d="M767.461,-15.5C782.516,-15.5 797.765,-15.5 811.751,-15.5"/>
<polygon fill="midnightblue" stroke="midnightblue" points="767.088,-12.0001 757.088,-15.5 767.088,-19.0001 767.088,-12.0001"/>
</g>
<!-- Node690 -->
<g id="node17" class="node"><title>Node690</title>
<g id="a_node17"><a xlink:href="../../d4/d27/a00392.html#a0acc4adbf6a2462245da46bcb529746c" target="_top" xlink:title="Select a concept to fireFromProcessConcept. ">
<polygon fill="none" stroke="black" points="986,-0.5 986,-30.5 1132,-30.5 1132,-0.5 986,-0.5"/>
<text text-anchor="start" x="994" y="-18.5" font-family="Helvetica,sans-Serif" font-size="10.00">nars.storage.Memory.process</text>
<text text-anchor="middle" x="1059" y="-7.5" font-family="Helvetica,sans-Serif" font-size="10.00">Concept</text>
</a>
</g>
</g>
<!-- Node689&#45;&gt;Node690 -->
<g id="edge17" class="edge"><title>Node689&#45;&gt;Node690</title>
<path fill="none" stroke="midnightblue" d="M941.519,-15.5C955.929,-15.5 971.158,-15.5 985.683,-15.5"/>
<polygon fill="midnightblue" stroke="midnightblue" points="941.193,-12.0001 931.193,-15.5 941.193,-19.0001 941.193,-12.0001"/>
</g>
<!-- Node690&#45;&gt;Node680 -->
<g id="edge18" class="edge"><title>Node690&#45;&gt;Node680</title>
<path fill="none" stroke="midnightblue" d="M1123.1,-33.3212C1141.83,-38.6118 1162.16,-44.3522 1180.21,-49.4484"/>
<polygon fill="midnightblue" stroke="midnightblue" points="1124.05,-29.9512 1113.47,-30.6014 1122.14,-36.6877 1124.05,-29.9512"/>
</g>
</g>
</svg>
        <g id="navigator" transform="translate(0 0)" fill="#404254">
                <rect fill="#f2f5e9" fill-opacity="0.5" stroke="#606060" stroke-width=".5" x="0" y="0" width="60" height="60"/>
                <use id="zoomplus" xlink:href="#zoomPlus" x="17" y="9" onmousedown="handleZoom(evt,'in')"/>
                <use id="zoomminus" xlink:href="#zoomMin" x="42" y="9" onmousedown="handleZoom(evt,'out')"/>
                <use id="reset" xlink:href="#resetDef" x="30" y="36" onmousedown="handleReset()"/>
                <g id="arrowUp" xlink:href="#dirArrow" transform="translate(30 24)" onmousedown="handlePan(0,-1)">
                  <use xlink:href="#rim" fill="#404040">
                        <set attributeName="fill" to="#808080" begin="arrowUp.mouseover" end="arrowUp.mouseout"/>
                  </use>
                  <path fill="none" stroke="white" stroke-width="1.5" d="M0,-3.0v7 M-2.5,-0.5L0,-3.0L2.5,-0.5"/>
                </g>
                <g id="arrowRight" xlink:href="#dirArrow" transform="rotate(90) translate(36 -43)" onmousedown="handlePan(1,0)">
                  <use xlink:href="#rim" fill="#404040">
                        <set attributeName="fill" to="#808080" begin="arrowRight.mouseover" end="arrowRight.mouseout"/>
                  </use>
                  <path fill="none" stroke="white" stroke-width="1.5" d="M0,-3.0v7 M-2.5,-0.5L0,-3.0L2.5,-0.5"/>
                </g>
                <g id="arrowDown" xlink:href="#dirArrow" transform="rotate(180) translate(-30 -48)" onmousedown="handlePan(0,1)">
                  <use xlink:href="#rim" fill="#404040">
                        <set attributeName="fill" to="#808080" begin="arrowDown.mouseover" end="arrowDown.mouseout"/>
                  </use>
                  <path fill="none" stroke="white" stroke-width="1.5" d="M0,-3.0v7 M-2.5,-0.5L0,-3.0L2.5,-0.5"/>
                </g>
                <g id="arrowLeft" xlink:href="#dirArrow" transform="rotate(270) translate(-36 17)" onmousedown="handlePan(-1,0)">
                  <use xlink:href="#rim" fill="#404040">
                        <set attributeName="fill" to="#808080" begin="arrowLeft.mouseover" end="arrowLeft.mouseout"/>
                  </use>
                  <path fill="none" stroke="white" stroke-width="1.5" d="M0,-3.0v7 M-2.5,-0.5L0,-3.0L2.5,-0.5"/>
                </g>
        </g>
        <svg viewBox="0 0 15 15" width="100%" height="30px" preserveAspectRatio="xMaxYMin meet">
         <g id="arrow_out" transform="scale(0.3 0.3)">
          <a xlink:href="a00248_a3943c9b8c0f16170dbf552a0c96ec97e_icgraph_org.svg" target="_base">
           <rect id="button" ry="5" rx="5" y="6" x="6" height="38" width="38"
                fill="#f2f5e9" fill-opacity="0.5" stroke="#606060" stroke-width="1.0"/>
           <path id="arrow"
             d="M 11.500037,31.436501 C 11.940474,20.09759 22.043105,11.32322 32.158766,21.979434 L 37.068811,17.246167 C 37.068811,17.246167 37.088388,32 37.088388,32 L 22.160133,31.978069 C 22.160133,31.978069 26.997745,27.140456 26.997745,27.140456 C 18.528582,18.264221 13.291696,25.230495 11.500037,31.436501 z"
             style="fill:#404040;"/>
          </a>
         </g>
        </svg>
</svg>
