<?xml version="1.0" encoding="UTF-8" standalone="no"?>
<!DOCTYPE svg PUBLIC "-//W3C//DTD SVG 1.1//EN"
 "http://www.w3.org/Graphics/SVG/1.1/DTD/svg11.dtd">
<!-- Generated by graphviz version 2.38.0 (20140413.2041)
 -->
<!-- Title: nars.entity.EntityObserver.refresh Pages: 1 -->
<svg width="1834pt" height="88pt"
 viewBox="0.00 0.00 1834.00 88.00" xmlns="http://www.w3.org/2000/svg" xmlns:xlink="http://www.w3.org/1999/xlink">
<g id="graph0" class="graph" transform="scale(1 1) rotate(0) translate(4 84)">
<title>nars.entity.EntityObserver.refresh</title>
<!-- Node8 -->
<g id="node1" class="node"><title>Node8</title>
<polygon fill="#bfbfbf" stroke="black" points="0,-30 0,-49 164,-49 164,-30 0,-30"/>
<text text-anchor="middle" x="82" y="-37" font-family="Helvetica,sans-Serif" font-size="10.00">nars.entity.EntityObserver.refresh</text>
</g>
<!-- Node9 -->
<g id="node2" class="node"><title>Node9</title>
<g id="a_node2"><a xlink:href="../../d7/ded/a00196.html#a9ea7c3154932d7a736c105eb55daeb5c" target="_top" xlink:title="Directly process a new task. ">
<polygon fill="none" stroke="black" points="200,-24.5 200,-54.5 329,-54.5 329,-24.5 200,-24.5"/>
<text text-anchor="start" x="208" y="-42.5" font-family="Helvetica,sans-Serif" font-size="10.00">nars.entity.Concept.direct</text>
<text text-anchor="middle" x="264.5" y="-31.5" font-family="Helvetica,sans-Serif" font-size="10.00">Process</text>
</a>
</g>
</g>
<!-- Node8&#45;&gt;Node9 -->
<g id="edge1" class="edge"><title>Node8&#45;&gt;Node9</title>
<path fill="none" stroke="midnightblue" d="M174.165,-39.5C182.827,-39.5 191.478,-39.5 199.799,-39.5"/>
<polygon fill="midnightblue" stroke="midnightblue" points="174.01,-36.0001 164.01,-39.5 174.01,-43.0001 174.01,-36.0001"/>
</g>
<!-- Node10 -->
<g id="node3" class="node"><title>Node10</title>
<g id="a_node3"><a xlink:href="../../d4/d27/a00392.html#af8d07412d21a441a5c7005a477b06468" target="_top" xlink:title="Immediate processing of a new task, in constant time Local processing, in one concept only...">
<polygon fill="none" stroke="black" points="365,-24.5 365,-54.5 522,-54.5 522,-24.5 365,-24.5"/>
<text text-anchor="start" x="373" y="-42.5" font-family="Helvetica,sans-Serif" font-size="10.00">nars.storage.Memory.immediate</text>
<text text-anchor="middle" x="443.5" y="-31.5" font-family="Helvetica,sans-Serif" font-size="10.00">Process</text>
</a>
</g>
</g>
<!-- Node9&#45;&gt;Node10 -->
<g id="edge2" class="edge"><title>Node9&#45;&gt;Node10</title>
<path fill="none" stroke="midnightblue" d="M339.492,-39.5C347.854,-39.5 356.393,-39.5 364.801,-39.5"/>
<polygon fill="midnightblue" stroke="midnightblue" points="339.401,-36.0001 329.401,-39.5 339.401,-43.0001 339.401,-36.0001"/>
</g>
<!-- Node11 -->
<g id="node4" class="node"><title>Node11</title>
<g id="a_node4"><a xlink:href="../../d4/d27/a00392.html#ae43b86074c0d8f6a324696f69faa54b3" target="_top" xlink:title="Process the newTasks accumulated in the previous workCycle, accept input ones and those that correspo...">
<polygon fill="none" stroke="black" points="558,-49.5 558,-79.5 704,-79.5 704,-49.5 558,-49.5"/>
<text text-anchor="start" x="566" y="-67.5" font-family="Helvetica,sans-Serif" font-size="10.00">nars.storage.Memory.process</text>
<text text-anchor="middle" x="631" y="-56.5" font-family="Helvetica,sans-Serif" font-size="10.00">NewTask</text>
</a>
</g>
</g>
<!-- Node10&#45;&gt;Node11 -->
<g id="edge3" class="edge"><title>Node10&#45;&gt;Node11</title>
<path fill="none" stroke="midnightblue" d="M532.125,-51.3093C540.707,-52.466 549.349,-53.6306 557.754,-54.7633"/>
<polygon fill="midnightblue" stroke="midnightblue" points="532.472,-47.8245 522.094,-49.9574 531.537,-54.7618 532.472,-47.8245"/>
</g>
<!-- Node18 -->
<g id="node11" class="node"><title>Node18</title>
<g id="a_node11"><a xlink:href="../../d4/d27/a00392.html#a5061708f88897cfdf4e0671c846762ca" target="_top" xlink:title="Select a novel task to process. ">
<polygon fill="none" stroke="black" points="558,-0.5 558,-30.5 704,-30.5 704,-0.5 558,-0.5"/>
<text text-anchor="start" x="566" y="-18.5" font-family="Helvetica,sans-Serif" font-size="10.00">nars.storage.Memory.process</text>
<text text-anchor="middle" x="631" y="-7.5" font-family="Helvetica,sans-Serif" font-size="10.00">NovelTask</text>
</a>
</g>
</g>
<!-- Node10&#45;&gt;Node18 -->
<g id="edge10" class="edge"><title>Node10&#45;&gt;Node18</title>
<path fill="none" stroke="midnightblue" d="M532.125,-28.1631C540.707,-27.0527 549.349,-25.9346 557.754,-24.8472"/>
<polygon fill="midnightblue" stroke="midnightblue" points="531.562,-24.7066 522.094,-29.4609 532.46,-31.6488 531.562,-24.7066"/>
</g>
<!-- Node12 -->
<g id="node5" class="node"><title>Node12</title>
<g id="a_node5"><a xlink:href="../../d4/d27/a00392.html#a59ae339d666409988d90d29be4f73a91" target="_top" xlink:title="An atomic working workCycle of the system: process new Tasks, then fireFromProcessConcept a concept...">
<polygon fill="none" stroke="black" points="740,-24.5 740,-54.5 873,-54.5 873,-24.5 740,-24.5"/>
<text text-anchor="start" x="748" y="-42.5" font-family="Helvetica,sans-Serif" font-size="10.00">nars.storage.Memory.work</text>
<text text-anchor="middle" x="806.5" y="-31.5" font-family="Helvetica,sans-Serif" font-size="10.00">Cycle</text>
</a>
</g>
</g>
<!-- Node11&#45;&gt;Node12 -->
<g id="edge4" class="edge"><title>Node11&#45;&gt;Node12</title>
<path fill="none" stroke="midnightblue" d="M714.118,-52.6675C722.716,-51.4286 731.375,-50.1809 739.755,-48.9733"/>
<polygon fill="midnightblue" stroke="midnightblue" points="713.471,-49.2244 704.072,-54.1149 714.469,-56.1529 713.471,-49.2244"/>
</g>
<!-- Node13 -->
<g id="node6" class="node"><title>Node13</title>
<g id="a_node6"><a xlink:href="../../df/d15/a00416.html#a0d5c797dc17d9e8d0998852915e0f303" target="_top" xlink:title="nars.storage.ReasonerBatch.doTick">
<polygon fill="none" stroke="black" points="909,-30 909,-49 1082,-49 1082,-30 909,-30"/>
<text text-anchor="middle" x="995.5" y="-37" font-family="Helvetica,sans-Serif" font-size="10.00">nars.storage.ReasonerBatch.doTick</text>
</a>
</g>
</g>
<!-- Node12&#45;&gt;Node13 -->
<g id="edge5" class="edge"><title>Node12&#45;&gt;Node13</title>
<path fill="none" stroke="midnightblue" d="M883.343,-39.5C891.782,-39.5 900.421,-39.5 908.971,-39.5"/>
<polygon fill="midnightblue" stroke="midnightblue" points="883.166,-36.0001 873.166,-39.5 883.166,-43.0001 883.166,-36.0001"/>
</g>
<!-- Node14 -->
<g id="node7" class="node"><title>Node14</title>
<g id="a_node7"><a xlink:href="../../df/d15/a00416.html#a3468aa0f99edcd66412f27922dddb880" target="_top" xlink:title="A clock tick. ">
<polygon fill="none" stroke="black" points="1118,-30 1118,-49 1278,-49 1278,-30 1118,-30"/>
<text text-anchor="middle" x="1198" y="-37" font-family="Helvetica,sans-Serif" font-size="10.00">nars.storage.ReasonerBatch.tick</text>
</a>
</g>
</g>
<!-- Node13&#45;&gt;Node14 -->
<g id="edge6" class="edge"><title>Node13&#45;&gt;Node14</title>
<path fill="none" stroke="midnightblue" d="M1092.13,-39.5C1100.7,-39.5 1109.31,-39.5 1117.71,-39.5"/>
<polygon fill="midnightblue" stroke="midnightblue" points="1092.11,-36.0001 1082.11,-39.5 1092.11,-43.0001 1092.11,-36.0001"/>
</g>
<!-- Node15 -->
<g id="node8" class="node"><title>Node15</title>
<g id="a_node8"><a xlink:href="../../d9/da1/a00396.html#a5d9cfe517bcfbe41e5251910bcd119c1" target="_top" xlink:title="Run to completion: repeatedly execute NARS working cycle, until Inputs are Finished, or 1000 steps. ">
<polygon fill="none" stroke="black" points="1314,-30 1314,-49 1458,-49 1458,-30 1314,-30"/>
<text text-anchor="middle" x="1386" y="-37" font-family="Helvetica,sans-Serif" font-size="10.00">nars.storage.NARSBatch.run</text>
</a>
</g>
</g>
<!-- Node14&#45;&gt;Node15 -->
<g id="edge7" class="edge"><title>Node14&#45;&gt;Node15</title>
<path fill="none" stroke="midnightblue" d="M1288.22,-39.5C1296.82,-39.5 1305.47,-39.5 1313.87,-39.5"/>
<polygon fill="midnightblue" stroke="midnightblue" points="1288.15,-36.0001 1278.15,-39.5 1288.15,-43.0001 1288.15,-36.0001"/>
</g>
<!-- Node16 -->
<g id="node9" class="node"><title>Node16</title>
<g id="a_node9"><a xlink:href="../../d9/da1/a00396.html#a7c307c6b842f82664de6b0e52bdf8efc" target="_top" xlink:title="non&#45;static equivalent to main(String[]) : run to completion from an input file ">
<polygon fill="none" stroke="black" points="1494,-24.5 1494,-54.5 1638,-54.5 1638,-24.5 1494,-24.5"/>
<text text-anchor="start" x="1502" y="-42.5" font-family="Helvetica,sans-Serif" font-size="10.00">nars.storage.NARSBatch.run</text>
<text text-anchor="middle" x="1566" y="-31.5" font-family="Helvetica,sans-Serif" font-size="10.00">Inference</text>
</a>
</g>
</g>
<!-- Node15&#45;&gt;Node16 -->
<g id="edge8" class="edge"><title>Node15&#45;&gt;Node16</title>
<path fill="none" stroke="midnightblue" d="M1468.17,-39.5C1476.79,-39.5 1485.51,-39.5 1494,-39.5"/>
<polygon fill="midnightblue" stroke="midnightblue" points="1468.12,-36.0001 1458.12,-39.5 1468.12,-43.0001 1468.12,-36.0001"/>
</g>
<!-- Node17 -->
<g id="node10" class="node"><title>Node17</title>
<g id="a_node10"><a xlink:href="../../d9/da1/a00396.html#abafc597289bc2f6453b5cd0dd6634e54" target="_top" xlink:title="The entry point of the standalone application. ">
<polygon fill="none" stroke="black" points="1674,-30 1674,-49 1826,-49 1826,-30 1674,-30"/>
<text text-anchor="middle" x="1750" y="-37" font-family="Helvetica,sans-Serif" font-size="10.00">nars.storage.NARSBatch.main</text>
</a>
</g>
</g>
<!-- Node16&#45;&gt;Node17 -->
<g id="edge9" class="edge"><title>Node16&#45;&gt;Node17</title>
<path fill="none" stroke="midnightblue" d="M1648.17,-39.5C1656.76,-39.5 1665.48,-39.5 1674,-39.5"/>
<polygon fill="midnightblue" stroke="midnightblue" points="1648.15,-36.0001 1638.15,-39.5 1648.15,-43.0001 1648.15,-36.0001"/>
</g>
<!-- Node18&#45;&gt;Node12 -->
<g id="edge11" class="edge"><title>Node18&#45;&gt;Node12</title>
<path fill="none" stroke="midnightblue" d="M714.118,-26.8592C722.716,-28.0486 731.375,-29.2464 739.755,-30.4056"/>
<polygon fill="midnightblue" stroke="midnightblue" points="714.458,-23.373 704.072,-25.4697 713.498,-30.307 714.458,-23.373"/>
</g>
</g>
</svg>
