<?xml version="1.0" encoding="UTF-8" standalone="no"?>
<!DOCTYPE svg PUBLIC "-//W3C//DTD SVG 1.1//EN"
 "http://www.w3.org/Graphics/SVG/1.1/DTD/svg11.dtd">
<!-- Generated by graphviz version 2.38.0 (20140413.2041)
 -->
<!-- Title: nars.language.Variable.containVarQuery Pages: 1 -->
<!--zoomable 302 -->
<svg id="main" version="1.1" xmlns="http://www.w3.org/2000/svg" xmlns:xlink="http://www.w3.org/1999/xlink" xml:space="preserve" onload="init(evt)">
<style type="text/css"><![CDATA[
.edge:hover path { stroke: red; }
.edge:hover polygon { stroke: red; fill: red; }
]]></style>
<script type="text/javascript"><![CDATA[
var edges = document.getElementsByTagName('g');
if (edges && edges.length) {
  for (var i=0;i<edges.length;i++) {
    if (edges[i].id.substr(0,4)=='edge') {
      edges[i].setAttribute('class','edge');
    }
  }
}
]]></script>
        <defs>
                <circle id="rim" cx="0" cy="0" r="7"/>
                <circle id="rim2" cx="0" cy="0" r="3.5"/>
                <g id="zoomPlus">
                        <use xlink:href="#rim" fill="#404040">
                                <set attributeName="fill" to="#808080" begin="zoomplus.mouseover" end="zoomplus.mouseout"/>
                        </use>
                        <path d="M-4,0h8M0,-4v8" fill="none" stroke="white" stroke-width="1.5" pointer-events="none"/>
                </g>
                <g id="zoomMin">
                        <use xlink:href="#rim" fill="#404040">
                                <set attributeName="fill" to="#808080" begin="zoomminus.mouseover" end="zoomminus.mouseout"/>
                        </use>
                        <path d="M-4,0h8" fill="none" stroke="white" stroke-width="1.5" pointer-events="none"/>
                </g>
                <g id="dirArrow">
                        <path fill="none" stroke="white" stroke-width="1.5" d="M0,-3.0v7 M-2.5,-0.5L0,-3.0L2.5,-0.5"/>
                </g>
               <g id="resetDef">
                       <use xlink:href="#rim2" fill="#404040">
                               <set attributeName="fill" to="#808080" begin="reset.mouseover" end="reset.mouseout"/>
                       </use>
               </g>
        </defs>

<script type="text/javascript">
var viewWidth = 2954;
var viewHeight = 302;
var sectionId = 'dynsection-8';
</script>
<script xlink:href="../../svgpan.js"/>
<svg id="graph" class="graph">
<g id="viewport">
<title>nars.language.Variable.containVarQuery</title>
<!-- Node54 -->
<g id="node1" class="node"><title>Node54</title>
<polygon fill="#bfbfbf" stroke="black" points="0,-123.5 0,-153.5 150,-153.5 150,-123.5 0,-123.5"/>
<text text-anchor="start" x="8" y="-141.5" font-family="Helvetica,sans-Serif" font-size="10.00">nars.language.Variable.contain</text>
<text text-anchor="middle" x="75" y="-130.5" font-family="Helvetica,sans-Serif" font-size="10.00">VarQuery</text>
</g>
<!-- Node55 -->
<g id="node2" class="node"><title>Node55</title>
<g id="a_node2"><a xlink:href="../../d8/d21/a00368.html#a2c36e85a56295a27aba7a4ee162f5850" target="_top" xlink:title="Check whether a string represent a name of a term that contains a variable. ">
<polygon fill="none" stroke="black" points="191.5,-203 191.5,-222 356.5,-222 356.5,-203 191.5,-203"/>
<text text-anchor="middle" x="274" y="-210" font-family="Helvetica,sans-Serif" font-size="10.00">nars.language.Variable.containVar</text>
</a>
</g>
</g>
<!-- Node54&#45;&gt;Node55 -->
<g id="edge1" class="edge"><title>Node54&#45;&gt;Node55</title>
<path fill="none" stroke="midnightblue" d="M125.908,-157.247C164.763,-171.842 217.076,-191.493 247.707,-202.999"/>
<polygon fill="midnightblue" stroke="midnightblue" points="126.933,-153.894 116.341,-153.654 124.472,-160.447 126.933,-153.894"/>
</g>
<!-- Node68 -->
<g id="node15" class="node"><title>Node68</title>
<g id="a_node15"><a xlink:href="../../dd/dd7/a00248.html#a19ea934d3f2b6eb6a01f09db55afb4f0" target="_top" xlink:title="Convert jusgment into different relation. ">
<polygon fill="none" stroke="black" points="186,-49.5 186,-79.5 362,-79.5 362,-49.5 186,-49.5"/>
<text text-anchor="start" x="194" y="-67.5" font-family="Helvetica,sans-Serif" font-size="10.00">nars.inference.LocalRules.converted</text>
<text text-anchor="middle" x="274" y="-56.5" font-family="Helvetica,sans-Serif" font-size="10.00">Judgment</text>
</a>
</g>
</g>
<!-- Node54&#45;&gt;Node68 -->
<g id="edge17" class="edge"><title>Node54&#45;&gt;Node68</title>
<path fill="none" stroke="midnightblue" d="M125.864,-119.769C159.065,-107.298 202.107,-91.1297 233.05,-79.5067"/>
<polygon fill="midnightblue" stroke="midnightblue" points="124.472,-116.553 116.341,-123.346 126.933,-123.106 124.472,-116.553"/>
</g>
<!-- Node56 -->
<g id="node3" class="node"><title>Node56</title>
<g id="a_node3"><a xlink:href="../../d8/d17/a00304.html#ab2f1e2119f6824f9c97e2f8d0d75483e" target="_top" xlink:title="Constructor called from subclasses constructors to initialize the fields. ">
<polygon fill="none" stroke="black" points="421.5,-263.5 421.5,-293.5 574.5,-293.5 574.5,-263.5 421.5,-263.5"/>
<text text-anchor="start" x="429.5" y="-281.5" font-family="Helvetica,sans-Serif" font-size="10.00">nars.language.CompoundTerm.</text>
<text text-anchor="middle" x="498" y="-270.5" font-family="Helvetica,sans-Serif" font-size="10.00">CompoundTerm</text>
</a>
</g>
</g>
<!-- Node55&#45;&gt;Node56 -->
<g id="edge2" class="edge"><title>Node55&#45;&gt;Node56</title>
<path fill="none" stroke="midnightblue" d="M311.25,-225.373C335.629,-233.835 368.569,-244.892 398,-253.5 409.74,-256.934 422.343,-260.333 434.492,-263.466"/>
<polygon fill="midnightblue" stroke="midnightblue" points="312.288,-222.028 301.693,-222.036 309.98,-228.637 312.288,-222.028"/>
</g>
<!-- Node57 -->
<g id="node4" class="node"><title>Node57</title>
<g id="a_node4"><a xlink:href="../../d8/d17/a00304.html#a18e066f782a0070b137132a6a2d732d6" target="_top" xlink:title="Whether this compound term contains any variable term. ">
<polygon fill="none" stroke="black" points="398,-225 398,-244 598,-244 598,-225 398,-225"/>
<text text-anchor="middle" x="498" y="-232" font-family="Helvetica,sans-Serif" font-size="10.00">nars.language.CompoundTerm.containVar</text>
</a>
</g>
</g>
<!-- Node55&#45;&gt;Node57 -->
<g id="edge3" class="edge"><title>Node55&#45;&gt;Node57</title>
<path fill="none" stroke="midnightblue" d="M366.905,-221.608C378.092,-222.716 389.547,-223.852 400.795,-224.966"/>
<polygon fill="midnightblue" stroke="midnightblue" points="367.015,-218.102 356.719,-220.598 366.325,-225.067 367.015,-218.102"/>
</g>
<!-- Node59 -->
<g id="node6" class="node"><title>Node59</title>
<g id="a_node6"><a xlink:href="../../d8/d0a/a00292.html#a4521720744de2b8638667be01b4be64a" target="_top" xlink:title="Parse a Term that has no internal structure. ">
<polygon fill="none" stroke="black" points="433,-175.5 433,-205.5 563,-205.5 563,-175.5 433,-175.5"/>
<text text-anchor="start" x="441" y="-193.5" font-family="Helvetica,sans-Serif" font-size="10.00">nars.io.StringParser.parse</text>
<text text-anchor="middle" x="498" y="-182.5" font-family="Helvetica,sans-Serif" font-size="10.00">AtomicTerm</text>
</a>
</g>
</g>
<!-- Node55&#45;&gt;Node59 -->
<g id="edge5" class="edge"><title>Node55&#45;&gt;Node59</title>
<path fill="none" stroke="midnightblue" d="M366.819,-203.401C388.992,-201.203 412.218,-198.902 432.812,-196.861"/>
<polygon fill="midnightblue" stroke="midnightblue" points="366.325,-199.933 356.719,-204.402 367.015,-206.898 366.325,-199.933"/>
</g>
<!-- Node58 -->
<g id="node5" class="node"><title>Node58</title>
<g id="a_node5"><a xlink:href="../../d8/d17/a00304.html#ac19f90fbe8b8ebe78462fa13e7ebca74" target="_top" xlink:title="Rename the variables in the compound. ">
<polygon fill="none" stroke="black" points="634,-219.5 634,-249.5 819,-249.5 819,-219.5 634,-219.5"/>
<text text-anchor="start" x="642" y="-237.5" font-family="Helvetica,sans-Serif" font-size="10.00">nars.language.CompoundTerm.rename</text>
<text text-anchor="middle" x="726.5" y="-226.5" font-family="Helvetica,sans-Serif" font-size="10.00">Variables</text>
</a>
</g>
</g>
<!-- Node57&#45;&gt;Node58 -->
<g id="edge4" class="edge"><title>Node57&#45;&gt;Node58</title>
<path fill="none" stroke="midnightblue" d="M608.099,-234.5C616.711,-234.5 625.354,-234.5 633.83,-234.5"/>
<polygon fill="midnightblue" stroke="midnightblue" points="608.017,-231 598.017,-234.5 608.017,-238 608.017,-231"/>
</g>
<!-- Node60 -->
<g id="node7" class="node"><title>Node60</title>
<g id="a_node7"><a xlink:href="../../d8/d0a/a00292.html#a5c31494d6f7862dcf15a4d5716b6200e" target="_top" xlink:title="Top&#45;level method that parse a Term in general, which may recursively call itself. ...">
<polygon fill="none" stroke="black" points="650.5,-181 650.5,-200 802.5,-200 802.5,-181 650.5,-181"/>
<text text-anchor="middle" x="726.5" y="-188" font-family="Helvetica,sans-Serif" font-size="10.00">nars.io.StringParser.parseTerm</text>
</a>
</g>
</g>
<!-- Node59&#45;&gt;Node60 -->
<g id="edge6" class="edge"><title>Node59&#45;&gt;Node60</title>
<path fill="none" stroke="midnightblue" d="M573.324,-190.5C597.997,-190.5 625.477,-190.5 650.221,-190.5"/>
<polygon fill="midnightblue" stroke="midnightblue" points="573.3,-187 563.3,-190.5 573.3,-194 573.3,-187"/>
</g>
<!-- Node61 -->
<g id="node8" class="node"><title>Node61</title>
<g id="a_node8"><a xlink:href="../../d8/d0a/a00292.html#a9b9bc5f94ac6aaa86c3d9c2bcd21c332" target="_top" xlink:title="Parse a String into the argument get of a CompoundTerm. ">
<polygon fill="none" stroke="black" points="882.5,-224.5 882.5,-254.5 1012.5,-254.5 1012.5,-224.5 882.5,-224.5"/>
<text text-anchor="start" x="890.5" y="-242.5" font-family="Helvetica,sans-Serif" font-size="10.00">nars.io.StringParser.parse</text>
<text text-anchor="middle" x="947.5" y="-231.5" font-family="Helvetica,sans-Serif" font-size="10.00">Arguments</text>
</a>
</g>
</g>
<!-- Node60&#45;&gt;Node61 -->
<g id="edge7" class="edge"><title>Node60&#45;&gt;Node61</title>
<path fill="none" stroke="midnightblue" d="M812.792,-200.12C814.882,-200.583 816.954,-201.044 819,-201.5 851.016,-208.64 887.511,-216.959 913.229,-224.47"/>
<polygon fill="midnightblue" stroke="midnightblue" points="813.426,-196.676 802.908,-197.949 811.925,-203.513 813.426,-196.676"/>
</g>
<!-- Node63 -->
<g id="node10" class="node"><title>Node63</title>
<g id="a_node10"><a xlink:href="../../d8/d0a/a00292.html#a7c129938c8d721e3db0a9804988f0588" target="_top" xlink:title="Parse a String to create a Statement. ">
<polygon fill="none" stroke="black" points="882.5,-175.5 882.5,-205.5 1012.5,-205.5 1012.5,-175.5 882.5,-175.5"/>
<text text-anchor="start" x="890.5" y="-193.5" font-family="Helvetica,sans-Serif" font-size="10.00">nars.io.StringParser.parse</text>
<text text-anchor="middle" x="947.5" y="-182.5" font-family="Helvetica,sans-Serif" font-size="10.00">Statement</text>
</a>
</g>
</g>
<!-- Node60&#45;&gt;Node63 -->
<g id="edge11" class="edge"><title>Node60&#45;&gt;Node63</title>
<path fill="none" stroke="midnightblue" d="M812.746,-183.899C835.947,-183.609 860.677,-183.742 882.481,-184.297"/>
<polygon fill="midnightblue" stroke="midnightblue" points="812.506,-180.403 802.561,-184.056 812.614,-187.402 812.506,-180.403"/>
</g>
<!-- Node64 -->
<g id="node11" class="node"><title>Node64</title>
<g id="a_node11"><a xlink:href="../../d8/d0a/a00292.html#a75b446999d71c676a9915ecc75077a7d" target="_top" xlink:title="Enter a new Task in String into the memory, called from InputWindow or locally. ">
<polygon fill="none" stroke="black" points="871.5,-99 871.5,-118 1023.5,-118 1023.5,-99 871.5,-99"/>
<text text-anchor="middle" x="947.5" y="-106" font-family="Helvetica,sans-Serif" font-size="10.00">nars.io.StringParser.parseTask</text>
</a>
</g>
</g>
<!-- Node60&#45;&gt;Node64 -->
<g id="edge13" class="edge"><title>Node60&#45;&gt;Node64</title>
<path fill="none" stroke="midnightblue" d="M755.146,-176.263C780.597,-163.559 819.649,-145.073 855,-132.5 870.783,-126.887 888.514,-121.936 904.136,-118.012"/>
<polygon fill="midnightblue" stroke="midnightblue" points="753.448,-173.199 746.093,-180.824 756.598,-179.45 753.448,-173.199"/>
</g>
<!-- Node61&#45;&gt;Node60 -->
<g id="edge10" class="edge"><title>Node61&#45;&gt;Node60</title>
<path fill="none" stroke="midnightblue" d="M872.188,-231.234C854.746,-227.524 836.225,-223.341 819,-219.5 792.02,-213.483 760.523,-206.638 742.406,-200.082"/>
<polygon fill="midnightblue" stroke="midnightblue" points="871.81,-234.731 882.315,-233.358 873.247,-227.88 871.81,-234.731"/>
</g>
<!-- Node62 -->
<g id="node9" class="node"><title>Node62</title>
<g id="a_node9"><a xlink:href="../../d8/d0a/a00292.html#a944bb677dff9f232ce6b896c853e24e0" target="_top" xlink:title="Parse a String to create a CompoundTerm. ">
<polygon fill="none" stroke="black" points="1101,-183.5 1101,-213.5 1231,-213.5 1231,-183.5 1101,-183.5"/>
<text text-anchor="start" x="1109" y="-201.5" font-family="Helvetica,sans-Serif" font-size="10.00">nars.io.StringParser.parse</text>
<text text-anchor="middle" x="1166" y="-190.5" font-family="Helvetica,sans-Serif" font-size="10.00">CompoundTerm</text>
</a>
</g>
</g>
<!-- Node61&#45;&gt;Node62 -->
<g id="edge8" class="edge"><title>Node61&#45;&gt;Node62</title>
<path fill="none" stroke="midnightblue" d="M1022.53,-225.48C1047.94,-220.669 1076.14,-215.327 1100.71,-210.675"/>
<polygon fill="midnightblue" stroke="midnightblue" points="1021.75,-222.065 1012.58,-227.365 1023.06,-228.943 1021.75,-222.065"/>
</g>
<!-- Node62&#45;&gt;Node60 -->
<g id="edge9" class="edge"><title>Node62&#45;&gt;Node60</title>
<path fill="none" stroke="midnightblue" d="M1107.98,-180.696C1086.85,-174.953 1062.54,-169.34 1040,-166.5 958.422,-156.224 936.867,-158.862 855,-166.5 825.509,-169.251 792.673,-175.509 767.711,-180.944"/>
<polygon fill="midnightblue" stroke="midnightblue" points="1107.19,-184.109 1117.76,-183.424 1109.07,-177.366 1107.19,-184.109"/>
</g>
<!-- Node63&#45;&gt;Node60 -->
<g id="edge12" class="edge"><title>Node63&#45;&gt;Node60</title>
<path fill="none" stroke="midnightblue" d="M872.32,-196.928C849.828,-197.352 825.11,-197.357 802.561,-196.944"/>
<polygon fill="midnightblue" stroke="midnightblue" points="872.561,-200.423 882.481,-196.703 872.406,-193.425 872.561,-200.423"/>
</g>
<!-- Node65 -->
<g id="node12" class="node"><title>Node65</title>
<g id="a_node12"><a xlink:href="../../df/d15/a00416.html#a4766dfcaabdf586d60b9ac9827e41cad" target="_top" xlink:title="Parse a line of input experience. ">
<polygon fill="none" stroke="black" points="1082,-93.5 1082,-123.5 1250,-123.5 1250,-93.5 1082,-93.5"/>
<text text-anchor="start" x="1090" y="-111.5" font-family="Helvetica,sans-Serif" font-size="10.00">nars.storage.ReasonerBatch.parse</text>
<text text-anchor="middle" x="1166" y="-100.5" font-family="Helvetica,sans-Serif" font-size="10.00">Experience</text>
</a>
</g>
</g>
<!-- Node64&#45;&gt;Node65 -->
<g id="edge14" class="edge"><title>Node64&#45;&gt;Node65</title>
<path fill="none" stroke="midnightblue" d="M1033.88,-108.5C1049.68,-108.5 1066.15,-108.5 1081.88,-108.5"/>
<polygon fill="midnightblue" stroke="midnightblue" points="1033.61,-105 1023.61,-108.5 1033.61,-112 1033.61,-105"/>
</g>
<!-- Node66 -->
<g id="node13" class="node"><title>Node66</title>
<g id="a_node13"><a xlink:href="../../df/d15/a00416.html#a1823f1575021b1ca67e6174923923fbb" target="_top" xlink:title="To process a line of input text. ">
<polygon fill="none" stroke="black" points="1293,-93.5 1293,-123.5 1454,-123.5 1454,-93.5 1293,-93.5"/>
<text text-anchor="start" x="1301" y="-111.5" font-family="Helvetica,sans-Serif" font-size="10.00">nars.storage.ReasonerBatch.text</text>
<text text-anchor="middle" x="1373.5" y="-100.5" font-family="Helvetica,sans-Serif" font-size="10.00">InputLine</text>
</a>
</g>
</g>
<!-- Node65&#45;&gt;Node66 -->
<g id="edge15" class="edge"><title>Node65&#45;&gt;Node66</title>
<path fill="none" stroke="midnightblue" d="M1260.55,-108.5C1271.31,-108.5 1282.2,-108.5 1292.75,-108.5"/>
<polygon fill="midnightblue" stroke="midnightblue" points="1260.29,-105 1250.29,-108.5 1260.29,-112 1260.29,-105"/>
</g>
<!-- Node67 -->
<g id="node14" class="node"><title>Node67</title>
<g id="a_node14"><a xlink:href="../../d9/dd6/a00272.html#a1a4b66a6e6cf89d5c2ea7a5923195247" target="_top" xlink:title="Process the next chunk of input data TODO duplicated code with InputWindow#nextInput(). ">
<polygon fill="none" stroke="black" points="1491,-93.5 1491,-123.5 1642,-123.5 1642,-93.5 1491,-93.5"/>
<text text-anchor="start" x="1499" y="-111.5" font-family="Helvetica,sans-Serif" font-size="10.00">nars.io.ExperienceReader.next</text>
<text text-anchor="middle" x="1566.5" y="-100.5" font-family="Helvetica,sans-Serif" font-size="10.00">Input</text>
</a>
</g>
</g>
<!-- Node66&#45;&gt;Node67 -->
<g id="edge16" class="edge"><title>Node66&#45;&gt;Node67</title>
<path fill="none" stroke="midnightblue" d="M1464.17,-108.5C1473.12,-108.5 1482.13,-108.5 1490.9,-108.5"/>
<polygon fill="midnightblue" stroke="midnightblue" points="1464.12,-105 1454.12,-108.5 1464.12,-112 1464.12,-105"/>
</g>
<!-- Node69 -->
<g id="node16" class="node"><title>Node69</title>
<g id="a_node16"><a xlink:href="../../dd/dd7/a00248.html#aeb46ba9d63958c022519607076ce1273" target="_top" xlink:title="{ ">
<polygon fill="none" stroke="black" points="408,-55 408,-74 588,-74 588,-55 408,-55"/>
<text text-anchor="middle" x="498" y="-62" font-family="Helvetica,sans-Serif" font-size="10.00">nars.inference.LocalRules.conversion</text>
</a>
</g>
</g>
<!-- Node68&#45;&gt;Node69 -->
<g id="edge18" class="edge"><title>Node68&#45;&gt;Node69</title>
<path fill="none" stroke="midnightblue" d="M372.422,-64.5C384.241,-64.5 396.269,-64.5 407.958,-64.5"/>
<polygon fill="midnightblue" stroke="midnightblue" points="372.103,-61.0001 362.103,-64.5 372.103,-68.0001 372.103,-61.0001"/>
</g>
<!-- Node82 -->
<g id="node29" class="node"><title>Node82</title>
<g id="a_node29"><a xlink:href="../../dd/dd7/a00248.html#ae878f1b2fff31ef78b7916bde1b939b3" target="_top" xlink:title="{&lt;S &#45;&#45;&gt; P&gt;} |&#45; &lt;S &lt;&#45;&gt; P&gt; {&lt;S &lt;&#45;&gt; P&gt;} |&#45; &lt;S &#45;&#45;&gt; P&gt; Switch between Inheritance/Implication and Similari...">
<polygon fill="none" stroke="black" points="415.5,-3.5 415.5,-33.5 580.5,-33.5 580.5,-3.5 415.5,-3.5"/>
<text text-anchor="start" x="423.5" y="-21.5" font-family="Helvetica,sans-Serif" font-size="10.00">nars.inference.LocalRules.convert</text>
<text text-anchor="middle" x="498" y="-10.5" font-family="Helvetica,sans-Serif" font-size="10.00">Relation</text>
</a>
</g>
</g>
<!-- Node68&#45;&gt;Node82 -->
<g id="edge31" class="edge"><title>Node68&#45;&gt;Node82</title>
<path fill="none" stroke="midnightblue" d="M357.655,-47.3734C379.612,-42.8236 403.156,-37.9452 424.525,-33.5174"/>
<polygon fill="midnightblue" stroke="midnightblue" points="356.773,-43.9816 347.691,-49.4379 358.193,-50.836 356.773,-43.9816"/>
</g>
<!-- Node70 -->
<g id="node17" class="node"><title>Node70</title>
<g id="a_node17"><a xlink:href="../../dd/dd7/a00248.html#a93af32adec92cf57671c32e9ccc2dffc" target="_top" xlink:title="The task and belief match reversely. ">
<polygon fill="none" stroke="black" points="646.5,-49.5 646.5,-79.5 806.5,-79.5 806.5,-49.5 646.5,-49.5"/>
<text text-anchor="start" x="654.5" y="-67.5" font-family="Helvetica,sans-Serif" font-size="10.00">nars.inference.LocalRules.match</text>
<text text-anchor="middle" x="726.5" y="-56.5" font-family="Helvetica,sans-Serif" font-size="10.00">Reverse</text>
</a>
</g>
</g>
<!-- Node69&#45;&gt;Node70 -->
<g id="edge19" class="edge"><title>Node69&#45;&gt;Node70</title>
<path fill="none" stroke="midnightblue" d="M598.617,-64.5C614.58,-64.5 630.91,-64.5 646.313,-64.5"/>
<polygon fill="midnightblue" stroke="midnightblue" points="598.194,-61.0001 588.194,-64.5 598.194,-68.0001 598.194,-61.0001"/>
</g>
<!-- Node71 -->
<g id="node18" class="node"><title>Node71</title>
<g id="a_node18"><a xlink:href="../../dc/ded/a00252.html#a34927349efcf87db97d23c60983b115b" target="_top" xlink:title="Syllogistic rules whose both premises are on the same asymmetric relation. ">
<polygon fill="none" stroke="black" points="855,-49.5 855,-79.5 1040,-79.5 1040,-49.5 855,-49.5"/>
<text text-anchor="start" x="863" y="-67.5" font-family="Helvetica,sans-Serif" font-size="10.00">nars.inference.RuleTables.asymmetric</text>
<text text-anchor="middle" x="947.5" y="-56.5" font-family="Helvetica,sans-Serif" font-size="10.00">Asymmetric</text>
</a>
</g>
</g>
<!-- Node70&#45;&gt;Node71 -->
<g id="edge20" class="edge"><title>Node70&#45;&gt;Node71</title>
<path fill="none" stroke="midnightblue" d="M816.595,-64.5C829.221,-64.5 842.221,-64.5 854.893,-64.5"/>
<polygon fill="midnightblue" stroke="midnightblue" points="816.564,-61.0001 806.564,-64.5 816.564,-68.0001 816.564,-61.0001"/>
</g>
<!-- Node72 -->
<g id="node19" class="node"><title>Node72</title>
<g id="a_node19"><a xlink:href="../../dc/ded/a00252.html#a8628d400a8ceda7fea05039ddfea319b" target="_top" xlink:title="Meta&#45;table of syllogistic rules, indexed by the content classes of the taskSentence and the belief...">
<polygon fill="none" stroke="black" points="1076,-28 1076,-47 1256,-47 1256,-28 1076,-28"/>
<text text-anchor="middle" x="1166" y="-35" font-family="Helvetica,sans-Serif" font-size="10.00">nars.inference.RuleTables.syllogisms</text>
</a>
</g>
</g>
<!-- Node71&#45;&gt;Node72 -->
<g id="edge21" class="edge"><title>Node71&#45;&gt;Node72</title>
<path fill="none" stroke="midnightblue" d="M1050.28,-51.8069C1063.15,-50.2023 1076.14,-48.5825 1088.52,-47.0385"/>
<polygon fill="midnightblue" stroke="midnightblue" points="1049.49,-48.378 1040,-53.0887 1050.36,-55.3242 1049.49,-48.378"/>
</g>
<!-- Node73 -->
<g id="node20" class="node"><title>Node73</title>
<g id="a_node20"><a xlink:href="../../dc/ded/a00252.html#ac2d01dfdc40bdd47c757cb549217e6e3" target="_top" xlink:title="Entry point of the inference engine. ">
<polygon fill="none" stroke="black" points="1292,-28 1292,-47 1455,-47 1455,-28 1292,-28"/>
<text text-anchor="middle" x="1373.5" y="-35" font-family="Helvetica,sans-Serif" font-size="10.00">nars.inference.RuleTables.reason</text>
</a>
</g>
</g>
<!-- Node72&#45;&gt;Node73 -->
<g id="edge22" class="edge"><title>Node72&#45;&gt;Node73</title>
<path fill="none" stroke="midnightblue" d="M1266.24,-37.5C1274.79,-37.5 1283.37,-37.5 1291.75,-37.5"/>
<polygon fill="midnightblue" stroke="midnightblue" points="1266.24,-34.0001 1256.24,-37.5 1266.24,-41.0001 1266.24,-34.0001"/>
</g>
<!-- Node74 -->
<g id="node21" class="node"><title>Node74</title>
<g id="a_node21"><a xlink:href="../../d7/ded/a00196.html#ad6fb91dda799c3092ecb186ef24ca92a" target="_top" xlink:title="An atomic step in a concept, only called in Memory# processConcept. ">
<polygon fill="none" stroke="black" points="1507,-22.5 1507,-52.5 1626,-52.5 1626,-22.5 1507,-22.5"/>
<text text-anchor="start" x="1515" y="-40.5" font-family="Helvetica,sans-Serif" font-size="10.00">nars.entity.Concept.fire</text>
<text text-anchor="middle" x="1566.5" y="-29.5" font-family="Helvetica,sans-Serif" font-size="10.00">FromProcessConcept</text>
</a>
</g>
</g>
<!-- Node73&#45;&gt;Node74 -->
<g id="edge23" class="edge"><title>Node73&#45;&gt;Node74</title>
<path fill="none" stroke="midnightblue" d="M1465.42,-37.5C1479.49,-37.5 1493.69,-37.5 1506.79,-37.5"/>
<polygon fill="midnightblue" stroke="midnightblue" points="1465.22,-34.0001 1455.22,-37.5 1465.22,-41.0001 1465.22,-34.0001"/>
</g>
<!-- Node75 -->
<g id="node22" class="node"><title>Node75</title>
<g id="a_node22"><a xlink:href="../../d4/d27/a00392.html#a0acc4adbf6a2462245da46bcb529746c" target="_top" xlink:title="Select a concept to fireFromProcessConcept. ">
<polygon fill="none" stroke="black" points="1678,-22.5 1678,-52.5 1824,-52.5 1824,-22.5 1678,-22.5"/>
<text text-anchor="start" x="1686" y="-40.5" font-family="Helvetica,sans-Serif" font-size="10.00">nars.storage.Memory.process</text>
<text text-anchor="middle" x="1751" y="-29.5" font-family="Helvetica,sans-Serif" font-size="10.00">Concept</text>
</a>
</g>
</g>
<!-- Node74&#45;&gt;Node75 -->
<g id="edge24" class="edge"><title>Node74&#45;&gt;Node75</title>
<path fill="none" stroke="midnightblue" d="M1636.46,-37.5C1650.02,-37.5 1664.28,-37.5 1677.94,-37.5"/>
<polygon fill="midnightblue" stroke="midnightblue" points="1636.25,-34.0001 1626.25,-37.5 1636.25,-41.0001 1636.25,-34.0001"/>
</g>
<!-- Node76 -->
<g id="node23" class="node"><title>Node76</title>
<g id="a_node23"><a xlink:href="../../d4/d27/a00392.html#a59ae339d666409988d90d29be4f73a91" target="_top" xlink:title="An atomic working workCycle of the system: process new Tasks, then fireFromProcessConcept a concept...">
<polygon fill="none" stroke="black" points="1860,-22.5 1860,-52.5 1993,-52.5 1993,-22.5 1860,-22.5"/>
<text text-anchor="start" x="1868" y="-40.5" font-family="Helvetica,sans-Serif" font-size="10.00">nars.storage.Memory.work</text>
<text text-anchor="middle" x="1926.5" y="-29.5" font-family="Helvetica,sans-Serif" font-size="10.00">Cycle</text>
</a>
</g>
</g>
<!-- Node75&#45;&gt;Node76 -->
<g id="edge25" class="edge"><title>Node75&#45;&gt;Node76</title>
<path fill="none" stroke="midnightblue" d="M1834.12,-37.5C1842.72,-37.5 1851.37,-37.5 1859.76,-37.5"/>
<polygon fill="midnightblue" stroke="midnightblue" points="1834.07,-34.0001 1824.07,-37.5 1834.07,-41.0001 1834.07,-34.0001"/>
</g>
<!-- Node77 -->
<g id="node24" class="node"><title>Node77</title>
<g id="a_node24"><a xlink:href="../../df/d15/a00416.html#a0d5c797dc17d9e8d0998852915e0f303" target="_top" xlink:title="nars.storage.ReasonerBatch.doTick">
<polygon fill="none" stroke="black" points="2029,-28 2029,-47 2202,-47 2202,-28 2029,-28"/>
<text text-anchor="middle" x="2115.5" y="-35" font-family="Helvetica,sans-Serif" font-size="10.00">nars.storage.ReasonerBatch.doTick</text>
</a>
</g>
</g>
<!-- Node76&#45;&gt;Node77 -->
<g id="edge26" class="edge"><title>Node76&#45;&gt;Node77</title>
<path fill="none" stroke="midnightblue" d="M2003.34,-37.5C2011.78,-37.5 2020.42,-37.5 2028.97,-37.5"/>
<polygon fill="midnightblue" stroke="midnightblue" points="2003.17,-34.0001 1993.17,-37.5 2003.17,-41.0001 2003.17,-34.0001"/>
</g>
<!-- Node78 -->
<g id="node25" class="node"><title>Node78</title>
<g id="a_node25"><a xlink:href="../../df/d15/a00416.html#a3468aa0f99edcd66412f27922dddb880" target="_top" xlink:title="A clock tick. ">
<polygon fill="none" stroke="black" points="2238,-28 2238,-47 2398,-47 2398,-28 2238,-28"/>
<text text-anchor="middle" x="2318" y="-35" font-family="Helvetica,sans-Serif" font-size="10.00">nars.storage.ReasonerBatch.tick</text>
</a>
</g>
</g>
<!-- Node77&#45;&gt;Node78 -->
<g id="edge27" class="edge"><title>Node77&#45;&gt;Node78</title>
<path fill="none" stroke="midnightblue" d="M2212.13,-37.5C2220.7,-37.5 2229.31,-37.5 2237.71,-37.5"/>
<polygon fill="midnightblue" stroke="midnightblue" points="2212.11,-34.0001 2202.11,-37.5 2212.11,-41.0001 2212.11,-34.0001"/>
</g>
<!-- Node79 -->
<g id="node26" class="node"><title>Node79</title>
<g id="a_node26"><a xlink:href="../../d9/da1/a00396.html#a5d9cfe517bcfbe41e5251910bcd119c1" target="_top" xlink:title="Run to completion: repeatedly execute NARS working cycle, until Inputs are Finished, or 1000 steps. ">
<polygon fill="none" stroke="black" points="2434,-28 2434,-47 2578,-47 2578,-28 2434,-28"/>
<text text-anchor="middle" x="2506" y="-35" font-family="Helvetica,sans-Serif" font-size="10.00">nars.storage.NARSBatch.run</text>
</a>
</g>
</g>
<!-- Node78&#45;&gt;Node79 -->
<g id="edge28" class="edge"><title>Node78&#45;&gt;Node79</title>
<path fill="none" stroke="midnightblue" d="M2408.22,-37.5C2416.82,-37.5 2425.47,-37.5 2433.87,-37.5"/>
<polygon fill="midnightblue" stroke="midnightblue" points="2408.15,-34.0001 2398.15,-37.5 2408.15,-41.0001 2408.15,-34.0001"/>
</g>
<!-- Node80 -->
<g id="node27" class="node"><title>Node80</title>
<g id="a_node27"><a xlink:href="../../d9/da1/a00396.html#a7c307c6b842f82664de6b0e52bdf8efc" target="_top" xlink:title="non&#45;static equivalent to main(String[]) : run to completion from an input file ">
<polygon fill="none" stroke="black" points="2614,-22.5 2614,-52.5 2758,-52.5 2758,-22.5 2614,-22.5"/>
<text text-anchor="start" x="2622" y="-40.5" font-family="Helvetica,sans-Serif" font-size="10.00">nars.storage.NARSBatch.run</text>
<text text-anchor="middle" x="2686" y="-29.5" font-family="Helvetica,sans-Serif" font-size="10.00">Inference</text>
</a>
</g>
</g>
<!-- Node79&#45;&gt;Node80 -->
<g id="edge29" class="edge"><title>Node79&#45;&gt;Node80</title>
<path fill="none" stroke="midnightblue" d="M2588.17,-37.5C2596.79,-37.5 2605.51,-37.5 2614,-37.5"/>
<polygon fill="midnightblue" stroke="midnightblue" points="2588.12,-34.0001 2578.12,-37.5 2588.12,-41.0001 2588.12,-34.0001"/>
</g>
<!-- Node81 -->
<g id="node28" class="node"><title>Node81</title>
<g id="a_node28"><a xlink:href="../../d9/da1/a00396.html#abafc597289bc2f6453b5cd0dd6634e54" target="_top" xlink:title="The entry point of the standalone application. ">
<polygon fill="none" stroke="black" points="2794,-28 2794,-47 2946,-47 2946,-28 2794,-28"/>
<text text-anchor="middle" x="2870" y="-35" font-family="Helvetica,sans-Serif" font-size="10.00">nars.storage.NARSBatch.main</text>
</a>
</g>
</g>
<!-- Node80&#45;&gt;Node81 -->
<g id="edge30" class="edge"><title>Node80&#45;&gt;Node81</title>
<path fill="none" stroke="midnightblue" d="M2768.17,-37.5C2776.76,-37.5 2785.48,-37.5 2794,-37.5"/>
<polygon fill="midnightblue" stroke="midnightblue" points="2768.15,-34.0001 2758.15,-37.5 2768.15,-41.0001 2768.15,-34.0001"/>
</g>
<!-- Node83 -->
<g id="node30" class="node"><title>Node83</title>
<g id="a_node30"><a xlink:href="../../dd/dd7/a00248.html#a901b20a8e57ac01ce97b4d1302224e39" target="_top" xlink:title="Inheritance/Implication matches Similarity/Equivalence. ">
<polygon fill="none" stroke="black" points="646.5,-0.5 646.5,-30.5 806.5,-30.5 806.5,-0.5 646.5,-0.5"/>
<text text-anchor="start" x="654.5" y="-18.5" font-family="Helvetica,sans-Serif" font-size="10.00">nars.inference.LocalRules.match</text>
<text text-anchor="middle" x="726.5" y="-7.5" font-family="Helvetica,sans-Serif" font-size="10.00">AsymSym</text>
</a>
</g>
</g>
<!-- Node82&#45;&gt;Node83 -->
<g id="edge32" class="edge"><title>Node82&#45;&gt;Node83</title>
<path fill="none" stroke="midnightblue" d="M590.916,-17.2826C609.345,-17.0385 628.556,-16.784 646.5,-16.5464"/>
<polygon fill="midnightblue" stroke="midnightblue" points="590.724,-13.7847 580.772,-17.4169 590.817,-20.7841 590.724,-13.7847"/>
</g>
<!-- Node84 -->
<g id="node31" class="node"><title>Node84</title>
<g id="a_node31"><a xlink:href="../../dc/ded/a00252.html#a4f61a7c2dc75c9da475030894eac0735" target="_top" xlink:title="Syllogistic rules whose first premise is on an asymmetric relation, and the second on a symmetric rel...">
<polygon fill="none" stroke="black" points="855,-0.5 855,-30.5 1040,-30.5 1040,-0.5 855,-0.5"/>
<text text-anchor="start" x="863" y="-18.5" font-family="Helvetica,sans-Serif" font-size="10.00">nars.inference.RuleTables.asymmetric</text>
<text text-anchor="middle" x="947.5" y="-7.5" font-family="Helvetica,sans-Serif" font-size="10.00">Symmetric</text>
</a>
</g>
</g>
<!-- Node83&#45;&gt;Node84 -->
<g id="edge33" class="edge"><title>Node83&#45;&gt;Node84</title>
<path fill="none" stroke="midnightblue" d="M816.595,-15.5C829.221,-15.5 842.221,-15.5 854.893,-15.5"/>
<polygon fill="midnightblue" stroke="midnightblue" points="816.564,-12.0001 806.564,-15.5 816.564,-19.0001 816.564,-12.0001"/>
</g>
<!-- Node84&#45;&gt;Node72 -->
<g id="edge34" class="edge"><title>Node84&#45;&gt;Node72</title>
<path fill="none" stroke="midnightblue" d="M1050.08,-25.8226C1058.71,-26.6987 1067.38,-27.5805 1075.9,-28.4458"/>
<polygon fill="midnightblue" stroke="midnightblue" points="1050.3,-22.3271 1040,-24.7981 1049.6,-29.2912 1050.3,-22.3271"/>
</g>
</g>
</svg>
        <g id="navigator" transform="translate(0 0)" fill="#404254">
                <rect fill="#f2f5e9" fill-opacity="0.5" stroke="#606060" stroke-width=".5" x="0" y="0" width="60" height="60"/>
                <use id="zoomplus" xlink:href="#zoomPlus" x="17" y="9" onmousedown="handleZoom(evt,'in')"/>
                <use id="zoomminus" xlink:href="#zoomMin" x="42" y="9" onmousedown="handleZoom(evt,'out')"/>
                <use id="reset" xlink:href="#resetDef" x="30" y="36" onmousedown="handleReset()"/>
                <g id="arrowUp" xlink:href="#dirArrow" transform="translate(30 24)" onmousedown="handlePan(0,-1)">
                  <use xlink:href="#rim" fill="#404040">
                        <set attributeName="fill" to="#808080" begin="arrowUp.mouseover" end="arrowUp.mouseout"/>
                  </use>
                  <path fill="none" stroke="white" stroke-width="1.5" d="M0,-3.0v7 M-2.5,-0.5L0,-3.0L2.5,-0.5"/>
                </g>
                <g id="arrowRight" xlink:href="#dirArrow" transform="rotate(90) translate(36 -43)" onmousedown="handlePan(1,0)">
                  <use xlink:href="#rim" fill="#404040">
                        <set attributeName="fill" to="#808080" begin="arrowRight.mouseover" end="arrowRight.mouseout"/>
                  </use>
                  <path fill="none" stroke="white" stroke-width="1.5" d="M0,-3.0v7 M-2.5,-0.5L0,-3.0L2.5,-0.5"/>
                </g>
                <g id="arrowDown" xlink:href="#dirArrow" transform="rotate(180) translate(-30 -48)" onmousedown="handlePan(0,1)">
                  <use xlink:href="#rim" fill="#404040">
                        <set attributeName="fill" to="#808080" begin="arrowDown.mouseover" end="arrowDown.mouseout"/>
                  </use>
                  <path fill="none" stroke="white" stroke-width="1.5" d="M0,-3.0v7 M-2.5,-0.5L0,-3.0L2.5,-0.5"/>
                </g>
                <g id="arrowLeft" xlink:href="#dirArrow" transform="rotate(270) translate(-36 17)" onmousedown="handlePan(-1,0)">
                  <use xlink:href="#rim" fill="#404040">
                        <set attributeName="fill" to="#808080" begin="arrowLeft.mouseover" end="arrowLeft.mouseout"/>
                  </use>
                  <path fill="none" stroke="white" stroke-width="1.5" d="M0,-3.0v7 M-2.5,-0.5L0,-3.0L2.5,-0.5"/>
                </g>
        </g>
        <svg viewBox="0 0 15 15" width="100%" height="30px" preserveAspectRatio="xMaxYMin meet">
         <g id="arrow_out" transform="scale(0.3 0.3)">
          <a xlink:href="a00368_a25dcc4d5882131d679903f93d41420c9_icgraph_org.svg" target="_base">
           <rect id="button" ry="5" rx="5" y="6" x="6" height="38" width="38"
                fill="#f2f5e9" fill-opacity="0.5" stroke="#606060" stroke-width="1.0"/>
           <path id="arrow"
             d="M 11.500037,31.436501 C 11.940474,20.09759 22.043105,11.32322 32.158766,21.979434 L 37.068811,17.246167 C 37.068811,17.246167 37.088388,32 37.088388,32 L 22.160133,31.978069 C 22.160133,31.978069 26.997745,27.140456 26.997745,27.140456 C 18.528582,18.264221 13.291696,25.230495 11.500037,31.436501 z"
             style="fill:#404040;"/>
          </a>
         </g>
        </svg>
</svg>
