<?xml version="1.0" encoding="UTF-8" standalone="no"?>
<!DOCTYPE svg PUBLIC "-//W3C//DTD SVG 1.1//EN"
 "http://www.w3.org/Graphics/SVG/1.1/DTD/svg11.dtd">
<!-- Generated by graphviz version 2.38.0 (20140413.2041)
 -->
<!-- Title: nars.language.Variable.unify Pages: 1 -->
<!--zoomable 393 -->
<svg id="main" version="1.1" xmlns="http://www.w3.org/2000/svg" xmlns:xlink="http://www.w3.org/1999/xlink" xml:space="preserve" onload="init(evt)">
<style type="text/css"><![CDATA[
.edge:hover path { stroke: red; }
.edge:hover polygon { stroke: red; fill: red; }
]]></style>
<script type="text/javascript"><![CDATA[
var edges = document.getElementsByTagName('g');
if (edges && edges.length) {
  for (var i=0;i<edges.length;i++) {
    if (edges[i].id.substr(0,4)=='edge') {
      edges[i].setAttribute('class','edge');
    }
  }
}
]]></script>
        <defs>
                <circle id="rim" cx="0" cy="0" r="7"/>
                <circle id="rim2" cx="0" cy="0" r="3.5"/>
                <g id="zoomPlus">
                        <use xlink:href="#rim" fill="#404040">
                                <set attributeName="fill" to="#808080" begin="zoomplus.mouseover" end="zoomplus.mouseout"/>
                        </use>
                        <path d="M-4,0h8M0,-4v8" fill="none" stroke="white" stroke-width="1.5" pointer-events="none"/>
                </g>
                <g id="zoomMin">
                        <use xlink:href="#rim" fill="#404040">
                                <set attributeName="fill" to="#808080" begin="zoomminus.mouseover" end="zoomminus.mouseout"/>
                        </use>
                        <path d="M-4,0h8" fill="none" stroke="white" stroke-width="1.5" pointer-events="none"/>
                </g>
                <g id="dirArrow">
                        <path fill="none" stroke="white" stroke-width="1.5" d="M0,-3.0v7 M-2.5,-0.5L0,-3.0L2.5,-0.5"/>
                </g>
               <g id="resetDef">
                       <use xlink:href="#rim2" fill="#404040">
                               <set attributeName="fill" to="#808080" begin="reset.mouseover" end="reset.mouseout"/>
                       </use>
               </g>
        </defs>

<script type="text/javascript">
var viewWidth = 2260;
var viewHeight = 393;
var sectionId = 'dynsection-9';
</script>
<script xlink:href="../../svgpan.js"/>
<svg id="graph" class="graph">
<g id="viewport">
<title>nars.language.Variable.unify</title>
<!-- Node90 -->
<g id="node1" class="node"><title>Node90</title>
<polygon fill="#bfbfbf" stroke="black" points="0,-168.932 0,-187.932 140,-187.932 140,-168.932 0,-168.932"/>
<text text-anchor="middle" x="70" y="-175.932" font-family="Helvetica,sans-Serif" font-size="10.00">nars.language.Variable.unify</text>
</g>
<!-- Node91 -->
<g id="node2" class="node"><title>Node91</title>
<g id="a_node2"><a xlink:href="../../dc/ded/a00252.html#a34927349efcf87db97d23c60983b115b" target="_top" xlink:title="Syllogistic rules whose both premises are on the same asymmetric relation. ">
<polygon fill="none" stroke="black" points="176,-354.432 176,-384.432 361,-384.432 361,-354.432 176,-354.432"/>
<text text-anchor="start" x="184" y="-372.432" font-family="Helvetica,sans-Serif" font-size="10.00">nars.inference.RuleTables.asymmetric</text>
<text text-anchor="middle" x="268.5" y="-361.432" font-family="Helvetica,sans-Serif" font-size="10.00">Asymmetric</text>
</a>
</g>
</g>
<!-- Node90&#45;&gt;Node91 -->
<g id="edge1" class="edge"><title>Node90&#45;&gt;Node91</title>
<path fill="none" stroke="midnightblue" d="M77.6251,-197.659C90.6952,-232.651 123.2,-306.691 176,-345.432 180.634,-348.833 185.712,-351.752 191.024,-354.258"/>
<polygon fill="midnightblue" stroke="midnightblue" points="80.8759,-196.356 74.1919,-188.136 74.2908,-198.73 80.8759,-196.356"/>
</g>
<!-- Node102 -->
<g id="node13" class="node"><title>Node102</title>
<g id="a_node13"><a xlink:href="../../dc/ded/a00252.html#a4f61a7c2dc75c9da475030894eac0735" target="_top" xlink:title="Syllogistic rules whose first premise is on an asymmetric relation, and the second on a symmetric rel...">
<polygon fill="none" stroke="black" points="176,-305.432 176,-335.432 361,-335.432 361,-305.432 176,-305.432"/>
<text text-anchor="start" x="184" y="-323.432" font-family="Helvetica,sans-Serif" font-size="10.00">nars.inference.RuleTables.asymmetric</text>
<text text-anchor="middle" x="268.5" y="-312.432" font-family="Helvetica,sans-Serif" font-size="10.00">Symmetric</text>
</a>
</g>
</g>
<!-- Node90&#45;&gt;Node102 -->
<g id="edge12" class="edge"><title>Node90&#45;&gt;Node102</title>
<path fill="none" stroke="midnightblue" d="M82.1685,-196.675C99.1415,-222.824 133.943,-270.643 176,-296.432 181.6,-299.866 187.684,-302.813 193.964,-305.341"/>
<polygon fill="midnightblue" stroke="midnightblue" points="85.0477,-194.68 76.7415,-188.103 79.1333,-198.424 85.0477,-194.68"/>
</g>
<!-- Node103 -->
<g id="node14" class="node"><title>Node103</title>
<g id="a_node14"><a xlink:href="../../dc/ded/a00252.html#a54a7ceba4f123db5035e3b85063c91f1" target="_top" xlink:title="Inference between a compound term and a statement. ">
<polygon fill="none" stroke="black" points="406,-169.432 406,-199.432 585,-199.432 585,-169.432 406,-169.432"/>
<text text-anchor="start" x="414" y="-187.432" font-family="Helvetica,sans-Serif" font-size="10.00">nars.inference.RuleTables.compound</text>
<text text-anchor="middle" x="495.5" y="-176.432" font-family="Helvetica,sans-Serif" font-size="10.00">AndStatement</text>
</a>
</g>
</g>
<!-- Node90&#45;&gt;Node103 -->
<g id="edge14" class="edge"><title>Node90&#45;&gt;Node103</title>
<path fill="none" stroke="midnightblue" d="M150.474,-179.558C223.134,-180.588 330.456,-182.108 405.863,-183.176"/>
<polygon fill="midnightblue" stroke="midnightblue" points="150.507,-176.058 140.458,-179.416 150.408,-183.058 150.507,-176.058"/>
</g>
<!-- Node104 -->
<g id="node15" class="node"><title>Node104</title>
<g id="a_node15"><a xlink:href="../../dc/ded/a00252.html#aac2b267fcfa9bb34e03d44a410bfd92b" target="_top" xlink:title="{&lt;(&amp;&amp;, S1, S2) &lt;=&gt; P&gt;, (&amp;&amp;, S1, S2)} |&#45; P ">
<polygon fill="none" stroke="black" points="397,-130.932 397,-149.932 594,-149.932 594,-130.932 397,-130.932"/>
<text text-anchor="middle" x="495.5" y="-137.932" font-family="Helvetica,sans-Serif" font-size="10.00">nars.inference.RuleTables.conditionalAna</text>
</a>
</g>
</g>
<!-- Node90&#45;&gt;Node104 -->
<g id="edge16" class="edge"><title>Node90&#45;&gt;Node104</title>
<path fill="none" stroke="midnightblue" d="M150.522,-171.297C220.349,-165.031 322.162,-155.896 396.906,-149.189"/>
<polygon fill="midnightblue" stroke="midnightblue" points="150.105,-167.82 140.458,-172.2 150.731,-174.792 150.105,-167.82"/>
</g>
<!-- Node105 -->
<g id="node16" class="node"><title>Node105</title>
<g id="a_node16"><a xlink:href="../../dc/ded/a00252.html#a52bb3626302eb9f10567c24ec5dbc934" target="_top" xlink:title="{&lt;(&amp;&amp;, S1, S2, S3) ==&gt; P&gt;, S1} |&#45; &lt;(&amp;&amp;, S2, S3) ==&gt; P&gt; {&lt;(&amp;&amp;, S2, S3) ==&gt; P&gt;, &lt;S1 ==&gt; S2&gt;} |&#45; &lt;(&amp;&amp;...">
<polygon fill="none" stroke="black" points="178.5,-81.4322 178.5,-111.432 358.5,-111.432 358.5,-81.4322 178.5,-81.4322"/>
<text text-anchor="start" x="186.5" y="-99.4322" font-family="Helvetica,sans-Serif" font-size="10.00">nars.inference.RuleTables.conditional</text>
<text text-anchor="middle" x="268.5" y="-88.4322" font-family="Helvetica,sans-Serif" font-size="10.00">DedInd</text>
</a>
</g>
</g>
<!-- Node90&#45;&gt;Node105 -->
<g id="edge18" class="edge"><title>Node90&#45;&gt;Node105</title>
<path fill="none" stroke="midnightblue" d="M97.4079,-164.038C118.355,-152.944 148.571,-137.654 176,-126.432 189.152,-121.052 203.657,-115.937 217.168,-111.505"/>
<polygon fill="midnightblue" stroke="midnightblue" points="95.6486,-161.01 88.479,-168.81 98.9482,-167.183 95.6486,-161.01"/>
</g>
<!-- Node106 -->
<g id="node17" class="node"><title>Node106</title>
<g id="a_node17"><a xlink:href="../../dc/ded/a00252.html#aa167c7cb73f540ded591dc584ae623c1" target="_top" xlink:title="Conditional deduction or induction, with variable unification. ">
<polygon fill="none" stroke="black" points="405.5,-43.4322 405.5,-73.4322 585.5,-73.4322 585.5,-43.4322 405.5,-43.4322"/>
<text text-anchor="start" x="413.5" y="-61.4322" font-family="Helvetica,sans-Serif" font-size="10.00">nars.inference.RuleTables.conditional</text>
<text text-anchor="middle" x="495.5" y="-50.4322" font-family="Helvetica,sans-Serif" font-size="10.00">DedIndWithVar</text>
</a>
</g>
</g>
<!-- Node90&#45;&gt;Node106 -->
<g id="edge22" class="edge"><title>Node90&#45;&gt;Node106</title>
<path fill="none" stroke="midnightblue" d="M82.4448,-160.019C99.3458,-134.732 133.603,-90.2544 176,-71.4322 248.33,-39.321 339.235,-39.0277 405.393,-45.0253"/>
<polygon fill="midnightblue" stroke="midnightblue" points="79.3355,-158.381 76.8363,-168.677 85.2106,-162.187 79.3355,-158.381"/>
</g>
<!-- Node107 -->
<g id="node18" class="node"><title>Node107</title>
<g id="a_node18"><a xlink:href="../../dc/ded/a00252.html#af6c973743270b2739d4ad25f16975da1" target="_top" xlink:title="The detachment rule, with variable unification. ">
<polygon fill="none" stroke="black" points="176,-256.432 176,-286.432 361,-286.432 361,-256.432 176,-256.432"/>
<text text-anchor="start" x="184" y="-274.432" font-family="Helvetica,sans-Serif" font-size="10.00">nars.inference.RuleTables.detachment</text>
<text text-anchor="middle" x="268.5" y="-263.432" font-family="Helvetica,sans-Serif" font-size="10.00">WithVar</text>
</a>
</g>
</g>
<!-- Node90&#45;&gt;Node107 -->
<g id="edge23" class="edge"><title>Node90&#45;&gt;Node107</title>
<path fill="none" stroke="midnightblue" d="M90.9973,-194.447C111.316,-210.003 144.235,-233.287 176,-247.432 183.501,-250.773 191.563,-253.724 199.68,-256.31"/>
<polygon fill="midnightblue" stroke="midnightblue" points="92.8899,-191.485 82.8492,-188.103 88.5895,-197.008 92.8899,-191.485"/>
</g>
<!-- Node108 -->
<g id="node19" class="node"><title>Node108</title>
<g id="a_node19"><a xlink:href="../../dd/dd7/a00248.html#aac1c92950f50edd04d12229a8c992987" target="_top" xlink:title="The task and belief have the same content. ">
<polygon fill="none" stroke="black" points="415.5,-4.9322 415.5,-23.9322 575.5,-23.9322 575.5,-4.9322 415.5,-4.9322"/>
<text text-anchor="middle" x="495.5" y="-11.9322" font-family="Helvetica,sans-Serif" font-size="10.00">nars.inference.LocalRules.match</text>
</a>
</g>
</g>
<!-- Node90&#45;&gt;Node108 -->
<g id="edge25" class="edge"><title>Node90&#45;&gt;Node108</title>
<path fill="none" stroke="midnightblue" d="M78.9415,-159.29C93.159,-127.768 126.208,-65.7146 176,-38.4322 256.969,5.93342 367.343,2.74127 434.622,-4.91341"/>
<polygon fill="midnightblue" stroke="midnightblue" points="75.6212,-158.149 74.8448,-168.715 82.041,-160.939 75.6212,-158.149"/>
</g>
<!-- Node109 -->
<g id="node20" class="node"><title>Node109</title>
<g id="a_node20"><a xlink:href="../../dc/ded/a00252.html#ab64fca3ebda3499b831c2b93df736530" target="_top" xlink:title="Syllogistic rules whose both premises are on the same symmetric relation. ">
<polygon fill="none" stroke="black" points="179,-207.432 179,-237.432 358,-237.432 358,-207.432 179,-207.432"/>
<text text-anchor="start" x="187" y="-225.432" font-family="Helvetica,sans-Serif" font-size="10.00">nars.inference.RuleTables.symmetric</text>
<text text-anchor="middle" x="268.5" y="-214.432" font-family="Helvetica,sans-Serif" font-size="10.00">Symmetric</text>
</a>
</g>
</g>
<!-- Node90&#45;&gt;Node109 -->
<g id="edge27" class="edge"><title>Node90&#45;&gt;Node109</title>
<path fill="none" stroke="midnightblue" d="M123.441,-190.175C147.013,-195.453 175.118,-201.746 200.219,-207.367"/>
<polygon fill="midnightblue" stroke="midnightblue" points="124.161,-186.749 113.638,-187.98 122.631,-193.58 124.161,-186.749"/>
</g>
<!-- Node92 -->
<g id="node3" class="node"><title>Node92</title>
<g id="a_node3"><a xlink:href="../../dc/ded/a00252.html#a8628d400a8ceda7fea05039ddfea319b" target="_top" xlink:title="Meta&#45;table of syllogistic rules, indexed by the content classes of the taskSentence and the belief...">
<polygon fill="none" stroke="black" points="405.5,-261.932 405.5,-280.932 585.5,-280.932 585.5,-261.932 405.5,-261.932"/>
<text text-anchor="middle" x="495.5" y="-268.932" font-family="Helvetica,sans-Serif" font-size="10.00">nars.inference.RuleTables.syllogisms</text>
</a>
</g>
</g>
<!-- Node91&#45;&gt;Node92 -->
<g id="edge2" class="edge"><title>Node91&#45;&gt;Node92</title>
<path fill="none" stroke="midnightblue" d="M345.016,-351.238C350.477,-349.431 355.855,-347.495 361,-345.432 406.503,-327.188 455.958,-296.667 479.89,-281.141"/>
<polygon fill="midnightblue" stroke="midnightblue" points="343.617,-348.009 335.129,-354.35 345.718,-354.686 343.617,-348.009"/>
</g>
<!-- Node93 -->
<g id="node4" class="node"><title>Node93</title>
<g id="a_node4"><a xlink:href="../../dc/ded/a00252.html#ac2d01dfdc40bdd47c757cb549217e6e3" target="_top" xlink:title="Entry point of the inference engine. ">
<polygon fill="none" stroke="black" points="630,-111.932 630,-130.932 793,-130.932 793,-111.932 630,-111.932"/>
<text text-anchor="middle" x="711.5" y="-118.932" font-family="Helvetica,sans-Serif" font-size="10.00">nars.inference.RuleTables.reason</text>
</a>
</g>
</g>
<!-- Node92&#45;&gt;Node93 -->
<g id="edge3" class="edge"><title>Node92&#45;&gt;Node93</title>
<path fill="none" stroke="midnightblue" d="M520.646,-256.469C540.562,-243.976 569.431,-225.515 594,-208.432 632.757,-181.485 677.055,-147.484 698.119,-131.113"/>
<polygon fill="midnightblue" stroke="midnightblue" points="518.537,-253.659 511.911,-261.926 522.246,-259.596 518.537,-253.659"/>
</g>
<!-- Node94 -->
<g id="node5" class="node"><title>Node94</title>
<g id="a_node5"><a xlink:href="../../d7/ded/a00196.html#ad6fb91dda799c3092ecb186ef24ca92a" target="_top" xlink:title="An atomic step in a concept, only called in Memory# processConcept. ">
<polygon fill="none" stroke="black" points="829,-106.432 829,-136.432 948,-136.432 948,-106.432 829,-106.432"/>
<text text-anchor="start" x="837" y="-124.432" font-family="Helvetica,sans-Serif" font-size="10.00">nars.entity.Concept.fire</text>
<text text-anchor="middle" x="888.5" y="-113.432" font-family="Helvetica,sans-Serif" font-size="10.00">FromProcessConcept</text>
</a>
</g>
</g>
<!-- Node93&#45;&gt;Node94 -->
<g id="edge4" class="edge"><title>Node93&#45;&gt;Node94</title>
<path fill="none" stroke="midnightblue" d="M803.249,-121.432C811.907,-121.432 820.523,-121.432 828.757,-121.432"/>
<polygon fill="midnightblue" stroke="midnightblue" points="803.085,-117.932 793.085,-121.432 803.085,-124.932 803.085,-117.932"/>
</g>
<!-- Node95 -->
<g id="node6" class="node"><title>Node95</title>
<g id="a_node6"><a xlink:href="../../d4/d27/a00392.html#a0acc4adbf6a2462245da46bcb529746c" target="_top" xlink:title="Select a concept to fireFromProcessConcept. ">
<polygon fill="none" stroke="black" points="984,-106.432 984,-136.432 1130,-136.432 1130,-106.432 984,-106.432"/>
<text text-anchor="start" x="992" y="-124.432" font-family="Helvetica,sans-Serif" font-size="10.00">nars.storage.Memory.process</text>
<text text-anchor="middle" x="1057" y="-113.432" font-family="Helvetica,sans-Serif" font-size="10.00">Concept</text>
</a>
</g>
</g>
<!-- Node94&#45;&gt;Node95 -->
<g id="edge5" class="edge"><title>Node94&#45;&gt;Node95</title>
<path fill="none" stroke="midnightblue" d="M958.337,-121.432C966.748,-121.432 975.361,-121.432 983.819,-121.432"/>
<polygon fill="midnightblue" stroke="midnightblue" points="958.202,-117.932 948.202,-121.432 958.202,-124.932 958.202,-117.932"/>
</g>
<!-- Node96 -->
<g id="node7" class="node"><title>Node96</title>
<g id="a_node7"><a xlink:href="../../d4/d27/a00392.html#a59ae339d666409988d90d29be4f73a91" target="_top" xlink:title="An atomic working workCycle of the system: process new Tasks, then fireFromProcessConcept a concept...">
<polygon fill="none" stroke="black" points="1166,-106.432 1166,-136.432 1299,-136.432 1299,-106.432 1166,-106.432"/>
<text text-anchor="start" x="1174" y="-124.432" font-family="Helvetica,sans-Serif" font-size="10.00">nars.storage.Memory.work</text>
<text text-anchor="middle" x="1232.5" y="-113.432" font-family="Helvetica,sans-Serif" font-size="10.00">Cycle</text>
</a>
</g>
</g>
<!-- Node95&#45;&gt;Node96 -->
<g id="edge6" class="edge"><title>Node95&#45;&gt;Node96</title>
<path fill="none" stroke="midnightblue" d="M1140.12,-121.432C1148.72,-121.432 1157.37,-121.432 1165.76,-121.432"/>
<polygon fill="midnightblue" stroke="midnightblue" points="1140.07,-117.932 1130.07,-121.432 1140.07,-124.932 1140.07,-117.932"/>
</g>
<!-- Node97 -->
<g id="node8" class="node"><title>Node97</title>
<g id="a_node8"><a xlink:href="../../df/d15/a00416.html#a0d5c797dc17d9e8d0998852915e0f303" target="_top" xlink:title="nars.storage.ReasonerBatch.doTick">
<polygon fill="none" stroke="black" points="1335,-111.932 1335,-130.932 1508,-130.932 1508,-111.932 1335,-111.932"/>
<text text-anchor="middle" x="1421.5" y="-118.932" font-family="Helvetica,sans-Serif" font-size="10.00">nars.storage.ReasonerBatch.doTick</text>
</a>
</g>
</g>
<!-- Node96&#45;&gt;Node97 -->
<g id="edge7" class="edge"><title>Node96&#45;&gt;Node97</title>
<path fill="none" stroke="midnightblue" d="M1309.34,-121.432C1317.78,-121.432 1326.42,-121.432 1334.97,-121.432"/>
<polygon fill="midnightblue" stroke="midnightblue" points="1309.17,-117.932 1299.17,-121.432 1309.17,-124.932 1309.17,-117.932"/>
</g>
<!-- Node98 -->
<g id="node9" class="node"><title>Node98</title>
<g id="a_node9"><a xlink:href="../../df/d15/a00416.html#a3468aa0f99edcd66412f27922dddb880" target="_top" xlink:title="A clock tick. ">
<polygon fill="none" stroke="black" points="1544,-111.932 1544,-130.932 1704,-130.932 1704,-111.932 1544,-111.932"/>
<text text-anchor="middle" x="1624" y="-118.932" font-family="Helvetica,sans-Serif" font-size="10.00">nars.storage.ReasonerBatch.tick</text>
</a>
</g>
</g>
<!-- Node97&#45;&gt;Node98 -->
<g id="edge8" class="edge"><title>Node97&#45;&gt;Node98</title>
<path fill="none" stroke="midnightblue" d="M1518.13,-121.432C1526.7,-121.432 1535.31,-121.432 1543.71,-121.432"/>
<polygon fill="midnightblue" stroke="midnightblue" points="1518.11,-117.932 1508.11,-121.432 1518.11,-124.932 1518.11,-117.932"/>
</g>
<!-- Node99 -->
<g id="node10" class="node"><title>Node99</title>
<g id="a_node10"><a xlink:href="../../d9/da1/a00396.html#a5d9cfe517bcfbe41e5251910bcd119c1" target="_top" xlink:title="Run to completion: repeatedly execute NARS working cycle, until Inputs are Finished, or 1000 steps. ">
<polygon fill="none" stroke="black" points="1740,-111.932 1740,-130.932 1884,-130.932 1884,-111.932 1740,-111.932"/>
<text text-anchor="middle" x="1812" y="-118.932" font-family="Helvetica,sans-Serif" font-size="10.00">nars.storage.NARSBatch.run</text>
</a>
</g>
</g>
<!-- Node98&#45;&gt;Node99 -->
<g id="edge9" class="edge"><title>Node98&#45;&gt;Node99</title>
<path fill="none" stroke="midnightblue" d="M1714.22,-121.432C1722.82,-121.432 1731.47,-121.432 1739.87,-121.432"/>
<polygon fill="midnightblue" stroke="midnightblue" points="1714.15,-117.932 1704.15,-121.432 1714.15,-124.932 1714.15,-117.932"/>
</g>
<!-- Node100 -->
<g id="node11" class="node"><title>Node100</title>
<g id="a_node11"><a xlink:href="../../d9/da1/a00396.html#a7c307c6b842f82664de6b0e52bdf8efc" target="_top" xlink:title="non&#45;static equivalent to main(String[]) : run to completion from an input file ">
<polygon fill="none" stroke="black" points="1920,-106.432 1920,-136.432 2064,-136.432 2064,-106.432 1920,-106.432"/>
<text text-anchor="start" x="1928" y="-124.432" font-family="Helvetica,sans-Serif" font-size="10.00">nars.storage.NARSBatch.run</text>
<text text-anchor="middle" x="1992" y="-113.432" font-family="Helvetica,sans-Serif" font-size="10.00">Inference</text>
</a>
</g>
</g>
<!-- Node99&#45;&gt;Node100 -->
<g id="edge10" class="edge"><title>Node99&#45;&gt;Node100</title>
<path fill="none" stroke="midnightblue" d="M1894.17,-121.432C1902.79,-121.432 1911.51,-121.432 1920,-121.432"/>
<polygon fill="midnightblue" stroke="midnightblue" points="1894.12,-117.932 1884.12,-121.432 1894.12,-124.932 1894.12,-117.932"/>
</g>
<!-- Node101 -->
<g id="node12" class="node"><title>Node101</title>
<g id="a_node12"><a xlink:href="../../d9/da1/a00396.html#abafc597289bc2f6453b5cd0dd6634e54" target="_top" xlink:title="The entry point of the standalone application. ">
<polygon fill="none" stroke="black" points="2100,-111.932 2100,-130.932 2252,-130.932 2252,-111.932 2100,-111.932"/>
<text text-anchor="middle" x="2176" y="-118.932" font-family="Helvetica,sans-Serif" font-size="10.00">nars.storage.NARSBatch.main</text>
</a>
</g>
</g>
<!-- Node100&#45;&gt;Node101 -->
<g id="edge11" class="edge"><title>Node100&#45;&gt;Node101</title>
<path fill="none" stroke="midnightblue" d="M2074.17,-121.432C2082.76,-121.432 2091.48,-121.432 2100,-121.432"/>
<polygon fill="midnightblue" stroke="midnightblue" points="2074.15,-117.932 2064.15,-121.432 2074.15,-124.932 2074.15,-117.932"/>
</g>
<!-- Node102&#45;&gt;Node92 -->
<g id="edge13" class="edge"><title>Node102&#45;&gt;Node92</title>
<path fill="none" stroke="midnightblue" d="M348.551,-303.217C382.867,-295.743 421.75,-287.275 450.749,-280.96"/>
<polygon fill="midnightblue" stroke="midnightblue" points="347.563,-299.85 338.537,-305.398 349.052,-306.689 347.563,-299.85"/>
</g>
<!-- Node103&#45;&gt;Node93 -->
<g id="edge15" class="edge"><title>Node103&#45;&gt;Node93</title>
<path fill="none" stroke="midnightblue" d="M567.257,-166.861C576.282,-164.452 585.375,-161.942 594,-159.432 624.641,-150.517 659.372,-139.003 682.88,-130.996"/>
<polygon fill="midnightblue" stroke="midnightblue" points="566.293,-163.495 557.516,-169.43 568.078,-170.264 566.293,-163.495"/>
</g>
<!-- Node104&#45;&gt;Node93 -->
<g id="edge17" class="edge"><title>Node104&#45;&gt;Node93</title>
<path fill="none" stroke="midnightblue" d="M604.175,-130.872C612.762,-130.11 621.342,-129.348 629.696,-128.606"/>
<polygon fill="midnightblue" stroke="midnightblue" points="603.758,-127.395 594.106,-131.766 604.377,-134.368 603.758,-127.395"/>
</g>
<!-- Node105&#45;&gt;Node93 -->
<g id="edge21" class="edge"><title>Node105&#45;&gt;Node93</title>
<path fill="none" stroke="midnightblue" d="M369.171,-102.082C447.97,-106.55 556.555,-112.705 629.922,-116.864"/>
<polygon fill="midnightblue" stroke="midnightblue" points="368.925,-98.563 358.743,-101.491 368.529,-105.552 368.925,-98.563"/>
</g>
<!-- Node105&#45;&gt;Node106 -->
<g id="edge19" class="edge"><title>Node105&#45;&gt;Node106</title>
<path fill="none" stroke="midnightblue" d="M368.292,-79.7474C380.668,-77.6572 393.269,-75.529 405.483,-73.4662"/>
<polygon fill="midnightblue" stroke="midnightblue" points="367.703,-76.2971 358.426,-81.4136 368.869,-83.1993 367.703,-76.2971"/>
</g>
<!-- Node106&#45;&gt;Node93 -->
<g id="edge20" class="edge"><title>Node106&#45;&gt;Node93</title>
<path fill="none" stroke="midnightblue" d="M557.247,-76.3156C596.58,-87.895 646.239,-102.514 678.183,-111.918"/>
<polygon fill="midnightblue" stroke="midnightblue" points="558.068,-72.9089 547.486,-73.4422 556.091,-79.6239 558.068,-72.9089"/>
</g>
<!-- Node107&#45;&gt;Node92 -->
<g id="edge24" class="edge"><title>Node107&#45;&gt;Node92</title>
<path fill="none" stroke="midnightblue" d="M371.349,-271.432C382.659,-271.432 394.114,-271.432 405.251,-271.432"/>
<polygon fill="midnightblue" stroke="midnightblue" points="371.016,-267.932 361.016,-271.432 371.016,-274.932 371.016,-267.932"/>
</g>
<!-- Node108&#45;&gt;Node93 -->
<g id="edge26" class="edge"><title>Node108&#45;&gt;Node93</title>
<path fill="none" stroke="midnightblue" d="M575.981,-26.739C582.187,-28.657 588.264,-30.8728 594,-33.4322 638.675,-53.3663 682.204,-93.2605 700.923,-111.689"/>
<polygon fill="midnightblue" stroke="midnightblue" points="576.729,-23.3135 566.155,-23.9633 574.827,-30.0499 576.729,-23.3135"/>
</g>
<!-- Node109&#45;&gt;Node92 -->
<g id="edge28" class="edge"><title>Node109&#45;&gt;Node92</title>
<path fill="none" stroke="midnightblue" d="M348.551,-239.648C382.867,-247.121 421.75,-255.589 450.749,-261.904"/>
<polygon fill="midnightblue" stroke="midnightblue" points="349.052,-236.175 338.537,-237.467 347.563,-243.015 349.052,-236.175"/>
</g>
</g>
</svg>
        <g id="navigator" transform="translate(0 0)" fill="#404254">
                <rect fill="#f2f5e9" fill-opacity="0.5" stroke="#606060" stroke-width=".5" x="0" y="0" width="60" height="60"/>
                <use id="zoomplus" xlink:href="#zoomPlus" x="17" y="9" onmousedown="handleZoom(evt,'in')"/>
                <use id="zoomminus" xlink:href="#zoomMin" x="42" y="9" onmousedown="handleZoom(evt,'out')"/>
                <use id="reset" xlink:href="#resetDef" x="30" y="36" onmousedown="handleReset()"/>
                <g id="arrowUp" xlink:href="#dirArrow" transform="translate(30 24)" onmousedown="handlePan(0,-1)">
                  <use xlink:href="#rim" fill="#404040">
                        <set attributeName="fill" to="#808080" begin="arrowUp.mouseover" end="arrowUp.mouseout"/>
                  </use>
                  <path fill="none" stroke="white" stroke-width="1.5" d="M0,-3.0v7 M-2.5,-0.5L0,-3.0L2.5,-0.5"/>
                </g>
                <g id="arrowRight" xlink:href="#dirArrow" transform="rotate(90) translate(36 -43)" onmousedown="handlePan(1,0)">
                  <use xlink:href="#rim" fill="#404040">
                        <set attributeName="fill" to="#808080" begin="arrowRight.mouseover" end="arrowRight.mouseout"/>
                  </use>
                  <path fill="none" stroke="white" stroke-width="1.5" d="M0,-3.0v7 M-2.5,-0.5L0,-3.0L2.5,-0.5"/>
                </g>
                <g id="arrowDown" xlink:href="#dirArrow" transform="rotate(180) translate(-30 -48)" onmousedown="handlePan(0,1)">
                  <use xlink:href="#rim" fill="#404040">
                        <set attributeName="fill" to="#808080" begin="arrowDown.mouseover" end="arrowDown.mouseout"/>
                  </use>
                  <path fill="none" stroke="white" stroke-width="1.5" d="M0,-3.0v7 M-2.5,-0.5L0,-3.0L2.5,-0.5"/>
                </g>
                <g id="arrowLeft" xlink:href="#dirArrow" transform="rotate(270) translate(-36 17)" onmousedown="handlePan(-1,0)">
                  <use xlink:href="#rim" fill="#404040">
                        <set attributeName="fill" to="#808080" begin="arrowLeft.mouseover" end="arrowLeft.mouseout"/>
                  </use>
                  <path fill="none" stroke="white" stroke-width="1.5" d="M0,-3.0v7 M-2.5,-0.5L0,-3.0L2.5,-0.5"/>
                </g>
        </g>
        <svg viewBox="0 0 15 15" width="100%" height="30px" preserveAspectRatio="xMaxYMin meet">
         <g id="arrow_out" transform="scale(0.3 0.3)">
          <a xlink:href="a00368_a406d05d0fb48984cd673b499ece31245_icgraph_org.svg" target="_base">
           <rect id="button" ry="5" rx="5" y="6" x="6" height="38" width="38"
                fill="#f2f5e9" fill-opacity="0.5" stroke="#606060" stroke-width="1.0"/>
           <path id="arrow"
             d="M 11.500037,31.436501 C 11.940474,20.09759 22.043105,11.32322 32.158766,21.979434 L 37.068811,17.246167 C 37.068811,17.246167 37.088388,32 37.088388,32 L 22.160133,31.978069 C 22.160133,31.978069 26.997745,27.140456 26.997745,27.140456 C 18.528582,18.264221 13.291696,25.230495 11.500037,31.436501 z"
             style="fill:#404040;"/>
          </a>
         </g>
        </svg>
</svg>
