<?xml version="1.0" encoding="UTF-8" standalone="no"?>
<!DOCTYPE svg PUBLIC "-//W3C//DTD SVG 1.1//EN"
 "http://www.w3.org/Graphics/SVG/1.1/DTD/svg11.dtd">
<!-- Generated by graphviz version 2.38.0 (20140413.2041)
 -->
<!-- Title: nars.language.Variable.containVarIndep Pages: 1 -->
<svg width="1592pt" height="209pt"
 viewBox="0.00 0.00 1592.00 209.00" xmlns="http://www.w3.org/2000/svg" xmlns:xlink="http://www.w3.org/1999/xlink">
<g id="graph0" class="graph" transform="scale(1 1) rotate(0) translate(4 205)">
<title>nars.language.Variable.containVarIndep</title>
<!-- Node39 -->
<g id="node1" class="node"><title>Node39</title>
<polygon fill="#bfbfbf" stroke="black" points="0,-126.5 0,-156.5 150,-156.5 150,-126.5 0,-126.5"/>
<text text-anchor="start" x="8" y="-144.5" font-family="Helvetica,sans-Serif" font-size="10.00">nars.language.Variable.contain</text>
<text text-anchor="middle" x="75" y="-133.5" font-family="Helvetica,sans-Serif" font-size="10.00">VarIndep</text>
</g>
<!-- Node40 -->
<g id="node2" class="node"><title>Node40</title>
<g id="a_node2"><a xlink:href="../../d8/d21/a00368.html#a2c36e85a56295a27aba7a4ee162f5850" target="_top" xlink:title="Check whether a string represent a name of a term that contains a variable. ">
<polygon fill="none" stroke="black" points="186,-132 186,-151 351,-151 351,-132 186,-132"/>
<text text-anchor="middle" x="268.5" y="-139" font-family="Helvetica,sans-Serif" font-size="10.00">nars.language.Variable.containVar</text>
</a>
</g>
</g>
<!-- Node39&#45;&gt;Node40 -->
<g id="edge1" class="edge"><title>Node39&#45;&gt;Node40</title>
<path fill="none" stroke="midnightblue" d="M160.266,-141.5C168.715,-141.5 177.284,-141.5 185.706,-141.5"/>
<polygon fill="midnightblue" stroke="midnightblue" points="160.039,-138 150.039,-141.5 160.039,-145 160.039,-138"/>
</g>
<!-- Node41 -->
<g id="node3" class="node"><title>Node41</title>
<g id="a_node3"><a xlink:href="../../d8/d17/a00304.html#ab2f1e2119f6824f9c97e2f8d0d75483e" target="_top" xlink:title="Constructor called from subclasses constructors to initialize the fields. ">
<polygon fill="none" stroke="black" points="410.5,-170.5 410.5,-200.5 563.5,-200.5 563.5,-170.5 410.5,-170.5"/>
<text text-anchor="start" x="418.5" y="-188.5" font-family="Helvetica,sans-Serif" font-size="10.00">nars.language.CompoundTerm.</text>
<text text-anchor="middle" x="487" y="-177.5" font-family="Helvetica,sans-Serif" font-size="10.00">CompoundTerm</text>
</a>
</g>
</g>
<!-- Node40&#45;&gt;Node41 -->
<g id="edge2" class="edge"><title>Node40&#45;&gt;Node41</title>
<path fill="none" stroke="midnightblue" d="M326.584,-153.101C352.697,-158.408 383.969,-164.764 411.872,-170.435"/>
<polygon fill="midnightblue" stroke="midnightblue" points="326.974,-149.609 316.477,-151.047 325.58,-156.469 326.974,-149.609"/>
</g>
<!-- Node42 -->
<g id="node4" class="node"><title>Node42</title>
<g id="a_node4"><a xlink:href="../../d8/d17/a00304.html#a18e066f782a0070b137132a6a2d732d6" target="_top" xlink:title="Whether this compound term contains any variable term. ">
<polygon fill="none" stroke="black" points="387,-132 387,-151 587,-151 587,-132 387,-132"/>
<text text-anchor="middle" x="487" y="-139" font-family="Helvetica,sans-Serif" font-size="10.00">nars.language.CompoundTerm.containVar</text>
</a>
</g>
</g>
<!-- Node40&#45;&gt;Node42 -->
<g id="edge3" class="edge"><title>Node40&#45;&gt;Node42</title>
<path fill="none" stroke="midnightblue" d="M361.219,-141.5C369.631,-141.5 378.179,-141.5 386.654,-141.5"/>
<polygon fill="midnightblue" stroke="midnightblue" points="361.041,-138 351.041,-141.5 361.041,-145 361.041,-138"/>
</g>
<!-- Node44 -->
<g id="node6" class="node"><title>Node44</title>
<g id="a_node6"><a xlink:href="../../d8/d0a/a00292.html#a4521720744de2b8638667be01b4be64a" target="_top" xlink:title="Parse a Term that has no internal structure. ">
<polygon fill="none" stroke="black" points="422,-82.5 422,-112.5 552,-112.5 552,-82.5 422,-82.5"/>
<text text-anchor="start" x="430" y="-100.5" font-family="Helvetica,sans-Serif" font-size="10.00">nars.io.StringParser.parse</text>
<text text-anchor="middle" x="487" y="-89.5" font-family="Helvetica,sans-Serif" font-size="10.00">AtomicTerm</text>
</a>
</g>
</g>
<!-- Node40&#45;&gt;Node44 -->
<g id="edge5" class="edge"><title>Node40&#45;&gt;Node44</title>
<path fill="none" stroke="midnightblue" d="M326.546,-129.906C355.835,-123.954 391.623,-116.681 421.867,-110.534"/>
<polygon fill="midnightblue" stroke="midnightblue" points="325.58,-126.531 316.477,-131.953 326.974,-133.391 325.58,-126.531"/>
</g>
<!-- Node43 -->
<g id="node5" class="node"><title>Node43</title>
<g id="a_node5"><a xlink:href="../../d8/d17/a00304.html#ac19f90fbe8b8ebe78462fa13e7ebca74" target="_top" xlink:title="Rename the variables in the compound. ">
<polygon fill="none" stroke="black" points="623,-126.5 623,-156.5 808,-156.5 808,-126.5 623,-126.5"/>
<text text-anchor="start" x="631" y="-144.5" font-family="Helvetica,sans-Serif" font-size="10.00">nars.language.CompoundTerm.rename</text>
<text text-anchor="middle" x="715.5" y="-133.5" font-family="Helvetica,sans-Serif" font-size="10.00">Variables</text>
</a>
</g>
</g>
<!-- Node42&#45;&gt;Node43 -->
<g id="edge4" class="edge"><title>Node42&#45;&gt;Node43</title>
<path fill="none" stroke="midnightblue" d="M597.099,-141.5C605.711,-141.5 614.354,-141.5 622.83,-141.5"/>
<polygon fill="midnightblue" stroke="midnightblue" points="597.017,-138 587.017,-141.5 597.017,-145 597.017,-138"/>
</g>
<!-- Node45 -->
<g id="node7" class="node"><title>Node45</title>
<g id="a_node7"><a xlink:href="../../d8/d0a/a00292.html#a5c31494d6f7862dcf15a4d5716b6200e" target="_top" xlink:title="Top&#45;level method that parse a Term in general, which may recursively call itself. ...">
<polygon fill="none" stroke="black" points="639.5,-88 639.5,-107 791.5,-107 791.5,-88 639.5,-88"/>
<text text-anchor="middle" x="715.5" y="-95" font-family="Helvetica,sans-Serif" font-size="10.00">nars.io.StringParser.parseTerm</text>
</a>
</g>
</g>
<!-- Node44&#45;&gt;Node45 -->
<g id="edge6" class="edge"><title>Node44&#45;&gt;Node45</title>
<path fill="none" stroke="midnightblue" d="M562.324,-97.5C586.997,-97.5 614.477,-97.5 639.221,-97.5"/>
<polygon fill="midnightblue" stroke="midnightblue" points="562.3,-94.0001 552.3,-97.5 562.3,-101 562.3,-94.0001"/>
</g>
<!-- Node46 -->
<g id="node8" class="node"><title>Node46</title>
<g id="a_node8"><a xlink:href="../../d8/d0a/a00292.html#a9b9bc5f94ac6aaa86c3d9c2bcd21c332" target="_top" xlink:title="Parse a String into the argument get of a CompoundTerm. ">
<polygon fill="none" stroke="black" points="855,-131.5 855,-161.5 985,-161.5 985,-131.5 855,-131.5"/>
<text text-anchor="start" x="863" y="-149.5" font-family="Helvetica,sans-Serif" font-size="10.00">nars.io.StringParser.parse</text>
<text text-anchor="middle" x="920" y="-138.5" font-family="Helvetica,sans-Serif" font-size="10.00">Arguments</text>
</a>
</g>
</g>
<!-- Node45&#45;&gt;Node46 -->
<g id="edge7" class="edge"><title>Node45&#45;&gt;Node46</title>
<path fill="none" stroke="midnightblue" d="M801.813,-107.032C803.897,-107.521 805.962,-108.011 808,-108.5 836.278,-115.282 868.405,-123.76 890.793,-131.464"/>
<polygon fill="midnightblue" stroke="midnightblue" points="802.483,-103.594 791.952,-104.759 800.911,-110.416 802.483,-103.594"/>
</g>
<!-- Node48 -->
<g id="node10" class="node"><title>Node48</title>
<g id="a_node10"><a xlink:href="../../d8/d0a/a00292.html#a7c129938c8d721e3db0a9804988f0588" target="_top" xlink:title="Parse a String to create a Statement. ">
<polygon fill="none" stroke="black" points="855,-82.5 855,-112.5 985,-112.5 985,-82.5 855,-82.5"/>
<text text-anchor="start" x="863" y="-100.5" font-family="Helvetica,sans-Serif" font-size="10.00">nars.io.StringParser.parse</text>
<text text-anchor="middle" x="920" y="-89.5" font-family="Helvetica,sans-Serif" font-size="10.00">Statement</text>
</a>
</g>
</g>
<!-- Node45&#45;&gt;Node48 -->
<g id="edge11" class="edge"><title>Node45&#45;&gt;Node48</title>
<path fill="none" stroke="midnightblue" d="M801.975,-90.8233C819.73,-90.657 838.147,-90.7736 854.972,-91.1729"/>
<polygon fill="midnightblue" stroke="midnightblue" points="801.571,-87.3281 791.616,-90.954 801.659,-94.3275 801.571,-87.3281"/>
</g>
<!-- Node49 -->
<g id="node11" class="node"><title>Node49</title>
<g id="a_node11"><a xlink:href="../../d8/d0a/a00292.html#a75b446999d71c676a9915ecc75077a7d" target="_top" xlink:title="Enter a new Task in String into the memory, called from InputWindow or locally. ">
<polygon fill="none" stroke="black" points="844,-6 844,-25 996,-25 996,-6 844,-6"/>
<text text-anchor="middle" x="920" y="-13" font-family="Helvetica,sans-Serif" font-size="10.00">nars.io.StringParser.parseTask</text>
</a>
</g>
</g>
<!-- Node45&#45;&gt;Node49 -->
<g id="edge13" class="edge"><title>Node45&#45;&gt;Node49</title>
<path fill="none" stroke="midnightblue" d="M744.752,-83.4914C770.322,-71.092 809.197,-52.9312 844,-39.5 857.647,-34.2332 872.989,-29.1764 886.224,-25.0741"/>
<polygon fill="midnightblue" stroke="midnightblue" points="743.091,-80.4075 735.64,-87.9396 746.161,-86.698 743.091,-80.4075"/>
</g>
<!-- Node46&#45;&gt;Node45 -->
<g id="edge10" class="edge"><title>Node46&#45;&gt;Node45</title>
<path fill="none" stroke="midnightblue" d="M845.032,-135.604C832.687,-132.56 819.997,-129.377 808,-126.5 781.278,-120.091 749.961,-113.428 731.761,-107.05"/>
<polygon fill="midnightblue" stroke="midnightblue" points="844.293,-139.026 854.839,-138.007 845.959,-132.228 844.293,-139.026"/>
</g>
<!-- Node47 -->
<g id="node9" class="node"><title>Node47</title>
<g id="a_node9"><a xlink:href="../../d8/d0a/a00292.html#a944bb677dff9f232ce6b896c853e24e0" target="_top" xlink:title="Parse a String to create a CompoundTerm. ">
<polygon fill="none" stroke="black" points="1051,-90.5 1051,-120.5 1181,-120.5 1181,-90.5 1051,-90.5"/>
<text text-anchor="start" x="1059" y="-108.5" font-family="Helvetica,sans-Serif" font-size="10.00">nars.io.StringParser.parse</text>
<text text-anchor="middle" x="1116" y="-97.5" font-family="Helvetica,sans-Serif" font-size="10.00">CompoundTerm</text>
</a>
</g>
</g>
<!-- Node46&#45;&gt;Node47 -->
<g id="edge8" class="edge"><title>Node46&#45;&gt;Node47</title>
<path fill="none" stroke="midnightblue" d="M995.096,-130.84C1013.41,-126.971 1032.87,-122.857 1050.68,-119.094"/>
<polygon fill="midnightblue" stroke="midnightblue" points="994.121,-127.469 985.061,-132.961 995.568,-134.318 994.121,-127.469"/>
</g>
<!-- Node47&#45;&gt;Node45 -->
<g id="edge9" class="edge"><title>Node47&#45;&gt;Node45</title>
<path fill="none" stroke="midnightblue" d="M1060.22,-87.543C1040.24,-81.8546 1017.32,-76.3164 996,-73.5 929.026,-64.6523 911.263,-67.2244 844,-73.5 814.509,-76.2515 781.673,-82.5089 756.711,-87.9444"/>
<polygon fill="midnightblue" stroke="midnightblue" points="1059.5,-90.977 1070.08,-90.4266 1061.46,-84.2588 1059.5,-90.977"/>
</g>
<!-- Node48&#45;&gt;Node45 -->
<g id="edge12" class="edge"><title>Node48&#45;&gt;Node45</title>
<path fill="none" stroke="midnightblue" d="M844.899,-104.03C827.536,-104.318 809.023,-104.323 791.616,-104.046"/>
<polygon fill="midnightblue" stroke="midnightblue" points="845.044,-107.527 854.972,-103.827 844.903,-100.529 845.044,-107.527"/>
</g>
<!-- Node50 -->
<g id="node12" class="node"><title>Node50</title>
<g id="a_node12"><a xlink:href="../../df/d15/a00416.html#a4766dfcaabdf586d60b9ac9827e41cad" target="_top" xlink:title="Parse a line of input experience. ">
<polygon fill="none" stroke="black" points="1032,-0.5 1032,-30.5 1200,-30.5 1200,-0.5 1032,-0.5"/>
<text text-anchor="start" x="1040" y="-18.5" font-family="Helvetica,sans-Serif" font-size="10.00">nars.storage.ReasonerBatch.parse</text>
<text text-anchor="middle" x="1116" y="-7.5" font-family="Helvetica,sans-Serif" font-size="10.00">Experience</text>
</a>
</g>
</g>
<!-- Node49&#45;&gt;Node50 -->
<g id="edge14" class="edge"><title>Node49&#45;&gt;Node50</title>
<path fill="none" stroke="midnightblue" d="M1006.27,-15.5C1014.75,-15.5 1023.36,-15.5 1031.81,-15.5"/>
<polygon fill="midnightblue" stroke="midnightblue" points="1006.01,-12.0001 996.005,-15.5 1006.01,-19.0001 1006.01,-12.0001"/>
</g>
<!-- Node51 -->
<g id="node13" class="node"><title>Node51</title>
<g id="a_node13"><a xlink:href="../../df/d15/a00416.html#a1823f1575021b1ca67e6174923923fbb" target="_top" xlink:title="To process a line of input text. ">
<polygon fill="none" stroke="black" points="1236,-0.5 1236,-30.5 1397,-30.5 1397,-0.5 1236,-0.5"/>
<text text-anchor="start" x="1244" y="-18.5" font-family="Helvetica,sans-Serif" font-size="10.00">nars.storage.ReasonerBatch.text</text>
<text text-anchor="middle" x="1316.5" y="-7.5" font-family="Helvetica,sans-Serif" font-size="10.00">InputLine</text>
</a>
</g>
</g>
<!-- Node50&#45;&gt;Node51 -->
<g id="edge15" class="edge"><title>Node50&#45;&gt;Node51</title>
<path fill="none" stroke="midnightblue" d="M1210.13,-15.5C1218.77,-15.5 1227.48,-15.5 1235.98,-15.5"/>
<polygon fill="midnightblue" stroke="midnightblue" points="1210.03,-12.0001 1200.03,-15.5 1210.03,-19.0001 1210.03,-12.0001"/>
</g>
<!-- Node52 -->
<g id="node14" class="node"><title>Node52</title>
<g id="a_node14"><a xlink:href="../../d9/dd6/a00272.html#a1a4b66a6e6cf89d5c2ea7a5923195247" target="_top" xlink:title="Process the next chunk of input data TODO duplicated code with InputWindow#nextInput(). ">
<polygon fill="none" stroke="black" points="1433,-0.5 1433,-30.5 1584,-30.5 1584,-0.5 1433,-0.5"/>
<text text-anchor="start" x="1441" y="-18.5" font-family="Helvetica,sans-Serif" font-size="10.00">nars.io.ExperienceReader.next</text>
<text text-anchor="middle" x="1508.5" y="-7.5" font-family="Helvetica,sans-Serif" font-size="10.00">Input</text>
</a>
</g>
</g>
<!-- Node51&#45;&gt;Node52 -->
<g id="edge16" class="edge"><title>Node51&#45;&gt;Node52</title>
<path fill="none" stroke="midnightblue" d="M1407.53,-15.5C1415.99,-15.5 1424.51,-15.5 1432.81,-15.5"/>
<polygon fill="midnightblue" stroke="midnightblue" points="1407.25,-12.0001 1397.25,-15.5 1407.25,-19.0001 1407.25,-12.0001"/>
</g>
</g>
</svg>
