<?xml version="1.0" encoding="UTF-8" standalone="no"?>
<!DOCTYPE svg PUBLIC "-//W3C//DTD SVG 1.1//EN"
 "http://www.w3.org/Graphics/SVG/1.1/DTD/svg11.dtd">
<!-- Generated by graphviz version 2.38.0 (20140413.2041)
 -->
<!-- Title: nars.entity.Item Pages: 1 -->
<svg width="209pt" height="152pt"
 viewBox="0.00 0.00 208.50 152.00" xmlns="http://www.w3.org/2000/svg" xmlns:xlink="http://www.w3.org/1999/xlink">
<g id="graph0" class="graph" transform="scale(1 1) rotate(0) translate(4 148)">
<title>nars.entity.Item</title>
<!-- Node6 -->
<g id="node1" class="node"><title>Node6</title>
<polygon fill="#bfbfbf" stroke="black" points="23.5,-0.5 23.5,-19.5 108.5,-19.5 108.5,-0.5 23.5,-0.5"/>
<text text-anchor="middle" x="66" y="-7.5" font-family="Helvetica,sans-Serif" font-size="10.00">nars.entity.Item</text>
</g>
<!-- Node7 -->
<g id="node2" class="node"><title>Node7</title>
<polygon fill="none" stroke="#bfbfbf" points="-3.55271e-15,-67.5 -3.55271e-15,-86.5 62,-86.5 62,-67.5 -3.55271e-15,-67.5"/>
<text text-anchor="middle" x="31" y="-74.5" font-family="Helvetica,sans-Serif" font-size="10.00">ItemStruct</text>
</g>
<!-- Node7&#45;&gt;Node6 -->
<g id="edge1" class="edge"><title>Node7&#45;&gt;Node6</title>
<path fill="none" stroke="midnightblue" d="M40.6043,-58.1635C47.3541,-45.6281 56.0867,-29.4104 61.3545,-19.6273"/>
<polygon fill="midnightblue" stroke="midnightblue" points="37.3797,-56.7697 35.7203,-67.2338 43.543,-60.0885 37.3797,-56.7697"/>
</g>
<!-- Node8 -->
<g id="node3" class="node"><title>Node8</title>
<g id="a_node3"><a xlink:href="../../dd/da2/a00192.html" target="_top" xlink:title="A triple of priority (current), durability (decay), and quality (long&#45;term average). ">
<polygon fill="none" stroke="black" points="79.5,-67.5 79.5,-86.5 200.5,-86.5 200.5,-67.5 79.5,-67.5"/>
<text text-anchor="middle" x="140" y="-74.5" font-family="Helvetica,sans-Serif" font-size="10.00">nars.entity.BudgetValue</text>
</a>
</g>
</g>
<!-- Node8&#45;&gt;Node6 -->
<g id="edge2" class="edge"><title>Node8&#45;&gt;Node6</title>
<path fill="none" stroke="#9a32cd" stroke-dasharray="5,2" d="M122.19,-60.3564C107.642,-47.5777 87.6211,-29.9915 75.8219,-19.6273"/>
<polygon fill="#9a32cd" stroke="#9a32cd" points="120.197,-63.264 130.02,-67.2338 124.817,-58.0047 120.197,-63.264"/>
<text text-anchor="middle" x="123.5" y="-41" font-family="Helvetica,sans-Serif" font-size="10.00"> budget</text>
</g>
<!-- Node9 -->
<g id="node4" class="node"><title>Node9</title>
<polygon fill="none" stroke="#bfbfbf" points="103,-124.5 103,-143.5 177,-143.5 177,-124.5 103,-124.5"/>
<text text-anchor="middle" x="140" y="-131.5" font-family="Helvetica,sans-Serif" font-size="10.00">BudgetStruct</text>
</g>
<!-- Node9&#45;&gt;Node8 -->
<g id="edge3" class="edge"><title>Node9&#45;&gt;Node8</title>
<path fill="none" stroke="midnightblue" d="M140,-114.117C140,-104.817 140,-94.0557 140,-86.7149"/>
<polygon fill="midnightblue" stroke="midnightblue" points="136.5,-114.406 140,-124.406 143.5,-114.406 136.5,-114.406"/>
</g>
</g>
</svg>
