<?xml version="1.0" encoding="UTF-8" standalone="no"?>
<!DOCTYPE svg PUBLIC "-//W3C//DTD SVG 1.1//EN"
 "http://www.w3.org/Graphics/SVG/1.1/DTD/svg11.dtd">
<!-- Generated by graphviz version 2.38.0 (20140413.2041)
 -->
<!-- Title: nars.entity.TermLink.TermLink Pages: 1 -->
<svg width="338pt" height="116pt"
 viewBox="0.00 0.00 338.00 115.50" xmlns="http://www.w3.org/2000/svg" xmlns:xlink="http://www.w3.org/1999/xlink">
<g id="graph0" class="graph" transform="scale(1 1) rotate(0) translate(4 111.5)">
<title>nars.entity.TermLink.TermLink</title>
<!-- Node0 -->
<g id="node1" class="node"><title>Node0</title>
<polygon fill="#bfbfbf" stroke="black" points="0,-38.5 0,-57.5 149,-57.5 149,-38.5 0,-38.5"/>
<text text-anchor="middle" x="74.5" y="-45.5" font-family="Helvetica,sans-Serif" font-size="10.00">nars.entity.TermLink.TermLink</text>
</g>
<!-- Node1 -->
<g id="node2" class="node"><title>Node1</title>
<g id="a_node2"><a xlink:href="../../d0/d53/a00232.html#a807c24a5c7654fafa714b1a5aa43ccfa" target="_top" xlink:title="nars.entity.TermLink.set\lIndex">
<polygon fill="none" stroke="black" points="196.5,-77 196.5,-107 318.5,-107 318.5,-77 196.5,-77"/>
<text text-anchor="start" x="204.5" y="-95" font-family="Helvetica,sans-Serif" font-size="10.00">nars.entity.TermLink.set</text>
<text text-anchor="middle" x="257.5" y="-84" font-family="Helvetica,sans-Serif" font-size="10.00">Index</text>
</a>
</g>
</g>
<!-- Node0&#45;&gt;Node1 -->
<g id="edge1" class="edge"><title>Node0&#45;&gt;Node1</title>
<path fill="none" stroke="midnightblue" d="M114.774,-57.5473C135.701,-62.6344 162.076,-69.046 186.382,-74.9546"/>
<polygon fill="midnightblue" stroke="midnightblue" points="185.747,-78.4022 196.291,-77.3634 187.4,-71.6003 185.747,-78.4022"/>
</g>
<!-- Node2 -->
<g id="node3" class="node"><title>Node2</title>
<g id="a_node3"><a xlink:href="../../d0/d53/a00232.html#a0660f7b949881a67b88f428cc15d3caf" target="_top" xlink:title="The type of link, one of the above. ">
<polygon fill="none" stroke="black" points="185,-38.5 185,-57.5 330,-57.5 330,-38.5 185,-38.5"/>
<text text-anchor="middle" x="257.5" y="-45.5" font-family="Helvetica,sans-Serif" font-size="10.00">nars.entity.TermLink.setTerm</text>
</a>
</g>
</g>
<!-- Node0&#45;&gt;Node2 -->
<g id="edge2" class="edge"><title>Node0&#45;&gt;Node2</title>
<path fill="none" stroke="midnightblue" d="M149.12,-48C157.631,-48 166.35,-48 174.959,-48"/>
<polygon fill="midnightblue" stroke="midnightblue" points="174.997,-51.5001 184.996,-48 174.996,-44.5001 174.997,-51.5001"/>
</g>
<!-- Node3 -->
<g id="node4" class="node"><title>Node3</title>
<g id="a_node4"><a xlink:href="../../d0/d53/a00232.html#a38c105501a79e2f5f3036e7a8700607b" target="_top" xlink:title="nars.entity.TermLink.setType">
<polygon fill="none" stroke="black" points="185.5,-0.5 185.5,-19.5 329.5,-19.5 329.5,-0.5 185.5,-0.5"/>
<text text-anchor="middle" x="257.5" y="-7.5" font-family="Helvetica,sans-Serif" font-size="10.00">nars.entity.TermLink.setType</text>
</a>
</g>
</g>
<!-- Node0&#45;&gt;Node3 -->
<g id="edge3" class="edge"><title>Node0&#45;&gt;Node3</title>
<path fill="none" stroke="midnightblue" d="M121.174,-38.411C145.489,-33.3061 175.58,-26.9887 201.208,-21.6082"/>
<polygon fill="midnightblue" stroke="midnightblue" points="202.087,-25.0001 211.154,-19.5201 200.649,-18.1495 202.087,-25.0001"/>
</g>
</g>
</svg>
