<?xml version="1.0" encoding="UTF-8" standalone="no"?>
<!DOCTYPE svg PUBLIC "-//W3C//DTD SVG 1.1//EN"
 "http://www.w3.org/Graphics/SVG/1.1/DTD/svg11.dtd">
<!-- Generated by graphviz version 2.38.0 (20140413.2041)
 -->
<!-- Title: nars.entity.TermLink.TermLink Pages: 1 -->
<svg width="520pt" height="279pt"
 viewBox="0.00 0.00 520.00 279.00" xmlns="http://www.w3.org/2000/svg" xmlns:xlink="http://www.w3.org/1999/xlink">
<g id="graph0" class="graph" transform="scale(1 1) rotate(0) translate(4 275)">
<title>nars.entity.TermLink.TermLink</title>
<!-- Node7 -->
<g id="node1" class="node"><title>Node7</title>
<polygon fill="#bfbfbf" stroke="black" points="0,-120.5 0,-139.5 149,-139.5 149,-120.5 0,-120.5"/>
<text text-anchor="middle" x="74.5" y="-127.5" font-family="Helvetica,sans-Serif" font-size="10.00">nars.entity.TermLink.TermLink</text>
</g>
<!-- Node8 -->
<g id="node2" class="node"><title>Node8</title>
<g id="a_node2"><a xlink:href="../../dc/d59/a00364.html#ad85f45a7858737445d5158801774ff5f" target="_top" xlink:title="Equal terms have identical name, though not necessarily the same reference. ">
<polygon fill="none" stroke="black" points="190.5,-251.5 190.5,-270.5 324.5,-270.5 324.5,-251.5 190.5,-251.5"/>
<text text-anchor="middle" x="257.5" y="-258.5" font-family="Helvetica,sans-Serif" font-size="10.00">nars.language.Term.equals</text>
</a>
</g>
</g>
<!-- Node7&#45;&gt;Node8 -->
<g id="edge1" class="edge"><title>Node7&#45;&gt;Node8</title>
<path fill="none" stroke="midnightblue" d="M82.9013,-139.76C99.1521,-160.551 140.102,-209.544 185,-237 192.068,-241.322 200.01,-244.974 207.962,-248.023"/>
<polygon fill="midnightblue" stroke="midnightblue" points="207.014,-251.4 217.609,-251.447 209.356,-244.804 207.014,-251.4"/>
</g>
<!-- Node9 -->
<g id="node3" class="node"><title>Node9</title>
<g id="a_node3"><a xlink:href="../../dc/d59/a00364.html#a3aad4654016b8615fd4fa8a26668e1db" target="_top" xlink:title="Reporting the name of the current Term. ">
<polygon fill="none" stroke="black" points="366,-232.5 366,-251.5 512,-251.5 512,-232.5 366,-232.5"/>
<text text-anchor="middle" x="439" y="-239.5" font-family="Helvetica,sans-Serif" font-size="10.00">nars.language.Term.getName</text>
</a>
</g>
</g>
<!-- Node7&#45;&gt;Node9 -->
<g id="edge4" class="edge"><title>Node7&#45;&gt;Node9</title>
<path fill="none" stroke="midnightblue" d="M86.0664,-139.574C104.595,-155.769 144.81,-188.334 185,-204 239.493,-225.242 304.864,-234.685 355.506,-238.848"/>
<polygon fill="midnightblue" stroke="midnightblue" points="355.515,-242.359 365.754,-239.635 356.052,-235.379 355.515,-242.359"/>
</g>
<!-- Node10 -->
<g id="node4" class="node"><title>Node10</title>
<g id="a_node4"><a xlink:href="../../d0/d53/a00232.html#a3fc10480b3cf18d6d9c748a7daa612c3" target="_top" xlink:title="The index of the component in the component list of the compound, may have up to 4 levels...">
<polygon fill="none" stroke="black" points="196.5,-164 196.5,-194 318.5,-194 318.5,-164 196.5,-164"/>
<text text-anchor="start" x="204.5" y="-182" font-family="Helvetica,sans-Serif" font-size="10.00">nars.entity.TermLink.get</text>
<text text-anchor="middle" x="257.5" y="-171" font-family="Helvetica,sans-Serif" font-size="10.00">Index</text>
</a>
</g>
</g>
<!-- Node7&#45;&gt;Node10 -->
<g id="edge3" class="edge"><title>Node7&#45;&gt;Node10</title>
<path fill="none" stroke="midnightblue" d="M110.828,-139.564C133.643,-145.74 164.023,-153.965 191.135,-161.304"/>
<polygon fill="midnightblue" stroke="midnightblue" points="190.388,-164.728 200.955,-163.963 192.217,-157.971 190.388,-164.728"/>
</g>
<!-- Node11 -->
<g id="node5" class="node"><title>Node11</title>
<g id="a_node5"><a xlink:href="../../d0/d53/a00232.html#a807c24a5c7654fafa714b1a5aa43ccfa" target="_top" xlink:title="nars.entity.TermLink.set\lIndex">
<polygon fill="none" stroke="black" points="196.5,-115 196.5,-145 318.5,-145 318.5,-115 196.5,-115"/>
<text text-anchor="start" x="204.5" y="-133" font-family="Helvetica,sans-Serif" font-size="10.00">nars.entity.TermLink.set</text>
<text text-anchor="middle" x="257.5" y="-122" font-family="Helvetica,sans-Serif" font-size="10.00">Index</text>
</a>
</g>
</g>
<!-- Node7&#45;&gt;Node11 -->
<g id="edge5" class="edge"><title>Node7&#45;&gt;Node11</title>
<path fill="none" stroke="midnightblue" d="M149.12,-130C161.354,-130 174.015,-130 186.164,-130"/>
<polygon fill="midnightblue" stroke="midnightblue" points="186.23,-133.5 196.23,-130 186.23,-126.5 186.23,-133.5"/>
</g>
<!-- Node12 -->
<g id="node6" class="node"><title>Node12</title>
<g id="a_node6"><a xlink:href="../../d0/d53/a00232.html#ad19e927a3e2e339682081d8e462fe73b" target="_top" xlink:title="Set the key of the link. ">
<polygon fill="none" stroke="black" points="187.5,-76.5 187.5,-95.5 327.5,-95.5 327.5,-76.5 187.5,-76.5"/>
<text text-anchor="middle" x="257.5" y="-83.5" font-family="Helvetica,sans-Serif" font-size="10.00">nars.entity.TermLink.setKey</text>
</a>
</g>
</g>
<!-- Node7&#45;&gt;Node12 -->
<g id="edge6" class="edge"><title>Node7&#45;&gt;Node12</title>
<path fill="none" stroke="midnightblue" d="M114.774,-120.453C141.932,-113.851 178.266,-105.018 207.346,-97.949"/>
<polygon fill="midnightblue" stroke="midnightblue" points="208.412,-101.292 217.302,-95.5287 206.759,-94.49 208.412,-101.292"/>
</g>
<!-- Node14 -->
<g id="node8" class="node"><title>Node14</title>
<g id="a_node8"><a xlink:href="../../d0/d53/a00232.html#a0660f7b949881a67b88f428cc15d3caf" target="_top" xlink:title="The type of link, one of the above. ">
<polygon fill="none" stroke="black" points="185,-38.5 185,-57.5 330,-57.5 330,-38.5 185,-38.5"/>
<text text-anchor="middle" x="257.5" y="-45.5" font-family="Helvetica,sans-Serif" font-size="10.00">nars.entity.TermLink.setTerm</text>
</a>
</g>
</g>
<!-- Node7&#45;&gt;Node14 -->
<g id="edge8" class="edge"><title>Node7&#45;&gt;Node14</title>
<path fill="none" stroke="midnightblue" d="M89.4085,-120.39C109.63,-106.8 148.703,-81.9588 185,-67 190.845,-64.5913 197.085,-62.4064 203.353,-60.4484"/>
<polygon fill="midnightblue" stroke="midnightblue" points="204.566,-63.7397 213.171,-57.5587 202.59,-57.0244 204.566,-63.7397"/>
</g>
<!-- Node15 -->
<g id="node9" class="node"><title>Node15</title>
<g id="a_node9"><a xlink:href="../../d0/d53/a00232.html#a38c105501a79e2f5f3036e7a8700607b" target="_top" xlink:title="nars.entity.TermLink.setType">
<polygon fill="none" stroke="black" points="185.5,-0.5 185.5,-19.5 329.5,-19.5 329.5,-0.5 185.5,-0.5"/>
<text text-anchor="middle" x="257.5" y="-7.5" font-family="Helvetica,sans-Serif" font-size="10.00">nars.entity.TermLink.setType</text>
</a>
</g>
</g>
<!-- Node7&#45;&gt;Node15 -->
<g id="edge9" class="edge"><title>Node7&#45;&gt;Node15</title>
<path fill="none" stroke="midnightblue" d="M83.1522,-120.288C99.574,-100.118 140.347,-53.5328 185,-29 189.144,-26.7233 193.575,-24.7085 198.124,-22.9273"/>
<polygon fill="midnightblue" stroke="midnightblue" points="199.31,-26.2202 207.574,-19.5903 196.979,-19.6196 199.31,-26.2202"/>
</g>
<!-- Node8&#45;&gt;Node9 -->
<g id="edge2" class="edge"><title>Node8&#45;&gt;Node9</title>
<path fill="none" stroke="midnightblue" d="M324.574,-254.006C334.725,-252.932 345.312,-251.811 355.761,-250.705"/>
<polygon fill="midnightblue" stroke="midnightblue" points="356.143,-254.184 365.719,-249.651 355.406,-247.223 356.143,-254.184"/>
</g>
<!-- Node13 -->
<g id="node7" class="node"><title>Node13</title>
<g id="a_node7"><a xlink:href="../../dc/d31/a00208.html#ab5c9fbb171f325844966b496010acf60" target="_top" xlink:title="The key of the Item, unique in a Bag. ">
<polygon fill="none" stroke="black" points="379.5,-76.5 379.5,-95.5 498.5,-95.5 498.5,-76.5 379.5,-76.5"/>
<text text-anchor="middle" x="439" y="-83.5" font-family="Helvetica,sans-Serif" font-size="10.00">nars.entity.Item.getKey</text>
</a>
</g>
</g>
<!-- Node12&#45;&gt;Node13 -->
<g id="edge7" class="edge"><title>Node12&#45;&gt;Node13</title>
<path fill="none" stroke="midnightblue" d="M327.643,-86C341.258,-86 355.542,-86 369.147,-86"/>
<polygon fill="midnightblue" stroke="midnightblue" points="369.397,-89.5001 379.397,-86 369.397,-82.5001 369.397,-89.5001"/>
</g>
</g>
</svg>
