<?xml version="1.0" encoding="UTF-8" standalone="no"?>
<!DOCTYPE svg PUBLIC "-//W3C//DTD SVG 1.1//EN"
 "http://www.w3.org/Graphics/SVG/1.1/DTD/svg11.dtd">
<!-- Generated by graphviz version 2.38.0 (20140413.2041)
 -->
<!-- Title: nars.entity.TermLink.getTerm Pages: 1 -->
<svg width="1984pt" height="66pt"
 viewBox="0.00 0.00 1984.00 66.00" xmlns="http://www.w3.org/2000/svg" xmlns:xlink="http://www.w3.org/1999/xlink">
<g id="graph0" class="graph" transform="scale(1 1) rotate(0) translate(4 62)">
<title>nars.entity.TermLink.getTerm</title>
<!-- Node37 -->
<g id="node1" class="node"><title>Node37</title>
<polygon fill="#bfbfbf" stroke="black" points="0,-19.5 0,-38.5 145,-38.5 145,-19.5 0,-19.5"/>
<text text-anchor="middle" x="72.5" y="-26.5" font-family="Helvetica,sans-Serif" font-size="10.00">nars.entity.TermLink.getTerm</text>
</g>
<!-- Node38 -->
<g id="node2" class="node"><title>Node38</title>
<g id="a_node2"><a xlink:href="../../de/dc2/a00228.html#afea026df0afd74986f940d10a7875a2f" target="_top" xlink:title="To check whether a TaskLink should use a TermLink, return false if they interacted recently...">
<polygon fill="none" stroke="black" points="181,-38.5 181,-57.5 312,-57.5 312,-38.5 181,-38.5"/>
<text text-anchor="middle" x="246.5" y="-45.5" font-family="Helvetica,sans-Serif" font-size="10.00">nars.entity.TaskLink.novel</text>
</a>
</g>
</g>
<!-- Node37&#45;&gt;Node38 -->
<g id="edge1" class="edge"><title>Node37&#45;&gt;Node38</title>
<path fill="none" stroke="midnightblue" d="M155.454,-38.0531C164.018,-38.999 172.634,-39.9509 180.964,-40.871"/>
<polygon fill="midnightblue" stroke="midnightblue" points="155.771,-34.5668 145.447,-36.9476 155.002,-41.5245 155.771,-34.5668"/>
</g>
<!-- Node48 -->
<g id="node12" class="node"><title>Node48</title>
<g id="a_node12"><a xlink:href="../../dc/ded/a00252.html#ac2d01dfdc40bdd47c757cb549217e6e3" target="_top" xlink:title="Entry point of the inference engine. ">
<polygon fill="none" stroke="black" points="351,-0.5 351,-19.5 514,-19.5 514,-0.5 351,-0.5"/>
<text text-anchor="middle" x="432.5" y="-7.5" font-family="Helvetica,sans-Serif" font-size="10.00">nars.inference.RuleTables.reason</text>
</a>
</g>
</g>
<!-- Node37&#45;&gt;Node48 -->
<g id="edge11" class="edge"><title>Node37&#45;&gt;Node48</title>
<path fill="none" stroke="midnightblue" d="M155.426,-24.652C214.076,-21.5392 292.66,-17.3686 350.986,-14.2731"/>
<polygon fill="midnightblue" stroke="midnightblue" points="154.887,-21.1756 145.086,-25.2007 155.258,-28.1657 154.887,-21.1756"/>
</g>
<!-- Node39 -->
<g id="node3" class="node"><title>Node39</title>
<g id="a_node3"><a xlink:href="../../d4/dd3/a00428.html#a2f98120a5db1a3c065d3dc5712562d71" target="_top" xlink:title="Replace default to prevent repeated inference, by checking TaskLink. ">
<polygon fill="none" stroke="black" points="348,-38.5 348,-57.5 517,-57.5 517,-38.5 348,-38.5"/>
<text text-anchor="middle" x="432.5" y="-45.5" font-family="Helvetica,sans-Serif" font-size="10.00">nars.storage.TermLinkBag.takeOut</text>
</a>
</g>
</g>
<!-- Node38&#45;&gt;Node39 -->
<g id="edge2" class="edge"><title>Node38&#45;&gt;Node39</title>
<path fill="none" stroke="midnightblue" d="M322.31,-48C330.768,-48 339.428,-48 347.988,-48"/>
<polygon fill="midnightblue" stroke="midnightblue" points="322.113,-44.5001 312.113,-48 322.113,-51.5001 322.113,-44.5001"/>
</g>
<!-- Node40 -->
<g id="node4" class="node"><title>Node40</title>
<g id="a_node4"><a xlink:href="../../d7/ded/a00196.html#ad6fb91dda799c3092ecb186ef24ca92a" target="_top" xlink:title="An atomic step in a concept, only called in Memory# processConcept. ">
<polygon fill="none" stroke="black" points="553,-14 553,-44 672,-44 672,-14 553,-14"/>
<text text-anchor="start" x="561" y="-32" font-family="Helvetica,sans-Serif" font-size="10.00">nars.entity.Concept.fire</text>
<text text-anchor="middle" x="612.5" y="-21" font-family="Helvetica,sans-Serif" font-size="10.00">FromProcessConcept</text>
</a>
</g>
</g>
<!-- Node39&#45;&gt;Node40 -->
<g id="edge3" class="edge"><title>Node39&#45;&gt;Node40</title>
<path fill="none" stroke="midnightblue" d="M527.252,-37.9927C535.955,-37.0638 544.598,-36.1412 552.845,-35.2609"/>
<polygon fill="midnightblue" stroke="midnightblue" points="526.599,-34.5424 517.027,-39.0841 527.343,-41.5029 526.599,-34.5424"/>
</g>
<!-- Node41 -->
<g id="node5" class="node"><title>Node41</title>
<g id="a_node5"><a xlink:href="../../d4/d27/a00392.html#a0acc4adbf6a2462245da46bcb529746c" target="_top" xlink:title="Select a concept to fireFromProcessConcept. ">
<polygon fill="none" stroke="black" points="708,-14 708,-44 854,-44 854,-14 708,-14"/>
<text text-anchor="start" x="716" y="-32" font-family="Helvetica,sans-Serif" font-size="10.00">nars.storage.Memory.process</text>
<text text-anchor="middle" x="781" y="-21" font-family="Helvetica,sans-Serif" font-size="10.00">Concept</text>
</a>
</g>
</g>
<!-- Node40&#45;&gt;Node41 -->
<g id="edge4" class="edge"><title>Node40&#45;&gt;Node41</title>
<path fill="none" stroke="midnightblue" d="M682.337,-29C690.748,-29 699.361,-29 707.819,-29"/>
<polygon fill="midnightblue" stroke="midnightblue" points="682.202,-25.5001 672.202,-29 682.202,-32.5001 682.202,-25.5001"/>
</g>
<!-- Node42 -->
<g id="node6" class="node"><title>Node42</title>
<g id="a_node6"><a xlink:href="../../d4/d27/a00392.html#a59ae339d666409988d90d29be4f73a91" target="_top" xlink:title="An atomic working workCycle of the system: process new Tasks, then fireFromProcessConcept a concept...">
<polygon fill="none" stroke="black" points="890,-14 890,-44 1023,-44 1023,-14 890,-14"/>
<text text-anchor="start" x="898" y="-32" font-family="Helvetica,sans-Serif" font-size="10.00">nars.storage.Memory.work</text>
<text text-anchor="middle" x="956.5" y="-21" font-family="Helvetica,sans-Serif" font-size="10.00">Cycle</text>
</a>
</g>
</g>
<!-- Node41&#45;&gt;Node42 -->
<g id="edge5" class="edge"><title>Node41&#45;&gt;Node42</title>
<path fill="none" stroke="midnightblue" d="M864.118,-29C872.716,-29 881.375,-29 889.755,-29"/>
<polygon fill="midnightblue" stroke="midnightblue" points="864.072,-25.5001 854.072,-29 864.072,-32.5001 864.072,-25.5001"/>
</g>
<!-- Node43 -->
<g id="node7" class="node"><title>Node43</title>
<g id="a_node7"><a xlink:href="../../df/d15/a00416.html#a0d5c797dc17d9e8d0998852915e0f303" target="_top" xlink:title="nars.storage.ReasonerBatch.doTick">
<polygon fill="none" stroke="black" points="1059,-19.5 1059,-38.5 1232,-38.5 1232,-19.5 1059,-19.5"/>
<text text-anchor="middle" x="1145.5" y="-26.5" font-family="Helvetica,sans-Serif" font-size="10.00">nars.storage.ReasonerBatch.doTick</text>
</a>
</g>
</g>
<!-- Node42&#45;&gt;Node43 -->
<g id="edge6" class="edge"><title>Node42&#45;&gt;Node43</title>
<path fill="none" stroke="midnightblue" d="M1033.34,-29C1041.78,-29 1050.42,-29 1058.97,-29"/>
<polygon fill="midnightblue" stroke="midnightblue" points="1033.17,-25.5001 1023.17,-29 1033.17,-32.5001 1033.17,-25.5001"/>
</g>
<!-- Node44 -->
<g id="node8" class="node"><title>Node44</title>
<g id="a_node8"><a xlink:href="../../df/d15/a00416.html#a3468aa0f99edcd66412f27922dddb880" target="_top" xlink:title="A clock tick. ">
<polygon fill="none" stroke="black" points="1268,-19.5 1268,-38.5 1428,-38.5 1428,-19.5 1268,-19.5"/>
<text text-anchor="middle" x="1348" y="-26.5" font-family="Helvetica,sans-Serif" font-size="10.00">nars.storage.ReasonerBatch.tick</text>
</a>
</g>
</g>
<!-- Node43&#45;&gt;Node44 -->
<g id="edge7" class="edge"><title>Node43&#45;&gt;Node44</title>
<path fill="none" stroke="midnightblue" d="M1242.13,-29C1250.7,-29 1259.31,-29 1267.71,-29"/>
<polygon fill="midnightblue" stroke="midnightblue" points="1242.11,-25.5001 1232.11,-29 1242.11,-32.5001 1242.11,-25.5001"/>
</g>
<!-- Node45 -->
<g id="node9" class="node"><title>Node45</title>
<g id="a_node9"><a xlink:href="../../d9/da1/a00396.html#a5d9cfe517bcfbe41e5251910bcd119c1" target="_top" xlink:title="Run to completion: repeatedly execute NARS working cycle, until Inputs are Finished, or 1000 steps. ">
<polygon fill="none" stroke="black" points="1464,-19.5 1464,-38.5 1608,-38.5 1608,-19.5 1464,-19.5"/>
<text text-anchor="middle" x="1536" y="-26.5" font-family="Helvetica,sans-Serif" font-size="10.00">nars.storage.NARSBatch.run</text>
</a>
</g>
</g>
<!-- Node44&#45;&gt;Node45 -->
<g id="edge8" class="edge"><title>Node44&#45;&gt;Node45</title>
<path fill="none" stroke="midnightblue" d="M1438.22,-29C1446.82,-29 1455.47,-29 1463.87,-29"/>
<polygon fill="midnightblue" stroke="midnightblue" points="1438.15,-25.5001 1428.15,-29 1438.15,-32.5001 1438.15,-25.5001"/>
</g>
<!-- Node46 -->
<g id="node10" class="node"><title>Node46</title>
<g id="a_node10"><a xlink:href="../../d9/da1/a00396.html#a7c307c6b842f82664de6b0e52bdf8efc" target="_top" xlink:title="non&#45;static equivalent to main(String[]) : run to completion from an input file ">
<polygon fill="none" stroke="black" points="1644,-14 1644,-44 1788,-44 1788,-14 1644,-14"/>
<text text-anchor="start" x="1652" y="-32" font-family="Helvetica,sans-Serif" font-size="10.00">nars.storage.NARSBatch.run</text>
<text text-anchor="middle" x="1716" y="-21" font-family="Helvetica,sans-Serif" font-size="10.00">Inference</text>
</a>
</g>
</g>
<!-- Node45&#45;&gt;Node46 -->
<g id="edge9" class="edge"><title>Node45&#45;&gt;Node46</title>
<path fill="none" stroke="midnightblue" d="M1618.17,-29C1626.79,-29 1635.51,-29 1644,-29"/>
<polygon fill="midnightblue" stroke="midnightblue" points="1618.12,-25.5001 1608.12,-29 1618.12,-32.5001 1618.12,-25.5001"/>
</g>
<!-- Node47 -->
<g id="node11" class="node"><title>Node47</title>
<g id="a_node11"><a xlink:href="../../d9/da1/a00396.html#abafc597289bc2f6453b5cd0dd6634e54" target="_top" xlink:title="The entry point of the standalone application. ">
<polygon fill="none" stroke="black" points="1824,-19.5 1824,-38.5 1976,-38.5 1976,-19.5 1824,-19.5"/>
<text text-anchor="middle" x="1900" y="-26.5" font-family="Helvetica,sans-Serif" font-size="10.00">nars.storage.NARSBatch.main</text>
</a>
</g>
</g>
<!-- Node46&#45;&gt;Node47 -->
<g id="edge10" class="edge"><title>Node46&#45;&gt;Node47</title>
<path fill="none" stroke="midnightblue" d="M1798.17,-29C1806.76,-29 1815.48,-29 1824,-29"/>
<polygon fill="midnightblue" stroke="midnightblue" points="1798.15,-25.5001 1788.15,-29 1798.15,-32.5001 1798.15,-25.5001"/>
</g>
<!-- Node48&#45;&gt;Node40 -->
<g id="edge12" class="edge"><title>Node48&#45;&gt;Node40</title>
<path fill="none" stroke="midnightblue" d="M524.298,-19.692C534.029,-20.7306 543.731,-21.7662 552.939,-22.7491"/>
<polygon fill="midnightblue" stroke="midnightblue" points="524.482,-16.1918 514.167,-18.6105 523.739,-23.1522 524.482,-16.1918"/>
</g>
</g>
</svg>
