<?xml version="1.0" encoding="UTF-8" standalone="no"?>
<!DOCTYPE svg PUBLIC "-//W3C//DTD SVG 1.1//EN"
 "http://www.w3.org/Graphics/SVG/1.1/DTD/svg11.dtd">
<!-- Generated by graphviz version 2.38.0 (20140413.2041)
 -->
<!-- Title: nars.inference.StructuralRules.structuralStatement Pages: 1 -->
<!--zoomable 88 -->
<svg id="main" version="1.1" xmlns="http://www.w3.org/2000/svg" xmlns:xlink="http://www.w3.org/1999/xlink" xml:space="preserve" onload="init(evt)">
<style type="text/css"><![CDATA[
.edge:hover path { stroke: red; }
.edge:hover polygon { stroke: red; fill: red; }
]]></style>
<script type="text/javascript"><![CDATA[
var edges = document.getElementsByTagName('g');
if (edges && edges.length) {
  for (var i=0;i<edges.length;i++) {
    if (edges[i].id.substr(0,4)=='edge') {
      edges[i].setAttribute('class','edge');
    }
  }
}
]]></script>
        <defs>
                <circle id="rim" cx="0" cy="0" r="7"/>
                <circle id="rim2" cx="0" cy="0" r="3.5"/>
                <g id="zoomPlus">
                        <use xlink:href="#rim" fill="#404040">
                                <set attributeName="fill" to="#808080" begin="zoomplus.mouseover" end="zoomplus.mouseout"/>
                        </use>
                        <path d="M-4,0h8M0,-4v8" fill="none" stroke="white" stroke-width="1.5" pointer-events="none"/>
                </g>
                <g id="zoomMin">
                        <use xlink:href="#rim" fill="#404040">
                                <set attributeName="fill" to="#808080" begin="zoomminus.mouseover" end="zoomminus.mouseout"/>
                        </use>
                        <path d="M-4,0h8" fill="none" stroke="white" stroke-width="1.5" pointer-events="none"/>
                </g>
                <g id="dirArrow">
                        <path fill="none" stroke="white" stroke-width="1.5" d="M0,-3.0v7 M-2.5,-0.5L0,-3.0L2.5,-0.5"/>
                </g>
               <g id="resetDef">
                       <use xlink:href="#rim2" fill="#404040">
                               <set attributeName="fill" to="#808080" begin="reset.mouseover" end="reset.mouseout"/>
                       </use>
               </g>
        </defs>

<script type="text/javascript">
var viewWidth = 2194;
var viewHeight = 88;
var sectionId = 'dynsection-11';
</script>
<script xlink:href="../../svgpan.js"/>
<svg id="graph" class="graph">
<g id="viewport">
<title>nars.inference.StructuralRules.structuralStatement</title>
<!-- Node301 -->
<g id="node1" class="node"><title>Node301</title>
<polygon fill="#bfbfbf" stroke="black" points="0,-24.5 0,-54.5 131,-54.5 131,-24.5 0,-24.5"/>
<text text-anchor="start" x="8" y="-42.5" font-family="Helvetica,sans-Serif" font-size="10.00">nars.inference.Structural</text>
<text text-anchor="middle" x="65.5" y="-31.5" font-family="Helvetica,sans-Serif" font-size="10.00">Rules.structuralStatement</text>
</g>
<!-- Node302 -->
<g id="node2" class="node"><title>Node302</title>
<g id="a_node2"><a xlink:href="../../d0/def/a00256.html#a406d19539e5938cf190f153430f96b9b" target="_top" xlink:title="{&lt;S &#45;&#45;&gt; P&gt;, P@(P&amp;Q)} |&#45; &lt;S &#45;&#45;&gt; (P&amp;Q)&gt; ">
<polygon fill="none" stroke="black" points="172,-49.5 172,-79.5 305,-79.5 305,-49.5 172,-49.5"/>
<text text-anchor="start" x="180" y="-67.5" font-family="Helvetica,sans-Serif" font-size="10.00">nars.inference.Structural</text>
<text text-anchor="middle" x="238.5" y="-56.5" font-family="Helvetica,sans-Serif" font-size="10.00">Rules.structuralCompose1</text>
</a>
</g>
</g>
<!-- Node301&#45;&gt;Node302 -->
<g id="edge1" class="edge"><title>Node301&#45;&gt;Node302</title>
<path fill="none" stroke="midnightblue" d="M141.263,-50.4302C151.469,-51.9223 161.882,-53.4447 171.908,-54.9106"/>
<polygon fill="midnightblue" stroke="midnightblue" points="141.549,-46.9349 131.148,-48.9514 140.536,-53.8613 141.549,-46.9349"/>
</g>
<!-- Node313 -->
<g id="node13" class="node"><title>Node313</title>
<g id="a_node13"><a xlink:href="../../d0/def/a00256.html#a9acdf1ff41d9de191e132c7cbe1e04fc" target="_top" xlink:title="{&lt;(S&amp;T) &#45;&#45;&gt; P&gt;, S@(S&amp;T)} |&#45; &lt;S &#45;&#45;&gt; P&gt; ">
<polygon fill="none" stroke="black" points="167,-0.5 167,-30.5 310,-30.5 310,-0.5 167,-0.5"/>
<text text-anchor="start" x="175" y="-18.5" font-family="Helvetica,sans-Serif" font-size="10.00">nars.inference.Structural</text>
<text text-anchor="middle" x="238.5" y="-7.5" font-family="Helvetica,sans-Serif" font-size="10.00">Rules.structuralDecompose1</text>
</a>
</g>
</g>
<!-- Node301&#45;&gt;Node313 -->
<g id="edge12" class="edge"><title>Node301&#45;&gt;Node313</title>
<path fill="none" stroke="midnightblue" d="M141.073,-29.0337C149.603,-27.8365 158.28,-26.6186 166.758,-25.4287"/>
<polygon fill="midnightblue" stroke="midnightblue" points="140.564,-25.5706 131.148,-30.4266 141.537,-32.5027 140.564,-25.5706"/>
</g>
<!-- Node303 -->
<g id="node3" class="node"><title>Node303</title>
<g id="a_node3"><a xlink:href="../../dc/ded/a00252.html#a54a7ceba4f123db5035e3b85063c91f1" target="_top" xlink:title="Inference between a compound term and a statement. ">
<polygon fill="none" stroke="black" points="347.5,-49.5 347.5,-79.5 526.5,-79.5 526.5,-49.5 347.5,-49.5"/>
<text text-anchor="start" x="355.5" y="-67.5" font-family="Helvetica,sans-Serif" font-size="10.00">nars.inference.RuleTables.compound</text>
<text text-anchor="middle" x="437" y="-56.5" font-family="Helvetica,sans-Serif" font-size="10.00">AndStatement</text>
</a>
</g>
</g>
<!-- Node302&#45;&gt;Node303 -->
<g id="edge2" class="edge"><title>Node302&#45;&gt;Node303</title>
<path fill="none" stroke="midnightblue" d="M315.485,-64.5C325.9,-64.5 336.668,-64.5 347.287,-64.5"/>
<polygon fill="midnightblue" stroke="midnightblue" points="315.205,-61.0001 305.205,-64.5 315.205,-68.0001 315.205,-61.0001"/>
</g>
<!-- Node304 -->
<g id="node4" class="node"><title>Node304</title>
<g id="a_node4"><a xlink:href="../../dc/ded/a00252.html#ac2d01dfdc40bdd47c757cb549217e6e3" target="_top" xlink:title="Entry point of the inference engine. ">
<polygon fill="none" stroke="black" points="564,-30 564,-49 727,-49 727,-30 564,-30"/>
<text text-anchor="middle" x="645.5" y="-37" font-family="Helvetica,sans-Serif" font-size="10.00">nars.inference.RuleTables.reason</text>
</a>
</g>
</g>
<!-- Node303&#45;&gt;Node304 -->
<g id="edge3" class="edge"><title>Node303&#45;&gt;Node304</title>
<path fill="none" stroke="midnightblue" d="M536.882,-52.5288C546.614,-51.3506 556.399,-50.166 565.888,-49.0172"/>
<polygon fill="midnightblue" stroke="midnightblue" points="536.28,-49.0761 526.773,-53.7527 537.121,-56.0253 536.28,-49.0761"/>
</g>
<!-- Node305 -->
<g id="node5" class="node"><title>Node305</title>
<g id="a_node5"><a xlink:href="../../d7/ded/a00196.html#ad6fb91dda799c3092ecb186ef24ca92a" target="_top" xlink:title="An atomic step in a concept, only called in Memory# processConcept. ">
<polygon fill="none" stroke="black" points="763,-24.5 763,-54.5 882,-54.5 882,-24.5 763,-24.5"/>
<text text-anchor="start" x="771" y="-42.5" font-family="Helvetica,sans-Serif" font-size="10.00">nars.entity.Concept.fire</text>
<text text-anchor="middle" x="822.5" y="-31.5" font-family="Helvetica,sans-Serif" font-size="10.00">FromProcessConcept</text>
</a>
</g>
</g>
<!-- Node304&#45;&gt;Node305 -->
<g id="edge4" class="edge"><title>Node304&#45;&gt;Node305</title>
<path fill="none" stroke="midnightblue" d="M737.249,-39.5C745.907,-39.5 754.523,-39.5 762.757,-39.5"/>
<polygon fill="midnightblue" stroke="midnightblue" points="737.085,-36.0001 727.085,-39.5 737.085,-43.0001 737.085,-36.0001"/>
</g>
<!-- Node306 -->
<g id="node6" class="node"><title>Node306</title>
<g id="a_node6"><a xlink:href="../../d4/d27/a00392.html#a0acc4adbf6a2462245da46bcb529746c" target="_top" xlink:title="Select a concept to fireFromProcessConcept. ">
<polygon fill="none" stroke="black" points="918,-24.5 918,-54.5 1064,-54.5 1064,-24.5 918,-24.5"/>
<text text-anchor="start" x="926" y="-42.5" font-family="Helvetica,sans-Serif" font-size="10.00">nars.storage.Memory.process</text>
<text text-anchor="middle" x="991" y="-31.5" font-family="Helvetica,sans-Serif" font-size="10.00">Concept</text>
</a>
</g>
</g>
<!-- Node305&#45;&gt;Node306 -->
<g id="edge5" class="edge"><title>Node305&#45;&gt;Node306</title>
<path fill="none" stroke="midnightblue" d="M892.337,-39.5C900.748,-39.5 909.361,-39.5 917.819,-39.5"/>
<polygon fill="midnightblue" stroke="midnightblue" points="892.202,-36.0001 882.202,-39.5 892.202,-43.0001 892.202,-36.0001"/>
</g>
<!-- Node307 -->
<g id="node7" class="node"><title>Node307</title>
<g id="a_node7"><a xlink:href="../../d4/d27/a00392.html#a59ae339d666409988d90d29be4f73a91" target="_top" xlink:title="An atomic working workCycle of the system: process new Tasks, then fireFromProcessConcept a concept...">
<polygon fill="none" stroke="black" points="1100,-24.5 1100,-54.5 1233,-54.5 1233,-24.5 1100,-24.5"/>
<text text-anchor="start" x="1108" y="-42.5" font-family="Helvetica,sans-Serif" font-size="10.00">nars.storage.Memory.work</text>
<text text-anchor="middle" x="1166.5" y="-31.5" font-family="Helvetica,sans-Serif" font-size="10.00">Cycle</text>
</a>
</g>
</g>
<!-- Node306&#45;&gt;Node307 -->
<g id="edge6" class="edge"><title>Node306&#45;&gt;Node307</title>
<path fill="none" stroke="midnightblue" d="M1074.12,-39.5C1082.72,-39.5 1091.37,-39.5 1099.76,-39.5"/>
<polygon fill="midnightblue" stroke="midnightblue" points="1074.07,-36.0001 1064.07,-39.5 1074.07,-43.0001 1074.07,-36.0001"/>
</g>
<!-- Node308 -->
<g id="node8" class="node"><title>Node308</title>
<g id="a_node8"><a xlink:href="../../df/d15/a00416.html#a0d5c797dc17d9e8d0998852915e0f303" target="_top" xlink:title="nars.storage.ReasonerBatch.doTick">
<polygon fill="none" stroke="black" points="1269,-30 1269,-49 1442,-49 1442,-30 1269,-30"/>
<text text-anchor="middle" x="1355.5" y="-37" font-family="Helvetica,sans-Serif" font-size="10.00">nars.storage.ReasonerBatch.doTick</text>
</a>
</g>
</g>
<!-- Node307&#45;&gt;Node308 -->
<g id="edge7" class="edge"><title>Node307&#45;&gt;Node308</title>
<path fill="none" stroke="midnightblue" d="M1243.34,-39.5C1251.78,-39.5 1260.42,-39.5 1268.97,-39.5"/>
<polygon fill="midnightblue" stroke="midnightblue" points="1243.17,-36.0001 1233.17,-39.5 1243.17,-43.0001 1243.17,-36.0001"/>
</g>
<!-- Node309 -->
<g id="node9" class="node"><title>Node309</title>
<g id="a_node9"><a xlink:href="../../df/d15/a00416.html#a3468aa0f99edcd66412f27922dddb880" target="_top" xlink:title="A clock tick. ">
<polygon fill="none" stroke="black" points="1478,-30 1478,-49 1638,-49 1638,-30 1478,-30"/>
<text text-anchor="middle" x="1558" y="-37" font-family="Helvetica,sans-Serif" font-size="10.00">nars.storage.ReasonerBatch.tick</text>
</a>
</g>
</g>
<!-- Node308&#45;&gt;Node309 -->
<g id="edge8" class="edge"><title>Node308&#45;&gt;Node309</title>
<path fill="none" stroke="midnightblue" d="M1452.13,-39.5C1460.7,-39.5 1469.31,-39.5 1477.71,-39.5"/>
<polygon fill="midnightblue" stroke="midnightblue" points="1452.11,-36.0001 1442.11,-39.5 1452.11,-43.0001 1452.11,-36.0001"/>
</g>
<!-- Node310 -->
<g id="node10" class="node"><title>Node310</title>
<g id="a_node10"><a xlink:href="../../d9/da1/a00396.html#a5d9cfe517bcfbe41e5251910bcd119c1" target="_top" xlink:title="Run to completion: repeatedly execute NARS working cycle, until Inputs are Finished, or 1000 steps. ">
<polygon fill="none" stroke="black" points="1674,-30 1674,-49 1818,-49 1818,-30 1674,-30"/>
<text text-anchor="middle" x="1746" y="-37" font-family="Helvetica,sans-Serif" font-size="10.00">nars.storage.NARSBatch.run</text>
</a>
</g>
</g>
<!-- Node309&#45;&gt;Node310 -->
<g id="edge9" class="edge"><title>Node309&#45;&gt;Node310</title>
<path fill="none" stroke="midnightblue" d="M1648.22,-39.5C1656.82,-39.5 1665.47,-39.5 1673.87,-39.5"/>
<polygon fill="midnightblue" stroke="midnightblue" points="1648.15,-36.0001 1638.15,-39.5 1648.15,-43.0001 1648.15,-36.0001"/>
</g>
<!-- Node311 -->
<g id="node11" class="node"><title>Node311</title>
<g id="a_node11"><a xlink:href="../../d9/da1/a00396.html#a7c307c6b842f82664de6b0e52bdf8efc" target="_top" xlink:title="non&#45;static equivalent to main(String[]) : run to completion from an input file ">
<polygon fill="none" stroke="black" points="1854,-24.5 1854,-54.5 1998,-54.5 1998,-24.5 1854,-24.5"/>
<text text-anchor="start" x="1862" y="-42.5" font-family="Helvetica,sans-Serif" font-size="10.00">nars.storage.NARSBatch.run</text>
<text text-anchor="middle" x="1926" y="-31.5" font-family="Helvetica,sans-Serif" font-size="10.00">Inference</text>
</a>
</g>
</g>
<!-- Node310&#45;&gt;Node311 -->
<g id="edge10" class="edge"><title>Node310&#45;&gt;Node311</title>
<path fill="none" stroke="midnightblue" d="M1828.17,-39.5C1836.79,-39.5 1845.51,-39.5 1854,-39.5"/>
<polygon fill="midnightblue" stroke="midnightblue" points="1828.12,-36.0001 1818.12,-39.5 1828.12,-43.0001 1828.12,-36.0001"/>
</g>
<!-- Node312 -->
<g id="node12" class="node"><title>Node312</title>
<g id="a_node12"><a xlink:href="../../d9/da1/a00396.html#abafc597289bc2f6453b5cd0dd6634e54" target="_top" xlink:title="The entry point of the standalone application. ">
<polygon fill="none" stroke="black" points="2034,-30 2034,-49 2186,-49 2186,-30 2034,-30"/>
<text text-anchor="middle" x="2110" y="-37" font-family="Helvetica,sans-Serif" font-size="10.00">nars.storage.NARSBatch.main</text>
</a>
</g>
</g>
<!-- Node311&#45;&gt;Node312 -->
<g id="edge11" class="edge"><title>Node311&#45;&gt;Node312</title>
<path fill="none" stroke="midnightblue" d="M2008.17,-39.5C2016.76,-39.5 2025.48,-39.5 2034,-39.5"/>
<polygon fill="midnightblue" stroke="midnightblue" points="2008.15,-36.0001 1998.15,-39.5 2008.15,-43.0001 2008.15,-36.0001"/>
</g>
<!-- Node314 -->
<g id="node14" class="node"><title>Node314</title>
<g id="a_node14"><a xlink:href="../../dc/ded/a00252.html#a08680eb3f85b0a37b7bd969de8b25904" target="_top" xlink:title="Inference between a component term (of the current term) and a statement. ">
<polygon fill="none" stroke="black" points="346,-0.5 346,-30.5 528,-30.5 528,-0.5 346,-0.5"/>
<text text-anchor="start" x="354" y="-18.5" font-family="Helvetica,sans-Serif" font-size="10.00">nars.inference.RuleTables.component</text>
<text text-anchor="middle" x="437" y="-7.5" font-family="Helvetica,sans-Serif" font-size="10.00">AndStatement</text>
</a>
</g>
</g>
<!-- Node313&#45;&gt;Node314 -->
<g id="edge13" class="edge"><title>Node313&#45;&gt;Node314</title>
<path fill="none" stroke="midnightblue" d="M320.304,-15.5C328.702,-15.5 337.277,-15.5 345.771,-15.5"/>
<polygon fill="midnightblue" stroke="midnightblue" points="320.163,-12.0001 310.163,-15.5 320.163,-19.0001 320.163,-12.0001"/>
</g>
<!-- Node314&#45;&gt;Node304 -->
<g id="edge14" class="edge"><title>Node314&#45;&gt;Node304</title>
<path fill="none" stroke="midnightblue" d="M538.295,-27.1566C546.855,-28.1514 555.442,-29.1494 563.82,-30.1232"/>
<polygon fill="midnightblue" stroke="midnightblue" points="538.611,-23.6698 528.274,-25.9918 537.803,-30.623 538.611,-23.6698"/>
</g>
</g>
</svg>
        <g id="navigator" transform="translate(0 0)" fill="#404254">
                <rect fill="#f2f5e9" fill-opacity="0.5" stroke="#606060" stroke-width=".5" x="0" y="0" width="60" height="60"/>
                <use id="zoomplus" xlink:href="#zoomPlus" x="17" y="9" onmousedown="handleZoom(evt,'in')"/>
                <use id="zoomminus" xlink:href="#zoomMin" x="42" y="9" onmousedown="handleZoom(evt,'out')"/>
                <use id="reset" xlink:href="#resetDef" x="30" y="36" onmousedown="handleReset()"/>
                <g id="arrowUp" xlink:href="#dirArrow" transform="translate(30 24)" onmousedown="handlePan(0,-1)">
                  <use xlink:href="#rim" fill="#404040">
                        <set attributeName="fill" to="#808080" begin="arrowUp.mouseover" end="arrowUp.mouseout"/>
                  </use>
                  <path fill="none" stroke="white" stroke-width="1.5" d="M0,-3.0v7 M-2.5,-0.5L0,-3.0L2.5,-0.5"/>
                </g>
                <g id="arrowRight" xlink:href="#dirArrow" transform="rotate(90) translate(36 -43)" onmousedown="handlePan(1,0)">
                  <use xlink:href="#rim" fill="#404040">
                        <set attributeName="fill" to="#808080" begin="arrowRight.mouseover" end="arrowRight.mouseout"/>
                  </use>
                  <path fill="none" stroke="white" stroke-width="1.5" d="M0,-3.0v7 M-2.5,-0.5L0,-3.0L2.5,-0.5"/>
                </g>
                <g id="arrowDown" xlink:href="#dirArrow" transform="rotate(180) translate(-30 -48)" onmousedown="handlePan(0,1)">
                  <use xlink:href="#rim" fill="#404040">
                        <set attributeName="fill" to="#808080" begin="arrowDown.mouseover" end="arrowDown.mouseout"/>
                  </use>
                  <path fill="none" stroke="white" stroke-width="1.5" d="M0,-3.0v7 M-2.5,-0.5L0,-3.0L2.5,-0.5"/>
                </g>
                <g id="arrowLeft" xlink:href="#dirArrow" transform="rotate(270) translate(-36 17)" onmousedown="handlePan(-1,0)">
                  <use xlink:href="#rim" fill="#404040">
                        <set attributeName="fill" to="#808080" begin="arrowLeft.mouseover" end="arrowLeft.mouseout"/>
                  </use>
                  <path fill="none" stroke="white" stroke-width="1.5" d="M0,-3.0v7 M-2.5,-0.5L0,-3.0L2.5,-0.5"/>
                </g>
        </g>
        <svg viewBox="0 0 15 15" width="100%" height="30px" preserveAspectRatio="xMaxYMin meet">
         <g id="arrow_out" transform="scale(0.3 0.3)">
          <a xlink:href="a00256_a85867ea2f5c08252344131858cf95bfd_icgraph_org.svg" target="_base">
           <rect id="button" ry="5" rx="5" y="6" x="6" height="38" width="38"
                fill="#f2f5e9" fill-opacity="0.5" stroke="#606060" stroke-width="1.0"/>
           <path id="arrow"
             d="M 11.500037,31.436501 C 11.940474,20.09759 22.043105,11.32322 32.158766,21.979434 L 37.068811,17.246167 C 37.068811,17.246167 37.088388,32 37.088388,32 L 22.160133,31.978069 C 22.160133,31.978069 26.997745,27.140456 26.997745,27.140456 C 18.528582,18.264221 13.291696,25.230495 11.500037,31.436501 z"
             style="fill:#404040;"/>
          </a>
         </g>
        </svg>
</svg>
