<?xml version="1.0" encoding="UTF-8" standalone="no"?>
<!DOCTYPE svg PUBLIC "-//W3C//DTD SVG 1.1//EN"
 "http://www.w3.org/Graphics/SVG/1.1/DTD/svg11.dtd">
<!-- Generated by graphviz version 2.38.0 (20140413.2041)
 -->
<!-- Title: nars.inference.StructuralRules.transformSubjectPI Pages: 1 -->
<svg width="2012pt" height="39pt"
 viewBox="0.00 0.00 2012.00 39.00" xmlns="http://www.w3.org/2000/svg" xmlns:xlink="http://www.w3.org/1999/xlink">
<g id="graph0" class="graph" transform="scale(1 1) rotate(0) translate(4 35)">
<title>nars.inference.StructuralRules.transformSubjectPI</title>
<!-- Node464 -->
<g id="node1" class="node"><title>Node464</title>
<polygon fill="#bfbfbf" stroke="black" points="0,-0.5 0,-30.5 129,-30.5 129,-0.5 0,-0.5"/>
<text text-anchor="start" x="8" y="-18.5" font-family="Helvetica,sans-Serif" font-size="10.00">nars.inference.Structural</text>
<text text-anchor="middle" x="64.5" y="-7.5" font-family="Helvetica,sans-Serif" font-size="10.00">Rules.transformSubjectPI</text>
</g>
<!-- Node465 -->
<g id="node2" class="node"><title>Node465</title>
<g id="a_node2"><a xlink:href="../../d0/def/a00256.html#ab621fd6a291394ad962761cd0ae1ff08" target="_top" xlink:title="Equivalent transformation between products and images {&lt;(*, S, M) &#45;&#45;&gt; P&gt;, S@(*, S, M)} |&#45; &lt;S &#45;&#45;&gt; (/, P, _, M)&gt; {&lt;S &#45;&#45;&gt; (/, P, _, M)&gt;, P@(/, P, _, M)} |&#45; &lt;(*, S, M) &#45;&#45;&gt; P&gt; {&lt;S &#45;&#45;&gt; (/, P, _, M)&gt;, M@(/, P, _, M)} |&#45; &lt;M &#45;&#45;&gt; (/, P, S, _)&gt; ">
<polygon fill="none" stroke="black" points="165,-0.5 165,-30.5 312,-30.5 312,-0.5 165,-0.5"/>
<text text-anchor="start" x="173" y="-18.5" font-family="Helvetica,sans-Serif" font-size="10.00">nars.inference.Structural</text>
<text text-anchor="middle" x="238.5" y="-7.5" font-family="Helvetica,sans-Serif" font-size="10.00">Rules.transformProductImage</text>
</a>
</g>
</g>
<!-- Node464&#45;&gt;Node465 -->
<g id="edge1" class="edge"><title>Node464&#45;&gt;Node465</title>
<path fill="none" stroke="midnightblue" d="M139.308,-15.5C147.796,-15.5 156.445,-15.5 164.917,-15.5"/>
<polygon fill="midnightblue" stroke="midnightblue" points="139.058,-12.0001 129.058,-15.5 139.058,-19.0001 139.058,-12.0001"/>
</g>
<!-- Node466 -->
<g id="node3" class="node"><title>Node466</title>
<g id="a_node3"><a xlink:href="../../dc/ded/a00252.html#ab344d6ccee0f3671b57d092daeb65db4" target="_top" xlink:title="The TaskLink is of type TRANSFORM, and the conclusion is an equivalent transformation. ">
<polygon fill="none" stroke="black" points="348,-6 348,-25 545,-25 545,-6 348,-6"/>
<text text-anchor="middle" x="446.5" y="-13" font-family="Helvetica,sans-Serif" font-size="10.00">nars.inference.RuleTables.transformTask</text>
</a>
</g>
</g>
<!-- Node465&#45;&gt;Node466 -->
<g id="edge2" class="edge"><title>Node465&#45;&gt;Node466</title>
<path fill="none" stroke="midnightblue" d="M322.298,-15.5C330.726,-15.5 339.341,-15.5 347.906,-15.5"/>
<polygon fill="midnightblue" stroke="midnightblue" points="322.128,-12.0001 312.128,-15.5 322.128,-19.0001 322.128,-12.0001"/>
</g>
<!-- Node467 -->
<g id="node4" class="node"><title>Node467</title>
<g id="a_node4"><a xlink:href="../../d7/ded/a00196.html#ad6fb91dda799c3092ecb186ef24ca92a" target="_top" xlink:title="An atomic step in a concept, only called in Memory# processConcept. ">
<polygon fill="none" stroke="black" points="581,-0.5 581,-30.5 700,-30.5 700,-0.5 581,-0.5"/>
<text text-anchor="start" x="589" y="-18.5" font-family="Helvetica,sans-Serif" font-size="10.00">nars.entity.Concept.fire</text>
<text text-anchor="middle" x="640.5" y="-7.5" font-family="Helvetica,sans-Serif" font-size="10.00">FromProcessConcept</text>
</a>
</g>
</g>
<!-- Node466&#45;&gt;Node467 -->
<g id="edge3" class="edge"><title>Node466&#45;&gt;Node467</title>
<path fill="none" stroke="midnightblue" d="M555.194,-15.5C564.021,-15.5 572.714,-15.5 580.969,-15.5"/>
<polygon fill="midnightblue" stroke="midnightblue" points="555.187,-12.0001 545.187,-15.5 555.187,-19.0001 555.187,-12.0001"/>
</g>
<!-- Node468 -->
<g id="node5" class="node"><title>Node468</title>
<g id="a_node5"><a xlink:href="../../d4/d27/a00392.html#a0acc4adbf6a2462245da46bcb529746c" target="_top" xlink:title="Select a concept to fireFromProcessConcept. ">
<polygon fill="none" stroke="black" points="736,-0.5 736,-30.5 882,-30.5 882,-0.5 736,-0.5"/>
<text text-anchor="start" x="744" y="-18.5" font-family="Helvetica,sans-Serif" font-size="10.00">nars.storage.Memory.process</text>
<text text-anchor="middle" x="809" y="-7.5" font-family="Helvetica,sans-Serif" font-size="10.00">Concept</text>
</a>
</g>
</g>
<!-- Node467&#45;&gt;Node468 -->
<g id="edge4" class="edge"><title>Node467&#45;&gt;Node468</title>
<path fill="none" stroke="midnightblue" d="M710.337,-15.5C718.748,-15.5 727.361,-15.5 735.819,-15.5"/>
<polygon fill="midnightblue" stroke="midnightblue" points="710.202,-12.0001 700.202,-15.5 710.202,-19.0001 710.202,-12.0001"/>
</g>
<!-- Node469 -->
<g id="node6" class="node"><title>Node469</title>
<g id="a_node6"><a xlink:href="../../d4/d27/a00392.html#a59ae339d666409988d90d29be4f73a91" target="_top" xlink:title="An atomic working workCycle of the system: process new Tasks, then fireFromProcessConcept a concept...">
<polygon fill="none" stroke="black" points="918,-0.5 918,-30.5 1051,-30.5 1051,-0.5 918,-0.5"/>
<text text-anchor="start" x="926" y="-18.5" font-family="Helvetica,sans-Serif" font-size="10.00">nars.storage.Memory.work</text>
<text text-anchor="middle" x="984.5" y="-7.5" font-family="Helvetica,sans-Serif" font-size="10.00">Cycle</text>
</a>
</g>
</g>
<!-- Node468&#45;&gt;Node469 -->
<g id="edge5" class="edge"><title>Node468&#45;&gt;Node469</title>
<path fill="none" stroke="midnightblue" d="M892.118,-15.5C900.716,-15.5 909.375,-15.5 917.755,-15.5"/>
<polygon fill="midnightblue" stroke="midnightblue" points="892.072,-12.0001 882.072,-15.5 892.072,-19.0001 892.072,-12.0001"/>
</g>
<!-- Node470 -->
<g id="node7" class="node"><title>Node470</title>
<g id="a_node7"><a xlink:href="../../df/d15/a00416.html#a0d5c797dc17d9e8d0998852915e0f303" target="_top" xlink:title="nars.storage.ReasonerBatch.doTick">
<polygon fill="none" stroke="black" points="1087,-6 1087,-25 1260,-25 1260,-6 1087,-6"/>
<text text-anchor="middle" x="1173.5" y="-13" font-family="Helvetica,sans-Serif" font-size="10.00">nars.storage.ReasonerBatch.doTick</text>
</a>
</g>
</g>
<!-- Node469&#45;&gt;Node470 -->
<g id="edge6" class="edge"><title>Node469&#45;&gt;Node470</title>
<path fill="none" stroke="midnightblue" d="M1061.34,-15.5C1069.78,-15.5 1078.42,-15.5 1086.97,-15.5"/>
<polygon fill="midnightblue" stroke="midnightblue" points="1061.17,-12.0001 1051.17,-15.5 1061.17,-19.0001 1061.17,-12.0001"/>
</g>
<!-- Node471 -->
<g id="node8" class="node"><title>Node471</title>
<g id="a_node8"><a xlink:href="../../df/d15/a00416.html#a3468aa0f99edcd66412f27922dddb880" target="_top" xlink:title="A clock tick. ">
<polygon fill="none" stroke="black" points="1296,-6 1296,-25 1456,-25 1456,-6 1296,-6"/>
<text text-anchor="middle" x="1376" y="-13" font-family="Helvetica,sans-Serif" font-size="10.00">nars.storage.ReasonerBatch.tick</text>
</a>
</g>
</g>
<!-- Node470&#45;&gt;Node471 -->
<g id="edge7" class="edge"><title>Node470&#45;&gt;Node471</title>
<path fill="none" stroke="midnightblue" d="M1270.13,-15.5C1278.7,-15.5 1287.31,-15.5 1295.71,-15.5"/>
<polygon fill="midnightblue" stroke="midnightblue" points="1270.11,-12.0001 1260.11,-15.5 1270.11,-19.0001 1270.11,-12.0001"/>
</g>
<!-- Node472 -->
<g id="node9" class="node"><title>Node472</title>
<g id="a_node9"><a xlink:href="../../d9/da1/a00396.html#a5d9cfe517bcfbe41e5251910bcd119c1" target="_top" xlink:title="Run to completion: repeatedly execute NARS working cycle, until Inputs are Finished, or 1000 steps. ">
<polygon fill="none" stroke="black" points="1492,-6 1492,-25 1636,-25 1636,-6 1492,-6"/>
<text text-anchor="middle" x="1564" y="-13" font-family="Helvetica,sans-Serif" font-size="10.00">nars.storage.NARSBatch.run</text>
</a>
</g>
</g>
<!-- Node471&#45;&gt;Node472 -->
<g id="edge8" class="edge"><title>Node471&#45;&gt;Node472</title>
<path fill="none" stroke="midnightblue" d="M1466.22,-15.5C1474.82,-15.5 1483.47,-15.5 1491.87,-15.5"/>
<polygon fill="midnightblue" stroke="midnightblue" points="1466.15,-12.0001 1456.15,-15.5 1466.15,-19.0001 1466.15,-12.0001"/>
</g>
<!-- Node473 -->
<g id="node10" class="node"><title>Node473</title>
<g id="a_node10"><a xlink:href="../../d9/da1/a00396.html#a7c307c6b842f82664de6b0e52bdf8efc" target="_top" xlink:title="non&#45;static equivalent to main(String[]) : run to completion from an input file ">
<polygon fill="none" stroke="black" points="1672,-0.5 1672,-30.5 1816,-30.5 1816,-0.5 1672,-0.5"/>
<text text-anchor="start" x="1680" y="-18.5" font-family="Helvetica,sans-Serif" font-size="10.00">nars.storage.NARSBatch.run</text>
<text text-anchor="middle" x="1744" y="-7.5" font-family="Helvetica,sans-Serif" font-size="10.00">Inference</text>
</a>
</g>
</g>
<!-- Node472&#45;&gt;Node473 -->
<g id="edge9" class="edge"><title>Node472&#45;&gt;Node473</title>
<path fill="none" stroke="midnightblue" d="M1646.17,-15.5C1654.79,-15.5 1663.51,-15.5 1672,-15.5"/>
<polygon fill="midnightblue" stroke="midnightblue" points="1646.12,-12.0001 1636.12,-15.5 1646.12,-19.0001 1646.12,-12.0001"/>
</g>
<!-- Node474 -->
<g id="node11" class="node"><title>Node474</title>
<g id="a_node11"><a xlink:href="../../d9/da1/a00396.html#abafc597289bc2f6453b5cd0dd6634e54" target="_top" xlink:title="The entry point of the standalone application. ">
<polygon fill="none" stroke="black" points="1852,-6 1852,-25 2004,-25 2004,-6 1852,-6"/>
<text text-anchor="middle" x="1928" y="-13" font-family="Helvetica,sans-Serif" font-size="10.00">nars.storage.NARSBatch.main</text>
</a>
</g>
</g>
<!-- Node473&#45;&gt;Node474 -->
<g id="edge10" class="edge"><title>Node473&#45;&gt;Node474</title>
<path fill="none" stroke="midnightblue" d="M1826.17,-15.5C1834.76,-15.5 1843.48,-15.5 1852,-15.5"/>
<polygon fill="midnightblue" stroke="midnightblue" points="1826.15,-12.0001 1816.15,-15.5 1826.15,-19.0001 1826.15,-12.0001"/>
</g>
</g>
</svg>
