<?xml version="1.0" encoding="UTF-8" standalone="no"?>
<!DOCTYPE svg PUBLIC "-//W3C//DTD SVG 1.1//EN"
 "http://www.w3.org/Graphics/SVG/1.1/DTD/svg11.dtd">
<!-- Generated by graphviz version 2.38.0 (20140413.2041)
 -->
<!-- Title: nars.inference.StructuralRules.structuralStatement Pages: 1 -->
<svg width="1377pt" height="479pt"
 viewBox="0.00 0.00 1377.00 479.00" xmlns="http://www.w3.org/2000/svg" xmlns:xlink="http://www.w3.org/1999/xlink">
<g id="graph0" class="graph" transform="scale(1 1) rotate(0) translate(4 475)">
<title>nars.inference.StructuralRules.structuralStatement</title>
<!-- Node269 -->
<g id="node1" class="node"><title>Node269</title>
<polygon fill="#bfbfbf" stroke="black" points="0,-330.5 0,-360.5 131,-360.5 131,-330.5 0,-330.5"/>
<text text-anchor="start" x="8" y="-348.5" font-family="Helvetica,sans-Serif" font-size="10.00">nars.inference.Structural</text>
<text text-anchor="middle" x="65.5" y="-337.5" font-family="Helvetica,sans-Serif" font-size="10.00">Rules.structuralStatement</text>
</g>
<!-- Node270 -->
<g id="node2" class="node"><title>Node270</title>
<g id="a_node2"><a xlink:href="../../d5/ddf/a00224.html#a091f9ec3bdacfd6741f767cb62b14c0f" target="_top" xlink:title="Directly get the content of the sentence. ">
<polygon fill="none" stroke="black" points="174,-402 174,-421 312,-421 312,-402 174,-402"/>
<text text-anchor="middle" x="243" y="-409" font-family="Helvetica,sans-Serif" font-size="10.00">nars.entity.Task.getContent</text>
</a>
</g>
</g>
<!-- Node269&#45;&gt;Node270 -->
<g id="edge1" class="edge"><title>Node269&#45;&gt;Node270</title>
<path fill="none" stroke="midnightblue" d="M95.856,-360.53C115.612,-370.245 142.44,-382.676 167,-391.5 174.754,-394.286 183.082,-396.882 191.268,-399.22"/>
<polygon fill="midnightblue" stroke="midnightblue" points="190.564,-402.656 201.134,-401.939 192.424,-395.908 190.564,-402.656"/>
</g>
<!-- Node273 -->
<g id="node5" class="node"><title>Node273</title>
<g id="a_node5"><a xlink:href="../../d4/d27/a00392.html#a26eda4f00b333b706b4e3d069fdf1508" target="_top" xlink:title="The selected Task. ">
<polygon fill="none" stroke="black" points="356.5,-314 356.5,-333 535.5,-333 535.5,-314 356.5,-314"/>
<text text-anchor="middle" x="446" y="-321" font-family="Helvetica,sans-Serif" font-size="10.00">nars.storage.Memory.getCurrentTask</text>
</a>
</g>
</g>
<!-- Node269&#45;&gt;Node273 -->
<g id="edge4" class="edge"><title>Node269&#45;&gt;Node273</title>
<path fill="none" stroke="midnightblue" d="M131.136,-341.743C190.08,-338.317 278.057,-333.203 345.883,-329.261"/>
<polygon fill="midnightblue" stroke="midnightblue" points="346.382,-332.738 356.162,-328.664 345.976,-325.75 346.382,-332.738"/>
</g>
<!-- Node274 -->
<g id="node6" class="node"><title>Node274</title>
<g id="a_node6"><a xlink:href="../../d0/d65/a00360.html#a4e4c29fc305a6741da88ce55fbf11e4a" target="_top" xlink:title="Make a Statement from String, called by StringParser. ">
<polygon fill="none" stroke="black" points="167,-200 167,-219 319,-219 319,-200 167,-200"/>
<text text-anchor="middle" x="243" y="-207" font-family="Helvetica,sans-Serif" font-size="10.00">nars.language.Statement.make</text>
</a>
</g>
</g>
<!-- Node269&#45;&gt;Node274 -->
<g id="edge5" class="edge"><title>Node269&#45;&gt;Node274</title>
<path fill="none" stroke="midnightblue" d="M85.9521,-330.426C119.355,-304.541 187.312,-251.88 221.453,-225.422"/>
<polygon fill="midnightblue" stroke="midnightblue" points="223.602,-228.185 229.363,-219.293 219.315,-222.652 223.602,-228.185"/>
</g>
<!-- Node299 -->
<g id="node31" class="node"><title>Node299</title>
<g id="a_node31"><a xlink:href="../../d4/d27/a00392.html#a52ef2f1fedc72d6b0bfe3a6bd000bda3" target="_top" xlink:title="Shared final operations by all single&#45;premise rules, called in StructuralRules. ">
<polygon fill="none" stroke="black" points="174.5,-352.5 174.5,-382.5 311.5,-382.5 311.5,-352.5 174.5,-352.5"/>
<text text-anchor="start" x="182.5" y="-370.5" font-family="Helvetica,sans-Serif" font-size="10.00">nars.storage.Memory.single</text>
<text text-anchor="middle" x="243" y="-359.5" font-family="Helvetica,sans-Serif" font-size="10.00">PremiseTask</text>
</a>
</g>
</g>
<!-- Node269&#45;&gt;Node299 -->
<g id="edge43" class="edge"><title>Node269&#45;&gt;Node299</title>
<path fill="none" stroke="midnightblue" d="M131.351,-353.629C142.116,-354.979 153.376,-356.39 164.418,-357.775"/>
<polygon fill="midnightblue" stroke="midnightblue" points="164.119,-361.264 174.477,-359.036 164.99,-354.319 164.119,-361.264"/>
</g>
<!-- Node271 -->
<g id="node3" class="node"><title>Node271</title>
<g id="a_node3"><a xlink:href="../../dd/dc1/a00212.html#ad1ded9a02cae3557948d05530cd4d37e" target="_top" xlink:title="The content of a Sentence is a Term. ">
<polygon fill="none" stroke="black" points="384.5,-440.5 384.5,-470.5 507.5,-470.5 507.5,-440.5 384.5,-440.5"/>
<text text-anchor="start" x="392.5" y="-458.5" font-family="Helvetica,sans-Serif" font-size="10.00">nars.entity.Sentence.get</text>
<text text-anchor="middle" x="446" y="-447.5" font-family="Helvetica,sans-Serif" font-size="10.00">Content</text>
</a>
</g>
</g>
<!-- Node270&#45;&gt;Node271 -->
<g id="edge2" class="edge"><title>Node270&#45;&gt;Node271</title>
<path fill="none" stroke="midnightblue" d="M287.614,-421.047C312.918,-426.587 345.397,-433.696 374.271,-440.017"/>
<polygon fill="midnightblue" stroke="midnightblue" points="373.799,-443.497 384.316,-442.216 375.296,-436.658 373.799,-443.497"/>
</g>
<!-- Node272 -->
<g id="node4" class="node"><title>Node272</title>
<g id="a_node4"><a xlink:href="../../d5/ddf/a00224.html#ab140cb553a6cf40b07093d1df283567f" target="_top" xlink:title="The sentence of the Task. ">
<polygon fill="none" stroke="black" points="373.5,-402 373.5,-421 518.5,-421 518.5,-402 373.5,-402"/>
<text text-anchor="middle" x="446" y="-409" font-family="Helvetica,sans-Serif" font-size="10.00">nars.entity.Task.getSentence</text>
</a>
</g>
</g>
<!-- Node270&#45;&gt;Node272 -->
<g id="edge3" class="edge"><title>Node270&#45;&gt;Node272</title>
<path fill="none" stroke="midnightblue" d="M312.049,-411.5C328.366,-411.5 345.961,-411.5 362.841,-411.5"/>
<polygon fill="midnightblue" stroke="midnightblue" points="363.241,-415 373.241,-411.5 363.241,-408 363.241,-415"/>
</g>
<!-- Node274&#45;&gt;Node274 -->
<g id="edge42" class="edge"><title>Node274&#45;&gt;Node274</title>
<path fill="none" stroke="midnightblue" d="M215.873,-219.257C202.677,-228.065 211.719,-237.5 243,-237.5 264.506,-237.5 275.5,-233.041 275.983,-227.391"/>
<polygon fill="midnightblue" stroke="midnightblue" points="278.81,-225.327 270.127,-219.257 273.129,-229.417 278.81,-225.327"/>
</g>
<!-- Node275 -->
<g id="node7" class="node"><title>Node275</title>
<g id="a_node7"><a xlink:href="../../d0/d65/a00360.html#a96d4bf7bb99f48b6496cdb7457bc0e50" target="_top" xlink:title="Check the validity of a potential Statement. ">
<polygon fill="none" stroke="black" points="785.5,-238.5 785.5,-268.5 941.5,-268.5 941.5,-238.5 785.5,-238.5"/>
<text text-anchor="start" x="793.5" y="-256.5" font-family="Helvetica,sans-Serif" font-size="10.00">nars.language.Statement.invalid</text>
<text text-anchor="middle" x="863.5" y="-245.5" font-family="Helvetica,sans-Serif" font-size="10.00">Statement</text>
</a>
</g>
</g>
<!-- Node274&#45;&gt;Node275 -->
<g id="edge6" class="edge"><title>Node274&#45;&gt;Node275</title>
<path fill="none" stroke="midnightblue" d="M257.519,-219.166C277.619,-232.88 317.098,-257.337 355,-266.5 499.052,-301.325 672.821,-284.792 775.118,-269.345"/>
<polygon fill="midnightblue" stroke="midnightblue" points="775.746,-272.79 785.096,-267.807 774.68,-265.871 775.746,-272.79"/>
</g>
<!-- Node283 -->
<g id="node15" class="node"><title>Node283</title>
<g id="a_node15"><a xlink:href="../../d3/db8/a00316.html#a5ccaf18d33e722f438944debb2757b34" target="_top" xlink:title="Try to make a new compound from two components. ">
<polygon fill="none" stroke="black" points="573,-192 573,-211 728,-211 728,-192 573,-192"/>
<text text-anchor="middle" x="650.5" y="-199" font-family="Helvetica,sans-Serif" font-size="10.00">nars.language.Inheritance.make</text>
</a>
</g>
</g>
<!-- Node274&#45;&gt;Node283 -->
<g id="edge15" class="edge"><title>Node274&#45;&gt;Node283</title>
<path fill="none" stroke="midnightblue" d="M319.321,-208.014C388.337,-206.652 490.48,-204.637 562.853,-203.209"/>
<polygon fill="midnightblue" stroke="midnightblue" points="562.932,-206.709 572.861,-203.012 562.794,-199.71 562.932,-206.709"/>
</g>
<!-- Node291 -->
<g id="node23" class="node"><title>Node291</title>
<g id="a_node23"><a xlink:href="../../d6/de1/a00356.html#ae72436d78c25d4735b4201d773dd1901" target="_top" xlink:title="Try to make a new compound from two components. ">
<polygon fill="none" stroke="black" points="576.5,-94 576.5,-113 724.5,-113 724.5,-94 576.5,-94"/>
<text text-anchor="middle" x="650.5" y="-101" font-family="Helvetica,sans-Serif" font-size="10.00">nars.language.Similarity.make</text>
</a>
</g>
</g>
<!-- Node274&#45;&gt;Node291 -->
<g id="edge24" class="edge"><title>Node274&#45;&gt;Node291</title>
<path fill="none" stroke="midnightblue" d="M251.308,-199.896C267.404,-179.614 308.223,-132.783 355,-114.5 425.645,-86.8873 513.229,-87.5663 574.444,-93.0299"/>
<polygon fill="midnightblue" stroke="midnightblue" points="574.127,-96.5155 584.415,-93.9828 574.793,-89.5472 574.127,-96.5155"/>
</g>
<!-- Node294 -->
<g id="node26" class="node"><title>Node294</title>
<g id="a_node26"><a xlink:href="../../dd/de2/a00320.html#a94badab1e9fc19ebe33b06fcbb169453" target="_top" xlink:title="Try to make a new compound from two components. ">
<polygon fill="none" stroke="black" points="373.5,-124 373.5,-143 518.5,-143 518.5,-124 373.5,-124"/>
<text text-anchor="middle" x="446" y="-131" font-family="Helvetica,sans-Serif" font-size="10.00">nars.language.Instance.make</text>
</a>
</g>
</g>
<!-- Node274&#45;&gt;Node294 -->
<g id="edge32" class="edge"><title>Node274&#45;&gt;Node294</title>
<path fill="none" stroke="midnightblue" d="M259.576,-199.802C280.523,-187.164 319.275,-165.187 355,-152.5 362.489,-149.84 370.468,-147.497 378.462,-145.447"/>
<polygon fill="midnightblue" stroke="midnightblue" points="379.295,-148.847 388.19,-143.091 377.647,-142.043 379.295,-148.847"/>
</g>
<!-- Node296 -->
<g id="node28" class="node"><title>Node296</title>
<g id="a_node28"><a xlink:href="../../d8/d8e/a00344.html#a808d99e39dfc525841db6b645d118979" target="_top" xlink:title="Try to make a new compound from two components. ">
<polygon fill="none" stroke="black" points="374,-238 374,-257 518,-257 518,-238 374,-238"/>
<text text-anchor="middle" x="446" y="-245" font-family="Helvetica,sans-Serif" font-size="10.00">nars.language.Property.make</text>
</a>
</g>
</g>
<!-- Node274&#45;&gt;Node296 -->
<g id="edge35" class="edge"><title>Node274&#45;&gt;Node296</title>
<path fill="none" stroke="midnightblue" d="M294.461,-219.04C321.82,-224.212 355.82,-230.64 384.582,-236.078"/>
<polygon fill="midnightblue" stroke="midnightblue" points="384.042,-239.537 394.518,-237.956 385.342,-232.659 384.042,-239.537"/>
</g>
<!-- Node298 -->
<g id="node30" class="node"><title>Node298</title>
<g id="a_node30"><a xlink:href="../../d4/d8f/a00324.html#a429b8b61ed41ea338c8fc668fb8304f7" target="_top" xlink:title="Try to make a new compound from two components. ">
<polygon fill="none" stroke="black" points="355,-162 355,-181 537,-181 537,-162 355,-162"/>
<text text-anchor="middle" x="446" y="-169" font-family="Helvetica,sans-Serif" font-size="10.00">nars.language.InstanceProperty.make</text>
</a>
</g>
</g>
<!-- Node274&#45;&gt;Node298 -->
<g id="edge38" class="edge"><title>Node274&#45;&gt;Node298</title>
<path fill="none" stroke="midnightblue" d="M294.461,-199.96C321.82,-194.788 355.82,-188.36 384.582,-182.922"/>
<polygon fill="midnightblue" stroke="midnightblue" points="385.342,-186.341 394.518,-181.044 384.042,-179.463 385.342,-186.341"/>
</g>
<!-- Node276 -->
<g id="node8" class="node"><title>Node276</title>
<g id="a_node8"><a xlink:href="../../dc/d59/a00364.html#ad85f45a7858737445d5158801774ff5f" target="_top" xlink:title="Equal terms have identical name, though not necessarily the same reference. ">
<polygon fill="none" stroke="black" points="1015.5,-200 1015.5,-219 1149.5,-219 1149.5,-200 1015.5,-200"/>
<text text-anchor="middle" x="1082.5" y="-207" font-family="Helvetica,sans-Serif" font-size="10.00">nars.language.Term.equals</text>
</a>
</g>
</g>
<!-- Node275&#45;&gt;Node276 -->
<g id="edge7" class="edge"><title>Node275&#45;&gt;Node276</title>
<path fill="none" stroke="midnightblue" d="M938.572,-238.481C966.77,-232.763 998.428,-226.344 1024.77,-221.003"/>
<polygon fill="midnightblue" stroke="midnightblue" points="1025.48,-224.43 1034.59,-219.012 1024.09,-217.57 1025.48,-224.43"/>
</g>
<!-- Node278 -->
<g id="node10" class="node"><title>Node278</title>
<g id="a_node10"><a xlink:href="../../d8/d17/a00304.html#a89000afae8017231889aaa549292d1e0" target="_top" xlink:title="Default constructor. ">
<polygon fill="none" stroke="black" points="1006,-385.5 1006,-415.5 1159,-415.5 1159,-385.5 1006,-385.5"/>
<text text-anchor="start" x="1014" y="-403.5" font-family="Helvetica,sans-Serif" font-size="10.00">nars.language.CompoundTerm.</text>
<text text-anchor="middle" x="1082.5" y="-392.5" font-family="Helvetica,sans-Serif" font-size="10.00">CompoundTerm</text>
</a>
</g>
</g>
<!-- Node275&#45;&gt;Node278 -->
<g id="edge9" class="edge"><title>Node275&#45;&gt;Node278</title>
<path fill="none" stroke="midnightblue" d="M941.92,-264.353C949.604,-267.695 956.829,-271.99 963,-277.5 997.612,-308.405 965.255,-343.651 999,-375.5 1000.68,-377.086 1002.46,-378.571 1004.31,-379.963"/>
<polygon fill="midnightblue" stroke="midnightblue" points="1002.61,-383.024 1012.91,-385.481 1006.39,-377.134 1002.61,-383.024"/>
</g>
<!-- Node279 -->
<g id="node11" class="node"><title>Node279</title>
<g id="a_node11"><a xlink:href="../../d0/d65/a00360.html#ac56b558891dd2088e0b66b437780c7b7" target="_top" xlink:title="Default constructor. ">
<polygon fill="none" stroke="black" points="1018.5,-336.5 1018.5,-366.5 1146.5,-366.5 1146.5,-336.5 1018.5,-336.5"/>
<text text-anchor="start" x="1026.5" y="-354.5" font-family="Helvetica,sans-Serif" font-size="10.00">nars.language.Statement.</text>
<text text-anchor="middle" x="1082.5" y="-343.5" font-family="Helvetica,sans-Serif" font-size="10.00">Statement</text>
</a>
</g>
</g>
<!-- Node275&#45;&gt;Node279 -->
<g id="edge10" class="edge"><title>Node275&#45;&gt;Node279</title>
<path fill="none" stroke="midnightblue" d="M941.509,-266.581C949.093,-269.515 956.41,-273.106 963,-277.5 985.484,-292.492 976.939,-310.893 999,-326.5 1002.21,-328.769 1005.62,-330.835 1009.17,-332.717"/>
<polygon fill="midnightblue" stroke="midnightblue" points="1007.69,-335.889 1018.23,-337.024 1010.7,-329.568 1007.69,-335.889"/>
</g>
<!-- Node280 -->
<g id="node12" class="node"><title>Node280</title>
<g id="a_node12"><a xlink:href="../../d0/d65/a00360.html#ace4f80751d303c613e467163913bebf5" target="_top" xlink:title="Return the first component of the statement. ">
<polygon fill="none" stroke="black" points="1011.5,-287.5 1011.5,-317.5 1153.5,-317.5 1153.5,-287.5 1011.5,-287.5"/>
<text text-anchor="start" x="1019.5" y="-305.5" font-family="Helvetica,sans-Serif" font-size="10.00">nars.language.Statement.get</text>
<text text-anchor="middle" x="1082.5" y="-294.5" font-family="Helvetica,sans-Serif" font-size="10.00">Subject</text>
</a>
</g>
</g>
<!-- Node275&#45;&gt;Node280 -->
<g id="edge11" class="edge"><title>Node275&#45;&gt;Node280</title>
<path fill="none" stroke="midnightblue" d="M931.082,-268.535C954.515,-273.826 981.03,-279.813 1005.2,-285.271"/>
<polygon fill="midnightblue" stroke="midnightblue" points="1004.52,-288.705 1015.04,-287.494 1006.06,-281.877 1004.52,-288.705"/>
</g>
<!-- Node282 -->
<g id="node14" class="node"><title>Node282</title>
<g id="a_node14"><a xlink:href="../../d0/d65/a00360.html#ababe6155e2f78e769f76493317e118e0" target="_top" xlink:title="Return the second component of the statement. ">
<polygon fill="none" stroke="black" points="1011.5,-238.5 1011.5,-268.5 1153.5,-268.5 1153.5,-238.5 1011.5,-238.5"/>
<text text-anchor="start" x="1019.5" y="-256.5" font-family="Helvetica,sans-Serif" font-size="10.00">nars.language.Statement.get</text>
<text text-anchor="middle" x="1082.5" y="-245.5" font-family="Helvetica,sans-Serif" font-size="10.00">Predicate</text>
</a>
</g>
</g>
<!-- Node275&#45;&gt;Node282 -->
<g id="edge13" class="edge"><title>Node275&#45;&gt;Node282</title>
<path fill="none" stroke="midnightblue" d="M941.617,-253.5C960.912,-253.5 981.656,-253.5 1001.11,-253.5"/>
<polygon fill="midnightblue" stroke="midnightblue" points="1001.14,-257 1011.14,-253.5 1001.14,-250 1001.14,-257"/>
</g>
<!-- Node277 -->
<g id="node9" class="node"><title>Node277</title>
<g id="a_node9"><a xlink:href="../../dc/d59/a00364.html#a3aad4654016b8615fd4fa8a26668e1db" target="_top" xlink:title="Reporting the name of the current Term. ">
<polygon fill="none" stroke="black" points="1212.5,-124 1212.5,-143 1358.5,-143 1358.5,-124 1212.5,-124"/>
<text text-anchor="middle" x="1285.5" y="-131" font-family="Helvetica,sans-Serif" font-size="10.00">nars.language.Term.getName</text>
</a>
</g>
</g>
<!-- Node276&#45;&gt;Node277 -->
<g id="edge8" class="edge"><title>Node276&#45;&gt;Node277</title>
<path fill="none" stroke="midnightblue" d="M1133.31,-199.909C1144.21,-197.29 1155.6,-194.149 1166,-190.5 1199.13,-178.878 1235.23,-160.646 1258.77,-147.941"/>
<polygon fill="midnightblue" stroke="midnightblue" points="1260.64,-150.904 1267.74,-143.037 1257.29,-144.762 1260.64,-150.904"/>
</g>
<!-- Node281 -->
<g id="node13" class="node"><title>Node281</title>
<g id="a_node13"><a xlink:href="../../d8/d17/a00304.html#a9778c35f9b602bee6ccac6a06809e546" target="_top" xlink:title="list of (direct) components ">
<polygon fill="none" stroke="black" points="1202,-262.5 1202,-292.5 1369,-292.5 1369,-262.5 1202,-262.5"/>
<text text-anchor="start" x="1210" y="-280.5" font-family="Helvetica,sans-Serif" font-size="10.00">nars.language.CompoundTerm.get</text>
<text text-anchor="middle" x="1285.5" y="-269.5" font-family="Helvetica,sans-Serif" font-size="10.00">Components</text>
</a>
</g>
</g>
<!-- Node280&#45;&gt;Node281 -->
<g id="edge12" class="edge"><title>Node280&#45;&gt;Node281</title>
<path fill="none" stroke="midnightblue" d="M1153.52,-293.791C1165.85,-292.257 1178.87,-290.638 1191.71,-289.041"/>
<polygon fill="midnightblue" stroke="midnightblue" points="1192.47,-292.473 1201.96,-287.766 1191.61,-285.527 1192.47,-292.473"/>
</g>
<!-- Node282&#45;&gt;Node281 -->
<g id="edge14" class="edge"><title>Node282&#45;&gt;Node281</title>
<path fill="none" stroke="midnightblue" d="M1153.52,-261.86C1165.85,-263.333 1178.87,-264.887 1191.71,-266.421"/>
<polygon fill="midnightblue" stroke="midnightblue" points="1191.62,-269.934 1201.96,-267.645 1192.45,-262.984 1191.62,-269.934"/>
</g>
<!-- Node283&#45;&gt;Node275 -->
<g id="edge16" class="edge"><title>Node283&#45;&gt;Node275</title>
<path fill="none" stroke="midnightblue" d="M690.201,-211.038C718.463,-218.003 757.589,-227.645 791.415,-235.982"/>
<polygon fill="midnightblue" stroke="midnightblue" points="790.715,-239.414 801.262,-238.408 792.39,-232.617 790.715,-239.414"/>
</g>
<!-- Node284 -->
<g id="node16" class="node"><title>Node284</title>
<g id="a_node16"><a xlink:href="../../d0/d65/a00360.html#a7123aba1c8c566f291e2c9b9d147557d" target="_top" xlink:title="Default method to make the nameStr of an image term from given fields. ">
<polygon fill="none" stroke="black" points="787.5,-88.5 787.5,-118.5 939.5,-118.5 939.5,-88.5 787.5,-88.5"/>
<text text-anchor="start" x="795.5" y="-106.5" font-family="Helvetica,sans-Serif" font-size="10.00">nars.language.Statement.make</text>
<text text-anchor="middle" x="863.5" y="-95.5" font-family="Helvetica,sans-Serif" font-size="10.00">StatementName</text>
</a>
</g>
</g>
<!-- Node283&#45;&gt;Node284 -->
<g id="edge17" class="edge"><title>Node283&#45;&gt;Node284</title>
<path fill="none" stroke="midnightblue" d="M686.538,-191.974C700.271,-187.201 715.66,-180.486 728,-171.5 748.425,-156.626 742.62,-140.965 764,-127.5 768.356,-124.756 773.003,-122.327 777.817,-120.174"/>
<polygon fill="midnightblue" stroke="midnightblue" points="779.285,-123.356 787.248,-116.369 776.665,-116.865 779.285,-123.356"/>
</g>
<!-- Node285 -->
<g id="node17" class="node"><title>Node285</title>
<g id="a_node17"><a xlink:href="../../d4/d27/a00392.html#ac7c5d438820208253d1a2ee59bf80ddc" target="_top" xlink:title="Get a Term for a given name of a Concept or Operator. ">
<polygon fill="none" stroke="black" points="795.5,-137.5 795.5,-167.5 931.5,-167.5 931.5,-137.5 795.5,-137.5"/>
<text text-anchor="start" x="803.5" y="-155.5" font-family="Helvetica,sans-Serif" font-size="10.00">nars.storage.Memory.name</text>
<text text-anchor="middle" x="863.5" y="-144.5" font-family="Helvetica,sans-Serif" font-size="10.00">ToListedTerm</text>
</a>
</g>
</g>
<!-- Node283&#45;&gt;Node285 -->
<g id="edge18" class="edge"><title>Node283&#45;&gt;Node285</title>
<path fill="none" stroke="midnightblue" d="M692.433,-191.994C719.477,-185.714 755.717,-177.298 787.795,-169.849"/>
<polygon fill="midnightblue" stroke="midnightblue" points="788.652,-173.243 797.601,-167.571 787.069,-166.424 788.652,-173.243"/>
</g>
<!-- Node289 -->
<g id="node21" class="node"><title>Node289</title>
<g id="a_node21"><a xlink:href="../../d3/db8/a00316.html#a20635d9d55f73d39b29a07653cde6bc6" target="_top" xlink:title="Constructor with partial values, called by make. ">
<polygon fill="none" stroke="black" points="798,-287.5 798,-317.5 929,-317.5 929,-287.5 798,-287.5"/>
<text text-anchor="start" x="806" y="-305.5" font-family="Helvetica,sans-Serif" font-size="10.00">nars.language.Inheritance.</text>
<text text-anchor="middle" x="863.5" y="-294.5" font-family="Helvetica,sans-Serif" font-size="10.00">Inheritance</text>
</a>
</g>
</g>
<!-- Node283&#45;&gt;Node289 -->
<g id="edge22" class="edge"><title>Node283&#45;&gt;Node289</title>
<path fill="none" stroke="midnightblue" d="M701.174,-211.047C710.642,-214.311 720.062,-218.674 728,-224.5 750.957,-241.347 740.682,-261.156 764,-277.5 771.295,-282.613 779.545,-286.682 788.089,-289.92"/>
<polygon fill="midnightblue" stroke="midnightblue" points="787.23,-293.325 797.825,-293.233 789.486,-286.698 787.23,-293.325"/>
</g>
<!-- Node290 -->
<g id="node22" class="node"><title>Node290</title>
<g id="a_node22"><a xlink:href="../../d8/d17/a00304.html#a9aacee8d6903ff6eb186d37f78569353" target="_top" xlink:title="build a component list from two terms ">
<polygon fill="none" stroke="black" points="764,-186.5 764,-216.5 963,-216.5 963,-186.5 764,-186.5"/>
<text text-anchor="start" x="772" y="-204.5" font-family="Helvetica,sans-Serif" font-size="10.00">nars.language.CompoundTerm.arguments</text>
<text text-anchor="middle" x="863.5" y="-193.5" font-family="Helvetica,sans-Serif" font-size="10.00">ToList</text>
</a>
</g>
</g>
<!-- Node283&#45;&gt;Node290 -->
<g id="edge23" class="edge"><title>Node283&#45;&gt;Node290</title>
<path fill="none" stroke="midnightblue" d="M728.273,-201.5C736.573,-201.5 745.129,-201.5 753.715,-201.5"/>
<polygon fill="midnightblue" stroke="midnightblue" points="753.793,-205 763.793,-201.5 753.793,-198 753.793,-205"/>
</g>
<!-- Node286 -->
<g id="node18" class="node"><title>Node286</title>
<g id="a_node18"><a xlink:href="../../d4/d27/a00392.html#a33af7b3d806d32c85390563fec3c6d27" target="_top" xlink:title="Concept bag. ">
<polygon fill="none" stroke="black" points="999,-162 999,-181 1166,-181 1166,-162 999,-162"/>
<text text-anchor="middle" x="1082.5" y="-169" font-family="Helvetica,sans-Serif" font-size="10.00">nars.storage.Memory.getConcepts</text>
</a>
</g>
</g>
<!-- Node285&#45;&gt;Node286 -->
<g id="edge19" class="edge"><title>Node285&#45;&gt;Node286</title>
<path fill="none" stroke="midnightblue" d="M931.674,-158.382C949.8,-159.969 969.734,-161.714 988.983,-163.399"/>
<polygon fill="midnightblue" stroke="midnightblue" points="988.705,-166.888 998.973,-164.274 989.316,-159.915 988.705,-166.888"/>
</g>
<!-- Node287 -->
<g id="node19" class="node"><title>Node287</title>
<g id="a_node19"><a xlink:href="../../d6/db8/a00376.html#a011b37fc683db7fb7b41e33712a37d92" target="_top" xlink:title="Get an Item by key. ">
<polygon fill="none" stroke="black" points="1029,-124 1029,-143 1136,-143 1136,-124 1029,-124"/>
<text text-anchor="middle" x="1082.5" y="-131" font-family="Helvetica,sans-Serif" font-size="10.00">nars.storage.Bag.get</text>
</a>
</g>
</g>
<!-- Node285&#45;&gt;Node287 -->
<g id="edge20" class="edge"><title>Node285&#45;&gt;Node287</title>
<path fill="none" stroke="midnightblue" d="M931.674,-146.618C959.378,-144.193 991.308,-141.397 1018.55,-139.011"/>
<polygon fill="midnightblue" stroke="midnightblue" points="1019.09,-142.478 1028.75,-138.119 1018.48,-135.504 1019.09,-142.478"/>
</g>
<!-- Node288 -->
<g id="node20" class="node"><title>Node288</title>
<g id="a_node20"><a xlink:href="../../d7/ded/a00196.html#afcd1217b7680b073fa51f0d0f159dcea" target="_top" xlink:title="The term is the unique ID of the concept. ">
<polygon fill="none" stroke="black" points="1012,-86 1012,-105 1153,-105 1153,-86 1012,-86"/>
<text text-anchor="middle" x="1082.5" y="-93" font-family="Helvetica,sans-Serif" font-size="10.00">nars.entity.Concept.getTerm</text>
</a>
</g>
</g>
<!-- Node285&#45;&gt;Node288 -->
<g id="edge21" class="edge"><title>Node285&#45;&gt;Node288</title>
<path fill="none" stroke="midnightblue" d="M927.548,-137.477C939.385,-134.38 951.614,-130.991 963,-127.5 979.264,-122.513 982.682,-119.306 999,-114.5 1007.5,-111.996 1016.58,-109.617 1025.48,-107.443"/>
<polygon fill="midnightblue" stroke="midnightblue" points="1026.51,-110.798 1035.43,-105.081 1024.89,-103.987 1026.51,-110.798"/>
</g>
<!-- Node291&#45;&gt;Node275 -->
<g id="edge25" class="edge"><title>Node291&#45;&gt;Node275</title>
<path fill="none" stroke="midnightblue" d="M693.642,-113.085C705.962,-117.59 718.622,-124.115 728,-133.5 759.036,-164.559 731.498,-195.978 764,-225.5 767.672,-228.836 771.715,-231.777 776.003,-234.37"/>
<polygon fill="midnightblue" stroke="midnightblue" points="774.637,-237.608 785.109,-239.218 777.927,-231.429 774.637,-237.608"/>
</g>
<!-- Node291&#45;&gt;Node284 -->
<g id="edge28" class="edge"><title>Node291&#45;&gt;Node284</title>
<path fill="none" stroke="midnightblue" d="M724.705,-103.5C741.62,-103.5 759.761,-103.5 777.144,-103.5"/>
<polygon fill="midnightblue" stroke="midnightblue" points="777.276,-107 787.276,-103.5 777.276,-100 777.276,-107"/>
</g>
<!-- Node291&#45;&gt;Node285 -->
<g id="edge29" class="edge"><title>Node291&#45;&gt;Node285</title>
<path fill="none" stroke="midnightblue" d="M692.433,-113.006C719.477,-119.286 755.717,-127.702 787.795,-135.151"/>
<polygon fill="midnightblue" stroke="midnightblue" points="787.069,-138.576 797.601,-137.429 788.652,-131.757 787.069,-138.576"/>
</g>
<!-- Node291&#45;&gt;Node290 -->
<g id="edge31" class="edge"><title>Node291&#45;&gt;Node290</title>
<path fill="none" stroke="midnightblue" d="M686.487,-113.097C700.213,-117.881 715.61,-124.584 728,-133.5 748.231,-148.058 742.898,-163.236 764,-176.5 767.39,-178.631 770.953,-180.58 774.632,-182.364"/>
<polygon fill="midnightblue" stroke="midnightblue" points="773.419,-185.654 783.982,-186.465 776.23,-179.243 773.419,-185.654"/>
</g>
<!-- Node292 -->
<g id="node24" class="node"><title>Node292</title>
<g id="a_node24"><a xlink:href="../../dc/d59/a00364.html#ab9bc1c9cc779c07b09983b41ed8491e1" target="_top" xlink:title="Check the relative order of two Terms. ">
<polygon fill="none" stroke="black" points="786,-50 786,-69 941,-69 941,-50 786,-50"/>
<text text-anchor="middle" x="863.5" y="-57" font-family="Helvetica,sans-Serif" font-size="10.00">nars.language.Term.compareTo</text>
</a>
</g>
</g>
<!-- Node291&#45;&gt;Node292 -->
<g id="edge26" class="edge"><title>Node291&#45;&gt;Node292</title>
<path fill="none" stroke="midnightblue" d="M693.112,-93.96C714.303,-89.1764 740.492,-83.3783 764,-78.5 776.177,-75.973 789.225,-73.3774 801.711,-70.9481"/>
<polygon fill="midnightblue" stroke="midnightblue" points="802.423,-74.3754 811.576,-69.04 801.093,-67.5028 802.423,-74.3754"/>
</g>
<!-- Node293 -->
<g id="node25" class="node"><title>Node293</title>
<g id="a_node25"><a xlink:href="../../d6/de1/a00356.html#a5d3eff893c9406991d1c3e81737a408b" target="_top" xlink:title="Constructor with partial values, called by make. ">
<polygon fill="none" stroke="black" points="801.5,-0.5 801.5,-30.5 925.5,-30.5 925.5,-0.5 801.5,-0.5"/>
<text text-anchor="start" x="809.5" y="-18.5" font-family="Helvetica,sans-Serif" font-size="10.00">nars.language.Similarity.</text>
<text text-anchor="middle" x="863.5" y="-7.5" font-family="Helvetica,sans-Serif" font-size="10.00">Similarity</text>
</a>
</g>
</g>
<!-- Node291&#45;&gt;Node293 -->
<g id="edge30" class="edge"><title>Node291&#45;&gt;Node293</title>
<path fill="none" stroke="midnightblue" d="M665.809,-93.859C686.609,-80.2313 726.782,-55.3449 764,-40.5 772.757,-37.0072 782.15,-33.8832 791.532,-31.1263"/>
<polygon fill="midnightblue" stroke="midnightblue" points="792.599,-34.4623 801.278,-28.3862 790.704,-27.7235 792.599,-34.4623"/>
</g>
<!-- Node292&#45;&gt;Node277 -->
<g id="edge27" class="edge"><title>Node292&#45;&gt;Node277</title>
<path fill="none" stroke="midnightblue" d="M941.029,-55.6626C1002.74,-54.5004 1091.25,-57.2262 1166,-76.5 1200.78,-85.4669 1237.56,-104.94 1260.76,-118.619"/>
<polygon fill="midnightblue" stroke="midnightblue" points="1259.15,-121.74 1269.53,-123.901 1262.77,-115.744 1259.15,-121.74"/>
</g>
<!-- Node294&#45;&gt;Node283 -->
<g id="edge33" class="edge"><title>Node294&#45;&gt;Node283</title>
<path fill="none" stroke="midnightblue" d="M504.322,-143.107C515.322,-145.648 526.637,-148.754 537,-152.5 554.014,-158.65 556.553,-163.963 573,-171.5 586.022,-177.467 600.597,-183.368 613.504,-188.337"/>
<polygon fill="midnightblue" stroke="midnightblue" points="612.404,-191.664 622.995,-191.941 614.889,-185.119 612.404,-191.664"/>
</g>
<!-- Node295 -->
<g id="node27" class="node"><title>Node295</title>
<g id="a_node27"><a xlink:href="../../df/d03/a00348.html#aa8f6526a59c3d7e578dd76a0eab75a0e" target="_top" xlink:title="Try to make a new set from one component. ">
<polygon fill="none" stroke="black" points="582,-143 582,-162 719,-162 719,-143 582,-143"/>
<text text-anchor="middle" x="650.5" y="-150" font-family="Helvetica,sans-Serif" font-size="10.00">nars.language.SetExt.make</text>
</a>
</g>
</g>
<!-- Node294&#45;&gt;Node295 -->
<g id="edge34" class="edge"><title>Node294&#45;&gt;Node295</title>
<path fill="none" stroke="midnightblue" d="M518.679,-140.225C535.894,-141.841 554.359,-143.573 571.831,-145.213"/>
<polygon fill="midnightblue" stroke="midnightblue" points="571.704,-148.716 581.987,-146.165 572.358,-141.747 571.704,-148.716"/>
</g>
<!-- Node296&#45;&gt;Node283 -->
<g id="edge36" class="edge"><title>Node296&#45;&gt;Node283</title>
<path fill="none" stroke="midnightblue" d="M488.958,-237.969C520.454,-230.814 563.768,-220.975 597.469,-213.319"/>
<polygon fill="midnightblue" stroke="midnightblue" points="598.619,-216.647 607.596,-211.019 597.069,-209.821 598.619,-216.647"/>
</g>
<!-- Node297 -->
<g id="node29" class="node"><title>Node297</title>
<g id="a_node29"><a xlink:href="../../d6/d9c/a00352.html#aaea0f2cc2ca804779d1bf346beb58fa1" target="_top" xlink:title="Try to make a new set from one component. ">
<polygon fill="none" stroke="black" points="583.5,-234 583.5,-253 717.5,-253 717.5,-234 583.5,-234"/>
<text text-anchor="middle" x="650.5" y="-241" font-family="Helvetica,sans-Serif" font-size="10.00">nars.language.SetInt.make</text>
</a>
</g>
</g>
<!-- Node296&#45;&gt;Node297 -->
<g id="edge37" class="edge"><title>Node296&#45;&gt;Node297</title>
<path fill="none" stroke="midnightblue" d="M518.109,-246.095C535.911,-245.744 555.081,-245.365 573.127,-245.009"/>
<polygon fill="midnightblue" stroke="midnightblue" points="573.382,-248.504 583.311,-244.807 573.244,-241.506 573.382,-248.504"/>
</g>
<!-- Node298&#45;&gt;Node283 -->
<g id="edge39" class="edge"><title>Node298&#45;&gt;Node283</title>
<path fill="none" stroke="midnightblue" d="M511.351,-181.033C531.654,-184.041 554.25,-187.389 575.188,-190.491"/>
<polygon fill="midnightblue" stroke="midnightblue" points="574.912,-193.988 585.317,-191.991 575.938,-187.064 574.912,-193.988"/>
</g>
<!-- Node298&#45;&gt;Node295 -->
<g id="edge40" class="edge"><title>Node298&#45;&gt;Node295</title>
<path fill="none" stroke="midnightblue" d="M537.294,-163.028C548.76,-161.952 560.416,-160.858 571.664,-159.803"/>
<polygon fill="midnightblue" stroke="midnightblue" points="572.233,-163.265 581.863,-158.846 571.579,-156.296 572.233,-163.265"/>
</g>
<!-- Node298&#45;&gt;Node297 -->
<g id="edge41" class="edge"><title>Node298&#45;&gt;Node297</title>
<path fill="none" stroke="midnightblue" d="M470.021,-181.083C495.129,-191.387 536.603,-207.973 573,-220.5 583.642,-224.163 595.225,-227.815 606.083,-231.095"/>
<polygon fill="midnightblue" stroke="midnightblue" points="605.22,-234.489 615.803,-233.992 607.219,-227.781 605.22,-234.489"/>
</g>
<!-- Node299&#45;&gt;Node272 -->
<g id="edge45" class="edge"><title>Node299&#45;&gt;Node272</title>
<path fill="none" stroke="midnightblue" d="M311.769,-382.335C337.813,-388.036 367.149,-394.458 391.65,-399.821"/>
<polygon fill="midnightblue" stroke="midnightblue" points="390.964,-403.254 401.481,-401.973 392.461,-396.416 390.964,-403.254"/>
</g>
<!-- Node299&#45;&gt;Node273 -->
<g id="edge44" class="edge"><title>Node299&#45;&gt;Node273</title>
<path fill="none" stroke="midnightblue" d="M309.999,-352.482C324.798,-349.157 340.429,-345.679 355,-342.5 366.102,-340.078 377.986,-337.534 389.359,-335.124"/>
<polygon fill="midnightblue" stroke="midnightblue" points="390.129,-338.539 399.189,-333.047 388.682,-331.69 390.129,-338.539"/>
</g>
<!-- Node300 -->
<g id="node32" class="node"><title>Node300</title>
<g id="a_node32"><a xlink:href="../../dd/dc1/a00212.html#a68b153a51a5db6a4127b66158227697f" target="_top" xlink:title="The punctuation also indicates the type of the Sentence: Judgment, Question, or Goal. ">
<polygon fill="none" stroke="black" points="384.5,-352.5 384.5,-382.5 507.5,-382.5 507.5,-352.5 384.5,-352.5"/>
<text text-anchor="start" x="392.5" y="-370.5" font-family="Helvetica,sans-Serif" font-size="10.00">nars.entity.Sentence.get</text>
<text text-anchor="middle" x="446" y="-359.5" font-family="Helvetica,sans-Serif" font-size="10.00">Punctuation</text>
</a>
</g>
</g>
<!-- Node299&#45;&gt;Node300 -->
<g id="edge46" class="edge"><title>Node299&#45;&gt;Node300</title>
<path fill="none" stroke="midnightblue" d="M311.769,-367.5C331.854,-367.5 353.896,-367.5 374.169,-367.5"/>
<polygon fill="midnightblue" stroke="midnightblue" points="374.275,-371 384.275,-367.5 374.275,-364 374.275,-371"/>
</g>
</g>
</svg>
