<?xml version="1.0" encoding="UTF-8" standalone="no"?>
<!DOCTYPE svg PUBLIC "-//W3C//DTD SVG 1.1//EN"
 "http://www.w3.org/Graphics/SVG/1.1/DTD/svg11.dtd">
<!-- Generated by graphviz version 2.38.0 (20140413.2041)
 -->
<!-- Title: nars.inference.StructuralRules.structuralDecompose1 Pages: 1 -->
<svg width="2027pt" height="39pt"
 viewBox="0.00 0.00 2027.00 39.00" xmlns="http://www.w3.org/2000/svg" xmlns:xlink="http://www.w3.org/1999/xlink">
<g id="graph0" class="graph" transform="scale(1 1) rotate(0) translate(4 35)">
<title>nars.inference.StructuralRules.structuralDecompose1</title>
<!-- Node209 -->
<g id="node1" class="node"><title>Node209</title>
<polygon fill="#bfbfbf" stroke="black" points="0,-0.5 0,-30.5 143,-30.5 143,-0.5 0,-0.5"/>
<text text-anchor="start" x="8" y="-18.5" font-family="Helvetica,sans-Serif" font-size="10.00">nars.inference.Structural</text>
<text text-anchor="middle" x="71.5" y="-7.5" font-family="Helvetica,sans-Serif" font-size="10.00">Rules.structuralDecompose1</text>
</g>
<!-- Node210 -->
<g id="node2" class="node"><title>Node210</title>
<g id="a_node2"><a xlink:href="../../dc/ded/a00252.html#a08680eb3f85b0a37b7bd969de8b25904" target="_top" xlink:title="Inference between a component term (of the current term) and a statement. ">
<polygon fill="none" stroke="black" points="179,-0.5 179,-30.5 361,-30.5 361,-0.5 179,-0.5"/>
<text text-anchor="start" x="187" y="-18.5" font-family="Helvetica,sans-Serif" font-size="10.00">nars.inference.RuleTables.component</text>
<text text-anchor="middle" x="270" y="-7.5" font-family="Helvetica,sans-Serif" font-size="10.00">AndStatement</text>
</a>
</g>
</g>
<!-- Node209&#45;&gt;Node210 -->
<g id="edge1" class="edge"><title>Node209&#45;&gt;Node210</title>
<path fill="none" stroke="midnightblue" d="M153.304,-15.5C161.702,-15.5 170.277,-15.5 178.771,-15.5"/>
<polygon fill="midnightblue" stroke="midnightblue" points="153.163,-12.0001 143.163,-15.5 153.163,-19.0001 153.163,-12.0001"/>
</g>
<!-- Node211 -->
<g id="node3" class="node"><title>Node211</title>
<g id="a_node3"><a xlink:href="../../dc/ded/a00252.html#ac2d01dfdc40bdd47c757cb549217e6e3" target="_top" xlink:title="Entry point of the inference engine. ">
<polygon fill="none" stroke="black" points="397,-6 397,-25 560,-25 560,-6 397,-6"/>
<text text-anchor="middle" x="478.5" y="-13" font-family="Helvetica,sans-Serif" font-size="10.00">nars.inference.RuleTables.reason</text>
</a>
</g>
</g>
<!-- Node210&#45;&gt;Node211 -->
<g id="edge2" class="edge"><title>Node210&#45;&gt;Node211</title>
<path fill="none" stroke="midnightblue" d="M371.295,-15.5C379.855,-15.5 388.442,-15.5 396.82,-15.5"/>
<polygon fill="midnightblue" stroke="midnightblue" points="371.274,-12.0001 361.274,-15.5 371.273,-19.0001 371.274,-12.0001"/>
</g>
<!-- Node212 -->
<g id="node4" class="node"><title>Node212</title>
<g id="a_node4"><a xlink:href="../../d7/ded/a00196.html#ad6fb91dda799c3092ecb186ef24ca92a" target="_top" xlink:title="An atomic step in a concept, only called in Memory# processConcept. ">
<polygon fill="none" stroke="black" points="596,-0.5 596,-30.5 715,-30.5 715,-0.5 596,-0.5"/>
<text text-anchor="start" x="604" y="-18.5" font-family="Helvetica,sans-Serif" font-size="10.00">nars.entity.Concept.fire</text>
<text text-anchor="middle" x="655.5" y="-7.5" font-family="Helvetica,sans-Serif" font-size="10.00">FromProcessConcept</text>
</a>
</g>
</g>
<!-- Node211&#45;&gt;Node212 -->
<g id="edge3" class="edge"><title>Node211&#45;&gt;Node212</title>
<path fill="none" stroke="midnightblue" d="M570.249,-15.5C578.907,-15.5 587.523,-15.5 595.757,-15.5"/>
<polygon fill="midnightblue" stroke="midnightblue" points="570.085,-12.0001 560.085,-15.5 570.085,-19.0001 570.085,-12.0001"/>
</g>
<!-- Node213 -->
<g id="node5" class="node"><title>Node213</title>
<g id="a_node5"><a xlink:href="../../d4/d27/a00392.html#a0acc4adbf6a2462245da46bcb529746c" target="_top" xlink:title="Select a concept to fireFromProcessConcept. ">
<polygon fill="none" stroke="black" points="751,-0.5 751,-30.5 897,-30.5 897,-0.5 751,-0.5"/>
<text text-anchor="start" x="759" y="-18.5" font-family="Helvetica,sans-Serif" font-size="10.00">nars.storage.Memory.process</text>
<text text-anchor="middle" x="824" y="-7.5" font-family="Helvetica,sans-Serif" font-size="10.00">Concept</text>
</a>
</g>
</g>
<!-- Node212&#45;&gt;Node213 -->
<g id="edge4" class="edge"><title>Node212&#45;&gt;Node213</title>
<path fill="none" stroke="midnightblue" d="M725.337,-15.5C733.748,-15.5 742.361,-15.5 750.819,-15.5"/>
<polygon fill="midnightblue" stroke="midnightblue" points="725.202,-12.0001 715.202,-15.5 725.202,-19.0001 725.202,-12.0001"/>
</g>
<!-- Node214 -->
<g id="node6" class="node"><title>Node214</title>
<g id="a_node6"><a xlink:href="../../d4/d27/a00392.html#a59ae339d666409988d90d29be4f73a91" target="_top" xlink:title="An atomic working workCycle of the system: process new Tasks, then fireFromProcessConcept a concept...">
<polygon fill="none" stroke="black" points="933,-0.5 933,-30.5 1066,-30.5 1066,-0.5 933,-0.5"/>
<text text-anchor="start" x="941" y="-18.5" font-family="Helvetica,sans-Serif" font-size="10.00">nars.storage.Memory.work</text>
<text text-anchor="middle" x="999.5" y="-7.5" font-family="Helvetica,sans-Serif" font-size="10.00">Cycle</text>
</a>
</g>
</g>
<!-- Node213&#45;&gt;Node214 -->
<g id="edge5" class="edge"><title>Node213&#45;&gt;Node214</title>
<path fill="none" stroke="midnightblue" d="M907.118,-15.5C915.716,-15.5 924.375,-15.5 932.755,-15.5"/>
<polygon fill="midnightblue" stroke="midnightblue" points="907.072,-12.0001 897.072,-15.5 907.072,-19.0001 907.072,-12.0001"/>
</g>
<!-- Node215 -->
<g id="node7" class="node"><title>Node215</title>
<g id="a_node7"><a xlink:href="../../df/d15/a00416.html#a0d5c797dc17d9e8d0998852915e0f303" target="_top" xlink:title="nars.storage.ReasonerBatch.doTick">
<polygon fill="none" stroke="black" points="1102,-6 1102,-25 1275,-25 1275,-6 1102,-6"/>
<text text-anchor="middle" x="1188.5" y="-13" font-family="Helvetica,sans-Serif" font-size="10.00">nars.storage.ReasonerBatch.doTick</text>
</a>
</g>
</g>
<!-- Node214&#45;&gt;Node215 -->
<g id="edge6" class="edge"><title>Node214&#45;&gt;Node215</title>
<path fill="none" stroke="midnightblue" d="M1076.34,-15.5C1084.78,-15.5 1093.42,-15.5 1101.97,-15.5"/>
<polygon fill="midnightblue" stroke="midnightblue" points="1076.17,-12.0001 1066.17,-15.5 1076.17,-19.0001 1076.17,-12.0001"/>
</g>
<!-- Node216 -->
<g id="node8" class="node"><title>Node216</title>
<g id="a_node8"><a xlink:href="../../df/d15/a00416.html#a3468aa0f99edcd66412f27922dddb880" target="_top" xlink:title="A clock tick. ">
<polygon fill="none" stroke="black" points="1311,-6 1311,-25 1471,-25 1471,-6 1311,-6"/>
<text text-anchor="middle" x="1391" y="-13" font-family="Helvetica,sans-Serif" font-size="10.00">nars.storage.ReasonerBatch.tick</text>
</a>
</g>
</g>
<!-- Node215&#45;&gt;Node216 -->
<g id="edge7" class="edge"><title>Node215&#45;&gt;Node216</title>
<path fill="none" stroke="midnightblue" d="M1285.13,-15.5C1293.7,-15.5 1302.31,-15.5 1310.71,-15.5"/>
<polygon fill="midnightblue" stroke="midnightblue" points="1285.11,-12.0001 1275.11,-15.5 1285.11,-19.0001 1285.11,-12.0001"/>
</g>
<!-- Node217 -->
<g id="node9" class="node"><title>Node217</title>
<g id="a_node9"><a xlink:href="../../d9/da1/a00396.html#a5d9cfe517bcfbe41e5251910bcd119c1" target="_top" xlink:title="Run to completion: repeatedly execute NARS working cycle, until Inputs are Finished, or 1000 steps. ">
<polygon fill="none" stroke="black" points="1507,-6 1507,-25 1651,-25 1651,-6 1507,-6"/>
<text text-anchor="middle" x="1579" y="-13" font-family="Helvetica,sans-Serif" font-size="10.00">nars.storage.NARSBatch.run</text>
</a>
</g>
</g>
<!-- Node216&#45;&gt;Node217 -->
<g id="edge8" class="edge"><title>Node216&#45;&gt;Node217</title>
<path fill="none" stroke="midnightblue" d="M1481.22,-15.5C1489.82,-15.5 1498.47,-15.5 1506.87,-15.5"/>
<polygon fill="midnightblue" stroke="midnightblue" points="1481.15,-12.0001 1471.15,-15.5 1481.15,-19.0001 1481.15,-12.0001"/>
</g>
<!-- Node218 -->
<g id="node10" class="node"><title>Node218</title>
<g id="a_node10"><a xlink:href="../../d9/da1/a00396.html#a7c307c6b842f82664de6b0e52bdf8efc" target="_top" xlink:title="non&#45;static equivalent to main(String[]) : run to completion from an input file ">
<polygon fill="none" stroke="black" points="1687,-0.5 1687,-30.5 1831,-30.5 1831,-0.5 1687,-0.5"/>
<text text-anchor="start" x="1695" y="-18.5" font-family="Helvetica,sans-Serif" font-size="10.00">nars.storage.NARSBatch.run</text>
<text text-anchor="middle" x="1759" y="-7.5" font-family="Helvetica,sans-Serif" font-size="10.00">Inference</text>
</a>
</g>
</g>
<!-- Node217&#45;&gt;Node218 -->
<g id="edge9" class="edge"><title>Node217&#45;&gt;Node218</title>
<path fill="none" stroke="midnightblue" d="M1661.17,-15.5C1669.79,-15.5 1678.51,-15.5 1687,-15.5"/>
<polygon fill="midnightblue" stroke="midnightblue" points="1661.12,-12.0001 1651.12,-15.5 1661.12,-19.0001 1661.12,-12.0001"/>
</g>
<!-- Node219 -->
<g id="node11" class="node"><title>Node219</title>
<g id="a_node11"><a xlink:href="../../d9/da1/a00396.html#abafc597289bc2f6453b5cd0dd6634e54" target="_top" xlink:title="The entry point of the standalone application. ">
<polygon fill="none" stroke="black" points="1867,-6 1867,-25 2019,-25 2019,-6 1867,-6"/>
<text text-anchor="middle" x="1943" y="-13" font-family="Helvetica,sans-Serif" font-size="10.00">nars.storage.NARSBatch.main</text>
</a>
</g>
</g>
<!-- Node218&#45;&gt;Node219 -->
<g id="edge10" class="edge"><title>Node218&#45;&gt;Node219</title>
<path fill="none" stroke="midnightblue" d="M1841.17,-15.5C1849.76,-15.5 1858.48,-15.5 1867,-15.5"/>
<polygon fill="midnightblue" stroke="midnightblue" points="1841.15,-12.0001 1831.15,-15.5 1841.15,-19.0001 1841.15,-12.0001"/>
</g>
</g>
</svg>
