<?xml version="1.0" encoding="UTF-8" standalone="no"?>
<!DOCTYPE svg PUBLIC "-//W3C//DTD SVG 1.1//EN"
 "http://www.w3.org/Graphics/SVG/1.1/DTD/svg11.dtd">
<!-- Generated by graphviz version 2.38.0 (20140413.2041)
 -->
<!-- Title: nars.inference.StructuralRules.transformPredicatePI Pages: 1 -->
<!--zoomable 504 -->
<svg id="main" version="1.1" xmlns="http://www.w3.org/2000/svg" xmlns:xlink="http://www.w3.org/1999/xlink" xml:space="preserve" onload="init(evt)">
<style type="text/css"><![CDATA[
.edge:hover path { stroke: red; }
.edge:hover polygon { stroke: red; fill: red; }
]]></style>
<script type="text/javascript"><![CDATA[
var edges = document.getElementsByTagName('g');
if (edges && edges.length) {
  for (var i=0;i<edges.length;i++) {
    if (edges[i].id.substr(0,4)=='edge') {
      edges[i].setAttribute('class','edge');
    }
  }
}
]]></script>
        <defs>
                <circle id="rim" cx="0" cy="0" r="7"/>
                <circle id="rim2" cx="0" cy="0" r="3.5"/>
                <g id="zoomPlus">
                        <use xlink:href="#rim" fill="#404040">
                                <set attributeName="fill" to="#808080" begin="zoomplus.mouseover" end="zoomplus.mouseout"/>
                        </use>
                        <path d="M-4,0h8M0,-4v8" fill="none" stroke="white" stroke-width="1.5" pointer-events="none"/>
                </g>
                <g id="zoomMin">
                        <use xlink:href="#rim" fill="#404040">
                                <set attributeName="fill" to="#808080" begin="zoomminus.mouseover" end="zoomminus.mouseout"/>
                        </use>
                        <path d="M-4,0h8" fill="none" stroke="white" stroke-width="1.5" pointer-events="none"/>
                </g>
                <g id="dirArrow">
                        <path fill="none" stroke="white" stroke-width="1.5" d="M0,-3.0v7 M-2.5,-0.5L0,-3.0L2.5,-0.5"/>
                </g>
               <g id="resetDef">
                       <use xlink:href="#rim2" fill="#404040">
                               <set attributeName="fill" to="#808080" begin="reset.mouseover" end="reset.mouseout"/>
                       </use>
               </g>
        </defs>

<script type="text/javascript">
var viewWidth = 1069;
var viewHeight = 504;
var sectionId = 'dynsection-14';
</script>
<script xlink:href="../../svgpan.js"/>
<svg id="graph" class="graph">
<g id="viewport">
<title>nars.inference.StructuralRules.transformPredicatePI</title>
<!-- Node332 -->
<g id="node1" class="node"><title>Node332</title>
<polygon fill="#bfbfbf" stroke="black" points="0,-252 0,-282 137,-282 137,-252 0,-252"/>
<text text-anchor="start" x="8" y="-270" font-family="Helvetica,sans-Serif" font-size="10.00">nars.inference.Structural</text>
<text text-anchor="middle" x="68.5" y="-259" font-family="Helvetica,sans-Serif" font-size="10.00">Rules.transformPredicatePI</text>
</g>
<!-- Node333 -->
<g id="node2" class="node"><title>Node333</title>
<g id="a_node2"><a xlink:href="../../d8/d17/a00304.html#acedae916705e9fa1669391a7d728b840" target="_top" xlink:title="get a component by index ">
<polygon fill="none" stroke="black" points="173,-476.5 173,-495.5 384,-495.5 384,-476.5 173,-476.5"/>
<text text-anchor="middle" x="278.5" y="-483.5" font-family="Helvetica,sans-Serif" font-size="10.00">nars.language.CompoundTerm.componentAt</text>
</a>
</g>
</g>
<!-- Node332&#45;&gt;Node333 -->
<g id="edge1" class="edge"><title>Node332&#45;&gt;Node333</title>
<path fill="none" stroke="midnightblue" d="M72.9648,-282.25C82.2145,-319.31 111.112,-414.532 173,-462 178.508,-466.224 184.628,-469.727 191.066,-472.629"/>
<polygon fill="midnightblue" stroke="midnightblue" points="190.105,-476.014 200.69,-476.465 192.697,-469.512 190.105,-476.014"/>
</g>
<!-- Node334 -->
<g id="node3" class="node"><title>Node334</title>
<g id="a_node3"><a xlink:href="../../d4/d27/a00392.html#a26eda4f00b333b706b4e3d069fdf1508" target="_top" xlink:title="The selected Task. ">
<polygon fill="none" stroke="black" points="430,-438.5 430,-457.5 609,-457.5 609,-438.5 430,-438.5"/>
<text text-anchor="middle" x="519.5" y="-445.5" font-family="Helvetica,sans-Serif" font-size="10.00">nars.storage.Memory.getCurrentTask</text>
</a>
</g>
</g>
<!-- Node332&#45;&gt;Node334 -->
<g id="edge2" class="edge"><title>Node332&#45;&gt;Node334</title>
<path fill="none" stroke="midnightblue" d="M73.9167,-282.032C84.6114,-315.395 115.361,-395.336 173,-429 213.418,-452.606 332.648,-454.513 419.766,-452.392"/>
<polygon fill="midnightblue" stroke="midnightblue" points="420.053,-455.886 429.957,-452.122 419.868,-448.888 420.053,-455.886"/>
</g>
<!-- Node335 -->
<g id="node4" class="node"><title>Node335</title>
<g id="a_node4"><a xlink:href="../../d5/d0f/a00308.html#a52a40e43bd7a74ef9461cbb658f86a62" target="_top" xlink:title="get the index of the relation in the component list ">
<polygon fill="none" stroke="black" points="209,-301 209,-331 348,-331 348,-301 209,-301"/>
<text text-anchor="start" x="217" y="-319" font-family="Helvetica,sans-Serif" font-size="10.00">nars.language.ImageExt.get</text>
<text text-anchor="middle" x="278.5" y="-308" font-family="Helvetica,sans-Serif" font-size="10.00">RelationIndex</text>
</a>
</g>
</g>
<!-- Node332&#45;&gt;Node335 -->
<g id="edge3" class="edge"><title>Node332&#45;&gt;Node335</title>
<path fill="none" stroke="midnightblue" d="M131.317,-282.052C145.034,-285.358 159.505,-288.821 173,-292 182.211,-294.17 191.886,-296.425 201.476,-298.645"/>
<polygon fill="midnightblue" stroke="midnightblue" points="200.885,-302.101 211.416,-300.941 202.46,-295.28 200.885,-302.101"/>
</g>
<!-- Node336 -->
<g id="node5" class="node"><title>Node336</title>
<g id="a_node5"><a xlink:href="../../d5/ddf/a00224.html#ab140cb553a6cf40b07093d1df283567f" target="_top" xlink:title="The sentence of the Task. ">
<polygon fill="none" stroke="black" points="447,-350.5 447,-369.5 592,-369.5 592,-350.5 447,-350.5"/>
<text text-anchor="middle" x="519.5" y="-357.5" font-family="Helvetica,sans-Serif" font-size="10.00">nars.entity.Task.getSentence</text>
</a>
</g>
</g>
<!-- Node332&#45;&gt;Node336 -->
<g id="edge4" class="edge"><title>Node332&#45;&gt;Node336</title>
<path fill="none" stroke="midnightblue" d="M84.6985,-282.229C103.555,-300.006 137.571,-328.554 173,-341 259.164,-371.268 364.832,-372.288 436.454,-368.123"/>
<polygon fill="midnightblue" stroke="midnightblue" points="437.008,-371.595 446.768,-367.473 436.568,-364.609 437.008,-371.595"/>
</g>
<!-- Node337 -->
<g id="node6" class="node"><title>Node337</title>
<g id="a_node6"><a xlink:href="../../dd/dc1/a00212.html#a9f69b4fef64c81abad21404946cd41f9" target="_top" xlink:title="The truth value of Judgment. ">
<polygon fill="none" stroke="black" points="217,-252 217,-282 340,-282 340,-252 217,-252"/>
<text text-anchor="start" x="225" y="-270" font-family="Helvetica,sans-Serif" font-size="10.00">nars.entity.Sentence.get</text>
<text text-anchor="middle" x="278.5" y="-259" font-family="Helvetica,sans-Serif" font-size="10.00">Truth</text>
</a>
</g>
</g>
<!-- Node332&#45;&gt;Node337 -->
<g id="edge5" class="edge"><title>Node332&#45;&gt;Node337</title>
<path fill="none" stroke="midnightblue" d="M137.032,-267C159.354,-267 184.243,-267 206.796,-267"/>
<polygon fill="midnightblue" stroke="midnightblue" points="206.976,-270.5 216.976,-267 206.976,-263.5 206.976,-270.5"/>
</g>
<!-- Node338 -->
<g id="node7" class="node"><title>Node338</title>
<g id="a_node7"><a xlink:href="../../df/df1/a00340.html#a9b9a5a7e04b70b76d4656f9f00cd2244" target="_top" xlink:title="Try to make a new compound. ">
<polygon fill="none" stroke="black" points="208,-213.5 208,-232.5 349,-232.5 349,-213.5 208,-213.5"/>
<text text-anchor="middle" x="278.5" y="-220.5" font-family="Helvetica,sans-Serif" font-size="10.00">nars.language.Product.make</text>
</a>
</g>
</g>
<!-- Node332&#45;&gt;Node338 -->
<g id="edge6" class="edge"><title>Node332&#45;&gt;Node338</title>
<path fill="none" stroke="midnightblue" d="M132.632,-251.951C145.943,-248.893 159.917,-245.768 173,-243 186.742,-240.093 201.541,-237.148 215.556,-234.445"/>
<polygon fill="midnightblue" stroke="midnightblue" points="216.432,-237.84 225.596,-232.523 215.116,-230.965 216.432,-237.84"/>
</g>
<!-- Node347 -->
<g id="node16" class="node"><title>Node347</title>
<g id="a_node16"><a xlink:href="../../d3/db8/a00316.html#a5ccaf18d33e722f438944debb2757b34" target="_top" xlink:title="Try to make a new compound from two components. ">
<polygon fill="none" stroke="black" points="201,-175.5 201,-194.5 356,-194.5 356,-175.5 201,-175.5"/>
<text text-anchor="middle" x="278.5" y="-182.5" font-family="Helvetica,sans-Serif" font-size="10.00">nars.language.Inheritance.make</text>
</a>
</g>
</g>
<!-- Node332&#45;&gt;Node347 -->
<g id="edge16" class="edge"><title>Node332&#45;&gt;Node347</title>
<path fill="none" stroke="midnightblue" d="M89.3522,-251.839C109.382,-237.31 141.736,-215.886 173,-204 180.211,-201.258 187.856,-198.905 195.6,-196.887"/>
<polygon fill="midnightblue" stroke="midnightblue" points="196.542,-200.261 205.438,-194.506 194.895,-193.457 196.542,-200.261"/>
</g>
<!-- Node358 -->
<g id="node27" class="node"><title>Node358</title>
<g id="a_node27"><a xlink:href="../../d5/d0f/a00308.html#afb24af5cc6c098ad3f5d837fa383e69c" target="_top" xlink:title="Try to make a new ImageExt. ">
<polygon fill="none" stroke="black" points="204,-137.5 204,-156.5 353,-156.5 353,-137.5 204,-137.5"/>
<text text-anchor="middle" x="278.5" y="-144.5" font-family="Helvetica,sans-Serif" font-size="10.00">nars.language.ImageExt.make</text>
</a>
</g>
</g>
<!-- Node332&#45;&gt;Node358 -->
<g id="edge30" class="edge"><title>Node332&#45;&gt;Node358</title>
<path fill="none" stroke="midnightblue" d="M80.2666,-251.815C97.2138,-229.166 132.396,-186.959 173,-166 179.59,-162.598 186.689,-159.796 193.974,-157.49"/>
<polygon fill="midnightblue" stroke="midnightblue" points="195.331,-160.743 203.992,-154.642 193.417,-154.01 195.331,-160.743"/>
</g>
<!-- Node359 -->
<g id="node28" class="node"><title>Node359</title>
<g id="a_node28"><a xlink:href="../../d7/df2/a00312.html#ad05e4231ed31d78ad4c8b4fefbc964fa" target="_top" xlink:title="Try to make a new ImageExt. ">
<polygon fill="none" stroke="black" points="205.5,-99.5 205.5,-118.5 351.5,-118.5 351.5,-99.5 205.5,-99.5"/>
<text text-anchor="middle" x="278.5" y="-106.5" font-family="Helvetica,sans-Serif" font-size="10.00">nars.language.ImageInt.make</text>
</a>
</g>
</g>
<!-- Node332&#45;&gt;Node359 -->
<g id="edge31" class="edge"><title>Node332&#45;&gt;Node359</title>
<path fill="none" stroke="midnightblue" d="M76.0443,-251.905C89.5379,-222.73 123.402,-158.772 173,-128 179.962,-123.68 187.656,-120.288 195.617,-117.631"/>
<polygon fill="midnightblue" stroke="midnightblue" points="196.826,-120.924 205.43,-114.742 194.848,-114.209 196.826,-120.924"/>
</g>
<!-- Node360 -->
<g id="node29" class="node"><title>Node360</title>
<g id="a_node29"><a xlink:href="../../d4/d27/a00392.html#a52ef2f1fedc72d6b0bfe3a6bd000bda3" target="_top" xlink:title="Shared final operations by all single&#45;premise rules, called in StructuralRules. ">
<polygon fill="none" stroke="black" points="210,-389 210,-419 347,-419 347,-389 210,-389"/>
<text text-anchor="start" x="218" y="-407" font-family="Helvetica,sans-Serif" font-size="10.00">nars.storage.Memory.single</text>
<text text-anchor="middle" x="278.5" y="-396" font-family="Helvetica,sans-Serif" font-size="10.00">PremiseTask</text>
</a>
</g>
</g>
<!-- Node332&#45;&gt;Node360 -->
<g id="edge32" class="edge"><title>Node332&#45;&gt;Node360</title>
<path fill="none" stroke="midnightblue" d="M80.0571,-282.2C96.9869,-305.436 132.453,-349.651 173,-374 181.435,-379.065 190.767,-383.311 200.282,-386.862"/>
<polygon fill="midnightblue" stroke="midnightblue" points="199.236,-390.204 209.831,-390.186 201.537,-383.593 199.236,-390.204"/>
</g>
<!-- Node362 -->
<g id="node31" class="node"><title>Node362</title>
<g id="a_node31"><a xlink:href="../../d8/d17/a00304.html#ac81c5851f664320ddec435641f198b03" target="_top" xlink:title="get the number of components ">
<polygon fill="none" stroke="black" points="193,-61.5 193,-80.5 364,-80.5 364,-61.5 193,-61.5"/>
<text text-anchor="middle" x="278.5" y="-68.5" font-family="Helvetica,sans-Serif" font-size="10.00">nars.language.CompoundTerm.size</text>
</a>
</g>
</g>
<!-- Node332&#45;&gt;Node362 -->
<g id="edge36" class="edge"><title>Node332&#45;&gt;Node362</title>
<path fill="none" stroke="midnightblue" d="M73.5858,-251.943C83.8583,-217.174 114.239,-131.136 173,-90 176.304,-87.6867 179.807,-85.63 183.45,-83.803"/>
<polygon fill="midnightblue" stroke="midnightblue" points="185.01,-86.941 192.762,-79.7191 182.198,-80.5304 185.01,-86.941"/>
</g>
<!-- Node339 -->
<g id="node8" class="node"><title>Node339</title>
<g id="a_node8"><a xlink:href="../../d8/d17/a00304.html#a8d1e610c509fa096c6b52eb5fe06d59b" target="_top" xlink:title="default method to make the oldName of a compound term from given fields ">
<polygon fill="none" stroke="black" points="431,-301 431,-331 608,-331 608,-301 431,-301"/>
<text text-anchor="start" x="439" y="-319" font-family="Helvetica,sans-Serif" font-size="10.00">nars.language.CompoundTerm.make</text>
<text text-anchor="middle" x="519.5" y="-308" font-family="Helvetica,sans-Serif" font-size="10.00">CompoundName</text>
</a>
</g>
</g>
<!-- Node338&#45;&gt;Node339 -->
<g id="edge7" class="edge"><title>Node338&#45;&gt;Node339</title>
<path fill="none" stroke="midnightblue" d="M349.108,-228.889C361.342,-231.951 373.503,-236.445 384,-243 406.619,-257.124 397.811,-276.21 420,-291 423.12,-293.079 426.4,-294.986 429.793,-296.734"/>
<polygon fill="midnightblue" stroke="midnightblue" points="428.459,-299.973 439.004,-301 431.401,-293.621 428.459,-299.973"/>
</g>
<!-- Node342 -->
<g id="node11" class="node"><title>Node342</title>
<g id="a_node11"><a xlink:href="../../d4/d27/a00392.html#ac7c5d438820208253d1a2ee59bf80ddc" target="_top" xlink:title="Get a Term for a given name of a Concept or Operator. ">
<polygon fill="none" stroke="black" points="451.5,-164 451.5,-194 587.5,-194 587.5,-164 451.5,-164"/>
<text text-anchor="start" x="459.5" y="-182" font-family="Helvetica,sans-Serif" font-size="10.00">nars.storage.Memory.name</text>
<text text-anchor="middle" x="519.5" y="-171" font-family="Helvetica,sans-Serif" font-size="10.00">ToListedTerm</text>
</a>
</g>
</g>
<!-- Node338&#45;&gt;Node342 -->
<g id="edge11" class="edge"><title>Node338&#45;&gt;Node342</title>
<path fill="none" stroke="midnightblue" d="M332.133,-213.472C348.731,-210.456 367.134,-207.101 384,-204 402.613,-200.578 422.669,-196.865 441.466,-193.372"/>
<polygon fill="midnightblue" stroke="midnightblue" points="442.272,-196.782 451.464,-191.514 440.993,-189.9 442.272,-196.782"/>
</g>
<!-- Node346 -->
<g id="node15" class="node"><title>Node346</title>
<g id="a_node15"><a xlink:href="../../df/df1/a00340.html#a3fbcbfd961b20193e9c47309107e692b" target="_top" xlink:title="Constructor with partial values, called by make. ">
<polygon fill="none" stroke="black" points="444,-262.5 444,-281.5 595,-281.5 595,-262.5 444,-262.5"/>
<text text-anchor="middle" x="519.5" y="-269.5" font-family="Helvetica,sans-Serif" font-size="10.00">nars.language.Product.Product</text>
</a>
</g>
</g>
<!-- Node338&#45;&gt;Node346 -->
<g id="edge15" class="edge"><title>Node338&#45;&gt;Node346</title>
<path fill="none" stroke="midnightblue" d="M332.244,-232.5C348.846,-235.65 367.224,-239.301 384,-243 400.105,-246.551 403.915,-248.358 420,-252 432.748,-254.886 446.469,-257.796 459.503,-260.468"/>
<polygon fill="midnightblue" stroke="midnightblue" points="458.811,-263.899 469.307,-262.461 460.205,-257.039 458.811,-263.899"/>
</g>
<!-- Node340 -->
<g id="node9" class="node"><title>Node340</title>
<g id="a_node9"><a xlink:href="../../d8/d17/a00304.html#a89000afae8017231889aaa549292d1e0" target="_top" xlink:title="Default constructor. ">
<polygon fill="none" stroke="black" points="680,-301 680,-331 833,-331 833,-301 680,-301"/>
<text text-anchor="start" x="688" y="-319" font-family="Helvetica,sans-Serif" font-size="10.00">nars.language.CompoundTerm.</text>
<text text-anchor="middle" x="756.5" y="-308" font-family="Helvetica,sans-Serif" font-size="10.00">CompoundTerm</text>
</a>
</g>
</g>
<!-- Node339&#45;&gt;Node340 -->
<g id="edge8" class="edge"><title>Node339&#45;&gt;Node340</title>
<path fill="none" stroke="midnightblue" d="M608.005,-316C628.211,-316 649.685,-316 669.813,-316"/>
<polygon fill="midnightblue" stroke="midnightblue" points="669.886,-319.5 679.886,-316 669.886,-312.5 669.886,-319.5"/>
</g>
<!-- Node341 -->
<g id="node10" class="node"><title>Node341</title>
<g id="a_node10"><a xlink:href="../../d8/d17/a00304.html#aa26a304f6249c185836d8fde8b8f17a8" target="_top" xlink:title="default method to make the oldName of the current term from existing fields ">
<polygon fill="none" stroke="black" points="655,-350.5 655,-369.5 858,-369.5 858,-350.5 655,-350.5"/>
<text text-anchor="middle" x="756.5" y="-357.5" font-family="Helvetica,sans-Serif" font-size="10.00">nars.language.CompoundTerm.makeName</text>
</a>
</g>
</g>
<!-- Node339&#45;&gt;Node341 -->
<g id="edge9" class="edge"><title>Node339&#45;&gt;Node341</title>
<path fill="none" stroke="midnightblue" d="M608.005,-325.833C646.294,-332.483 689.136,-341 718.739,-348.052"/>
<polygon fill="midnightblue" stroke="midnightblue" points="718.082,-351.495 728.628,-350.48 719.751,-344.697 718.082,-351.495"/>
</g>
<!-- Node341&#45;&gt;Node339 -->
<g id="edge10" class="edge"><title>Node341&#45;&gt;Node339</title>
<path fill="none" stroke="midnightblue" d="M669.835,-350.485C640.278,-345.379 607.814,-339.119 580.726,-333.256"/>
<polygon fill="midnightblue" stroke="midnightblue" points="581.144,-329.764 570.625,-331.032 579.638,-336.601 581.144,-329.764"/>
</g>
<!-- Node343 -->
<g id="node12" class="node"><title>Node343</title>
<g id="a_node12"><a xlink:href="../../d4/d27/a00392.html#a33af7b3d806d32c85390563fec3c6d27" target="_top" xlink:title="Concept bag. ">
<polygon fill="none" stroke="black" points="673,-76.5 673,-95.5 840,-95.5 840,-76.5 673,-76.5"/>
<text text-anchor="middle" x="756.5" y="-83.5" font-family="Helvetica,sans-Serif" font-size="10.00">nars.storage.Memory.getConcepts</text>
</a>
</g>
</g>
<!-- Node342&#45;&gt;Node343 -->
<g id="edge12" class="edge"><title>Node342&#45;&gt;Node343</title>
<path fill="none" stroke="midnightblue" d="M587.549,-168.635C598.628,-165.1 609.562,-160.358 619,-154 641.412,-138.901 632.133,-119.4 655,-105 658.233,-102.964 661.632,-101.136 665.147,-99.4957"/>
<polygon fill="midnightblue" stroke="midnightblue" points="666.767,-102.614 674.687,-95.5769 664.107,-96.1393 666.767,-102.614"/>
</g>
<!-- Node344 -->
<g id="node13" class="node"><title>Node344</title>
<g id="a_node13"><a xlink:href="../../d6/db8/a00376.html#a011b37fc683db7fb7b41e33712a37d92" target="_top" xlink:title="Get an Item by key. ">
<polygon fill="none" stroke="black" points="703,-38.5 703,-57.5 810,-57.5 810,-38.5 703,-38.5"/>
<text text-anchor="middle" x="756.5" y="-45.5" font-family="Helvetica,sans-Serif" font-size="10.00">nars.storage.Bag.get</text>
</a>
</g>
</g>
<!-- Node342&#45;&gt;Node344 -->
<g id="edge13" class="edge"><title>Node342&#45;&gt;Node344</title>
<path fill="none" stroke="midnightblue" d="M587.677,-170.892C599.057,-167.136 610.063,-161.737 619,-154 650.639,-126.612 622.531,-93.3989 655,-67 665.754,-58.2563 679.293,-53.0782 692.919,-50.1042"/>
<polygon fill="midnightblue" stroke="midnightblue" points="693.603,-53.5373 702.818,-48.3088 692.354,-46.6497 693.603,-53.5373"/>
</g>
<!-- Node345 -->
<g id="node14" class="node"><title>Node345</title>
<g id="a_node14"><a xlink:href="../../d7/ded/a00196.html#afcd1217b7680b073fa51f0d0f159dcea" target="_top" xlink:title="The term is the unique ID of the concept. ">
<polygon fill="none" stroke="black" points="686,-0.5 686,-19.5 827,-19.5 827,-0.5 686,-0.5"/>
<text text-anchor="middle" x="756.5" y="-7.5" font-family="Helvetica,sans-Serif" font-size="10.00">nars.entity.Concept.getTerm</text>
</a>
</g>
</g>
<!-- Node342&#45;&gt;Node345 -->
<g id="edge14" class="edge"><title>Node342&#45;&gt;Node345</title>
<path fill="none" stroke="midnightblue" d="M587.647,-171.944C599.232,-168.107 610.319,-162.408 619,-154 660.526,-113.776 612.253,-67.924 655,-29 661.161,-23.3904 668.439,-19.1989 676.219,-16.094"/>
<polygon fill="midnightblue" stroke="midnightblue" points="677.559,-19.3359 685.915,-12.8234 675.321,-12.7031 677.559,-19.3359"/>
</g>
<!-- Node347&#45;&gt;Node342 -->
<g id="edge27" class="edge"><title>Node347&#45;&gt;Node342</title>
<path fill="none" stroke="midnightblue" d="M356.107,-183.077C383.227,-182.396 413.744,-181.63 440.942,-180.947"/>
<polygon fill="midnightblue" stroke="midnightblue" points="441.281,-184.44 451.19,-180.69 441.105,-177.442 441.281,-184.44"/>
</g>
<!-- Node348 -->
<g id="node17" class="node"><title>Node348</title>
<g id="a_node17"><a xlink:href="../../d0/d65/a00360.html#a96d4bf7bb99f48b6496cdb7457bc0e50" target="_top" xlink:title="Check the validity of a potential Statement. ">
<polygon fill="none" stroke="black" points="441.5,-213 441.5,-243 597.5,-243 597.5,-213 441.5,-213"/>
<text text-anchor="start" x="449.5" y="-231" font-family="Helvetica,sans-Serif" font-size="10.00">nars.language.Statement.invalid</text>
<text text-anchor="middle" x="519.5" y="-220" font-family="Helvetica,sans-Serif" font-size="10.00">Statement</text>
</a>
</g>
</g>
<!-- Node347&#45;&gt;Node348 -->
<g id="edge17" class="edge"><title>Node347&#45;&gt;Node348</title>
<path fill="none" stroke="midnightblue" d="M332.542,-194.543C361.456,-199.745 397.981,-206.317 430.991,-212.256"/>
<polygon fill="midnightblue" stroke="midnightblue" points="430.648,-215.75 441.11,-214.076 431.888,-208.861 430.648,-215.75"/>
</g>
<!-- Node355 -->
<g id="node24" class="node"><title>Node355</title>
<g id="a_node24"><a xlink:href="../../d0/d65/a00360.html#a7123aba1c8c566f291e2c9b9d147557d" target="_top" xlink:title="Default method to make the nameStr of an image term from given fields. ">
<polygon fill="none" stroke="black" points="443.5,-115 443.5,-145 595.5,-145 595.5,-115 443.5,-115"/>
<text text-anchor="start" x="451.5" y="-133" font-family="Helvetica,sans-Serif" font-size="10.00">nars.language.Statement.make</text>
<text text-anchor="middle" x="519.5" y="-122" font-family="Helvetica,sans-Serif" font-size="10.00">StatementName</text>
</a>
</g>
</g>
<!-- Node347&#45;&gt;Node355 -->
<g id="edge26" class="edge"><title>Node347&#45;&gt;Node355</title>
<path fill="none" stroke="midnightblue" d="M340.049,-175.496C354.535,-172.809 369.888,-169.615 384,-166 400.338,-161.814 403.793,-158.667 420,-154 427.636,-151.801 435.641,-149.632 443.649,-147.549"/>
<polygon fill="midnightblue" stroke="midnightblue" points="444.573,-150.926 453.393,-145.056 442.838,-144.144 444.573,-150.926"/>
</g>
<!-- Node356 -->
<g id="node25" class="node"><title>Node356</title>
<g id="a_node25"><a xlink:href="../../d3/db8/a00316.html#a20635d9d55f73d39b29a07653cde6bc6" target="_top" xlink:title="Constructor with partial values, called by make. ">
<polygon fill="none" stroke="black" points="454,-66 454,-96 585,-96 585,-66 454,-66"/>
<text text-anchor="start" x="462" y="-84" font-family="Helvetica,sans-Serif" font-size="10.00">nars.language.Inheritance.</text>
<text text-anchor="middle" x="519.5" y="-73" font-family="Helvetica,sans-Serif" font-size="10.00">Inheritance</text>
</a>
</g>
</g>
<!-- Node347&#45;&gt;Node356 -->
<g id="edge28" class="edge"><title>Node347&#45;&gt;Node356</title>
<path fill="none" stroke="midnightblue" d="M356.215,-178.98C366.111,-175.984 375.68,-171.8 384,-166 409.825,-147.998 394.718,-123.757 420,-105 427.318,-99.5703 435.705,-95.3551 444.429,-92.0854"/>
<polygon fill="midnightblue" stroke="midnightblue" points="445.615,-95.3797 453.994,-88.8957 443.4,-88.7393 445.615,-95.3797"/>
</g>
<!-- Node357 -->
<g id="node26" class="node"><title>Node357</title>
<g id="a_node26"><a xlink:href="../../d8/d17/a00304.html#a9aacee8d6903ff6eb186d37f78569353" target="_top" xlink:title="build a component list from two terms ">
<polygon fill="none" stroke="black" points="420,-17 420,-47 619,-47 619,-17 420,-17"/>
<text text-anchor="start" x="428" y="-35" font-family="Helvetica,sans-Serif" font-size="10.00">nars.language.CompoundTerm.arguments</text>
<text text-anchor="middle" x="519.5" y="-24" font-family="Helvetica,sans-Serif" font-size="10.00">ToList</text>
</a>
</g>
</g>
<!-- Node347&#45;&gt;Node357 -->
<g id="edge29" class="edge"><title>Node347&#45;&gt;Node357</title>
<path fill="none" stroke="midnightblue" d="M356.139,-181.015C366.336,-177.766 376.009,-172.969 384,-166 422.769,-132.19 382.248,-90.9415 420,-56 421.13,-54.9539 422.298,-53.9512 423.5,-52.9903"/>
<polygon fill="midnightblue" stroke="midnightblue" points="425.62,-55.7804 431.884,-47.2354 421.659,-50.0092 425.62,-55.7804"/>
</g>
<!-- Node348&#45;&gt;Node340 -->
<g id="edge20" class="edge"><title>Node348&#45;&gt;Node340</title>
<path fill="none" stroke="midnightblue" d="M597.751,-243.053C605.166,-245.832 612.38,-249.117 619,-253 639.067,-264.771 634.905,-279.277 655,-291 659.805,-293.803 664.916,-296.294 670.189,-298.506"/>
<polygon fill="midnightblue" stroke="midnightblue" points="669.235,-301.889 679.825,-302.197 671.738,-295.352 669.235,-301.889"/>
</g>
<!-- Node349 -->
<g id="node18" class="node"><title>Node349</title>
<g id="a_node18"><a xlink:href="../../dc/d59/a00364.html#ad85f45a7858737445d5158801774ff5f" target="_top" xlink:title="Equal terms have identical name, though not necessarily the same reference. ">
<polygon fill="none" stroke="black" points="689.5,-262.5 689.5,-281.5 823.5,-281.5 823.5,-262.5 689.5,-262.5"/>
<text text-anchor="middle" x="756.5" y="-269.5" font-family="Helvetica,sans-Serif" font-size="10.00">nars.language.Term.equals</text>
</a>
</g>
</g>
<!-- Node348&#45;&gt;Node349 -->
<g id="edge18" class="edge"><title>Node348&#45;&gt;Node349</title>
<path fill="none" stroke="midnightblue" d="M597.773,-242.468C629.126,-248.338 664.825,-255.022 694.321,-260.545"/>
<polygon fill="midnightblue" stroke="midnightblue" points="694.005,-264.047 704.478,-262.447 695.293,-257.166 694.005,-264.047"/>
</g>
<!-- Node351 -->
<g id="node20" class="node"><title>Node351</title>
<g id="a_node20"><a xlink:href="../../d0/d65/a00360.html#ac56b558891dd2088e0b66b437780c7b7" target="_top" xlink:title="Default constructor. ">
<polygon fill="none" stroke="black" points="692.5,-213 692.5,-243 820.5,-243 820.5,-213 692.5,-213"/>
<text text-anchor="start" x="700.5" y="-231" font-family="Helvetica,sans-Serif" font-size="10.00">nars.language.Statement.</text>
<text text-anchor="middle" x="756.5" y="-220" font-family="Helvetica,sans-Serif" font-size="10.00">Statement</text>
</a>
</g>
</g>
<!-- Node348&#45;&gt;Node351 -->
<g id="edge21" class="edge"><title>Node348&#45;&gt;Node351</title>
<path fill="none" stroke="midnightblue" d="M597.773,-228C624.938,-228 655.364,-228 682.193,-228"/>
<polygon fill="midnightblue" stroke="midnightblue" points="682.285,-231.5 692.285,-228 682.285,-224.5 682.285,-231.5"/>
</g>
<!-- Node352 -->
<g id="node21" class="node"><title>Node352</title>
<g id="a_node21"><a xlink:href="../../d0/d65/a00360.html#ace4f80751d303c613e467163913bebf5" target="_top" xlink:title="Return the first component of the statement. ">
<polygon fill="none" stroke="black" points="685.5,-164 685.5,-194 827.5,-194 827.5,-164 685.5,-164"/>
<text text-anchor="start" x="693.5" y="-182" font-family="Helvetica,sans-Serif" font-size="10.00">nars.language.Statement.get</text>
<text text-anchor="middle" x="756.5" y="-171" font-family="Helvetica,sans-Serif" font-size="10.00">Subject</text>
</a>
</g>
</g>
<!-- Node348&#45;&gt;Node352 -->
<g id="edge22" class="edge"><title>Node348&#45;&gt;Node352</title>
<path fill="none" stroke="midnightblue" d="M592.605,-212.965C618.686,-207.527 648.292,-201.354 675.045,-195.776"/>
<polygon fill="midnightblue" stroke="midnightblue" points="676.07,-199.137 685.145,-193.67 674.641,-192.285 676.07,-199.137"/>
</g>
<!-- Node354 -->
<g id="node23" class="node"><title>Node354</title>
<g id="a_node23"><a xlink:href="../../d0/d65/a00360.html#ababe6155e2f78e769f76493317e118e0" target="_top" xlink:title="Return the second component of the statement. ">
<polygon fill="none" stroke="black" points="685.5,-115 685.5,-145 827.5,-145 827.5,-115 685.5,-115"/>
<text text-anchor="start" x="693.5" y="-133" font-family="Helvetica,sans-Serif" font-size="10.00">nars.language.Statement.get</text>
<text text-anchor="middle" x="756.5" y="-122" font-family="Helvetica,sans-Serif" font-size="10.00">Predicate</text>
</a>
</g>
</g>
<!-- Node348&#45;&gt;Node354 -->
<g id="edge24" class="edge"><title>Node348&#45;&gt;Node354</title>
<path fill="none" stroke="midnightblue" d="M597.52,-214.086C605.102,-211.085 612.416,-207.436 619,-203 641.412,-187.901 632.482,-168.94 655,-154 661.269,-149.841 668.181,-146.4 675.357,-143.555"/>
<polygon fill="midnightblue" stroke="midnightblue" points="677.02,-146.678 685.271,-140.031 674.676,-140.082 677.02,-146.678"/>
</g>
<!-- Node350 -->
<g id="node19" class="node"><title>Node350</title>
<g id="a_node19"><a xlink:href="../../dc/d59/a00364.html#a3aad4654016b8615fd4fa8a26668e1db" target="_top" xlink:title="Reporting the name of the current Term. ">
<polygon fill="none" stroke="black" points="904.5,-262.5 904.5,-281.5 1050.5,-281.5 1050.5,-262.5 904.5,-262.5"/>
<text text-anchor="middle" x="977.5" y="-269.5" font-family="Helvetica,sans-Serif" font-size="10.00">nars.language.Term.getName</text>
</a>
</g>
</g>
<!-- Node349&#45;&gt;Node350 -->
<g id="edge19" class="edge"><title>Node349&#45;&gt;Node350</title>
<path fill="none" stroke="midnightblue" d="M823.504,-272C845.665,-272 870.665,-272 893.934,-272"/>
<polygon fill="midnightblue" stroke="midnightblue" points="894.136,-275.5 904.136,-272 894.136,-268.5 894.136,-275.5"/>
</g>
<!-- Node353 -->
<g id="node22" class="node"><title>Node353</title>
<g id="a_node22"><a xlink:href="../../d8/d17/a00304.html#a9778c35f9b602bee6ccac6a06809e546" target="_top" xlink:title="list of (direct) components ">
<polygon fill="none" stroke="black" points="894,-140 894,-170 1061,-170 1061,-140 894,-140"/>
<text text-anchor="start" x="902" y="-158" font-family="Helvetica,sans-Serif" font-size="10.00">nars.language.CompoundTerm.get</text>
<text text-anchor="middle" x="977.5" y="-147" font-family="Helvetica,sans-Serif" font-size="10.00">Components</text>
</a>
</g>
</g>
<!-- Node352&#45;&gt;Node353 -->
<g id="edge23" class="edge"><title>Node352&#45;&gt;Node353</title>
<path fill="none" stroke="midnightblue" d="M827.697,-171.307C845.513,-169.355 864.93,-167.227 883.679,-165.172"/>
<polygon fill="midnightblue" stroke="midnightblue" points="884.151,-168.641 893.71,-164.073 883.389,-161.683 884.151,-168.641"/>
</g>
<!-- Node354&#45;&gt;Node353 -->
<g id="edge25" class="edge"><title>Node354&#45;&gt;Node353</title>
<path fill="none" stroke="midnightblue" d="M827.697,-138.013C845.513,-140.047 864.93,-142.264 883.679,-144.404"/>
<polygon fill="midnightblue" stroke="midnightblue" points="883.378,-147.892 893.71,-145.549 884.172,-140.937 883.378,-147.892"/>
</g>
<!-- Node360&#45;&gt;Node334 -->
<g id="edge33" class="edge"><title>Node360&#45;&gt;Node334</title>
<path fill="none" stroke="midnightblue" d="M347.029,-416.432C381.431,-422.766 422.969,-430.413 456.545,-436.594"/>
<polygon fill="midnightblue" stroke="midnightblue" points="456.224,-440.094 466.693,-438.462 457.492,-433.209 456.224,-440.094"/>
</g>
<!-- Node360&#45;&gt;Node336 -->
<g id="edge34" class="edge"><title>Node360&#45;&gt;Node336</title>
<path fill="none" stroke="midnightblue" d="M347.029,-391.568C381.431,-385.234 422.969,-377.587 456.545,-371.406"/>
<polygon fill="midnightblue" stroke="midnightblue" points="457.492,-374.791 466.693,-369.538 456.224,-367.906 457.492,-374.791"/>
</g>
<!-- Node361 -->
<g id="node30" class="node"><title>Node361</title>
<g id="a_node30"><a xlink:href="../../dd/dc1/a00212.html#a68b153a51a5db6a4127b66158227697f" target="_top" xlink:title="The punctuation also indicates the type of the Sentence: Judgment, Question, or Goal. ">
<polygon fill="none" stroke="black" points="458,-389 458,-419 581,-419 581,-389 458,-389"/>
<text text-anchor="start" x="466" y="-407" font-family="Helvetica,sans-Serif" font-size="10.00">nars.entity.Sentence.get</text>
<text text-anchor="middle" x="519.5" y="-396" font-family="Helvetica,sans-Serif" font-size="10.00">Punctuation</text>
</a>
</g>
</g>
<!-- Node360&#45;&gt;Node361 -->
<g id="edge35" class="edge"><title>Node360&#45;&gt;Node361</title>
<path fill="none" stroke="midnightblue" d="M347.029,-404C378.418,-404 415.747,-404 447.549,-404"/>
<polygon fill="midnightblue" stroke="midnightblue" points="447.666,-407.5 457.666,-404 447.666,-400.5 447.666,-407.5"/>
</g>
</g>
</svg>
        <g id="navigator" transform="translate(0 0)" fill="#404254">
                <rect fill="#f2f5e9" fill-opacity="0.5" stroke="#606060" stroke-width=".5" x="0" y="0" width="60" height="60"/>
                <use id="zoomplus" xlink:href="#zoomPlus" x="17" y="9" onmousedown="handleZoom(evt,'in')"/>
                <use id="zoomminus" xlink:href="#zoomMin" x="42" y="9" onmousedown="handleZoom(evt,'out')"/>
                <use id="reset" xlink:href="#resetDef" x="30" y="36" onmousedown="handleReset()"/>
                <g id="arrowUp" xlink:href="#dirArrow" transform="translate(30 24)" onmousedown="handlePan(0,-1)">
                  <use xlink:href="#rim" fill="#404040">
                        <set attributeName="fill" to="#808080" begin="arrowUp.mouseover" end="arrowUp.mouseout"/>
                  </use>
                  <path fill="none" stroke="white" stroke-width="1.5" d="M0,-3.0v7 M-2.5,-0.5L0,-3.0L2.5,-0.5"/>
                </g>
                <g id="arrowRight" xlink:href="#dirArrow" transform="rotate(90) translate(36 -43)" onmousedown="handlePan(1,0)">
                  <use xlink:href="#rim" fill="#404040">
                        <set attributeName="fill" to="#808080" begin="arrowRight.mouseover" end="arrowRight.mouseout"/>
                  </use>
                  <path fill="none" stroke="white" stroke-width="1.5" d="M0,-3.0v7 M-2.5,-0.5L0,-3.0L2.5,-0.5"/>
                </g>
                <g id="arrowDown" xlink:href="#dirArrow" transform="rotate(180) translate(-30 -48)" onmousedown="handlePan(0,1)">
                  <use xlink:href="#rim" fill="#404040">
                        <set attributeName="fill" to="#808080" begin="arrowDown.mouseover" end="arrowDown.mouseout"/>
                  </use>
                  <path fill="none" stroke="white" stroke-width="1.5" d="M0,-3.0v7 M-2.5,-0.5L0,-3.0L2.5,-0.5"/>
                </g>
                <g id="arrowLeft" xlink:href="#dirArrow" transform="rotate(270) translate(-36 17)" onmousedown="handlePan(-1,0)">
                  <use xlink:href="#rim" fill="#404040">
                        <set attributeName="fill" to="#808080" begin="arrowLeft.mouseover" end="arrowLeft.mouseout"/>
                  </use>
                  <path fill="none" stroke="white" stroke-width="1.5" d="M0,-3.0v7 M-2.5,-0.5L0,-3.0L2.5,-0.5"/>
                </g>
        </g>
        <svg viewBox="0 0 15 15" width="100%" height="30px" preserveAspectRatio="xMaxYMin meet">
         <g id="arrow_out" transform="scale(0.3 0.3)">
          <a xlink:href="a00256_ad34f61108459aea34b27a7547ac4ba48_cgraph_org.svg" target="_base">
           <rect id="button" ry="5" rx="5" y="6" x="6" height="38" width="38"
                fill="#f2f5e9" fill-opacity="0.5" stroke="#606060" stroke-width="1.0"/>
           <path id="arrow"
             d="M 11.500037,31.436501 C 11.940474,20.09759 22.043105,11.32322 32.158766,21.979434 L 37.068811,17.246167 C 37.068811,17.246167 37.088388,32 37.088388,32 L 22.160133,31.978069 C 22.160133,31.978069 26.997745,27.140456 26.997745,27.140456 C 18.528582,18.264221 13.291696,25.230495 11.500037,31.436501 z"
             style="fill:#404040;"/>
          </a>
         </g>
        </svg>
</svg>
