<?xml version="1.0" encoding="UTF-8" standalone="no"?>
<!DOCTYPE svg PUBLIC "-//W3C//DTD SVG 1.1//EN"
 "http://www.w3.org/Graphics/SVG/1.1/DTD/svg11.dtd">
<!-- Generated by graphviz version 2.38.0 (20140413.2041)
 -->
<!-- Title: nars.inference.StructuralRules.transformSubjectPI Pages: 1 -->
<!--zoomable 504 -->
<svg id="main" version="1.1" xmlns="http://www.w3.org/2000/svg" xmlns:xlink="http://www.w3.org/1999/xlink" xml:space="preserve" onload="init(evt)">
<style type="text/css"><![CDATA[
.edge:hover path { stroke: red; }
.edge:hover polygon { stroke: red; fill: red; }
]]></style>
<script type="text/javascript"><![CDATA[
var edges = document.getElementsByTagName('g');
if (edges && edges.length) {
  for (var i=0;i<edges.length;i++) {
    if (edges[i].id.substr(0,4)=='edge') {
      edges[i].setAttribute('class','edge');
    }
  }
}
]]></script>
        <defs>
                <circle id="rim" cx="0" cy="0" r="7"/>
                <circle id="rim2" cx="0" cy="0" r="3.5"/>
                <g id="zoomPlus">
                        <use xlink:href="#rim" fill="#404040">
                                <set attributeName="fill" to="#808080" begin="zoomplus.mouseover" end="zoomplus.mouseout"/>
                        </use>
                        <path d="M-4,0h8M0,-4v8" fill="none" stroke="white" stroke-width="1.5" pointer-events="none"/>
                </g>
                <g id="zoomMin">
                        <use xlink:href="#rim" fill="#404040">
                                <set attributeName="fill" to="#808080" begin="zoomminus.mouseover" end="zoomminus.mouseout"/>
                        </use>
                        <path d="M-4,0h8" fill="none" stroke="white" stroke-width="1.5" pointer-events="none"/>
                </g>
                <g id="dirArrow">
                        <path fill="none" stroke="white" stroke-width="1.5" d="M0,-3.0v7 M-2.5,-0.5L0,-3.0L2.5,-0.5"/>
                </g>
               <g id="resetDef">
                       <use xlink:href="#rim2" fill="#404040">
                               <set attributeName="fill" to="#808080" begin="reset.mouseover" end="reset.mouseout"/>
                       </use>
               </g>
        </defs>

<script type="text/javascript">
var viewWidth = 1061;
var viewHeight = 504;
var sectionId = 'dynsection-18';
</script>
<script xlink:href="../../svgpan.js"/>
<svg id="graph" class="graph">
<g id="viewport">
<title>nars.inference.StructuralRules.transformSubjectPI</title>
<!-- Node433 -->
<g id="node1" class="node"><title>Node433</title>
<polygon fill="#bfbfbf" stroke="black" points="0,-252 0,-282 129,-282 129,-252 0,-252"/>
<text text-anchor="start" x="8" y="-270" font-family="Helvetica,sans-Serif" font-size="10.00">nars.inference.Structural</text>
<text text-anchor="middle" x="64.5" y="-259" font-family="Helvetica,sans-Serif" font-size="10.00">Rules.transformSubjectPI</text>
</g>
<!-- Node434 -->
<g id="node2" class="node"><title>Node434</title>
<g id="a_node2"><a xlink:href="../../d8/d17/a00304.html#acedae916705e9fa1669391a7d728b840" target="_top" xlink:title="get a component by index ">
<polygon fill="none" stroke="black" points="165,-476.5 165,-495.5 376,-495.5 376,-476.5 165,-476.5"/>
<text text-anchor="middle" x="270.5" y="-483.5" font-family="Helvetica,sans-Serif" font-size="10.00">nars.language.CompoundTerm.componentAt</text>
</a>
</g>
</g>
<!-- Node433&#45;&gt;Node434 -->
<g id="edge1" class="edge"><title>Node433&#45;&gt;Node434</title>
<path fill="none" stroke="midnightblue" d="M68.6427,-282.238C77.111,-319.27 104.011,-414.435 165,-462 170.424,-466.23 176.46,-469.739 182.817,-472.647"/>
<polygon fill="midnightblue" stroke="midnightblue" points="181.746,-475.989 192.328,-476.492 184.369,-469.499 181.746,-475.989"/>
</g>
<!-- Node435 -->
<g id="node3" class="node"><title>Node435</title>
<g id="a_node3"><a xlink:href="../../d4/d27/a00392.html#a26eda4f00b333b706b4e3d069fdf1508" target="_top" xlink:title="The selected Task. ">
<polygon fill="none" stroke="black" points="422,-438.5 422,-457.5 601,-457.5 601,-438.5 422,-438.5"/>
<text text-anchor="middle" x="511.5" y="-445.5" font-family="Helvetica,sans-Serif" font-size="10.00">nars.storage.Memory.getCurrentTask</text>
</a>
</g>
</g>
<!-- Node433&#45;&gt;Node435 -->
<g id="edge2" class="edge"><title>Node433&#45;&gt;Node435</title>
<path fill="none" stroke="midnightblue" d="M69.5603,-282.013C79.4615,-315.337 108.295,-395.204 165,-429 205.207,-452.963 324.483,-454.793 411.67,-452.556"/>
<polygon fill="midnightblue" stroke="midnightblue" points="411.969,-456.049 421.868,-452.272 411.775,-449.052 411.969,-456.049"/>
</g>
<!-- Node436 -->
<g id="node4" class="node"><title>Node436</title>
<g id="a_node4"><a xlink:href="../../d7/df2/a00312.html#a4aa7841fe7d6622f6ad2e39c74b5854d" target="_top" xlink:title="get the index of the relation in the component list ">
<polygon fill="none" stroke="black" points="203,-301 203,-331 338,-331 338,-301 203,-301"/>
<text text-anchor="start" x="211" y="-319" font-family="Helvetica,sans-Serif" font-size="10.00">nars.language.ImageInt.get</text>
<text text-anchor="middle" x="270.5" y="-308" font-family="Helvetica,sans-Serif" font-size="10.00">RelationIndex</text>
</a>
</g>
</g>
<!-- Node433&#45;&gt;Node436 -->
<g id="edge3" class="edge"><title>Node433&#45;&gt;Node436</title>
<path fill="none" stroke="midnightblue" d="M124.378,-282.005C137.722,-285.347 151.839,-288.836 165,-292 174.134,-294.196 183.728,-296.459 193.246,-298.677"/>
<polygon fill="midnightblue" stroke="midnightblue" points="192.582,-302.116 203.115,-300.968 194.165,-295.298 192.582,-302.116"/>
</g>
<!-- Node437 -->
<g id="node5" class="node"><title>Node437</title>
<g id="a_node5"><a xlink:href="../../d5/ddf/a00224.html#ab140cb553a6cf40b07093d1df283567f" target="_top" xlink:title="The sentence of the Task. ">
<polygon fill="none" stroke="black" points="439,-350.5 439,-369.5 584,-369.5 584,-350.5 439,-350.5"/>
<text text-anchor="middle" x="511.5" y="-357.5" font-family="Helvetica,sans-Serif" font-size="10.00">nars.entity.Task.getSentence</text>
</a>
</g>
</g>
<!-- Node433&#45;&gt;Node437 -->
<g id="edge4" class="edge"><title>Node433&#45;&gt;Node437</title>
<path fill="none" stroke="midnightblue" d="M79.9913,-282.227C98.0009,-300.001 130.586,-328.547 165,-341 251.01,-372.124 356.93,-372.946 428.649,-368.501"/>
<polygon fill="midnightblue" stroke="midnightblue" points="429.232,-371.97 438.976,-367.81 428.764,-364.986 429.232,-371.97"/>
</g>
<!-- Node438 -->
<g id="node6" class="node"><title>Node438</title>
<g id="a_node6"><a xlink:href="../../dd/dc1/a00212.html#a9f69b4fef64c81abad21404946cd41f9" target="_top" xlink:title="The truth value of Judgment. ">
<polygon fill="none" stroke="black" points="209,-252 209,-282 332,-282 332,-252 209,-252"/>
<text text-anchor="start" x="217" y="-270" font-family="Helvetica,sans-Serif" font-size="10.00">nars.entity.Sentence.get</text>
<text text-anchor="middle" x="270.5" y="-259" font-family="Helvetica,sans-Serif" font-size="10.00">Truth</text>
</a>
</g>
</g>
<!-- Node433&#45;&gt;Node438 -->
<g id="edge5" class="edge"><title>Node433&#45;&gt;Node438</title>
<path fill="none" stroke="midnightblue" d="M129.208,-267C151.207,-267 175.987,-267 198.531,-267"/>
<polygon fill="midnightblue" stroke="midnightblue" points="198.714,-270.5 208.714,-267 198.714,-263.5 198.714,-270.5"/>
</g>
<!-- Node439 -->
<g id="node7" class="node"><title>Node439</title>
<g id="a_node7"><a xlink:href="../../df/df1/a00340.html#a9b9a5a7e04b70b76d4656f9f00cd2244" target="_top" xlink:title="Try to make a new compound. ">
<polygon fill="none" stroke="black" points="200,-213.5 200,-232.5 341,-232.5 341,-213.5 200,-213.5"/>
<text text-anchor="middle" x="270.5" y="-220.5" font-family="Helvetica,sans-Serif" font-size="10.00">nars.language.Product.make</text>
</a>
</g>
</g>
<!-- Node433&#45;&gt;Node439 -->
<g id="edge6" class="edge"><title>Node433&#45;&gt;Node439</title>
<path fill="none" stroke="midnightblue" d="M125.905,-251.943C138.782,-248.87 152.321,-245.741 165,-243 178.584,-240.064 193.21,-237.126 207.091,-234.441"/>
<polygon fill="midnightblue" stroke="midnightblue" points="207.88,-237.853 217.043,-232.534 206.563,-230.978 207.88,-237.853"/>
</g>
<!-- Node448 -->
<g id="node16" class="node"><title>Node448</title>
<g id="a_node16"><a xlink:href="../../d3/db8/a00316.html#a5ccaf18d33e722f438944debb2757b34" target="_top" xlink:title="Try to make a new compound from two components. ">
<polygon fill="none" stroke="black" points="193,-175.5 193,-194.5 348,-194.5 348,-175.5 193,-175.5"/>
<text text-anchor="middle" x="270.5" y="-182.5" font-family="Helvetica,sans-Serif" font-size="10.00">nars.language.Inheritance.make</text>
</a>
</g>
</g>
<!-- Node433&#45;&gt;Node448 -->
<g id="edge16" class="edge"><title>Node433&#45;&gt;Node448</title>
<path fill="none" stroke="midnightblue" d="M84.4867,-251.811C103.668,-237.261 134.717,-215.821 165,-204 171.927,-201.296 179.265,-198.972 186.713,-196.976"/>
<polygon fill="midnightblue" stroke="midnightblue" points="187.679,-200.343 196.541,-194.537 185.993,-193.549 187.679,-200.343"/>
</g>
<!-- Node459 -->
<g id="node27" class="node"><title>Node459</title>
<g id="a_node27"><a xlink:href="../../d5/d0f/a00308.html#afb24af5cc6c098ad3f5d837fa383e69c" target="_top" xlink:title="Try to make a new ImageExt. ">
<polygon fill="none" stroke="black" points="196,-137.5 196,-156.5 345,-156.5 345,-137.5 196,-137.5"/>
<text text-anchor="middle" x="270.5" y="-144.5" font-family="Helvetica,sans-Serif" font-size="10.00">nars.language.ImageExt.make</text>
</a>
</g>
</g>
<!-- Node433&#45;&gt;Node459 -->
<g id="edge30" class="edge"><title>Node433&#45;&gt;Node459</title>
<path fill="none" stroke="midnightblue" d="M75.7079,-251.81C91.8139,-229.154 125.397,-186.939 165,-166 171.556,-162.534 178.632,-159.687 185.901,-157.352"/>
<polygon fill="midnightblue" stroke="midnightblue" points="187.262,-160.603 195.905,-154.474 185.327,-153.875 187.262,-160.603"/>
</g>
<!-- Node460 -->
<g id="node28" class="node"><title>Node460</title>
<g id="a_node28"><a xlink:href="../../d7/df2/a00312.html#ad05e4231ed31d78ad4c8b4fefbc964fa" target="_top" xlink:title="Try to make a new ImageExt. ">
<polygon fill="none" stroke="black" points="197.5,-99.5 197.5,-118.5 343.5,-118.5 343.5,-99.5 197.5,-99.5"/>
<text text-anchor="middle" x="270.5" y="-106.5" font-family="Helvetica,sans-Serif" font-size="10.00">nars.language.ImageInt.make</text>
</a>
</g>
</g>
<!-- Node433&#45;&gt;Node460 -->
<g id="edge31" class="edge"><title>Node433&#45;&gt;Node460</title>
<path fill="none" stroke="midnightblue" d="M71.6233,-251.912C84.301,-222.749 116.364,-158.811 165,-128 171.921,-123.615 179.588,-120.18 187.534,-117.497"/>
<polygon fill="midnightblue" stroke="midnightblue" points="188.743,-120.789 197.331,-114.584 186.749,-114.079 188.743,-120.789"/>
</g>
<!-- Node461 -->
<g id="node29" class="node"><title>Node461</title>
<g id="a_node29"><a xlink:href="../../d4/d27/a00392.html#a52ef2f1fedc72d6b0bfe3a6bd000bda3" target="_top" xlink:title="Shared final operations by all single&#45;premise rules, called in StructuralRules. ">
<polygon fill="none" stroke="black" points="202,-389 202,-419 339,-419 339,-389 202,-389"/>
<text text-anchor="start" x="210" y="-407" font-family="Helvetica,sans-Serif" font-size="10.00">nars.storage.Memory.single</text>
<text text-anchor="middle" x="270.5" y="-396" font-family="Helvetica,sans-Serif" font-size="10.00">PremiseTask</text>
</a>
</g>
</g>
<!-- Node433&#45;&gt;Node461 -->
<g id="edge32" class="edge"><title>Node433&#45;&gt;Node461</title>
<path fill="none" stroke="midnightblue" d="M75.5076,-282.215C91.5937,-305.471 125.44,-349.711 165,-374 173.445,-379.185 182.821,-383.505 192.391,-387.097"/>
<polygon fill="midnightblue" stroke="midnightblue" points="191.404,-390.459 201.999,-390.451 193.711,-383.85 191.404,-390.459"/>
</g>
<!-- Node463 -->
<g id="node31" class="node"><title>Node463</title>
<g id="a_node31"><a xlink:href="../../d8/d17/a00304.html#ac81c5851f664320ddec435641f198b03" target="_top" xlink:title="get the number of components ">
<polygon fill="none" stroke="black" points="185,-61.5 185,-80.5 356,-80.5 356,-61.5 185,-61.5"/>
<text text-anchor="middle" x="270.5" y="-68.5" font-family="Helvetica,sans-Serif" font-size="10.00">nars.language.CompoundTerm.size</text>
</a>
</g>
</g>
<!-- Node433&#45;&gt;Node463 -->
<g id="edge36" class="edge"><title>Node433&#45;&gt;Node463</title>
<path fill="none" stroke="midnightblue" d="M69.244,-251.955C78.7276,-217.214 107.158,-131.23 165,-90 168.326,-87.6294 171.858,-85.5268 175.537,-83.6636"/>
<polygon fill="midnightblue" stroke="midnightblue" points="177.213,-86.7497 184.947,-79.5087 174.385,-80.3461 177.213,-86.7497"/>
</g>
<!-- Node440 -->
<g id="node8" class="node"><title>Node440</title>
<g id="a_node8"><a xlink:href="../../d8/d17/a00304.html#a8d1e610c509fa096c6b52eb5fe06d59b" target="_top" xlink:title="default method to make the oldName of a compound term from given fields ">
<polygon fill="none" stroke="black" points="423,-301 423,-331 600,-331 600,-301 423,-301"/>
<text text-anchor="start" x="431" y="-319" font-family="Helvetica,sans-Serif" font-size="10.00">nars.language.CompoundTerm.make</text>
<text text-anchor="middle" x="511.5" y="-308" font-family="Helvetica,sans-Serif" font-size="10.00">CompoundName</text>
</a>
</g>
</g>
<!-- Node439&#45;&gt;Node440 -->
<g id="edge7" class="edge"><title>Node439&#45;&gt;Node440</title>
<path fill="none" stroke="midnightblue" d="M341.108,-228.889C353.342,-231.951 365.503,-236.445 376,-243 398.619,-257.124 389.811,-276.21 412,-291 415.12,-293.079 418.4,-294.986 421.793,-296.734"/>
<polygon fill="midnightblue" stroke="midnightblue" points="420.459,-299.973 431.004,-301 423.401,-293.621 420.459,-299.973"/>
</g>
<!-- Node443 -->
<g id="node11" class="node"><title>Node443</title>
<g id="a_node11"><a xlink:href="../../d4/d27/a00392.html#ac7c5d438820208253d1a2ee59bf80ddc" target="_top" xlink:title="Get a Term for a given name of a Concept or Operator. ">
<polygon fill="none" stroke="black" points="443.5,-164 443.5,-194 579.5,-194 579.5,-164 443.5,-164"/>
<text text-anchor="start" x="451.5" y="-182" font-family="Helvetica,sans-Serif" font-size="10.00">nars.storage.Memory.name</text>
<text text-anchor="middle" x="511.5" y="-171" font-family="Helvetica,sans-Serif" font-size="10.00">ToListedTerm</text>
</a>
</g>
</g>
<!-- Node439&#45;&gt;Node443 -->
<g id="edge11" class="edge"><title>Node439&#45;&gt;Node443</title>
<path fill="none" stroke="midnightblue" d="M324.133,-213.472C340.731,-210.456 359.134,-207.101 376,-204 394.613,-200.578 414.669,-196.865 433.466,-193.372"/>
<polygon fill="midnightblue" stroke="midnightblue" points="434.272,-196.782 443.464,-191.514 432.993,-189.9 434.272,-196.782"/>
</g>
<!-- Node447 -->
<g id="node15" class="node"><title>Node447</title>
<g id="a_node15"><a xlink:href="../../df/df1/a00340.html#a3fbcbfd961b20193e9c47309107e692b" target="_top" xlink:title="Constructor with partial values, called by make. ">
<polygon fill="none" stroke="black" points="436,-262.5 436,-281.5 587,-281.5 587,-262.5 436,-262.5"/>
<text text-anchor="middle" x="511.5" y="-269.5" font-family="Helvetica,sans-Serif" font-size="10.00">nars.language.Product.Product</text>
</a>
</g>
</g>
<!-- Node439&#45;&gt;Node447 -->
<g id="edge15" class="edge"><title>Node439&#45;&gt;Node447</title>
<path fill="none" stroke="midnightblue" d="M324.244,-232.5C340.846,-235.65 359.224,-239.301 376,-243 392.105,-246.551 395.915,-248.358 412,-252 424.748,-254.886 438.469,-257.796 451.503,-260.468"/>
<polygon fill="midnightblue" stroke="midnightblue" points="450.811,-263.899 461.307,-262.461 452.205,-257.039 450.811,-263.899"/>
</g>
<!-- Node441 -->
<g id="node9" class="node"><title>Node441</title>
<g id="a_node9"><a xlink:href="../../d8/d17/a00304.html#a89000afae8017231889aaa549292d1e0" target="_top" xlink:title="Default constructor. ">
<polygon fill="none" stroke="black" points="672,-301 672,-331 825,-331 825,-301 672,-301"/>
<text text-anchor="start" x="680" y="-319" font-family="Helvetica,sans-Serif" font-size="10.00">nars.language.CompoundTerm.</text>
<text text-anchor="middle" x="748.5" y="-308" font-family="Helvetica,sans-Serif" font-size="10.00">CompoundTerm</text>
</a>
</g>
</g>
<!-- Node440&#45;&gt;Node441 -->
<g id="edge8" class="edge"><title>Node440&#45;&gt;Node441</title>
<path fill="none" stroke="midnightblue" d="M600.005,-316C620.211,-316 641.685,-316 661.813,-316"/>
<polygon fill="midnightblue" stroke="midnightblue" points="661.886,-319.5 671.886,-316 661.886,-312.5 661.886,-319.5"/>
</g>
<!-- Node442 -->
<g id="node10" class="node"><title>Node442</title>
<g id="a_node10"><a xlink:href="../../d8/d17/a00304.html#aa26a304f6249c185836d8fde8b8f17a8" target="_top" xlink:title="default method to make the oldName of the current term from existing fields ">
<polygon fill="none" stroke="black" points="647,-350.5 647,-369.5 850,-369.5 850,-350.5 647,-350.5"/>
<text text-anchor="middle" x="748.5" y="-357.5" font-family="Helvetica,sans-Serif" font-size="10.00">nars.language.CompoundTerm.makeName</text>
</a>
</g>
</g>
<!-- Node440&#45;&gt;Node442 -->
<g id="edge9" class="edge"><title>Node440&#45;&gt;Node442</title>
<path fill="none" stroke="midnightblue" d="M600.005,-325.833C638.294,-332.483 681.136,-341 710.739,-348.052"/>
<polygon fill="midnightblue" stroke="midnightblue" points="710.082,-351.495 720.628,-350.48 711.751,-344.697 710.082,-351.495"/>
</g>
<!-- Node442&#45;&gt;Node440 -->
<g id="edge10" class="edge"><title>Node442&#45;&gt;Node440</title>
<path fill="none" stroke="midnightblue" d="M661.835,-350.485C632.278,-345.379 599.814,-339.119 572.726,-333.256"/>
<polygon fill="midnightblue" stroke="midnightblue" points="573.144,-329.764 562.625,-331.032 571.638,-336.601 573.144,-329.764"/>
</g>
<!-- Node444 -->
<g id="node12" class="node"><title>Node444</title>
<g id="a_node12"><a xlink:href="../../d4/d27/a00392.html#a33af7b3d806d32c85390563fec3c6d27" target="_top" xlink:title="Concept bag. ">
<polygon fill="none" stroke="black" points="665,-76.5 665,-95.5 832,-95.5 832,-76.5 665,-76.5"/>
<text text-anchor="middle" x="748.5" y="-83.5" font-family="Helvetica,sans-Serif" font-size="10.00">nars.storage.Memory.getConcepts</text>
</a>
</g>
</g>
<!-- Node443&#45;&gt;Node444 -->
<g id="edge12" class="edge"><title>Node443&#45;&gt;Node444</title>
<path fill="none" stroke="midnightblue" d="M579.549,-168.635C590.628,-165.1 601.562,-160.358 611,-154 633.412,-138.901 624.133,-119.4 647,-105 650.233,-102.964 653.632,-101.136 657.147,-99.4957"/>
<polygon fill="midnightblue" stroke="midnightblue" points="658.767,-102.614 666.687,-95.5769 656.107,-96.1393 658.767,-102.614"/>
</g>
<!-- Node445 -->
<g id="node13" class="node"><title>Node445</title>
<g id="a_node13"><a xlink:href="../../d6/db8/a00376.html#a011b37fc683db7fb7b41e33712a37d92" target="_top" xlink:title="Get an Item by key. ">
<polygon fill="none" stroke="black" points="695,-38.5 695,-57.5 802,-57.5 802,-38.5 695,-38.5"/>
<text text-anchor="middle" x="748.5" y="-45.5" font-family="Helvetica,sans-Serif" font-size="10.00">nars.storage.Bag.get</text>
</a>
</g>
</g>
<!-- Node443&#45;&gt;Node445 -->
<g id="edge13" class="edge"><title>Node443&#45;&gt;Node445</title>
<path fill="none" stroke="midnightblue" d="M579.677,-170.892C591.057,-167.136 602.063,-161.737 611,-154 642.639,-126.612 614.531,-93.3989 647,-67 657.754,-58.2563 671.293,-53.0782 684.919,-50.1042"/>
<polygon fill="midnightblue" stroke="midnightblue" points="685.603,-53.5373 694.818,-48.3088 684.354,-46.6497 685.603,-53.5373"/>
</g>
<!-- Node446 -->
<g id="node14" class="node"><title>Node446</title>
<g id="a_node14"><a xlink:href="../../d7/ded/a00196.html#afcd1217b7680b073fa51f0d0f159dcea" target="_top" xlink:title="The term is the unique ID of the concept. ">
<polygon fill="none" stroke="black" points="678,-0.5 678,-19.5 819,-19.5 819,-0.5 678,-0.5"/>
<text text-anchor="middle" x="748.5" y="-7.5" font-family="Helvetica,sans-Serif" font-size="10.00">nars.entity.Concept.getTerm</text>
</a>
</g>
</g>
<!-- Node443&#45;&gt;Node446 -->
<g id="edge14" class="edge"><title>Node443&#45;&gt;Node446</title>
<path fill="none" stroke="midnightblue" d="M579.647,-171.944C591.232,-168.107 602.319,-162.408 611,-154 652.526,-113.776 604.253,-67.924 647,-29 653.161,-23.3904 660.439,-19.1989 668.219,-16.094"/>
<polygon fill="midnightblue" stroke="midnightblue" points="669.559,-19.3359 677.915,-12.8234 667.321,-12.7031 669.559,-19.3359"/>
</g>
<!-- Node448&#45;&gt;Node443 -->
<g id="edge27" class="edge"><title>Node448&#45;&gt;Node443</title>
<path fill="none" stroke="midnightblue" d="M348.107,-183.077C375.227,-182.396 405.744,-181.63 432.942,-180.947"/>
<polygon fill="midnightblue" stroke="midnightblue" points="433.281,-184.44 443.19,-180.69 433.105,-177.442 433.281,-184.44"/>
</g>
<!-- Node449 -->
<g id="node17" class="node"><title>Node449</title>
<g id="a_node17"><a xlink:href="../../d0/d65/a00360.html#a96d4bf7bb99f48b6496cdb7457bc0e50" target="_top" xlink:title="Check the validity of a potential Statement. ">
<polygon fill="none" stroke="black" points="433.5,-213 433.5,-243 589.5,-243 589.5,-213 433.5,-213"/>
<text text-anchor="start" x="441.5" y="-231" font-family="Helvetica,sans-Serif" font-size="10.00">nars.language.Statement.invalid</text>
<text text-anchor="middle" x="511.5" y="-220" font-family="Helvetica,sans-Serif" font-size="10.00">Statement</text>
</a>
</g>
</g>
<!-- Node448&#45;&gt;Node449 -->
<g id="edge17" class="edge"><title>Node448&#45;&gt;Node449</title>
<path fill="none" stroke="midnightblue" d="M324.542,-194.543C353.456,-199.745 389.981,-206.317 422.991,-212.256"/>
<polygon fill="midnightblue" stroke="midnightblue" points="422.648,-215.75 433.11,-214.076 423.888,-208.861 422.648,-215.75"/>
</g>
<!-- Node456 -->
<g id="node24" class="node"><title>Node456</title>
<g id="a_node24"><a xlink:href="../../d0/d65/a00360.html#a7123aba1c8c566f291e2c9b9d147557d" target="_top" xlink:title="Default method to make the nameStr of an image term from given fields. ">
<polygon fill="none" stroke="black" points="435.5,-115 435.5,-145 587.5,-145 587.5,-115 435.5,-115"/>
<text text-anchor="start" x="443.5" y="-133" font-family="Helvetica,sans-Serif" font-size="10.00">nars.language.Statement.make</text>
<text text-anchor="middle" x="511.5" y="-122" font-family="Helvetica,sans-Serif" font-size="10.00">StatementName</text>
</a>
</g>
</g>
<!-- Node448&#45;&gt;Node456 -->
<g id="edge26" class="edge"><title>Node448&#45;&gt;Node456</title>
<path fill="none" stroke="midnightblue" d="M332.049,-175.496C346.535,-172.809 361.888,-169.615 376,-166 392.338,-161.814 395.793,-158.667 412,-154 419.636,-151.801 427.641,-149.632 435.649,-147.549"/>
<polygon fill="midnightblue" stroke="midnightblue" points="436.573,-150.926 445.393,-145.056 434.838,-144.144 436.573,-150.926"/>
</g>
<!-- Node457 -->
<g id="node25" class="node"><title>Node457</title>
<g id="a_node25"><a xlink:href="../../d3/db8/a00316.html#a20635d9d55f73d39b29a07653cde6bc6" target="_top" xlink:title="Constructor with partial values, called by make. ">
<polygon fill="none" stroke="black" points="446,-66 446,-96 577,-96 577,-66 446,-66"/>
<text text-anchor="start" x="454" y="-84" font-family="Helvetica,sans-Serif" font-size="10.00">nars.language.Inheritance.</text>
<text text-anchor="middle" x="511.5" y="-73" font-family="Helvetica,sans-Serif" font-size="10.00">Inheritance</text>
</a>
</g>
</g>
<!-- Node448&#45;&gt;Node457 -->
<g id="edge28" class="edge"><title>Node448&#45;&gt;Node457</title>
<path fill="none" stroke="midnightblue" d="M348.215,-178.98C358.111,-175.984 367.68,-171.8 376,-166 401.825,-147.998 386.718,-123.757 412,-105 419.318,-99.5703 427.705,-95.3551 436.429,-92.0854"/>
<polygon fill="midnightblue" stroke="midnightblue" points="437.615,-95.3797 445.994,-88.8957 435.4,-88.7393 437.615,-95.3797"/>
</g>
<!-- Node458 -->
<g id="node26" class="node"><title>Node458</title>
<g id="a_node26"><a xlink:href="../../d8/d17/a00304.html#a9aacee8d6903ff6eb186d37f78569353" target="_top" xlink:title="build a component list from two terms ">
<polygon fill="none" stroke="black" points="412,-17 412,-47 611,-47 611,-17 412,-17"/>
<text text-anchor="start" x="420" y="-35" font-family="Helvetica,sans-Serif" font-size="10.00">nars.language.CompoundTerm.arguments</text>
<text text-anchor="middle" x="511.5" y="-24" font-family="Helvetica,sans-Serif" font-size="10.00">ToList</text>
</a>
</g>
</g>
<!-- Node448&#45;&gt;Node458 -->
<g id="edge29" class="edge"><title>Node448&#45;&gt;Node458</title>
<path fill="none" stroke="midnightblue" d="M348.139,-181.015C358.336,-177.766 368.009,-172.969 376,-166 414.769,-132.19 374.248,-90.9415 412,-56 413.13,-54.9539 414.298,-53.9512 415.5,-52.9903"/>
<polygon fill="midnightblue" stroke="midnightblue" points="417.62,-55.7804 423.884,-47.2354 413.659,-50.0092 417.62,-55.7804"/>
</g>
<!-- Node449&#45;&gt;Node441 -->
<g id="edge20" class="edge"><title>Node449&#45;&gt;Node441</title>
<path fill="none" stroke="midnightblue" d="M589.751,-243.053C597.166,-245.832 604.38,-249.117 611,-253 631.067,-264.771 626.905,-279.277 647,-291 651.805,-293.803 656.916,-296.294 662.189,-298.506"/>
<polygon fill="midnightblue" stroke="midnightblue" points="661.235,-301.889 671.825,-302.197 663.738,-295.352 661.235,-301.889"/>
</g>
<!-- Node450 -->
<g id="node18" class="node"><title>Node450</title>
<g id="a_node18"><a xlink:href="../../dc/d59/a00364.html#ad85f45a7858737445d5158801774ff5f" target="_top" xlink:title="Equal terms have identical name, though not necessarily the same reference. ">
<polygon fill="none" stroke="black" points="681.5,-262.5 681.5,-281.5 815.5,-281.5 815.5,-262.5 681.5,-262.5"/>
<text text-anchor="middle" x="748.5" y="-269.5" font-family="Helvetica,sans-Serif" font-size="10.00">nars.language.Term.equals</text>
</a>
</g>
</g>
<!-- Node449&#45;&gt;Node450 -->
<g id="edge18" class="edge"><title>Node449&#45;&gt;Node450</title>
<path fill="none" stroke="midnightblue" d="M589.773,-242.468C621.126,-248.338 656.825,-255.022 686.321,-260.545"/>
<polygon fill="midnightblue" stroke="midnightblue" points="686.005,-264.047 696.478,-262.447 687.293,-257.166 686.005,-264.047"/>
</g>
<!-- Node452 -->
<g id="node20" class="node"><title>Node452</title>
<g id="a_node20"><a xlink:href="../../d0/d65/a00360.html#ac56b558891dd2088e0b66b437780c7b7" target="_top" xlink:title="Default constructor. ">
<polygon fill="none" stroke="black" points="684.5,-213 684.5,-243 812.5,-243 812.5,-213 684.5,-213"/>
<text text-anchor="start" x="692.5" y="-231" font-family="Helvetica,sans-Serif" font-size="10.00">nars.language.Statement.</text>
<text text-anchor="middle" x="748.5" y="-220" font-family="Helvetica,sans-Serif" font-size="10.00">Statement</text>
</a>
</g>
</g>
<!-- Node449&#45;&gt;Node452 -->
<g id="edge21" class="edge"><title>Node449&#45;&gt;Node452</title>
<path fill="none" stroke="midnightblue" d="M589.773,-228C616.938,-228 647.364,-228 674.193,-228"/>
<polygon fill="midnightblue" stroke="midnightblue" points="674.285,-231.5 684.285,-228 674.285,-224.5 674.285,-231.5"/>
</g>
<!-- Node453 -->
<g id="node21" class="node"><title>Node453</title>
<g id="a_node21"><a xlink:href="../../d0/d65/a00360.html#ace4f80751d303c613e467163913bebf5" target="_top" xlink:title="Return the first component of the statement. ">
<polygon fill="none" stroke="black" points="677.5,-164 677.5,-194 819.5,-194 819.5,-164 677.5,-164"/>
<text text-anchor="start" x="685.5" y="-182" font-family="Helvetica,sans-Serif" font-size="10.00">nars.language.Statement.get</text>
<text text-anchor="middle" x="748.5" y="-171" font-family="Helvetica,sans-Serif" font-size="10.00">Subject</text>
</a>
</g>
</g>
<!-- Node449&#45;&gt;Node453 -->
<g id="edge22" class="edge"><title>Node449&#45;&gt;Node453</title>
<path fill="none" stroke="midnightblue" d="M584.605,-212.965C610.686,-207.527 640.292,-201.354 667.045,-195.776"/>
<polygon fill="midnightblue" stroke="midnightblue" points="668.07,-199.137 677.145,-193.67 666.641,-192.285 668.07,-199.137"/>
</g>
<!-- Node455 -->
<g id="node23" class="node"><title>Node455</title>
<g id="a_node23"><a xlink:href="../../d0/d65/a00360.html#ababe6155e2f78e769f76493317e118e0" target="_top" xlink:title="Return the second component of the statement. ">
<polygon fill="none" stroke="black" points="677.5,-115 677.5,-145 819.5,-145 819.5,-115 677.5,-115"/>
<text text-anchor="start" x="685.5" y="-133" font-family="Helvetica,sans-Serif" font-size="10.00">nars.language.Statement.get</text>
<text text-anchor="middle" x="748.5" y="-122" font-family="Helvetica,sans-Serif" font-size="10.00">Predicate</text>
</a>
</g>
</g>
<!-- Node449&#45;&gt;Node455 -->
<g id="edge24" class="edge"><title>Node449&#45;&gt;Node455</title>
<path fill="none" stroke="midnightblue" d="M589.52,-214.086C597.102,-211.085 604.416,-207.436 611,-203 633.412,-187.901 624.482,-168.94 647,-154 653.269,-149.841 660.181,-146.4 667.357,-143.555"/>
<polygon fill="midnightblue" stroke="midnightblue" points="669.02,-146.678 677.271,-140.031 666.676,-140.082 669.02,-146.678"/>
</g>
<!-- Node451 -->
<g id="node19" class="node"><title>Node451</title>
<g id="a_node19"><a xlink:href="../../dc/d59/a00364.html#a3aad4654016b8615fd4fa8a26668e1db" target="_top" xlink:title="Reporting the name of the current Term. ">
<polygon fill="none" stroke="black" points="896.5,-262.5 896.5,-281.5 1042.5,-281.5 1042.5,-262.5 896.5,-262.5"/>
<text text-anchor="middle" x="969.5" y="-269.5" font-family="Helvetica,sans-Serif" font-size="10.00">nars.language.Term.getName</text>
</a>
</g>
</g>
<!-- Node450&#45;&gt;Node451 -->
<g id="edge19" class="edge"><title>Node450&#45;&gt;Node451</title>
<path fill="none" stroke="midnightblue" d="M815.504,-272C837.665,-272 862.665,-272 885.934,-272"/>
<polygon fill="midnightblue" stroke="midnightblue" points="886.136,-275.5 896.136,-272 886.136,-268.5 886.136,-275.5"/>
</g>
<!-- Node454 -->
<g id="node22" class="node"><title>Node454</title>
<g id="a_node22"><a xlink:href="../../d8/d17/a00304.html#a9778c35f9b602bee6ccac6a06809e546" target="_top" xlink:title="list of (direct) components ">
<polygon fill="none" stroke="black" points="886,-140 886,-170 1053,-170 1053,-140 886,-140"/>
<text text-anchor="start" x="894" y="-158" font-family="Helvetica,sans-Serif" font-size="10.00">nars.language.CompoundTerm.get</text>
<text text-anchor="middle" x="969.5" y="-147" font-family="Helvetica,sans-Serif" font-size="10.00">Components</text>
</a>
</g>
</g>
<!-- Node453&#45;&gt;Node454 -->
<g id="edge23" class="edge"><title>Node453&#45;&gt;Node454</title>
<path fill="none" stroke="midnightblue" d="M819.697,-171.307C837.513,-169.355 856.93,-167.227 875.679,-165.172"/>
<polygon fill="midnightblue" stroke="midnightblue" points="876.151,-168.641 885.71,-164.073 875.389,-161.683 876.151,-168.641"/>
</g>
<!-- Node455&#45;&gt;Node454 -->
<g id="edge25" class="edge"><title>Node455&#45;&gt;Node454</title>
<path fill="none" stroke="midnightblue" d="M819.697,-138.013C837.513,-140.047 856.93,-142.264 875.679,-144.404"/>
<polygon fill="midnightblue" stroke="midnightblue" points="875.378,-147.892 885.71,-145.549 876.172,-140.937 875.378,-147.892"/>
</g>
<!-- Node461&#45;&gt;Node435 -->
<g id="edge33" class="edge"><title>Node461&#45;&gt;Node435</title>
<path fill="none" stroke="midnightblue" d="M339.029,-416.432C373.431,-422.766 414.969,-430.413 448.545,-436.594"/>
<polygon fill="midnightblue" stroke="midnightblue" points="448.224,-440.094 458.693,-438.462 449.492,-433.209 448.224,-440.094"/>
</g>
<!-- Node461&#45;&gt;Node437 -->
<g id="edge34" class="edge"><title>Node461&#45;&gt;Node437</title>
<path fill="none" stroke="midnightblue" d="M339.029,-391.568C373.431,-385.234 414.969,-377.587 448.545,-371.406"/>
<polygon fill="midnightblue" stroke="midnightblue" points="449.492,-374.791 458.693,-369.538 448.224,-367.906 449.492,-374.791"/>
</g>
<!-- Node462 -->
<g id="node30" class="node"><title>Node462</title>
<g id="a_node30"><a xlink:href="../../dd/dc1/a00212.html#a68b153a51a5db6a4127b66158227697f" target="_top" xlink:title="The punctuation also indicates the type of the Sentence: Judgment, Question, or Goal. ">
<polygon fill="none" stroke="black" points="450,-389 450,-419 573,-419 573,-389 450,-389"/>
<text text-anchor="start" x="458" y="-407" font-family="Helvetica,sans-Serif" font-size="10.00">nars.entity.Sentence.get</text>
<text text-anchor="middle" x="511.5" y="-396" font-family="Helvetica,sans-Serif" font-size="10.00">Punctuation</text>
</a>
</g>
</g>
<!-- Node461&#45;&gt;Node462 -->
<g id="edge35" class="edge"><title>Node461&#45;&gt;Node462</title>
<path fill="none" stroke="midnightblue" d="M339.029,-404C370.418,-404 407.747,-404 439.549,-404"/>
<polygon fill="midnightblue" stroke="midnightblue" points="439.666,-407.5 449.666,-404 439.666,-400.5 439.666,-407.5"/>
</g>
</g>
</svg>
        <g id="navigator" transform="translate(0 0)" fill="#404254">
                <rect fill="#f2f5e9" fill-opacity="0.5" stroke="#606060" stroke-width=".5" x="0" y="0" width="60" height="60"/>
                <use id="zoomplus" xlink:href="#zoomPlus" x="17" y="9" onmousedown="handleZoom(evt,'in')"/>
                <use id="zoomminus" xlink:href="#zoomMin" x="42" y="9" onmousedown="handleZoom(evt,'out')"/>
                <use id="reset" xlink:href="#resetDef" x="30" y="36" onmousedown="handleReset()"/>
                <g id="arrowUp" xlink:href="#dirArrow" transform="translate(30 24)" onmousedown="handlePan(0,-1)">
                  <use xlink:href="#rim" fill="#404040">
                        <set attributeName="fill" to="#808080" begin="arrowUp.mouseover" end="arrowUp.mouseout"/>
                  </use>
                  <path fill="none" stroke="white" stroke-width="1.5" d="M0,-3.0v7 M-2.5,-0.5L0,-3.0L2.5,-0.5"/>
                </g>
                <g id="arrowRight" xlink:href="#dirArrow" transform="rotate(90) translate(36 -43)" onmousedown="handlePan(1,0)">
                  <use xlink:href="#rim" fill="#404040">
                        <set attributeName="fill" to="#808080" begin="arrowRight.mouseover" end="arrowRight.mouseout"/>
                  </use>
                  <path fill="none" stroke="white" stroke-width="1.5" d="M0,-3.0v7 M-2.5,-0.5L0,-3.0L2.5,-0.5"/>
                </g>
                <g id="arrowDown" xlink:href="#dirArrow" transform="rotate(180) translate(-30 -48)" onmousedown="handlePan(0,1)">
                  <use xlink:href="#rim" fill="#404040">
                        <set attributeName="fill" to="#808080" begin="arrowDown.mouseover" end="arrowDown.mouseout"/>
                  </use>
                  <path fill="none" stroke="white" stroke-width="1.5" d="M0,-3.0v7 M-2.5,-0.5L0,-3.0L2.5,-0.5"/>
                </g>
                <g id="arrowLeft" xlink:href="#dirArrow" transform="rotate(270) translate(-36 17)" onmousedown="handlePan(-1,0)">
                  <use xlink:href="#rim" fill="#404040">
                        <set attributeName="fill" to="#808080" begin="arrowLeft.mouseover" end="arrowLeft.mouseout"/>
                  </use>
                  <path fill="none" stroke="white" stroke-width="1.5" d="M0,-3.0v7 M-2.5,-0.5L0,-3.0L2.5,-0.5"/>
                </g>
        </g>
        <svg viewBox="0 0 15 15" width="100%" height="30px" preserveAspectRatio="xMaxYMin meet">
         <g id="arrow_out" transform="scale(0.3 0.3)">
          <a xlink:href="a00256_a45ae086cf44c9f32cbe9a729f2419594_cgraph_org.svg" target="_base">
           <rect id="button" ry="5" rx="5" y="6" x="6" height="38" width="38"
                fill="#f2f5e9" fill-opacity="0.5" stroke="#606060" stroke-width="1.0"/>
           <path id="arrow"
             d="M 11.500037,31.436501 C 11.940474,20.09759 22.043105,11.32322 32.158766,21.979434 L 37.068811,17.246167 C 37.068811,17.246167 37.088388,32 37.088388,32 L 22.160133,31.978069 C 22.160133,31.978069 26.997745,27.140456 26.997745,27.140456 C 18.528582,18.264221 13.291696,25.230495 11.500037,31.436501 z"
             style="fill:#404040;"/>
          </a>
         </g>
        </svg>
</svg>
