<?xml version="1.0" encoding="UTF-8" standalone="no"?>
<!DOCTYPE svg PUBLIC "-//W3C//DTD SVG 1.1//EN"
 "http://www.w3.org/Graphics/SVG/1.1/DTD/svg11.dtd">
<!-- Generated by graphviz version 2.38.0 (20140413.2041)
 -->
<!-- Title: nars.inference.StructuralRules.structuralCompound Pages: 1 -->
<!--zoomable 564 -->
<svg id="main" version="1.1" xmlns="http://www.w3.org/2000/svg" xmlns:xlink="http://www.w3.org/1999/xlink" xml:space="preserve" onload="init(evt)">
<style type="text/css"><![CDATA[
.edge:hover path { stroke: red; }
.edge:hover polygon { stroke: red; fill: red; }
]]></style>
<script type="text/javascript"><![CDATA[
var edges = document.getElementsByTagName('g');
if (edges && edges.length) {
  for (var i=0;i<edges.length;i++) {
    if (edges[i].id.substr(0,4)=='edge') {
      edges[i].setAttribute('class','edge');
    }
  }
}
]]></script>
        <defs>
                <circle id="rim" cx="0" cy="0" r="7"/>
                <circle id="rim2" cx="0" cy="0" r="3.5"/>
                <g id="zoomPlus">
                        <use xlink:href="#rim" fill="#404040">
                                <set attributeName="fill" to="#808080" begin="zoomplus.mouseover" end="zoomplus.mouseout"/>
                        </use>
                        <path d="M-4,0h8M0,-4v8" fill="none" stroke="white" stroke-width="1.5" pointer-events="none"/>
                </g>
                <g id="zoomMin">
                        <use xlink:href="#rim" fill="#404040">
                                <set attributeName="fill" to="#808080" begin="zoomminus.mouseover" end="zoomminus.mouseout"/>
                        </use>
                        <path d="M-4,0h8" fill="none" stroke="white" stroke-width="1.5" pointer-events="none"/>
                </g>
                <g id="dirArrow">
                        <path fill="none" stroke="white" stroke-width="1.5" d="M0,-3.0v7 M-2.5,-0.5L0,-3.0L2.5,-0.5"/>
                </g>
               <g id="resetDef">
                       <use xlink:href="#rim2" fill="#404040">
                               <set attributeName="fill" to="#808080" begin="reset.mouseover" end="reset.mouseout"/>
                       </use>
               </g>
        </defs>

<script type="text/javascript">
var viewWidth = 1183;
var viewHeight = 564;
var sectionId = 'dynsection-4';
</script>
<script xlink:href="../../svgpan.js"/>
<svg id="graph" class="graph">
<g id="viewport">
<title>nars.inference.StructuralRules.structuralCompound</title>
<!-- Node126 -->
<g id="node1" class="node"><title>Node126</title>
<polygon fill="#bfbfbf" stroke="black" points="0,-203 0,-233 133,-233 133,-203 0,-203"/>
<text text-anchor="start" x="8" y="-221" font-family="Helvetica,sans-Serif" font-size="10.00">nars.inference.Structural</text>
<text text-anchor="middle" x="66.5" y="-210" font-family="Helvetica,sans-Serif" font-size="10.00">Rules.structuralCompound</text>
</g>
<!-- Node127 -->
<g id="node2" class="node"><title>Node127</title>
<g id="a_node2"><a xlink:href="../../d3/dcc/a00264.html#a8f6892d4f41dfa39a4868e5bc65540ce" target="_top" xlink:title="{&lt;S ==&gt; M&gt;, &lt;M ==&gt; P&gt;} |&#45; &lt;S ==&gt; P&gt; ">
<polygon fill="none" stroke="black" points="169,-470.5 169,-489.5 360,-489.5 360,-470.5 169,-470.5"/>
<text text-anchor="middle" x="264.5" y="-477.5" font-family="Helvetica,sans-Serif" font-size="10.00">nars.inference.TruthFunctions.deduction</text>
</a>
</g>
</g>
<!-- Node126&#45;&gt;Node127 -->
<g id="edge1" class="edge"><title>Node126&#45;&gt;Node127</title>
<path fill="none" stroke="midnightblue" d="M75.8363,-233.28C92.1319,-262.644 130.035,-328.517 169,-379 193.372,-410.577 225.904,-443.7 245.744,-463.068"/>
<polygon fill="midnightblue" stroke="midnightblue" points="243.547,-465.812 253.168,-470.25 248.414,-460.781 243.547,-465.812"/>
</g>
<!-- Node130 -->
<g id="node5" class="node"><title>Node130</title>
<g id="a_node5"><a xlink:href="../../d9/d21/a00240.html#a2db9aa6bf208e45b225924b2ba1769da" target="_top" xlink:title="Forward inference result and adjustment. ">
<polygon fill="none" stroke="black" points="169.5,-350.5 169.5,-369.5 359.5,-369.5 359.5,-350.5 169.5,-350.5"/>
<text text-anchor="middle" x="264.5" y="-357.5" font-family="Helvetica,sans-Serif" font-size="10.00">nars.inference.BudgetFunctions.forward</text>
</a>
</g>
</g>
<!-- Node126&#45;&gt;Node130 -->
<g id="edge4" class="edge"><title>Node126&#45;&gt;Node130</title>
<path fill="none" stroke="midnightblue" d="M76.2838,-233.297C91.684,-258.693 126.042,-309.391 169,-336 176.423,-340.598 184.692,-344.318 193.164,-347.326"/>
<polygon fill="midnightblue" stroke="midnightblue" points="192.19,-350.689 202.782,-350.429 194.34,-344.027 192.19,-350.689"/>
</g>
<!-- Node146 -->
<g id="node21" class="node"><title>Node146</title>
<g id="a_node21"><a xlink:href="../../d4/d27/a00392.html#a26eda4f00b333b706b4e3d069fdf1508" target="_top" xlink:title="The selected Task. ">
<polygon fill="none" stroke="black" points="400,-268.5 400,-287.5 579,-287.5 579,-268.5 400,-268.5"/>
<text text-anchor="middle" x="489.5" y="-275.5" font-family="Helvetica,sans-Serif" font-size="10.00">nars.storage.Memory.getCurrentTask</text>
</a>
</g>
</g>
<!-- Node126&#45;&gt;Node146 -->
<g id="edge23" class="edge"><title>Node126&#45;&gt;Node146</title>
<path fill="none" stroke="midnightblue" d="M84.2971,-233.123C103.277,-249.101 135.864,-273.299 169,-283 257.061,-308.78 364.703,-299.16 429.863,-289.122"/>
<polygon fill="midnightblue" stroke="midnightblue" points="430.623,-292.545 439.947,-287.513 429.52,-285.633 430.623,-292.545"/>
</g>
<!-- Node147 -->
<g id="node22" class="node"><title>Node147</title>
<g id="a_node22"><a xlink:href="../../d5/ddf/a00224.html#ab140cb553a6cf40b07093d1df283567f" target="_top" xlink:title="The sentence of the Task. ">
<polygon fill="none" stroke="black" points="417,-230.5 417,-249.5 562,-249.5 562,-230.5 417,-230.5"/>
<text text-anchor="middle" x="489.5" y="-237.5" font-family="Helvetica,sans-Serif" font-size="10.00">nars.entity.Task.getSentence</text>
</a>
</g>
</g>
<!-- Node126&#45;&gt;Node147 -->
<g id="edge24" class="edge"><title>Node126&#45;&gt;Node147</title>
<path fill="none" stroke="midnightblue" d="M92.7338,-233.104C112.659,-244.106 141.58,-258.077 169,-264 251.975,-281.925 275.473,-271.826 360,-264 373.988,-262.705 404.497,-257.05 432.278,-251.555"/>
<polygon fill="midnightblue" stroke="midnightblue" points="433.231,-254.934 442.354,-249.546 431.862,-248.069 433.231,-254.934"/>
</g>
<!-- Node148 -->
<g id="node23" class="node"><title>Node148</title>
<g id="a_node23"><a xlink:href="../../dd/dc1/a00212.html#a9f69b4fef64c81abad21404946cd41f9" target="_top" xlink:title="The truth value of Judgment. ">
<polygon fill="none" stroke="black" points="203,-99 203,-129 326,-129 326,-99 203,-99"/>
<text text-anchor="start" x="211" y="-117" font-family="Helvetica,sans-Serif" font-size="10.00">nars.entity.Sentence.get</text>
<text text-anchor="middle" x="264.5" y="-106" font-family="Helvetica,sans-Serif" font-size="10.00">Truth</text>
</a>
</g>
</g>
<!-- Node126&#45;&gt;Node148 -->
<g id="edge25" class="edge"><title>Node126&#45;&gt;Node148</title>
<path fill="none" stroke="midnightblue" d="M82.6518,-202.949C101.387,-185.16 134.985,-155.853 169,-139 176.542,-135.264 184.708,-132.037 192.973,-129.262"/>
<polygon fill="midnightblue" stroke="midnightblue" points="194.199,-132.545 202.691,-126.209 192.101,-125.867 194.199,-132.545"/>
</g>
<!-- Node149 -->
<g id="node24" class="node"><title>Node149</title>
<g id="a_node24"><a xlink:href="../../dc/d59/a00364.html#a88297bdbbfb5f3e292783647b14f0c70" target="_top" xlink:title="Check whether the current Term can name a Concept. ">
<polygon fill="none" stroke="black" points="188,-60.5 188,-79.5 341,-79.5 341,-60.5 188,-60.5"/>
<text text-anchor="middle" x="264.5" y="-67.5" font-family="Helvetica,sans-Serif" font-size="10.00">nars.language.Term.isConstant</text>
</a>
</g>
</g>
<!-- Node126&#45;&gt;Node149 -->
<g id="edge26" class="edge"><title>Node126&#45;&gt;Node149</title>
<path fill="none" stroke="midnightblue" d="M74.8403,-202.788C88.9541,-175.286 122.634,-117.509 169,-89 172.43,-86.8909 176.05,-85.0104 179.795,-83.3342"/>
<polygon fill="midnightblue" stroke="midnightblue" points="181.303,-86.5016 189.32,-79.5745 178.733,-79.9904 181.303,-86.5016"/>
</g>
<!-- Node150 -->
<g id="node25" class="node"><title>Node150</title>
<g id="a_node25"><a xlink:href="../../dd/dc1/a00212.html#a7d95d60caaf4c895559182a7eb2ff71e" target="_top" xlink:title="Distinguish Judgment from Goal (&quot;instanceof Judgment&quot; doesn&#39;t work) ">
<polygon fill="none" stroke="black" points="184.5,-186.5 184.5,-205.5 344.5,-205.5 344.5,-186.5 184.5,-186.5"/>
<text text-anchor="middle" x="264.5" y="-193.5" font-family="Helvetica,sans-Serif" font-size="10.00">nars.entity.Sentence.isJudgment</text>
</a>
</g>
</g>
<!-- Node126&#45;&gt;Node150 -->
<g id="edge27" class="edge"><title>Node126&#45;&gt;Node150</title>
<path fill="none" stroke="midnightblue" d="M133.038,-210.644C146.291,-209.156 160.438,-207.568 174.345,-206.007"/>
<polygon fill="midnightblue" stroke="midnightblue" points="174.865,-209.471 184.413,-204.877 174.085,-202.515 174.865,-209.471"/>
</g>
<!-- Node152 -->
<g id="node27" class="node"><title>Node152</title>
<g id="a_node27"><a xlink:href="../../dd/dc1/a00212.html#acb98b40c8990dbe5e15061f0759c60ee" target="_top" xlink:title="Distinguish Question from Quest (&quot;instanceof Question&quot; doesn&#39;t work) ">
<polygon fill="none" stroke="black" points="186.5,-148.5 186.5,-167.5 342.5,-167.5 342.5,-148.5 186.5,-148.5"/>
<text text-anchor="middle" x="264.5" y="-155.5" font-family="Helvetica,sans-Serif" font-size="10.00">nars.entity.Sentence.isQuestion</text>
</a>
</g>
</g>
<!-- Node126&#45;&gt;Node152 -->
<g id="edge29" class="edge"><title>Node126&#45;&gt;Node152</title>
<path fill="none" stroke="midnightblue" d="M100.316,-202.936C119.926,-194.393 145.516,-184.038 169,-177 178.042,-174.29 187.687,-171.852 197.231,-169.698"/>
<polygon fill="midnightblue" stroke="midnightblue" points="198.079,-173.095 207.11,-167.556 196.596,-166.254 198.079,-173.095"/>
</g>
<!-- Node153 -->
<g id="node28" class="node"><title>Node153</title>
<g id="a_node28"><a xlink:href="../../d5/ddf/a00224.html#a23c0c966a1f5687123c089731f951e78" target="_top" xlink:title="Check if a Task is derived by a StructuralRule. ">
<polygon fill="none" stroke="black" points="194.5,-22.5 194.5,-41.5 334.5,-41.5 334.5,-22.5 194.5,-22.5"/>
<text text-anchor="middle" x="264.5" y="-29.5" font-family="Helvetica,sans-Serif" font-size="10.00">nars.entity.Task.isStructural</text>
</a>
</g>
</g>
<!-- Node126&#45;&gt;Node153 -->
<g id="edge31" class="edge"><title>Node126&#45;&gt;Node153</title>
<path fill="none" stroke="midnightblue" d="M72.0514,-202.866C82.8963,-169.573 113.581,-89.861 169,-51 173.828,-47.6147 179.117,-44.8014 184.648,-42.4667"/>
<polygon fill="midnightblue" stroke="midnightblue" points="185.971,-45.7095 194.148,-38.973 183.555,-39.1397 185.971,-45.7095"/>
</g>
<!-- Node156 -->
<g id="node31" class="node"><title>Node156</title>
<g id="a_node31"><a xlink:href="../../d4/d27/a00392.html#a52ef2f1fedc72d6b0bfe3a6bd000bda3" target="_top" xlink:title="Shared final operations by all single&#45;premise rules, called in StructuralRules. ">
<polygon fill="none" stroke="black" points="196,-225 196,-255 333,-255 333,-225 196,-225"/>
<text text-anchor="start" x="204" y="-243" font-family="Helvetica,sans-Serif" font-size="10.00">nars.storage.Memory.single</text>
<text text-anchor="middle" x="264.5" y="-232" font-family="Helvetica,sans-Serif" font-size="10.00">PremiseTask</text>
</a>
</g>
</g>
<!-- Node126&#45;&gt;Node156 -->
<g id="edge34" class="edge"><title>Node126&#45;&gt;Node156</title>
<path fill="none" stroke="midnightblue" d="M133.038,-225.356C149.876,-227.246 168.155,-229.298 185.554,-231.251"/>
<polygon fill="midnightblue" stroke="midnightblue" points="185.351,-234.75 195.679,-232.387 186.131,-227.794 185.351,-234.75"/>
</g>
<!-- Node128 -->
<g id="node3" class="node"><title>Node128</title>
<g id="a_node3"><a xlink:href="../../d7/d40/a00236.html#a9eac33f2495441c77911a8581a5bbe61" target="_top" xlink:title="Get the frequency value. ">
<polygon fill="none" stroke="black" points="425,-509 425,-539 554,-539 554,-509 425,-509"/>
<text text-anchor="start" x="433" y="-527" font-family="Helvetica,sans-Serif" font-size="10.00">nars.entity.TruthValue.get</text>
<text text-anchor="middle" x="489.5" y="-516" font-family="Helvetica,sans-Serif" font-size="10.00">Frequency</text>
</a>
</g>
</g>
<!-- Node127&#45;&gt;Node128 -->
<g id="edge2" class="edge"><title>Node127&#45;&gt;Node128</title>
<path fill="none" stroke="midnightblue" d="M313.888,-489.547C343.374,-495.365 381.641,-502.916 414.833,-509.465"/>
<polygon fill="midnightblue" stroke="midnightblue" points="414.468,-512.96 424.956,-511.462 415.823,-506.093 414.468,-512.96"/>
</g>
<!-- Node129 -->
<g id="node4" class="node"><title>Node129</title>
<g id="a_node4"><a xlink:href="../../db/d12/a00268.html#a46d2f048b6ba77afc60dcf49734f23c7" target="_top" xlink:title="A function where the output is conjunctively determined by the inputs. ">
<polygon fill="none" stroke="black" points="628,-536.5 628,-555.5 796,-555.5 796,-536.5 628,-536.5"/>
<text text-anchor="middle" x="712" y="-543.5" font-family="Helvetica,sans-Serif" font-size="10.00">nars.inference.UtilityFunctions.and</text>
</a>
</g>
</g>
<!-- Node127&#45;&gt;Node129 -->
<g id="edge3" class="edge"><title>Node127&#45;&gt;Node129</title>
<path fill="none" stroke="midnightblue" d="M360.102,-472.026C424.812,-469.883 511.487,-473.636 583,-500 601.765,-506.918 600.768,-518.779 619,-527 624.659,-529.552 630.669,-531.764 636.801,-533.683"/>
<polygon fill="midnightblue" stroke="midnightblue" points="635.926,-537.073 646.503,-536.461 637.853,-530.343 635.926,-537.073"/>
</g>
<!-- Node131 -->
<g id="node6" class="node"><title>Node131</title>
<g id="a_node6"><a xlink:href="../../d9/d21/a00240.html#a6c45e643d143a28d7514f3487fbfa494" target="_top" xlink:title="Common processing for all inference step. ">
<polygon fill="none" stroke="black" points="396,-356 396,-386 583,-386 583,-356 396,-356"/>
<text text-anchor="start" x="404" y="-374" font-family="Helvetica,sans-Serif" font-size="10.00">nars.inference.BudgetFunctions.budget</text>
<text text-anchor="middle" x="489.5" y="-363" font-family="Helvetica,sans-Serif" font-size="10.00">Inference</text>
</a>
</g>
</g>
<!-- Node130&#45;&gt;Node131 -->
<g id="edge5" class="edge"><title>Node130&#45;&gt;Node131</title>
<path fill="none" stroke="midnightblue" d="M359.749,-364.649C368.293,-365.07 376.975,-365.499 385.589,-365.924"/>
<polygon fill="midnightblue" stroke="midnightblue" points="385.496,-369.423 395.656,-366.42 385.841,-362.432 385.496,-369.423"/>
</g>
<!-- Node144 -->
<g id="node19" class="node"><title>Node144</title>
<g id="a_node19"><a xlink:href="../../d9/d21/a00240.html#a1cabe922021909c7226988e5aa00ea95" target="_top" xlink:title="Determine the quality of a judgment by its truth value alone. ">
<polygon fill="none" stroke="black" points="401,-307 401,-337 578,-337 578,-307 401,-307"/>
<text text-anchor="start" x="409" y="-325" font-family="Helvetica,sans-Serif" font-size="10.00">nars.inference.BudgetFunctions.truth</text>
<text text-anchor="middle" x="489.5" y="-314" font-family="Helvetica,sans-Serif" font-size="10.00">ToQuality</text>
</a>
</g>
</g>
<!-- Node130&#45;&gt;Node144 -->
<g id="edge21" class="edge"><title>Node130&#45;&gt;Node144</title>
<path fill="none" stroke="midnightblue" d="M321.484,-350.46C342.482,-346.882 367.006,-342.703 390.693,-338.667"/>
<polygon fill="midnightblue" stroke="midnightblue" points="391.511,-342.078 400.781,-336.948 390.335,-335.177 391.511,-342.078"/>
</g>
<!-- Node131&#45;&gt;Node129 -->
<g id="edge6" class="edge"><title>Node131&#45;&gt;Node129</title>
<path fill="none" stroke="midnightblue" d="M507.451,-386.067C527.018,-403.963 559.515,-435.274 583,-466 602.117,-491.011 593.391,-508.692 619,-527 621.571,-528.838 624.279,-530.506 627.09,-532.02"/>
<polygon fill="midnightblue" stroke="midnightblue" points="625.829,-535.294 636.371,-536.35 628.788,-528.95 625.829,-535.294"/>
</g>
<!-- Node132 -->
<g id="node7" class="node"><title>Node132</title>
<g id="a_node7"><a xlink:href="../../d9/d21/a00240.html#a5df1e2954d5ce62f08cbd4be287ddaba" target="_top" xlink:title="A function where the output is the arithmetic average the inputs. ">
<polygon fill="none" stroke="black" points="619.5,-361.5 619.5,-380.5 804.5,-380.5 804.5,-361.5 619.5,-361.5"/>
<text text-anchor="middle" x="712" y="-368.5" font-family="Helvetica,sans-Serif" font-size="10.00">nars.inference.BudgetFunctions.aveAri</text>
</a>
</g>
</g>
<!-- Node131&#45;&gt;Node132 -->
<g id="edge7" class="edge"><title>Node131&#45;&gt;Node132</title>
<path fill="none" stroke="midnightblue" d="M583.053,-371C591.694,-371 600.483,-371 609.201,-371"/>
<polygon fill="midnightblue" stroke="midnightblue" points="609.39,-374.5 619.39,-371 609.39,-367.5 609.39,-374.5"/>
</g>
<!-- Node133 -->
<g id="node8" class="node"><title>Node133</title>
<g id="a_node8"><a xlink:href="../../dc/d31/a00208.html#a54fc0a370b847dd77c0a698c765e6e55" target="_top" xlink:title="The budget of the Item, consisting of 3 numbers. ">
<polygon fill="none" stroke="black" points="843.5,-285.5 843.5,-304.5 975.5,-304.5 975.5,-285.5 843.5,-285.5"/>
<text text-anchor="middle" x="909.5" y="-292.5" font-family="Helvetica,sans-Serif" font-size="10.00">nars.entity.Item.getBudget</text>
</a>
</g>
</g>
<!-- Node131&#45;&gt;Node133 -->
<g id="edge8" class="edge"><title>Node131&#45;&gt;Node133</title>
<path fill="none" stroke="midnightblue" d="M560.064,-355.996C568.013,-353.181 575.828,-349.874 583,-346 601.835,-335.825 599.25,-322.259 619,-314 687.417,-285.389 772.895,-283.403 833.18,-286.88"/>
<polygon fill="midnightblue" stroke="midnightblue" points="833.178,-290.387 843.381,-287.535 833.626,-283.402 833.178,-290.387"/>
</g>
<!-- Node134 -->
<g id="node9" class="node"><title>Node134</title>
<g id="a_node9"><a xlink:href="../../d9/dd5/a00432.html#a672e3b935dca6df8c7e47c6c69e0fc66" target="_top" xlink:title="nars.storage.WorkSpace.get\lCurrentBeliefLink">
<polygon fill="none" stroke="black" points="641.5,-198 641.5,-228 782.5,-228 782.5,-198 641.5,-198"/>
<text text-anchor="start" x="649.5" y="-216" font-family="Helvetica,sans-Serif" font-size="10.00">nars.storage.WorkSpace.get</text>
<text text-anchor="middle" x="712" y="-205" font-family="Helvetica,sans-Serif" font-size="10.00">CurrentBeliefLink</text>
</a>
</g>
</g>
<!-- Node131&#45;&gt;Node134 -->
<g id="edge9" class="edge"><title>Node131&#45;&gt;Node134</title>
<path fill="none" stroke="midnightblue" d="M569.259,-355.964C574.234,-353.174 578.887,-349.882 583,-346 619.796,-311.271 582.228,-272.754 619,-238 622.885,-234.328 627.254,-231.185 631.923,-228.495"/>
<polygon fill="midnightblue" stroke="midnightblue" points="633.833,-231.454 641.224,-223.863 630.712,-225.188 633.833,-231.454"/>
</g>
<!-- Node135 -->
<g id="node10" class="node"><title>Node135</title>
<g id="a_node10"><a xlink:href="../../d9/dd5/a00432.html#aefcc9dfcebdc79cd7e099afd4553b083" target="_top" xlink:title="nars.storage.WorkSpace.get\lCurrentTask">
<polygon fill="none" stroke="black" points="641.5,-487 641.5,-517 782.5,-517 782.5,-487 641.5,-487"/>
<text text-anchor="start" x="649.5" y="-505" font-family="Helvetica,sans-Serif" font-size="10.00">nars.storage.WorkSpace.get</text>
<text text-anchor="middle" x="712" y="-494" font-family="Helvetica,sans-Serif" font-size="10.00">CurrentTask</text>
</a>
</g>
</g>
<!-- Node131&#45;&gt;Node135 -->
<g id="edge10" class="edge"><title>Node131&#45;&gt;Node135</title>
<path fill="none" stroke="midnightblue" d="M504.361,-386.215C526.389,-409.472 571.75,-453.714 619,-478 623.074,-480.094 627.346,-482.016 631.725,-483.779"/>
<polygon fill="midnightblue" stroke="midnightblue" points="630.853,-487.189 641.446,-487.388 633.29,-480.626 630.853,-487.189"/>
</g>
<!-- Node136 -->
<g id="node11" class="node"><title>Node136</title>
<g id="a_node11"><a xlink:href="../../d9/dd5/a00432.html#a585409e59ebb973c820683bc556ebe37" target="_top" xlink:title="nars.storage.WorkSpace.get\lCurrentTaskLink">
<polygon fill="none" stroke="black" points="641.5,-438 641.5,-468 782.5,-468 782.5,-438 641.5,-438"/>
<text text-anchor="start" x="649.5" y="-456" font-family="Helvetica,sans-Serif" font-size="10.00">nars.storage.WorkSpace.get</text>
<text text-anchor="middle" x="712" y="-445" font-family="Helvetica,sans-Serif" font-size="10.00">CurrentTaskLink</text>
</a>
</g>
</g>
<!-- Node131&#45;&gt;Node136 -->
<g id="edge11" class="edge"><title>Node131&#45;&gt;Node136</title>
<path fill="none" stroke="midnightblue" d="M520.864,-386.044C546.571,-398.396 584.62,-415.784 619,-428 625.862,-430.438 633.083,-432.777 640.337,-434.978"/>
<polygon fill="midnightblue" stroke="midnightblue" points="639.637,-438.421 650.219,-437.891 641.617,-431.707 639.637,-438.421"/>
</g>
<!-- Node137 -->
<g id="node12" class="node"><title>Node137</title>
<g id="a_node12"><a xlink:href="../../dc/d31/a00208.html#adbb21c1891722e30c1d6cfaf5fee18ee" target="_top" xlink:title="Get durability value. ">
<polygon fill="none" stroke="black" points="640.5,-323.5 640.5,-342.5 783.5,-342.5 783.5,-323.5 640.5,-323.5"/>
<text text-anchor="middle" x="712" y="-330.5" font-family="Helvetica,sans-Serif" font-size="10.00">nars.entity.Item.getDurability</text>
</a>
</g>
</g>
<!-- Node131&#45;&gt;Node137 -->
<g id="edge12" class="edge"><title>Node131&#45;&gt;Node137</title>
<path fill="none" stroke="midnightblue" d="M577.647,-355.981C600.406,-352.059 624.54,-347.9 645.93,-344.214"/>
<polygon fill="midnightblue" stroke="midnightblue" points="646.609,-347.648 655.87,-342.501 645.42,-340.75 646.609,-347.648"/>
</g>
<!-- Node139 -->
<g id="node14" class="node"><title>Node139</title>
<g id="a_node14"><a xlink:href="../../dc/d31/a00208.html#a97b35888ceaad90e7a428701051c51d7" target="_top" xlink:title="Get priority value. ">
<polygon fill="none" stroke="black" points="646,-247.5 646,-266.5 778,-266.5 778,-247.5 646,-247.5"/>
<text text-anchor="middle" x="712" y="-254.5" font-family="Helvetica,sans-Serif" font-size="10.00">nars.entity.Item.getPriority</text>
</a>
</g>
</g>
<!-- Node131&#45;&gt;Node139 -->
<g id="edge15" class="edge"><title>Node131&#45;&gt;Node139</title>
<path fill="none" stroke="midnightblue" d="M566.665,-355.969C572.486,-353.19 578.024,-349.898 583,-346 608.997,-325.636 592.913,-301.25 619,-281 624.432,-276.784 630.532,-273.304 636.939,-270.433"/>
<polygon fill="midnightblue" stroke="midnightblue" points="638.493,-273.582 646.503,-266.647 635.917,-267.073 638.493,-273.582"/>
</g>
<!-- Node141 -->
<g id="node16" class="node"><title>Node141</title>
<g id="a_node16"><a xlink:href="../../dc/d31/a00208.html#a786a1e14b3904092f4a3b2fa4faa08a7" target="_top" xlink:title="Increase priority value. ">
<polygon fill="none" stroke="black" points="646.5,-399.5 646.5,-418.5 777.5,-418.5 777.5,-399.5 646.5,-399.5"/>
<text text-anchor="middle" x="712" y="-406.5" font-family="Helvetica,sans-Serif" font-size="10.00">nars.entity.Item.incPriority</text>
</a>
</g>
</g>
<!-- Node131&#45;&gt;Node141 -->
<g id="edge18" class="edge"><title>Node131&#45;&gt;Node141</title>
<path fill="none" stroke="midnightblue" d="M577.647,-386.019C600.406,-389.941 624.54,-394.1 645.93,-397.786"/>
<polygon fill="midnightblue" stroke="midnightblue" points="645.42,-401.25 655.87,-399.499 646.609,-394.352 645.42,-401.25"/>
</g>
<!-- Node137&#45;&gt;Node133 -->
<g id="edge13" class="edge"><title>Node137&#45;&gt;Node133</title>
<path fill="none" stroke="midnightblue" d="M762.081,-323.46C788.574,-318.31 821.472,-311.916 849.369,-306.494"/>
<polygon fill="midnightblue" stroke="midnightblue" points="850.251,-309.888 859.399,-304.544 848.915,-303.016 850.251,-309.888"/>
</g>
<!-- Node138 -->
<g id="node13" class="node"><title>Node138</title>
<g id="a_node13"><a xlink:href="../../dd/da2/a00192.html#ab0e0dc2172d3fab6390670acb68da1a6" target="_top" xlink:title="Get durability value. ">
<polygon fill="none" stroke="black" points="841,-324 841,-354 978,-354 978,-324 841,-324"/>
<text text-anchor="start" x="849" y="-342" font-family="Helvetica,sans-Serif" font-size="10.00">nars.entity.BudgetValue.get</text>
<text text-anchor="middle" x="909.5" y="-331" font-family="Helvetica,sans-Serif" font-size="10.00">Durability</text>
</a>
</g>
</g>
<!-- Node137&#45;&gt;Node138 -->
<g id="edge14" class="edge"><title>Node137&#45;&gt;Node138</title>
<path fill="none" stroke="midnightblue" d="M783.58,-335.166C798.922,-335.637 815.234,-336.138 830.833,-336.616"/>
<polygon fill="midnightblue" stroke="midnightblue" points="830.861,-340.119 840.963,-336.927 831.075,-333.122 830.861,-340.119"/>
</g>
<!-- Node139&#45;&gt;Node133 -->
<g id="edge16" class="edge"><title>Node139&#45;&gt;Node133</title>
<path fill="none" stroke="midnightblue" d="M762.081,-266.54C788.574,-271.69 821.472,-278.084 849.369,-283.506"/>
<polygon fill="midnightblue" stroke="midnightblue" points="848.915,-286.984 859.399,-285.456 850.251,-280.112 848.915,-286.984"/>
</g>
<!-- Node140 -->
<g id="node15" class="node"><title>Node140</title>
<g id="a_node15"><a xlink:href="../../dd/da2/a00192.html#a1e7b6826531f03f792f3516ce0e97ac3" target="_top" xlink:title="Get priority value. ">
<polygon fill="none" stroke="black" points="841,-236 841,-266 978,-266 978,-236 841,-236"/>
<text text-anchor="start" x="849" y="-254" font-family="Helvetica,sans-Serif" font-size="10.00">nars.entity.BudgetValue.get</text>
<text text-anchor="middle" x="909.5" y="-243" font-family="Helvetica,sans-Serif" font-size="10.00">Priority</text>
</a>
</g>
</g>
<!-- Node139&#45;&gt;Node140 -->
<g id="edge17" class="edge"><title>Node139&#45;&gt;Node140</title>
<path fill="none" stroke="midnightblue" d="M778.099,-255.002C794.905,-254.486 813.166,-253.926 830.555,-253.392"/>
<polygon fill="midnightblue" stroke="midnightblue" points="830.786,-256.887 840.674,-253.082 830.572,-249.89 830.786,-256.887"/>
</g>
<!-- Node142 -->
<g id="node17" class="node"><title>Node142</title>
<g id="a_node17"><a xlink:href="../../dd/da2/a00192.html#a088e64163126211239b6afd25a9cdca3" target="_top" xlink:title="Increase priority value by a percentage of the remaining range. ">
<polygon fill="none" stroke="black" points="841,-394 841,-424 978,-424 978,-394 841,-394"/>
<text text-anchor="start" x="849" y="-412" font-family="Helvetica,sans-Serif" font-size="10.00">nars.entity.BudgetValue.inc</text>
<text text-anchor="middle" x="909.5" y="-401" font-family="Helvetica,sans-Serif" font-size="10.00">Priority</text>
</a>
</g>
</g>
<!-- Node141&#45;&gt;Node142 -->
<g id="edge19" class="edge"><title>Node141&#45;&gt;Node142</title>
<path fill="none" stroke="midnightblue" d="M777.556,-409C794.57,-409 813.107,-409 830.737,-409"/>
<polygon fill="midnightblue" stroke="midnightblue" points="830.994,-412.5 840.994,-409 830.994,-405.5 830.994,-412.5"/>
</g>
<!-- Node143 -->
<g id="node18" class="node"><title>Node143</title>
<g id="a_node18"><a xlink:href="../../db/d12/a00268.html#acaa4ebc080bc00d0e03be32d51d29e40" target="_top" xlink:title="A function where the output is disjunctively determined by the inputs. ">
<polygon fill="none" stroke="black" points="1014,-399.5 1014,-418.5 1175,-418.5 1175,-399.5 1014,-399.5"/>
<text text-anchor="middle" x="1094.5" y="-406.5" font-family="Helvetica,sans-Serif" font-size="10.00">nars.inference.UtilityFunctions.or</text>
</a>
</g>
</g>
<!-- Node142&#45;&gt;Node143 -->
<g id="edge20" class="edge"><title>Node142&#45;&gt;Node143</title>
<path fill="none" stroke="midnightblue" d="M978.123,-409C986.465,-409 995.092,-409 1003.7,-409"/>
<polygon fill="midnightblue" stroke="midnightblue" points="1003.78,-412.5 1013.78,-409 1003.78,-405.5 1003.78,-412.5"/>
</g>
<!-- Node145 -->
<g id="node20" class="node"><title>Node145</title>
<g id="a_node20"><a xlink:href="../../db/d12/a00268.html#ae9f34c27ee5675fa2b97f2def9e1fb99" target="_top" xlink:title="A function where the output is the geometric average the inputs. ">
<polygon fill="none" stroke="black" points="619,-159.5 619,-178.5 805,-178.5 805,-159.5 619,-159.5"/>
<text text-anchor="middle" x="712" y="-166.5" font-family="Helvetica,sans-Serif" font-size="10.00">nars.inference.UtilityFunctions.aveGeo</text>
</a>
</g>
</g>
<!-- Node144&#45;&gt;Node145 -->
<g id="edge22" class="edge"><title>Node144&#45;&gt;Node145</title>
<path fill="none" stroke="midnightblue" d="M569.271,-306.977C574.244,-304.184 578.892,-300.888 583,-297 620.054,-261.931 580.905,-221.936 619,-188 620.732,-186.457 622.555,-185.028 624.454,-183.703"/>
<polygon fill="midnightblue" stroke="midnightblue" points="626.377,-186.632 633.218,-178.542 622.825,-180.6 626.377,-186.632"/>
</g>
<!-- Node151 -->
<g id="node26" class="node"><title>Node151</title>
<g id="a_node26"><a xlink:href="../../dd/dc1/a00212.html#a68b153a51a5db6a4127b66158227697f" target="_top" xlink:title="The punctuation also indicates the type of the Sentence: Judgment, Question, or Goal. ">
<polygon fill="none" stroke="black" points="428,-181 428,-211 551,-211 551,-181 428,-181"/>
<text text-anchor="start" x="436" y="-199" font-family="Helvetica,sans-Serif" font-size="10.00">nars.entity.Sentence.get</text>
<text text-anchor="middle" x="489.5" y="-188" font-family="Helvetica,sans-Serif" font-size="10.00">Punctuation</text>
</a>
</g>
</g>
<!-- Node150&#45;&gt;Node151 -->
<g id="edge28" class="edge"><title>Node150&#45;&gt;Node151</title>
<path fill="none" stroke="midnightblue" d="M344.749,-196C368.522,-196 394.436,-196 417.631,-196"/>
<polygon fill="midnightblue" stroke="midnightblue" points="417.735,-199.5 427.735,-196 417.735,-192.5 417.735,-199.5"/>
</g>
<!-- Node152&#45;&gt;Node151 -->
<g id="edge30" class="edge"><title>Node152&#45;&gt;Node151</title>
<path fill="none" stroke="midnightblue" d="M321.484,-167.54C350.705,-172.519 386.756,-178.662 417.876,-183.965"/>
<polygon fill="midnightblue" stroke="midnightblue" points="417.346,-187.425 427.792,-185.655 418.522,-180.525 417.346,-187.425"/>
</g>
<!-- Node154 -->
<g id="node29" class="node"><title>Node154</title>
<g id="a_node29"><a xlink:href="../../d5/ddf/a00224.html#ae0fc96866e544c3dda5a87ea5c806fc3" target="_top" xlink:title="Belief from which the Task is derived, or null if derived from a theorem. ">
<polygon fill="none" stroke="black" points="423.5,-39 423.5,-69 555.5,-69 555.5,-39 423.5,-39"/>
<text text-anchor="start" x="431.5" y="-57" font-family="Helvetica,sans-Serif" font-size="10.00">nars.entity.Task.getParent</text>
<text text-anchor="middle" x="489.5" y="-46" font-family="Helvetica,sans-Serif" font-size="10.00">Belief</text>
</a>
</g>
</g>
<!-- Node153&#45;&gt;Node154 -->
<g id="edge32" class="edge"><title>Node153&#45;&gt;Node154</title>
<path fill="none" stroke="midnightblue" d="M334.531,-38.8103C359.488,-41.2724 387.782,-44.0637 413.246,-46.5758"/>
<polygon fill="midnightblue" stroke="midnightblue" points="412.927,-50.0612 423.222,-47.56 413.614,-43.0951 412.927,-50.0612"/>
</g>
<!-- Node155 -->
<g id="node30" class="node"><title>Node155</title>
<g id="a_node30"><a xlink:href="../../d5/ddf/a00224.html#a1d9cd3ae889c6822469217154e4dcf4f" target="_top" xlink:title="Task from which the Task is derived, or null if input. ">
<polygon fill="none" stroke="black" points="412.5,-0.5 412.5,-19.5 566.5,-19.5 566.5,-0.5 412.5,-0.5"/>
<text text-anchor="middle" x="489.5" y="-7.5" font-family="Helvetica,sans-Serif" font-size="10.00">nars.entity.Task.getParentTask</text>
</a>
</g>
</g>
<!-- Node153&#45;&gt;Node155 -->
<g id="edge33" class="edge"><title>Node153&#45;&gt;Node155</title>
<path fill="none" stroke="midnightblue" d="M334.531,-25.1897C355.94,-23.0776 379.805,-20.7233 402.232,-18.5107"/>
<polygon fill="midnightblue" stroke="midnightblue" points="402.814,-21.9704 412.422,-17.5055 402.126,-15.0043 402.814,-21.9704"/>
</g>
<!-- Node156&#45;&gt;Node146 -->
<g id="edge35" class="edge"><title>Node156&#45;&gt;Node146</title>
<path fill="none" stroke="midnightblue" d="M333.013,-251.504C361.327,-256.329 394.149,-261.922 422.319,-266.723"/>
<polygon fill="midnightblue" stroke="midnightblue" points="422.025,-270.223 432.471,-268.452 423.201,-263.322 422.025,-270.223"/>
</g>
<!-- Node156&#45;&gt;Node147 -->
<g id="edge36" class="edge"><title>Node156&#45;&gt;Node147</title>
<path fill="none" stroke="midnightblue" d="M333.013,-240C356.231,-240 382.481,-240 406.712,-240"/>
<polygon fill="midnightblue" stroke="midnightblue" points="406.958,-243.5 416.958,-240 406.958,-236.5 406.958,-243.5"/>
</g>
<!-- Node156&#45;&gt;Node151 -->
<g id="edge37" class="edge"><title>Node156&#45;&gt;Node151</title>
<path fill="none" stroke="midnightblue" d="M333.013,-226.679C359.843,-221.385 390.72,-215.293 417.852,-209.939"/>
<polygon fill="midnightblue" stroke="midnightblue" points="418.531,-213.373 427.664,-208.003 417.176,-206.505 418.531,-213.373"/>
</g>
</g>
</svg>
        <g id="navigator" transform="translate(0 0)" fill="#404254">
                <rect fill="#f2f5e9" fill-opacity="0.5" stroke="#606060" stroke-width=".5" x="0" y="0" width="60" height="60"/>
                <use id="zoomplus" xlink:href="#zoomPlus" x="17" y="9" onmousedown="handleZoom(evt,'in')"/>
                <use id="zoomminus" xlink:href="#zoomMin" x="42" y="9" onmousedown="handleZoom(evt,'out')"/>
                <use id="reset" xlink:href="#resetDef" x="30" y="36" onmousedown="handleReset()"/>
                <g id="arrowUp" xlink:href="#dirArrow" transform="translate(30 24)" onmousedown="handlePan(0,-1)">
                  <use xlink:href="#rim" fill="#404040">
                        <set attributeName="fill" to="#808080" begin="arrowUp.mouseover" end="arrowUp.mouseout"/>
                  </use>
                  <path fill="none" stroke="white" stroke-width="1.5" d="M0,-3.0v7 M-2.5,-0.5L0,-3.0L2.5,-0.5"/>
                </g>
                <g id="arrowRight" xlink:href="#dirArrow" transform="rotate(90) translate(36 -43)" onmousedown="handlePan(1,0)">
                  <use xlink:href="#rim" fill="#404040">
                        <set attributeName="fill" to="#808080" begin="arrowRight.mouseover" end="arrowRight.mouseout"/>
                  </use>
                  <path fill="none" stroke="white" stroke-width="1.5" d="M0,-3.0v7 M-2.5,-0.5L0,-3.0L2.5,-0.5"/>
                </g>
                <g id="arrowDown" xlink:href="#dirArrow" transform="rotate(180) translate(-30 -48)" onmousedown="handlePan(0,1)">
                  <use xlink:href="#rim" fill="#404040">
                        <set attributeName="fill" to="#808080" begin="arrowDown.mouseover" end="arrowDown.mouseout"/>
                  </use>
                  <path fill="none" stroke="white" stroke-width="1.5" d="M0,-3.0v7 M-2.5,-0.5L0,-3.0L2.5,-0.5"/>
                </g>
                <g id="arrowLeft" xlink:href="#dirArrow" transform="rotate(270) translate(-36 17)" onmousedown="handlePan(-1,0)">
                  <use xlink:href="#rim" fill="#404040">
                        <set attributeName="fill" to="#808080" begin="arrowLeft.mouseover" end="arrowLeft.mouseout"/>
                  </use>
                  <path fill="none" stroke="white" stroke-width="1.5" d="M0,-3.0v7 M-2.5,-0.5L0,-3.0L2.5,-0.5"/>
                </g>
        </g>
        <svg viewBox="0 0 15 15" width="100%" height="30px" preserveAspectRatio="xMaxYMin meet">
         <g id="arrow_out" transform="scale(0.3 0.3)">
          <a xlink:href="a00256_aa98f40a1f1409b81531260124ebd13db_cgraph_org.svg" target="_base">
           <rect id="button" ry="5" rx="5" y="6" x="6" height="38" width="38"
                fill="#f2f5e9" fill-opacity="0.5" stroke="#606060" stroke-width="1.0"/>
           <path id="arrow"
             d="M 11.500037,31.436501 C 11.940474,20.09759 22.043105,11.32322 32.158766,21.979434 L 37.068811,17.246167 C 37.068811,17.246167 37.088388,32 37.088388,32 L 22.160133,31.978069 C 22.160133,31.978069 26.997745,27.140456 26.997745,27.140456 C 18.528582,18.264221 13.291696,25.230495 11.500037,31.436501 z"
             style="fill:#404040;"/>
          </a>
         </g>
        </svg>
</svg>
