<?xml version="1.0" encoding="UTF-8" standalone="no"?>
<!DOCTYPE svg PUBLIC "-//W3C//DTD SVG 1.1//EN"
 "http://www.w3.org/Graphics/SVG/1.1/DTD/svg11.dtd">
<!-- Generated by graphviz version 2.38.0 (20140413.2041)
 -->
<!-- Title: nars.inference.StructuralRules.transformProductImage Pages: 1 -->
<svg width="1847pt" height="39pt"
 viewBox="0.00 0.00 1847.00 39.00" xmlns="http://www.w3.org/2000/svg" xmlns:xlink="http://www.w3.org/1999/xlink">
<g id="graph0" class="graph" transform="scale(1 1) rotate(0) translate(4 35)">
<title>nars.inference.StructuralRules.transformProductImage</title>
<!-- Node423 -->
<g id="node1" class="node"><title>Node423</title>
<polygon fill="#bfbfbf" stroke="black" points="0,-0.5 0,-30.5 147,-30.5 147,-0.5 0,-0.5"/>
<text text-anchor="start" x="8" y="-18.5" font-family="Helvetica,sans-Serif" font-size="10.00">nars.inference.Structural</text>
<text text-anchor="middle" x="73.5" y="-7.5" font-family="Helvetica,sans-Serif" font-size="10.00">Rules.transformProductImage</text>
</g>
<!-- Node424 -->
<g id="node2" class="node"><title>Node424</title>
<g id="a_node2"><a xlink:href="../../dc/ded/a00252.html#ab344d6ccee0f3671b57d092daeb65db4" target="_top" xlink:title="The TaskLink is of type TRANSFORM, and the conclusion is an equivalent transformation. ">
<polygon fill="none" stroke="black" points="183,-6 183,-25 380,-25 380,-6 183,-6"/>
<text text-anchor="middle" x="281.5" y="-13" font-family="Helvetica,sans-Serif" font-size="10.00">nars.inference.RuleTables.transformTask</text>
</a>
</g>
</g>
<!-- Node423&#45;&gt;Node424 -->
<g id="edge1" class="edge"><title>Node423&#45;&gt;Node424</title>
<path fill="none" stroke="midnightblue" d="M157.298,-15.5C165.726,-15.5 174.341,-15.5 182.906,-15.5"/>
<polygon fill="midnightblue" stroke="midnightblue" points="157.128,-12.0001 147.128,-15.5 157.128,-19.0001 157.128,-12.0001"/>
</g>
<!-- Node425 -->
<g id="node3" class="node"><title>Node425</title>
<g id="a_node3"><a xlink:href="../../d7/ded/a00196.html#ad6fb91dda799c3092ecb186ef24ca92a" target="_top" xlink:title="An atomic step in a concept, only called in Memory# processConcept. ">
<polygon fill="none" stroke="black" points="416,-0.5 416,-30.5 535,-30.5 535,-0.5 416,-0.5"/>
<text text-anchor="start" x="424" y="-18.5" font-family="Helvetica,sans-Serif" font-size="10.00">nars.entity.Concept.fire</text>
<text text-anchor="middle" x="475.5" y="-7.5" font-family="Helvetica,sans-Serif" font-size="10.00">FromProcessConcept</text>
</a>
</g>
</g>
<!-- Node424&#45;&gt;Node425 -->
<g id="edge2" class="edge"><title>Node424&#45;&gt;Node425</title>
<path fill="none" stroke="midnightblue" d="M390.194,-15.5C399.021,-15.5 407.714,-15.5 415.969,-15.5"/>
<polygon fill="midnightblue" stroke="midnightblue" points="390.187,-12.0001 380.187,-15.5 390.187,-19.0001 390.187,-12.0001"/>
</g>
<!-- Node426 -->
<g id="node4" class="node"><title>Node426</title>
<g id="a_node4"><a xlink:href="../../d4/d27/a00392.html#a0acc4adbf6a2462245da46bcb529746c" target="_top" xlink:title="Select a concept to fireFromProcessConcept. ">
<polygon fill="none" stroke="black" points="571,-0.5 571,-30.5 717,-30.5 717,-0.5 571,-0.5"/>
<text text-anchor="start" x="579" y="-18.5" font-family="Helvetica,sans-Serif" font-size="10.00">nars.storage.Memory.process</text>
<text text-anchor="middle" x="644" y="-7.5" font-family="Helvetica,sans-Serif" font-size="10.00">Concept</text>
</a>
</g>
</g>
<!-- Node425&#45;&gt;Node426 -->
<g id="edge3" class="edge"><title>Node425&#45;&gt;Node426</title>
<path fill="none" stroke="midnightblue" d="M545.337,-15.5C553.748,-15.5 562.361,-15.5 570.819,-15.5"/>
<polygon fill="midnightblue" stroke="midnightblue" points="545.202,-12.0001 535.202,-15.5 545.202,-19.0001 545.202,-12.0001"/>
</g>
<!-- Node427 -->
<g id="node5" class="node"><title>Node427</title>
<g id="a_node5"><a xlink:href="../../d4/d27/a00392.html#a59ae339d666409988d90d29be4f73a91" target="_top" xlink:title="An atomic working workCycle of the system: process new Tasks, then fireFromProcessConcept a concept...">
<polygon fill="none" stroke="black" points="753,-0.5 753,-30.5 886,-30.5 886,-0.5 753,-0.5"/>
<text text-anchor="start" x="761" y="-18.5" font-family="Helvetica,sans-Serif" font-size="10.00">nars.storage.Memory.work</text>
<text text-anchor="middle" x="819.5" y="-7.5" font-family="Helvetica,sans-Serif" font-size="10.00">Cycle</text>
</a>
</g>
</g>
<!-- Node426&#45;&gt;Node427 -->
<g id="edge4" class="edge"><title>Node426&#45;&gt;Node427</title>
<path fill="none" stroke="midnightblue" d="M727.118,-15.5C735.716,-15.5 744.375,-15.5 752.755,-15.5"/>
<polygon fill="midnightblue" stroke="midnightblue" points="727.072,-12.0001 717.072,-15.5 727.072,-19.0001 727.072,-12.0001"/>
</g>
<!-- Node428 -->
<g id="node6" class="node"><title>Node428</title>
<g id="a_node6"><a xlink:href="../../df/d15/a00416.html#a0d5c797dc17d9e8d0998852915e0f303" target="_top" xlink:title="nars.storage.ReasonerBatch.doTick">
<polygon fill="none" stroke="black" points="922,-6 922,-25 1095,-25 1095,-6 922,-6"/>
<text text-anchor="middle" x="1008.5" y="-13" font-family="Helvetica,sans-Serif" font-size="10.00">nars.storage.ReasonerBatch.doTick</text>
</a>
</g>
</g>
<!-- Node427&#45;&gt;Node428 -->
<g id="edge5" class="edge"><title>Node427&#45;&gt;Node428</title>
<path fill="none" stroke="midnightblue" d="M896.343,-15.5C904.782,-15.5 913.421,-15.5 921.971,-15.5"/>
<polygon fill="midnightblue" stroke="midnightblue" points="896.166,-12.0001 886.166,-15.5 896.166,-19.0001 896.166,-12.0001"/>
</g>
<!-- Node429 -->
<g id="node7" class="node"><title>Node429</title>
<g id="a_node7"><a xlink:href="../../df/d15/a00416.html#a3468aa0f99edcd66412f27922dddb880" target="_top" xlink:title="A clock tick. ">
<polygon fill="none" stroke="black" points="1131,-6 1131,-25 1291,-25 1291,-6 1131,-6"/>
<text text-anchor="middle" x="1211" y="-13" font-family="Helvetica,sans-Serif" font-size="10.00">nars.storage.ReasonerBatch.tick</text>
</a>
</g>
</g>
<!-- Node428&#45;&gt;Node429 -->
<g id="edge6" class="edge"><title>Node428&#45;&gt;Node429</title>
<path fill="none" stroke="midnightblue" d="M1105.13,-15.5C1113.7,-15.5 1122.31,-15.5 1130.71,-15.5"/>
<polygon fill="midnightblue" stroke="midnightblue" points="1105.11,-12.0001 1095.11,-15.5 1105.11,-19.0001 1105.11,-12.0001"/>
</g>
<!-- Node430 -->
<g id="node8" class="node"><title>Node430</title>
<g id="a_node8"><a xlink:href="../../d9/da1/a00396.html#a5d9cfe517bcfbe41e5251910bcd119c1" target="_top" xlink:title="Run to completion: repeatedly execute NARS working cycle, until Inputs are Finished, or 1000 steps. ">
<polygon fill="none" stroke="black" points="1327,-6 1327,-25 1471,-25 1471,-6 1327,-6"/>
<text text-anchor="middle" x="1399" y="-13" font-family="Helvetica,sans-Serif" font-size="10.00">nars.storage.NARSBatch.run</text>
</a>
</g>
</g>
<!-- Node429&#45;&gt;Node430 -->
<g id="edge7" class="edge"><title>Node429&#45;&gt;Node430</title>
<path fill="none" stroke="midnightblue" d="M1301.22,-15.5C1309.82,-15.5 1318.47,-15.5 1326.87,-15.5"/>
<polygon fill="midnightblue" stroke="midnightblue" points="1301.15,-12.0001 1291.15,-15.5 1301.15,-19.0001 1301.15,-12.0001"/>
</g>
<!-- Node431 -->
<g id="node9" class="node"><title>Node431</title>
<g id="a_node9"><a xlink:href="../../d9/da1/a00396.html#a7c307c6b842f82664de6b0e52bdf8efc" target="_top" xlink:title="non&#45;static equivalent to main(String[]) : run to completion from an input file ">
<polygon fill="none" stroke="black" points="1507,-0.5 1507,-30.5 1651,-30.5 1651,-0.5 1507,-0.5"/>
<text text-anchor="start" x="1515" y="-18.5" font-family="Helvetica,sans-Serif" font-size="10.00">nars.storage.NARSBatch.run</text>
<text text-anchor="middle" x="1579" y="-7.5" font-family="Helvetica,sans-Serif" font-size="10.00">Inference</text>
</a>
</g>
</g>
<!-- Node430&#45;&gt;Node431 -->
<g id="edge8" class="edge"><title>Node430&#45;&gt;Node431</title>
<path fill="none" stroke="midnightblue" d="M1481.17,-15.5C1489.79,-15.5 1498.51,-15.5 1507,-15.5"/>
<polygon fill="midnightblue" stroke="midnightblue" points="1481.12,-12.0001 1471.12,-15.5 1481.12,-19.0001 1481.12,-12.0001"/>
</g>
<!-- Node432 -->
<g id="node10" class="node"><title>Node432</title>
<g id="a_node10"><a xlink:href="../../d9/da1/a00396.html#abafc597289bc2f6453b5cd0dd6634e54" target="_top" xlink:title="The entry point of the standalone application. ">
<polygon fill="none" stroke="black" points="1687,-6 1687,-25 1839,-25 1839,-6 1687,-6"/>
<text text-anchor="middle" x="1763" y="-13" font-family="Helvetica,sans-Serif" font-size="10.00">nars.storage.NARSBatch.main</text>
</a>
</g>
</g>
<!-- Node431&#45;&gt;Node432 -->
<g id="edge9" class="edge"><title>Node431&#45;&gt;Node432</title>
<path fill="none" stroke="midnightblue" d="M1661.17,-15.5C1669.76,-15.5 1678.48,-15.5 1687,-15.5"/>
<polygon fill="midnightblue" stroke="midnightblue" points="1661.15,-12.0001 1651.15,-15.5 1661.15,-19.0001 1661.15,-12.0001"/>
</g>
</g>
</svg>
