<?xml version="1.0" encoding="UTF-8" standalone="no"?>
<!DOCTYPE svg PUBLIC "-//W3C//DTD SVG 1.1//EN"
 "http://www.w3.org/Graphics/SVG/1.1/DTD/svg11.dtd">
<!-- Generated by graphviz version 2.38.0 (20140413.2041)
 -->
<!-- Title: nars.inference.StructuralRules.switchOrder Pages: 1 -->
<svg width="306pt" height="88pt"
 viewBox="0.00 0.00 306.00 88.00" xmlns="http://www.w3.org/2000/svg" xmlns:xlink="http://www.w3.org/1999/xlink">
<g id="graph0" class="graph" transform="scale(1 1) rotate(0) translate(4 84)">
<title>nars.inference.StructuralRules.switchOrder</title>
<!-- Node315 -->
<g id="node1" class="node"><title>Node315</title>
<polygon fill="#bfbfbf" stroke="black" points="0,-24.5 0,-54.5 123,-54.5 123,-24.5 0,-24.5"/>
<text text-anchor="start" x="8" y="-42.5" font-family="Helvetica,sans-Serif" font-size="10.00">nars.inference.Structural</text>
<text text-anchor="middle" x="61.5" y="-31.5" font-family="Helvetica,sans-Serif" font-size="10.00">Rules.switchOrder</text>
</g>
<!-- Node316 -->
<g id="node2" class="node"><title>Node316</title>
<g id="a_node2"><a xlink:href="../../d7/df2/a00312.html#a4aa7841fe7d6622f6ad2e39c74b5854d" target="_top" xlink:title="get the index of the relation in the component list ">
<polygon fill="none" stroke="black" points="161,-49.5 161,-79.5 296,-79.5 296,-49.5 161,-49.5"/>
<text text-anchor="start" x="169" y="-67.5" font-family="Helvetica,sans-Serif" font-size="10.00">nars.language.ImageInt.get</text>
<text text-anchor="middle" x="228.5" y="-56.5" font-family="Helvetica,sans-Serif" font-size="10.00">RelationIndex</text>
</a>
</g>
</g>
<!-- Node315&#45;&gt;Node316 -->
<g id="edge1" class="edge"><title>Node315&#45;&gt;Node316</title>
<path fill="none" stroke="midnightblue" d="M123.003,-48.6671C132.054,-50.0385 141.486,-51.4675 150.818,-52.8815"/>
<polygon fill="midnightblue" stroke="midnightblue" points="150.471,-56.3688 160.882,-54.4064 151.52,-49.4478 150.471,-56.3688"/>
</g>
<!-- Node317 -->
<g id="node3" class="node"><title>Node317</title>
<g id="a_node3"><a xlink:href="../../d5/d0f/a00308.html#a52a40e43bd7a74ef9461cbb658f86a62" target="_top" xlink:title="get the index of the relation in the component list ">
<polygon fill="none" stroke="black" points="159,-0.5 159,-30.5 298,-30.5 298,-0.5 159,-0.5"/>
<text text-anchor="start" x="167" y="-18.5" font-family="Helvetica,sans-Serif" font-size="10.00">nars.language.ImageExt.get</text>
<text text-anchor="middle" x="228.5" y="-7.5" font-family="Helvetica,sans-Serif" font-size="10.00">RelationIndex</text>
</a>
</g>
</g>
<!-- Node315&#45;&gt;Node317 -->
<g id="edge2" class="edge"><title>Node315&#45;&gt;Node317</title>
<path fill="none" stroke="midnightblue" d="M123.003,-30.6996C131.399,-29.4784 140.122,-28.2095 148.789,-26.9488"/>
<polygon fill="midnightblue" stroke="midnightblue" points="149.524,-30.3789 158.916,-25.4759 148.516,-23.4518 149.524,-30.3789"/>
</g>
</g>
</svg>
