<?xml version="1.0" encoding="UTF-8" standalone="no"?>
<!DOCTYPE svg PUBLIC "-//W3C//DTD SVG 1.1//EN"
 "http://www.w3.org/Graphics/SVG/1.1/DTD/svg11.dtd">
<!-- Generated by graphviz version 2.38.0 (20140413.2041)
 -->
<!-- Title: nars.inference.RuleTables.detachment Pages: 1 -->
<svg width="2288pt" height="63pt"
 viewBox="0.00 0.00 2288.00 63.00" xmlns="http://www.w3.org/2000/svg" xmlns:xlink="http://www.w3.org/1999/xlink">
<g id="graph0" class="graph" transform="scale(1 1) rotate(0) translate(4 59)">
<title>nars.inference.RuleTables.detachment</title>
<!-- Node1420 -->
<g id="node1" class="node"><title>Node1420</title>
<polygon fill="#bfbfbf" stroke="black" points="0,-8 0,-27 185,-27 185,-8 0,-8"/>
<text text-anchor="middle" x="92.5" y="-15" font-family="Helvetica,sans-Serif" font-size="10.00">nars.inference.RuleTables.detachment</text>
</g>
<!-- Node1421 -->
<g id="node2" class="node"><title>Node1421</title>
<g id="a_node2"><a xlink:href="../../dc/ded/a00252.html#af6c973743270b2739d4ad25f16975da1" target="_top" xlink:title="The detachment rule, with variable unification. ">
<polygon fill="none" stroke="black" points="221,-24.5 221,-54.5 406,-54.5 406,-24.5 221,-24.5"/>
<text text-anchor="start" x="229" y="-42.5" font-family="Helvetica,sans-Serif" font-size="10.00">nars.inference.RuleTables.detachment</text>
<text text-anchor="middle" x="313.5" y="-31.5" font-family="Helvetica,sans-Serif" font-size="10.00">WithVar</text>
</a>
</g>
</g>
<!-- Node1420&#45;&gt;Node1421 -->
<g id="edge1" class="edge"><title>Node1420&#45;&gt;Node1421</title>
<path fill="none" stroke="midnightblue" d="M195.151,-27.7115C203.743,-28.5746 212.4,-29.4442 220.908,-30.299"/>
<polygon fill="midnightblue" stroke="midnightblue" points="195.407,-24.2197 185.107,-26.7025 194.707,-31.1846 195.407,-24.2197"/>
</g>
<!-- Node1423 -->
<g id="node4" class="node"><title>Node1423</title>
<g id="a_node4"><a xlink:href="../../dc/ded/a00252.html#ac2d01dfdc40bdd47c757cb549217e6e3" target="_top" xlink:title="Entry point of the inference engine. ">
<polygon fill="none" stroke="black" points="658,-6 658,-25 821,-25 821,-6 658,-6"/>
<text text-anchor="middle" x="739.5" y="-13" font-family="Helvetica,sans-Serif" font-size="10.00">nars.inference.RuleTables.reason</text>
</a>
</g>
</g>
<!-- Node1420&#45;&gt;Node1423 -->
<g id="edge12" class="edge"><title>Node1420&#45;&gt;Node1423</title>
<path fill="none" stroke="midnightblue" d="M195.287,-14.8906C203.984,-14.7328 212.646,-14.5983 221,-14.5 375.521,-12.6824 556.012,-13.7586 657.823,-14.6606"/>
<polygon fill="midnightblue" stroke="midnightblue" points="195.009,-11.3952 185.078,-15.086 195.143,-18.3939 195.009,-11.3952"/>
</g>
<!-- Node1422 -->
<g id="node3" class="node"><title>Node1422</title>
<g id="a_node3"><a xlink:href="../../dc/ded/a00252.html#a8628d400a8ceda7fea05039ddfea319b" target="_top" xlink:title="Meta&#45;table of syllogistic rules, indexed by the content classes of the taskSentence and the belief...">
<polygon fill="none" stroke="black" points="442,-27 442,-46 622,-46 622,-27 442,-27"/>
<text text-anchor="middle" x="532" y="-34" font-family="Helvetica,sans-Serif" font-size="10.00">nars.inference.RuleTables.syllogisms</text>
</a>
</g>
</g>
<!-- Node1421&#45;&gt;Node1422 -->
<g id="edge2" class="edge"><title>Node1421&#45;&gt;Node1422</title>
<path fill="none" stroke="midnightblue" d="M416.084,-38.0924C424.705,-37.9729 433.383,-37.8527 441.898,-37.7347"/>
<polygon fill="midnightblue" stroke="midnightblue" points="415.952,-34.5938 406.002,-38.2321 416.049,-41.5931 415.952,-34.5938"/>
</g>
<!-- Node1422&#45;&gt;Node1423 -->
<g id="edge3" class="edge"><title>Node1422&#45;&gt;Node1423</title>
<path fill="none" stroke="midnightblue" d="M632.244,-26.3583C640.792,-25.4848 649.372,-24.608 657.747,-23.7521"/>
<polygon fill="midnightblue" stroke="midnightblue" points="631.831,-22.8822 622.239,-27.3807 632.543,-29.8459 631.831,-22.8822"/>
</g>
<!-- Node1424 -->
<g id="node5" class="node"><title>Node1424</title>
<g id="a_node5"><a xlink:href="../../d7/ded/a00196.html#ad6fb91dda799c3092ecb186ef24ca92a" target="_top" xlink:title="An atomic step in a concept, only called in Memory# processConcept. ">
<polygon fill="none" stroke="black" points="857,-0.5 857,-30.5 976,-30.5 976,-0.5 857,-0.5"/>
<text text-anchor="start" x="865" y="-18.5" font-family="Helvetica,sans-Serif" font-size="10.00">nars.entity.Concept.fire</text>
<text text-anchor="middle" x="916.5" y="-7.5" font-family="Helvetica,sans-Serif" font-size="10.00">FromProcessConcept</text>
</a>
</g>
</g>
<!-- Node1423&#45;&gt;Node1424 -->
<g id="edge4" class="edge"><title>Node1423&#45;&gt;Node1424</title>
<path fill="none" stroke="midnightblue" d="M831.249,-15.5C839.907,-15.5 848.523,-15.5 856.757,-15.5"/>
<polygon fill="midnightblue" stroke="midnightblue" points="831.085,-12.0001 821.085,-15.5 831.085,-19.0001 831.085,-12.0001"/>
</g>
<!-- Node1425 -->
<g id="node6" class="node"><title>Node1425</title>
<g id="a_node6"><a xlink:href="../../d4/d27/a00392.html#a0acc4adbf6a2462245da46bcb529746c" target="_top" xlink:title="Select a concept to fireFromProcessConcept. ">
<polygon fill="none" stroke="black" points="1012,-0.5 1012,-30.5 1158,-30.5 1158,-0.5 1012,-0.5"/>
<text text-anchor="start" x="1020" y="-18.5" font-family="Helvetica,sans-Serif" font-size="10.00">nars.storage.Memory.process</text>
<text text-anchor="middle" x="1085" y="-7.5" font-family="Helvetica,sans-Serif" font-size="10.00">Concept</text>
</a>
</g>
</g>
<!-- Node1424&#45;&gt;Node1425 -->
<g id="edge5" class="edge"><title>Node1424&#45;&gt;Node1425</title>
<path fill="none" stroke="midnightblue" d="M986.337,-15.5C994.748,-15.5 1003.36,-15.5 1011.82,-15.5"/>
<polygon fill="midnightblue" stroke="midnightblue" points="986.202,-12.0001 976.202,-15.5 986.202,-19.0001 986.202,-12.0001"/>
</g>
<!-- Node1426 -->
<g id="node7" class="node"><title>Node1426</title>
<g id="a_node7"><a xlink:href="../../d4/d27/a00392.html#a59ae339d666409988d90d29be4f73a91" target="_top" xlink:title="An atomic working workCycle of the system: process new Tasks, then fireFromProcessConcept a concept...">
<polygon fill="none" stroke="black" points="1194,-0.5 1194,-30.5 1327,-30.5 1327,-0.5 1194,-0.5"/>
<text text-anchor="start" x="1202" y="-18.5" font-family="Helvetica,sans-Serif" font-size="10.00">nars.storage.Memory.work</text>
<text text-anchor="middle" x="1260.5" y="-7.5" font-family="Helvetica,sans-Serif" font-size="10.00">Cycle</text>
</a>
</g>
</g>
<!-- Node1425&#45;&gt;Node1426 -->
<g id="edge6" class="edge"><title>Node1425&#45;&gt;Node1426</title>
<path fill="none" stroke="midnightblue" d="M1168.12,-15.5C1176.72,-15.5 1185.37,-15.5 1193.76,-15.5"/>
<polygon fill="midnightblue" stroke="midnightblue" points="1168.07,-12.0001 1158.07,-15.5 1168.07,-19.0001 1168.07,-12.0001"/>
</g>
<!-- Node1427 -->
<g id="node8" class="node"><title>Node1427</title>
<g id="a_node8"><a xlink:href="../../df/d15/a00416.html#a0d5c797dc17d9e8d0998852915e0f303" target="_top" xlink:title="nars.storage.ReasonerBatch.doTick">
<polygon fill="none" stroke="black" points="1363,-6 1363,-25 1536,-25 1536,-6 1363,-6"/>
<text text-anchor="middle" x="1449.5" y="-13" font-family="Helvetica,sans-Serif" font-size="10.00">nars.storage.ReasonerBatch.doTick</text>
</a>
</g>
</g>
<!-- Node1426&#45;&gt;Node1427 -->
<g id="edge7" class="edge"><title>Node1426&#45;&gt;Node1427</title>
<path fill="none" stroke="midnightblue" d="M1337.34,-15.5C1345.78,-15.5 1354.42,-15.5 1362.97,-15.5"/>
<polygon fill="midnightblue" stroke="midnightblue" points="1337.17,-12.0001 1327.17,-15.5 1337.17,-19.0001 1337.17,-12.0001"/>
</g>
<!-- Node1428 -->
<g id="node9" class="node"><title>Node1428</title>
<g id="a_node9"><a xlink:href="../../df/d15/a00416.html#a3468aa0f99edcd66412f27922dddb880" target="_top" xlink:title="A clock tick. ">
<polygon fill="none" stroke="black" points="1572,-6 1572,-25 1732,-25 1732,-6 1572,-6"/>
<text text-anchor="middle" x="1652" y="-13" font-family="Helvetica,sans-Serif" font-size="10.00">nars.storage.ReasonerBatch.tick</text>
</a>
</g>
</g>
<!-- Node1427&#45;&gt;Node1428 -->
<g id="edge8" class="edge"><title>Node1427&#45;&gt;Node1428</title>
<path fill="none" stroke="midnightblue" d="M1546.13,-15.5C1554.7,-15.5 1563.31,-15.5 1571.71,-15.5"/>
<polygon fill="midnightblue" stroke="midnightblue" points="1546.11,-12.0001 1536.11,-15.5 1546.11,-19.0001 1546.11,-12.0001"/>
</g>
<!-- Node1429 -->
<g id="node10" class="node"><title>Node1429</title>
<g id="a_node10"><a xlink:href="../../d9/da1/a00396.html#a5d9cfe517bcfbe41e5251910bcd119c1" target="_top" xlink:title="Run to completion: repeatedly execute NARS working cycle, until Inputs are Finished, or 1000 steps. ">
<polygon fill="none" stroke="black" points="1768,-6 1768,-25 1912,-25 1912,-6 1768,-6"/>
<text text-anchor="middle" x="1840" y="-13" font-family="Helvetica,sans-Serif" font-size="10.00">nars.storage.NARSBatch.run</text>
</a>
</g>
</g>
<!-- Node1428&#45;&gt;Node1429 -->
<g id="edge9" class="edge"><title>Node1428&#45;&gt;Node1429</title>
<path fill="none" stroke="midnightblue" d="M1742.22,-15.5C1750.82,-15.5 1759.47,-15.5 1767.87,-15.5"/>
<polygon fill="midnightblue" stroke="midnightblue" points="1742.15,-12.0001 1732.15,-15.5 1742.15,-19.0001 1742.15,-12.0001"/>
</g>
<!-- Node1430 -->
<g id="node11" class="node"><title>Node1430</title>
<g id="a_node11"><a xlink:href="../../d9/da1/a00396.html#a7c307c6b842f82664de6b0e52bdf8efc" target="_top" xlink:title="non&#45;static equivalent to main(String[]) : run to completion from an input file ">
<polygon fill="none" stroke="black" points="1948,-0.5 1948,-30.5 2092,-30.5 2092,-0.5 1948,-0.5"/>
<text text-anchor="start" x="1956" y="-18.5" font-family="Helvetica,sans-Serif" font-size="10.00">nars.storage.NARSBatch.run</text>
<text text-anchor="middle" x="2020" y="-7.5" font-family="Helvetica,sans-Serif" font-size="10.00">Inference</text>
</a>
</g>
</g>
<!-- Node1429&#45;&gt;Node1430 -->
<g id="edge10" class="edge"><title>Node1429&#45;&gt;Node1430</title>
<path fill="none" stroke="midnightblue" d="M1922.17,-15.5C1930.79,-15.5 1939.51,-15.5 1948,-15.5"/>
<polygon fill="midnightblue" stroke="midnightblue" points="1922.12,-12.0001 1912.12,-15.5 1922.12,-19.0001 1922.12,-12.0001"/>
</g>
<!-- Node1431 -->
<g id="node12" class="node"><title>Node1431</title>
<g id="a_node12"><a xlink:href="../../d9/da1/a00396.html#abafc597289bc2f6453b5cd0dd6634e54" target="_top" xlink:title="The entry point of the standalone application. ">
<polygon fill="none" stroke="black" points="2128,-6 2128,-25 2280,-25 2280,-6 2128,-6"/>
<text text-anchor="middle" x="2204" y="-13" font-family="Helvetica,sans-Serif" font-size="10.00">nars.storage.NARSBatch.main</text>
</a>
</g>
</g>
<!-- Node1430&#45;&gt;Node1431 -->
<g id="edge11" class="edge"><title>Node1430&#45;&gt;Node1431</title>
<path fill="none" stroke="midnightblue" d="M2102.17,-15.5C2110.76,-15.5 2119.48,-15.5 2128,-15.5"/>
<polygon fill="midnightblue" stroke="midnightblue" points="2102.15,-12.0001 2092.15,-15.5 2102.15,-19.0001 2102.15,-12.0001"/>
</g>
</g>
</svg>
