<?xml version="1.0" encoding="UTF-8" standalone="no"?>
<!DOCTYPE svg PUBLIC "-//W3C//DTD SVG 1.1//EN"
 "http://www.w3.org/Graphics/SVG/1.1/DTD/svg11.dtd">
<!-- Generated by graphviz version 2.38.0 (20140413.2041)
 -->
<!-- Title: nars.inference.RuleTables.contraposition Pages: 1 -->
<!--zoomable 39 -->
<svg id="main" version="1.1" xmlns="http://www.w3.org/2000/svg" xmlns:xlink="http://www.w3.org/1999/xlink" xml:space="preserve" onload="init(evt)">
<style type="text/css"><![CDATA[
.edge:hover path { stroke: red; }
.edge:hover polygon { stroke: red; fill: red; }
]]></style>
<script type="text/javascript"><![CDATA[
var edges = document.getElementsByTagName('g');
if (edges && edges.length) {
  for (var i=0;i<edges.length;i++) {
    if (edges[i].id.substr(0,4)=='edge') {
      edges[i].setAttribute('class','edge');
    }
  }
}
]]></script>
        <defs>
                <circle id="rim" cx="0" cy="0" r="7"/>
                <circle id="rim2" cx="0" cy="0" r="3.5"/>
                <g id="zoomPlus">
                        <use xlink:href="#rim" fill="#404040">
                                <set attributeName="fill" to="#808080" begin="zoomplus.mouseover" end="zoomplus.mouseout"/>
                        </use>
                        <path d="M-4,0h8M0,-4v8" fill="none" stroke="white" stroke-width="1.5" pointer-events="none"/>
                </g>
                <g id="zoomMin">
                        <use xlink:href="#rim" fill="#404040">
                                <set attributeName="fill" to="#808080" begin="zoomminus.mouseover" end="zoomminus.mouseout"/>
                        </use>
                        <path d="M-4,0h8" fill="none" stroke="white" stroke-width="1.5" pointer-events="none"/>
                </g>
                <g id="dirArrow">
                        <path fill="none" stroke="white" stroke-width="1.5" d="M0,-3.0v7 M-2.5,-0.5L0,-3.0L2.5,-0.5"/>
                </g>
               <g id="resetDef">
                       <use xlink:href="#rim2" fill="#404040">
                               <set attributeName="fill" to="#808080" begin="reset.mouseover" end="reset.mouseout"/>
                       </use>
               </g>
        </defs>

<script type="text/javascript">
var viewWidth = 2078;
var viewHeight = 39;
var sectionId = 'dynsection-25';
</script>
<script xlink:href="../../svgpan.js"/>
<svg id="graph" class="graph">
<g id="viewport">
<title>nars.inference.RuleTables.contraposition</title>
<!-- Node1186 -->
<g id="node1" class="node"><title>Node1186</title>
<polygon fill="#bfbfbf" stroke="black" points="0,-6 0,-25 194,-25 194,-6 0,-6"/>
<text text-anchor="middle" x="97" y="-13" font-family="Helvetica,sans-Serif" font-size="10.00">nars.inference.RuleTables.contraposition</text>
</g>
<!-- Node1187 -->
<g id="node2" class="node"><title>Node1187</title>
<g id="a_node2"><a xlink:href="../../dc/ded/a00252.html#a08680eb3f85b0a37b7bd969de8b25904" target="_top" xlink:title="Inference between a component term (of the current term) and a statement. ">
<polygon fill="none" stroke="black" points="230,-0.5 230,-30.5 412,-30.5 412,-0.5 230,-0.5"/>
<text text-anchor="start" x="238" y="-18.5" font-family="Helvetica,sans-Serif" font-size="10.00">nars.inference.RuleTables.component</text>
<text text-anchor="middle" x="321" y="-7.5" font-family="Helvetica,sans-Serif" font-size="10.00">AndStatement</text>
</a>
</g>
</g>
<!-- Node1186&#45;&gt;Node1187 -->
<g id="edge1" class="edge"><title>Node1186&#45;&gt;Node1187</title>
<path fill="none" stroke="midnightblue" d="M204.11,-15.5C212.679,-15.5 221.286,-15.5 229.728,-15.5"/>
<polygon fill="midnightblue" stroke="midnightblue" points="204.081,-12.0001 194.081,-15.5 204.081,-19.0001 204.081,-12.0001"/>
</g>
<!-- Node1188 -->
<g id="node3" class="node"><title>Node1188</title>
<g id="a_node3"><a xlink:href="../../dc/ded/a00252.html#ac2d01dfdc40bdd47c757cb549217e6e3" target="_top" xlink:title="Entry point of the inference engine. ">
<polygon fill="none" stroke="black" points="448,-6 448,-25 611,-25 611,-6 448,-6"/>
<text text-anchor="middle" x="529.5" y="-13" font-family="Helvetica,sans-Serif" font-size="10.00">nars.inference.RuleTables.reason</text>
</a>
</g>
</g>
<!-- Node1187&#45;&gt;Node1188 -->
<g id="edge2" class="edge"><title>Node1187&#45;&gt;Node1188</title>
<path fill="none" stroke="midnightblue" d="M422.295,-15.5C430.855,-15.5 439.442,-15.5 447.82,-15.5"/>
<polygon fill="midnightblue" stroke="midnightblue" points="422.274,-12.0001 412.274,-15.5 422.273,-19.0001 422.274,-12.0001"/>
</g>
<!-- Node1189 -->
<g id="node4" class="node"><title>Node1189</title>
<g id="a_node4"><a xlink:href="../../d7/ded/a00196.html#ad6fb91dda799c3092ecb186ef24ca92a" target="_top" xlink:title="An atomic step in a concept, only called in Memory# processConcept. ">
<polygon fill="none" stroke="black" points="647,-0.5 647,-30.5 766,-30.5 766,-0.5 647,-0.5"/>
<text text-anchor="start" x="655" y="-18.5" font-family="Helvetica,sans-Serif" font-size="10.00">nars.entity.Concept.fire</text>
<text text-anchor="middle" x="706.5" y="-7.5" font-family="Helvetica,sans-Serif" font-size="10.00">FromProcessConcept</text>
</a>
</g>
</g>
<!-- Node1188&#45;&gt;Node1189 -->
<g id="edge3" class="edge"><title>Node1188&#45;&gt;Node1189</title>
<path fill="none" stroke="midnightblue" d="M621.249,-15.5C629.907,-15.5 638.523,-15.5 646.757,-15.5"/>
<polygon fill="midnightblue" stroke="midnightblue" points="621.085,-12.0001 611.085,-15.5 621.085,-19.0001 621.085,-12.0001"/>
</g>
<!-- Node1190 -->
<g id="node5" class="node"><title>Node1190</title>
<g id="a_node5"><a xlink:href="../../d4/d27/a00392.html#a0acc4adbf6a2462245da46bcb529746c" target="_top" xlink:title="Select a concept to fireFromProcessConcept. ">
<polygon fill="none" stroke="black" points="802,-0.5 802,-30.5 948,-30.5 948,-0.5 802,-0.5"/>
<text text-anchor="start" x="810" y="-18.5" font-family="Helvetica,sans-Serif" font-size="10.00">nars.storage.Memory.process</text>
<text text-anchor="middle" x="875" y="-7.5" font-family="Helvetica,sans-Serif" font-size="10.00">Concept</text>
</a>
</g>
</g>
<!-- Node1189&#45;&gt;Node1190 -->
<g id="edge4" class="edge"><title>Node1189&#45;&gt;Node1190</title>
<path fill="none" stroke="midnightblue" d="M776.337,-15.5C784.748,-15.5 793.361,-15.5 801.819,-15.5"/>
<polygon fill="midnightblue" stroke="midnightblue" points="776.202,-12.0001 766.202,-15.5 776.202,-19.0001 776.202,-12.0001"/>
</g>
<!-- Node1191 -->
<g id="node6" class="node"><title>Node1191</title>
<g id="a_node6"><a xlink:href="../../d4/d27/a00392.html#a59ae339d666409988d90d29be4f73a91" target="_top" xlink:title="An atomic working workCycle of the system: process new Tasks, then fireFromProcessConcept a concept...">
<polygon fill="none" stroke="black" points="984,-0.5 984,-30.5 1117,-30.5 1117,-0.5 984,-0.5"/>
<text text-anchor="start" x="992" y="-18.5" font-family="Helvetica,sans-Serif" font-size="10.00">nars.storage.Memory.work</text>
<text text-anchor="middle" x="1050.5" y="-7.5" font-family="Helvetica,sans-Serif" font-size="10.00">Cycle</text>
</a>
</g>
</g>
<!-- Node1190&#45;&gt;Node1191 -->
<g id="edge5" class="edge"><title>Node1190&#45;&gt;Node1191</title>
<path fill="none" stroke="midnightblue" d="M958.118,-15.5C966.716,-15.5 975.375,-15.5 983.755,-15.5"/>
<polygon fill="midnightblue" stroke="midnightblue" points="958.072,-12.0001 948.072,-15.5 958.072,-19.0001 958.072,-12.0001"/>
</g>
<!-- Node1192 -->
<g id="node7" class="node"><title>Node1192</title>
<g id="a_node7"><a xlink:href="../../df/d15/a00416.html#a0d5c797dc17d9e8d0998852915e0f303" target="_top" xlink:title="nars.storage.ReasonerBatch.doTick">
<polygon fill="none" stroke="black" points="1153,-6 1153,-25 1326,-25 1326,-6 1153,-6"/>
<text text-anchor="middle" x="1239.5" y="-13" font-family="Helvetica,sans-Serif" font-size="10.00">nars.storage.ReasonerBatch.doTick</text>
</a>
</g>
</g>
<!-- Node1191&#45;&gt;Node1192 -->
<g id="edge6" class="edge"><title>Node1191&#45;&gt;Node1192</title>
<path fill="none" stroke="midnightblue" d="M1127.34,-15.5C1135.78,-15.5 1144.42,-15.5 1152.97,-15.5"/>
<polygon fill="midnightblue" stroke="midnightblue" points="1127.17,-12.0001 1117.17,-15.5 1127.17,-19.0001 1127.17,-12.0001"/>
</g>
<!-- Node1193 -->
<g id="node8" class="node"><title>Node1193</title>
<g id="a_node8"><a xlink:href="../../df/d15/a00416.html#a3468aa0f99edcd66412f27922dddb880" target="_top" xlink:title="A clock tick. ">
<polygon fill="none" stroke="black" points="1362,-6 1362,-25 1522,-25 1522,-6 1362,-6"/>
<text text-anchor="middle" x="1442" y="-13" font-family="Helvetica,sans-Serif" font-size="10.00">nars.storage.ReasonerBatch.tick</text>
</a>
</g>
</g>
<!-- Node1192&#45;&gt;Node1193 -->
<g id="edge7" class="edge"><title>Node1192&#45;&gt;Node1193</title>
<path fill="none" stroke="midnightblue" d="M1336.13,-15.5C1344.7,-15.5 1353.31,-15.5 1361.71,-15.5"/>
<polygon fill="midnightblue" stroke="midnightblue" points="1336.11,-12.0001 1326.11,-15.5 1336.11,-19.0001 1336.11,-12.0001"/>
</g>
<!-- Node1194 -->
<g id="node9" class="node"><title>Node1194</title>
<g id="a_node9"><a xlink:href="../../d9/da1/a00396.html#a5d9cfe517bcfbe41e5251910bcd119c1" target="_top" xlink:title="Run to completion: repeatedly execute NARS working cycle, until Inputs are Finished, or 1000 steps. ">
<polygon fill="none" stroke="black" points="1558,-6 1558,-25 1702,-25 1702,-6 1558,-6"/>
<text text-anchor="middle" x="1630" y="-13" font-family="Helvetica,sans-Serif" font-size="10.00">nars.storage.NARSBatch.run</text>
</a>
</g>
</g>
<!-- Node1193&#45;&gt;Node1194 -->
<g id="edge8" class="edge"><title>Node1193&#45;&gt;Node1194</title>
<path fill="none" stroke="midnightblue" d="M1532.22,-15.5C1540.82,-15.5 1549.47,-15.5 1557.87,-15.5"/>
<polygon fill="midnightblue" stroke="midnightblue" points="1532.15,-12.0001 1522.15,-15.5 1532.15,-19.0001 1532.15,-12.0001"/>
</g>
<!-- Node1195 -->
<g id="node10" class="node"><title>Node1195</title>
<g id="a_node10"><a xlink:href="../../d9/da1/a00396.html#a7c307c6b842f82664de6b0e52bdf8efc" target="_top" xlink:title="non&#45;static equivalent to main(String[]) : run to completion from an input file ">
<polygon fill="none" stroke="black" points="1738,-0.5 1738,-30.5 1882,-30.5 1882,-0.5 1738,-0.5"/>
<text text-anchor="start" x="1746" y="-18.5" font-family="Helvetica,sans-Serif" font-size="10.00">nars.storage.NARSBatch.run</text>
<text text-anchor="middle" x="1810" y="-7.5" font-family="Helvetica,sans-Serif" font-size="10.00">Inference</text>
</a>
</g>
</g>
<!-- Node1194&#45;&gt;Node1195 -->
<g id="edge9" class="edge"><title>Node1194&#45;&gt;Node1195</title>
<path fill="none" stroke="midnightblue" d="M1712.17,-15.5C1720.79,-15.5 1729.51,-15.5 1738,-15.5"/>
<polygon fill="midnightblue" stroke="midnightblue" points="1712.12,-12.0001 1702.12,-15.5 1712.12,-19.0001 1712.12,-12.0001"/>
</g>
<!-- Node1196 -->
<g id="node11" class="node"><title>Node1196</title>
<g id="a_node11"><a xlink:href="../../d9/da1/a00396.html#abafc597289bc2f6453b5cd0dd6634e54" target="_top" xlink:title="The entry point of the standalone application. ">
<polygon fill="none" stroke="black" points="1918,-6 1918,-25 2070,-25 2070,-6 1918,-6"/>
<text text-anchor="middle" x="1994" y="-13" font-family="Helvetica,sans-Serif" font-size="10.00">nars.storage.NARSBatch.main</text>
</a>
</g>
</g>
<!-- Node1195&#45;&gt;Node1196 -->
<g id="edge10" class="edge"><title>Node1195&#45;&gt;Node1196</title>
<path fill="none" stroke="midnightblue" d="M1892.17,-15.5C1900.76,-15.5 1909.48,-15.5 1918,-15.5"/>
<polygon fill="midnightblue" stroke="midnightblue" points="1892.15,-12.0001 1882.15,-15.5 1892.15,-19.0001 1892.15,-12.0001"/>
</g>
</g>
</svg>
        <g id="navigator" transform="translate(0 0)" fill="#404254">
                <rect fill="#f2f5e9" fill-opacity="0.5" stroke="#606060" stroke-width=".5" x="0" y="0" width="60" height="60"/>
                <use id="zoomplus" xlink:href="#zoomPlus" x="17" y="9" onmousedown="handleZoom(evt,'in')"/>
                <use id="zoomminus" xlink:href="#zoomMin" x="42" y="9" onmousedown="handleZoom(evt,'out')"/>
                <use id="reset" xlink:href="#resetDef" x="30" y="36" onmousedown="handleReset()"/>
                <g id="arrowUp" xlink:href="#dirArrow" transform="translate(30 24)" onmousedown="handlePan(0,-1)">
                  <use xlink:href="#rim" fill="#404040">
                        <set attributeName="fill" to="#808080" begin="arrowUp.mouseover" end="arrowUp.mouseout"/>
                  </use>
                  <path fill="none" stroke="white" stroke-width="1.5" d="M0,-3.0v7 M-2.5,-0.5L0,-3.0L2.5,-0.5"/>
                </g>
                <g id="arrowRight" xlink:href="#dirArrow" transform="rotate(90) translate(36 -43)" onmousedown="handlePan(1,0)">
                  <use xlink:href="#rim" fill="#404040">
                        <set attributeName="fill" to="#808080" begin="arrowRight.mouseover" end="arrowRight.mouseout"/>
                  </use>
                  <path fill="none" stroke="white" stroke-width="1.5" d="M0,-3.0v7 M-2.5,-0.5L0,-3.0L2.5,-0.5"/>
                </g>
                <g id="arrowDown" xlink:href="#dirArrow" transform="rotate(180) translate(-30 -48)" onmousedown="handlePan(0,1)">
                  <use xlink:href="#rim" fill="#404040">
                        <set attributeName="fill" to="#808080" begin="arrowDown.mouseover" end="arrowDown.mouseout"/>
                  </use>
                  <path fill="none" stroke="white" stroke-width="1.5" d="M0,-3.0v7 M-2.5,-0.5L0,-3.0L2.5,-0.5"/>
                </g>
                <g id="arrowLeft" xlink:href="#dirArrow" transform="rotate(270) translate(-36 17)" onmousedown="handlePan(-1,0)">
                  <use xlink:href="#rim" fill="#404040">
                        <set attributeName="fill" to="#808080" begin="arrowLeft.mouseover" end="arrowLeft.mouseout"/>
                  </use>
                  <path fill="none" stroke="white" stroke-width="1.5" d="M0,-3.0v7 M-2.5,-0.5L0,-3.0L2.5,-0.5"/>
                </g>
        </g>
        <svg viewBox="0 0 15 15" width="100%" height="30px" preserveAspectRatio="xMaxYMin meet">
         <g id="arrow_out" transform="scale(0.3 0.3)">
          <a xlink:href="a00252_aaeb2049ede16ec8f63afafe0407f04a9_icgraph_org.svg" target="_base">
           <rect id="button" ry="5" rx="5" y="6" x="6" height="38" width="38"
                fill="#f2f5e9" fill-opacity="0.5" stroke="#606060" stroke-width="1.0"/>
           <path id="arrow"
             d="M 11.500037,31.436501 C 11.940474,20.09759 22.043105,11.32322 32.158766,21.979434 L 37.068811,17.246167 C 37.068811,17.246167 37.088388,32 37.088388,32 L 22.160133,31.978069 C 22.160133,31.978069 26.997745,27.140456 26.997745,27.140456 C 18.528582,18.264221 13.291696,25.230495 11.500037,31.436501 z"
             style="fill:#404040;"/>
          </a>
         </g>
        </svg>
</svg>
