<?xml version="1.0" encoding="UTF-8" standalone="no"?>
<!DOCTYPE svg PUBLIC "-//W3C//DTD SVG 1.1//EN"
 "http://www.w3.org/Graphics/SVG/1.1/DTD/svg11.dtd">
<!-- Generated by graphviz version 2.38.0 (20140413.2041)
 -->
<!-- Title: nars.inference.RuleTables.symmetricSymmetric Pages: 1 -->
<!--zoomable 39 -->
<svg id="main" version="1.1" xmlns="http://www.w3.org/2000/svg" xmlns:xlink="http://www.w3.org/1999/xlink" xml:space="preserve" onload="init(evt)">
<style type="text/css"><![CDATA[
.edge:hover path { stroke: red; }
.edge:hover polygon { stroke: red; fill: red; }
]]></style>
<script type="text/javascript"><![CDATA[
var edges = document.getElementsByTagName('g');
if (edges && edges.length) {
  for (var i=0;i<edges.length;i++) {
    if (edges[i].id.substr(0,4)=='edge') {
      edges[i].setAttribute('class','edge');
    }
  }
}
]]></script>
        <defs>
                <circle id="rim" cx="0" cy="0" r="7"/>
                <circle id="rim2" cx="0" cy="0" r="3.5"/>
                <g id="zoomPlus">
                        <use xlink:href="#rim" fill="#404040">
                                <set attributeName="fill" to="#808080" begin="zoomplus.mouseover" end="zoomplus.mouseout"/>
                        </use>
                        <path d="M-4,0h8M0,-4v8" fill="none" stroke="white" stroke-width="1.5" pointer-events="none"/>
                </g>
                <g id="zoomMin">
                        <use xlink:href="#rim" fill="#404040">
                                <set attributeName="fill" to="#808080" begin="zoomminus.mouseover" end="zoomminus.mouseout"/>
                        </use>
                        <path d="M-4,0h8" fill="none" stroke="white" stroke-width="1.5" pointer-events="none"/>
                </g>
                <g id="dirArrow">
                        <path fill="none" stroke="white" stroke-width="1.5" d="M0,-3.0v7 M-2.5,-0.5L0,-3.0L2.5,-0.5"/>
                </g>
               <g id="resetDef">
                       <use xlink:href="#rim2" fill="#404040">
                               <set attributeName="fill" to="#808080" begin="reset.mouseover" end="reset.mouseout"/>
                       </use>
               </g>
        </defs>

<script type="text/javascript">
var viewWidth = 2061;
var viewHeight = 39;
var sectionId = 'dynsection-51';
</script>
<script xlink:href="../../svgpan.js"/>
<svg id="graph" class="graph">
<g id="viewport">
<title>nars.inference.RuleTables.symmetricSymmetric</title>
<!-- Node2249 -->
<g id="node1" class="node"><title>Node2249</title>
<polygon fill="#bfbfbf" stroke="black" points="0,-0.5 0,-30.5 179,-30.5 179,-0.5 0,-0.5"/>
<text text-anchor="start" x="8" y="-18.5" font-family="Helvetica,sans-Serif" font-size="10.00">nars.inference.RuleTables.symmetric</text>
<text text-anchor="middle" x="89.5" y="-7.5" font-family="Helvetica,sans-Serif" font-size="10.00">Symmetric</text>
</g>
<!-- Node2250 -->
<g id="node2" class="node"><title>Node2250</title>
<g id="a_node2"><a xlink:href="../../dc/ded/a00252.html#a8628d400a8ceda7fea05039ddfea319b" target="_top" xlink:title="Meta&#45;table of syllogistic rules, indexed by the content classes of the taskSentence and the belief...">
<polygon fill="none" stroke="black" points="215,-6 215,-25 395,-25 395,-6 215,-6"/>
<text text-anchor="middle" x="305" y="-13" font-family="Helvetica,sans-Serif" font-size="10.00">nars.inference.RuleTables.syllogisms</text>
</a>
</g>
</g>
<!-- Node2249&#45;&gt;Node2250 -->
<g id="edge1" class="edge"><title>Node2249&#45;&gt;Node2250</title>
<path fill="none" stroke="midnightblue" d="M189.204,-15.5C197.774,-15.5 206.414,-15.5 214.9,-15.5"/>
<polygon fill="midnightblue" stroke="midnightblue" points="189.188,-12.0001 179.188,-15.5 189.188,-19.0001 189.188,-12.0001"/>
</g>
<!-- Node2251 -->
<g id="node3" class="node"><title>Node2251</title>
<g id="a_node3"><a xlink:href="../../dc/ded/a00252.html#ac2d01dfdc40bdd47c757cb549217e6e3" target="_top" xlink:title="Entry point of the inference engine. ">
<polygon fill="none" stroke="black" points="431,-6 431,-25 594,-25 594,-6 431,-6"/>
<text text-anchor="middle" x="512.5" y="-13" font-family="Helvetica,sans-Serif" font-size="10.00">nars.inference.RuleTables.reason</text>
</a>
</g>
</g>
<!-- Node2250&#45;&gt;Node2251 -->
<g id="edge2" class="edge"><title>Node2250&#45;&gt;Node2251</title>
<path fill="none" stroke="midnightblue" d="M405.244,-15.5C413.792,-15.5 422.372,-15.5 430.747,-15.5"/>
<polygon fill="midnightblue" stroke="midnightblue" points="405.239,-12.0001 395.239,-15.5 405.239,-19.0001 405.239,-12.0001"/>
</g>
<!-- Node2252 -->
<g id="node4" class="node"><title>Node2252</title>
<g id="a_node4"><a xlink:href="../../d7/ded/a00196.html#ad6fb91dda799c3092ecb186ef24ca92a" target="_top" xlink:title="An atomic step in a concept, only called in Memory# processConcept. ">
<polygon fill="none" stroke="black" points="630,-0.5 630,-30.5 749,-30.5 749,-0.5 630,-0.5"/>
<text text-anchor="start" x="638" y="-18.5" font-family="Helvetica,sans-Serif" font-size="10.00">nars.entity.Concept.fire</text>
<text text-anchor="middle" x="689.5" y="-7.5" font-family="Helvetica,sans-Serif" font-size="10.00">FromProcessConcept</text>
</a>
</g>
</g>
<!-- Node2251&#45;&gt;Node2252 -->
<g id="edge3" class="edge"><title>Node2251&#45;&gt;Node2252</title>
<path fill="none" stroke="midnightblue" d="M604.249,-15.5C612.907,-15.5 621.523,-15.5 629.757,-15.5"/>
<polygon fill="midnightblue" stroke="midnightblue" points="604.085,-12.0001 594.085,-15.5 604.085,-19.0001 604.085,-12.0001"/>
</g>
<!-- Node2253 -->
<g id="node5" class="node"><title>Node2253</title>
<g id="a_node5"><a xlink:href="../../d4/d27/a00392.html#a0acc4adbf6a2462245da46bcb529746c" target="_top" xlink:title="Select a concept to fireFromProcessConcept. ">
<polygon fill="none" stroke="black" points="785,-0.5 785,-30.5 931,-30.5 931,-0.5 785,-0.5"/>
<text text-anchor="start" x="793" y="-18.5" font-family="Helvetica,sans-Serif" font-size="10.00">nars.storage.Memory.process</text>
<text text-anchor="middle" x="858" y="-7.5" font-family="Helvetica,sans-Serif" font-size="10.00">Concept</text>
</a>
</g>
</g>
<!-- Node2252&#45;&gt;Node2253 -->
<g id="edge4" class="edge"><title>Node2252&#45;&gt;Node2253</title>
<path fill="none" stroke="midnightblue" d="M759.337,-15.5C767.748,-15.5 776.361,-15.5 784.819,-15.5"/>
<polygon fill="midnightblue" stroke="midnightblue" points="759.202,-12.0001 749.202,-15.5 759.202,-19.0001 759.202,-12.0001"/>
</g>
<!-- Node2254 -->
<g id="node6" class="node"><title>Node2254</title>
<g id="a_node6"><a xlink:href="../../d4/d27/a00392.html#a59ae339d666409988d90d29be4f73a91" target="_top" xlink:title="An atomic working workCycle of the system: process new Tasks, then fireFromProcessConcept a concept...">
<polygon fill="none" stroke="black" points="967,-0.5 967,-30.5 1100,-30.5 1100,-0.5 967,-0.5"/>
<text text-anchor="start" x="975" y="-18.5" font-family="Helvetica,sans-Serif" font-size="10.00">nars.storage.Memory.work</text>
<text text-anchor="middle" x="1033.5" y="-7.5" font-family="Helvetica,sans-Serif" font-size="10.00">Cycle</text>
</a>
</g>
</g>
<!-- Node2253&#45;&gt;Node2254 -->
<g id="edge5" class="edge"><title>Node2253&#45;&gt;Node2254</title>
<path fill="none" stroke="midnightblue" d="M941.118,-15.5C949.716,-15.5 958.375,-15.5 966.755,-15.5"/>
<polygon fill="midnightblue" stroke="midnightblue" points="941.072,-12.0001 931.072,-15.5 941.072,-19.0001 941.072,-12.0001"/>
</g>
<!-- Node2255 -->
<g id="node7" class="node"><title>Node2255</title>
<g id="a_node7"><a xlink:href="../../df/d15/a00416.html#a0d5c797dc17d9e8d0998852915e0f303" target="_top" xlink:title="nars.storage.ReasonerBatch.doTick">
<polygon fill="none" stroke="black" points="1136,-6 1136,-25 1309,-25 1309,-6 1136,-6"/>
<text text-anchor="middle" x="1222.5" y="-13" font-family="Helvetica,sans-Serif" font-size="10.00">nars.storage.ReasonerBatch.doTick</text>
</a>
</g>
</g>
<!-- Node2254&#45;&gt;Node2255 -->
<g id="edge6" class="edge"><title>Node2254&#45;&gt;Node2255</title>
<path fill="none" stroke="midnightblue" d="M1110.34,-15.5C1118.78,-15.5 1127.42,-15.5 1135.97,-15.5"/>
<polygon fill="midnightblue" stroke="midnightblue" points="1110.17,-12.0001 1100.17,-15.5 1110.17,-19.0001 1110.17,-12.0001"/>
</g>
<!-- Node2256 -->
<g id="node8" class="node"><title>Node2256</title>
<g id="a_node8"><a xlink:href="../../df/d15/a00416.html#a3468aa0f99edcd66412f27922dddb880" target="_top" xlink:title="A clock tick. ">
<polygon fill="none" stroke="black" points="1345,-6 1345,-25 1505,-25 1505,-6 1345,-6"/>
<text text-anchor="middle" x="1425" y="-13" font-family="Helvetica,sans-Serif" font-size="10.00">nars.storage.ReasonerBatch.tick</text>
</a>
</g>
</g>
<!-- Node2255&#45;&gt;Node2256 -->
<g id="edge7" class="edge"><title>Node2255&#45;&gt;Node2256</title>
<path fill="none" stroke="midnightblue" d="M1319.13,-15.5C1327.7,-15.5 1336.31,-15.5 1344.71,-15.5"/>
<polygon fill="midnightblue" stroke="midnightblue" points="1319.11,-12.0001 1309.11,-15.5 1319.11,-19.0001 1319.11,-12.0001"/>
</g>
<!-- Node2257 -->
<g id="node9" class="node"><title>Node2257</title>
<g id="a_node9"><a xlink:href="../../d9/da1/a00396.html#a5d9cfe517bcfbe41e5251910bcd119c1" target="_top" xlink:title="Run to completion: repeatedly execute NARS working cycle, until Inputs are Finished, or 1000 steps. ">
<polygon fill="none" stroke="black" points="1541,-6 1541,-25 1685,-25 1685,-6 1541,-6"/>
<text text-anchor="middle" x="1613" y="-13" font-family="Helvetica,sans-Serif" font-size="10.00">nars.storage.NARSBatch.run</text>
</a>
</g>
</g>
<!-- Node2256&#45;&gt;Node2257 -->
<g id="edge8" class="edge"><title>Node2256&#45;&gt;Node2257</title>
<path fill="none" stroke="midnightblue" d="M1515.22,-15.5C1523.82,-15.5 1532.47,-15.5 1540.87,-15.5"/>
<polygon fill="midnightblue" stroke="midnightblue" points="1515.15,-12.0001 1505.15,-15.5 1515.15,-19.0001 1515.15,-12.0001"/>
</g>
<!-- Node2258 -->
<g id="node10" class="node"><title>Node2258</title>
<g id="a_node10"><a xlink:href="../../d9/da1/a00396.html#a7c307c6b842f82664de6b0e52bdf8efc" target="_top" xlink:title="non&#45;static equivalent to main(String[]) : run to completion from an input file ">
<polygon fill="none" stroke="black" points="1721,-0.5 1721,-30.5 1865,-30.5 1865,-0.5 1721,-0.5"/>
<text text-anchor="start" x="1729" y="-18.5" font-family="Helvetica,sans-Serif" font-size="10.00">nars.storage.NARSBatch.run</text>
<text text-anchor="middle" x="1793" y="-7.5" font-family="Helvetica,sans-Serif" font-size="10.00">Inference</text>
</a>
</g>
</g>
<!-- Node2257&#45;&gt;Node2258 -->
<g id="edge9" class="edge"><title>Node2257&#45;&gt;Node2258</title>
<path fill="none" stroke="midnightblue" d="M1695.17,-15.5C1703.79,-15.5 1712.51,-15.5 1721,-15.5"/>
<polygon fill="midnightblue" stroke="midnightblue" points="1695.12,-12.0001 1685.12,-15.5 1695.12,-19.0001 1695.12,-12.0001"/>
</g>
<!-- Node2259 -->
<g id="node11" class="node"><title>Node2259</title>
<g id="a_node11"><a xlink:href="../../d9/da1/a00396.html#abafc597289bc2f6453b5cd0dd6634e54" target="_top" xlink:title="The entry point of the standalone application. ">
<polygon fill="none" stroke="black" points="1901,-6 1901,-25 2053,-25 2053,-6 1901,-6"/>
<text text-anchor="middle" x="1977" y="-13" font-family="Helvetica,sans-Serif" font-size="10.00">nars.storage.NARSBatch.main</text>
</a>
</g>
</g>
<!-- Node2258&#45;&gt;Node2259 -->
<g id="edge10" class="edge"><title>Node2258&#45;&gt;Node2259</title>
<path fill="none" stroke="midnightblue" d="M1875.17,-15.5C1883.76,-15.5 1892.48,-15.5 1901,-15.5"/>
<polygon fill="midnightblue" stroke="midnightblue" points="1875.15,-12.0001 1865.15,-15.5 1875.15,-19.0001 1875.15,-12.0001"/>
</g>
</g>
</svg>
        <g id="navigator" transform="translate(0 0)" fill="#404254">
                <rect fill="#f2f5e9" fill-opacity="0.5" stroke="#606060" stroke-width=".5" x="0" y="0" width="60" height="60"/>
                <use id="zoomplus" xlink:href="#zoomPlus" x="17" y="9" onmousedown="handleZoom(evt,'in')"/>
                <use id="zoomminus" xlink:href="#zoomMin" x="42" y="9" onmousedown="handleZoom(evt,'out')"/>
                <use id="reset" xlink:href="#resetDef" x="30" y="36" onmousedown="handleReset()"/>
                <g id="arrowUp" xlink:href="#dirArrow" transform="translate(30 24)" onmousedown="handlePan(0,-1)">
                  <use xlink:href="#rim" fill="#404040">
                        <set attributeName="fill" to="#808080" begin="arrowUp.mouseover" end="arrowUp.mouseout"/>
                  </use>
                  <path fill="none" stroke="white" stroke-width="1.5" d="M0,-3.0v7 M-2.5,-0.5L0,-3.0L2.5,-0.5"/>
                </g>
                <g id="arrowRight" xlink:href="#dirArrow" transform="rotate(90) translate(36 -43)" onmousedown="handlePan(1,0)">
                  <use xlink:href="#rim" fill="#404040">
                        <set attributeName="fill" to="#808080" begin="arrowRight.mouseover" end="arrowRight.mouseout"/>
                  </use>
                  <path fill="none" stroke="white" stroke-width="1.5" d="M0,-3.0v7 M-2.5,-0.5L0,-3.0L2.5,-0.5"/>
                </g>
                <g id="arrowDown" xlink:href="#dirArrow" transform="rotate(180) translate(-30 -48)" onmousedown="handlePan(0,1)">
                  <use xlink:href="#rim" fill="#404040">
                        <set attributeName="fill" to="#808080" begin="arrowDown.mouseover" end="arrowDown.mouseout"/>
                  </use>
                  <path fill="none" stroke="white" stroke-width="1.5" d="M0,-3.0v7 M-2.5,-0.5L0,-3.0L2.5,-0.5"/>
                </g>
                <g id="arrowLeft" xlink:href="#dirArrow" transform="rotate(270) translate(-36 17)" onmousedown="handlePan(-1,0)">
                  <use xlink:href="#rim" fill="#404040">
                        <set attributeName="fill" to="#808080" begin="arrowLeft.mouseover" end="arrowLeft.mouseout"/>
                  </use>
                  <path fill="none" stroke="white" stroke-width="1.5" d="M0,-3.0v7 M-2.5,-0.5L0,-3.0L2.5,-0.5"/>
                </g>
        </g>
        <svg viewBox="0 0 15 15" width="100%" height="30px" preserveAspectRatio="xMaxYMin meet">
         <g id="arrow_out" transform="scale(0.3 0.3)">
          <a xlink:href="a00252_ab64fca3ebda3499b831c2b93df736530_icgraph_org.svg" target="_base">
           <rect id="button" ry="5" rx="5" y="6" x="6" height="38" width="38"
                fill="#f2f5e9" fill-opacity="0.5" stroke="#606060" stroke-width="1.0"/>
           <path id="arrow"
             d="M 11.500037,31.436501 C 11.940474,20.09759 22.043105,11.32322 32.158766,21.979434 L 37.068811,17.246167 C 37.068811,17.246167 37.088388,32 37.088388,32 L 22.160133,31.978069 C 22.160133,31.978069 26.997745,27.140456 26.997745,27.140456 C 18.528582,18.264221 13.291696,25.230495 11.500037,31.436501 z"
             style="fill:#404040;"/>
          </a>
         </g>
        </svg>
</svg>
