<?xml version="1.0" encoding="UTF-8" standalone="no"?>
<!DOCTYPE svg PUBLIC "-//W3C//DTD SVG 1.1//EN"
 "http://www.w3.org/Graphics/SVG/1.1/DTD/svg11.dtd">
<!-- Generated by graphviz version 2.38.0 (20140413.2041)
 -->
<!-- Title: nars.inference.RuleTables.dedExe Pages: 1 -->
<svg width="2270pt" height="39pt"
 viewBox="0.00 0.00 2270.00 39.00" xmlns="http://www.w3.org/2000/svg" xmlns:xlink="http://www.w3.org/1999/xlink">
<g id="graph0" class="graph" transform="scale(1 1) rotate(0) translate(4 35)">
<title>nars.inference.RuleTables.dedExe</title>
<!-- Node1342 -->
<g id="node1" class="node"><title>Node1342</title>
<polygon fill="#bfbfbf" stroke="black" points="0,-6 0,-25 167,-25 167,-6 0,-6"/>
<text text-anchor="middle" x="83.5" y="-13" font-family="Helvetica,sans-Serif" font-size="10.00">nars.inference.RuleTables.dedExe</text>
</g>
<!-- Node1343 -->
<g id="node2" class="node"><title>Node1343</title>
<g id="a_node2"><a xlink:href="../../dc/ded/a00252.html#a34927349efcf87db97d23c60983b115b" target="_top" xlink:title="Syllogistic rules whose both premises are on the same asymmetric relation. ">
<polygon fill="none" stroke="black" points="203,-0.5 203,-30.5 388,-30.5 388,-0.5 203,-0.5"/>
<text text-anchor="start" x="211" y="-18.5" font-family="Helvetica,sans-Serif" font-size="10.00">nars.inference.RuleTables.asymmetric</text>
<text text-anchor="middle" x="295.5" y="-7.5" font-family="Helvetica,sans-Serif" font-size="10.00">Asymmetric</text>
</a>
</g>
</g>
<!-- Node1342&#45;&gt;Node1343 -->
<g id="edge1" class="edge"><title>Node1342&#45;&gt;Node1343</title>
<path fill="none" stroke="midnightblue" d="M177.431,-15.5C185.877,-15.5 194.428,-15.5 202.862,-15.5"/>
<polygon fill="midnightblue" stroke="midnightblue" points="177.196,-12.0001 167.196,-15.5 177.196,-19.0001 177.196,-12.0001"/>
</g>
<!-- Node1344 -->
<g id="node3" class="node"><title>Node1344</title>
<g id="a_node3"><a xlink:href="../../dc/ded/a00252.html#a8628d400a8ceda7fea05039ddfea319b" target="_top" xlink:title="Meta&#45;table of syllogistic rules, indexed by the content classes of the taskSentence and the belief...">
<polygon fill="none" stroke="black" points="424,-6 424,-25 604,-25 604,-6 424,-6"/>
<text text-anchor="middle" x="514" y="-13" font-family="Helvetica,sans-Serif" font-size="10.00">nars.inference.RuleTables.syllogisms</text>
</a>
</g>
</g>
<!-- Node1343&#45;&gt;Node1344 -->
<g id="edge2" class="edge"><title>Node1343&#45;&gt;Node1344</title>
<path fill="none" stroke="midnightblue" d="M398.084,-15.5C406.705,-15.5 415.383,-15.5 423.898,-15.5"/>
<polygon fill="midnightblue" stroke="midnightblue" points="398.002,-12.0001 388.002,-15.5 398.002,-19.0001 398.002,-12.0001"/>
</g>
<!-- Node1345 -->
<g id="node4" class="node"><title>Node1345</title>
<g id="a_node4"><a xlink:href="../../dc/ded/a00252.html#ac2d01dfdc40bdd47c757cb549217e6e3" target="_top" xlink:title="Entry point of the inference engine. ">
<polygon fill="none" stroke="black" points="640,-6 640,-25 803,-25 803,-6 640,-6"/>
<text text-anchor="middle" x="721.5" y="-13" font-family="Helvetica,sans-Serif" font-size="10.00">nars.inference.RuleTables.reason</text>
</a>
</g>
</g>
<!-- Node1344&#45;&gt;Node1345 -->
<g id="edge3" class="edge"><title>Node1344&#45;&gt;Node1345</title>
<path fill="none" stroke="midnightblue" d="M614.244,-15.5C622.792,-15.5 631.372,-15.5 639.747,-15.5"/>
<polygon fill="midnightblue" stroke="midnightblue" points="614.239,-12.0001 604.239,-15.5 614.239,-19.0001 614.239,-12.0001"/>
</g>
<!-- Node1346 -->
<g id="node5" class="node"><title>Node1346</title>
<g id="a_node5"><a xlink:href="../../d7/ded/a00196.html#ad6fb91dda799c3092ecb186ef24ca92a" target="_top" xlink:title="An atomic step in a concept, only called in Memory# processConcept. ">
<polygon fill="none" stroke="black" points="839,-0.5 839,-30.5 958,-30.5 958,-0.5 839,-0.5"/>
<text text-anchor="start" x="847" y="-18.5" font-family="Helvetica,sans-Serif" font-size="10.00">nars.entity.Concept.fire</text>
<text text-anchor="middle" x="898.5" y="-7.5" font-family="Helvetica,sans-Serif" font-size="10.00">FromProcessConcept</text>
</a>
</g>
</g>
<!-- Node1345&#45;&gt;Node1346 -->
<g id="edge4" class="edge"><title>Node1345&#45;&gt;Node1346</title>
<path fill="none" stroke="midnightblue" d="M813.249,-15.5C821.907,-15.5 830.523,-15.5 838.757,-15.5"/>
<polygon fill="midnightblue" stroke="midnightblue" points="813.085,-12.0001 803.085,-15.5 813.085,-19.0001 813.085,-12.0001"/>
</g>
<!-- Node1347 -->
<g id="node6" class="node"><title>Node1347</title>
<g id="a_node6"><a xlink:href="../../d4/d27/a00392.html#a0acc4adbf6a2462245da46bcb529746c" target="_top" xlink:title="Select a concept to fireFromProcessConcept. ">
<polygon fill="none" stroke="black" points="994,-0.5 994,-30.5 1140,-30.5 1140,-0.5 994,-0.5"/>
<text text-anchor="start" x="1002" y="-18.5" font-family="Helvetica,sans-Serif" font-size="10.00">nars.storage.Memory.process</text>
<text text-anchor="middle" x="1067" y="-7.5" font-family="Helvetica,sans-Serif" font-size="10.00">Concept</text>
</a>
</g>
</g>
<!-- Node1346&#45;&gt;Node1347 -->
<g id="edge5" class="edge"><title>Node1346&#45;&gt;Node1347</title>
<path fill="none" stroke="midnightblue" d="M968.337,-15.5C976.748,-15.5 985.361,-15.5 993.819,-15.5"/>
<polygon fill="midnightblue" stroke="midnightblue" points="968.202,-12.0001 958.202,-15.5 968.202,-19.0001 968.202,-12.0001"/>
</g>
<!-- Node1348 -->
<g id="node7" class="node"><title>Node1348</title>
<g id="a_node7"><a xlink:href="../../d4/d27/a00392.html#a59ae339d666409988d90d29be4f73a91" target="_top" xlink:title="An atomic working workCycle of the system: process new Tasks, then fireFromProcessConcept a concept...">
<polygon fill="none" stroke="black" points="1176,-0.5 1176,-30.5 1309,-30.5 1309,-0.5 1176,-0.5"/>
<text text-anchor="start" x="1184" y="-18.5" font-family="Helvetica,sans-Serif" font-size="10.00">nars.storage.Memory.work</text>
<text text-anchor="middle" x="1242.5" y="-7.5" font-family="Helvetica,sans-Serif" font-size="10.00">Cycle</text>
</a>
</g>
</g>
<!-- Node1347&#45;&gt;Node1348 -->
<g id="edge6" class="edge"><title>Node1347&#45;&gt;Node1348</title>
<path fill="none" stroke="midnightblue" d="M1150.12,-15.5C1158.72,-15.5 1167.37,-15.5 1175.76,-15.5"/>
<polygon fill="midnightblue" stroke="midnightblue" points="1150.07,-12.0001 1140.07,-15.5 1150.07,-19.0001 1150.07,-12.0001"/>
</g>
<!-- Node1349 -->
<g id="node8" class="node"><title>Node1349</title>
<g id="a_node8"><a xlink:href="../../df/d15/a00416.html#a0d5c797dc17d9e8d0998852915e0f303" target="_top" xlink:title="nars.storage.ReasonerBatch.doTick">
<polygon fill="none" stroke="black" points="1345,-6 1345,-25 1518,-25 1518,-6 1345,-6"/>
<text text-anchor="middle" x="1431.5" y="-13" font-family="Helvetica,sans-Serif" font-size="10.00">nars.storage.ReasonerBatch.doTick</text>
</a>
</g>
</g>
<!-- Node1348&#45;&gt;Node1349 -->
<g id="edge7" class="edge"><title>Node1348&#45;&gt;Node1349</title>
<path fill="none" stroke="midnightblue" d="M1319.34,-15.5C1327.78,-15.5 1336.42,-15.5 1344.97,-15.5"/>
<polygon fill="midnightblue" stroke="midnightblue" points="1319.17,-12.0001 1309.17,-15.5 1319.17,-19.0001 1319.17,-12.0001"/>
</g>
<!-- Node1350 -->
<g id="node9" class="node"><title>Node1350</title>
<g id="a_node9"><a xlink:href="../../df/d15/a00416.html#a3468aa0f99edcd66412f27922dddb880" target="_top" xlink:title="A clock tick. ">
<polygon fill="none" stroke="black" points="1554,-6 1554,-25 1714,-25 1714,-6 1554,-6"/>
<text text-anchor="middle" x="1634" y="-13" font-family="Helvetica,sans-Serif" font-size="10.00">nars.storage.ReasonerBatch.tick</text>
</a>
</g>
</g>
<!-- Node1349&#45;&gt;Node1350 -->
<g id="edge8" class="edge"><title>Node1349&#45;&gt;Node1350</title>
<path fill="none" stroke="midnightblue" d="M1528.13,-15.5C1536.7,-15.5 1545.31,-15.5 1553.71,-15.5"/>
<polygon fill="midnightblue" stroke="midnightblue" points="1528.11,-12.0001 1518.11,-15.5 1528.11,-19.0001 1528.11,-12.0001"/>
</g>
<!-- Node1351 -->
<g id="node10" class="node"><title>Node1351</title>
<g id="a_node10"><a xlink:href="../../d9/da1/a00396.html#a5d9cfe517bcfbe41e5251910bcd119c1" target="_top" xlink:title="Run to completion: repeatedly execute NARS working cycle, until Inputs are Finished, or 1000 steps. ">
<polygon fill="none" stroke="black" points="1750,-6 1750,-25 1894,-25 1894,-6 1750,-6"/>
<text text-anchor="middle" x="1822" y="-13" font-family="Helvetica,sans-Serif" font-size="10.00">nars.storage.NARSBatch.run</text>
</a>
</g>
</g>
<!-- Node1350&#45;&gt;Node1351 -->
<g id="edge9" class="edge"><title>Node1350&#45;&gt;Node1351</title>
<path fill="none" stroke="midnightblue" d="M1724.22,-15.5C1732.82,-15.5 1741.47,-15.5 1749.87,-15.5"/>
<polygon fill="midnightblue" stroke="midnightblue" points="1724.15,-12.0001 1714.15,-15.5 1724.15,-19.0001 1724.15,-12.0001"/>
</g>
<!-- Node1352 -->
<g id="node11" class="node"><title>Node1352</title>
<g id="a_node11"><a xlink:href="../../d9/da1/a00396.html#a7c307c6b842f82664de6b0e52bdf8efc" target="_top" xlink:title="non&#45;static equivalent to main(String[]) : run to completion from an input file ">
<polygon fill="none" stroke="black" points="1930,-0.5 1930,-30.5 2074,-30.5 2074,-0.5 1930,-0.5"/>
<text text-anchor="start" x="1938" y="-18.5" font-family="Helvetica,sans-Serif" font-size="10.00">nars.storage.NARSBatch.run</text>
<text text-anchor="middle" x="2002" y="-7.5" font-family="Helvetica,sans-Serif" font-size="10.00">Inference</text>
</a>
</g>
</g>
<!-- Node1351&#45;&gt;Node1352 -->
<g id="edge10" class="edge"><title>Node1351&#45;&gt;Node1352</title>
<path fill="none" stroke="midnightblue" d="M1904.17,-15.5C1912.79,-15.5 1921.51,-15.5 1930,-15.5"/>
<polygon fill="midnightblue" stroke="midnightblue" points="1904.12,-12.0001 1894.12,-15.5 1904.12,-19.0001 1904.12,-12.0001"/>
</g>
<!-- Node1353 -->
<g id="node12" class="node"><title>Node1353</title>
<g id="a_node12"><a xlink:href="../../d9/da1/a00396.html#abafc597289bc2f6453b5cd0dd6634e54" target="_top" xlink:title="The entry point of the standalone application. ">
<polygon fill="none" stroke="black" points="2110,-6 2110,-25 2262,-25 2262,-6 2110,-6"/>
<text text-anchor="middle" x="2186" y="-13" font-family="Helvetica,sans-Serif" font-size="10.00">nars.storage.NARSBatch.main</text>
</a>
</g>
</g>
<!-- Node1352&#45;&gt;Node1353 -->
<g id="edge11" class="edge"><title>Node1352&#45;&gt;Node1353</title>
<path fill="none" stroke="midnightblue" d="M2084.17,-15.5C2092.76,-15.5 2101.48,-15.5 2110,-15.5"/>
<polygon fill="midnightblue" stroke="midnightblue" points="2084.15,-12.0001 2074.15,-15.5 2084.15,-19.0001 2084.15,-12.0001"/>
</g>
</g>
</svg>
