<?xml version="1.0" encoding="UTF-8" standalone="no"?>
<!DOCTYPE svg PUBLIC "-//W3C//DTD SVG 1.1//EN"
 "http://www.w3.org/Graphics/SVG/1.1/DTD/svg11.dtd">
<!-- Generated by graphviz version 2.38.0 (20140413.2041)
 -->
<!-- Title: nars.inference.RuleTables.makeSym Pages: 1 -->
<svg width="2466pt" height="39pt"
 viewBox="0.00 0.00 2466.00 39.00" xmlns="http://www.w3.org/2000/svg" xmlns:xlink="http://www.w3.org/1999/xlink">
<g id="graph0" class="graph" transform="scale(1 1) rotate(0) translate(4 35)">
<title>nars.inference.RuleTables.makeSym</title>
<!-- Node1745 -->
<g id="node1" class="node"><title>Node1745</title>
<polygon fill="#bfbfbf" stroke="black" points="0,-6 0,-25 178,-25 178,-6 0,-6"/>
<text text-anchor="middle" x="89" y="-13" font-family="Helvetica,sans-Serif" font-size="10.00">nars.inference.RuleTables.makeSym</text>
</g>
<!-- Node1746 -->
<g id="node2" class="node"><title>Node1746</title>
<g id="a_node2"><a xlink:href="../../dc/ded/a00252.html#ab124c9151308789ed5f1e5562adeef96" target="_top" xlink:title="{&lt;M ==&gt; S&gt;, &lt;M ==&gt; P&gt;} |&#45; {&lt;S ==&gt; P&gt;, ">
<polygon fill="none" stroke="black" points="214,-0.5 214,-30.5 363,-30.5 363,-0.5 214,-0.5"/>
<text text-anchor="start" x="222" y="-18.5" font-family="Helvetica,sans-Serif" font-size="10.00">nars.inference.RuleTables.abd</text>
<text text-anchor="middle" x="288.5" y="-7.5" font-family="Helvetica,sans-Serif" font-size="10.00">IndCom</text>
</a>
</g>
</g>
<!-- Node1745&#45;&gt;Node1746 -->
<g id="edge1" class="edge"><title>Node1745&#45;&gt;Node1746</title>
<path fill="none" stroke="midnightblue" d="M188.166,-15.5C196.788,-15.5 205.415,-15.5 213.785,-15.5"/>
<polygon fill="midnightblue" stroke="midnightblue" points="188.064,-12.0001 178.064,-15.5 188.064,-19.0001 188.064,-12.0001"/>
</g>
<!-- Node1747 -->
<g id="node3" class="node"><title>Node1747</title>
<g id="a_node3"><a xlink:href="../../dc/ded/a00252.html#a34927349efcf87db97d23c60983b115b" target="_top" xlink:title="Syllogistic rules whose both premises are on the same asymmetric relation. ">
<polygon fill="none" stroke="black" points="399,-0.5 399,-30.5 584,-30.5 584,-0.5 399,-0.5"/>
<text text-anchor="start" x="407" y="-18.5" font-family="Helvetica,sans-Serif" font-size="10.00">nars.inference.RuleTables.asymmetric</text>
<text text-anchor="middle" x="491.5" y="-7.5" font-family="Helvetica,sans-Serif" font-size="10.00">Asymmetric</text>
</a>
</g>
</g>
<!-- Node1746&#45;&gt;Node1747 -->
<g id="edge2" class="edge"><title>Node1746&#45;&gt;Node1747</title>
<path fill="none" stroke="midnightblue" d="M373.322,-15.5C381.696,-15.5 390.228,-15.5 398.678,-15.5"/>
<polygon fill="midnightblue" stroke="midnightblue" points="373.204,-12.0001 363.204,-15.5 373.204,-19.0001 373.204,-12.0001"/>
</g>
<!-- Node1748 -->
<g id="node4" class="node"><title>Node1748</title>
<g id="a_node4"><a xlink:href="../../dc/ded/a00252.html#a8628d400a8ceda7fea05039ddfea319b" target="_top" xlink:title="Meta&#45;table of syllogistic rules, indexed by the content classes of the taskSentence and the belief...">
<polygon fill="none" stroke="black" points="620,-6 620,-25 800,-25 800,-6 620,-6"/>
<text text-anchor="middle" x="710" y="-13" font-family="Helvetica,sans-Serif" font-size="10.00">nars.inference.RuleTables.syllogisms</text>
</a>
</g>
</g>
<!-- Node1747&#45;&gt;Node1748 -->
<g id="edge3" class="edge"><title>Node1747&#45;&gt;Node1748</title>
<path fill="none" stroke="midnightblue" d="M594.084,-15.5C602.705,-15.5 611.383,-15.5 619.898,-15.5"/>
<polygon fill="midnightblue" stroke="midnightblue" points="594.002,-12.0001 584.002,-15.5 594.002,-19.0001 594.002,-12.0001"/>
</g>
<!-- Node1749 -->
<g id="node5" class="node"><title>Node1749</title>
<g id="a_node5"><a xlink:href="../../dc/ded/a00252.html#ac2d01dfdc40bdd47c757cb549217e6e3" target="_top" xlink:title="Entry point of the inference engine. ">
<polygon fill="none" stroke="black" points="836,-6 836,-25 999,-25 999,-6 836,-6"/>
<text text-anchor="middle" x="917.5" y="-13" font-family="Helvetica,sans-Serif" font-size="10.00">nars.inference.RuleTables.reason</text>
</a>
</g>
</g>
<!-- Node1748&#45;&gt;Node1749 -->
<g id="edge4" class="edge"><title>Node1748&#45;&gt;Node1749</title>
<path fill="none" stroke="midnightblue" d="M810.244,-15.5C818.792,-15.5 827.372,-15.5 835.747,-15.5"/>
<polygon fill="midnightblue" stroke="midnightblue" points="810.239,-12.0001 800.239,-15.5 810.239,-19.0001 810.239,-12.0001"/>
</g>
<!-- Node1750 -->
<g id="node6" class="node"><title>Node1750</title>
<g id="a_node6"><a xlink:href="../../d7/ded/a00196.html#ad6fb91dda799c3092ecb186ef24ca92a" target="_top" xlink:title="An atomic step in a concept, only called in Memory# processConcept. ">
<polygon fill="none" stroke="black" points="1035,-0.5 1035,-30.5 1154,-30.5 1154,-0.5 1035,-0.5"/>
<text text-anchor="start" x="1043" y="-18.5" font-family="Helvetica,sans-Serif" font-size="10.00">nars.entity.Concept.fire</text>
<text text-anchor="middle" x="1094.5" y="-7.5" font-family="Helvetica,sans-Serif" font-size="10.00">FromProcessConcept</text>
</a>
</g>
</g>
<!-- Node1749&#45;&gt;Node1750 -->
<g id="edge5" class="edge"><title>Node1749&#45;&gt;Node1750</title>
<path fill="none" stroke="midnightblue" d="M1009.25,-15.5C1017.91,-15.5 1026.52,-15.5 1034.76,-15.5"/>
<polygon fill="midnightblue" stroke="midnightblue" points="1009.09,-12.0001 999.085,-15.5 1009.08,-19.0001 1009.09,-12.0001"/>
</g>
<!-- Node1751 -->
<g id="node7" class="node"><title>Node1751</title>
<g id="a_node7"><a xlink:href="../../d4/d27/a00392.html#a0acc4adbf6a2462245da46bcb529746c" target="_top" xlink:title="Select a concept to fireFromProcessConcept. ">
<polygon fill="none" stroke="black" points="1190,-0.5 1190,-30.5 1336,-30.5 1336,-0.5 1190,-0.5"/>
<text text-anchor="start" x="1198" y="-18.5" font-family="Helvetica,sans-Serif" font-size="10.00">nars.storage.Memory.process</text>
<text text-anchor="middle" x="1263" y="-7.5" font-family="Helvetica,sans-Serif" font-size="10.00">Concept</text>
</a>
</g>
</g>
<!-- Node1750&#45;&gt;Node1751 -->
<g id="edge6" class="edge"><title>Node1750&#45;&gt;Node1751</title>
<path fill="none" stroke="midnightblue" d="M1164.34,-15.5C1172.75,-15.5 1181.36,-15.5 1189.82,-15.5"/>
<polygon fill="midnightblue" stroke="midnightblue" points="1164.2,-12.0001 1154.2,-15.5 1164.2,-19.0001 1164.2,-12.0001"/>
</g>
<!-- Node1752 -->
<g id="node8" class="node"><title>Node1752</title>
<g id="a_node8"><a xlink:href="../../d4/d27/a00392.html#a59ae339d666409988d90d29be4f73a91" target="_top" xlink:title="An atomic working workCycle of the system: process new Tasks, then fireFromProcessConcept a concept...">
<polygon fill="none" stroke="black" points="1372,-0.5 1372,-30.5 1505,-30.5 1505,-0.5 1372,-0.5"/>
<text text-anchor="start" x="1380" y="-18.5" font-family="Helvetica,sans-Serif" font-size="10.00">nars.storage.Memory.work</text>
<text text-anchor="middle" x="1438.5" y="-7.5" font-family="Helvetica,sans-Serif" font-size="10.00">Cycle</text>
</a>
</g>
</g>
<!-- Node1751&#45;&gt;Node1752 -->
<g id="edge7" class="edge"><title>Node1751&#45;&gt;Node1752</title>
<path fill="none" stroke="midnightblue" d="M1346.12,-15.5C1354.72,-15.5 1363.37,-15.5 1371.76,-15.5"/>
<polygon fill="midnightblue" stroke="midnightblue" points="1346.07,-12.0001 1336.07,-15.5 1346.07,-19.0001 1346.07,-12.0001"/>
</g>
<!-- Node1753 -->
<g id="node9" class="node"><title>Node1753</title>
<g id="a_node9"><a xlink:href="../../df/d15/a00416.html#a0d5c797dc17d9e8d0998852915e0f303" target="_top" xlink:title="nars.storage.ReasonerBatch.doTick">
<polygon fill="none" stroke="black" points="1541,-6 1541,-25 1714,-25 1714,-6 1541,-6"/>
<text text-anchor="middle" x="1627.5" y="-13" font-family="Helvetica,sans-Serif" font-size="10.00">nars.storage.ReasonerBatch.doTick</text>
</a>
</g>
</g>
<!-- Node1752&#45;&gt;Node1753 -->
<g id="edge8" class="edge"><title>Node1752&#45;&gt;Node1753</title>
<path fill="none" stroke="midnightblue" d="M1515.34,-15.5C1523.78,-15.5 1532.42,-15.5 1540.97,-15.5"/>
<polygon fill="midnightblue" stroke="midnightblue" points="1515.17,-12.0001 1505.17,-15.5 1515.17,-19.0001 1515.17,-12.0001"/>
</g>
<!-- Node1754 -->
<g id="node10" class="node"><title>Node1754</title>
<g id="a_node10"><a xlink:href="../../df/d15/a00416.html#a3468aa0f99edcd66412f27922dddb880" target="_top" xlink:title="A clock tick. ">
<polygon fill="none" stroke="black" points="1750,-6 1750,-25 1910,-25 1910,-6 1750,-6"/>
<text text-anchor="middle" x="1830" y="-13" font-family="Helvetica,sans-Serif" font-size="10.00">nars.storage.ReasonerBatch.tick</text>
</a>
</g>
</g>
<!-- Node1753&#45;&gt;Node1754 -->
<g id="edge9" class="edge"><title>Node1753&#45;&gt;Node1754</title>
<path fill="none" stroke="midnightblue" d="M1724.13,-15.5C1732.7,-15.5 1741.31,-15.5 1749.71,-15.5"/>
<polygon fill="midnightblue" stroke="midnightblue" points="1724.11,-12.0001 1714.11,-15.5 1724.11,-19.0001 1724.11,-12.0001"/>
</g>
<!-- Node1755 -->
<g id="node11" class="node"><title>Node1755</title>
<g id="a_node11"><a xlink:href="../../d9/da1/a00396.html#a5d9cfe517bcfbe41e5251910bcd119c1" target="_top" xlink:title="Run to completion: repeatedly execute NARS working cycle, until Inputs are Finished, or 1000 steps. ">
<polygon fill="none" stroke="black" points="1946,-6 1946,-25 2090,-25 2090,-6 1946,-6"/>
<text text-anchor="middle" x="2018" y="-13" font-family="Helvetica,sans-Serif" font-size="10.00">nars.storage.NARSBatch.run</text>
</a>
</g>
</g>
<!-- Node1754&#45;&gt;Node1755 -->
<g id="edge10" class="edge"><title>Node1754&#45;&gt;Node1755</title>
<path fill="none" stroke="midnightblue" d="M1920.22,-15.5C1928.82,-15.5 1937.47,-15.5 1945.87,-15.5"/>
<polygon fill="midnightblue" stroke="midnightblue" points="1920.15,-12.0001 1910.15,-15.5 1920.15,-19.0001 1920.15,-12.0001"/>
</g>
<!-- Node1756 -->
<g id="node12" class="node"><title>Node1756</title>
<g id="a_node12"><a xlink:href="../../d9/da1/a00396.html#a7c307c6b842f82664de6b0e52bdf8efc" target="_top" xlink:title="non&#45;static equivalent to main(String[]) : run to completion from an input file ">
<polygon fill="none" stroke="black" points="2126,-0.5 2126,-30.5 2270,-30.5 2270,-0.5 2126,-0.5"/>
<text text-anchor="start" x="2134" y="-18.5" font-family="Helvetica,sans-Serif" font-size="10.00">nars.storage.NARSBatch.run</text>
<text text-anchor="middle" x="2198" y="-7.5" font-family="Helvetica,sans-Serif" font-size="10.00">Inference</text>
</a>
</g>
</g>
<!-- Node1755&#45;&gt;Node1756 -->
<g id="edge11" class="edge"><title>Node1755&#45;&gt;Node1756</title>
<path fill="none" stroke="midnightblue" d="M2100.17,-15.5C2108.79,-15.5 2117.51,-15.5 2126,-15.5"/>
<polygon fill="midnightblue" stroke="midnightblue" points="2100.12,-12.0001 2090.12,-15.5 2100.12,-19.0001 2100.12,-12.0001"/>
</g>
<!-- Node1757 -->
<g id="node13" class="node"><title>Node1757</title>
<g id="a_node13"><a xlink:href="../../d9/da1/a00396.html#abafc597289bc2f6453b5cd0dd6634e54" target="_top" xlink:title="The entry point of the standalone application. ">
<polygon fill="none" stroke="black" points="2306,-6 2306,-25 2458,-25 2458,-6 2306,-6"/>
<text text-anchor="middle" x="2382" y="-13" font-family="Helvetica,sans-Serif" font-size="10.00">nars.storage.NARSBatch.main</text>
</a>
</g>
</g>
<!-- Node1756&#45;&gt;Node1757 -->
<g id="edge12" class="edge"><title>Node1756&#45;&gt;Node1757</title>
<path fill="none" stroke="midnightblue" d="M2280.17,-15.5C2288.76,-15.5 2297.48,-15.5 2306,-15.5"/>
<polygon fill="midnightblue" stroke="midnightblue" points="2280.15,-12.0001 2270.15,-15.5 2280.15,-19.0001 2280.15,-12.0001"/>
</g>
</g>
</svg>
