<?xml version="1.0" encoding="UTF-8" standalone="no"?>
<!DOCTYPE svg PUBLIC "-//W3C//DTD SVG 1.1//EN"
 "http://www.w3.org/Graphics/SVG/1.1/DTD/svg11.dtd">
<!-- Generated by graphviz version 2.38.0 (20140413.2041)
 -->
<!-- Title: nars.inference.RuleTables.exemplification Pages: 1 -->
<!--zoomable 39 -->
<svg id="main" version="1.1" xmlns="http://www.w3.org/2000/svg" xmlns:xlink="http://www.w3.org/1999/xlink" xml:space="preserve" onload="init(evt)">
<style type="text/css"><![CDATA[
.edge:hover path { stroke: red; }
.edge:hover polygon { stroke: red; fill: red; }
]]></style>
<script type="text/javascript"><![CDATA[
var edges = document.getElementsByTagName('g');
if (edges && edges.length) {
  for (var i=0;i<edges.length;i++) {
    if (edges[i].id.substr(0,4)=='edge') {
      edges[i].setAttribute('class','edge');
    }
  }
}
]]></script>
        <defs>
                <circle id="rim" cx="0" cy="0" r="7"/>
                <circle id="rim2" cx="0" cy="0" r="3.5"/>
                <g id="zoomPlus">
                        <use xlink:href="#rim" fill="#404040">
                                <set attributeName="fill" to="#808080" begin="zoomplus.mouseover" end="zoomplus.mouseout"/>
                        </use>
                        <path d="M-4,0h8M0,-4v8" fill="none" stroke="white" stroke-width="1.5" pointer-events="none"/>
                </g>
                <g id="zoomMin">
                        <use xlink:href="#rim" fill="#404040">
                                <set attributeName="fill" to="#808080" begin="zoomminus.mouseover" end="zoomminus.mouseout"/>
                        </use>
                        <path d="M-4,0h8" fill="none" stroke="white" stroke-width="1.5" pointer-events="none"/>
                </g>
                <g id="dirArrow">
                        <path fill="none" stroke="white" stroke-width="1.5" d="M0,-3.0v7 M-2.5,-0.5L0,-3.0L2.5,-0.5"/>
                </g>
               <g id="resetDef">
                       <use xlink:href="#rim2" fill="#404040">
                               <set attributeName="fill" to="#808080" begin="reset.mouseover" end="reset.mouseout"/>
                       </use>
               </g>
        </defs>

<script type="text/javascript">
var viewWidth = 2505;
var viewHeight = 39;
var sectionId = 'dynsection-38';
</script>
<script xlink:href="../../svgpan.js"/>
<svg id="graph" class="graph">
<g id="viewport">
<title>nars.inference.RuleTables.exemplification</title>
<!-- Node1618 -->
<g id="node1" class="node"><title>Node1618</title>
<polygon fill="#bfbfbf" stroke="black" points="0,-6 0,-25 199,-25 199,-6 0,-6"/>
<text text-anchor="middle" x="99.5" y="-13" font-family="Helvetica,sans-Serif" font-size="10.00">nars.inference.RuleTables.exemplification</text>
</g>
<!-- Node1619 -->
<g id="node2" class="node"><title>Node1619</title>
<g id="a_node2"><a xlink:href="../../dc/ded/a00252.html#a25eeb7e192fb51fb7c1471e9af6489f4" target="_top" xlink:title="nars.inference.RuleTables.dedExe">
<polygon fill="none" stroke="black" points="235,-6 235,-25 402,-25 402,-6 235,-6"/>
<text text-anchor="middle" x="318.5" y="-13" font-family="Helvetica,sans-Serif" font-size="10.00">nars.inference.RuleTables.dedExe</text>
</a>
</g>
</g>
<!-- Node1618&#45;&gt;Node1619 -->
<g id="edge1" class="edge"><title>Node1618&#45;&gt;Node1619</title>
<path fill="none" stroke="midnightblue" d="M209.291,-15.5C217.933,-15.5 226.573,-15.5 234.991,-15.5"/>
<polygon fill="midnightblue" stroke="midnightblue" points="209.158,-12.0001 199.158,-15.5 209.158,-19.0001 209.158,-12.0001"/>
</g>
<!-- Node1620 -->
<g id="node3" class="node"><title>Node1620</title>
<g id="a_node3"><a xlink:href="../../dc/ded/a00252.html#a34927349efcf87db97d23c60983b115b" target="_top" xlink:title="Syllogistic rules whose both premises are on the same asymmetric relation. ">
<polygon fill="none" stroke="black" points="438,-0.5 438,-30.5 623,-30.5 623,-0.5 438,-0.5"/>
<text text-anchor="start" x="446" y="-18.5" font-family="Helvetica,sans-Serif" font-size="10.00">nars.inference.RuleTables.asymmetric</text>
<text text-anchor="middle" x="530.5" y="-7.5" font-family="Helvetica,sans-Serif" font-size="10.00">Asymmetric</text>
</a>
</g>
</g>
<!-- Node1619&#45;&gt;Node1620 -->
<g id="edge2" class="edge"><title>Node1619&#45;&gt;Node1620</title>
<path fill="none" stroke="midnightblue" d="M412.431,-15.5C420.877,-15.5 429.428,-15.5 437.862,-15.5"/>
<polygon fill="midnightblue" stroke="midnightblue" points="412.196,-12.0001 402.196,-15.5 412.196,-19.0001 412.196,-12.0001"/>
</g>
<!-- Node1621 -->
<g id="node4" class="node"><title>Node1621</title>
<g id="a_node4"><a xlink:href="../../dc/ded/a00252.html#a8628d400a8ceda7fea05039ddfea319b" target="_top" xlink:title="Meta&#45;table of syllogistic rules, indexed by the content classes of the taskSentence and the belief...">
<polygon fill="none" stroke="black" points="659,-6 659,-25 839,-25 839,-6 659,-6"/>
<text text-anchor="middle" x="749" y="-13" font-family="Helvetica,sans-Serif" font-size="10.00">nars.inference.RuleTables.syllogisms</text>
</a>
</g>
</g>
<!-- Node1620&#45;&gt;Node1621 -->
<g id="edge3" class="edge"><title>Node1620&#45;&gt;Node1621</title>
<path fill="none" stroke="midnightblue" d="M633.084,-15.5C641.705,-15.5 650.383,-15.5 658.898,-15.5"/>
<polygon fill="midnightblue" stroke="midnightblue" points="633.002,-12.0001 623.002,-15.5 633.002,-19.0001 633.002,-12.0001"/>
</g>
<!-- Node1622 -->
<g id="node5" class="node"><title>Node1622</title>
<g id="a_node5"><a xlink:href="../../dc/ded/a00252.html#ac2d01dfdc40bdd47c757cb549217e6e3" target="_top" xlink:title="Entry point of the inference engine. ">
<polygon fill="none" stroke="black" points="875,-6 875,-25 1038,-25 1038,-6 875,-6"/>
<text text-anchor="middle" x="956.5" y="-13" font-family="Helvetica,sans-Serif" font-size="10.00">nars.inference.RuleTables.reason</text>
</a>
</g>
</g>
<!-- Node1621&#45;&gt;Node1622 -->
<g id="edge4" class="edge"><title>Node1621&#45;&gt;Node1622</title>
<path fill="none" stroke="midnightblue" d="M849.244,-15.5C857.792,-15.5 866.372,-15.5 874.747,-15.5"/>
<polygon fill="midnightblue" stroke="midnightblue" points="849.239,-12.0001 839.239,-15.5 849.239,-19.0001 849.239,-12.0001"/>
</g>
<!-- Node1623 -->
<g id="node6" class="node"><title>Node1623</title>
<g id="a_node6"><a xlink:href="../../d7/ded/a00196.html#ad6fb91dda799c3092ecb186ef24ca92a" target="_top" xlink:title="An atomic step in a concept, only called in Memory# processConcept. ">
<polygon fill="none" stroke="black" points="1074,-0.5 1074,-30.5 1193,-30.5 1193,-0.5 1074,-0.5"/>
<text text-anchor="start" x="1082" y="-18.5" font-family="Helvetica,sans-Serif" font-size="10.00">nars.entity.Concept.fire</text>
<text text-anchor="middle" x="1133.5" y="-7.5" font-family="Helvetica,sans-Serif" font-size="10.00">FromProcessConcept</text>
</a>
</g>
</g>
<!-- Node1622&#45;&gt;Node1623 -->
<g id="edge5" class="edge"><title>Node1622&#45;&gt;Node1623</title>
<path fill="none" stroke="midnightblue" d="M1048.25,-15.5C1056.91,-15.5 1065.52,-15.5 1073.76,-15.5"/>
<polygon fill="midnightblue" stroke="midnightblue" points="1048.09,-12.0001 1038.09,-15.5 1048.08,-19.0001 1048.09,-12.0001"/>
</g>
<!-- Node1624 -->
<g id="node7" class="node"><title>Node1624</title>
<g id="a_node7"><a xlink:href="../../d4/d27/a00392.html#a0acc4adbf6a2462245da46bcb529746c" target="_top" xlink:title="Select a concept to fireFromProcessConcept. ">
<polygon fill="none" stroke="black" points="1229,-0.5 1229,-30.5 1375,-30.5 1375,-0.5 1229,-0.5"/>
<text text-anchor="start" x="1237" y="-18.5" font-family="Helvetica,sans-Serif" font-size="10.00">nars.storage.Memory.process</text>
<text text-anchor="middle" x="1302" y="-7.5" font-family="Helvetica,sans-Serif" font-size="10.00">Concept</text>
</a>
</g>
</g>
<!-- Node1623&#45;&gt;Node1624 -->
<g id="edge6" class="edge"><title>Node1623&#45;&gt;Node1624</title>
<path fill="none" stroke="midnightblue" d="M1203.34,-15.5C1211.75,-15.5 1220.36,-15.5 1228.82,-15.5"/>
<polygon fill="midnightblue" stroke="midnightblue" points="1203.2,-12.0001 1193.2,-15.5 1203.2,-19.0001 1203.2,-12.0001"/>
</g>
<!-- Node1625 -->
<g id="node8" class="node"><title>Node1625</title>
<g id="a_node8"><a xlink:href="../../d4/d27/a00392.html#a59ae339d666409988d90d29be4f73a91" target="_top" xlink:title="An atomic working workCycle of the system: process new Tasks, then fireFromProcessConcept a concept...">
<polygon fill="none" stroke="black" points="1411,-0.5 1411,-30.5 1544,-30.5 1544,-0.5 1411,-0.5"/>
<text text-anchor="start" x="1419" y="-18.5" font-family="Helvetica,sans-Serif" font-size="10.00">nars.storage.Memory.work</text>
<text text-anchor="middle" x="1477.5" y="-7.5" font-family="Helvetica,sans-Serif" font-size="10.00">Cycle</text>
</a>
</g>
</g>
<!-- Node1624&#45;&gt;Node1625 -->
<g id="edge7" class="edge"><title>Node1624&#45;&gt;Node1625</title>
<path fill="none" stroke="midnightblue" d="M1385.12,-15.5C1393.72,-15.5 1402.37,-15.5 1410.76,-15.5"/>
<polygon fill="midnightblue" stroke="midnightblue" points="1385.07,-12.0001 1375.07,-15.5 1385.07,-19.0001 1385.07,-12.0001"/>
</g>
<!-- Node1626 -->
<g id="node9" class="node"><title>Node1626</title>
<g id="a_node9"><a xlink:href="../../df/d15/a00416.html#a0d5c797dc17d9e8d0998852915e0f303" target="_top" xlink:title="nars.storage.ReasonerBatch.doTick">
<polygon fill="none" stroke="black" points="1580,-6 1580,-25 1753,-25 1753,-6 1580,-6"/>
<text text-anchor="middle" x="1666.5" y="-13" font-family="Helvetica,sans-Serif" font-size="10.00">nars.storage.ReasonerBatch.doTick</text>
</a>
</g>
</g>
<!-- Node1625&#45;&gt;Node1626 -->
<g id="edge8" class="edge"><title>Node1625&#45;&gt;Node1626</title>
<path fill="none" stroke="midnightblue" d="M1554.34,-15.5C1562.78,-15.5 1571.42,-15.5 1579.97,-15.5"/>
<polygon fill="midnightblue" stroke="midnightblue" points="1554.17,-12.0001 1544.17,-15.5 1554.17,-19.0001 1554.17,-12.0001"/>
</g>
<!-- Node1627 -->
<g id="node10" class="node"><title>Node1627</title>
<g id="a_node10"><a xlink:href="../../df/d15/a00416.html#a3468aa0f99edcd66412f27922dddb880" target="_top" xlink:title="A clock tick. ">
<polygon fill="none" stroke="black" points="1789,-6 1789,-25 1949,-25 1949,-6 1789,-6"/>
<text text-anchor="middle" x="1869" y="-13" font-family="Helvetica,sans-Serif" font-size="10.00">nars.storage.ReasonerBatch.tick</text>
</a>
</g>
</g>
<!-- Node1626&#45;&gt;Node1627 -->
<g id="edge9" class="edge"><title>Node1626&#45;&gt;Node1627</title>
<path fill="none" stroke="midnightblue" d="M1763.13,-15.5C1771.7,-15.5 1780.31,-15.5 1788.71,-15.5"/>
<polygon fill="midnightblue" stroke="midnightblue" points="1763.11,-12.0001 1753.11,-15.5 1763.11,-19.0001 1763.11,-12.0001"/>
</g>
<!-- Node1628 -->
<g id="node11" class="node"><title>Node1628</title>
<g id="a_node11"><a xlink:href="../../d9/da1/a00396.html#a5d9cfe517bcfbe41e5251910bcd119c1" target="_top" xlink:title="Run to completion: repeatedly execute NARS working cycle, until Inputs are Finished, or 1000 steps. ">
<polygon fill="none" stroke="black" points="1985,-6 1985,-25 2129,-25 2129,-6 1985,-6"/>
<text text-anchor="middle" x="2057" y="-13" font-family="Helvetica,sans-Serif" font-size="10.00">nars.storage.NARSBatch.run</text>
</a>
</g>
</g>
<!-- Node1627&#45;&gt;Node1628 -->
<g id="edge10" class="edge"><title>Node1627&#45;&gt;Node1628</title>
<path fill="none" stroke="midnightblue" d="M1959.22,-15.5C1967.82,-15.5 1976.47,-15.5 1984.87,-15.5"/>
<polygon fill="midnightblue" stroke="midnightblue" points="1959.15,-12.0001 1949.15,-15.5 1959.15,-19.0001 1959.15,-12.0001"/>
</g>
<!-- Node1629 -->
<g id="node12" class="node"><title>Node1629</title>
<g id="a_node12"><a xlink:href="../../d9/da1/a00396.html#a7c307c6b842f82664de6b0e52bdf8efc" target="_top" xlink:title="non&#45;static equivalent to main(String[]) : run to completion from an input file ">
<polygon fill="none" stroke="black" points="2165,-0.5 2165,-30.5 2309,-30.5 2309,-0.5 2165,-0.5"/>
<text text-anchor="start" x="2173" y="-18.5" font-family="Helvetica,sans-Serif" font-size="10.00">nars.storage.NARSBatch.run</text>
<text text-anchor="middle" x="2237" y="-7.5" font-family="Helvetica,sans-Serif" font-size="10.00">Inference</text>
</a>
</g>
</g>
<!-- Node1628&#45;&gt;Node1629 -->
<g id="edge11" class="edge"><title>Node1628&#45;&gt;Node1629</title>
<path fill="none" stroke="midnightblue" d="M2139.17,-15.5C2147.79,-15.5 2156.51,-15.5 2165,-15.5"/>
<polygon fill="midnightblue" stroke="midnightblue" points="2139.12,-12.0001 2129.12,-15.5 2139.12,-19.0001 2139.12,-12.0001"/>
</g>
<!-- Node1630 -->
<g id="node13" class="node"><title>Node1630</title>
<g id="a_node13"><a xlink:href="../../d9/da1/a00396.html#abafc597289bc2f6453b5cd0dd6634e54" target="_top" xlink:title="The entry point of the standalone application. ">
<polygon fill="none" stroke="black" points="2345,-6 2345,-25 2497,-25 2497,-6 2345,-6"/>
<text text-anchor="middle" x="2421" y="-13" font-family="Helvetica,sans-Serif" font-size="10.00">nars.storage.NARSBatch.main</text>
</a>
</g>
</g>
<!-- Node1629&#45;&gt;Node1630 -->
<g id="edge12" class="edge"><title>Node1629&#45;&gt;Node1630</title>
<path fill="none" stroke="midnightblue" d="M2319.17,-15.5C2327.76,-15.5 2336.48,-15.5 2345,-15.5"/>
<polygon fill="midnightblue" stroke="midnightblue" points="2319.15,-12.0001 2309.15,-15.5 2319.15,-19.0001 2319.15,-12.0001"/>
</g>
</g>
</svg>
        <g id="navigator" transform="translate(0 0)" fill="#404254">
                <rect fill="#f2f5e9" fill-opacity="0.5" stroke="#606060" stroke-width=".5" x="0" y="0" width="60" height="60"/>
                <use id="zoomplus" xlink:href="#zoomPlus" x="17" y="9" onmousedown="handleZoom(evt,'in')"/>
                <use id="zoomminus" xlink:href="#zoomMin" x="42" y="9" onmousedown="handleZoom(evt,'out')"/>
                <use id="reset" xlink:href="#resetDef" x="30" y="36" onmousedown="handleReset()"/>
                <g id="arrowUp" xlink:href="#dirArrow" transform="translate(30 24)" onmousedown="handlePan(0,-1)">
                  <use xlink:href="#rim" fill="#404040">
                        <set attributeName="fill" to="#808080" begin="arrowUp.mouseover" end="arrowUp.mouseout"/>
                  </use>
                  <path fill="none" stroke="white" stroke-width="1.5" d="M0,-3.0v7 M-2.5,-0.5L0,-3.0L2.5,-0.5"/>
                </g>
                <g id="arrowRight" xlink:href="#dirArrow" transform="rotate(90) translate(36 -43)" onmousedown="handlePan(1,0)">
                  <use xlink:href="#rim" fill="#404040">
                        <set attributeName="fill" to="#808080" begin="arrowRight.mouseover" end="arrowRight.mouseout"/>
                  </use>
                  <path fill="none" stroke="white" stroke-width="1.5" d="M0,-3.0v7 M-2.5,-0.5L0,-3.0L2.5,-0.5"/>
                </g>
                <g id="arrowDown" xlink:href="#dirArrow" transform="rotate(180) translate(-30 -48)" onmousedown="handlePan(0,1)">
                  <use xlink:href="#rim" fill="#404040">
                        <set attributeName="fill" to="#808080" begin="arrowDown.mouseover" end="arrowDown.mouseout"/>
                  </use>
                  <path fill="none" stroke="white" stroke-width="1.5" d="M0,-3.0v7 M-2.5,-0.5L0,-3.0L2.5,-0.5"/>
                </g>
                <g id="arrowLeft" xlink:href="#dirArrow" transform="rotate(270) translate(-36 17)" onmousedown="handlePan(-1,0)">
                  <use xlink:href="#rim" fill="#404040">
                        <set attributeName="fill" to="#808080" begin="arrowLeft.mouseover" end="arrowLeft.mouseout"/>
                  </use>
                  <path fill="none" stroke="white" stroke-width="1.5" d="M0,-3.0v7 M-2.5,-0.5L0,-3.0L2.5,-0.5"/>
                </g>
        </g>
        <svg viewBox="0 0 15 15" width="100%" height="30px" preserveAspectRatio="xMaxYMin meet">
         <g id="arrow_out" transform="scale(0.3 0.3)">
          <a xlink:href="a00252_a9489a5cbd8a1e1818c73dca75a3efd07_icgraph_org.svg" target="_base">
           <rect id="button" ry="5" rx="5" y="6" x="6" height="38" width="38"
                fill="#f2f5e9" fill-opacity="0.5" stroke="#606060" stroke-width="1.0"/>
           <path id="arrow"
             d="M 11.500037,31.436501 C 11.940474,20.09759 22.043105,11.32322 32.158766,21.979434 L 37.068811,17.246167 C 37.068811,17.246167 37.088388,32 37.088388,32 L 22.160133,31.978069 C 22.160133,31.978069 26.997745,27.140456 26.997745,27.140456 C 18.528582,18.264221 13.291696,25.230495 11.500037,31.436501 z"
             style="fill:#404040;"/>
          </a>
         </g>
        </svg>
</svg>
