<?xml version="1.0" encoding="UTF-8" standalone="no"?>
<!DOCTYPE svg PUBLIC "-//W3C//DTD SVG 1.1//EN"
 "http://www.w3.org/Graphics/SVG/1.1/DTD/svg11.dtd">
<!-- Generated by graphviz version 2.38.0 (20140413.2041)
 -->
<!-- Title: nars.inference.RuleTables.transformSetRelation Pages: 1 -->
<!--zoomable 39 -->
<svg id="main" version="1.1" xmlns="http://www.w3.org/2000/svg" xmlns:xlink="http://www.w3.org/1999/xlink" xml:space="preserve" onload="init(evt)">
<style type="text/css"><![CDATA[
.edge:hover path { stroke: red; }
.edge:hover polygon { stroke: red; fill: red; }
]]></style>
<script type="text/javascript"><![CDATA[
var edges = document.getElementsByTagName('g');
if (edges && edges.length) {
  for (var i=0;i<edges.length;i++) {
    if (edges[i].id.substr(0,4)=='edge') {
      edges[i].setAttribute('class','edge');
    }
  }
}
]]></script>
        <defs>
                <circle id="rim" cx="0" cy="0" r="7"/>
                <circle id="rim2" cx="0" cy="0" r="3.5"/>
                <g id="zoomPlus">
                        <use xlink:href="#rim" fill="#404040">
                                <set attributeName="fill" to="#808080" begin="zoomplus.mouseover" end="zoomplus.mouseout"/>
                        </use>
                        <path d="M-4,0h8M0,-4v8" fill="none" stroke="white" stroke-width="1.5" pointer-events="none"/>
                </g>
                <g id="zoomMin">
                        <use xlink:href="#rim" fill="#404040">
                                <set attributeName="fill" to="#808080" begin="zoomminus.mouseover" end="zoomminus.mouseout"/>
                        </use>
                        <path d="M-4,0h8" fill="none" stroke="white" stroke-width="1.5" pointer-events="none"/>
                </g>
                <g id="dirArrow">
                        <path fill="none" stroke="white" stroke-width="1.5" d="M0,-3.0v7 M-2.5,-0.5L0,-3.0L2.5,-0.5"/>
                </g>
               <g id="resetDef">
                       <use xlink:href="#rim2" fill="#404040">
                               <set attributeName="fill" to="#808080" begin="reset.mouseover" end="reset.mouseout"/>
                       </use>
               </g>
        </defs>

<script type="text/javascript">
var viewWidth = 2059;
var viewHeight = 39;
var sectionId = 'dynsection-55';
</script>
<script xlink:href="../../svgpan.js"/>
<svg id="graph" class="graph">
<g id="viewport">
<title>nars.inference.RuleTables.transformSetRelation</title>
<!-- Node2309 -->
<g id="node1" class="node"><title>Node2309</title>
<polygon fill="#bfbfbf" stroke="black" points="0,-0.5 0,-30.5 175,-30.5 175,-0.5 0,-0.5"/>
<text text-anchor="start" x="8" y="-18.5" font-family="Helvetica,sans-Serif" font-size="10.00">nars.inference.RuleTables.transform</text>
<text text-anchor="middle" x="87.5" y="-7.5" font-family="Helvetica,sans-Serif" font-size="10.00">SetRelation</text>
</g>
<!-- Node2310 -->
<g id="node2" class="node"><title>Node2310</title>
<g id="a_node2"><a xlink:href="../../dc/ded/a00252.html#a08680eb3f85b0a37b7bd969de8b25904" target="_top" xlink:title="Inference between a component term (of the current term) and a statement. ">
<polygon fill="none" stroke="black" points="211,-0.5 211,-30.5 393,-30.5 393,-0.5 211,-0.5"/>
<text text-anchor="start" x="219" y="-18.5" font-family="Helvetica,sans-Serif" font-size="10.00">nars.inference.RuleTables.component</text>
<text text-anchor="middle" x="302" y="-7.5" font-family="Helvetica,sans-Serif" font-size="10.00">AndStatement</text>
</a>
</g>
</g>
<!-- Node2309&#45;&gt;Node2310 -->
<g id="edge1" class="edge"><title>Node2309&#45;&gt;Node2310</title>
<path fill="none" stroke="midnightblue" d="M185.457,-15.5C193.878,-15.5 202.378,-15.5 210.742,-15.5"/>
<polygon fill="midnightblue" stroke="midnightblue" points="185.238,-12.0001 175.238,-15.5 185.238,-19.0001 185.238,-12.0001"/>
</g>
<!-- Node2311 -->
<g id="node3" class="node"><title>Node2311</title>
<g id="a_node3"><a xlink:href="../../dc/ded/a00252.html#ac2d01dfdc40bdd47c757cb549217e6e3" target="_top" xlink:title="Entry point of the inference engine. ">
<polygon fill="none" stroke="black" points="429,-6 429,-25 592,-25 592,-6 429,-6"/>
<text text-anchor="middle" x="510.5" y="-13" font-family="Helvetica,sans-Serif" font-size="10.00">nars.inference.RuleTables.reason</text>
</a>
</g>
</g>
<!-- Node2310&#45;&gt;Node2311 -->
<g id="edge2" class="edge"><title>Node2310&#45;&gt;Node2311</title>
<path fill="none" stroke="midnightblue" d="M403.295,-15.5C411.855,-15.5 420.442,-15.5 428.82,-15.5"/>
<polygon fill="midnightblue" stroke="midnightblue" points="403.274,-12.0001 393.274,-15.5 403.273,-19.0001 403.274,-12.0001"/>
</g>
<!-- Node2312 -->
<g id="node4" class="node"><title>Node2312</title>
<g id="a_node4"><a xlink:href="../../d7/ded/a00196.html#ad6fb91dda799c3092ecb186ef24ca92a" target="_top" xlink:title="An atomic step in a concept, only called in Memory# processConcept. ">
<polygon fill="none" stroke="black" points="628,-0.5 628,-30.5 747,-30.5 747,-0.5 628,-0.5"/>
<text text-anchor="start" x="636" y="-18.5" font-family="Helvetica,sans-Serif" font-size="10.00">nars.entity.Concept.fire</text>
<text text-anchor="middle" x="687.5" y="-7.5" font-family="Helvetica,sans-Serif" font-size="10.00">FromProcessConcept</text>
</a>
</g>
</g>
<!-- Node2311&#45;&gt;Node2312 -->
<g id="edge3" class="edge"><title>Node2311&#45;&gt;Node2312</title>
<path fill="none" stroke="midnightblue" d="M602.249,-15.5C610.907,-15.5 619.523,-15.5 627.757,-15.5"/>
<polygon fill="midnightblue" stroke="midnightblue" points="602.085,-12.0001 592.085,-15.5 602.085,-19.0001 602.085,-12.0001"/>
</g>
<!-- Node2313 -->
<g id="node5" class="node"><title>Node2313</title>
<g id="a_node5"><a xlink:href="../../d4/d27/a00392.html#a0acc4adbf6a2462245da46bcb529746c" target="_top" xlink:title="Select a concept to fireFromProcessConcept. ">
<polygon fill="none" stroke="black" points="783,-0.5 783,-30.5 929,-30.5 929,-0.5 783,-0.5"/>
<text text-anchor="start" x="791" y="-18.5" font-family="Helvetica,sans-Serif" font-size="10.00">nars.storage.Memory.process</text>
<text text-anchor="middle" x="856" y="-7.5" font-family="Helvetica,sans-Serif" font-size="10.00">Concept</text>
</a>
</g>
</g>
<!-- Node2312&#45;&gt;Node2313 -->
<g id="edge4" class="edge"><title>Node2312&#45;&gt;Node2313</title>
<path fill="none" stroke="midnightblue" d="M757.337,-15.5C765.748,-15.5 774.361,-15.5 782.819,-15.5"/>
<polygon fill="midnightblue" stroke="midnightblue" points="757.202,-12.0001 747.202,-15.5 757.202,-19.0001 757.202,-12.0001"/>
</g>
<!-- Node2314 -->
<g id="node6" class="node"><title>Node2314</title>
<g id="a_node6"><a xlink:href="../../d4/d27/a00392.html#a59ae339d666409988d90d29be4f73a91" target="_top" xlink:title="An atomic working workCycle of the system: process new Tasks, then fireFromProcessConcept a concept...">
<polygon fill="none" stroke="black" points="965,-0.5 965,-30.5 1098,-30.5 1098,-0.5 965,-0.5"/>
<text text-anchor="start" x="973" y="-18.5" font-family="Helvetica,sans-Serif" font-size="10.00">nars.storage.Memory.work</text>
<text text-anchor="middle" x="1031.5" y="-7.5" font-family="Helvetica,sans-Serif" font-size="10.00">Cycle</text>
</a>
</g>
</g>
<!-- Node2313&#45;&gt;Node2314 -->
<g id="edge5" class="edge"><title>Node2313&#45;&gt;Node2314</title>
<path fill="none" stroke="midnightblue" d="M939.118,-15.5C947.716,-15.5 956.375,-15.5 964.755,-15.5"/>
<polygon fill="midnightblue" stroke="midnightblue" points="939.072,-12.0001 929.072,-15.5 939.072,-19.0001 939.072,-12.0001"/>
</g>
<!-- Node2315 -->
<g id="node7" class="node"><title>Node2315</title>
<g id="a_node7"><a xlink:href="../../df/d15/a00416.html#a0d5c797dc17d9e8d0998852915e0f303" target="_top" xlink:title="nars.storage.ReasonerBatch.doTick">
<polygon fill="none" stroke="black" points="1134,-6 1134,-25 1307,-25 1307,-6 1134,-6"/>
<text text-anchor="middle" x="1220.5" y="-13" font-family="Helvetica,sans-Serif" font-size="10.00">nars.storage.ReasonerBatch.doTick</text>
</a>
</g>
</g>
<!-- Node2314&#45;&gt;Node2315 -->
<g id="edge6" class="edge"><title>Node2314&#45;&gt;Node2315</title>
<path fill="none" stroke="midnightblue" d="M1108.34,-15.5C1116.78,-15.5 1125.42,-15.5 1133.97,-15.5"/>
<polygon fill="midnightblue" stroke="midnightblue" points="1108.17,-12.0001 1098.17,-15.5 1108.17,-19.0001 1108.17,-12.0001"/>
</g>
<!-- Node2316 -->
<g id="node8" class="node"><title>Node2316</title>
<g id="a_node8"><a xlink:href="../../df/d15/a00416.html#a3468aa0f99edcd66412f27922dddb880" target="_top" xlink:title="A clock tick. ">
<polygon fill="none" stroke="black" points="1343,-6 1343,-25 1503,-25 1503,-6 1343,-6"/>
<text text-anchor="middle" x="1423" y="-13" font-family="Helvetica,sans-Serif" font-size="10.00">nars.storage.ReasonerBatch.tick</text>
</a>
</g>
</g>
<!-- Node2315&#45;&gt;Node2316 -->
<g id="edge7" class="edge"><title>Node2315&#45;&gt;Node2316</title>
<path fill="none" stroke="midnightblue" d="M1317.13,-15.5C1325.7,-15.5 1334.31,-15.5 1342.71,-15.5"/>
<polygon fill="midnightblue" stroke="midnightblue" points="1317.11,-12.0001 1307.11,-15.5 1317.11,-19.0001 1317.11,-12.0001"/>
</g>
<!-- Node2317 -->
<g id="node9" class="node"><title>Node2317</title>
<g id="a_node9"><a xlink:href="../../d9/da1/a00396.html#a5d9cfe517bcfbe41e5251910bcd119c1" target="_top" xlink:title="Run to completion: repeatedly execute NARS working cycle, until Inputs are Finished, or 1000 steps. ">
<polygon fill="none" stroke="black" points="1539,-6 1539,-25 1683,-25 1683,-6 1539,-6"/>
<text text-anchor="middle" x="1611" y="-13" font-family="Helvetica,sans-Serif" font-size="10.00">nars.storage.NARSBatch.run</text>
</a>
</g>
</g>
<!-- Node2316&#45;&gt;Node2317 -->
<g id="edge8" class="edge"><title>Node2316&#45;&gt;Node2317</title>
<path fill="none" stroke="midnightblue" d="M1513.22,-15.5C1521.82,-15.5 1530.47,-15.5 1538.87,-15.5"/>
<polygon fill="midnightblue" stroke="midnightblue" points="1513.15,-12.0001 1503.15,-15.5 1513.15,-19.0001 1513.15,-12.0001"/>
</g>
<!-- Node2318 -->
<g id="node10" class="node"><title>Node2318</title>
<g id="a_node10"><a xlink:href="../../d9/da1/a00396.html#a7c307c6b842f82664de6b0e52bdf8efc" target="_top" xlink:title="non&#45;static equivalent to main(String[]) : run to completion from an input file ">
<polygon fill="none" stroke="black" points="1719,-0.5 1719,-30.5 1863,-30.5 1863,-0.5 1719,-0.5"/>
<text text-anchor="start" x="1727" y="-18.5" font-family="Helvetica,sans-Serif" font-size="10.00">nars.storage.NARSBatch.run</text>
<text text-anchor="middle" x="1791" y="-7.5" font-family="Helvetica,sans-Serif" font-size="10.00">Inference</text>
</a>
</g>
</g>
<!-- Node2317&#45;&gt;Node2318 -->
<g id="edge9" class="edge"><title>Node2317&#45;&gt;Node2318</title>
<path fill="none" stroke="midnightblue" d="M1693.17,-15.5C1701.79,-15.5 1710.51,-15.5 1719,-15.5"/>
<polygon fill="midnightblue" stroke="midnightblue" points="1693.12,-12.0001 1683.12,-15.5 1693.12,-19.0001 1693.12,-12.0001"/>
</g>
<!-- Node2319 -->
<g id="node11" class="node"><title>Node2319</title>
<g id="a_node11"><a xlink:href="../../d9/da1/a00396.html#abafc597289bc2f6453b5cd0dd6634e54" target="_top" xlink:title="The entry point of the standalone application. ">
<polygon fill="none" stroke="black" points="1899,-6 1899,-25 2051,-25 2051,-6 1899,-6"/>
<text text-anchor="middle" x="1975" y="-13" font-family="Helvetica,sans-Serif" font-size="10.00">nars.storage.NARSBatch.main</text>
</a>
</g>
</g>
<!-- Node2318&#45;&gt;Node2319 -->
<g id="edge10" class="edge"><title>Node2318&#45;&gt;Node2319</title>
<path fill="none" stroke="midnightblue" d="M1873.17,-15.5C1881.76,-15.5 1890.48,-15.5 1899,-15.5"/>
<polygon fill="midnightblue" stroke="midnightblue" points="1873.15,-12.0001 1863.15,-15.5 1873.15,-19.0001 1873.15,-12.0001"/>
</g>
</g>
</svg>
        <g id="navigator" transform="translate(0 0)" fill="#404254">
                <rect fill="#f2f5e9" fill-opacity="0.5" stroke="#606060" stroke-width=".5" x="0" y="0" width="60" height="60"/>
                <use id="zoomplus" xlink:href="#zoomPlus" x="17" y="9" onmousedown="handleZoom(evt,'in')"/>
                <use id="zoomminus" xlink:href="#zoomMin" x="42" y="9" onmousedown="handleZoom(evt,'out')"/>
                <use id="reset" xlink:href="#resetDef" x="30" y="36" onmousedown="handleReset()"/>
                <g id="arrowUp" xlink:href="#dirArrow" transform="translate(30 24)" onmousedown="handlePan(0,-1)">
                  <use xlink:href="#rim" fill="#404040">
                        <set attributeName="fill" to="#808080" begin="arrowUp.mouseover" end="arrowUp.mouseout"/>
                  </use>
                  <path fill="none" stroke="white" stroke-width="1.5" d="M0,-3.0v7 M-2.5,-0.5L0,-3.0L2.5,-0.5"/>
                </g>
                <g id="arrowRight" xlink:href="#dirArrow" transform="rotate(90) translate(36 -43)" onmousedown="handlePan(1,0)">
                  <use xlink:href="#rim" fill="#404040">
                        <set attributeName="fill" to="#808080" begin="arrowRight.mouseover" end="arrowRight.mouseout"/>
                  </use>
                  <path fill="none" stroke="white" stroke-width="1.5" d="M0,-3.0v7 M-2.5,-0.5L0,-3.0L2.5,-0.5"/>
                </g>
                <g id="arrowDown" xlink:href="#dirArrow" transform="rotate(180) translate(-30 -48)" onmousedown="handlePan(0,1)">
                  <use xlink:href="#rim" fill="#404040">
                        <set attributeName="fill" to="#808080" begin="arrowDown.mouseover" end="arrowDown.mouseout"/>
                  </use>
                  <path fill="none" stroke="white" stroke-width="1.5" d="M0,-3.0v7 M-2.5,-0.5L0,-3.0L2.5,-0.5"/>
                </g>
                <g id="arrowLeft" xlink:href="#dirArrow" transform="rotate(270) translate(-36 17)" onmousedown="handlePan(-1,0)">
                  <use xlink:href="#rim" fill="#404040">
                        <set attributeName="fill" to="#808080" begin="arrowLeft.mouseover" end="arrowLeft.mouseout"/>
                  </use>
                  <path fill="none" stroke="white" stroke-width="1.5" d="M0,-3.0v7 M-2.5,-0.5L0,-3.0L2.5,-0.5"/>
                </g>
        </g>
        <svg viewBox="0 0 15 15" width="100%" height="30px" preserveAspectRatio="xMaxYMin meet">
         <g id="arrow_out" transform="scale(0.3 0.3)">
          <a xlink:href="a00252_a2a79778de40e45fdf7786cb318b5b772_icgraph_org.svg" target="_base">
           <rect id="button" ry="5" rx="5" y="6" x="6" height="38" width="38"
                fill="#f2f5e9" fill-opacity="0.5" stroke="#606060" stroke-width="1.0"/>
           <path id="arrow"
             d="M 11.500037,31.436501 C 11.940474,20.09759 22.043105,11.32322 32.158766,21.979434 L 37.068811,17.246167 C 37.068811,17.246167 37.088388,32 37.088388,32 L 22.160133,31.978069 C 22.160133,31.978069 26.997745,27.140456 26.997745,27.140456 C 18.528582,18.264221 13.291696,25.230495 11.500037,31.436501 z"
             style="fill:#404040;"/>
          </a>
         </g>
        </svg>
</svg>
