<?xml version="1.0" encoding="UTF-8" standalone="no"?>
<!DOCTYPE svg PUBLIC "-//W3C//DTD SVG 1.1//EN"
 "http://www.w3.org/Graphics/SVG/1.1/DTD/svg11.dtd">
<!-- Generated by graphviz version 2.38.0 (20140413.2041)
 -->
<!-- Title: nars.inference.RuleTables.compoundAndCompound Pages: 1 -->
<svg width="1845pt" height="39pt"
 viewBox="0.00 0.00 1845.00 39.00" xmlns="http://www.w3.org/2000/svg" xmlns:xlink="http://www.w3.org/1999/xlink">
<g id="graph0" class="graph" transform="scale(1 1) rotate(0) translate(4 35)">
<title>nars.inference.RuleTables.compoundAndCompound</title>
<!-- Node510 -->
<g id="node1" class="node"><title>Node510</title>
<polygon fill="#bfbfbf" stroke="black" points="0,-0.5 0,-30.5 179,-30.5 179,-0.5 0,-0.5"/>
<text text-anchor="start" x="8" y="-18.5" font-family="Helvetica,sans-Serif" font-size="10.00">nars.inference.RuleTables.compound</text>
<text text-anchor="middle" x="89.5" y="-7.5" font-family="Helvetica,sans-Serif" font-size="10.00">AndCompound</text>
</g>
<!-- Node511 -->
<g id="node2" class="node"><title>Node511</title>
<g id="a_node2"><a xlink:href="../../dc/ded/a00252.html#ac2d01dfdc40bdd47c757cb549217e6e3" target="_top" xlink:title="Entry point of the inference engine. ">
<polygon fill="none" stroke="black" points="215,-6 215,-25 378,-25 378,-6 215,-6"/>
<text text-anchor="middle" x="296.5" y="-13" font-family="Helvetica,sans-Serif" font-size="10.00">nars.inference.RuleTables.reason</text>
</a>
</g>
</g>
<!-- Node510&#45;&gt;Node511 -->
<g id="edge1" class="edge"><title>Node510&#45;&gt;Node511</title>
<path fill="none" stroke="midnightblue" d="M189.499,-15.5C197.948,-15.5 206.429,-15.5 214.712,-15.5"/>
<polygon fill="midnightblue" stroke="midnightblue" points="189.224,-12.0001 179.224,-15.5 189.224,-19.0001 189.224,-12.0001"/>
</g>
<!-- Node512 -->
<g id="node3" class="node"><title>Node512</title>
<g id="a_node3"><a xlink:href="../../d7/ded/a00196.html#ad6fb91dda799c3092ecb186ef24ca92a" target="_top" xlink:title="An atomic step in a concept, only called in Memory# processConcept. ">
<polygon fill="none" stroke="black" points="414,-0.5 414,-30.5 533,-30.5 533,-0.5 414,-0.5"/>
<text text-anchor="start" x="422" y="-18.5" font-family="Helvetica,sans-Serif" font-size="10.00">nars.entity.Concept.fire</text>
<text text-anchor="middle" x="473.5" y="-7.5" font-family="Helvetica,sans-Serif" font-size="10.00">FromProcessConcept</text>
</a>
</g>
</g>
<!-- Node511&#45;&gt;Node512 -->
<g id="edge2" class="edge"><title>Node511&#45;&gt;Node512</title>
<path fill="none" stroke="midnightblue" d="M388.249,-15.5C396.907,-15.5 405.523,-15.5 413.757,-15.5"/>
<polygon fill="midnightblue" stroke="midnightblue" points="388.085,-12.0001 378.085,-15.5 388.085,-19.0001 388.085,-12.0001"/>
</g>
<!-- Node513 -->
<g id="node4" class="node"><title>Node513</title>
<g id="a_node4"><a xlink:href="../../d4/d27/a00392.html#a0acc4adbf6a2462245da46bcb529746c" target="_top" xlink:title="Select a concept to fireFromProcessConcept. ">
<polygon fill="none" stroke="black" points="569,-0.5 569,-30.5 715,-30.5 715,-0.5 569,-0.5"/>
<text text-anchor="start" x="577" y="-18.5" font-family="Helvetica,sans-Serif" font-size="10.00">nars.storage.Memory.process</text>
<text text-anchor="middle" x="642" y="-7.5" font-family="Helvetica,sans-Serif" font-size="10.00">Concept</text>
</a>
</g>
</g>
<!-- Node512&#45;&gt;Node513 -->
<g id="edge3" class="edge"><title>Node512&#45;&gt;Node513</title>
<path fill="none" stroke="midnightblue" d="M543.337,-15.5C551.748,-15.5 560.361,-15.5 568.819,-15.5"/>
<polygon fill="midnightblue" stroke="midnightblue" points="543.202,-12.0001 533.202,-15.5 543.202,-19.0001 543.202,-12.0001"/>
</g>
<!-- Node514 -->
<g id="node5" class="node"><title>Node514</title>
<g id="a_node5"><a xlink:href="../../d4/d27/a00392.html#a59ae339d666409988d90d29be4f73a91" target="_top" xlink:title="An atomic working workCycle of the system: process new Tasks, then fireFromProcessConcept a concept...">
<polygon fill="none" stroke="black" points="751,-0.5 751,-30.5 884,-30.5 884,-0.5 751,-0.5"/>
<text text-anchor="start" x="759" y="-18.5" font-family="Helvetica,sans-Serif" font-size="10.00">nars.storage.Memory.work</text>
<text text-anchor="middle" x="817.5" y="-7.5" font-family="Helvetica,sans-Serif" font-size="10.00">Cycle</text>
</a>
</g>
</g>
<!-- Node513&#45;&gt;Node514 -->
<g id="edge4" class="edge"><title>Node513&#45;&gt;Node514</title>
<path fill="none" stroke="midnightblue" d="M725.118,-15.5C733.716,-15.5 742.375,-15.5 750.755,-15.5"/>
<polygon fill="midnightblue" stroke="midnightblue" points="725.072,-12.0001 715.072,-15.5 725.072,-19.0001 725.072,-12.0001"/>
</g>
<!-- Node515 -->
<g id="node6" class="node"><title>Node515</title>
<g id="a_node6"><a xlink:href="../../df/d15/a00416.html#a0d5c797dc17d9e8d0998852915e0f303" target="_top" xlink:title="nars.storage.ReasonerBatch.doTick">
<polygon fill="none" stroke="black" points="920,-6 920,-25 1093,-25 1093,-6 920,-6"/>
<text text-anchor="middle" x="1006.5" y="-13" font-family="Helvetica,sans-Serif" font-size="10.00">nars.storage.ReasonerBatch.doTick</text>
</a>
</g>
</g>
<!-- Node514&#45;&gt;Node515 -->
<g id="edge5" class="edge"><title>Node514&#45;&gt;Node515</title>
<path fill="none" stroke="midnightblue" d="M894.343,-15.5C902.782,-15.5 911.421,-15.5 919.971,-15.5"/>
<polygon fill="midnightblue" stroke="midnightblue" points="894.166,-12.0001 884.166,-15.5 894.166,-19.0001 894.166,-12.0001"/>
</g>
<!-- Node516 -->
<g id="node7" class="node"><title>Node516</title>
<g id="a_node7"><a xlink:href="../../df/d15/a00416.html#a3468aa0f99edcd66412f27922dddb880" target="_top" xlink:title="A clock tick. ">
<polygon fill="none" stroke="black" points="1129,-6 1129,-25 1289,-25 1289,-6 1129,-6"/>
<text text-anchor="middle" x="1209" y="-13" font-family="Helvetica,sans-Serif" font-size="10.00">nars.storage.ReasonerBatch.tick</text>
</a>
</g>
</g>
<!-- Node515&#45;&gt;Node516 -->
<g id="edge6" class="edge"><title>Node515&#45;&gt;Node516</title>
<path fill="none" stroke="midnightblue" d="M1103.13,-15.5C1111.7,-15.5 1120.31,-15.5 1128.71,-15.5"/>
<polygon fill="midnightblue" stroke="midnightblue" points="1103.11,-12.0001 1093.11,-15.5 1103.11,-19.0001 1103.11,-12.0001"/>
</g>
<!-- Node517 -->
<g id="node8" class="node"><title>Node517</title>
<g id="a_node8"><a xlink:href="../../d9/da1/a00396.html#a5d9cfe517bcfbe41e5251910bcd119c1" target="_top" xlink:title="Run to completion: repeatedly execute NARS working cycle, until Inputs are Finished, or 1000 steps. ">
<polygon fill="none" stroke="black" points="1325,-6 1325,-25 1469,-25 1469,-6 1325,-6"/>
<text text-anchor="middle" x="1397" y="-13" font-family="Helvetica,sans-Serif" font-size="10.00">nars.storage.NARSBatch.run</text>
</a>
</g>
</g>
<!-- Node516&#45;&gt;Node517 -->
<g id="edge7" class="edge"><title>Node516&#45;&gt;Node517</title>
<path fill="none" stroke="midnightblue" d="M1299.22,-15.5C1307.82,-15.5 1316.47,-15.5 1324.87,-15.5"/>
<polygon fill="midnightblue" stroke="midnightblue" points="1299.15,-12.0001 1289.15,-15.5 1299.15,-19.0001 1299.15,-12.0001"/>
</g>
<!-- Node518 -->
<g id="node9" class="node"><title>Node518</title>
<g id="a_node9"><a xlink:href="../../d9/da1/a00396.html#a7c307c6b842f82664de6b0e52bdf8efc" target="_top" xlink:title="non&#45;static equivalent to main(String[]) : run to completion from an input file ">
<polygon fill="none" stroke="black" points="1505,-0.5 1505,-30.5 1649,-30.5 1649,-0.5 1505,-0.5"/>
<text text-anchor="start" x="1513" y="-18.5" font-family="Helvetica,sans-Serif" font-size="10.00">nars.storage.NARSBatch.run</text>
<text text-anchor="middle" x="1577" y="-7.5" font-family="Helvetica,sans-Serif" font-size="10.00">Inference</text>
</a>
</g>
</g>
<!-- Node517&#45;&gt;Node518 -->
<g id="edge8" class="edge"><title>Node517&#45;&gt;Node518</title>
<path fill="none" stroke="midnightblue" d="M1479.17,-15.5C1487.79,-15.5 1496.51,-15.5 1505,-15.5"/>
<polygon fill="midnightblue" stroke="midnightblue" points="1479.12,-12.0001 1469.12,-15.5 1479.12,-19.0001 1479.12,-12.0001"/>
</g>
<!-- Node519 -->
<g id="node10" class="node"><title>Node519</title>
<g id="a_node10"><a xlink:href="../../d9/da1/a00396.html#abafc597289bc2f6453b5cd0dd6634e54" target="_top" xlink:title="The entry point of the standalone application. ">
<polygon fill="none" stroke="black" points="1685,-6 1685,-25 1837,-25 1837,-6 1685,-6"/>
<text text-anchor="middle" x="1761" y="-13" font-family="Helvetica,sans-Serif" font-size="10.00">nars.storage.NARSBatch.main</text>
</a>
</g>
</g>
<!-- Node518&#45;&gt;Node519 -->
<g id="edge9" class="edge"><title>Node518&#45;&gt;Node519</title>
<path fill="none" stroke="midnightblue" d="M1659.17,-15.5C1667.76,-15.5 1676.48,-15.5 1685,-15.5"/>
<polygon fill="midnightblue" stroke="midnightblue" points="1659.15,-12.0001 1649.15,-15.5 1659.15,-19.0001 1659.15,-12.0001"/>
</g>
</g>
</svg>
