<?xml version="1.0" encoding="UTF-8" standalone="no"?>
<!DOCTYPE svg PUBLIC "-//W3C//DTD SVG 1.1//EN"
 "http://www.w3.org/Graphics/SVG/1.1/DTD/svg11.dtd">
<!-- Generated by graphviz version 2.38.0 (20140413.2041)
 -->
<!-- Title: nars.inference.RuleTables.conditionalAna Pages: 1 -->
<!--zoomable 39 -->
<svg id="main" version="1.1" xmlns="http://www.w3.org/2000/svg" xmlns:xlink="http://www.w3.org/1999/xlink" xml:space="preserve" onload="init(evt)">
<style type="text/css"><![CDATA[
.edge:hover path { stroke: red; }
.edge:hover polygon { stroke: red; fill: red; }
]]></style>
<script type="text/javascript"><![CDATA[
var edges = document.getElementsByTagName('g');
if (edges && edges.length) {
  for (var i=0;i<edges.length;i++) {
    if (edges[i].id.substr(0,4)=='edge') {
      edges[i].setAttribute('class','edge');
    }
  }
}
]]></script>
        <defs>
                <circle id="rim" cx="0" cy="0" r="7"/>
                <circle id="rim2" cx="0" cy="0" r="3.5"/>
                <g id="zoomPlus">
                        <use xlink:href="#rim" fill="#404040">
                                <set attributeName="fill" to="#808080" begin="zoomplus.mouseover" end="zoomplus.mouseout"/>
                        </use>
                        <path d="M-4,0h8M0,-4v8" fill="none" stroke="white" stroke-width="1.5" pointer-events="none"/>
                </g>
                <g id="zoomMin">
                        <use xlink:href="#rim" fill="#404040">
                                <set attributeName="fill" to="#808080" begin="zoomminus.mouseover" end="zoomminus.mouseout"/>
                        </use>
                        <path d="M-4,0h8" fill="none" stroke="white" stroke-width="1.5" pointer-events="none"/>
                </g>
                <g id="dirArrow">
                        <path fill="none" stroke="white" stroke-width="1.5" d="M0,-3.0v7 M-2.5,-0.5L0,-3.0L2.5,-0.5"/>
                </g>
               <g id="resetDef">
                       <use xlink:href="#rim2" fill="#404040">
                               <set attributeName="fill" to="#808080" begin="reset.mouseover" end="reset.mouseout"/>
                       </use>
               </g>
        </defs>

<script type="text/javascript">
var viewWidth = 1863;
var viewHeight = 39;
var sectionId = 'dynsection-19';
</script>
<script xlink:href="../../svgpan.js"/>
<svg id="graph" class="graph">
<g id="viewport">
<title>nars.inference.RuleTables.conditionalAna</title>
<!-- Node923 -->
<g id="node1" class="node"><title>Node923</title>
<polygon fill="#bfbfbf" stroke="black" points="0,-6 0,-25 197,-25 197,-6 0,-6"/>
<text text-anchor="middle" x="98.5" y="-13" font-family="Helvetica,sans-Serif" font-size="10.00">nars.inference.RuleTables.conditionalAna</text>
</g>
<!-- Node924 -->
<g id="node2" class="node"><title>Node924</title>
<g id="a_node2"><a xlink:href="../../dc/ded/a00252.html#ac2d01dfdc40bdd47c757cb549217e6e3" target="_top" xlink:title="Entry point of the inference engine. ">
<polygon fill="none" stroke="black" points="233,-6 233,-25 396,-25 396,-6 233,-6"/>
<text text-anchor="middle" x="314.5" y="-13" font-family="Helvetica,sans-Serif" font-size="10.00">nars.inference.RuleTables.reason</text>
</a>
</g>
</g>
<!-- Node923&#45;&gt;Node924 -->
<g id="edge1" class="edge"><title>Node923&#45;&gt;Node924</title>
<path fill="none" stroke="midnightblue" d="M207.175,-15.5C215.762,-15.5 224.342,-15.5 232.696,-15.5"/>
<polygon fill="midnightblue" stroke="midnightblue" points="207.107,-12.0001 197.106,-15.5 207.106,-19.0001 207.107,-12.0001"/>
</g>
<!-- Node925 -->
<g id="node3" class="node"><title>Node925</title>
<g id="a_node3"><a xlink:href="../../d7/ded/a00196.html#ad6fb91dda799c3092ecb186ef24ca92a" target="_top" xlink:title="An atomic step in a concept, only called in Memory# processConcept. ">
<polygon fill="none" stroke="black" points="432,-0.5 432,-30.5 551,-30.5 551,-0.5 432,-0.5"/>
<text text-anchor="start" x="440" y="-18.5" font-family="Helvetica,sans-Serif" font-size="10.00">nars.entity.Concept.fire</text>
<text text-anchor="middle" x="491.5" y="-7.5" font-family="Helvetica,sans-Serif" font-size="10.00">FromProcessConcept</text>
</a>
</g>
</g>
<!-- Node924&#45;&gt;Node925 -->
<g id="edge2" class="edge"><title>Node924&#45;&gt;Node925</title>
<path fill="none" stroke="midnightblue" d="M406.249,-15.5C414.907,-15.5 423.523,-15.5 431.757,-15.5"/>
<polygon fill="midnightblue" stroke="midnightblue" points="406.085,-12.0001 396.085,-15.5 406.085,-19.0001 406.085,-12.0001"/>
</g>
<!-- Node926 -->
<g id="node4" class="node"><title>Node926</title>
<g id="a_node4"><a xlink:href="../../d4/d27/a00392.html#a0acc4adbf6a2462245da46bcb529746c" target="_top" xlink:title="Select a concept to fireFromProcessConcept. ">
<polygon fill="none" stroke="black" points="587,-0.5 587,-30.5 733,-30.5 733,-0.5 587,-0.5"/>
<text text-anchor="start" x="595" y="-18.5" font-family="Helvetica,sans-Serif" font-size="10.00">nars.storage.Memory.process</text>
<text text-anchor="middle" x="660" y="-7.5" font-family="Helvetica,sans-Serif" font-size="10.00">Concept</text>
</a>
</g>
</g>
<!-- Node925&#45;&gt;Node926 -->
<g id="edge3" class="edge"><title>Node925&#45;&gt;Node926</title>
<path fill="none" stroke="midnightblue" d="M561.337,-15.5C569.748,-15.5 578.361,-15.5 586.819,-15.5"/>
<polygon fill="midnightblue" stroke="midnightblue" points="561.202,-12.0001 551.202,-15.5 561.202,-19.0001 561.202,-12.0001"/>
</g>
<!-- Node927 -->
<g id="node5" class="node"><title>Node927</title>
<g id="a_node5"><a xlink:href="../../d4/d27/a00392.html#a59ae339d666409988d90d29be4f73a91" target="_top" xlink:title="An atomic working workCycle of the system: process new Tasks, then fireFromProcessConcept a concept...">
<polygon fill="none" stroke="black" points="769,-0.5 769,-30.5 902,-30.5 902,-0.5 769,-0.5"/>
<text text-anchor="start" x="777" y="-18.5" font-family="Helvetica,sans-Serif" font-size="10.00">nars.storage.Memory.work</text>
<text text-anchor="middle" x="835.5" y="-7.5" font-family="Helvetica,sans-Serif" font-size="10.00">Cycle</text>
</a>
</g>
</g>
<!-- Node926&#45;&gt;Node927 -->
<g id="edge4" class="edge"><title>Node926&#45;&gt;Node927</title>
<path fill="none" stroke="midnightblue" d="M743.118,-15.5C751.716,-15.5 760.375,-15.5 768.755,-15.5"/>
<polygon fill="midnightblue" stroke="midnightblue" points="743.072,-12.0001 733.072,-15.5 743.072,-19.0001 743.072,-12.0001"/>
</g>
<!-- Node928 -->
<g id="node6" class="node"><title>Node928</title>
<g id="a_node6"><a xlink:href="../../df/d15/a00416.html#a0d5c797dc17d9e8d0998852915e0f303" target="_top" xlink:title="nars.storage.ReasonerBatch.doTick">
<polygon fill="none" stroke="black" points="938,-6 938,-25 1111,-25 1111,-6 938,-6"/>
<text text-anchor="middle" x="1024.5" y="-13" font-family="Helvetica,sans-Serif" font-size="10.00">nars.storage.ReasonerBatch.doTick</text>
</a>
</g>
</g>
<!-- Node927&#45;&gt;Node928 -->
<g id="edge5" class="edge"><title>Node927&#45;&gt;Node928</title>
<path fill="none" stroke="midnightblue" d="M912.343,-15.5C920.782,-15.5 929.421,-15.5 937.971,-15.5"/>
<polygon fill="midnightblue" stroke="midnightblue" points="912.166,-12.0001 902.166,-15.5 912.166,-19.0001 912.166,-12.0001"/>
</g>
<!-- Node929 -->
<g id="node7" class="node"><title>Node929</title>
<g id="a_node7"><a xlink:href="../../df/d15/a00416.html#a3468aa0f99edcd66412f27922dddb880" target="_top" xlink:title="A clock tick. ">
<polygon fill="none" stroke="black" points="1147,-6 1147,-25 1307,-25 1307,-6 1147,-6"/>
<text text-anchor="middle" x="1227" y="-13" font-family="Helvetica,sans-Serif" font-size="10.00">nars.storage.ReasonerBatch.tick</text>
</a>
</g>
</g>
<!-- Node928&#45;&gt;Node929 -->
<g id="edge6" class="edge"><title>Node928&#45;&gt;Node929</title>
<path fill="none" stroke="midnightblue" d="M1121.13,-15.5C1129.7,-15.5 1138.31,-15.5 1146.71,-15.5"/>
<polygon fill="midnightblue" stroke="midnightblue" points="1121.11,-12.0001 1111.11,-15.5 1121.11,-19.0001 1121.11,-12.0001"/>
</g>
<!-- Node930 -->
<g id="node8" class="node"><title>Node930</title>
<g id="a_node8"><a xlink:href="../../d9/da1/a00396.html#a5d9cfe517bcfbe41e5251910bcd119c1" target="_top" xlink:title="Run to completion: repeatedly execute NARS working cycle, until Inputs are Finished, or 1000 steps. ">
<polygon fill="none" stroke="black" points="1343,-6 1343,-25 1487,-25 1487,-6 1343,-6"/>
<text text-anchor="middle" x="1415" y="-13" font-family="Helvetica,sans-Serif" font-size="10.00">nars.storage.NARSBatch.run</text>
</a>
</g>
</g>
<!-- Node929&#45;&gt;Node930 -->
<g id="edge7" class="edge"><title>Node929&#45;&gt;Node930</title>
<path fill="none" stroke="midnightblue" d="M1317.22,-15.5C1325.82,-15.5 1334.47,-15.5 1342.87,-15.5"/>
<polygon fill="midnightblue" stroke="midnightblue" points="1317.15,-12.0001 1307.15,-15.5 1317.15,-19.0001 1317.15,-12.0001"/>
</g>
<!-- Node931 -->
<g id="node9" class="node"><title>Node931</title>
<g id="a_node9"><a xlink:href="../../d9/da1/a00396.html#a7c307c6b842f82664de6b0e52bdf8efc" target="_top" xlink:title="non&#45;static equivalent to main(String[]) : run to completion from an input file ">
<polygon fill="none" stroke="black" points="1523,-0.5 1523,-30.5 1667,-30.5 1667,-0.5 1523,-0.5"/>
<text text-anchor="start" x="1531" y="-18.5" font-family="Helvetica,sans-Serif" font-size="10.00">nars.storage.NARSBatch.run</text>
<text text-anchor="middle" x="1595" y="-7.5" font-family="Helvetica,sans-Serif" font-size="10.00">Inference</text>
</a>
</g>
</g>
<!-- Node930&#45;&gt;Node931 -->
<g id="edge8" class="edge"><title>Node930&#45;&gt;Node931</title>
<path fill="none" stroke="midnightblue" d="M1497.17,-15.5C1505.79,-15.5 1514.51,-15.5 1523,-15.5"/>
<polygon fill="midnightblue" stroke="midnightblue" points="1497.12,-12.0001 1487.12,-15.5 1497.12,-19.0001 1497.12,-12.0001"/>
</g>
<!-- Node932 -->
<g id="node10" class="node"><title>Node932</title>
<g id="a_node10"><a xlink:href="../../d9/da1/a00396.html#abafc597289bc2f6453b5cd0dd6634e54" target="_top" xlink:title="The entry point of the standalone application. ">
<polygon fill="none" stroke="black" points="1703,-6 1703,-25 1855,-25 1855,-6 1703,-6"/>
<text text-anchor="middle" x="1779" y="-13" font-family="Helvetica,sans-Serif" font-size="10.00">nars.storage.NARSBatch.main</text>
</a>
</g>
</g>
<!-- Node931&#45;&gt;Node932 -->
<g id="edge9" class="edge"><title>Node931&#45;&gt;Node932</title>
<path fill="none" stroke="midnightblue" d="M1677.17,-15.5C1685.76,-15.5 1694.48,-15.5 1703,-15.5"/>
<polygon fill="midnightblue" stroke="midnightblue" points="1677.15,-12.0001 1667.15,-15.5 1677.15,-19.0001 1677.15,-12.0001"/>
</g>
</g>
</svg>
        <g id="navigator" transform="translate(0 0)" fill="#404254">
                <rect fill="#f2f5e9" fill-opacity="0.5" stroke="#606060" stroke-width=".5" x="0" y="0" width="60" height="60"/>
                <use id="zoomplus" xlink:href="#zoomPlus" x="17" y="9" onmousedown="handleZoom(evt,'in')"/>
                <use id="zoomminus" xlink:href="#zoomMin" x="42" y="9" onmousedown="handleZoom(evt,'out')"/>
                <use id="reset" xlink:href="#resetDef" x="30" y="36" onmousedown="handleReset()"/>
                <g id="arrowUp" xlink:href="#dirArrow" transform="translate(30 24)" onmousedown="handlePan(0,-1)">
                  <use xlink:href="#rim" fill="#404040">
                        <set attributeName="fill" to="#808080" begin="arrowUp.mouseover" end="arrowUp.mouseout"/>
                  </use>
                  <path fill="none" stroke="white" stroke-width="1.5" d="M0,-3.0v7 M-2.5,-0.5L0,-3.0L2.5,-0.5"/>
                </g>
                <g id="arrowRight" xlink:href="#dirArrow" transform="rotate(90) translate(36 -43)" onmousedown="handlePan(1,0)">
                  <use xlink:href="#rim" fill="#404040">
                        <set attributeName="fill" to="#808080" begin="arrowRight.mouseover" end="arrowRight.mouseout"/>
                  </use>
                  <path fill="none" stroke="white" stroke-width="1.5" d="M0,-3.0v7 M-2.5,-0.5L0,-3.0L2.5,-0.5"/>
                </g>
                <g id="arrowDown" xlink:href="#dirArrow" transform="rotate(180) translate(-30 -48)" onmousedown="handlePan(0,1)">
                  <use xlink:href="#rim" fill="#404040">
                        <set attributeName="fill" to="#808080" begin="arrowDown.mouseover" end="arrowDown.mouseout"/>
                  </use>
                  <path fill="none" stroke="white" stroke-width="1.5" d="M0,-3.0v7 M-2.5,-0.5L0,-3.0L2.5,-0.5"/>
                </g>
                <g id="arrowLeft" xlink:href="#dirArrow" transform="rotate(270) translate(-36 17)" onmousedown="handlePan(-1,0)">
                  <use xlink:href="#rim" fill="#404040">
                        <set attributeName="fill" to="#808080" begin="arrowLeft.mouseover" end="arrowLeft.mouseout"/>
                  </use>
                  <path fill="none" stroke="white" stroke-width="1.5" d="M0,-3.0v7 M-2.5,-0.5L0,-3.0L2.5,-0.5"/>
                </g>
        </g>
        <svg viewBox="0 0 15 15" width="100%" height="30px" preserveAspectRatio="xMaxYMin meet">
         <g id="arrow_out" transform="scale(0.3 0.3)">
          <a xlink:href="a00252_aac2b267fcfa9bb34e03d44a410bfd92b_icgraph_org.svg" target="_base">
           <rect id="button" ry="5" rx="5" y="6" x="6" height="38" width="38"
                fill="#f2f5e9" fill-opacity="0.5" stroke="#606060" stroke-width="1.0"/>
           <path id="arrow"
             d="M 11.500037,31.436501 C 11.940474,20.09759 22.043105,11.32322 32.158766,21.979434 L 37.068811,17.246167 C 37.068811,17.246167 37.088388,32 37.088388,32 L 22.160133,31.978069 C 22.160133,31.978069 26.997745,27.140456 26.997745,27.140456 C 18.528582,18.264221 13.291696,25.230495 11.500037,31.436501 z"
             style="fill:#404040;"/>
          </a>
         </g>
        </svg>
</svg>
