<?xml version="1.0" encoding="UTF-8" standalone="no"?>
<!DOCTYPE svg PUBLIC "-//W3C//DTD SVG 1.1//EN"
 "http://www.w3.org/Graphics/SVG/1.1/DTD/svg11.dtd">
<!-- Generated by graphviz version 2.38.0 (20140413.2041)
 -->
<!-- Title: nars.inference.RuleTables.functionBeggingToBeAsync Pages: 1 -->
<!--zoomable 63 -->
<svg id="main" version="1.1" xmlns="http://www.w3.org/2000/svg" xmlns:xlink="http://www.w3.org/1999/xlink" xml:space="preserve" onload="init(evt)">
<style type="text/css"><![CDATA[
.edge:hover path { stroke: red; }
.edge:hover polygon { stroke: red; fill: red; }
]]></style>
<script type="text/javascript"><![CDATA[
var edges = document.getElementsByTagName('g');
if (edges && edges.length) {
  for (var i=0;i<edges.length;i++) {
    if (edges[i].id.substr(0,4)=='edge') {
      edges[i].setAttribute('class','edge');
    }
  }
}
]]></script>
        <defs>
                <circle id="rim" cx="0" cy="0" r="7"/>
                <circle id="rim2" cx="0" cy="0" r="3.5"/>
                <g id="zoomPlus">
                        <use xlink:href="#rim" fill="#404040">
                                <set attributeName="fill" to="#808080" begin="zoomplus.mouseover" end="zoomplus.mouseout"/>
                        </use>
                        <path d="M-4,0h8M0,-4v8" fill="none" stroke="white" stroke-width="1.5" pointer-events="none"/>
                </g>
                <g id="zoomMin">
                        <use xlink:href="#rim" fill="#404040">
                                <set attributeName="fill" to="#808080" begin="zoomminus.mouseover" end="zoomminus.mouseout"/>
                        </use>
                        <path d="M-4,0h8" fill="none" stroke="white" stroke-width="1.5" pointer-events="none"/>
                </g>
                <g id="dirArrow">
                        <path fill="none" stroke="white" stroke-width="1.5" d="M0,-3.0v7 M-2.5,-0.5L0,-3.0L2.5,-0.5"/>
                </g>
               <g id="resetDef">
                       <use xlink:href="#rim2" fill="#404040">
                               <set attributeName="fill" to="#808080" begin="reset.mouseover" end="reset.mouseout"/>
                       </use>
               </g>
        </defs>

<script type="text/javascript">
var viewWidth = 2492;
var viewHeight = 63;
var sectionId = 'dynsection-40';
</script>
<script xlink:href="../../svgpan.js"/>
<svg id="graph" class="graph">
<g id="viewport">
<title>nars.inference.RuleTables.functionBeggingToBeAsync</title>
<!-- Node1687 -->
<g id="node1" class="node"><title>Node1687</title>
<polygon fill="#bfbfbf" stroke="black" points="0,-2.5 0,-32.5 168,-32.5 168,-2.5 0,-2.5"/>
<text text-anchor="start" x="8" y="-20.5" font-family="Helvetica,sans-Serif" font-size="10.00">nars.inference.RuleTables.function</text>
<text text-anchor="middle" x="84" y="-9.5" font-family="Helvetica,sans-Serif" font-size="10.00">BeggingToBeAsync</text>
</g>
<!-- Node1688 -->
<g id="node2" class="node"><title>Node1688</title>
<g id="a_node2"><a xlink:href="../../dc/ded/a00252.html#acacd7cd6f866a576bfad37e0003df853" target="_top" xlink:title="{&lt;&lt;M &#45;&#45;&gt; S&gt; ==&gt; &lt;M &#45;&#45;&gt; P&gt;&gt;, &lt;M &#45;&#45;&gt; S&gt;} |&#45; &lt;M &#45;&#45;&gt; P&gt; {&lt;&lt;M &#45;&#45;&gt; S&gt; ==&gt; &lt;M &#45;&#45;&gt; P&gt;&gt;, &lt;M &#45;&#45;&gt; P&gt;} |&#45; &lt;M &#45;&#45;&gt; ...">
<polygon fill="none" stroke="black" points="204,-8 204,-27 389,-27 389,-8 204,-8"/>
<text text-anchor="middle" x="296.5" y="-15" font-family="Helvetica,sans-Serif" font-size="10.00">nars.inference.RuleTables.detachment</text>
</a>
</g>
</g>
<!-- Node1687&#45;&gt;Node1688 -->
<g id="edge1" class="edge"><title>Node1687&#45;&gt;Node1688</title>
<path fill="none" stroke="midnightblue" d="M178.441,-17.5C186.895,-17.5 195.451,-17.5 203.889,-17.5"/>
<polygon fill="midnightblue" stroke="midnightblue" points="178.195,-14.0001 168.195,-17.5 178.195,-21.0001 178.195,-14.0001"/>
</g>
<!-- Node1689 -->
<g id="node3" class="node"><title>Node1689</title>
<g id="a_node3"><a xlink:href="../../dc/ded/a00252.html#af6c973743270b2739d4ad25f16975da1" target="_top" xlink:title="The detachment rule, with variable unification. ">
<polygon fill="none" stroke="black" points="425,-24.5 425,-54.5 610,-54.5 610,-24.5 425,-24.5"/>
<text text-anchor="start" x="433" y="-42.5" font-family="Helvetica,sans-Serif" font-size="10.00">nars.inference.RuleTables.detachment</text>
<text text-anchor="middle" x="517.5" y="-31.5" font-family="Helvetica,sans-Serif" font-size="10.00">WithVar</text>
</a>
</g>
</g>
<!-- Node1688&#45;&gt;Node1689 -->
<g id="edge2" class="edge"><title>Node1688&#45;&gt;Node1689</title>
<path fill="none" stroke="midnightblue" d="M399.151,-27.7115C407.743,-28.5746 416.4,-29.4442 424.908,-30.299"/>
<polygon fill="midnightblue" stroke="midnightblue" points="399.407,-24.2197 389.107,-26.7025 398.707,-31.1846 399.407,-24.2197"/>
</g>
<!-- Node1691 -->
<g id="node5" class="node"><title>Node1691</title>
<g id="a_node5"><a xlink:href="../../dc/ded/a00252.html#ac2d01dfdc40bdd47c757cb549217e6e3" target="_top" xlink:title="Entry point of the inference engine. ">
<polygon fill="none" stroke="black" points="862,-6 862,-25 1025,-25 1025,-6 862,-6"/>
<text text-anchor="middle" x="943.5" y="-13" font-family="Helvetica,sans-Serif" font-size="10.00">nars.inference.RuleTables.reason</text>
</a>
</g>
</g>
<!-- Node1688&#45;&gt;Node1691 -->
<g id="edge13" class="edge"><title>Node1688&#45;&gt;Node1691</title>
<path fill="none" stroke="midnightblue" d="M399.287,-14.8906C407.984,-14.7328 416.646,-14.5983 425,-14.5 579.521,-12.6824 760.012,-13.7586 861.823,-14.6606"/>
<polygon fill="midnightblue" stroke="midnightblue" points="399.009,-11.3952 389.078,-15.086 399.143,-18.3939 399.009,-11.3952"/>
</g>
<!-- Node1690 -->
<g id="node4" class="node"><title>Node1690</title>
<g id="a_node4"><a xlink:href="../../dc/ded/a00252.html#a8628d400a8ceda7fea05039ddfea319b" target="_top" xlink:title="Meta&#45;table of syllogistic rules, indexed by the content classes of the taskSentence and the belief...">
<polygon fill="none" stroke="black" points="646,-27 646,-46 826,-46 826,-27 646,-27"/>
<text text-anchor="middle" x="736" y="-34" font-family="Helvetica,sans-Serif" font-size="10.00">nars.inference.RuleTables.syllogisms</text>
</a>
</g>
</g>
<!-- Node1689&#45;&gt;Node1690 -->
<g id="edge3" class="edge"><title>Node1689&#45;&gt;Node1690</title>
<path fill="none" stroke="midnightblue" d="M620.084,-38.0924C628.705,-37.9729 637.383,-37.8527 645.898,-37.7347"/>
<polygon fill="midnightblue" stroke="midnightblue" points="619.952,-34.5938 610.002,-38.2321 620.049,-41.5931 619.952,-34.5938"/>
</g>
<!-- Node1690&#45;&gt;Node1691 -->
<g id="edge4" class="edge"><title>Node1690&#45;&gt;Node1691</title>
<path fill="none" stroke="midnightblue" d="M836.244,-26.3583C844.792,-25.4848 853.372,-24.608 861.747,-23.7521"/>
<polygon fill="midnightblue" stroke="midnightblue" points="835.831,-22.8822 826.239,-27.3807 836.543,-29.8459 835.831,-22.8822"/>
</g>
<!-- Node1692 -->
<g id="node6" class="node"><title>Node1692</title>
<g id="a_node6"><a xlink:href="../../d7/ded/a00196.html#ad6fb91dda799c3092ecb186ef24ca92a" target="_top" xlink:title="An atomic step in a concept, only called in Memory# processConcept. ">
<polygon fill="none" stroke="black" points="1061,-0.5 1061,-30.5 1180,-30.5 1180,-0.5 1061,-0.5"/>
<text text-anchor="start" x="1069" y="-18.5" font-family="Helvetica,sans-Serif" font-size="10.00">nars.entity.Concept.fire</text>
<text text-anchor="middle" x="1120.5" y="-7.5" font-family="Helvetica,sans-Serif" font-size="10.00">FromProcessConcept</text>
</a>
</g>
</g>
<!-- Node1691&#45;&gt;Node1692 -->
<g id="edge5" class="edge"><title>Node1691&#45;&gt;Node1692</title>
<path fill="none" stroke="midnightblue" d="M1035.25,-15.5C1043.91,-15.5 1052.52,-15.5 1060.76,-15.5"/>
<polygon fill="midnightblue" stroke="midnightblue" points="1035.09,-12.0001 1025.09,-15.5 1035.08,-19.0001 1035.09,-12.0001"/>
</g>
<!-- Node1693 -->
<g id="node7" class="node"><title>Node1693</title>
<g id="a_node7"><a xlink:href="../../d4/d27/a00392.html#a0acc4adbf6a2462245da46bcb529746c" target="_top" xlink:title="Select a concept to fireFromProcessConcept. ">
<polygon fill="none" stroke="black" points="1216,-0.5 1216,-30.5 1362,-30.5 1362,-0.5 1216,-0.5"/>
<text text-anchor="start" x="1224" y="-18.5" font-family="Helvetica,sans-Serif" font-size="10.00">nars.storage.Memory.process</text>
<text text-anchor="middle" x="1289" y="-7.5" font-family="Helvetica,sans-Serif" font-size="10.00">Concept</text>
</a>
</g>
</g>
<!-- Node1692&#45;&gt;Node1693 -->
<g id="edge6" class="edge"><title>Node1692&#45;&gt;Node1693</title>
<path fill="none" stroke="midnightblue" d="M1190.34,-15.5C1198.75,-15.5 1207.36,-15.5 1215.82,-15.5"/>
<polygon fill="midnightblue" stroke="midnightblue" points="1190.2,-12.0001 1180.2,-15.5 1190.2,-19.0001 1190.2,-12.0001"/>
</g>
<!-- Node1694 -->
<g id="node8" class="node"><title>Node1694</title>
<g id="a_node8"><a xlink:href="../../d4/d27/a00392.html#a59ae339d666409988d90d29be4f73a91" target="_top" xlink:title="An atomic working workCycle of the system: process new Tasks, then fireFromProcessConcept a concept...">
<polygon fill="none" stroke="black" points="1398,-0.5 1398,-30.5 1531,-30.5 1531,-0.5 1398,-0.5"/>
<text text-anchor="start" x="1406" y="-18.5" font-family="Helvetica,sans-Serif" font-size="10.00">nars.storage.Memory.work</text>
<text text-anchor="middle" x="1464.5" y="-7.5" font-family="Helvetica,sans-Serif" font-size="10.00">Cycle</text>
</a>
</g>
</g>
<!-- Node1693&#45;&gt;Node1694 -->
<g id="edge7" class="edge"><title>Node1693&#45;&gt;Node1694</title>
<path fill="none" stroke="midnightblue" d="M1372.12,-15.5C1380.72,-15.5 1389.37,-15.5 1397.76,-15.5"/>
<polygon fill="midnightblue" stroke="midnightblue" points="1372.07,-12.0001 1362.07,-15.5 1372.07,-19.0001 1372.07,-12.0001"/>
</g>
<!-- Node1695 -->
<g id="node9" class="node"><title>Node1695</title>
<g id="a_node9"><a xlink:href="../../df/d15/a00416.html#a0d5c797dc17d9e8d0998852915e0f303" target="_top" xlink:title="nars.storage.ReasonerBatch.doTick">
<polygon fill="none" stroke="black" points="1567,-6 1567,-25 1740,-25 1740,-6 1567,-6"/>
<text text-anchor="middle" x="1653.5" y="-13" font-family="Helvetica,sans-Serif" font-size="10.00">nars.storage.ReasonerBatch.doTick</text>
</a>
</g>
</g>
<!-- Node1694&#45;&gt;Node1695 -->
<g id="edge8" class="edge"><title>Node1694&#45;&gt;Node1695</title>
<path fill="none" stroke="midnightblue" d="M1541.34,-15.5C1549.78,-15.5 1558.42,-15.5 1566.97,-15.5"/>
<polygon fill="midnightblue" stroke="midnightblue" points="1541.17,-12.0001 1531.17,-15.5 1541.17,-19.0001 1541.17,-12.0001"/>
</g>
<!-- Node1696 -->
<g id="node10" class="node"><title>Node1696</title>
<g id="a_node10"><a xlink:href="../../df/d15/a00416.html#a3468aa0f99edcd66412f27922dddb880" target="_top" xlink:title="A clock tick. ">
<polygon fill="none" stroke="black" points="1776,-6 1776,-25 1936,-25 1936,-6 1776,-6"/>
<text text-anchor="middle" x="1856" y="-13" font-family="Helvetica,sans-Serif" font-size="10.00">nars.storage.ReasonerBatch.tick</text>
</a>
</g>
</g>
<!-- Node1695&#45;&gt;Node1696 -->
<g id="edge9" class="edge"><title>Node1695&#45;&gt;Node1696</title>
<path fill="none" stroke="midnightblue" d="M1750.13,-15.5C1758.7,-15.5 1767.31,-15.5 1775.71,-15.5"/>
<polygon fill="midnightblue" stroke="midnightblue" points="1750.11,-12.0001 1740.11,-15.5 1750.11,-19.0001 1750.11,-12.0001"/>
</g>
<!-- Node1697 -->
<g id="node11" class="node"><title>Node1697</title>
<g id="a_node11"><a xlink:href="../../d9/da1/a00396.html#a5d9cfe517bcfbe41e5251910bcd119c1" target="_top" xlink:title="Run to completion: repeatedly execute NARS working cycle, until Inputs are Finished, or 1000 steps. ">
<polygon fill="none" stroke="black" points="1972,-6 1972,-25 2116,-25 2116,-6 1972,-6"/>
<text text-anchor="middle" x="2044" y="-13" font-family="Helvetica,sans-Serif" font-size="10.00">nars.storage.NARSBatch.run</text>
</a>
</g>
</g>
<!-- Node1696&#45;&gt;Node1697 -->
<g id="edge10" class="edge"><title>Node1696&#45;&gt;Node1697</title>
<path fill="none" stroke="midnightblue" d="M1946.22,-15.5C1954.82,-15.5 1963.47,-15.5 1971.87,-15.5"/>
<polygon fill="midnightblue" stroke="midnightblue" points="1946.15,-12.0001 1936.15,-15.5 1946.15,-19.0001 1946.15,-12.0001"/>
</g>
<!-- Node1698 -->
<g id="node12" class="node"><title>Node1698</title>
<g id="a_node12"><a xlink:href="../../d9/da1/a00396.html#a7c307c6b842f82664de6b0e52bdf8efc" target="_top" xlink:title="non&#45;static equivalent to main(String[]) : run to completion from an input file ">
<polygon fill="none" stroke="black" points="2152,-0.5 2152,-30.5 2296,-30.5 2296,-0.5 2152,-0.5"/>
<text text-anchor="start" x="2160" y="-18.5" font-family="Helvetica,sans-Serif" font-size="10.00">nars.storage.NARSBatch.run</text>
<text text-anchor="middle" x="2224" y="-7.5" font-family="Helvetica,sans-Serif" font-size="10.00">Inference</text>
</a>
</g>
</g>
<!-- Node1697&#45;&gt;Node1698 -->
<g id="edge11" class="edge"><title>Node1697&#45;&gt;Node1698</title>
<path fill="none" stroke="midnightblue" d="M2126.17,-15.5C2134.79,-15.5 2143.51,-15.5 2152,-15.5"/>
<polygon fill="midnightblue" stroke="midnightblue" points="2126.12,-12.0001 2116.12,-15.5 2126.12,-19.0001 2126.12,-12.0001"/>
</g>
<!-- Node1699 -->
<g id="node13" class="node"><title>Node1699</title>
<g id="a_node13"><a xlink:href="../../d9/da1/a00396.html#abafc597289bc2f6453b5cd0dd6634e54" target="_top" xlink:title="The entry point of the standalone application. ">
<polygon fill="none" stroke="black" points="2332,-6 2332,-25 2484,-25 2484,-6 2332,-6"/>
<text text-anchor="middle" x="2408" y="-13" font-family="Helvetica,sans-Serif" font-size="10.00">nars.storage.NARSBatch.main</text>
</a>
</g>
</g>
<!-- Node1698&#45;&gt;Node1699 -->
<g id="edge12" class="edge"><title>Node1698&#45;&gt;Node1699</title>
<path fill="none" stroke="midnightblue" d="M2306.17,-15.5C2314.76,-15.5 2323.48,-15.5 2332,-15.5"/>
<polygon fill="midnightblue" stroke="midnightblue" points="2306.15,-12.0001 2296.15,-15.5 2306.15,-19.0001 2306.15,-12.0001"/>
</g>
</g>
</svg>
        <g id="navigator" transform="translate(0 0)" fill="#404254">
                <rect fill="#f2f5e9" fill-opacity="0.5" stroke="#606060" stroke-width=".5" x="0" y="0" width="60" height="60"/>
                <use id="zoomplus" xlink:href="#zoomPlus" x="17" y="9" onmousedown="handleZoom(evt,'in')"/>
                <use id="zoomminus" xlink:href="#zoomMin" x="42" y="9" onmousedown="handleZoom(evt,'out')"/>
                <use id="reset" xlink:href="#resetDef" x="30" y="36" onmousedown="handleReset()"/>
                <g id="arrowUp" xlink:href="#dirArrow" transform="translate(30 24)" onmousedown="handlePan(0,-1)">
                  <use xlink:href="#rim" fill="#404040">
                        <set attributeName="fill" to="#808080" begin="arrowUp.mouseover" end="arrowUp.mouseout"/>
                  </use>
                  <path fill="none" stroke="white" stroke-width="1.5" d="M0,-3.0v7 M-2.5,-0.5L0,-3.0L2.5,-0.5"/>
                </g>
                <g id="arrowRight" xlink:href="#dirArrow" transform="rotate(90) translate(36 -43)" onmousedown="handlePan(1,0)">
                  <use xlink:href="#rim" fill="#404040">
                        <set attributeName="fill" to="#808080" begin="arrowRight.mouseover" end="arrowRight.mouseout"/>
                  </use>
                  <path fill="none" stroke="white" stroke-width="1.5" d="M0,-3.0v7 M-2.5,-0.5L0,-3.0L2.5,-0.5"/>
                </g>
                <g id="arrowDown" xlink:href="#dirArrow" transform="rotate(180) translate(-30 -48)" onmousedown="handlePan(0,1)">
                  <use xlink:href="#rim" fill="#404040">
                        <set attributeName="fill" to="#808080" begin="arrowDown.mouseover" end="arrowDown.mouseout"/>
                  </use>
                  <path fill="none" stroke="white" stroke-width="1.5" d="M0,-3.0v7 M-2.5,-0.5L0,-3.0L2.5,-0.5"/>
                </g>
                <g id="arrowLeft" xlink:href="#dirArrow" transform="rotate(270) translate(-36 17)" onmousedown="handlePan(-1,0)">
                  <use xlink:href="#rim" fill="#404040">
                        <set attributeName="fill" to="#808080" begin="arrowLeft.mouseover" end="arrowLeft.mouseout"/>
                  </use>
                  <path fill="none" stroke="white" stroke-width="1.5" d="M0,-3.0v7 M-2.5,-0.5L0,-3.0L2.5,-0.5"/>
                </g>
        </g>
        <svg viewBox="0 0 15 15" width="100%" height="30px" preserveAspectRatio="xMaxYMin meet">
         <g id="arrow_out" transform="scale(0.3 0.3)">
          <a xlink:href="a00252_aa57c06fe6fa6d3c396b196edaf631a92_icgraph_org.svg" target="_base">
           <rect id="button" ry="5" rx="5" y="6" x="6" height="38" width="38"
                fill="#f2f5e9" fill-opacity="0.5" stroke="#606060" stroke-width="1.0"/>
           <path id="arrow"
             d="M 11.500037,31.436501 C 11.940474,20.09759 22.043105,11.32322 32.158766,21.979434 L 37.068811,17.246167 C 37.068811,17.246167 37.088388,32 37.088388,32 L 22.160133,31.978069 C 22.160133,31.978069 26.997745,27.140456 26.997745,27.140456 C 18.528582,18.264221 13.291696,25.230495 11.500037,31.436501 z"
             style="fill:#404040;"/>
          </a>
         </g>
        </svg>
</svg>
