<?xml version="1.0" encoding="UTF-8" standalone="no"?>
<!DOCTYPE svg PUBLIC "-//W3C//DTD SVG 1.1//EN"
 "http://www.w3.org/Graphics/SVG/1.1/DTD/svg11.dtd">
<!-- Generated by graphviz version 2.38.0 (20140413.2041)
 -->
<!-- Title: nars.inference.RuleTables.conditionalDedInd Pages: 1 -->
<!--zoomable 61 -->
<svg id="main" version="1.1" xmlns="http://www.w3.org/2000/svg" xmlns:xlink="http://www.w3.org/1999/xlink" xml:space="preserve" onload="init(evt)">
<style type="text/css"><![CDATA[
.edge:hover path { stroke: red; }
.edge:hover polygon { stroke: red; fill: red; }
]]></style>
<script type="text/javascript"><![CDATA[
var edges = document.getElementsByTagName('g');
if (edges && edges.length) {
  for (var i=0;i<edges.length;i++) {
    if (edges[i].id.substr(0,4)=='edge') {
      edges[i].setAttribute('class','edge');
    }
  }
}
]]></script>
        <defs>
                <circle id="rim" cx="0" cy="0" r="7"/>
                <circle id="rim2" cx="0" cy="0" r="3.5"/>
                <g id="zoomPlus">
                        <use xlink:href="#rim" fill="#404040">
                                <set attributeName="fill" to="#808080" begin="zoomplus.mouseover" end="zoomplus.mouseout"/>
                        </use>
                        <path d="M-4,0h8M0,-4v8" fill="none" stroke="white" stroke-width="1.5" pointer-events="none"/>
                </g>
                <g id="zoomMin">
                        <use xlink:href="#rim" fill="#404040">
                                <set attributeName="fill" to="#808080" begin="zoomminus.mouseover" end="zoomminus.mouseout"/>
                        </use>
                        <path d="M-4,0h8" fill="none" stroke="white" stroke-width="1.5" pointer-events="none"/>
                </g>
                <g id="dirArrow">
                        <path fill="none" stroke="white" stroke-width="1.5" d="M0,-3.0v7 M-2.5,-0.5L0,-3.0L2.5,-0.5"/>
                </g>
               <g id="resetDef">
                       <use xlink:href="#rim2" fill="#404040">
                               <set attributeName="fill" to="#808080" begin="reset.mouseover" end="reset.mouseout"/>
                       </use>
               </g>
        </defs>

<script type="text/javascript">
var viewWidth = 2062;
var viewHeight = 61;
var sectionId = 'dynsection-21';
</script>
<script xlink:href="../../svgpan.js"/>
<svg id="graph" class="graph">
<g id="viewport">
<title>nars.inference.RuleTables.conditionalDedInd</title>
<!-- Node1023 -->
<g id="node1" class="node"><title>Node1023</title>
<polygon fill="#bfbfbf" stroke="black" points="0,-0.5 0,-30.5 180,-30.5 180,-0.5 0,-0.5"/>
<text text-anchor="start" x="8" y="-18.5" font-family="Helvetica,sans-Serif" font-size="10.00">nars.inference.RuleTables.conditional</text>
<text text-anchor="middle" x="90" y="-7.5" font-family="Helvetica,sans-Serif" font-size="10.00">DedInd</text>
</g>
<!-- Node1024 -->
<g id="node2" class="node"><title>Node1024</title>
<g id="a_node2"><a xlink:href="../../dc/ded/a00252.html#aa167c7cb73f540ded591dc584ae623c1" target="_top" xlink:title="Conditional deduction or induction, with variable unification. ">
<polygon fill="none" stroke="black" points="216,-22.5 216,-52.5 396,-52.5 396,-22.5 216,-22.5"/>
<text text-anchor="start" x="224" y="-40.5" font-family="Helvetica,sans-Serif" font-size="10.00">nars.inference.RuleTables.conditional</text>
<text text-anchor="middle" x="306" y="-29.5" font-family="Helvetica,sans-Serif" font-size="10.00">DedIndWithVar</text>
</a>
</g>
</g>
<!-- Node1023&#45;&gt;Node1024 -->
<g id="edge1" class="edge"><title>Node1023&#45;&gt;Node1024</title>
<path fill="none" stroke="midnightblue" d="M190.23,-25.7012C198.807,-26.5829 207.45,-27.4715 215.939,-28.3442"/>
<polygon fill="midnightblue" stroke="midnightblue" points="190.511,-22.2118 180.206,-24.6707 189.795,-29.1751 190.511,-22.2118"/>
</g>
<!-- Node1025 -->
<g id="node3" class="node"><title>Node1025</title>
<g id="a_node3"><a xlink:href="../../dc/ded/a00252.html#ac2d01dfdc40bdd47c757cb549217e6e3" target="_top" xlink:title="Entry point of the inference engine. ">
<polygon fill="none" stroke="black" points="432,-6 432,-25 595,-25 595,-6 432,-6"/>
<text text-anchor="middle" x="513.5" y="-13" font-family="Helvetica,sans-Serif" font-size="10.00">nars.inference.RuleTables.reason</text>
</a>
</g>
</g>
<!-- Node1023&#45;&gt;Node1025 -->
<g id="edge11" class="edge"><title>Node1023&#45;&gt;Node1025</title>
<path fill="none" stroke="midnightblue" d="M190.306,-13.7665C198.996,-13.6586 207.654,-13.5668 216,-13.5 295.997,-12.8601 316.003,-12.8134 396,-13.5 407.631,-13.5998 419.915,-13.7557 431.971,-13.9374"/>
<polygon fill="midnightblue" stroke="midnightblue" points="190.061,-10.2693 180.108,-13.8999 190.153,-17.2687 190.061,-10.2693"/>
</g>
<!-- Node1024&#45;&gt;Node1025 -->
<g id="edge2" class="edge"><title>Node1024&#45;&gt;Node1025</title>
<path fill="none" stroke="midnightblue" d="M406.244,-26.8754C414.792,-25.9603 423.372,-25.0417 431.747,-24.1451"/>
<polygon fill="midnightblue" stroke="midnightblue" points="405.809,-23.4018 396.239,-27.9465 406.555,-30.362 405.809,-23.4018"/>
</g>
<!-- Node1026 -->
<g id="node4" class="node"><title>Node1026</title>
<g id="a_node4"><a xlink:href="../../d7/ded/a00196.html#ad6fb91dda799c3092ecb186ef24ca92a" target="_top" xlink:title="An atomic step in a concept, only called in Memory# processConcept. ">
<polygon fill="none" stroke="black" points="631,-0.5 631,-30.5 750,-30.5 750,-0.5 631,-0.5"/>
<text text-anchor="start" x="639" y="-18.5" font-family="Helvetica,sans-Serif" font-size="10.00">nars.entity.Concept.fire</text>
<text text-anchor="middle" x="690.5" y="-7.5" font-family="Helvetica,sans-Serif" font-size="10.00">FromProcessConcept</text>
</a>
</g>
</g>
<!-- Node1025&#45;&gt;Node1026 -->
<g id="edge3" class="edge"><title>Node1025&#45;&gt;Node1026</title>
<path fill="none" stroke="midnightblue" d="M605.249,-15.5C613.907,-15.5 622.523,-15.5 630.757,-15.5"/>
<polygon fill="midnightblue" stroke="midnightblue" points="605.085,-12.0001 595.085,-15.5 605.085,-19.0001 605.085,-12.0001"/>
</g>
<!-- Node1027 -->
<g id="node5" class="node"><title>Node1027</title>
<g id="a_node5"><a xlink:href="../../d4/d27/a00392.html#a0acc4adbf6a2462245da46bcb529746c" target="_top" xlink:title="Select a concept to fireFromProcessConcept. ">
<polygon fill="none" stroke="black" points="786,-0.5 786,-30.5 932,-30.5 932,-0.5 786,-0.5"/>
<text text-anchor="start" x="794" y="-18.5" font-family="Helvetica,sans-Serif" font-size="10.00">nars.storage.Memory.process</text>
<text text-anchor="middle" x="859" y="-7.5" font-family="Helvetica,sans-Serif" font-size="10.00">Concept</text>
</a>
</g>
</g>
<!-- Node1026&#45;&gt;Node1027 -->
<g id="edge4" class="edge"><title>Node1026&#45;&gt;Node1027</title>
<path fill="none" stroke="midnightblue" d="M760.337,-15.5C768.748,-15.5 777.361,-15.5 785.819,-15.5"/>
<polygon fill="midnightblue" stroke="midnightblue" points="760.202,-12.0001 750.202,-15.5 760.202,-19.0001 760.202,-12.0001"/>
</g>
<!-- Node1028 -->
<g id="node6" class="node"><title>Node1028</title>
<g id="a_node6"><a xlink:href="../../d4/d27/a00392.html#a59ae339d666409988d90d29be4f73a91" target="_top" xlink:title="An atomic working workCycle of the system: process new Tasks, then fireFromProcessConcept a concept...">
<polygon fill="none" stroke="black" points="968,-0.5 968,-30.5 1101,-30.5 1101,-0.5 968,-0.5"/>
<text text-anchor="start" x="976" y="-18.5" font-family="Helvetica,sans-Serif" font-size="10.00">nars.storage.Memory.work</text>
<text text-anchor="middle" x="1034.5" y="-7.5" font-family="Helvetica,sans-Serif" font-size="10.00">Cycle</text>
</a>
</g>
</g>
<!-- Node1027&#45;&gt;Node1028 -->
<g id="edge5" class="edge"><title>Node1027&#45;&gt;Node1028</title>
<path fill="none" stroke="midnightblue" d="M942.118,-15.5C950.716,-15.5 959.375,-15.5 967.755,-15.5"/>
<polygon fill="midnightblue" stroke="midnightblue" points="942.072,-12.0001 932.072,-15.5 942.072,-19.0001 942.072,-12.0001"/>
</g>
<!-- Node1029 -->
<g id="node7" class="node"><title>Node1029</title>
<g id="a_node7"><a xlink:href="../../df/d15/a00416.html#a0d5c797dc17d9e8d0998852915e0f303" target="_top" xlink:title="nars.storage.ReasonerBatch.doTick">
<polygon fill="none" stroke="black" points="1137,-6 1137,-25 1310,-25 1310,-6 1137,-6"/>
<text text-anchor="middle" x="1223.5" y="-13" font-family="Helvetica,sans-Serif" font-size="10.00">nars.storage.ReasonerBatch.doTick</text>
</a>
</g>
</g>
<!-- Node1028&#45;&gt;Node1029 -->
<g id="edge6" class="edge"><title>Node1028&#45;&gt;Node1029</title>
<path fill="none" stroke="midnightblue" d="M1111.34,-15.5C1119.78,-15.5 1128.42,-15.5 1136.97,-15.5"/>
<polygon fill="midnightblue" stroke="midnightblue" points="1111.17,-12.0001 1101.17,-15.5 1111.17,-19.0001 1111.17,-12.0001"/>
</g>
<!-- Node1030 -->
<g id="node8" class="node"><title>Node1030</title>
<g id="a_node8"><a xlink:href="../../df/d15/a00416.html#a3468aa0f99edcd66412f27922dddb880" target="_top" xlink:title="A clock tick. ">
<polygon fill="none" stroke="black" points="1346,-6 1346,-25 1506,-25 1506,-6 1346,-6"/>
<text text-anchor="middle" x="1426" y="-13" font-family="Helvetica,sans-Serif" font-size="10.00">nars.storage.ReasonerBatch.tick</text>
</a>
</g>
</g>
<!-- Node1029&#45;&gt;Node1030 -->
<g id="edge7" class="edge"><title>Node1029&#45;&gt;Node1030</title>
<path fill="none" stroke="midnightblue" d="M1320.13,-15.5C1328.7,-15.5 1337.31,-15.5 1345.71,-15.5"/>
<polygon fill="midnightblue" stroke="midnightblue" points="1320.11,-12.0001 1310.11,-15.5 1320.11,-19.0001 1320.11,-12.0001"/>
</g>
<!-- Node1031 -->
<g id="node9" class="node"><title>Node1031</title>
<g id="a_node9"><a xlink:href="../../d9/da1/a00396.html#a5d9cfe517bcfbe41e5251910bcd119c1" target="_top" xlink:title="Run to completion: repeatedly execute NARS working cycle, until Inputs are Finished, or 1000 steps. ">
<polygon fill="none" stroke="black" points="1542,-6 1542,-25 1686,-25 1686,-6 1542,-6"/>
<text text-anchor="middle" x="1614" y="-13" font-family="Helvetica,sans-Serif" font-size="10.00">nars.storage.NARSBatch.run</text>
</a>
</g>
</g>
<!-- Node1030&#45;&gt;Node1031 -->
<g id="edge8" class="edge"><title>Node1030&#45;&gt;Node1031</title>
<path fill="none" stroke="midnightblue" d="M1516.22,-15.5C1524.82,-15.5 1533.47,-15.5 1541.87,-15.5"/>
<polygon fill="midnightblue" stroke="midnightblue" points="1516.15,-12.0001 1506.15,-15.5 1516.15,-19.0001 1516.15,-12.0001"/>
</g>
<!-- Node1032 -->
<g id="node10" class="node"><title>Node1032</title>
<g id="a_node10"><a xlink:href="../../d9/da1/a00396.html#a7c307c6b842f82664de6b0e52bdf8efc" target="_top" xlink:title="non&#45;static equivalent to main(String[]) : run to completion from an input file ">
<polygon fill="none" stroke="black" points="1722,-0.5 1722,-30.5 1866,-30.5 1866,-0.5 1722,-0.5"/>
<text text-anchor="start" x="1730" y="-18.5" font-family="Helvetica,sans-Serif" font-size="10.00">nars.storage.NARSBatch.run</text>
<text text-anchor="middle" x="1794" y="-7.5" font-family="Helvetica,sans-Serif" font-size="10.00">Inference</text>
</a>
</g>
</g>
<!-- Node1031&#45;&gt;Node1032 -->
<g id="edge9" class="edge"><title>Node1031&#45;&gt;Node1032</title>
<path fill="none" stroke="midnightblue" d="M1696.17,-15.5C1704.79,-15.5 1713.51,-15.5 1722,-15.5"/>
<polygon fill="midnightblue" stroke="midnightblue" points="1696.12,-12.0001 1686.12,-15.5 1696.12,-19.0001 1696.12,-12.0001"/>
</g>
<!-- Node1033 -->
<g id="node11" class="node"><title>Node1033</title>
<g id="a_node11"><a xlink:href="../../d9/da1/a00396.html#abafc597289bc2f6453b5cd0dd6634e54" target="_top" xlink:title="The entry point of the standalone application. ">
<polygon fill="none" stroke="black" points="1902,-6 1902,-25 2054,-25 2054,-6 1902,-6"/>
<text text-anchor="middle" x="1978" y="-13" font-family="Helvetica,sans-Serif" font-size="10.00">nars.storage.NARSBatch.main</text>
</a>
</g>
</g>
<!-- Node1032&#45;&gt;Node1033 -->
<g id="edge10" class="edge"><title>Node1032&#45;&gt;Node1033</title>
<path fill="none" stroke="midnightblue" d="M1876.17,-15.5C1884.76,-15.5 1893.48,-15.5 1902,-15.5"/>
<polygon fill="midnightblue" stroke="midnightblue" points="1876.15,-12.0001 1866.15,-15.5 1876.15,-19.0001 1876.15,-12.0001"/>
</g>
</g>
</svg>
        <g id="navigator" transform="translate(0 0)" fill="#404254">
                <rect fill="#f2f5e9" fill-opacity="0.5" stroke="#606060" stroke-width=".5" x="0" y="0" width="60" height="60"/>
                <use id="zoomplus" xlink:href="#zoomPlus" x="17" y="9" onmousedown="handleZoom(evt,'in')"/>
                <use id="zoomminus" xlink:href="#zoomMin" x="42" y="9" onmousedown="handleZoom(evt,'out')"/>
                <use id="reset" xlink:href="#resetDef" x="30" y="36" onmousedown="handleReset()"/>
                <g id="arrowUp" xlink:href="#dirArrow" transform="translate(30 24)" onmousedown="handlePan(0,-1)">
                  <use xlink:href="#rim" fill="#404040">
                        <set attributeName="fill" to="#808080" begin="arrowUp.mouseover" end="arrowUp.mouseout"/>
                  </use>
                  <path fill="none" stroke="white" stroke-width="1.5" d="M0,-3.0v7 M-2.5,-0.5L0,-3.0L2.5,-0.5"/>
                </g>
                <g id="arrowRight" xlink:href="#dirArrow" transform="rotate(90) translate(36 -43)" onmousedown="handlePan(1,0)">
                  <use xlink:href="#rim" fill="#404040">
                        <set attributeName="fill" to="#808080" begin="arrowRight.mouseover" end="arrowRight.mouseout"/>
                  </use>
                  <path fill="none" stroke="white" stroke-width="1.5" d="M0,-3.0v7 M-2.5,-0.5L0,-3.0L2.5,-0.5"/>
                </g>
                <g id="arrowDown" xlink:href="#dirArrow" transform="rotate(180) translate(-30 -48)" onmousedown="handlePan(0,1)">
                  <use xlink:href="#rim" fill="#404040">
                        <set attributeName="fill" to="#808080" begin="arrowDown.mouseover" end="arrowDown.mouseout"/>
                  </use>
                  <path fill="none" stroke="white" stroke-width="1.5" d="M0,-3.0v7 M-2.5,-0.5L0,-3.0L2.5,-0.5"/>
                </g>
                <g id="arrowLeft" xlink:href="#dirArrow" transform="rotate(270) translate(-36 17)" onmousedown="handlePan(-1,0)">
                  <use xlink:href="#rim" fill="#404040">
                        <set attributeName="fill" to="#808080" begin="arrowLeft.mouseover" end="arrowLeft.mouseout"/>
                  </use>
                  <path fill="none" stroke="white" stroke-width="1.5" d="M0,-3.0v7 M-2.5,-0.5L0,-3.0L2.5,-0.5"/>
                </g>
        </g>
        <svg viewBox="0 0 15 15" width="100%" height="30px" preserveAspectRatio="xMaxYMin meet">
         <g id="arrow_out" transform="scale(0.3 0.3)">
          <a xlink:href="a00252_a52bb3626302eb9f10567c24ec5dbc934_icgraph_org.svg" target="_base">
           <rect id="button" ry="5" rx="5" y="6" x="6" height="38" width="38"
                fill="#f2f5e9" fill-opacity="0.5" stroke="#606060" stroke-width="1.0"/>
           <path id="arrow"
             d="M 11.500037,31.436501 C 11.940474,20.09759 22.043105,11.32322 32.158766,21.979434 L 37.068811,17.246167 C 37.068811,17.246167 37.088388,32 37.088388,32 L 22.160133,31.978069 C 22.160133,31.978069 26.997745,27.140456 26.997745,27.140456 C 18.528582,18.264221 13.291696,25.230495 11.500037,31.436501 z"
             style="fill:#404040;"/>
          </a>
         </g>
        </svg>
</svg>
