<?xml version="1.0" encoding="UTF-8" standalone="no"?>
<!DOCTYPE svg PUBLIC "-//W3C//DTD SVG 1.1//EN"
 "http://www.w3.org/Graphics/SVG/1.1/DTD/svg11.dtd">
<!-- Generated by graphviz version 2.38.0 (20140413.2041)
 -->
<!-- Title: nars.inference.RuleTables.indexToFigure Pages: 1 -->
<svg width="2039pt" height="39pt"
 viewBox="0.00 0.00 2039.00 39.00" xmlns="http://www.w3.org/2000/svg" xmlns:xlink="http://www.w3.org/1999/xlink">
<g id="graph0" class="graph" transform="scale(1 1) rotate(0) translate(4 35)">
<title>nars.inference.RuleTables.indexToFigure</title>
<!-- Node1716 -->
<g id="node1" class="node"><title>Node1716</title>
<polygon fill="#bfbfbf" stroke="black" points="0,-0.5 0,-30.5 157,-30.5 157,-0.5 0,-0.5"/>
<text text-anchor="start" x="8" y="-18.5" font-family="Helvetica,sans-Serif" font-size="10.00">nars.inference.RuleTables.index</text>
<text text-anchor="middle" x="78.5" y="-7.5" font-family="Helvetica,sans-Serif" font-size="10.00">ToFigure</text>
</g>
<!-- Node1717 -->
<g id="node2" class="node"><title>Node1717</title>
<g id="a_node2"><a xlink:href="../../dc/ded/a00252.html#a8628d400a8ceda7fea05039ddfea319b" target="_top" xlink:title="Meta&#45;table of syllogistic rules, indexed by the content classes of the taskSentence and the belief...">
<polygon fill="none" stroke="black" points="193,-6 193,-25 373,-25 373,-6 193,-6"/>
<text text-anchor="middle" x="283" y="-13" font-family="Helvetica,sans-Serif" font-size="10.00">nars.inference.RuleTables.syllogisms</text>
</a>
</g>
</g>
<!-- Node1716&#45;&gt;Node1717 -->
<g id="edge1" class="edge"><title>Node1716&#45;&gt;Node1717</title>
<path fill="none" stroke="midnightblue" d="M167.365,-15.5C175.752,-15.5 184.264,-15.5 192.665,-15.5"/>
<polygon fill="midnightblue" stroke="midnightblue" points="167.213,-12.0001 157.213,-15.5 167.213,-19.0001 167.213,-12.0001"/>
</g>
<!-- Node1718 -->
<g id="node3" class="node"><title>Node1718</title>
<g id="a_node3"><a xlink:href="../../dc/ded/a00252.html#ac2d01dfdc40bdd47c757cb549217e6e3" target="_top" xlink:title="Entry point of the inference engine. ">
<polygon fill="none" stroke="black" points="409,-6 409,-25 572,-25 572,-6 409,-6"/>
<text text-anchor="middle" x="490.5" y="-13" font-family="Helvetica,sans-Serif" font-size="10.00">nars.inference.RuleTables.reason</text>
</a>
</g>
</g>
<!-- Node1717&#45;&gt;Node1718 -->
<g id="edge2" class="edge"><title>Node1717&#45;&gt;Node1718</title>
<path fill="none" stroke="midnightblue" d="M383.244,-15.5C391.792,-15.5 400.372,-15.5 408.747,-15.5"/>
<polygon fill="midnightblue" stroke="midnightblue" points="383.239,-12.0001 373.239,-15.5 383.239,-19.0001 383.239,-12.0001"/>
</g>
<!-- Node1719 -->
<g id="node4" class="node"><title>Node1719</title>
<g id="a_node4"><a xlink:href="../../d7/ded/a00196.html#ad6fb91dda799c3092ecb186ef24ca92a" target="_top" xlink:title="An atomic step in a concept, only called in Memory# processConcept. ">
<polygon fill="none" stroke="black" points="608,-0.5 608,-30.5 727,-30.5 727,-0.5 608,-0.5"/>
<text text-anchor="start" x="616" y="-18.5" font-family="Helvetica,sans-Serif" font-size="10.00">nars.entity.Concept.fire</text>
<text text-anchor="middle" x="667.5" y="-7.5" font-family="Helvetica,sans-Serif" font-size="10.00">FromProcessConcept</text>
</a>
</g>
</g>
<!-- Node1718&#45;&gt;Node1719 -->
<g id="edge3" class="edge"><title>Node1718&#45;&gt;Node1719</title>
<path fill="none" stroke="midnightblue" d="M582.249,-15.5C590.907,-15.5 599.523,-15.5 607.757,-15.5"/>
<polygon fill="midnightblue" stroke="midnightblue" points="582.085,-12.0001 572.085,-15.5 582.085,-19.0001 582.085,-12.0001"/>
</g>
<!-- Node1720 -->
<g id="node5" class="node"><title>Node1720</title>
<g id="a_node5"><a xlink:href="../../d4/d27/a00392.html#a0acc4adbf6a2462245da46bcb529746c" target="_top" xlink:title="Select a concept to fireFromProcessConcept. ">
<polygon fill="none" stroke="black" points="763,-0.5 763,-30.5 909,-30.5 909,-0.5 763,-0.5"/>
<text text-anchor="start" x="771" y="-18.5" font-family="Helvetica,sans-Serif" font-size="10.00">nars.storage.Memory.process</text>
<text text-anchor="middle" x="836" y="-7.5" font-family="Helvetica,sans-Serif" font-size="10.00">Concept</text>
</a>
</g>
</g>
<!-- Node1719&#45;&gt;Node1720 -->
<g id="edge4" class="edge"><title>Node1719&#45;&gt;Node1720</title>
<path fill="none" stroke="midnightblue" d="M737.337,-15.5C745.748,-15.5 754.361,-15.5 762.819,-15.5"/>
<polygon fill="midnightblue" stroke="midnightblue" points="737.202,-12.0001 727.202,-15.5 737.202,-19.0001 737.202,-12.0001"/>
</g>
<!-- Node1721 -->
<g id="node6" class="node"><title>Node1721</title>
<g id="a_node6"><a xlink:href="../../d4/d27/a00392.html#a59ae339d666409988d90d29be4f73a91" target="_top" xlink:title="An atomic working workCycle of the system: process new Tasks, then fireFromProcessConcept a concept...">
<polygon fill="none" stroke="black" points="945,-0.5 945,-30.5 1078,-30.5 1078,-0.5 945,-0.5"/>
<text text-anchor="start" x="953" y="-18.5" font-family="Helvetica,sans-Serif" font-size="10.00">nars.storage.Memory.work</text>
<text text-anchor="middle" x="1011.5" y="-7.5" font-family="Helvetica,sans-Serif" font-size="10.00">Cycle</text>
</a>
</g>
</g>
<!-- Node1720&#45;&gt;Node1721 -->
<g id="edge5" class="edge"><title>Node1720&#45;&gt;Node1721</title>
<path fill="none" stroke="midnightblue" d="M919.118,-15.5C927.716,-15.5 936.375,-15.5 944.755,-15.5"/>
<polygon fill="midnightblue" stroke="midnightblue" points="919.072,-12.0001 909.072,-15.5 919.072,-19.0001 919.072,-12.0001"/>
</g>
<!-- Node1722 -->
<g id="node7" class="node"><title>Node1722</title>
<g id="a_node7"><a xlink:href="../../df/d15/a00416.html#a0d5c797dc17d9e8d0998852915e0f303" target="_top" xlink:title="nars.storage.ReasonerBatch.doTick">
<polygon fill="none" stroke="black" points="1114,-6 1114,-25 1287,-25 1287,-6 1114,-6"/>
<text text-anchor="middle" x="1200.5" y="-13" font-family="Helvetica,sans-Serif" font-size="10.00">nars.storage.ReasonerBatch.doTick</text>
</a>
</g>
</g>
<!-- Node1721&#45;&gt;Node1722 -->
<g id="edge6" class="edge"><title>Node1721&#45;&gt;Node1722</title>
<path fill="none" stroke="midnightblue" d="M1088.34,-15.5C1096.78,-15.5 1105.42,-15.5 1113.97,-15.5"/>
<polygon fill="midnightblue" stroke="midnightblue" points="1088.17,-12.0001 1078.17,-15.5 1088.17,-19.0001 1088.17,-12.0001"/>
</g>
<!-- Node1723 -->
<g id="node8" class="node"><title>Node1723</title>
<g id="a_node8"><a xlink:href="../../df/d15/a00416.html#a3468aa0f99edcd66412f27922dddb880" target="_top" xlink:title="A clock tick. ">
<polygon fill="none" stroke="black" points="1323,-6 1323,-25 1483,-25 1483,-6 1323,-6"/>
<text text-anchor="middle" x="1403" y="-13" font-family="Helvetica,sans-Serif" font-size="10.00">nars.storage.ReasonerBatch.tick</text>
</a>
</g>
</g>
<!-- Node1722&#45;&gt;Node1723 -->
<g id="edge7" class="edge"><title>Node1722&#45;&gt;Node1723</title>
<path fill="none" stroke="midnightblue" d="M1297.13,-15.5C1305.7,-15.5 1314.31,-15.5 1322.71,-15.5"/>
<polygon fill="midnightblue" stroke="midnightblue" points="1297.11,-12.0001 1287.11,-15.5 1297.11,-19.0001 1297.11,-12.0001"/>
</g>
<!-- Node1724 -->
<g id="node9" class="node"><title>Node1724</title>
<g id="a_node9"><a xlink:href="../../d9/da1/a00396.html#a5d9cfe517bcfbe41e5251910bcd119c1" target="_top" xlink:title="Run to completion: repeatedly execute NARS working cycle, until Inputs are Finished, or 1000 steps. ">
<polygon fill="none" stroke="black" points="1519,-6 1519,-25 1663,-25 1663,-6 1519,-6"/>
<text text-anchor="middle" x="1591" y="-13" font-family="Helvetica,sans-Serif" font-size="10.00">nars.storage.NARSBatch.run</text>
</a>
</g>
</g>
<!-- Node1723&#45;&gt;Node1724 -->
<g id="edge8" class="edge"><title>Node1723&#45;&gt;Node1724</title>
<path fill="none" stroke="midnightblue" d="M1493.22,-15.5C1501.82,-15.5 1510.47,-15.5 1518.87,-15.5"/>
<polygon fill="midnightblue" stroke="midnightblue" points="1493.15,-12.0001 1483.15,-15.5 1493.15,-19.0001 1493.15,-12.0001"/>
</g>
<!-- Node1725 -->
<g id="node10" class="node"><title>Node1725</title>
<g id="a_node10"><a xlink:href="../../d9/da1/a00396.html#a7c307c6b842f82664de6b0e52bdf8efc" target="_top" xlink:title="non&#45;static equivalent to main(String[]) : run to completion from an input file ">
<polygon fill="none" stroke="black" points="1699,-0.5 1699,-30.5 1843,-30.5 1843,-0.5 1699,-0.5"/>
<text text-anchor="start" x="1707" y="-18.5" font-family="Helvetica,sans-Serif" font-size="10.00">nars.storage.NARSBatch.run</text>
<text text-anchor="middle" x="1771" y="-7.5" font-family="Helvetica,sans-Serif" font-size="10.00">Inference</text>
</a>
</g>
</g>
<!-- Node1724&#45;&gt;Node1725 -->
<g id="edge9" class="edge"><title>Node1724&#45;&gt;Node1725</title>
<path fill="none" stroke="midnightblue" d="M1673.17,-15.5C1681.79,-15.5 1690.51,-15.5 1699,-15.5"/>
<polygon fill="midnightblue" stroke="midnightblue" points="1673.12,-12.0001 1663.12,-15.5 1673.12,-19.0001 1673.12,-12.0001"/>
</g>
<!-- Node1726 -->
<g id="node11" class="node"><title>Node1726</title>
<g id="a_node11"><a xlink:href="../../d9/da1/a00396.html#abafc597289bc2f6453b5cd0dd6634e54" target="_top" xlink:title="The entry point of the standalone application. ">
<polygon fill="none" stroke="black" points="1879,-6 1879,-25 2031,-25 2031,-6 1879,-6"/>
<text text-anchor="middle" x="1955" y="-13" font-family="Helvetica,sans-Serif" font-size="10.00">nars.storage.NARSBatch.main</text>
</a>
</g>
</g>
<!-- Node1725&#45;&gt;Node1726 -->
<g id="edge10" class="edge"><title>Node1725&#45;&gt;Node1726</title>
<path fill="none" stroke="midnightblue" d="M1853.17,-15.5C1861.76,-15.5 1870.48,-15.5 1879,-15.5"/>
<polygon fill="midnightblue" stroke="midnightblue" points="1853.15,-12.0001 1843.15,-15.5 1853.15,-19.0001 1853.15,-12.0001"/>
</g>
</g>
</svg>
