<?xml version="1.0" encoding="UTF-8" standalone="no"?>
<!DOCTYPE svg PUBLIC "-//W3C//DTD SVG 1.1//EN"
 "http://www.w3.org/Graphics/SVG/1.1/DTD/svg11.dtd">
<!-- Generated by graphviz version 2.38.0 (20140413.2041)
 -->
<!-- Title: nars.inference.RuleTables.transformNegation Pages: 1 -->
<svg width="2271pt" height="61pt"
 viewBox="0.00 0.00 2271.00 61.00" xmlns="http://www.w3.org/2000/svg" xmlns:xlink="http://www.w3.org/1999/xlink">
<g id="graph0" class="graph" transform="scale(1 1) rotate(0) translate(4 57)">
<title>nars.inference.RuleTables.transformNegation</title>
<!-- Node2270 -->
<g id="node1" class="node"><title>Node2270</title>
<polygon fill="#bfbfbf" stroke="black" points="0,-0.5 0,-30.5 175,-30.5 175,-0.5 0,-0.5"/>
<text text-anchor="start" x="8" y="-18.5" font-family="Helvetica,sans-Serif" font-size="10.00">nars.inference.RuleTables.transform</text>
<text text-anchor="middle" x="87.5" y="-7.5" font-family="Helvetica,sans-Serif" font-size="10.00">Negation</text>
</g>
<!-- Node2271 -->
<g id="node2" class="node"><title>Node2271</title>
<g id="a_node2"><a xlink:href="../../dc/ded/a00252.html#a00ffbf7a9069cfd135acae4b46d78d05" target="_top" xlink:title="Inference between a compound term and a component of it. ">
<polygon fill="none" stroke="black" points="211,-0.5 211,-30.5 390,-30.5 390,-0.5 211,-0.5"/>
<text text-anchor="start" x="219" y="-18.5" font-family="Helvetica,sans-Serif" font-size="10.00">nars.inference.RuleTables.compound</text>
<text text-anchor="middle" x="300.5" y="-7.5" font-family="Helvetica,sans-Serif" font-size="10.00">AndSelf</text>
</a>
</g>
</g>
<!-- Node2270&#45;&gt;Node2271 -->
<g id="edge1" class="edge"><title>Node2270&#45;&gt;Node2271</title>
<path fill="none" stroke="midnightblue" d="M185.453,-15.5C193.872,-15.5 202.363,-15.5 210.712,-15.5"/>
<polygon fill="midnightblue" stroke="midnightblue" points="185.235,-12.0001 175.235,-15.5 185.235,-19.0001 185.235,-12.0001"/>
</g>
<!-- Node2272 -->
<g id="node3" class="node"><title>Node2272</title>
<g id="a_node3"><a xlink:href="../../dc/ded/a00252.html#a764dbc9ccccf406df45e09fbfeda928f" target="_top" xlink:title="Inference between two compound terms. ">
<polygon fill="none" stroke="black" points="426,-22.5 426,-52.5 605,-52.5 605,-22.5 426,-22.5"/>
<text text-anchor="start" x="434" y="-40.5" font-family="Helvetica,sans-Serif" font-size="10.00">nars.inference.RuleTables.compound</text>
<text text-anchor="middle" x="515.5" y="-29.5" font-family="Helvetica,sans-Serif" font-size="10.00">AndCompound</text>
</a>
</g>
</g>
<!-- Node2271&#45;&gt;Node2272 -->
<g id="edge2" class="edge"><title>Node2271&#45;&gt;Node2272</title>
<path fill="none" stroke="midnightblue" d="M400.266,-25.7012C408.803,-26.5829 417.406,-27.4715 425.855,-28.3442"/>
<polygon fill="midnightblue" stroke="midnightblue" points="400.596,-22.2167 390.289,-24.6707 399.876,-29.1796 400.596,-22.2167"/>
</g>
<!-- Node2273 -->
<g id="node4" class="node"><title>Node2273</title>
<g id="a_node4"><a xlink:href="../../dc/ded/a00252.html#ac2d01dfdc40bdd47c757cb549217e6e3" target="_top" xlink:title="Entry point of the inference engine. ">
<polygon fill="none" stroke="black" points="641,-6 641,-25 804,-25 804,-6 641,-6"/>
<text text-anchor="middle" x="722.5" y="-13" font-family="Helvetica,sans-Serif" font-size="10.00">nars.inference.RuleTables.reason</text>
</a>
</g>
</g>
<!-- Node2271&#45;&gt;Node2273 -->
<g id="edge12" class="edge"><title>Node2271&#45;&gt;Node2273</title>
<path fill="none" stroke="midnightblue" d="M400.409,-13.7665C409.064,-13.6586 417.688,-13.5668 426,-13.5 505.553,-12.8611 525.447,-12.8172 605,-13.5 616.631,-13.5998 628.915,-13.7557 640.971,-13.9374"/>
<polygon fill="midnightblue" stroke="midnightblue" points="400.205,-10.2687 390.252,-13.8999 400.297,-17.2681 400.205,-10.2687"/>
</g>
<!-- Node2272&#45;&gt;Node2273 -->
<g id="edge3" class="edge"><title>Node2272&#45;&gt;Node2273</title>
<path fill="none" stroke="midnightblue" d="M615.22,-26.9056C623.762,-25.989 632.338,-25.0686 640.712,-24.1699"/>
<polygon fill="midnightblue" stroke="midnightblue" points="614.793,-23.4313 605.224,-27.9784 615.54,-30.3913 614.793,-23.4313"/>
</g>
<!-- Node2274 -->
<g id="node5" class="node"><title>Node2274</title>
<g id="a_node5"><a xlink:href="../../d7/ded/a00196.html#ad6fb91dda799c3092ecb186ef24ca92a" target="_top" xlink:title="An atomic step in a concept, only called in Memory# processConcept. ">
<polygon fill="none" stroke="black" points="840,-0.5 840,-30.5 959,-30.5 959,-0.5 840,-0.5"/>
<text text-anchor="start" x="848" y="-18.5" font-family="Helvetica,sans-Serif" font-size="10.00">nars.entity.Concept.fire</text>
<text text-anchor="middle" x="899.5" y="-7.5" font-family="Helvetica,sans-Serif" font-size="10.00">FromProcessConcept</text>
</a>
</g>
</g>
<!-- Node2273&#45;&gt;Node2274 -->
<g id="edge4" class="edge"><title>Node2273&#45;&gt;Node2274</title>
<path fill="none" stroke="midnightblue" d="M814.249,-15.5C822.907,-15.5 831.523,-15.5 839.757,-15.5"/>
<polygon fill="midnightblue" stroke="midnightblue" points="814.085,-12.0001 804.085,-15.5 814.085,-19.0001 814.085,-12.0001"/>
</g>
<!-- Node2275 -->
<g id="node6" class="node"><title>Node2275</title>
<g id="a_node6"><a xlink:href="../../d4/d27/a00392.html#a0acc4adbf6a2462245da46bcb529746c" target="_top" xlink:title="Select a concept to fireFromProcessConcept. ">
<polygon fill="none" stroke="black" points="995,-0.5 995,-30.5 1141,-30.5 1141,-0.5 995,-0.5"/>
<text text-anchor="start" x="1003" y="-18.5" font-family="Helvetica,sans-Serif" font-size="10.00">nars.storage.Memory.process</text>
<text text-anchor="middle" x="1068" y="-7.5" font-family="Helvetica,sans-Serif" font-size="10.00">Concept</text>
</a>
</g>
</g>
<!-- Node2274&#45;&gt;Node2275 -->
<g id="edge5" class="edge"><title>Node2274&#45;&gt;Node2275</title>
<path fill="none" stroke="midnightblue" d="M969.337,-15.5C977.748,-15.5 986.361,-15.5 994.819,-15.5"/>
<polygon fill="midnightblue" stroke="midnightblue" points="969.202,-12.0001 959.202,-15.5 969.202,-19.0001 969.202,-12.0001"/>
</g>
<!-- Node2276 -->
<g id="node7" class="node"><title>Node2276</title>
<g id="a_node7"><a xlink:href="../../d4/d27/a00392.html#a59ae339d666409988d90d29be4f73a91" target="_top" xlink:title="An atomic working workCycle of the system: process new Tasks, then fireFromProcessConcept a concept...">
<polygon fill="none" stroke="black" points="1177,-0.5 1177,-30.5 1310,-30.5 1310,-0.5 1177,-0.5"/>
<text text-anchor="start" x="1185" y="-18.5" font-family="Helvetica,sans-Serif" font-size="10.00">nars.storage.Memory.work</text>
<text text-anchor="middle" x="1243.5" y="-7.5" font-family="Helvetica,sans-Serif" font-size="10.00">Cycle</text>
</a>
</g>
</g>
<!-- Node2275&#45;&gt;Node2276 -->
<g id="edge6" class="edge"><title>Node2275&#45;&gt;Node2276</title>
<path fill="none" stroke="midnightblue" d="M1151.12,-15.5C1159.72,-15.5 1168.37,-15.5 1176.76,-15.5"/>
<polygon fill="midnightblue" stroke="midnightblue" points="1151.07,-12.0001 1141.07,-15.5 1151.07,-19.0001 1151.07,-12.0001"/>
</g>
<!-- Node2277 -->
<g id="node8" class="node"><title>Node2277</title>
<g id="a_node8"><a xlink:href="../../df/d15/a00416.html#a0d5c797dc17d9e8d0998852915e0f303" target="_top" xlink:title="nars.storage.ReasonerBatch.doTick">
<polygon fill="none" stroke="black" points="1346,-6 1346,-25 1519,-25 1519,-6 1346,-6"/>
<text text-anchor="middle" x="1432.5" y="-13" font-family="Helvetica,sans-Serif" font-size="10.00">nars.storage.ReasonerBatch.doTick</text>
</a>
</g>
</g>
<!-- Node2276&#45;&gt;Node2277 -->
<g id="edge7" class="edge"><title>Node2276&#45;&gt;Node2277</title>
<path fill="none" stroke="midnightblue" d="M1320.34,-15.5C1328.78,-15.5 1337.42,-15.5 1345.97,-15.5"/>
<polygon fill="midnightblue" stroke="midnightblue" points="1320.17,-12.0001 1310.17,-15.5 1320.17,-19.0001 1320.17,-12.0001"/>
</g>
<!-- Node2278 -->
<g id="node9" class="node"><title>Node2278</title>
<g id="a_node9"><a xlink:href="../../df/d15/a00416.html#a3468aa0f99edcd66412f27922dddb880" target="_top" xlink:title="A clock tick. ">
<polygon fill="none" stroke="black" points="1555,-6 1555,-25 1715,-25 1715,-6 1555,-6"/>
<text text-anchor="middle" x="1635" y="-13" font-family="Helvetica,sans-Serif" font-size="10.00">nars.storage.ReasonerBatch.tick</text>
</a>
</g>
</g>
<!-- Node2277&#45;&gt;Node2278 -->
<g id="edge8" class="edge"><title>Node2277&#45;&gt;Node2278</title>
<path fill="none" stroke="midnightblue" d="M1529.13,-15.5C1537.7,-15.5 1546.31,-15.5 1554.71,-15.5"/>
<polygon fill="midnightblue" stroke="midnightblue" points="1529.11,-12.0001 1519.11,-15.5 1529.11,-19.0001 1529.11,-12.0001"/>
</g>
<!-- Node2279 -->
<g id="node10" class="node"><title>Node2279</title>
<g id="a_node10"><a xlink:href="../../d9/da1/a00396.html#a5d9cfe517bcfbe41e5251910bcd119c1" target="_top" xlink:title="Run to completion: repeatedly execute NARS working cycle, until Inputs are Finished, or 1000 steps. ">
<polygon fill="none" stroke="black" points="1751,-6 1751,-25 1895,-25 1895,-6 1751,-6"/>
<text text-anchor="middle" x="1823" y="-13" font-family="Helvetica,sans-Serif" font-size="10.00">nars.storage.NARSBatch.run</text>
</a>
</g>
</g>
<!-- Node2278&#45;&gt;Node2279 -->
<g id="edge9" class="edge"><title>Node2278&#45;&gt;Node2279</title>
<path fill="none" stroke="midnightblue" d="M1725.22,-15.5C1733.82,-15.5 1742.47,-15.5 1750.87,-15.5"/>
<polygon fill="midnightblue" stroke="midnightblue" points="1725.15,-12.0001 1715.15,-15.5 1725.15,-19.0001 1725.15,-12.0001"/>
</g>
<!-- Node2280 -->
<g id="node11" class="node"><title>Node2280</title>
<g id="a_node11"><a xlink:href="../../d9/da1/a00396.html#a7c307c6b842f82664de6b0e52bdf8efc" target="_top" xlink:title="non&#45;static equivalent to main(String[]) : run to completion from an input file ">
<polygon fill="none" stroke="black" points="1931,-0.5 1931,-30.5 2075,-30.5 2075,-0.5 1931,-0.5"/>
<text text-anchor="start" x="1939" y="-18.5" font-family="Helvetica,sans-Serif" font-size="10.00">nars.storage.NARSBatch.run</text>
<text text-anchor="middle" x="2003" y="-7.5" font-family="Helvetica,sans-Serif" font-size="10.00">Inference</text>
</a>
</g>
</g>
<!-- Node2279&#45;&gt;Node2280 -->
<g id="edge10" class="edge"><title>Node2279&#45;&gt;Node2280</title>
<path fill="none" stroke="midnightblue" d="M1905.17,-15.5C1913.79,-15.5 1922.51,-15.5 1931,-15.5"/>
<polygon fill="midnightblue" stroke="midnightblue" points="1905.12,-12.0001 1895.12,-15.5 1905.12,-19.0001 1905.12,-12.0001"/>
</g>
<!-- Node2281 -->
<g id="node12" class="node"><title>Node2281</title>
<g id="a_node12"><a xlink:href="../../d9/da1/a00396.html#abafc597289bc2f6453b5cd0dd6634e54" target="_top" xlink:title="The entry point of the standalone application. ">
<polygon fill="none" stroke="black" points="2111,-6 2111,-25 2263,-25 2263,-6 2111,-6"/>
<text text-anchor="middle" x="2187" y="-13" font-family="Helvetica,sans-Serif" font-size="10.00">nars.storage.NARSBatch.main</text>
</a>
</g>
</g>
<!-- Node2280&#45;&gt;Node2281 -->
<g id="edge11" class="edge"><title>Node2280&#45;&gt;Node2281</title>
<path fill="none" stroke="midnightblue" d="M2085.17,-15.5C2093.76,-15.5 2102.48,-15.5 2111,-15.5"/>
<polygon fill="midnightblue" stroke="midnightblue" points="2085.15,-12.0001 2075.15,-15.5 2085.15,-19.0001 2085.15,-12.0001"/>
</g>
</g>
</svg>
