<?xml version="1.0" encoding="UTF-8" standalone="no"?>
<!DOCTYPE svg PUBLIC "-//W3C//DTD SVG 1.1//EN"
 "http://www.w3.org/Graphics/SVG/1.1/DTD/svg11.dtd">
<!-- Generated by graphviz version 2.38.0 (20140413.2041)
 -->
<!-- Title: nars.inference.RuleTables.hasSubstitute Pages: 1 -->
<!--zoomable 116 -->
<svg id="main" version="1.1" xmlns="http://www.w3.org/2000/svg" xmlns:xlink="http://www.w3.org/1999/xlink" xml:space="preserve" onload="init(evt)">
<style type="text/css"><![CDATA[
.edge:hover path { stroke: red; }
.edge:hover polygon { stroke: red; fill: red; }
]]></style>
<script type="text/javascript"><![CDATA[
var edges = document.getElementsByTagName('g');
if (edges && edges.length) {
  for (var i=0;i<edges.length;i++) {
    if (edges[i].id.substr(0,4)=='edge') {
      edges[i].setAttribute('class','edge');
    }
  }
}
]]></script>
        <defs>
                <circle id="rim" cx="0" cy="0" r="7"/>
                <circle id="rim2" cx="0" cy="0" r="3.5"/>
                <g id="zoomPlus">
                        <use xlink:href="#rim" fill="#404040">
                                <set attributeName="fill" to="#808080" begin="zoomplus.mouseover" end="zoomplus.mouseout"/>
                        </use>
                        <path d="M-4,0h8M0,-4v8" fill="none" stroke="white" stroke-width="1.5" pointer-events="none"/>
                </g>
                <g id="zoomMin">
                        <use xlink:href="#rim" fill="#404040">
                                <set attributeName="fill" to="#808080" begin="zoomminus.mouseover" end="zoomminus.mouseout"/>
                        </use>
                        <path d="M-4,0h8" fill="none" stroke="white" stroke-width="1.5" pointer-events="none"/>
                </g>
                <g id="dirArrow">
                        <path fill="none" stroke="white" stroke-width="1.5" d="M0,-3.0v7 M-2.5,-0.5L0,-3.0L2.5,-0.5"/>
                </g>
               <g id="resetDef">
                       <use xlink:href="#rim2" fill="#404040">
                               <set attributeName="fill" to="#808080" begin="reset.mouseover" end="reset.mouseout"/>
                       </use>
               </g>
        </defs>

<script type="text/javascript">
var viewWidth = 2264;
var viewHeight = 116;
var sectionId = 'dynsection-41';
</script>
<script xlink:href="../../svgpan.js"/>
<svg id="graph" class="graph">
<g id="viewport">
<title>nars.inference.RuleTables.hasSubstitute</title>
<!-- Node1701 -->
<g id="node1" class="node"><title>Node1701</title>
<polygon fill="#bfbfbf" stroke="black" points="0,-60.5 0,-90.5 149,-90.5 149,-60.5 0,-60.5"/>
<text text-anchor="start" x="8" y="-78.5" font-family="Helvetica,sans-Serif" font-size="10.00">nars.inference.RuleTables.has</text>
<text text-anchor="middle" x="74.5" y="-67.5" font-family="Helvetica,sans-Serif" font-size="10.00">Substitute</text>
</g>
<!-- Node1702 -->
<g id="node2" class="node"><title>Node1702</title>
<g id="a_node2"><a xlink:href="../../dc/ded/a00252.html#aac2b267fcfa9bb34e03d44a410bfd92b" target="_top" xlink:title="{&lt;(&amp;&amp;, S1, S2) &lt;=&gt; P&gt;, (&amp;&amp;, S1, S2)} |&#45; P ">
<polygon fill="none" stroke="black" points="401,-88 401,-107 598,-107 598,-88 401,-88"/>
<text text-anchor="middle" x="499.5" y="-95" font-family="Helvetica,sans-Serif" font-size="10.00">nars.inference.RuleTables.conditionalAna</text>
</a>
</g>
</g>
<!-- Node1701&#45;&gt;Node1702 -->
<g id="edge1" class="edge"><title>Node1701&#45;&gt;Node1702</title>
<path fill="none" stroke="midnightblue" d="M159.21,-79.8537C228.68,-83.4668 327.574,-88.6102 400.683,-92.4126"/>
<polygon fill="midnightblue" stroke="midnightblue" points="159.349,-76.3563 149.181,-79.3321 158.986,-83.3469 159.349,-76.3563"/>
</g>
<!-- Node1712 -->
<g id="node12" class="node"><title>Node1712</title>
<g id="a_node12"><a xlink:href="../../dc/ded/a00252.html#a52bb3626302eb9f10567c24ec5dbc934" target="_top" xlink:title="{&lt;(&amp;&amp;, S1, S2, S3) ==&gt; P&gt;, S1} |&#45; &lt;(&amp;&amp;, S2, S3) ==&gt; P&gt; {&lt;(&amp;&amp;, S2, S3) ==&gt; P&gt;, &lt;S1 ==&gt; S2&gt;} |&#45; &lt;(&amp;&amp;...">
<polygon fill="none" stroke="black" points="185,-38.5 185,-68.5 365,-68.5 365,-38.5 185,-38.5"/>
<text text-anchor="start" x="193" y="-56.5" font-family="Helvetica,sans-Serif" font-size="10.00">nars.inference.RuleTables.conditional</text>
<text text-anchor="middle" x="275" y="-45.5" font-family="Helvetica,sans-Serif" font-size="10.00">DedInd</text>
</a>
</g>
</g>
<!-- Node1701&#45;&gt;Node1712 -->
<g id="edge11" class="edge"><title>Node1701&#45;&gt;Node1712</title>
<path fill="none" stroke="midnightblue" d="M159.287,-66.2138C167.688,-65.2827 176.24,-64.3349 184.695,-63.3978"/>
<polygon fill="midnightblue" stroke="midnightblue" points="158.686,-62.7589 149.132,-67.3393 159.457,-69.7163 158.686,-62.7589"/>
</g>
<!-- Node1703 -->
<g id="node3" class="node"><title>Node1703</title>
<g id="a_node3"><a xlink:href="../../dc/ded/a00252.html#ac2d01dfdc40bdd47c757cb549217e6e3" target="_top" xlink:title="Entry point of the inference engine. ">
<polygon fill="none" stroke="black" points="634,-50 634,-69 797,-69 797,-50 634,-50"/>
<text text-anchor="middle" x="715.5" y="-57" font-family="Helvetica,sans-Serif" font-size="10.00">nars.inference.RuleTables.reason</text>
</a>
</g>
</g>
<!-- Node1702&#45;&gt;Node1703 -->
<g id="edge2" class="edge"><title>Node1702&#45;&gt;Node1703</title>
<path fill="none" stroke="midnightblue" d="M564.401,-86.153C595.105,-80.7009 631.494,-74.2393 660.753,-69.0439"/>
<polygon fill="midnightblue" stroke="midnightblue" points="563.459,-82.7655 554.225,-87.96 564.683,-89.6577 563.459,-82.7655"/>
</g>
<!-- Node1704 -->
<g id="node4" class="node"><title>Node1704</title>
<g id="a_node4"><a xlink:href="../../d7/ded/a00196.html#ad6fb91dda799c3092ecb186ef24ca92a" target="_top" xlink:title="An atomic step in a concept, only called in Memory# processConcept. ">
<polygon fill="none" stroke="black" points="833,-44.5 833,-74.5 952,-74.5 952,-44.5 833,-44.5"/>
<text text-anchor="start" x="841" y="-62.5" font-family="Helvetica,sans-Serif" font-size="10.00">nars.entity.Concept.fire</text>
<text text-anchor="middle" x="892.5" y="-51.5" font-family="Helvetica,sans-Serif" font-size="10.00">FromProcessConcept</text>
</a>
</g>
</g>
<!-- Node1703&#45;&gt;Node1704 -->
<g id="edge3" class="edge"><title>Node1703&#45;&gt;Node1704</title>
<path fill="none" stroke="midnightblue" d="M807.249,-59.5C815.907,-59.5 824.523,-59.5 832.757,-59.5"/>
<polygon fill="midnightblue" stroke="midnightblue" points="807.085,-56.0001 797.085,-59.5 807.085,-63.0001 807.085,-56.0001"/>
</g>
<!-- Node1705 -->
<g id="node5" class="node"><title>Node1705</title>
<g id="a_node5"><a xlink:href="../../d4/d27/a00392.html#a0acc4adbf6a2462245da46bcb529746c" target="_top" xlink:title="Select a concept to fireFromProcessConcept. ">
<polygon fill="none" stroke="black" points="988,-44.5 988,-74.5 1134,-74.5 1134,-44.5 988,-44.5"/>
<text text-anchor="start" x="996" y="-62.5" font-family="Helvetica,sans-Serif" font-size="10.00">nars.storage.Memory.process</text>
<text text-anchor="middle" x="1061" y="-51.5" font-family="Helvetica,sans-Serif" font-size="10.00">Concept</text>
</a>
</g>
</g>
<!-- Node1704&#45;&gt;Node1705 -->
<g id="edge4" class="edge"><title>Node1704&#45;&gt;Node1705</title>
<path fill="none" stroke="midnightblue" d="M962.337,-59.5C970.748,-59.5 979.361,-59.5 987.819,-59.5"/>
<polygon fill="midnightblue" stroke="midnightblue" points="962.202,-56.0001 952.202,-59.5 962.202,-63.0001 962.202,-56.0001"/>
</g>
<!-- Node1706 -->
<g id="node6" class="node"><title>Node1706</title>
<g id="a_node6"><a xlink:href="../../d4/d27/a00392.html#a59ae339d666409988d90d29be4f73a91" target="_top" xlink:title="An atomic working workCycle of the system: process new Tasks, then fireFromProcessConcept a concept...">
<polygon fill="none" stroke="black" points="1170,-44.5 1170,-74.5 1303,-74.5 1303,-44.5 1170,-44.5"/>
<text text-anchor="start" x="1178" y="-62.5" font-family="Helvetica,sans-Serif" font-size="10.00">nars.storage.Memory.work</text>
<text text-anchor="middle" x="1236.5" y="-51.5" font-family="Helvetica,sans-Serif" font-size="10.00">Cycle</text>
</a>
</g>
</g>
<!-- Node1705&#45;&gt;Node1706 -->
<g id="edge5" class="edge"><title>Node1705&#45;&gt;Node1706</title>
<path fill="none" stroke="midnightblue" d="M1144.12,-59.5C1152.72,-59.5 1161.37,-59.5 1169.76,-59.5"/>
<polygon fill="midnightblue" stroke="midnightblue" points="1144.07,-56.0001 1134.07,-59.5 1144.07,-63.0001 1144.07,-56.0001"/>
</g>
<!-- Node1707 -->
<g id="node7" class="node"><title>Node1707</title>
<g id="a_node7"><a xlink:href="../../df/d15/a00416.html#a0d5c797dc17d9e8d0998852915e0f303" target="_top" xlink:title="nars.storage.ReasonerBatch.doTick">
<polygon fill="none" stroke="black" points="1339,-50 1339,-69 1512,-69 1512,-50 1339,-50"/>
<text text-anchor="middle" x="1425.5" y="-57" font-family="Helvetica,sans-Serif" font-size="10.00">nars.storage.ReasonerBatch.doTick</text>
</a>
</g>
</g>
<!-- Node1706&#45;&gt;Node1707 -->
<g id="edge6" class="edge"><title>Node1706&#45;&gt;Node1707</title>
<path fill="none" stroke="midnightblue" d="M1313.34,-59.5C1321.78,-59.5 1330.42,-59.5 1338.97,-59.5"/>
<polygon fill="midnightblue" stroke="midnightblue" points="1313.17,-56.0001 1303.17,-59.5 1313.17,-63.0001 1313.17,-56.0001"/>
</g>
<!-- Node1708 -->
<g id="node8" class="node"><title>Node1708</title>
<g id="a_node8"><a xlink:href="../../df/d15/a00416.html#a3468aa0f99edcd66412f27922dddb880" target="_top" xlink:title="A clock tick. ">
<polygon fill="none" stroke="black" points="1548,-50 1548,-69 1708,-69 1708,-50 1548,-50"/>
<text text-anchor="middle" x="1628" y="-57" font-family="Helvetica,sans-Serif" font-size="10.00">nars.storage.ReasonerBatch.tick</text>
</a>
</g>
</g>
<!-- Node1707&#45;&gt;Node1708 -->
<g id="edge7" class="edge"><title>Node1707&#45;&gt;Node1708</title>
<path fill="none" stroke="midnightblue" d="M1522.13,-59.5C1530.7,-59.5 1539.31,-59.5 1547.71,-59.5"/>
<polygon fill="midnightblue" stroke="midnightblue" points="1522.11,-56.0001 1512.11,-59.5 1522.11,-63.0001 1522.11,-56.0001"/>
</g>
<!-- Node1709 -->
<g id="node9" class="node"><title>Node1709</title>
<g id="a_node9"><a xlink:href="../../d9/da1/a00396.html#a5d9cfe517bcfbe41e5251910bcd119c1" target="_top" xlink:title="Run to completion: repeatedly execute NARS working cycle, until Inputs are Finished, or 1000 steps. ">
<polygon fill="none" stroke="black" points="1744,-50 1744,-69 1888,-69 1888,-50 1744,-50"/>
<text text-anchor="middle" x="1816" y="-57" font-family="Helvetica,sans-Serif" font-size="10.00">nars.storage.NARSBatch.run</text>
</a>
</g>
</g>
<!-- Node1708&#45;&gt;Node1709 -->
<g id="edge8" class="edge"><title>Node1708&#45;&gt;Node1709</title>
<path fill="none" stroke="midnightblue" d="M1718.22,-59.5C1726.82,-59.5 1735.47,-59.5 1743.87,-59.5"/>
<polygon fill="midnightblue" stroke="midnightblue" points="1718.15,-56.0001 1708.15,-59.5 1718.15,-63.0001 1718.15,-56.0001"/>
</g>
<!-- Node1710 -->
<g id="node10" class="node"><title>Node1710</title>
<g id="a_node10"><a xlink:href="../../d9/da1/a00396.html#a7c307c6b842f82664de6b0e52bdf8efc" target="_top" xlink:title="non&#45;static equivalent to main(String[]) : run to completion from an input file ">
<polygon fill="none" stroke="black" points="1924,-44.5 1924,-74.5 2068,-74.5 2068,-44.5 1924,-44.5"/>
<text text-anchor="start" x="1932" y="-62.5" font-family="Helvetica,sans-Serif" font-size="10.00">nars.storage.NARSBatch.run</text>
<text text-anchor="middle" x="1996" y="-51.5" font-family="Helvetica,sans-Serif" font-size="10.00">Inference</text>
</a>
</g>
</g>
<!-- Node1709&#45;&gt;Node1710 -->
<g id="edge9" class="edge"><title>Node1709&#45;&gt;Node1710</title>
<path fill="none" stroke="midnightblue" d="M1898.17,-59.5C1906.79,-59.5 1915.51,-59.5 1924,-59.5"/>
<polygon fill="midnightblue" stroke="midnightblue" points="1898.12,-56.0001 1888.12,-59.5 1898.12,-63.0001 1898.12,-56.0001"/>
</g>
<!-- Node1711 -->
<g id="node11" class="node"><title>Node1711</title>
<g id="a_node11"><a xlink:href="../../d9/da1/a00396.html#abafc597289bc2f6453b5cd0dd6634e54" target="_top" xlink:title="The entry point of the standalone application. ">
<polygon fill="none" stroke="black" points="2104,-50 2104,-69 2256,-69 2256,-50 2104,-50"/>
<text text-anchor="middle" x="2180" y="-57" font-family="Helvetica,sans-Serif" font-size="10.00">nars.storage.NARSBatch.main</text>
</a>
</g>
</g>
<!-- Node1710&#45;&gt;Node1711 -->
<g id="edge10" class="edge"><title>Node1710&#45;&gt;Node1711</title>
<path fill="none" stroke="midnightblue" d="M2078.17,-59.5C2086.76,-59.5 2095.48,-59.5 2104,-59.5"/>
<polygon fill="midnightblue" stroke="midnightblue" points="2078.15,-56.0001 2068.15,-59.5 2078.15,-63.0001 2078.15,-56.0001"/>
</g>
<!-- Node1712&#45;&gt;Node1703 -->
<g id="edge14" class="edge"><title>Node1712&#45;&gt;Node1703</title>
<path fill="none" stroke="midnightblue" d="M375.339,-54.8593C453.448,-55.928 560.882,-57.398 633.752,-58.3951"/>
<polygon fill="midnightblue" stroke="midnightblue" points="375.048,-51.355 365.001,-54.7178 374.952,-58.3544 375.048,-51.355"/>
</g>
<!-- Node1713 -->
<g id="node13" class="node"><title>Node1713</title>
<g id="a_node13"><a xlink:href="../../dc/ded/a00252.html#aa167c7cb73f540ded591dc584ae623c1" target="_top" xlink:title="Conditional deduction or induction, with variable unification. ">
<polygon fill="none" stroke="black" points="409.5,-0.5 409.5,-30.5 589.5,-30.5 589.5,-0.5 409.5,-0.5"/>
<text text-anchor="start" x="417.5" y="-18.5" font-family="Helvetica,sans-Serif" font-size="10.00">nars.inference.RuleTables.conditional</text>
<text text-anchor="middle" x="499.5" y="-7.5" font-family="Helvetica,sans-Serif" font-size="10.00">DedIndWithVar</text>
</a>
</g>
</g>
<!-- Node1712&#45;&gt;Node1713 -->
<g id="edge12" class="edge"><title>Node1712&#45;&gt;Node1713</title>
<path fill="none" stroke="midnightblue" d="M374.058,-36.7531C386.179,-34.6828 398.513,-32.5764 410.472,-30.534"/>
<polygon fill="midnightblue" stroke="midnightblue" points="373.206,-33.3478 363.938,-38.4814 374.384,-40.2479 373.206,-33.3478"/>
</g>
<!-- Node1713&#45;&gt;Node1703 -->
<g id="edge13" class="edge"><title>Node1713&#45;&gt;Node1703</title>
<path fill="none" stroke="midnightblue" d="M583.601,-32.5862C612.349,-38.4971 643.523,-44.9067 668.235,-49.9876"/>
<polygon fill="midnightblue" stroke="midnightblue" points="584.048,-29.105 573.548,-30.5192 582.638,-35.9616 584.048,-29.105"/>
</g>
</g>
</svg>
        <g id="navigator" transform="translate(0 0)" fill="#404254">
                <rect fill="#f2f5e9" fill-opacity="0.5" stroke="#606060" stroke-width=".5" x="0" y="0" width="60" height="60"/>
                <use id="zoomplus" xlink:href="#zoomPlus" x="17" y="9" onmousedown="handleZoom(evt,'in')"/>
                <use id="zoomminus" xlink:href="#zoomMin" x="42" y="9" onmousedown="handleZoom(evt,'out')"/>
                <use id="reset" xlink:href="#resetDef" x="30" y="36" onmousedown="handleReset()"/>
                <g id="arrowUp" xlink:href="#dirArrow" transform="translate(30 24)" onmousedown="handlePan(0,-1)">
                  <use xlink:href="#rim" fill="#404040">
                        <set attributeName="fill" to="#808080" begin="arrowUp.mouseover" end="arrowUp.mouseout"/>
                  </use>
                  <path fill="none" stroke="white" stroke-width="1.5" d="M0,-3.0v7 M-2.5,-0.5L0,-3.0L2.5,-0.5"/>
                </g>
                <g id="arrowRight" xlink:href="#dirArrow" transform="rotate(90) translate(36 -43)" onmousedown="handlePan(1,0)">
                  <use xlink:href="#rim" fill="#404040">
                        <set attributeName="fill" to="#808080" begin="arrowRight.mouseover" end="arrowRight.mouseout"/>
                  </use>
                  <path fill="none" stroke="white" stroke-width="1.5" d="M0,-3.0v7 M-2.5,-0.5L0,-3.0L2.5,-0.5"/>
                </g>
                <g id="arrowDown" xlink:href="#dirArrow" transform="rotate(180) translate(-30 -48)" onmousedown="handlePan(0,1)">
                  <use xlink:href="#rim" fill="#404040">
                        <set attributeName="fill" to="#808080" begin="arrowDown.mouseover" end="arrowDown.mouseout"/>
                  </use>
                  <path fill="none" stroke="white" stroke-width="1.5" d="M0,-3.0v7 M-2.5,-0.5L0,-3.0L2.5,-0.5"/>
                </g>
                <g id="arrowLeft" xlink:href="#dirArrow" transform="rotate(270) translate(-36 17)" onmousedown="handlePan(-1,0)">
                  <use xlink:href="#rim" fill="#404040">
                        <set attributeName="fill" to="#808080" begin="arrowLeft.mouseover" end="arrowLeft.mouseout"/>
                  </use>
                  <path fill="none" stroke="white" stroke-width="1.5" d="M0,-3.0v7 M-2.5,-0.5L0,-3.0L2.5,-0.5"/>
                </g>
        </g>
        <svg viewBox="0 0 15 15" width="100%" height="30px" preserveAspectRatio="xMaxYMin meet">
         <g id="arrow_out" transform="scale(0.3 0.3)">
          <a xlink:href="a00252_a9b8c2846f781d9fe5180354e573c117d_icgraph_org.svg" target="_base">
           <rect id="button" ry="5" rx="5" y="6" x="6" height="38" width="38"
                fill="#f2f5e9" fill-opacity="0.5" stroke="#606060" stroke-width="1.0"/>
           <path id="arrow"
             d="M 11.500037,31.436501 C 11.940474,20.09759 22.043105,11.32322 32.158766,21.979434 L 37.068811,17.246167 C 37.068811,17.246167 37.088388,32 37.088388,32 L 22.160133,31.978069 C 22.160133,31.978069 26.997745,27.140456 26.997745,27.140456 C 18.528582,18.264221 13.291696,25.230495 11.500037,31.436501 z"
             style="fill:#404040;"/>
          </a>
         </g>
        </svg>
</svg>
