<?xml version="1.0" encoding="UTF-8" standalone="no"?>
<!DOCTYPE svg PUBLIC "-//W3C//DTD SVG 1.1//EN"
 "http://www.w3.org/Graphics/SVG/1.1/DTD/svg11.dtd">
<!-- Generated by graphviz version 2.38.0 (20140413.2041)
 -->
<!-- Title: nars.inference.RuleTables.makeSym Pages: 1 -->
<svg width="1011pt" height="450pt"
 viewBox="0.00 0.00 1011.00 450.00" xmlns="http://www.w3.org/2000/svg" xmlns:xlink="http://www.w3.org/1999/xlink">
<g id="graph0" class="graph" transform="scale(1 1) rotate(0) translate(4 446)">
<title>nars.inference.RuleTables.makeSym</title>
<!-- Node1727 -->
<g id="node1" class="node"><title>Node1727</title>
<polygon fill="#bfbfbf" stroke="black" points="0,-128 0,-147 178,-147 178,-128 0,-128"/>
<text text-anchor="middle" x="89" y="-135" font-family="Helvetica,sans-Serif" font-size="10.00">nars.inference.RuleTables.makeSym</text>
</g>
<!-- Node1728 -->
<g id="node2" class="node"><title>Node1728</title>
<g id="a_node2"><a xlink:href="../../d6/de1/a00356.html#ae72436d78c25d4735b4201d773dd1901" target="_top" xlink:title="Try to make a new compound from two components. ">
<polygon fill="none" stroke="black" points="214,-128 214,-147 362,-147 362,-128 214,-128"/>
<text text-anchor="middle" x="288" y="-135" font-family="Helvetica,sans-Serif" font-size="10.00">nars.language.Similarity.make</text>
</a>
</g>
</g>
<!-- Node1727&#45;&gt;Node1728 -->
<g id="edge1" class="edge"><title>Node1727&#45;&gt;Node1728</title>
<path fill="none" stroke="midnightblue" d="M178.128,-137.5C186.65,-137.5 195.276,-137.5 203.748,-137.5"/>
<polygon fill="midnightblue" stroke="midnightblue" points="203.988,-141 213.988,-137.5 203.988,-134 203.988,-141"/>
</g>
<!-- Node1729 -->
<g id="node3" class="node"><title>Node1729</title>
<g id="a_node3"><a xlink:href="../../d0/d65/a00360.html#a96d4bf7bb99f48b6496cdb7457bc0e50" target="_top" xlink:title="Check the validity of a potential Statement. ">
<polygon fill="none" stroke="black" points="419.5,-289.5 419.5,-319.5 575.5,-319.5 575.5,-289.5 419.5,-289.5"/>
<text text-anchor="start" x="427.5" y="-307.5" font-family="Helvetica,sans-Serif" font-size="10.00">nars.language.Statement.invalid</text>
<text text-anchor="middle" x="497.5" y="-296.5" font-family="Helvetica,sans-Serif" font-size="10.00">Statement</text>
</a>
</g>
</g>
<!-- Node1728&#45;&gt;Node1729 -->
<g id="edge2" class="edge"><title>Node1728&#45;&gt;Node1729</title>
<path fill="none" stroke="midnightblue" d="M300.765,-147.019C320.739,-163.175 362.567,-196.988 398,-225.5 422.209,-244.98 449.808,-267.109 469.621,-282.98"/>
<polygon fill="midnightblue" stroke="midnightblue" points="467.609,-285.854 477.602,-289.373 471.985,-280.39 467.609,-285.854"/>
</g>
<!-- Node1737 -->
<g id="node11" class="node"><title>Node1737</title>
<g id="a_node11"><a xlink:href="../../dc/d59/a00364.html#ab9bc1c9cc779c07b09983b41ed8491e1" target="_top" xlink:title="Check the relative order of two Terms. ">
<polygon fill="none" stroke="black" points="420,-197 420,-216 575,-216 575,-197 420,-197"/>
<text text-anchor="middle" x="497.5" y="-204" font-family="Helvetica,sans-Serif" font-size="10.00">nars.language.Term.compareTo</text>
</a>
</g>
</g>
<!-- Node1728&#45;&gt;Node1737 -->
<g id="edge11" class="edge"><title>Node1728&#45;&gt;Node1737</title>
<path fill="none" stroke="midnightblue" d="M307.023,-147.104C328.246,-158.055 364.82,-175.82 398,-186.5 407.818,-189.66 418.354,-192.427 428.752,-194.814"/>
<polygon fill="midnightblue" stroke="midnightblue" points="428.134,-198.262 438.652,-196.987 429.634,-191.425 428.134,-198.262"/>
</g>
<!-- Node1738 -->
<g id="node12" class="node"><title>Node1738</title>
<g id="a_node12"><a xlink:href="../../d0/d65/a00360.html#a7123aba1c8c566f291e2c9b9d147557d" target="_top" xlink:title="Default method to make the nameStr of an image term from given fields. ">
<polygon fill="none" stroke="black" points="421.5,-147.5 421.5,-177.5 573.5,-177.5 573.5,-147.5 421.5,-147.5"/>
<text text-anchor="start" x="429.5" y="-165.5" font-family="Helvetica,sans-Serif" font-size="10.00">nars.language.Statement.make</text>
<text text-anchor="middle" x="497.5" y="-154.5" font-family="Helvetica,sans-Serif" font-size="10.00">StatementName</text>
</a>
</g>
</g>
<!-- Node1728&#45;&gt;Node1738 -->
<g id="edge13" class="edge"><title>Node1728&#45;&gt;Node1738</title>
<path fill="none" stroke="midnightblue" d="M362.157,-146.314C378.003,-148.223 394.896,-150.259 411.164,-152.219"/>
<polygon fill="midnightblue" stroke="midnightblue" points="410.851,-155.706 421.198,-153.427 411.689,-148.756 410.851,-155.706"/>
</g>
<!-- Node1739 -->
<g id="node13" class="node"><title>Node1739</title>
<g id="a_node13"><a xlink:href="../../d4/d27/a00392.html#ac7c5d438820208253d1a2ee59bf80ddc" target="_top" xlink:title="Get a Term for a given name of a Concept or Operator. ">
<polygon fill="none" stroke="black" points="429.5,-98.5 429.5,-128.5 565.5,-128.5 565.5,-98.5 429.5,-98.5"/>
<text text-anchor="start" x="437.5" y="-116.5" font-family="Helvetica,sans-Serif" font-size="10.00">nars.storage.Memory.name</text>
<text text-anchor="middle" x="497.5" y="-105.5" font-family="Helvetica,sans-Serif" font-size="10.00">ToListedTerm</text>
</a>
</g>
</g>
<!-- Node1728&#45;&gt;Node1739 -->
<g id="edge14" class="edge"><title>Node1728&#45;&gt;Node1739</title>
<path fill="none" stroke="midnightblue" d="M362.157,-129.038C380.652,-126.899 400.572,-124.595 419.261,-122.434"/>
<polygon fill="midnightblue" stroke="midnightblue" points="419.672,-125.91 429.203,-121.284 418.868,-118.956 419.672,-125.91"/>
</g>
<!-- Node1743 -->
<g id="node17" class="node"><title>Node1743</title>
<g id="a_node17"><a xlink:href="../../d6/de1/a00356.html#a5d3eff893c9406991d1c3e81737a408b" target="_top" xlink:title="Constructor with partial values, called by make. ">
<polygon fill="none" stroke="black" points="435.5,-49.5 435.5,-79.5 559.5,-79.5 559.5,-49.5 435.5,-49.5"/>
<text text-anchor="start" x="443.5" y="-67.5" font-family="Helvetica,sans-Serif" font-size="10.00">nars.language.Similarity.</text>
<text text-anchor="middle" x="497.5" y="-56.5" font-family="Helvetica,sans-Serif" font-size="10.00">Similarity</text>
</a>
</g>
</g>
<!-- Node1728&#45;&gt;Node1743 -->
<g id="edge18" class="edge"><title>Node1728&#45;&gt;Node1743</title>
<path fill="none" stroke="midnightblue" d="M307.48,-127.931C328.829,-117.176 365.229,-99.7518 398,-88.5 406.834,-85.4669 416.238,-82.66 425.596,-80.1158"/>
<polygon fill="midnightblue" stroke="midnightblue" points="426.526,-83.4904 435.306,-77.5612 424.745,-76.7208 426.526,-83.4904"/>
</g>
<!-- Node1744 -->
<g id="node18" class="node"><title>Node1744</title>
<g id="a_node18"><a xlink:href="../../d8/d17/a00304.html#a9aacee8d6903ff6eb186d37f78569353" target="_top" xlink:title="build a component list from two terms ">
<polygon fill="none" stroke="black" points="398,-0.5 398,-30.5 597,-30.5 597,-0.5 398,-0.5"/>
<text text-anchor="start" x="406" y="-18.5" font-family="Helvetica,sans-Serif" font-size="10.00">nars.language.CompoundTerm.arguments</text>
<text text-anchor="middle" x="497.5" y="-7.5" font-family="Helvetica,sans-Serif" font-size="10.00">ToList</text>
</a>
</g>
</g>
<!-- Node1728&#45;&gt;Node1744 -->
<g id="edge19" class="edge"><title>Node1728&#45;&gt;Node1744</title>
<path fill="none" stroke="midnightblue" d="M296.887,-127.71C313.43,-107.859 353.89,-62.7819 398,-39.5 401.677,-37.559 405.515,-35.7718 409.452,-34.1267"/>
<polygon fill="midnightblue" stroke="midnightblue" points="410.709,-37.3931 418.789,-30.5401 408.199,-30.8586 410.709,-37.3931"/>
</g>
<!-- Node1730 -->
<g id="node4" class="node"><title>Node1730</title>
<g id="a_node4"><a xlink:href="../../dc/d59/a00364.html#ad85f45a7858737445d5158801774ff5f" target="_top" xlink:title="Equal terms have identical name, though not necessarily the same reference. ">
<polygon fill="none" stroke="black" points="649.5,-226 649.5,-245 783.5,-245 783.5,-226 649.5,-226"/>
<text text-anchor="middle" x="716.5" y="-233" font-family="Helvetica,sans-Serif" font-size="10.00">nars.language.Term.equals</text>
</a>
</g>
</g>
<!-- Node1729&#45;&gt;Node1730 -->
<g id="edge3" class="edge"><title>Node1729&#45;&gt;Node1730</title>
<path fill="none" stroke="midnightblue" d="M536.382,-289.415C563.123,-279.084 599.934,-265.497 633,-255.5 642.318,-252.683 652.321,-249.988 662.034,-247.539"/>
<polygon fill="midnightblue" stroke="midnightblue" points="663.137,-250.872 672.01,-245.083 661.463,-244.075 663.137,-250.872"/>
</g>
<!-- Node1732 -->
<g id="node6" class="node"><title>Node1732</title>
<g id="a_node6"><a xlink:href="../../d8/d17/a00304.html#a89000afae8017231889aaa549292d1e0" target="_top" xlink:title="Default constructor. ">
<polygon fill="none" stroke="black" points="640,-411.5 640,-441.5 793,-441.5 793,-411.5 640,-411.5"/>
<text text-anchor="start" x="648" y="-429.5" font-family="Helvetica,sans-Serif" font-size="10.00">nars.language.CompoundTerm.</text>
<text text-anchor="middle" x="716.5" y="-418.5" font-family="Helvetica,sans-Serif" font-size="10.00">CompoundTerm</text>
</a>
</g>
</g>
<!-- Node1729&#45;&gt;Node1732 -->
<g id="edge5" class="edge"><title>Node1729&#45;&gt;Node1732</title>
<path fill="none" stroke="midnightblue" d="M515.085,-319.579C539.316,-340.876 586.577,-379.708 633,-402.5 636.841,-404.386 640.858,-406.15 644.962,-407.797"/>
<polygon fill="midnightblue" stroke="midnightblue" points="644.063,-411.198 654.655,-411.428 646.518,-404.643 644.063,-411.198"/>
</g>
<!-- Node1733 -->
<g id="node7" class="node"><title>Node1733</title>
<g id="a_node7"><a xlink:href="../../d0/d65/a00360.html#ac56b558891dd2088e0b66b437780c7b7" target="_top" xlink:title="Default constructor. ">
<polygon fill="none" stroke="black" points="652.5,-362.5 652.5,-392.5 780.5,-392.5 780.5,-362.5 652.5,-362.5"/>
<text text-anchor="start" x="660.5" y="-380.5" font-family="Helvetica,sans-Serif" font-size="10.00">nars.language.Statement.</text>
<text text-anchor="middle" x="716.5" y="-369.5" font-family="Helvetica,sans-Serif" font-size="10.00">Statement</text>
</a>
</g>
</g>
<!-- Node1729&#45;&gt;Node1733 -->
<g id="edge6" class="edge"><title>Node1729&#45;&gt;Node1733</title>
<path fill="none" stroke="midnightblue" d="M537.693,-319.557C564.396,-329.623 600.641,-342.912 633,-353.5 639.047,-355.479 645.37,-357.464 651.708,-359.4"/>
<polygon fill="midnightblue" stroke="midnightblue" points="651.059,-362.86 661.644,-362.391 653.078,-356.157 651.059,-362.86"/>
</g>
<!-- Node1734 -->
<g id="node8" class="node"><title>Node1734</title>
<g id="a_node8"><a xlink:href="../../d0/d65/a00360.html#ace4f80751d303c613e467163913bebf5" target="_top" xlink:title="Return the first component of the statement. ">
<polygon fill="none" stroke="black" points="645.5,-313.5 645.5,-343.5 787.5,-343.5 787.5,-313.5 645.5,-313.5"/>
<text text-anchor="start" x="653.5" y="-331.5" font-family="Helvetica,sans-Serif" font-size="10.00">nars.language.Statement.get</text>
<text text-anchor="middle" x="716.5" y="-320.5" font-family="Helvetica,sans-Serif" font-size="10.00">Subject</text>
</a>
</g>
</g>
<!-- Node1729&#45;&gt;Node1734 -->
<g id="edge7" class="edge"><title>Node1729&#45;&gt;Node1734</title>
<path fill="none" stroke="midnightblue" d="M575.617,-313.029C594.912,-315.163 615.656,-317.457 635.106,-319.609"/>
<polygon fill="midnightblue" stroke="midnightblue" points="634.821,-323.098 645.145,-320.719 635.59,-316.141 634.821,-323.098"/>
</g>
<!-- Node1736 -->
<g id="node10" class="node"><title>Node1736</title>
<g id="a_node10"><a xlink:href="../../d0/d65/a00360.html#ababe6155e2f78e769f76493317e118e0" target="_top" xlink:title="Return the second component of the statement. ">
<polygon fill="none" stroke="black" points="645.5,-264.5 645.5,-294.5 787.5,-294.5 787.5,-264.5 645.5,-264.5"/>
<text text-anchor="start" x="653.5" y="-282.5" font-family="Helvetica,sans-Serif" font-size="10.00">nars.language.Statement.get</text>
<text text-anchor="middle" x="716.5" y="-271.5" font-family="Helvetica,sans-Serif" font-size="10.00">Predicate</text>
</a>
</g>
</g>
<!-- Node1729&#45;&gt;Node1736 -->
<g id="edge9" class="edge"><title>Node1729&#45;&gt;Node1736</title>
<path fill="none" stroke="midnightblue" d="M575.617,-295.616C594.912,-293.393 615.656,-291.003 635.106,-288.762"/>
<polygon fill="midnightblue" stroke="midnightblue" points="635.611,-292.227 645.145,-287.605 634.81,-285.273 635.611,-292.227"/>
</g>
<!-- Node1731 -->
<g id="node5" class="node"><title>Node1731</title>
<g id="a_node5"><a xlink:href="../../dc/d59/a00364.html#a3aad4654016b8615fd4fa8a26668e1db" target="_top" xlink:title="Reporting the name of the current Term. ">
<polygon fill="none" stroke="black" points="846.5,-216 846.5,-235 992.5,-235 992.5,-216 846.5,-216"/>
<text text-anchor="middle" x="919.5" y="-223" font-family="Helvetica,sans-Serif" font-size="10.00">nars.language.Term.getName</text>
</a>
</g>
</g>
<!-- Node1730&#45;&gt;Node1731 -->
<g id="edge4" class="edge"><title>Node1730&#45;&gt;Node1731</title>
<path fill="none" stroke="midnightblue" d="M783.593,-232.212C800.428,-231.374 818.727,-230.464 836.259,-229.592"/>
<polygon fill="midnightblue" stroke="midnightblue" points="836.662,-233.076 846.476,-229.083 836.314,-226.085 836.662,-233.076"/>
</g>
<!-- Node1735 -->
<g id="node9" class="node"><title>Node1735</title>
<g id="a_node9"><a xlink:href="../../d8/d17/a00304.html#a9778c35f9b602bee6ccac6a06809e546" target="_top" xlink:title="list of (direct) components ">
<polygon fill="none" stroke="black" points="836,-273.5 836,-303.5 1003,-303.5 1003,-273.5 836,-273.5"/>
<text text-anchor="start" x="844" y="-291.5" font-family="Helvetica,sans-Serif" font-size="10.00">nars.language.CompoundTerm.get</text>
<text text-anchor="middle" x="919.5" y="-280.5" font-family="Helvetica,sans-Serif" font-size="10.00">Components</text>
</a>
</g>
</g>
<!-- Node1734&#45;&gt;Node1735 -->
<g id="edge8" class="edge"><title>Node1734&#45;&gt;Node1735</title>
<path fill="none" stroke="midnightblue" d="M787.518,-314.566C802.202,-311.644 817.846,-308.531 833.022,-305.511"/>
<polygon fill="midnightblue" stroke="midnightblue" points="833.788,-308.927 842.912,-303.542 832.421,-302.062 833.788,-308.927"/>
</g>
<!-- Node1736&#45;&gt;Node1735 -->
<g id="edge10" class="edge"><title>Node1736&#45;&gt;Node1735</title>
<path fill="none" stroke="midnightblue" d="M787.518,-282.635C799.855,-283.188 812.869,-283.77 825.714,-284.345"/>
<polygon fill="midnightblue" stroke="midnightblue" points="825.816,-287.853 835.963,-284.804 826.129,-280.86 825.816,-287.853"/>
</g>
<!-- Node1737&#45;&gt;Node1731 -->
<g id="edge12" class="edge"><title>Node1737&#45;&gt;Node1731</title>
<path fill="none" stroke="midnightblue" d="M575.058,-208.138C636.022,-209.66 723.519,-212.329 800,-216.5 811.749,-217.141 824.145,-217.943 836.316,-218.802"/>
<polygon fill="midnightblue" stroke="midnightblue" points="836.241,-222.306 846.467,-219.535 836.745,-215.324 836.241,-222.306"/>
</g>
<!-- Node1740 -->
<g id="node14" class="node"><title>Node1740</title>
<g id="a_node14"><a xlink:href="../../d4/d27/a00392.html#a33af7b3d806d32c85390563fec3c6d27" target="_top" xlink:title="Concept bag. ">
<polygon fill="none" stroke="black" points="633,-142 633,-161 800,-161 800,-142 633,-142"/>
<text text-anchor="middle" x="716.5" y="-149" font-family="Helvetica,sans-Serif" font-size="10.00">nars.storage.Memory.getConcepts</text>
</a>
</g>
</g>
<!-- Node1739&#45;&gt;Node1740 -->
<g id="edge15" class="edge"><title>Node1739&#45;&gt;Node1740</title>
<path fill="none" stroke="midnightblue" d="M565.674,-125.263C592.826,-130.018 624.037,-135.483 650.921,-140.191"/>
<polygon fill="midnightblue" stroke="midnightblue" points="650.541,-143.678 660.994,-141.955 651.748,-136.783 650.541,-143.678"/>
</g>
<!-- Node1741 -->
<g id="node15" class="node"><title>Node1741</title>
<g id="a_node15"><a xlink:href="../../d6/db8/a00376.html#a011b37fc683db7fb7b41e33712a37d92" target="_top" xlink:title="Get an Item by key. ">
<polygon fill="none" stroke="black" points="663,-104 663,-123 770,-123 770,-104 663,-104"/>
<text text-anchor="middle" x="716.5" y="-111" font-family="Helvetica,sans-Serif" font-size="10.00">nars.storage.Bag.get</text>
</a>
</g>
</g>
<!-- Node1739&#45;&gt;Node1741 -->
<g id="edge16" class="edge"><title>Node1739&#45;&gt;Node1741</title>
<path fill="none" stroke="midnightblue" d="M565.674,-113.5C593.378,-113.5 625.308,-113.5 652.554,-113.5"/>
<polygon fill="midnightblue" stroke="midnightblue" points="652.749,-117 662.749,-113.5 652.749,-110 652.749,-117"/>
</g>
<!-- Node1742 -->
<g id="node16" class="node"><title>Node1742</title>
<g id="a_node16"><a xlink:href="../../d7/ded/a00196.html#afcd1217b7680b073fa51f0d0f159dcea" target="_top" xlink:title="The term is the unique ID of the concept. ">
<polygon fill="none" stroke="black" points="646,-66 646,-85 787,-85 787,-66 646,-66"/>
<text text-anchor="middle" x="716.5" y="-73" font-family="Helvetica,sans-Serif" font-size="10.00">nars.entity.Concept.getTerm</text>
</a>
</g>
</g>
<!-- Node1739&#45;&gt;Node1742 -->
<g id="edge17" class="edge"><title>Node1739&#45;&gt;Node1742</title>
<path fill="none" stroke="midnightblue" d="M565.674,-101.737C592.826,-96.9821 624.037,-91.5165 650.921,-86.8088"/>
<polygon fill="midnightblue" stroke="midnightblue" points="651.748,-90.2173 660.994,-85.0447 650.541,-83.3222 651.748,-90.2173"/>
</g>
</g>
</svg>
