<?xml version="1.0" encoding="UTF-8" standalone="no"?>
<!DOCTYPE svg PUBLIC "-//W3C//DTD SVG 1.1//EN"
 "http://www.w3.org/Graphics/SVG/1.1/DTD/svg11.dtd">
<!-- Generated by graphviz version 2.38.0 (20140413.2041)
 -->
<!-- Title: nars.inference.RuleTables.componentAndStatement Pages: 1 -->
<svg width="1848pt" height="39pt"
 viewBox="0.00 0.00 1848.00 39.00" xmlns="http://www.w3.org/2000/svg" xmlns:xlink="http://www.w3.org/1999/xlink">
<g id="graph0" class="graph" transform="scale(1 1) rotate(0) translate(4 35)">
<title>nars.inference.RuleTables.componentAndStatement</title>
<!-- Node424 -->
<g id="node1" class="node"><title>Node424</title>
<polygon fill="#bfbfbf" stroke="black" points="0,-0.5 0,-30.5 182,-30.5 182,-0.5 0,-0.5"/>
<text text-anchor="start" x="8" y="-18.5" font-family="Helvetica,sans-Serif" font-size="10.00">nars.inference.RuleTables.component</text>
<text text-anchor="middle" x="91" y="-7.5" font-family="Helvetica,sans-Serif" font-size="10.00">AndStatement</text>
</g>
<!-- Node425 -->
<g id="node2" class="node"><title>Node425</title>
<g id="a_node2"><a xlink:href="../../dc/ded/a00252.html#ac2d01dfdc40bdd47c757cb549217e6e3" target="_top" xlink:title="Entry point of the inference engine. ">
<polygon fill="none" stroke="black" points="218,-6 218,-25 381,-25 381,-6 218,-6"/>
<text text-anchor="middle" x="299.5" y="-13" font-family="Helvetica,sans-Serif" font-size="10.00">nars.inference.RuleTables.reason</text>
</a>
</g>
</g>
<!-- Node424&#45;&gt;Node425 -->
<g id="edge1" class="edge"><title>Node424&#45;&gt;Node425</title>
<path fill="none" stroke="midnightblue" d="M192.295,-15.5C200.855,-15.5 209.442,-15.5 217.82,-15.5"/>
<polygon fill="midnightblue" stroke="midnightblue" points="192.274,-12.0001 182.274,-15.5 192.273,-19.0001 192.274,-12.0001"/>
</g>
<!-- Node426 -->
<g id="node3" class="node"><title>Node426</title>
<g id="a_node3"><a xlink:href="../../d7/ded/a00196.html#ad6fb91dda799c3092ecb186ef24ca92a" target="_top" xlink:title="An atomic step in a concept, only called in Memory# processConcept. ">
<polygon fill="none" stroke="black" points="417,-0.5 417,-30.5 536,-30.5 536,-0.5 417,-0.5"/>
<text text-anchor="start" x="425" y="-18.5" font-family="Helvetica,sans-Serif" font-size="10.00">nars.entity.Concept.fire</text>
<text text-anchor="middle" x="476.5" y="-7.5" font-family="Helvetica,sans-Serif" font-size="10.00">FromProcessConcept</text>
</a>
</g>
</g>
<!-- Node425&#45;&gt;Node426 -->
<g id="edge2" class="edge"><title>Node425&#45;&gt;Node426</title>
<path fill="none" stroke="midnightblue" d="M391.249,-15.5C399.907,-15.5 408.523,-15.5 416.757,-15.5"/>
<polygon fill="midnightblue" stroke="midnightblue" points="391.085,-12.0001 381.085,-15.5 391.085,-19.0001 391.085,-12.0001"/>
</g>
<!-- Node427 -->
<g id="node4" class="node"><title>Node427</title>
<g id="a_node4"><a xlink:href="../../d4/d27/a00392.html#a0acc4adbf6a2462245da46bcb529746c" target="_top" xlink:title="Select a concept to fireFromProcessConcept. ">
<polygon fill="none" stroke="black" points="572,-0.5 572,-30.5 718,-30.5 718,-0.5 572,-0.5"/>
<text text-anchor="start" x="580" y="-18.5" font-family="Helvetica,sans-Serif" font-size="10.00">nars.storage.Memory.process</text>
<text text-anchor="middle" x="645" y="-7.5" font-family="Helvetica,sans-Serif" font-size="10.00">Concept</text>
</a>
</g>
</g>
<!-- Node426&#45;&gt;Node427 -->
<g id="edge3" class="edge"><title>Node426&#45;&gt;Node427</title>
<path fill="none" stroke="midnightblue" d="M546.337,-15.5C554.748,-15.5 563.361,-15.5 571.819,-15.5"/>
<polygon fill="midnightblue" stroke="midnightblue" points="546.202,-12.0001 536.202,-15.5 546.202,-19.0001 546.202,-12.0001"/>
</g>
<!-- Node428 -->
<g id="node5" class="node"><title>Node428</title>
<g id="a_node5"><a xlink:href="../../d4/d27/a00392.html#a59ae339d666409988d90d29be4f73a91" target="_top" xlink:title="An atomic working workCycle of the system: process new Tasks, then fireFromProcessConcept a concept...">
<polygon fill="none" stroke="black" points="754,-0.5 754,-30.5 887,-30.5 887,-0.5 754,-0.5"/>
<text text-anchor="start" x="762" y="-18.5" font-family="Helvetica,sans-Serif" font-size="10.00">nars.storage.Memory.work</text>
<text text-anchor="middle" x="820.5" y="-7.5" font-family="Helvetica,sans-Serif" font-size="10.00">Cycle</text>
</a>
</g>
</g>
<!-- Node427&#45;&gt;Node428 -->
<g id="edge4" class="edge"><title>Node427&#45;&gt;Node428</title>
<path fill="none" stroke="midnightblue" d="M728.118,-15.5C736.716,-15.5 745.375,-15.5 753.755,-15.5"/>
<polygon fill="midnightblue" stroke="midnightblue" points="728.072,-12.0001 718.072,-15.5 728.072,-19.0001 728.072,-12.0001"/>
</g>
<!-- Node429 -->
<g id="node6" class="node"><title>Node429</title>
<g id="a_node6"><a xlink:href="../../df/d15/a00416.html#a0d5c797dc17d9e8d0998852915e0f303" target="_top" xlink:title="nars.storage.ReasonerBatch.doTick">
<polygon fill="none" stroke="black" points="923,-6 923,-25 1096,-25 1096,-6 923,-6"/>
<text text-anchor="middle" x="1009.5" y="-13" font-family="Helvetica,sans-Serif" font-size="10.00">nars.storage.ReasonerBatch.doTick</text>
</a>
</g>
</g>
<!-- Node428&#45;&gt;Node429 -->
<g id="edge5" class="edge"><title>Node428&#45;&gt;Node429</title>
<path fill="none" stroke="midnightblue" d="M897.343,-15.5C905.782,-15.5 914.421,-15.5 922.971,-15.5"/>
<polygon fill="midnightblue" stroke="midnightblue" points="897.166,-12.0001 887.166,-15.5 897.166,-19.0001 897.166,-12.0001"/>
</g>
<!-- Node430 -->
<g id="node7" class="node"><title>Node430</title>
<g id="a_node7"><a xlink:href="../../df/d15/a00416.html#a3468aa0f99edcd66412f27922dddb880" target="_top" xlink:title="A clock tick. ">
<polygon fill="none" stroke="black" points="1132,-6 1132,-25 1292,-25 1292,-6 1132,-6"/>
<text text-anchor="middle" x="1212" y="-13" font-family="Helvetica,sans-Serif" font-size="10.00">nars.storage.ReasonerBatch.tick</text>
</a>
</g>
</g>
<!-- Node429&#45;&gt;Node430 -->
<g id="edge6" class="edge"><title>Node429&#45;&gt;Node430</title>
<path fill="none" stroke="midnightblue" d="M1106.13,-15.5C1114.7,-15.5 1123.31,-15.5 1131.71,-15.5"/>
<polygon fill="midnightblue" stroke="midnightblue" points="1106.11,-12.0001 1096.11,-15.5 1106.11,-19.0001 1106.11,-12.0001"/>
</g>
<!-- Node431 -->
<g id="node8" class="node"><title>Node431</title>
<g id="a_node8"><a xlink:href="../../d9/da1/a00396.html#a5d9cfe517bcfbe41e5251910bcd119c1" target="_top" xlink:title="Run to completion: repeatedly execute NARS working cycle, until Inputs are Finished, or 1000 steps. ">
<polygon fill="none" stroke="black" points="1328,-6 1328,-25 1472,-25 1472,-6 1328,-6"/>
<text text-anchor="middle" x="1400" y="-13" font-family="Helvetica,sans-Serif" font-size="10.00">nars.storage.NARSBatch.run</text>
</a>
</g>
</g>
<!-- Node430&#45;&gt;Node431 -->
<g id="edge7" class="edge"><title>Node430&#45;&gt;Node431</title>
<path fill="none" stroke="midnightblue" d="M1302.22,-15.5C1310.82,-15.5 1319.47,-15.5 1327.87,-15.5"/>
<polygon fill="midnightblue" stroke="midnightblue" points="1302.15,-12.0001 1292.15,-15.5 1302.15,-19.0001 1302.15,-12.0001"/>
</g>
<!-- Node432 -->
<g id="node9" class="node"><title>Node432</title>
<g id="a_node9"><a xlink:href="../../d9/da1/a00396.html#a7c307c6b842f82664de6b0e52bdf8efc" target="_top" xlink:title="non&#45;static equivalent to main(String[]) : run to completion from an input file ">
<polygon fill="none" stroke="black" points="1508,-0.5 1508,-30.5 1652,-30.5 1652,-0.5 1508,-0.5"/>
<text text-anchor="start" x="1516" y="-18.5" font-family="Helvetica,sans-Serif" font-size="10.00">nars.storage.NARSBatch.run</text>
<text text-anchor="middle" x="1580" y="-7.5" font-family="Helvetica,sans-Serif" font-size="10.00">Inference</text>
</a>
</g>
</g>
<!-- Node431&#45;&gt;Node432 -->
<g id="edge8" class="edge"><title>Node431&#45;&gt;Node432</title>
<path fill="none" stroke="midnightblue" d="M1482.17,-15.5C1490.79,-15.5 1499.51,-15.5 1508,-15.5"/>
<polygon fill="midnightblue" stroke="midnightblue" points="1482.12,-12.0001 1472.12,-15.5 1482.12,-19.0001 1482.12,-12.0001"/>
</g>
<!-- Node433 -->
<g id="node10" class="node"><title>Node433</title>
<g id="a_node10"><a xlink:href="../../d9/da1/a00396.html#abafc597289bc2f6453b5cd0dd6634e54" target="_top" xlink:title="The entry point of the standalone application. ">
<polygon fill="none" stroke="black" points="1688,-6 1688,-25 1840,-25 1840,-6 1688,-6"/>
<text text-anchor="middle" x="1764" y="-13" font-family="Helvetica,sans-Serif" font-size="10.00">nars.storage.NARSBatch.main</text>
</a>
</g>
</g>
<!-- Node432&#45;&gt;Node433 -->
<g id="edge9" class="edge"><title>Node432&#45;&gt;Node433</title>
<path fill="none" stroke="midnightblue" d="M1662.17,-15.5C1670.76,-15.5 1679.48,-15.5 1688,-15.5"/>
<polygon fill="midnightblue" stroke="midnightblue" points="1662.15,-12.0001 1652.15,-15.5 1662.15,-19.0001 1662.15,-12.0001"/>
</g>
</g>
</svg>
