<?xml version="1.0" encoding="UTF-8" standalone="no"?>
<!DOCTYPE svg PUBLIC "-//W3C//DTD SVG 1.1//EN"
 "http://www.w3.org/Graphics/SVG/1.1/DTD/svg11.dtd">
<!-- Generated by graphviz version 2.38.0 (20140413.2041)
 -->
<!-- Title: nars.inference.RuleTables.compoundAndSelf Pages: 1 -->
<!--zoomable 61 -->
<svg id="main" version="1.1" xmlns="http://www.w3.org/2000/svg" xmlns:xlink="http://www.w3.org/1999/xlink" xml:space="preserve" onload="init(evt)">
<style type="text/css"><![CDATA[
.edge:hover path { stroke: red; }
.edge:hover polygon { stroke: red; fill: red; }
]]></style>
<script type="text/javascript"><![CDATA[
var edges = document.getElementsByTagName('g');
if (edges && edges.length) {
  for (var i=0;i<edges.length;i++) {
    if (edges[i].id.substr(0,4)=='edge') {
      edges[i].setAttribute('class','edge');
    }
  }
}
]]></script>
        <defs>
                <circle id="rim" cx="0" cy="0" r="7"/>
                <circle id="rim2" cx="0" cy="0" r="3.5"/>
                <g id="zoomPlus">
                        <use xlink:href="#rim" fill="#404040">
                                <set attributeName="fill" to="#808080" begin="zoomplus.mouseover" end="zoomplus.mouseout"/>
                        </use>
                        <path d="M-4,0h8M0,-4v8" fill="none" stroke="white" stroke-width="1.5" pointer-events="none"/>
                </g>
                <g id="zoomMin">
                        <use xlink:href="#rim" fill="#404040">
                                <set attributeName="fill" to="#808080" begin="zoomminus.mouseover" end="zoomminus.mouseout"/>
                        </use>
                        <path d="M-4,0h8" fill="none" stroke="white" stroke-width="1.5" pointer-events="none"/>
                </g>
                <g id="dirArrow">
                        <path fill="none" stroke="white" stroke-width="1.5" d="M0,-3.0v7 M-2.5,-0.5L0,-3.0L2.5,-0.5"/>
                </g>
               <g id="resetDef">
                       <use xlink:href="#rim2" fill="#404040">
                               <set attributeName="fill" to="#808080" begin="reset.mouseover" end="reset.mouseout"/>
                       </use>
               </g>
        </defs>

<script type="text/javascript">
var viewWidth = 2060;
var viewHeight = 61;
var sectionId = 'dynsection-13';
</script>
<script xlink:href="../../svgpan.js"/>
<svg id="graph" class="graph">
<g id="viewport">
<title>nars.inference.RuleTables.compoundAndSelf</title>
<!-- Node594 -->
<g id="node1" class="node"><title>Node594</title>
<polygon fill="#bfbfbf" stroke="black" points="0,-0.5 0,-30.5 179,-30.5 179,-0.5 0,-0.5"/>
<text text-anchor="start" x="8" y="-18.5" font-family="Helvetica,sans-Serif" font-size="10.00">nars.inference.RuleTables.compound</text>
<text text-anchor="middle" x="89.5" y="-7.5" font-family="Helvetica,sans-Serif" font-size="10.00">AndSelf</text>
</g>
<!-- Node595 -->
<g id="node2" class="node"><title>Node595</title>
<g id="a_node2"><a xlink:href="../../dc/ded/a00252.html#a764dbc9ccccf406df45e09fbfeda928f" target="_top" xlink:title="Inference between two compound terms. ">
<polygon fill="none" stroke="black" points="215,-22.5 215,-52.5 394,-52.5 394,-22.5 215,-22.5"/>
<text text-anchor="start" x="223" y="-40.5" font-family="Helvetica,sans-Serif" font-size="10.00">nars.inference.RuleTables.compound</text>
<text text-anchor="middle" x="304.5" y="-29.5" font-family="Helvetica,sans-Serif" font-size="10.00">AndCompound</text>
</a>
</g>
</g>
<!-- Node594&#45;&gt;Node595 -->
<g id="edge1" class="edge"><title>Node594&#45;&gt;Node595</title>
<path fill="none" stroke="midnightblue" d="M189.266,-25.7012C197.803,-26.5829 206.406,-27.4715 214.855,-28.3442"/>
<polygon fill="midnightblue" stroke="midnightblue" points="189.596,-22.2167 179.289,-24.6707 188.876,-29.1796 189.596,-22.2167"/>
</g>
<!-- Node596 -->
<g id="node3" class="node"><title>Node596</title>
<g id="a_node3"><a xlink:href="../../dc/ded/a00252.html#ac2d01dfdc40bdd47c757cb549217e6e3" target="_top" xlink:title="Entry point of the inference engine. ">
<polygon fill="none" stroke="black" points="430,-6 430,-25 593,-25 593,-6 430,-6"/>
<text text-anchor="middle" x="511.5" y="-13" font-family="Helvetica,sans-Serif" font-size="10.00">nars.inference.RuleTables.reason</text>
</a>
</g>
</g>
<!-- Node594&#45;&gt;Node596 -->
<g id="edge11" class="edge"><title>Node594&#45;&gt;Node596</title>
<path fill="none" stroke="midnightblue" d="M189.409,-13.7665C198.064,-13.6586 206.688,-13.5668 215,-13.5 294.553,-12.8611 314.447,-12.8172 394,-13.5 405.631,-13.5998 417.915,-13.7557 429.971,-13.9374"/>
<polygon fill="midnightblue" stroke="midnightblue" points="189.205,-10.2687 179.252,-13.8999 189.297,-17.2681 189.205,-10.2687"/>
</g>
<!-- Node595&#45;&gt;Node596 -->
<g id="edge2" class="edge"><title>Node595&#45;&gt;Node596</title>
<path fill="none" stroke="midnightblue" d="M404.22,-26.9056C412.762,-25.989 421.338,-25.0686 429.712,-24.1699"/>
<polygon fill="midnightblue" stroke="midnightblue" points="403.793,-23.4313 394.224,-27.9784 404.54,-30.3913 403.793,-23.4313"/>
</g>
<!-- Node597 -->
<g id="node4" class="node"><title>Node597</title>
<g id="a_node4"><a xlink:href="../../d7/ded/a00196.html#ad6fb91dda799c3092ecb186ef24ca92a" target="_top" xlink:title="An atomic step in a concept, only called in Memory# processConcept. ">
<polygon fill="none" stroke="black" points="629,-0.5 629,-30.5 748,-30.5 748,-0.5 629,-0.5"/>
<text text-anchor="start" x="637" y="-18.5" font-family="Helvetica,sans-Serif" font-size="10.00">nars.entity.Concept.fire</text>
<text text-anchor="middle" x="688.5" y="-7.5" font-family="Helvetica,sans-Serif" font-size="10.00">FromProcessConcept</text>
</a>
</g>
</g>
<!-- Node596&#45;&gt;Node597 -->
<g id="edge3" class="edge"><title>Node596&#45;&gt;Node597</title>
<path fill="none" stroke="midnightblue" d="M603.249,-15.5C611.907,-15.5 620.523,-15.5 628.757,-15.5"/>
<polygon fill="midnightblue" stroke="midnightblue" points="603.085,-12.0001 593.085,-15.5 603.085,-19.0001 603.085,-12.0001"/>
</g>
<!-- Node598 -->
<g id="node5" class="node"><title>Node598</title>
<g id="a_node5"><a xlink:href="../../d4/d27/a00392.html#a0acc4adbf6a2462245da46bcb529746c" target="_top" xlink:title="Select a concept to fireFromProcessConcept. ">
<polygon fill="none" stroke="black" points="784,-0.5 784,-30.5 930,-30.5 930,-0.5 784,-0.5"/>
<text text-anchor="start" x="792" y="-18.5" font-family="Helvetica,sans-Serif" font-size="10.00">nars.storage.Memory.process</text>
<text text-anchor="middle" x="857" y="-7.5" font-family="Helvetica,sans-Serif" font-size="10.00">Concept</text>
</a>
</g>
</g>
<!-- Node597&#45;&gt;Node598 -->
<g id="edge4" class="edge"><title>Node597&#45;&gt;Node598</title>
<path fill="none" stroke="midnightblue" d="M758.337,-15.5C766.748,-15.5 775.361,-15.5 783.819,-15.5"/>
<polygon fill="midnightblue" stroke="midnightblue" points="758.202,-12.0001 748.202,-15.5 758.202,-19.0001 758.202,-12.0001"/>
</g>
<!-- Node599 -->
<g id="node6" class="node"><title>Node599</title>
<g id="a_node6"><a xlink:href="../../d4/d27/a00392.html#a59ae339d666409988d90d29be4f73a91" target="_top" xlink:title="An atomic working workCycle of the system: process new Tasks, then fireFromProcessConcept a concept...">
<polygon fill="none" stroke="black" points="966,-0.5 966,-30.5 1099,-30.5 1099,-0.5 966,-0.5"/>
<text text-anchor="start" x="974" y="-18.5" font-family="Helvetica,sans-Serif" font-size="10.00">nars.storage.Memory.work</text>
<text text-anchor="middle" x="1032.5" y="-7.5" font-family="Helvetica,sans-Serif" font-size="10.00">Cycle</text>
</a>
</g>
</g>
<!-- Node598&#45;&gt;Node599 -->
<g id="edge5" class="edge"><title>Node598&#45;&gt;Node599</title>
<path fill="none" stroke="midnightblue" d="M940.118,-15.5C948.716,-15.5 957.375,-15.5 965.755,-15.5"/>
<polygon fill="midnightblue" stroke="midnightblue" points="940.072,-12.0001 930.072,-15.5 940.072,-19.0001 940.072,-12.0001"/>
</g>
<!-- Node600 -->
<g id="node7" class="node"><title>Node600</title>
<g id="a_node7"><a xlink:href="../../df/d15/a00416.html#a0d5c797dc17d9e8d0998852915e0f303" target="_top" xlink:title="nars.storage.ReasonerBatch.doTick">
<polygon fill="none" stroke="black" points="1135,-6 1135,-25 1308,-25 1308,-6 1135,-6"/>
<text text-anchor="middle" x="1221.5" y="-13" font-family="Helvetica,sans-Serif" font-size="10.00">nars.storage.ReasonerBatch.doTick</text>
</a>
</g>
</g>
<!-- Node599&#45;&gt;Node600 -->
<g id="edge6" class="edge"><title>Node599&#45;&gt;Node600</title>
<path fill="none" stroke="midnightblue" d="M1109.34,-15.5C1117.78,-15.5 1126.42,-15.5 1134.97,-15.5"/>
<polygon fill="midnightblue" stroke="midnightblue" points="1109.17,-12.0001 1099.17,-15.5 1109.17,-19.0001 1109.17,-12.0001"/>
</g>
<!-- Node601 -->
<g id="node8" class="node"><title>Node601</title>
<g id="a_node8"><a xlink:href="../../df/d15/a00416.html#a3468aa0f99edcd66412f27922dddb880" target="_top" xlink:title="A clock tick. ">
<polygon fill="none" stroke="black" points="1344,-6 1344,-25 1504,-25 1504,-6 1344,-6"/>
<text text-anchor="middle" x="1424" y="-13" font-family="Helvetica,sans-Serif" font-size="10.00">nars.storage.ReasonerBatch.tick</text>
</a>
</g>
</g>
<!-- Node600&#45;&gt;Node601 -->
<g id="edge7" class="edge"><title>Node600&#45;&gt;Node601</title>
<path fill="none" stroke="midnightblue" d="M1318.13,-15.5C1326.7,-15.5 1335.31,-15.5 1343.71,-15.5"/>
<polygon fill="midnightblue" stroke="midnightblue" points="1318.11,-12.0001 1308.11,-15.5 1318.11,-19.0001 1318.11,-12.0001"/>
</g>
<!-- Node602 -->
<g id="node9" class="node"><title>Node602</title>
<g id="a_node9"><a xlink:href="../../d9/da1/a00396.html#a5d9cfe517bcfbe41e5251910bcd119c1" target="_top" xlink:title="Run to completion: repeatedly execute NARS working cycle, until Inputs are Finished, or 1000 steps. ">
<polygon fill="none" stroke="black" points="1540,-6 1540,-25 1684,-25 1684,-6 1540,-6"/>
<text text-anchor="middle" x="1612" y="-13" font-family="Helvetica,sans-Serif" font-size="10.00">nars.storage.NARSBatch.run</text>
</a>
</g>
</g>
<!-- Node601&#45;&gt;Node602 -->
<g id="edge8" class="edge"><title>Node601&#45;&gt;Node602</title>
<path fill="none" stroke="midnightblue" d="M1514.22,-15.5C1522.82,-15.5 1531.47,-15.5 1539.87,-15.5"/>
<polygon fill="midnightblue" stroke="midnightblue" points="1514.15,-12.0001 1504.15,-15.5 1514.15,-19.0001 1514.15,-12.0001"/>
</g>
<!-- Node603 -->
<g id="node10" class="node"><title>Node603</title>
<g id="a_node10"><a xlink:href="../../d9/da1/a00396.html#a7c307c6b842f82664de6b0e52bdf8efc" target="_top" xlink:title="non&#45;static equivalent to main(String[]) : run to completion from an input file ">
<polygon fill="none" stroke="black" points="1720,-0.5 1720,-30.5 1864,-30.5 1864,-0.5 1720,-0.5"/>
<text text-anchor="start" x="1728" y="-18.5" font-family="Helvetica,sans-Serif" font-size="10.00">nars.storage.NARSBatch.run</text>
<text text-anchor="middle" x="1792" y="-7.5" font-family="Helvetica,sans-Serif" font-size="10.00">Inference</text>
</a>
</g>
</g>
<!-- Node602&#45;&gt;Node603 -->
<g id="edge9" class="edge"><title>Node602&#45;&gt;Node603</title>
<path fill="none" stroke="midnightblue" d="M1694.17,-15.5C1702.79,-15.5 1711.51,-15.5 1720,-15.5"/>
<polygon fill="midnightblue" stroke="midnightblue" points="1694.12,-12.0001 1684.12,-15.5 1694.12,-19.0001 1694.12,-12.0001"/>
</g>
<!-- Node604 -->
<g id="node11" class="node"><title>Node604</title>
<g id="a_node11"><a xlink:href="../../d9/da1/a00396.html#abafc597289bc2f6453b5cd0dd6634e54" target="_top" xlink:title="The entry point of the standalone application. ">
<polygon fill="none" stroke="black" points="1900,-6 1900,-25 2052,-25 2052,-6 1900,-6"/>
<text text-anchor="middle" x="1976" y="-13" font-family="Helvetica,sans-Serif" font-size="10.00">nars.storage.NARSBatch.main</text>
</a>
</g>
</g>
<!-- Node603&#45;&gt;Node604 -->
<g id="edge10" class="edge"><title>Node603&#45;&gt;Node604</title>
<path fill="none" stroke="midnightblue" d="M1874.17,-15.5C1882.76,-15.5 1891.48,-15.5 1900,-15.5"/>
<polygon fill="midnightblue" stroke="midnightblue" points="1874.15,-12.0001 1864.15,-15.5 1874.15,-19.0001 1874.15,-12.0001"/>
</g>
</g>
</svg>
        <g id="navigator" transform="translate(0 0)" fill="#404254">
                <rect fill="#f2f5e9" fill-opacity="0.5" stroke="#606060" stroke-width=".5" x="0" y="0" width="60" height="60"/>
                <use id="zoomplus" xlink:href="#zoomPlus" x="17" y="9" onmousedown="handleZoom(evt,'in')"/>
                <use id="zoomminus" xlink:href="#zoomMin" x="42" y="9" onmousedown="handleZoom(evt,'out')"/>
                <use id="reset" xlink:href="#resetDef" x="30" y="36" onmousedown="handleReset()"/>
                <g id="arrowUp" xlink:href="#dirArrow" transform="translate(30 24)" onmousedown="handlePan(0,-1)">
                  <use xlink:href="#rim" fill="#404040">
                        <set attributeName="fill" to="#808080" begin="arrowUp.mouseover" end="arrowUp.mouseout"/>
                  </use>
                  <path fill="none" stroke="white" stroke-width="1.5" d="M0,-3.0v7 M-2.5,-0.5L0,-3.0L2.5,-0.5"/>
                </g>
                <g id="arrowRight" xlink:href="#dirArrow" transform="rotate(90) translate(36 -43)" onmousedown="handlePan(1,0)">
                  <use xlink:href="#rim" fill="#404040">
                        <set attributeName="fill" to="#808080" begin="arrowRight.mouseover" end="arrowRight.mouseout"/>
                  </use>
                  <path fill="none" stroke="white" stroke-width="1.5" d="M0,-3.0v7 M-2.5,-0.5L0,-3.0L2.5,-0.5"/>
                </g>
                <g id="arrowDown" xlink:href="#dirArrow" transform="rotate(180) translate(-30 -48)" onmousedown="handlePan(0,1)">
                  <use xlink:href="#rim" fill="#404040">
                        <set attributeName="fill" to="#808080" begin="arrowDown.mouseover" end="arrowDown.mouseout"/>
                  </use>
                  <path fill="none" stroke="white" stroke-width="1.5" d="M0,-3.0v7 M-2.5,-0.5L0,-3.0L2.5,-0.5"/>
                </g>
                <g id="arrowLeft" xlink:href="#dirArrow" transform="rotate(270) translate(-36 17)" onmousedown="handlePan(-1,0)">
                  <use xlink:href="#rim" fill="#404040">
                        <set attributeName="fill" to="#808080" begin="arrowLeft.mouseover" end="arrowLeft.mouseout"/>
                  </use>
                  <path fill="none" stroke="white" stroke-width="1.5" d="M0,-3.0v7 M-2.5,-0.5L0,-3.0L2.5,-0.5"/>
                </g>
        </g>
        <svg viewBox="0 0 15 15" width="100%" height="30px" preserveAspectRatio="xMaxYMin meet">
         <g id="arrow_out" transform="scale(0.3 0.3)">
          <a xlink:href="a00252_a00ffbf7a9069cfd135acae4b46d78d05_icgraph_org.svg" target="_base">
           <rect id="button" ry="5" rx="5" y="6" x="6" height="38" width="38"
                fill="#f2f5e9" fill-opacity="0.5" stroke="#606060" stroke-width="1.0"/>
           <path id="arrow"
             d="M 11.500037,31.436501 C 11.940474,20.09759 22.043105,11.32322 32.158766,21.979434 L 37.068811,17.246167 C 37.068811,17.246167 37.088388,32 37.088388,32 L 22.160133,31.978069 C 22.160133,31.978069 26.997745,27.140456 26.997745,27.140456 C 18.528582,18.264221 13.291696,25.230495 11.500037,31.436501 z"
             style="fill:#404040;"/>
          </a>
         </g>
        </svg>
</svg>
