<?xml version="1.0" encoding="UTF-8" standalone="no"?>
<!DOCTYPE svg PUBLIC "-//W3C//DTD SVG 1.1//EN"
 "http://www.w3.org/Graphics/SVG/1.1/DTD/svg11.dtd">
<!-- Generated by graphviz version 2.38.0 (20140413.2041)
 -->
<!-- Title: nars.inference.RuleTables.conditionalDedIndWithVar Pages: 1 -->
<svg width="1846pt" height="39pt"
 viewBox="0.00 0.00 1846.00 39.00" xmlns="http://www.w3.org/2000/svg" xmlns:xlink="http://www.w3.org/1999/xlink">
<g id="graph0" class="graph" transform="scale(1 1) rotate(0) translate(4 35)">
<title>nars.inference.RuleTables.conditionalDedIndWithVar</title>
<!-- Node1126 -->
<g id="node1" class="node"><title>Node1126</title>
<polygon fill="#bfbfbf" stroke="black" points="0,-0.5 0,-30.5 180,-30.5 180,-0.5 0,-0.5"/>
<text text-anchor="start" x="8" y="-18.5" font-family="Helvetica,sans-Serif" font-size="10.00">nars.inference.RuleTables.conditional</text>
<text text-anchor="middle" x="90" y="-7.5" font-family="Helvetica,sans-Serif" font-size="10.00">DedIndWithVar</text>
</g>
<!-- Node1127 -->
<g id="node2" class="node"><title>Node1127</title>
<g id="a_node2"><a xlink:href="../../dc/ded/a00252.html#ac2d01dfdc40bdd47c757cb549217e6e3" target="_top" xlink:title="Entry point of the inference engine. ">
<polygon fill="none" stroke="black" points="216,-6 216,-25 379,-25 379,-6 216,-6"/>
<text text-anchor="middle" x="297.5" y="-13" font-family="Helvetica,sans-Serif" font-size="10.00">nars.inference.RuleTables.reason</text>
</a>
</g>
</g>
<!-- Node1126&#45;&gt;Node1127 -->
<g id="edge1" class="edge"><title>Node1126&#45;&gt;Node1127</title>
<path fill="none" stroke="midnightblue" d="M190.244,-15.5C198.792,-15.5 207.372,-15.5 215.747,-15.5"/>
<polygon fill="midnightblue" stroke="midnightblue" points="190.239,-12.0001 180.239,-15.5 190.239,-19.0001 190.239,-12.0001"/>
</g>
<!-- Node1128 -->
<g id="node3" class="node"><title>Node1128</title>
<g id="a_node3"><a xlink:href="../../d7/ded/a00196.html#ad6fb91dda799c3092ecb186ef24ca92a" target="_top" xlink:title="An atomic step in a concept, only called in Memory# processConcept. ">
<polygon fill="none" stroke="black" points="415,-0.5 415,-30.5 534,-30.5 534,-0.5 415,-0.5"/>
<text text-anchor="start" x="423" y="-18.5" font-family="Helvetica,sans-Serif" font-size="10.00">nars.entity.Concept.fire</text>
<text text-anchor="middle" x="474.5" y="-7.5" font-family="Helvetica,sans-Serif" font-size="10.00">FromProcessConcept</text>
</a>
</g>
</g>
<!-- Node1127&#45;&gt;Node1128 -->
<g id="edge2" class="edge"><title>Node1127&#45;&gt;Node1128</title>
<path fill="none" stroke="midnightblue" d="M389.249,-15.5C397.907,-15.5 406.523,-15.5 414.757,-15.5"/>
<polygon fill="midnightblue" stroke="midnightblue" points="389.085,-12.0001 379.085,-15.5 389.085,-19.0001 389.085,-12.0001"/>
</g>
<!-- Node1129 -->
<g id="node4" class="node"><title>Node1129</title>
<g id="a_node4"><a xlink:href="../../d4/d27/a00392.html#a0acc4adbf6a2462245da46bcb529746c" target="_top" xlink:title="Select a concept to fireFromProcessConcept. ">
<polygon fill="none" stroke="black" points="570,-0.5 570,-30.5 716,-30.5 716,-0.5 570,-0.5"/>
<text text-anchor="start" x="578" y="-18.5" font-family="Helvetica,sans-Serif" font-size="10.00">nars.storage.Memory.process</text>
<text text-anchor="middle" x="643" y="-7.5" font-family="Helvetica,sans-Serif" font-size="10.00">Concept</text>
</a>
</g>
</g>
<!-- Node1128&#45;&gt;Node1129 -->
<g id="edge3" class="edge"><title>Node1128&#45;&gt;Node1129</title>
<path fill="none" stroke="midnightblue" d="M544.337,-15.5C552.748,-15.5 561.361,-15.5 569.819,-15.5"/>
<polygon fill="midnightblue" stroke="midnightblue" points="544.202,-12.0001 534.202,-15.5 544.202,-19.0001 544.202,-12.0001"/>
</g>
<!-- Node1130 -->
<g id="node5" class="node"><title>Node1130</title>
<g id="a_node5"><a xlink:href="../../d4/d27/a00392.html#a59ae339d666409988d90d29be4f73a91" target="_top" xlink:title="An atomic working workCycle of the system: process new Tasks, then fireFromProcessConcept a concept...">
<polygon fill="none" stroke="black" points="752,-0.5 752,-30.5 885,-30.5 885,-0.5 752,-0.5"/>
<text text-anchor="start" x="760" y="-18.5" font-family="Helvetica,sans-Serif" font-size="10.00">nars.storage.Memory.work</text>
<text text-anchor="middle" x="818.5" y="-7.5" font-family="Helvetica,sans-Serif" font-size="10.00">Cycle</text>
</a>
</g>
</g>
<!-- Node1129&#45;&gt;Node1130 -->
<g id="edge4" class="edge"><title>Node1129&#45;&gt;Node1130</title>
<path fill="none" stroke="midnightblue" d="M726.118,-15.5C734.716,-15.5 743.375,-15.5 751.755,-15.5"/>
<polygon fill="midnightblue" stroke="midnightblue" points="726.072,-12.0001 716.072,-15.5 726.072,-19.0001 726.072,-12.0001"/>
</g>
<!-- Node1131 -->
<g id="node6" class="node"><title>Node1131</title>
<g id="a_node6"><a xlink:href="../../df/d15/a00416.html#a0d5c797dc17d9e8d0998852915e0f303" target="_top" xlink:title="nars.storage.ReasonerBatch.doTick">
<polygon fill="none" stroke="black" points="921,-6 921,-25 1094,-25 1094,-6 921,-6"/>
<text text-anchor="middle" x="1007.5" y="-13" font-family="Helvetica,sans-Serif" font-size="10.00">nars.storage.ReasonerBatch.doTick</text>
</a>
</g>
</g>
<!-- Node1130&#45;&gt;Node1131 -->
<g id="edge5" class="edge"><title>Node1130&#45;&gt;Node1131</title>
<path fill="none" stroke="midnightblue" d="M895.343,-15.5C903.782,-15.5 912.421,-15.5 920.971,-15.5"/>
<polygon fill="midnightblue" stroke="midnightblue" points="895.166,-12.0001 885.166,-15.5 895.166,-19.0001 895.166,-12.0001"/>
</g>
<!-- Node1132 -->
<g id="node7" class="node"><title>Node1132</title>
<g id="a_node7"><a xlink:href="../../df/d15/a00416.html#a3468aa0f99edcd66412f27922dddb880" target="_top" xlink:title="A clock tick. ">
<polygon fill="none" stroke="black" points="1130,-6 1130,-25 1290,-25 1290,-6 1130,-6"/>
<text text-anchor="middle" x="1210" y="-13" font-family="Helvetica,sans-Serif" font-size="10.00">nars.storage.ReasonerBatch.tick</text>
</a>
</g>
</g>
<!-- Node1131&#45;&gt;Node1132 -->
<g id="edge6" class="edge"><title>Node1131&#45;&gt;Node1132</title>
<path fill="none" stroke="midnightblue" d="M1104.13,-15.5C1112.7,-15.5 1121.31,-15.5 1129.71,-15.5"/>
<polygon fill="midnightblue" stroke="midnightblue" points="1104.11,-12.0001 1094.11,-15.5 1104.11,-19.0001 1104.11,-12.0001"/>
</g>
<!-- Node1133 -->
<g id="node8" class="node"><title>Node1133</title>
<g id="a_node8"><a xlink:href="../../d9/da1/a00396.html#a5d9cfe517bcfbe41e5251910bcd119c1" target="_top" xlink:title="Run to completion: repeatedly execute NARS working cycle, until Inputs are Finished, or 1000 steps. ">
<polygon fill="none" stroke="black" points="1326,-6 1326,-25 1470,-25 1470,-6 1326,-6"/>
<text text-anchor="middle" x="1398" y="-13" font-family="Helvetica,sans-Serif" font-size="10.00">nars.storage.NARSBatch.run</text>
</a>
</g>
</g>
<!-- Node1132&#45;&gt;Node1133 -->
<g id="edge7" class="edge"><title>Node1132&#45;&gt;Node1133</title>
<path fill="none" stroke="midnightblue" d="M1300.22,-15.5C1308.82,-15.5 1317.47,-15.5 1325.87,-15.5"/>
<polygon fill="midnightblue" stroke="midnightblue" points="1300.15,-12.0001 1290.15,-15.5 1300.15,-19.0001 1300.15,-12.0001"/>
</g>
<!-- Node1134 -->
<g id="node9" class="node"><title>Node1134</title>
<g id="a_node9"><a xlink:href="../../d9/da1/a00396.html#a7c307c6b842f82664de6b0e52bdf8efc" target="_top" xlink:title="non&#45;static equivalent to main(String[]) : run to completion from an input file ">
<polygon fill="none" stroke="black" points="1506,-0.5 1506,-30.5 1650,-30.5 1650,-0.5 1506,-0.5"/>
<text text-anchor="start" x="1514" y="-18.5" font-family="Helvetica,sans-Serif" font-size="10.00">nars.storage.NARSBatch.run</text>
<text text-anchor="middle" x="1578" y="-7.5" font-family="Helvetica,sans-Serif" font-size="10.00">Inference</text>
</a>
</g>
</g>
<!-- Node1133&#45;&gt;Node1134 -->
<g id="edge8" class="edge"><title>Node1133&#45;&gt;Node1134</title>
<path fill="none" stroke="midnightblue" d="M1480.17,-15.5C1488.79,-15.5 1497.51,-15.5 1506,-15.5"/>
<polygon fill="midnightblue" stroke="midnightblue" points="1480.12,-12.0001 1470.12,-15.5 1480.12,-19.0001 1480.12,-12.0001"/>
</g>
<!-- Node1135 -->
<g id="node10" class="node"><title>Node1135</title>
<g id="a_node10"><a xlink:href="../../d9/da1/a00396.html#abafc597289bc2f6453b5cd0dd6634e54" target="_top" xlink:title="The entry point of the standalone application. ">
<polygon fill="none" stroke="black" points="1686,-6 1686,-25 1838,-25 1838,-6 1686,-6"/>
<text text-anchor="middle" x="1762" y="-13" font-family="Helvetica,sans-Serif" font-size="10.00">nars.storage.NARSBatch.main</text>
</a>
</g>
</g>
<!-- Node1134&#45;&gt;Node1135 -->
<g id="edge9" class="edge"><title>Node1134&#45;&gt;Node1135</title>
<path fill="none" stroke="midnightblue" d="M1660.17,-15.5C1668.76,-15.5 1677.48,-15.5 1686,-15.5"/>
<polygon fill="midnightblue" stroke="midnightblue" points="1660.15,-12.0001 1650.15,-15.5 1660.15,-19.0001 1660.15,-12.0001"/>
</g>
</g>
</svg>
