<?xml version="1.0" encoding="UTF-8" standalone="no"?>
<!DOCTYPE svg PUBLIC "-//W3C//DTD SVG 1.1//EN"
 "http://www.w3.org/Graphics/SVG/1.1/DTD/svg11.dtd">
<!-- Generated by graphviz version 2.38.0 (20140413.2041)
 -->
<!-- Title: nars.inference.RuleTables.reason Pages: 1 -->
<!--zoomable 39 -->
<svg id="main" version="1.1" xmlns="http://www.w3.org/2000/svg" xmlns:xlink="http://www.w3.org/1999/xlink" xml:space="preserve" onload="init(evt)">
<style type="text/css"><![CDATA[
.edge:hover path { stroke: red; }
.edge:hover polygon { stroke: red; fill: red; }
]]></style>
<script type="text/javascript"><![CDATA[
var edges = document.getElementsByTagName('g');
if (edges && edges.length) {
  for (var i=0;i<edges.length;i++) {
    if (edges[i].id.substr(0,4)=='edge') {
      edges[i].setAttribute('class','edge');
    }
  }
}
]]></script>
        <defs>
                <circle id="rim" cx="0" cy="0" r="7"/>
                <circle id="rim2" cx="0" cy="0" r="3.5"/>
                <g id="zoomPlus">
                        <use xlink:href="#rim" fill="#404040">
                                <set attributeName="fill" to="#808080" begin="zoomplus.mouseover" end="zoomplus.mouseout"/>
                        </use>
                        <path d="M-4,0h8M0,-4v8" fill="none" stroke="white" stroke-width="1.5" pointer-events="none"/>
                </g>
                <g id="zoomMin">
                        <use xlink:href="#rim" fill="#404040">
                                <set attributeName="fill" to="#808080" begin="zoomminus.mouseover" end="zoomminus.mouseout"/>
                        </use>
                        <path d="M-4,0h8" fill="none" stroke="white" stroke-width="1.5" pointer-events="none"/>
                </g>
                <g id="dirArrow">
                        <path fill="none" stroke="white" stroke-width="1.5" d="M0,-3.0v7 M-2.5,-0.5L0,-3.0L2.5,-0.5"/>
                </g>
               <g id="resetDef">
                       <use xlink:href="#rim2" fill="#404040">
                               <set attributeName="fill" to="#808080" begin="reset.mouseover" end="reset.mouseout"/>
                       </use>
               </g>
        </defs>

<script type="text/javascript">
var viewWidth = 1630;
var viewHeight = 39;
var sectionId = 'dynsection-47';
</script>
<script xlink:href="../../svgpan.js"/>
<svg id="graph" class="graph">
<g id="viewport">
<title>nars.inference.RuleTables.reason</title>
<!-- Node1990 -->
<g id="node1" class="node"><title>Node1990</title>
<polygon fill="#bfbfbf" stroke="black" points="0,-6 0,-25 163,-25 163,-6 0,-6"/>
<text text-anchor="middle" x="81.5" y="-13" font-family="Helvetica,sans-Serif" font-size="10.00">nars.inference.RuleTables.reason</text>
</g>
<!-- Node1991 -->
<g id="node2" class="node"><title>Node1991</title>
<g id="a_node2"><a xlink:href="../../d7/ded/a00196.html#ad6fb91dda799c3092ecb186ef24ca92a" target="_top" xlink:title="An atomic step in a concept, only called in Memory# processConcept. ">
<polygon fill="none" stroke="black" points="199,-0.5 199,-30.5 318,-30.5 318,-0.5 199,-0.5"/>
<text text-anchor="start" x="207" y="-18.5" font-family="Helvetica,sans-Serif" font-size="10.00">nars.entity.Concept.fire</text>
<text text-anchor="middle" x="258.5" y="-7.5" font-family="Helvetica,sans-Serif" font-size="10.00">FromProcessConcept</text>
</a>
</g>
</g>
<!-- Node1990&#45;&gt;Node1991 -->
<g id="edge1" class="edge"><title>Node1990&#45;&gt;Node1991</title>
<path fill="none" stroke="midnightblue" d="M173.249,-15.5C181.907,-15.5 190.523,-15.5 198.757,-15.5"/>
<polygon fill="midnightblue" stroke="midnightblue" points="173.085,-12.0001 163.085,-15.5 173.085,-19.0001 173.085,-12.0001"/>
</g>
<!-- Node1992 -->
<g id="node3" class="node"><title>Node1992</title>
<g id="a_node3"><a xlink:href="../../d4/d27/a00392.html#a0acc4adbf6a2462245da46bcb529746c" target="_top" xlink:title="Select a concept to fireFromProcessConcept. ">
<polygon fill="none" stroke="black" points="354,-0.5 354,-30.5 500,-30.5 500,-0.5 354,-0.5"/>
<text text-anchor="start" x="362" y="-18.5" font-family="Helvetica,sans-Serif" font-size="10.00">nars.storage.Memory.process</text>
<text text-anchor="middle" x="427" y="-7.5" font-family="Helvetica,sans-Serif" font-size="10.00">Concept</text>
</a>
</g>
</g>
<!-- Node1991&#45;&gt;Node1992 -->
<g id="edge2" class="edge"><title>Node1991&#45;&gt;Node1992</title>
<path fill="none" stroke="midnightblue" d="M328.337,-15.5C336.748,-15.5 345.361,-15.5 353.819,-15.5"/>
<polygon fill="midnightblue" stroke="midnightblue" points="328.202,-12.0001 318.202,-15.5 328.202,-19.0001 328.202,-12.0001"/>
</g>
<!-- Node1993 -->
<g id="node4" class="node"><title>Node1993</title>
<g id="a_node4"><a xlink:href="../../d4/d27/a00392.html#a59ae339d666409988d90d29be4f73a91" target="_top" xlink:title="An atomic working workCycle of the system: process new Tasks, then fireFromProcessConcept a concept...">
<polygon fill="none" stroke="black" points="536,-0.5 536,-30.5 669,-30.5 669,-0.5 536,-0.5"/>
<text text-anchor="start" x="544" y="-18.5" font-family="Helvetica,sans-Serif" font-size="10.00">nars.storage.Memory.work</text>
<text text-anchor="middle" x="602.5" y="-7.5" font-family="Helvetica,sans-Serif" font-size="10.00">Cycle</text>
</a>
</g>
</g>
<!-- Node1992&#45;&gt;Node1993 -->
<g id="edge3" class="edge"><title>Node1992&#45;&gt;Node1993</title>
<path fill="none" stroke="midnightblue" d="M510.118,-15.5C518.716,-15.5 527.375,-15.5 535.755,-15.5"/>
<polygon fill="midnightblue" stroke="midnightblue" points="510.072,-12.0001 500.072,-15.5 510.072,-19.0001 510.072,-12.0001"/>
</g>
<!-- Node1994 -->
<g id="node5" class="node"><title>Node1994</title>
<g id="a_node5"><a xlink:href="../../df/d15/a00416.html#a0d5c797dc17d9e8d0998852915e0f303" target="_top" xlink:title="nars.storage.ReasonerBatch.doTick">
<polygon fill="none" stroke="black" points="705,-6 705,-25 878,-25 878,-6 705,-6"/>
<text text-anchor="middle" x="791.5" y="-13" font-family="Helvetica,sans-Serif" font-size="10.00">nars.storage.ReasonerBatch.doTick</text>
</a>
</g>
</g>
<!-- Node1993&#45;&gt;Node1994 -->
<g id="edge4" class="edge"><title>Node1993&#45;&gt;Node1994</title>
<path fill="none" stroke="midnightblue" d="M679.343,-15.5C687.782,-15.5 696.421,-15.5 704.971,-15.5"/>
<polygon fill="midnightblue" stroke="midnightblue" points="679.166,-12.0001 669.166,-15.5 679.166,-19.0001 679.166,-12.0001"/>
</g>
<!-- Node1995 -->
<g id="node6" class="node"><title>Node1995</title>
<g id="a_node6"><a xlink:href="../../df/d15/a00416.html#a3468aa0f99edcd66412f27922dddb880" target="_top" xlink:title="A clock tick. ">
<polygon fill="none" stroke="black" points="914,-6 914,-25 1074,-25 1074,-6 914,-6"/>
<text text-anchor="middle" x="994" y="-13" font-family="Helvetica,sans-Serif" font-size="10.00">nars.storage.ReasonerBatch.tick</text>
</a>
</g>
</g>
<!-- Node1994&#45;&gt;Node1995 -->
<g id="edge5" class="edge"><title>Node1994&#45;&gt;Node1995</title>
<path fill="none" stroke="midnightblue" d="M888.131,-15.5C896.696,-15.5 905.306,-15.5 913.711,-15.5"/>
<polygon fill="midnightblue" stroke="midnightblue" points="888.112,-12.0001 878.112,-15.5 888.112,-19.0001 888.112,-12.0001"/>
</g>
<!-- Node1996 -->
<g id="node7" class="node"><title>Node1996</title>
<g id="a_node7"><a xlink:href="../../d9/da1/a00396.html#a5d9cfe517bcfbe41e5251910bcd119c1" target="_top" xlink:title="Run to completion: repeatedly execute NARS working cycle, until Inputs are Finished, or 1000 steps. ">
<polygon fill="none" stroke="black" points="1110,-6 1110,-25 1254,-25 1254,-6 1110,-6"/>
<text text-anchor="middle" x="1182" y="-13" font-family="Helvetica,sans-Serif" font-size="10.00">nars.storage.NARSBatch.run</text>
</a>
</g>
</g>
<!-- Node1995&#45;&gt;Node1996 -->
<g id="edge6" class="edge"><title>Node1995&#45;&gt;Node1996</title>
<path fill="none" stroke="midnightblue" d="M1084.22,-15.5C1092.82,-15.5 1101.47,-15.5 1109.87,-15.5"/>
<polygon fill="midnightblue" stroke="midnightblue" points="1084.15,-12.0001 1074.15,-15.5 1084.15,-19.0001 1084.15,-12.0001"/>
</g>
<!-- Node1997 -->
<g id="node8" class="node"><title>Node1997</title>
<g id="a_node8"><a xlink:href="../../d9/da1/a00396.html#a7c307c6b842f82664de6b0e52bdf8efc" target="_top" xlink:title="non&#45;static equivalent to main(String[]) : run to completion from an input file ">
<polygon fill="none" stroke="black" points="1290,-0.5 1290,-30.5 1434,-30.5 1434,-0.5 1290,-0.5"/>
<text text-anchor="start" x="1298" y="-18.5" font-family="Helvetica,sans-Serif" font-size="10.00">nars.storage.NARSBatch.run</text>
<text text-anchor="middle" x="1362" y="-7.5" font-family="Helvetica,sans-Serif" font-size="10.00">Inference</text>
</a>
</g>
</g>
<!-- Node1996&#45;&gt;Node1997 -->
<g id="edge7" class="edge"><title>Node1996&#45;&gt;Node1997</title>
<path fill="none" stroke="midnightblue" d="M1264.17,-15.5C1272.79,-15.5 1281.51,-15.5 1290,-15.5"/>
<polygon fill="midnightblue" stroke="midnightblue" points="1264.12,-12.0001 1254.12,-15.5 1264.12,-19.0001 1264.12,-12.0001"/>
</g>
<!-- Node1998 -->
<g id="node9" class="node"><title>Node1998</title>
<g id="a_node9"><a xlink:href="../../d9/da1/a00396.html#abafc597289bc2f6453b5cd0dd6634e54" target="_top" xlink:title="The entry point of the standalone application. ">
<polygon fill="none" stroke="black" points="1470,-6 1470,-25 1622,-25 1622,-6 1470,-6"/>
<text text-anchor="middle" x="1546" y="-13" font-family="Helvetica,sans-Serif" font-size="10.00">nars.storage.NARSBatch.main</text>
</a>
</g>
</g>
<!-- Node1997&#45;&gt;Node1998 -->
<g id="edge8" class="edge"><title>Node1997&#45;&gt;Node1998</title>
<path fill="none" stroke="midnightblue" d="M1444.17,-15.5C1452.76,-15.5 1461.48,-15.5 1470,-15.5"/>
<polygon fill="midnightblue" stroke="midnightblue" points="1444.15,-12.0001 1434.15,-15.5 1444.15,-19.0001 1444.15,-12.0001"/>
</g>
</g>
</svg>
        <g id="navigator" transform="translate(0 0)" fill="#404254">
                <rect fill="#f2f5e9" fill-opacity="0.5" stroke="#606060" stroke-width=".5" x="0" y="0" width="60" height="60"/>
                <use id="zoomplus" xlink:href="#zoomPlus" x="17" y="9" onmousedown="handleZoom(evt,'in')"/>
                <use id="zoomminus" xlink:href="#zoomMin" x="42" y="9" onmousedown="handleZoom(evt,'out')"/>
                <use id="reset" xlink:href="#resetDef" x="30" y="36" onmousedown="handleReset()"/>
                <g id="arrowUp" xlink:href="#dirArrow" transform="translate(30 24)" onmousedown="handlePan(0,-1)">
                  <use xlink:href="#rim" fill="#404040">
                        <set attributeName="fill" to="#808080" begin="arrowUp.mouseover" end="arrowUp.mouseout"/>
                  </use>
                  <path fill="none" stroke="white" stroke-width="1.5" d="M0,-3.0v7 M-2.5,-0.5L0,-3.0L2.5,-0.5"/>
                </g>
                <g id="arrowRight" xlink:href="#dirArrow" transform="rotate(90) translate(36 -43)" onmousedown="handlePan(1,0)">
                  <use xlink:href="#rim" fill="#404040">
                        <set attributeName="fill" to="#808080" begin="arrowRight.mouseover" end="arrowRight.mouseout"/>
                  </use>
                  <path fill="none" stroke="white" stroke-width="1.5" d="M0,-3.0v7 M-2.5,-0.5L0,-3.0L2.5,-0.5"/>
                </g>
                <g id="arrowDown" xlink:href="#dirArrow" transform="rotate(180) translate(-30 -48)" onmousedown="handlePan(0,1)">
                  <use xlink:href="#rim" fill="#404040">
                        <set attributeName="fill" to="#808080" begin="arrowDown.mouseover" end="arrowDown.mouseout"/>
                  </use>
                  <path fill="none" stroke="white" stroke-width="1.5" d="M0,-3.0v7 M-2.5,-0.5L0,-3.0L2.5,-0.5"/>
                </g>
                <g id="arrowLeft" xlink:href="#dirArrow" transform="rotate(270) translate(-36 17)" onmousedown="handlePan(-1,0)">
                  <use xlink:href="#rim" fill="#404040">
                        <set attributeName="fill" to="#808080" begin="arrowLeft.mouseover" end="arrowLeft.mouseout"/>
                  </use>
                  <path fill="none" stroke="white" stroke-width="1.5" d="M0,-3.0v7 M-2.5,-0.5L0,-3.0L2.5,-0.5"/>
                </g>
        </g>
        <svg viewBox="0 0 15 15" width="100%" height="30px" preserveAspectRatio="xMaxYMin meet">
         <g id="arrow_out" transform="scale(0.3 0.3)">
          <a xlink:href="a00252_ac2d01dfdc40bdd47c757cb549217e6e3_icgraph_org.svg" target="_base">
           <rect id="button" ry="5" rx="5" y="6" x="6" height="38" width="38"
                fill="#f2f5e9" fill-opacity="0.5" stroke="#606060" stroke-width="1.0"/>
           <path id="arrow"
             d="M 11.500037,31.436501 C 11.940474,20.09759 22.043105,11.32322 32.158766,21.979434 L 37.068811,17.246167 C 37.068811,17.246167 37.088388,32 37.088388,32 L 22.160133,31.978069 C 22.160133,31.978069 26.997745,27.140456 26.997745,27.140456 C 18.528582,18.264221 13.291696,25.230495 11.500037,31.436501 z"
             style="fill:#404040;"/>
          </a>
         </g>
        </svg>
</svg>
