<?xml version="1.0" encoding="UTF-8" standalone="no"?>
<!DOCTYPE svg PUBLIC "-//W3C//DTD SVG 1.1//EN"
 "http://www.w3.org/Graphics/SVG/1.1/DTD/svg11.dtd">
<!-- Generated by graphviz version 2.38.0 (20140413.2041)
 -->
<!-- Title: nars.inference.RuleTables.anonymousAnalogy Pages: 1 -->
<!--zoomable 110 -->
<svg id="main" version="1.1" xmlns="http://www.w3.org/2000/svg" xmlns:xlink="http://www.w3.org/1999/xlink" xml:space="preserve" onload="init(evt)">
<style type="text/css"><![CDATA[
.edge:hover path { stroke: red; }
.edge:hover polygon { stroke: red; fill: red; }
]]></style>
<script type="text/javascript"><![CDATA[
var edges = document.getElementsByTagName('g');
if (edges && edges.length) {
  for (var i=0;i<edges.length;i++) {
    if (edges[i].id.substr(0,4)=='edge') {
      edges[i].setAttribute('class','edge');
    }
  }
}
]]></script>
        <defs>
                <circle id="rim" cx="0" cy="0" r="7"/>
                <circle id="rim2" cx="0" cy="0" r="3.5"/>
                <g id="zoomPlus">
                        <use xlink:href="#rim" fill="#404040">
                                <set attributeName="fill" to="#808080" begin="zoomplus.mouseover" end="zoomplus.mouseout"/>
                        </use>
                        <path d="M-4,0h8M0,-4v8" fill="none" stroke="white" stroke-width="1.5" pointer-events="none"/>
                </g>
                <g id="zoomMin">
                        <use xlink:href="#rim" fill="#404040">
                                <set attributeName="fill" to="#808080" begin="zoomminus.mouseover" end="zoomminus.mouseout"/>
                        </use>
                        <path d="M-4,0h8" fill="none" stroke="white" stroke-width="1.5" pointer-events="none"/>
                </g>
                <g id="dirArrow">
                        <path fill="none" stroke="white" stroke-width="1.5" d="M0,-3.0v7 M-2.5,-0.5L0,-3.0L2.5,-0.5"/>
                </g>
               <g id="resetDef">
                       <use xlink:href="#rim2" fill="#404040">
                               <set attributeName="fill" to="#808080" begin="reset.mouseover" end="reset.mouseout"/>
                       </use>
               </g>
        </defs>

<script type="text/javascript">
var viewWidth = 615;
var viewHeight = 110;
var sectionId = 'dynsection-2';
</script>
<script xlink:href="../../svgpan.js"/>
<svg id="graph" class="graph">
<g id="viewport">
<title>nars.inference.RuleTables.anonymousAnalogy</title>
<!-- Node93 -->
<g id="node1" class="node"><title>Node93</title>
<polygon fill="#bfbfbf" stroke="black" points="0,-33 0,-63 184,-63 184,-33 0,-33"/>
<text text-anchor="start" x="8" y="-51" font-family="Helvetica,sans-Serif" font-size="10.00">nars.inference.RuleTables.anonymous</text>
<text text-anchor="middle" x="92" y="-40" font-family="Helvetica,sans-Serif" font-size="10.00">Analogy</text>
</g>
<!-- Node94 -->
<g id="node2" class="node"><title>Node94</title>
<g id="a_node2"><a xlink:href="../../d3/dcc/a00264.html#a924b3cc3835f75df63afb5d35ce71693" target="_top" xlink:title="{&lt;S ==&gt; M&gt;, &lt;M &lt;=&gt; P&gt;} |&#45; &lt;S ==&gt; P&gt; ">
<polygon fill="none" stroke="black" points="220,-38.5 220,-57.5 403,-57.5 403,-38.5 220,-38.5"/>
<text text-anchor="middle" x="311.5" y="-45.5" font-family="Helvetica,sans-Serif" font-size="10.00">nars.inference.TruthFunctions.analogy</text>
</a>
</g>
</g>
<!-- Node93&#45;&gt;Node94 -->
<g id="edge1" class="edge"><title>Node93&#45;&gt;Node94</title>
<path fill="none" stroke="midnightblue" d="M184.294,-48C192.642,-48 201.13,-48 209.556,-48"/>
<polygon fill="midnightblue" stroke="midnightblue" points="209.788,-51.5001 219.788,-48 209.788,-44.5001 209.788,-51.5001"/>
</g>
<!-- Node95 -->
<g id="node3" class="node"><title>Node95</title>
<g id="a_node3"><a xlink:href="../../d7/d40/a00236.html#a9eac33f2495441c77911a8581a5bbe61" target="_top" xlink:title="Get the frequency value. ">
<polygon fill="none" stroke="black" points="458.5,-71 458.5,-101 587.5,-101 587.5,-71 458.5,-71"/>
<text text-anchor="start" x="466.5" y="-89" font-family="Helvetica,sans-Serif" font-size="10.00">nars.entity.TruthValue.get</text>
<text text-anchor="middle" x="523" y="-78" font-family="Helvetica,sans-Serif" font-size="10.00">Frequency</text>
</a>
</g>
</g>
<!-- Node93&#45;&gt;Node95 -->
<g id="edge4" class="edge"><title>Node93&#45;&gt;Node95</title>
<path fill="none" stroke="midnightblue" d="M184.103,-62.5903C196.154,-64.2383 208.361,-65.7655 220,-67 297.533,-75.2234 386.67,-80.2978 447.898,-83.1106"/>
<polygon fill="midnightblue" stroke="midnightblue" points="448.089,-86.6226 458.236,-83.5762 448.404,-79.6297 448.089,-86.6226"/>
</g>
<!-- Node97 -->
<g id="node5" class="node"><title>Node97</title>
<g id="a_node5"><a xlink:href="../../db/d12/a00268.html#a957a91e3b91d4a4043c3959838c370f2" target="_top" xlink:title="A function to convert weight to confidence. ">
<polygon fill="none" stroke="black" points="226.5,-0.5 226.5,-19.5 396.5,-19.5 396.5,-0.5 226.5,-0.5"/>
<text text-anchor="middle" x="311.5" y="-7.5" font-family="Helvetica,sans-Serif" font-size="10.00">nars.inference.UtilityFunctions.w2c</text>
</a>
</g>
</g>
<!-- Node93&#45;&gt;Node97 -->
<g id="edge5" class="edge"><title>Node93&#45;&gt;Node97</title>
<path fill="none" stroke="midnightblue" d="M178.962,-32.9814C201.309,-29.077 225.001,-24.9378 246.028,-21.264"/>
<polygon fill="midnightblue" stroke="midnightblue" points="246.871,-24.6698 256.12,-19.5009 245.667,-17.7743 246.871,-24.6698"/>
</g>
<!-- Node94&#45;&gt;Node95 -->
<g id="edge2" class="edge"><title>Node94&#45;&gt;Node95</title>
<path fill="none" stroke="midnightblue" d="M365.095,-57.54C390.248,-62.1022 420.786,-67.6414 448.213,-72.6162"/>
<polygon fill="midnightblue" stroke="midnightblue" points="447.697,-76.0797 458.161,-74.4207 448.946,-69.192 447.697,-76.0797"/>
</g>
<!-- Node96 -->
<g id="node4" class="node"><title>Node96</title>
<g id="a_node4"><a xlink:href="../../db/d12/a00268.html#a46d2f048b6ba77afc60dcf49734f23c7" target="_top" xlink:title="A function where the output is conjunctively determined by the inputs. ">
<polygon fill="none" stroke="black" points="439,-32.5 439,-51.5 607,-51.5 607,-32.5 439,-32.5"/>
<text text-anchor="middle" x="523" y="-39.5" font-family="Helvetica,sans-Serif" font-size="10.00">nars.inference.UtilityFunctions.and</text>
</a>
</g>
</g>
<!-- Node94&#45;&gt;Node96 -->
<g id="edge3" class="edge"><title>Node94&#45;&gt;Node96</title>
<path fill="none" stroke="midnightblue" d="M403.171,-45.4032C411.584,-45.1623 420.119,-44.9178 428.556,-44.6762"/>
<polygon fill="midnightblue" stroke="midnightblue" points="428.887,-48.1682 438.783,-44.3833 428.687,-41.1711 428.887,-48.1682"/>
</g>
</g>
</svg>
        <g id="navigator" transform="translate(0 0)" fill="#404254">
                <rect fill="#f2f5e9" fill-opacity="0.5" stroke="#606060" stroke-width=".5" x="0" y="0" width="60" height="60"/>
                <use id="zoomplus" xlink:href="#zoomPlus" x="17" y="9" onmousedown="handleZoom(evt,'in')"/>
                <use id="zoomminus" xlink:href="#zoomMin" x="42" y="9" onmousedown="handleZoom(evt,'out')"/>
                <use id="reset" xlink:href="#resetDef" x="30" y="36" onmousedown="handleReset()"/>
                <g id="arrowUp" xlink:href="#dirArrow" transform="translate(30 24)" onmousedown="handlePan(0,-1)">
                  <use xlink:href="#rim" fill="#404040">
                        <set attributeName="fill" to="#808080" begin="arrowUp.mouseover" end="arrowUp.mouseout"/>
                  </use>
                  <path fill="none" stroke="white" stroke-width="1.5" d="M0,-3.0v7 M-2.5,-0.5L0,-3.0L2.5,-0.5"/>
                </g>
                <g id="arrowRight" xlink:href="#dirArrow" transform="rotate(90) translate(36 -43)" onmousedown="handlePan(1,0)">
                  <use xlink:href="#rim" fill="#404040">
                        <set attributeName="fill" to="#808080" begin="arrowRight.mouseover" end="arrowRight.mouseout"/>
                  </use>
                  <path fill="none" stroke="white" stroke-width="1.5" d="M0,-3.0v7 M-2.5,-0.5L0,-3.0L2.5,-0.5"/>
                </g>
                <g id="arrowDown" xlink:href="#dirArrow" transform="rotate(180) translate(-30 -48)" onmousedown="handlePan(0,1)">
                  <use xlink:href="#rim" fill="#404040">
                        <set attributeName="fill" to="#808080" begin="arrowDown.mouseover" end="arrowDown.mouseout"/>
                  </use>
                  <path fill="none" stroke="white" stroke-width="1.5" d="M0,-3.0v7 M-2.5,-0.5L0,-3.0L2.5,-0.5"/>
                </g>
                <g id="arrowLeft" xlink:href="#dirArrow" transform="rotate(270) translate(-36 17)" onmousedown="handlePan(-1,0)">
                  <use xlink:href="#rim" fill="#404040">
                        <set attributeName="fill" to="#808080" begin="arrowLeft.mouseover" end="arrowLeft.mouseout"/>
                  </use>
                  <path fill="none" stroke="white" stroke-width="1.5" d="M0,-3.0v7 M-2.5,-0.5L0,-3.0L2.5,-0.5"/>
                </g>
        </g>
        <svg viewBox="0 0 15 15" width="100%" height="30px" preserveAspectRatio="xMaxYMin meet">
         <g id="arrow_out" transform="scale(0.3 0.3)">
          <a xlink:href="a00252_a36c5edea4555540aa0bec9a54824654a_cgraph_org.svg" target="_base">
           <rect id="button" ry="5" rx="5" y="6" x="6" height="38" width="38"
                fill="#f2f5e9" fill-opacity="0.5" stroke="#606060" stroke-width="1.0"/>
           <path id="arrow"
             d="M 11.500037,31.436501 C 11.940474,20.09759 22.043105,11.32322 32.158766,21.979434 L 37.068811,17.246167 C 37.068811,17.246167 37.088388,32 37.088388,32 L 22.160133,31.978069 C 22.160133,31.978069 26.997745,27.140456 26.997745,27.140456 C 18.528582,18.264221 13.291696,25.230495 11.500037,31.436501 z"
             style="fill:#404040;"/>
          </a>
         </g>
        </svg>
</svg>
