<?xml version="1.0" encoding="UTF-8" standalone="no"?>
<!DOCTYPE svg PUBLIC "-//W3C//DTD SVG 1.1//EN"
 "http://www.w3.org/Graphics/SVG/1.1/DTD/svg11.dtd">
<!-- Generated by graphviz version 2.38.0 (20140413.2041)
 -->
<!-- Title: nars.inference.RuleTables.decomposeStatement Pages: 1 -->
<!--zoomable 61 -->
<svg id="main" version="1.1" xmlns="http://www.w3.org/2000/svg" xmlns:xlink="http://www.w3.org/1999/xlink" xml:space="preserve" onload="init(evt)">
<style type="text/css"><![CDATA[
.edge:hover path { stroke: red; }
.edge:hover polygon { stroke: red; fill: red; }
]]></style>
<script type="text/javascript"><![CDATA[
var edges = document.getElementsByTagName('g');
if (edges && edges.length) {
  for (var i=0;i<edges.length;i++) {
    if (edges[i].id.substr(0,4)=='edge') {
      edges[i].setAttribute('class','edge');
    }
  }
}
]]></script>
        <defs>
                <circle id="rim" cx="0" cy="0" r="7"/>
                <circle id="rim2" cx="0" cy="0" r="3.5"/>
                <g id="zoomPlus">
                        <use xlink:href="#rim" fill="#404040">
                                <set attributeName="fill" to="#808080" begin="zoomplus.mouseover" end="zoomplus.mouseout"/>
                        </use>
                        <path d="M-4,0h8M0,-4v8" fill="none" stroke="white" stroke-width="1.5" pointer-events="none"/>
                </g>
                <g id="zoomMin">
                        <use xlink:href="#rim" fill="#404040">
                                <set attributeName="fill" to="#808080" begin="zoomminus.mouseover" end="zoomminus.mouseout"/>
                        </use>
                        <path d="M-4,0h8" fill="none" stroke="white" stroke-width="1.5" pointer-events="none"/>
                </g>
                <g id="dirArrow">
                        <path fill="none" stroke="white" stroke-width="1.5" d="M0,-3.0v7 M-2.5,-0.5L0,-3.0L2.5,-0.5"/>
                </g>
               <g id="resetDef">
                       <use xlink:href="#rim2" fill="#404040">
                               <set attributeName="fill" to="#808080" begin="reset.mouseover" end="reset.mouseout"/>
                       </use>
               </g>
        </defs>

<script type="text/javascript">
var viewWidth = 2280;
var viewHeight = 61;
var sectionId = 'dynsection-28';
</script>
<script xlink:href="../../svgpan.js"/>
<svg id="graph" class="graph">
<g id="viewport">
<title>nars.inference.RuleTables.decomposeStatement</title>
<!-- Node1251 -->
<g id="node1" class="node"><title>Node1251</title>
<polygon fill="#bfbfbf" stroke="black" points="0,-0.5 0,-30.5 184,-30.5 184,-0.5 0,-0.5"/>
<text text-anchor="start" x="8" y="-18.5" font-family="Helvetica,sans-Serif" font-size="10.00">nars.inference.RuleTables.decompose</text>
<text text-anchor="middle" x="92" y="-7.5" font-family="Helvetica,sans-Serif" font-size="10.00">Statement</text>
</g>
<!-- Node1252 -->
<g id="node2" class="node"><title>Node1252</title>
<g id="a_node2"><a xlink:href="../../dc/ded/a00252.html#a00ffbf7a9069cfd135acae4b46d78d05" target="_top" xlink:title="Inference between a compound term and a component of it. ">
<polygon fill="none" stroke="black" points="220,-0.5 220,-30.5 399,-30.5 399,-0.5 220,-0.5"/>
<text text-anchor="start" x="228" y="-18.5" font-family="Helvetica,sans-Serif" font-size="10.00">nars.inference.RuleTables.compound</text>
<text text-anchor="middle" x="309.5" y="-7.5" font-family="Helvetica,sans-Serif" font-size="10.00">AndSelf</text>
</a>
</g>
</g>
<!-- Node1251&#45;&gt;Node1252 -->
<g id="edge1" class="edge"><title>Node1251&#45;&gt;Node1252</title>
<path fill="none" stroke="midnightblue" d="M194.114,-15.5C202.696,-15.5 211.334,-15.5 219.81,-15.5"/>
<polygon fill="midnightblue" stroke="midnightblue" points="194.079,-12.0001 184.079,-15.5 194.079,-19.0001 194.079,-12.0001"/>
</g>
<!-- Node1253 -->
<g id="node3" class="node"><title>Node1253</title>
<g id="a_node3"><a xlink:href="../../dc/ded/a00252.html#a764dbc9ccccf406df45e09fbfeda928f" target="_top" xlink:title="Inference between two compound terms. ">
<polygon fill="none" stroke="black" points="435,-22.5 435,-52.5 614,-52.5 614,-22.5 435,-22.5"/>
<text text-anchor="start" x="443" y="-40.5" font-family="Helvetica,sans-Serif" font-size="10.00">nars.inference.RuleTables.compound</text>
<text text-anchor="middle" x="524.5" y="-29.5" font-family="Helvetica,sans-Serif" font-size="10.00">AndCompound</text>
</a>
</g>
</g>
<!-- Node1252&#45;&gt;Node1253 -->
<g id="edge2" class="edge"><title>Node1252&#45;&gt;Node1253</title>
<path fill="none" stroke="midnightblue" d="M409.266,-25.7012C417.803,-26.5829 426.406,-27.4715 434.855,-28.3442"/>
<polygon fill="midnightblue" stroke="midnightblue" points="409.596,-22.2167 399.289,-24.6707 408.876,-29.1796 409.596,-22.2167"/>
</g>
<!-- Node1254 -->
<g id="node4" class="node"><title>Node1254</title>
<g id="a_node4"><a xlink:href="../../dc/ded/a00252.html#ac2d01dfdc40bdd47c757cb549217e6e3" target="_top" xlink:title="Entry point of the inference engine. ">
<polygon fill="none" stroke="black" points="650,-6 650,-25 813,-25 813,-6 650,-6"/>
<text text-anchor="middle" x="731.5" y="-13" font-family="Helvetica,sans-Serif" font-size="10.00">nars.inference.RuleTables.reason</text>
</a>
</g>
</g>
<!-- Node1252&#45;&gt;Node1254 -->
<g id="edge12" class="edge"><title>Node1252&#45;&gt;Node1254</title>
<path fill="none" stroke="midnightblue" d="M409.409,-13.7665C418.064,-13.6586 426.688,-13.5668 435,-13.5 514.553,-12.8611 534.447,-12.8172 614,-13.5 625.631,-13.5998 637.915,-13.7557 649.971,-13.9374"/>
<polygon fill="midnightblue" stroke="midnightblue" points="409.205,-10.2687 399.252,-13.8999 409.297,-17.2681 409.205,-10.2687"/>
</g>
<!-- Node1253&#45;&gt;Node1254 -->
<g id="edge3" class="edge"><title>Node1253&#45;&gt;Node1254</title>
<path fill="none" stroke="midnightblue" d="M624.22,-26.9056C632.762,-25.989 641.338,-25.0686 649.712,-24.1699"/>
<polygon fill="midnightblue" stroke="midnightblue" points="623.793,-23.4313 614.224,-27.9784 624.54,-30.3913 623.793,-23.4313"/>
</g>
<!-- Node1255 -->
<g id="node5" class="node"><title>Node1255</title>
<g id="a_node5"><a xlink:href="../../d7/ded/a00196.html#ad6fb91dda799c3092ecb186ef24ca92a" target="_top" xlink:title="An atomic step in a concept, only called in Memory# processConcept. ">
<polygon fill="none" stroke="black" points="849,-0.5 849,-30.5 968,-30.5 968,-0.5 849,-0.5"/>
<text text-anchor="start" x="857" y="-18.5" font-family="Helvetica,sans-Serif" font-size="10.00">nars.entity.Concept.fire</text>
<text text-anchor="middle" x="908.5" y="-7.5" font-family="Helvetica,sans-Serif" font-size="10.00">FromProcessConcept</text>
</a>
</g>
</g>
<!-- Node1254&#45;&gt;Node1255 -->
<g id="edge4" class="edge"><title>Node1254&#45;&gt;Node1255</title>
<path fill="none" stroke="midnightblue" d="M823.249,-15.5C831.907,-15.5 840.523,-15.5 848.757,-15.5"/>
<polygon fill="midnightblue" stroke="midnightblue" points="823.085,-12.0001 813.085,-15.5 823.085,-19.0001 823.085,-12.0001"/>
</g>
<!-- Node1256 -->
<g id="node6" class="node"><title>Node1256</title>
<g id="a_node6"><a xlink:href="../../d4/d27/a00392.html#a0acc4adbf6a2462245da46bcb529746c" target="_top" xlink:title="Select a concept to fireFromProcessConcept. ">
<polygon fill="none" stroke="black" points="1004,-0.5 1004,-30.5 1150,-30.5 1150,-0.5 1004,-0.5"/>
<text text-anchor="start" x="1012" y="-18.5" font-family="Helvetica,sans-Serif" font-size="10.00">nars.storage.Memory.process</text>
<text text-anchor="middle" x="1077" y="-7.5" font-family="Helvetica,sans-Serif" font-size="10.00">Concept</text>
</a>
</g>
</g>
<!-- Node1255&#45;&gt;Node1256 -->
<g id="edge5" class="edge"><title>Node1255&#45;&gt;Node1256</title>
<path fill="none" stroke="midnightblue" d="M978.337,-15.5C986.748,-15.5 995.361,-15.5 1003.82,-15.5"/>
<polygon fill="midnightblue" stroke="midnightblue" points="978.202,-12.0001 968.202,-15.5 978.202,-19.0001 978.202,-12.0001"/>
</g>
<!-- Node1257 -->
<g id="node7" class="node"><title>Node1257</title>
<g id="a_node7"><a xlink:href="../../d4/d27/a00392.html#a59ae339d666409988d90d29be4f73a91" target="_top" xlink:title="An atomic working workCycle of the system: process new Tasks, then fireFromProcessConcept a concept...">
<polygon fill="none" stroke="black" points="1186,-0.5 1186,-30.5 1319,-30.5 1319,-0.5 1186,-0.5"/>
<text text-anchor="start" x="1194" y="-18.5" font-family="Helvetica,sans-Serif" font-size="10.00">nars.storage.Memory.work</text>
<text text-anchor="middle" x="1252.5" y="-7.5" font-family="Helvetica,sans-Serif" font-size="10.00">Cycle</text>
</a>
</g>
</g>
<!-- Node1256&#45;&gt;Node1257 -->
<g id="edge6" class="edge"><title>Node1256&#45;&gt;Node1257</title>
<path fill="none" stroke="midnightblue" d="M1160.12,-15.5C1168.72,-15.5 1177.37,-15.5 1185.76,-15.5"/>
<polygon fill="midnightblue" stroke="midnightblue" points="1160.07,-12.0001 1150.07,-15.5 1160.07,-19.0001 1160.07,-12.0001"/>
</g>
<!-- Node1258 -->
<g id="node8" class="node"><title>Node1258</title>
<g id="a_node8"><a xlink:href="../../df/d15/a00416.html#a0d5c797dc17d9e8d0998852915e0f303" target="_top" xlink:title="nars.storage.ReasonerBatch.doTick">
<polygon fill="none" stroke="black" points="1355,-6 1355,-25 1528,-25 1528,-6 1355,-6"/>
<text text-anchor="middle" x="1441.5" y="-13" font-family="Helvetica,sans-Serif" font-size="10.00">nars.storage.ReasonerBatch.doTick</text>
</a>
</g>
</g>
<!-- Node1257&#45;&gt;Node1258 -->
<g id="edge7" class="edge"><title>Node1257&#45;&gt;Node1258</title>
<path fill="none" stroke="midnightblue" d="M1329.34,-15.5C1337.78,-15.5 1346.42,-15.5 1354.97,-15.5"/>
<polygon fill="midnightblue" stroke="midnightblue" points="1329.17,-12.0001 1319.17,-15.5 1329.17,-19.0001 1329.17,-12.0001"/>
</g>
<!-- Node1259 -->
<g id="node9" class="node"><title>Node1259</title>
<g id="a_node9"><a xlink:href="../../df/d15/a00416.html#a3468aa0f99edcd66412f27922dddb880" target="_top" xlink:title="A clock tick. ">
<polygon fill="none" stroke="black" points="1564,-6 1564,-25 1724,-25 1724,-6 1564,-6"/>
<text text-anchor="middle" x="1644" y="-13" font-family="Helvetica,sans-Serif" font-size="10.00">nars.storage.ReasonerBatch.tick</text>
</a>
</g>
</g>
<!-- Node1258&#45;&gt;Node1259 -->
<g id="edge8" class="edge"><title>Node1258&#45;&gt;Node1259</title>
<path fill="none" stroke="midnightblue" d="M1538.13,-15.5C1546.7,-15.5 1555.31,-15.5 1563.71,-15.5"/>
<polygon fill="midnightblue" stroke="midnightblue" points="1538.11,-12.0001 1528.11,-15.5 1538.11,-19.0001 1538.11,-12.0001"/>
</g>
<!-- Node1260 -->
<g id="node10" class="node"><title>Node1260</title>
<g id="a_node10"><a xlink:href="../../d9/da1/a00396.html#a5d9cfe517bcfbe41e5251910bcd119c1" target="_top" xlink:title="Run to completion: repeatedly execute NARS working cycle, until Inputs are Finished, or 1000 steps. ">
<polygon fill="none" stroke="black" points="1760,-6 1760,-25 1904,-25 1904,-6 1760,-6"/>
<text text-anchor="middle" x="1832" y="-13" font-family="Helvetica,sans-Serif" font-size="10.00">nars.storage.NARSBatch.run</text>
</a>
</g>
</g>
<!-- Node1259&#45;&gt;Node1260 -->
<g id="edge9" class="edge"><title>Node1259&#45;&gt;Node1260</title>
<path fill="none" stroke="midnightblue" d="M1734.22,-15.5C1742.82,-15.5 1751.47,-15.5 1759.87,-15.5"/>
<polygon fill="midnightblue" stroke="midnightblue" points="1734.15,-12.0001 1724.15,-15.5 1734.15,-19.0001 1734.15,-12.0001"/>
</g>
<!-- Node1261 -->
<g id="node11" class="node"><title>Node1261</title>
<g id="a_node11"><a xlink:href="../../d9/da1/a00396.html#a7c307c6b842f82664de6b0e52bdf8efc" target="_top" xlink:title="non&#45;static equivalent to main(String[]) : run to completion from an input file ">
<polygon fill="none" stroke="black" points="1940,-0.5 1940,-30.5 2084,-30.5 2084,-0.5 1940,-0.5"/>
<text text-anchor="start" x="1948" y="-18.5" font-family="Helvetica,sans-Serif" font-size="10.00">nars.storage.NARSBatch.run</text>
<text text-anchor="middle" x="2012" y="-7.5" font-family="Helvetica,sans-Serif" font-size="10.00">Inference</text>
</a>
</g>
</g>
<!-- Node1260&#45;&gt;Node1261 -->
<g id="edge10" class="edge"><title>Node1260&#45;&gt;Node1261</title>
<path fill="none" stroke="midnightblue" d="M1914.17,-15.5C1922.79,-15.5 1931.51,-15.5 1940,-15.5"/>
<polygon fill="midnightblue" stroke="midnightblue" points="1914.12,-12.0001 1904.12,-15.5 1914.12,-19.0001 1914.12,-12.0001"/>
</g>
<!-- Node1262 -->
<g id="node12" class="node"><title>Node1262</title>
<g id="a_node12"><a xlink:href="../../d9/da1/a00396.html#abafc597289bc2f6453b5cd0dd6634e54" target="_top" xlink:title="The entry point of the standalone application. ">
<polygon fill="none" stroke="black" points="2120,-6 2120,-25 2272,-25 2272,-6 2120,-6"/>
<text text-anchor="middle" x="2196" y="-13" font-family="Helvetica,sans-Serif" font-size="10.00">nars.storage.NARSBatch.main</text>
</a>
</g>
</g>
<!-- Node1261&#45;&gt;Node1262 -->
<g id="edge11" class="edge"><title>Node1261&#45;&gt;Node1262</title>
<path fill="none" stroke="midnightblue" d="M2094.17,-15.5C2102.76,-15.5 2111.48,-15.5 2120,-15.5"/>
<polygon fill="midnightblue" stroke="midnightblue" points="2094.15,-12.0001 2084.15,-15.5 2094.15,-19.0001 2094.15,-12.0001"/>
</g>
</g>
</svg>
        <g id="navigator" transform="translate(0 0)" fill="#404254">
                <rect fill="#f2f5e9" fill-opacity="0.5" stroke="#606060" stroke-width=".5" x="0" y="0" width="60" height="60"/>
                <use id="zoomplus" xlink:href="#zoomPlus" x="17" y="9" onmousedown="handleZoom(evt,'in')"/>
                <use id="zoomminus" xlink:href="#zoomMin" x="42" y="9" onmousedown="handleZoom(evt,'out')"/>
                <use id="reset" xlink:href="#resetDef" x="30" y="36" onmousedown="handleReset()"/>
                <g id="arrowUp" xlink:href="#dirArrow" transform="translate(30 24)" onmousedown="handlePan(0,-1)">
                  <use xlink:href="#rim" fill="#404040">
                        <set attributeName="fill" to="#808080" begin="arrowUp.mouseover" end="arrowUp.mouseout"/>
                  </use>
                  <path fill="none" stroke="white" stroke-width="1.5" d="M0,-3.0v7 M-2.5,-0.5L0,-3.0L2.5,-0.5"/>
                </g>
                <g id="arrowRight" xlink:href="#dirArrow" transform="rotate(90) translate(36 -43)" onmousedown="handlePan(1,0)">
                  <use xlink:href="#rim" fill="#404040">
                        <set attributeName="fill" to="#808080" begin="arrowRight.mouseover" end="arrowRight.mouseout"/>
                  </use>
                  <path fill="none" stroke="white" stroke-width="1.5" d="M0,-3.0v7 M-2.5,-0.5L0,-3.0L2.5,-0.5"/>
                </g>
                <g id="arrowDown" xlink:href="#dirArrow" transform="rotate(180) translate(-30 -48)" onmousedown="handlePan(0,1)">
                  <use xlink:href="#rim" fill="#404040">
                        <set attributeName="fill" to="#808080" begin="arrowDown.mouseover" end="arrowDown.mouseout"/>
                  </use>
                  <path fill="none" stroke="white" stroke-width="1.5" d="M0,-3.0v7 M-2.5,-0.5L0,-3.0L2.5,-0.5"/>
                </g>
                <g id="arrowLeft" xlink:href="#dirArrow" transform="rotate(270) translate(-36 17)" onmousedown="handlePan(-1,0)">
                  <use xlink:href="#rim" fill="#404040">
                        <set attributeName="fill" to="#808080" begin="arrowLeft.mouseover" end="arrowLeft.mouseout"/>
                  </use>
                  <path fill="none" stroke="white" stroke-width="1.5" d="M0,-3.0v7 M-2.5,-0.5L0,-3.0L2.5,-0.5"/>
                </g>
        </g>
        <svg viewBox="0 0 15 15" width="100%" height="30px" preserveAspectRatio="xMaxYMin meet">
         <g id="arrow_out" transform="scale(0.3 0.3)">
          <a xlink:href="a00252_a000d25cc642aeb730ec57f80fcddd16d_icgraph_org.svg" target="_base">
           <rect id="button" ry="5" rx="5" y="6" x="6" height="38" width="38"
                fill="#f2f5e9" fill-opacity="0.5" stroke="#606060" stroke-width="1.0"/>
           <path id="arrow"
             d="M 11.500037,31.436501 C 11.940474,20.09759 22.043105,11.32322 32.158766,21.979434 L 37.068811,17.246167 C 37.068811,17.246167 37.088388,32 37.088388,32 L 22.160133,31.978069 C 22.160133,31.978069 26.997745,27.140456 26.997745,27.140456 C 18.528582,18.264221 13.291696,25.230495 11.500037,31.436501 z"
             style="fill:#404040;"/>
          </a>
         </g>
        </svg>
</svg>
