<?xml version="1.0" encoding="UTF-8" standalone="no"?>
<!DOCTYPE svg PUBLIC "-//W3C//DTD SVG 1.1//EN"
 "http://www.w3.org/Graphics/SVG/1.1/DTD/svg11.dtd">
<!-- Generated by graphviz version 2.38.0 (20140413.2041)
 -->
<!-- Title: nars.language.Term Pages: 1 -->
<svg width="280pt" height="84pt"
 viewBox="0.00 0.00 279.50 84.00" xmlns="http://www.w3.org/2000/svg" xmlns:xlink="http://www.w3.org/1999/xlink">
<g id="graph0" class="graph" transform="scale(1 1) rotate(0) translate(4 80)">
<title>nars.language.Term</title>
<!-- Node20 -->
<g id="node1" class="node"><title>Node20</title>
<polygon fill="#bfbfbf" stroke="black" points="81.5,-0.5 81.5,-19.5 184.5,-19.5 184.5,-0.5 81.5,-0.5"/>
<text text-anchor="middle" x="133" y="-7.5" font-family="Helvetica,sans-Serif" font-size="10.00">nars.language.Term</text>
</g>
<!-- Node21 -->
<g id="node2" class="node"><title>Node21</title>
<polygon fill="none" stroke="#bfbfbf" points="0,-56.5 0,-75.5 60,-75.5 60,-56.5 0,-56.5"/>
<text text-anchor="middle" x="30" y="-63.5" font-family="Helvetica,sans-Serif" font-size="10.00">Cloneable</text>
</g>
<!-- Node21&#45;&gt;Node20 -->
<g id="edge1" class="edge"><title>Node21&#45;&gt;Node20</title>
<path fill="none" stroke="midnightblue" d="M55.5792,-51.5895C74.6234,-41.6052 100.064,-28.2672 116.492,-19.6545"/>
<polygon fill="midnightblue" stroke="midnightblue" points="53.7802,-48.5808 46.5487,-56.324 57.0305,-54.7805 53.7802,-48.5808"/>
</g>
<!-- Node22 -->
<g id="node3" class="node"><title>Node22</title>
<polygon fill="none" stroke="#bfbfbf" points="78,-56.5 78,-75.5 188,-75.5 188,-56.5 78,-56.5"/>
<text text-anchor="middle" x="133" y="-63.5" font-family="Helvetica,sans-Serif" font-size="10.00">Comparable&lt; Term &gt;</text>
</g>
<!-- Node22&#45;&gt;Node20 -->
<g id="edge2" class="edge"><title>Node22&#45;&gt;Node20</title>
<path fill="none" stroke="midnightblue" d="M133,-45.8045C133,-36.9102 133,-26.7798 133,-19.7511"/>
<polygon fill="midnightblue" stroke="midnightblue" points="129.5,-46.083 133,-56.083 136.5,-46.083 129.5,-46.083"/>
</g>
<!-- Node23 -->
<g id="node4" class="node"><title>Node23</title>
<polygon fill="none" stroke="#bfbfbf" points="206.5,-56.5 206.5,-75.5 271.5,-75.5 271.5,-56.5 206.5,-56.5"/>
<text text-anchor="middle" x="239" y="-63.5" font-family="Helvetica,sans-Serif" font-size="10.00">TermStruct</text>
</g>
<!-- Node23&#45;&gt;Node20 -->
<g id="edge3" class="edge"><title>Node23&#45;&gt;Node20</title>
<path fill="none" stroke="midnightblue" d="M212.944,-51.7261C193.316,-41.7271 166.972,-28.3065 149.988,-19.6545"/>
<polygon fill="midnightblue" stroke="midnightblue" points="211.47,-54.9033 221.969,-56.324 214.648,-48.666 211.47,-54.9033"/>
</g>
</g>
</svg>
