<?xml version="1.0" encoding="UTF-8" standalone="no"?>
<!DOCTYPE svg PUBLIC "-//W3C//DTD SVG 1.1//EN"
 "http://www.w3.org/Graphics/SVG/1.1/DTD/svg11.dtd">
<!-- Generated by graphviz version 2.38.0 (20140413.2041)
 -->
<!-- Title: nars.entity.TruthValue.isExpDifAbs Pages: 1 -->
<svg width="2449pt" height="146pt"
 viewBox="0.00 0.00 2449.00 145.50" xmlns="http://www.w3.org/2000/svg" xmlns:xlink="http://www.w3.org/1999/xlink">
<g id="graph0" class="graph" transform="scale(1 1) rotate(0) translate(4 141.5)">
<title>nars.entity.TruthValue.isExpDifAbs</title>
<!-- Node258 -->
<g id="node1" class="node"><title>Node258</title>
<polygon fill="#bfbfbf" stroke="black" points="0,-14 0,-44 123,-44 123,-14 0,-14"/>
<text text-anchor="start" x="8" y="-32" font-family="Helvetica,sans-Serif" font-size="10.00">nars.entity.TruthValue.is</text>
<text text-anchor="middle" x="61.5" y="-21" font-family="Helvetica,sans-Serif" font-size="10.00">ExpDifAbs</text>
</g>
<!-- Node259 -->
<g id="node2" class="node"><title>Node259</title>
<g id="a_node2"><a xlink:href="../../dd/dd7/a00248.html#a3943c9b8c0f16170dbf552a0c96ec97e" target="_top" xlink:title="Evaluate the quality of a revision, then de&#45;prioritize the premises. ">
<polygon fill="none" stroke="black" points="173,-38.5 173,-57.5 332,-57.5 332,-38.5 173,-38.5"/>
<text text-anchor="middle" x="252.5" y="-45.5" font-family="Helvetica,sans-Serif" font-size="10.00">nars.inference.LocalRules.revise</text>
</a>
</g>
</g>
<!-- Node258&#45;&gt;Node259 -->
<g id="edge1" class="edge"><title>Node258&#45;&gt;Node259</title>
<path fill="none" stroke="midnightblue" d="M133.301,-36.1175C146.239,-37.4182 159.811,-38.7826 172.959,-40.1043"/>
<polygon fill="midnightblue" stroke="midnightblue" points="133.381,-32.608 123.081,-35.0901 132.68,-39.5729 133.381,-32.608"/>
</g>
<!-- Node276 -->
<g id="node19" class="node"><title>Node276</title>
<g id="a_node19"><a xlink:href="../../d9/d21/a00240.html#ac61e534f9a09e5584eb90c0e915e72ff" target="_top" xlink:title="Update a belief. ">
<polygon fill="none" stroke="black" points="159,-0.5 159,-19.5 346,-19.5 346,-0.5 159,-0.5"/>
<text text-anchor="middle" x="252.5" y="-7.5" font-family="Helvetica,sans-Serif" font-size="10.00">nars.inference.BudgetFunctions.update</text>
</a>
</g>
</g>
<!-- Node258&#45;&gt;Node276 -->
<g id="edge20" class="edge"><title>Node258&#45;&gt;Node276</title>
<path fill="none" stroke="midnightblue" d="M133.178,-21.8948C141.581,-21.05 150.253,-20.1782 158.904,-19.3086"/>
<polygon fill="midnightblue" stroke="midnightblue" points="132.68,-18.4271 123.081,-22.9099 133.381,-25.392 132.68,-18.4271"/>
</g>
<!-- Node260 -->
<g id="node3" class="node"><title>Node260</title>
<g id="a_node3"><a xlink:href="../../dd/dd7/a00248.html#afcdec4a07d241f98cd54ef706781c3cb" target="_top" xlink:title="Belief revision. ">
<polygon fill="none" stroke="black" points="382,-38.5 382,-57.5 549,-57.5 549,-38.5 382,-38.5"/>
<text text-anchor="middle" x="465.5" y="-45.5" font-family="Helvetica,sans-Serif" font-size="10.00">nars.inference.LocalRules.revision</text>
</a>
</g>
</g>
<!-- Node259&#45;&gt;Node260 -->
<g id="edge2" class="edge"><title>Node259&#45;&gt;Node260</title>
<path fill="none" stroke="midnightblue" d="M342.093,-48C355.312,-48 368.895,-48 381.982,-48"/>
<polygon fill="midnightblue" stroke="midnightblue" points="342.069,-44.5001 332.069,-48 342.069,-51.5001 342.069,-44.5001"/>
</g>
<!-- Node261 -->
<g id="node4" class="node"><title>Node261</title>
<g id="a_node4"><a xlink:href="../../d7/ded/a00196.html#a40cddcc82ee28a1cf5b1f4bc14e2b078" target="_top" xlink:title="To accept a new judgment as isBelief, and check for revisions and solutions. ">
<polygon fill="none" stroke="black" points="595,-56 595,-86 735,-86 735,-56 595,-56"/>
<text text-anchor="start" x="603" y="-74" font-family="Helvetica,sans-Serif" font-size="10.00">nars.entity.Concept.process</text>
<text text-anchor="middle" x="665" y="-63" font-family="Helvetica,sans-Serif" font-size="10.00">Judgment</text>
</a>
</g>
</g>
<!-- Node260&#45;&gt;Node261 -->
<g id="edge3" class="edge"><title>Node260&#45;&gt;Node261</title>
<path fill="none" stroke="midnightblue" d="M558.49,-58.7128C570.732,-60.1384 583.113,-61.5802 594.875,-62.95"/>
<polygon fill="midnightblue" stroke="midnightblue" points="558.594,-55.2013 548.256,-57.521 557.784,-62.1543 558.594,-55.2013"/>
</g>
<!-- Node272 -->
<g id="node15" class="node"><title>Node272</title>
<g id="a_node15"><a xlink:href="../../dd/dd7/a00248.html#aac1c92950f50edd04d12229a8c992987" target="_top" xlink:title="The task and belief have the same content. ">
<polygon fill="none" stroke="black" points="585,-16.5 585,-35.5 745,-35.5 745,-16.5 585,-16.5"/>
<text text-anchor="middle" x="665" y="-23.5" font-family="Helvetica,sans-Serif" font-size="10.00">nars.inference.LocalRules.match</text>
</a>
</g>
</g>
<!-- Node260&#45;&gt;Node272 -->
<g id="edge15" class="edge"><title>Node260&#45;&gt;Node272</title>
<path fill="none" stroke="midnightblue" d="M559.162,-37.6781C567.76,-36.7204 576.419,-35.7558 584.878,-34.8136"/>
<polygon fill="midnightblue" stroke="midnightblue" points="558.664,-34.2118 549.113,-38.7975 559.439,-41.1688 558.664,-34.2118"/>
</g>
<!-- Node262 -->
<g id="node5" class="node"><title>Node262</title>
<g id="a_node5"><a xlink:href="../../d7/ded/a00196.html#a9ea7c3154932d7a736c105eb55daeb5c" target="_top" xlink:title="Directly process a new task. ">
<polygon fill="none" stroke="black" points="798,-57 798,-87 927,-87 927,-57 798,-57"/>
<text text-anchor="start" x="806" y="-75" font-family="Helvetica,sans-Serif" font-size="10.00">nars.entity.Concept.direct</text>
<text text-anchor="middle" x="862.5" y="-64" font-family="Helvetica,sans-Serif" font-size="10.00">Process</text>
</a>
</g>
</g>
<!-- Node261&#45;&gt;Node262 -->
<g id="edge4" class="edge"><title>Node261&#45;&gt;Node262</title>
<path fill="none" stroke="midnightblue" d="M745.386,-71.4061C762.875,-71.4955 781.177,-71.5891 797.943,-71.6749"/>
<polygon fill="midnightblue" stroke="midnightblue" points="745.219,-67.9053 735.201,-71.354 745.183,-74.9052 745.219,-67.9053"/>
</g>
<!-- Node263 -->
<g id="node6" class="node"><title>Node263</title>
<g id="a_node6"><a xlink:href="../../d4/d27/a00392.html#af8d07412d21a441a5c7005a477b06468" target="_top" xlink:title="Immediate processing of a new task, in constant time Local processing, in one concept only...">
<polygon fill="none" stroke="black" points="980,-58 980,-88 1137,-88 1137,-58 980,-58"/>
<text text-anchor="start" x="988" y="-76" font-family="Helvetica,sans-Serif" font-size="10.00">nars.storage.Memory.immediate</text>
<text text-anchor="middle" x="1058.5" y="-65" font-family="Helvetica,sans-Serif" font-size="10.00">Process</text>
</a>
</g>
</g>
<!-- Node262&#45;&gt;Node263 -->
<g id="edge5" class="edge"><title>Node262&#45;&gt;Node263</title>
<path fill="none" stroke="midnightblue" d="M937.088,-72.3793C951.105,-72.4516 965.815,-72.5274 979.95,-72.6003"/>
<polygon fill="midnightblue" stroke="midnightblue" points="937.041,-68.8791 927.023,-72.3274 937.005,-75.879 937.041,-68.8791"/>
</g>
<!-- Node264 -->
<g id="node7" class="node"><title>Node264</title>
<g id="a_node7"><a xlink:href="../../d4/d27/a00392.html#ae43b86074c0d8f6a324696f69faa54b3" target="_top" xlink:title="Process the newTasks accumulated in the previous workCycle, accept input ones and those that correspo...">
<polygon fill="none" stroke="black" points="1173,-107 1173,-137 1319,-137 1319,-107 1173,-107"/>
<text text-anchor="start" x="1181" y="-125" font-family="Helvetica,sans-Serif" font-size="10.00">nars.storage.Memory.process</text>
<text text-anchor="middle" x="1246" y="-114" font-family="Helvetica,sans-Serif" font-size="10.00">NewTask</text>
</a>
</g>
</g>
<!-- Node263&#45;&gt;Node264 -->
<g id="edge6" class="edge"><title>Node263&#45;&gt;Node264</title>
<path fill="none" stroke="midnightblue" d="M1126.22,-90.6229C1146.51,-95.9837 1168.61,-101.823 1188.19,-106.994"/>
<polygon fill="midnightblue" stroke="midnightblue" points="1126.98,-87.2047 1116.42,-88.0346 1125.19,-93.9725 1126.98,-87.2047"/>
</g>
<!-- Node271 -->
<g id="node14" class="node"><title>Node271</title>
<g id="a_node14"><a xlink:href="../../d4/d27/a00392.html#a5061708f88897cfdf4e0671c846762ca" target="_top" xlink:title="Select a novel task to process. ">
<polygon fill="none" stroke="black" points="1173,-58 1173,-88 1319,-88 1319,-58 1173,-58"/>
<text text-anchor="start" x="1181" y="-76" font-family="Helvetica,sans-Serif" font-size="10.00">nars.storage.Memory.process</text>
<text text-anchor="middle" x="1246" y="-65" font-family="Helvetica,sans-Serif" font-size="10.00">NovelTask</text>
</a>
</g>
</g>
<!-- Node263&#45;&gt;Node271 -->
<g id="edge13" class="edge"><title>Node263&#45;&gt;Node271</title>
<path fill="none" stroke="midnightblue" d="M1147.12,-73C1155.71,-73 1164.35,-73 1172.75,-73"/>
<polygon fill="midnightblue" stroke="midnightblue" points="1147.09,-69.5001 1137.09,-73 1147.09,-76.5001 1147.09,-69.5001"/>
</g>
<!-- Node265 -->
<g id="node8" class="node"><title>Node265</title>
<g id="a_node8"><a xlink:href="../../d4/d27/a00392.html#a59ae339d666409988d90d29be4f73a91" target="_top" xlink:title="An atomic working workCycle of the system: process new Tasks, then fireFromProcessConcept a concept...">
<polygon fill="none" stroke="black" points="1355,-58 1355,-88 1488,-88 1488,-58 1355,-58"/>
<text text-anchor="start" x="1363" y="-76" font-family="Helvetica,sans-Serif" font-size="10.00">nars.storage.Memory.work</text>
<text text-anchor="middle" x="1421.5" y="-65" font-family="Helvetica,sans-Serif" font-size="10.00">Cycle</text>
</a>
</g>
</g>
<!-- Node264&#45;&gt;Node265 -->
<g id="edge7" class="edge"><title>Node264&#45;&gt;Node265</title>
<path fill="none" stroke="midnightblue" d="M1310.1,-104.179C1328.83,-98.8882 1349.16,-93.1478 1367.21,-88.0516"/>
<polygon fill="midnightblue" stroke="midnightblue" points="1309.14,-100.812 1300.47,-106.899 1311.05,-107.549 1309.14,-100.812"/>
</g>
<!-- Node266 -->
<g id="node9" class="node"><title>Node266</title>
<g id="a_node9"><a xlink:href="../../df/d15/a00416.html#a0d5c797dc17d9e8d0998852915e0f303" target="_top" xlink:title="nars.storage.ReasonerBatch.doTick">
<polygon fill="none" stroke="black" points="1524,-63.5 1524,-82.5 1697,-82.5 1697,-63.5 1524,-63.5"/>
<text text-anchor="middle" x="1610.5" y="-70.5" font-family="Helvetica,sans-Serif" font-size="10.00">nars.storage.ReasonerBatch.doTick</text>
</a>
</g>
</g>
<!-- Node265&#45;&gt;Node266 -->
<g id="edge8" class="edge"><title>Node265&#45;&gt;Node266</title>
<path fill="none" stroke="midnightblue" d="M1498.34,-73C1506.78,-73 1515.42,-73 1523.97,-73"/>
<polygon fill="midnightblue" stroke="midnightblue" points="1498.17,-69.5001 1488.17,-73 1498.17,-76.5001 1498.17,-69.5001"/>
</g>
<!-- Node267 -->
<g id="node10" class="node"><title>Node267</title>
<g id="a_node10"><a xlink:href="../../df/d15/a00416.html#a3468aa0f99edcd66412f27922dddb880" target="_top" xlink:title="A clock tick. ">
<polygon fill="none" stroke="black" points="1733,-63.5 1733,-82.5 1893,-82.5 1893,-63.5 1733,-63.5"/>
<text text-anchor="middle" x="1813" y="-70.5" font-family="Helvetica,sans-Serif" font-size="10.00">nars.storage.ReasonerBatch.tick</text>
</a>
</g>
</g>
<!-- Node266&#45;&gt;Node267 -->
<g id="edge9" class="edge"><title>Node266&#45;&gt;Node267</title>
<path fill="none" stroke="midnightblue" d="M1707.13,-73C1715.7,-73 1724.31,-73 1732.71,-73"/>
<polygon fill="midnightblue" stroke="midnightblue" points="1707.11,-69.5001 1697.11,-73 1707.11,-76.5001 1707.11,-69.5001"/>
</g>
<!-- Node268 -->
<g id="node11" class="node"><title>Node268</title>
<g id="a_node11"><a xlink:href="../../d9/da1/a00396.html#a5d9cfe517bcfbe41e5251910bcd119c1" target="_top" xlink:title="Run to completion: repeatedly execute NARS working cycle, until Inputs are Finished, or 1000 steps. ">
<polygon fill="none" stroke="black" points="1929,-63.5 1929,-82.5 2073,-82.5 2073,-63.5 1929,-63.5"/>
<text text-anchor="middle" x="2001" y="-70.5" font-family="Helvetica,sans-Serif" font-size="10.00">nars.storage.NARSBatch.run</text>
</a>
</g>
</g>
<!-- Node267&#45;&gt;Node268 -->
<g id="edge10" class="edge"><title>Node267&#45;&gt;Node268</title>
<path fill="none" stroke="midnightblue" d="M1903.22,-73C1911.82,-73 1920.47,-73 1928.87,-73"/>
<polygon fill="midnightblue" stroke="midnightblue" points="1903.15,-69.5001 1893.15,-73 1903.15,-76.5001 1903.15,-69.5001"/>
</g>
<!-- Node269 -->
<g id="node12" class="node"><title>Node269</title>
<g id="a_node12"><a xlink:href="../../d9/da1/a00396.html#a7c307c6b842f82664de6b0e52bdf8efc" target="_top" xlink:title="non&#45;static equivalent to main(String[]) : run to completion from an input file ">
<polygon fill="none" stroke="black" points="2109,-58 2109,-88 2253,-88 2253,-58 2109,-58"/>
<text text-anchor="start" x="2117" y="-76" font-family="Helvetica,sans-Serif" font-size="10.00">nars.storage.NARSBatch.run</text>
<text text-anchor="middle" x="2181" y="-65" font-family="Helvetica,sans-Serif" font-size="10.00">Inference</text>
</a>
</g>
</g>
<!-- Node268&#45;&gt;Node269 -->
<g id="edge11" class="edge"><title>Node268&#45;&gt;Node269</title>
<path fill="none" stroke="midnightblue" d="M2083.17,-73C2091.79,-73 2100.51,-73 2109,-73"/>
<polygon fill="midnightblue" stroke="midnightblue" points="2083.12,-69.5001 2073.12,-73 2083.12,-76.5001 2083.12,-69.5001"/>
</g>
<!-- Node270 -->
<g id="node13" class="node"><title>Node270</title>
<g id="a_node13"><a xlink:href="../../d9/da1/a00396.html#abafc597289bc2f6453b5cd0dd6634e54" target="_top" xlink:title="The entry point of the standalone application. ">
<polygon fill="none" stroke="black" points="2289,-63.5 2289,-82.5 2441,-82.5 2441,-63.5 2289,-63.5"/>
<text text-anchor="middle" x="2365" y="-70.5" font-family="Helvetica,sans-Serif" font-size="10.00">nars.storage.NARSBatch.main</text>
</a>
</g>
</g>
<!-- Node269&#45;&gt;Node270 -->
<g id="edge12" class="edge"><title>Node269&#45;&gt;Node270</title>
<path fill="none" stroke="midnightblue" d="M2263.17,-73C2271.76,-73 2280.48,-73 2289,-73"/>
<polygon fill="midnightblue" stroke="midnightblue" points="2263.15,-69.5001 2253.15,-73 2263.15,-76.5001 2263.15,-69.5001"/>
</g>
<!-- Node271&#45;&gt;Node265 -->
<g id="edge14" class="edge"><title>Node271&#45;&gt;Node265</title>
<path fill="none" stroke="midnightblue" d="M1329.12,-73C1337.72,-73 1346.37,-73 1354.76,-73"/>
<polygon fill="midnightblue" stroke="midnightblue" points="1329.07,-69.5001 1319.07,-73 1329.07,-76.5001 1329.07,-69.5001"/>
</g>
<!-- Node273 -->
<g id="node16" class="node"><title>Node273</title>
<g id="a_node16"><a xlink:href="../../dc/ded/a00252.html#ac2d01dfdc40bdd47c757cb549217e6e3" target="_top" xlink:title="Entry point of the inference engine. ">
<polygon fill="none" stroke="black" points="781,-14.5 781,-33.5 944,-33.5 944,-14.5 781,-14.5"/>
<text text-anchor="middle" x="862.5" y="-21.5" font-family="Helvetica,sans-Serif" font-size="10.00">nars.inference.RuleTables.reason</text>
</a>
</g>
</g>
<!-- Node272&#45;&gt;Node273 -->
<g id="edge16" class="edge"><title>Node272&#45;&gt;Node273</title>
<path fill="none" stroke="midnightblue" d="M755.499,-25.0844C763.962,-24.9978 772.507,-24.9104 780.88,-24.8248"/>
<polygon fill="midnightblue" stroke="midnightblue" points="755.199,-21.5872 745.236,-25.1894 755.271,-28.5868 755.199,-21.5872"/>
</g>
<!-- Node274 -->
<g id="node17" class="node"><title>Node274</title>
<g id="a_node17"><a xlink:href="../../d7/ded/a00196.html#ad6fb91dda799c3092ecb186ef24ca92a" target="_top" xlink:title="An atomic step in a concept, only called in Memory# processConcept. ">
<polygon fill="none" stroke="black" points="999,-9 999,-39 1118,-39 1118,-9 999,-9"/>
<text text-anchor="start" x="1007" y="-27" font-family="Helvetica,sans-Serif" font-size="10.00">nars.entity.Concept.fire</text>
<text text-anchor="middle" x="1058.5" y="-16" font-family="Helvetica,sans-Serif" font-size="10.00">FromProcessConcept</text>
</a>
</g>
</g>
<!-- Node273&#45;&gt;Node274 -->
<g id="edge17" class="edge"><title>Node273&#45;&gt;Node274</title>
<path fill="none" stroke="midnightblue" d="M954.461,-24C969.516,-24 984.765,-24 998.751,-24"/>
<polygon fill="midnightblue" stroke="midnightblue" points="954.088,-20.5001 944.088,-24 954.088,-27.5001 954.088,-20.5001"/>
</g>
<!-- Node275 -->
<g id="node18" class="node"><title>Node275</title>
<g id="a_node18"><a xlink:href="../../d4/d27/a00392.html#a0acc4adbf6a2462245da46bcb529746c" target="_top" xlink:title="Select a concept to fireFromProcessConcept. ">
<polygon fill="none" stroke="black" points="1173,-9 1173,-39 1319,-39 1319,-9 1173,-9"/>
<text text-anchor="start" x="1181" y="-27" font-family="Helvetica,sans-Serif" font-size="10.00">nars.storage.Memory.process</text>
<text text-anchor="middle" x="1246" y="-16" font-family="Helvetica,sans-Serif" font-size="10.00">Concept</text>
</a>
</g>
</g>
<!-- Node274&#45;&gt;Node275 -->
<g id="edge18" class="edge"><title>Node274&#45;&gt;Node275</title>
<path fill="none" stroke="midnightblue" d="M1128.52,-24C1142.93,-24 1158.16,-24 1172.68,-24"/>
<polygon fill="midnightblue" stroke="midnightblue" points="1128.19,-20.5001 1118.19,-24 1128.19,-27.5001 1128.19,-20.5001"/>
</g>
<!-- Node275&#45;&gt;Node265 -->
<g id="edge19" class="edge"><title>Node275&#45;&gt;Node265</title>
<path fill="none" stroke="midnightblue" d="M1310.1,-41.8212C1328.83,-47.1118 1349.16,-52.8522 1367.21,-57.9484"/>
<polygon fill="midnightblue" stroke="midnightblue" points="1311.05,-38.4512 1300.47,-39.1014 1309.14,-45.1877 1311.05,-38.4512"/>
</g>
</g>
</svg>
