<?xml version="1.0" encoding="UTF-8" standalone="no"?>
<!DOCTYPE svg PUBLIC "-//W3C//DTD SVG 1.1//EN"
 "http://www.w3.org/Graphics/SVG/1.1/DTD/svg11.dtd">
<!-- Generated by graphviz version 2.38.0 (20140413.2041)
 -->
<!-- Title: nars.entity.TruthValue.TruthValue Pages: 1 -->
<svg width="311pt" height="88pt"
 viewBox="0.00 0.00 311.00 88.00" xmlns="http://www.w3.org/2000/svg" xmlns:xlink="http://www.w3.org/1999/xlink">
<g id="graph0" class="graph" transform="scale(1 1) rotate(0) translate(4 84)">
<title>nars.entity.TruthValue.TruthValue</title>
<!-- Node5 -->
<g id="node1" class="node"><title>Node5</title>
<polygon fill="#bfbfbf" stroke="black" points="0,-24.5 0,-54.5 138,-54.5 138,-24.5 0,-24.5"/>
<text text-anchor="start" x="8" y="-42.5" font-family="Helvetica,sans-Serif" font-size="10.00">nars.entity.TruthValue.Truth</text>
<text text-anchor="middle" x="69" y="-31.5" font-family="Helvetica,sans-Serif" font-size="10.00">Value</text>
</g>
<!-- Node6 -->
<g id="node2" class="node"><title>Node6</title>
<g id="a_node2"><a xlink:href="../../d7/d40/a00236.html#af1ddfd8d64812966379f934fb635a2af" target="_top" xlink:title="nars.entity.TruthValue.set\lConfidence">
<polygon fill="none" stroke="black" points="174,-49.5 174,-79.5 303,-79.5 303,-49.5 174,-49.5"/>
<text text-anchor="start" x="182" y="-67.5" font-family="Helvetica,sans-Serif" font-size="10.00">nars.entity.TruthValue.set</text>
<text text-anchor="middle" x="238.5" y="-56.5" font-family="Helvetica,sans-Serif" font-size="10.00">Confidence</text>
</a>
</g>
</g>
<!-- Node5&#45;&gt;Node6 -->
<g id="edge1" class="edge"><title>Node5&#45;&gt;Node6</title>
<path fill="none" stroke="midnightblue" d="M138.129,-49.6685C146.592,-50.9316 155.275,-52.2276 163.817,-53.5025"/>
<polygon fill="midnightblue" stroke="midnightblue" points="163.35,-56.9716 173.757,-54.9862 164.384,-50.0482 163.35,-56.9716"/>
</g>
<!-- Node7 -->
<g id="node3" class="node"><title>Node7</title>
<g id="a_node3"><a xlink:href="../../d7/d40/a00236.html#ab5b8f4d9d15d096431644af38450bab0" target="_top" xlink:title="nars.entity.TruthValue.set\lFrequency">
<polygon fill="none" stroke="black" points="174,-0.5 174,-30.5 303,-30.5 303,-0.5 174,-0.5"/>
<text text-anchor="start" x="182" y="-18.5" font-family="Helvetica,sans-Serif" font-size="10.00">nars.entity.TruthValue.set</text>
<text text-anchor="middle" x="238.5" y="-7.5" font-family="Helvetica,sans-Serif" font-size="10.00">Frequency</text>
</a>
</g>
</g>
<!-- Node5&#45;&gt;Node7 -->
<g id="edge2" class="edge"><title>Node5&#45;&gt;Node7</title>
<path fill="none" stroke="midnightblue" d="M138.129,-29.7383C146.592,-28.5257 155.275,-27.2815 163.817,-26.0576"/>
<polygon fill="midnightblue" stroke="midnightblue" points="164.355,-29.5163 173.757,-24.6333 163.362,-22.5871 164.355,-29.5163"/>
</g>
</g>
</svg>
