<?xml version="1.0" encoding="UTF-8" standalone="no"?>
<!DOCTYPE svg PUBLIC "-//W3C//DTD SVG 1.1//EN"
 "http://www.w3.org/Graphics/SVG/1.1/DTD/svg11.dtd">
<!-- Generated by graphviz version 2.38.0 (20140413.2041)
 -->
<!-- Title: nars.entity.Stamp.Stamp Pages: 1 -->
<svg width="345pt" height="127pt"
 viewBox="0.00 0.00 345.00 127.00" xmlns="http://www.w3.org/2000/svg" xmlns:xlink="http://www.w3.org/1999/xlink">
<g id="graph0" class="graph" transform="scale(1 1) rotate(0) translate(4 123)">
<title>nars.entity.Stamp.Stamp</title>
<!-- Node0 -->
<g id="node1" class="node"><title>Node0</title>
<polygon fill="#bfbfbf" stroke="black" points="0,-50 0,-69 125,-69 125,-50 0,-50"/>
<text text-anchor="middle" x="62.5" y="-57" font-family="Helvetica,sans-Serif" font-size="10.00">nars.entity.Stamp.Stamp</text>
</g>
<!-- Node1 -->
<g id="node2" class="node"><title>Node1</title>
<g id="a_node2"><a xlink:href="../../d6/d43/a00216.html#a7c3a7c21f049a6dfe9dbc088caae4abf" target="_top" xlink:title="serial number, for the whole system TODO : should it really be static? or a Stamp be a field in Reaso...">
<polygon fill="none" stroke="black" points="177.5,-88.5 177.5,-118.5 320.5,-118.5 320.5,-88.5 177.5,-88.5"/>
<text text-anchor="start" x="185.5" y="-106.5" font-family="Helvetica,sans-Serif" font-size="10.00">nars.entity.Stamp.getCurrent</text>
<text text-anchor="middle" x="249" y="-95.5" font-family="Helvetica,sans-Serif" font-size="10.00">Serial</text>
</a>
</g>
</g>
<!-- Node0&#45;&gt;Node1 -->
<g id="edge1" class="edge"><title>Node0&#45;&gt;Node1</title>
<path fill="none" stroke="midnightblue" d="M103.534,-69.0473C124.399,-74.0233 150.578,-80.2666 174.9,-86.0669"/>
<polygon fill="midnightblue" stroke="midnightblue" points="174.289,-89.5193 184.828,-88.4346 175.913,-82.7103 174.289,-89.5193"/>
</g>
<!-- Node2 -->
<g id="node3" class="node"><title>Node2</title>
<g id="a_node3"><a xlink:href="../../d6/d43/a00216.html#ac84c7f26ab8e0740bab4335f33396e2c" target="_top" xlink:title="serial numbers ">
<polygon fill="none" stroke="black" points="161,-50 161,-69 337,-69 337,-50 161,-50"/>
<text text-anchor="middle" x="249" y="-57" font-family="Helvetica,sans-Serif" font-size="10.00">nars.entity.Stamp.getEvidentialBase</text>
</a>
</g>
</g>
<!-- Node0&#45;&gt;Node2 -->
<g id="edge2" class="edge"><title>Node0&#45;&gt;Node2</title>
<path fill="none" stroke="midnightblue" d="M125.192,-59.5C133.399,-59.5 141.97,-59.5 150.601,-59.5"/>
<polygon fill="midnightblue" stroke="midnightblue" points="150.743,-63.0001 160.743,-59.5 150.743,-56.0001 150.743,-63.0001"/>
</g>
<!-- Node3 -->
<g id="node4" class="node"><title>Node3</title>
<g id="a_node4"><a xlink:href="../../d6/d43/a00216.html#a8b3fd059e38dcb039a01ab991ec6614f" target="_top" xlink:title="nars.entity.Stamp.setCurrent\lSerial">
<polygon fill="none" stroke="black" points="177.5,-0.5 177.5,-30.5 320.5,-30.5 320.5,-0.5 177.5,-0.5"/>
<text text-anchor="start" x="185.5" y="-18.5" font-family="Helvetica,sans-Serif" font-size="10.00">nars.entity.Stamp.setCurrent</text>
<text text-anchor="middle" x="249" y="-7.5" font-family="Helvetica,sans-Serif" font-size="10.00">Serial</text>
</a>
</g>
</g>
<!-- Node0&#45;&gt;Node3 -->
<g id="edge3" class="edge"><title>Node0&#45;&gt;Node3</title>
<path fill="none" stroke="midnightblue" d="M103.534,-49.9527C124.399,-44.9767 150.578,-38.7334 174.9,-32.9331"/>
<polygon fill="midnightblue" stroke="midnightblue" points="175.913,-36.2897 184.828,-30.5654 174.289,-29.4807 175.913,-36.2897"/>
</g>
</g>
</svg>
