<?xml version="1.0" encoding="UTF-8" standalone="no"?>
<!DOCTYPE svg PUBLIC "-//W3C//DTD SVG 1.1//EN"
 "http://www.w3.org/Graphics/SVG/1.1/DTD/svg11.dtd">
<!-- Generated by graphviz version 2.38.0 (20140413.2041)
 -->
<!-- Title: nars.entity.Stamp.createStamp Pages: 1 -->
<svg width="505pt" height="127pt"
 viewBox="0.00 0.00 505.00 127.00" xmlns="http://www.w3.org/2000/svg" xmlns:xlink="http://www.w3.org/1999/xlink">
<g id="graph0" class="graph" transform="scale(1 1) rotate(0) translate(4 123)">
<title>nars.entity.Stamp.createStamp</title>
<!-- Node56 -->
<g id="node1" class="node"><title>Node56</title>
<polygon fill="#bfbfbf" stroke="black" points="0,-44.5 0,-74.5 124,-74.5 124,-44.5 0,-44.5"/>
<text text-anchor="start" x="8" y="-62.5" font-family="Helvetica,sans-Serif" font-size="10.00">nars.entity.Stamp.create</text>
<text text-anchor="middle" x="62" y="-51.5" font-family="Helvetica,sans-Serif" font-size="10.00">Stamp</text>
</g>
<!-- Node57 -->
<g id="node2" class="node"><title>Node57</title>
<g id="a_node2"><a xlink:href="../../d6/d43/a00216.html#a959f21fb20f72cfd277d994332e862c3" target="_top" xlink:title="Generate a new stamp, with a new serial number, for a new Task. ">
<polygon fill="none" stroke="black" points="160,-50 160,-69 285,-69 285,-50 160,-50"/>
<text text-anchor="middle" x="222.5" y="-57" font-family="Helvetica,sans-Serif" font-size="10.00">nars.entity.Stamp.Stamp</text>
</a>
</g>
</g>
<!-- Node56&#45;&gt;Node57 -->
<g id="edge1" class="edge"><title>Node56&#45;&gt;Node57</title>
<path fill="none" stroke="midnightblue" d="M124.28,-59.5C132.579,-59.5 141.156,-59.5 149.619,-59.5"/>
<polygon fill="midnightblue" stroke="midnightblue" points="149.86,-63.0001 159.86,-59.5 149.86,-56.0001 149.86,-63.0001"/>
</g>
<!-- Node58 -->
<g id="node3" class="node"><title>Node58</title>
<g id="a_node3"><a xlink:href="../../d6/d43/a00216.html#a7c3a7c21f049a6dfe9dbc088caae4abf" target="_top" xlink:title="serial number, for the whole system TODO : should it really be static? or a Stamp be a field in Reaso...">
<polygon fill="none" stroke="black" points="337.5,-88.5 337.5,-118.5 480.5,-118.5 480.5,-88.5 337.5,-88.5"/>
<text text-anchor="start" x="345.5" y="-106.5" font-family="Helvetica,sans-Serif" font-size="10.00">nars.entity.Stamp.getCurrent</text>
<text text-anchor="middle" x="409" y="-95.5" font-family="Helvetica,sans-Serif" font-size="10.00">Serial</text>
</a>
</g>
</g>
<!-- Node57&#45;&gt;Node58 -->
<g id="edge2" class="edge"><title>Node57&#45;&gt;Node58</title>
<path fill="none" stroke="midnightblue" d="M263.534,-69.0473C284.399,-74.0233 310.578,-80.2666 334.9,-86.0669"/>
<polygon fill="midnightblue" stroke="midnightblue" points="334.289,-89.5193 344.828,-88.4346 335.913,-82.7103 334.289,-89.5193"/>
</g>
<!-- Node59 -->
<g id="node4" class="node"><title>Node59</title>
<g id="a_node4"><a xlink:href="../../d6/d43/a00216.html#ac84c7f26ab8e0740bab4335f33396e2c" target="_top" xlink:title="serial numbers ">
<polygon fill="none" stroke="black" points="321,-50 321,-69 497,-69 497,-50 321,-50"/>
<text text-anchor="middle" x="409" y="-57" font-family="Helvetica,sans-Serif" font-size="10.00">nars.entity.Stamp.getEvidentialBase</text>
</a>
</g>
</g>
<!-- Node57&#45;&gt;Node59 -->
<g id="edge3" class="edge"><title>Node57&#45;&gt;Node59</title>
<path fill="none" stroke="midnightblue" d="M285.192,-59.5C293.399,-59.5 301.97,-59.5 310.601,-59.5"/>
<polygon fill="midnightblue" stroke="midnightblue" points="310.743,-63.0001 320.743,-59.5 310.743,-56.0001 310.743,-63.0001"/>
</g>
<!-- Node60 -->
<g id="node5" class="node"><title>Node60</title>
<g id="a_node5"><a xlink:href="../../d6/d43/a00216.html#a8b3fd059e38dcb039a01ab991ec6614f" target="_top" xlink:title="nars.entity.Stamp.setCurrent\lSerial">
<polygon fill="none" stroke="black" points="337.5,-0.5 337.5,-30.5 480.5,-30.5 480.5,-0.5 337.5,-0.5"/>
<text text-anchor="start" x="345.5" y="-18.5" font-family="Helvetica,sans-Serif" font-size="10.00">nars.entity.Stamp.setCurrent</text>
<text text-anchor="middle" x="409" y="-7.5" font-family="Helvetica,sans-Serif" font-size="10.00">Serial</text>
</a>
</g>
</g>
<!-- Node57&#45;&gt;Node60 -->
<g id="edge4" class="edge"><title>Node57&#45;&gt;Node60</title>
<path fill="none" stroke="midnightblue" d="M263.534,-49.9527C284.399,-44.9767 310.578,-38.7334 334.9,-32.9331"/>
<polygon fill="midnightblue" stroke="midnightblue" points="335.913,-36.2897 344.828,-30.5654 334.289,-29.4807 335.913,-36.2897"/>
</g>
</g>
</svg>
