<?xml version="1.0" encoding="UTF-8" standalone="no"?>
<!DOCTYPE svg PUBLIC "-//W3C//DTD SVG 1.1//EN"
 "http://www.w3.org/Graphics/SVG/1.1/DTD/svg11.dtd">
<!-- Generated by graphviz version 2.38.0 (20140413.2041)
 -->
<!-- Title: nars.entity.Stamp.equals Pages: 1 -->
<!--zoomable 176 -->
<svg id="main" version="1.1" xmlns="http://www.w3.org/2000/svg" xmlns:xlink="http://www.w3.org/1999/xlink" xml:space="preserve" onload="init(evt)">
<style type="text/css"><![CDATA[
.edge:hover path { stroke: red; }
.edge:hover polygon { stroke: red; fill: red; }
]]></style>
<script type="text/javascript"><![CDATA[
var edges = document.getElementsByTagName('g');
if (edges && edges.length) {
  for (var i=0;i<edges.length;i++) {
    if (edges[i].id.substr(0,4)=='edge') {
      edges[i].setAttribute('class','edge');
    }
  }
}
]]></script>
        <defs>
                <circle id="rim" cx="0" cy="0" r="7"/>
                <circle id="rim2" cx="0" cy="0" r="3.5"/>
                <g id="zoomPlus">
                        <use xlink:href="#rim" fill="#404040">
                                <set attributeName="fill" to="#808080" begin="zoomplus.mouseover" end="zoomplus.mouseout"/>
                        </use>
                        <path d="M-4,0h8M0,-4v8" fill="none" stroke="white" stroke-width="1.5" pointer-events="none"/>
                </g>
                <g id="zoomMin">
                        <use xlink:href="#rim" fill="#404040">
                                <set attributeName="fill" to="#808080" begin="zoomminus.mouseover" end="zoomminus.mouseout"/>
                        </use>
                        <path d="M-4,0h8" fill="none" stroke="white" stroke-width="1.5" pointer-events="none"/>
                </g>
                <g id="dirArrow">
                        <path fill="none" stroke="white" stroke-width="1.5" d="M0,-3.0v7 M-2.5,-0.5L0,-3.0L2.5,-0.5"/>
                </g>
               <g id="resetDef">
                       <use xlink:href="#rim2" fill="#404040">
                               <set attributeName="fill" to="#808080" begin="reset.mouseover" end="reset.mouseout"/>
                       </use>
               </g>
        </defs>

<script type="text/javascript">
var viewWidth = 506;
var viewHeight = 176;
var sectionId = 'dynsection-11';
</script>
<script xlink:href="../../svgpan.js"/>
<svg id="graph" class="graph">
<g id="viewport">
<title>nars.entity.Stamp.equals</title>
<!-- Node73 -->
<g id="node1" class="node"><title>Node73</title>
<polygon fill="#bfbfbf" stroke="black" points="0,-70 0,-89 125,-89 125,-70 0,-70"/>
<text text-anchor="middle" x="62.5" y="-77" font-family="Helvetica,sans-Serif" font-size="10.00">nars.entity.Stamp.equals</text>
</g>
<!-- Node74 -->
<g id="node2" class="node"><title>Node74</title>
<g id="a_node2"><a xlink:href="../../d6/d43/a00216.html#a959f21fb20f72cfd277d994332e862c3" target="_top" xlink:title="Generate a new stamp, with a new serial number, for a new Task. ">
<polygon fill="none" stroke="black" points="161,-91 161,-110 286,-110 286,-91 161,-91"/>
<text text-anchor="middle" x="223.5" y="-98" font-family="Helvetica,sans-Serif" font-size="10.00">nars.entity.Stamp.Stamp</text>
</a>
</g>
</g>
<!-- Node73&#45;&gt;Node74 -->
<g id="edge1" class="edge"><title>Node73&#45;&gt;Node74</title>
<path fill="none" stroke="midnightblue" d="M125.429,-87.6793C133.674,-88.7682 142.184,-89.8922 150.58,-91.0012"/>
<polygon fill="midnightblue" stroke="midnightblue" points="150.368,-94.5034 160.74,-92.343 151.285,-87.5637 150.368,-94.5034"/>
</g>
<!-- Node78 -->
<g id="node6" class="node"><title>Node78</title>
<g id="a_node6"><a xlink:href="../../d6/d43/a00216.html#a7b5d3afaab9fc48e2d4d571b8508970d" target="_top" xlink:title="Convert the evidentialBase into a set. ">
<polygon fill="none" stroke="black" points="163.5,-50 163.5,-69 283.5,-69 283.5,-50 163.5,-50"/>
<text text-anchor="middle" x="223.5" y="-57" font-family="Helvetica,sans-Serif" font-size="10.00">nars.entity.Stamp.toSet</text>
</a>
</g>
</g>
<!-- Node73&#45;&gt;Node78 -->
<g id="edge5" class="edge"><title>Node73&#45;&gt;Node78</title>
<path fill="none" stroke="midnightblue" d="M125.429,-71.7102C134.586,-70.5584 144.07,-69.3654 153.362,-68.1966"/>
<polygon fill="midnightblue" stroke="midnightblue" points="153.86,-71.6616 163.345,-66.9408 152.987,-64.7163 153.86,-71.6616"/>
</g>
<!-- Node75 -->
<g id="node3" class="node"><title>Node75</title>
<g id="a_node3"><a xlink:href="../../d6/d43/a00216.html#a7c3a7c21f049a6dfe9dbc088caae4abf" target="_top" xlink:title="serial number, for the whole system TODO : should it really be static? or a Stamp be a field in Reaso...">
<polygon fill="none" stroke="black" points="338.5,-137.5 338.5,-167.5 481.5,-167.5 481.5,-137.5 338.5,-137.5"/>
<text text-anchor="start" x="346.5" y="-155.5" font-family="Helvetica,sans-Serif" font-size="10.00">nars.entity.Stamp.getCurrent</text>
<text text-anchor="middle" x="410" y="-144.5" font-family="Helvetica,sans-Serif" font-size="10.00">Serial</text>
</a>
</g>
</g>
<!-- Node74&#45;&gt;Node75 -->
<g id="edge2" class="edge"><title>Node74&#45;&gt;Node75</title>
<path fill="none" stroke="midnightblue" d="M257.421,-110.047C276.307,-115.501 300.471,-122.439 322,-128.5 329.236,-130.537 336.815,-132.653 344.355,-134.748"/>
<polygon fill="midnightblue" stroke="midnightblue" points="343.641,-138.182 354.212,-137.48 345.511,-131.436 343.641,-138.182"/>
</g>
<!-- Node76 -->
<g id="node4" class="node"><title>Node76</title>
<g id="a_node4"><a xlink:href="../../d6/d43/a00216.html#ac84c7f26ab8e0740bab4335f33396e2c" target="_top" xlink:title="serial numbers ">
<polygon fill="none" stroke="black" points="322,-50 322,-69 498,-69 498,-50 322,-50"/>
<text text-anchor="middle" x="410" y="-57" font-family="Helvetica,sans-Serif" font-size="10.00">nars.entity.Stamp.getEvidentialBase</text>
</a>
</g>
</g>
<!-- Node74&#45;&gt;Node76 -->
<g id="edge3" class="edge"><title>Node74&#45;&gt;Node76</title>
<path fill="none" stroke="midnightblue" d="M267.292,-90.9907C293.743,-85.1126 327.897,-77.5228 356.047,-71.2673"/>
<polygon fill="midnightblue" stroke="midnightblue" points="357.119,-74.6147 366.121,-69.0286 355.6,-67.7814 357.119,-74.6147"/>
</g>
<!-- Node77 -->
<g id="node5" class="node"><title>Node77</title>
<g id="a_node5"><a xlink:href="../../d6/d43/a00216.html#a8b3fd059e38dcb039a01ab991ec6614f" target="_top" xlink:title="nars.entity.Stamp.setCurrent\lSerial">
<polygon fill="none" stroke="black" points="338.5,-88.5 338.5,-118.5 481.5,-118.5 481.5,-88.5 338.5,-88.5"/>
<text text-anchor="start" x="346.5" y="-106.5" font-family="Helvetica,sans-Serif" font-size="10.00">nars.entity.Stamp.setCurrent</text>
<text text-anchor="middle" x="410" y="-95.5" font-family="Helvetica,sans-Serif" font-size="10.00">Serial</text>
</a>
</g>
</g>
<!-- Node74&#45;&gt;Node77 -->
<g id="edge4" class="edge"><title>Node74&#45;&gt;Node77</title>
<path fill="none" stroke="midnightblue" d="M286.192,-101.503C299.68,-101.722 314.15,-101.958 328.255,-102.187"/>
<polygon fill="midnightblue" stroke="midnightblue" points="328.387,-105.69 338.442,-102.353 328.501,-98.6905 328.387,-105.69"/>
</g>
<!-- Node78&#45;&gt;Node76 -->
<g id="edge7" class="edge"><title>Node78&#45;&gt;Node76</title>
<path fill="none" stroke="midnightblue" d="M283.638,-59.5C292.713,-59.5 302.28,-59.5 311.918,-59.5"/>
<polygon fill="midnightblue" stroke="midnightblue" points="311.969,-63.0001 321.969,-59.5 311.969,-56.0001 311.969,-63.0001"/>
</g>
<!-- Node79 -->
<g id="node7" class="node"><title>Node79</title>
<g id="a_node7"><a xlink:href="../../d6/d43/a00216.html#ab6efde6c34037b63fc165d1bf95277a2" target="_top" xlink:title="evidentialBase baseLength ">
<polygon fill="none" stroke="black" points="343.5,-0.5 343.5,-30.5 476.5,-30.5 476.5,-0.5 343.5,-0.5"/>
<text text-anchor="start" x="351.5" y="-18.5" font-family="Helvetica,sans-Serif" font-size="10.00">nars.entity.Stamp.getBase</text>
<text text-anchor="middle" x="410" y="-7.5" font-family="Helvetica,sans-Serif" font-size="10.00">Length</text>
</a>
</g>
</g>
<!-- Node78&#45;&gt;Node79 -->
<g id="edge6" class="edge"><title>Node78&#45;&gt;Node79</title>
<path fill="none" stroke="midnightblue" d="M264.534,-49.9527C285.399,-44.9767 311.578,-38.7334 335.9,-32.9331"/>
<polygon fill="midnightblue" stroke="midnightblue" points="336.913,-36.2897 345.828,-30.5654 335.289,-29.4807 336.913,-36.2897"/>
</g>
</g>
</svg>
        <g id="navigator" transform="translate(0 0)" fill="#404254">
                <rect fill="#f2f5e9" fill-opacity="0.5" stroke="#606060" stroke-width=".5" x="0" y="0" width="60" height="60"/>
                <use id="zoomplus" xlink:href="#zoomPlus" x="17" y="9" onmousedown="handleZoom(evt,'in')"/>
                <use id="zoomminus" xlink:href="#zoomMin" x="42" y="9" onmousedown="handleZoom(evt,'out')"/>
                <use id="reset" xlink:href="#resetDef" x="30" y="36" onmousedown="handleReset()"/>
                <g id="arrowUp" xlink:href="#dirArrow" transform="translate(30 24)" onmousedown="handlePan(0,-1)">
                  <use xlink:href="#rim" fill="#404040">
                        <set attributeName="fill" to="#808080" begin="arrowUp.mouseover" end="arrowUp.mouseout"/>
                  </use>
                  <path fill="none" stroke="white" stroke-width="1.5" d="M0,-3.0v7 M-2.5,-0.5L0,-3.0L2.5,-0.5"/>
                </g>
                <g id="arrowRight" xlink:href="#dirArrow" transform="rotate(90) translate(36 -43)" onmousedown="handlePan(1,0)">
                  <use xlink:href="#rim" fill="#404040">
                        <set attributeName="fill" to="#808080" begin="arrowRight.mouseover" end="arrowRight.mouseout"/>
                  </use>
                  <path fill="none" stroke="white" stroke-width="1.5" d="M0,-3.0v7 M-2.5,-0.5L0,-3.0L2.5,-0.5"/>
                </g>
                <g id="arrowDown" xlink:href="#dirArrow" transform="rotate(180) translate(-30 -48)" onmousedown="handlePan(0,1)">
                  <use xlink:href="#rim" fill="#404040">
                        <set attributeName="fill" to="#808080" begin="arrowDown.mouseover" end="arrowDown.mouseout"/>
                  </use>
                  <path fill="none" stroke="white" stroke-width="1.5" d="M0,-3.0v7 M-2.5,-0.5L0,-3.0L2.5,-0.5"/>
                </g>
                <g id="arrowLeft" xlink:href="#dirArrow" transform="rotate(270) translate(-36 17)" onmousedown="handlePan(-1,0)">
                  <use xlink:href="#rim" fill="#404040">
                        <set attributeName="fill" to="#808080" begin="arrowLeft.mouseover" end="arrowLeft.mouseout"/>
                  </use>
                  <path fill="none" stroke="white" stroke-width="1.5" d="M0,-3.0v7 M-2.5,-0.5L0,-3.0L2.5,-0.5"/>
                </g>
        </g>
        <svg viewBox="0 0 15 15" width="100%" height="30px" preserveAspectRatio="xMaxYMin meet">
         <g id="arrow_out" transform="scale(0.3 0.3)">
          <a xlink:href="a00216_adb33cdf9f13e1a919f7220cb622e7446_cgraph_org.svg" target="_base">
           <rect id="button" ry="5" rx="5" y="6" x="6" height="38" width="38"
                fill="#f2f5e9" fill-opacity="0.5" stroke="#606060" stroke-width="1.0"/>
           <path id="arrow"
             d="M 11.500037,31.436501 C 11.940474,20.09759 22.043105,11.32322 32.158766,21.979434 L 37.068811,17.246167 C 37.068811,17.246167 37.088388,32 37.088388,32 L 22.160133,31.978069 C 22.160133,31.978069 26.997745,27.140456 26.997745,27.140456 C 18.528582,18.264221 13.291696,25.230495 11.500037,31.436501 z"
             style="fill:#404040;"/>
          </a>
         </g>
        </svg>
</svg>
