<?xml version="1.0" encoding="UTF-8" standalone="no"?>
<!DOCTYPE svg PUBLIC "-//W3C//DTD SVG 1.1//EN"
 "http://www.w3.org/Graphics/SVG/1.1/DTD/svg11.dtd">
<!-- Generated by graphviz version 2.38.0 (20140413.2041)
 -->
<!-- Title: nars.entity.Stamp.Stamp Pages: 1 -->
<svg width="2592pt" height="243pt"
 viewBox="0.00 0.00 2592.00 243.00" xmlns="http://www.w3.org/2000/svg" xmlns:xlink="http://www.w3.org/1999/xlink">
<g id="graph0" class="graph" transform="scale(1 1) rotate(0) translate(4 239)">
<title>nars.entity.Stamp.Stamp</title>
<!-- Node4 -->
<g id="node1" class="node"><title>Node4</title>
<polygon fill="#bfbfbf" stroke="black" points="0,-124 0,-143 125,-143 125,-124 0,-124"/>
<text text-anchor="middle" x="62.5" y="-131" font-family="Helvetica,sans-Serif" font-size="10.00">nars.entity.Stamp.Stamp</text>
</g>
<!-- Node5 -->
<g id="node2" class="node"><title>Node5</title>
<g id="a_node2"><a xlink:href="../../d6/d43/a00216.html#a034905573fe14fb73ba09bfa360eb608" target="_top" xlink:title="Clone a stamp. ">
<polygon fill="none" stroke="black" points="163.5,-200 163.5,-219 283.5,-219 283.5,-200 163.5,-200"/>
<text text-anchor="middle" x="223.5" y="-207" font-family="Helvetica,sans-Serif" font-size="10.00">nars.entity.Stamp.clone</text>
</a>
</g>
</g>
<!-- Node4&#45;&gt;Node5 -->
<g id="edge1" class="edge"><title>Node4&#45;&gt;Node5</title>
<path fill="none" stroke="midnightblue" d="M85.8767,-148.582C105.15,-161.076 134.04,-178.643 161,-190.5 169.081,-194.054 178.032,-197.224 186.545,-199.908"/>
<polygon fill="midnightblue" stroke="midnightblue" points="87.7686,-145.637 77.4894,-143.071 83.9244,-151.487 87.7686,-145.637"/>
</g>
<!-- Node6 -->
<g id="node3" class="node"><title>Node6</title>
<g id="a_node3"><a xlink:href="../../d6/d43/a00216.html#af05719e3d17bb1afa429fa6f9bc5bdd3" target="_top" xlink:title="nars.entity.Stamp.create\lStamp">
<polygon fill="none" stroke="black" points="161.5,-150.5 161.5,-180.5 285.5,-180.5 285.5,-150.5 161.5,-150.5"/>
<text text-anchor="start" x="169.5" y="-168.5" font-family="Helvetica,sans-Serif" font-size="10.00">nars.entity.Stamp.create</text>
<text text-anchor="middle" x="223.5" y="-157.5" font-family="Helvetica,sans-Serif" font-size="10.00">Stamp</text>
</a>
</g>
</g>
<!-- Node4&#45;&gt;Node6 -->
<g id="edge2" class="edge"><title>Node4&#45;&gt;Node6</title>
<path fill="none" stroke="midnightblue" d="M120.653,-145.002C133.832,-147.655 147.903,-150.487 161.249,-153.173"/>
<polygon fill="midnightblue" stroke="midnightblue" points="121.269,-141.556 110.775,-143.014 119.888,-148.419 121.269,-141.556"/>
</g>
<!-- Node12 -->
<g id="node9" class="node"><title>Node12</title>
<g id="a_node9"><a xlink:href="../../d6/d43/a00216.html#adb33cdf9f13e1a919f7220cb622e7446" target="_top" xlink:title="Check if two stamps contains the same content. ">
<polygon fill="none" stroke="black" points="161,-93 161,-112 286,-112 286,-93 161,-93"/>
<text text-anchor="middle" x="223.5" y="-100" font-family="Helvetica,sans-Serif" font-size="10.00">nars.entity.Stamp.equals</text>
</a>
</g>
</g>
<!-- Node4&#45;&gt;Node12 -->
<g id="edge8" class="edge"><title>Node4&#45;&gt;Node12</title>
<path fill="none" stroke="midnightblue" d="M122.749,-121.948C139.519,-118.679 157.577,-115.158 173.659,-112.022"/>
<polygon fill="midnightblue" stroke="midnightblue" points="121.648,-118.597 112.503,-123.946 122.988,-125.468 121.648,-118.597"/>
</g>
<!-- Node27 -->
<g id="node24" class="node"><title>Node27</title>
<g id="a_node24"><a xlink:href="../../d6/d43/a00216.html#a47f0e631d97f15a4b6520847c2c4d62a" target="_top" xlink:title="Try to merge two Stamps, return null if have overlap. ">
<polygon fill="none" stroke="black" points="546.5,-8 546.5,-27 667.5,-27 667.5,-8 546.5,-8"/>
<text text-anchor="middle" x="607" y="-15" font-family="Helvetica,sans-Serif" font-size="10.00">nars.entity.Stamp.make</text>
</a>
</g>
</g>
<!-- Node4&#45;&gt;Node27 -->
<g id="edge25" class="edge"><title>Node4&#45;&gt;Node27</title>
<path fill="none" stroke="midnightblue" d="M88.7386,-118.873C108.068,-108.09 135.636,-93.5997 161,-83.5 230.254,-55.924 248.602,-49.509 322,-36.5 398.635,-22.9172 488.471,-18.8559 546.257,-17.7414"/>
<polygon fill="midnightblue" stroke="midnightblue" points="86.9427,-115.868 79.9573,-123.834 90.3856,-121.962 86.9427,-115.868"/>
</g>
<!-- Node7 -->
<g id="node4" class="node"><title>Node7</title>
<g id="a_node4"><a xlink:href="../../d8/d0a/a00292.html#a75b446999d71c676a9915ecc75077a7d" target="_top" xlink:title="Enter a new Task in String into the memory, called from InputWindow or locally. ">
<polygon fill="none" stroke="black" points="328.5,-210 328.5,-229 480.5,-229 480.5,-210 328.5,-210"/>
<text text-anchor="middle" x="404.5" y="-217" font-family="Helvetica,sans-Serif" font-size="10.00">nars.io.StringParser.parseTask</text>
</a>
</g>
</g>
<!-- Node6&#45;&gt;Node7 -->
<g id="edge3" class="edge"><title>Node6&#45;&gt;Node7</title>
<path fill="none" stroke="midnightblue" d="M272.535,-183.989C288.182,-189.676 305.715,-195.696 322,-200.5 333.705,-203.953 346.504,-207.185 358.418,-209.971"/>
<polygon fill="midnightblue" stroke="midnightblue" points="273.658,-180.673 263.065,-180.505 271.242,-187.243 273.658,-180.673"/>
</g>
<!-- Node11 -->
<g id="node8" class="node"><title>Node11</title>
<g id="a_node8"><a xlink:href="../../d4/d27/a00392.html#aa0bc5b42c9b4999df3f43a546c5c8dfe" target="_top" xlink:title="Shared final operations by all single&#45;premise rules, called in StructuralRules. ">
<polygon fill="none" stroke="black" points="336,-160.5 336,-190.5 473,-190.5 473,-160.5 336,-160.5"/>
<text text-anchor="start" x="344" y="-178.5" font-family="Helvetica,sans-Serif" font-size="10.00">nars.storage.Memory.single</text>
<text text-anchor="middle" x="404.5" y="-167.5" font-family="Helvetica,sans-Serif" font-size="10.00">PremiseTask</text>
</a>
</g>
</g>
<!-- Node6&#45;&gt;Node11 -->
<g id="edge7" class="edge"><title>Node6&#45;&gt;Node11</title>
<path fill="none" stroke="midnightblue" d="M295.627,-169.474C308.908,-170.216 322.753,-170.989 335.923,-171.725"/>
<polygon fill="midnightblue" stroke="midnightblue" points="295.781,-165.977 285.601,-168.913 295.39,-172.966 295.781,-165.977"/>
</g>
<!-- Node8 -->
<g id="node5" class="node"><title>Node8</title>
<g id="a_node5"><a xlink:href="../../df/d15/a00416.html#a4766dfcaabdf586d60b9ac9827e41cad" target="_top" xlink:title="Parse a line of input experience. ">
<polygon fill="none" stroke="black" points="523,-204.5 523,-234.5 691,-234.5 691,-204.5 523,-204.5"/>
<text text-anchor="start" x="531" y="-222.5" font-family="Helvetica,sans-Serif" font-size="10.00">nars.storage.ReasonerBatch.parse</text>
<text text-anchor="middle" x="607" y="-211.5" font-family="Helvetica,sans-Serif" font-size="10.00">Experience</text>
</a>
</g>
</g>
<!-- Node7&#45;&gt;Node8 -->
<g id="edge4" class="edge"><title>Node7&#45;&gt;Node8</title>
<path fill="none" stroke="midnightblue" d="M490.843,-219.5C501.481,-219.5 512.349,-219.5 522.952,-219.5"/>
<polygon fill="midnightblue" stroke="midnightblue" points="490.729,-216 480.729,-219.5 490.729,-223 490.729,-216"/>
</g>
<!-- Node9 -->
<g id="node6" class="node"><title>Node9</title>
<g id="a_node6"><a xlink:href="../../df/d15/a00416.html#a1823f1575021b1ca67e6174923923fbb" target="_top" xlink:title="To process a line of input text. ">
<polygon fill="none" stroke="black" points="727,-204.5 727,-234.5 888,-234.5 888,-204.5 727,-204.5"/>
<text text-anchor="start" x="735" y="-222.5" font-family="Helvetica,sans-Serif" font-size="10.00">nars.storage.ReasonerBatch.text</text>
<text text-anchor="middle" x="807.5" y="-211.5" font-family="Helvetica,sans-Serif" font-size="10.00">InputLine</text>
</a>
</g>
</g>
<!-- Node8&#45;&gt;Node9 -->
<g id="edge5" class="edge"><title>Node8&#45;&gt;Node9</title>
<path fill="none" stroke="midnightblue" d="M701.131,-219.5C709.772,-219.5 718.476,-219.5 726.978,-219.5"/>
<polygon fill="midnightblue" stroke="midnightblue" points="701.032,-216 691.032,-219.5 701.032,-223 701.032,-216"/>
</g>
<!-- Node10 -->
<g id="node7" class="node"><title>Node10</title>
<g id="a_node7"><a xlink:href="../../d9/dd6/a00272.html#a1a4b66a6e6cf89d5c2ea7a5923195247" target="_top" xlink:title="Process the next chunk of input data TODO duplicated code with InputWindow#nextInput(). ">
<polygon fill="none" stroke="black" points="930,-204.5 930,-234.5 1081,-234.5 1081,-204.5 930,-204.5"/>
<text text-anchor="start" x="938" y="-222.5" font-family="Helvetica,sans-Serif" font-size="10.00">nars.io.ExperienceReader.next</text>
<text text-anchor="middle" x="1005.5" y="-211.5" font-family="Helvetica,sans-Serif" font-size="10.00">Input</text>
</a>
</g>
</g>
<!-- Node9&#45;&gt;Node10 -->
<g id="edge6" class="edge"><title>Node9&#45;&gt;Node10</title>
<path fill="none" stroke="midnightblue" d="M898.303,-219.5C908.877,-219.5 919.579,-219.5 929.912,-219.5"/>
<polygon fill="midnightblue" stroke="midnightblue" points="898.221,-216 888.221,-219.5 898.221,-223 898.221,-216"/>
</g>
<!-- Node13 -->
<g id="node10" class="node"><title>Node13</title>
<g id="a_node10"><a xlink:href="../../d7/ded/a00196.html#a40cddcc82ee28a1cf5b1f4bc14e2b078" target="_top" xlink:title="To accept a new judgment as isBelief, and check for revisions and solutions. ">
<polygon fill="none" stroke="black" points="737.5,-48.5 737.5,-78.5 877.5,-78.5 877.5,-48.5 737.5,-48.5"/>
<text text-anchor="start" x="745.5" y="-66.5" font-family="Helvetica,sans-Serif" font-size="10.00">nars.entity.Concept.process</text>
<text text-anchor="middle" x="807.5" y="-55.5" font-family="Helvetica,sans-Serif" font-size="10.00">Judgment</text>
</a>
</g>
</g>
<!-- Node12&#45;&gt;Node13 -->
<g id="edge9" class="edge"><title>Node12&#45;&gt;Node13</title>
<path fill="none" stroke="midnightblue" d="M296.194,-110.695C304.878,-111.439 313.633,-112.072 322,-112.5 486.192,-120.898 528.737,-112.963 691,-86.5 706.033,-84.0482 722.099,-81.0756 737.322,-78.0929"/>
<polygon fill="midnightblue" stroke="midnightblue" points="296.335,-107.194 286.06,-109.777 295.703,-114.165 296.335,-107.194"/>
</g>
<!-- Node24 -->
<g id="node21" class="node"><title>Node24</title>
<g id="a_node21"><a xlink:href="../../dd/dc1/a00212.html#a6b64cf9f10e578e4831092ab31dcd5d9" target="_top" xlink:title="To check whether two sentences are equal. ">
<polygon fill="none" stroke="black" points="335.5,-84 335.5,-103 473.5,-103 473.5,-84 335.5,-84"/>
<text text-anchor="middle" x="404.5" y="-91" font-family="Helvetica,sans-Serif" font-size="10.00">nars.entity.Sentence.equals</text>
</a>
</g>
</g>
<!-- Node12&#45;&gt;Node24 -->
<g id="edge21" class="edge"><title>Node12&#45;&gt;Node24</title>
<path fill="none" stroke="midnightblue" d="M296.301,-98.8899C309.182,-98.2422 322.573,-97.569 335.347,-96.9267"/>
<polygon fill="midnightblue" stroke="midnightblue" points="295.913,-95.4049 286.102,-99.4027 296.265,-102.396 295.913,-95.4049"/>
</g>
<!-- Node25 -->
<g id="node22" class="node"><title>Node25</title>
<g id="a_node22"><a xlink:href="../../dd/dc1/a00212.html#a83162edae863623803e811c0752d17fa" target="_top" xlink:title="Check whether the judgment is equivalent to another one. ">
<polygon fill="none" stroke="black" points="322,-46 322,-65 487,-65 487,-46 322,-46"/>
<text text-anchor="middle" x="404.5" y="-53" font-family="Helvetica,sans-Serif" font-size="10.00">nars.entity.Sentence.equivalentTo</text>
</a>
</g>
</g>
<!-- Node12&#45;&gt;Node25 -->
<g id="edge22" class="edge"><title>Node12&#45;&gt;Node25</title>
<path fill="none" stroke="midnightblue" d="M266.204,-90.0211C283.424,-84.9995 303.62,-79.2784 322,-74.5 334.515,-71.2465 348.178,-67.9588 360.679,-65.0539"/>
<polygon fill="midnightblue" stroke="midnightblue" points="265.055,-86.7106 256.445,-92.8845 267.026,-93.4274 265.055,-86.7106"/>
</g>
<!-- Node14 -->
<g id="node11" class="node"><title>Node14</title>
<g id="a_node11"><a xlink:href="../../d7/ded/a00196.html#a9ea7c3154932d7a736c105eb55daeb5c" target="_top" xlink:title="Directly process a new task. ">
<polygon fill="none" stroke="black" points="941,-48.5 941,-78.5 1070,-78.5 1070,-48.5 941,-48.5"/>
<text text-anchor="start" x="949" y="-66.5" font-family="Helvetica,sans-Serif" font-size="10.00">nars.entity.Concept.direct</text>
<text text-anchor="middle" x="1005.5" y="-55.5" font-family="Helvetica,sans-Serif" font-size="10.00">Process</text>
</a>
</g>
</g>
<!-- Node13&#45;&gt;Node14 -->
<g id="edge10" class="edge"><title>Node13&#45;&gt;Node14</title>
<path fill="none" stroke="midnightblue" d="M887.879,-63.5C905.529,-63.5 924.015,-63.5 940.933,-63.5"/>
<polygon fill="midnightblue" stroke="midnightblue" points="887.602,-60.0001 877.602,-63.5 887.602,-67.0001 887.602,-60.0001"/>
</g>
<!-- Node15 -->
<g id="node12" class="node"><title>Node15</title>
<g id="a_node12"><a xlink:href="../../d4/d27/a00392.html#af8d07412d21a441a5c7005a477b06468" target="_top" xlink:title="Immediate processing of a new task, in constant time Local processing, in one concept only...">
<polygon fill="none" stroke="black" points="1123,-49.5 1123,-79.5 1280,-79.5 1280,-49.5 1123,-49.5"/>
<text text-anchor="start" x="1131" y="-67.5" font-family="Helvetica,sans-Serif" font-size="10.00">nars.storage.Memory.immediate</text>
<text text-anchor="middle" x="1201.5" y="-56.5" font-family="Helvetica,sans-Serif" font-size="10.00">Process</text>
</a>
</g>
</g>
<!-- Node14&#45;&gt;Node15 -->
<g id="edge11" class="edge"><title>Node14&#45;&gt;Node15</title>
<path fill="none" stroke="midnightblue" d="M1080.09,-63.8793C1094.1,-63.9516 1108.81,-64.0274 1122.95,-64.1003"/>
<polygon fill="midnightblue" stroke="midnightblue" points="1080.04,-60.3791 1070.02,-63.8274 1080,-67.379 1080.04,-60.3791"/>
</g>
<!-- Node16 -->
<g id="node13" class="node"><title>Node16</title>
<g id="a_node13"><a xlink:href="../../d4/d27/a00392.html#ae43b86074c0d8f6a324696f69faa54b3" target="_top" xlink:title="Process the newTasks accumulated in the previous workCycle, accept input ones and those that correspo...">
<polygon fill="none" stroke="black" points="1316,-98.5 1316,-128.5 1462,-128.5 1462,-98.5 1316,-98.5"/>
<text text-anchor="start" x="1324" y="-116.5" font-family="Helvetica,sans-Serif" font-size="10.00">nars.storage.Memory.process</text>
<text text-anchor="middle" x="1389" y="-105.5" font-family="Helvetica,sans-Serif" font-size="10.00">NewTask</text>
</a>
</g>
</g>
<!-- Node15&#45;&gt;Node16 -->
<g id="edge12" class="edge"><title>Node15&#45;&gt;Node16</title>
<path fill="none" stroke="midnightblue" d="M1269.22,-82.1229C1289.51,-87.4837 1311.61,-93.3225 1331.19,-98.4938"/>
<polygon fill="midnightblue" stroke="midnightblue" points="1269.98,-78.7047 1259.42,-79.5346 1268.19,-85.4725 1269.98,-78.7047"/>
</g>
<!-- Node23 -->
<g id="node20" class="node"><title>Node23</title>
<g id="a_node20"><a xlink:href="../../d4/d27/a00392.html#a5061708f88897cfdf4e0671c846762ca" target="_top" xlink:title="Select a novel task to process. ">
<polygon fill="none" stroke="black" points="1316,-49.5 1316,-79.5 1462,-79.5 1462,-49.5 1316,-49.5"/>
<text text-anchor="start" x="1324" y="-67.5" font-family="Helvetica,sans-Serif" font-size="10.00">nars.storage.Memory.process</text>
<text text-anchor="middle" x="1389" y="-56.5" font-family="Helvetica,sans-Serif" font-size="10.00">NovelTask</text>
</a>
</g>
</g>
<!-- Node15&#45;&gt;Node23 -->
<g id="edge19" class="edge"><title>Node15&#45;&gt;Node23</title>
<path fill="none" stroke="midnightblue" d="M1290.12,-64.5C1298.71,-64.5 1307.35,-64.5 1315.75,-64.5"/>
<polygon fill="midnightblue" stroke="midnightblue" points="1290.09,-61.0001 1280.09,-64.5 1290.09,-68.0001 1290.09,-61.0001"/>
</g>
<!-- Node17 -->
<g id="node14" class="node"><title>Node17</title>
<g id="a_node14"><a xlink:href="../../d4/d27/a00392.html#a59ae339d666409988d90d29be4f73a91" target="_top" xlink:title="An atomic working workCycle of the system: process new Tasks, then fireFromProcessConcept a concept...">
<polygon fill="none" stroke="black" points="1498,-49.5 1498,-79.5 1631,-79.5 1631,-49.5 1498,-49.5"/>
<text text-anchor="start" x="1506" y="-67.5" font-family="Helvetica,sans-Serif" font-size="10.00">nars.storage.Memory.work</text>
<text text-anchor="middle" x="1564.5" y="-56.5" font-family="Helvetica,sans-Serif" font-size="10.00">Cycle</text>
</a>
</g>
</g>
<!-- Node16&#45;&gt;Node17 -->
<g id="edge13" class="edge"><title>Node16&#45;&gt;Node17</title>
<path fill="none" stroke="midnightblue" d="M1453.1,-95.6788C1471.83,-90.3882 1492.16,-84.6478 1510.21,-79.5516"/>
<polygon fill="midnightblue" stroke="midnightblue" points="1452.14,-92.3123 1443.47,-98.3986 1454.05,-99.0488 1452.14,-92.3123"/>
</g>
<!-- Node18 -->
<g id="node15" class="node"><title>Node18</title>
<g id="a_node15"><a xlink:href="../../df/d15/a00416.html#a0d5c797dc17d9e8d0998852915e0f303" target="_top" xlink:title="nars.storage.ReasonerBatch.doTick">
<polygon fill="none" stroke="black" points="1667,-55 1667,-74 1840,-74 1840,-55 1667,-55"/>
<text text-anchor="middle" x="1753.5" y="-62" font-family="Helvetica,sans-Serif" font-size="10.00">nars.storage.ReasonerBatch.doTick</text>
</a>
</g>
</g>
<!-- Node17&#45;&gt;Node18 -->
<g id="edge14" class="edge"><title>Node17&#45;&gt;Node18</title>
<path fill="none" stroke="midnightblue" d="M1641.34,-64.5C1649.78,-64.5 1658.42,-64.5 1666.97,-64.5"/>
<polygon fill="midnightblue" stroke="midnightblue" points="1641.17,-61.0001 1631.17,-64.5 1641.17,-68.0001 1641.17,-61.0001"/>
</g>
<!-- Node19 -->
<g id="node16" class="node"><title>Node19</title>
<g id="a_node16"><a xlink:href="../../df/d15/a00416.html#a3468aa0f99edcd66412f27922dddb880" target="_top" xlink:title="A clock tick. ">
<polygon fill="none" stroke="black" points="1876,-55 1876,-74 2036,-74 2036,-55 1876,-55"/>
<text text-anchor="middle" x="1956" y="-62" font-family="Helvetica,sans-Serif" font-size="10.00">nars.storage.ReasonerBatch.tick</text>
</a>
</g>
</g>
<!-- Node18&#45;&gt;Node19 -->
<g id="edge15" class="edge"><title>Node18&#45;&gt;Node19</title>
<path fill="none" stroke="midnightblue" d="M1850.13,-64.5C1858.7,-64.5 1867.31,-64.5 1875.71,-64.5"/>
<polygon fill="midnightblue" stroke="midnightblue" points="1850.11,-61.0001 1840.11,-64.5 1850.11,-68.0001 1850.11,-61.0001"/>
</g>
<!-- Node20 -->
<g id="node17" class="node"><title>Node20</title>
<g id="a_node17"><a xlink:href="../../d9/da1/a00396.html#a5d9cfe517bcfbe41e5251910bcd119c1" target="_top" xlink:title="Run to completion: repeatedly execute NARS working cycle, until Inputs are Finished, or 1000 steps. ">
<polygon fill="none" stroke="black" points="2072,-55 2072,-74 2216,-74 2216,-55 2072,-55"/>
<text text-anchor="middle" x="2144" y="-62" font-family="Helvetica,sans-Serif" font-size="10.00">nars.storage.NARSBatch.run</text>
</a>
</g>
</g>
<!-- Node19&#45;&gt;Node20 -->
<g id="edge16" class="edge"><title>Node19&#45;&gt;Node20</title>
<path fill="none" stroke="midnightblue" d="M2046.22,-64.5C2054.82,-64.5 2063.47,-64.5 2071.87,-64.5"/>
<polygon fill="midnightblue" stroke="midnightblue" points="2046.15,-61.0001 2036.15,-64.5 2046.15,-68.0001 2046.15,-61.0001"/>
</g>
<!-- Node21 -->
<g id="node18" class="node"><title>Node21</title>
<g id="a_node18"><a xlink:href="../../d9/da1/a00396.html#a7c307c6b842f82664de6b0e52bdf8efc" target="_top" xlink:title="non&#45;static equivalent to main(String[]) : run to completion from an input file ">
<polygon fill="none" stroke="black" points="2252,-49.5 2252,-79.5 2396,-79.5 2396,-49.5 2252,-49.5"/>
<text text-anchor="start" x="2260" y="-67.5" font-family="Helvetica,sans-Serif" font-size="10.00">nars.storage.NARSBatch.run</text>
<text text-anchor="middle" x="2324" y="-56.5" font-family="Helvetica,sans-Serif" font-size="10.00">Inference</text>
</a>
</g>
</g>
<!-- Node20&#45;&gt;Node21 -->
<g id="edge17" class="edge"><title>Node20&#45;&gt;Node21</title>
<path fill="none" stroke="midnightblue" d="M2226.17,-64.5C2234.79,-64.5 2243.51,-64.5 2252,-64.5"/>
<polygon fill="midnightblue" stroke="midnightblue" points="2226.12,-61.0001 2216.12,-64.5 2226.12,-68.0001 2226.12,-61.0001"/>
</g>
<!-- Node22 -->
<g id="node19" class="node"><title>Node22</title>
<g id="a_node19"><a xlink:href="../../d9/da1/a00396.html#abafc597289bc2f6453b5cd0dd6634e54" target="_top" xlink:title="The entry point of the standalone application. ">
<polygon fill="none" stroke="black" points="2432,-55 2432,-74 2584,-74 2584,-55 2432,-55"/>
<text text-anchor="middle" x="2508" y="-62" font-family="Helvetica,sans-Serif" font-size="10.00">nars.storage.NARSBatch.main</text>
</a>
</g>
</g>
<!-- Node21&#45;&gt;Node22 -->
<g id="edge18" class="edge"><title>Node21&#45;&gt;Node22</title>
<path fill="none" stroke="midnightblue" d="M2406.17,-64.5C2414.76,-64.5 2423.48,-64.5 2432,-64.5"/>
<polygon fill="midnightblue" stroke="midnightblue" points="2406.15,-61.0001 2396.15,-64.5 2406.15,-68.0001 2406.15,-61.0001"/>
</g>
<!-- Node23&#45;&gt;Node17 -->
<g id="edge20" class="edge"><title>Node23&#45;&gt;Node17</title>
<path fill="none" stroke="midnightblue" d="M1472.12,-64.5C1480.72,-64.5 1489.37,-64.5 1497.76,-64.5"/>
<polygon fill="midnightblue" stroke="midnightblue" points="1472.07,-61.0001 1462.07,-64.5 1472.07,-68.0001 1472.07,-61.0001"/>
</g>
<!-- Node26 -->
<g id="node23" class="node"><title>Node26</title>
<g id="a_node23"><a xlink:href="../../d7/ded/a00196.html#ad2ad743f666efee084cf306a42f8bf04" target="_top" xlink:title="Add a new belief (or goal) into the table Sort the beliefs/goals by rank, and remove redundant or low...">
<polygon fill="none" stroke="black" points="541,-47.5 541,-77.5 673,-77.5 673,-47.5 541,-47.5"/>
<text text-anchor="start" x="549" y="-65.5" font-family="Helvetica,sans-Serif" font-size="10.00">nars.entity.Concept.addTo</text>
<text text-anchor="middle" x="607" y="-54.5" font-family="Helvetica,sans-Serif" font-size="10.00">Table</text>
</a>
</g>
</g>
<!-- Node25&#45;&gt;Node26 -->
<g id="edge23" class="edge"><title>Node25&#45;&gt;Node26</title>
<path fill="none" stroke="midnightblue" d="M497.185,-58.701C511.902,-59.2148 526.867,-59.7373 540.799,-60.2237"/>
<polygon fill="midnightblue" stroke="midnightblue" points="497.167,-55.1983 487.051,-58.3472 496.923,-62.194 497.167,-55.1983"/>
</g>
<!-- Node26&#45;&gt;Node13 -->
<g id="edge24" class="edge"><title>Node26&#45;&gt;Node13</title>
<path fill="none" stroke="midnightblue" d="M683.554,-62.8806C701.259,-62.9698 720.032,-63.0644 737.437,-63.1521"/>
<polygon fill="midnightblue" stroke="midnightblue" points="683.289,-59.3793 673.271,-62.8288 683.253,-66.3793 683.289,-59.3793"/>
</g>
<!-- Node27&#45;&gt;Node13 -->
<g id="edge26" class="edge"><title>Node27&#45;&gt;Node13</title>
<path fill="none" stroke="midnightblue" d="M659.181,-29.3605C684.303,-35.1823 714.842,-42.2594 741.587,-48.4573"/>
<polygon fill="midnightblue" stroke="midnightblue" points="659.661,-25.8792 649.129,-27.0312 658.081,-32.6985 659.661,-25.8792"/>
</g>
<!-- Node28 -->
<g id="node25" class="node"><title>Node28</title>
<g id="a_node25"><a xlink:href="../../d7/ded/a00196.html#a37e00599fc19c5931da40bd446890f89" target="_top" xlink:title="Select a isBelief to interact with the given task in inference. ">
<polygon fill="none" stroke="black" points="736,-6 736,-25 879,-25 879,-6 736,-6"/>
<text text-anchor="middle" x="807.5" y="-13" font-family="Helvetica,sans-Serif" font-size="10.00">nars.entity.Concept.getBelief</text>
</a>
</g>
</g>
<!-- Node27&#45;&gt;Node28 -->
<g id="edge27" class="edge"><title>Node27&#45;&gt;Node28</title>
<path fill="none" stroke="midnightblue" d="M677.557,-16.7992C696.422,-16.6091 716.864,-16.4031 735.791,-16.2124"/>
<polygon fill="midnightblue" stroke="midnightblue" points="677.521,-13.2993 667.557,-16.8999 677.591,-20.2989 677.521,-13.2993"/>
</g>
<!-- Node29 -->
<g id="node26" class="node"><title>Node29</title>
<g id="a_node26"><a xlink:href="../../dc/ded/a00252.html#ac2d01dfdc40bdd47c757cb549217e6e3" target="_top" xlink:title="Entry point of the inference engine. ">
<polygon fill="none" stroke="black" points="924,-6 924,-25 1087,-25 1087,-6 924,-6"/>
<text text-anchor="middle" x="1005.5" y="-13" font-family="Helvetica,sans-Serif" font-size="10.00">nars.inference.RuleTables.reason</text>
</a>
</g>
</g>
<!-- Node28&#45;&gt;Node29 -->
<g id="edge28" class="edge"><title>Node28&#45;&gt;Node29</title>
<path fill="none" stroke="midnightblue" d="M889.561,-15.5C900.893,-15.5 912.536,-15.5 923.86,-15.5"/>
<polygon fill="midnightblue" stroke="midnightblue" points="889.261,-12.0001 879.26,-15.5 889.26,-19.0001 889.261,-12.0001"/>
</g>
<!-- Node30 -->
<g id="node27" class="node"><title>Node30</title>
<g id="a_node27"><a xlink:href="../../d7/ded/a00196.html#ad6fb91dda799c3092ecb186ef24ca92a" target="_top" xlink:title="An atomic step in a concept, only called in Memory# processConcept. ">
<polygon fill="none" stroke="black" points="1142,-0.5 1142,-30.5 1261,-30.5 1261,-0.5 1142,-0.5"/>
<text text-anchor="start" x="1150" y="-18.5" font-family="Helvetica,sans-Serif" font-size="10.00">nars.entity.Concept.fire</text>
<text text-anchor="middle" x="1201.5" y="-7.5" font-family="Helvetica,sans-Serif" font-size="10.00">FromProcessConcept</text>
</a>
</g>
</g>
<!-- Node29&#45;&gt;Node30 -->
<g id="edge29" class="edge"><title>Node29&#45;&gt;Node30</title>
<path fill="none" stroke="midnightblue" d="M1097.46,-15.5C1112.52,-15.5 1127.76,-15.5 1141.75,-15.5"/>
<polygon fill="midnightblue" stroke="midnightblue" points="1097.09,-12.0001 1087.09,-15.5 1097.09,-19.0001 1097.09,-12.0001"/>
</g>
<!-- Node31 -->
<g id="node28" class="node"><title>Node31</title>
<g id="a_node28"><a xlink:href="../../d4/d27/a00392.html#a0acc4adbf6a2462245da46bcb529746c" target="_top" xlink:title="Select a concept to fireFromProcessConcept. ">
<polygon fill="none" stroke="black" points="1316,-0.5 1316,-30.5 1462,-30.5 1462,-0.5 1316,-0.5"/>
<text text-anchor="start" x="1324" y="-18.5" font-family="Helvetica,sans-Serif" font-size="10.00">nars.storage.Memory.process</text>
<text text-anchor="middle" x="1389" y="-7.5" font-family="Helvetica,sans-Serif" font-size="10.00">Concept</text>
</a>
</g>
</g>
<!-- Node30&#45;&gt;Node31 -->
<g id="edge30" class="edge"><title>Node30&#45;&gt;Node31</title>
<path fill="none" stroke="midnightblue" d="M1271.52,-15.5C1285.93,-15.5 1301.16,-15.5 1315.68,-15.5"/>
<polygon fill="midnightblue" stroke="midnightblue" points="1271.19,-12.0001 1261.19,-15.5 1271.19,-19.0001 1271.19,-12.0001"/>
</g>
<!-- Node31&#45;&gt;Node17 -->
<g id="edge31" class="edge"><title>Node31&#45;&gt;Node17</title>
<path fill="none" stroke="midnightblue" d="M1453.1,-33.3212C1471.83,-38.6118 1492.16,-44.3522 1510.21,-49.4484"/>
<polygon fill="midnightblue" stroke="midnightblue" points="1454.05,-29.9512 1443.47,-30.6014 1452.14,-36.6877 1454.05,-29.9512"/>
</g>
</g>
</svg>
