<?xml version="1.0" encoding="UTF-8" standalone="no"?>
<!DOCTYPE svg PUBLIC "-//W3C//DTD SVG 1.1//EN"
 "http://www.w3.org/Graphics/SVG/1.1/DTD/svg11.dtd">
<!-- Generated by graphviz version 2.38.0 (20140413.2041)
 -->
<!-- Title: nars.entity.Stamp.createStamp Pages: 1 -->
<!--zoomable 127 -->
<svg id="main" version="1.1" xmlns="http://www.w3.org/2000/svg" xmlns:xlink="http://www.w3.org/1999/xlink" xml:space="preserve" onload="init(evt)">
<style type="text/css"><![CDATA[
.edge:hover path { stroke: red; }
.edge:hover polygon { stroke: red; fill: red; }
]]></style>
<script type="text/javascript"><![CDATA[
var edges = document.getElementsByTagName('g');
if (edges && edges.length) {
  for (var i=0;i<edges.length;i++) {
    if (edges[i].id.substr(0,4)=='edge') {
      edges[i].setAttribute('class','edge');
    }
  }
}
]]></script>
        <defs>
                <circle id="rim" cx="0" cy="0" r="7"/>
                <circle id="rim2" cx="0" cy="0" r="3.5"/>
                <g id="zoomPlus">
                        <use xlink:href="#rim" fill="#404040">
                                <set attributeName="fill" to="#808080" begin="zoomplus.mouseover" end="zoomplus.mouseout"/>
                        </use>
                        <path d="M-4,0h8M0,-4v8" fill="none" stroke="white" stroke-width="1.5" pointer-events="none"/>
                </g>
                <g id="zoomMin">
                        <use xlink:href="#rim" fill="#404040">
                                <set attributeName="fill" to="#808080" begin="zoomminus.mouseover" end="zoomminus.mouseout"/>
                        </use>
                        <path d="M-4,0h8" fill="none" stroke="white" stroke-width="1.5" pointer-events="none"/>
                </g>
                <g id="dirArrow">
                        <path fill="none" stroke="white" stroke-width="1.5" d="M0,-3.0v7 M-2.5,-0.5L0,-3.0L2.5,-0.5"/>
                </g>
               <g id="resetDef">
                       <use xlink:href="#rim2" fill="#404040">
                               <set attributeName="fill" to="#808080" begin="reset.mouseover" end="reset.mouseout"/>
                       </use>
               </g>
        </defs>

<script type="text/javascript">
var viewWidth = 505;
var viewHeight = 127;
var sectionId = 'dynsection-8';
</script>
<script xlink:href="../../svgpan.js"/>
<svg id="graph" class="graph">
<g id="viewport">
<title>nars.entity.Stamp.createStamp</title>
<!-- Node56 -->
<g id="node1" class="node"><title>Node56</title>
<polygon fill="#bfbfbf" stroke="black" points="0,-44.5 0,-74.5 124,-74.5 124,-44.5 0,-44.5"/>
<text text-anchor="start" x="8" y="-62.5" font-family="Helvetica,sans-Serif" font-size="10.00">nars.entity.Stamp.create</text>
<text text-anchor="middle" x="62" y="-51.5" font-family="Helvetica,sans-Serif" font-size="10.00">Stamp</text>
</g>
<!-- Node57 -->
<g id="node2" class="node"><title>Node57</title>
<g id="a_node2"><a xlink:href="../../d6/d43/a00216.html#a959f21fb20f72cfd277d994332e862c3" target="_top" xlink:title="Generate a new stamp, with a new serial number, for a new Task. ">
<polygon fill="none" stroke="black" points="160,-50 160,-69 285,-69 285,-50 160,-50"/>
<text text-anchor="middle" x="222.5" y="-57" font-family="Helvetica,sans-Serif" font-size="10.00">nars.entity.Stamp.Stamp</text>
</a>
</g>
</g>
<!-- Node56&#45;&gt;Node57 -->
<g id="edge1" class="edge"><title>Node56&#45;&gt;Node57</title>
<path fill="none" stroke="midnightblue" d="M124.28,-59.5C132.579,-59.5 141.156,-59.5 149.619,-59.5"/>
<polygon fill="midnightblue" stroke="midnightblue" points="149.86,-63.0001 159.86,-59.5 149.86,-56.0001 149.86,-63.0001"/>
</g>
<!-- Node58 -->
<g id="node3" class="node"><title>Node58</title>
<g id="a_node3"><a xlink:href="../../d6/d43/a00216.html#a7c3a7c21f049a6dfe9dbc088caae4abf" target="_top" xlink:title="serial number, for the whole system TODO : should it really be static? or a Stamp be a field in Reaso...">
<polygon fill="none" stroke="black" points="337.5,-88.5 337.5,-118.5 480.5,-118.5 480.5,-88.5 337.5,-88.5"/>
<text text-anchor="start" x="345.5" y="-106.5" font-family="Helvetica,sans-Serif" font-size="10.00">nars.entity.Stamp.getCurrent</text>
<text text-anchor="middle" x="409" y="-95.5" font-family="Helvetica,sans-Serif" font-size="10.00">Serial</text>
</a>
</g>
</g>
<!-- Node57&#45;&gt;Node58 -->
<g id="edge2" class="edge"><title>Node57&#45;&gt;Node58</title>
<path fill="none" stroke="midnightblue" d="M263.534,-69.0473C284.399,-74.0233 310.578,-80.2666 334.9,-86.0669"/>
<polygon fill="midnightblue" stroke="midnightblue" points="334.289,-89.5193 344.828,-88.4346 335.913,-82.7103 334.289,-89.5193"/>
</g>
<!-- Node59 -->
<g id="node4" class="node"><title>Node59</title>
<g id="a_node4"><a xlink:href="../../d6/d43/a00216.html#ac84c7f26ab8e0740bab4335f33396e2c" target="_top" xlink:title="serial numbers ">
<polygon fill="none" stroke="black" points="321,-50 321,-69 497,-69 497,-50 321,-50"/>
<text text-anchor="middle" x="409" y="-57" font-family="Helvetica,sans-Serif" font-size="10.00">nars.entity.Stamp.getEvidentialBase</text>
</a>
</g>
</g>
<!-- Node57&#45;&gt;Node59 -->
<g id="edge3" class="edge"><title>Node57&#45;&gt;Node59</title>
<path fill="none" stroke="midnightblue" d="M285.192,-59.5C293.399,-59.5 301.97,-59.5 310.601,-59.5"/>
<polygon fill="midnightblue" stroke="midnightblue" points="310.743,-63.0001 320.743,-59.5 310.743,-56.0001 310.743,-63.0001"/>
</g>
<!-- Node60 -->
<g id="node5" class="node"><title>Node60</title>
<g id="a_node5"><a xlink:href="../../d6/d43/a00216.html#a8b3fd059e38dcb039a01ab991ec6614f" target="_top" xlink:title="nars.entity.Stamp.setCurrent\lSerial">
<polygon fill="none" stroke="black" points="337.5,-0.5 337.5,-30.5 480.5,-30.5 480.5,-0.5 337.5,-0.5"/>
<text text-anchor="start" x="345.5" y="-18.5" font-family="Helvetica,sans-Serif" font-size="10.00">nars.entity.Stamp.setCurrent</text>
<text text-anchor="middle" x="409" y="-7.5" font-family="Helvetica,sans-Serif" font-size="10.00">Serial</text>
</a>
</g>
</g>
<!-- Node57&#45;&gt;Node60 -->
<g id="edge4" class="edge"><title>Node57&#45;&gt;Node60</title>
<path fill="none" stroke="midnightblue" d="M263.534,-49.9527C284.399,-44.9767 310.578,-38.7334 334.9,-32.9331"/>
<polygon fill="midnightblue" stroke="midnightblue" points="335.913,-36.2897 344.828,-30.5654 334.289,-29.4807 335.913,-36.2897"/>
</g>
</g>
</svg>
        <g id="navigator" transform="translate(0 0)" fill="#404254">
                <rect fill="#f2f5e9" fill-opacity="0.5" stroke="#606060" stroke-width=".5" x="0" y="0" width="60" height="60"/>
                <use id="zoomplus" xlink:href="#zoomPlus" x="17" y="9" onmousedown="handleZoom(evt,'in')"/>
                <use id="zoomminus" xlink:href="#zoomMin" x="42" y="9" onmousedown="handleZoom(evt,'out')"/>
                <use id="reset" xlink:href="#resetDef" x="30" y="36" onmousedown="handleReset()"/>
                <g id="arrowUp" xlink:href="#dirArrow" transform="translate(30 24)" onmousedown="handlePan(0,-1)">
                  <use xlink:href="#rim" fill="#404040">
                        <set attributeName="fill" to="#808080" begin="arrowUp.mouseover" end="arrowUp.mouseout"/>
                  </use>
                  <path fill="none" stroke="white" stroke-width="1.5" d="M0,-3.0v7 M-2.5,-0.5L0,-3.0L2.5,-0.5"/>
                </g>
                <g id="arrowRight" xlink:href="#dirArrow" transform="rotate(90) translate(36 -43)" onmousedown="handlePan(1,0)">
                  <use xlink:href="#rim" fill="#404040">
                        <set attributeName="fill" to="#808080" begin="arrowRight.mouseover" end="arrowRight.mouseout"/>
                  </use>
                  <path fill="none" stroke="white" stroke-width="1.5" d="M0,-3.0v7 M-2.5,-0.5L0,-3.0L2.5,-0.5"/>
                </g>
                <g id="arrowDown" xlink:href="#dirArrow" transform="rotate(180) translate(-30 -48)" onmousedown="handlePan(0,1)">
                  <use xlink:href="#rim" fill="#404040">
                        <set attributeName="fill" to="#808080" begin="arrowDown.mouseover" end="arrowDown.mouseout"/>
                  </use>
                  <path fill="none" stroke="white" stroke-width="1.5" d="M0,-3.0v7 M-2.5,-0.5L0,-3.0L2.5,-0.5"/>
                </g>
                <g id="arrowLeft" xlink:href="#dirArrow" transform="rotate(270) translate(-36 17)" onmousedown="handlePan(-1,0)">
                  <use xlink:href="#rim" fill="#404040">
                        <set attributeName="fill" to="#808080" begin="arrowLeft.mouseover" end="arrowLeft.mouseout"/>
                  </use>
                  <path fill="none" stroke="white" stroke-width="1.5" d="M0,-3.0v7 M-2.5,-0.5L0,-3.0L2.5,-0.5"/>
                </g>
        </g>
        <svg viewBox="0 0 15 15" width="100%" height="30px" preserveAspectRatio="xMaxYMin meet">
         <g id="arrow_out" transform="scale(0.3 0.3)">
          <a xlink:href="a00216_af05719e3d17bb1afa429fa6f9bc5bdd3_cgraph_org.svg" target="_base">
           <rect id="button" ry="5" rx="5" y="6" x="6" height="38" width="38"
                fill="#f2f5e9" fill-opacity="0.5" stroke="#606060" stroke-width="1.0"/>
           <path id="arrow"
             d="M 11.500037,31.436501 C 11.940474,20.09759 22.043105,11.32322 32.158766,21.979434 L 37.068811,17.246167 C 37.068811,17.246167 37.088388,32 37.088388,32 L 22.160133,31.978069 C 22.160133,31.978069 26.997745,27.140456 26.997745,27.140456 C 18.528582,18.264221 13.291696,25.230495 11.500037,31.436501 z"
             style="fill:#404040;"/>
          </a>
         </g>
        </svg>
</svg>
