<?xml version="1.0" encoding="UTF-8" standalone="no"?>
<!DOCTYPE svg PUBLIC "-//W3C//DTD SVG 1.1//EN"
 "http://www.w3.org/Graphics/SVG/1.1/DTD/svg11.dtd">
<!-- Generated by graphviz version 2.38.0 (20140413.2041)
 -->
<!-- Title: nars.entity.Stamp.make Pages: 1 -->
<svg width="510pt" height="160pt"
 viewBox="0.00 0.00 510.00 159.50" xmlns="http://www.w3.org/2000/svg" xmlns:xlink="http://www.w3.org/1999/xlink">
<g id="graph0" class="graph" transform="scale(1 1) rotate(0) translate(4 155.5)">
<title>nars.entity.Stamp.make</title>
<!-- Node235 -->
<g id="node1" class="node"><title>Node235</title>
<polygon fill="#bfbfbf" stroke="black" points="0,-88 0,-107 121,-107 121,-88 0,-88"/>
<text text-anchor="middle" x="60.5" y="-95" font-family="Helvetica,sans-Serif" font-size="10.00">nars.entity.Stamp.make</text>
</g>
<!-- Node236 -->
<g id="node2" class="node"><title>Node236</title>
<g id="a_node2"><a xlink:href="../../d6/d43/a00216.html#a546d6921dc3e1e4a9d1b80bf7f0356b4" target="_top" xlink:title="Get a number from the evidentialBase by index, called in this class only. ">
<polygon fill="none" stroke="black" points="168.5,-132 168.5,-151 278.5,-151 278.5,-132 168.5,-132"/>
<text text-anchor="middle" x="223.5" y="-139" font-family="Helvetica,sans-Serif" font-size="10.00">nars.entity.Stamp.get</text>
</a>
</g>
</g>
<!-- Node235&#45;&gt;Node236 -->
<g id="edge1" class="edge"><title>Node235&#45;&gt;Node236</title>
<path fill="none" stroke="midnightblue" d="M96.4346,-107.047C120.275,-113.563 152.066,-122.251 177.758,-129.272"/>
<polygon fill="midnightblue" stroke="midnightblue" points="177.065,-132.711 187.634,-131.971 178.91,-125.959 177.065,-132.711"/>
</g>
<!-- Node238 -->
<g id="node4" class="node"><title>Node238</title>
<g id="a_node4"><a xlink:href="../../d6/d43/a00216.html#ab6efde6c34037b63fc165d1bf95277a2" target="_top" xlink:title="evidentialBase baseLength ">
<polygon fill="none" stroke="black" points="157,-82.5 157,-112.5 290,-112.5 290,-82.5 157,-82.5"/>
<text text-anchor="start" x="165" y="-100.5" font-family="Helvetica,sans-Serif" font-size="10.00">nars.entity.Stamp.getBase</text>
<text text-anchor="middle" x="223.5" y="-89.5" font-family="Helvetica,sans-Serif" font-size="10.00">Length</text>
</a>
</g>
</g>
<!-- Node235&#45;&gt;Node238 -->
<g id="edge3" class="edge"><title>Node235&#45;&gt;Node238</title>
<path fill="none" stroke="midnightblue" d="M121.45,-97.5C129.65,-97.5 138.154,-97.5 146.59,-97.5"/>
<polygon fill="midnightblue" stroke="midnightblue" points="146.823,-101 156.823,-97.5 146.823,-94.0001 146.823,-101"/>
</g>
<!-- Node239 -->
<g id="node5" class="node"><title>Node239</title>
<g id="a_node5"><a xlink:href="../../d6/d43/a00216.html#a959f21fb20f72cfd277d994332e862c3" target="_top" xlink:title="Generate a new stamp, with a new serial number, for a new Task. ">
<polygon fill="none" stroke="black" points="161,-44 161,-63 286,-63 286,-44 161,-44"/>
<text text-anchor="middle" x="223.5" y="-51" font-family="Helvetica,sans-Serif" font-size="10.00">nars.entity.Stamp.Stamp</text>
</a>
</g>
</g>
<!-- Node235&#45;&gt;Node239 -->
<g id="edge4" class="edge"><title>Node235&#45;&gt;Node239</title>
<path fill="none" stroke="midnightblue" d="M96.4346,-87.9527C120.275,-81.4373 152.066,-72.7492 177.758,-65.7278"/>
<polygon fill="midnightblue" stroke="midnightblue" points="178.91,-69.0412 187.634,-63.0287 177.065,-62.2888 178.91,-69.0412"/>
</g>
<!-- Node237 -->
<g id="node3" class="node"><title>Node237</title>
<g id="a_node3"><a xlink:href="../../d6/d43/a00216.html#ac84c7f26ab8e0740bab4335f33396e2c" target="_top" xlink:title="serial numbers ">
<polygon fill="none" stroke="black" points="326,-110 326,-129 502,-129 502,-110 326,-110"/>
<text text-anchor="middle" x="414" y="-117" font-family="Helvetica,sans-Serif" font-size="10.00">nars.entity.Stamp.getEvidentialBase</text>
</a>
</g>
</g>
<!-- Node236&#45;&gt;Node237 -->
<g id="edge2" class="edge"><title>Node236&#45;&gt;Node237</title>
<path fill="none" stroke="midnightblue" d="M278.517,-135.196C291.952,-133.628 306.731,-131.903 321.423,-130.188"/>
<polygon fill="midnightblue" stroke="midnightblue" points="322.036,-133.64 331.563,-129.005 321.225,-126.688 322.036,-133.64"/>
</g>
<!-- Node239&#45;&gt;Node237 -->
<g id="edge6" class="edge"><title>Node239&#45;&gt;Node237</title>
<path fill="none" stroke="midnightblue" d="M260.82,-63.0835C270.395,-65.8681 280.658,-69.087 290,-72.5 306.446,-78.5084 309.742,-82.0013 326,-88.5 341.878,-94.8466 359.624,-101.285 374.927,-106.637"/>
<polygon fill="midnightblue" stroke="midnightblue" points="373.991,-110.017 384.586,-109.986 376.284,-103.403 373.991,-110.017"/>
</g>
<!-- Node240 -->
<g id="node6" class="node"><title>Node240</title>
<g id="a_node6"><a xlink:href="../../d6/d43/a00216.html#a7c3a7c21f049a6dfe9dbc088caae4abf" target="_top" xlink:title="serial number, for the whole system TODO : should it really be static? or a Stamp be a field in Reaso...">
<polygon fill="none" stroke="black" points="342.5,-49.5 342.5,-79.5 485.5,-79.5 485.5,-49.5 342.5,-49.5"/>
<text text-anchor="start" x="350.5" y="-67.5" font-family="Helvetica,sans-Serif" font-size="10.00">nars.entity.Stamp.getCurrent</text>
<text text-anchor="middle" x="414" y="-56.5" font-family="Helvetica,sans-Serif" font-size="10.00">Serial</text>
</a>
</g>
</g>
<!-- Node239&#45;&gt;Node240 -->
<g id="edge5" class="edge"><title>Node239&#45;&gt;Node240</title>
<path fill="none" stroke="midnightblue" d="M286.222,-57.1018C300.931,-57.9602 316.845,-58.8888 332.266,-59.7887"/>
<polygon fill="midnightblue" stroke="midnightblue" points="332.124,-63.2863 342.311,-60.3749 332.532,-56.2982 332.124,-63.2863"/>
</g>
<!-- Node241 -->
<g id="node7" class="node"><title>Node241</title>
<g id="a_node7"><a xlink:href="../../d6/d43/a00216.html#a8b3fd059e38dcb039a01ab991ec6614f" target="_top" xlink:title="nars.entity.Stamp.setCurrent\lSerial">
<polygon fill="none" stroke="black" points="342.5,-0.5 342.5,-30.5 485.5,-30.5 485.5,-0.5 342.5,-0.5"/>
<text text-anchor="start" x="350.5" y="-18.5" font-family="Helvetica,sans-Serif" font-size="10.00">nars.entity.Stamp.setCurrent</text>
<text text-anchor="middle" x="414" y="-7.5" font-family="Helvetica,sans-Serif" font-size="10.00">Serial</text>
</a>
</g>
</g>
<!-- Node239&#45;&gt;Node241 -->
<g id="edge7" class="edge"><title>Node239&#45;&gt;Node241</title>
<path fill="none" stroke="midnightblue" d="M272.067,-43.911C290.344,-40.2265 311.754,-35.9103 332.289,-31.7707"/>
<polygon fill="midnightblue" stroke="midnightblue" points="333.171,-35.1634 342.282,-29.7562 331.787,-28.3015 333.171,-35.1634"/>
</g>
</g>
</svg>
