<?xml version="1.0" encoding="UTF-8" standalone="no"?>
<!DOCTYPE svg PUBLIC "-//W3C//DTD SVG 1.1//EN"
 "http://www.w3.org/Graphics/SVG/1.1/DTD/svg11.dtd">
<!-- Generated by graphviz version 2.38.0 (20140413.2041)
 -->
<!-- Title: nars.entity.Stamp.toSet Pages: 1 -->
<svg width="2496pt" height="115pt"
 viewBox="0.00 0.00 2496.00 114.50" xmlns="http://www.w3.org/2000/svg" xmlns:xlink="http://www.w3.org/1999/xlink">
<g id="graph0" class="graph" transform="scale(1 1) rotate(0) translate(4 110.5)">
<title>nars.entity.Stamp.toSet</title>
<!-- Node298 -->
<g id="node1" class="node"><title>Node298</title>
<polygon fill="#bfbfbf" stroke="black" points="0,-49 0,-68 120,-68 120,-49 0,-49"/>
<text text-anchor="middle" x="60" y="-56" font-family="Helvetica,sans-Serif" font-size="10.00">nars.entity.Stamp.toSet</text>
</g>
<!-- Node299 -->
<g id="node2" class="node"><title>Node299</title>
<g id="a_node2"><a xlink:href="../../d6/d43/a00216.html#adb33cdf9f13e1a919f7220cb622e7446" target="_top" xlink:title="Check if two stamps contains the same content. ">
<polygon fill="none" stroke="black" points="156,-49 156,-68 281,-68 281,-49 156,-49"/>
<text text-anchor="middle" x="218.5" y="-56" font-family="Helvetica,sans-Serif" font-size="10.00">nars.entity.Stamp.equals</text>
</a>
</g>
</g>
<!-- Node298&#45;&gt;Node299 -->
<g id="edge1" class="edge"><title>Node298&#45;&gt;Node299</title>
<path fill="none" stroke="midnightblue" d="M130.424,-58.5C138.913,-58.5 147.542,-58.5 155.905,-58.5"/>
<polygon fill="midnightblue" stroke="midnightblue" points="130.166,-55.0001 120.166,-58.5 130.166,-62.0001 130.166,-55.0001"/>
</g>
<!-- Node300 -->
<g id="node3" class="node"><title>Node300</title>
<g id="a_node3"><a xlink:href="../../dd/dc1/a00212.html#a6b64cf9f10e578e4831092ab31dcd5d9" target="_top" xlink:title="To check whether two sentences are equal. ">
<polygon fill="none" stroke="black" points="330.5,-87 330.5,-106 468.5,-106 468.5,-87 330.5,-87"/>
<text text-anchor="middle" x="399.5" y="-94" font-family="Helvetica,sans-Serif" font-size="10.00">nars.entity.Sentence.equals</text>
</a>
</g>
</g>
<!-- Node299&#45;&gt;Node300 -->
<g id="edge2" class="edge"><title>Node299&#45;&gt;Node300</title>
<path fill="none" stroke="midnightblue" d="M274.524,-70.181C299.908,-75.5699 329.661,-81.8861 353.656,-86.9799"/>
<polygon fill="midnightblue" stroke="midnightblue" points="275.178,-66.742 264.669,-68.089 273.724,-73.5894 275.178,-66.742"/>
</g>
<!-- Node301 -->
<g id="node4" class="node"><title>Node301</title>
<g id="a_node4"><a xlink:href="../../dd/dc1/a00212.html#a83162edae863623803e811c0752d17fa" target="_top" xlink:title="Check whether the judgment is equivalent to another one. ">
<polygon fill="none" stroke="black" points="317,-49 317,-68 482,-68 482,-49 317,-49"/>
<text text-anchor="middle" x="399.5" y="-56" font-family="Helvetica,sans-Serif" font-size="10.00">nars.entity.Sentence.equivalentTo</text>
</a>
</g>
</g>
<!-- Node299&#45;&gt;Node301 -->
<g id="edge3" class="edge"><title>Node299&#45;&gt;Node301</title>
<path fill="none" stroke="midnightblue" d="M291.25,-58.5C299.676,-58.5 308.321,-58.5 316.869,-58.5"/>
<polygon fill="midnightblue" stroke="midnightblue" points="291.102,-55.0001 281.102,-58.5 291.102,-62.0001 291.102,-55.0001"/>
</g>
<!-- Node303 -->
<g id="node6" class="node"><title>Node303</title>
<g id="a_node6"><a xlink:href="../../d7/ded/a00196.html#a40cddcc82ee28a1cf5b1f4bc14e2b078" target="_top" xlink:title="To accept a new judgment as isBelief, and check for revisions and solutions. ">
<polygon fill="none" stroke="black" points="686,-24.5 686,-54.5 826,-54.5 826,-24.5 686,-24.5"/>
<text text-anchor="start" x="694" y="-42.5" font-family="Helvetica,sans-Serif" font-size="10.00">nars.entity.Concept.process</text>
<text text-anchor="middle" x="756" y="-31.5" font-family="Helvetica,sans-Serif" font-size="10.00">Judgment</text>
</a>
</g>
</g>
<!-- Node299&#45;&gt;Node303 -->
<g id="edge17" class="edge"><title>Node299&#45;&gt;Node303</title>
<path fill="none" stroke="midnightblue" d="M270.162,-46.8581C285.16,-43.8926 301.67,-41.0954 317,-39.5 446.711,-26.0016 599.202,-30.5889 685.737,-35.088"/>
<polygon fill="midnightblue" stroke="midnightblue" points="269.15,-43.4925 260.054,-48.9252 270.553,-50.3506 269.15,-43.4925"/>
</g>
<!-- Node302 -->
<g id="node5" class="node"><title>Node302</title>
<g id="a_node5"><a xlink:href="../../d7/ded/a00196.html#ad2ad743f666efee084cf306a42f8bf04" target="_top" xlink:title="Add a new belief (or goal) into the table Sort the beliefs/goals by rank, and remove redundant or low...">
<polygon fill="none" stroke="black" points="518,-46.5 518,-76.5 650,-76.5 650,-46.5 518,-46.5"/>
<text text-anchor="start" x="526" y="-64.5" font-family="Helvetica,sans-Serif" font-size="10.00">nars.entity.Concept.addTo</text>
<text text-anchor="middle" x="584" y="-53.5" font-family="Helvetica,sans-Serif" font-size="10.00">Table</text>
</a>
</g>
</g>
<!-- Node301&#45;&gt;Node302 -->
<g id="edge4" class="edge"><title>Node301&#45;&gt;Node302</title>
<path fill="none" stroke="midnightblue" d="M492.266,-60.0085C500.903,-60.1505 509.534,-60.2923 517.85,-60.429"/>
<polygon fill="midnightblue" stroke="midnightblue" points="492.198,-56.507 482.142,-59.8421 492.083,-63.506 492.198,-56.507"/>
</g>
<!-- Node302&#45;&gt;Node303 -->
<g id="edge5" class="edge"><title>Node302&#45;&gt;Node303</title>
<path fill="none" stroke="midnightblue" d="M660.22,-51.7656C668.792,-50.6563 677.499,-49.5296 685.985,-48.4314"/>
<polygon fill="midnightblue" stroke="midnightblue" points="659.708,-48.3026 650.24,-53.0571 660.607,-55.2447 659.708,-48.3026"/>
</g>
<!-- Node304 -->
<g id="node7" class="node"><title>Node304</title>
<g id="a_node7"><a xlink:href="../../d7/ded/a00196.html#a9ea7c3154932d7a736c105eb55daeb5c" target="_top" xlink:title="Directly process a new task. ">
<polygon fill="none" stroke="black" points="862,-24.5 862,-54.5 991,-54.5 991,-24.5 862,-24.5"/>
<text text-anchor="start" x="870" y="-42.5" font-family="Helvetica,sans-Serif" font-size="10.00">nars.entity.Concept.direct</text>
<text text-anchor="middle" x="926.5" y="-31.5" font-family="Helvetica,sans-Serif" font-size="10.00">Process</text>
</a>
</g>
</g>
<!-- Node303&#45;&gt;Node304 -->
<g id="edge6" class="edge"><title>Node303&#45;&gt;Node304</title>
<path fill="none" stroke="midnightblue" d="M836.067,-39.5C844.671,-39.5 853.347,-39.5 861.735,-39.5"/>
<polygon fill="midnightblue" stroke="midnightblue" points="836.022,-36.0001 826.022,-39.5 836.022,-43.0001 836.022,-36.0001"/>
</g>
<!-- Node305 -->
<g id="node8" class="node"><title>Node305</title>
<g id="a_node8"><a xlink:href="../../d4/d27/a00392.html#af8d07412d21a441a5c7005a477b06468" target="_top" xlink:title="Immediate processing of a new task, in constant time Local processing, in one concept only...">
<polygon fill="none" stroke="black" points="1027,-24.5 1027,-54.5 1184,-54.5 1184,-24.5 1027,-24.5"/>
<text text-anchor="start" x="1035" y="-42.5" font-family="Helvetica,sans-Serif" font-size="10.00">nars.storage.Memory.immediate</text>
<text text-anchor="middle" x="1105.5" y="-31.5" font-family="Helvetica,sans-Serif" font-size="10.00">Process</text>
</a>
</g>
</g>
<!-- Node304&#45;&gt;Node305 -->
<g id="edge7" class="edge"><title>Node304&#45;&gt;Node305</title>
<path fill="none" stroke="midnightblue" d="M1001.49,-39.5C1009.85,-39.5 1018.39,-39.5 1026.8,-39.5"/>
<polygon fill="midnightblue" stroke="midnightblue" points="1001.4,-36.0001 991.401,-39.5 1001.4,-43.0001 1001.4,-36.0001"/>
</g>
<!-- Node306 -->
<g id="node9" class="node"><title>Node306</title>
<g id="a_node9"><a xlink:href="../../d4/d27/a00392.html#ae43b86074c0d8f6a324696f69faa54b3" target="_top" xlink:title="Process the newTasks accumulated in the previous workCycle, accept input ones and those that correspo...">
<polygon fill="none" stroke="black" points="1220,-49.5 1220,-79.5 1366,-79.5 1366,-49.5 1220,-49.5"/>
<text text-anchor="start" x="1228" y="-67.5" font-family="Helvetica,sans-Serif" font-size="10.00">nars.storage.Memory.process</text>
<text text-anchor="middle" x="1293" y="-56.5" font-family="Helvetica,sans-Serif" font-size="10.00">NewTask</text>
</a>
</g>
</g>
<!-- Node305&#45;&gt;Node306 -->
<g id="edge8" class="edge"><title>Node305&#45;&gt;Node306</title>
<path fill="none" stroke="midnightblue" d="M1194.12,-51.3093C1202.71,-52.466 1211.35,-53.6306 1219.75,-54.7633"/>
<polygon fill="midnightblue" stroke="midnightblue" points="1194.47,-47.8245 1184.09,-49.9574 1193.54,-54.7618 1194.47,-47.8245"/>
</g>
<!-- Node313 -->
<g id="node16" class="node"><title>Node313</title>
<g id="a_node16"><a xlink:href="../../d4/d27/a00392.html#a5061708f88897cfdf4e0671c846762ca" target="_top" xlink:title="Select a novel task to process. ">
<polygon fill="none" stroke="black" points="1220,-0.5 1220,-30.5 1366,-30.5 1366,-0.5 1220,-0.5"/>
<text text-anchor="start" x="1228" y="-18.5" font-family="Helvetica,sans-Serif" font-size="10.00">nars.storage.Memory.process</text>
<text text-anchor="middle" x="1293" y="-7.5" font-family="Helvetica,sans-Serif" font-size="10.00">NovelTask</text>
</a>
</g>
</g>
<!-- Node305&#45;&gt;Node313 -->
<g id="edge15" class="edge"><title>Node305&#45;&gt;Node313</title>
<path fill="none" stroke="midnightblue" d="M1194.12,-28.1631C1202.71,-27.0527 1211.35,-25.9346 1219.75,-24.8472"/>
<polygon fill="midnightblue" stroke="midnightblue" points="1193.56,-24.7066 1184.09,-29.4609 1194.46,-31.6488 1193.56,-24.7066"/>
</g>
<!-- Node307 -->
<g id="node10" class="node"><title>Node307</title>
<g id="a_node10"><a xlink:href="../../d4/d27/a00392.html#a59ae339d666409988d90d29be4f73a91" target="_top" xlink:title="An atomic working workCycle of the system: process new Tasks, then fireFromProcessConcept a concept...">
<polygon fill="none" stroke="black" points="1402,-24.5 1402,-54.5 1535,-54.5 1535,-24.5 1402,-24.5"/>
<text text-anchor="start" x="1410" y="-42.5" font-family="Helvetica,sans-Serif" font-size="10.00">nars.storage.Memory.work</text>
<text text-anchor="middle" x="1468.5" y="-31.5" font-family="Helvetica,sans-Serif" font-size="10.00">Cycle</text>
</a>
</g>
</g>
<!-- Node306&#45;&gt;Node307 -->
<g id="edge9" class="edge"><title>Node306&#45;&gt;Node307</title>
<path fill="none" stroke="midnightblue" d="M1376.12,-52.6675C1384.72,-51.4286 1393.37,-50.1809 1401.76,-48.9733"/>
<polygon fill="midnightblue" stroke="midnightblue" points="1375.47,-49.2244 1366.07,-54.1149 1376.47,-56.1529 1375.47,-49.2244"/>
</g>
<!-- Node308 -->
<g id="node11" class="node"><title>Node308</title>
<g id="a_node11"><a xlink:href="../../df/d15/a00416.html#a0d5c797dc17d9e8d0998852915e0f303" target="_top" xlink:title="nars.storage.ReasonerBatch.doTick">
<polygon fill="none" stroke="black" points="1571,-30 1571,-49 1744,-49 1744,-30 1571,-30"/>
<text text-anchor="middle" x="1657.5" y="-37" font-family="Helvetica,sans-Serif" font-size="10.00">nars.storage.ReasonerBatch.doTick</text>
</a>
</g>
</g>
<!-- Node307&#45;&gt;Node308 -->
<g id="edge10" class="edge"><title>Node307&#45;&gt;Node308</title>
<path fill="none" stroke="midnightblue" d="M1545.34,-39.5C1553.78,-39.5 1562.42,-39.5 1570.97,-39.5"/>
<polygon fill="midnightblue" stroke="midnightblue" points="1545.17,-36.0001 1535.17,-39.5 1545.17,-43.0001 1545.17,-36.0001"/>
</g>
<!-- Node309 -->
<g id="node12" class="node"><title>Node309</title>
<g id="a_node12"><a xlink:href="../../df/d15/a00416.html#a3468aa0f99edcd66412f27922dddb880" target="_top" xlink:title="A clock tick. ">
<polygon fill="none" stroke="black" points="1780,-30 1780,-49 1940,-49 1940,-30 1780,-30"/>
<text text-anchor="middle" x="1860" y="-37" font-family="Helvetica,sans-Serif" font-size="10.00">nars.storage.ReasonerBatch.tick</text>
</a>
</g>
</g>
<!-- Node308&#45;&gt;Node309 -->
<g id="edge11" class="edge"><title>Node308&#45;&gt;Node309</title>
<path fill="none" stroke="midnightblue" d="M1754.13,-39.5C1762.7,-39.5 1771.31,-39.5 1779.71,-39.5"/>
<polygon fill="midnightblue" stroke="midnightblue" points="1754.11,-36.0001 1744.11,-39.5 1754.11,-43.0001 1754.11,-36.0001"/>
</g>
<!-- Node310 -->
<g id="node13" class="node"><title>Node310</title>
<g id="a_node13"><a xlink:href="../../d9/da1/a00396.html#a5d9cfe517bcfbe41e5251910bcd119c1" target="_top" xlink:title="Run to completion: repeatedly execute NARS working cycle, until Inputs are Finished, or 1000 steps. ">
<polygon fill="none" stroke="black" points="1976,-30 1976,-49 2120,-49 2120,-30 1976,-30"/>
<text text-anchor="middle" x="2048" y="-37" font-family="Helvetica,sans-Serif" font-size="10.00">nars.storage.NARSBatch.run</text>
</a>
</g>
</g>
<!-- Node309&#45;&gt;Node310 -->
<g id="edge12" class="edge"><title>Node309&#45;&gt;Node310</title>
<path fill="none" stroke="midnightblue" d="M1950.22,-39.5C1958.82,-39.5 1967.47,-39.5 1975.87,-39.5"/>
<polygon fill="midnightblue" stroke="midnightblue" points="1950.15,-36.0001 1940.15,-39.5 1950.15,-43.0001 1950.15,-36.0001"/>
</g>
<!-- Node311 -->
<g id="node14" class="node"><title>Node311</title>
<g id="a_node14"><a xlink:href="../../d9/da1/a00396.html#a7c307c6b842f82664de6b0e52bdf8efc" target="_top" xlink:title="non&#45;static equivalent to main(String[]) : run to completion from an input file ">
<polygon fill="none" stroke="black" points="2156,-24.5 2156,-54.5 2300,-54.5 2300,-24.5 2156,-24.5"/>
<text text-anchor="start" x="2164" y="-42.5" font-family="Helvetica,sans-Serif" font-size="10.00">nars.storage.NARSBatch.run</text>
<text text-anchor="middle" x="2228" y="-31.5" font-family="Helvetica,sans-Serif" font-size="10.00">Inference</text>
</a>
</g>
</g>
<!-- Node310&#45;&gt;Node311 -->
<g id="edge13" class="edge"><title>Node310&#45;&gt;Node311</title>
<path fill="none" stroke="midnightblue" d="M2130.17,-39.5C2138.79,-39.5 2147.51,-39.5 2156,-39.5"/>
<polygon fill="midnightblue" stroke="midnightblue" points="2130.12,-36.0001 2120.12,-39.5 2130.12,-43.0001 2130.12,-36.0001"/>
</g>
<!-- Node312 -->
<g id="node15" class="node"><title>Node312</title>
<g id="a_node15"><a xlink:href="../../d9/da1/a00396.html#abafc597289bc2f6453b5cd0dd6634e54" target="_top" xlink:title="The entry point of the standalone application. ">
<polygon fill="none" stroke="black" points="2336,-30 2336,-49 2488,-49 2488,-30 2336,-30"/>
<text text-anchor="middle" x="2412" y="-37" font-family="Helvetica,sans-Serif" font-size="10.00">nars.storage.NARSBatch.main</text>
</a>
</g>
</g>
<!-- Node311&#45;&gt;Node312 -->
<g id="edge14" class="edge"><title>Node311&#45;&gt;Node312</title>
<path fill="none" stroke="midnightblue" d="M2310.17,-39.5C2318.76,-39.5 2327.48,-39.5 2336,-39.5"/>
<polygon fill="midnightblue" stroke="midnightblue" points="2310.15,-36.0001 2300.15,-39.5 2310.15,-43.0001 2310.15,-36.0001"/>
</g>
<!-- Node313&#45;&gt;Node307 -->
<g id="edge16" class="edge"><title>Node313&#45;&gt;Node307</title>
<path fill="none" stroke="midnightblue" d="M1376.12,-26.8592C1384.72,-28.0486 1393.37,-29.2464 1401.76,-30.4056"/>
<polygon fill="midnightblue" stroke="midnightblue" points="1376.46,-23.373 1366.07,-25.4697 1375.5,-30.307 1376.46,-23.373"/>
</g>
</g>
</svg>
