<?xml version="1.0" encoding="UTF-8" standalone="no"?>
<!DOCTYPE svg PUBLIC "-//W3C//DTD SVG 1.1//EN"
 "http://www.w3.org/Graphics/SVG/1.1/DTD/svg11.dtd">
<!-- Generated by graphviz version 2.38.0 (20140413.2041)
 -->
<!-- Title: nars.entity.Stamp.toString Pages: 1 -->
<svg width="351pt" height="116pt"
 viewBox="0.00 0.00 351.00 115.50" xmlns="http://www.w3.org/2000/svg" xmlns:xlink="http://www.w3.org/1999/xlink">
<g id="graph0" class="graph" transform="scale(1 1) rotate(0) translate(4 111.5)">
<title>nars.entity.Stamp.toString</title>
<!-- Node314 -->
<g id="node1" class="node"><title>Node314</title>
<polygon fill="#bfbfbf" stroke="black" points="0,-38.5 0,-57.5 131,-57.5 131,-38.5 0,-38.5"/>
<text text-anchor="middle" x="65.5" y="-45.5" font-family="Helvetica,sans-Serif" font-size="10.00">nars.entity.Stamp.toString</text>
</g>
<!-- Node315 -->
<g id="node2" class="node"><title>Node315</title>
<g id="a_node2"><a xlink:href="../../d6/d43/a00216.html#ab6efde6c34037b63fc165d1bf95277a2" target="_top" xlink:title="evidentialBase baseLength ">
<polygon fill="none" stroke="black" points="188.5,-77 188.5,-107 321.5,-107 321.5,-77 188.5,-77"/>
<text text-anchor="start" x="196.5" y="-95" font-family="Helvetica,sans-Serif" font-size="10.00">nars.entity.Stamp.getBase</text>
<text text-anchor="middle" x="255" y="-84" font-family="Helvetica,sans-Serif" font-size="10.00">Length</text>
</a>
</g>
</g>
<!-- Node314&#45;&gt;Node315 -->
<g id="edge1" class="edge"><title>Node314&#45;&gt;Node315</title>
<path fill="none" stroke="midnightblue" d="M107.185,-57.5473C128.483,-62.5455 155.231,-68.8222 180.041,-74.6442"/>
<polygon fill="midnightblue" stroke="midnightblue" points="179.266,-78.0574 189.801,-76.9346 180.865,-71.2425 179.266,-78.0574"/>
</g>
<!-- Node316 -->
<g id="node3" class="node"><title>Node316</title>
<g id="a_node3"><a xlink:href="../../d6/d43/a00216.html#acb0b161e2d2fb0cbfb33b44ec2a29075" target="_top" xlink:title="creation time of the stamp ">
<polygon fill="none" stroke="black" points="170.5,-38.5 170.5,-57.5 339.5,-57.5 339.5,-38.5 170.5,-38.5"/>
<text text-anchor="middle" x="255" y="-45.5" font-family="Helvetica,sans-Serif" font-size="10.00">nars.entity.Stamp.getCreationTime</text>
</a>
</g>
</g>
<!-- Node314&#45;&gt;Node316 -->
<g id="edge2" class="edge"><title>Node314&#45;&gt;Node316</title>
<path fill="none" stroke="midnightblue" d="M131.027,-48C140.461,-48 150.335,-48 160.209,-48"/>
<polygon fill="midnightblue" stroke="midnightblue" points="160.48,-51.5001 170.48,-48 160.48,-44.5001 160.48,-51.5001"/>
</g>
<!-- Node317 -->
<g id="node4" class="node"><title>Node317</title>
<g id="a_node4"><a xlink:href="../../d6/d43/a00216.html#ac84c7f26ab8e0740bab4335f33396e2c" target="_top" xlink:title="serial numbers ">
<polygon fill="none" stroke="black" points="167,-0.5 167,-19.5 343,-19.5 343,-0.5 167,-0.5"/>
<text text-anchor="middle" x="255" y="-7.5" font-family="Helvetica,sans-Serif" font-size="10.00">nars.entity.Stamp.getEvidentialBase</text>
</a>
</g>
</g>
<!-- Node314&#45;&gt;Node317 -->
<g id="edge3" class="edge"><title>Node314&#45;&gt;Node317</title>
<path fill="none" stroke="midnightblue" d="M113.814,-38.411C139.114,-33.2835 170.45,-26.9328 197.075,-21.5368"/>
<polygon fill="midnightblue" stroke="midnightblue" points="197.921,-24.9367 207.026,-19.5201 196.53,-18.0762 197.921,-24.9367"/>
</g>
</g>
</svg>
