<?xml version="1.0" encoding="UTF-8" standalone="no"?>
<!DOCTYPE svg PUBLIC "-//W3C//DTD SVG 1.1//EN"
 "http://www.w3.org/Graphics/SVG/1.1/DTD/svg11.dtd">
<!-- Generated by graphviz version 2.38.0 (20140413.2041)
 -->
<!-- Title: nars.entity.Stamp.Stamp Pages: 1 -->
<svg width="557pt" height="116pt"
 viewBox="0.00 0.00 557.00 116.00" xmlns="http://www.w3.org/2000/svg" xmlns:xlink="http://www.w3.org/1999/xlink">
<g id="graph0" class="graph" transform="scale(1 1) rotate(0) translate(4 112)">
<title>nars.entity.Stamp.Stamp</title>
<!-- Node39 -->
<g id="node1" class="node"><title>Node39</title>
<polygon fill="#bfbfbf" stroke="black" points="0,-44.5 0,-63.5 125,-63.5 125,-44.5 0,-44.5"/>
<text text-anchor="middle" x="62.5" y="-51.5" font-family="Helvetica,sans-Serif" font-size="10.00">nars.entity.Stamp.Stamp</text>
</g>
<!-- Node40 -->
<g id="node2" class="node"><title>Node40</title>
<g id="a_node2"><a xlink:href="../../d6/d43/a00216.html#ae54d6e990e37f5623ffd7eee39187463" target="_top" xlink:title="Get the evidentialBase, called in this class only. ">
<polygon fill="none" stroke="black" points="182.5,-88.5 182.5,-107.5 315.5,-107.5 315.5,-88.5 182.5,-88.5"/>
<text text-anchor="middle" x="249" y="-95.5" font-family="Helvetica,sans-Serif" font-size="10.00">nars.entity.Stamp.getBase</text>
</a>
</g>
</g>
<!-- Node39&#45;&gt;Node40 -->
<g id="edge1" class="edge"><title>Node39&#45;&gt;Node40</title>
<path fill="none" stroke="midnightblue" d="M99.5396,-63.5707C117.899,-68.3622 140.597,-74.158 161,-79 171.259,-81.4347 182.227,-83.9208 192.798,-86.2579"/>
<polygon fill="midnightblue" stroke="midnightblue" points="192.257,-89.7225 202.775,-88.4466 193.757,-82.8851 192.257,-89.7225"/>
</g>
<!-- Node42 -->
<g id="node4" class="node"><title>Node42</title>
<g id="a_node4"><a xlink:href="../../d6/d43/a00216.html#ab6efde6c34037b63fc165d1bf95277a2" target="_top" xlink:title="evidentialBase baseLength ">
<polygon fill="none" stroke="black" points="182.5,-39 182.5,-69 315.5,-69 315.5,-39 182.5,-39"/>
<text text-anchor="start" x="190.5" y="-57" font-family="Helvetica,sans-Serif" font-size="10.00">nars.entity.Stamp.getBase</text>
<text text-anchor="middle" x="249" y="-46" font-family="Helvetica,sans-Serif" font-size="10.00">Length</text>
</a>
</g>
</g>
<!-- Node39&#45;&gt;Node42 -->
<g id="edge3" class="edge"><title>Node39&#45;&gt;Node42</title>
<path fill="none" stroke="midnightblue" d="M125.192,-54C140.231,-54 156.49,-54 172.104,-54"/>
<polygon fill="midnightblue" stroke="midnightblue" points="172.252,-57.5001 182.252,-54 172.252,-50.5001 172.252,-57.5001"/>
</g>
<!-- Node43 -->
<g id="node5" class="node"><title>Node43</title>
<g id="a_node5"><a xlink:href="../../d6/d43/a00216.html#a0db2ae5d7c6b60d980533fdce8c2f124" target="_top" xlink:title="nars.entity.Stamp.setEvidentialBase">
<polygon fill="none" stroke="black" points="161,-0.5 161,-19.5 337,-19.5 337,-0.5 161,-0.5"/>
<text text-anchor="middle" x="249" y="-7.5" font-family="Helvetica,sans-Serif" font-size="10.00">nars.entity.Stamp.setEvidentialBase</text>
</a>
</g>
</g>
<!-- Node39&#45;&gt;Node43 -->
<g id="edge4" class="edge"><title>Node39&#45;&gt;Node43</title>
<path fill="none" stroke="midnightblue" d="M101.902,-44.4025C119.842,-39.9562 141.498,-34.6417 161,-30 172.311,-27.3079 184.465,-24.476 195.995,-21.8174"/>
<polygon fill="midnightblue" stroke="midnightblue" points="196.969,-25.1849 205.931,-19.5336 195.401,-18.3628 196.969,-25.1849"/>
</g>
<!-- Node41 -->
<g id="node3" class="node"><title>Node41</title>
<g id="a_node3"><a xlink:href="../../d6/d43/a00216.html#ac84c7f26ab8e0740bab4335f33396e2c" target="_top" xlink:title="serial numbers ">
<polygon fill="none" stroke="black" points="373,-88.5 373,-107.5 549,-107.5 549,-88.5 373,-88.5"/>
<text text-anchor="middle" x="461" y="-95.5" font-family="Helvetica,sans-Serif" font-size="10.00">nars.entity.Stamp.getEvidentialBase</text>
</a>
</g>
</g>
<!-- Node40&#45;&gt;Node41 -->
<g id="edge2" class="edge"><title>Node40&#45;&gt;Node41</title>
<path fill="none" stroke="midnightblue" d="M315.582,-98C330.488,-98 346.635,-98 362.549,-98"/>
<polygon fill="midnightblue" stroke="midnightblue" points="362.958,-101.5 372.958,-98 362.958,-94.5001 362.958,-101.5"/>
</g>
</g>
</svg>
