<?xml version="1.0" encoding="UTF-8" standalone="no"?>
<!DOCTYPE svg PUBLIC "-//W3C//DTD SVG 1.1//EN"
 "http://www.w3.org/Graphics/SVG/1.1/DTD/svg11.dtd">
<!-- Generated by graphviz version 2.38.0 (20140413.2041)
 -->
<!-- Title: nars.entity.Stamp.toString Pages: 1 -->
<svg width="506pt" height="28pt"
 viewBox="0.00 0.00 506.00 28.00" xmlns="http://www.w3.org/2000/svg" xmlns:xlink="http://www.w3.org/1999/xlink">
<g id="graph0" class="graph" transform="scale(1 1) rotate(0) translate(4 24)">
<title>nars.entity.Stamp.toString</title>
<!-- Node318 -->
<g id="node1" class="node"><title>Node318</title>
<polygon fill="#bfbfbf" stroke="black" points="0,-0.5 0,-19.5 131,-19.5 131,-0.5 0,-0.5"/>
<text text-anchor="middle" x="65.5" y="-7.5" font-family="Helvetica,sans-Serif" font-size="10.00">nars.entity.Stamp.toString</text>
</g>
<!-- Node319 -->
<g id="node2" class="node"><title>Node319</title>
<g id="a_node2"><a xlink:href="../../d6/d43/a00216.html#ab52baff17f87c3737f0bc0216f66ac3f" target="_top" xlink:title="The hash code of Stamp. ">
<polygon fill="none" stroke="black" points="167,-0.5 167,-19.5 308,-19.5 308,-0.5 167,-0.5"/>
<text text-anchor="middle" x="237.5" y="-7.5" font-family="Helvetica,sans-Serif" font-size="10.00">nars.entity.Stamp.hashCode</text>
</a>
</g>
</g>
<!-- Node318&#45;&gt;Node319 -->
<g id="edge1" class="edge"><title>Node318&#45;&gt;Node319</title>
<path fill="none" stroke="midnightblue" d="M141.456,-10C149.893,-10 158.464,-10 166.829,-10"/>
<polygon fill="midnightblue" stroke="midnightblue" points="141.255,-6.5001 131.255,-10 141.255,-13.5001 141.255,-6.5001"/>
</g>
<!-- Node320 -->
<g id="node3" class="node"><title>Node320</title>
<g id="a_node3"><a xlink:href="../../dd/dc1/a00212.html#aa46486d7029fadbdfd9110ba7c9272ed" target="_top" xlink:title="To produce the hashcode of a sentence. ">
<polygon fill="none" stroke="black" points="344,-0.5 344,-19.5 498,-19.5 498,-0.5 344,-0.5"/>
<text text-anchor="middle" x="421" y="-7.5" font-family="Helvetica,sans-Serif" font-size="10.00">nars.entity.Sentence.hashCode</text>
</a>
</g>
</g>
<!-- Node319&#45;&gt;Node320 -->
<g id="edge2" class="edge"><title>Node319&#45;&gt;Node320</title>
<path fill="none" stroke="midnightblue" d="M318.4,-10C326.869,-10 335.466,-10 343.89,-10"/>
<polygon fill="midnightblue" stroke="midnightblue" points="318.154,-6.5001 308.154,-10 318.154,-13.5001 318.154,-6.5001"/>
</g>
</g>
</svg>
