<?xml version="1.0" encoding="UTF-8" standalone="no"?>
<!DOCTYPE svg PUBLIC "-//W3C//DTD SVG 1.1//EN"
 "http://www.w3.org/Graphics/SVG/1.1/DTD/svg11.dtd">
<!-- Generated by graphviz version 2.38.0 (20140413.2041)
 -->
<!-- Title: nars.entity.Stamp.getCreationTime Pages: 1 -->
<!--zoomable 104 -->
<svg id="main" version="1.1" xmlns="http://www.w3.org/2000/svg" xmlns:xlink="http://www.w3.org/1999/xlink" xml:space="preserve" onload="init(evt)">
<style type="text/css"><![CDATA[
.edge:hover path { stroke: red; }
.edge:hover polygon { stroke: red; fill: red; }
]]></style>
<script type="text/javascript"><![CDATA[
var edges = document.getElementsByTagName('g');
if (edges && edges.length) {
  for (var i=0;i<edges.length;i++) {
    if (edges[i].id.substr(0,4)=='edge') {
      edges[i].setAttribute('class','edge');
    }
  }
}
]]></script>
        <defs>
                <circle id="rim" cx="0" cy="0" r="7"/>
                <circle id="rim2" cx="0" cy="0" r="3.5"/>
                <g id="zoomPlus">
                        <use xlink:href="#rim" fill="#404040">
                                <set attributeName="fill" to="#808080" begin="zoomplus.mouseover" end="zoomplus.mouseout"/>
                        </use>
                        <path d="M-4,0h8M0,-4v8" fill="none" stroke="white" stroke-width="1.5" pointer-events="none"/>
                </g>
                <g id="zoomMin">
                        <use xlink:href="#rim" fill="#404040">
                                <set attributeName="fill" to="#808080" begin="zoomminus.mouseover" end="zoomminus.mouseout"/>
                        </use>
                        <path d="M-4,0h8" fill="none" stroke="white" stroke-width="1.5" pointer-events="none"/>
                </g>
                <g id="dirArrow">
                        <path fill="none" stroke="white" stroke-width="1.5" d="M0,-3.0v7 M-2.5,-0.5L0,-3.0L2.5,-0.5"/>
                </g>
               <g id="resetDef">
                       <use xlink:href="#rim2" fill="#404040">
                               <set attributeName="fill" to="#808080" begin="reset.mouseover" end="reset.mouseout"/>
                       </use>
               </g>
        </defs>

<script type="text/javascript">
var viewWidth = 742;
var viewHeight = 104;
var sectionId = 'dynsection-18';
</script>
<script xlink:href="../../svgpan.js"/>
<svg id="graph" class="graph">
<g id="viewport">
<title>nars.entity.Stamp.getCreationTime</title>
<!-- Node147 -->
<g id="node1" class="node"><title>Node147</title>
<polygon fill="#bfbfbf" stroke="black" points="0,-38.5 0,-57.5 169,-57.5 169,-38.5 0,-38.5"/>
<text text-anchor="middle" x="84.5" y="-45.5" font-family="Helvetica,sans-Serif" font-size="10.00">nars.entity.Stamp.getCreationTime</text>
</g>
<!-- Node148 -->
<g id="node2" class="node"><title>Node148</title>
<g id="a_node2"><a xlink:href="../../d5/ddf/a00224.html#a1f643668b958d700afee3616f0baf93f" target="_top" xlink:title="Directly get the creation time of the sentence. ">
<polygon fill="none" stroke="black" points="205,-76.5 205,-95.5 367,-95.5 367,-76.5 205,-76.5"/>
<text text-anchor="middle" x="286" y="-83.5" font-family="Helvetica,sans-Serif" font-size="10.00">nars.entity.Task.getCreationTime</text>
</a>
</g>
</g>
<!-- Node147&#45;&gt;Node148 -->
<g id="edge1" class="edge"><title>Node147&#45;&gt;Node148</title>
<path fill="none" stroke="midnightblue" d="M145.445,-59.4181C173.99,-64.8552 207.737,-71.2832 234.895,-76.4561"/>
<polygon fill="midnightblue" stroke="midnightblue" points="146.063,-55.973 135.585,-57.54 144.753,-62.8493 146.063,-55.973"/>
</g>
<!-- Node150 -->
<g id="node4" class="node"><title>Node150</title>
<g id="a_node4"><a xlink:href="../../d6/d43/a00216.html#ace10b17e33839430469efd8af6da5135" target="_top" xlink:title="Generate a new stamp identical with a given one. ">
<polygon fill="none" stroke="black" points="223.5,-38.5 223.5,-57.5 348.5,-57.5 348.5,-38.5 223.5,-38.5"/>
<text text-anchor="middle" x="286" y="-45.5" font-family="Helvetica,sans-Serif" font-size="10.00">nars.entity.Stamp.Stamp</text>
</a>
</g>
</g>
<!-- Node147&#45;&gt;Node150 -->
<g id="edge3" class="edge"><title>Node147&#45;&gt;Node150</title>
<path fill="none" stroke="midnightblue" d="M179.496,-48C194.374,-48 209.424,-48 223.315,-48"/>
<polygon fill="midnightblue" stroke="midnightblue" points="179.239,-44.5001 169.239,-48 179.239,-51.5001 179.239,-44.5001"/>
</g>
<!-- Node151 -->
<g id="node5" class="node"><title>Node151</title>
<g id="a_node5"><a xlink:href="../../d6/d43/a00216.html#ad1aee19cfc0bb8ca9232bad251f74ffc" target="_top" xlink:title="Get a String form of the Stamp for display Format: {creationTime [: eventTime] : evidentialBase}. ">
<polygon fill="none" stroke="black" points="220.5,-0.5 220.5,-19.5 351.5,-19.5 351.5,-0.5 220.5,-0.5"/>
<text text-anchor="middle" x="286" y="-7.5" font-family="Helvetica,sans-Serif" font-size="10.00">nars.entity.Stamp.toString</text>
</a>
</g>
</g>
<!-- Node147&#45;&gt;Node151 -->
<g id="edge4" class="edge"><title>Node147&#45;&gt;Node151</title>
<path fill="none" stroke="midnightblue" d="M145.445,-36.5819C173.99,-31.1448 207.737,-24.7168 234.895,-19.5439"/>
<polygon fill="midnightblue" stroke="midnightblue" points="144.753,-33.1507 135.585,-38.46 146.063,-40.027 144.753,-33.1507"/>
</g>
<!-- Node149 -->
<g id="node3" class="node"><title>Node149</title>
<g id="a_node3"><a xlink:href="../../d5/ddf/a00224.html#abae2edb1e9cccff191a095ebd7776895" target="_top" xlink:title="Merge one Task into another. ">
<polygon fill="none" stroke="black" points="415,-76.5 415,-95.5 532,-95.5 532,-76.5 415,-76.5"/>
<text text-anchor="middle" x="473.5" y="-83.5" font-family="Helvetica,sans-Serif" font-size="10.00">nars.entity.Task.merge</text>
</a>
</g>
</g>
<!-- Node148&#45;&gt;Node149 -->
<g id="edge2" class="edge"><title>Node148&#45;&gt;Node149</title>
<path fill="none" stroke="midnightblue" d="M377.242,-86C390.035,-86 402.892,-86 414.837,-86"/>
<polygon fill="midnightblue" stroke="midnightblue" points="377.015,-82.5001 367.015,-86 377.015,-89.5001 377.015,-82.5001"/>
</g>
<!-- Node152 -->
<g id="node6" class="node"><title>Node152</title>
<g id="a_node6"><a xlink:href="../../d6/d43/a00216.html#ab52baff17f87c3737f0bc0216f66ac3f" target="_top" xlink:title="The hash code of Stamp. ">
<polygon fill="none" stroke="black" points="403,-0.5 403,-19.5 544,-19.5 544,-0.5 403,-0.5"/>
<text text-anchor="middle" x="473.5" y="-7.5" font-family="Helvetica,sans-Serif" font-size="10.00">nars.entity.Stamp.hashCode</text>
</a>
</g>
</g>
<!-- Node151&#45;&gt;Node152 -->
<g id="edge5" class="edge"><title>Node151&#45;&gt;Node152</title>
<path fill="none" stroke="midnightblue" d="M361.829,-10C375.341,-10 389.381,-10 402.741,-10"/>
<polygon fill="midnightblue" stroke="midnightblue" points="361.619,-6.5001 351.618,-10 361.618,-13.5001 361.619,-6.5001"/>
</g>
<!-- Node153 -->
<g id="node7" class="node"><title>Node153</title>
<g id="a_node7"><a xlink:href="../../dd/dc1/a00212.html#aa46486d7029fadbdfd9110ba7c9272ed" target="_top" xlink:title="To produce the hashcode of a sentence. ">
<polygon fill="none" stroke="black" points="580,-0.5 580,-19.5 734,-19.5 734,-0.5 580,-0.5"/>
<text text-anchor="middle" x="657" y="-7.5" font-family="Helvetica,sans-Serif" font-size="10.00">nars.entity.Sentence.hashCode</text>
</a>
</g>
</g>
<!-- Node152&#45;&gt;Node153 -->
<g id="edge6" class="edge"><title>Node152&#45;&gt;Node153</title>
<path fill="none" stroke="midnightblue" d="M554.4,-10C562.869,-10 571.466,-10 579.89,-10"/>
<polygon fill="midnightblue" stroke="midnightblue" points="554.154,-6.5001 544.154,-10 554.154,-13.5001 554.154,-6.5001"/>
</g>
</g>
</svg>
        <g id="navigator" transform="translate(0 0)" fill="#404254">
                <rect fill="#f2f5e9" fill-opacity="0.5" stroke="#606060" stroke-width=".5" x="0" y="0" width="60" height="60"/>
                <use id="zoomplus" xlink:href="#zoomPlus" x="17" y="9" onmousedown="handleZoom(evt,'in')"/>
                <use id="zoomminus" xlink:href="#zoomMin" x="42" y="9" onmousedown="handleZoom(evt,'out')"/>
                <use id="reset" xlink:href="#resetDef" x="30" y="36" onmousedown="handleReset()"/>
                <g id="arrowUp" xlink:href="#dirArrow" transform="translate(30 24)" onmousedown="handlePan(0,-1)">
                  <use xlink:href="#rim" fill="#404040">
                        <set attributeName="fill" to="#808080" begin="arrowUp.mouseover" end="arrowUp.mouseout"/>
                  </use>
                  <path fill="none" stroke="white" stroke-width="1.5" d="M0,-3.0v7 M-2.5,-0.5L0,-3.0L2.5,-0.5"/>
                </g>
                <g id="arrowRight" xlink:href="#dirArrow" transform="rotate(90) translate(36 -43)" onmousedown="handlePan(1,0)">
                  <use xlink:href="#rim" fill="#404040">
                        <set attributeName="fill" to="#808080" begin="arrowRight.mouseover" end="arrowRight.mouseout"/>
                  </use>
                  <path fill="none" stroke="white" stroke-width="1.5" d="M0,-3.0v7 M-2.5,-0.5L0,-3.0L2.5,-0.5"/>
                </g>
                <g id="arrowDown" xlink:href="#dirArrow" transform="rotate(180) translate(-30 -48)" onmousedown="handlePan(0,1)">
                  <use xlink:href="#rim" fill="#404040">
                        <set attributeName="fill" to="#808080" begin="arrowDown.mouseover" end="arrowDown.mouseout"/>
                  </use>
                  <path fill="none" stroke="white" stroke-width="1.5" d="M0,-3.0v7 M-2.5,-0.5L0,-3.0L2.5,-0.5"/>
                </g>
                <g id="arrowLeft" xlink:href="#dirArrow" transform="rotate(270) translate(-36 17)" onmousedown="handlePan(-1,0)">
                  <use xlink:href="#rim" fill="#404040">
                        <set attributeName="fill" to="#808080" begin="arrowLeft.mouseover" end="arrowLeft.mouseout"/>
                  </use>
                  <path fill="none" stroke="white" stroke-width="1.5" d="M0,-3.0v7 M-2.5,-0.5L0,-3.0L2.5,-0.5"/>
                </g>
        </g>
        <svg viewBox="0 0 15 15" width="100%" height="30px" preserveAspectRatio="xMaxYMin meet">
         <g id="arrow_out" transform="scale(0.3 0.3)">
          <a xlink:href="a00216_acb0b161e2d2fb0cbfb33b44ec2a29075_icgraph_org.svg" target="_base">
           <rect id="button" ry="5" rx="5" y="6" x="6" height="38" width="38"
                fill="#f2f5e9" fill-opacity="0.5" stroke="#606060" stroke-width="1.0"/>
           <path id="arrow"
             d="M 11.500037,31.436501 C 11.940474,20.09759 22.043105,11.32322 32.158766,21.979434 L 37.068811,17.246167 C 37.068811,17.246167 37.088388,32 37.088388,32 L 22.160133,31.978069 C 22.160133,31.978069 26.997745,27.140456 26.997745,27.140456 C 18.528582,18.264221 13.291696,25.230495 11.500037,31.436501 z"
             style="fill:#404040;"/>
          </a>
         </g>
        </svg>
</svg>
