<?xml version="1.0" encoding="UTF-8" standalone="no"?>
<!DOCTYPE svg PUBLIC "-//W3C//DTD SVG 1.1//EN"
 "http://www.w3.org/Graphics/SVG/1.1/DTD/svg11.dtd">
<!-- Generated by graphviz version 2.38.0 (20140413.2041)
 -->
<!-- Title: nars.entity.Stamp.getBaseLength Pages: 1 -->
<svg width="2729pt" height="176pt"
 viewBox="0.00 0.00 2729.00 176.02" xmlns="http://www.w3.org/2000/svg" xmlns:xlink="http://www.w3.org/1999/xlink">
<g id="graph0" class="graph" transform="scale(1 1) rotate(0) translate(4 172.023)">
<title>nars.entity.Stamp.getBaseLength</title>
<!-- Node120 -->
<g id="node1" class="node"><title>Node120</title>
<polygon fill="#bfbfbf" stroke="black" points="0,-90 0,-120 133,-120 133,-90 0,-90"/>
<text text-anchor="start" x="8" y="-108" font-family="Helvetica,sans-Serif" font-size="10.00">nars.entity.Stamp.getBase</text>
<text text-anchor="middle" x="66.5" y="-97" font-family="Helvetica,sans-Serif" font-size="10.00">Length</text>
</g>
<!-- Node121 -->
<g id="node2" class="node"><title>Node121</title>
<g id="a_node2"><a xlink:href="../../d6/d43/a00216.html#a47f0e631d97f15a4b6520847c2c4d62a" target="_top" xlink:title="Try to merge two Stamps, return null if have overlap. ">
<polygon fill="none" stroke="black" points="719.5,-142.5 719.5,-161.5 840.5,-161.5 840.5,-142.5 719.5,-142.5"/>
<text text-anchor="middle" x="780" y="-149.5" font-family="Helvetica,sans-Serif" font-size="10.00">nars.entity.Stamp.make</text>
</a>
</g>
</g>
<!-- Node120&#45;&gt;Node121 -->
<g id="edge1" class="edge"><title>Node120&#45;&gt;Node121</title>
<path fill="none" stroke="midnightblue" d="M108.778,-124.13C126.852,-131.534 148.563,-139.144 169,-143 367.789,-180.508 609.507,-167.057 719.44,-157.808"/>
<polygon fill="midnightblue" stroke="midnightblue" points="109.716,-120.727 99.1415,-120.063 106.994,-127.176 109.716,-120.727"/>
</g>
<!-- Node137 -->
<g id="node18" class="node"><title>Node137</title>
<g id="a_node18"><a xlink:href="../../d6/d43/a00216.html#ace10b17e33839430469efd8af6da5135" target="_top" xlink:title="Generate a new stamp identical with a given one. ">
<polygon fill="none" stroke="black" points="172,-114.5 172,-133.5 297,-133.5 297,-114.5 172,-114.5"/>
<text text-anchor="middle" x="234.5" y="-121.5" font-family="Helvetica,sans-Serif" font-size="10.00">nars.entity.Stamp.Stamp</text>
</a>
</g>
</g>
<!-- Node120&#45;&gt;Node137 -->
<g id="edge19" class="edge"><title>Node120&#45;&gt;Node137</title>
<path fill="none" stroke="midnightblue" d="M143.083,-113.651C152.724,-114.755 162.499,-115.873 171.883,-116.947"/>
<polygon fill="midnightblue" stroke="midnightblue" points="143.441,-110.169 133.108,-112.509 142.645,-117.124 143.441,-110.169"/>
</g>
<!-- Node138 -->
<g id="node19" class="node"><title>Node138</title>
<g id="a_node19"><a xlink:href="../../d6/d43/a00216.html#a7b5d3afaab9fc48e2d4d571b8508970d" target="_top" xlink:title="Convert the evidentialBase into a set. ">
<polygon fill="none" stroke="black" points="174.5,-76.5 174.5,-95.5 294.5,-95.5 294.5,-76.5 174.5,-76.5"/>
<text text-anchor="middle" x="234.5" y="-83.5" font-family="Helvetica,sans-Serif" font-size="10.00">nars.entity.Stamp.toSet</text>
</a>
</g>
</g>
<!-- Node120&#45;&gt;Node138 -->
<g id="edge20" class="edge"><title>Node120&#45;&gt;Node138</title>
<path fill="none" stroke="midnightblue" d="M143.077,-96.3496C153.549,-95.151 164.18,-93.9343 174.295,-92.7765"/>
<polygon fill="midnightblue" stroke="midnightblue" points="142.645,-92.8762 133.108,-97.4907 143.441,-99.8308 142.645,-92.8762"/>
</g>
<!-- Node143 -->
<g id="node24" class="node"><title>Node143</title>
<g id="a_node24"><a xlink:href="../../d6/d43/a00216.html#ad1aee19cfc0bb8ca9232bad251f74ffc" target="_top" xlink:title="Get a String form of the Stamp for display Format: {creationTime [: eventTime] : evidentialBase}. ">
<polygon fill="none" stroke="black" points="169,-19.5 169,-38.5 300,-38.5 300,-19.5 169,-19.5"/>
<text text-anchor="middle" x="234.5" y="-26.5" font-family="Helvetica,sans-Serif" font-size="10.00">nars.entity.Stamp.toString</text>
</a>
</g>
</g>
<!-- Node120&#45;&gt;Node143 -->
<g id="edge27" class="edge"><title>Node120&#45;&gt;Node143</title>
<path fill="none" stroke="midnightblue" d="M109.649,-85.7027C142.449,-70.6862 186.586,-50.4786 212.35,-38.6833"/>
<polygon fill="midnightblue" stroke="midnightblue" points="107.932,-82.6397 100.296,-89.9848 110.846,-89.0043 107.932,-82.6397"/>
</g>
<!-- Node122 -->
<g id="node3" class="node"><title>Node122</title>
<g id="a_node3"><a xlink:href="../../d7/ded/a00196.html#a40cddcc82ee28a1cf5b1f4bc14e2b078" target="_top" xlink:title="To accept a new judgment as isBelief, and check for revisions and solutions. ">
<polygon fill="none" stroke="black" points="883.5,-77 883.5,-107 1023.5,-107 1023.5,-77 883.5,-77"/>
<text text-anchor="start" x="891.5" y="-95" font-family="Helvetica,sans-Serif" font-size="10.00">nars.entity.Concept.process</text>
<text text-anchor="middle" x="953.5" y="-84" font-family="Helvetica,sans-Serif" font-size="10.00">Judgment</text>
</a>
</g>
</g>
<!-- Node121&#45;&gt;Node122 -->
<g id="edge2" class="edge"><title>Node121&#45;&gt;Node122</title>
<path fill="none" stroke="midnightblue" d="M817.962,-139.069C844.817,-129.673 881.241,-116.93 909.417,-107.073"/>
<polygon fill="midnightblue" stroke="midnightblue" points="816.458,-135.887 808.175,-142.493 818.77,-142.494 816.458,-135.887"/>
</g>
<!-- Node133 -->
<g id="node14" class="node"><title>Node133</title>
<g id="a_node14"><a xlink:href="../../d7/ded/a00196.html#a37e00599fc19c5931da40bd446890f89" target="_top" xlink:title="Select a isBelief to interact with the given task in inference. ">
<polygon fill="none" stroke="black" points="882,-142.5 882,-161.5 1025,-161.5 1025,-142.5 882,-142.5"/>
<text text-anchor="middle" x="953.5" y="-149.5" font-family="Helvetica,sans-Serif" font-size="10.00">nars.entity.Concept.getBelief</text>
</a>
</g>
</g>
<!-- Node121&#45;&gt;Node133 -->
<g id="edge14" class="edge"><title>Node121&#45;&gt;Node133</title>
<path fill="none" stroke="midnightblue" d="M850.667,-152C860.963,-152 871.58,-152 881.896,-152"/>
<polygon fill="midnightblue" stroke="midnightblue" points="850.501,-148.5 840.501,-152 850.501,-155.5 850.501,-148.5"/>
</g>
<!-- Node123 -->
<g id="node4" class="node"><title>Node123</title>
<g id="a_node4"><a xlink:href="../../d7/ded/a00196.html#a9ea7c3154932d7a736c105eb55daeb5c" target="_top" xlink:title="Directly process a new task. ">
<polygon fill="none" stroke="black" points="1078,-77 1078,-107 1207,-107 1207,-77 1078,-77"/>
<text text-anchor="start" x="1086" y="-95" font-family="Helvetica,sans-Serif" font-size="10.00">nars.entity.Concept.direct</text>
<text text-anchor="middle" x="1142.5" y="-84" font-family="Helvetica,sans-Serif" font-size="10.00">Process</text>
</a>
</g>
</g>
<!-- Node122&#45;&gt;Node123 -->
<g id="edge3" class="edge"><title>Node122&#45;&gt;Node123</title>
<path fill="none" stroke="midnightblue" d="M1033.72,-92C1048.48,-92 1063.73,-92 1077.94,-92"/>
<polygon fill="midnightblue" stroke="midnightblue" points="1033.6,-88.5001 1023.6,-92 1033.6,-95.5001 1033.6,-88.5001"/>
</g>
<!-- Node124 -->
<g id="node5" class="node"><title>Node124</title>
<g id="a_node5"><a xlink:href="../../d4/d27/a00392.html#af8d07412d21a441a5c7005a477b06468" target="_top" xlink:title="Immediate processing of a new task, in constant time Local processing, in one concept only...">
<polygon fill="none" stroke="black" points="1260,-77 1260,-107 1417,-107 1417,-77 1260,-77"/>
<text text-anchor="start" x="1268" y="-95" font-family="Helvetica,sans-Serif" font-size="10.00">nars.storage.Memory.immediate</text>
<text text-anchor="middle" x="1338.5" y="-84" font-family="Helvetica,sans-Serif" font-size="10.00">Process</text>
</a>
</g>
</g>
<!-- Node123&#45;&gt;Node124 -->
<g id="edge4" class="edge"><title>Node123&#45;&gt;Node124</title>
<path fill="none" stroke="midnightblue" d="M1217.09,-92C1231.1,-92 1245.81,-92 1259.95,-92"/>
<polygon fill="midnightblue" stroke="midnightblue" points="1217.02,-88.5001 1207.02,-92 1217.02,-95.5001 1217.02,-88.5001"/>
</g>
<!-- Node125 -->
<g id="node6" class="node"><title>Node125</title>
<g id="a_node6"><a xlink:href="../../d4/d27/a00392.html#ae43b86074c0d8f6a324696f69faa54b3" target="_top" xlink:title="Process the newTasks accumulated in the previous workCycle, accept input ones and those that correspo...">
<polygon fill="none" stroke="black" points="1453,-88 1453,-118 1599,-118 1599,-88 1453,-88"/>
<text text-anchor="start" x="1461" y="-106" font-family="Helvetica,sans-Serif" font-size="10.00">nars.storage.Memory.process</text>
<text text-anchor="middle" x="1526" y="-95" font-family="Helvetica,sans-Serif" font-size="10.00">NewTask</text>
</a>
</g>
</g>
<!-- Node124&#45;&gt;Node125 -->
<g id="edge5" class="edge"><title>Node124&#45;&gt;Node125</title>
<path fill="none" stroke="midnightblue" d="M1427.12,-97.1961C1435.71,-97.705 1444.35,-98.2175 1452.75,-98.7159"/>
<polygon fill="midnightblue" stroke="midnightblue" points="1427.28,-93.6994 1417.09,-96.6013 1426.87,-100.687 1427.28,-93.6994"/>
</g>
<!-- Node132 -->
<g id="node13" class="node"><title>Node132</title>
<g id="a_node13"><a xlink:href="../../d4/d27/a00392.html#a5061708f88897cfdf4e0671c846762ca" target="_top" xlink:title="Select a novel task to process. ">
<polygon fill="none" stroke="black" points="1453,-39 1453,-69 1599,-69 1599,-39 1453,-39"/>
<text text-anchor="start" x="1461" y="-57" font-family="Helvetica,sans-Serif" font-size="10.00">nars.storage.Memory.process</text>
<text text-anchor="middle" x="1526" y="-46" font-family="Helvetica,sans-Serif" font-size="10.00">NovelTask</text>
</a>
</g>
</g>
<!-- Node124&#45;&gt;Node132 -->
<g id="edge12" class="edge"><title>Node124&#45;&gt;Node132</title>
<path fill="none" stroke="midnightblue" d="M1422.77,-74.9413C1432.8,-72.8874 1442.97,-70.803 1452.82,-68.7853"/>
<polygon fill="midnightblue" stroke="midnightblue" points="1421.91,-71.5457 1412.81,-76.9814 1423.31,-78.4033 1421.91,-71.5457"/>
</g>
<!-- Node126 -->
<g id="node7" class="node"><title>Node126</title>
<g id="a_node7"><a xlink:href="../../d4/d27/a00392.html#a59ae339d666409988d90d29be4f73a91" target="_top" xlink:title="An atomic working workCycle of the system: process new Tasks, then fireFromProcessConcept a concept...">
<polygon fill="none" stroke="black" points="1635,-88 1635,-118 1768,-118 1768,-88 1635,-88"/>
<text text-anchor="start" x="1643" y="-106" font-family="Helvetica,sans-Serif" font-size="10.00">nars.storage.Memory.work</text>
<text text-anchor="middle" x="1701.5" y="-95" font-family="Helvetica,sans-Serif" font-size="10.00">Cycle</text>
</a>
</g>
</g>
<!-- Node125&#45;&gt;Node126 -->
<g id="edge6" class="edge"><title>Node125&#45;&gt;Node126</title>
<path fill="none" stroke="midnightblue" d="M1609.12,-103C1617.72,-103 1626.37,-103 1634.76,-103"/>
<polygon fill="midnightblue" stroke="midnightblue" points="1609.07,-99.5001 1599.07,-103 1609.07,-106.5 1609.07,-99.5001"/>
</g>
<!-- Node127 -->
<g id="node8" class="node"><title>Node127</title>
<g id="a_node8"><a xlink:href="../../df/d15/a00416.html#a0d5c797dc17d9e8d0998852915e0f303" target="_top" xlink:title="nars.storage.ReasonerBatch.doTick">
<polygon fill="none" stroke="black" points="1804,-93.5 1804,-112.5 1977,-112.5 1977,-93.5 1804,-93.5"/>
<text text-anchor="middle" x="1890.5" y="-100.5" font-family="Helvetica,sans-Serif" font-size="10.00">nars.storage.ReasonerBatch.doTick</text>
</a>
</g>
</g>
<!-- Node126&#45;&gt;Node127 -->
<g id="edge7" class="edge"><title>Node126&#45;&gt;Node127</title>
<path fill="none" stroke="midnightblue" d="M1778.34,-103C1786.78,-103 1795.42,-103 1803.97,-103"/>
<polygon fill="midnightblue" stroke="midnightblue" points="1778.17,-99.5001 1768.17,-103 1778.17,-106.5 1778.17,-99.5001"/>
</g>
<!-- Node128 -->
<g id="node9" class="node"><title>Node128</title>
<g id="a_node9"><a xlink:href="../../df/d15/a00416.html#a3468aa0f99edcd66412f27922dddb880" target="_top" xlink:title="A clock tick. ">
<polygon fill="none" stroke="black" points="2013,-93.5 2013,-112.5 2173,-112.5 2173,-93.5 2013,-93.5"/>
<text text-anchor="middle" x="2093" y="-100.5" font-family="Helvetica,sans-Serif" font-size="10.00">nars.storage.ReasonerBatch.tick</text>
</a>
</g>
</g>
<!-- Node127&#45;&gt;Node128 -->
<g id="edge8" class="edge"><title>Node127&#45;&gt;Node128</title>
<path fill="none" stroke="midnightblue" d="M1987.13,-103C1995.7,-103 2004.31,-103 2012.71,-103"/>
<polygon fill="midnightblue" stroke="midnightblue" points="1987.11,-99.5001 1977.11,-103 1987.11,-106.5 1987.11,-99.5001"/>
</g>
<!-- Node129 -->
<g id="node10" class="node"><title>Node129</title>
<g id="a_node10"><a xlink:href="../../d9/da1/a00396.html#a5d9cfe517bcfbe41e5251910bcd119c1" target="_top" xlink:title="Run to completion: repeatedly execute NARS working cycle, until Inputs are Finished, or 1000 steps. ">
<polygon fill="none" stroke="black" points="2209,-93.5 2209,-112.5 2353,-112.5 2353,-93.5 2209,-93.5"/>
<text text-anchor="middle" x="2281" y="-100.5" font-family="Helvetica,sans-Serif" font-size="10.00">nars.storage.NARSBatch.run</text>
</a>
</g>
</g>
<!-- Node128&#45;&gt;Node129 -->
<g id="edge9" class="edge"><title>Node128&#45;&gt;Node129</title>
<path fill="none" stroke="midnightblue" d="M2183.22,-103C2191.82,-103 2200.47,-103 2208.87,-103"/>
<polygon fill="midnightblue" stroke="midnightblue" points="2183.15,-99.5001 2173.15,-103 2183.15,-106.5 2183.15,-99.5001"/>
</g>
<!-- Node130 -->
<g id="node11" class="node"><title>Node130</title>
<g id="a_node11"><a xlink:href="../../d9/da1/a00396.html#a7c307c6b842f82664de6b0e52bdf8efc" target="_top" xlink:title="non&#45;static equivalent to main(String[]) : run to completion from an input file ">
<polygon fill="none" stroke="black" points="2389,-88 2389,-118 2533,-118 2533,-88 2389,-88"/>
<text text-anchor="start" x="2397" y="-106" font-family="Helvetica,sans-Serif" font-size="10.00">nars.storage.NARSBatch.run</text>
<text text-anchor="middle" x="2461" y="-95" font-family="Helvetica,sans-Serif" font-size="10.00">Inference</text>
</a>
</g>
</g>
<!-- Node129&#45;&gt;Node130 -->
<g id="edge10" class="edge"><title>Node129&#45;&gt;Node130</title>
<path fill="none" stroke="midnightblue" d="M2363.17,-103C2371.79,-103 2380.51,-103 2389,-103"/>
<polygon fill="midnightblue" stroke="midnightblue" points="2363.12,-99.5001 2353.12,-103 2363.12,-106.5 2363.12,-99.5001"/>
</g>
<!-- Node131 -->
<g id="node12" class="node"><title>Node131</title>
<g id="a_node12"><a xlink:href="../../d9/da1/a00396.html#abafc597289bc2f6453b5cd0dd6634e54" target="_top" xlink:title="The entry point of the standalone application. ">
<polygon fill="none" stroke="black" points="2569,-93.5 2569,-112.5 2721,-112.5 2721,-93.5 2569,-93.5"/>
<text text-anchor="middle" x="2645" y="-100.5" font-family="Helvetica,sans-Serif" font-size="10.00">nars.storage.NARSBatch.main</text>
</a>
</g>
</g>
<!-- Node130&#45;&gt;Node131 -->
<g id="edge11" class="edge"><title>Node130&#45;&gt;Node131</title>
<path fill="none" stroke="midnightblue" d="M2543.17,-103C2551.76,-103 2560.48,-103 2569,-103"/>
<polygon fill="midnightblue" stroke="midnightblue" points="2543.15,-99.5001 2533.15,-103 2543.15,-106.5 2543.15,-99.5001"/>
</g>
<!-- Node132&#45;&gt;Node126 -->
<g id="edge13" class="edge"><title>Node132&#45;&gt;Node126</title>
<path fill="none" stroke="midnightblue" d="M1590.1,-71.8212C1608.83,-77.1118 1629.16,-82.8522 1647.21,-87.9484"/>
<polygon fill="midnightblue" stroke="midnightblue" points="1591.05,-68.4512 1580.47,-69.1014 1589.14,-75.1877 1591.05,-68.4512"/>
</g>
<!-- Node134 -->
<g id="node15" class="node"><title>Node134</title>
<g id="a_node15"><a xlink:href="../../dc/ded/a00252.html#ac2d01dfdc40bdd47c757cb549217e6e3" target="_top" xlink:title="Entry point of the inference engine. ">
<polygon fill="none" stroke="black" points="1061,-142.5 1061,-161.5 1224,-161.5 1224,-142.5 1061,-142.5"/>
<text text-anchor="middle" x="1142.5" y="-149.5" font-family="Helvetica,sans-Serif" font-size="10.00">nars.inference.RuleTables.reason</text>
</a>
</g>
</g>
<!-- Node133&#45;&gt;Node134 -->
<g id="edge15" class="edge"><title>Node133&#45;&gt;Node134</title>
<path fill="none" stroke="midnightblue" d="M1035.44,-152C1043.91,-152 1052.52,-152 1060.98,-152"/>
<polygon fill="midnightblue" stroke="midnightblue" points="1035.2,-148.5 1025.2,-152 1035.2,-155.5 1035.2,-148.5"/>
</g>
<!-- Node135 -->
<g id="node16" class="node"><title>Node135</title>
<g id="a_node16"><a xlink:href="../../d7/ded/a00196.html#ad6fb91dda799c3092ecb186ef24ca92a" target="_top" xlink:title="An atomic step in a concept, only called in Memory# processConcept. ">
<polygon fill="none" stroke="black" points="1279,-137 1279,-167 1398,-167 1398,-137 1279,-137"/>
<text text-anchor="start" x="1287" y="-155" font-family="Helvetica,sans-Serif" font-size="10.00">nars.entity.Concept.fire</text>
<text text-anchor="middle" x="1338.5" y="-144" font-family="Helvetica,sans-Serif" font-size="10.00">FromProcessConcept</text>
</a>
</g>
</g>
<!-- Node134&#45;&gt;Node135 -->
<g id="edge16" class="edge"><title>Node134&#45;&gt;Node135</title>
<path fill="none" stroke="midnightblue" d="M1234.46,-152C1249.52,-152 1264.76,-152 1278.75,-152"/>
<polygon fill="midnightblue" stroke="midnightblue" points="1234.09,-148.5 1224.09,-152 1234.09,-155.5 1234.09,-148.5"/>
</g>
<!-- Node136 -->
<g id="node17" class="node"><title>Node136</title>
<g id="a_node17"><a xlink:href="../../d4/d27/a00392.html#a0acc4adbf6a2462245da46bcb529746c" target="_top" xlink:title="Select a concept to fireFromProcessConcept. ">
<polygon fill="none" stroke="black" points="1453,-137 1453,-167 1599,-167 1599,-137 1453,-137"/>
<text text-anchor="start" x="1461" y="-155" font-family="Helvetica,sans-Serif" font-size="10.00">nars.storage.Memory.process</text>
<text text-anchor="middle" x="1526" y="-144" font-family="Helvetica,sans-Serif" font-size="10.00">Concept</text>
</a>
</g>
</g>
<!-- Node135&#45;&gt;Node136 -->
<g id="edge17" class="edge"><title>Node135&#45;&gt;Node136</title>
<path fill="none" stroke="midnightblue" d="M1408.52,-152C1422.93,-152 1438.16,-152 1452.68,-152"/>
<polygon fill="midnightblue" stroke="midnightblue" points="1408.19,-148.5 1398.19,-152 1408.19,-155.5 1408.19,-148.5"/>
</g>
<!-- Node136&#45;&gt;Node126 -->
<g id="edge18" class="edge"><title>Node136&#45;&gt;Node126</title>
<path fill="none" stroke="midnightblue" d="M1590.1,-134.179C1608.83,-128.888 1629.16,-123.148 1647.21,-118.052"/>
<polygon fill="midnightblue" stroke="midnightblue" points="1589.14,-130.812 1580.47,-136.899 1591.05,-137.549 1589.14,-130.812"/>
</g>
<!-- Node139 -->
<g id="node20" class="node"><title>Node139</title>
<g id="a_node20"><a xlink:href="../../d6/d43/a00216.html#adb33cdf9f13e1a919f7220cb622e7446" target="_top" xlink:title="Check if two stamps contains the same content. ">
<polygon fill="none" stroke="black" points="344,-76.5 344,-95.5 469,-95.5 469,-76.5 344,-76.5"/>
<text text-anchor="middle" x="406.5" y="-83.5" font-family="Helvetica,sans-Serif" font-size="10.00">nars.entity.Stamp.equals</text>
</a>
</g>
</g>
<!-- Node138&#45;&gt;Node139 -->
<g id="edge21" class="edge"><title>Node138&#45;&gt;Node139</title>
<path fill="none" stroke="midnightblue" d="M305.105,-86C317.916,-86 331.21,-86 343.769,-86"/>
<polygon fill="midnightblue" stroke="midnightblue" points="304.958,-82.5001 294.958,-86 304.958,-89.5001 304.958,-82.5001"/>
</g>
<!-- Node139&#45;&gt;Node122 -->
<g id="edge26" class="edge"><title>Node139&#45;&gt;Node122</title>
<path fill="none" stroke="midnightblue" d="M460.515,-74.5485C477.224,-71.4528 495.807,-68.5358 513,-67 660.413,-53.8318 698.982,-49.9758 846,-67 863.545,-69.0317 882.398,-72.8866 899.293,-76.9719"/>
<polygon fill="midnightblue" stroke="midnightblue" points="459.546,-71.1704 450.382,-76.4884 460.862,-78.0456 459.546,-71.1704"/>
</g>
<!-- Node140 -->
<g id="node21" class="node"><title>Node140</title>
<g id="a_node21"><a xlink:href="../../dd/dc1/a00212.html#a6b64cf9f10e578e4831092ab31dcd5d9" target="_top" xlink:title="To check whether two sentences are equal. ">
<polygon fill="none" stroke="black" points="526.5,-114.5 526.5,-133.5 664.5,-133.5 664.5,-114.5 526.5,-114.5"/>
<text text-anchor="middle" x="595.5" y="-121.5" font-family="Helvetica,sans-Serif" font-size="10.00">nars.entity.Sentence.equals</text>
</a>
</g>
</g>
<!-- Node139&#45;&gt;Node140 -->
<g id="edge22" class="edge"><title>Node139&#45;&gt;Node140</title>
<path fill="none" stroke="midnightblue" d="M464.631,-97.6095C491.227,-103.014 522.473,-109.364 547.651,-114.48"/>
<polygon fill="midnightblue" stroke="midnightblue" points="465.185,-94.1506 454.688,-95.589 463.791,-101.01 465.185,-94.1506"/>
</g>
<!-- Node141 -->
<g id="node22" class="node"><title>Node141</title>
<g id="a_node22"><a xlink:href="../../dd/dc1/a00212.html#a83162edae863623803e811c0752d17fa" target="_top" xlink:title="Check whether the judgment is equivalent to another one. ">
<polygon fill="none" stroke="black" points="513,-76.5 513,-95.5 678,-95.5 678,-76.5 513,-76.5"/>
<text text-anchor="middle" x="595.5" y="-83.5" font-family="Helvetica,sans-Serif" font-size="10.00">nars.entity.Sentence.equivalentTo</text>
</a>
</g>
</g>
<!-- Node139&#45;&gt;Node141 -->
<g id="edge23" class="edge"><title>Node139&#45;&gt;Node141</title>
<path fill="none" stroke="midnightblue" d="M479.542,-86C490.43,-86 501.729,-86 512.803,-86"/>
<polygon fill="midnightblue" stroke="midnightblue" points="479.249,-82.5001 469.249,-86 479.249,-89.5001 479.249,-82.5001"/>
</g>
<!-- Node142 -->
<g id="node23" class="node"><title>Node142</title>
<g id="a_node23"><a xlink:href="../../d7/ded/a00196.html#ad2ad743f666efee084cf306a42f8bf04" target="_top" xlink:title="Add a new belief (or goal) into the table Sort the beliefs/goals by rank, and remove redundant or low...">
<polygon fill="none" stroke="black" points="714,-77 714,-107 846,-107 846,-77 714,-77"/>
<text text-anchor="start" x="722" y="-95" font-family="Helvetica,sans-Serif" font-size="10.00">nars.entity.Concept.addTo</text>
<text text-anchor="middle" x="780" y="-84" font-family="Helvetica,sans-Serif" font-size="10.00">Table</text>
</a>
</g>
</g>
<!-- Node141&#45;&gt;Node142 -->
<g id="edge24" class="edge"><title>Node141&#45;&gt;Node142</title>
<path fill="none" stroke="midnightblue" d="M688.266,-89.017C696.903,-89.3009 705.534,-89.5847 713.85,-89.8581"/>
<polygon fill="midnightblue" stroke="midnightblue" points="688.251,-85.5147 678.142,-88.6841 688.021,-92.5109 688.251,-85.5147"/>
</g>
<!-- Node142&#45;&gt;Node122 -->
<g id="edge25" class="edge"><title>Node142&#45;&gt;Node122</title>
<path fill="none" stroke="midnightblue" d="M856.373,-92C865.35,-92 874.48,-92 883.362,-92"/>
<polygon fill="midnightblue" stroke="midnightblue" points="856.326,-88.5001 846.326,-92 856.326,-95.5001 856.326,-88.5001"/>
</g>
<!-- Node144 -->
<g id="node25" class="node"><title>Node144</title>
<g id="a_node25"><a xlink:href="../../d6/d43/a00216.html#ab52baff17f87c3737f0bc0216f66ac3f" target="_top" xlink:title="The hash code of Stamp. ">
<polygon fill="none" stroke="black" points="336,-10.5 336,-29.5 477,-29.5 477,-10.5 336,-10.5"/>
<text text-anchor="middle" x="406.5" y="-17.5" font-family="Helvetica,sans-Serif" font-size="10.00">nars.entity.Stamp.hashCode</text>
</a>
</g>
</g>
<!-- Node143&#45;&gt;Node144 -->
<g id="edge28" class="edge"><title>Node143&#45;&gt;Node144</title>
<path fill="none" stroke="midnightblue" d="M310.456,-25.0317C318.893,-24.5851 327.464,-24.1313 335.829,-23.6884"/>
<polygon fill="midnightblue" stroke="midnightblue" points="310.056,-21.5479 300.255,-25.5718 310.426,-28.5382 310.056,-21.5479"/>
</g>
<!-- Node145 -->
<g id="node26" class="node"><title>Node145</title>
<g id="a_node26"><a xlink:href="../../dd/dc1/a00212.html#aa46486d7029fadbdfd9110ba7c9272ed" target="_top" xlink:title="To produce the hashcode of a sentence. ">
<polygon fill="none" stroke="black" points="518.5,-0.5 518.5,-19.5 672.5,-19.5 672.5,-0.5 518.5,-0.5"/>
<text text-anchor="middle" x="595.5" y="-7.5" font-family="Helvetica,sans-Serif" font-size="10.00">nars.entity.Sentence.hashCode</text>
</a>
</g>
</g>
<!-- Node144&#45;&gt;Node145 -->
<g id="edge29" class="edge"><title>Node144&#45;&gt;Node145</title>
<path fill="none" stroke="midnightblue" d="M487.291,-15.7331C497.544,-15.1848 508.022,-14.6245 518.217,-14.0793"/>
<polygon fill="midnightblue" stroke="midnightblue" points="486.931,-12.2473 477.132,-16.2764 487.305,-19.2373 486.931,-12.2473"/>
</g>
</g>
</svg>
