<?xml version="1.0" encoding="UTF-8" standalone="no"?>
<!DOCTYPE svg PUBLIC "-//W3C//DTD SVG 1.1//EN"
 "http://www.w3.org/Graphics/SVG/1.1/DTD/svg11.dtd">
<!-- Generated by graphviz version 2.38.0 (20140413.2041)
 -->
<!-- Title: nars.entity.TaskLink.getRecordingTime Pages: 1 -->
<!--zoomable 39 -->
<svg id="main" version="1.1" xmlns="http://www.w3.org/2000/svg" xmlns:xlink="http://www.w3.org/1999/xlink" xml:space="preserve" onload="init(evt)">
<style type="text/css"><![CDATA[
.edge:hover path { stroke: red; }
.edge:hover polygon { stroke: red; fill: red; }
]]></style>
<script type="text/javascript"><![CDATA[
var edges = document.getElementsByTagName('g');
if (edges && edges.length) {
  for (var i=0;i<edges.length;i++) {
    if (edges[i].id.substr(0,4)=='edge') {
      edges[i].setAttribute('class','edge');
    }
  }
}
]]></script>
        <defs>
                <circle id="rim" cx="0" cy="0" r="7"/>
                <circle id="rim2" cx="0" cy="0" r="3.5"/>
                <g id="zoomPlus">
                        <use xlink:href="#rim" fill="#404040">
                                <set attributeName="fill" to="#808080" begin="zoomplus.mouseover" end="zoomplus.mouseout"/>
                        </use>
                        <path d="M-4,0h8M0,-4v8" fill="none" stroke="white" stroke-width="1.5" pointer-events="none"/>
                </g>
                <g id="zoomMin">
                        <use xlink:href="#rim" fill="#404040">
                                <set attributeName="fill" to="#808080" begin="zoomminus.mouseover" end="zoomminus.mouseout"/>
                        </use>
                        <path d="M-4,0h8" fill="none" stroke="white" stroke-width="1.5" pointer-events="none"/>
                </g>
                <g id="dirArrow">
                        <path fill="none" stroke="white" stroke-width="1.5" d="M0,-3.0v7 M-2.5,-0.5L0,-3.0L2.5,-0.5"/>
                </g>
               <g id="resetDef">
                       <use xlink:href="#rim2" fill="#404040">
                               <set attributeName="fill" to="#808080" begin="reset.mouseover" end="reset.mouseout"/>
                       </use>
               </g>
        </defs>

<script type="text/javascript">
var viewWidth = 1961;
var viewHeight = 39;
var sectionId = 'dynsection-5';
</script>
<script xlink:href="../../svgpan.js"/>
<svg id="graph" class="graph">
<g id="viewport">
<title>nars.entity.TaskLink.getRecordingTime</title>
<!-- Node36 -->
<g id="node1" class="node"><title>Node36</title>
<polygon fill="#bfbfbf" stroke="black" points="0,-0.5 0,-30.5 122,-30.5 122,-0.5 0,-0.5"/>
<text text-anchor="start" x="8" y="-18.5" font-family="Helvetica,sans-Serif" font-size="10.00">nars.entity.TaskLink.get</text>
<text text-anchor="middle" x="61" y="-7.5" font-family="Helvetica,sans-Serif" font-size="10.00">RecordingTime</text>
</g>
<!-- Node37 -->
<g id="node2" class="node"><title>Node37</title>
<g id="a_node2"><a xlink:href="../../de/dc2/a00228.html#afea026df0afd74986f940d10a7875a2f" target="_top" xlink:title="To check whether a TaskLink should use a TermLink, return false if they interacted recently...">
<polygon fill="none" stroke="black" points="158,-6 158,-25 289,-25 289,-6 158,-6"/>
<text text-anchor="middle" x="223.5" y="-13" font-family="Helvetica,sans-Serif" font-size="10.00">nars.entity.TaskLink.novel</text>
</a>
</g>
</g>
<!-- Node36&#45;&gt;Node37 -->
<g id="edge1" class="edge"><title>Node36&#45;&gt;Node37</title>
<path fill="none" stroke="midnightblue" d="M132.451,-15.5C140.919,-15.5 149.534,-15.5 157.913,-15.5"/>
<polygon fill="midnightblue" stroke="midnightblue" points="132.221,-12.0001 122.221,-15.5 132.221,-19.0001 132.221,-12.0001"/>
</g>
<!-- Node38 -->
<g id="node3" class="node"><title>Node38</title>
<g id="a_node3"><a xlink:href="../../d4/dd3/a00428.html#a2f98120a5db1a3c065d3dc5712562d71" target="_top" xlink:title="Replace default to prevent repeated inference, by checking TaskLink. ">
<polygon fill="none" stroke="black" points="325,-6 325,-25 494,-25 494,-6 325,-6"/>
<text text-anchor="middle" x="409.5" y="-13" font-family="Helvetica,sans-Serif" font-size="10.00">nars.storage.TermLinkBag.takeOut</text>
</a>
</g>
</g>
<!-- Node37&#45;&gt;Node38 -->
<g id="edge2" class="edge"><title>Node37&#45;&gt;Node38</title>
<path fill="none" stroke="midnightblue" d="M299.31,-15.5C307.768,-15.5 316.428,-15.5 324.988,-15.5"/>
<polygon fill="midnightblue" stroke="midnightblue" points="299.113,-12.0001 289.113,-15.5 299.113,-19.0001 299.113,-12.0001"/>
</g>
<!-- Node39 -->
<g id="node4" class="node"><title>Node39</title>
<g id="a_node4"><a xlink:href="../../d7/ded/a00196.html#ad6fb91dda799c3092ecb186ef24ca92a" target="_top" xlink:title="An atomic step in a concept, only called in Memory# processConcept. ">
<polygon fill="none" stroke="black" points="530,-0.5 530,-30.5 649,-30.5 649,-0.5 530,-0.5"/>
<text text-anchor="start" x="538" y="-18.5" font-family="Helvetica,sans-Serif" font-size="10.00">nars.entity.Concept.fire</text>
<text text-anchor="middle" x="589.5" y="-7.5" font-family="Helvetica,sans-Serif" font-size="10.00">FromProcessConcept</text>
</a>
</g>
</g>
<!-- Node38&#45;&gt;Node39 -->
<g id="edge3" class="edge"><title>Node38&#45;&gt;Node39</title>
<path fill="none" stroke="midnightblue" d="M504.252,-15.5C512.955,-15.5 521.598,-15.5 529.845,-15.5"/>
<polygon fill="midnightblue" stroke="midnightblue" points="504.028,-12.0001 494.027,-15.5 504.027,-19.0001 504.028,-12.0001"/>
</g>
<!-- Node40 -->
<g id="node5" class="node"><title>Node40</title>
<g id="a_node5"><a xlink:href="../../d4/d27/a00392.html#a0acc4adbf6a2462245da46bcb529746c" target="_top" xlink:title="Select a concept to fireFromProcessConcept. ">
<polygon fill="none" stroke="black" points="685,-0.5 685,-30.5 831,-30.5 831,-0.5 685,-0.5"/>
<text text-anchor="start" x="693" y="-18.5" font-family="Helvetica,sans-Serif" font-size="10.00">nars.storage.Memory.process</text>
<text text-anchor="middle" x="758" y="-7.5" font-family="Helvetica,sans-Serif" font-size="10.00">Concept</text>
</a>
</g>
</g>
<!-- Node39&#45;&gt;Node40 -->
<g id="edge4" class="edge"><title>Node39&#45;&gt;Node40</title>
<path fill="none" stroke="midnightblue" d="M659.337,-15.5C667.748,-15.5 676.361,-15.5 684.819,-15.5"/>
<polygon fill="midnightblue" stroke="midnightblue" points="659.202,-12.0001 649.202,-15.5 659.202,-19.0001 659.202,-12.0001"/>
</g>
<!-- Node41 -->
<g id="node6" class="node"><title>Node41</title>
<g id="a_node6"><a xlink:href="../../d4/d27/a00392.html#a59ae339d666409988d90d29be4f73a91" target="_top" xlink:title="An atomic working workCycle of the system: process new Tasks, then fireFromProcessConcept a concept...">
<polygon fill="none" stroke="black" points="867,-0.5 867,-30.5 1000,-30.5 1000,-0.5 867,-0.5"/>
<text text-anchor="start" x="875" y="-18.5" font-family="Helvetica,sans-Serif" font-size="10.00">nars.storage.Memory.work</text>
<text text-anchor="middle" x="933.5" y="-7.5" font-family="Helvetica,sans-Serif" font-size="10.00">Cycle</text>
</a>
</g>
</g>
<!-- Node40&#45;&gt;Node41 -->
<g id="edge5" class="edge"><title>Node40&#45;&gt;Node41</title>
<path fill="none" stroke="midnightblue" d="M841.118,-15.5C849.716,-15.5 858.375,-15.5 866.755,-15.5"/>
<polygon fill="midnightblue" stroke="midnightblue" points="841.072,-12.0001 831.072,-15.5 841.072,-19.0001 841.072,-12.0001"/>
</g>
<!-- Node42 -->
<g id="node7" class="node"><title>Node42</title>
<g id="a_node7"><a xlink:href="../../df/d15/a00416.html#a0d5c797dc17d9e8d0998852915e0f303" target="_top" xlink:title="nars.storage.ReasonerBatch.doTick">
<polygon fill="none" stroke="black" points="1036,-6 1036,-25 1209,-25 1209,-6 1036,-6"/>
<text text-anchor="middle" x="1122.5" y="-13" font-family="Helvetica,sans-Serif" font-size="10.00">nars.storage.ReasonerBatch.doTick</text>
</a>
</g>
</g>
<!-- Node41&#45;&gt;Node42 -->
<g id="edge6" class="edge"><title>Node41&#45;&gt;Node42</title>
<path fill="none" stroke="midnightblue" d="M1010.34,-15.5C1018.78,-15.5 1027.42,-15.5 1035.97,-15.5"/>
<polygon fill="midnightblue" stroke="midnightblue" points="1010.17,-12.0001 1000.17,-15.5 1010.17,-19.0001 1010.17,-12.0001"/>
</g>
<!-- Node43 -->
<g id="node8" class="node"><title>Node43</title>
<g id="a_node8"><a xlink:href="../../df/d15/a00416.html#a3468aa0f99edcd66412f27922dddb880" target="_top" xlink:title="A clock tick. ">
<polygon fill="none" stroke="black" points="1245,-6 1245,-25 1405,-25 1405,-6 1245,-6"/>
<text text-anchor="middle" x="1325" y="-13" font-family="Helvetica,sans-Serif" font-size="10.00">nars.storage.ReasonerBatch.tick</text>
</a>
</g>
</g>
<!-- Node42&#45;&gt;Node43 -->
<g id="edge7" class="edge"><title>Node42&#45;&gt;Node43</title>
<path fill="none" stroke="midnightblue" d="M1219.13,-15.5C1227.7,-15.5 1236.31,-15.5 1244.71,-15.5"/>
<polygon fill="midnightblue" stroke="midnightblue" points="1219.11,-12.0001 1209.11,-15.5 1219.11,-19.0001 1219.11,-12.0001"/>
</g>
<!-- Node44 -->
<g id="node9" class="node"><title>Node44</title>
<g id="a_node9"><a xlink:href="../../d9/da1/a00396.html#a5d9cfe517bcfbe41e5251910bcd119c1" target="_top" xlink:title="Run to completion: repeatedly execute NARS working cycle, until Inputs are Finished, or 1000 steps. ">
<polygon fill="none" stroke="black" points="1441,-6 1441,-25 1585,-25 1585,-6 1441,-6"/>
<text text-anchor="middle" x="1513" y="-13" font-family="Helvetica,sans-Serif" font-size="10.00">nars.storage.NARSBatch.run</text>
</a>
</g>
</g>
<!-- Node43&#45;&gt;Node44 -->
<g id="edge8" class="edge"><title>Node43&#45;&gt;Node44</title>
<path fill="none" stroke="midnightblue" d="M1415.22,-15.5C1423.82,-15.5 1432.47,-15.5 1440.87,-15.5"/>
<polygon fill="midnightblue" stroke="midnightblue" points="1415.15,-12.0001 1405.15,-15.5 1415.15,-19.0001 1415.15,-12.0001"/>
</g>
<!-- Node45 -->
<g id="node10" class="node"><title>Node45</title>
<g id="a_node10"><a xlink:href="../../d9/da1/a00396.html#a7c307c6b842f82664de6b0e52bdf8efc" target="_top" xlink:title="non&#45;static equivalent to main(String[]) : run to completion from an input file ">
<polygon fill="none" stroke="black" points="1621,-0.5 1621,-30.5 1765,-30.5 1765,-0.5 1621,-0.5"/>
<text text-anchor="start" x="1629" y="-18.5" font-family="Helvetica,sans-Serif" font-size="10.00">nars.storage.NARSBatch.run</text>
<text text-anchor="middle" x="1693" y="-7.5" font-family="Helvetica,sans-Serif" font-size="10.00">Inference</text>
</a>
</g>
</g>
<!-- Node44&#45;&gt;Node45 -->
<g id="edge9" class="edge"><title>Node44&#45;&gt;Node45</title>
<path fill="none" stroke="midnightblue" d="M1595.17,-15.5C1603.79,-15.5 1612.51,-15.5 1621,-15.5"/>
<polygon fill="midnightblue" stroke="midnightblue" points="1595.12,-12.0001 1585.12,-15.5 1595.12,-19.0001 1595.12,-12.0001"/>
</g>
<!-- Node46 -->
<g id="node11" class="node"><title>Node46</title>
<g id="a_node11"><a xlink:href="../../d9/da1/a00396.html#abafc597289bc2f6453b5cd0dd6634e54" target="_top" xlink:title="The entry point of the standalone application. ">
<polygon fill="none" stroke="black" points="1801,-6 1801,-25 1953,-25 1953,-6 1801,-6"/>
<text text-anchor="middle" x="1877" y="-13" font-family="Helvetica,sans-Serif" font-size="10.00">nars.storage.NARSBatch.main</text>
</a>
</g>
</g>
<!-- Node45&#45;&gt;Node46 -->
<g id="edge10" class="edge"><title>Node45&#45;&gt;Node46</title>
<path fill="none" stroke="midnightblue" d="M1775.17,-15.5C1783.76,-15.5 1792.48,-15.5 1801,-15.5"/>
<polygon fill="midnightblue" stroke="midnightblue" points="1775.15,-12.0001 1765.15,-15.5 1775.15,-19.0001 1775.15,-12.0001"/>
</g>
</g>
</svg>
        <g id="navigator" transform="translate(0 0)" fill="#404254">
                <rect fill="#f2f5e9" fill-opacity="0.5" stroke="#606060" stroke-width=".5" x="0" y="0" width="60" height="60"/>
                <use id="zoomplus" xlink:href="#zoomPlus" x="17" y="9" onmousedown="handleZoom(evt,'in')"/>
                <use id="zoomminus" xlink:href="#zoomMin" x="42" y="9" onmousedown="handleZoom(evt,'out')"/>
                <use id="reset" xlink:href="#resetDef" x="30" y="36" onmousedown="handleReset()"/>
                <g id="arrowUp" xlink:href="#dirArrow" transform="translate(30 24)" onmousedown="handlePan(0,-1)">
                  <use xlink:href="#rim" fill="#404040">
                        <set attributeName="fill" to="#808080" begin="arrowUp.mouseover" end="arrowUp.mouseout"/>
                  </use>
                  <path fill="none" stroke="white" stroke-width="1.5" d="M0,-3.0v7 M-2.5,-0.5L0,-3.0L2.5,-0.5"/>
                </g>
                <g id="arrowRight" xlink:href="#dirArrow" transform="rotate(90) translate(36 -43)" onmousedown="handlePan(1,0)">
                  <use xlink:href="#rim" fill="#404040">
                        <set attributeName="fill" to="#808080" begin="arrowRight.mouseover" end="arrowRight.mouseout"/>
                  </use>
                  <path fill="none" stroke="white" stroke-width="1.5" d="M0,-3.0v7 M-2.5,-0.5L0,-3.0L2.5,-0.5"/>
                </g>
                <g id="arrowDown" xlink:href="#dirArrow" transform="rotate(180) translate(-30 -48)" onmousedown="handlePan(0,1)">
                  <use xlink:href="#rim" fill="#404040">
                        <set attributeName="fill" to="#808080" begin="arrowDown.mouseover" end="arrowDown.mouseout"/>
                  </use>
                  <path fill="none" stroke="white" stroke-width="1.5" d="M0,-3.0v7 M-2.5,-0.5L0,-3.0L2.5,-0.5"/>
                </g>
                <g id="arrowLeft" xlink:href="#dirArrow" transform="rotate(270) translate(-36 17)" onmousedown="handlePan(-1,0)">
                  <use xlink:href="#rim" fill="#404040">
                        <set attributeName="fill" to="#808080" begin="arrowLeft.mouseover" end="arrowLeft.mouseout"/>
                  </use>
                  <path fill="none" stroke="white" stroke-width="1.5" d="M0,-3.0v7 M-2.5,-0.5L0,-3.0L2.5,-0.5"/>
                </g>
        </g>
        <svg viewBox="0 0 15 15" width="100%" height="30px" preserveAspectRatio="xMaxYMin meet">
         <g id="arrow_out" transform="scale(0.3 0.3)">
          <a xlink:href="a00228_a7e80b0f649c974b8a563c5b34cf47ecf_icgraph_org.svg" target="_base">
           <rect id="button" ry="5" rx="5" y="6" x="6" height="38" width="38"
                fill="#f2f5e9" fill-opacity="0.5" stroke="#606060" stroke-width="1.0"/>
           <path id="arrow"
             d="M 11.500037,31.436501 C 11.940474,20.09759 22.043105,11.32322 32.158766,21.979434 L 37.068811,17.246167 C 37.068811,17.246167 37.088388,32 37.088388,32 L 22.160133,31.978069 C 22.160133,31.978069 26.997745,27.140456 26.997745,27.140456 C 18.528582,18.264221 13.291696,25.230495 11.500037,31.436501 z"
             style="fill:#404040;"/>
          </a>
         </g>
        </svg>
</svg>
