<?xml version="1.0" encoding="UTF-8" standalone="no"?>
<!DOCTYPE svg PUBLIC "-//W3C//DTD SVG 1.1//EN"
 "http://www.w3.org/Graphics/SVG/1.1/DTD/svg11.dtd">
<!-- Generated by graphviz version 2.38.0 (20140413.2041)
 -->
<!-- Title: nars.entity.TaskLink.getTargetTask Pages: 1 -->
<svg width="1972pt" height="91pt"
 viewBox="0.00 0.00 1972.00 90.50" xmlns="http://www.w3.org/2000/svg" xmlns:xlink="http://www.w3.org/1999/xlink">
<g id="graph0" class="graph" transform="scale(1 1) rotate(0) translate(4 86.5)">
<title>nars.entity.TaskLink.getTargetTask</title>
<!-- Node48 -->
<g id="node1" class="node"><title>Node48</title>
<polygon fill="#bfbfbf" stroke="black" points="0,-33 0,-63 122,-63 122,-33 0,-33"/>
<text text-anchor="start" x="8" y="-51" font-family="Helvetica,sans-Serif" font-size="10.00">nars.entity.TaskLink.get</text>
<text text-anchor="middle" x="61" y="-40" font-family="Helvetica,sans-Serif" font-size="10.00">TargetTask</text>
</g>
<!-- Node49 -->
<g id="node2" class="node"><title>Node49</title>
<g id="a_node2"><a xlink:href="../../d7/ded/a00196.html#ad6fb91dda799c3092ecb186ef24ca92a" target="_top" xlink:title="An atomic step in a concept, only called in Memory# processConcept. ">
<polygon fill="none" stroke="black" points="541,-52 541,-82 660,-82 660,-52 541,-52"/>
<text text-anchor="start" x="549" y="-70" font-family="Helvetica,sans-Serif" font-size="10.00">nars.entity.Concept.fire</text>
<text text-anchor="middle" x="600.5" y="-59" font-family="Helvetica,sans-Serif" font-size="10.00">FromProcessConcept</text>
</a>
</g>
</g>
<!-- Node48&#45;&gt;Node49 -->
<g id="edge1" class="edge"><title>Node48&#45;&gt;Node49</title>
<path fill="none" stroke="midnightblue" d="M132.233,-63.5342C140.875,-64.9616 149.614,-66.1781 158,-67 294.548,-80.3828 455.995,-75.0506 540.761,-70.6322"/>
<polygon fill="midnightblue" stroke="midnightblue" points="132.614,-60.0479 122.161,-61.7728 131.408,-66.9432 132.614,-60.0479"/>
</g>
<!-- Node57 -->
<g id="node10" class="node"><title>Node57</title>
<g id="a_node10"><a xlink:href="../../de/dc2/a00228.html#afea026df0afd74986f940d10a7875a2f" target="_top" xlink:title="To check whether a TaskLink should use a TermLink, return false if they interacted recently...">
<polygon fill="none" stroke="black" points="163.5,-38.5 163.5,-57.5 294.5,-57.5 294.5,-38.5 163.5,-38.5"/>
<text text-anchor="middle" x="229" y="-45.5" font-family="Helvetica,sans-Serif" font-size="10.00">nars.entity.TaskLink.novel</text>
</a>
</g>
</g>
<!-- Node48&#45;&gt;Node57 -->
<g id="edge9" class="edge"><title>Node48&#45;&gt;Node57</title>
<path fill="none" stroke="midnightblue" d="M132.546,-48C142.802,-48 153.319,-48 163.449,-48"/>
<polygon fill="midnightblue" stroke="midnightblue" points="132.399,-44.5001 122.399,-48 132.399,-51.5001 132.399,-44.5001"/>
</g>
<!-- Node59 -->
<g id="node12" class="node"><title>Node59</title>
<g id="a_node12"><a xlink:href="../../de/dc2/a00228.html#ae9f2d682898024ac0c358b50161b48d0" target="_top" xlink:title="nars.entity.TaskLink.toString">
<polygon fill="none" stroke="black" points="158,-0.5 158,-19.5 300,-19.5 300,-0.5 158,-0.5"/>
<text text-anchor="middle" x="229" y="-7.5" font-family="Helvetica,sans-Serif" font-size="10.00">nars.entity.TaskLink.toString</text>
</a>
</g>
</g>
<!-- Node48&#45;&gt;Node59 -->
<g id="edge12" class="edge"><title>Node48&#45;&gt;Node59</title>
<path fill="none" stroke="midnightblue" d="M132.229,-31.9236C150.654,-27.7058 169.939,-23.2911 186.335,-19.5378"/>
<polygon fill="midnightblue" stroke="midnightblue" points="131.366,-28.5304 122.399,-34.1736 132.928,-35.3539 131.366,-28.5304"/>
</g>
<!-- Node50 -->
<g id="node3" class="node"><title>Node50</title>
<g id="a_node3"><a xlink:href="../../d4/d27/a00392.html#a0acc4adbf6a2462245da46bcb529746c" target="_top" xlink:title="Select a concept to fireFromProcessConcept. ">
<polygon fill="none" stroke="black" points="696,-52 696,-82 842,-82 842,-52 696,-52"/>
<text text-anchor="start" x="704" y="-70" font-family="Helvetica,sans-Serif" font-size="10.00">nars.storage.Memory.process</text>
<text text-anchor="middle" x="769" y="-59" font-family="Helvetica,sans-Serif" font-size="10.00">Concept</text>
</a>
</g>
</g>
<!-- Node49&#45;&gt;Node50 -->
<g id="edge2" class="edge"><title>Node49&#45;&gt;Node50</title>
<path fill="none" stroke="midnightblue" d="M670.337,-67C678.748,-67 687.361,-67 695.819,-67"/>
<polygon fill="midnightblue" stroke="midnightblue" points="670.202,-63.5001 660.202,-67 670.202,-70.5001 670.202,-63.5001"/>
</g>
<!-- Node51 -->
<g id="node4" class="node"><title>Node51</title>
<g id="a_node4"><a xlink:href="../../d4/d27/a00392.html#a59ae339d666409988d90d29be4f73a91" target="_top" xlink:title="An atomic working workCycle of the system: process new Tasks, then fireFromProcessConcept a concept...">
<polygon fill="none" stroke="black" points="878,-52 878,-82 1011,-82 1011,-52 878,-52"/>
<text text-anchor="start" x="886" y="-70" font-family="Helvetica,sans-Serif" font-size="10.00">nars.storage.Memory.work</text>
<text text-anchor="middle" x="944.5" y="-59" font-family="Helvetica,sans-Serif" font-size="10.00">Cycle</text>
</a>
</g>
</g>
<!-- Node50&#45;&gt;Node51 -->
<g id="edge3" class="edge"><title>Node50&#45;&gt;Node51</title>
<path fill="none" stroke="midnightblue" d="M852.118,-67C860.716,-67 869.375,-67 877.755,-67"/>
<polygon fill="midnightblue" stroke="midnightblue" points="852.072,-63.5001 842.072,-67 852.072,-70.5001 852.072,-63.5001"/>
</g>
<!-- Node52 -->
<g id="node5" class="node"><title>Node52</title>
<g id="a_node5"><a xlink:href="../../df/d15/a00416.html#a0d5c797dc17d9e8d0998852915e0f303" target="_top" xlink:title="nars.storage.ReasonerBatch.doTick">
<polygon fill="none" stroke="black" points="1047,-57.5 1047,-76.5 1220,-76.5 1220,-57.5 1047,-57.5"/>
<text text-anchor="middle" x="1133.5" y="-64.5" font-family="Helvetica,sans-Serif" font-size="10.00">nars.storage.ReasonerBatch.doTick</text>
</a>
</g>
</g>
<!-- Node51&#45;&gt;Node52 -->
<g id="edge4" class="edge"><title>Node51&#45;&gt;Node52</title>
<path fill="none" stroke="midnightblue" d="M1021.34,-67C1029.78,-67 1038.42,-67 1046.97,-67"/>
<polygon fill="midnightblue" stroke="midnightblue" points="1021.17,-63.5001 1011.17,-67 1021.17,-70.5001 1021.17,-63.5001"/>
</g>
<!-- Node53 -->
<g id="node6" class="node"><title>Node53</title>
<g id="a_node6"><a xlink:href="../../df/d15/a00416.html#a3468aa0f99edcd66412f27922dddb880" target="_top" xlink:title="A clock tick. ">
<polygon fill="none" stroke="black" points="1256,-57.5 1256,-76.5 1416,-76.5 1416,-57.5 1256,-57.5"/>
<text text-anchor="middle" x="1336" y="-64.5" font-family="Helvetica,sans-Serif" font-size="10.00">nars.storage.ReasonerBatch.tick</text>
</a>
</g>
</g>
<!-- Node52&#45;&gt;Node53 -->
<g id="edge5" class="edge"><title>Node52&#45;&gt;Node53</title>
<path fill="none" stroke="midnightblue" d="M1230.13,-67C1238.7,-67 1247.31,-67 1255.71,-67"/>
<polygon fill="midnightblue" stroke="midnightblue" points="1230.11,-63.5001 1220.11,-67 1230.11,-70.5001 1230.11,-63.5001"/>
</g>
<!-- Node54 -->
<g id="node7" class="node"><title>Node54</title>
<g id="a_node7"><a xlink:href="../../d9/da1/a00396.html#a5d9cfe517bcfbe41e5251910bcd119c1" target="_top" xlink:title="Run to completion: repeatedly execute NARS working cycle, until Inputs are Finished, or 1000 steps. ">
<polygon fill="none" stroke="black" points="1452,-57.5 1452,-76.5 1596,-76.5 1596,-57.5 1452,-57.5"/>
<text text-anchor="middle" x="1524" y="-64.5" font-family="Helvetica,sans-Serif" font-size="10.00">nars.storage.NARSBatch.run</text>
</a>
</g>
</g>
<!-- Node53&#45;&gt;Node54 -->
<g id="edge6" class="edge"><title>Node53&#45;&gt;Node54</title>
<path fill="none" stroke="midnightblue" d="M1426.22,-67C1434.82,-67 1443.47,-67 1451.87,-67"/>
<polygon fill="midnightblue" stroke="midnightblue" points="1426.15,-63.5001 1416.15,-67 1426.15,-70.5001 1426.15,-63.5001"/>
</g>
<!-- Node55 -->
<g id="node8" class="node"><title>Node55</title>
<g id="a_node8"><a xlink:href="../../d9/da1/a00396.html#a7c307c6b842f82664de6b0e52bdf8efc" target="_top" xlink:title="non&#45;static equivalent to main(String[]) : run to completion from an input file ">
<polygon fill="none" stroke="black" points="1632,-52 1632,-82 1776,-82 1776,-52 1632,-52"/>
<text text-anchor="start" x="1640" y="-70" font-family="Helvetica,sans-Serif" font-size="10.00">nars.storage.NARSBatch.run</text>
<text text-anchor="middle" x="1704" y="-59" font-family="Helvetica,sans-Serif" font-size="10.00">Inference</text>
</a>
</g>
</g>
<!-- Node54&#45;&gt;Node55 -->
<g id="edge7" class="edge"><title>Node54&#45;&gt;Node55</title>
<path fill="none" stroke="midnightblue" d="M1606.17,-67C1614.79,-67 1623.51,-67 1632,-67"/>
<polygon fill="midnightblue" stroke="midnightblue" points="1606.12,-63.5001 1596.12,-67 1606.12,-70.5001 1606.12,-63.5001"/>
</g>
<!-- Node56 -->
<g id="node9" class="node"><title>Node56</title>
<g id="a_node9"><a xlink:href="../../d9/da1/a00396.html#abafc597289bc2f6453b5cd0dd6634e54" target="_top" xlink:title="The entry point of the standalone application. ">
<polygon fill="none" stroke="black" points="1812,-57.5 1812,-76.5 1964,-76.5 1964,-57.5 1812,-57.5"/>
<text text-anchor="middle" x="1888" y="-64.5" font-family="Helvetica,sans-Serif" font-size="10.00">nars.storage.NARSBatch.main</text>
</a>
</g>
</g>
<!-- Node55&#45;&gt;Node56 -->
<g id="edge8" class="edge"><title>Node55&#45;&gt;Node56</title>
<path fill="none" stroke="midnightblue" d="M1786.17,-67C1794.76,-67 1803.48,-67 1812,-67"/>
<polygon fill="midnightblue" stroke="midnightblue" points="1786.15,-63.5001 1776.15,-67 1786.15,-70.5001 1786.15,-63.5001"/>
</g>
<!-- Node58 -->
<g id="node11" class="node"><title>Node58</title>
<g id="a_node11"><a xlink:href="../../d4/dd3/a00428.html#a2f98120a5db1a3c065d3dc5712562d71" target="_top" xlink:title="Replace default to prevent repeated inference, by checking TaskLink. ">
<polygon fill="none" stroke="black" points="336,-38.5 336,-57.5 505,-57.5 505,-38.5 336,-38.5"/>
<text text-anchor="middle" x="420.5" y="-45.5" font-family="Helvetica,sans-Serif" font-size="10.00">nars.storage.TermLinkBag.takeOut</text>
</a>
</g>
</g>
<!-- Node57&#45;&gt;Node58 -->
<g id="edge10" class="edge"><title>Node57&#45;&gt;Node58</title>
<path fill="none" stroke="midnightblue" d="M304.72,-48C314.881,-48 325.364,-48 335.672,-48"/>
<polygon fill="midnightblue" stroke="midnightblue" points="304.685,-44.5001 294.685,-48 304.685,-51.5001 304.685,-44.5001"/>
</g>
<!-- Node58&#45;&gt;Node49 -->
<g id="edge11" class="edge"><title>Node58&#45;&gt;Node49</title>
<path fill="none" stroke="midnightblue" d="M515.252,-58.0073C523.955,-58.9362 532.598,-59.8588 540.845,-60.7391"/>
<polygon fill="midnightblue" stroke="midnightblue" points="515.343,-54.4971 505.027,-56.9159 514.599,-61.4576 515.343,-54.4971"/>
</g>
</g>
</svg>
