<?xml version="1.0" encoding="UTF-8" standalone="no"?>
<!DOCTYPE svg PUBLIC "-//W3C//DTD SVG 1.1//EN"
 "http://www.w3.org/Graphics/SVG/1.1/DTD/svg11.dtd">
<!-- Generated by graphviz version 2.38.0 (20140413.2041)
 -->
<!-- Title: nars.entity.TaskLink.TaskLink Pages: 1 -->
<svg width="491pt" height="390pt"
 viewBox="0.00 0.00 491.00 389.50" xmlns="http://www.w3.org/2000/svg" xmlns:xlink="http://www.w3.org/1999/xlink">
<g id="graph0" class="graph" transform="scale(1 1) rotate(0) translate(4 385.5)">
<title>nars.entity.TaskLink.TaskLink</title>
<!-- Node0 -->
<g id="node1" class="node"><title>Node0</title>
<polygon fill="#bfbfbf" stroke="black" points="0,-181.5 0,-200.5 148,-200.5 148,-181.5 0,-181.5"/>
<text text-anchor="middle" x="74" y="-188.5" font-family="Helvetica,sans-Serif" font-size="10.00">nars.entity.TaskLink.TaskLink</text>
</g>
<!-- Node1 -->
<g id="node2" class="node"><title>Node1</title>
<g id="a_node2"><a xlink:href="../../d0/d53/a00232.html#a3fc10480b3cf18d6d9c748a7daa612c3" target="_top" xlink:title="The index of the component in the component list of the compound, may have up to 4 levels...">
<polygon fill="none" stroke="black" points="195,-351 195,-381 317,-381 317,-351 195,-351"/>
<text text-anchor="start" x="203" y="-369" font-family="Helvetica,sans-Serif" font-size="10.00">nars.entity.TermLink.get</text>
<text text-anchor="middle" x="256" y="-358" font-family="Helvetica,sans-Serif" font-size="10.00">Index</text>
</a>
</g>
</g>
<!-- Node0&#45;&gt;Node1 -->
<g id="edge1" class="edge"><title>Node0&#45;&gt;Node1</title>
<path fill="none" stroke="midnightblue" d="M79.9982,-200.864C93.4466,-226.512 132.868,-296.071 184,-336 188.983,-339.892 194.546,-343.368 200.304,-346.451"/>
<polygon fill="midnightblue" stroke="midnightblue" points="198.942,-349.683 209.458,-350.975 202.043,-343.407 198.942,-349.683"/>
</g>
<!-- Node2 -->
<g id="node3" class="node"><title>Node2</title>
<g id="a_node3"><a xlink:href="../../dc/d31/a00208.html#ab5c9fbb171f325844966b496010acf60" target="_top" xlink:title="The key of the Item, unique in a Bag. ">
<polygon fill="none" stroke="black" points="364,-224.5 364,-243.5 483,-243.5 483,-224.5 364,-224.5"/>
<text text-anchor="middle" x="423.5" y="-231.5" font-family="Helvetica,sans-Serif" font-size="10.00">nars.entity.Item.getKey</text>
</a>
</g>
</g>
<!-- Node0&#45;&gt;Node2 -->
<g id="edge2" class="edge"><title>Node0&#45;&gt;Node2</title>
<path fill="none" stroke="midnightblue" d="M80.5566,-200.659C94.4502,-223.704 133.257,-281.577 184,-303 242.961,-327.892 267.156,-322.849 328,-303 359.485,-292.729 389.194,-267.556 406.62,-250.627"/>
<polygon fill="midnightblue" stroke="midnightblue" points="409.135,-253.061 413.725,-243.512 404.182,-248.115 409.135,-253.061"/>
</g>
<!-- Node3 -->
<g id="node4" class="node"><title>Node3</title>
<g id="a_node4"><a xlink:href="../../d0/d53/a00232.html#acecded390882e3c782ed3152cb46bc2c" target="_top" xlink:title="Get the link type. ">
<polygon fill="none" stroke="black" points="184,-274.5 184,-293.5 328,-293.5 328,-274.5 184,-274.5"/>
<text text-anchor="middle" x="256" y="-281.5" font-family="Helvetica,sans-Serif" font-size="10.00">nars.entity.TermLink.getType</text>
</a>
</g>
</g>
<!-- Node0&#45;&gt;Node3 -->
<g id="edge3" class="edge"><title>Node0&#45;&gt;Node3</title>
<path fill="none" stroke="midnightblue" d="M86.3142,-200.604C105.302,-216.259 145.311,-247.306 184,-265 189.278,-267.414 194.922,-269.57 200.635,-271.483"/>
<polygon fill="midnightblue" stroke="midnightblue" points="199.674,-274.85 210.262,-274.477 201.753,-268.166 199.674,-274.85"/>
</g>
<!-- Node4 -->
<g id="node5" class="node"><title>Node4</title>
<g id="a_node5"><a xlink:href="../../de/dc2/a00228.html#a4dc71072f6d6660fc7499fcdbeeceee6" target="_top" xlink:title="nars.entity.TaskLink.set\lCounter">
<polygon fill="none" stroke="black" points="195,-225 195,-255 317,-255 317,-225 195,-225"/>
<text text-anchor="start" x="203" y="-243" font-family="Helvetica,sans-Serif" font-size="10.00">nars.entity.TaskLink.set</text>
<text text-anchor="middle" x="256" y="-232" font-family="Helvetica,sans-Serif" font-size="10.00">Counter</text>
</a>
</g>
</g>
<!-- Node0&#45;&gt;Node4 -->
<g id="edge4" class="edge"><title>Node0&#45;&gt;Node4</title>
<path fill="none" stroke="midnightblue" d="M110.133,-200.564C132.822,-206.74 163.034,-214.965 189.996,-222.304"/>
<polygon fill="midnightblue" stroke="midnightblue" points="189.194,-225.713 199.762,-224.963 191.033,-218.959 189.194,-225.713"/>
</g>
<!-- Node5 -->
<g id="node6" class="node"><title>Node5</title>
<g id="a_node6"><a xlink:href="../../d0/d53/a00232.html#a807c24a5c7654fafa714b1a5aa43ccfa" target="_top" xlink:title="nars.entity.TermLink.set\lIndex">
<polygon fill="none" stroke="black" points="195,-176 195,-206 317,-206 317,-176 195,-176"/>
<text text-anchor="start" x="203" y="-194" font-family="Helvetica,sans-Serif" font-size="10.00">nars.entity.TermLink.set</text>
<text text-anchor="middle" x="256" y="-183" font-family="Helvetica,sans-Serif" font-size="10.00">Index</text>
</a>
</g>
</g>
<!-- Node0&#45;&gt;Node5 -->
<g id="edge5" class="edge"><title>Node0&#45;&gt;Node5</title>
<path fill="none" stroke="midnightblue" d="M148.213,-191C160.182,-191 172.563,-191 184.466,-191"/>
<polygon fill="midnightblue" stroke="midnightblue" points="184.781,-194.5 194.781,-191 184.781,-187.5 184.781,-194.5"/>
</g>
<!-- Node6 -->
<g id="node7" class="node"><title>Node6</title>
<g id="a_node7"><a xlink:href="../../d0/d53/a00232.html#ad19e927a3e2e339682081d8e462fe73b" target="_top" xlink:title="Set the key of the link. ">
<polygon fill="none" stroke="black" points="186,-137.5 186,-156.5 326,-156.5 326,-137.5 186,-137.5"/>
<text text-anchor="middle" x="256" y="-144.5" font-family="Helvetica,sans-Serif" font-size="10.00">nars.entity.TermLink.setKey</text>
</a>
</g>
</g>
<!-- Node0&#45;&gt;Node6 -->
<g id="edge6" class="edge"><title>Node0&#45;&gt;Node6</title>
<path fill="none" stroke="midnightblue" d="M114.057,-181.453C141.065,-174.851 177.199,-166.018 206.118,-158.949"/>
<polygon fill="midnightblue" stroke="midnightblue" points="207.136,-162.303 216.019,-156.529 205.474,-155.503 207.136,-162.303"/>
</g>
<!-- Node7 -->
<g id="node8" class="node"><title>Node7</title>
<g id="a_node8"><a xlink:href="../../de/dc2/a00228.html#a1bd5d9e8fc4adfd130ec93b9cb4f1828" target="_top" xlink:title="nars.entity.TaskLink.set\lRecordingTime">
<polygon fill="none" stroke="black" points="195,-88 195,-118 317,-118 317,-88 195,-88"/>
<text text-anchor="start" x="203" y="-106" font-family="Helvetica,sans-Serif" font-size="10.00">nars.entity.TaskLink.set</text>
<text text-anchor="middle" x="256" y="-95" font-family="Helvetica,sans-Serif" font-size="10.00">RecordingTime</text>
</a>
</g>
</g>
<!-- Node0&#45;&gt;Node7 -->
<g id="edge8" class="edge"><title>Node0&#45;&gt;Node7</title>
<path fill="none" stroke="midnightblue" d="M89.6935,-181.325C110.203,-168.099 148.856,-144.174 184,-128 188.702,-125.836 193.649,-123.743 198.652,-121.751"/>
<polygon fill="midnightblue" stroke="midnightblue" points="200.21,-124.902 208.294,-118.053 197.703,-118.367 200.21,-124.902"/>
</g>
<!-- Node8 -->
<g id="node9" class="node"><title>Node8</title>
<g id="a_node9"><a xlink:href="../../de/dc2/a00228.html#a3beccd8c6215db72c94e36131a673a9d" target="_top" xlink:title="nars.entity.TaskLink.set\lTargetTask">
<polygon fill="none" stroke="black" points="195,-39 195,-69 317,-69 317,-39 195,-39"/>
<text text-anchor="start" x="203" y="-57" font-family="Helvetica,sans-Serif" font-size="10.00">nars.entity.TaskLink.set</text>
<text text-anchor="middle" x="256" y="-46" font-family="Helvetica,sans-Serif" font-size="10.00">TargetTask</text>
</a>
</g>
</g>
<!-- Node0&#45;&gt;Node8 -->
<g id="edge9" class="edge"><title>Node0&#45;&gt;Node8</title>
<path fill="none" stroke="midnightblue" d="M81.8019,-181.462C97.4681,-160.146 138.278,-108.227 184,-79 187.159,-76.9809 190.501,-75.1003 193.946,-73.3526"/>
<polygon fill="midnightblue" stroke="midnightblue" points="195.654,-76.4185 203.251,-69.0329 192.707,-70.0694 195.654,-76.4185"/>
</g>
<!-- Node9 -->
<g id="node10" class="node"><title>Node9</title>
<g id="a_node10"><a xlink:href="../../d0/d53/a00232.html#a38c105501a79e2f5f3036e7a8700607b" target="_top" xlink:title="nars.entity.TermLink.setType">
<polygon fill="none" stroke="black" points="184,-0.5 184,-19.5 328,-19.5 328,-0.5 184,-0.5"/>
<text text-anchor="middle" x="256" y="-7.5" font-family="Helvetica,sans-Serif" font-size="10.00">nars.entity.TermLink.setType</text>
</a>
</g>
</g>
<!-- Node0&#45;&gt;Node9 -->
<g id="edge10" class="edge"><title>Node0&#45;&gt;Node9</title>
<path fill="none" stroke="midnightblue" d="M78.7256,-181.291C89.9956,-153.246 126.52,-71.4814 184,-30 187.294,-27.623 190.861,-25.528 194.584,-23.6816"/>
<polygon fill="midnightblue" stroke="midnightblue" points="196.292,-26.7567 204.091,-19.585 193.522,-20.3282 196.292,-26.7567"/>
</g>
<!-- Node6&#45;&gt;Node2 -->
<g id="edge7" class="edge"><title>Node6&#45;&gt;Node2</title>
<path fill="none" stroke="midnightblue" d="M299.918,-156.536C309.393,-159.338 319.218,-162.805 328,-167 356.383,-180.559 385.359,-202.559 403.608,-217.625"/>
<polygon fill="midnightblue" stroke="midnightblue" points="401.751,-220.636 411.656,-224.397 406.257,-215.28 401.751,-220.636"/>
</g>
</g>
</svg>
