<?xml version="1.0" encoding="UTF-8" standalone="no"?>
<!DOCTYPE svg PUBLIC "-//W3C//DTD SVG 1.1//EN"
 "http://www.w3.org/Graphics/SVG/1.1/DTD/svg11.dtd">
<!-- Generated by graphviz version 2.38.0 (20140413.2041)
 -->
<!-- Title: nars.entity.Concept.getBelief Pages: 1 -->
<svg width="781pt" height="667pt"
 viewBox="0.00 0.00 781.00 667.00" xmlns="http://www.w3.org/2000/svg" xmlns:xlink="http://www.w3.org/1999/xlink">
<g id="graph0" class="graph" transform="scale(1 1) rotate(0) translate(4 663)">
<title>nars.entity.Concept.getBelief</title>
<!-- Node517 -->
<g id="node1" class="node"><title>Node517</title>
<polygon fill="#bfbfbf" stroke="black" points="0,-310 0,-329 143,-329 143,-310 0,-310"/>
<text text-anchor="middle" x="71.5" y="-317" font-family="Helvetica,sans-Serif" font-size="10.00">nars.entity.Concept.getBelief</text>
</g>
<!-- Node518 -->
<g id="node2" class="node"><title>Node518</title>
<g id="a_node2"><a xlink:href="../../d0/dcd/a00280.html#acb473be6e5d774c10781bc8e74453459" target="_top" xlink:title="Add new text to display. ">
<polygon fill="none" stroke="black" points="179,-506 179,-525 346,-525 346,-506 179,-506"/>
<text text-anchor="middle" x="262.5" y="-513" font-family="Helvetica,sans-Serif" font-size="10.00">nars.io.IInferenceRecorder.append</text>
</a>
</g>
</g>
<!-- Node517&#45;&gt;Node518 -->
<g id="edge1" class="edge"><title>Node517&#45;&gt;Node518</title>
<path fill="none" stroke="midnightblue" d="M75.2719,-329.006C84.5033,-358.896 117.175,-451.636 179,-496.5 181.677,-498.442 184.52,-500.19 187.48,-501.762"/>
<polygon fill="midnightblue" stroke="midnightblue" points="186.112,-504.985 196.661,-505.972 189.03,-498.622 186.112,-504.985"/>
</g>
<!-- Node519 -->
<g id="node3" class="node"><title>Node519</title>
<g id="a_node3"><a xlink:href="../../dd/dc1/a00212.html#a721f626ab83f34dc2e6858a4eede7102" target="_top" xlink:title="Clone the Sentence. ">
<polygon fill="none" stroke="black" points="196,-468 196,-487 329,-487 329,-468 196,-468"/>
<text text-anchor="middle" x="262.5" y="-475" font-family="Helvetica,sans-Serif" font-size="10.00">nars.entity.Sentence.clone</text>
</a>
</g>
</g>
<!-- Node517&#45;&gt;Node519 -->
<g id="edge2" class="edge"><title>Node517&#45;&gt;Node519</title>
<path fill="none" stroke="midnightblue" d="M77.4739,-329.293C90.5537,-354.045 128.42,-419.548 179,-453.5 185.692,-457.992 193.234,-461.657 200.969,-464.644"/>
<polygon fill="midnightblue" stroke="midnightblue" points="199.862,-467.964 210.457,-467.961 202.172,-461.356 199.862,-467.964"/>
</g>
<!-- Node530 -->
<g id="node14" class="node"><title>Node530</title>
<g id="a_node14"><a xlink:href="../../dd/dc1/a00212.html#ac0ed749c50e55120d5b63219ed7eb082" target="_top" xlink:title="Partial record of the derivation path. ">
<polygon fill="none" stroke="black" points="410,-374.5 410,-404.5 533,-404.5 533,-374.5 410,-374.5"/>
<text text-anchor="start" x="418" y="-392.5" font-family="Helvetica,sans-Serif" font-size="10.00">nars.entity.Sentence.get</text>
<text text-anchor="middle" x="471.5" y="-381.5" font-family="Helvetica,sans-Serif" font-size="10.00">Stamp</text>
</a>
</g>
</g>
<!-- Node517&#45;&gt;Node530 -->
<g id="edge21" class="edge"><title>Node517&#45;&gt;Node530</title>
<path fill="none" stroke="midnightblue" d="M78.7633,-329.175C93.2868,-350.596 131.661,-401.622 179,-420.5 247.943,-447.993 272.33,-429.534 346,-420.5 367.85,-417.821 391.384,-412.59 412.046,-407.177"/>
<polygon fill="midnightblue" stroke="midnightblue" points="413.191,-410.494 421.938,-404.516 411.372,-403.734 413.191,-410.494"/>
</g>
<!-- Node532 -->
<g id="node16" class="node"><title>Node532</title>
<g id="a_node16"><a xlink:href="../../d7/ded/a00196.html#a2f4b33640b909073b53b6b0323d30146" target="_top" xlink:title="Sentences directly made about the term, with non&#45;future tense. ">
<polygon fill="none" stroke="black" points="188,-392 188,-411 337,-411 337,-392 188,-392"/>
<text text-anchor="middle" x="262.5" y="-399" font-family="Helvetica,sans-Serif" font-size="10.00">nars.entity.Concept.getBeliefs</text>
</a>
</g>
</g>
<!-- Node517&#45;&gt;Node532 -->
<g id="edge16" class="edge"><title>Node517&#45;&gt;Node532</title>
<path fill="none" stroke="midnightblue" d="M85.5922,-329.066C105.029,-342.832 143.094,-368.147 179,-382.5 185.327,-385.029 192.068,-387.265 198.866,-389.232"/>
<polygon fill="midnightblue" stroke="midnightblue" points="198.257,-392.693 208.824,-391.922 200.083,-385.935 198.257,-392.693"/>
</g>
<!-- Node533 -->
<g id="node17" class="node"><title>Node533</title>
<g id="a_node17"><a xlink:href="../../d7/ded/a00196.html#af183e45bae19d651cbc05e609617b726" target="_top" xlink:title="Reference to the memory. ">
<polygon fill="none" stroke="black" points="185.5,-354 185.5,-373 339.5,-373 339.5,-354 185.5,-354"/>
<text text-anchor="middle" x="262.5" y="-361" font-family="Helvetica,sans-Serif" font-size="10.00">nars.entity.Concept.getMemory</text>
</a>
</g>
</g>
<!-- Node517&#45;&gt;Node533 -->
<g id="edge17" class="edge"><title>Node517&#45;&gt;Node533</title>
<path fill="none" stroke="midnightblue" d="M113.51,-329.047C141.992,-335.678 180.14,-344.559 210.571,-351.643"/>
<polygon fill="midnightblue" stroke="midnightblue" points="210.037,-355.113 220.57,-353.971 211.624,-348.295 210.037,-355.113"/>
</g>
<!-- Node534 -->
<g id="node18" class="node"><title>Node534</title>
<g id="a_node18"><a xlink:href="../../d4/d27/a00392.html#a09af34150e8562d5c93170388c8804b7" target="_top" xlink:title="The new Stamp. ">
<polygon fill="none" stroke="black" points="189.5,-304.5 189.5,-334.5 335.5,-334.5 335.5,-304.5 189.5,-304.5"/>
<text text-anchor="start" x="197.5" y="-322.5" font-family="Helvetica,sans-Serif" font-size="10.00">nars.storage.Memory.getNew</text>
<text text-anchor="middle" x="262.5" y="-311.5" font-family="Helvetica,sans-Serif" font-size="10.00">Stamp</text>
</a>
</g>
</g>
<!-- Node517&#45;&gt;Node534 -->
<g id="edge18" class="edge"><title>Node517&#45;&gt;Node534</title>
<path fill="none" stroke="midnightblue" d="M143.145,-319.5C154.941,-319.5 167.267,-319.5 179.321,-319.5"/>
<polygon fill="midnightblue" stroke="midnightblue" points="179.365,-323 189.365,-319.5 179.365,-316 179.365,-323"/>
</g>
<!-- Node535 -->
<g id="node19" class="node"><title>Node535</title>
<g id="a_node19"><a xlink:href="../../d4/d27/a00392.html#aa4c7e1f5823d0404c0cab49b617968f1" target="_top" xlink:title="Inference record text to be written into a log file. ">
<polygon fill="none" stroke="black" points="180,-266 180,-285 345,-285 345,-266 180,-266"/>
<text text-anchor="middle" x="262.5" y="-273" font-family="Helvetica,sans-Serif" font-size="10.00">nars.storage.Memory.getRecorder</text>
</a>
</g>
</g>
<!-- Node517&#45;&gt;Node535 -->
<g id="edge19" class="edge"><title>Node517&#45;&gt;Node535</title>
<path fill="none" stroke="midnightblue" d="M112.948,-309.963C132.839,-305.284 157.172,-299.576 179,-294.5 188.985,-292.178 199.654,-289.711 209.892,-287.35"/>
<polygon fill="midnightblue" stroke="midnightblue" points="210.986,-290.69 219.945,-285.034 209.415,-283.869 210.986,-290.69"/>
</g>
<!-- Node536 -->
<g id="node20" class="node"><title>Node536</title>
<g id="a_node20"><a xlink:href="../../d5/ddf/a00224.html#ab140cb553a6cf40b07093d1df283567f" target="_top" xlink:title="The sentence of the Task. ">
<polygon fill="none" stroke="black" points="190,-228 190,-247 335,-247 335,-228 190,-228"/>
<text text-anchor="middle" x="262.5" y="-235" font-family="Helvetica,sans-Serif" font-size="10.00">nars.entity.Task.getSentence</text>
</a>
</g>
</g>
<!-- Node517&#45;&gt;Node536 -->
<g id="edge20" class="edge"><title>Node517&#45;&gt;Node536</title>
<path fill="none" stroke="midnightblue" d="M85.5922,-309.934C105.029,-296.168 143.094,-270.853 179,-256.5 185.327,-253.971 192.068,-251.735 198.866,-249.768"/>
<polygon fill="midnightblue" stroke="midnightblue" points="200.083,-253.065 208.824,-247.078 198.257,-246.307 200.083,-253.065"/>
</g>
<!-- Node537 -->
<g id="node21" class="node"><title>Node537</title>
<g id="a_node21"><a xlink:href="../../d4/d27/a00392.html#a4da7a24a86f5b88aa458fcb661cfdbbb" target="_top" xlink:title="nars.storage.Memory.getTime">
<polygon fill="none" stroke="black" points="189,-190 189,-209 336,-209 336,-190 189,-190"/>
<text text-anchor="middle" x="262.5" y="-197" font-family="Helvetica,sans-Serif" font-size="10.00">nars.storage.Memory.getTime</text>
</a>
</g>
</g>
<!-- Node517&#45;&gt;Node537 -->
<g id="edge22" class="edge"><title>Node517&#45;&gt;Node537</title>
<path fill="none" stroke="midnightblue" d="M79.5773,-309.971C95.1475,-289.731 134.545,-242.362 179,-218.5 183.306,-216.189 187.885,-214.157 192.594,-212.372"/>
<polygon fill="midnightblue" stroke="midnightblue" points="194.052,-215.573 202.395,-209.042 191.801,-208.945 194.052,-215.573"/>
</g>
<!-- Node541 -->
<g id="node25" class="node"><title>Node541</title>
<g id="a_node25"><a xlink:href="../../d6/d43/a00216.html#a47f0e631d97f15a4b6520847c2c4d62a" target="_top" xlink:title="Try to merge two Stamps, return null if have overlap. ">
<polygon fill="none" stroke="black" points="202,-141 202,-160 323,-160 323,-141 202,-141"/>
<text text-anchor="middle" x="262.5" y="-148" font-family="Helvetica,sans-Serif" font-size="10.00">nars.entity.Stamp.make</text>
</a>
</g>
</g>
<!-- Node517&#45;&gt;Node541 -->
<g id="edge26" class="edge"><title>Node517&#45;&gt;Node541</title>
<path fill="none" stroke="midnightblue" d="M77.3221,-309.903C90.3137,-284.975 128.504,-217.542 179,-180.5 188.793,-173.317 200.483,-167.698 211.94,-163.367"/>
<polygon fill="midnightblue" stroke="midnightblue" points="213.185,-166.639 221.462,-160.025 210.868,-160.034 213.185,-166.639"/>
</g>
<!-- Node548 -->
<g id="node32" class="node"><title>Node548</title>
<g id="a_node32"><a xlink:href="../../d4/d27/a00392.html#aa8d87fbd9fbd6229e88184fd23553778" target="_top" xlink:title="nars.storage.Memory.setNew\lStamp">
<polygon fill="none" stroke="black" points="189.5,-91.5 189.5,-121.5 335.5,-121.5 335.5,-91.5 189.5,-91.5"/>
<text text-anchor="start" x="197.5" y="-109.5" font-family="Helvetica,sans-Serif" font-size="10.00">nars.storage.Memory.setNew</text>
<text text-anchor="middle" x="262.5" y="-98.5" font-family="Helvetica,sans-Serif" font-size="10.00">Stamp</text>
</a>
</g>
</g>
<!-- Node517&#45;&gt;Node548 -->
<g id="edge34" class="edge"><title>Node517&#45;&gt;Node548</title>
<path fill="none" stroke="midnightblue" d="M75.2242,-309.595C84.3139,-278.417 116.611,-181.418 179,-131.5 181.096,-129.823 183.304,-128.258 185.596,-126.798"/>
<polygon fill="midnightblue" stroke="midnightblue" points="187.774,-129.592 194.809,-121.67 184.369,-123.475 187.774,-129.592"/>
</g>
<!-- Node520 -->
<g id="node4" class="node"><title>Node520</title>
<g id="a_node4"><a xlink:href="../../dd/dc1/a00212.html#a9f69b4fef64c81abad21404946cd41f9" target="_top" xlink:title="The truth value of Judgment. ">
<polygon fill="none" stroke="black" points="410,-588.5 410,-618.5 533,-618.5 533,-588.5 410,-588.5"/>
<text text-anchor="start" x="418" y="-606.5" font-family="Helvetica,sans-Serif" font-size="10.00">nars.entity.Sentence.get</text>
<text text-anchor="middle" x="471.5" y="-595.5" font-family="Helvetica,sans-Serif" font-size="10.00">Truth</text>
</a>
</g>
</g>
<!-- Node519&#45;&gt;Node520 -->
<g id="edge3" class="edge"><title>Node519&#45;&gt;Node520</title>
<path fill="none" stroke="midnightblue" d="M329.18,-486.644C335.234,-489.204 340.971,-492.434 346,-496.5 375.377,-520.252 353.853,-548.303 382,-573.5 387.485,-578.41 393.806,-582.522 400.494,-585.964"/>
<polygon fill="midnightblue" stroke="midnightblue" points="399.251,-589.245 409.798,-590.256 402.183,-582.889 399.251,-589.245"/>
</g>
<!-- Node521 -->
<g id="node5" class="node"><title>Node521</title>
<g id="a_node5"><a xlink:href="../../dd/dc1/a00212.html#a425abbc0f0805ef792317b13b17c6219" target="_top" xlink:title="Create a Sentence with the given fields. ">
<polygon fill="none" stroke="black" points="396,-512 396,-531 547,-531 547,-512 396,-512"/>
<text text-anchor="middle" x="471.5" y="-519" font-family="Helvetica,sans-Serif" font-size="10.00">nars.entity.Sentence.Sentence</text>
</a>
</g>
</g>
<!-- Node519&#45;&gt;Node521 -->
<g id="edge4" class="edge"><title>Node519&#45;&gt;Node521</title>
<path fill="none" stroke="midnightblue" d="M308.416,-487.047C339.882,-493.736 382.119,-502.714 415.588,-509.828"/>
<polygon fill="midnightblue" stroke="midnightblue" points="415.163,-513.316 425.672,-511.971 416.618,-506.469 415.163,-513.316"/>
</g>
<!-- Node523 -->
<g id="node7" class="node"><title>Node523</title>
<g id="a_node7"><a xlink:href="../../dd/dc1/a00212.html#ad1ded9a02cae3557948d05530cd4d37e" target="_top" xlink:title="The content of a Sentence is a Term. ">
<polygon fill="none" stroke="black" points="623.5,-628.5 623.5,-658.5 746.5,-658.5 746.5,-628.5 623.5,-628.5"/>
<text text-anchor="start" x="631.5" y="-646.5" font-family="Helvetica,sans-Serif" font-size="10.00">nars.entity.Sentence.get</text>
<text text-anchor="middle" x="685" y="-635.5" font-family="Helvetica,sans-Serif" font-size="10.00">Content</text>
</a>
</g>
</g>
<!-- Node519&#45;&gt;Node523 -->
<g id="edge12" class="edge"><title>Node519&#45;&gt;Node523</title>
<path fill="none" stroke="midnightblue" d="M325.66,-487.078C332.805,-489.536 339.757,-492.623 346,-496.5 367.465,-509.83 360.457,-527.298 382,-540.5 451.423,-583.044 490.595,-538.602 561,-579.5 581.681,-591.514 576.655,-606.926 597,-619.5 602.123,-622.666 607.669,-625.423 613.395,-627.821"/>
<polygon fill="midnightblue" stroke="midnightblue" points="612.569,-631.251 623.16,-631.529 615.054,-624.707 612.569,-631.251"/>
</g>
<!-- Node529 -->
<g id="node13" class="node"><title>Node529</title>
<g id="a_node13"><a xlink:href="../../dd/dc1/a00212.html#a68b153a51a5db6a4127b66158227697f" target="_top" xlink:title="The punctuation also indicates the type of the Sentence: Judgment, Question, or Goal. ">
<polygon fill="none" stroke="black" points="410,-462.5 410,-492.5 533,-492.5 533,-462.5 410,-462.5"/>
<text text-anchor="start" x="418" y="-480.5" font-family="Helvetica,sans-Serif" font-size="10.00">nars.entity.Sentence.get</text>
<text text-anchor="middle" x="471.5" y="-469.5" font-family="Helvetica,sans-Serif" font-size="10.00">Punctuation</text>
</a>
</g>
</g>
<!-- Node519&#45;&gt;Node529 -->
<g id="edge13" class="edge"><title>Node519&#45;&gt;Node529</title>
<path fill="none" stroke="midnightblue" d="M329.281,-477.5C351.661,-477.5 376.767,-477.5 399.534,-477.5"/>
<polygon fill="midnightblue" stroke="midnightblue" points="399.813,-481 409.813,-477.5 399.812,-474 399.813,-481"/>
</g>
<!-- Node519&#45;&gt;Node530 -->
<g id="edge14" class="edge"><title>Node519&#45;&gt;Node530</title>
<path fill="none" stroke="midnightblue" d="M312.477,-467.972C323.991,-464.479 335.853,-459.78 346,-453.5 366.058,-441.085 361.894,-426.837 382,-414.5 387.669,-411.022 393.836,-408.014 400.189,-405.414"/>
<polygon fill="midnightblue" stroke="midnightblue" points="401.457,-408.677 409.594,-401.892 399.002,-402.122 401.457,-408.677"/>
</g>
<!-- Node531 -->
<g id="node15" class="node"><title>Node531</title>
<g id="a_node15"><a xlink:href="../../dd/dc1/a00212.html#ad311dfc622208e9811db9965c35518b2" target="_top" xlink:title="Whether the sentence can be revised. ">
<polygon fill="none" stroke="black" points="392.5,-424 392.5,-443 550.5,-443 550.5,-424 392.5,-424"/>
<text text-anchor="middle" x="471.5" y="-431" font-family="Helvetica,sans-Serif" font-size="10.00">nars.entity.Sentence.isRevisible</text>
</a>
</g>
</g>
<!-- Node519&#45;&gt;Node531 -->
<g id="edge15" class="edge"><title>Node519&#45;&gt;Node531</title>
<path fill="none" stroke="midnightblue" d="M308.416,-467.953C339.882,-461.264 382.119,-452.286 415.588,-445.172"/>
<polygon fill="midnightblue" stroke="midnightblue" points="416.618,-448.531 425.672,-443.029 415.163,-441.684 416.618,-448.531"/>
</g>
<!-- Node522 -->
<g id="node6" class="node"><title>Node522</title>
<g id="a_node6"><a xlink:href="../../dd/dc1/a00212.html#aaed0a9d288098b451c156ed4db487264" target="_top" xlink:title="Set the content Term of the Sentence. ">
<polygon fill="none" stroke="black" points="623.5,-579.5 623.5,-609.5 746.5,-609.5 746.5,-579.5 623.5,-579.5"/>
<text text-anchor="start" x="631.5" y="-597.5" font-family="Helvetica,sans-Serif" font-size="10.00">nars.entity.Sentence.set</text>
<text text-anchor="middle" x="685" y="-586.5" font-family="Helvetica,sans-Serif" font-size="10.00">Content</text>
</a>
</g>
</g>
<!-- Node521&#45;&gt;Node522 -->
<g id="edge5" class="edge"><title>Node521&#45;&gt;Node522</title>
<path fill="none" stroke="midnightblue" d="M519.493,-531.056C533.218,-534.688 548.012,-539.45 561,-545.5 578.658,-553.725 579.36,-562.237 597,-570.5 602.272,-572.97 607.846,-575.228 613.524,-577.284"/>
<polygon fill="midnightblue" stroke="midnightblue" points="612.548,-580.649 623.142,-580.556 614.802,-574.022 612.548,-580.649"/>
</g>
<!-- Node521&#45;&gt;Node523 -->
<g id="edge6" class="edge"><title>Node521&#45;&gt;Node523</title>
<path fill="none" stroke="midnightblue" d="M534.842,-531.116C544.285,-534.554 553.397,-539.207 561,-545.5 589.175,-568.821 568.876,-596.118 597,-619.5 601.981,-623.641 607.623,-627.071 613.581,-629.911"/>
<polygon fill="midnightblue" stroke="midnightblue" points="612.579,-633.285 623.156,-633.905 615.275,-626.825 612.579,-633.285"/>
</g>
<!-- Node524 -->
<g id="node8" class="node"><title>Node524</title>
<g id="a_node8"><a xlink:href="../../dc/d59/a00364.html#a6ad164dd053a9cc808bcd6a2d741a775" target="_top" xlink:title="Blank method to be override in CompoundTerm. ">
<polygon fill="none" stroke="black" points="616,-530.5 616,-560.5 754,-560.5 754,-530.5 616,-530.5"/>
<text text-anchor="start" x="624" y="-548.5" font-family="Helvetica,sans-Serif" font-size="10.00">nars.language.Term.rename</text>
<text text-anchor="middle" x="685" y="-537.5" font-family="Helvetica,sans-Serif" font-size="10.00">Variables</text>
</a>
</g>
</g>
<!-- Node521&#45;&gt;Node524 -->
<g id="edge7" class="edge"><title>Node521&#45;&gt;Node524</title>
<path fill="none" stroke="midnightblue" d="M547.067,-529.962C566.02,-532.112 586.44,-534.429 605.578,-536.601"/>
<polygon fill="midnightblue" stroke="midnightblue" points="605.425,-540.106 615.756,-537.756 606.215,-533.151 605.425,-540.106"/>
</g>
<!-- Node525 -->
<g id="node9" class="node"><title>Node525</title>
<g id="a_node9"><a xlink:href="../../dd/dc1/a00212.html#a5459cf8e06a471e64167d1c3048159bd" target="_top" xlink:title="nars.entity.Sentence.set\lPunctuation">
<polygon fill="none" stroke="black" points="623.5,-481.5 623.5,-511.5 746.5,-511.5 746.5,-481.5 623.5,-481.5"/>
<text text-anchor="start" x="631.5" y="-499.5" font-family="Helvetica,sans-Serif" font-size="10.00">nars.entity.Sentence.set</text>
<text text-anchor="middle" x="685" y="-488.5" font-family="Helvetica,sans-Serif" font-size="10.00">Punctuation</text>
</a>
</g>
</g>
<!-- Node521&#45;&gt;Node525 -->
<g id="edge8" class="edge"><title>Node521&#45;&gt;Node525</title>
<path fill="none" stroke="midnightblue" d="M547.067,-512.686C568.628,-510.137 592.088,-507.364 613.399,-504.845"/>
<polygon fill="midnightblue" stroke="midnightblue" points="613.826,-508.319 623.346,-503.669 613.004,-501.368 613.826,-508.319"/>
</g>
<!-- Node526 -->
<g id="node10" class="node"><title>Node526</title>
<g id="a_node10"><a xlink:href="../../dd/dc1/a00212.html#a040fcf061a9ec8757c249af714ae4c42" target="_top" xlink:title="nars.entity.Sentence.set\lTruth">
<polygon fill="none" stroke="black" points="623.5,-432.5 623.5,-462.5 746.5,-462.5 746.5,-432.5 623.5,-432.5"/>
<text text-anchor="start" x="631.5" y="-450.5" font-family="Helvetica,sans-Serif" font-size="10.00">nars.entity.Sentence.set</text>
<text text-anchor="middle" x="685" y="-439.5" font-family="Helvetica,sans-Serif" font-size="10.00">Truth</text>
</a>
</g>
</g>
<!-- Node521&#45;&gt;Node526 -->
<g id="edge9" class="edge"><title>Node521&#45;&gt;Node526</title>
<path fill="none" stroke="midnightblue" d="M535.66,-511.884C544.402,-509.429 553.088,-506.352 561,-502.5 579.726,-493.383 578.597,-482.252 597,-472.5 602.249,-469.719 607.844,-467.214 613.569,-464.964"/>
<polygon fill="midnightblue" stroke="midnightblue" points="615.095,-468.133 623.288,-461.416 612.694,-461.558 615.095,-468.133"/>
</g>
<!-- Node527 -->
<g id="node11" class="node"><title>Node527</title>
<g id="a_node11"><a xlink:href="../../dd/dc1/a00212.html#a426601431d037084a09a8ba13ed4560c" target="_top" xlink:title="nars.entity.Sentence.set\lStamp">
<polygon fill="none" stroke="black" points="623.5,-383.5 623.5,-413.5 746.5,-413.5 746.5,-383.5 623.5,-383.5"/>
<text text-anchor="start" x="631.5" y="-401.5" font-family="Helvetica,sans-Serif" font-size="10.00">nars.entity.Sentence.set</text>
<text text-anchor="middle" x="685" y="-390.5" font-family="Helvetica,sans-Serif" font-size="10.00">Stamp</text>
</a>
</g>
</g>
<!-- Node521&#45;&gt;Node527 -->
<g id="edge10" class="edge"><title>Node521&#45;&gt;Node527</title>
<path fill="none" stroke="midnightblue" d="M545.189,-511.992C550.865,-509.472 556.233,-506.352 561,-502.5 591.324,-477.992 567.395,-447.872 597,-422.5 602.116,-418.116 607.967,-414.527 614.164,-411.591"/>
<polygon fill="midnightblue" stroke="midnightblue" points="615.549,-414.805 623.443,-407.738 612.865,-408.34 615.549,-414.805"/>
</g>
<!-- Node528 -->
<g id="node12" class="node"><title>Node528</title>
<g id="a_node12"><a xlink:href="../../dd/dc1/a00212.html#a97aee434b02405a38c1796bf8e27180b" target="_top" xlink:title="nars.entity.Sentence.set\lRevisible">
<polygon fill="none" stroke="black" points="623.5,-334.5 623.5,-364.5 746.5,-364.5 746.5,-334.5 623.5,-334.5"/>
<text text-anchor="start" x="631.5" y="-352.5" font-family="Helvetica,sans-Serif" font-size="10.00">nars.entity.Sentence.set</text>
<text text-anchor="middle" x="685" y="-341.5" font-family="Helvetica,sans-Serif" font-size="10.00">Revisible</text>
</a>
</g>
</g>
<!-- Node521&#45;&gt;Node528 -->
<g id="edge11" class="edge"><title>Node521&#45;&gt;Node528</title>
<path fill="none" stroke="midnightblue" d="M547.114,-512.112C552.169,-509.54 556.88,-506.377 561,-502.5 604.347,-461.706 554.848,-415.527 597,-373.5 601.92,-368.594 607.746,-364.668 614.017,-361.529"/>
<polygon fill="midnightblue" stroke="midnightblue" points="615.66,-364.633 623.468,-357.471 612.898,-358.201 615.66,-364.633"/>
</g>
<!-- Node538 -->
<g id="node22" class="node"><title>Node538</title>
<g id="a_node22"><a xlink:href="../../df/d15/a00416.html#aeb34e5ff1c0a1f220e7b8715cee2d9d3" target="_top" xlink:title="Get the current time from the clock Called in nars.entity.Stamp. ">
<polygon fill="none" stroke="black" points="382,-272 382,-291 561,-291 561,-272 382,-272"/>
<text text-anchor="middle" x="471.5" y="-279" font-family="Helvetica,sans-Serif" font-size="10.00">nars.storage.ReasonerBatch.getTime</text>
</a>
</g>
</g>
<!-- Node537&#45;&gt;Node538 -->
<g id="edge23" class="edge"><title>Node537&#45;&gt;Node538</title>
<path fill="none" stroke="midnightblue" d="M325.66,-209.078C332.805,-211.536 339.757,-214.623 346,-218.5 367.465,-231.83 360.437,-249.33 382,-262.5 385.447,-264.605 389.094,-266.479 392.866,-268.147"/>
<polygon fill="midnightblue" stroke="midnightblue" points="391.869,-271.515 402.458,-271.884 394.41,-264.993 391.869,-271.515"/>
</g>
<!-- Node539 -->
<g id="node23" class="node"><title>Node539</title>
<g id="a_node23"><a xlink:href="../../d4/d27/a00392.html#a076ad9a0e872386bca3f2d17fa7cb2d4" target="_top" xlink:title="Backward pointer to the reasoner. ">
<polygon fill="none" stroke="black" points="388,-234 388,-253 555,-253 555,-234 388,-234"/>
<text text-anchor="middle" x="471.5" y="-241" font-family="Helvetica,sans-Serif" font-size="10.00">nars.storage.Memory.getReasoner</text>
</a>
</g>
</g>
<!-- Node537&#45;&gt;Node539 -->
<g id="edge24" class="edge"><title>Node537&#45;&gt;Node539</title>
<path fill="none" stroke="midnightblue" d="M308.416,-209.047C339.882,-215.736 382.119,-224.714 415.588,-231.828"/>
<polygon fill="midnightblue" stroke="midnightblue" points="415.163,-235.316 425.672,-233.971 416.618,-228.469 415.163,-235.316"/>
</g>
<!-- Node540 -->
<g id="node24" class="node"><title>Node540</title>
<g id="a_node24"><a xlink:href="../../df/d15/a00416.html#ae7cc80bb901b1e8008537fe24e5d1bb2" target="_top" xlink:title="System clock, relatively defined to guarantee the repeatability of behaviors. ">
<polygon fill="none" stroke="black" points="392.5,-184.5 392.5,-214.5 550.5,-214.5 550.5,-184.5 392.5,-184.5"/>
<text text-anchor="start" x="400.5" y="-202.5" font-family="Helvetica,sans-Serif" font-size="10.00">nars.storage.ReasonerBatch.get</text>
<text text-anchor="middle" x="471.5" y="-191.5" font-family="Helvetica,sans-Serif" font-size="10.00">Clock</text>
</a>
</g>
</g>
<!-- Node537&#45;&gt;Node540 -->
<g id="edge25" class="edge"><title>Node537&#45;&gt;Node540</title>
<path fill="none" stroke="midnightblue" d="M336.189,-199.5C351.097,-199.5 366.943,-199.5 382.327,-199.5"/>
<polygon fill="midnightblue" stroke="midnightblue" points="382.355,-203 392.355,-199.5 382.355,-196 382.355,-203"/>
</g>
<!-- Node542 -->
<g id="node26" class="node"><title>Node542</title>
<g id="a_node26"><a xlink:href="../../d6/d43/a00216.html#ab6efde6c34037b63fc165d1bf95277a2" target="_top" xlink:title="evidentialBase baseLength ">
<polygon fill="none" stroke="black" points="405,-135.5 405,-165.5 538,-165.5 538,-135.5 405,-135.5"/>
<text text-anchor="start" x="413" y="-153.5" font-family="Helvetica,sans-Serif" font-size="10.00">nars.entity.Stamp.getBase</text>
<text text-anchor="middle" x="471.5" y="-142.5" font-family="Helvetica,sans-Serif" font-size="10.00">Length</text>
</a>
</g>
</g>
<!-- Node541&#45;&gt;Node542 -->
<g id="edge27" class="edge"><title>Node541&#45;&gt;Node542</title>
<path fill="none" stroke="midnightblue" d="M323.095,-150.5C345.36,-150.5 370.952,-150.5 394.497,-150.5"/>
<polygon fill="midnightblue" stroke="midnightblue" points="394.798,-154 404.798,-150.5 394.798,-147 394.798,-154"/>
</g>
<!-- Node543 -->
<g id="node27" class="node"><title>Node543</title>
<g id="a_node27"><a xlink:href="../../d6/d43/a00216.html#a546d6921dc3e1e4a9d1b80bf7f0356b4" target="_top" xlink:title="Get a number from the evidentialBase by index, called in this class only. ">
<polygon fill="none" stroke="black" points="416.5,-97 416.5,-116 526.5,-116 526.5,-97 416.5,-97"/>
<text text-anchor="middle" x="471.5" y="-104" font-family="Helvetica,sans-Serif" font-size="10.00">nars.entity.Stamp.get</text>
</a>
</g>
</g>
<!-- Node541&#45;&gt;Node543 -->
<g id="edge28" class="edge"><title>Node541&#45;&gt;Node543</title>
<path fill="none" stroke="midnightblue" d="M308.416,-140.953C339.882,-134.264 382.119,-125.286 415.588,-118.172"/>
<polygon fill="midnightblue" stroke="midnightblue" points="416.618,-121.531 425.672,-116.029 415.163,-114.684 416.618,-121.531"/>
</g>
<!-- Node545 -->
<g id="node29" class="node"><title>Node545</title>
<g id="a_node29"><a xlink:href="../../d6/d43/a00216.html#a959f21fb20f72cfd277d994332e862c3" target="_top" xlink:title="Generate a new stamp, with a new serial number, for a new Task. ">
<polygon fill="none" stroke="black" points="409,-56 409,-75 534,-75 534,-56 409,-56"/>
<text text-anchor="middle" x="471.5" y="-63" font-family="Helvetica,sans-Serif" font-size="10.00">nars.entity.Stamp.Stamp</text>
</a>
</g>
</g>
<!-- Node541&#45;&gt;Node545 -->
<g id="edge30" class="edge"><title>Node541&#45;&gt;Node545</title>
<path fill="none" stroke="midnightblue" d="M323.047,-140.926C331.098,-138.261 338.989,-134.855 346,-130.5 367.173,-117.349 360.865,-100.712 382,-87.5 387.682,-83.9476 393.905,-80.9685 400.334,-78.4702"/>
<polygon fill="midnightblue" stroke="midnightblue" points="401.575,-81.7442 409.862,-75.1431 399.268,-75.1355 401.575,-81.7442"/>
</g>
<!-- Node544 -->
<g id="node28" class="node"><title>Node544</title>
<g id="a_node28"><a xlink:href="../../d6/d43/a00216.html#ac84c7f26ab8e0740bab4335f33396e2c" target="_top" xlink:title="serial numbers ">
<polygon fill="none" stroke="black" points="597,-99 597,-118 773,-118 773,-99 597,-99"/>
<text text-anchor="middle" x="685" y="-106" font-family="Helvetica,sans-Serif" font-size="10.00">nars.entity.Stamp.getEvidentialBase</text>
</a>
</g>
</g>
<!-- Node543&#45;&gt;Node544 -->
<g id="edge29" class="edge"><title>Node543&#45;&gt;Node544</title>
<path fill="none" stroke="midnightblue" d="M526.692,-107.012C544.993,-107.186 566.022,-107.384 586.625,-107.579"/>
<polygon fill="midnightblue" stroke="midnightblue" points="586.658,-111.08 596.691,-107.674 586.724,-104.08 586.658,-111.08"/>
</g>
<!-- Node545&#45;&gt;Node544 -->
<g id="edge33" class="edge"><title>Node545&#45;&gt;Node544</title>
<path fill="none" stroke="midnightblue" d="M519.439,-75.0431C551.202,-81.5009 593.345,-90.0689 627.031,-96.9176"/>
<polygon fill="midnightblue" stroke="midnightblue" points="626.696,-100.421 637.193,-98.9836 628.09,-93.5613 626.696,-100.421"/>
</g>
<!-- Node546 -->
<g id="node30" class="node"><title>Node546</title>
<g id="a_node30"><a xlink:href="../../d6/d43/a00216.html#a8b3fd059e38dcb039a01ab991ec6614f" target="_top" xlink:title="nars.entity.Stamp.setCurrent\lSerial">
<polygon fill="none" stroke="black" points="613.5,-49.5 613.5,-79.5 756.5,-79.5 756.5,-49.5 613.5,-49.5"/>
<text text-anchor="start" x="621.5" y="-67.5" font-family="Helvetica,sans-Serif" font-size="10.00">nars.entity.Stamp.setCurrent</text>
<text text-anchor="middle" x="685" y="-56.5" font-family="Helvetica,sans-Serif" font-size="10.00">Serial</text>
</a>
</g>
</g>
<!-- Node545&#45;&gt;Node546 -->
<g id="edge31" class="edge"><title>Node545&#45;&gt;Node546</title>
<path fill="none" stroke="midnightblue" d="M534.243,-65.2081C555.804,-65.1061 580.335,-64.9901 603.213,-64.882"/>
<polygon fill="midnightblue" stroke="midnightblue" points="603.263,-68.3819 613.246,-64.8345 603.23,-61.382 603.263,-68.3819"/>
</g>
<!-- Node547 -->
<g id="node31" class="node"><title>Node547</title>
<g id="a_node31"><a xlink:href="../../d6/d43/a00216.html#a7c3a7c21f049a6dfe9dbc088caae4abf" target="_top" xlink:title="serial number, for the whole system TODO : should it really be static? or a Stamp be a field in Reaso...">
<polygon fill="none" stroke="black" points="613.5,-0.5 613.5,-30.5 756.5,-30.5 756.5,-0.5 613.5,-0.5"/>
<text text-anchor="start" x="621.5" y="-18.5" font-family="Helvetica,sans-Serif" font-size="10.00">nars.entity.Stamp.getCurrent</text>
<text text-anchor="middle" x="685" y="-7.5" font-family="Helvetica,sans-Serif" font-size="10.00">Serial</text>
</a>
</g>
</g>
<!-- Node545&#45;&gt;Node547 -->
<g id="edge32" class="edge"><title>Node545&#45;&gt;Node547</title>
<path fill="none" stroke="midnightblue" d="M512.779,-55.9777C540.259,-49.4812 577.464,-40.6859 610.172,-32.9534"/>
<polygon fill="midnightblue" stroke="midnightblue" points="611.237,-36.2983 620.163,-30.5915 609.626,-29.4861 611.237,-36.2983"/>
</g>
</g>
</svg>
