<?xml version="1.0" encoding="UTF-8" standalone="no"?>
<!DOCTYPE svg PUBLIC "-//W3C//DTD SVG 1.1//EN"
 "http://www.w3.org/Graphics/SVG/1.1/DTD/svg11.dtd">
<!-- Generated by graphviz version 2.38.0 (20140413.2041)
 -->
<!-- Title: nars.entity.Concept.Concept Pages: 1 -->
<svg width="349pt" height="329pt"
 viewBox="0.00 0.00 349.00 328.50" xmlns="http://www.w3.org/2000/svg" xmlns:xlink="http://www.w3.org/1999/xlink">
<g id="graph0" class="graph" transform="scale(1 1) rotate(0) translate(4 324.5)">
<title>nars.entity.Concept.Concept</title>
<!-- Node0 -->
<g id="node1" class="node"><title>Node0</title>
<polygon fill="#bfbfbf" stroke="black" points="0,-165 0,-184 142,-184 142,-165 0,-165"/>
<text text-anchor="middle" x="71" y="-172" font-family="Helvetica,sans-Serif" font-size="10.00">nars.entity.Concept.Concept</text>
</g>
<!-- Node1 -->
<g id="node2" class="node"><title>Node1</title>
<g id="a_node2"><a xlink:href="../../dc/d59/a00364.html#a3aad4654016b8615fd4fa8a26668e1db" target="_top" xlink:title="Reporting the name of the current Term. ">
<polygon fill="none" stroke="black" points="186.5,-301 186.5,-320 332.5,-320 332.5,-301 186.5,-301"/>
<text text-anchor="middle" x="259.5" y="-308" font-family="Helvetica,sans-Serif" font-size="10.00">nars.language.Term.getName</text>
</a>
</g>
</g>
<!-- Node0&#45;&gt;Node1 -->
<g id="edge1" class="edge"><title>Node0&#45;&gt;Node1</title>
<path fill="none" stroke="midnightblue" d="M77.7951,-184.165C91.8874,-206.78 130.32,-263.356 178,-291.5 181.687,-293.676 185.606,-295.603 189.655,-297.309"/>
<polygon fill="midnightblue" stroke="midnightblue" points="188.693,-300.686 199.286,-300.904 191.141,-294.128 188.693,-300.686"/>
</g>
<!-- Node2 -->
<g id="node3" class="node"><title>Node2</title>
<g id="a_node3"><a xlink:href="../../d7/ded/a00196.html#a7b53e7a133346ec712f8cf21ae7d32e3" target="_top" xlink:title="nars.entity.Concept.setBeliefs">
<polygon fill="none" stroke="black" points="185,-263 185,-282 334,-282 334,-263 185,-263"/>
<text text-anchor="middle" x="259.5" y="-270" font-family="Helvetica,sans-Serif" font-size="10.00">nars.entity.Concept.setBeliefs</text>
</a>
</g>
</g>
<!-- Node0&#45;&gt;Node2 -->
<g id="edge2" class="edge"><title>Node0&#45;&gt;Node2</title>
<path fill="none" stroke="midnightblue" d="M81.902,-184.136C99.6433,-200.849 138.682,-235.176 178,-253.5 183.253,-255.948 188.85,-258.097 194.553,-259.979"/>
<polygon fill="midnightblue" stroke="midnightblue" points="193.623,-263.354 204.208,-262.902 195.651,-256.655 193.623,-263.354"/>
</g>
<!-- Node3 -->
<g id="node4" class="node"><title>Node3</title>
<g id="a_node4"><a xlink:href="../../d7/ded/a00196.html#ab59fb876194e6c9e57e2aa057ad32d45" target="_top" xlink:title="nars.entity.Concept.setMemory">
<polygon fill="none" stroke="black" points="182.5,-225 182.5,-244 336.5,-244 336.5,-225 182.5,-225"/>
<text text-anchor="middle" x="259.5" y="-232" font-family="Helvetica,sans-Serif" font-size="10.00">nars.entity.Concept.setMemory</text>
</a>
</g>
</g>
<!-- Node0&#45;&gt;Node3 -->
<g id="edge3" class="edge"><title>Node0&#45;&gt;Node3</title>
<path fill="none" stroke="midnightblue" d="M94.0204,-184.039C115.245,-192.989 148.409,-206.333 178,-215.5 186.084,-218.005 194.713,-220.363 203.207,-222.51"/>
<polygon fill="midnightblue" stroke="midnightblue" points="202.529,-225.947 213.075,-224.929 204.196,-219.148 202.529,-225.947"/>
</g>
<!-- Node4 -->
<g id="node5" class="node"><title>Node4</title>
<g id="a_node5"><a xlink:href="../../d7/ded/a00196.html#a0ace4936957a47743a736723c6aba81c" target="_top" xlink:title="nars.entity.Concept.setQuestions">
<polygon fill="none" stroke="black" points="178,-187 178,-206 341,-206 341,-187 178,-187"/>
<text text-anchor="middle" x="259.5" y="-194" font-family="Helvetica,sans-Serif" font-size="10.00">nars.entity.Concept.setQuestions</text>
</a>
</g>
</g>
<!-- Node0&#45;&gt;Node4 -->
<g id="edge4" class="edge"><title>Node0&#45;&gt;Node4</title>
<path fill="none" stroke="midnightblue" d="M142.242,-182.786C150.628,-183.775 159.279,-184.796 167.9,-185.813"/>
<polygon fill="midnightblue" stroke="midnightblue" points="167.648,-189.307 177.989,-187.003 168.468,-182.355 167.648,-189.307"/>
</g>
<!-- Node5 -->
<g id="node6" class="node"><title>Node5</title>
<g id="a_node6"><a xlink:href="../../d7/ded/a00196.html#a515800190f2b1251dcbb4b08e41a68c6" target="_top" xlink:title="nars.entity.Concept.setTask\lLinks">
<polygon fill="none" stroke="black" points="189.5,-137.5 189.5,-167.5 329.5,-167.5 329.5,-137.5 189.5,-137.5"/>
<text text-anchor="start" x="197.5" y="-155.5" font-family="Helvetica,sans-Serif" font-size="10.00">nars.entity.Concept.setTask</text>
<text text-anchor="middle" x="259.5" y="-144.5" font-family="Helvetica,sans-Serif" font-size="10.00">Links</text>
</a>
</g>
</g>
<!-- Node0&#45;&gt;Node5 -->
<g id="edge5" class="edge"><title>Node0&#45;&gt;Node5</title>
<path fill="none" stroke="midnightblue" d="M142.242,-166.214C154.262,-164.796 166.825,-163.314 179.064,-161.87"/>
<polygon fill="midnightblue" stroke="midnightblue" points="179.728,-165.316 189.249,-160.669 178.908,-158.365 179.728,-165.316"/>
</g>
<!-- Node6 -->
<g id="node7" class="node"><title>Node6</title>
<g id="a_node7"><a xlink:href="../../d7/ded/a00196.html#a6318f8e6f949682047046409edba34db" target="_top" xlink:title="nars.entity.Concept.setTerm">
<polygon fill="none" stroke="black" points="189,-99 189,-118 330,-118 330,-99 189,-99"/>
<text text-anchor="middle" x="259.5" y="-106" font-family="Helvetica,sans-Serif" font-size="10.00">nars.entity.Concept.setTerm</text>
</a>
</g>
</g>
<!-- Node0&#45;&gt;Node6 -->
<g id="edge6" class="edge"><title>Node0&#45;&gt;Node6</title>
<path fill="none" stroke="midnightblue" d="M91.541,-164.85C112.523,-154.768 147.028,-138.987 178,-128.5 186.424,-125.648 195.468,-123.008 204.343,-120.644"/>
<polygon fill="midnightblue" stroke="midnightblue" points="205.437,-123.976 214.25,-118.095 203.693,-117.197 205.437,-123.976"/>
</g>
<!-- Node7 -->
<g id="node8" class="node"><title>Node7</title>
<g id="a_node8"><a xlink:href="../../d7/ded/a00196.html#a33217e91794c971fa7414df245db2819" target="_top" xlink:title="nars.entity.Concept.setTerm\lLinks">
<polygon fill="none" stroke="black" points="189,-49.5 189,-79.5 330,-79.5 330,-49.5 189,-49.5"/>
<text text-anchor="start" x="197" y="-67.5" font-family="Helvetica,sans-Serif" font-size="10.00">nars.entity.Concept.setTerm</text>
<text text-anchor="middle" x="259.5" y="-56.5" font-family="Helvetica,sans-Serif" font-size="10.00">Links</text>
</a>
</g>
</g>
<!-- Node0&#45;&gt;Node7 -->
<g id="edge7" class="edge"><title>Node0&#45;&gt;Node7</title>
<path fill="none" stroke="midnightblue" d="M81.3361,-164.933C98.7913,-147.553 138.215,-110.644 178,-89.5 182.22,-87.2572 186.673,-85.1798 191.232,-83.2621"/>
<polygon fill="midnightblue" stroke="midnightblue" points="192.665,-86.4596 200.695,-79.5482 190.107,-79.9434 192.665,-86.4596"/>
</g>
<!-- Node8 -->
<g id="node9" class="node"><title>Node8</title>
<g id="a_node9"><a xlink:href="../../d7/ded/a00196.html#a2f8ecbb4d2c3bd7551128899f6e70a0a" target="_top" xlink:title="nars.entity.Concept.setTerm\lLinkTemplates">
<polygon fill="none" stroke="black" points="189,-0.5 189,-30.5 330,-30.5 330,-0.5 189,-0.5"/>
<text text-anchor="start" x="197" y="-18.5" font-family="Helvetica,sans-Serif" font-size="10.00">nars.entity.Concept.setTerm</text>
<text text-anchor="middle" x="259.5" y="-7.5" font-family="Helvetica,sans-Serif" font-size="10.00">LinkTemplates</text>
</a>
</g>
</g>
<!-- Node0&#45;&gt;Node8 -->
<g id="edge8" class="edge"><title>Node0&#45;&gt;Node8</title>
<path fill="none" stroke="midnightblue" d="M76.9745,-164.76C90.0491,-140.134 127.858,-74.9016 178,-40.5 180.924,-38.4936 184.016,-36.6431 187.218,-34.9368"/>
<polygon fill="midnightblue" stroke="midnightblue" points="188.976,-37.9758 196.484,-30.5008 185.953,-31.662 188.976,-37.9758"/>
</g>
</g>
</svg>
