<?xml version="1.0" encoding="UTF-8" standalone="no"?>
<!DOCTYPE svg PUBLIC "-//W3C//DTD SVG 1.1//EN"
 "http://www.w3.org/Graphics/SVG/1.1/DTD/svg11.dtd">
<!-- Generated by graphviz version 2.38.0 (20140413.2041)
 -->
<!-- Title: nars.entity.Concept.displayContent Pages: 1 -->
<svg width="1821pt" height="141pt"
 viewBox="0.00 0.00 1821.00 140.50" xmlns="http://www.w3.org/2000/svg" xmlns:xlink="http://www.w3.org/1999/xlink">
<g id="graph0" class="graph" transform="scale(1 1) rotate(0) translate(4 136.5)">
<title>nars.entity.Concept.displayContent</title>
<!-- Node211 -->
<g id="node1" class="node"><title>Node211</title>
<polygon fill="#bfbfbf" stroke="black" points="0,-33 0,-63 136,-63 136,-33 0,-33"/>
<text text-anchor="start" x="8" y="-51" font-family="Helvetica,sans-Serif" font-size="10.00">nars.entity.Concept.display</text>
<text text-anchor="middle" x="68" y="-40" font-family="Helvetica,sans-Serif" font-size="10.00">Content</text>
</g>
<!-- Node212 -->
<g id="node2" class="node"><title>Node212</title>
<g id="a_node2"><a xlink:href="../../d7/ded/a00196.html#a9ea7c3154932d7a736c105eb55daeb5c" target="_top" xlink:title="Directly process a new task. ">
<polygon fill="none" stroke="black" points="179.5,-77 179.5,-107 308.5,-107 308.5,-77 179.5,-77"/>
<text text-anchor="start" x="187.5" y="-95" font-family="Helvetica,sans-Serif" font-size="10.00">nars.entity.Concept.direct</text>
<text text-anchor="middle" x="244" y="-84" font-family="Helvetica,sans-Serif" font-size="10.00">Process</text>
</a>
</g>
</g>
<!-- Node211&#45;&gt;Node212 -->
<g id="edge1" class="edge"><title>Node211&#45;&gt;Node212</title>
<path fill="none" stroke="midnightblue" d="M138.147,-65.4855C153.181,-69.2873 168.959,-73.277 183.578,-76.9738"/>
<polygon fill="midnightblue" stroke="midnightblue" points="138.947,-62.0777 128.394,-63.0192 137.231,-68.8641 138.947,-62.0777"/>
</g>
<!-- Node222 -->
<g id="node12" class="node"><title>Node222</title>
<g id="a_node12"><a xlink:href="../../d7/ded/a00196.html#add08a37b7cf7b272838532c942c083a4" target="_top" xlink:title="Resume display, called from ConceptWindow only. ">
<polygon fill="none" stroke="black" points="182.5,-38.5 182.5,-57.5 305.5,-57.5 305.5,-38.5 182.5,-38.5"/>
<text text-anchor="middle" x="244" y="-45.5" font-family="Helvetica,sans-Serif" font-size="10.00">nars.entity.Concept.play</text>
</a>
</g>
</g>
<!-- Node211&#45;&gt;Node222 -->
<g id="edge12" class="edge"><title>Node211&#45;&gt;Node222</title>
<path fill="none" stroke="midnightblue" d="M146.353,-48C158.447,-48 170.794,-48 182.442,-48"/>
<polygon fill="midnightblue" stroke="midnightblue" points="146.273,-44.5001 136.273,-48 146.273,-51.5001 146.273,-44.5001"/>
</g>
<!-- Node223 -->
<g id="node13" class="node"><title>Node223</title>
<g id="a_node13"><a xlink:href="../../d7/ded/a00196.html#a5a010290c8c42603dd13387f415abf43" target="_top" xlink:title="Start displaying contents and links, called from ConceptWindow, TermWindow or Memory.processTask only. ">
<polygon fill="none" stroke="black" points="172,-0.5 172,-19.5 316,-19.5 316,-0.5 172,-0.5"/>
<text text-anchor="middle" x="244" y="-7.5" font-family="Helvetica,sans-Serif" font-size="10.00">nars.entity.Concept.startPlay</text>
</a>
</g>
</g>
<!-- Node211&#45;&gt;Node223 -->
<g id="edge13" class="edge"><title>Node211&#45;&gt;Node223</title>
<path fill="none" stroke="midnightblue" d="M146.279,-31.1229C164.434,-27.1581 183.16,-23.0685 199.243,-19.5562"/>
<polygon fill="midnightblue" stroke="midnightblue" points="145.296,-27.7551 136.273,-33.3082 146.789,-34.5939 145.296,-27.7551"/>
</g>
<!-- Node213 -->
<g id="node3" class="node"><title>Node213</title>
<g id="a_node3"><a xlink:href="../../d4/d27/a00392.html#af8d07412d21a441a5c7005a477b06468" target="_top" xlink:title="Immediate processing of a new task, in constant time Local processing, in one concept only...">
<polygon fill="none" stroke="black" points="352,-77 352,-107 509,-107 509,-77 352,-77"/>
<text text-anchor="start" x="360" y="-95" font-family="Helvetica,sans-Serif" font-size="10.00">nars.storage.Memory.immediate</text>
<text text-anchor="middle" x="430.5" y="-84" font-family="Helvetica,sans-Serif" font-size="10.00">Process</text>
</a>
</g>
</g>
<!-- Node212&#45;&gt;Node213 -->
<g id="edge2" class="edge"><title>Node212&#45;&gt;Node213</title>
<path fill="none" stroke="midnightblue" d="M318.965,-92C329.748,-92 340.879,-92 351.735,-92"/>
<polygon fill="midnightblue" stroke="midnightblue" points="318.753,-88.5001 308.753,-92 318.753,-95.5001 318.753,-88.5001"/>
</g>
<!-- Node214 -->
<g id="node4" class="node"><title>Node214</title>
<g id="a_node4"><a xlink:href="../../d4/d27/a00392.html#ae43b86074c0d8f6a324696f69faa54b3" target="_top" xlink:title="Process the newTasks accumulated in the previous workCycle, accept input ones and those that correspo...">
<polygon fill="none" stroke="black" points="545,-102 545,-132 691,-132 691,-102 545,-102"/>
<text text-anchor="start" x="553" y="-120" font-family="Helvetica,sans-Serif" font-size="10.00">nars.storage.Memory.process</text>
<text text-anchor="middle" x="618" y="-109" font-family="Helvetica,sans-Serif" font-size="10.00">NewTask</text>
</a>
</g>
</g>
<!-- Node213&#45;&gt;Node214 -->
<g id="edge3" class="edge"><title>Node213&#45;&gt;Node214</title>
<path fill="none" stroke="midnightblue" d="M519.125,-103.809C527.707,-104.966 536.349,-106.131 544.754,-107.263"/>
<polygon fill="midnightblue" stroke="midnightblue" points="519.472,-100.324 509.094,-102.457 518.537,-107.262 519.472,-100.324"/>
</g>
<!-- Node221 -->
<g id="node11" class="node"><title>Node221</title>
<g id="a_node11"><a xlink:href="../../d4/d27/a00392.html#a5061708f88897cfdf4e0671c846762ca" target="_top" xlink:title="Select a novel task to process. ">
<polygon fill="none" stroke="black" points="545,-53 545,-83 691,-83 691,-53 545,-53"/>
<text text-anchor="start" x="553" y="-71" font-family="Helvetica,sans-Serif" font-size="10.00">nars.storage.Memory.process</text>
<text text-anchor="middle" x="618" y="-60" font-family="Helvetica,sans-Serif" font-size="10.00">NovelTask</text>
</a>
</g>
</g>
<!-- Node213&#45;&gt;Node221 -->
<g id="edge10" class="edge"><title>Node213&#45;&gt;Node221</title>
<path fill="none" stroke="midnightblue" d="M519.125,-80.6631C527.707,-79.5527 536.349,-78.4346 544.754,-77.3472"/>
<polygon fill="midnightblue" stroke="midnightblue" points="518.562,-77.2066 509.094,-81.9609 519.46,-84.1488 518.562,-77.2066"/>
</g>
<!-- Node215 -->
<g id="node5" class="node"><title>Node215</title>
<g id="a_node5"><a xlink:href="../../d4/d27/a00392.html#a59ae339d666409988d90d29be4f73a91" target="_top" xlink:title="An atomic working workCycle of the system: process new Tasks, then fireFromProcessConcept a concept...">
<polygon fill="none" stroke="black" points="727,-77 727,-107 860,-107 860,-77 727,-77"/>
<text text-anchor="start" x="735" y="-95" font-family="Helvetica,sans-Serif" font-size="10.00">nars.storage.Memory.work</text>
<text text-anchor="middle" x="793.5" y="-84" font-family="Helvetica,sans-Serif" font-size="10.00">Cycle</text>
</a>
</g>
</g>
<!-- Node214&#45;&gt;Node215 -->
<g id="edge4" class="edge"><title>Node214&#45;&gt;Node215</title>
<path fill="none" stroke="midnightblue" d="M701.118,-105.168C709.716,-103.929 718.375,-102.681 726.755,-101.473"/>
<polygon fill="midnightblue" stroke="midnightblue" points="700.471,-101.724 691.072,-106.615 701.469,-108.653 700.471,-101.724"/>
</g>
<!-- Node216 -->
<g id="node6" class="node"><title>Node216</title>
<g id="a_node6"><a xlink:href="../../df/d15/a00416.html#a0d5c797dc17d9e8d0998852915e0f303" target="_top" xlink:title="nars.storage.ReasonerBatch.doTick">
<polygon fill="none" stroke="black" points="896,-82.5 896,-101.5 1069,-101.5 1069,-82.5 896,-82.5"/>
<text text-anchor="middle" x="982.5" y="-89.5" font-family="Helvetica,sans-Serif" font-size="10.00">nars.storage.ReasonerBatch.doTick</text>
</a>
</g>
</g>
<!-- Node215&#45;&gt;Node216 -->
<g id="edge5" class="edge"><title>Node215&#45;&gt;Node216</title>
<path fill="none" stroke="midnightblue" d="M870.343,-92C878.782,-92 887.421,-92 895.971,-92"/>
<polygon fill="midnightblue" stroke="midnightblue" points="870.166,-88.5001 860.166,-92 870.166,-95.5001 870.166,-88.5001"/>
</g>
<!-- Node217 -->
<g id="node7" class="node"><title>Node217</title>
<g id="a_node7"><a xlink:href="../../df/d15/a00416.html#a3468aa0f99edcd66412f27922dddb880" target="_top" xlink:title="A clock tick. ">
<polygon fill="none" stroke="black" points="1105,-82.5 1105,-101.5 1265,-101.5 1265,-82.5 1105,-82.5"/>
<text text-anchor="middle" x="1185" y="-89.5" font-family="Helvetica,sans-Serif" font-size="10.00">nars.storage.ReasonerBatch.tick</text>
</a>
</g>
</g>
<!-- Node216&#45;&gt;Node217 -->
<g id="edge6" class="edge"><title>Node216&#45;&gt;Node217</title>
<path fill="none" stroke="midnightblue" d="M1079.13,-92C1087.7,-92 1096.31,-92 1104.71,-92"/>
<polygon fill="midnightblue" stroke="midnightblue" points="1079.11,-88.5001 1069.11,-92 1079.11,-95.5001 1079.11,-88.5001"/>
</g>
<!-- Node218 -->
<g id="node8" class="node"><title>Node218</title>
<g id="a_node8"><a xlink:href="../../d9/da1/a00396.html#a5d9cfe517bcfbe41e5251910bcd119c1" target="_top" xlink:title="Run to completion: repeatedly execute NARS working cycle, until Inputs are Finished, or 1000 steps. ">
<polygon fill="none" stroke="black" points="1301,-82.5 1301,-101.5 1445,-101.5 1445,-82.5 1301,-82.5"/>
<text text-anchor="middle" x="1373" y="-89.5" font-family="Helvetica,sans-Serif" font-size="10.00">nars.storage.NARSBatch.run</text>
</a>
</g>
</g>
<!-- Node217&#45;&gt;Node218 -->
<g id="edge7" class="edge"><title>Node217&#45;&gt;Node218</title>
<path fill="none" stroke="midnightblue" d="M1275.22,-92C1283.82,-92 1292.47,-92 1300.87,-92"/>
<polygon fill="midnightblue" stroke="midnightblue" points="1275.15,-88.5001 1265.15,-92 1275.15,-95.5001 1275.15,-88.5001"/>
</g>
<!-- Node219 -->
<g id="node9" class="node"><title>Node219</title>
<g id="a_node9"><a xlink:href="../../d9/da1/a00396.html#a7c307c6b842f82664de6b0e52bdf8efc" target="_top" xlink:title="non&#45;static equivalent to main(String[]) : run to completion from an input file ">
<polygon fill="none" stroke="black" points="1481,-77 1481,-107 1625,-107 1625,-77 1481,-77"/>
<text text-anchor="start" x="1489" y="-95" font-family="Helvetica,sans-Serif" font-size="10.00">nars.storage.NARSBatch.run</text>
<text text-anchor="middle" x="1553" y="-84" font-family="Helvetica,sans-Serif" font-size="10.00">Inference</text>
</a>
</g>
</g>
<!-- Node218&#45;&gt;Node219 -->
<g id="edge8" class="edge"><title>Node218&#45;&gt;Node219</title>
<path fill="none" stroke="midnightblue" d="M1455.17,-92C1463.79,-92 1472.51,-92 1481,-92"/>
<polygon fill="midnightblue" stroke="midnightblue" points="1455.12,-88.5001 1445.12,-92 1455.12,-95.5001 1455.12,-88.5001"/>
</g>
<!-- Node220 -->
<g id="node10" class="node"><title>Node220</title>
<g id="a_node10"><a xlink:href="../../d9/da1/a00396.html#abafc597289bc2f6453b5cd0dd6634e54" target="_top" xlink:title="The entry point of the standalone application. ">
<polygon fill="none" stroke="black" points="1661,-82.5 1661,-101.5 1813,-101.5 1813,-82.5 1661,-82.5"/>
<text text-anchor="middle" x="1737" y="-89.5" font-family="Helvetica,sans-Serif" font-size="10.00">nars.storage.NARSBatch.main</text>
</a>
</g>
</g>
<!-- Node219&#45;&gt;Node220 -->
<g id="edge9" class="edge"><title>Node219&#45;&gt;Node220</title>
<path fill="none" stroke="midnightblue" d="M1635.17,-92C1643.76,-92 1652.48,-92 1661,-92"/>
<polygon fill="midnightblue" stroke="midnightblue" points="1635.15,-88.5001 1625.15,-92 1635.15,-95.5001 1635.15,-88.5001"/>
</g>
<!-- Node221&#45;&gt;Node215 -->
<g id="edge11" class="edge"><title>Node221&#45;&gt;Node215</title>
<path fill="none" stroke="midnightblue" d="M701.118,-79.3592C709.716,-80.5486 718.375,-81.7464 726.755,-82.9056"/>
<polygon fill="midnightblue" stroke="midnightblue" points="701.458,-75.873 691.072,-77.9697 700.498,-82.807 701.458,-75.873"/>
</g>
</g>
</svg>
