<?xml version="1.0" encoding="UTF-8" standalone="no"?>
<!DOCTYPE svg PUBLIC "-//W3C//DTD SVG 1.1//EN"
 "http://www.w3.org/Graphics/SVG/1.1/DTD/svg11.dtd">
<!-- Generated by graphviz version 2.38.0 (20140413.2041)
 -->
<!-- Title: nars.entity.Concept.evaluation Pages: 1 -->
<!--zoomable 88 -->
<svg id="main" version="1.1" xmlns="http://www.w3.org/2000/svg" xmlns:xlink="http://www.w3.org/1999/xlink" xml:space="preserve" onload="init(evt)">
<style type="text/css"><![CDATA[
.edge:hover path { stroke: red; }
.edge:hover polygon { stroke: red; fill: red; }
]]></style>
<script type="text/javascript"><![CDATA[
var edges = document.getElementsByTagName('g');
if (edges && edges.length) {
  for (var i=0;i<edges.length;i++) {
    if (edges[i].id.substr(0,4)=='edge') {
      edges[i].setAttribute('class','edge');
    }
  }
}
]]></script>
        <defs>
                <circle id="rim" cx="0" cy="0" r="7"/>
                <circle id="rim2" cx="0" cy="0" r="3.5"/>
                <g id="zoomPlus">
                        <use xlink:href="#rim" fill="#404040">
                                <set attributeName="fill" to="#808080" begin="zoomplus.mouseover" end="zoomplus.mouseout"/>
                        </use>
                        <path d="M-4,0h8M0,-4v8" fill="none" stroke="white" stroke-width="1.5" pointer-events="none"/>
                </g>
                <g id="zoomMin">
                        <use xlink:href="#rim" fill="#404040">
                                <set attributeName="fill" to="#808080" begin="zoomminus.mouseover" end="zoomminus.mouseout"/>
                        </use>
                        <path d="M-4,0h8" fill="none" stroke="white" stroke-width="1.5" pointer-events="none"/>
                </g>
                <g id="dirArrow">
                        <path fill="none" stroke="white" stroke-width="1.5" d="M0,-3.0v7 M-2.5,-0.5L0,-3.0L2.5,-0.5"/>
                </g>
               <g id="resetDef">
                       <use xlink:href="#rim2" fill="#404040">
                               <set attributeName="fill" to="#808080" begin="reset.mouseover" end="reset.mouseout"/>
                       </use>
               </g>
        </defs>

<script type="text/javascript">
var viewWidth = 1995;
var viewHeight = 88;
var sectionId = 'dynsection-13';
</script>
<script xlink:href="../../svgpan.js"/>
<svg id="graph" class="graph">
<g id="viewport">
<title>nars.entity.Concept.evaluation</title>
<!-- Node244 -->
<g id="node1" class="node"><title>Node244</title>
<polygon fill="#bfbfbf" stroke="black" points="0,-30 0,-49 149,-49 149,-30 0,-30"/>
<text text-anchor="middle" x="74.5" y="-37" font-family="Helvetica,sans-Serif" font-size="10.00">nars.entity.Concept.evaluation</text>
</g>
<!-- Node245 -->
<g id="node2" class="node"><title>Node245</title>
<g id="a_node2"><a xlink:href="../../d7/ded/a00196.html#a40cddcc82ee28a1cf5b1f4bc14e2b078" target="_top" xlink:title="To accept a new judgment as isBelief, and check for revisions and solutions. ">
<polygon fill="none" stroke="black" points="185,-49.5 185,-79.5 325,-79.5 325,-49.5 185,-49.5"/>
<text text-anchor="start" x="193" y="-67.5" font-family="Helvetica,sans-Serif" font-size="10.00">nars.entity.Concept.process</text>
<text text-anchor="middle" x="255" y="-56.5" font-family="Helvetica,sans-Serif" font-size="10.00">Judgment</text>
</a>
</g>
</g>
<!-- Node244&#45;&gt;Node245 -->
<g id="edge1" class="edge"><title>Node244&#45;&gt;Node245</title>
<path fill="none" stroke="midnightblue" d="M153.402,-50.4106C163.824,-51.8703 174.456,-53.3594 184.717,-54.7965"/>
<polygon fill="midnightblue" stroke="midnightblue" points="153.881,-46.9437 143.492,-49.0227 152.91,-53.876 153.881,-46.9437"/>
</g>
<!-- Node256 -->
<g id="node13" class="node"><title>Node256</title>
<g id="a_node13"><a xlink:href="../../d7/ded/a00196.html#a3900248991e7adb57e82231312337f8f" target="_top" xlink:title="To answer a question by existing beliefs. ">
<polygon fill="none" stroke="black" points="185,-0.5 185,-30.5 325,-30.5 325,-0.5 185,-0.5"/>
<text text-anchor="start" x="193" y="-18.5" font-family="Helvetica,sans-Serif" font-size="10.00">nars.entity.Concept.process</text>
<text text-anchor="middle" x="255" y="-7.5" font-family="Helvetica,sans-Serif" font-size="10.00">Question</text>
</a>
</g>
</g>
<!-- Node244&#45;&gt;Node256 -->
<g id="edge13" class="edge"><title>Node244&#45;&gt;Node256</title>
<path fill="none" stroke="midnightblue" d="M156.477,-28.6123C165.915,-27.3433 175.478,-26.0575 184.739,-24.8124"/>
<polygon fill="midnightblue" stroke="midnightblue" points="155.749,-25.1787 146.304,-29.9801 156.682,-32.1162 155.749,-25.1787"/>
</g>
<!-- Node246 -->
<g id="node3" class="node"><title>Node246</title>
<g id="a_node3"><a xlink:href="../../d7/ded/a00196.html#a9ea7c3154932d7a736c105eb55daeb5c" target="_top" xlink:title="Directly process a new task. ">
<polygon fill="none" stroke="black" points="361,-24.5 361,-54.5 490,-54.5 490,-24.5 361,-24.5"/>
<text text-anchor="start" x="369" y="-42.5" font-family="Helvetica,sans-Serif" font-size="10.00">nars.entity.Concept.direct</text>
<text text-anchor="middle" x="425.5" y="-31.5" font-family="Helvetica,sans-Serif" font-size="10.00">Process</text>
</a>
</g>
</g>
<!-- Node245&#45;&gt;Node246 -->
<g id="edge2" class="edge"><title>Node245&#45;&gt;Node246</title>
<path fill="none" stroke="midnightblue" d="M335.067,-52.769C343.671,-51.4924 352.347,-50.2051 360.735,-48.9606"/>
<polygon fill="midnightblue" stroke="midnightblue" points="334.4,-49.3296 325.022,-54.2594 335.427,-56.2538 334.4,-49.3296"/>
</g>
<!-- Node247 -->
<g id="node4" class="node"><title>Node247</title>
<g id="a_node4"><a xlink:href="../../d4/d27/a00392.html#af8d07412d21a441a5c7005a477b06468" target="_top" xlink:title="Immediate processing of a new task, in constant time Local processing, in one concept only...">
<polygon fill="none" stroke="black" points="526,-24.5 526,-54.5 683,-54.5 683,-24.5 526,-24.5"/>
<text text-anchor="start" x="534" y="-42.5" font-family="Helvetica,sans-Serif" font-size="10.00">nars.storage.Memory.immediate</text>
<text text-anchor="middle" x="604.5" y="-31.5" font-family="Helvetica,sans-Serif" font-size="10.00">Process</text>
</a>
</g>
</g>
<!-- Node246&#45;&gt;Node247 -->
<g id="edge3" class="edge"><title>Node246&#45;&gt;Node247</title>
<path fill="none" stroke="midnightblue" d="M500.492,-39.5C508.854,-39.5 517.393,-39.5 525.801,-39.5"/>
<polygon fill="midnightblue" stroke="midnightblue" points="500.401,-36.0001 490.401,-39.5 500.401,-43.0001 500.401,-36.0001"/>
</g>
<!-- Node248 -->
<g id="node5" class="node"><title>Node248</title>
<g id="a_node5"><a xlink:href="../../d4/d27/a00392.html#ae43b86074c0d8f6a324696f69faa54b3" target="_top" xlink:title="Process the newTasks accumulated in the previous workCycle, accept input ones and those that correspo...">
<polygon fill="none" stroke="black" points="719,-49.5 719,-79.5 865,-79.5 865,-49.5 719,-49.5"/>
<text text-anchor="start" x="727" y="-67.5" font-family="Helvetica,sans-Serif" font-size="10.00">nars.storage.Memory.process</text>
<text text-anchor="middle" x="792" y="-56.5" font-family="Helvetica,sans-Serif" font-size="10.00">NewTask</text>
</a>
</g>
</g>
<!-- Node247&#45;&gt;Node248 -->
<g id="edge4" class="edge"><title>Node247&#45;&gt;Node248</title>
<path fill="none" stroke="midnightblue" d="M693.125,-51.3093C701.707,-52.466 710.349,-53.6306 718.754,-54.7633"/>
<polygon fill="midnightblue" stroke="midnightblue" points="693.472,-47.8245 683.094,-49.9574 692.537,-54.7618 693.472,-47.8245"/>
</g>
<!-- Node255 -->
<g id="node12" class="node"><title>Node255</title>
<g id="a_node12"><a xlink:href="../../d4/d27/a00392.html#a5061708f88897cfdf4e0671c846762ca" target="_top" xlink:title="Select a novel task to process. ">
<polygon fill="none" stroke="black" points="719,-0.5 719,-30.5 865,-30.5 865,-0.5 719,-0.5"/>
<text text-anchor="start" x="727" y="-18.5" font-family="Helvetica,sans-Serif" font-size="10.00">nars.storage.Memory.process</text>
<text text-anchor="middle" x="792" y="-7.5" font-family="Helvetica,sans-Serif" font-size="10.00">NovelTask</text>
</a>
</g>
</g>
<!-- Node247&#45;&gt;Node255 -->
<g id="edge11" class="edge"><title>Node247&#45;&gt;Node255</title>
<path fill="none" stroke="midnightblue" d="M693.125,-28.1631C701.707,-27.0527 710.349,-25.9346 718.754,-24.8472"/>
<polygon fill="midnightblue" stroke="midnightblue" points="692.562,-24.7066 683.094,-29.4609 693.46,-31.6488 692.562,-24.7066"/>
</g>
<!-- Node249 -->
<g id="node6" class="node"><title>Node249</title>
<g id="a_node6"><a xlink:href="../../d4/d27/a00392.html#a59ae339d666409988d90d29be4f73a91" target="_top" xlink:title="An atomic working workCycle of the system: process new Tasks, then fireFromProcessConcept a concept...">
<polygon fill="none" stroke="black" points="901,-24.5 901,-54.5 1034,-54.5 1034,-24.5 901,-24.5"/>
<text text-anchor="start" x="909" y="-42.5" font-family="Helvetica,sans-Serif" font-size="10.00">nars.storage.Memory.work</text>
<text text-anchor="middle" x="967.5" y="-31.5" font-family="Helvetica,sans-Serif" font-size="10.00">Cycle</text>
</a>
</g>
</g>
<!-- Node248&#45;&gt;Node249 -->
<g id="edge5" class="edge"><title>Node248&#45;&gt;Node249</title>
<path fill="none" stroke="midnightblue" d="M875.118,-52.6675C883.716,-51.4286 892.375,-50.1809 900.755,-48.9733"/>
<polygon fill="midnightblue" stroke="midnightblue" points="874.471,-49.2244 865.072,-54.1149 875.469,-56.1529 874.471,-49.2244"/>
</g>
<!-- Node250 -->
<g id="node7" class="node"><title>Node250</title>
<g id="a_node7"><a xlink:href="../../df/d15/a00416.html#a0d5c797dc17d9e8d0998852915e0f303" target="_top" xlink:title="nars.storage.ReasonerBatch.doTick">
<polygon fill="none" stroke="black" points="1070,-30 1070,-49 1243,-49 1243,-30 1070,-30"/>
<text text-anchor="middle" x="1156.5" y="-37" font-family="Helvetica,sans-Serif" font-size="10.00">nars.storage.ReasonerBatch.doTick</text>
</a>
</g>
</g>
<!-- Node249&#45;&gt;Node250 -->
<g id="edge6" class="edge"><title>Node249&#45;&gt;Node250</title>
<path fill="none" stroke="midnightblue" d="M1044.34,-39.5C1052.78,-39.5 1061.42,-39.5 1069.97,-39.5"/>
<polygon fill="midnightblue" stroke="midnightblue" points="1044.17,-36.0001 1034.17,-39.5 1044.17,-43.0001 1044.17,-36.0001"/>
</g>
<!-- Node251 -->
<g id="node8" class="node"><title>Node251</title>
<g id="a_node8"><a xlink:href="../../df/d15/a00416.html#a3468aa0f99edcd66412f27922dddb880" target="_top" xlink:title="A clock tick. ">
<polygon fill="none" stroke="black" points="1279,-30 1279,-49 1439,-49 1439,-30 1279,-30"/>
<text text-anchor="middle" x="1359" y="-37" font-family="Helvetica,sans-Serif" font-size="10.00">nars.storage.ReasonerBatch.tick</text>
</a>
</g>
</g>
<!-- Node250&#45;&gt;Node251 -->
<g id="edge7" class="edge"><title>Node250&#45;&gt;Node251</title>
<path fill="none" stroke="midnightblue" d="M1253.13,-39.5C1261.7,-39.5 1270.31,-39.5 1278.71,-39.5"/>
<polygon fill="midnightblue" stroke="midnightblue" points="1253.11,-36.0001 1243.11,-39.5 1253.11,-43.0001 1253.11,-36.0001"/>
</g>
<!-- Node252 -->
<g id="node9" class="node"><title>Node252</title>
<g id="a_node9"><a xlink:href="../../d9/da1/a00396.html#a5d9cfe517bcfbe41e5251910bcd119c1" target="_top" xlink:title="Run to completion: repeatedly execute NARS working cycle, until Inputs are Finished, or 1000 steps. ">
<polygon fill="none" stroke="black" points="1475,-30 1475,-49 1619,-49 1619,-30 1475,-30"/>
<text text-anchor="middle" x="1547" y="-37" font-family="Helvetica,sans-Serif" font-size="10.00">nars.storage.NARSBatch.run</text>
</a>
</g>
</g>
<!-- Node251&#45;&gt;Node252 -->
<g id="edge8" class="edge"><title>Node251&#45;&gt;Node252</title>
<path fill="none" stroke="midnightblue" d="M1449.22,-39.5C1457.82,-39.5 1466.47,-39.5 1474.87,-39.5"/>
<polygon fill="midnightblue" stroke="midnightblue" points="1449.15,-36.0001 1439.15,-39.5 1449.15,-43.0001 1449.15,-36.0001"/>
</g>
<!-- Node253 -->
<g id="node10" class="node"><title>Node253</title>
<g id="a_node10"><a xlink:href="../../d9/da1/a00396.html#a7c307c6b842f82664de6b0e52bdf8efc" target="_top" xlink:title="non&#45;static equivalent to main(String[]) : run to completion from an input file ">
<polygon fill="none" stroke="black" points="1655,-24.5 1655,-54.5 1799,-54.5 1799,-24.5 1655,-24.5"/>
<text text-anchor="start" x="1663" y="-42.5" font-family="Helvetica,sans-Serif" font-size="10.00">nars.storage.NARSBatch.run</text>
<text text-anchor="middle" x="1727" y="-31.5" font-family="Helvetica,sans-Serif" font-size="10.00">Inference</text>
</a>
</g>
</g>
<!-- Node252&#45;&gt;Node253 -->
<g id="edge9" class="edge"><title>Node252&#45;&gt;Node253</title>
<path fill="none" stroke="midnightblue" d="M1629.17,-39.5C1637.79,-39.5 1646.51,-39.5 1655,-39.5"/>
<polygon fill="midnightblue" stroke="midnightblue" points="1629.12,-36.0001 1619.12,-39.5 1629.12,-43.0001 1629.12,-36.0001"/>
</g>
<!-- Node254 -->
<g id="node11" class="node"><title>Node254</title>
<g id="a_node11"><a xlink:href="../../d9/da1/a00396.html#abafc597289bc2f6453b5cd0dd6634e54" target="_top" xlink:title="The entry point of the standalone application. ">
<polygon fill="none" stroke="black" points="1835,-30 1835,-49 1987,-49 1987,-30 1835,-30"/>
<text text-anchor="middle" x="1911" y="-37" font-family="Helvetica,sans-Serif" font-size="10.00">nars.storage.NARSBatch.main</text>
</a>
</g>
</g>
<!-- Node253&#45;&gt;Node254 -->
<g id="edge10" class="edge"><title>Node253&#45;&gt;Node254</title>
<path fill="none" stroke="midnightblue" d="M1809.17,-39.5C1817.76,-39.5 1826.48,-39.5 1835,-39.5"/>
<polygon fill="midnightblue" stroke="midnightblue" points="1809.15,-36.0001 1799.15,-39.5 1809.15,-43.0001 1809.15,-36.0001"/>
</g>
<!-- Node255&#45;&gt;Node249 -->
<g id="edge12" class="edge"><title>Node255&#45;&gt;Node249</title>
<path fill="none" stroke="midnightblue" d="M875.118,-26.8592C883.716,-28.0486 892.375,-29.2464 900.755,-30.4056"/>
<polygon fill="midnightblue" stroke="midnightblue" points="875.458,-23.373 865.072,-25.4697 874.498,-30.307 875.458,-23.373"/>
</g>
<!-- Node256&#45;&gt;Node246 -->
<g id="edge14" class="edge"><title>Node256&#45;&gt;Node246</title>
<path fill="none" stroke="midnightblue" d="M335.067,-26.7618C343.671,-27.9873 352.347,-29.2231 360.735,-30.4178"/>
<polygon fill="midnightblue" stroke="midnightblue" points="335.415,-23.2761 325.022,-25.331 334.428,-30.2062 335.415,-23.2761"/>
</g>
</g>
</svg>
        <g id="navigator" transform="translate(0 0)" fill="#404254">
                <rect fill="#f2f5e9" fill-opacity="0.5" stroke="#606060" stroke-width=".5" x="0" y="0" width="60" height="60"/>
                <use id="zoomplus" xlink:href="#zoomPlus" x="17" y="9" onmousedown="handleZoom(evt,'in')"/>
                <use id="zoomminus" xlink:href="#zoomMin" x="42" y="9" onmousedown="handleZoom(evt,'out')"/>
                <use id="reset" xlink:href="#resetDef" x="30" y="36" onmousedown="handleReset()"/>
                <g id="arrowUp" xlink:href="#dirArrow" transform="translate(30 24)" onmousedown="handlePan(0,-1)">
                  <use xlink:href="#rim" fill="#404040">
                        <set attributeName="fill" to="#808080" begin="arrowUp.mouseover" end="arrowUp.mouseout"/>
                  </use>
                  <path fill="none" stroke="white" stroke-width="1.5" d="M0,-3.0v7 M-2.5,-0.5L0,-3.0L2.5,-0.5"/>
                </g>
                <g id="arrowRight" xlink:href="#dirArrow" transform="rotate(90) translate(36 -43)" onmousedown="handlePan(1,0)">
                  <use xlink:href="#rim" fill="#404040">
                        <set attributeName="fill" to="#808080" begin="arrowRight.mouseover" end="arrowRight.mouseout"/>
                  </use>
                  <path fill="none" stroke="white" stroke-width="1.5" d="M0,-3.0v7 M-2.5,-0.5L0,-3.0L2.5,-0.5"/>
                </g>
                <g id="arrowDown" xlink:href="#dirArrow" transform="rotate(180) translate(-30 -48)" onmousedown="handlePan(0,1)">
                  <use xlink:href="#rim" fill="#404040">
                        <set attributeName="fill" to="#808080" begin="arrowDown.mouseover" end="arrowDown.mouseout"/>
                  </use>
                  <path fill="none" stroke="white" stroke-width="1.5" d="M0,-3.0v7 M-2.5,-0.5L0,-3.0L2.5,-0.5"/>
                </g>
                <g id="arrowLeft" xlink:href="#dirArrow" transform="rotate(270) translate(-36 17)" onmousedown="handlePan(-1,0)">
                  <use xlink:href="#rim" fill="#404040">
                        <set attributeName="fill" to="#808080" begin="arrowLeft.mouseover" end="arrowLeft.mouseout"/>
                  </use>
                  <path fill="none" stroke="white" stroke-width="1.5" d="M0,-3.0v7 M-2.5,-0.5L0,-3.0L2.5,-0.5"/>
                </g>
        </g>
        <svg viewBox="0 0 15 15" width="100%" height="30px" preserveAspectRatio="xMaxYMin meet">
         <g id="arrow_out" transform="scale(0.3 0.3)">
          <a xlink:href="a00196_a71914b2b9086bbc4e73d928ab3f9617d_icgraph_org.svg" target="_base">
           <rect id="button" ry="5" rx="5" y="6" x="6" height="38" width="38"
                fill="#f2f5e9" fill-opacity="0.5" stroke="#606060" stroke-width="1.0"/>
           <path id="arrow"
             d="M 11.500037,31.436501 C 11.940474,20.09759 22.043105,11.32322 32.158766,21.979434 L 37.068811,17.246167 C 37.068811,17.246167 37.088388,32 37.088388,32 L 22.160133,31.978069 C 22.160133,31.978069 26.997745,27.140456 26.997745,27.140456 C 18.528582,18.264221 13.291696,25.230495 11.500037,31.436501 z"
             style="fill:#404040;"/>
          </a>
         </g>
        </svg>
</svg>
