<?xml version="1.0" encoding="UTF-8" standalone="no"?>
<!DOCTYPE svg PUBLIC "-//W3C//DTD SVG 1.1//EN"
 "http://www.w3.org/Graphics/SVG/1.1/DTD/svg11.dtd">
<!-- Generated by graphviz version 2.38.0 (20140413.2041)
 -->
<!-- Title: nars.entity.Concept.rankBelief Pages: 1 -->
<!--zoomable 88 -->
<svg id="main" version="1.1" xmlns="http://www.w3.org/2000/svg" xmlns:xlink="http://www.w3.org/1999/xlink" xml:space="preserve" onload="init(evt)">
<style type="text/css"><![CDATA[
.edge:hover path { stroke: red; }
.edge:hover polygon { stroke: red; fill: red; }
]]></style>
<script type="text/javascript"><![CDATA[
var edges = document.getElementsByTagName('g');
if (edges && edges.length) {
  for (var i=0;i<edges.length;i++) {
    if (edges[i].id.substr(0,4)=='edge') {
      edges[i].setAttribute('class','edge');
    }
  }
}
]]></script>
        <defs>
                <circle id="rim" cx="0" cy="0" r="7"/>
                <circle id="rim2" cx="0" cy="0" r="3.5"/>
                <g id="zoomPlus">
                        <use xlink:href="#rim" fill="#404040">
                                <set attributeName="fill" to="#808080" begin="zoomplus.mouseover" end="zoomplus.mouseout"/>
                        </use>
                        <path d="M-4,0h8M0,-4v8" fill="none" stroke="white" stroke-width="1.5" pointer-events="none"/>
                </g>
                <g id="zoomMin">
                        <use xlink:href="#rim" fill="#404040">
                                <set attributeName="fill" to="#808080" begin="zoomminus.mouseover" end="zoomminus.mouseout"/>
                        </use>
                        <path d="M-4,0h8" fill="none" stroke="white" stroke-width="1.5" pointer-events="none"/>
                </g>
                <g id="dirArrow">
                        <path fill="none" stroke="white" stroke-width="1.5" d="M0,-3.0v7 M-2.5,-0.5L0,-3.0L2.5,-0.5"/>
                </g>
               <g id="resetDef">
                       <use xlink:href="#rim2" fill="#404040">
                               <set attributeName="fill" to="#808080" begin="reset.mouseover" end="reset.mouseout"/>
                       </use>
               </g>
        </defs>

<script type="text/javascript">
var viewWidth = 2138;
var viewHeight = 88;
var sectionId = 'dynsection-40';
</script>
<script xlink:href="../../svgpan.js"/>
<svg id="graph" class="graph">
<g id="viewport">
<title>nars.entity.Concept.rankBelief</title>
<!-- Node1087 -->
<g id="node1" class="node"><title>Node1087</title>
<polygon fill="#bfbfbf" stroke="black" points="0,-24.5 0,-54.5 124,-54.5 124,-24.5 0,-24.5"/>
<text text-anchor="start" x="8" y="-42.5" font-family="Helvetica,sans-Serif" font-size="10.00">nars.entity.Concept.rank</text>
<text text-anchor="middle" x="62" y="-31.5" font-family="Helvetica,sans-Serif" font-size="10.00">Belief</text>
</g>
<!-- Node1088 -->
<g id="node2" class="node"><title>Node1088</title>
<g id="a_node2"><a xlink:href="../../d7/ded/a00196.html#ad2ad743f666efee084cf306a42f8bf04" target="_top" xlink:title="Add a new belief (or goal) into the table Sort the beliefs/goals by rank, and remove redundant or low...">
<polygon fill="none" stroke="black" points="160,-24.5 160,-54.5 292,-54.5 292,-24.5 160,-24.5"/>
<text text-anchor="start" x="168" y="-42.5" font-family="Helvetica,sans-Serif" font-size="10.00">nars.entity.Concept.addTo</text>
<text text-anchor="middle" x="226" y="-31.5" font-family="Helvetica,sans-Serif" font-size="10.00">Table</text>
</a>
</g>
</g>
<!-- Node1087&#45;&gt;Node1088 -->
<g id="edge1" class="edge"><title>Node1087&#45;&gt;Node1088</title>
<path fill="none" stroke="midnightblue" d="M134.467,-39.5C142.924,-39.5 151.522,-39.5 159.885,-39.5"/>
<polygon fill="midnightblue" stroke="midnightblue" points="134.245,-36.0001 124.245,-39.5 134.245,-43.0001 134.245,-36.0001"/>
</g>
<!-- Node1089 -->
<g id="node3" class="node"><title>Node1089</title>
<g id="a_node3"><a xlink:href="../../d7/ded/a00196.html#a40cddcc82ee28a1cf5b1f4bc14e2b078" target="_top" xlink:title="To accept a new judgment as isBelief, and check for revisions and solutions. ">
<polygon fill="none" stroke="black" points="328,-24.5 328,-54.5 468,-54.5 468,-24.5 328,-24.5"/>
<text text-anchor="start" x="336" y="-42.5" font-family="Helvetica,sans-Serif" font-size="10.00">nars.entity.Concept.process</text>
<text text-anchor="middle" x="398" y="-31.5" font-family="Helvetica,sans-Serif" font-size="10.00">Judgment</text>
</a>
</g>
</g>
<!-- Node1088&#45;&gt;Node1089 -->
<g id="edge2" class="edge"><title>Node1088&#45;&gt;Node1089</title>
<path fill="none" stroke="midnightblue" d="M302.5,-39.5C310.981,-39.5 319.591,-39.5 327.985,-39.5"/>
<polygon fill="midnightblue" stroke="midnightblue" points="302.24,-36.0001 292.24,-39.5 302.24,-43.0001 302.24,-36.0001"/>
</g>
<!-- Node1090 -->
<g id="node4" class="node"><title>Node1090</title>
<g id="a_node4"><a xlink:href="../../d7/ded/a00196.html#a9ea7c3154932d7a736c105eb55daeb5c" target="_top" xlink:title="Directly process a new task. ">
<polygon fill="none" stroke="black" points="504,-24.5 504,-54.5 633,-54.5 633,-24.5 504,-24.5"/>
<text text-anchor="start" x="512" y="-42.5" font-family="Helvetica,sans-Serif" font-size="10.00">nars.entity.Concept.direct</text>
<text text-anchor="middle" x="568.5" y="-31.5" font-family="Helvetica,sans-Serif" font-size="10.00">Process</text>
</a>
</g>
</g>
<!-- Node1089&#45;&gt;Node1090 -->
<g id="edge3" class="edge"><title>Node1089&#45;&gt;Node1090</title>
<path fill="none" stroke="midnightblue" d="M478.067,-39.5C486.671,-39.5 495.347,-39.5 503.735,-39.5"/>
<polygon fill="midnightblue" stroke="midnightblue" points="478.022,-36.0001 468.022,-39.5 478.022,-43.0001 478.022,-36.0001"/>
</g>
<!-- Node1091 -->
<g id="node5" class="node"><title>Node1091</title>
<g id="a_node5"><a xlink:href="../../d4/d27/a00392.html#af8d07412d21a441a5c7005a477b06468" target="_top" xlink:title="Immediate processing of a new task, in constant time Local processing, in one concept only...">
<polygon fill="none" stroke="black" points="669,-24.5 669,-54.5 826,-54.5 826,-24.5 669,-24.5"/>
<text text-anchor="start" x="677" y="-42.5" font-family="Helvetica,sans-Serif" font-size="10.00">nars.storage.Memory.immediate</text>
<text text-anchor="middle" x="747.5" y="-31.5" font-family="Helvetica,sans-Serif" font-size="10.00">Process</text>
</a>
</g>
</g>
<!-- Node1090&#45;&gt;Node1091 -->
<g id="edge4" class="edge"><title>Node1090&#45;&gt;Node1091</title>
<path fill="none" stroke="midnightblue" d="M643.492,-39.5C651.854,-39.5 660.393,-39.5 668.801,-39.5"/>
<polygon fill="midnightblue" stroke="midnightblue" points="643.401,-36.0001 633.401,-39.5 643.401,-43.0001 643.401,-36.0001"/>
</g>
<!-- Node1092 -->
<g id="node6" class="node"><title>Node1092</title>
<g id="a_node6"><a xlink:href="../../d4/d27/a00392.html#ae43b86074c0d8f6a324696f69faa54b3" target="_top" xlink:title="Process the newTasks accumulated in the previous workCycle, accept input ones and those that correspo...">
<polygon fill="none" stroke="black" points="862,-49.5 862,-79.5 1008,-79.5 1008,-49.5 862,-49.5"/>
<text text-anchor="start" x="870" y="-67.5" font-family="Helvetica,sans-Serif" font-size="10.00">nars.storage.Memory.process</text>
<text text-anchor="middle" x="935" y="-56.5" font-family="Helvetica,sans-Serif" font-size="10.00">NewTask</text>
</a>
</g>
</g>
<!-- Node1091&#45;&gt;Node1092 -->
<g id="edge5" class="edge"><title>Node1091&#45;&gt;Node1092</title>
<path fill="none" stroke="midnightblue" d="M836.125,-51.3093C844.707,-52.466 853.349,-53.6306 861.754,-54.7633"/>
<polygon fill="midnightblue" stroke="midnightblue" points="836.472,-47.8245 826.094,-49.9574 835.537,-54.7618 836.472,-47.8245"/>
</g>
<!-- Node1099 -->
<g id="node13" class="node"><title>Node1099</title>
<g id="a_node13"><a xlink:href="../../d4/d27/a00392.html#a5061708f88897cfdf4e0671c846762ca" target="_top" xlink:title="Select a novel task to process. ">
<polygon fill="none" stroke="black" points="862,-0.5 862,-30.5 1008,-30.5 1008,-0.5 862,-0.5"/>
<text text-anchor="start" x="870" y="-18.5" font-family="Helvetica,sans-Serif" font-size="10.00">nars.storage.Memory.process</text>
<text text-anchor="middle" x="935" y="-7.5" font-family="Helvetica,sans-Serif" font-size="10.00">NovelTask</text>
</a>
</g>
</g>
<!-- Node1091&#45;&gt;Node1099 -->
<g id="edge12" class="edge"><title>Node1091&#45;&gt;Node1099</title>
<path fill="none" stroke="midnightblue" d="M836.125,-28.1631C844.707,-27.0527 853.349,-25.9346 861.754,-24.8472"/>
<polygon fill="midnightblue" stroke="midnightblue" points="835.562,-24.7066 826.094,-29.4609 836.46,-31.6488 835.562,-24.7066"/>
</g>
<!-- Node1093 -->
<g id="node7" class="node"><title>Node1093</title>
<g id="a_node7"><a xlink:href="../../d4/d27/a00392.html#a59ae339d666409988d90d29be4f73a91" target="_top" xlink:title="An atomic working workCycle of the system: process new Tasks, then fireFromProcessConcept a concept...">
<polygon fill="none" stroke="black" points="1044,-24.5 1044,-54.5 1177,-54.5 1177,-24.5 1044,-24.5"/>
<text text-anchor="start" x="1052" y="-42.5" font-family="Helvetica,sans-Serif" font-size="10.00">nars.storage.Memory.work</text>
<text text-anchor="middle" x="1110.5" y="-31.5" font-family="Helvetica,sans-Serif" font-size="10.00">Cycle</text>
</a>
</g>
</g>
<!-- Node1092&#45;&gt;Node1093 -->
<g id="edge6" class="edge"><title>Node1092&#45;&gt;Node1093</title>
<path fill="none" stroke="midnightblue" d="M1018.12,-52.6675C1026.72,-51.4286 1035.37,-50.1809 1043.76,-48.9733"/>
<polygon fill="midnightblue" stroke="midnightblue" points="1017.47,-49.2244 1008.07,-54.1149 1018.47,-56.1529 1017.47,-49.2244"/>
</g>
<!-- Node1094 -->
<g id="node8" class="node"><title>Node1094</title>
<g id="a_node8"><a xlink:href="../../df/d15/a00416.html#a0d5c797dc17d9e8d0998852915e0f303" target="_top" xlink:title="nars.storage.ReasonerBatch.doTick">
<polygon fill="none" stroke="black" points="1213,-30 1213,-49 1386,-49 1386,-30 1213,-30"/>
<text text-anchor="middle" x="1299.5" y="-37" font-family="Helvetica,sans-Serif" font-size="10.00">nars.storage.ReasonerBatch.doTick</text>
</a>
</g>
</g>
<!-- Node1093&#45;&gt;Node1094 -->
<g id="edge7" class="edge"><title>Node1093&#45;&gt;Node1094</title>
<path fill="none" stroke="midnightblue" d="M1187.34,-39.5C1195.78,-39.5 1204.42,-39.5 1212.97,-39.5"/>
<polygon fill="midnightblue" stroke="midnightblue" points="1187.17,-36.0001 1177.17,-39.5 1187.17,-43.0001 1187.17,-36.0001"/>
</g>
<!-- Node1095 -->
<g id="node9" class="node"><title>Node1095</title>
<g id="a_node9"><a xlink:href="../../df/d15/a00416.html#a3468aa0f99edcd66412f27922dddb880" target="_top" xlink:title="A clock tick. ">
<polygon fill="none" stroke="black" points="1422,-30 1422,-49 1582,-49 1582,-30 1422,-30"/>
<text text-anchor="middle" x="1502" y="-37" font-family="Helvetica,sans-Serif" font-size="10.00">nars.storage.ReasonerBatch.tick</text>
</a>
</g>
</g>
<!-- Node1094&#45;&gt;Node1095 -->
<g id="edge8" class="edge"><title>Node1094&#45;&gt;Node1095</title>
<path fill="none" stroke="midnightblue" d="M1396.13,-39.5C1404.7,-39.5 1413.31,-39.5 1421.71,-39.5"/>
<polygon fill="midnightblue" stroke="midnightblue" points="1396.11,-36.0001 1386.11,-39.5 1396.11,-43.0001 1396.11,-36.0001"/>
</g>
<!-- Node1096 -->
<g id="node10" class="node"><title>Node1096</title>
<g id="a_node10"><a xlink:href="../../d9/da1/a00396.html#a5d9cfe517bcfbe41e5251910bcd119c1" target="_top" xlink:title="Run to completion: repeatedly execute NARS working cycle, until Inputs are Finished, or 1000 steps. ">
<polygon fill="none" stroke="black" points="1618,-30 1618,-49 1762,-49 1762,-30 1618,-30"/>
<text text-anchor="middle" x="1690" y="-37" font-family="Helvetica,sans-Serif" font-size="10.00">nars.storage.NARSBatch.run</text>
</a>
</g>
</g>
<!-- Node1095&#45;&gt;Node1096 -->
<g id="edge9" class="edge"><title>Node1095&#45;&gt;Node1096</title>
<path fill="none" stroke="midnightblue" d="M1592.22,-39.5C1600.82,-39.5 1609.47,-39.5 1617.87,-39.5"/>
<polygon fill="midnightblue" stroke="midnightblue" points="1592.15,-36.0001 1582.15,-39.5 1592.15,-43.0001 1592.15,-36.0001"/>
</g>
<!-- Node1097 -->
<g id="node11" class="node"><title>Node1097</title>
<g id="a_node11"><a xlink:href="../../d9/da1/a00396.html#a7c307c6b842f82664de6b0e52bdf8efc" target="_top" xlink:title="non&#45;static equivalent to main(String[]) : run to completion from an input file ">
<polygon fill="none" stroke="black" points="1798,-24.5 1798,-54.5 1942,-54.5 1942,-24.5 1798,-24.5"/>
<text text-anchor="start" x="1806" y="-42.5" font-family="Helvetica,sans-Serif" font-size="10.00">nars.storage.NARSBatch.run</text>
<text text-anchor="middle" x="1870" y="-31.5" font-family="Helvetica,sans-Serif" font-size="10.00">Inference</text>
</a>
</g>
</g>
<!-- Node1096&#45;&gt;Node1097 -->
<g id="edge10" class="edge"><title>Node1096&#45;&gt;Node1097</title>
<path fill="none" stroke="midnightblue" d="M1772.17,-39.5C1780.79,-39.5 1789.51,-39.5 1798,-39.5"/>
<polygon fill="midnightblue" stroke="midnightblue" points="1772.12,-36.0001 1762.12,-39.5 1772.12,-43.0001 1772.12,-36.0001"/>
</g>
<!-- Node1098 -->
<g id="node12" class="node"><title>Node1098</title>
<g id="a_node12"><a xlink:href="../../d9/da1/a00396.html#abafc597289bc2f6453b5cd0dd6634e54" target="_top" xlink:title="The entry point of the standalone application. ">
<polygon fill="none" stroke="black" points="1978,-30 1978,-49 2130,-49 2130,-30 1978,-30"/>
<text text-anchor="middle" x="2054" y="-37" font-family="Helvetica,sans-Serif" font-size="10.00">nars.storage.NARSBatch.main</text>
</a>
</g>
</g>
<!-- Node1097&#45;&gt;Node1098 -->
<g id="edge11" class="edge"><title>Node1097&#45;&gt;Node1098</title>
<path fill="none" stroke="midnightblue" d="M1952.17,-39.5C1960.76,-39.5 1969.48,-39.5 1978,-39.5"/>
<polygon fill="midnightblue" stroke="midnightblue" points="1952.15,-36.0001 1942.15,-39.5 1952.15,-43.0001 1952.15,-36.0001"/>
</g>
<!-- Node1099&#45;&gt;Node1093 -->
<g id="edge13" class="edge"><title>Node1099&#45;&gt;Node1093</title>
<path fill="none" stroke="midnightblue" d="M1018.12,-26.8592C1026.72,-28.0486 1035.37,-29.2464 1043.76,-30.4056"/>
<polygon fill="midnightblue" stroke="midnightblue" points="1018.46,-23.373 1008.07,-25.4697 1017.5,-30.307 1018.46,-23.373"/>
</g>
</g>
</svg>
        <g id="navigator" transform="translate(0 0)" fill="#404254">
                <rect fill="#f2f5e9" fill-opacity="0.5" stroke="#606060" stroke-width=".5" x="0" y="0" width="60" height="60"/>
                <use id="zoomplus" xlink:href="#zoomPlus" x="17" y="9" onmousedown="handleZoom(evt,'in')"/>
                <use id="zoomminus" xlink:href="#zoomMin" x="42" y="9" onmousedown="handleZoom(evt,'out')"/>
                <use id="reset" xlink:href="#resetDef" x="30" y="36" onmousedown="handleReset()"/>
                <g id="arrowUp" xlink:href="#dirArrow" transform="translate(30 24)" onmousedown="handlePan(0,-1)">
                  <use xlink:href="#rim" fill="#404040">
                        <set attributeName="fill" to="#808080" begin="arrowUp.mouseover" end="arrowUp.mouseout"/>
                  </use>
                  <path fill="none" stroke="white" stroke-width="1.5" d="M0,-3.0v7 M-2.5,-0.5L0,-3.0L2.5,-0.5"/>
                </g>
                <g id="arrowRight" xlink:href="#dirArrow" transform="rotate(90) translate(36 -43)" onmousedown="handlePan(1,0)">
                  <use xlink:href="#rim" fill="#404040">
                        <set attributeName="fill" to="#808080" begin="arrowRight.mouseover" end="arrowRight.mouseout"/>
                  </use>
                  <path fill="none" stroke="white" stroke-width="1.5" d="M0,-3.0v7 M-2.5,-0.5L0,-3.0L2.5,-0.5"/>
                </g>
                <g id="arrowDown" xlink:href="#dirArrow" transform="rotate(180) translate(-30 -48)" onmousedown="handlePan(0,1)">
                  <use xlink:href="#rim" fill="#404040">
                        <set attributeName="fill" to="#808080" begin="arrowDown.mouseover" end="arrowDown.mouseout"/>
                  </use>
                  <path fill="none" stroke="white" stroke-width="1.5" d="M0,-3.0v7 M-2.5,-0.5L0,-3.0L2.5,-0.5"/>
                </g>
                <g id="arrowLeft" xlink:href="#dirArrow" transform="rotate(270) translate(-36 17)" onmousedown="handlePan(-1,0)">
                  <use xlink:href="#rim" fill="#404040">
                        <set attributeName="fill" to="#808080" begin="arrowLeft.mouseover" end="arrowLeft.mouseout"/>
                  </use>
                  <path fill="none" stroke="white" stroke-width="1.5" d="M0,-3.0v7 M-2.5,-0.5L0,-3.0L2.5,-0.5"/>
                </g>
        </g>
        <svg viewBox="0 0 15 15" width="100%" height="30px" preserveAspectRatio="xMaxYMin meet">
         <g id="arrow_out" transform="scale(0.3 0.3)">
          <a xlink:href="a00196_ac46e399d8916125fe6121b85bdf962c2_icgraph_org.svg" target="_base">
           <rect id="button" ry="5" rx="5" y="6" x="6" height="38" width="38"
                fill="#f2f5e9" fill-opacity="0.5" stroke="#606060" stroke-width="1.0"/>
           <path id="arrow"
             d="M 11.500037,31.436501 C 11.940474,20.09759 22.043105,11.32322 32.158766,21.979434 L 37.068811,17.246167 C 37.068811,17.246167 37.088388,32 37.088388,32 L 22.160133,31.978069 C 22.160133,31.978069 26.997745,27.140456 26.997745,27.140456 C 18.528582,18.264221 13.291696,25.230495 11.500037,31.436501 z"
             style="fill:#404040;"/>
          </a>
         </g>
        </svg>
</svg>
