<?xml version="1.0" encoding="UTF-8" standalone="no"?>
<!DOCTYPE svg PUBLIC "-//W3C//DTD SVG 1.1//EN"
 "http://www.w3.org/Graphics/SVG/1.1/DTD/svg11.dtd">
<!-- Generated by graphviz version 2.38.0 (20140413.2041)
 -->
<!-- Title: nars.entity.Concept.directProcess Pages: 1 -->
<svg width="1634pt" height="88pt"
 viewBox="0.00 0.00 1634.00 88.00" xmlns="http://www.w3.org/2000/svg" xmlns:xlink="http://www.w3.org/1999/xlink">
<g id="graph0" class="graph" transform="scale(1 1) rotate(0) translate(4 84)">
<title>nars.entity.Concept.directProcess</title>
<!-- Node198 -->
<g id="node1" class="node"><title>Node198</title>
<polygon fill="#bfbfbf" stroke="black" points="0,-24.5 0,-54.5 129,-54.5 129,-24.5 0,-24.5"/>
<text text-anchor="start" x="8" y="-42.5" font-family="Helvetica,sans-Serif" font-size="10.00">nars.entity.Concept.direct</text>
<text text-anchor="middle" x="64.5" y="-31.5" font-family="Helvetica,sans-Serif" font-size="10.00">Process</text>
</g>
<!-- Node199 -->
<g id="node2" class="node"><title>Node199</title>
<g id="a_node2"><a xlink:href="../../d4/d27/a00392.html#af8d07412d21a441a5c7005a477b06468" target="_top" xlink:title="Immediate processing of a new task, in constant time Local processing, in one concept only...">
<polygon fill="none" stroke="black" points="165,-24.5 165,-54.5 322,-54.5 322,-24.5 165,-24.5"/>
<text text-anchor="start" x="173" y="-42.5" font-family="Helvetica,sans-Serif" font-size="10.00">nars.storage.Memory.immediate</text>
<text text-anchor="middle" x="243.5" y="-31.5" font-family="Helvetica,sans-Serif" font-size="10.00">Process</text>
</a>
</g>
</g>
<!-- Node198&#45;&gt;Node199 -->
<g id="edge1" class="edge"><title>Node198&#45;&gt;Node199</title>
<path fill="none" stroke="midnightblue" d="M139.492,-39.5C147.854,-39.5 156.393,-39.5 164.801,-39.5"/>
<polygon fill="midnightblue" stroke="midnightblue" points="139.401,-36.0001 129.401,-39.5 139.401,-43.0001 139.401,-36.0001"/>
</g>
<!-- Node200 -->
<g id="node3" class="node"><title>Node200</title>
<g id="a_node3"><a xlink:href="../../d4/d27/a00392.html#ae43b86074c0d8f6a324696f69faa54b3" target="_top" xlink:title="Process the newTasks accumulated in the previous workCycle, accept input ones and those that correspo...">
<polygon fill="none" stroke="black" points="358,-49.5 358,-79.5 504,-79.5 504,-49.5 358,-49.5"/>
<text text-anchor="start" x="366" y="-67.5" font-family="Helvetica,sans-Serif" font-size="10.00">nars.storage.Memory.process</text>
<text text-anchor="middle" x="431" y="-56.5" font-family="Helvetica,sans-Serif" font-size="10.00">NewTask</text>
</a>
</g>
</g>
<!-- Node199&#45;&gt;Node200 -->
<g id="edge2" class="edge"><title>Node199&#45;&gt;Node200</title>
<path fill="none" stroke="midnightblue" d="M332.125,-51.3093C340.707,-52.466 349.349,-53.6306 357.754,-54.7633"/>
<polygon fill="midnightblue" stroke="midnightblue" points="332.472,-47.8245 322.094,-49.9574 331.537,-54.7618 332.472,-47.8245"/>
</g>
<!-- Node207 -->
<g id="node10" class="node"><title>Node207</title>
<g id="a_node10"><a xlink:href="../../d4/d27/a00392.html#a5061708f88897cfdf4e0671c846762ca" target="_top" xlink:title="Select a novel task to process. ">
<polygon fill="none" stroke="black" points="358,-0.5 358,-30.5 504,-30.5 504,-0.5 358,-0.5"/>
<text text-anchor="start" x="366" y="-18.5" font-family="Helvetica,sans-Serif" font-size="10.00">nars.storage.Memory.process</text>
<text text-anchor="middle" x="431" y="-7.5" font-family="Helvetica,sans-Serif" font-size="10.00">NovelTask</text>
</a>
</g>
</g>
<!-- Node199&#45;&gt;Node207 -->
<g id="edge9" class="edge"><title>Node199&#45;&gt;Node207</title>
<path fill="none" stroke="midnightblue" d="M332.125,-28.1631C340.707,-27.0527 349.349,-25.9346 357.754,-24.8472"/>
<polygon fill="midnightblue" stroke="midnightblue" points="331.562,-24.7066 322.094,-29.4609 332.46,-31.6488 331.562,-24.7066"/>
</g>
<!-- Node201 -->
<g id="node4" class="node"><title>Node201</title>
<g id="a_node4"><a xlink:href="../../d4/d27/a00392.html#a59ae339d666409988d90d29be4f73a91" target="_top" xlink:title="An atomic working workCycle of the system: process new Tasks, then fireFromProcessConcept a concept...">
<polygon fill="none" stroke="black" points="540,-24.5 540,-54.5 673,-54.5 673,-24.5 540,-24.5"/>
<text text-anchor="start" x="548" y="-42.5" font-family="Helvetica,sans-Serif" font-size="10.00">nars.storage.Memory.work</text>
<text text-anchor="middle" x="606.5" y="-31.5" font-family="Helvetica,sans-Serif" font-size="10.00">Cycle</text>
</a>
</g>
</g>
<!-- Node200&#45;&gt;Node201 -->
<g id="edge3" class="edge"><title>Node200&#45;&gt;Node201</title>
<path fill="none" stroke="midnightblue" d="M514.118,-52.6675C522.716,-51.4286 531.375,-50.1809 539.755,-48.9733"/>
<polygon fill="midnightblue" stroke="midnightblue" points="513.471,-49.2244 504.072,-54.1149 514.469,-56.1529 513.471,-49.2244"/>
</g>
<!-- Node202 -->
<g id="node5" class="node"><title>Node202</title>
<g id="a_node5"><a xlink:href="../../df/d15/a00416.html#a0d5c797dc17d9e8d0998852915e0f303" target="_top" xlink:title="nars.storage.ReasonerBatch.doTick">
<polygon fill="none" stroke="black" points="709,-30 709,-49 882,-49 882,-30 709,-30"/>
<text text-anchor="middle" x="795.5" y="-37" font-family="Helvetica,sans-Serif" font-size="10.00">nars.storage.ReasonerBatch.doTick</text>
</a>
</g>
</g>
<!-- Node201&#45;&gt;Node202 -->
<g id="edge4" class="edge"><title>Node201&#45;&gt;Node202</title>
<path fill="none" stroke="midnightblue" d="M683.343,-39.5C691.782,-39.5 700.421,-39.5 708.971,-39.5"/>
<polygon fill="midnightblue" stroke="midnightblue" points="683.166,-36.0001 673.166,-39.5 683.166,-43.0001 683.166,-36.0001"/>
</g>
<!-- Node203 -->
<g id="node6" class="node"><title>Node203</title>
<g id="a_node6"><a xlink:href="../../df/d15/a00416.html#a3468aa0f99edcd66412f27922dddb880" target="_top" xlink:title="A clock tick. ">
<polygon fill="none" stroke="black" points="918,-30 918,-49 1078,-49 1078,-30 918,-30"/>
<text text-anchor="middle" x="998" y="-37" font-family="Helvetica,sans-Serif" font-size="10.00">nars.storage.ReasonerBatch.tick</text>
</a>
</g>
</g>
<!-- Node202&#45;&gt;Node203 -->
<g id="edge5" class="edge"><title>Node202&#45;&gt;Node203</title>
<path fill="none" stroke="midnightblue" d="M892.131,-39.5C900.696,-39.5 909.306,-39.5 917.711,-39.5"/>
<polygon fill="midnightblue" stroke="midnightblue" points="892.112,-36.0001 882.112,-39.5 892.112,-43.0001 892.112,-36.0001"/>
</g>
<!-- Node204 -->
<g id="node7" class="node"><title>Node204</title>
<g id="a_node7"><a xlink:href="../../d9/da1/a00396.html#a5d9cfe517bcfbe41e5251910bcd119c1" target="_top" xlink:title="Run to completion: repeatedly execute NARS working cycle, until Inputs are Finished, or 1000 steps. ">
<polygon fill="none" stroke="black" points="1114,-30 1114,-49 1258,-49 1258,-30 1114,-30"/>
<text text-anchor="middle" x="1186" y="-37" font-family="Helvetica,sans-Serif" font-size="10.00">nars.storage.NARSBatch.run</text>
</a>
</g>
</g>
<!-- Node203&#45;&gt;Node204 -->
<g id="edge6" class="edge"><title>Node203&#45;&gt;Node204</title>
<path fill="none" stroke="midnightblue" d="M1088.22,-39.5C1096.82,-39.5 1105.47,-39.5 1113.87,-39.5"/>
<polygon fill="midnightblue" stroke="midnightblue" points="1088.15,-36.0001 1078.15,-39.5 1088.15,-43.0001 1088.15,-36.0001"/>
</g>
<!-- Node205 -->
<g id="node8" class="node"><title>Node205</title>
<g id="a_node8"><a xlink:href="../../d9/da1/a00396.html#a7c307c6b842f82664de6b0e52bdf8efc" target="_top" xlink:title="non&#45;static equivalent to main(String[]) : run to completion from an input file ">
<polygon fill="none" stroke="black" points="1294,-24.5 1294,-54.5 1438,-54.5 1438,-24.5 1294,-24.5"/>
<text text-anchor="start" x="1302" y="-42.5" font-family="Helvetica,sans-Serif" font-size="10.00">nars.storage.NARSBatch.run</text>
<text text-anchor="middle" x="1366" y="-31.5" font-family="Helvetica,sans-Serif" font-size="10.00">Inference</text>
</a>
</g>
</g>
<!-- Node204&#45;&gt;Node205 -->
<g id="edge7" class="edge"><title>Node204&#45;&gt;Node205</title>
<path fill="none" stroke="midnightblue" d="M1268.17,-39.5C1276.79,-39.5 1285.51,-39.5 1294,-39.5"/>
<polygon fill="midnightblue" stroke="midnightblue" points="1268.12,-36.0001 1258.12,-39.5 1268.12,-43.0001 1268.12,-36.0001"/>
</g>
<!-- Node206 -->
<g id="node9" class="node"><title>Node206</title>
<g id="a_node9"><a xlink:href="../../d9/da1/a00396.html#abafc597289bc2f6453b5cd0dd6634e54" target="_top" xlink:title="The entry point of the standalone application. ">
<polygon fill="none" stroke="black" points="1474,-30 1474,-49 1626,-49 1626,-30 1474,-30"/>
<text text-anchor="middle" x="1550" y="-37" font-family="Helvetica,sans-Serif" font-size="10.00">nars.storage.NARSBatch.main</text>
</a>
</g>
</g>
<!-- Node205&#45;&gt;Node206 -->
<g id="edge8" class="edge"><title>Node205&#45;&gt;Node206</title>
<path fill="none" stroke="midnightblue" d="M1448.17,-39.5C1456.76,-39.5 1465.48,-39.5 1474,-39.5"/>
<polygon fill="midnightblue" stroke="midnightblue" points="1448.15,-36.0001 1438.15,-39.5 1448.15,-43.0001 1448.15,-36.0001"/>
</g>
<!-- Node207&#45;&gt;Node201 -->
<g id="edge10" class="edge"><title>Node207&#45;&gt;Node201</title>
<path fill="none" stroke="midnightblue" d="M514.118,-26.8592C522.716,-28.0486 531.375,-29.2464 539.755,-30.4056"/>
<polygon fill="midnightblue" stroke="midnightblue" points="514.458,-23.373 504.072,-25.4697 513.498,-30.307 514.458,-23.373"/>
</g>
</g>
</svg>
