<?xml version="1.0" encoding="UTF-8" standalone="no"?>
<!DOCTYPE svg PUBLIC "-//W3C//DTD SVG 1.1//EN"
 "http://www.w3.org/Graphics/SVG/1.1/DTD/svg11.dtd">
<!-- Generated by graphviz version 2.38.0 (20140413.2041)
 -->
<!-- Title: nars.entity.Concept.getEntityObserver Pages: 1 -->
<!--zoomable 141 -->
<svg id="main" version="1.1" xmlns="http://www.w3.org/2000/svg" xmlns:xlink="http://www.w3.org/1999/xlink" xml:space="preserve" onload="init(evt)">
<style type="text/css"><![CDATA[
.edge:hover path { stroke: red; }
.edge:hover polygon { stroke: red; fill: red; }
]]></style>
<script type="text/javascript"><![CDATA[
var edges = document.getElementsByTagName('g');
if (edges && edges.length) {
  for (var i=0;i<edges.length;i++) {
    if (edges[i].id.substr(0,4)=='edge') {
      edges[i].setAttribute('class','edge');
    }
  }
}
]]></script>
        <defs>
                <circle id="rim" cx="0" cy="0" r="7"/>
                <circle id="rim2" cx="0" cy="0" r="3.5"/>
                <g id="zoomPlus">
                        <use xlink:href="#rim" fill="#404040">
                                <set attributeName="fill" to="#808080" begin="zoomplus.mouseover" end="zoomplus.mouseout"/>
                        </use>
                        <path d="M-4,0h8M0,-4v8" fill="none" stroke="white" stroke-width="1.5" pointer-events="none"/>
                </g>
                <g id="zoomMin">
                        <use xlink:href="#rim" fill="#404040">
                                <set attributeName="fill" to="#808080" begin="zoomminus.mouseover" end="zoomminus.mouseout"/>
                        </use>
                        <path d="M-4,0h8" fill="none" stroke="white" stroke-width="1.5" pointer-events="none"/>
                </g>
                <g id="dirArrow">
                        <path fill="none" stroke="white" stroke-width="1.5" d="M0,-3.0v7 M-2.5,-0.5L0,-3.0L2.5,-0.5"/>
                </g>
               <g id="resetDef">
                       <use xlink:href="#rim2" fill="#404040">
                               <set attributeName="fill" to="#808080" begin="reset.mouseover" end="reset.mouseout"/>
                       </use>
               </g>
        </defs>

<script type="text/javascript">
var viewWidth = 1814;
var viewHeight = 141;
var sectionId = 'dynsection-19';
</script>
<script xlink:href="../../svgpan.js"/>
<svg id="graph" class="graph">
<g id="viewport">
<title>nars.entity.Concept.getEntityObserver</title>
<!-- Node581 -->
<g id="node1" class="node"><title>Node581</title>
<polygon fill="#bfbfbf" stroke="black" points="0,-33 0,-63 144,-63 144,-33 0,-33"/>
<text text-anchor="start" x="8" y="-51" font-family="Helvetica,sans-Serif" font-size="10.00">nars.entity.Concept.getEntity</text>
<text text-anchor="middle" x="72" y="-40" font-family="Helvetica,sans-Serif" font-size="10.00">Observer</text>
</g>
<!-- Node582 -->
<g id="node2" class="node"><title>Node582</title>
<g id="a_node2"><a xlink:href="../../d7/ded/a00196.html#a9ea7c3154932d7a736c105eb55daeb5c" target="_top" xlink:title="Directly process a new task. ">
<polygon fill="none" stroke="black" points="180,-77 180,-107 309,-107 309,-77 180,-77"/>
<text text-anchor="start" x="188" y="-95" font-family="Helvetica,sans-Serif" font-size="10.00">nars.entity.Concept.direct</text>
<text text-anchor="middle" x="244.5" y="-84" font-family="Helvetica,sans-Serif" font-size="10.00">Process</text>
</a>
</g>
</g>
<!-- Node581&#45;&gt;Node582 -->
<g id="edge1" class="edge"><title>Node581&#45;&gt;Node582</title>
<path fill="none" stroke="midnightblue" d="M141.177,-65.5941C155.783,-69.3632 171.085,-73.3122 185.273,-76.9738"/>
<polygon fill="midnightblue" stroke="midnightblue" points="141.757,-62.1291 131.2,-63.0192 140.008,-68.9071 141.757,-62.1291"/>
</g>
<!-- Node592 -->
<g id="node12" class="node"><title>Node592</title>
<g id="a_node12"><a xlink:href="../../d7/ded/a00196.html#add08a37b7cf7b272838532c942c083a4" target="_top" xlink:title="Resume display, called from ConceptWindow only. ">
<polygon fill="none" stroke="black" points="183,-38.5 183,-57.5 306,-57.5 306,-38.5 183,-38.5"/>
<text text-anchor="middle" x="244.5" y="-45.5" font-family="Helvetica,sans-Serif" font-size="10.00">nars.entity.Concept.play</text>
</a>
</g>
</g>
<!-- Node581&#45;&gt;Node592 -->
<g id="edge12" class="edge"><title>Node581&#45;&gt;Node592</title>
<path fill="none" stroke="midnightblue" d="M154.568,-48C164.056,-48 173.605,-48 182.743,-48"/>
<polygon fill="midnightblue" stroke="midnightblue" points="154.319,-44.5001 144.319,-48 154.319,-51.5001 154.319,-44.5001"/>
</g>
<!-- Node593 -->
<g id="node13" class="node"><title>Node593</title>
<g id="a_node13"><a xlink:href="../../d7/ded/a00196.html#a0c635b89db49fbe38d04e3c3088b5d15" target="_top" xlink:title="Stop display, called from ConceptWindow only. ">
<polygon fill="none" stroke="black" points="182.5,-0.5 182.5,-19.5 306.5,-19.5 306.5,-0.5 182.5,-0.5"/>
<text text-anchor="middle" x="244.5" y="-7.5" font-family="Helvetica,sans-Serif" font-size="10.00">nars.entity.Concept.stop</text>
</a>
</g>
</g>
<!-- Node581&#45;&gt;Node593 -->
<g id="edge13" class="edge"><title>Node581&#45;&gt;Node593</title>
<path fill="none" stroke="midnightblue" d="M150.513,-30.7245C167.833,-26.8642 185.583,-22.9082 200.871,-19.5009"/>
<polygon fill="midnightblue" stroke="midnightblue" points="149.385,-27.3898 140.386,-32.9814 150.908,-34.2221 149.385,-27.3898"/>
</g>
<!-- Node583 -->
<g id="node3" class="node"><title>Node583</title>
<g id="a_node3"><a xlink:href="../../d4/d27/a00392.html#af8d07412d21a441a5c7005a477b06468" target="_top" xlink:title="Immediate processing of a new task, in constant time Local processing, in one concept only...">
<polygon fill="none" stroke="black" points="345,-77 345,-107 502,-107 502,-77 345,-77"/>
<text text-anchor="start" x="353" y="-95" font-family="Helvetica,sans-Serif" font-size="10.00">nars.storage.Memory.immediate</text>
<text text-anchor="middle" x="423.5" y="-84" font-family="Helvetica,sans-Serif" font-size="10.00">Process</text>
</a>
</g>
</g>
<!-- Node582&#45;&gt;Node583 -->
<g id="edge2" class="edge"><title>Node582&#45;&gt;Node583</title>
<path fill="none" stroke="midnightblue" d="M319.492,-92C327.854,-92 336.393,-92 344.801,-92"/>
<polygon fill="midnightblue" stroke="midnightblue" points="319.401,-88.5001 309.401,-92 319.401,-95.5001 319.401,-88.5001"/>
</g>
<!-- Node584 -->
<g id="node4" class="node"><title>Node584</title>
<g id="a_node4"><a xlink:href="../../d4/d27/a00392.html#ae43b86074c0d8f6a324696f69faa54b3" target="_top" xlink:title="Process the newTasks accumulated in the previous workCycle, accept input ones and those that correspo...">
<polygon fill="none" stroke="black" points="538,-102 538,-132 684,-132 684,-102 538,-102"/>
<text text-anchor="start" x="546" y="-120" font-family="Helvetica,sans-Serif" font-size="10.00">nars.storage.Memory.process</text>
<text text-anchor="middle" x="611" y="-109" font-family="Helvetica,sans-Serif" font-size="10.00">NewTask</text>
</a>
</g>
</g>
<!-- Node583&#45;&gt;Node584 -->
<g id="edge3" class="edge"><title>Node583&#45;&gt;Node584</title>
<path fill="none" stroke="midnightblue" d="M512.125,-103.809C520.707,-104.966 529.349,-106.131 537.754,-107.263"/>
<polygon fill="midnightblue" stroke="midnightblue" points="512.472,-100.324 502.094,-102.457 511.537,-107.262 512.472,-100.324"/>
</g>
<!-- Node591 -->
<g id="node11" class="node"><title>Node591</title>
<g id="a_node11"><a xlink:href="../../d4/d27/a00392.html#a5061708f88897cfdf4e0671c846762ca" target="_top" xlink:title="Select a novel task to process. ">
<polygon fill="none" stroke="black" points="538,-53 538,-83 684,-83 684,-53 538,-53"/>
<text text-anchor="start" x="546" y="-71" font-family="Helvetica,sans-Serif" font-size="10.00">nars.storage.Memory.process</text>
<text text-anchor="middle" x="611" y="-60" font-family="Helvetica,sans-Serif" font-size="10.00">NovelTask</text>
</a>
</g>
</g>
<!-- Node583&#45;&gt;Node591 -->
<g id="edge10" class="edge"><title>Node583&#45;&gt;Node591</title>
<path fill="none" stroke="midnightblue" d="M512.125,-80.6631C520.707,-79.5527 529.349,-78.4346 537.754,-77.3472"/>
<polygon fill="midnightblue" stroke="midnightblue" points="511.562,-77.2066 502.094,-81.9609 512.46,-84.1488 511.562,-77.2066"/>
</g>
<!-- Node585 -->
<g id="node5" class="node"><title>Node585</title>
<g id="a_node5"><a xlink:href="../../d4/d27/a00392.html#a59ae339d666409988d90d29be4f73a91" target="_top" xlink:title="An atomic working workCycle of the system: process new Tasks, then fireFromProcessConcept a concept...">
<polygon fill="none" stroke="black" points="720,-77 720,-107 853,-107 853,-77 720,-77"/>
<text text-anchor="start" x="728" y="-95" font-family="Helvetica,sans-Serif" font-size="10.00">nars.storage.Memory.work</text>
<text text-anchor="middle" x="786.5" y="-84" font-family="Helvetica,sans-Serif" font-size="10.00">Cycle</text>
</a>
</g>
</g>
<!-- Node584&#45;&gt;Node585 -->
<g id="edge4" class="edge"><title>Node584&#45;&gt;Node585</title>
<path fill="none" stroke="midnightblue" d="M694.118,-105.168C702.716,-103.929 711.375,-102.681 719.755,-101.473"/>
<polygon fill="midnightblue" stroke="midnightblue" points="693.471,-101.724 684.072,-106.615 694.469,-108.653 693.471,-101.724"/>
</g>
<!-- Node586 -->
<g id="node6" class="node"><title>Node586</title>
<g id="a_node6"><a xlink:href="../../df/d15/a00416.html#a0d5c797dc17d9e8d0998852915e0f303" target="_top" xlink:title="nars.storage.ReasonerBatch.doTick">
<polygon fill="none" stroke="black" points="889,-82.5 889,-101.5 1062,-101.5 1062,-82.5 889,-82.5"/>
<text text-anchor="middle" x="975.5" y="-89.5" font-family="Helvetica,sans-Serif" font-size="10.00">nars.storage.ReasonerBatch.doTick</text>
</a>
</g>
</g>
<!-- Node585&#45;&gt;Node586 -->
<g id="edge5" class="edge"><title>Node585&#45;&gt;Node586</title>
<path fill="none" stroke="midnightblue" d="M863.343,-92C871.782,-92 880.421,-92 888.971,-92"/>
<polygon fill="midnightblue" stroke="midnightblue" points="863.166,-88.5001 853.166,-92 863.166,-95.5001 863.166,-88.5001"/>
</g>
<!-- Node587 -->
<g id="node7" class="node"><title>Node587</title>
<g id="a_node7"><a xlink:href="../../df/d15/a00416.html#a3468aa0f99edcd66412f27922dddb880" target="_top" xlink:title="A clock tick. ">
<polygon fill="none" stroke="black" points="1098,-82.5 1098,-101.5 1258,-101.5 1258,-82.5 1098,-82.5"/>
<text text-anchor="middle" x="1178" y="-89.5" font-family="Helvetica,sans-Serif" font-size="10.00">nars.storage.ReasonerBatch.tick</text>
</a>
</g>
</g>
<!-- Node586&#45;&gt;Node587 -->
<g id="edge6" class="edge"><title>Node586&#45;&gt;Node587</title>
<path fill="none" stroke="midnightblue" d="M1072.13,-92C1080.7,-92 1089.31,-92 1097.71,-92"/>
<polygon fill="midnightblue" stroke="midnightblue" points="1072.11,-88.5001 1062.11,-92 1072.11,-95.5001 1072.11,-88.5001"/>
</g>
<!-- Node588 -->
<g id="node8" class="node"><title>Node588</title>
<g id="a_node8"><a xlink:href="../../d9/da1/a00396.html#a5d9cfe517bcfbe41e5251910bcd119c1" target="_top" xlink:title="Run to completion: repeatedly execute NARS working cycle, until Inputs are Finished, or 1000 steps. ">
<polygon fill="none" stroke="black" points="1294,-82.5 1294,-101.5 1438,-101.5 1438,-82.5 1294,-82.5"/>
<text text-anchor="middle" x="1366" y="-89.5" font-family="Helvetica,sans-Serif" font-size="10.00">nars.storage.NARSBatch.run</text>
</a>
</g>
</g>
<!-- Node587&#45;&gt;Node588 -->
<g id="edge7" class="edge"><title>Node587&#45;&gt;Node588</title>
<path fill="none" stroke="midnightblue" d="M1268.22,-92C1276.82,-92 1285.47,-92 1293.87,-92"/>
<polygon fill="midnightblue" stroke="midnightblue" points="1268.15,-88.5001 1258.15,-92 1268.15,-95.5001 1268.15,-88.5001"/>
</g>
<!-- Node589 -->
<g id="node9" class="node"><title>Node589</title>
<g id="a_node9"><a xlink:href="../../d9/da1/a00396.html#a7c307c6b842f82664de6b0e52bdf8efc" target="_top" xlink:title="non&#45;static equivalent to main(String[]) : run to completion from an input file ">
<polygon fill="none" stroke="black" points="1474,-77 1474,-107 1618,-107 1618,-77 1474,-77"/>
<text text-anchor="start" x="1482" y="-95" font-family="Helvetica,sans-Serif" font-size="10.00">nars.storage.NARSBatch.run</text>
<text text-anchor="middle" x="1546" y="-84" font-family="Helvetica,sans-Serif" font-size="10.00">Inference</text>
</a>
</g>
</g>
<!-- Node588&#45;&gt;Node589 -->
<g id="edge8" class="edge"><title>Node588&#45;&gt;Node589</title>
<path fill="none" stroke="midnightblue" d="M1448.17,-92C1456.79,-92 1465.51,-92 1474,-92"/>
<polygon fill="midnightblue" stroke="midnightblue" points="1448.12,-88.5001 1438.12,-92 1448.12,-95.5001 1448.12,-88.5001"/>
</g>
<!-- Node590 -->
<g id="node10" class="node"><title>Node590</title>
<g id="a_node10"><a xlink:href="../../d9/da1/a00396.html#abafc597289bc2f6453b5cd0dd6634e54" target="_top" xlink:title="The entry point of the standalone application. ">
<polygon fill="none" stroke="black" points="1654,-82.5 1654,-101.5 1806,-101.5 1806,-82.5 1654,-82.5"/>
<text text-anchor="middle" x="1730" y="-89.5" font-family="Helvetica,sans-Serif" font-size="10.00">nars.storage.NARSBatch.main</text>
</a>
</g>
</g>
<!-- Node589&#45;&gt;Node590 -->
<g id="edge9" class="edge"><title>Node589&#45;&gt;Node590</title>
<path fill="none" stroke="midnightblue" d="M1628.17,-92C1636.76,-92 1645.48,-92 1654,-92"/>
<polygon fill="midnightblue" stroke="midnightblue" points="1628.15,-88.5001 1618.15,-92 1628.15,-95.5001 1628.15,-88.5001"/>
</g>
<!-- Node591&#45;&gt;Node585 -->
<g id="edge11" class="edge"><title>Node591&#45;&gt;Node585</title>
<path fill="none" stroke="midnightblue" d="M694.118,-79.3592C702.716,-80.5486 711.375,-81.7464 719.755,-82.9056"/>
<polygon fill="midnightblue" stroke="midnightblue" points="694.458,-75.873 684.072,-77.9697 693.498,-82.807 694.458,-75.873"/>
</g>
</g>
</svg>
        <g id="navigator" transform="translate(0 0)" fill="#404254">
                <rect fill="#f2f5e9" fill-opacity="0.5" stroke="#606060" stroke-width=".5" x="0" y="0" width="60" height="60"/>
                <use id="zoomplus" xlink:href="#zoomPlus" x="17" y="9" onmousedown="handleZoom(evt,'in')"/>
                <use id="zoomminus" xlink:href="#zoomMin" x="42" y="9" onmousedown="handleZoom(evt,'out')"/>
                <use id="reset" xlink:href="#resetDef" x="30" y="36" onmousedown="handleReset()"/>
                <g id="arrowUp" xlink:href="#dirArrow" transform="translate(30 24)" onmousedown="handlePan(0,-1)">
                  <use xlink:href="#rim" fill="#404040">
                        <set attributeName="fill" to="#808080" begin="arrowUp.mouseover" end="arrowUp.mouseout"/>
                  </use>
                  <path fill="none" stroke="white" stroke-width="1.5" d="M0,-3.0v7 M-2.5,-0.5L0,-3.0L2.5,-0.5"/>
                </g>
                <g id="arrowRight" xlink:href="#dirArrow" transform="rotate(90) translate(36 -43)" onmousedown="handlePan(1,0)">
                  <use xlink:href="#rim" fill="#404040">
                        <set attributeName="fill" to="#808080" begin="arrowRight.mouseover" end="arrowRight.mouseout"/>
                  </use>
                  <path fill="none" stroke="white" stroke-width="1.5" d="M0,-3.0v7 M-2.5,-0.5L0,-3.0L2.5,-0.5"/>
                </g>
                <g id="arrowDown" xlink:href="#dirArrow" transform="rotate(180) translate(-30 -48)" onmousedown="handlePan(0,1)">
                  <use xlink:href="#rim" fill="#404040">
                        <set attributeName="fill" to="#808080" begin="arrowDown.mouseover" end="arrowDown.mouseout"/>
                  </use>
                  <path fill="none" stroke="white" stroke-width="1.5" d="M0,-3.0v7 M-2.5,-0.5L0,-3.0L2.5,-0.5"/>
                </g>
                <g id="arrowLeft" xlink:href="#dirArrow" transform="rotate(270) translate(-36 17)" onmousedown="handlePan(-1,0)">
                  <use xlink:href="#rim" fill="#404040">
                        <set attributeName="fill" to="#808080" begin="arrowLeft.mouseover" end="arrowLeft.mouseout"/>
                  </use>
                  <path fill="none" stroke="white" stroke-width="1.5" d="M0,-3.0v7 M-2.5,-0.5L0,-3.0L2.5,-0.5"/>
                </g>
        </g>
        <svg viewBox="0 0 15 15" width="100%" height="30px" preserveAspectRatio="xMaxYMin meet">
         <g id="arrow_out" transform="scale(0.3 0.3)">
          <a xlink:href="a00196_a50573f138f707ce99b5b06635dc6d425_icgraph_org.svg" target="_base">
           <rect id="button" ry="5" rx="5" y="6" x="6" height="38" width="38"
                fill="#f2f5e9" fill-opacity="0.5" stroke="#606060" stroke-width="1.0"/>
           <path id="arrow"
             d="M 11.500037,31.436501 C 11.940474,20.09759 22.043105,11.32322 32.158766,21.979434 L 37.068811,17.246167 C 37.068811,17.246167 37.088388,32 37.088388,32 L 22.160133,31.978069 C 22.160133,31.978069 26.997745,27.140456 26.997745,27.140456 C 18.528582,18.264221 13.291696,25.230495 11.500037,31.436501 z"
             style="fill:#404040;"/>
          </a>
         </g>
        </svg>
</svg>
