<?xml version="1.0" encoding="UTF-8" standalone="no"?>
<!DOCTYPE svg PUBLIC "-//W3C//DTD SVG 1.1//EN"
 "http://www.w3.org/Graphics/SVG/1.1/DTD/svg11.dtd">
<!-- Generated by graphviz version 2.38.0 (20140413.2041)
 -->
<!-- Title: nars.entity.Concept.toString Pages: 1 -->
<svg width="321pt" height="116pt"
 viewBox="0.00 0.00 321.00 115.50" xmlns="http://www.w3.org/2000/svg" xmlns:xlink="http://www.w3.org/1999/xlink">
<g id="graph0" class="graph" transform="scale(1 1) rotate(0) translate(4 111.5)">
<title>nars.entity.Concept.toString</title>
<!-- Node1141 -->
<g id="node1" class="node"><title>Node1141</title>
<polygon fill="#bfbfbf" stroke="black" points="0,-50 0,-69 139,-69 139,-50 0,-50"/>
<text text-anchor="middle" x="69.5" y="-57" font-family="Helvetica,sans-Serif" font-size="10.00">nars.entity.Concept.toString</text>
</g>
<!-- Node1142 -->
<g id="node2" class="node"><title>Node1142</title>
<g id="a_node2"><a xlink:href="../../dc/d31/a00208.html#a54fc0a370b847dd77c0a698c765e6e55" target="_top" xlink:title="The budget of the Item, consisting of 3 numbers. ">
<polygon fill="none" stroke="black" points="178,-88 178,-107 310,-107 310,-88 178,-88"/>
<text text-anchor="middle" x="244" y="-95" font-family="Helvetica,sans-Serif" font-size="10.00">nars.entity.Item.getBudget</text>
</a>
</g>
</g>
<!-- Node1141&#45;&gt;Node1142 -->
<g id="edge1" class="edge"><title>Node1141&#45;&gt;Node1142</title>
<path fill="none" stroke="midnightblue" d="M114.029,-69.089C137.1,-74.1713 165.627,-80.4554 189.981,-85.8203"/>
<polygon fill="midnightblue" stroke="midnightblue" points="189.265,-89.2466 199.784,-87.9799 190.771,-82.4105 189.265,-89.2466"/>
</g>
<!-- Node1143 -->
<g id="node3" class="node"><title>Node1143</title>
<g id="a_node3"><a xlink:href="../../dc/d31/a00208.html#ab5c9fbb171f325844966b496010acf60" target="_top" xlink:title="The key of the Item, unique in a Bag. ">
<polygon fill="none" stroke="black" points="184.5,-50 184.5,-69 303.5,-69 303.5,-50 184.5,-50"/>
<text text-anchor="middle" x="244" y="-57" font-family="Helvetica,sans-Serif" font-size="10.00">nars.entity.Item.getKey</text>
</a>
</g>
</g>
<!-- Node1141&#45;&gt;Node1143 -->
<g id="edge2" class="edge"><title>Node1141&#45;&gt;Node1143</title>
<path fill="none" stroke="midnightblue" d="M139.172,-59.5C150.726,-59.5 162.72,-59.5 174.276,-59.5"/>
<polygon fill="midnightblue" stroke="midnightblue" points="174.296,-63.0001 184.296,-59.5 174.296,-56.0001 174.296,-63.0001"/>
</g>
<!-- Node1144 -->
<g id="node4" class="node"><title>Node1144</title>
<g id="a_node4"><a xlink:href="../../d9/da1/a00396.html#a6465682a30caffa43d1c79f697fcf6e5" target="_top" xlink:title="Flag to distinguish the two running modes of the project. ">
<polygon fill="none" stroke="black" points="175,-0.5 175,-30.5 313,-30.5 313,-0.5 175,-0.5"/>
<text text-anchor="start" x="183" y="-18.5" font-family="Helvetica,sans-Serif" font-size="10.00">nars.storage.NARSBatch.is</text>
<text text-anchor="middle" x="244" y="-7.5" font-family="Helvetica,sans-Serif" font-size="10.00">StandAlone</text>
</a>
</g>
</g>
<!-- Node1141&#45;&gt;Node1144 -->
<g id="edge3" class="edge"><title>Node1141&#45;&gt;Node1144</title>
<path fill="none" stroke="midnightblue" d="M107.93,-49.9527C127.265,-45.0209 151.48,-38.8442 174.048,-33.0879"/>
<polygon fill="midnightblue" stroke="midnightblue" points="175.112,-36.4284 183.937,-30.5654 173.382,-29.6456 175.112,-36.4284"/>
</g>
</g>
</svg>
