<?xml version="1.0" encoding="UTF-8" standalone="no"?>
<!DOCTYPE svg PUBLIC "-//W3C//DTD SVG 1.1//EN"
 "http://www.w3.org/Graphics/SVG/1.1/DTD/svg11.dtd">
<!-- Generated by graphviz version 2.38.0 (20140413.2041)
 -->
<!-- Title: nars.entity.Concept.getQuality Pages: 1 -->
<!--zoomable 88 -->
<svg id="main" version="1.1" xmlns="http://www.w3.org/2000/svg" xmlns:xlink="http://www.w3.org/1999/xlink" xml:space="preserve" onload="init(evt)">
<style type="text/css"><![CDATA[
.edge:hover path { stroke: red; }
.edge:hover polygon { stroke: red; fill: red; }
]]></style>
<script type="text/javascript"><![CDATA[
var edges = document.getElementsByTagName('g');
if (edges && edges.length) {
  for (var i=0;i<edges.length;i++) {
    if (edges[i].id.substr(0,4)=='edge') {
      edges[i].setAttribute('class','edge');
    }
  }
}
]]></script>
        <defs>
                <circle id="rim" cx="0" cy="0" r="7"/>
                <circle id="rim2" cx="0" cy="0" r="3.5"/>
                <g id="zoomPlus">
                        <use xlink:href="#rim" fill="#404040">
                                <set attributeName="fill" to="#808080" begin="zoomplus.mouseover" end="zoomplus.mouseout"/>
                        </use>
                        <path d="M-4,0h8M0,-4v8" fill="none" stroke="white" stroke-width="1.5" pointer-events="none"/>
                </g>
                <g id="zoomMin">
                        <use xlink:href="#rim" fill="#404040">
                                <set attributeName="fill" to="#808080" begin="zoomminus.mouseover" end="zoomminus.mouseout"/>
                        </use>
                        <path d="M-4,0h8" fill="none" stroke="white" stroke-width="1.5" pointer-events="none"/>
                </g>
                <g id="dirArrow">
                        <path fill="none" stroke="white" stroke-width="1.5" d="M0,-3.0v7 M-2.5,-0.5L0,-3.0L2.5,-0.5"/>
                </g>
               <g id="resetDef">
                       <use xlink:href="#rim2" fill="#404040">
                               <set attributeName="fill" to="#808080" begin="reset.mouseover" end="reset.mouseout"/>
                       </use>
               </g>
        </defs>

<script type="text/javascript">
var viewWidth = 2550;
var viewHeight = 88;
var sectionId = 'dynsection-22';
</script>
<script xlink:href="../../svgpan.js"/>
<svg id="graph" class="graph">
<g id="viewport">
<title>nars.entity.Concept.getQuality</title>
<!-- Node621 -->
<g id="node1" class="node"><title>Node621</title>
<polygon fill="#bfbfbf" stroke="black" points="0,-30 0,-49 149,-49 149,-30 0,-30"/>
<text text-anchor="middle" x="74.5" y="-37" font-family="Helvetica,sans-Serif" font-size="10.00">nars.entity.Concept.getQuality</text>
</g>
<!-- Node622 -->
<g id="node2" class="node"><title>Node622</title>
<g id="a_node2"><a xlink:href="../../d9/d21/a00240.html#aabac530761ea7ac0f43f0d1ea8d085c8" target="_top" xlink:title="Activate a concept by an incoming TaskLink. ">
<polygon fill="none" stroke="black" points="185,-30 185,-49 377,-49 377,-30 185,-30"/>
<text text-anchor="middle" x="281" y="-37" font-family="Helvetica,sans-Serif" font-size="10.00">nars.inference.BudgetFunctions.activate</text>
</a>
</g>
</g>
<!-- Node621&#45;&gt;Node622 -->
<g id="edge1" class="edge"><title>Node621&#45;&gt;Node622</title>
<path fill="none" stroke="midnightblue" d="M159.187,-39.5C167.589,-39.5 176.165,-39.5 184.676,-39.5"/>
<polygon fill="midnightblue" stroke="midnightblue" points="159.04,-36.0001 149.04,-39.5 159.04,-43.0001 159.04,-36.0001"/>
</g>
<!-- Node623 -->
<g id="node3" class="node"><title>Node623</title>
<g id="a_node3"><a xlink:href="../../d4/d27/a00392.html#a7affdc42dcb55d27d76cf636eab6230f" target="_top" xlink:title="Adjust the activation level of a Concept. ">
<polygon fill="none" stroke="black" points="413,-24.5 413,-54.5 559,-54.5 559,-24.5 413,-24.5"/>
<text text-anchor="start" x="421" y="-42.5" font-family="Helvetica,sans-Serif" font-size="10.00">nars.storage.Memory.activate</text>
<text text-anchor="middle" x="486" y="-31.5" font-family="Helvetica,sans-Serif" font-size="10.00">Concept</text>
</a>
</g>
</g>
<!-- Node622&#45;&gt;Node623 -->
<g id="edge2" class="edge"><title>Node622&#45;&gt;Node623</title>
<path fill="none" stroke="midnightblue" d="M387.354,-39.5C395.952,-39.5 404.512,-39.5 412.789,-39.5"/>
<polygon fill="midnightblue" stroke="midnightblue" points="387.259,-36.0001 377.259,-39.5 387.259,-43.0001 387.259,-36.0001"/>
</g>
<!-- Node624 -->
<g id="node4" class="node"><title>Node624</title>
<g id="a_node4"><a xlink:href="../../d7/ded/a00196.html#aef21f5ae7bef5194bd37ae526302843d" target="_top" xlink:title="Insert a TaskLink into the TaskLink bag. ">
<polygon fill="none" stroke="black" points="595,-24.5 595,-54.5 724,-54.5 724,-24.5 595,-24.5"/>
<text text-anchor="start" x="603" y="-42.5" font-family="Helvetica,sans-Serif" font-size="10.00">nars.entity.Concept.insert</text>
<text text-anchor="middle" x="659.5" y="-31.5" font-family="Helvetica,sans-Serif" font-size="10.00">TaskLink</text>
</a>
</g>
</g>
<!-- Node623&#45;&gt;Node624 -->
<g id="edge3" class="edge"><title>Node623&#45;&gt;Node624</title>
<path fill="none" stroke="midnightblue" d="M569.261,-39.5C577.838,-39.5 586.461,-39.5 594.787,-39.5"/>
<polygon fill="midnightblue" stroke="midnightblue" points="569.234,-36.0001 559.234,-39.5 569.234,-43.0001 569.234,-36.0001"/>
</g>
<!-- Node625 -->
<g id="node5" class="node"><title>Node625</title>
<g id="a_node5"><a xlink:href="../../d7/ded/a00196.html#a501121a11fc046eea4b69720cb622d84" target="_top" xlink:title="Link to a new task from all relevant concepts for continued processing in the near future for unspeci...">
<polygon fill="none" stroke="black" points="760,-24.5 760,-54.5 880,-54.5 880,-24.5 760,-24.5"/>
<text text-anchor="start" x="768" y="-42.5" font-family="Helvetica,sans-Serif" font-size="10.00">nars.entity.Concept.link</text>
<text text-anchor="middle" x="820" y="-31.5" font-family="Helvetica,sans-Serif" font-size="10.00">ToTask</text>
</a>
</g>
</g>
<!-- Node624&#45;&gt;Node625 -->
<g id="edge4" class="edge"><title>Node624&#45;&gt;Node625</title>
<path fill="none" stroke="midnightblue" d="M734.1,-39.5C742.714,-39.5 751.417,-39.5 759.799,-39.5"/>
<polygon fill="midnightblue" stroke="midnightblue" points="734.055,-36.0001 724.055,-39.5 734.055,-43.0001 734.055,-36.0001"/>
</g>
<!-- Node626 -->
<g id="node6" class="node"><title>Node626</title>
<g id="a_node6"><a xlink:href="../../d7/ded/a00196.html#a9ea7c3154932d7a736c105eb55daeb5c" target="_top" xlink:title="Directly process a new task. ">
<polygon fill="none" stroke="black" points="916,-24.5 916,-54.5 1045,-54.5 1045,-24.5 916,-24.5"/>
<text text-anchor="start" x="924" y="-42.5" font-family="Helvetica,sans-Serif" font-size="10.00">nars.entity.Concept.direct</text>
<text text-anchor="middle" x="980.5" y="-31.5" font-family="Helvetica,sans-Serif" font-size="10.00">Process</text>
</a>
</g>
</g>
<!-- Node625&#45;&gt;Node626 -->
<g id="edge5" class="edge"><title>Node625&#45;&gt;Node626</title>
<path fill="none" stroke="midnightblue" d="M890.021,-39.5C898.627,-39.5 907.396,-39.5 915.913,-39.5"/>
<polygon fill="midnightblue" stroke="midnightblue" points="890.02,-36.0001 880.02,-39.5 890.02,-43.0001 890.02,-36.0001"/>
</g>
<!-- Node627 -->
<g id="node7" class="node"><title>Node627</title>
<g id="a_node7"><a xlink:href="../../d4/d27/a00392.html#af8d07412d21a441a5c7005a477b06468" target="_top" xlink:title="Immediate processing of a new task, in constant time Local processing, in one concept only...">
<polygon fill="none" stroke="black" points="1081,-24.5 1081,-54.5 1238,-54.5 1238,-24.5 1081,-24.5"/>
<text text-anchor="start" x="1089" y="-42.5" font-family="Helvetica,sans-Serif" font-size="10.00">nars.storage.Memory.immediate</text>
<text text-anchor="middle" x="1159.5" y="-31.5" font-family="Helvetica,sans-Serif" font-size="10.00">Process</text>
</a>
</g>
</g>
<!-- Node626&#45;&gt;Node627 -->
<g id="edge6" class="edge"><title>Node626&#45;&gt;Node627</title>
<path fill="none" stroke="midnightblue" d="M1055.49,-39.5C1063.85,-39.5 1072.39,-39.5 1080.8,-39.5"/>
<polygon fill="midnightblue" stroke="midnightblue" points="1055.4,-36.0001 1045.4,-39.5 1055.4,-43.0001 1055.4,-36.0001"/>
</g>
<!-- Node628 -->
<g id="node8" class="node"><title>Node628</title>
<g id="a_node8"><a xlink:href="../../d4/d27/a00392.html#ae43b86074c0d8f6a324696f69faa54b3" target="_top" xlink:title="Process the newTasks accumulated in the previous workCycle, accept input ones and those that correspo...">
<polygon fill="none" stroke="black" points="1274,-49.5 1274,-79.5 1420,-79.5 1420,-49.5 1274,-49.5"/>
<text text-anchor="start" x="1282" y="-67.5" font-family="Helvetica,sans-Serif" font-size="10.00">nars.storage.Memory.process</text>
<text text-anchor="middle" x="1347" y="-56.5" font-family="Helvetica,sans-Serif" font-size="10.00">NewTask</text>
</a>
</g>
</g>
<!-- Node627&#45;&gt;Node628 -->
<g id="edge7" class="edge"><title>Node627&#45;&gt;Node628</title>
<path fill="none" stroke="midnightblue" d="M1248.12,-51.3093C1256.71,-52.466 1265.35,-53.6306 1273.75,-54.7633"/>
<polygon fill="midnightblue" stroke="midnightblue" points="1248.47,-47.8245 1238.09,-49.9574 1247.54,-54.7618 1248.47,-47.8245"/>
</g>
<!-- Node635 -->
<g id="node15" class="node"><title>Node635</title>
<g id="a_node15"><a xlink:href="../../d4/d27/a00392.html#a5061708f88897cfdf4e0671c846762ca" target="_top" xlink:title="Select a novel task to process. ">
<polygon fill="none" stroke="black" points="1274,-0.5 1274,-30.5 1420,-30.5 1420,-0.5 1274,-0.5"/>
<text text-anchor="start" x="1282" y="-18.5" font-family="Helvetica,sans-Serif" font-size="10.00">nars.storage.Memory.process</text>
<text text-anchor="middle" x="1347" y="-7.5" font-family="Helvetica,sans-Serif" font-size="10.00">NovelTask</text>
</a>
</g>
</g>
<!-- Node627&#45;&gt;Node635 -->
<g id="edge14" class="edge"><title>Node627&#45;&gt;Node635</title>
<path fill="none" stroke="midnightblue" d="M1248.12,-28.1631C1256.71,-27.0527 1265.35,-25.9346 1273.75,-24.8472"/>
<polygon fill="midnightblue" stroke="midnightblue" points="1247.56,-24.7066 1238.09,-29.4609 1248.46,-31.6488 1247.56,-24.7066"/>
</g>
<!-- Node629 -->
<g id="node9" class="node"><title>Node629</title>
<g id="a_node9"><a xlink:href="../../d4/d27/a00392.html#a59ae339d666409988d90d29be4f73a91" target="_top" xlink:title="An atomic working workCycle of the system: process new Tasks, then fireFromProcessConcept a concept...">
<polygon fill="none" stroke="black" points="1456,-24.5 1456,-54.5 1589,-54.5 1589,-24.5 1456,-24.5"/>
<text text-anchor="start" x="1464" y="-42.5" font-family="Helvetica,sans-Serif" font-size="10.00">nars.storage.Memory.work</text>
<text text-anchor="middle" x="1522.5" y="-31.5" font-family="Helvetica,sans-Serif" font-size="10.00">Cycle</text>
</a>
</g>
</g>
<!-- Node628&#45;&gt;Node629 -->
<g id="edge8" class="edge"><title>Node628&#45;&gt;Node629</title>
<path fill="none" stroke="midnightblue" d="M1430.12,-52.6675C1438.72,-51.4286 1447.37,-50.1809 1455.76,-48.9733"/>
<polygon fill="midnightblue" stroke="midnightblue" points="1429.47,-49.2244 1420.07,-54.1149 1430.47,-56.1529 1429.47,-49.2244"/>
</g>
<!-- Node630 -->
<g id="node10" class="node"><title>Node630</title>
<g id="a_node10"><a xlink:href="../../df/d15/a00416.html#a0d5c797dc17d9e8d0998852915e0f303" target="_top" xlink:title="nars.storage.ReasonerBatch.doTick">
<polygon fill="none" stroke="black" points="1625,-30 1625,-49 1798,-49 1798,-30 1625,-30"/>
<text text-anchor="middle" x="1711.5" y="-37" font-family="Helvetica,sans-Serif" font-size="10.00">nars.storage.ReasonerBatch.doTick</text>
</a>
</g>
</g>
<!-- Node629&#45;&gt;Node630 -->
<g id="edge9" class="edge"><title>Node629&#45;&gt;Node630</title>
<path fill="none" stroke="midnightblue" d="M1599.34,-39.5C1607.78,-39.5 1616.42,-39.5 1624.97,-39.5"/>
<polygon fill="midnightblue" stroke="midnightblue" points="1599.17,-36.0001 1589.17,-39.5 1599.17,-43.0001 1599.17,-36.0001"/>
</g>
<!-- Node631 -->
<g id="node11" class="node"><title>Node631</title>
<g id="a_node11"><a xlink:href="../../df/d15/a00416.html#a3468aa0f99edcd66412f27922dddb880" target="_top" xlink:title="A clock tick. ">
<polygon fill="none" stroke="black" points="1834,-30 1834,-49 1994,-49 1994,-30 1834,-30"/>
<text text-anchor="middle" x="1914" y="-37" font-family="Helvetica,sans-Serif" font-size="10.00">nars.storage.ReasonerBatch.tick</text>
</a>
</g>
</g>
<!-- Node630&#45;&gt;Node631 -->
<g id="edge10" class="edge"><title>Node630&#45;&gt;Node631</title>
<path fill="none" stroke="midnightblue" d="M1808.13,-39.5C1816.7,-39.5 1825.31,-39.5 1833.71,-39.5"/>
<polygon fill="midnightblue" stroke="midnightblue" points="1808.11,-36.0001 1798.11,-39.5 1808.11,-43.0001 1808.11,-36.0001"/>
</g>
<!-- Node632 -->
<g id="node12" class="node"><title>Node632</title>
<g id="a_node12"><a xlink:href="../../d9/da1/a00396.html#a5d9cfe517bcfbe41e5251910bcd119c1" target="_top" xlink:title="Run to completion: repeatedly execute NARS working cycle, until Inputs are Finished, or 1000 steps. ">
<polygon fill="none" stroke="black" points="2030,-30 2030,-49 2174,-49 2174,-30 2030,-30"/>
<text text-anchor="middle" x="2102" y="-37" font-family="Helvetica,sans-Serif" font-size="10.00">nars.storage.NARSBatch.run</text>
</a>
</g>
</g>
<!-- Node631&#45;&gt;Node632 -->
<g id="edge11" class="edge"><title>Node631&#45;&gt;Node632</title>
<path fill="none" stroke="midnightblue" d="M2004.22,-39.5C2012.82,-39.5 2021.47,-39.5 2029.87,-39.5"/>
<polygon fill="midnightblue" stroke="midnightblue" points="2004.15,-36.0001 1994.15,-39.5 2004.15,-43.0001 2004.15,-36.0001"/>
</g>
<!-- Node633 -->
<g id="node13" class="node"><title>Node633</title>
<g id="a_node13"><a xlink:href="../../d9/da1/a00396.html#a7c307c6b842f82664de6b0e52bdf8efc" target="_top" xlink:title="non&#45;static equivalent to main(String[]) : run to completion from an input file ">
<polygon fill="none" stroke="black" points="2210,-24.5 2210,-54.5 2354,-54.5 2354,-24.5 2210,-24.5"/>
<text text-anchor="start" x="2218" y="-42.5" font-family="Helvetica,sans-Serif" font-size="10.00">nars.storage.NARSBatch.run</text>
<text text-anchor="middle" x="2282" y="-31.5" font-family="Helvetica,sans-Serif" font-size="10.00">Inference</text>
</a>
</g>
</g>
<!-- Node632&#45;&gt;Node633 -->
<g id="edge12" class="edge"><title>Node632&#45;&gt;Node633</title>
<path fill="none" stroke="midnightblue" d="M2184.17,-39.5C2192.79,-39.5 2201.51,-39.5 2210,-39.5"/>
<polygon fill="midnightblue" stroke="midnightblue" points="2184.12,-36.0001 2174.12,-39.5 2184.12,-43.0001 2184.12,-36.0001"/>
</g>
<!-- Node634 -->
<g id="node14" class="node"><title>Node634</title>
<g id="a_node14"><a xlink:href="../../d9/da1/a00396.html#abafc597289bc2f6453b5cd0dd6634e54" target="_top" xlink:title="The entry point of the standalone application. ">
<polygon fill="none" stroke="black" points="2390,-30 2390,-49 2542,-49 2542,-30 2390,-30"/>
<text text-anchor="middle" x="2466" y="-37" font-family="Helvetica,sans-Serif" font-size="10.00">nars.storage.NARSBatch.main</text>
</a>
</g>
</g>
<!-- Node633&#45;&gt;Node634 -->
<g id="edge13" class="edge"><title>Node633&#45;&gt;Node634</title>
<path fill="none" stroke="midnightblue" d="M2364.17,-39.5C2372.76,-39.5 2381.48,-39.5 2390,-39.5"/>
<polygon fill="midnightblue" stroke="midnightblue" points="2364.15,-36.0001 2354.15,-39.5 2364.15,-43.0001 2364.15,-36.0001"/>
</g>
<!-- Node635&#45;&gt;Node629 -->
<g id="edge15" class="edge"><title>Node635&#45;&gt;Node629</title>
<path fill="none" stroke="midnightblue" d="M1430.12,-26.8592C1438.72,-28.0486 1447.37,-29.2464 1455.76,-30.4056"/>
<polygon fill="midnightblue" stroke="midnightblue" points="1430.46,-23.373 1420.07,-25.4697 1429.5,-30.307 1430.46,-23.373"/>
</g>
</g>
</svg>
        <g id="navigator" transform="translate(0 0)" fill="#404254">
                <rect fill="#f2f5e9" fill-opacity="0.5" stroke="#606060" stroke-width=".5" x="0" y="0" width="60" height="60"/>
                <use id="zoomplus" xlink:href="#zoomPlus" x="17" y="9" onmousedown="handleZoom(evt,'in')"/>
                <use id="zoomminus" xlink:href="#zoomMin" x="42" y="9" onmousedown="handleZoom(evt,'out')"/>
                <use id="reset" xlink:href="#resetDef" x="30" y="36" onmousedown="handleReset()"/>
                <g id="arrowUp" xlink:href="#dirArrow" transform="translate(30 24)" onmousedown="handlePan(0,-1)">
                  <use xlink:href="#rim" fill="#404040">
                        <set attributeName="fill" to="#808080" begin="arrowUp.mouseover" end="arrowUp.mouseout"/>
                  </use>
                  <path fill="none" stroke="white" stroke-width="1.5" d="M0,-3.0v7 M-2.5,-0.5L0,-3.0L2.5,-0.5"/>
                </g>
                <g id="arrowRight" xlink:href="#dirArrow" transform="rotate(90) translate(36 -43)" onmousedown="handlePan(1,0)">
                  <use xlink:href="#rim" fill="#404040">
                        <set attributeName="fill" to="#808080" begin="arrowRight.mouseover" end="arrowRight.mouseout"/>
                  </use>
                  <path fill="none" stroke="white" stroke-width="1.5" d="M0,-3.0v7 M-2.5,-0.5L0,-3.0L2.5,-0.5"/>
                </g>
                <g id="arrowDown" xlink:href="#dirArrow" transform="rotate(180) translate(-30 -48)" onmousedown="handlePan(0,1)">
                  <use xlink:href="#rim" fill="#404040">
                        <set attributeName="fill" to="#808080" begin="arrowDown.mouseover" end="arrowDown.mouseout"/>
                  </use>
                  <path fill="none" stroke="white" stroke-width="1.5" d="M0,-3.0v7 M-2.5,-0.5L0,-3.0L2.5,-0.5"/>
                </g>
                <g id="arrowLeft" xlink:href="#dirArrow" transform="rotate(270) translate(-36 17)" onmousedown="handlePan(-1,0)">
                  <use xlink:href="#rim" fill="#404040">
                        <set attributeName="fill" to="#808080" begin="arrowLeft.mouseover" end="arrowLeft.mouseout"/>
                  </use>
                  <path fill="none" stroke="white" stroke-width="1.5" d="M0,-3.0v7 M-2.5,-0.5L0,-3.0L2.5,-0.5"/>
                </g>
        </g>
        <svg viewBox="0 0 15 15" width="100%" height="30px" preserveAspectRatio="xMaxYMin meet">
         <g id="arrow_out" transform="scale(0.3 0.3)">
          <a xlink:href="a00196_acf3c7af84e64586a6b1d549f02bfeead_icgraph_org.svg" target="_base">
           <rect id="button" ry="5" rx="5" y="6" x="6" height="38" width="38"
                fill="#f2f5e9" fill-opacity="0.5" stroke="#606060" stroke-width="1.0"/>
           <path id="arrow"
             d="M 11.500037,31.436501 C 11.940474,20.09759 22.043105,11.32322 32.158766,21.979434 L 37.068811,17.246167 C 37.068811,17.246167 37.088388,32 37.088388,32 L 22.160133,31.978069 C 22.160133,31.978069 26.997745,27.140456 26.997745,27.140456 C 18.528582,18.264221 13.291696,25.230495 11.500037,31.436501 z"
             style="fill:#404040;"/>
          </a>
         </g>
        </svg>
</svg>
