<?xml version="1.0" encoding="UTF-8" standalone="no"?>
<!DOCTYPE svg PUBLIC "-//W3C//DTD SVG 1.1//EN"
 "http://www.w3.org/Graphics/SVG/1.1/DTD/svg11.dtd">
<!-- Generated by graphviz version 2.38.0 (20140413.2041)
 -->
<!-- Title: nars.entity.Concept.getQuestions Pages: 1 -->
<!--zoomable 176 -->
<svg id="main" version="1.1" xmlns="http://www.w3.org/2000/svg" xmlns:xlink="http://www.w3.org/1999/xlink" xml:space="preserve" onload="init(evt)">
<style type="text/css"><![CDATA[
.edge:hover path { stroke: red; }
.edge:hover polygon { stroke: red; fill: red; }
]]></style>
<script type="text/javascript"><![CDATA[
var edges = document.getElementsByTagName('g');
if (edges && edges.length) {
  for (var i=0;i<edges.length;i++) {
    if (edges[i].id.substr(0,4)=='edge') {
      edges[i].setAttribute('class','edge');
    }
  }
}
]]></script>
        <defs>
                <circle id="rim" cx="0" cy="0" r="7"/>
                <circle id="rim2" cx="0" cy="0" r="3.5"/>
                <g id="zoomPlus">
                        <use xlink:href="#rim" fill="#404040">
                                <set attributeName="fill" to="#808080" begin="zoomplus.mouseover" end="zoomplus.mouseout"/>
                        </use>
                        <path d="M-4,0h8M0,-4v8" fill="none" stroke="white" stroke-width="1.5" pointer-events="none"/>
                </g>
                <g id="zoomMin">
                        <use xlink:href="#rim" fill="#404040">
                                <set attributeName="fill" to="#808080" begin="zoomminus.mouseover" end="zoomminus.mouseout"/>
                        </use>
                        <path d="M-4,0h8" fill="none" stroke="white" stroke-width="1.5" pointer-events="none"/>
                </g>
                <g id="dirArrow">
                        <path fill="none" stroke="white" stroke-width="1.5" d="M0,-3.0v7 M-2.5,-0.5L0,-3.0L2.5,-0.5"/>
                </g>
               <g id="resetDef">
                       <use xlink:href="#rim2" fill="#404040">
                               <set attributeName="fill" to="#808080" begin="reset.mouseover" end="reset.mouseout"/>
                       </use>
               </g>
        </defs>

<script type="text/javascript">
var viewWidth = 2044;
var viewHeight = 176;
var sectionId = 'dynsection-23';
</script>
<script xlink:href="../../svgpan.js"/>
<svg id="graph" class="graph">
<g id="viewport">
<title>nars.entity.Concept.getQuestions</title>
<!-- Node637 -->
<g id="node1" class="node"><title>Node637</title>
<polygon fill="#bfbfbf" stroke="black" points="0,-68.5 0,-87.5 163,-87.5 163,-68.5 0,-68.5"/>
<text text-anchor="middle" x="81.5" y="-75.5" font-family="Helvetica,sans-Serif" font-size="10.00">nars.entity.Concept.getQuestions</text>
</g>
<!-- Node638 -->
<g id="node2" class="node"><title>Node638</title>
<g id="a_node2"><a xlink:href="../../d7/ded/a00196.html#a2b2088a51d2519fe76c791b6c6945409" target="_top" xlink:title="Collect direct isBelief, questions, and goals for display. ">
<polygon fill="none" stroke="black" points="211,-39 211,-69 347,-69 347,-39 211,-39"/>
<text text-anchor="start" x="219" y="-57" font-family="Helvetica,sans-Serif" font-size="10.00">nars.entity.Concept.display</text>
<text text-anchor="middle" x="279" y="-46" font-family="Helvetica,sans-Serif" font-size="10.00">Content</text>
</a>
</g>
</g>
<!-- Node637&#45;&gt;Node638 -->
<g id="edge1" class="edge"><title>Node637&#45;&gt;Node638</title>
<path fill="none" stroke="midnightblue" d="M169.997,-67.2587C183.749,-65.5705 197.775,-63.8487 210.969,-62.2289"/>
<polygon fill="midnightblue" stroke="midnightblue" points="169.547,-63.7876 160.048,-68.4801 170.4,-70.7355 169.547,-63.7876"/>
</g>
<!-- Node651 -->
<g id="node15" class="node"><title>Node651</title>
<g id="a_node15"><a xlink:href="../../d7/ded/a00196.html#a40cddcc82ee28a1cf5b1f4bc14e2b078" target="_top" xlink:title="To accept a new judgment as isBelief, and check for revisions and solutions. ">
<polygon fill="none" stroke="black" points="209,-137 209,-167 349,-167 349,-137 209,-137"/>
<text text-anchor="start" x="217" y="-155" font-family="Helvetica,sans-Serif" font-size="10.00">nars.entity.Concept.process</text>
<text text-anchor="middle" x="279" y="-144" font-family="Helvetica,sans-Serif" font-size="10.00">Judgment</text>
</a>
</g>
</g>
<!-- Node637&#45;&gt;Node651 -->
<g id="edge15" class="edge"><title>Node637&#45;&gt;Node651</title>
<path fill="none" stroke="midnightblue" d="M112.186,-91.819C135.514,-102.414 168.971,-117.033 199,-128 207.483,-131.098 216.574,-134.125 225.462,-136.928"/>
<polygon fill="midnightblue" stroke="midnightblue" points="113.397,-88.5244 102.848,-87.5467 110.485,-94.8899 113.397,-88.5244"/>
</g>
<!-- Node652 -->
<g id="node16" class="node"><title>Node652</title>
<g id="a_node16"><a xlink:href="../../d7/ded/a00196.html#a3900248991e7adb57e82231312337f8f" target="_top" xlink:title="To answer a question by existing beliefs. ">
<polygon fill="none" stroke="black" points="209,-88 209,-118 349,-118 349,-88 209,-88"/>
<text text-anchor="start" x="217" y="-106" font-family="Helvetica,sans-Serif" font-size="10.00">nars.entity.Concept.process</text>
<text text-anchor="middle" x="279" y="-95" font-family="Helvetica,sans-Serif" font-size="10.00">Question</text>
</a>
</g>
</g>
<!-- Node637&#45;&gt;Node652 -->
<g id="edge17" class="edge"><title>Node637&#45;&gt;Node652</title>
<path fill="none" stroke="midnightblue" d="M167.056,-88.8128C181.022,-90.5987 195.353,-92.4314 208.883,-94.1615"/>
<polygon fill="midnightblue" stroke="midnightblue" points="167.331,-85.3195 156.968,-87.5227 166.443,-92.263 167.331,-85.3195"/>
</g>
<!-- Node653 -->
<g id="node17" class="node"><title>Node653</title>
<g id="a_node17"><a xlink:href="../../d7/ded/a00196.html#a121514592016f7350b5a741db6465798" target="_top" xlink:title="called from NARSBatch ">
<polygon fill="none" stroke="black" points="199,-0.5 199,-19.5 359,-19.5 359,-0.5 199,-0.5"/>
<text text-anchor="middle" x="279" y="-7.5" font-family="Helvetica,sans-Serif" font-size="10.00">nars.entity.Concept.toStringLong</text>
</a>
</g>
</g>
<!-- Node637&#45;&gt;Node653 -->
<g id="edge19" class="edge"><title>Node637&#45;&gt;Node653</title>
<path fill="none" stroke="midnightblue" d="M111.625,-64.1937C134.892,-53.5462 168.536,-38.9969 199,-29 209.857,-25.4374 221.752,-22.2271 232.942,-19.5028"/>
<polygon fill="midnightblue" stroke="midnightblue" points="109.935,-61.119 102.328,-68.4934 112.873,-67.4725 109.935,-61.119"/>
</g>
<!-- Node639 -->
<g id="node3" class="node"><title>Node639</title>
<g id="a_node3"><a xlink:href="../../d7/ded/a00196.html#a9ea7c3154932d7a736c105eb55daeb5c" target="_top" xlink:title="Directly process a new task. ">
<polygon fill="none" stroke="black" points="402.5,-88 402.5,-118 531.5,-118 531.5,-88 402.5,-88"/>
<text text-anchor="start" x="410.5" y="-106" font-family="Helvetica,sans-Serif" font-size="10.00">nars.entity.Concept.direct</text>
<text text-anchor="middle" x="467" y="-95" font-family="Helvetica,sans-Serif" font-size="10.00">Process</text>
</a>
</g>
</g>
<!-- Node638&#45;&gt;Node639 -->
<g id="edge2" class="edge"><title>Node638&#45;&gt;Node639</title>
<path fill="none" stroke="midnightblue" d="M346.895,-71.6229C367.244,-76.9837 389.408,-82.8225 409.038,-87.9938"/>
<polygon fill="midnightblue" stroke="midnightblue" points="347.632,-68.1977 337.07,-69.0346 345.849,-74.9667 347.632,-68.1977"/>
</g>
<!-- Node649 -->
<g id="node13" class="node"><title>Node649</title>
<g id="a_node13"><a xlink:href="../../d7/ded/a00196.html#add08a37b7cf7b272838532c942c083a4" target="_top" xlink:title="Resume display, called from ConceptWindow only. ">
<polygon fill="none" stroke="black" points="405.5,-46.5 405.5,-65.5 528.5,-65.5 528.5,-46.5 405.5,-46.5"/>
<text text-anchor="middle" x="467" y="-53.5" font-family="Helvetica,sans-Serif" font-size="10.00">nars.entity.Concept.play</text>
</a>
</g>
</g>
<!-- Node638&#45;&gt;Node649 -->
<g id="edge13" class="edge"><title>Node638&#45;&gt;Node649</title>
<path fill="none" stroke="midnightblue" d="M357.547,-54.8338C373.537,-55.0058 390.153,-55.1844 405.434,-55.3488"/>
<polygon fill="midnightblue" stroke="midnightblue" points="357.187,-51.3299 347.15,-54.722 357.112,-58.3295 357.187,-51.3299"/>
</g>
<!-- Node650 -->
<g id="node14" class="node"><title>Node650</title>
<g id="a_node14"><a xlink:href="../../d7/ded/a00196.html#a5a010290c8c42603dd13387f415abf43" target="_top" xlink:title="Start displaying contents and links, called from ConceptWindow, TermWindow or Memory.processTask only. ">
<polygon fill="none" stroke="black" points="395,-8.5 395,-27.5 539,-27.5 539,-8.5 395,-8.5"/>
<text text-anchor="middle" x="467" y="-15.5" font-family="Helvetica,sans-Serif" font-size="10.00">nars.entity.Concept.startPlay</text>
</a>
</g>
</g>
<!-- Node638&#45;&gt;Node650 -->
<g id="edge14" class="edge"><title>Node638&#45;&gt;Node650</title>
<path fill="none" stroke="midnightblue" d="M356.97,-39.1025C377.181,-35.1909 398.432,-31.0777 416.75,-27.5322"/>
<polygon fill="midnightblue" stroke="midnightblue" points="356.303,-35.6666 347.15,-41.0032 357.633,-42.5391 356.303,-35.6666"/>
</g>
<!-- Node640 -->
<g id="node4" class="node"><title>Node640</title>
<g id="a_node4"><a xlink:href="../../d4/d27/a00392.html#af8d07412d21a441a5c7005a477b06468" target="_top" xlink:title="Immediate processing of a new task, in constant time Local processing, in one concept only...">
<polygon fill="none" stroke="black" points="575,-88 575,-118 732,-118 732,-88 575,-88"/>
<text text-anchor="start" x="583" y="-106" font-family="Helvetica,sans-Serif" font-size="10.00">nars.storage.Memory.immediate</text>
<text text-anchor="middle" x="653.5" y="-95" font-family="Helvetica,sans-Serif" font-size="10.00">Process</text>
</a>
</g>
</g>
<!-- Node639&#45;&gt;Node640 -->
<g id="edge3" class="edge"><title>Node639&#45;&gt;Node640</title>
<path fill="none" stroke="midnightblue" d="M541.965,-103C552.748,-103 563.879,-103 574.735,-103"/>
<polygon fill="midnightblue" stroke="midnightblue" points="541.753,-99.5001 531.753,-103 541.753,-106.5 541.753,-99.5001"/>
</g>
<!-- Node641 -->
<g id="node5" class="node"><title>Node641</title>
<g id="a_node5"><a xlink:href="../../d4/d27/a00392.html#ae43b86074c0d8f6a324696f69faa54b3" target="_top" xlink:title="Process the newTasks accumulated in the previous workCycle, accept input ones and those that correspo...">
<polygon fill="none" stroke="black" points="768,-113 768,-143 914,-143 914,-113 768,-113"/>
<text text-anchor="start" x="776" y="-131" font-family="Helvetica,sans-Serif" font-size="10.00">nars.storage.Memory.process</text>
<text text-anchor="middle" x="841" y="-120" font-family="Helvetica,sans-Serif" font-size="10.00">NewTask</text>
</a>
</g>
</g>
<!-- Node640&#45;&gt;Node641 -->
<g id="edge4" class="edge"><title>Node640&#45;&gt;Node641</title>
<path fill="none" stroke="midnightblue" d="M742.125,-114.809C750.707,-115.966 759.349,-117.131 767.754,-118.263"/>
<polygon fill="midnightblue" stroke="midnightblue" points="742.472,-111.324 732.094,-113.457 741.537,-118.262 742.472,-111.324"/>
</g>
<!-- Node648 -->
<g id="node12" class="node"><title>Node648</title>
<g id="a_node12"><a xlink:href="../../d4/d27/a00392.html#a5061708f88897cfdf4e0671c846762ca" target="_top" xlink:title="Select a novel task to process. ">
<polygon fill="none" stroke="black" points="768,-64 768,-94 914,-94 914,-64 768,-64"/>
<text text-anchor="start" x="776" y="-82" font-family="Helvetica,sans-Serif" font-size="10.00">nars.storage.Memory.process</text>
<text text-anchor="middle" x="841" y="-71" font-family="Helvetica,sans-Serif" font-size="10.00">NovelTask</text>
</a>
</g>
</g>
<!-- Node640&#45;&gt;Node648 -->
<g id="edge11" class="edge"><title>Node640&#45;&gt;Node648</title>
<path fill="none" stroke="midnightblue" d="M742.125,-91.6631C750.707,-90.5527 759.349,-89.4346 767.754,-88.3472"/>
<polygon fill="midnightblue" stroke="midnightblue" points="741.562,-88.2066 732.094,-92.9609 742.46,-95.1488 741.562,-88.2066"/>
</g>
<!-- Node642 -->
<g id="node6" class="node"><title>Node642</title>
<g id="a_node6"><a xlink:href="../../d4/d27/a00392.html#a59ae339d666409988d90d29be4f73a91" target="_top" xlink:title="An atomic working workCycle of the system: process new Tasks, then fireFromProcessConcept a concept...">
<polygon fill="none" stroke="black" points="950,-88 950,-118 1083,-118 1083,-88 950,-88"/>
<text text-anchor="start" x="958" y="-106" font-family="Helvetica,sans-Serif" font-size="10.00">nars.storage.Memory.work</text>
<text text-anchor="middle" x="1016.5" y="-95" font-family="Helvetica,sans-Serif" font-size="10.00">Cycle</text>
</a>
</g>
</g>
<!-- Node641&#45;&gt;Node642 -->
<g id="edge5" class="edge"><title>Node641&#45;&gt;Node642</title>
<path fill="none" stroke="midnightblue" d="M924.118,-116.168C932.716,-114.929 941.375,-113.681 949.755,-112.473"/>
<polygon fill="midnightblue" stroke="midnightblue" points="923.471,-112.724 914.072,-117.615 924.469,-119.653 923.471,-112.724"/>
</g>
<!-- Node643 -->
<g id="node7" class="node"><title>Node643</title>
<g id="a_node7"><a xlink:href="../../df/d15/a00416.html#a0d5c797dc17d9e8d0998852915e0f303" target="_top" xlink:title="nars.storage.ReasonerBatch.doTick">
<polygon fill="none" stroke="black" points="1119,-93.5 1119,-112.5 1292,-112.5 1292,-93.5 1119,-93.5"/>
<text text-anchor="middle" x="1205.5" y="-100.5" font-family="Helvetica,sans-Serif" font-size="10.00">nars.storage.ReasonerBatch.doTick</text>
</a>
</g>
</g>
<!-- Node642&#45;&gt;Node643 -->
<g id="edge6" class="edge"><title>Node642&#45;&gt;Node643</title>
<path fill="none" stroke="midnightblue" d="M1093.34,-103C1101.78,-103 1110.42,-103 1118.97,-103"/>
<polygon fill="midnightblue" stroke="midnightblue" points="1093.17,-99.5001 1083.17,-103 1093.17,-106.5 1093.17,-99.5001"/>
</g>
<!-- Node644 -->
<g id="node8" class="node"><title>Node644</title>
<g id="a_node8"><a xlink:href="../../df/d15/a00416.html#a3468aa0f99edcd66412f27922dddb880" target="_top" xlink:title="A clock tick. ">
<polygon fill="none" stroke="black" points="1328,-93.5 1328,-112.5 1488,-112.5 1488,-93.5 1328,-93.5"/>
<text text-anchor="middle" x="1408" y="-100.5" font-family="Helvetica,sans-Serif" font-size="10.00">nars.storage.ReasonerBatch.tick</text>
</a>
</g>
</g>
<!-- Node643&#45;&gt;Node644 -->
<g id="edge7" class="edge"><title>Node643&#45;&gt;Node644</title>
<path fill="none" stroke="midnightblue" d="M1302.13,-103C1310.7,-103 1319.31,-103 1327.71,-103"/>
<polygon fill="midnightblue" stroke="midnightblue" points="1302.11,-99.5001 1292.11,-103 1302.11,-106.5 1302.11,-99.5001"/>
</g>
<!-- Node645 -->
<g id="node9" class="node"><title>Node645</title>
<g id="a_node9"><a xlink:href="../../d9/da1/a00396.html#a5d9cfe517bcfbe41e5251910bcd119c1" target="_top" xlink:title="Run to completion: repeatedly execute NARS working cycle, until Inputs are Finished, or 1000 steps. ">
<polygon fill="none" stroke="black" points="1524,-93.5 1524,-112.5 1668,-112.5 1668,-93.5 1524,-93.5"/>
<text text-anchor="middle" x="1596" y="-100.5" font-family="Helvetica,sans-Serif" font-size="10.00">nars.storage.NARSBatch.run</text>
</a>
</g>
</g>
<!-- Node644&#45;&gt;Node645 -->
<g id="edge8" class="edge"><title>Node644&#45;&gt;Node645</title>
<path fill="none" stroke="midnightblue" d="M1498.22,-103C1506.82,-103 1515.47,-103 1523.87,-103"/>
<polygon fill="midnightblue" stroke="midnightblue" points="1498.15,-99.5001 1488.15,-103 1498.15,-106.5 1498.15,-99.5001"/>
</g>
<!-- Node646 -->
<g id="node10" class="node"><title>Node646</title>
<g id="a_node10"><a xlink:href="../../d9/da1/a00396.html#a7c307c6b842f82664de6b0e52bdf8efc" target="_top" xlink:title="non&#45;static equivalent to main(String[]) : run to completion from an input file ">
<polygon fill="none" stroke="black" points="1704,-88 1704,-118 1848,-118 1848,-88 1704,-88"/>
<text text-anchor="start" x="1712" y="-106" font-family="Helvetica,sans-Serif" font-size="10.00">nars.storage.NARSBatch.run</text>
<text text-anchor="middle" x="1776" y="-95" font-family="Helvetica,sans-Serif" font-size="10.00">Inference</text>
</a>
</g>
</g>
<!-- Node645&#45;&gt;Node646 -->
<g id="edge9" class="edge"><title>Node645&#45;&gt;Node646</title>
<path fill="none" stroke="midnightblue" d="M1678.17,-103C1686.79,-103 1695.51,-103 1704,-103"/>
<polygon fill="midnightblue" stroke="midnightblue" points="1678.12,-99.5001 1668.12,-103 1678.12,-106.5 1678.12,-99.5001"/>
</g>
<!-- Node647 -->
<g id="node11" class="node"><title>Node647</title>
<g id="a_node11"><a xlink:href="../../d9/da1/a00396.html#abafc597289bc2f6453b5cd0dd6634e54" target="_top" xlink:title="The entry point of the standalone application. ">
<polygon fill="none" stroke="black" points="1884,-93.5 1884,-112.5 2036,-112.5 2036,-93.5 1884,-93.5"/>
<text text-anchor="middle" x="1960" y="-100.5" font-family="Helvetica,sans-Serif" font-size="10.00">nars.storage.NARSBatch.main</text>
</a>
</g>
</g>
<!-- Node646&#45;&gt;Node647 -->
<g id="edge10" class="edge"><title>Node646&#45;&gt;Node647</title>
<path fill="none" stroke="midnightblue" d="M1858.17,-103C1866.76,-103 1875.48,-103 1884,-103"/>
<polygon fill="midnightblue" stroke="midnightblue" points="1858.15,-99.5001 1848.15,-103 1858.15,-106.5 1858.15,-99.5001"/>
</g>
<!-- Node648&#45;&gt;Node642 -->
<g id="edge12" class="edge"><title>Node648&#45;&gt;Node642</title>
<path fill="none" stroke="midnightblue" d="M924.118,-90.3592C932.716,-91.5486 941.375,-92.7464 949.755,-93.9056"/>
<polygon fill="midnightblue" stroke="midnightblue" points="924.458,-86.873 914.072,-88.9697 923.498,-93.807 924.458,-86.873"/>
</g>
<!-- Node651&#45;&gt;Node639 -->
<g id="edge16" class="edge"><title>Node651&#45;&gt;Node639</title>
<path fill="none" stroke="midnightblue" d="M346.895,-134.377C367.244,-129.016 389.408,-123.177 409.038,-118.006"/>
<polygon fill="midnightblue" stroke="midnightblue" points="345.849,-131.033 337.07,-136.965 347.632,-137.802 345.849,-131.033"/>
</g>
<!-- Node652&#45;&gt;Node639 -->
<g id="edge18" class="edge"><title>Node652&#45;&gt;Node639</title>
<path fill="none" stroke="midnightblue" d="M359.542,-103C373.796,-103 388.48,-103 402.217,-103"/>
<polygon fill="midnightblue" stroke="midnightblue" points="359.26,-99.5001 349.26,-103 359.26,-106.5 359.26,-99.5001"/>
</g>
</g>
</svg>
        <g id="navigator" transform="translate(0 0)" fill="#404254">
                <rect fill="#f2f5e9" fill-opacity="0.5" stroke="#606060" stroke-width=".5" x="0" y="0" width="60" height="60"/>
                <use id="zoomplus" xlink:href="#zoomPlus" x="17" y="9" onmousedown="handleZoom(evt,'in')"/>
                <use id="zoomminus" xlink:href="#zoomMin" x="42" y="9" onmousedown="handleZoom(evt,'out')"/>
                <use id="reset" xlink:href="#resetDef" x="30" y="36" onmousedown="handleReset()"/>
                <g id="arrowUp" xlink:href="#dirArrow" transform="translate(30 24)" onmousedown="handlePan(0,-1)">
                  <use xlink:href="#rim" fill="#404040">
                        <set attributeName="fill" to="#808080" begin="arrowUp.mouseover" end="arrowUp.mouseout"/>
                  </use>
                  <path fill="none" stroke="white" stroke-width="1.5" d="M0,-3.0v7 M-2.5,-0.5L0,-3.0L2.5,-0.5"/>
                </g>
                <g id="arrowRight" xlink:href="#dirArrow" transform="rotate(90) translate(36 -43)" onmousedown="handlePan(1,0)">
                  <use xlink:href="#rim" fill="#404040">
                        <set attributeName="fill" to="#808080" begin="arrowRight.mouseover" end="arrowRight.mouseout"/>
                  </use>
                  <path fill="none" stroke="white" stroke-width="1.5" d="M0,-3.0v7 M-2.5,-0.5L0,-3.0L2.5,-0.5"/>
                </g>
                <g id="arrowDown" xlink:href="#dirArrow" transform="rotate(180) translate(-30 -48)" onmousedown="handlePan(0,1)">
                  <use xlink:href="#rim" fill="#404040">
                        <set attributeName="fill" to="#808080" begin="arrowDown.mouseover" end="arrowDown.mouseout"/>
                  </use>
                  <path fill="none" stroke="white" stroke-width="1.5" d="M0,-3.0v7 M-2.5,-0.5L0,-3.0L2.5,-0.5"/>
                </g>
                <g id="arrowLeft" xlink:href="#dirArrow" transform="rotate(270) translate(-36 17)" onmousedown="handlePan(-1,0)">
                  <use xlink:href="#rim" fill="#404040">
                        <set attributeName="fill" to="#808080" begin="arrowLeft.mouseover" end="arrowLeft.mouseout"/>
                  </use>
                  <path fill="none" stroke="white" stroke-width="1.5" d="M0,-3.0v7 M-2.5,-0.5L0,-3.0L2.5,-0.5"/>
                </g>
        </g>
        <svg viewBox="0 0 15 15" width="100%" height="30px" preserveAspectRatio="xMaxYMin meet">
         <g id="arrow_out" transform="scale(0.3 0.3)">
          <a xlink:href="a00196_abf2fe7f5a84583c67322faa6bdfb9f7d_icgraph_org.svg" target="_base">
           <rect id="button" ry="5" rx="5" y="6" x="6" height="38" width="38"
                fill="#f2f5e9" fill-opacity="0.5" stroke="#606060" stroke-width="1.0"/>
           <path id="arrow"
             d="M 11.500037,31.436501 C 11.940474,20.09759 22.043105,11.32322 32.158766,21.979434 L 37.068811,17.246167 C 37.068811,17.246167 37.088388,32 37.088388,32 L 22.160133,31.978069 C 22.160133,31.978069 26.997745,27.140456 26.997745,27.140456 C 18.528582,18.264221 13.291696,25.230495 11.500037,31.436501 z"
             style="fill:#404040;"/>
          </a>
         </g>
        </svg>
</svg>
