<?xml version="1.0" encoding="UTF-8" standalone="no"?>
<!DOCTYPE svg PUBLIC "-//W3C//DTD SVG 1.1//EN"
 "http://www.w3.org/Graphics/SVG/1.1/DTD/svg11.dtd">
<!-- Generated by graphviz version 2.38.0 (20140413.2041)
 -->
<!-- Title: nars.entity.Concept.fireFromProcessConcept Pages: 1 -->
<svg width="1431pt" height="39pt"
 viewBox="0.00 0.00 1431.00 39.00" xmlns="http://www.w3.org/2000/svg" xmlns:xlink="http://www.w3.org/1999/xlink">
<g id="graph0" class="graph" transform="scale(1 1) rotate(0) translate(4 35)">
<title>nars.entity.Concept.fireFromProcessConcept</title>
<!-- Node509 -->
<g id="node1" class="node"><title>Node509</title>
<polygon fill="#bfbfbf" stroke="black" points="0,-0.5 0,-30.5 119,-30.5 119,-0.5 0,-0.5"/>
<text text-anchor="start" x="8" y="-18.5" font-family="Helvetica,sans-Serif" font-size="10.00">nars.entity.Concept.fire</text>
<text text-anchor="middle" x="59.5" y="-7.5" font-family="Helvetica,sans-Serif" font-size="10.00">FromProcessConcept</text>
</g>
<!-- Node510 -->
<g id="node2" class="node"><title>Node510</title>
<g id="a_node2"><a xlink:href="../../d4/d27/a00392.html#a0acc4adbf6a2462245da46bcb529746c" target="_top" xlink:title="Select a concept to fireFromProcessConcept. ">
<polygon fill="none" stroke="black" points="155,-0.5 155,-30.5 301,-30.5 301,-0.5 155,-0.5"/>
<text text-anchor="start" x="163" y="-18.5" font-family="Helvetica,sans-Serif" font-size="10.00">nars.storage.Memory.process</text>
<text text-anchor="middle" x="228" y="-7.5" font-family="Helvetica,sans-Serif" font-size="10.00">Concept</text>
</a>
</g>
</g>
<!-- Node509&#45;&gt;Node510 -->
<g id="edge1" class="edge"><title>Node509&#45;&gt;Node510</title>
<path fill="none" stroke="midnightblue" d="M129.337,-15.5C137.748,-15.5 146.361,-15.5 154.819,-15.5"/>
<polygon fill="midnightblue" stroke="midnightblue" points="129.202,-12.0001 119.202,-15.5 129.202,-19.0001 129.202,-12.0001"/>
</g>
<!-- Node511 -->
<g id="node3" class="node"><title>Node511</title>
<g id="a_node3"><a xlink:href="../../d4/d27/a00392.html#a59ae339d666409988d90d29be4f73a91" target="_top" xlink:title="An atomic working workCycle of the system: process new Tasks, then fireFromProcessConcept a concept...">
<polygon fill="none" stroke="black" points="337,-0.5 337,-30.5 470,-30.5 470,-0.5 337,-0.5"/>
<text text-anchor="start" x="345" y="-18.5" font-family="Helvetica,sans-Serif" font-size="10.00">nars.storage.Memory.work</text>
<text text-anchor="middle" x="403.5" y="-7.5" font-family="Helvetica,sans-Serif" font-size="10.00">Cycle</text>
</a>
</g>
</g>
<!-- Node510&#45;&gt;Node511 -->
<g id="edge2" class="edge"><title>Node510&#45;&gt;Node511</title>
<path fill="none" stroke="midnightblue" d="M311.118,-15.5C319.716,-15.5 328.375,-15.5 336.755,-15.5"/>
<polygon fill="midnightblue" stroke="midnightblue" points="311.072,-12.0001 301.072,-15.5 311.072,-19.0001 311.072,-12.0001"/>
</g>
<!-- Node512 -->
<g id="node4" class="node"><title>Node512</title>
<g id="a_node4"><a xlink:href="../../df/d15/a00416.html#a0d5c797dc17d9e8d0998852915e0f303" target="_top" xlink:title="nars.storage.ReasonerBatch.doTick">
<polygon fill="none" stroke="black" points="506,-6 506,-25 679,-25 679,-6 506,-6"/>
<text text-anchor="middle" x="592.5" y="-13" font-family="Helvetica,sans-Serif" font-size="10.00">nars.storage.ReasonerBatch.doTick</text>
</a>
</g>
</g>
<!-- Node511&#45;&gt;Node512 -->
<g id="edge3" class="edge"><title>Node511&#45;&gt;Node512</title>
<path fill="none" stroke="midnightblue" d="M480.343,-15.5C488.782,-15.5 497.421,-15.5 505.971,-15.5"/>
<polygon fill="midnightblue" stroke="midnightblue" points="480.166,-12.0001 470.166,-15.5 480.166,-19.0001 480.166,-12.0001"/>
</g>
<!-- Node513 -->
<g id="node5" class="node"><title>Node513</title>
<g id="a_node5"><a xlink:href="../../df/d15/a00416.html#a3468aa0f99edcd66412f27922dddb880" target="_top" xlink:title="A clock tick. ">
<polygon fill="none" stroke="black" points="715,-6 715,-25 875,-25 875,-6 715,-6"/>
<text text-anchor="middle" x="795" y="-13" font-family="Helvetica,sans-Serif" font-size="10.00">nars.storage.ReasonerBatch.tick</text>
</a>
</g>
</g>
<!-- Node512&#45;&gt;Node513 -->
<g id="edge4" class="edge"><title>Node512&#45;&gt;Node513</title>
<path fill="none" stroke="midnightblue" d="M689.131,-15.5C697.696,-15.5 706.306,-15.5 714.711,-15.5"/>
<polygon fill="midnightblue" stroke="midnightblue" points="689.112,-12.0001 679.112,-15.5 689.112,-19.0001 689.112,-12.0001"/>
</g>
<!-- Node514 -->
<g id="node6" class="node"><title>Node514</title>
<g id="a_node6"><a xlink:href="../../d9/da1/a00396.html#a5d9cfe517bcfbe41e5251910bcd119c1" target="_top" xlink:title="Run to completion: repeatedly execute NARS working cycle, until Inputs are Finished, or 1000 steps. ">
<polygon fill="none" stroke="black" points="911,-6 911,-25 1055,-25 1055,-6 911,-6"/>
<text text-anchor="middle" x="983" y="-13" font-family="Helvetica,sans-Serif" font-size="10.00">nars.storage.NARSBatch.run</text>
</a>
</g>
</g>
<!-- Node513&#45;&gt;Node514 -->
<g id="edge5" class="edge"><title>Node513&#45;&gt;Node514</title>
<path fill="none" stroke="midnightblue" d="M885.217,-15.5C893.824,-15.5 902.475,-15.5 910.873,-15.5"/>
<polygon fill="midnightblue" stroke="midnightblue" points="885.15,-12.0001 875.15,-15.5 885.15,-19.0001 885.15,-12.0001"/>
</g>
<!-- Node515 -->
<g id="node7" class="node"><title>Node515</title>
<g id="a_node7"><a xlink:href="../../d9/da1/a00396.html#a7c307c6b842f82664de6b0e52bdf8efc" target="_top" xlink:title="non&#45;static equivalent to main(String[]) : run to completion from an input file ">
<polygon fill="none" stroke="black" points="1091,-0.5 1091,-30.5 1235,-30.5 1235,-0.5 1091,-0.5"/>
<text text-anchor="start" x="1099" y="-18.5" font-family="Helvetica,sans-Serif" font-size="10.00">nars.storage.NARSBatch.run</text>
<text text-anchor="middle" x="1163" y="-7.5" font-family="Helvetica,sans-Serif" font-size="10.00">Inference</text>
</a>
</g>
</g>
<!-- Node514&#45;&gt;Node515 -->
<g id="edge6" class="edge"><title>Node514&#45;&gt;Node515</title>
<path fill="none" stroke="midnightblue" d="M1065.17,-15.5C1073.79,-15.5 1082.51,-15.5 1091,-15.5"/>
<polygon fill="midnightblue" stroke="midnightblue" points="1065.12,-12.0001 1055.12,-15.5 1065.12,-19.0001 1065.12,-12.0001"/>
</g>
<!-- Node516 -->
<g id="node8" class="node"><title>Node516</title>
<g id="a_node8"><a xlink:href="../../d9/da1/a00396.html#abafc597289bc2f6453b5cd0dd6634e54" target="_top" xlink:title="The entry point of the standalone application. ">
<polygon fill="none" stroke="black" points="1271,-6 1271,-25 1423,-25 1423,-6 1271,-6"/>
<text text-anchor="middle" x="1347" y="-13" font-family="Helvetica,sans-Serif" font-size="10.00">nars.storage.NARSBatch.main</text>
</a>
</g>
</g>
<!-- Node515&#45;&gt;Node516 -->
<g id="edge7" class="edge"><title>Node515&#45;&gt;Node516</title>
<path fill="none" stroke="midnightblue" d="M1245.17,-15.5C1253.76,-15.5 1262.48,-15.5 1271,-15.5"/>
<polygon fill="midnightblue" stroke="midnightblue" points="1245.15,-12.0001 1235.15,-15.5 1245.15,-19.0001 1245.15,-12.0001"/>
</g>
</g>
</svg>
