<?xml version="1.0" encoding="UTF-8" standalone="no"?>
<!DOCTYPE svg PUBLIC "-//W3C//DTD SVG 1.1//EN"
 "http://www.w3.org/Graphics/SVG/1.1/DTD/svg11.dtd">
<!-- Generated by graphviz version 2.38.0 (20140413.2041)
 -->
<!-- Title: nars.entity.Concept.buildTermLinks Pages: 1 -->
<svg width="756pt" height="301pt"
 viewBox="0.00 0.00 756.00 301.00" xmlns="http://www.w3.org/2000/svg" xmlns:xlink="http://www.w3.org/1999/xlink">
<g id="graph0" class="graph" transform="scale(1 1) rotate(0) translate(4 297)">
<title>nars.entity.Concept.buildTermLinks</title>
<!-- Node42 -->
<g id="node1" class="node"><title>Node42</title>
<polygon fill="#bfbfbf" stroke="black" points="0,-131.5 0,-161.5 125,-161.5 125,-131.5 0,-131.5"/>
<text text-anchor="start" x="8" y="-149.5" font-family="Helvetica,sans-Serif" font-size="10.00">nars.entity.Concept.build</text>
<text text-anchor="middle" x="62.5" y="-138.5" font-family="Helvetica,sans-Serif" font-size="10.00">TermLinks</text>
</g>
<!-- Node42&#45;&gt;Node42 -->
<g id="edge4" class="edge"><title>Node42&#45;&gt;Node42</title>
<path fill="none" stroke="midnightblue" d="M31.4798,-161.659C23.9998,-171.057 34.3398,-180 62.5,-180 79.6601,-180 90.2029,-176.679 94.1285,-171.958"/>
<polygon fill="midnightblue" stroke="midnightblue" points="97.6038,-171.435 93.5202,-161.659 90.616,-171.848 97.6038,-171.435"/>
</g>
<!-- Node43 -->
<g id="node2" class="node"><title>Node43</title>
<g id="a_node2"><a xlink:href="../../dd/da2/a00192.html#ae83b822f3bab4c1831e94d72fc770f58" target="_top" xlink:title="Whether the budget should get any processing at all. ">
<polygon fill="none" stroke="black" points="167,-262.5 167,-292.5 317,-292.5 317,-262.5 167,-262.5"/>
<text text-anchor="start" x="175" y="-280.5" font-family="Helvetica,sans-Serif" font-size="10.00">nars.entity.BudgetValue.above</text>
<text text-anchor="middle" x="242" y="-269.5" font-family="Helvetica,sans-Serif" font-size="10.00">Threshold</text>
</a>
</g>
</g>
<!-- Node42&#45;&gt;Node43 -->
<g id="edge1" class="edge"><title>Node42&#45;&gt;Node43</title>
<path fill="none" stroke="midnightblue" d="M73.5962,-161.843C89.5006,-184.838 122.566,-228.134 161,-252.5 164.199,-254.528 167.575,-256.402 171.058,-258.133"/>
<polygon fill="midnightblue" stroke="midnightblue" points="169.928,-261.463 180.483,-262.385 172.807,-255.082 169.928,-261.463"/>
</g>
<!-- Node46 -->
<g id="node5" class="node"><title>Node46</title>
<g id="a_node5"><a xlink:href="../../d7/ded/a00196.html#a2f26314b930446bede4492667d799bc4" target="_top" xlink:title="Distribute the budget of a task among the links to it. ">
<polygon fill="none" stroke="black" points="169.5,-213.5 169.5,-243.5 314.5,-243.5 314.5,-213.5 169.5,-213.5"/>
<text text-anchor="start" x="177.5" y="-231.5" font-family="Helvetica,sans-Serif" font-size="10.00">nars.entity.Concept.distribute</text>
<text text-anchor="middle" x="242" y="-220.5" font-family="Helvetica,sans-Serif" font-size="10.00">AmongLinks</text>
</a>
</g>
</g>
<!-- Node42&#45;&gt;Node46 -->
<g id="edge5" class="edge"><title>Node42&#45;&gt;Node46</title>
<path fill="none" stroke="midnightblue" d="M85.9679,-161.612C105.247,-174.089 134.097,-191.616 161,-203.5 166.287,-205.835 171.859,-208.048 177.5,-210.119"/>
<polygon fill="midnightblue" stroke="midnightblue" points="176.427,-213.452 187.022,-213.469 178.75,-206.849 176.427,-213.452"/>
</g>
<!-- Node47 -->
<g id="node6" class="node"><title>Node47</title>
<g id="a_node6"><a xlink:href="../../d4/d27/a00392.html#aca4bbc5804f617906c8c18c3d4d81a6c" target="_top" xlink:title="Get the Concept associated to a Term, or create it. ">
<polygon fill="none" stroke="black" points="161,-175 161,-194 323,-194 323,-175 161,-175"/>
<text text-anchor="middle" x="242" y="-182" font-family="Helvetica,sans-Serif" font-size="10.00">nars.storage.Memory.getConcept</text>
</a>
</g>
</g>
<!-- Node42&#45;&gt;Node47 -->
<g id="edge6" class="edge"><title>Node42&#45;&gt;Node47</title>
<path fill="none" stroke="midnightblue" d="M125.083,-159.684C145.12,-163.974 167.203,-168.701 186.67,-172.869"/>
<polygon fill="midnightblue" stroke="midnightblue" points="186.076,-176.321 196.588,-174.992 187.542,-169.476 186.076,-176.321"/>
</g>
<!-- Node53 -->
<g id="node12" class="node"><title>Node53</title>
<g id="a_node12"><a xlink:href="../../d7/ded/a00196.html#af183e45bae19d651cbc05e609617b726" target="_top" xlink:title="Reference to the memory. ">
<polygon fill="none" stroke="black" points="165,-137 165,-156 319,-156 319,-137 165,-137"/>
<text text-anchor="middle" x="242" y="-144" font-family="Helvetica,sans-Serif" font-size="10.00">nars.entity.Concept.getMemory</text>
</a>
</g>
</g>
<!-- Node42&#45;&gt;Node53 -->
<g id="edge12" class="edge"><title>Node42&#45;&gt;Node53</title>
<path fill="none" stroke="midnightblue" d="M125.083,-146.5C134.695,-146.5 144.778,-146.5 154.817,-146.5"/>
<polygon fill="midnightblue" stroke="midnightblue" points="154.823,-150 164.823,-146.5 154.823,-143 154.823,-150"/>
</g>
<!-- Node54 -->
<g id="node13" class="node"><title>Node54</title>
<g id="a_node13"><a xlink:href="../../d7/ded/a00196.html#afcd1217b7680b073fa51f0d0f159dcea" target="_top" xlink:title="The term is the unique ID of the concept. ">
<polygon fill="none" stroke="black" points="171.5,-99 171.5,-118 312.5,-118 312.5,-99 171.5,-99"/>
<text text-anchor="middle" x="242" y="-106" font-family="Helvetica,sans-Serif" font-size="10.00">nars.entity.Concept.getTerm</text>
</a>
</g>
</g>
<!-- Node42&#45;&gt;Node54 -->
<g id="edge13" class="edge"><title>Node42&#45;&gt;Node54</title>
<path fill="none" stroke="midnightblue" d="M125.083,-133.316C145.12,-129.026 167.203,-124.299 186.67,-120.131"/>
<polygon fill="midnightblue" stroke="midnightblue" points="187.542,-123.524 196.588,-118.008 186.076,-116.679 187.542,-123.524"/>
</g>
<!-- Node55 -->
<g id="node14" class="node"><title>Node55</title>
<g id="a_node14"><a xlink:href="../../d7/ded/a00196.html#a4ca0670094e7a1e098fb17388bf8353c" target="_top" xlink:title="Link templates of TermLink, only in concepts with CompoundTerm jmv TODO explain more. ">
<polygon fill="none" stroke="black" points="171.5,-49.5 171.5,-79.5 312.5,-79.5 312.5,-49.5 171.5,-49.5"/>
<text text-anchor="start" x="179.5" y="-67.5" font-family="Helvetica,sans-Serif" font-size="10.00">nars.entity.Concept.getTerm</text>
<text text-anchor="middle" x="242" y="-56.5" font-family="Helvetica,sans-Serif" font-size="10.00">LinkTemplates</text>
</a>
</g>
</g>
<!-- Node42&#45;&gt;Node55 -->
<g id="edge14" class="edge"><title>Node42&#45;&gt;Node55</title>
<path fill="none" stroke="midnightblue" d="M85.9679,-131.388C105.247,-118.911 134.097,-101.384 161,-89.5 166.287,-87.1647 171.859,-84.9522 177.5,-82.8807"/>
<polygon fill="midnightblue" stroke="midnightblue" points="178.75,-86.1512 187.022,-79.5307 176.427,-79.548 178.75,-86.1512"/>
</g>
<!-- Node56 -->
<g id="node15" class="node"><title>Node56</title>
<g id="a_node15"><a xlink:href="../../d7/ded/a00196.html#a3c69b71b1987ca4066c9b3d2a7973dd1" target="_top" xlink:title="Insert a TermLink into the TermLink bag. ">
<polygon fill="none" stroke="black" points="177.5,-0.5 177.5,-30.5 306.5,-30.5 306.5,-0.5 177.5,-0.5"/>
<text text-anchor="start" x="185.5" y="-18.5" font-family="Helvetica,sans-Serif" font-size="10.00">nars.entity.Concept.insert</text>
<text text-anchor="middle" x="242" y="-7.5" font-family="Helvetica,sans-Serif" font-size="10.00">TermLink</text>
</a>
</g>
</g>
<!-- Node42&#45;&gt;Node56 -->
<g id="edge15" class="edge"><title>Node42&#45;&gt;Node56</title>
<path fill="none" stroke="midnightblue" d="M73.2671,-131.335C88.9772,-108.146 122.074,-63.9937 161,-39.5 163.616,-37.8541 166.35,-36.316 169.166,-34.879"/>
<polygon fill="midnightblue" stroke="midnightblue" points="170.773,-37.9924 178.387,-30.626 167.841,-31.6358 170.773,-37.9924"/>
</g>
<!-- Node44 -->
<g id="node3" class="node"><title>Node44</title>
<g id="a_node3"><a xlink:href="../../dd/da2/a00192.html#af414899759992288edbba78d7457c534" target="_top" xlink:title="To summarize a BudgetValue into a single number in [0, 1]. ">
<polygon fill="none" stroke="black" points="360.5,-268 360.5,-287 524.5,-287 524.5,-268 360.5,-268"/>
<text text-anchor="middle" x="442.5" y="-275" font-family="Helvetica,sans-Serif" font-size="10.00">nars.entity.BudgetValue.summary</text>
</a>
</g>
</g>
<!-- Node43&#45;&gt;Node44 -->
<g id="edge2" class="edge"><title>Node43&#45;&gt;Node44</title>
<path fill="none" stroke="midnightblue" d="M317.196,-277.5C327.988,-277.5 339.203,-277.5 350.283,-277.5"/>
<polygon fill="midnightblue" stroke="midnightblue" points="350.405,-281 360.405,-277.5 350.405,-274 350.405,-281"/>
</g>
<!-- Node45 -->
<g id="node4" class="node"><title>Node45</title>
<g id="a_node4"><a xlink:href="../../db/d12/a00268.html#ae9f34c27ee5675fa2b97f2def9e1fb99" target="_top" xlink:title="A function where the output is the geometric average the inputs. ">
<polygon fill="none" stroke="black" points="562,-268 562,-287 748,-287 748,-268 562,-268"/>
<text text-anchor="middle" x="655" y="-275" font-family="Helvetica,sans-Serif" font-size="10.00">nars.inference.UtilityFunctions.aveGeo</text>
</a>
</g>
</g>
<!-- Node44&#45;&gt;Node45 -->
<g id="edge3" class="edge"><title>Node44&#45;&gt;Node45</title>
<path fill="none" stroke="midnightblue" d="M524.584,-277.5C533.419,-277.5 542.495,-277.5 551.543,-277.5"/>
<polygon fill="midnightblue" stroke="midnightblue" points="551.733,-281 561.733,-277.5 551.733,-274 551.733,-281"/>
</g>
<!-- Node48 -->
<g id="node7" class="node"><title>Node48</title>
<g id="a_node7"><a xlink:href="../../dc/d59/a00364.html#a88297bdbbfb5f3e292783647b14f0c70" target="_top" xlink:title="Check whether the current Term can name a Concept. ">
<polygon fill="none" stroke="black" points="366,-221 366,-240 519,-240 519,-221 366,-221"/>
<text text-anchor="middle" x="442.5" y="-228" font-family="Helvetica,sans-Serif" font-size="10.00">nars.language.Term.isConstant</text>
</a>
</g>
</g>
<!-- Node47&#45;&gt;Node48 -->
<g id="edge7" class="edge"><title>Node47&#45;&gt;Node48</title>
<path fill="none" stroke="midnightblue" d="M283.794,-194.02C306.025,-199.201 334.021,-205.717 359,-211.5 368.988,-213.812 379.657,-216.275 389.895,-218.635"/>
<polygon fill="midnightblue" stroke="midnightblue" points="389.418,-222.116 399.949,-220.951 390.99,-215.295 389.418,-222.116"/>
</g>
<!-- Node49 -->
<g id="node8" class="node"><title>Node49</title>
<g id="a_node8"><a xlink:href="../../d4/d27/a00392.html#a33af7b3d806d32c85390563fec3c6d27" target="_top" xlink:title="Concept bag. ">
<polygon fill="none" stroke="black" points="359,-183 359,-202 526,-202 526,-183 359,-183"/>
<text text-anchor="middle" x="442.5" y="-190" font-family="Helvetica,sans-Serif" font-size="10.00">nars.storage.Memory.getConcepts</text>
</a>
</g>
</g>
<!-- Node47&#45;&gt;Node49 -->
<g id="edge8" class="edge"><title>Node47&#45;&gt;Node49</title>
<path fill="none" stroke="midnightblue" d="M323.165,-187.731C331.595,-188.071 340.216,-188.418 348.772,-188.763"/>
<polygon fill="midnightblue" stroke="midnightblue" points="348.637,-192.26 358.77,-189.166 348.919,-185.266 348.637,-192.26"/>
</g>
<!-- Node50 -->
<g id="node9" class="node"><title>Node50</title>
<g id="a_node9"><a xlink:href="../../d6/db8/a00376.html#a011b37fc683db7fb7b41e33712a37d92" target="_top" xlink:title="Get an Item by key. ">
<polygon fill="none" stroke="black" points="389,-145 389,-164 496,-164 496,-145 389,-145"/>
<text text-anchor="middle" x="442.5" y="-152" font-family="Helvetica,sans-Serif" font-size="10.00">nars.storage.Bag.get</text>
</a>
</g>
</g>
<!-- Node47&#45;&gt;Node50 -->
<g id="edge9" class="edge"><title>Node47&#45;&gt;Node50</title>
<path fill="none" stroke="midnightblue" d="M306.079,-174.967C329.318,-171.454 355.622,-167.479 378.825,-163.972"/>
<polygon fill="midnightblue" stroke="midnightblue" points="379.538,-167.404 388.902,-162.449 378.492,-160.483 379.538,-167.404"/>
</g>
<!-- Node51 -->
<g id="node10" class="node"><title>Node51</title>
<g id="a_node10"><a xlink:href="../../dc/d59/a00364.html#a3aad4654016b8615fd4fa8a26668e1db" target="_top" xlink:title="Reporting the name of the current Term. ">
<polygon fill="none" stroke="black" points="369.5,-107 369.5,-126 515.5,-126 515.5,-107 369.5,-107"/>
<text text-anchor="middle" x="442.5" y="-114" font-family="Helvetica,sans-Serif" font-size="10.00">nars.language.Term.getName</text>
</a>
</g>
</g>
<!-- Node47&#45;&gt;Node51 -->
<g id="edge10" class="edge"><title>Node47&#45;&gt;Node51</title>
<path fill="none" stroke="midnightblue" d="M298.406,-174.882C306.877,-172.413 315.34,-169.333 323,-165.5 341.626,-156.18 340.343,-144.756 359,-135.5 363.855,-133.091 369.023,-130.982 374.314,-129.136"/>
<polygon fill="midnightblue" stroke="midnightblue" points="375.451,-132.448 383.927,-126.091 373.337,-125.775 375.451,-132.448"/>
</g>
<!-- Node52 -->
<g id="node11" class="node"><title>Node52</title>
<g id="a_node11"><a xlink:href="../../d6/db8/a00376.html#a9d42fa45681a07796750a350e08d095b" target="_top" xlink:title="Add a new Item into the Bag. ">
<polygon fill="none" stroke="black" points="384.5,-64 384.5,-83 500.5,-83 500.5,-64 384.5,-64"/>
<text text-anchor="middle" x="442.5" y="-71" font-family="Helvetica,sans-Serif" font-size="10.00">nars.storage.Bag.putIn</text>
</a>
</g>
</g>
<!-- Node47&#45;&gt;Node52 -->
<g id="edge11" class="edge"><title>Node47&#45;&gt;Node52</title>
<path fill="none" stroke="midnightblue" d="M306.502,-174.899C312.409,-172.428 318.032,-169.344 323,-165.5 350.045,-144.573 332.485,-119.095 359,-97.5 364.206,-93.2595 370.133,-89.7683 376.365,-86.8939"/>
<polygon fill="midnightblue" stroke="midnightblue" points="377.723,-90.1199 385.666,-83.1085 375.085,-83.6363 377.723,-90.1199"/>
</g>
<!-- Node56&#45;&gt;Node52 -->
<g id="edge17" class="edge"><title>Node56&#45;&gt;Node52</title>
<path fill="none" stroke="midnightblue" d="M294.377,-30.5119C326.783,-39.9808 368.144,-52.0661 398.753,-61.0098"/>
<polygon fill="midnightblue" stroke="midnightblue" points="398.113,-64.4689 408.693,-63.9141 400.076,-57.7499 398.113,-64.4689"/>
</g>
<!-- Node57 -->
<g id="node16" class="node"><title>Node57</title>
<g id="a_node16"><a xlink:href="../../d7/ded/a00196.html#a9f031bcf593e4c6f27e82d2b97a2d83d" target="_top" xlink:title="Term links between the term and its components and compounds. ">
<polygon fill="none" stroke="black" points="372,-0.5 372,-30.5 513,-30.5 513,-0.5 372,-0.5"/>
<text text-anchor="start" x="380" y="-18.5" font-family="Helvetica,sans-Serif" font-size="10.00">nars.entity.Concept.getTerm</text>
<text text-anchor="middle" x="442.5" y="-7.5" font-family="Helvetica,sans-Serif" font-size="10.00">Links</text>
</a>
</g>
</g>
<!-- Node56&#45;&gt;Node57 -->
<g id="edge16" class="edge"><title>Node56&#45;&gt;Node57</title>
<path fill="none" stroke="midnightblue" d="M306.626,-15.5C324.135,-15.5 343.35,-15.5 361.65,-15.5"/>
<polygon fill="midnightblue" stroke="midnightblue" points="361.706,-19.0001 371.706,-15.5 361.705,-12.0001 361.706,-19.0001"/>
</g>
</g>
</svg>
