<?xml version="1.0" encoding="UTF-8" standalone="no"?>
<!DOCTYPE svg PUBLIC "-//W3C//DTD SVG 1.1//EN"
 "http://www.w3.org/Graphics/SVG/1.1/DTD/svg11.dtd">
<!-- Generated by graphviz version 2.38.0 (20140413.2041)
 -->
<!-- Title: nars.entity.Concept.startPlay Pages: 1 -->
<!--zoomable 390 -->
<svg id="main" version="1.1" xmlns="http://www.w3.org/2000/svg" xmlns:xlink="http://www.w3.org/1999/xlink" xml:space="preserve" onload="init(evt)">
<style type="text/css"><![CDATA[
.edge:hover path { stroke: red; }
.edge:hover polygon { stroke: red; fill: red; }
]]></style>
<script type="text/javascript"><![CDATA[
var edges = document.getElementsByTagName('g');
if (edges && edges.length) {
  for (var i=0;i<edges.length;i++) {
    if (edges[i].id.substr(0,4)=='edge') {
      edges[i].setAttribute('class','edge');
    }
  }
}
]]></script>
        <defs>
                <circle id="rim" cx="0" cy="0" r="7"/>
                <circle id="rim2" cx="0" cy="0" r="3.5"/>
                <g id="zoomPlus">
                        <use xlink:href="#rim" fill="#404040">
                                <set attributeName="fill" to="#808080" begin="zoomplus.mouseover" end="zoomplus.mouseout"/>
                        </use>
                        <path d="M-4,0h8M0,-4v8" fill="none" stroke="white" stroke-width="1.5" pointer-events="none"/>
                </g>
                <g id="zoomMin">
                        <use xlink:href="#rim" fill="#404040">
                                <set attributeName="fill" to="#808080" begin="zoomminus.mouseover" end="zoomminus.mouseout"/>
                        </use>
                        <path d="M-4,0h8" fill="none" stroke="white" stroke-width="1.5" pointer-events="none"/>
                </g>
                <g id="dirArrow">
                        <path fill="none" stroke="white" stroke-width="1.5" d="M0,-3.0v7 M-2.5,-0.5L0,-3.0L2.5,-0.5"/>
                </g>
               <g id="resetDef">
                       <use xlink:href="#rim2" fill="#404040">
                               <set attributeName="fill" to="#808080" begin="reset.mouseover" end="reset.mouseout"/>
                       </use>
               </g>
        </defs>

<script type="text/javascript">
var viewWidth = 560;
var viewHeight = 390;
var sectionId = 'dynsection-49';
</script>
<script xlink:href="../../svgpan.js"/>
<svg id="graph" class="graph">
<g id="viewport">
<title>nars.entity.Concept.startPlay</title>
<!-- Node1124 -->
<g id="node1" class="node"><title>Node1124</title>
<polygon fill="#bfbfbf" stroke="black" points="0,-176.5 0,-195.5 144,-195.5 144,-176.5 0,-176.5"/>
<text text-anchor="middle" x="72" y="-183.5" font-family="Helvetica,sans-Serif" font-size="10.00">nars.entity.Concept.startPlay</text>
</g>
<!-- Node1125 -->
<g id="node2" class="node"><title>Node1125</title>
<g id="a_node2"><a xlink:href="../../d6/db8/a00376.html#a73a559e1b77e6bc3a7db686816accef2" target="_top" xlink:title="To start displaying the Bag in a BagWindow. ">
<polygon fill="none" stroke="black" points="183,-362.5 183,-381.5 350,-381.5 350,-362.5 183,-362.5"/>
<text text-anchor="middle" x="266.5" y="-369.5" font-family="Helvetica,sans-Serif" font-size="10.00">nars.storage.Bag.addBagObserver</text>
</a>
</g>
</g>
<!-- Node1124&#45;&gt;Node1125 -->
<g id="edge1" class="edge"><title>Node1124&#45;&gt;Node1125</title>
<path fill="none" stroke="midnightblue" d="M76.2353,-195.809C86.3723,-224.922 120.441,-311.389 180,-353 182.742,-354.916 185.645,-356.643 188.659,-358.199"/>
<polygon fill="midnightblue" stroke="midnightblue" points="187.435,-361.486 197.993,-362.374 190.294,-355.096 187.435,-361.486"/>
</g>
<!-- Node1126 -->
<g id="node3" class="node"><title>Node1126</title>
<g id="a_node3"><a xlink:href="../../d1/d72/a00204.html#a58888a42bc7ce9a40165517c8ca81667" target="_top" xlink:title="nars.entity.EntityObserver.create\lBagObserver">
<polygon fill="none" stroke="black" points="186,-313 186,-343 347,-343 347,-313 186,-313"/>
<text text-anchor="start" x="194" y="-331" font-family="Helvetica,sans-Serif" font-size="10.00">nars.entity.EntityObserver.create</text>
<text text-anchor="middle" x="266.5" y="-320" font-family="Helvetica,sans-Serif" font-size="10.00">BagObserver</text>
</a>
</g>
</g>
<!-- Node1124&#45;&gt;Node1126 -->
<g id="edge2" class="edge"><title>Node1124&#45;&gt;Node1126</title>
<path fill="none" stroke="midnightblue" d="M78.9327,-195.614C93.3374,-218.134 132.492,-274.614 180,-304 182.667,-305.65 185.451,-307.189 188.315,-308.625"/>
<polygon fill="midnightblue" stroke="midnightblue" points="187.14,-311.935 197.694,-312.867 190.025,-305.557 187.14,-311.935"/>
</g>
<!-- Node1127 -->
<g id="node4" class="node"><title>Node1127</title>
<g id="a_node4"><a xlink:href="../../d7/ded/a00196.html#a2b2088a51d2519fe76c791b6c6945409" target="_top" xlink:title="Collect direct isBelief, questions, and goals for display. ">
<polygon fill="none" stroke="black" points="198.5,-264 198.5,-294 334.5,-294 334.5,-264 198.5,-264"/>
<text text-anchor="start" x="206.5" y="-282" font-family="Helvetica,sans-Serif" font-size="10.00">nars.entity.Concept.display</text>
<text text-anchor="middle" x="266.5" y="-271" font-family="Helvetica,sans-Serif" font-size="10.00">Content</text>
</a>
</g>
</g>
<!-- Node1124&#45;&gt;Node1127 -->
<g id="edge3" class="edge"><title>Node1124&#45;&gt;Node1127</title>
<path fill="none" stroke="midnightblue" d="M85.1428,-195.58C104.289,-210.267 143.118,-238.388 180,-255 184.424,-256.993 189.052,-258.858 193.767,-260.597"/>
<polygon fill="midnightblue" stroke="midnightblue" points="192.936,-264.014 203.531,-263.991 195.234,-257.402 192.936,-264.014"/>
</g>
<!-- Node1130 -->
<g id="node7" class="node"><title>Node1130</title>
<g id="a_node7"><a xlink:href="../../d7/ded/a00196.html#acef3f846ea7bced858519c03e134498e" target="_top" xlink:title="Task links for indirect processing. ">
<polygon fill="none" stroke="black" points="196.5,-215 196.5,-245 336.5,-245 336.5,-215 196.5,-215"/>
<text text-anchor="start" x="204.5" y="-233" font-family="Helvetica,sans-Serif" font-size="10.00">nars.entity.Concept.getTask</text>
<text text-anchor="middle" x="266.5" y="-222" font-family="Helvetica,sans-Serif" font-size="10.00">Links</text>
</a>
</g>
</g>
<!-- Node1124&#45;&gt;Node1130 -->
<g id="edge6" class="edge"><title>Node1124&#45;&gt;Node1130</title>
<path fill="none" stroke="midnightblue" d="M114.77,-195.547C136.636,-200.545 164.097,-206.822 189.568,-212.644"/>
<polygon fill="midnightblue" stroke="midnightblue" points="189.061,-216.118 199.589,-214.935 190.62,-209.294 189.061,-216.118"/>
</g>
<!-- Node1131 -->
<g id="node8" class="node"><title>Node1131</title>
<g id="a_node8"><a xlink:href="../../d7/ded/a00196.html#afcd1217b7680b073fa51f0d0f159dcea" target="_top" xlink:title="The term is the unique ID of the concept. ">
<polygon fill="none" stroke="black" points="196,-176.5 196,-195.5 337,-195.5 337,-176.5 196,-176.5"/>
<text text-anchor="middle" x="266.5" y="-183.5" font-family="Helvetica,sans-Serif" font-size="10.00">nars.entity.Concept.getTerm</text>
</a>
</g>
</g>
<!-- Node1124&#45;&gt;Node1131 -->
<g id="edge7" class="edge"><title>Node1124&#45;&gt;Node1131</title>
<path fill="none" stroke="midnightblue" d="M144.133,-186C157.618,-186 171.81,-186 185.546,-186"/>
<polygon fill="midnightblue" stroke="midnightblue" points="185.941,-189.5 195.941,-186 185.941,-182.5 185.941,-189.5"/>
</g>
<!-- Node1132 -->
<g id="node9" class="node"><title>Node1132</title>
<g id="a_node9"><a xlink:href="../../d7/ded/a00196.html#a9f031bcf593e4c6f27e82d2b97a2d83d" target="_top" xlink:title="Term links between the term and its components and compounds. ">
<polygon fill="none" stroke="black" points="196,-127 196,-157 337,-157 337,-127 196,-127"/>
<text text-anchor="start" x="204" y="-145" font-family="Helvetica,sans-Serif" font-size="10.00">nars.entity.Concept.getTerm</text>
<text text-anchor="middle" x="266.5" y="-134" font-family="Helvetica,sans-Serif" font-size="10.00">Links</text>
</a>
</g>
</g>
<!-- Node1124&#45;&gt;Node1132 -->
<g id="edge8" class="edge"><title>Node1124&#45;&gt;Node1132</title>
<path fill="none" stroke="midnightblue" d="M114.77,-176.453C136.636,-171.455 164.097,-165.178 189.568,-159.356"/>
<polygon fill="midnightblue" stroke="midnightblue" points="190.62,-162.706 199.589,-157.065 189.061,-155.882 190.62,-162.706"/>
</g>
<!-- Node1133 -->
<g id="node10" class="node"><title>Node1133</title>
<g id="a_node10"><a xlink:href="../../d1/d72/a00204.html#ac62aeea4d8b2ba99f935a2380b8e9407" target="_top" xlink:title="Display the content of the concept. ">
<polygon fill="none" stroke="black" points="190.5,-88.5 190.5,-107.5 342.5,-107.5 342.5,-88.5 190.5,-88.5"/>
<text text-anchor="middle" x="266.5" y="-95.5" font-family="Helvetica,sans-Serif" font-size="10.00">nars.entity.EntityObserver.post</text>
</a>
</g>
</g>
<!-- Node1124&#45;&gt;Node1133 -->
<g id="edge9" class="edge"><title>Node1124&#45;&gt;Node1133</title>
<path fill="none" stroke="midnightblue" d="M85.0819,-176.373C104.146,-161.65 142.869,-133.609 180,-118 187.114,-115.009 194.759,-112.419 202.445,-110.188"/>
<polygon fill="midnightblue" stroke="midnightblue" points="203.432,-113.547 212.167,-107.552 201.599,-106.791 203.432,-113.547"/>
</g>
<!-- Node1134 -->
<g id="node11" class="node"><title>Node1134</title>
<g id="a_node11"><a xlink:href="../../d7/ded/a00196.html#a4a3922eb26d66a16e513c2b6d09124a5" target="_top" xlink:title="nars.entity.Concept.setEntity\lObserver">
<polygon fill="none" stroke="black" points="194.5,-39 194.5,-69 338.5,-69 338.5,-39 194.5,-39"/>
<text text-anchor="start" x="202.5" y="-57" font-family="Helvetica,sans-Serif" font-size="10.00">nars.entity.Concept.setEntity</text>
<text text-anchor="middle" x="266.5" y="-46" font-family="Helvetica,sans-Serif" font-size="10.00">Observer</text>
</a>
</g>
</g>
<!-- Node1124&#45;&gt;Node1134 -->
<g id="edge10" class="edge"><title>Node1124&#45;&gt;Node1134</title>
<path fill="none" stroke="midnightblue" d="M79.8625,-176.412C95.3155,-155.524 135.024,-105.651 180,-79 183.667,-76.827 187.536,-74.8321 191.52,-73.0022"/>
<polygon fill="midnightblue" stroke="midnightblue" points="193.122,-76.1256 200.986,-69.0255 190.411,-69.6719 193.122,-76.1256"/>
</g>
<!-- Node1135 -->
<g id="node12" class="node"><title>Node1135</title>
<g id="a_node12"><a xlink:href="../../d1/d72/a00204.html#aef3ebd18d9e7d210d5c46e49e749142a" target="_top" xlink:title="nars.entity.EntityObserver.startPlay">
<polygon fill="none" stroke="black" points="180,-0.5 180,-19.5 353,-19.5 353,-0.5 180,-0.5"/>
<text text-anchor="middle" x="266.5" y="-7.5" font-family="Helvetica,sans-Serif" font-size="10.00">nars.entity.EntityObserver.startPlay</text>
</a>
</g>
</g>
<!-- Node1124&#45;&gt;Node1135 -->
<g id="edge11" class="edge"><title>Node1124&#45;&gt;Node1135</title>
<path fill="none" stroke="midnightblue" d="M76.608,-176.47C87.5378,-148.963 123.066,-68.9247 180,-30 183.539,-27.5802 187.333,-25.4507 191.282,-23.5769"/>
<polygon fill="midnightblue" stroke="midnightblue" points="192.84,-26.7197 200.734,-19.6525 190.156,-20.2549 192.84,-26.7197"/>
</g>
<!-- Node1128 -->
<g id="node5" class="node"><title>Node1128</title>
<g id="a_node5"><a xlink:href="../../d7/ded/a00196.html#a2f4b33640b909073b53b6b0323d30146" target="_top" xlink:title="Sentences directly made about the term, with non&#45;future tense. ">
<polygon fill="none" stroke="black" points="396,-288.5 396,-307.5 545,-307.5 545,-288.5 396,-288.5"/>
<text text-anchor="middle" x="470.5" y="-295.5" font-family="Helvetica,sans-Serif" font-size="10.00">nars.entity.Concept.getBeliefs</text>
</a>
</g>
</g>
<!-- Node1127&#45;&gt;Node1128 -->
<g id="edge4" class="edge"><title>Node1127&#45;&gt;Node1128</title>
<path fill="none" stroke="midnightblue" d="M334.763,-285.327C351.015,-286.855 368.585,-288.508 385.499,-290.099"/>
<polygon fill="midnightblue" stroke="midnightblue" points="385.644,-293.628 395.928,-291.08 386.3,-286.659 385.644,-293.628"/>
</g>
<!-- Node1129 -->
<g id="node6" class="node"><title>Node1129</title>
<g id="a_node6"><a xlink:href="../../d7/ded/a00196.html#abf2fe7f5a84583c67322faa6bdfb9f7d" target="_top" xlink:title="Question directly asked about the term. ">
<polygon fill="none" stroke="black" points="389,-250.5 389,-269.5 552,-269.5 552,-250.5 389,-250.5"/>
<text text-anchor="middle" x="470.5" y="-257.5" font-family="Helvetica,sans-Serif" font-size="10.00">nars.entity.Concept.getQuestions</text>
</a>
</g>
</g>
<!-- Node1127&#45;&gt;Node1129 -->
<g id="edge5" class="edge"><title>Node1127&#45;&gt;Node1129</title>
<path fill="none" stroke="midnightblue" d="M334.763,-272.673C348.844,-271.349 363.913,-269.931 378.688,-268.542"/>
<polygon fill="midnightblue" stroke="midnightblue" points="379.226,-272.007 388.855,-267.585 378.571,-265.037 379.226,-272.007"/>
</g>
</g>
</svg>
        <g id="navigator" transform="translate(0 0)" fill="#404254">
                <rect fill="#f2f5e9" fill-opacity="0.5" stroke="#606060" stroke-width=".5" x="0" y="0" width="60" height="60"/>
                <use id="zoomplus" xlink:href="#zoomPlus" x="17" y="9" onmousedown="handleZoom(evt,'in')"/>
                <use id="zoomminus" xlink:href="#zoomMin" x="42" y="9" onmousedown="handleZoom(evt,'out')"/>
                <use id="reset" xlink:href="#resetDef" x="30" y="36" onmousedown="handleReset()"/>
                <g id="arrowUp" xlink:href="#dirArrow" transform="translate(30 24)" onmousedown="handlePan(0,-1)">
                  <use xlink:href="#rim" fill="#404040">
                        <set attributeName="fill" to="#808080" begin="arrowUp.mouseover" end="arrowUp.mouseout"/>
                  </use>
                  <path fill="none" stroke="white" stroke-width="1.5" d="M0,-3.0v7 M-2.5,-0.5L0,-3.0L2.5,-0.5"/>
                </g>
                <g id="arrowRight" xlink:href="#dirArrow" transform="rotate(90) translate(36 -43)" onmousedown="handlePan(1,0)">
                  <use xlink:href="#rim" fill="#404040">
                        <set attributeName="fill" to="#808080" begin="arrowRight.mouseover" end="arrowRight.mouseout"/>
                  </use>
                  <path fill="none" stroke="white" stroke-width="1.5" d="M0,-3.0v7 M-2.5,-0.5L0,-3.0L2.5,-0.5"/>
                </g>
                <g id="arrowDown" xlink:href="#dirArrow" transform="rotate(180) translate(-30 -48)" onmousedown="handlePan(0,1)">
                  <use xlink:href="#rim" fill="#404040">
                        <set attributeName="fill" to="#808080" begin="arrowDown.mouseover" end="arrowDown.mouseout"/>
                  </use>
                  <path fill="none" stroke="white" stroke-width="1.5" d="M0,-3.0v7 M-2.5,-0.5L0,-3.0L2.5,-0.5"/>
                </g>
                <g id="arrowLeft" xlink:href="#dirArrow" transform="rotate(270) translate(-36 17)" onmousedown="handlePan(-1,0)">
                  <use xlink:href="#rim" fill="#404040">
                        <set attributeName="fill" to="#808080" begin="arrowLeft.mouseover" end="arrowLeft.mouseout"/>
                  </use>
                  <path fill="none" stroke="white" stroke-width="1.5" d="M0,-3.0v7 M-2.5,-0.5L0,-3.0L2.5,-0.5"/>
                </g>
        </g>
        <svg viewBox="0 0 15 15" width="100%" height="30px" preserveAspectRatio="xMaxYMin meet">
         <g id="arrow_out" transform="scale(0.3 0.3)">
          <a xlink:href="a00196_a5a010290c8c42603dd13387f415abf43_cgraph_org.svg" target="_base">
           <rect id="button" ry="5" rx="5" y="6" x="6" height="38" width="38"
                fill="#f2f5e9" fill-opacity="0.5" stroke="#606060" stroke-width="1.0"/>
           <path id="arrow"
             d="M 11.500037,31.436501 C 11.940474,20.09759 22.043105,11.32322 32.158766,21.979434 L 37.068811,17.246167 C 37.068811,17.246167 37.088388,32 37.088388,32 L 22.160133,31.978069 C 22.160133,31.978069 26.997745,27.140456 26.997745,27.140456 C 18.528582,18.264221 13.291696,25.230495 11.500037,31.436501 z"
             style="fill:#404040;"/>
          </a>
         </g>
        </svg>
</svg>
