<?xml version="1.0" encoding="UTF-8" standalone="no"?>
<!DOCTYPE svg PUBLIC "-//W3C//DTD SVG 1.1//EN"
 "http://www.w3.org/Graphics/SVG/1.1/DTD/svg11.dtd">
<!-- Generated by graphviz version 2.38.0 (20140413.2041)
 -->
<!-- Title: nars.entity.Concept.insertTaskLink Pages: 1 -->
<!--zoomable 88 -->
<svg id="main" version="1.1" xmlns="http://www.w3.org/2000/svg" xmlns:xlink="http://www.w3.org/1999/xlink" xml:space="preserve" onload="init(evt)">
<style type="text/css"><![CDATA[
.edge:hover path { stroke: red; }
.edge:hover polygon { stroke: red; fill: red; }
]]></style>
<script type="text/javascript"><![CDATA[
var edges = document.getElementsByTagName('g');
if (edges && edges.length) {
  for (var i=0;i<edges.length;i++) {
    if (edges[i].id.substr(0,4)=='edge') {
      edges[i].setAttribute('class','edge');
    }
  }
}
]]></script>
        <defs>
                <circle id="rim" cx="0" cy="0" r="7"/>
                <circle id="rim2" cx="0" cy="0" r="3.5"/>
                <g id="zoomPlus">
                        <use xlink:href="#rim" fill="#404040">
                                <set attributeName="fill" to="#808080" begin="zoomplus.mouseover" end="zoomplus.mouseout"/>
                        </use>
                        <path d="M-4,0h8M0,-4v8" fill="none" stroke="white" stroke-width="1.5" pointer-events="none"/>
                </g>
                <g id="zoomMin">
                        <use xlink:href="#rim" fill="#404040">
                                <set attributeName="fill" to="#808080" begin="zoomminus.mouseover" end="zoomminus.mouseout"/>
                        </use>
                        <path d="M-4,0h8" fill="none" stroke="white" stroke-width="1.5" pointer-events="none"/>
                </g>
                <g id="dirArrow">
                        <path fill="none" stroke="white" stroke-width="1.5" d="M0,-3.0v7 M-2.5,-0.5L0,-3.0L2.5,-0.5"/>
                </g>
               <g id="resetDef">
                       <use xlink:href="#rim2" fill="#404040">
                               <set attributeName="fill" to="#808080" begin="reset.mouseover" end="reset.mouseout"/>
                       </use>
               </g>
        </defs>

<script type="text/javascript">
var viewWidth = 1955;
var viewHeight = 88;
var sectionId = 'dynsection-29';
</script>
<script xlink:href="../../svgpan.js"/>
<svg id="graph" class="graph">
<g id="viewport">
<title>nars.entity.Concept.insertTaskLink</title>
<!-- Node819 -->
<g id="node1" class="node"><title>Node819</title>
<polygon fill="#bfbfbf" stroke="black" points="0,-24.5 0,-54.5 129,-54.5 129,-24.5 0,-24.5"/>
<text text-anchor="start" x="8" y="-42.5" font-family="Helvetica,sans-Serif" font-size="10.00">nars.entity.Concept.insert</text>
<text text-anchor="middle" x="64.5" y="-31.5" font-family="Helvetica,sans-Serif" font-size="10.00">TaskLink</text>
</g>
<!-- Node820 -->
<g id="node2" class="node"><title>Node820</title>
<g id="a_node2"><a xlink:href="../../d7/ded/a00196.html#a501121a11fc046eea4b69720cb622d84" target="_top" xlink:title="Link to a new task from all relevant concepts for continued processing in the near future for unspeci...">
<polygon fill="none" stroke="black" points="165,-24.5 165,-54.5 285,-54.5 285,-24.5 165,-24.5"/>
<text text-anchor="start" x="173" y="-42.5" font-family="Helvetica,sans-Serif" font-size="10.00">nars.entity.Concept.link</text>
<text text-anchor="middle" x="225" y="-31.5" font-family="Helvetica,sans-Serif" font-size="10.00">ToTask</text>
</a>
</g>
</g>
<!-- Node819&#45;&gt;Node820 -->
<g id="edge1" class="edge"><title>Node819&#45;&gt;Node820</title>
<path fill="none" stroke="midnightblue" d="M139.1,-39.5C147.714,-39.5 156.417,-39.5 164.799,-39.5"/>
<polygon fill="midnightblue" stroke="midnightblue" points="139.055,-36.0001 129.055,-39.5 139.055,-43.0001 139.055,-36.0001"/>
</g>
<!-- Node821 -->
<g id="node3" class="node"><title>Node821</title>
<g id="a_node3"><a xlink:href="../../d7/ded/a00196.html#a9ea7c3154932d7a736c105eb55daeb5c" target="_top" xlink:title="Directly process a new task. ">
<polygon fill="none" stroke="black" points="321,-24.5 321,-54.5 450,-54.5 450,-24.5 321,-24.5"/>
<text text-anchor="start" x="329" y="-42.5" font-family="Helvetica,sans-Serif" font-size="10.00">nars.entity.Concept.direct</text>
<text text-anchor="middle" x="385.5" y="-31.5" font-family="Helvetica,sans-Serif" font-size="10.00">Process</text>
</a>
</g>
</g>
<!-- Node820&#45;&gt;Node821 -->
<g id="edge2" class="edge"><title>Node820&#45;&gt;Node821</title>
<path fill="none" stroke="midnightblue" d="M295.021,-39.5C303.627,-39.5 312.396,-39.5 320.913,-39.5"/>
<polygon fill="midnightblue" stroke="midnightblue" points="295.02,-36.0001 285.02,-39.5 295.02,-43.0001 295.02,-36.0001"/>
</g>
<!-- Node822 -->
<g id="node4" class="node"><title>Node822</title>
<g id="a_node4"><a xlink:href="../../d4/d27/a00392.html#af8d07412d21a441a5c7005a477b06468" target="_top" xlink:title="Immediate processing of a new task, in constant time Local processing, in one concept only...">
<polygon fill="none" stroke="black" points="486,-24.5 486,-54.5 643,-54.5 643,-24.5 486,-24.5"/>
<text text-anchor="start" x="494" y="-42.5" font-family="Helvetica,sans-Serif" font-size="10.00">nars.storage.Memory.immediate</text>
<text text-anchor="middle" x="564.5" y="-31.5" font-family="Helvetica,sans-Serif" font-size="10.00">Process</text>
</a>
</g>
</g>
<!-- Node821&#45;&gt;Node822 -->
<g id="edge3" class="edge"><title>Node821&#45;&gt;Node822</title>
<path fill="none" stroke="midnightblue" d="M460.492,-39.5C468.854,-39.5 477.393,-39.5 485.801,-39.5"/>
<polygon fill="midnightblue" stroke="midnightblue" points="460.401,-36.0001 450.401,-39.5 460.401,-43.0001 460.401,-36.0001"/>
</g>
<!-- Node823 -->
<g id="node5" class="node"><title>Node823</title>
<g id="a_node5"><a xlink:href="../../d4/d27/a00392.html#ae43b86074c0d8f6a324696f69faa54b3" target="_top" xlink:title="Process the newTasks accumulated in the previous workCycle, accept input ones and those that correspo...">
<polygon fill="none" stroke="black" points="679,-49.5 679,-79.5 825,-79.5 825,-49.5 679,-49.5"/>
<text text-anchor="start" x="687" y="-67.5" font-family="Helvetica,sans-Serif" font-size="10.00">nars.storage.Memory.process</text>
<text text-anchor="middle" x="752" y="-56.5" font-family="Helvetica,sans-Serif" font-size="10.00">NewTask</text>
</a>
</g>
</g>
<!-- Node822&#45;&gt;Node823 -->
<g id="edge4" class="edge"><title>Node822&#45;&gt;Node823</title>
<path fill="none" stroke="midnightblue" d="M653.125,-51.3093C661.707,-52.466 670.349,-53.6306 678.754,-54.7633"/>
<polygon fill="midnightblue" stroke="midnightblue" points="653.472,-47.8245 643.094,-49.9574 652.537,-54.7618 653.472,-47.8245"/>
</g>
<!-- Node830 -->
<g id="node12" class="node"><title>Node830</title>
<g id="a_node12"><a xlink:href="../../d4/d27/a00392.html#a5061708f88897cfdf4e0671c846762ca" target="_top" xlink:title="Select a novel task to process. ">
<polygon fill="none" stroke="black" points="679,-0.5 679,-30.5 825,-30.5 825,-0.5 679,-0.5"/>
<text text-anchor="start" x="687" y="-18.5" font-family="Helvetica,sans-Serif" font-size="10.00">nars.storage.Memory.process</text>
<text text-anchor="middle" x="752" y="-7.5" font-family="Helvetica,sans-Serif" font-size="10.00">NovelTask</text>
</a>
</g>
</g>
<!-- Node822&#45;&gt;Node830 -->
<g id="edge11" class="edge"><title>Node822&#45;&gt;Node830</title>
<path fill="none" stroke="midnightblue" d="M653.125,-28.1631C661.707,-27.0527 670.349,-25.9346 678.754,-24.8472"/>
<polygon fill="midnightblue" stroke="midnightblue" points="652.562,-24.7066 643.094,-29.4609 653.46,-31.6488 652.562,-24.7066"/>
</g>
<!-- Node824 -->
<g id="node6" class="node"><title>Node824</title>
<g id="a_node6"><a xlink:href="../../d4/d27/a00392.html#a59ae339d666409988d90d29be4f73a91" target="_top" xlink:title="An atomic working workCycle of the system: process new Tasks, then fireFromProcessConcept a concept...">
<polygon fill="none" stroke="black" points="861,-24.5 861,-54.5 994,-54.5 994,-24.5 861,-24.5"/>
<text text-anchor="start" x="869" y="-42.5" font-family="Helvetica,sans-Serif" font-size="10.00">nars.storage.Memory.work</text>
<text text-anchor="middle" x="927.5" y="-31.5" font-family="Helvetica,sans-Serif" font-size="10.00">Cycle</text>
</a>
</g>
</g>
<!-- Node823&#45;&gt;Node824 -->
<g id="edge5" class="edge"><title>Node823&#45;&gt;Node824</title>
<path fill="none" stroke="midnightblue" d="M835.118,-52.6675C843.716,-51.4286 852.375,-50.1809 860.755,-48.9733"/>
<polygon fill="midnightblue" stroke="midnightblue" points="834.471,-49.2244 825.072,-54.1149 835.469,-56.1529 834.471,-49.2244"/>
</g>
<!-- Node825 -->
<g id="node7" class="node"><title>Node825</title>
<g id="a_node7"><a xlink:href="../../df/d15/a00416.html#a0d5c797dc17d9e8d0998852915e0f303" target="_top" xlink:title="nars.storage.ReasonerBatch.doTick">
<polygon fill="none" stroke="black" points="1030,-30 1030,-49 1203,-49 1203,-30 1030,-30"/>
<text text-anchor="middle" x="1116.5" y="-37" font-family="Helvetica,sans-Serif" font-size="10.00">nars.storage.ReasonerBatch.doTick</text>
</a>
</g>
</g>
<!-- Node824&#45;&gt;Node825 -->
<g id="edge6" class="edge"><title>Node824&#45;&gt;Node825</title>
<path fill="none" stroke="midnightblue" d="M1004.34,-39.5C1012.78,-39.5 1021.42,-39.5 1029.97,-39.5"/>
<polygon fill="midnightblue" stroke="midnightblue" points="1004.17,-36.0001 994.166,-39.5 1004.17,-43.0001 1004.17,-36.0001"/>
</g>
<!-- Node826 -->
<g id="node8" class="node"><title>Node826</title>
<g id="a_node8"><a xlink:href="../../df/d15/a00416.html#a3468aa0f99edcd66412f27922dddb880" target="_top" xlink:title="A clock tick. ">
<polygon fill="none" stroke="black" points="1239,-30 1239,-49 1399,-49 1399,-30 1239,-30"/>
<text text-anchor="middle" x="1319" y="-37" font-family="Helvetica,sans-Serif" font-size="10.00">nars.storage.ReasonerBatch.tick</text>
</a>
</g>
</g>
<!-- Node825&#45;&gt;Node826 -->
<g id="edge7" class="edge"><title>Node825&#45;&gt;Node826</title>
<path fill="none" stroke="midnightblue" d="M1213.13,-39.5C1221.7,-39.5 1230.31,-39.5 1238.71,-39.5"/>
<polygon fill="midnightblue" stroke="midnightblue" points="1213.11,-36.0001 1203.11,-39.5 1213.11,-43.0001 1213.11,-36.0001"/>
</g>
<!-- Node827 -->
<g id="node9" class="node"><title>Node827</title>
<g id="a_node9"><a xlink:href="../../d9/da1/a00396.html#a5d9cfe517bcfbe41e5251910bcd119c1" target="_top" xlink:title="Run to completion: repeatedly execute NARS working cycle, until Inputs are Finished, or 1000 steps. ">
<polygon fill="none" stroke="black" points="1435,-30 1435,-49 1579,-49 1579,-30 1435,-30"/>
<text text-anchor="middle" x="1507" y="-37" font-family="Helvetica,sans-Serif" font-size="10.00">nars.storage.NARSBatch.run</text>
</a>
</g>
</g>
<!-- Node826&#45;&gt;Node827 -->
<g id="edge8" class="edge"><title>Node826&#45;&gt;Node827</title>
<path fill="none" stroke="midnightblue" d="M1409.22,-39.5C1417.82,-39.5 1426.47,-39.5 1434.87,-39.5"/>
<polygon fill="midnightblue" stroke="midnightblue" points="1409.15,-36.0001 1399.15,-39.5 1409.15,-43.0001 1409.15,-36.0001"/>
</g>
<!-- Node828 -->
<g id="node10" class="node"><title>Node828</title>
<g id="a_node10"><a xlink:href="../../d9/da1/a00396.html#a7c307c6b842f82664de6b0e52bdf8efc" target="_top" xlink:title="non&#45;static equivalent to main(String[]) : run to completion from an input file ">
<polygon fill="none" stroke="black" points="1615,-24.5 1615,-54.5 1759,-54.5 1759,-24.5 1615,-24.5"/>
<text text-anchor="start" x="1623" y="-42.5" font-family="Helvetica,sans-Serif" font-size="10.00">nars.storage.NARSBatch.run</text>
<text text-anchor="middle" x="1687" y="-31.5" font-family="Helvetica,sans-Serif" font-size="10.00">Inference</text>
</a>
</g>
</g>
<!-- Node827&#45;&gt;Node828 -->
<g id="edge9" class="edge"><title>Node827&#45;&gt;Node828</title>
<path fill="none" stroke="midnightblue" d="M1589.17,-39.5C1597.79,-39.5 1606.51,-39.5 1615,-39.5"/>
<polygon fill="midnightblue" stroke="midnightblue" points="1589.12,-36.0001 1579.12,-39.5 1589.12,-43.0001 1589.12,-36.0001"/>
</g>
<!-- Node829 -->
<g id="node11" class="node"><title>Node829</title>
<g id="a_node11"><a xlink:href="../../d9/da1/a00396.html#abafc597289bc2f6453b5cd0dd6634e54" target="_top" xlink:title="The entry point of the standalone application. ">
<polygon fill="none" stroke="black" points="1795,-30 1795,-49 1947,-49 1947,-30 1795,-30"/>
<text text-anchor="middle" x="1871" y="-37" font-family="Helvetica,sans-Serif" font-size="10.00">nars.storage.NARSBatch.main</text>
</a>
</g>
</g>
<!-- Node828&#45;&gt;Node829 -->
<g id="edge10" class="edge"><title>Node828&#45;&gt;Node829</title>
<path fill="none" stroke="midnightblue" d="M1769.17,-39.5C1777.76,-39.5 1786.48,-39.5 1795,-39.5"/>
<polygon fill="midnightblue" stroke="midnightblue" points="1769.15,-36.0001 1759.15,-39.5 1769.15,-43.0001 1769.15,-36.0001"/>
</g>
<!-- Node830&#45;&gt;Node824 -->
<g id="edge12" class="edge"><title>Node830&#45;&gt;Node824</title>
<path fill="none" stroke="midnightblue" d="M835.118,-26.8592C843.716,-28.0486 852.375,-29.2464 860.755,-30.4056"/>
<polygon fill="midnightblue" stroke="midnightblue" points="835.458,-23.373 825.072,-25.4697 834.498,-30.307 835.458,-23.373"/>
</g>
</g>
</svg>
        <g id="navigator" transform="translate(0 0)" fill="#404254">
                <rect fill="#f2f5e9" fill-opacity="0.5" stroke="#606060" stroke-width=".5" x="0" y="0" width="60" height="60"/>
                <use id="zoomplus" xlink:href="#zoomPlus" x="17" y="9" onmousedown="handleZoom(evt,'in')"/>
                <use id="zoomminus" xlink:href="#zoomMin" x="42" y="9" onmousedown="handleZoom(evt,'out')"/>
                <use id="reset" xlink:href="#resetDef" x="30" y="36" onmousedown="handleReset()"/>
                <g id="arrowUp" xlink:href="#dirArrow" transform="translate(30 24)" onmousedown="handlePan(0,-1)">
                  <use xlink:href="#rim" fill="#404040">
                        <set attributeName="fill" to="#808080" begin="arrowUp.mouseover" end="arrowUp.mouseout"/>
                  </use>
                  <path fill="none" stroke="white" stroke-width="1.5" d="M0,-3.0v7 M-2.5,-0.5L0,-3.0L2.5,-0.5"/>
                </g>
                <g id="arrowRight" xlink:href="#dirArrow" transform="rotate(90) translate(36 -43)" onmousedown="handlePan(1,0)">
                  <use xlink:href="#rim" fill="#404040">
                        <set attributeName="fill" to="#808080" begin="arrowRight.mouseover" end="arrowRight.mouseout"/>
                  </use>
                  <path fill="none" stroke="white" stroke-width="1.5" d="M0,-3.0v7 M-2.5,-0.5L0,-3.0L2.5,-0.5"/>
                </g>
                <g id="arrowDown" xlink:href="#dirArrow" transform="rotate(180) translate(-30 -48)" onmousedown="handlePan(0,1)">
                  <use xlink:href="#rim" fill="#404040">
                        <set attributeName="fill" to="#808080" begin="arrowDown.mouseover" end="arrowDown.mouseout"/>
                  </use>
                  <path fill="none" stroke="white" stroke-width="1.5" d="M0,-3.0v7 M-2.5,-0.5L0,-3.0L2.5,-0.5"/>
                </g>
                <g id="arrowLeft" xlink:href="#dirArrow" transform="rotate(270) translate(-36 17)" onmousedown="handlePan(-1,0)">
                  <use xlink:href="#rim" fill="#404040">
                        <set attributeName="fill" to="#808080" begin="arrowLeft.mouseover" end="arrowLeft.mouseout"/>
                  </use>
                  <path fill="none" stroke="white" stroke-width="1.5" d="M0,-3.0v7 M-2.5,-0.5L0,-3.0L2.5,-0.5"/>
                </g>
        </g>
        <svg viewBox="0 0 15 15" width="100%" height="30px" preserveAspectRatio="xMaxYMin meet">
         <g id="arrow_out" transform="scale(0.3 0.3)">
          <a xlink:href="a00196_aef21f5ae7bef5194bd37ae526302843d_icgraph_org.svg" target="_base">
           <rect id="button" ry="5" rx="5" y="6" x="6" height="38" width="38"
                fill="#f2f5e9" fill-opacity="0.5" stroke="#606060" stroke-width="1.0"/>
           <path id="arrow"
             d="M 11.500037,31.436501 C 11.940474,20.09759 22.043105,11.32322 32.158766,21.979434 L 37.068811,17.246167 C 37.068811,17.246167 37.088388,32 37.088388,32 L 22.160133,31.978069 C 22.160133,31.978069 26.997745,27.140456 26.997745,27.140456 C 18.528582,18.264221 13.291696,25.230495 11.500037,31.436501 z"
             style="fill:#404040;"/>
          </a>
         </g>
        </svg>
</svg>
