<?xml version="1.0" encoding="UTF-8" standalone="no"?>
<!DOCTYPE svg PUBLIC "-//W3C//DTD SVG 1.1//EN"
 "http://www.w3.org/Graphics/SVG/1.1/DTD/svg11.dtd">
<!-- Generated by graphviz version 2.38.0 (20140413.2041)
 -->
<!-- Title: nars.entity.Concept.linkToTask Pages: 1 -->
<svg width="1146pt" height="642pt"
 viewBox="0.00 0.00 1146.00 642.45" xmlns="http://www.w3.org/2000/svg" xmlns:xlink="http://www.w3.org/1999/xlink">
<g id="graph0" class="graph" transform="scale(1 1) rotate(0) translate(4 638.449)">
<title>nars.entity.Concept.linkToTask</title>
<!-- Node847 -->
<g id="node1" class="node"><title>Node847</title>
<polygon fill="#bfbfbf" stroke="black" points="0,-381.803 0,-411.803 120,-411.803 120,-381.803 0,-381.803"/>
<text text-anchor="start" x="8" y="-399.803" font-family="Helvetica,sans-Serif" font-size="10.00">nars.entity.Concept.link</text>
<text text-anchor="middle" x="60" y="-388.803" font-family="Helvetica,sans-Serif" font-size="10.00">ToTask</text>
</g>
<!-- Node848 -->
<g id="node2" class="node"><title>Node848</title>
<g id="a_node2"><a xlink:href="../../dd/da2/a00192.html#ae83b822f3bab4c1831e94d72fc770f58" target="_top" xlink:title="Whether the budget should get any processing at all. ">
<polygon fill="none" stroke="black" points="327,-567.803 327,-597.803 477,-597.803 477,-567.803 327,-567.803"/>
<text text-anchor="start" x="335" y="-585.803" font-family="Helvetica,sans-Serif" font-size="10.00">nars.entity.BudgetValue.above</text>
<text text-anchor="middle" x="402" y="-574.803" font-family="Helvetica,sans-Serif" font-size="10.00">Threshold</text>
</a>
</g>
</g>
<!-- Node847&#45;&gt;Node848 -->
<g id="edge1" class="edge"><title>Node847&#45;&gt;Node848</title>
<path fill="none" stroke="midnightblue" d="M68.364,-411.905C81.927,-438.079 113.412,-491.754 156,-519.803 203.868,-551.33 266.604,-567.086 316.608,-574.957"/>
<polygon fill="midnightblue" stroke="midnightblue" points="316.345,-578.456 326.753,-576.474 317.381,-571.533 316.345,-578.456"/>
</g>
<!-- Node851 -->
<g id="node5" class="node"><title>Node851</title>
<g id="a_node5"><a xlink:href="../../d7/ded/a00196.html#a3f3f026223e459e041fbdd8c0f49f7c6" target="_top" xlink:title="Recursively build TermLinks between a compound and its components. ">
<polygon fill="none" stroke="black" points="158,-428.803 158,-458.803 283,-458.803 283,-428.803 158,-428.803"/>
<text text-anchor="start" x="166" y="-446.803" font-family="Helvetica,sans-Serif" font-size="10.00">nars.entity.Concept.build</text>
<text text-anchor="middle" x="220.5" y="-435.803" font-family="Helvetica,sans-Serif" font-size="10.00">TermLinks</text>
</a>
</g>
</g>
<!-- Node847&#45;&gt;Node851 -->
<g id="edge4" class="edge"><title>Node847&#45;&gt;Node851</title>
<path fill="none" stroke="midnightblue" d="M111.586,-411.804C126.742,-416.298 143.513,-421.271 159.227,-425.931"/>
<polygon fill="midnightblue" stroke="midnightblue" points="158.268,-429.297 168.851,-428.784 160.258,-422.586 158.268,-429.297"/>
</g>
<!-- Node852 -->
<g id="node6" class="node"><title>Node852</title>
<g id="a_node6"><a xlink:href="../../d7/ded/a00196.html#a2f26314b930446bede4492667d799bc4" target="_top" xlink:title="Distribute the budget of a task among the links to it. ">
<polygon fill="none" stroke="black" points="329.5,-518.803 329.5,-548.803 474.5,-548.803 474.5,-518.803 329.5,-518.803"/>
<text text-anchor="start" x="337.5" y="-536.803" font-family="Helvetica,sans-Serif" font-size="10.00">nars.entity.Concept.distribute</text>
<text text-anchor="middle" x="402" y="-525.803" font-family="Helvetica,sans-Serif" font-size="10.00">AmongLinks</text>
</a>
</g>
</g>
<!-- Node847&#45;&gt;Node852 -->
<g id="edge20" class="edge"><title>Node847&#45;&gt;Node852</title>
<path fill="none" stroke="midnightblue" d="M72.6607,-412.135C88.9685,-432.409 120.593,-467.678 156,-485.803 206.714,-511.765 269.94,-523.72 319.459,-529.209"/>
<polygon fill="midnightblue" stroke="midnightblue" points="319.181,-532.699 329.49,-530.254 319.906,-525.737 319.181,-532.699"/>
</g>
<!-- Node853 -->
<g id="node7" class="node"><title>Node853</title>
<g id="a_node7"><a xlink:href="../../d4/d27/a00392.html#aca4bbc5804f617906c8c18c3d4d81a6c" target="_top" xlink:title="Get the Concept associated to a Term, or create it. ">
<polygon fill="none" stroke="black" points="321,-343.303 321,-362.303 483,-362.303 483,-343.303 321,-343.303"/>
<text text-anchor="middle" x="402" y="-350.303" font-family="Helvetica,sans-Serif" font-size="10.00">nars.storage.Memory.getConcept</text>
</a>
</g>
</g>
<!-- Node847&#45;&gt;Node853 -->
<g id="edge22" class="edge"><title>Node847&#45;&gt;Node853</title>
<path fill="none" stroke="midnightblue" d="M120.223,-389.139C174.742,-382.084 256.182,-371.545 317.333,-363.631"/>
<polygon fill="midnightblue" stroke="midnightblue" points="317.881,-367.089 327.349,-362.335 316.983,-360.147 317.881,-367.089"/>
</g>
<!-- Node859 -->
<g id="node13" class="node"><title>Node859</title>
<g id="a_node13"><a xlink:href="../../d7/ded/a00196.html#af183e45bae19d651cbc05e609617b726" target="_top" xlink:title="Reference to the memory. ">
<polygon fill="none" stroke="black" points="325,-305.303 325,-324.303 479,-324.303 479,-305.303 325,-305.303"/>
<text text-anchor="middle" x="402" y="-312.303" font-family="Helvetica,sans-Serif" font-size="10.00">nars.entity.Concept.getMemory</text>
</a>
</g>
</g>
<!-- Node847&#45;&gt;Node859 -->
<g id="edge23" class="edge"><title>Node847&#45;&gt;Node859</title>
<path fill="none" stroke="midnightblue" d="M102.279,-381.661C118.838,-375.912 138.187,-369.601 156,-364.803 215.608,-348.748 284.591,-335.101 334.141,-326.142"/>
<polygon fill="midnightblue" stroke="midnightblue" points="334.87,-329.567 344.096,-324.357 333.635,-322.677 334.87,-329.567"/>
</g>
<!-- Node860 -->
<g id="node14" class="node"><title>Node860</title>
<g id="a_node14"><a xlink:href="../../d7/ded/a00196.html#afcd1217b7680b073fa51f0d0f159dcea" target="_top" xlink:title="The term is the unique ID of the concept. ">
<polygon fill="none" stroke="black" points="983,-492.303 983,-511.303 1124,-511.303 1124,-492.303 983,-492.303"/>
<text text-anchor="middle" x="1053.5" y="-499.303" font-family="Helvetica,sans-Serif" font-size="10.00">nars.entity.Concept.getTerm</text>
</a>
</g>
</g>
<!-- Node847&#45;&gt;Node860 -->
<g id="edge24" class="edge"><title>Node847&#45;&gt;Node860</title>
<path fill="none" stroke="midnightblue" d="M65.5769,-411.873C76.0931,-443.919 105.071,-519.133 156,-558.803 245.151,-628.246 287.995,-626.803 401,-626.803 401,-626.803 401,-626.803 616,-626.803 757.326,-626.803 802.165,-655.239 933,-601.803 977.387,-583.675 1017.59,-542.717 1038.13,-519.229"/>
<polygon fill="midnightblue" stroke="midnightblue" points="1040.95,-521.319 1044.78,-511.441 1035.62,-516.775 1040.95,-521.319"/>
</g>
<!-- Node861 -->
<g id="node15" class="node"><title>Node861</title>
<g id="a_node15"><a xlink:href="../../d7/ded/a00196.html#a4ca0670094e7a1e098fb17388bf8353c" target="_top" xlink:title="Link templates of TermLink, only in concepts with CompoundTerm jmv TODO explain more. ">
<polygon fill="none" stroke="black" points="331.5,-381.803 331.5,-411.803 472.5,-411.803 472.5,-381.803 331.5,-381.803"/>
<text text-anchor="start" x="339.5" y="-399.803" font-family="Helvetica,sans-Serif" font-size="10.00">nars.entity.Concept.getTerm</text>
<text text-anchor="middle" x="402" y="-388.803" font-family="Helvetica,sans-Serif" font-size="10.00">LinkTemplates</text>
</a>
</g>
</g>
<!-- Node847&#45;&gt;Node861 -->
<g id="edge25" class="edge"><title>Node847&#45;&gt;Node861</title>
<path fill="none" stroke="midnightblue" d="M120.223,-396.803C175.913,-396.803 259.694,-396.803 321.247,-396.803"/>
<polygon fill="midnightblue" stroke="midnightblue" points="321.311,-400.303 331.311,-396.803 321.311,-393.303 321.311,-400.303"/>
</g>
<!-- Node864 -->
<g id="node18" class="node"><title>Node864</title>
<g id="a_node18"><a xlink:href="../../dc/d31/a00208.html#a54fc0a370b847dd77c0a698c765e6e55" target="_top" xlink:title="The budget of the Item, consisting of 3 numbers. ">
<polygon fill="none" stroke="black" points="987.5,-110.303 987.5,-129.303 1119.5,-129.303 1119.5,-110.303 987.5,-110.303"/>
<text text-anchor="middle" x="1053.5" y="-117.303" font-family="Helvetica,sans-Serif" font-size="10.00">nars.entity.Item.getBudget</text>
</a>
</g>
</g>
<!-- Node847&#45;&gt;Node864 -->
<g id="edge21" class="edge"><title>Node847&#45;&gt;Node864</title>
<path fill="none" stroke="midnightblue" d="M65.7279,-381.593C89.0643,-309.858 199.032,-8.8034 401,-8.8034 401,-8.8034 401,-8.8034 616,-8.8034 757.898,-8.8034 811.786,26.9675 933,-46.8034 957.325,-61.6076 945.572,-83.6166 969,-99.8034 972.518,-102.234 976.296,-104.371 980.232,-106.25"/>
<polygon fill="midnightblue" stroke="midnightblue" points="979.077,-109.561 989.654,-110.182 981.773,-103.101 979.077,-109.561"/>
</g>
<!-- Node865 -->
<g id="node19" class="node"><title>Node865</title>
<g id="a_node19"><a xlink:href="../../d7/ded/a00196.html#aef21f5ae7bef5194bd37ae526302843d" target="_top" xlink:title="Insert a TaskLink into the TaskLink bag. ">
<polygon fill="none" stroke="black" points="156,-236.803 156,-266.803 285,-266.803 285,-236.803 156,-236.803"/>
<text text-anchor="start" x="164" y="-254.803" font-family="Helvetica,sans-Serif" font-size="10.00">nars.entity.Concept.insert</text>
<text text-anchor="middle" x="220.5" y="-243.803" font-family="Helvetica,sans-Serif" font-size="10.00">TaskLink</text>
</a>
</g>
</g>
<!-- Node847&#45;&gt;Node865 -->
<g id="edge26" class="edge"><title>Node847&#45;&gt;Node865</title>
<path fill="none" stroke="midnightblue" d="M74.8991,-381.546C92.9084,-362.066 125.608,-327.671 156,-300.803 166.808,-291.249 179.267,-281.403 190.271,-273.067"/>
<polygon fill="midnightblue" stroke="midnightblue" points="192.444,-275.812 198.351,-267.016 188.248,-270.209 192.444,-275.812"/>
</g>
<!-- Node849 -->
<g id="node3" class="node"><title>Node849</title>
<g id="a_node3"><a xlink:href="../../dd/da2/a00192.html#af414899759992288edbba78d7457c534" target="_top" xlink:title="To summarize a BudgetValue into a single number in [0, 1]. ">
<polygon fill="none" stroke="black" points="533,-573.303 533,-592.303 697,-592.303 697,-573.303 533,-573.303"/>
<text text-anchor="middle" x="615" y="-580.303" font-family="Helvetica,sans-Serif" font-size="10.00">nars.entity.BudgetValue.summary</text>
</a>
</g>
</g>
<!-- Node848&#45;&gt;Node849 -->
<g id="edge2" class="edge"><title>Node848&#45;&gt;Node849</title>
<path fill="none" stroke="midnightblue" d="M477.094,-582.803C491.759,-582.803 507.315,-582.803 522.479,-582.803"/>
<polygon fill="midnightblue" stroke="midnightblue" points="522.898,-586.303 532.898,-582.803 522.898,-579.303 522.898,-586.303"/>
</g>
<!-- Node850 -->
<g id="node4" class="node"><title>Node850</title>
<g id="a_node4"><a xlink:href="../../db/d12/a00268.html#ae9f34c27ee5675fa2b97f2def9e1fb99" target="_top" xlink:title="A function where the output is the geometric average the inputs. ">
<polygon fill="none" stroke="black" points="747,-573.303 747,-592.303 933,-592.303 933,-573.303 747,-573.303"/>
<text text-anchor="middle" x="840" y="-580.303" font-family="Helvetica,sans-Serif" font-size="10.00">nars.inference.UtilityFunctions.aveGeo</text>
</a>
</g>
</g>
<!-- Node849&#45;&gt;Node850 -->
<g id="edge3" class="edge"><title>Node849&#45;&gt;Node850</title>
<path fill="none" stroke="midnightblue" d="M697.139,-582.803C710.04,-582.803 723.528,-582.803 736.837,-582.803"/>
<polygon fill="midnightblue" stroke="midnightblue" points="736.967,-586.303 746.967,-582.803 736.967,-579.303 736.967,-586.303"/>
</g>
<!-- Node851&#45;&gt;Node848 -->
<g id="edge5" class="edge"><title>Node851&#45;&gt;Node848</title>
<path fill="none" stroke="midnightblue" d="M230.822,-459.118C246.46,-483.54 280.296,-531.249 321,-557.803 324.108,-559.831 327.39,-561.702 330.781,-563.429"/>
<polygon fill="midnightblue" stroke="midnightblue" points="329.422,-566.656 339.968,-567.669 332.355,-560.3 329.422,-566.656"/>
</g>
<!-- Node851&#45;&gt;Node851 -->
<g id="edge6" class="edge"><title>Node851&#45;&gt;Node851</title>
<path fill="none" stroke="midnightblue" d="M192.617,-458.962C185.893,-468.36 195.188,-477.303 220.5,-477.303 235.925,-477.303 245.401,-473.982 248.93,-469.261"/>
<polygon fill="midnightblue" stroke="midnightblue" points="252.409,-468.763 248.383,-458.962 245.418,-469.134 252.409,-468.763"/>
</g>
<!-- Node851&#45;&gt;Node852 -->
<g id="edge7" class="edge"><title>Node851&#45;&gt;Node852</title>
<path fill="none" stroke="midnightblue" d="M243.757,-458.852C263.498,-471.799 293.4,-490.447 321,-503.803 329.237,-507.789 338.149,-511.596 346.933,-515.079"/>
<polygon fill="midnightblue" stroke="midnightblue" points="345.787,-518.388 356.376,-518.724 348.308,-511.858 345.787,-518.388"/>
</g>
<!-- Node851&#45;&gt;Node853 -->
<g id="edge8" class="edge"><title>Node851&#45;&gt;Node853</title>
<path fill="none" stroke="midnightblue" d="M238.156,-428.535C256.928,-412.136 289.017,-386.463 321,-371.803 326.321,-369.365 331.989,-367.22 337.757,-365.337"/>
<polygon fill="midnightblue" stroke="midnightblue" points="338.942,-368.636 347.515,-362.411 336.931,-361.931 338.942,-368.636"/>
</g>
<!-- Node851&#45;&gt;Node859 -->
<g id="edge14" class="edge"><title>Node851&#45;&gt;Node859</title>
<path fill="none" stroke="midnightblue" d="M230.754,-428.712C246.296,-404.706 280.001,-358.064 321,-333.803 324.663,-331.636 328.557,-329.716 332.58,-328.015"/>
<polygon fill="midnightblue" stroke="midnightblue" points="334.013,-331.215 342.15,-324.429 331.558,-324.66 334.013,-331.215"/>
</g>
<!-- Node851&#45;&gt;Node860 -->
<g id="edge15" class="edge"><title>Node851&#45;&gt;Node860</title>
<path fill="none" stroke="midnightblue" d="M270.669,-458.855C286.581,-463.131 304.405,-467.301 321,-469.803 555.905,-505.223 837.668,-505.983 972.693,-503.811"/>
<polygon fill="midnightblue" stroke="midnightblue" points="973.006,-507.306 982.944,-503.636 972.886,-500.307 973.006,-507.306"/>
</g>
<!-- Node851&#45;&gt;Node861 -->
<g id="edge16" class="edge"><title>Node851&#45;&gt;Node861</title>
<path fill="none" stroke="midnightblue" d="M278.788,-428.803C296.276,-424.224 315.663,-419.148 333.747,-414.413"/>
<polygon fill="midnightblue" stroke="midnightblue" points="334.853,-417.741 343.64,-411.822 333.08,-410.97 334.853,-417.741"/>
</g>
<!-- Node862 -->
<g id="node16" class="node"><title>Node862</title>
<g id="a_node16"><a xlink:href="../../d7/ded/a00196.html#a3c69b71b1987ca4066c9b3d2a7973dd1" target="_top" xlink:title="Insert a TermLink into the TermLink bag. ">
<polygon fill="none" stroke="black" points="337.5,-430.803 337.5,-460.803 466.5,-460.803 466.5,-430.803 337.5,-430.803"/>
<text text-anchor="start" x="345.5" y="-448.803" font-family="Helvetica,sans-Serif" font-size="10.00">nars.entity.Concept.insert</text>
<text text-anchor="middle" x="402" y="-437.803" font-family="Helvetica,sans-Serif" font-size="10.00">TermLink</text>
</a>
</g>
</g>
<!-- Node851&#45;&gt;Node862 -->
<g id="edge17" class="edge"><title>Node851&#45;&gt;Node862</title>
<path fill="none" stroke="midnightblue" d="M283.023,-444.489C297.288,-444.648 312.613,-444.819 327.34,-444.983"/>
<polygon fill="midnightblue" stroke="midnightblue" points="327.381,-448.483 337.419,-445.095 327.459,-441.484 327.381,-448.483"/>
</g>
<!-- Node854 -->
<g id="node8" class="node"><title>Node854</title>
<g id="a_node8"><a xlink:href="../../dc/d59/a00364.html#a88297bdbbfb5f3e292783647b14f0c70" target="_top" xlink:title="Check whether the current Term can name a Concept. ">
<polygon fill="none" stroke="black" points="538.5,-378.303 538.5,-397.303 691.5,-397.303 691.5,-378.303 538.5,-378.303"/>
<text text-anchor="middle" x="615" y="-385.303" font-family="Helvetica,sans-Serif" font-size="10.00">nars.language.Term.isConstant</text>
</a>
</g>
</g>
<!-- Node853&#45;&gt;Node854 -->
<g id="edge9" class="edge"><title>Node853&#45;&gt;Node854</title>
<path fill="none" stroke="midnightblue" d="M460.378,-362.321C487.006,-366.738 518.84,-372.019 546.605,-376.624"/>
<polygon fill="midnightblue" stroke="midnightblue" points="546.195,-380.104 556.633,-378.288 547.341,-373.198 546.195,-380.104"/>
</g>
<!-- Node855 -->
<g id="node9" class="node"><title>Node855</title>
<g id="a_node9"><a xlink:href="../../d4/d27/a00392.html#a33af7b3d806d32c85390563fec3c6d27" target="_top" xlink:title="Concept bag. ">
<polygon fill="none" stroke="black" points="531.5,-264.303 531.5,-283.303 698.5,-283.303 698.5,-264.303 531.5,-264.303"/>
<text text-anchor="middle" x="615" y="-271.303" font-family="Helvetica,sans-Serif" font-size="10.00">nars.storage.Memory.getConcepts</text>
</a>
</g>
</g>
<!-- Node853&#45;&gt;Node855 -->
<g id="edge10" class="edge"><title>Node853&#45;&gt;Node855</title>
<path fill="none" stroke="midnightblue" d="M461.904,-343.268C469.29,-340.804 476.517,-337.704 483,-333.803 503.778,-321.3 498.002,-304.933 519,-292.803 522.873,-290.566 526.967,-288.589 531.193,-286.841"/>
<polygon fill="midnightblue" stroke="midnightblue" points="532.448,-290.109 540.624,-283.371 530.031,-283.539 532.448,-290.109"/>
</g>
<!-- Node856 -->
<g id="node10" class="node"><title>Node856</title>
<g id="a_node10"><a xlink:href="../../d6/db8/a00376.html#a011b37fc683db7fb7b41e33712a37d92" target="_top" xlink:title="Get an Item by key. ">
<polygon fill="none" stroke="black" points="561.5,-340.303 561.5,-359.303 668.5,-359.303 668.5,-340.303 561.5,-340.303"/>
<text text-anchor="middle" x="615" y="-347.303" font-family="Helvetica,sans-Serif" font-size="10.00">nars.storage.Bag.get</text>
</a>
</g>
</g>
<!-- Node853&#45;&gt;Node856 -->
<g id="edge11" class="edge"><title>Node853&#45;&gt;Node856</title>
<path fill="none" stroke="midnightblue" d="M483.071,-351.665C505.613,-351.344 529.803,-351.001 551.18,-350.697"/>
<polygon fill="midnightblue" stroke="midnightblue" points="551.48,-354.193 561.429,-350.551 551.38,-347.193 551.48,-354.193"/>
</g>
<!-- Node857 -->
<g id="node11" class="node"><title>Node857</title>
<g id="a_node11"><a xlink:href="../../dc/d59/a00364.html#a3aad4654016b8615fd4fa8a26668e1db" target="_top" xlink:title="Reporting the name of the current Term. ">
<polygon fill="none" stroke="black" points="542,-416.303 542,-435.303 688,-435.303 688,-416.303 542,-416.303"/>
<text text-anchor="middle" x="615" y="-423.303" font-family="Helvetica,sans-Serif" font-size="10.00">nars.language.Term.getName</text>
</a>
</g>
</g>
<!-- Node853&#45;&gt;Node857 -->
<g id="edge12" class="edge"><title>Node853&#45;&gt;Node857</title>
<path fill="none" stroke="midnightblue" d="M460.36,-362.427C468.224,-364.881 475.993,-367.955 483,-371.803 502.559,-382.546 499.251,-396.413 519,-406.803 523.535,-409.19 528.337,-411.277 533.277,-413.103"/>
<polygon fill="midnightblue" stroke="midnightblue" points="532.32,-416.473 542.914,-416.302 534.526,-409.83 532.32,-416.473"/>
</g>
<!-- Node858 -->
<g id="node12" class="node"><title>Node858</title>
<g id="a_node12"><a xlink:href="../../d6/db8/a00376.html#a9d42fa45681a07796750a350e08d095b" target="_top" xlink:title="Add a new Item into the Bag. ">
<polygon fill="none" stroke="black" points="557,-302.303 557,-321.303 673,-321.303 673,-302.303 557,-302.303"/>
<text text-anchor="middle" x="615" y="-309.303" font-family="Helvetica,sans-Serif" font-size="10.00">nars.storage.Bag.putIn</text>
</a>
</g>
</g>
<!-- Node853&#45;&gt;Node858 -->
<g id="edge13" class="edge"><title>Node853&#45;&gt;Node858</title>
<path fill="none" stroke="midnightblue" d="M451.938,-343.294C482.72,-337.313 522.622,-329.559 555.129,-323.243"/>
<polygon fill="midnightblue" stroke="midnightblue" points="555.814,-326.675 564.962,-321.332 554.478,-319.804 555.814,-326.675"/>
</g>
<!-- Node862&#45;&gt;Node858 -->
<g id="edge19" class="edge"><title>Node862&#45;&gt;Node858</title>
<path fill="none" stroke="midnightblue" d="M466.658,-431.912C472.605,-428.907 478.194,-425.25 483,-420.803 514.622,-391.545 485.879,-358.354 519,-330.803 527.035,-324.119 536.767,-319.561 546.899,-316.49"/>
<polygon fill="midnightblue" stroke="midnightblue" points="547.874,-319.853 556.692,-313.98 546.136,-313.072 547.874,-319.853"/>
</g>
<!-- Node863 -->
<g id="node17" class="node"><title>Node863</title>
<g id="a_node17"><a xlink:href="../../d7/ded/a00196.html#a9f031bcf593e4c6f27e82d2b97a2d83d" target="_top" xlink:title="Term links between the term and its components and compounds. ">
<polygon fill="none" stroke="black" points="983,-441.803 983,-471.803 1124,-471.803 1124,-441.803 983,-441.803"/>
<text text-anchor="start" x="991" y="-459.803" font-family="Helvetica,sans-Serif" font-size="10.00">nars.entity.Concept.getTerm</text>
<text text-anchor="middle" x="1053.5" y="-448.803" font-family="Helvetica,sans-Serif" font-size="10.00">Links</text>
</a>
</g>
</g>
<!-- Node862&#45;&gt;Node863 -->
<g id="edge18" class="edge"><title>Node862&#45;&gt;Node863</title>
<path fill="none" stroke="midnightblue" d="M466.756,-446.883C585.943,-448.902 842.227,-453.242 972.683,-455.452"/>
<polygon fill="midnightblue" stroke="midnightblue" points="972.942,-458.956 983,-455.626 973.061,-451.957 972.942,-458.956"/>
</g>
<!-- Node865&#45;&gt;Node858 -->
<g id="edge59" class="edge"><title>Node865&#45;&gt;Node858</title>
<path fill="none" stroke="midnightblue" d="M285.435,-261.577C357.323,-272.566 473.547,-290.333 546.761,-301.525"/>
<polygon fill="midnightblue" stroke="midnightblue" points="546.383,-305.008 556.797,-303.059 547.44,-298.088 546.383,-305.008"/>
</g>
<!-- Node865&#45;&gt;Node859 -->
<g id="edge57" class="edge"><title>Node865&#45;&gt;Node859</title>
<path fill="none" stroke="midnightblue" d="M258.089,-266.976C276.777,-274.512 299.955,-283.536 321,-290.803 332.672,-294.834 345.43,-298.839 357.262,-302.389"/>
<polygon fill="midnightblue" stroke="midnightblue" points="356.355,-305.77 366.937,-305.254 358.343,-299.059 356.355,-305.77"/>
</g>
<!-- Node865&#45;&gt;Node864 -->
<g id="edge56" class="edge"><title>Node865&#45;&gt;Node864</title>
<path fill="none" stroke="midnightblue" d="M233.664,-236.575C250.937,-215.953 284.549,-179.367 321,-158.803 489.786,-63.5838 553.834,-81.3751 747,-65.8034 829.399,-59.1609 856.182,-35.2622 933,-65.8034 953.451,-73.9342 949.644,-89.3303 969,-99.8034 974.123,-102.575 979.628,-104.967 985.279,-107.03"/>
<polygon fill="midnightblue" stroke="midnightblue" points="984.291,-110.39 994.884,-110.201 986.485,-103.743 984.291,-110.39"/>
</g>
<!-- Node866 -->
<g id="node20" class="node"><title>Node866</title>
<g id="a_node20"><a xlink:href="../../d4/d27/a00392.html#a7affdc42dcb55d27d76cf636eab6230f" target="_top" xlink:title="Adjust the activation level of a Concept. ">
<polygon fill="none" stroke="black" points="329,-217.803 329,-247.803 475,-247.803 475,-217.803 329,-217.803"/>
<text text-anchor="start" x="337" y="-235.803" font-family="Helvetica,sans-Serif" font-size="10.00">nars.storage.Memory.activate</text>
<text text-anchor="middle" x="402" y="-224.803" font-family="Helvetica,sans-Serif" font-size="10.00">Concept</text>
</a>
</g>
</g>
<!-- Node865&#45;&gt;Node866 -->
<g id="edge27" class="edge"><title>Node865&#45;&gt;Node866</title>
<path fill="none" stroke="midnightblue" d="M285.038,-245.078C296.036,-243.914 307.61,-242.689 319.016,-241.481"/>
<polygon fill="midnightblue" stroke="midnightblue" points="319.401,-244.96 328.977,-240.427 318.664,-237.999 319.401,-244.96"/>
</g>
<!-- Node886 -->
<g id="node40" class="node"><title>Node886</title>
<g id="a_node40"><a xlink:href="../../d7/ded/a00196.html#acef3f846ea7bced858519c03e134498e" target="_top" xlink:title="Task links for indirect processing. ">
<polygon fill="none" stroke="black" points="332,-168.803 332,-198.803 472,-198.803 472,-168.803 332,-168.803"/>
<text text-anchor="start" x="340" y="-186.803" font-family="Helvetica,sans-Serif" font-size="10.00">nars.entity.Concept.getTask</text>
<text text-anchor="middle" x="402" y="-175.803" font-family="Helvetica,sans-Serif" font-size="10.00">Links</text>
</a>
</g>
</g>
<!-- Node865&#45;&gt;Node886 -->
<g id="edge58" class="edge"><title>Node865&#45;&gt;Node886</title>
<path fill="none" stroke="midnightblue" d="M252.9,-236.71C272.28,-227.699 297.79,-216.379 321,-207.803 326.402,-205.807 332.054,-203.853 337.748,-201.975"/>
<polygon fill="midnightblue" stroke="midnightblue" points="338.884,-205.287 347.333,-198.894 336.742,-198.623 338.884,-205.287"/>
</g>
<!-- Node866&#45;&gt;Node855 -->
<g id="edge28" class="edge"><title>Node866&#45;&gt;Node855</title>
<path fill="none" stroke="midnightblue" d="M475.024,-246.799C501.046,-251.855 530.1,-257.501 554.887,-262.317"/>
<polygon fill="midnightblue" stroke="midnightblue" points="554.387,-265.785 564.871,-264.257 555.722,-258.914 554.387,-265.785"/>
</g>
<!-- Node867 -->
<g id="node21" class="node"><title>Node867</title>
<g id="a_node21"><a xlink:href="../../d6/db8/a00376.html#ac72ca10afde302a1c190a185947781e3" target="_top" xlink:title="Pick an item by key, then remove it from the bag. ">
<polygon fill="none" stroke="black" points="551,-188.303 551,-207.303 679,-207.303 679,-188.303 551,-188.303"/>
<text text-anchor="middle" x="615" y="-195.303" font-family="Helvetica,sans-Serif" font-size="10.00">nars.storage.Bag.pickOut</text>
</a>
</g>
</g>
<!-- Node866&#45;&gt;Node867 -->
<g id="edge29" class="edge"><title>Node866&#45;&gt;Node867</title>
<path fill="none" stroke="midnightblue" d="M475.024,-220.856C498.215,-217.009 523.814,-212.763 546.655,-208.974"/>
<polygon fill="midnightblue" stroke="midnightblue" points="547.305,-212.415 556.597,-207.325 546.159,-205.509 547.305,-212.415"/>
</g>
<!-- Node868 -->
<g id="node22" class="node"><title>Node868</title>
<g id="a_node22"><a xlink:href="../../dc/d31/a00208.html#ab5c9fbb171f325844966b496010acf60" target="_top" xlink:title="The key of the Item, unique in a Bag. ">
<polygon fill="none" stroke="black" points="555.5,-112.303 555.5,-131.303 674.5,-131.303 674.5,-112.303 555.5,-112.303"/>
<text text-anchor="middle" x="615" y="-119.303" font-family="Helvetica,sans-Serif" font-size="10.00">nars.entity.Item.getKey</text>
</a>
</g>
</g>
<!-- Node866&#45;&gt;Node868 -->
<g id="edge30" class="edge"><title>Node866&#45;&gt;Node868</title>
<path fill="none" stroke="midnightblue" d="M467.368,-217.76C472.968,-214.983 478.288,-211.695 483,-207.803 509.064,-186.278 491.837,-160.925 519,-140.803 526.824,-135.007 535.968,-130.861 545.434,-127.915"/>
<polygon fill="midnightblue" stroke="midnightblue" points="546.615,-131.222 555.373,-125.26 544.809,-124.459 546.615,-131.222"/>
</g>
<!-- Node869 -->
<g id="node23" class="node"><title>Node869</title>
<g id="a_node23"><a xlink:href="../../d9/d21/a00240.html#aabac530761ea7ac0f43f0d1ea8d085c8" target="_top" xlink:title="Activate a concept by an incoming TaskLink. ">
<polygon fill="none" stroke="black" points="519,-150.303 519,-169.303 711,-169.303 711,-150.303 519,-150.303"/>
<text text-anchor="middle" x="615" y="-157.303" font-family="Helvetica,sans-Serif" font-size="10.00">nars.inference.BudgetFunctions.activate</text>
</a>
</g>
</g>
<!-- Node866&#45;&gt;Node869 -->
<g id="edge31" class="edge"><title>Node866&#45;&gt;Node869</title>
<path fill="none" stroke="midnightblue" d="M460.453,-217.742C468.222,-214.878 475.94,-211.573 483,-207.803 501.123,-198.125 500.392,-187.513 519,-178.803 524.319,-176.314 529.954,-174.15 535.72,-172.27"/>
<polygon fill="midnightblue" stroke="midnightblue" points="536.923,-175.564 545.515,-169.364 534.932,-168.853 536.923,-175.564"/>
</g>
<!-- Node885 -->
<g id="node39" class="node"><title>Node885</title>
<g id="a_node39"><a xlink:href="../../d6/db8/a00376.html#a64b0b75c54e6882a28702d7810094656" target="_top" xlink:title="Put an item back into the itemTable. ">
<polygon fill="none" stroke="black" points="550,-226.303 550,-245.303 680,-245.303 680,-226.303 550,-226.303"/>
<text text-anchor="middle" x="615" y="-233.303" font-family="Helvetica,sans-Serif" font-size="10.00">nars.storage.Bag.putBack</text>
</a>
</g>
</g>
<!-- Node866&#45;&gt;Node885 -->
<g id="edge55" class="edge"><title>Node866&#45;&gt;Node885</title>
<path fill="none" stroke="midnightblue" d="M475.024,-233.827C495.851,-234.124 518.62,-234.447 539.589,-234.745"/>
<polygon fill="midnightblue" stroke="midnightblue" points="539.674,-238.247 549.723,-234.89 539.773,-231.248 539.674,-238.247"/>
</g>
<!-- Node870 -->
<g id="node24" class="node"><title>Node870</title>
<g id="a_node24"><a xlink:href="../../dc/d31/a00208.html#a97b35888ceaad90e7a428701051c51d7" target="_top" xlink:title="Get priority value. ">
<polygon fill="none" stroke="black" points="774,-189.303 774,-208.303 906,-208.303 906,-189.303 774,-189.303"/>
<text text-anchor="middle" x="840" y="-196.303" font-family="Helvetica,sans-Serif" font-size="10.00">nars.entity.Item.getPriority</text>
</a>
</g>
</g>
<!-- Node869&#45;&gt;Node870 -->
<g id="edge32" class="edge"><title>Node869&#45;&gt;Node870</title>
<path fill="none" stroke="midnightblue" d="M670.552,-169.344C701.986,-174.841 741.674,-181.782 774.63,-187.546"/>
<polygon fill="midnightblue" stroke="midnightblue" points="774.172,-191.019 784.625,-189.294 775.378,-184.123 774.172,-191.019"/>
</g>
<!-- Node872 -->
<g id="node26" class="node"><title>Node872</title>
<g id="a_node26"><a xlink:href="../../db/d12/a00268.html#acaa4ebc080bc00d0e03be32d51d29e40" target="_top" xlink:title="A function where the output is disjunctively determined by the inputs. ">
<polygon fill="none" stroke="black" points="973,-310.303 973,-329.303 1134,-329.303 1134,-310.303 973,-310.303"/>
<text text-anchor="middle" x="1053.5" y="-317.303" font-family="Helvetica,sans-Serif" font-size="10.00">nars.inference.UtilityFunctions.or</text>
</a>
</g>
</g>
<!-- Node869&#45;&gt;Node872 -->
<g id="edge35" class="edge"><title>Node869&#45;&gt;Node872</title>
<path fill="none" stroke="midnightblue" d="M697.276,-169.489C702.231,-172.022 706.873,-175.092 711,-178.803 750.823,-214.615 705.227,-260.287 747,-293.803 819.514,-351.984 935.283,-342.879 1001.53,-331.219"/>
<polygon fill="midnightblue" stroke="midnightblue" points="1002.53,-334.594 1011.73,-329.335 1001.26,-327.711 1002.53,-334.594"/>
</g>
<!-- Node873 -->
<g id="node27" class="node"><title>Node873</title>
<g id="a_node27"><a xlink:href="../../d9/d21/a00240.html#a5df1e2954d5ce62f08cbd4be287ddaba" target="_top" xlink:title="A function where the output is the arithmetic average the inputs. ">
<polygon fill="none" stroke="black" points="747.5,-265.303 747.5,-284.303 932.5,-284.303 932.5,-265.303 747.5,-265.303"/>
<text text-anchor="middle" x="840" y="-272.303" font-family="Helvetica,sans-Serif" font-size="10.00">nars.inference.BudgetFunctions.aveAri</text>
</a>
</g>
</g>
<!-- Node869&#45;&gt;Node873 -->
<g id="edge36" class="edge"><title>Node869&#45;&gt;Node873</title>
<path fill="none" stroke="midnightblue" d="M695.339,-169.499C700.934,-172.002 706.237,-175.065 711,-178.803 740.718,-202.127 717.355,-232.387 747,-255.803 749.204,-257.544 751.527,-259.137 753.944,-260.593"/>
<polygon fill="midnightblue" stroke="midnightblue" points="752.567,-263.821 763.059,-265.292 755.775,-257.599 752.567,-263.821"/>
</g>
<!-- Node874 -->
<g id="node28" class="node"><title>Node874</title>
<g id="a_node28"><a xlink:href="../../dc/d31/a00208.html#adbb21c1891722e30c1d6cfaf5fee18ee" target="_top" xlink:title="Get durability value. ">
<polygon fill="none" stroke="black" points="768.5,-75.3034 768.5,-94.3034 911.5,-94.3034 911.5,-75.3034 768.5,-75.3034"/>
<text text-anchor="middle" x="840" y="-82.3034" font-family="Helvetica,sans-Serif" font-size="10.00">nars.entity.Item.getDurability</text>
</a>
</g>
</g>
<!-- Node869&#45;&gt;Node874 -->
<g id="edge37" class="edge"><title>Node869&#45;&gt;Node874</title>
<path fill="none" stroke="midnightblue" d="M688.188,-150.198C696.136,-147.741 703.908,-144.662 711,-140.803 731.154,-129.839 726.88,-114.831 747,-103.803 751.161,-101.523 755.564,-99.5152 760.102,-97.7479"/>
<polygon fill="midnightblue" stroke="midnightblue" points="761.277,-101.045 769.567,-94.4476 758.972,-94.435 761.277,-101.045"/>
</g>
<!-- Node876 -->
<g id="node30" class="node"><title>Node876</title>
<g id="a_node30"><a xlink:href="../../d7/ded/a00196.html#acf3c7af84e64586a6b1d549f02bfeead" target="_top" xlink:title="Recalculate the quality of the concept [to be refined to show extension/intension balance]...">
<polygon fill="none" stroke="black" points="765.5,-374.303 765.5,-393.303 914.5,-393.303 914.5,-374.303 765.5,-374.303"/>
<text text-anchor="middle" x="840" y="-381.303" font-family="Helvetica,sans-Serif" font-size="10.00">nars.entity.Concept.getQuality</text>
</a>
</g>
</g>
<!-- Node869&#45;&gt;Node876 -->
<g id="edge40" class="edge"><title>Node869&#45;&gt;Node876</title>
<path fill="none" stroke="midnightblue" d="M698.043,-169.381C702.754,-171.95 707.136,-175.057 711,-178.803 761.773,-228.035 704.166,-277.528 747,-333.803 759.845,-350.679 780.089,-362.558 798.321,-370.489"/>
<polygon fill="midnightblue" stroke="midnightblue" points="797.04,-373.746 807.621,-374.282 799.684,-367.265 797.04,-373.746"/>
</g>
<!-- Node879 -->
<g id="node33" class="node"><title>Node879</title>
<g id="a_node33"><a xlink:href="../../dc/d31/a00208.html#aeda0763b2c90f6fef3f23b9b4d3d68f0" target="_top" xlink:title="Set priority value. ">
<polygon fill="none" stroke="black" points="774,-151.303 774,-170.303 906,-170.303 906,-151.303 774,-151.303"/>
<text text-anchor="middle" x="840" y="-158.303" font-family="Helvetica,sans-Serif" font-size="10.00">nars.entity.Item.setPriority</text>
</a>
</g>
</g>
<!-- Node869&#45;&gt;Node879 -->
<g id="edge46" class="edge"><title>Node869&#45;&gt;Node879</title>
<path fill="none" stroke="midnightblue" d="M711.219,-160.23C728.669,-160.309 746.663,-160.389 763.441,-160.465"/>
<polygon fill="midnightblue" stroke="midnightblue" points="763.699,-163.966 773.714,-160.511 763.73,-156.966 763.699,-163.966"/>
</g>
<!-- Node881 -->
<g id="node35" class="node"><title>Node881</title>
<g id="a_node35"><a xlink:href="../../dc/d31/a00208.html#a0f27e5a39dc50b5f108732f59199db22" target="_top" xlink:title="Set durability value. ">
<polygon fill="none" stroke="black" points="768.5,-227.303 768.5,-246.303 911.5,-246.303 911.5,-227.303 768.5,-227.303"/>
<text text-anchor="middle" x="840" y="-234.303" font-family="Helvetica,sans-Serif" font-size="10.00">nars.entity.Item.setDurability</text>
</a>
</g>
</g>
<!-- Node869&#45;&gt;Node881 -->
<g id="edge49" class="edge"><title>Node869&#45;&gt;Node881</title>
<path fill="none" stroke="midnightblue" d="M688.785,-169.382C696.541,-171.846 704.106,-174.935 711,-178.803 731.571,-190.348 726.465,-206.195 747,-217.803 750.94,-220.031 755.107,-221.998 759.405,-223.736"/>
<polygon fill="midnightblue" stroke="midnightblue" points="758.393,-227.092 768.987,-227.187 760.764,-220.506 758.393,-227.092"/>
</g>
<!-- Node883 -->
<g id="node37" class="node"><title>Node883</title>
<g id="a_node37"><a xlink:href="../../dc/d31/a00208.html#a686c257308a15eba9458a438cc60227a" target="_top" xlink:title="Set quality value. ">
<polygon fill="none" stroke="black" points="774,-113.303 774,-132.303 906,-132.303 906,-113.303 774,-113.303"/>
<text text-anchor="middle" x="840" y="-120.303" font-family="Helvetica,sans-Serif" font-size="10.00">nars.entity.Item.setQuality</text>
</a>
</g>
</g>
<!-- Node869&#45;&gt;Node883 -->
<g id="edge52" class="edge"><title>Node869&#45;&gt;Node883</title>
<path fill="none" stroke="midnightblue" d="M673.428,-150.275C703.355,-145.31 740.139,-139.206 771.429,-134.015"/>
<polygon fill="midnightblue" stroke="midnightblue" points="772.087,-137.453 781.379,-132.364 770.941,-130.548 772.087,-137.453"/>
</g>
<!-- Node870&#45;&gt;Node864 -->
<g id="edge33" class="edge"><title>Node870&#45;&gt;Node864</title>
<path fill="none" stroke="midnightblue" d="M906.3,-190.825C915.63,-188.137 924.824,-184.561 933,-179.803 953.96,-167.608 948.163,-151.208 969,-138.803 972.665,-136.622 976.557,-134.69 980.579,-132.981"/>
<polygon fill="midnightblue" stroke="midnightblue" points="982.026,-136.176 990.155,-129.38 979.563,-129.623 982.026,-136.176"/>
</g>
<!-- Node871 -->
<g id="node25" class="node"><title>Node871</title>
<g id="a_node25"><a xlink:href="../../dd/da2/a00192.html#a1e7b6826531f03f792f3516ce0e97ac3" target="_top" xlink:title="Get priority value. ">
<polygon fill="none" stroke="black" points="985,-197.803 985,-227.803 1122,-227.803 1122,-197.803 985,-197.803"/>
<text text-anchor="start" x="993" y="-215.803" font-family="Helvetica,sans-Serif" font-size="10.00">nars.entity.BudgetValue.get</text>
<text text-anchor="middle" x="1053.5" y="-204.803" font-family="Helvetica,sans-Serif" font-size="10.00">Priority</text>
</a>
</g>
</g>
<!-- Node870&#45;&gt;Node871 -->
<g id="edge34" class="edge"><title>Node870&#45;&gt;Node871</title>
<path fill="none" stroke="midnightblue" d="M906.183,-203.118C927.865,-204.553 952.229,-206.166 974.765,-207.658"/>
<polygon fill="midnightblue" stroke="midnightblue" points="974.764,-211.165 984.974,-208.334 975.227,-204.181 974.764,-211.165"/>
</g>
<!-- Node874&#45;&gt;Node864 -->
<g id="edge38" class="edge"><title>Node874&#45;&gt;Node864</title>
<path fill="none" stroke="midnightblue" d="M898.514,-94.3211C925.205,-98.7381 957.114,-104.019 984.946,-108.624"/>
<polygon fill="midnightblue" stroke="midnightblue" points="984.56,-112.108 994.998,-110.288 985.703,-105.202 984.56,-112.108"/>
</g>
<!-- Node875 -->
<g id="node29" class="node"><title>Node875</title>
<g id="a_node29"><a xlink:href="../../dd/da2/a00192.html#ab0e0dc2172d3fab6390670acb68da1a6" target="_top" xlink:title="Get durability value. ">
<polygon fill="none" stroke="black" points="985,-11.8034 985,-41.8034 1122,-41.8034 1122,-11.8034 985,-11.8034"/>
<text text-anchor="start" x="993" y="-29.8034" font-family="Helvetica,sans-Serif" font-size="10.00">nars.entity.BudgetValue.get</text>
<text text-anchor="middle" x="1053.5" y="-18.8034" font-family="Helvetica,sans-Serif" font-size="10.00">Durability</text>
</a>
</g>
</g>
<!-- Node874&#45;&gt;Node875 -->
<g id="edge39" class="edge"><title>Node874&#45;&gt;Node875</title>
<path fill="none" stroke="midnightblue" d="M875.925,-75.2259C906.297,-66.8968 951.095,-54.6118 987.968,-44.5003"/>
<polygon fill="midnightblue" stroke="midnightblue" points="988.928,-47.8661 997.647,-41.8459 987.077,-41.1153 988.928,-47.8661"/>
</g>
<!-- Node876&#45;&gt;Node860 -->
<g id="edge43" class="edge"><title>Node876&#45;&gt;Node860</title>
<path fill="none" stroke="midnightblue" d="M850.678,-393.394C870.874,-412.861 919.73,-457.159 969,-480.803 975.84,-484.086 983.251,-486.893 990.736,-489.283"/>
<polygon fill="midnightblue" stroke="midnightblue" points="989.996,-492.714 1000.58,-492.19 991.98,-486 989.996,-492.714"/>
</g>
<!-- Node876&#45;&gt;Node863 -->
<g id="edge44" class="edge"><title>Node876&#45;&gt;Node863</title>
<path fill="none" stroke="midnightblue" d="M866.9,-393.388C892.695,-402.869 933.466,-417.677 969,-429.803 977.577,-432.73 986.676,-435.755 995.592,-438.674"/>
<polygon fill="midnightblue" stroke="midnightblue" points="994.569,-442.021 1005.16,-441.79 996.737,-435.365 994.569,-442.021"/>
</g>
<!-- Node876&#45;&gt;Node872 -->
<g id="edge45" class="edge"><title>Node876&#45;&gt;Node872</title>
<path fill="none" stroke="midnightblue" d="M869.618,-374.264C895.49,-365.729 934.671,-353.025 969,-342.803 981.281,-339.147 994.639,-335.376 1007,-331.972"/>
<polygon fill="midnightblue" stroke="midnightblue" points="1007.93,-335.345 1016.65,-329.33 1006.08,-328.594 1007.93,-335.345"/>
</g>
<!-- Node877 -->
<g id="node31" class="node"><title>Node877</title>
<g id="a_node31"><a xlink:href="../../d6/db8/a00376.html#a5ff587f448a7a832732b4d86eb9a7642" target="_top" xlink:title="Get the average priority of Items. ">
<polygon fill="none" stroke="black" points="989.5,-390.803 989.5,-420.803 1117.5,-420.803 1117.5,-390.803 989.5,-390.803"/>
<text text-anchor="start" x="997.5" y="-408.803" font-family="Helvetica,sans-Serif" font-size="10.00">nars.storage.Bag.average</text>
<text text-anchor="middle" x="1053.5" y="-397.803" font-family="Helvetica,sans-Serif" font-size="10.00">Priority</text>
</a>
</g>
</g>
<!-- Node876&#45;&gt;Node877 -->
<g id="edge41" class="edge"><title>Node876&#45;&gt;Node877</title>
<path fill="none" stroke="midnightblue" d="M914.676,-391.467C935.576,-393.641 958.322,-396.007 979.2,-398.179"/>
<polygon fill="midnightblue" stroke="midnightblue" points="978.974,-401.674 989.283,-399.228 979.698,-394.712 978.974,-401.674"/>
</g>
<!-- Node878 -->
<g id="node32" class="node"><title>Node878</title>
<g id="a_node32"><a xlink:href="../../dc/d59/a00364.html#ae14632d1d25bcde8d6698ea0b58eb19a" target="_top" xlink:title="The syntactic complexity, for constant automic Term, is 1. ">
<polygon fill="none" stroke="black" points="969,-352.303 969,-371.303 1138,-371.303 1138,-352.303 969,-352.303"/>
<text text-anchor="middle" x="1053.5" y="-359.303" font-family="Helvetica,sans-Serif" font-size="10.00">nars.language.Term.getComplexity</text>
</a>
</g>
</g>
<!-- Node876&#45;&gt;Node878 -->
<g id="edge42" class="edge"><title>Node876&#45;&gt;Node878</title>
<path fill="none" stroke="midnightblue" d="M914.676,-376.14C928.914,-374.659 944.01,-373.088 958.788,-371.551"/>
<polygon fill="midnightblue" stroke="midnightblue" points="959.37,-375.01 968.954,-370.494 958.646,-368.047 959.37,-375.01"/>
</g>
<!-- Node879&#45;&gt;Node864 -->
<g id="edge47" class="edge"><title>Node879&#45;&gt;Node864</title>
<path fill="none" stroke="midnightblue" d="M890.054,-151.294C920.908,-145.313 960.905,-137.559 993.49,-131.243"/>
<polygon fill="midnightblue" stroke="midnightblue" points="994.195,-134.671 1003.35,-129.332 992.863,-127.799 994.195,-134.671"/>
</g>
<!-- Node880 -->
<g id="node34" class="node"><title>Node880</title>
<g id="a_node34"><a xlink:href="../../dd/da2/a00192.html#ac2cb3449a15125e5f0e4165aeee0befb" target="_top" xlink:title="Change priority value. ">
<polygon fill="none" stroke="black" points="985,-148.803 985,-178.803 1122,-178.803 1122,-148.803 985,-148.803"/>
<text text-anchor="start" x="993" y="-166.803" font-family="Helvetica,sans-Serif" font-size="10.00">nars.entity.BudgetValue.set</text>
<text text-anchor="middle" x="1053.5" y="-155.803" font-family="Helvetica,sans-Serif" font-size="10.00">Priority</text>
</a>
</g>
</g>
<!-- Node879&#45;&gt;Node880 -->
<g id="edge48" class="edge"><title>Node879&#45;&gt;Node880</title>
<path fill="none" stroke="midnightblue" d="M906.183,-161.728C927.865,-162.036 952.229,-162.381 974.765,-162.701"/>
<polygon fill="midnightblue" stroke="midnightblue" points="974.925,-166.203 984.974,-162.846 975.024,-159.204 974.925,-166.203"/>
</g>
<!-- Node881&#45;&gt;Node864 -->
<g id="edge50" class="edge"><title>Node881&#45;&gt;Node864</title>
<path fill="none" stroke="midnightblue" d="M911.926,-229.401C919.527,-226.56 926.753,-222.788 933,-217.803 963.161,-193.739 939.082,-163.169 969,-138.803 971.794,-136.528 974.807,-134.513 977.973,-132.73"/>
<polygon fill="midnightblue" stroke="midnightblue" points="979.734,-135.768 987.244,-128.294 976.712,-129.453 979.734,-135.768"/>
</g>
<!-- Node882 -->
<g id="node36" class="node"><title>Node882</title>
<g id="a_node36"><a xlink:href="../../dd/da2/a00192.html#ab72bce41fd8a1512fc8baa07ed93fc1b" target="_top" xlink:title="Change durability value. ">
<polygon fill="none" stroke="black" points="985,-246.803 985,-276.803 1122,-276.803 1122,-246.803 985,-246.803"/>
<text text-anchor="start" x="993" y="-264.803" font-family="Helvetica,sans-Serif" font-size="10.00">nars.entity.BudgetValue.set</text>
<text text-anchor="middle" x="1053.5" y="-253.803" font-family="Helvetica,sans-Serif" font-size="10.00">Durability</text>
</a>
</g>
</g>
<!-- Node881&#45;&gt;Node882 -->
<g id="edge51" class="edge"><title>Node881&#45;&gt;Node882</title>
<path fill="none" stroke="midnightblue" d="M911.72,-245.163C931.948,-247.554 954.102,-250.172 974.727,-252.61"/>
<polygon fill="midnightblue" stroke="midnightblue" points="974.372,-256.093 984.714,-253.791 975.194,-249.141 974.372,-256.093"/>
</g>
<!-- Node883&#45;&gt;Node864 -->
<g id="edge53" class="edge"><title>Node883&#45;&gt;Node864</title>
<path fill="none" stroke="midnightblue" d="M906.183,-121.879C928.597,-121.561 953.878,-121.202 977.041,-120.874"/>
<polygon fill="midnightblue" stroke="midnightblue" points="977.219,-124.372 987.168,-120.73 977.12,-117.372 977.219,-124.372"/>
</g>
<!-- Node884 -->
<g id="node38" class="node"><title>Node884</title>
<g id="a_node38"><a xlink:href="../../dd/da2/a00192.html#ab134287bfbdfe703501697c5f9eac50b" target="_top" xlink:title="Change quality value. ">
<polygon fill="none" stroke="black" points="985,-60.8034 985,-90.8034 1122,-90.8034 1122,-60.8034 985,-60.8034"/>
<text text-anchor="start" x="993" y="-78.8034" font-family="Helvetica,sans-Serif" font-size="10.00">nars.entity.BudgetValue.set</text>
<text text-anchor="middle" x="1053.5" y="-67.8034" font-family="Helvetica,sans-Serif" font-size="10.00">Quality</text>
</a>
</g>
</g>
<!-- Node883&#45;&gt;Node884 -->
<g id="edge54" class="edge"><title>Node883&#45;&gt;Node884</title>
<path fill="none" stroke="midnightblue" d="M888.327,-113.28C902.692,-110.322 918.506,-106.997 933,-103.803 948.107,-100.474 964.256,-96.7815 979.641,-93.1991"/>
<polygon fill="midnightblue" stroke="midnightblue" points="980.681,-96.5503 989.622,-90.8658 979.088,-89.7341 980.681,-96.5503"/>
</g>
</g>
</svg>
