<?xml version="1.0" encoding="UTF-8" standalone="no"?>
<!DOCTYPE svg PUBLIC "-//W3C//DTD SVG 1.1//EN"
 "http://www.w3.org/Graphics/SVG/1.1/DTD/svg11.dtd">
<!-- Generated by graphviz version 2.38.0 (20140413.2041)
 -->
<!-- Title: nars.entity.Concept.getBelief Pages: 1 -->
<!--zoomable 39 -->
<svg id="main" version="1.1" xmlns="http://www.w3.org/2000/svg" xmlns:xlink="http://www.w3.org/1999/xlink" xml:space="preserve" onload="init(evt)">
<style type="text/css"><![CDATA[
.edge:hover path { stroke: red; }
.edge:hover polygon { stroke: red; fill: red; }
]]></style>
<script type="text/javascript"><![CDATA[
var edges = document.getElementsByTagName('g');
if (edges && edges.length) {
  for (var i=0;i<edges.length;i++) {
    if (edges[i].id.substr(0,4)=='edge') {
      edges[i].setAttribute('class','edge');
    }
  }
}
]]></script>
        <defs>
                <circle id="rim" cx="0" cy="0" r="7"/>
                <circle id="rim2" cx="0" cy="0" r="3.5"/>
                <g id="zoomPlus">
                        <use xlink:href="#rim" fill="#404040">
                                <set attributeName="fill" to="#808080" begin="zoomplus.mouseover" end="zoomplus.mouseout"/>
                        </use>
                        <path d="M-4,0h8M0,-4v8" fill="none" stroke="white" stroke-width="1.5" pointer-events="none"/>
                </g>
                <g id="zoomMin">
                        <use xlink:href="#rim" fill="#404040">
                                <set attributeName="fill" to="#808080" begin="zoomminus.mouseover" end="zoomminus.mouseout"/>
                        </use>
                        <path d="M-4,0h8" fill="none" stroke="white" stroke-width="1.5" pointer-events="none"/>
                </g>
                <g id="dirArrow">
                        <path fill="none" stroke="white" stroke-width="1.5" d="M0,-3.0v7 M-2.5,-0.5L0,-3.0L2.5,-0.5"/>
                </g>
               <g id="resetDef">
                       <use xlink:href="#rim2" fill="#404040">
                               <set attributeName="fill" to="#808080" begin="reset.mouseover" end="reset.mouseout"/>
                       </use>
               </g>
        </defs>

<script type="text/javascript">
var viewWidth = 1809;
var viewHeight = 39;
var sectionId = 'dynsection-17';
</script>
<script xlink:href="../../svgpan.js"/>
<svg id="graph" class="graph">
<g id="viewport">
<title>nars.entity.Concept.getBelief</title>
<!-- Node549 -->
<g id="node1" class="node"><title>Node549</title>
<polygon fill="#bfbfbf" stroke="black" points="0,-6 0,-25 143,-25 143,-6 0,-6"/>
<text text-anchor="middle" x="71.5" y="-13" font-family="Helvetica,sans-Serif" font-size="10.00">nars.entity.Concept.getBelief</text>
</g>
<!-- Node550 -->
<g id="node2" class="node"><title>Node550</title>
<g id="a_node2"><a xlink:href="../../dc/ded/a00252.html#ac2d01dfdc40bdd47c757cb549217e6e3" target="_top" xlink:title="Entry point of the inference engine. ">
<polygon fill="none" stroke="black" points="179,-6 179,-25 342,-25 342,-6 179,-6"/>
<text text-anchor="middle" x="260.5" y="-13" font-family="Helvetica,sans-Serif" font-size="10.00">nars.inference.RuleTables.reason</text>
</a>
</g>
</g>
<!-- Node549&#45;&gt;Node550 -->
<g id="edge1" class="edge"><title>Node549&#45;&gt;Node550</title>
<path fill="none" stroke="midnightblue" d="M153.44,-15.5C161.91,-15.5 170.52,-15.5 178.985,-15.5"/>
<polygon fill="midnightblue" stroke="midnightblue" points="153.197,-12.0001 143.197,-15.5 153.197,-19.0001 153.197,-12.0001"/>
</g>
<!-- Node551 -->
<g id="node3" class="node"><title>Node551</title>
<g id="a_node3"><a xlink:href="../../d7/ded/a00196.html#ad6fb91dda799c3092ecb186ef24ca92a" target="_top" xlink:title="An atomic step in a concept, only called in Memory# processConcept. ">
<polygon fill="none" stroke="black" points="378,-0.5 378,-30.5 497,-30.5 497,-0.5 378,-0.5"/>
<text text-anchor="start" x="386" y="-18.5" font-family="Helvetica,sans-Serif" font-size="10.00">nars.entity.Concept.fire</text>
<text text-anchor="middle" x="437.5" y="-7.5" font-family="Helvetica,sans-Serif" font-size="10.00">FromProcessConcept</text>
</a>
</g>
</g>
<!-- Node550&#45;&gt;Node551 -->
<g id="edge2" class="edge"><title>Node550&#45;&gt;Node551</title>
<path fill="none" stroke="midnightblue" d="M352.249,-15.5C360.907,-15.5 369.523,-15.5 377.757,-15.5"/>
<polygon fill="midnightblue" stroke="midnightblue" points="352.085,-12.0001 342.085,-15.5 352.085,-19.0001 352.085,-12.0001"/>
</g>
<!-- Node552 -->
<g id="node4" class="node"><title>Node552</title>
<g id="a_node4"><a xlink:href="../../d4/d27/a00392.html#a0acc4adbf6a2462245da46bcb529746c" target="_top" xlink:title="Select a concept to fireFromProcessConcept. ">
<polygon fill="none" stroke="black" points="533,-0.5 533,-30.5 679,-30.5 679,-0.5 533,-0.5"/>
<text text-anchor="start" x="541" y="-18.5" font-family="Helvetica,sans-Serif" font-size="10.00">nars.storage.Memory.process</text>
<text text-anchor="middle" x="606" y="-7.5" font-family="Helvetica,sans-Serif" font-size="10.00">Concept</text>
</a>
</g>
</g>
<!-- Node551&#45;&gt;Node552 -->
<g id="edge3" class="edge"><title>Node551&#45;&gt;Node552</title>
<path fill="none" stroke="midnightblue" d="M507.337,-15.5C515.748,-15.5 524.361,-15.5 532.819,-15.5"/>
<polygon fill="midnightblue" stroke="midnightblue" points="507.202,-12.0001 497.202,-15.5 507.202,-19.0001 507.202,-12.0001"/>
</g>
<!-- Node553 -->
<g id="node5" class="node"><title>Node553</title>
<g id="a_node5"><a xlink:href="../../d4/d27/a00392.html#a59ae339d666409988d90d29be4f73a91" target="_top" xlink:title="An atomic working workCycle of the system: process new Tasks, then fireFromProcessConcept a concept...">
<polygon fill="none" stroke="black" points="715,-0.5 715,-30.5 848,-30.5 848,-0.5 715,-0.5"/>
<text text-anchor="start" x="723" y="-18.5" font-family="Helvetica,sans-Serif" font-size="10.00">nars.storage.Memory.work</text>
<text text-anchor="middle" x="781.5" y="-7.5" font-family="Helvetica,sans-Serif" font-size="10.00">Cycle</text>
</a>
</g>
</g>
<!-- Node552&#45;&gt;Node553 -->
<g id="edge4" class="edge"><title>Node552&#45;&gt;Node553</title>
<path fill="none" stroke="midnightblue" d="M689.118,-15.5C697.716,-15.5 706.375,-15.5 714.755,-15.5"/>
<polygon fill="midnightblue" stroke="midnightblue" points="689.072,-12.0001 679.072,-15.5 689.072,-19.0001 689.072,-12.0001"/>
</g>
<!-- Node554 -->
<g id="node6" class="node"><title>Node554</title>
<g id="a_node6"><a xlink:href="../../df/d15/a00416.html#a0d5c797dc17d9e8d0998852915e0f303" target="_top" xlink:title="nars.storage.ReasonerBatch.doTick">
<polygon fill="none" stroke="black" points="884,-6 884,-25 1057,-25 1057,-6 884,-6"/>
<text text-anchor="middle" x="970.5" y="-13" font-family="Helvetica,sans-Serif" font-size="10.00">nars.storage.ReasonerBatch.doTick</text>
</a>
</g>
</g>
<!-- Node553&#45;&gt;Node554 -->
<g id="edge5" class="edge"><title>Node553&#45;&gt;Node554</title>
<path fill="none" stroke="midnightblue" d="M858.343,-15.5C866.782,-15.5 875.421,-15.5 883.971,-15.5"/>
<polygon fill="midnightblue" stroke="midnightblue" points="858.166,-12.0001 848.166,-15.5 858.166,-19.0001 858.166,-12.0001"/>
</g>
<!-- Node555 -->
<g id="node7" class="node"><title>Node555</title>
<g id="a_node7"><a xlink:href="../../df/d15/a00416.html#a3468aa0f99edcd66412f27922dddb880" target="_top" xlink:title="A clock tick. ">
<polygon fill="none" stroke="black" points="1093,-6 1093,-25 1253,-25 1253,-6 1093,-6"/>
<text text-anchor="middle" x="1173" y="-13" font-family="Helvetica,sans-Serif" font-size="10.00">nars.storage.ReasonerBatch.tick</text>
</a>
</g>
</g>
<!-- Node554&#45;&gt;Node555 -->
<g id="edge6" class="edge"><title>Node554&#45;&gt;Node555</title>
<path fill="none" stroke="midnightblue" d="M1067.13,-15.5C1075.7,-15.5 1084.31,-15.5 1092.71,-15.5"/>
<polygon fill="midnightblue" stroke="midnightblue" points="1067.11,-12.0001 1057.11,-15.5 1067.11,-19.0001 1067.11,-12.0001"/>
</g>
<!-- Node556 -->
<g id="node8" class="node"><title>Node556</title>
<g id="a_node8"><a xlink:href="../../d9/da1/a00396.html#a5d9cfe517bcfbe41e5251910bcd119c1" target="_top" xlink:title="Run to completion: repeatedly execute NARS working cycle, until Inputs are Finished, or 1000 steps. ">
<polygon fill="none" stroke="black" points="1289,-6 1289,-25 1433,-25 1433,-6 1289,-6"/>
<text text-anchor="middle" x="1361" y="-13" font-family="Helvetica,sans-Serif" font-size="10.00">nars.storage.NARSBatch.run</text>
</a>
</g>
</g>
<!-- Node555&#45;&gt;Node556 -->
<g id="edge7" class="edge"><title>Node555&#45;&gt;Node556</title>
<path fill="none" stroke="midnightblue" d="M1263.22,-15.5C1271.82,-15.5 1280.47,-15.5 1288.87,-15.5"/>
<polygon fill="midnightblue" stroke="midnightblue" points="1263.15,-12.0001 1253.15,-15.5 1263.15,-19.0001 1263.15,-12.0001"/>
</g>
<!-- Node557 -->
<g id="node9" class="node"><title>Node557</title>
<g id="a_node9"><a xlink:href="../../d9/da1/a00396.html#a7c307c6b842f82664de6b0e52bdf8efc" target="_top" xlink:title="non&#45;static equivalent to main(String[]) : run to completion from an input file ">
<polygon fill="none" stroke="black" points="1469,-0.5 1469,-30.5 1613,-30.5 1613,-0.5 1469,-0.5"/>
<text text-anchor="start" x="1477" y="-18.5" font-family="Helvetica,sans-Serif" font-size="10.00">nars.storage.NARSBatch.run</text>
<text text-anchor="middle" x="1541" y="-7.5" font-family="Helvetica,sans-Serif" font-size="10.00">Inference</text>
</a>
</g>
</g>
<!-- Node556&#45;&gt;Node557 -->
<g id="edge8" class="edge"><title>Node556&#45;&gt;Node557</title>
<path fill="none" stroke="midnightblue" d="M1443.17,-15.5C1451.79,-15.5 1460.51,-15.5 1469,-15.5"/>
<polygon fill="midnightblue" stroke="midnightblue" points="1443.12,-12.0001 1433.12,-15.5 1443.12,-19.0001 1443.12,-12.0001"/>
</g>
<!-- Node558 -->
<g id="node10" class="node"><title>Node558</title>
<g id="a_node10"><a xlink:href="../../d9/da1/a00396.html#abafc597289bc2f6453b5cd0dd6634e54" target="_top" xlink:title="The entry point of the standalone application. ">
<polygon fill="none" stroke="black" points="1649,-6 1649,-25 1801,-25 1801,-6 1649,-6"/>
<text text-anchor="middle" x="1725" y="-13" font-family="Helvetica,sans-Serif" font-size="10.00">nars.storage.NARSBatch.main</text>
</a>
</g>
</g>
<!-- Node557&#45;&gt;Node558 -->
<g id="edge9" class="edge"><title>Node557&#45;&gt;Node558</title>
<path fill="none" stroke="midnightblue" d="M1623.17,-15.5C1631.76,-15.5 1640.48,-15.5 1649,-15.5"/>
<polygon fill="midnightblue" stroke="midnightblue" points="1623.15,-12.0001 1613.15,-15.5 1623.15,-19.0001 1623.15,-12.0001"/>
</g>
</g>
</svg>
        <g id="navigator" transform="translate(0 0)" fill="#404254">
                <rect fill="#f2f5e9" fill-opacity="0.5" stroke="#606060" stroke-width=".5" x="0" y="0" width="60" height="60"/>
                <use id="zoomplus" xlink:href="#zoomPlus" x="17" y="9" onmousedown="handleZoom(evt,'in')"/>
                <use id="zoomminus" xlink:href="#zoomMin" x="42" y="9" onmousedown="handleZoom(evt,'out')"/>
                <use id="reset" xlink:href="#resetDef" x="30" y="36" onmousedown="handleReset()"/>
                <g id="arrowUp" xlink:href="#dirArrow" transform="translate(30 24)" onmousedown="handlePan(0,-1)">
                  <use xlink:href="#rim" fill="#404040">
                        <set attributeName="fill" to="#808080" begin="arrowUp.mouseover" end="arrowUp.mouseout"/>
                  </use>
                  <path fill="none" stroke="white" stroke-width="1.5" d="M0,-3.0v7 M-2.5,-0.5L0,-3.0L2.5,-0.5"/>
                </g>
                <g id="arrowRight" xlink:href="#dirArrow" transform="rotate(90) translate(36 -43)" onmousedown="handlePan(1,0)">
                  <use xlink:href="#rim" fill="#404040">
                        <set attributeName="fill" to="#808080" begin="arrowRight.mouseover" end="arrowRight.mouseout"/>
                  </use>
                  <path fill="none" stroke="white" stroke-width="1.5" d="M0,-3.0v7 M-2.5,-0.5L0,-3.0L2.5,-0.5"/>
                </g>
                <g id="arrowDown" xlink:href="#dirArrow" transform="rotate(180) translate(-30 -48)" onmousedown="handlePan(0,1)">
                  <use xlink:href="#rim" fill="#404040">
                        <set attributeName="fill" to="#808080" begin="arrowDown.mouseover" end="arrowDown.mouseout"/>
                  </use>
                  <path fill="none" stroke="white" stroke-width="1.5" d="M0,-3.0v7 M-2.5,-0.5L0,-3.0L2.5,-0.5"/>
                </g>
                <g id="arrowLeft" xlink:href="#dirArrow" transform="rotate(270) translate(-36 17)" onmousedown="handlePan(-1,0)">
                  <use xlink:href="#rim" fill="#404040">
                        <set attributeName="fill" to="#808080" begin="arrowLeft.mouseover" end="arrowLeft.mouseout"/>
                  </use>
                  <path fill="none" stroke="white" stroke-width="1.5" d="M0,-3.0v7 M-2.5,-0.5L0,-3.0L2.5,-0.5"/>
                </g>
        </g>
        <svg viewBox="0 0 15 15" width="100%" height="30px" preserveAspectRatio="xMaxYMin meet">
         <g id="arrow_out" transform="scale(0.3 0.3)">
          <a xlink:href="a00196_a37e00599fc19c5931da40bd446890f89_icgraph_org.svg" target="_base">
           <rect id="button" ry="5" rx="5" y="6" x="6" height="38" width="38"
                fill="#f2f5e9" fill-opacity="0.5" stroke="#606060" stroke-width="1.0"/>
           <path id="arrow"
             d="M 11.500037,31.436501 C 11.940474,20.09759 22.043105,11.32322 32.158766,21.979434 L 37.068811,17.246167 C 37.068811,17.246167 37.088388,32 37.088388,32 L 22.160133,31.978069 C 22.160133,31.978069 26.997745,27.140456 26.997745,27.140456 C 18.528582,18.264221 13.291696,25.230495 11.500037,31.436501 z"
             style="fill:#404040;"/>
          </a>
         </g>
        </svg>
</svg>
