<?xml version="1.0" encoding="UTF-8" standalone="no"?>
<!DOCTYPE svg PUBLIC "-//W3C//DTD SVG 1.1//EN"
 "http://www.w3.org/Graphics/SVG/1.1/DTD/svg11.dtd">
<!-- Generated by graphviz version 2.38.0 (20140413.2041)
 -->
<!-- Title: nars.entity.Concept.addToTable Pages: 1 -->
<!--zoomable 390 -->
<svg id="main" version="1.1" xmlns="http://www.w3.org/2000/svg" xmlns:xlink="http://www.w3.org/1999/xlink" xml:space="preserve" onload="init(evt)">
<style type="text/css"><![CDATA[
.edge:hover path { stroke: red; }
.edge:hover polygon { stroke: red; fill: red; }
]]></style>
<script type="text/javascript"><![CDATA[
var edges = document.getElementsByTagName('g');
if (edges && edges.length) {
  for (var i=0;i<edges.length;i++) {
    if (edges[i].id.substr(0,4)=='edge') {
      edges[i].setAttribute('class','edge');
    }
  }
}
]]></script>
        <defs>
                <circle id="rim" cx="0" cy="0" r="7"/>
                <circle id="rim2" cx="0" cy="0" r="3.5"/>
                <g id="zoomPlus">
                        <use xlink:href="#rim" fill="#404040">
                                <set attributeName="fill" to="#808080" begin="zoomplus.mouseover" end="zoomplus.mouseout"/>
                        </use>
                        <path d="M-4,0h8M0,-4v8" fill="none" stroke="white" stroke-width="1.5" pointer-events="none"/>
                </g>
                <g id="zoomMin">
                        <use xlink:href="#rim" fill="#404040">
                                <set attributeName="fill" to="#808080" begin="zoomminus.mouseover" end="zoomminus.mouseout"/>
                        </use>
                        <path d="M-4,0h8" fill="none" stroke="white" stroke-width="1.5" pointer-events="none"/>
                </g>
                <g id="dirArrow">
                        <path fill="none" stroke="white" stroke-width="1.5" d="M0,-3.0v7 M-2.5,-0.5L0,-3.0L2.5,-0.5"/>
                </g>
               <g id="resetDef">
                       <use xlink:href="#rim2" fill="#404040">
                               <set attributeName="fill" to="#808080" begin="reset.mouseover" end="reset.mouseout"/>
                       </use>
               </g>
        </defs>

<script type="text/javascript">
var viewWidth = 932;
var viewHeight = 390;
var sectionId = 'dynsection-3';
</script>
<script xlink:href="../../svgpan.js"/>
<svg id="graph" class="graph">
<g id="viewport">
<title>nars.entity.Concept.addToTable</title>
<!-- Node10 -->
<g id="node1" class="node"><title>Node10</title>
<polygon fill="#bfbfbf" stroke="black" points="0,-149.5 0,-179.5 132,-179.5 132,-149.5 0,-149.5"/>
<text text-anchor="start" x="8" y="-167.5" font-family="Helvetica,sans-Serif" font-size="10.00">nars.entity.Concept.addTo</text>
<text text-anchor="middle" x="66" y="-156.5" font-family="Helvetica,sans-Serif" font-size="10.00">Table</text>
</g>
<!-- Node11 -->
<g id="node2" class="node"><title>Node11</title>
<g id="a_node2"><a xlink:href="../../dd/dc1/a00212.html#a83162edae863623803e811c0752d17fa" target="_top" xlink:title="Check whether the judgment is equivalent to another one. ">
<polygon fill="none" stroke="black" points="168,-198 168,-217 333,-217 333,-198 168,-198"/>
<text text-anchor="middle" x="250.5" y="-205" font-family="Helvetica,sans-Serif" font-size="10.00">nars.entity.Sentence.equivalentTo</text>
</a>
</g>
</g>
<!-- Node10&#45;&gt;Node11 -->
<g id="edge1" class="edge"><title>Node10&#45;&gt;Node11</title>
<path fill="none" stroke="midnightblue" d="M130.83,-179.539C153.28,-184.829 178.171,-190.694 199.335,-195.68"/>
<polygon fill="midnightblue" stroke="midnightblue" points="198.55,-199.091 209.086,-197.978 200.155,-192.278 198.55,-199.091"/>
</g>
<!-- Node28 -->
<g id="node19" class="node"><title>Node28</title>
<g id="a_node19"><a xlink:href="../../d7/ded/a00196.html#ac46e399d8916125fe6121b85bdf962c2" target="_top" xlink:title="Determine the rank of a judgment by its confidence and originality (stamp length) ...">
<polygon fill="none" stroke="black" points="188.5,-107.5 188.5,-137.5 312.5,-137.5 312.5,-107.5 188.5,-107.5"/>
<text text-anchor="start" x="196.5" y="-125.5" font-family="Helvetica,sans-Serif" font-size="10.00">nars.entity.Concept.rank</text>
<text text-anchor="middle" x="250.5" y="-114.5" font-family="Helvetica,sans-Serif" font-size="10.00">Belief</text>
</a>
</g>
</g>
<!-- Node10&#45;&gt;Node28 -->
<g id="edge19" class="edge"><title>Node10&#45;&gt;Node28</title>
<path fill="none" stroke="midnightblue" d="M132.114,-149.515C147.145,-146.056 163.209,-142.359 178.478,-138.845"/>
<polygon fill="midnightblue" stroke="midnightblue" points="179.417,-142.22 188.378,-136.566 177.847,-135.398 179.417,-142.22"/>
</g>
<!-- Node12 -->
<g id="node3" class="node"><title>Node12</title>
<g id="a_node3"><a xlink:href="../../dd/dc1/a00212.html#ad1ded9a02cae3557948d05530cd4d37e" target="_top" xlink:title="The content of a Sentence is a Term. ">
<polygon fill="none" stroke="black" points="388,-351.5 388,-381.5 511,-381.5 511,-351.5 388,-351.5"/>
<text text-anchor="start" x="396" y="-369.5" font-family="Helvetica,sans-Serif" font-size="10.00">nars.entity.Sentence.get</text>
<text text-anchor="middle" x="449.5" y="-358.5" font-family="Helvetica,sans-Serif" font-size="10.00">Content</text>
</a>
</g>
</g>
<!-- Node11&#45;&gt;Node12 -->
<g id="edge2" class="edge"><title>Node11&#45;&gt;Node12</title>
<path fill="none" stroke="midnightblue" d="M257.306,-217.211C272.483,-241.769 315.868,-306.857 369,-341.5 372.155,-343.557 375.49,-345.454 378.937,-347.203"/>
<polygon fill="midnightblue" stroke="midnightblue" points="377.723,-350.497 388.271,-351.492 380.646,-344.137 377.723,-350.497"/>
</g>
<!-- Node13 -->
<g id="node4" class="node"><title>Node13</title>
<g id="a_node4"><a xlink:href="../../dc/d59/a00364.html#ad85f45a7858737445d5158801774ff5f" target="_top" xlink:title="Equal terms have identical name, though not necessarily the same reference. ">
<polygon fill="none" stroke="black" points="382.5,-313 382.5,-332 516.5,-332 516.5,-313 382.5,-313"/>
<text text-anchor="middle" x="449.5" y="-320" font-family="Helvetica,sans-Serif" font-size="10.00">nars.language.Term.equals</text>
</a>
</g>
</g>
<!-- Node11&#45;&gt;Node13 -->
<g id="edge3" class="edge"><title>Node11&#45;&gt;Node13</title>
<path fill="none" stroke="midnightblue" d="M260.213,-217.072C278.436,-236.486 322.732,-280.587 369,-303.5 373.848,-305.901 379.016,-308.008 384.3,-309.856"/>
<polygon fill="midnightblue" stroke="midnightblue" points="383.303,-313.211 393.893,-312.909 385.425,-306.541 383.303,-313.211"/>
</g>
<!-- Node15 -->
<g id="node6" class="node"><title>Node15</title>
<g id="a_node6"><a xlink:href="../../dd/dc1/a00212.html#a68b153a51a5db6a4127b66158227697f" target="_top" xlink:title="The punctuation also indicates the type of the Sentence: Judgment, Question, or Goal. ">
<polygon fill="none" stroke="black" points="388,-263.5 388,-293.5 511,-293.5 511,-263.5 388,-263.5"/>
<text text-anchor="start" x="396" y="-281.5" font-family="Helvetica,sans-Serif" font-size="10.00">nars.entity.Sentence.get</text>
<text text-anchor="middle" x="449.5" y="-270.5" font-family="Helvetica,sans-Serif" font-size="10.00">Punctuation</text>
</a>
</g>
</g>
<!-- Node11&#45;&gt;Node15 -->
<g id="edge5" class="edge"><title>Node11&#45;&gt;Node15</title>
<path fill="none" stroke="midnightblue" d="M274.732,-217.139C298.309,-226.791 335.943,-241.847 369,-253.5 375.418,-255.762 382.16,-258.037 388.892,-260.244"/>
<polygon fill="midnightblue" stroke="midnightblue" points="388.117,-263.671 398.709,-263.418 390.271,-257.011 388.117,-263.671"/>
</g>
<!-- Node16 -->
<g id="node7" class="node"><title>Node16</title>
<g id="a_node7"><a xlink:href="../../dd/dc1/a00212.html#a9f69b4fef64c81abad21404946cd41f9" target="_top" xlink:title="The truth value of Judgment. ">
<polygon fill="none" stroke="black" points="388,-214.5 388,-244.5 511,-244.5 511,-214.5 388,-214.5"/>
<text text-anchor="start" x="396" y="-232.5" font-family="Helvetica,sans-Serif" font-size="10.00">nars.entity.Sentence.get</text>
<text text-anchor="middle" x="449.5" y="-221.5" font-family="Helvetica,sans-Serif" font-size="10.00">Truth</text>
</a>
</g>
</g>
<!-- Node11&#45;&gt;Node16 -->
<g id="edge6" class="edge"><title>Node11&#45;&gt;Node16</title>
<path fill="none" stroke="midnightblue" d="M333.049,-216.607C347.785,-218.253 363.043,-219.957 377.449,-221.565"/>
<polygon fill="midnightblue" stroke="midnightblue" points="377.442,-225.086 387.769,-222.718 378.219,-218.13 377.442,-225.086"/>
</g>
<!-- Node17 -->
<g id="node8" class="node"><title>Node17</title>
<g id="a_node8"><a xlink:href="../../d7/d40/a00236.html#a6c90107ab2c878d9527d4330f08ecac8" target="_top" xlink:title="Compare two truth values. ">
<polygon fill="none" stroke="black" points="377.5,-176 377.5,-195 521.5,-195 521.5,-176 377.5,-176"/>
<text text-anchor="middle" x="449.5" y="-183" font-family="Helvetica,sans-Serif" font-size="10.00">nars.entity.TruthValue.equals</text>
</a>
</g>
</g>
<!-- Node11&#45;&gt;Node17 -->
<g id="edge7" class="edge"><title>Node11&#45;&gt;Node17</title>
<path fill="none" stroke="midnightblue" d="M333.049,-198.393C344.314,-197.135 355.884,-195.843 367.146,-194.585"/>
<polygon fill="midnightblue" stroke="midnightblue" points="367.834,-198.03 377.383,-193.442 367.057,-191.074 367.834,-198.03"/>
</g>
<!-- Node20 -->
<g id="node11" class="node"><title>Node20</title>
<g id="a_node11"><a xlink:href="../../dd/dc1/a00212.html#ac0ed749c50e55120d5b63219ed7eb082" target="_top" xlink:title="Partial record of the derivation path. ">
<polygon fill="none" stroke="black" points="388,-126.5 388,-156.5 511,-156.5 511,-126.5 388,-126.5"/>
<text text-anchor="start" x="396" y="-144.5" font-family="Helvetica,sans-Serif" font-size="10.00">nars.entity.Sentence.get</text>
<text text-anchor="middle" x="449.5" y="-133.5" font-family="Helvetica,sans-Serif" font-size="10.00">Stamp</text>
</a>
</g>
</g>
<!-- Node11&#45;&gt;Node20 -->
<g id="edge10" class="edge"><title>Node11&#45;&gt;Node20</title>
<path fill="none" stroke="midnightblue" d="M278.019,-197.982C301.782,-189.517 337.624,-176.905 369,-166.5 375.798,-164.246 382.939,-161.929 390.037,-159.657"/>
<polygon fill="midnightblue" stroke="midnightblue" points="391.184,-162.965 399.653,-156.598 389.062,-156.294 391.184,-162.965"/>
</g>
<!-- Node21 -->
<g id="node12" class="node"><title>Node21</title>
<g id="a_node12"><a xlink:href="../../d6/d43/a00216.html#adb33cdf9f13e1a919f7220cb622e7446" target="_top" xlink:title="Check if two stamps contains the same content. ">
<polygon fill="none" stroke="black" points="387,-88 387,-107 512,-107 512,-88 387,-88"/>
<text text-anchor="middle" x="449.5" y="-95" font-family="Helvetica,sans-Serif" font-size="10.00">nars.entity.Stamp.equals</text>
</a>
</g>
</g>
<!-- Node11&#45;&gt;Node21 -->
<g id="edge11" class="edge"><title>Node11&#45;&gt;Node21</title>
<path fill="none" stroke="midnightblue" d="M264.645,-197.987C280.888,-186.158 309.286,-165.235 333,-146.5 349.343,-133.589 350.381,-125.833 369,-116.5 373.837,-114.076 378.996,-111.952 384.274,-110.093"/>
<polygon fill="midnightblue" stroke="midnightblue" points="385.403,-113.407 393.86,-107.026 383.27,-106.74 385.403,-113.407"/>
</g>
<!-- Node14 -->
<g id="node5" class="node"><title>Node14</title>
<g id="a_node5"><a xlink:href="../../dc/d59/a00364.html#a3aad4654016b8615fd4fa8a26668e1db" target="_top" xlink:title="Reporting the name of the current Term. ">
<polygon fill="none" stroke="black" points="566,-313 566,-332 712,-332 712,-313 566,-313"/>
<text text-anchor="middle" x="639" y="-320" font-family="Helvetica,sans-Serif" font-size="10.00">nars.language.Term.getName</text>
</a>
</g>
</g>
<!-- Node13&#45;&gt;Node14 -->
<g id="edge4" class="edge"><title>Node13&#45;&gt;Node14</title>
<path fill="none" stroke="midnightblue" d="M516.605,-322.5C529.168,-322.5 542.457,-322.5 555.456,-322.5"/>
<polygon fill="midnightblue" stroke="midnightblue" points="555.798,-326 565.798,-322.5 555.798,-319 555.798,-326"/>
</g>
<!-- Node18 -->
<g id="node9" class="node"><title>Node18</title>
<g id="a_node9"><a xlink:href="../../d7/d40/a00236.html#a9eac33f2495441c77911a8581a5bbe61" target="_top" xlink:title="Get the frequency value. ">
<polygon fill="none" stroke="black" points="574.5,-197.5 574.5,-227.5 703.5,-227.5 703.5,-197.5 574.5,-197.5"/>
<text text-anchor="start" x="582.5" y="-215.5" font-family="Helvetica,sans-Serif" font-size="10.00">nars.entity.TruthValue.get</text>
<text text-anchor="middle" x="639" y="-204.5" font-family="Helvetica,sans-Serif" font-size="10.00">Frequency</text>
</a>
</g>
</g>
<!-- Node17&#45;&gt;Node18 -->
<g id="edge8" class="edge"><title>Node17&#45;&gt;Node18</title>
<path fill="none" stroke="midnightblue" d="M516.605,-195.019C532.001,-197.236 548.488,-199.61 564.192,-201.872"/>
<polygon fill="midnightblue" stroke="midnightblue" points="563.983,-205.378 574.38,-203.339 564.981,-198.449 563.983,-205.378"/>
</g>
<!-- Node19 -->
<g id="node10" class="node"><title>Node19</title>
<g id="a_node10"><a xlink:href="../../d7/d40/a00236.html#a68ca7d92e9ea20d2a9a9f578ad7b681c" target="_top" xlink:title="The confidence factor of the truth value. ">
<polygon fill="none" stroke="black" points="574.5,-148.5 574.5,-178.5 703.5,-178.5 703.5,-148.5 574.5,-148.5"/>
<text text-anchor="start" x="582.5" y="-166.5" font-family="Helvetica,sans-Serif" font-size="10.00">nars.entity.TruthValue.get</text>
<text text-anchor="middle" x="639" y="-155.5" font-family="Helvetica,sans-Serif" font-size="10.00">Confidence</text>
</a>
</g>
</g>
<!-- Node17&#45;&gt;Node19 -->
<g id="edge9" class="edge"><title>Node17&#45;&gt;Node19</title>
<path fill="none" stroke="midnightblue" d="M521.653,-177.151C535.575,-175.518 550.204,-173.801 564.209,-172.158"/>
<polygon fill="midnightblue" stroke="midnightblue" points="564.754,-175.618 574.278,-170.977 563.939,-168.666 564.754,-175.618"/>
</g>
<!-- Node22 -->
<g id="node13" class="node"><title>Node22</title>
<g id="a_node13"><a xlink:href="../../d6/d43/a00216.html#a7b5d3afaab9fc48e2d4d571b8508970d" target="_top" xlink:title="Convert the evidentialBase into a set. ">
<polygon fill="none" stroke="black" points="579,-99 579,-118 699,-118 699,-99 579,-99"/>
<text text-anchor="middle" x="639" y="-106" font-family="Helvetica,sans-Serif" font-size="10.00">nars.entity.Stamp.toSet</text>
</a>
</g>
</g>
<!-- Node21&#45;&gt;Node22 -->
<g id="edge12" class="edge"><title>Node21&#45;&gt;Node22</title>
<path fill="none" stroke="midnightblue" d="M512.154,-101.117C530.256,-102.179 550.173,-103.348 568.718,-104.435"/>
<polygon fill="midnightblue" stroke="midnightblue" points="568.67,-107.939 578.858,-105.03 569.081,-100.951 568.67,-107.939"/>
</g>
<!-- Node25 -->
<g id="node16" class="node"><title>Node25</title>
<g id="a_node16"><a xlink:href="../../d6/d43/a00216.html#a959f21fb20f72cfd277d994332e862c3" target="_top" xlink:title="Generate a new stamp, with a new serial number, for a new Task. ">
<polygon fill="none" stroke="black" points="576.5,-58 576.5,-77 701.5,-77 701.5,-58 576.5,-58"/>
<text text-anchor="middle" x="639" y="-65" font-family="Helvetica,sans-Serif" font-size="10.00">nars.entity.Stamp.Stamp</text>
</a>
</g>
</g>
<!-- Node21&#45;&gt;Node25 -->
<g id="edge15" class="edge"><title>Node21&#45;&gt;Node25</title>
<path fill="none" stroke="midnightblue" d="M510.084,-87.9666C528.712,-84.9861 549.425,-81.672 568.664,-78.5938"/>
<polygon fill="midnightblue" stroke="midnightblue" points="569.25,-82.0446 578.571,-77.0086 568.144,-75.1326 569.25,-82.0446"/>
</g>
<!-- Node23 -->
<g id="node14" class="node"><title>Node23</title>
<g id="a_node14"><a xlink:href="../../d6/d43/a00216.html#ab6efde6c34037b63fc165d1bf95277a2" target="_top" xlink:title="evidentialBase baseLength ">
<polygon fill="none" stroke="black" points="769.5,-137.5 769.5,-167.5 902.5,-167.5 902.5,-137.5 769.5,-137.5"/>
<text text-anchor="start" x="777.5" y="-155.5" font-family="Helvetica,sans-Serif" font-size="10.00">nars.entity.Stamp.getBase</text>
<text text-anchor="middle" x="836" y="-144.5" font-family="Helvetica,sans-Serif" font-size="10.00">Length</text>
</a>
</g>
</g>
<!-- Node22&#45;&gt;Node23 -->
<g id="edge13" class="edge"><title>Node22&#45;&gt;Node23</title>
<path fill="none" stroke="midnightblue" d="M682.312,-118.047C704.859,-123.135 733.276,-129.547 759.464,-135.456"/>
<polygon fill="midnightblue" stroke="midnightblue" points="758.85,-138.905 769.375,-137.692 760.39,-132.077 758.85,-138.905"/>
</g>
<!-- Node24 -->
<g id="node15" class="node"><title>Node24</title>
<g id="a_node15"><a xlink:href="../../d6/d43/a00216.html#ac84c7f26ab8e0740bab4335f33396e2c" target="_top" xlink:title="serial numbers ">
<polygon fill="none" stroke="black" points="748,-99 748,-118 924,-118 924,-99 748,-99"/>
<text text-anchor="middle" x="836" y="-106" font-family="Helvetica,sans-Serif" font-size="10.00">nars.entity.Stamp.getEvidentialBase</text>
</a>
</g>
</g>
<!-- Node22&#45;&gt;Node24 -->
<g id="edge14" class="edge"><title>Node22&#45;&gt;Node24</title>
<path fill="none" stroke="midnightblue" d="M699.036,-108.5C711.273,-108.5 724.474,-108.5 737.671,-108.5"/>
<polygon fill="midnightblue" stroke="midnightblue" points="737.745,-112 747.745,-108.5 737.745,-105 737.745,-112"/>
</g>
<!-- Node25&#45;&gt;Node24 -->
<g id="edge18" class="edge"><title>Node25&#45;&gt;Node24</title>
<path fill="none" stroke="midnightblue" d="M685.227,-77.0093C713.429,-82.939 749.916,-90.6105 779.815,-96.897"/>
<polygon fill="midnightblue" stroke="midnightblue" points="779.175,-100.339 789.681,-98.9714 780.615,-93.4886 779.175,-100.339"/>
</g>
<!-- Node26 -->
<g id="node17" class="node"><title>Node26</title>
<g id="a_node17"><a xlink:href="../../d6/d43/a00216.html#a8b3fd059e38dcb039a01ab991ec6614f" target="_top" xlink:title="nars.entity.Stamp.setCurrent\lSerial">
<polygon fill="none" stroke="black" points="764.5,-49.5 764.5,-79.5 907.5,-79.5 907.5,-49.5 764.5,-49.5"/>
<text text-anchor="start" x="772.5" y="-67.5" font-family="Helvetica,sans-Serif" font-size="10.00">nars.entity.Stamp.setCurrent</text>
<text text-anchor="middle" x="836" y="-56.5" font-family="Helvetica,sans-Serif" font-size="10.00">Serial</text>
</a>
</g>
</g>
<!-- Node25&#45;&gt;Node26 -->
<g id="edge16" class="edge"><title>Node25&#45;&gt;Node26</title>
<path fill="none" stroke="midnightblue" d="M701.699,-66.5508C718.302,-66.2954 736.513,-66.0152 753.995,-65.7462"/>
<polygon fill="midnightblue" stroke="midnightblue" points="754.242,-69.2429 764.187,-65.5894 754.134,-62.2438 754.242,-69.2429"/>
</g>
<!-- Node27 -->
<g id="node18" class="node"><title>Node27</title>
<g id="a_node18"><a xlink:href="../../d6/d43/a00216.html#a7c3a7c21f049a6dfe9dbc088caae4abf" target="_top" xlink:title="serial number, for the whole system TODO : should it really be static? or a Stamp be a field in Reaso...">
<polygon fill="none" stroke="black" points="764.5,-0.5 764.5,-30.5 907.5,-30.5 907.5,-0.5 764.5,-0.5"/>
<text text-anchor="start" x="772.5" y="-18.5" font-family="Helvetica,sans-Serif" font-size="10.00">nars.entity.Stamp.getCurrent</text>
<text text-anchor="middle" x="836" y="-7.5" font-family="Helvetica,sans-Serif" font-size="10.00">Serial</text>
</a>
</g>
</g>
<!-- Node25&#45;&gt;Node27 -->
<g id="edge17" class="edge"><title>Node25&#45;&gt;Node27</title>
<path fill="none" stroke="midnightblue" d="M675.766,-57.9624C701.661,-51.0571 737.425,-41.5201 768.5,-33.2334"/>
<polygon fill="midnightblue" stroke="midnightblue" points="769.645,-36.5504 778.406,-30.5918 767.841,-29.7867 769.645,-36.5504"/>
</g>
<!-- Node29 -->
<g id="node20" class="node"><title>Node29</title>
<g id="a_node20"><a xlink:href="../../db/d12/a00268.html#acaa4ebc080bc00d0e03be32d51d29e40" target="_top" xlink:title="A function where the output is disjunctively determined by the inputs. ">
<polygon fill="none" stroke="black" points="369,-50 369,-69 530,-69 530,-50 369,-50"/>
<text text-anchor="middle" x="449.5" y="-57" font-family="Helvetica,sans-Serif" font-size="10.00">nars.inference.UtilityFunctions.or</text>
</a>
</g>
</g>
<!-- Node28&#45;&gt;Node29 -->
<g id="edge20" class="edge"><title>Node28&#45;&gt;Node29</title>
<path fill="none" stroke="midnightblue" d="M288.142,-107.443C311.121,-98.3353 341.501,-86.8995 369,-78.5 377.096,-76.027 385.737,-73.6747 394.227,-71.5213"/>
<polygon fill="midnightblue" stroke="midnightblue" points="395.214,-74.8829 404.085,-69.0894 393.537,-68.0867 395.214,-74.8829"/>
</g>
</g>
</svg>
        <g id="navigator" transform="translate(0 0)" fill="#404254">
                <rect fill="#f2f5e9" fill-opacity="0.5" stroke="#606060" stroke-width=".5" x="0" y="0" width="60" height="60"/>
                <use id="zoomplus" xlink:href="#zoomPlus" x="17" y="9" onmousedown="handleZoom(evt,'in')"/>
                <use id="zoomminus" xlink:href="#zoomMin" x="42" y="9" onmousedown="handleZoom(evt,'out')"/>
                <use id="reset" xlink:href="#resetDef" x="30" y="36" onmousedown="handleReset()"/>
                <g id="arrowUp" xlink:href="#dirArrow" transform="translate(30 24)" onmousedown="handlePan(0,-1)">
                  <use xlink:href="#rim" fill="#404040">
                        <set attributeName="fill" to="#808080" begin="arrowUp.mouseover" end="arrowUp.mouseout"/>
                  </use>
                  <path fill="none" stroke="white" stroke-width="1.5" d="M0,-3.0v7 M-2.5,-0.5L0,-3.0L2.5,-0.5"/>
                </g>
                <g id="arrowRight" xlink:href="#dirArrow" transform="rotate(90) translate(36 -43)" onmousedown="handlePan(1,0)">
                  <use xlink:href="#rim" fill="#404040">
                        <set attributeName="fill" to="#808080" begin="arrowRight.mouseover" end="arrowRight.mouseout"/>
                  </use>
                  <path fill="none" stroke="white" stroke-width="1.5" d="M0,-3.0v7 M-2.5,-0.5L0,-3.0L2.5,-0.5"/>
                </g>
                <g id="arrowDown" xlink:href="#dirArrow" transform="rotate(180) translate(-30 -48)" onmousedown="handlePan(0,1)">
                  <use xlink:href="#rim" fill="#404040">
                        <set attributeName="fill" to="#808080" begin="arrowDown.mouseover" end="arrowDown.mouseout"/>
                  </use>
                  <path fill="none" stroke="white" stroke-width="1.5" d="M0,-3.0v7 M-2.5,-0.5L0,-3.0L2.5,-0.5"/>
                </g>
                <g id="arrowLeft" xlink:href="#dirArrow" transform="rotate(270) translate(-36 17)" onmousedown="handlePan(-1,0)">
                  <use xlink:href="#rim" fill="#404040">
                        <set attributeName="fill" to="#808080" begin="arrowLeft.mouseover" end="arrowLeft.mouseout"/>
                  </use>
                  <path fill="none" stroke="white" stroke-width="1.5" d="M0,-3.0v7 M-2.5,-0.5L0,-3.0L2.5,-0.5"/>
                </g>
        </g>
        <svg viewBox="0 0 15 15" width="100%" height="30px" preserveAspectRatio="xMaxYMin meet">
         <g id="arrow_out" transform="scale(0.3 0.3)">
          <a xlink:href="a00196_ad2ad743f666efee084cf306a42f8bf04_cgraph_org.svg" target="_base">
           <rect id="button" ry="5" rx="5" y="6" x="6" height="38" width="38"
                fill="#f2f5e9" fill-opacity="0.5" stroke="#606060" stroke-width="1.0"/>
           <path id="arrow"
             d="M 11.500037,31.436501 C 11.940474,20.09759 22.043105,11.32322 32.158766,21.979434 L 37.068811,17.246167 C 37.068811,17.246167 37.088388,32 37.088388,32 L 22.160133,31.978069 C 22.160133,31.978069 26.997745,27.140456 26.997745,27.140456 C 18.528582,18.264221 13.291696,25.230495 11.500037,31.436501 z"
             style="fill:#404040;"/>
          </a>
         </g>
        </svg>
</svg>
