<?xml version="1.0" encoding="UTF-8" standalone="no"?>
<!DOCTYPE svg PUBLIC "-//W3C//DTD SVG 1.1//EN"
 "http://www.w3.org/Graphics/SVG/1.1/DTD/svg11.dtd">
<!-- Generated by graphviz version 2.38.0 (20140413.2041)
 -->
<!-- Title: nars.entity.Concept.getTermLinkTemplates Pages: 1 -->
<!--zoomable 103 -->
<svg id="main" version="1.1" xmlns="http://www.w3.org/2000/svg" xmlns:xlink="http://www.w3.org/1999/xlink" xml:space="preserve" onload="init(evt)">
<style type="text/css"><![CDATA[
.edge:hover path { stroke: red; }
.edge:hover polygon { stroke: red; fill: red; }
]]></style>
<script type="text/javascript"><![CDATA[
var edges = document.getElementsByTagName('g');
if (edges && edges.length) {
  for (var i=0;i<edges.length;i++) {
    if (edges[i].id.substr(0,4)=='edge') {
      edges[i].setAttribute('class','edge');
    }
  }
}
]]></script>
        <defs>
                <circle id="rim" cx="0" cy="0" r="7"/>
                <circle id="rim2" cx="0" cy="0" r="3.5"/>
                <g id="zoomPlus">
                        <use xlink:href="#rim" fill="#404040">
                                <set attributeName="fill" to="#808080" begin="zoomplus.mouseover" end="zoomplus.mouseout"/>
                        </use>
                        <path d="M-4,0h8M0,-4v8" fill="none" stroke="white" stroke-width="1.5" pointer-events="none"/>
                </g>
                <g id="zoomMin">
                        <use xlink:href="#rim" fill="#404040">
                                <set attributeName="fill" to="#808080" begin="zoomminus.mouseover" end="zoomminus.mouseout"/>
                        </use>
                        <path d="M-4,0h8" fill="none" stroke="white" stroke-width="1.5" pointer-events="none"/>
                </g>
                <g id="dirArrow">
                        <path fill="none" stroke="white" stroke-width="1.5" d="M0,-3.0v7 M-2.5,-0.5L0,-3.0L2.5,-0.5"/>
                </g>
               <g id="resetDef">
                       <use xlink:href="#rim2" fill="#404040">
                               <set attributeName="fill" to="#808080" begin="reset.mouseover" end="reset.mouseout"/>
                       </use>
               </g>
        </defs>

<script type="text/javascript">
var viewWidth = 2128;
var viewHeight = 103;
var sectionId = 'dynsection-27';
</script>
<script xlink:href="../../svgpan.js"/>
<svg id="graph" class="graph">
<g id="viewport">
<title>nars.entity.Concept.getTermLinkTemplates</title>
<!-- Node778 -->
<g id="node1" class="node"><title>Node778</title>
<polygon fill="#bfbfbf" stroke="black" points="0,-24.5 0,-54.5 141,-54.5 141,-24.5 0,-24.5"/>
<text text-anchor="start" x="8" y="-42.5" font-family="Helvetica,sans-Serif" font-size="10.00">nars.entity.Concept.getTerm</text>
<text text-anchor="middle" x="70.5" y="-31.5" font-family="Helvetica,sans-Serif" font-size="10.00">LinkTemplates</text>
</g>
<!-- Node779 -->
<g id="node2" class="node"><title>Node779</title>
<g id="a_node2"><a xlink:href="../../d7/ded/a00196.html#a3f3f026223e459e041fbdd8c0f49f7c6" target="_top" xlink:title="Recursively build TermLinks between a compound and its components. ">
<polygon fill="none" stroke="black" points="177,-46.5 177,-76.5 302,-76.5 302,-46.5 177,-46.5"/>
<text text-anchor="start" x="185" y="-64.5" font-family="Helvetica,sans-Serif" font-size="10.00">nars.entity.Concept.build</text>
<text text-anchor="middle" x="239.5" y="-53.5" font-family="Helvetica,sans-Serif" font-size="10.00">TermLinks</text>
</a>
</g>
</g>
<!-- Node778&#45;&gt;Node779 -->
<g id="edge1" class="edge"><title>Node778&#45;&gt;Node779</title>
<path fill="none" stroke="midnightblue" d="M151.377,-50.0227C159.952,-51.1524 168.579,-52.2888 176.894,-53.3842"/>
<polygon fill="midnightblue" stroke="midnightblue" points="151.727,-46.5387 141.355,-48.7025 150.813,-53.4787 151.727,-46.5387"/>
</g>
<!-- Node780 -->
<g id="node3" class="node"><title>Node780</title>
<g id="a_node3"><a xlink:href="../../d7/ded/a00196.html#a501121a11fc046eea4b69720cb622d84" target="_top" xlink:title="Link to a new task from all relevant concepts for continued processing in the near future for unspeci...">
<polygon fill="none" stroke="black" points="338,-24.5 338,-54.5 458,-54.5 458,-24.5 338,-24.5"/>
<text text-anchor="start" x="346" y="-42.5" font-family="Helvetica,sans-Serif" font-size="10.00">nars.entity.Concept.link</text>
<text text-anchor="middle" x="398" y="-31.5" font-family="Helvetica,sans-Serif" font-size="10.00">ToTask</text>
</a>
</g>
</g>
<!-- Node778&#45;&gt;Node780 -->
<g id="edge15" class="edge"><title>Node778&#45;&gt;Node780</title>
<path fill="none" stroke="midnightblue" d="M151.2,-37.8286C159.907,-37.6938 168.639,-37.5792 177,-37.5 232.553,-36.9735 246.448,-36.9153 302,-37.5 313.63,-37.6224 326.059,-37.8291 337.965,-38.0643"/>
<polygon fill="midnightblue" stroke="midnightblue" points="150.957,-34.332 141.015,-37.9951 151.071,-41.331 150.957,-34.332"/>
</g>
<!-- Node779&#45;&gt;Node779 -->
<g id="edge2" class="edge"><title>Node779&#45;&gt;Node779</title>
<path fill="none" stroke="midnightblue" d="M211.425,-86.9579C214.91,-91.679 224.268,-95 239.5,-95 264.496,-95 273.674,-86.0566 267.035,-76.659"/>
<polygon fill="midnightblue" stroke="midnightblue" points="214.937,-86.8286 211.965,-76.659 207.946,-86.462 214.937,-86.8286"/>
</g>
<!-- Node779&#45;&gt;Node780 -->
<g id="edge3" class="edge"><title>Node779&#45;&gt;Node780</title>
<path fill="none" stroke="midnightblue" d="M312.326,-51.4031C320.883,-50.2002 329.543,-48.9828 337.893,-47.8089"/>
<polygon fill="midnightblue" stroke="midnightblue" points="311.768,-47.9469 302.353,-52.805 312.743,-54.8788 311.768,-47.9469"/>
</g>
<!-- Node781 -->
<g id="node4" class="node"><title>Node781</title>
<g id="a_node4"><a xlink:href="../../d7/ded/a00196.html#a9ea7c3154932d7a736c105eb55daeb5c" target="_top" xlink:title="Directly process a new task. ">
<polygon fill="none" stroke="black" points="494,-24.5 494,-54.5 623,-54.5 623,-24.5 494,-24.5"/>
<text text-anchor="start" x="502" y="-42.5" font-family="Helvetica,sans-Serif" font-size="10.00">nars.entity.Concept.direct</text>
<text text-anchor="middle" x="558.5" y="-31.5" font-family="Helvetica,sans-Serif" font-size="10.00">Process</text>
</a>
</g>
</g>
<!-- Node780&#45;&gt;Node781 -->
<g id="edge4" class="edge"><title>Node780&#45;&gt;Node781</title>
<path fill="none" stroke="midnightblue" d="M468.021,-39.5C476.627,-39.5 485.396,-39.5 493.913,-39.5"/>
<polygon fill="midnightblue" stroke="midnightblue" points="468.02,-36.0001 458.02,-39.5 468.02,-43.0001 468.02,-36.0001"/>
</g>
<!-- Node782 -->
<g id="node5" class="node"><title>Node782</title>
<g id="a_node5"><a xlink:href="../../d4/d27/a00392.html#af8d07412d21a441a5c7005a477b06468" target="_top" xlink:title="Immediate processing of a new task, in constant time Local processing, in one concept only...">
<polygon fill="none" stroke="black" points="659,-24.5 659,-54.5 816,-54.5 816,-24.5 659,-24.5"/>
<text text-anchor="start" x="667" y="-42.5" font-family="Helvetica,sans-Serif" font-size="10.00">nars.storage.Memory.immediate</text>
<text text-anchor="middle" x="737.5" y="-31.5" font-family="Helvetica,sans-Serif" font-size="10.00">Process</text>
</a>
</g>
</g>
<!-- Node781&#45;&gt;Node782 -->
<g id="edge5" class="edge"><title>Node781&#45;&gt;Node782</title>
<path fill="none" stroke="midnightblue" d="M633.492,-39.5C641.854,-39.5 650.393,-39.5 658.801,-39.5"/>
<polygon fill="midnightblue" stroke="midnightblue" points="633.401,-36.0001 623.401,-39.5 633.401,-43.0001 633.401,-36.0001"/>
</g>
<!-- Node783 -->
<g id="node6" class="node"><title>Node783</title>
<g id="a_node6"><a xlink:href="../../d4/d27/a00392.html#ae43b86074c0d8f6a324696f69faa54b3" target="_top" xlink:title="Process the newTasks accumulated in the previous workCycle, accept input ones and those that correspo...">
<polygon fill="none" stroke="black" points="852,-49.5 852,-79.5 998,-79.5 998,-49.5 852,-49.5"/>
<text text-anchor="start" x="860" y="-67.5" font-family="Helvetica,sans-Serif" font-size="10.00">nars.storage.Memory.process</text>
<text text-anchor="middle" x="925" y="-56.5" font-family="Helvetica,sans-Serif" font-size="10.00">NewTask</text>
</a>
</g>
</g>
<!-- Node782&#45;&gt;Node783 -->
<g id="edge6" class="edge"><title>Node782&#45;&gt;Node783</title>
<path fill="none" stroke="midnightblue" d="M826.125,-51.3093C834.707,-52.466 843.349,-53.6306 851.754,-54.7633"/>
<polygon fill="midnightblue" stroke="midnightblue" points="826.472,-47.8245 816.094,-49.9574 825.537,-54.7618 826.472,-47.8245"/>
</g>
<!-- Node790 -->
<g id="node13" class="node"><title>Node790</title>
<g id="a_node13"><a xlink:href="../../d4/d27/a00392.html#a5061708f88897cfdf4e0671c846762ca" target="_top" xlink:title="Select a novel task to process. ">
<polygon fill="none" stroke="black" points="852,-0.5 852,-30.5 998,-30.5 998,-0.5 852,-0.5"/>
<text text-anchor="start" x="860" y="-18.5" font-family="Helvetica,sans-Serif" font-size="10.00">nars.storage.Memory.process</text>
<text text-anchor="middle" x="925" y="-7.5" font-family="Helvetica,sans-Serif" font-size="10.00">NovelTask</text>
</a>
</g>
</g>
<!-- Node782&#45;&gt;Node790 -->
<g id="edge13" class="edge"><title>Node782&#45;&gt;Node790</title>
<path fill="none" stroke="midnightblue" d="M826.125,-28.1631C834.707,-27.0527 843.349,-25.9346 851.754,-24.8472"/>
<polygon fill="midnightblue" stroke="midnightblue" points="825.562,-24.7066 816.094,-29.4609 826.46,-31.6488 825.562,-24.7066"/>
</g>
<!-- Node784 -->
<g id="node7" class="node"><title>Node784</title>
<g id="a_node7"><a xlink:href="../../d4/d27/a00392.html#a59ae339d666409988d90d29be4f73a91" target="_top" xlink:title="An atomic working workCycle of the system: process new Tasks, then fireFromProcessConcept a concept...">
<polygon fill="none" stroke="black" points="1034,-24.5 1034,-54.5 1167,-54.5 1167,-24.5 1034,-24.5"/>
<text text-anchor="start" x="1042" y="-42.5" font-family="Helvetica,sans-Serif" font-size="10.00">nars.storage.Memory.work</text>
<text text-anchor="middle" x="1100.5" y="-31.5" font-family="Helvetica,sans-Serif" font-size="10.00">Cycle</text>
</a>
</g>
</g>
<!-- Node783&#45;&gt;Node784 -->
<g id="edge7" class="edge"><title>Node783&#45;&gt;Node784</title>
<path fill="none" stroke="midnightblue" d="M1008.12,-52.6675C1016.72,-51.4286 1025.37,-50.1809 1033.76,-48.9733"/>
<polygon fill="midnightblue" stroke="midnightblue" points="1007.47,-49.2244 998.072,-54.1149 1008.47,-56.1529 1007.47,-49.2244"/>
</g>
<!-- Node785 -->
<g id="node8" class="node"><title>Node785</title>
<g id="a_node8"><a xlink:href="../../df/d15/a00416.html#a0d5c797dc17d9e8d0998852915e0f303" target="_top" xlink:title="nars.storage.ReasonerBatch.doTick">
<polygon fill="none" stroke="black" points="1203,-30 1203,-49 1376,-49 1376,-30 1203,-30"/>
<text text-anchor="middle" x="1289.5" y="-37" font-family="Helvetica,sans-Serif" font-size="10.00">nars.storage.ReasonerBatch.doTick</text>
</a>
</g>
</g>
<!-- Node784&#45;&gt;Node785 -->
<g id="edge8" class="edge"><title>Node784&#45;&gt;Node785</title>
<path fill="none" stroke="midnightblue" d="M1177.34,-39.5C1185.78,-39.5 1194.42,-39.5 1202.97,-39.5"/>
<polygon fill="midnightblue" stroke="midnightblue" points="1177.17,-36.0001 1167.17,-39.5 1177.17,-43.0001 1177.17,-36.0001"/>
</g>
<!-- Node786 -->
<g id="node9" class="node"><title>Node786</title>
<g id="a_node9"><a xlink:href="../../df/d15/a00416.html#a3468aa0f99edcd66412f27922dddb880" target="_top" xlink:title="A clock tick. ">
<polygon fill="none" stroke="black" points="1412,-30 1412,-49 1572,-49 1572,-30 1412,-30"/>
<text text-anchor="middle" x="1492" y="-37" font-family="Helvetica,sans-Serif" font-size="10.00">nars.storage.ReasonerBatch.tick</text>
</a>
</g>
</g>
<!-- Node785&#45;&gt;Node786 -->
<g id="edge9" class="edge"><title>Node785&#45;&gt;Node786</title>
<path fill="none" stroke="midnightblue" d="M1386.13,-39.5C1394.7,-39.5 1403.31,-39.5 1411.71,-39.5"/>
<polygon fill="midnightblue" stroke="midnightblue" points="1386.11,-36.0001 1376.11,-39.5 1386.11,-43.0001 1386.11,-36.0001"/>
</g>
<!-- Node787 -->
<g id="node10" class="node"><title>Node787</title>
<g id="a_node10"><a xlink:href="../../d9/da1/a00396.html#a5d9cfe517bcfbe41e5251910bcd119c1" target="_top" xlink:title="Run to completion: repeatedly execute NARS working cycle, until Inputs are Finished, or 1000 steps. ">
<polygon fill="none" stroke="black" points="1608,-30 1608,-49 1752,-49 1752,-30 1608,-30"/>
<text text-anchor="middle" x="1680" y="-37" font-family="Helvetica,sans-Serif" font-size="10.00">nars.storage.NARSBatch.run</text>
</a>
</g>
</g>
<!-- Node786&#45;&gt;Node787 -->
<g id="edge10" class="edge"><title>Node786&#45;&gt;Node787</title>
<path fill="none" stroke="midnightblue" d="M1582.22,-39.5C1590.82,-39.5 1599.47,-39.5 1607.87,-39.5"/>
<polygon fill="midnightblue" stroke="midnightblue" points="1582.15,-36.0001 1572.15,-39.5 1582.15,-43.0001 1582.15,-36.0001"/>
</g>
<!-- Node788 -->
<g id="node11" class="node"><title>Node788</title>
<g id="a_node11"><a xlink:href="../../d9/da1/a00396.html#a7c307c6b842f82664de6b0e52bdf8efc" target="_top" xlink:title="non&#45;static equivalent to main(String[]) : run to completion from an input file ">
<polygon fill="none" stroke="black" points="1788,-24.5 1788,-54.5 1932,-54.5 1932,-24.5 1788,-24.5"/>
<text text-anchor="start" x="1796" y="-42.5" font-family="Helvetica,sans-Serif" font-size="10.00">nars.storage.NARSBatch.run</text>
<text text-anchor="middle" x="1860" y="-31.5" font-family="Helvetica,sans-Serif" font-size="10.00">Inference</text>
</a>
</g>
</g>
<!-- Node787&#45;&gt;Node788 -->
<g id="edge11" class="edge"><title>Node787&#45;&gt;Node788</title>
<path fill="none" stroke="midnightblue" d="M1762.17,-39.5C1770.79,-39.5 1779.51,-39.5 1788,-39.5"/>
<polygon fill="midnightblue" stroke="midnightblue" points="1762.12,-36.0001 1752.12,-39.5 1762.12,-43.0001 1762.12,-36.0001"/>
</g>
<!-- Node789 -->
<g id="node12" class="node"><title>Node789</title>
<g id="a_node12"><a xlink:href="../../d9/da1/a00396.html#abafc597289bc2f6453b5cd0dd6634e54" target="_top" xlink:title="The entry point of the standalone application. ">
<polygon fill="none" stroke="black" points="1968,-30 1968,-49 2120,-49 2120,-30 1968,-30"/>
<text text-anchor="middle" x="2044" y="-37" font-family="Helvetica,sans-Serif" font-size="10.00">nars.storage.NARSBatch.main</text>
</a>
</g>
</g>
<!-- Node788&#45;&gt;Node789 -->
<g id="edge12" class="edge"><title>Node788&#45;&gt;Node789</title>
<path fill="none" stroke="midnightblue" d="M1942.17,-39.5C1950.76,-39.5 1959.48,-39.5 1968,-39.5"/>
<polygon fill="midnightblue" stroke="midnightblue" points="1942.15,-36.0001 1932.15,-39.5 1942.15,-43.0001 1942.15,-36.0001"/>
</g>
<!-- Node790&#45;&gt;Node784 -->
<g id="edge14" class="edge"><title>Node790&#45;&gt;Node784</title>
<path fill="none" stroke="midnightblue" d="M1008.12,-26.8592C1016.72,-28.0486 1025.37,-29.2464 1033.76,-30.4056"/>
<polygon fill="midnightblue" stroke="midnightblue" points="1008.46,-23.373 998.072,-25.4697 1007.5,-30.307 1008.46,-23.373"/>
</g>
</g>
</svg>
        <g id="navigator" transform="translate(0 0)" fill="#404254">
                <rect fill="#f2f5e9" fill-opacity="0.5" stroke="#606060" stroke-width=".5" x="0" y="0" width="60" height="60"/>
                <use id="zoomplus" xlink:href="#zoomPlus" x="17" y="9" onmousedown="handleZoom(evt,'in')"/>
                <use id="zoomminus" xlink:href="#zoomMin" x="42" y="9" onmousedown="handleZoom(evt,'out')"/>
                <use id="reset" xlink:href="#resetDef" x="30" y="36" onmousedown="handleReset()"/>
                <g id="arrowUp" xlink:href="#dirArrow" transform="translate(30 24)" onmousedown="handlePan(0,-1)">
                  <use xlink:href="#rim" fill="#404040">
                        <set attributeName="fill" to="#808080" begin="arrowUp.mouseover" end="arrowUp.mouseout"/>
                  </use>
                  <path fill="none" stroke="white" stroke-width="1.5" d="M0,-3.0v7 M-2.5,-0.5L0,-3.0L2.5,-0.5"/>
                </g>
                <g id="arrowRight" xlink:href="#dirArrow" transform="rotate(90) translate(36 -43)" onmousedown="handlePan(1,0)">
                  <use xlink:href="#rim" fill="#404040">
                        <set attributeName="fill" to="#808080" begin="arrowRight.mouseover" end="arrowRight.mouseout"/>
                  </use>
                  <path fill="none" stroke="white" stroke-width="1.5" d="M0,-3.0v7 M-2.5,-0.5L0,-3.0L2.5,-0.5"/>
                </g>
                <g id="arrowDown" xlink:href="#dirArrow" transform="rotate(180) translate(-30 -48)" onmousedown="handlePan(0,1)">
                  <use xlink:href="#rim" fill="#404040">
                        <set attributeName="fill" to="#808080" begin="arrowDown.mouseover" end="arrowDown.mouseout"/>
                  </use>
                  <path fill="none" stroke="white" stroke-width="1.5" d="M0,-3.0v7 M-2.5,-0.5L0,-3.0L2.5,-0.5"/>
                </g>
                <g id="arrowLeft" xlink:href="#dirArrow" transform="rotate(270) translate(-36 17)" onmousedown="handlePan(-1,0)">
                  <use xlink:href="#rim" fill="#404040">
                        <set attributeName="fill" to="#808080" begin="arrowLeft.mouseover" end="arrowLeft.mouseout"/>
                  </use>
                  <path fill="none" stroke="white" stroke-width="1.5" d="M0,-3.0v7 M-2.5,-0.5L0,-3.0L2.5,-0.5"/>
                </g>
        </g>
        <svg viewBox="0 0 15 15" width="100%" height="30px" preserveAspectRatio="xMaxYMin meet">
         <g id="arrow_out" transform="scale(0.3 0.3)">
          <a xlink:href="a00196_a4ca0670094e7a1e098fb17388bf8353c_icgraph_org.svg" target="_base">
           <rect id="button" ry="5" rx="5" y="6" x="6" height="38" width="38"
                fill="#f2f5e9" fill-opacity="0.5" stroke="#606060" stroke-width="1.0"/>
           <path id="arrow"
             d="M 11.500037,31.436501 C 11.940474,20.09759 22.043105,11.32322 32.158766,21.979434 L 37.068811,17.246167 C 37.068811,17.246167 37.088388,32 37.088388,32 L 22.160133,31.978069 C 22.160133,31.978069 26.997745,27.140456 26.997745,27.140456 C 18.528582,18.264221 13.291696,25.230495 11.500037,31.436501 z"
             style="fill:#404040;"/>
          </a>
         </g>
        </svg>
</svg>
