<?xml version="1.0" encoding="UTF-8" standalone="no"?>
<!DOCTYPE svg PUBLIC "-//W3C//DTD SVG 1.1//EN"
 "http://www.w3.org/Graphics/SVG/1.1/DTD/svg11.dtd">
<!-- Generated by graphviz version 2.38.0 (20140413.2041)
 -->
<!-- Title: nars.entity.Concept.linkToTask Pages: 1 -->
<!--zoomable 88 -->
<svg id="main" version="1.1" xmlns="http://www.w3.org/2000/svg" xmlns:xlink="http://www.w3.org/1999/xlink" xml:space="preserve" onload="init(evt)">
<style type="text/css"><![CDATA[
.edge:hover path { stroke: red; }
.edge:hover polygon { stroke: red; fill: red; }
]]></style>
<script type="text/javascript"><![CDATA[
var edges = document.getElementsByTagName('g');
if (edges && edges.length) {
  for (var i=0;i<edges.length;i++) {
    if (edges[i].id.substr(0,4)=='edge') {
      edges[i].setAttribute('class','edge');
    }
  }
}
]]></script>
        <defs>
                <circle id="rim" cx="0" cy="0" r="7"/>
                <circle id="rim2" cx="0" cy="0" r="3.5"/>
                <g id="zoomPlus">
                        <use xlink:href="#rim" fill="#404040">
                                <set attributeName="fill" to="#808080" begin="zoomplus.mouseover" end="zoomplus.mouseout"/>
                        </use>
                        <path d="M-4,0h8M0,-4v8" fill="none" stroke="white" stroke-width="1.5" pointer-events="none"/>
                </g>
                <g id="zoomMin">
                        <use xlink:href="#rim" fill="#404040">
                                <set attributeName="fill" to="#808080" begin="zoomminus.mouseover" end="zoomminus.mouseout"/>
                        </use>
                        <path d="M-4,0h8" fill="none" stroke="white" stroke-width="1.5" pointer-events="none"/>
                </g>
                <g id="dirArrow">
                        <path fill="none" stroke="white" stroke-width="1.5" d="M0,-3.0v7 M-2.5,-0.5L0,-3.0L2.5,-0.5"/>
                </g>
               <g id="resetDef">
                       <use xlink:href="#rim2" fill="#404040">
                               <set attributeName="fill" to="#808080" begin="reset.mouseover" end="reset.mouseout"/>
                       </use>
               </g>
        </defs>

<script type="text/javascript">
var viewWidth = 1790;
var viewHeight = 88;
var sectionId = 'dynsection-33';
</script>
<script xlink:href="../../svgpan.js"/>
<svg id="graph" class="graph">
<g id="viewport">
<title>nars.entity.Concept.linkToTask</title>
<!-- Node887 -->
<g id="node1" class="node"><title>Node887</title>
<polygon fill="#bfbfbf" stroke="black" points="0,-24.5 0,-54.5 120,-54.5 120,-24.5 0,-24.5"/>
<text text-anchor="start" x="8" y="-42.5" font-family="Helvetica,sans-Serif" font-size="10.00">nars.entity.Concept.link</text>
<text text-anchor="middle" x="60" y="-31.5" font-family="Helvetica,sans-Serif" font-size="10.00">ToTask</text>
</g>
<!-- Node888 -->
<g id="node2" class="node"><title>Node888</title>
<g id="a_node2"><a xlink:href="../../d7/ded/a00196.html#a9ea7c3154932d7a736c105eb55daeb5c" target="_top" xlink:title="Directly process a new task. ">
<polygon fill="none" stroke="black" points="156,-24.5 156,-54.5 285,-54.5 285,-24.5 156,-24.5"/>
<text text-anchor="start" x="164" y="-42.5" font-family="Helvetica,sans-Serif" font-size="10.00">nars.entity.Concept.direct</text>
<text text-anchor="middle" x="220.5" y="-31.5" font-family="Helvetica,sans-Serif" font-size="10.00">Process</text>
</a>
</g>
</g>
<!-- Node887&#45;&gt;Node888 -->
<g id="edge1" class="edge"><title>Node887&#45;&gt;Node888</title>
<path fill="none" stroke="midnightblue" d="M130.021,-39.5C138.627,-39.5 147.396,-39.5 155.913,-39.5"/>
<polygon fill="midnightblue" stroke="midnightblue" points="130.02,-36.0001 120.02,-39.5 130.02,-43.0001 130.02,-36.0001"/>
</g>
<!-- Node889 -->
<g id="node3" class="node"><title>Node889</title>
<g id="a_node3"><a xlink:href="../../d4/d27/a00392.html#af8d07412d21a441a5c7005a477b06468" target="_top" xlink:title="Immediate processing of a new task, in constant time Local processing, in one concept only...">
<polygon fill="none" stroke="black" points="321,-24.5 321,-54.5 478,-54.5 478,-24.5 321,-24.5"/>
<text text-anchor="start" x="329" y="-42.5" font-family="Helvetica,sans-Serif" font-size="10.00">nars.storage.Memory.immediate</text>
<text text-anchor="middle" x="399.5" y="-31.5" font-family="Helvetica,sans-Serif" font-size="10.00">Process</text>
</a>
</g>
</g>
<!-- Node888&#45;&gt;Node889 -->
<g id="edge2" class="edge"><title>Node888&#45;&gt;Node889</title>
<path fill="none" stroke="midnightblue" d="M295.492,-39.5C303.854,-39.5 312.393,-39.5 320.801,-39.5"/>
<polygon fill="midnightblue" stroke="midnightblue" points="295.401,-36.0001 285.401,-39.5 295.401,-43.0001 295.401,-36.0001"/>
</g>
<!-- Node890 -->
<g id="node4" class="node"><title>Node890</title>
<g id="a_node4"><a xlink:href="../../d4/d27/a00392.html#ae43b86074c0d8f6a324696f69faa54b3" target="_top" xlink:title="Process the newTasks accumulated in the previous workCycle, accept input ones and those that correspo...">
<polygon fill="none" stroke="black" points="514,-49.5 514,-79.5 660,-79.5 660,-49.5 514,-49.5"/>
<text text-anchor="start" x="522" y="-67.5" font-family="Helvetica,sans-Serif" font-size="10.00">nars.storage.Memory.process</text>
<text text-anchor="middle" x="587" y="-56.5" font-family="Helvetica,sans-Serif" font-size="10.00">NewTask</text>
</a>
</g>
</g>
<!-- Node889&#45;&gt;Node890 -->
<g id="edge3" class="edge"><title>Node889&#45;&gt;Node890</title>
<path fill="none" stroke="midnightblue" d="M488.125,-51.3093C496.707,-52.466 505.349,-53.6306 513.754,-54.7633"/>
<polygon fill="midnightblue" stroke="midnightblue" points="488.472,-47.8245 478.094,-49.9574 487.537,-54.7618 488.472,-47.8245"/>
</g>
<!-- Node897 -->
<g id="node11" class="node"><title>Node897</title>
<g id="a_node11"><a xlink:href="../../d4/d27/a00392.html#a5061708f88897cfdf4e0671c846762ca" target="_top" xlink:title="Select a novel task to process. ">
<polygon fill="none" stroke="black" points="514,-0.5 514,-30.5 660,-30.5 660,-0.5 514,-0.5"/>
<text text-anchor="start" x="522" y="-18.5" font-family="Helvetica,sans-Serif" font-size="10.00">nars.storage.Memory.process</text>
<text text-anchor="middle" x="587" y="-7.5" font-family="Helvetica,sans-Serif" font-size="10.00">NovelTask</text>
</a>
</g>
</g>
<!-- Node889&#45;&gt;Node897 -->
<g id="edge10" class="edge"><title>Node889&#45;&gt;Node897</title>
<path fill="none" stroke="midnightblue" d="M488.125,-28.1631C496.707,-27.0527 505.349,-25.9346 513.754,-24.8472"/>
<polygon fill="midnightblue" stroke="midnightblue" points="487.562,-24.7066 478.094,-29.4609 488.46,-31.6488 487.562,-24.7066"/>
</g>
<!-- Node891 -->
<g id="node5" class="node"><title>Node891</title>
<g id="a_node5"><a xlink:href="../../d4/d27/a00392.html#a59ae339d666409988d90d29be4f73a91" target="_top" xlink:title="An atomic working workCycle of the system: process new Tasks, then fireFromProcessConcept a concept...">
<polygon fill="none" stroke="black" points="696,-24.5 696,-54.5 829,-54.5 829,-24.5 696,-24.5"/>
<text text-anchor="start" x="704" y="-42.5" font-family="Helvetica,sans-Serif" font-size="10.00">nars.storage.Memory.work</text>
<text text-anchor="middle" x="762.5" y="-31.5" font-family="Helvetica,sans-Serif" font-size="10.00">Cycle</text>
</a>
</g>
</g>
<!-- Node890&#45;&gt;Node891 -->
<g id="edge4" class="edge"><title>Node890&#45;&gt;Node891</title>
<path fill="none" stroke="midnightblue" d="M670.118,-52.6675C678.716,-51.4286 687.375,-50.1809 695.755,-48.9733"/>
<polygon fill="midnightblue" stroke="midnightblue" points="669.471,-49.2244 660.072,-54.1149 670.469,-56.1529 669.471,-49.2244"/>
</g>
<!-- Node892 -->
<g id="node6" class="node"><title>Node892</title>
<g id="a_node6"><a xlink:href="../../df/d15/a00416.html#a0d5c797dc17d9e8d0998852915e0f303" target="_top" xlink:title="nars.storage.ReasonerBatch.doTick">
<polygon fill="none" stroke="black" points="865,-30 865,-49 1038,-49 1038,-30 865,-30"/>
<text text-anchor="middle" x="951.5" y="-37" font-family="Helvetica,sans-Serif" font-size="10.00">nars.storage.ReasonerBatch.doTick</text>
</a>
</g>
</g>
<!-- Node891&#45;&gt;Node892 -->
<g id="edge5" class="edge"><title>Node891&#45;&gt;Node892</title>
<path fill="none" stroke="midnightblue" d="M839.343,-39.5C847.782,-39.5 856.421,-39.5 864.971,-39.5"/>
<polygon fill="midnightblue" stroke="midnightblue" points="839.166,-36.0001 829.166,-39.5 839.166,-43.0001 839.166,-36.0001"/>
</g>
<!-- Node893 -->
<g id="node7" class="node"><title>Node893</title>
<g id="a_node7"><a xlink:href="../../df/d15/a00416.html#a3468aa0f99edcd66412f27922dddb880" target="_top" xlink:title="A clock tick. ">
<polygon fill="none" stroke="black" points="1074,-30 1074,-49 1234,-49 1234,-30 1074,-30"/>
<text text-anchor="middle" x="1154" y="-37" font-family="Helvetica,sans-Serif" font-size="10.00">nars.storage.ReasonerBatch.tick</text>
</a>
</g>
</g>
<!-- Node892&#45;&gt;Node893 -->
<g id="edge6" class="edge"><title>Node892&#45;&gt;Node893</title>
<path fill="none" stroke="midnightblue" d="M1048.13,-39.5C1056.7,-39.5 1065.31,-39.5 1073.71,-39.5"/>
<polygon fill="midnightblue" stroke="midnightblue" points="1048.11,-36.0001 1038.11,-39.5 1048.11,-43.0001 1048.11,-36.0001"/>
</g>
<!-- Node894 -->
<g id="node8" class="node"><title>Node894</title>
<g id="a_node8"><a xlink:href="../../d9/da1/a00396.html#a5d9cfe517bcfbe41e5251910bcd119c1" target="_top" xlink:title="Run to completion: repeatedly execute NARS working cycle, until Inputs are Finished, or 1000 steps. ">
<polygon fill="none" stroke="black" points="1270,-30 1270,-49 1414,-49 1414,-30 1270,-30"/>
<text text-anchor="middle" x="1342" y="-37" font-family="Helvetica,sans-Serif" font-size="10.00">nars.storage.NARSBatch.run</text>
</a>
</g>
</g>
<!-- Node893&#45;&gt;Node894 -->
<g id="edge7" class="edge"><title>Node893&#45;&gt;Node894</title>
<path fill="none" stroke="midnightblue" d="M1244.22,-39.5C1252.82,-39.5 1261.47,-39.5 1269.87,-39.5"/>
<polygon fill="midnightblue" stroke="midnightblue" points="1244.15,-36.0001 1234.15,-39.5 1244.15,-43.0001 1244.15,-36.0001"/>
</g>
<!-- Node895 -->
<g id="node9" class="node"><title>Node895</title>
<g id="a_node9"><a xlink:href="../../d9/da1/a00396.html#a7c307c6b842f82664de6b0e52bdf8efc" target="_top" xlink:title="non&#45;static equivalent to main(String[]) : run to completion from an input file ">
<polygon fill="none" stroke="black" points="1450,-24.5 1450,-54.5 1594,-54.5 1594,-24.5 1450,-24.5"/>
<text text-anchor="start" x="1458" y="-42.5" font-family="Helvetica,sans-Serif" font-size="10.00">nars.storage.NARSBatch.run</text>
<text text-anchor="middle" x="1522" y="-31.5" font-family="Helvetica,sans-Serif" font-size="10.00">Inference</text>
</a>
</g>
</g>
<!-- Node894&#45;&gt;Node895 -->
<g id="edge8" class="edge"><title>Node894&#45;&gt;Node895</title>
<path fill="none" stroke="midnightblue" d="M1424.17,-39.5C1432.79,-39.5 1441.51,-39.5 1450,-39.5"/>
<polygon fill="midnightblue" stroke="midnightblue" points="1424.12,-36.0001 1414.12,-39.5 1424.12,-43.0001 1424.12,-36.0001"/>
</g>
<!-- Node896 -->
<g id="node10" class="node"><title>Node896</title>
<g id="a_node10"><a xlink:href="../../d9/da1/a00396.html#abafc597289bc2f6453b5cd0dd6634e54" target="_top" xlink:title="The entry point of the standalone application. ">
<polygon fill="none" stroke="black" points="1630,-30 1630,-49 1782,-49 1782,-30 1630,-30"/>
<text text-anchor="middle" x="1706" y="-37" font-family="Helvetica,sans-Serif" font-size="10.00">nars.storage.NARSBatch.main</text>
</a>
</g>
</g>
<!-- Node895&#45;&gt;Node896 -->
<g id="edge9" class="edge"><title>Node895&#45;&gt;Node896</title>
<path fill="none" stroke="midnightblue" d="M1604.17,-39.5C1612.76,-39.5 1621.48,-39.5 1630,-39.5"/>
<polygon fill="midnightblue" stroke="midnightblue" points="1604.15,-36.0001 1594.15,-39.5 1604.15,-43.0001 1604.15,-36.0001"/>
</g>
<!-- Node897&#45;&gt;Node891 -->
<g id="edge11" class="edge"><title>Node897&#45;&gt;Node891</title>
<path fill="none" stroke="midnightblue" d="M670.118,-26.8592C678.716,-28.0486 687.375,-29.2464 695.755,-30.4056"/>
<polygon fill="midnightblue" stroke="midnightblue" points="670.458,-23.373 660.072,-25.4697 669.498,-30.307 670.458,-23.373"/>
</g>
</g>
</svg>
        <g id="navigator" transform="translate(0 0)" fill="#404254">
                <rect fill="#f2f5e9" fill-opacity="0.5" stroke="#606060" stroke-width=".5" x="0" y="0" width="60" height="60"/>
                <use id="zoomplus" xlink:href="#zoomPlus" x="17" y="9" onmousedown="handleZoom(evt,'in')"/>
                <use id="zoomminus" xlink:href="#zoomMin" x="42" y="9" onmousedown="handleZoom(evt,'out')"/>
                <use id="reset" xlink:href="#resetDef" x="30" y="36" onmousedown="handleReset()"/>
                <g id="arrowUp" xlink:href="#dirArrow" transform="translate(30 24)" onmousedown="handlePan(0,-1)">
                  <use xlink:href="#rim" fill="#404040">
                        <set attributeName="fill" to="#808080" begin="arrowUp.mouseover" end="arrowUp.mouseout"/>
                  </use>
                  <path fill="none" stroke="white" stroke-width="1.5" d="M0,-3.0v7 M-2.5,-0.5L0,-3.0L2.5,-0.5"/>
                </g>
                <g id="arrowRight" xlink:href="#dirArrow" transform="rotate(90) translate(36 -43)" onmousedown="handlePan(1,0)">
                  <use xlink:href="#rim" fill="#404040">
                        <set attributeName="fill" to="#808080" begin="arrowRight.mouseover" end="arrowRight.mouseout"/>
                  </use>
                  <path fill="none" stroke="white" stroke-width="1.5" d="M0,-3.0v7 M-2.5,-0.5L0,-3.0L2.5,-0.5"/>
                </g>
                <g id="arrowDown" xlink:href="#dirArrow" transform="rotate(180) translate(-30 -48)" onmousedown="handlePan(0,1)">
                  <use xlink:href="#rim" fill="#404040">
                        <set attributeName="fill" to="#808080" begin="arrowDown.mouseover" end="arrowDown.mouseout"/>
                  </use>
                  <path fill="none" stroke="white" stroke-width="1.5" d="M0,-3.0v7 M-2.5,-0.5L0,-3.0L2.5,-0.5"/>
                </g>
                <g id="arrowLeft" xlink:href="#dirArrow" transform="rotate(270) translate(-36 17)" onmousedown="handlePan(-1,0)">
                  <use xlink:href="#rim" fill="#404040">
                        <set attributeName="fill" to="#808080" begin="arrowLeft.mouseover" end="arrowLeft.mouseout"/>
                  </use>
                  <path fill="none" stroke="white" stroke-width="1.5" d="M0,-3.0v7 M-2.5,-0.5L0,-3.0L2.5,-0.5"/>
                </g>
        </g>
        <svg viewBox="0 0 15 15" width="100%" height="30px" preserveAspectRatio="xMaxYMin meet">
         <g id="arrow_out" transform="scale(0.3 0.3)">
          <a xlink:href="a00196_a501121a11fc046eea4b69720cb622d84_icgraph_org.svg" target="_base">
           <rect id="button" ry="5" rx="5" y="6" x="6" height="38" width="38"
                fill="#f2f5e9" fill-opacity="0.5" stroke="#606060" stroke-width="1.0"/>
           <path id="arrow"
             d="M 11.500037,31.436501 C 11.940474,20.09759 22.043105,11.32322 32.158766,21.979434 L 37.068811,17.246167 C 37.068811,17.246167 37.088388,32 37.088388,32 L 22.160133,31.978069 C 22.160133,31.978069 26.997745,27.140456 26.997745,27.140456 C 18.528582,18.264221 13.291696,25.230495 11.500037,31.436501 z"
             style="fill:#404040;"/>
          </a>
         </g>
        </svg>
</svg>
