<?xml version="1.0" encoding="UTF-8" standalone="no"?>
<!DOCTYPE svg PUBLIC "-//W3C//DTD SVG 1.1//EN"
 "http://www.w3.org/Graphics/SVG/1.1/DTD/svg11.dtd">
<!-- Generated by graphviz version 2.38.0 (20140413.2041)
 -->
<!-- Title: nars.language.IntersectionInt.doCLone Pages: 1 -->
<svg width="579pt" height="225pt"
 viewBox="0.00 0.00 579.00 224.50" xmlns="http://www.w3.org/2000/svg" xmlns:xlink="http://www.w3.org/1999/xlink">
<g id="graph0" class="graph" transform="scale(1 1) rotate(0) translate(4 220.5)">
<title>nars.language.IntersectionInt.doCLone</title>
<!-- Node16 -->
<g id="node1" class="node"><title>Node16</title>
<polygon fill="#bfbfbf" stroke="black" points="0,-98.5 0,-128.5 131,-128.5 131,-98.5 0,-98.5"/>
<text text-anchor="start" x="8" y="-116.5" font-family="Helvetica,sans-Serif" font-size="10.00">nars.language.Intersection</text>
<text text-anchor="middle" x="65.5" y="-105.5" font-family="Helvetica,sans-Serif" font-size="10.00">Int.doCLone</text>
</g>
<!-- Node17 -->
<g id="node2" class="node"><title>Node17</title>
<g id="a_node2"><a xlink:href="../../d8/d17/a00304.html#a9cb7736a3f6b220d75366ab146488773" target="_top" xlink:title="Deep clone an array list of terms. ">
<polygon fill="none" stroke="black" points="167,-197 167,-216 359,-216 359,-197 167,-197"/>
<text text-anchor="middle" x="263" y="-204" font-family="Helvetica,sans-Serif" font-size="10.00">nars.language.CompoundTerm.cloneList</text>
</a>
</g>
</g>
<!-- Node16&#45;&gt;Node17 -->
<g id="edge1" class="edge"><title>Node16&#45;&gt;Node17</title>
<path fill="none" stroke="midnightblue" d="M82.1588,-128.506C100.827,-145.517 133.704,-172.789 167,-187.5 172.805,-190.065 178.963,-192.287 185.244,-194.21"/>
<polygon fill="midnightblue" stroke="midnightblue" points="184.608,-197.667 195.181,-196.995 186.496,-190.927 184.608,-197.667"/>
</g>
<!-- Node19 -->
<g id="node4" class="node"><title>Node19</title>
<g id="a_node4"><a xlink:href="../../d8/d17/a00304.html#a4f04fa1bc71ade41d35e664ff4df5475" target="_top" xlink:title="syntactic complexity of the compound, the sum of those of its components plus 1 ">
<polygon fill="none" stroke="black" points="179.5,-147.5 179.5,-177.5 346.5,-177.5 346.5,-147.5 179.5,-147.5"/>
<text text-anchor="start" x="187.5" y="-165.5" font-family="Helvetica,sans-Serif" font-size="10.00">nars.language.CompoundTerm.get</text>
<text text-anchor="middle" x="263" y="-154.5" font-family="Helvetica,sans-Serif" font-size="10.00">Complexity</text>
</a>
</g>
</g>
<!-- Node16&#45;&gt;Node19 -->
<g id="edge3" class="edge"><title>Node16&#45;&gt;Node19</title>
<path fill="none" stroke="midnightblue" d="M126.485,-128.535C147.315,-133.755 170.848,-139.654 192.389,-145.053"/>
<polygon fill="midnightblue" stroke="midnightblue" points="191.577,-148.458 202.128,-147.494 193.279,-141.668 191.577,-148.458"/>
</g>
<!-- Node20 -->
<g id="node5" class="node"><title>Node20</title>
<g id="a_node5"><a xlink:href="../../d8/d17/a00304.html#a9778c35f9b602bee6ccac6a06809e546" target="_top" xlink:title="list of (direct) components ">
<polygon fill="none" stroke="black" points="179.5,-98.5 179.5,-128.5 346.5,-128.5 346.5,-98.5 179.5,-98.5"/>
<text text-anchor="start" x="187.5" y="-116.5" font-family="Helvetica,sans-Serif" font-size="10.00">nars.language.CompoundTerm.get</text>
<text text-anchor="middle" x="263" y="-105.5" font-family="Helvetica,sans-Serif" font-size="10.00">Components</text>
</a>
</g>
</g>
<!-- Node16&#45;&gt;Node20 -->
<g id="edge4" class="edge"><title>Node16&#45;&gt;Node20</title>
<path fill="none" stroke="midnightblue" d="M131.056,-113.5C143.254,-113.5 156.236,-113.5 169.104,-113.5"/>
<polygon fill="midnightblue" stroke="midnightblue" points="169.384,-117 179.384,-113.5 169.384,-110 169.384,-117"/>
</g>
<!-- Node21 -->
<g id="node6" class="node"><title>Node21</title>
<g id="a_node6"><a xlink:href="../../dc/d50/a00332.html#ab554ab9e6d322a5aacfba0e5f77b336b" target="_top" xlink:title="Constructor with partial values, called by make. ">
<polygon fill="none" stroke="black" points="197.5,-49.5 197.5,-79.5 328.5,-79.5 328.5,-49.5 197.5,-49.5"/>
<text text-anchor="start" x="205.5" y="-67.5" font-family="Helvetica,sans-Serif" font-size="10.00">nars.language.Intersection</text>
<text text-anchor="middle" x="263" y="-56.5" font-family="Helvetica,sans-Serif" font-size="10.00">Int.IntersectionInt</text>
</a>
</g>
</g>
<!-- Node16&#45;&gt;Node21 -->
<g id="edge5" class="edge"><title>Node16&#45;&gt;Node21</title>
<path fill="none" stroke="midnightblue" d="M126.485,-98.4654C147.315,-93.2446 170.848,-87.3463 192.389,-81.9474"/>
<polygon fill="midnightblue" stroke="midnightblue" points="193.279,-85.3324 202.128,-79.5062 191.577,-78.5425 193.279,-85.3324"/>
</g>
<!-- Node22 -->
<g id="node7" class="node"><title>Node22</title>
<g id="a_node7"><a xlink:href="../../d8/d17/a00304.html#aee0ef6fd533b58caf22bee2a98eef67d" target="_top" xlink:title="Whether the term names a concept. ">
<polygon fill="none" stroke="black" points="182.5,-0.5 182.5,-30.5 343.5,-30.5 343.5,-0.5 182.5,-0.5"/>
<text text-anchor="start" x="190.5" y="-18.5" font-family="Helvetica,sans-Serif" font-size="10.00">nars.language.CompoundTerm.is</text>
<text text-anchor="middle" x="263" y="-7.5" font-family="Helvetica,sans-Serif" font-size="10.00">Constant</text>
</a>
</g>
</g>
<!-- Node16&#45;&gt;Node22 -->
<g id="edge6" class="edge"><title>Node16&#45;&gt;Node22</title>
<path fill="none" stroke="midnightblue" d="M83.0369,-98.4633C101.999,-81.9784 134.654,-55.8372 167,-40.5 172.183,-38.0425 177.644,-35.7992 183.22,-33.7563"/>
<polygon fill="midnightblue" stroke="midnightblue" points="184.364,-37.0641 192.684,-30.5049 182.09,-30.4438 184.364,-37.0641"/>
</g>
<!-- Node18 -->
<g id="node3" class="node"><title>Node18</title>
<g id="a_node3"><a xlink:href="../../d8/d17/a00304.html#a963e8aef1163f4ed8c364b5e448deaff" target="_top" xlink:title="Abstract clone method. ">
<polygon fill="none" stroke="black" points="395,-197 395,-216 571,-216 571,-197 395,-197"/>
<text text-anchor="middle" x="483" y="-204" font-family="Helvetica,sans-Serif" font-size="10.00">nars.language.CompoundTerm.clone</text>
</a>
</g>
</g>
<!-- Node17&#45;&gt;Node18 -->
<g id="edge2" class="edge"><title>Node17&#45;&gt;Node18</title>
<path fill="none" stroke="midnightblue" d="M359.301,-206.5C367.69,-206.5 376.19,-206.5 384.597,-206.5"/>
<polygon fill="midnightblue" stroke="midnightblue" points="384.791,-210 394.791,-206.5 384.791,-203 384.791,-210"/>
</g>
</g>
</svg>
