<?xml version="1.0" encoding="UTF-8" standalone="no"?>
<!DOCTYPE svg PUBLIC "-//W3C//DTD SVG 1.1//EN"
 "http://www.w3.org/Graphics/SVG/1.1/DTD/svg11.dtd">
<!-- Generated by graphviz version 2.38.0 (20140413.2041)
 -->
<!-- Title: nars.language.CompoundTerm.makeCompoundName Pages: 1 -->
<svg width="2940pt" height="335pt"
 viewBox="0.00 0.00 2940.00 334.65" xmlns="http://www.w3.org/2000/svg" xmlns:xlink="http://www.w3.org/1999/xlink">
<g id="graph0" class="graph" transform="scale(1 1) rotate(0) translate(4 330.653)">
<title>nars.language.CompoundTerm.makeCompoundName</title>
<!-- Node630 -->
<g id="node1" class="node"><title>Node630</title>
<polygon fill="#bfbfbf" stroke="black" points="0,-117.5 0,-147.5 177,-147.5 177,-117.5 0,-117.5"/>
<text text-anchor="start" x="8" y="-135.5" font-family="Helvetica,sans-Serif" font-size="10.00">nars.language.CompoundTerm.make</text>
<text text-anchor="middle" x="88.5" y="-124.5" font-family="Helvetica,sans-Serif" font-size="10.00">CompoundName</text>
</g>
<!-- Node631 -->
<g id="node2" class="node"><title>Node631</title>
<g id="a_node2"><a xlink:href="../../df/df1/a00340.html#a9b9a5a7e04b70b76d4656f9f00cd2244" target="_top" xlink:title="Try to make a new compound. ">
<polygon fill="none" stroke="black" points="244,-230 244,-249 385,-249 385,-230 244,-230"/>
<text text-anchor="middle" x="314.5" y="-237" font-family="Helvetica,sans-Serif" font-size="10.00">nars.language.Product.make</text>
</a>
</g>
</g>
<!-- Node630&#45;&gt;Node631 -->
<g id="edge1" class="edge"><title>Node630&#45;&gt;Node631</title>
<path fill="none" stroke="midnightblue" d="M113.368,-154.361C136.931,-174.701 174.871,-204.246 213,-220.5 222.719,-224.643 233.349,-227.887 243.942,-230.425"/>
<polygon fill="midnightblue" stroke="midnightblue" points="115.479,-151.557 105.656,-147.587 110.859,-156.816 115.479,-151.557"/>
</g>
<!-- Node646 -->
<g id="node17" class="node"><title>Node646</title>
<g id="a_node17"><a xlink:href="../../dd/d1d/a00336.html#a6bf7372cd3425206dcc98a47cacc387d" target="_top" xlink:title="Try to make a new SetExt. ">
<polygon fill="none" stroke="black" points="241.5,-192 241.5,-211 387.5,-211 387.5,-192 241.5,-192"/>
<text text-anchor="middle" x="314.5" y="-199" font-family="Helvetica,sans-Serif" font-size="10.00">nars.language.Negation.make</text>
</a>
</g>
</g>
<!-- Node630&#45;&gt;Node646 -->
<g id="edge18" class="edge"><title>Node630&#45;&gt;Node646</title>
<path fill="none" stroke="midnightblue" d="M132.056,-151.6C155.559,-161.582 185.487,-173.377 213,-181.5 226.82,-185.58 241.956,-189.081 256.192,-191.96"/>
<polygon fill="midnightblue" stroke="midnightblue" points="133.3,-148.325 122.73,-147.592 130.536,-154.757 133.3,-148.325"/>
</g>
<!-- Node647 -->
<g id="node18" class="node"><title>Node647</title>
<g id="a_node18"><a xlink:href="../../d4/db5/a00328.html#a0666c2284e56b957ad8906e671751fd1" target="_top" xlink:title="Try to make a new compound from a set of components. ">
<polygon fill="none" stroke="black" points="249,-142.5 249,-172.5 380,-172.5 380,-142.5 249,-142.5"/>
<text text-anchor="start" x="257" y="-160.5" font-family="Helvetica,sans-Serif" font-size="10.00">nars.language.Intersection</text>
<text text-anchor="middle" x="314.5" y="-149.5" font-family="Helvetica,sans-Serif" font-size="10.00">Ext.make</text>
</a>
</g>
</g>
<!-- Node630&#45;&gt;Node647 -->
<g id="edge19" class="edge"><title>Node630&#45;&gt;Node647</title>
<path fill="none" stroke="midnightblue" d="M187.241,-143.409C208.103,-145.737 229.635,-148.14 248.88,-150.288"/>
<polygon fill="midnightblue" stroke="midnightblue" points="187.393,-139.904 177.067,-142.273 186.617,-146.861 187.393,-139.904"/>
</g>
<!-- Node648 -->
<g id="node19" class="node"><title>Node648</title>
<g id="a_node19"><a xlink:href="../../dc/d50/a00332.html#a0a6d294f77be47fa91fcf9b85294f191" target="_top" xlink:title="Try to make a new compound from a set of components. ">
<polygon fill="none" stroke="black" points="249,-93.5 249,-123.5 380,-123.5 380,-93.5 249,-93.5"/>
<text text-anchor="start" x="257" y="-111.5" font-family="Helvetica,sans-Serif" font-size="10.00">nars.language.Intersection</text>
<text text-anchor="middle" x="314.5" y="-100.5" font-family="Helvetica,sans-Serif" font-size="10.00">Int.make</text>
</a>
</g>
</g>
<!-- Node630&#45;&gt;Node648 -->
<g id="edge20" class="edge"><title>Node630&#45;&gt;Node648</title>
<path fill="none" stroke="midnightblue" d="M187.241,-122.028C208.103,-119.793 229.635,-117.486 248.88,-115.424"/>
<polygon fill="midnightblue" stroke="midnightblue" points="186.637,-118.572 177.067,-123.118 187.383,-125.533 186.637,-118.572"/>
</g>
<!-- Node649 -->
<g id="node20" class="node"><title>Node649</title>
<g id="a_node20"><a xlink:href="../../d8/d17/a00304.html#aa26a304f6249c185836d8fde8b8f17a8" target="_top" xlink:title="default method to make the oldName of the current term from existing fields ">
<polygon fill="none" stroke="black" points="213,-55 213,-74 416,-74 416,-55 213,-55"/>
<text text-anchor="middle" x="314.5" y="-62" font-family="Helvetica,sans-Serif" font-size="10.00">nars.language.CompoundTerm.makeName</text>
</a>
</g>
</g>
<!-- Node630&#45;&gt;Node649 -->
<g id="edge21" class="edge"><title>Node630&#45;&gt;Node649</title>
<path fill="none" stroke="midnightblue" d="M117.163,-112.66C141.849,-99.8144 179.212,-84.2995 213,-74.5 213.512,-74.3516 214.025,-74.2041 214.54,-74.0575"/>
<polygon fill="midnightblue" stroke="midnightblue" points="115.479,-109.591 108.356,-117.434 118.816,-115.745 115.479,-109.591"/>
</g>
<!-- Node632 -->
<g id="node3" class="node"><title>Node632</title>
<g id="a_node3"><a xlink:href="../../d0/def/a00256.html#ab621fd6a291394ad962761cd0ae1ff08" target="_top" xlink:title="Equivalent transformation between products and images {&lt;(*, S, M) &#45;&#45;&gt; P&gt;, S@(*, S, M)} |&#45; &lt;S &#45;&#45;&gt; (/, P, _, M)&gt; {&lt;S &#45;&#45;&gt; (/, P, _, M)&gt;, P@(/, P, _, M)} |&#45; &lt;(*, S, M) &#45;&#45;&gt; P&gt; {&lt;S &#45;&#45;&gt; (/, P, _, M)&gt;, M@(/, P, _, M)} |&#45; &lt;M &#45;&#45;&gt; (/, P, S, _)&gt; ">
<polygon fill="none" stroke="black" points="673,-248.5 673,-278.5 820,-278.5 820,-248.5 673,-248.5"/>
<text text-anchor="start" x="681" y="-266.5" font-family="Helvetica,sans-Serif" font-size="10.00">nars.inference.Structural</text>
<text text-anchor="middle" x="746.5" y="-255.5" font-family="Helvetica,sans-Serif" font-size="10.00">Rules.transformProductImage</text>
</a>
</g>
</g>
<!-- Node631&#45;&gt;Node632 -->
<g id="edge2" class="edge"><title>Node631&#45;&gt;Node632</title>
<path fill="none" stroke="midnightblue" d="M336.378,-254.932C362.053,-272.86 407.695,-301.397 452,-312.5 531.756,-332.487 556.62,-329.809 637,-312.5 667.106,-306.017 698.922,-290.481 720.259,-278.627"/>
<polygon fill="midnightblue" stroke="midnightblue" points="338.339,-252.032 328.164,-249.079 334.277,-257.733 338.339,-252.032"/>
</g>
<!-- Node642 -->
<g id="node13" class="node"><title>Node642</title>
<g id="a_node13"><a xlink:href="../../d0/def/a00256.html#a45ae086cf44c9f32cbe9a729f2419594" target="_top" xlink:title="Equivalent transformation between products and images when the subject is a compound {&lt;(*...">
<polygon fill="none" stroke="black" points="480,-273.5 480,-303.5 609,-303.5 609,-273.5 480,-273.5"/>
<text text-anchor="start" x="488" y="-291.5" font-family="Helvetica,sans-Serif" font-size="10.00">nars.inference.Structural</text>
<text text-anchor="middle" x="544.5" y="-280.5" font-family="Helvetica,sans-Serif" font-size="10.00">Rules.transformSubjectPI</text>
</a>
</g>
</g>
<!-- Node631&#45;&gt;Node642 -->
<g id="edge12" class="edge"><title>Node631&#45;&gt;Node642</title>
<path fill="none" stroke="midnightblue" d="M369.686,-251.145C402.796,-258.261 445.297,-267.395 479.985,-274.85"/>
<polygon fill="midnightblue" stroke="midnightblue" points="370.243,-247.685 359.731,-249.006 368.772,-254.529 370.243,-247.685"/>
</g>
<!-- Node643 -->
<g id="node14" class="node"><title>Node643</title>
<g id="a_node14"><a xlink:href="../../d0/def/a00256.html#ad34f61108459aea34b27a7547ac4ba48" target="_top" xlink:title="Equivalent transformation between products and images when the predicate is a compound {&lt;(*...">
<polygon fill="none" stroke="black" points="476,-224.5 476,-254.5 613,-254.5 613,-224.5 476,-224.5"/>
<text text-anchor="start" x="484" y="-242.5" font-family="Helvetica,sans-Serif" font-size="10.00">nars.inference.Structural</text>
<text text-anchor="middle" x="544.5" y="-231.5" font-family="Helvetica,sans-Serif" font-size="10.00">Rules.transformPredicatePI</text>
</a>
</g>
</g>
<!-- Node631&#45;&gt;Node643 -->
<g id="edge14" class="edge"><title>Node631&#45;&gt;Node643</title>
<path fill="none" stroke="midnightblue" d="M395.445,-239.5C421.695,-239.5 450.597,-239.5 475.845,-239.5"/>
<polygon fill="midnightblue" stroke="midnightblue" points="395.146,-236 385.146,-239.5 395.146,-243 395.146,-236"/>
</g>
<!-- Node644 -->
<g id="node15" class="node"><title>Node644</title>
<g id="a_node15"><a xlink:href="../../d8/d17/a00304.html#a7e26be1958a40da052dbfed62ad4935b" target="_top" xlink:title="Try to make a compound term from an operator and a list of components. ">
<polygon fill="none" stroke="black" points="456,-186 456,-205 633,-205 633,-186 456,-186"/>
<text text-anchor="middle" x="544.5" y="-193" font-family="Helvetica,sans-Serif" font-size="10.00">nars.language.CompoundTerm.make</text>
</a>
</g>
</g>
<!-- Node631&#45;&gt;Node644 -->
<g id="edge16" class="edge"><title>Node631&#45;&gt;Node644</title>
<path fill="none" stroke="midnightblue" d="M376.039,-228.123C389.215,-225.628 403.078,-222.988 416,-220.5 442.248,-215.446 471.515,-209.714 495.382,-205.015"/>
<polygon fill="midnightblue" stroke="midnightblue" points="375.3,-224.701 366.124,-229.998 376.6,-231.579 375.3,-224.701"/>
</g>
<!-- Node645 -->
<g id="node16" class="node"><title>Node645</title>
<g id="a_node16"><a xlink:href="../../df/df1/a00340.html#a03b4b8cac0b36273fac8e5413743cd27" target="_top" xlink:title="Try to make a Product from an ImageExt/ImageInt and a component. ">
<polygon fill="none" stroke="black" points="474,-148 474,-167 615,-167 615,-148 474,-148"/>
<text text-anchor="middle" x="544.5" y="-155" font-family="Helvetica,sans-Serif" font-size="10.00">nars.language.Product.make</text>
</a>
</g>
</g>
<!-- Node631&#45;&gt;Node645 -->
<g id="edge17" class="edge"><title>Node631&#45;&gt;Node645</title>
<path fill="none" stroke="midnightblue" d="M395.184,-229.9C402.481,-227.42 409.545,-224.334 416,-220.5 437.724,-207.597 430.392,-189.597 452,-176.5 458.66,-172.463 466.039,-169.273 473.634,-166.752"/>
<polygon fill="midnightblue" stroke="midnightblue" points="393.698,-226.692 385.127,-232.92 395.711,-233.396 393.698,-226.692"/>
</g>
<!-- Node633 -->
<g id="node4" class="node"><title>Node633</title>
<g id="a_node4"><a xlink:href="../../dc/ded/a00252.html#ab344d6ccee0f3671b57d092daeb65db4" target="_top" xlink:title="The TaskLink is of type TRANSFORM, and the conclusion is an equivalent transformation. ">
<polygon fill="none" stroke="black" points="1077,-233 1077,-252 1274,-252 1274,-233 1077,-233"/>
<text text-anchor="middle" x="1175.5" y="-240" font-family="Helvetica,sans-Serif" font-size="10.00">nars.inference.RuleTables.transformTask</text>
</a>
</g>
</g>
<!-- Node632&#45;&gt;Node633 -->
<g id="edge3" class="edge"><title>Node632&#45;&gt;Node633</title>
<path fill="none" stroke="midnightblue" d="M830.587,-259.414C901.064,-255.948 1002.27,-250.97 1076.66,-247.312"/>
<polygon fill="midnightblue" stroke="midnightblue" points="830.235,-255.927 820.419,-259.914 830.579,-262.918 830.235,-255.927"/>
</g>
<!-- Node634 -->
<g id="node5" class="node"><title>Node634</title>
<g id="a_node5"><a xlink:href="../../d7/ded/a00196.html#ad6fb91dda799c3092ecb186ef24ca92a" target="_top" xlink:title="An atomic step in a concept, only called in Memory# processConcept. ">
<polygon fill="none" stroke="black" points="1509,-108.5 1509,-138.5 1628,-138.5 1628,-108.5 1509,-108.5"/>
<text text-anchor="start" x="1517" y="-126.5" font-family="Helvetica,sans-Serif" font-size="10.00">nars.entity.Concept.fire</text>
<text text-anchor="middle" x="1568.5" y="-115.5" font-family="Helvetica,sans-Serif" font-size="10.00">FromProcessConcept</text>
</a>
</g>
</g>
<!-- Node633&#45;&gt;Node634 -->
<g id="edge4" class="edge"><title>Node633&#45;&gt;Node634</title>
<path fill="none" stroke="midnightblue" d="M1217.52,-230.017C1289.89,-207.991 1439.95,-162.319 1517.97,-138.574"/>
<polygon fill="midnightblue" stroke="midnightblue" points="1216.38,-226.703 1207.84,-232.963 1218.42,-233.4 1216.38,-226.703"/>
</g>
<!-- Node635 -->
<g id="node6" class="node"><title>Node635</title>
<g id="a_node6"><a xlink:href="../../d4/d27/a00392.html#a0acc4adbf6a2462245da46bcb529746c" target="_top" xlink:title="Select a concept to fireFromProcessConcept. ">
<polygon fill="none" stroke="black" points="1664,-108.5 1664,-138.5 1810,-138.5 1810,-108.5 1664,-108.5"/>
<text text-anchor="start" x="1672" y="-126.5" font-family="Helvetica,sans-Serif" font-size="10.00">nars.storage.Memory.process</text>
<text text-anchor="middle" x="1737" y="-115.5" font-family="Helvetica,sans-Serif" font-size="10.00">Concept</text>
</a>
</g>
</g>
<!-- Node634&#45;&gt;Node635 -->
<g id="edge5" class="edge"><title>Node634&#45;&gt;Node635</title>
<path fill="none" stroke="midnightblue" d="M1638.34,-123.5C1646.75,-123.5 1655.36,-123.5 1663.82,-123.5"/>
<polygon fill="midnightblue" stroke="midnightblue" points="1638.2,-120 1628.2,-123.5 1638.2,-127 1638.2,-120"/>
</g>
<!-- Node636 -->
<g id="node7" class="node"><title>Node636</title>
<g id="a_node7"><a xlink:href="../../d4/d27/a00392.html#a59ae339d666409988d90d29be4f73a91" target="_top" xlink:title="An atomic working workCycle of the system: process new Tasks, then fireFromProcessConcept a concept...">
<polygon fill="none" stroke="black" points="1846,-108.5 1846,-138.5 1979,-138.5 1979,-108.5 1846,-108.5"/>
<text text-anchor="start" x="1854" y="-126.5" font-family="Helvetica,sans-Serif" font-size="10.00">nars.storage.Memory.work</text>
<text text-anchor="middle" x="1912.5" y="-115.5" font-family="Helvetica,sans-Serif" font-size="10.00">Cycle</text>
</a>
</g>
</g>
<!-- Node635&#45;&gt;Node636 -->
<g id="edge6" class="edge"><title>Node635&#45;&gt;Node636</title>
<path fill="none" stroke="midnightblue" d="M1820.12,-123.5C1828.72,-123.5 1837.37,-123.5 1845.76,-123.5"/>
<polygon fill="midnightblue" stroke="midnightblue" points="1820.07,-120 1810.07,-123.5 1820.07,-127 1820.07,-120"/>
</g>
<!-- Node637 -->
<g id="node8" class="node"><title>Node637</title>
<g id="a_node8"><a xlink:href="../../df/d15/a00416.html#a0d5c797dc17d9e8d0998852915e0f303" target="_top" xlink:title="nars.storage.ReasonerBatch.doTick">
<polygon fill="none" stroke="black" points="2015,-114 2015,-133 2188,-133 2188,-114 2015,-114"/>
<text text-anchor="middle" x="2101.5" y="-121" font-family="Helvetica,sans-Serif" font-size="10.00">nars.storage.ReasonerBatch.doTick</text>
</a>
</g>
</g>
<!-- Node636&#45;&gt;Node637 -->
<g id="edge7" class="edge"><title>Node636&#45;&gt;Node637</title>
<path fill="none" stroke="midnightblue" d="M1989.34,-123.5C1997.78,-123.5 2006.42,-123.5 2014.97,-123.5"/>
<polygon fill="midnightblue" stroke="midnightblue" points="1989.17,-120 1979.17,-123.5 1989.17,-127 1989.17,-120"/>
</g>
<!-- Node638 -->
<g id="node9" class="node"><title>Node638</title>
<g id="a_node9"><a xlink:href="../../df/d15/a00416.html#a3468aa0f99edcd66412f27922dddb880" target="_top" xlink:title="A clock tick. ">
<polygon fill="none" stroke="black" points="2224,-114 2224,-133 2384,-133 2384,-114 2224,-114"/>
<text text-anchor="middle" x="2304" y="-121" font-family="Helvetica,sans-Serif" font-size="10.00">nars.storage.ReasonerBatch.tick</text>
</a>
</g>
</g>
<!-- Node637&#45;&gt;Node638 -->
<g id="edge8" class="edge"><title>Node637&#45;&gt;Node638</title>
<path fill="none" stroke="midnightblue" d="M2198.13,-123.5C2206.7,-123.5 2215.31,-123.5 2223.71,-123.5"/>
<polygon fill="midnightblue" stroke="midnightblue" points="2198.11,-120 2188.11,-123.5 2198.11,-127 2198.11,-120"/>
</g>
<!-- Node639 -->
<g id="node10" class="node"><title>Node639</title>
<g id="a_node10"><a xlink:href="../../d9/da1/a00396.html#a5d9cfe517bcfbe41e5251910bcd119c1" target="_top" xlink:title="Run to completion: repeatedly execute NARS working cycle, until Inputs are Finished, or 1000 steps. ">
<polygon fill="none" stroke="black" points="2420,-114 2420,-133 2564,-133 2564,-114 2420,-114"/>
<text text-anchor="middle" x="2492" y="-121" font-family="Helvetica,sans-Serif" font-size="10.00">nars.storage.NARSBatch.run</text>
</a>
</g>
</g>
<!-- Node638&#45;&gt;Node639 -->
<g id="edge9" class="edge"><title>Node638&#45;&gt;Node639</title>
<path fill="none" stroke="midnightblue" d="M2394.22,-123.5C2402.82,-123.5 2411.47,-123.5 2419.87,-123.5"/>
<polygon fill="midnightblue" stroke="midnightblue" points="2394.15,-120 2384.15,-123.5 2394.15,-127 2394.15,-120"/>
</g>
<!-- Node640 -->
<g id="node11" class="node"><title>Node640</title>
<g id="a_node11"><a xlink:href="../../d9/da1/a00396.html#a7c307c6b842f82664de6b0e52bdf8efc" target="_top" xlink:title="non&#45;static equivalent to main(String[]) : run to completion from an input file ">
<polygon fill="none" stroke="black" points="2600,-108.5 2600,-138.5 2744,-138.5 2744,-108.5 2600,-108.5"/>
<text text-anchor="start" x="2608" y="-126.5" font-family="Helvetica,sans-Serif" font-size="10.00">nars.storage.NARSBatch.run</text>
<text text-anchor="middle" x="2672" y="-115.5" font-family="Helvetica,sans-Serif" font-size="10.00">Inference</text>
</a>
</g>
</g>
<!-- Node639&#45;&gt;Node640 -->
<g id="edge10" class="edge"><title>Node639&#45;&gt;Node640</title>
<path fill="none" stroke="midnightblue" d="M2574.17,-123.5C2582.79,-123.5 2591.51,-123.5 2600,-123.5"/>
<polygon fill="midnightblue" stroke="midnightblue" points="2574.12,-120 2564.12,-123.5 2574.12,-127 2574.12,-120"/>
</g>
<!-- Node641 -->
<g id="node12" class="node"><title>Node641</title>
<g id="a_node12"><a xlink:href="../../d9/da1/a00396.html#abafc597289bc2f6453b5cd0dd6634e54" target="_top" xlink:title="The entry point of the standalone application. ">
<polygon fill="none" stroke="black" points="2780,-114 2780,-133 2932,-133 2932,-114 2780,-114"/>
<text text-anchor="middle" x="2856" y="-121" font-family="Helvetica,sans-Serif" font-size="10.00">nars.storage.NARSBatch.main</text>
</a>
</g>
</g>
<!-- Node640&#45;&gt;Node641 -->
<g id="edge11" class="edge"><title>Node640&#45;&gt;Node641</title>
<path fill="none" stroke="midnightblue" d="M2754.17,-123.5C2762.76,-123.5 2771.48,-123.5 2780,-123.5"/>
<polygon fill="midnightblue" stroke="midnightblue" points="2754.15,-120 2744.15,-123.5 2754.15,-127 2754.15,-120"/>
</g>
<!-- Node642&#45;&gt;Node632 -->
<g id="edge13" class="edge"><title>Node642&#45;&gt;Node632</title>
<path fill="none" stroke="midnightblue" d="M619.189,-279.289C636.656,-277.105 655.276,-274.778 672.703,-272.6"/>
<polygon fill="midnightblue" stroke="midnightblue" points="618.545,-275.842 609.056,-280.555 619.413,-282.788 618.545,-275.842"/>
</g>
<!-- Node643&#45;&gt;Node632 -->
<g id="edge15" class="edge"><title>Node643&#45;&gt;Node632</title>
<path fill="none" stroke="midnightblue" d="M623.226,-248.827C639.51,-250.781 656.625,-252.835 672.721,-254.766"/>
<polygon fill="midnightblue" stroke="midnightblue" points="623.557,-245.342 613.211,-247.625 622.723,-252.292 623.557,-245.342"/>
</g>
<!-- Node649&#45;&gt;Node630 -->
<g id="edge23" class="edge"><title>Node649&#45;&gt;Node630</title>
<path fill="none" stroke="midnightblue" d="M282.976,-76.3868C262.87,-80.8751 236.091,-85.803 213,-92.5 189.184,-99.4071 163.593,-109.154 141.917,-117.471"/>
<polygon fill="midnightblue" stroke="midnightblue" points="283.893,-79.7668 292.827,-74.0727 282.292,-72.9523 283.893,-79.7668"/>
</g>
<!-- Node650 -->
<g id="node21" class="node"><title>Node650</title>
<g id="a_node21"><a xlink:href="../../d8/d17/a00304.html#ab2f1e2119f6824f9c97e2f8d0d75483e" target="_top" xlink:title="Constructor called from subclasses constructors to initialize the fields. ">
<polygon fill="none" stroke="black" points="468,-98.5 468,-128.5 621,-128.5 621,-98.5 468,-98.5"/>
<text text-anchor="start" x="476" y="-116.5" font-family="Helvetica,sans-Serif" font-size="10.00">nars.language.CompoundTerm.</text>
<text text-anchor="middle" x="544.5" y="-105.5" font-family="Helvetica,sans-Serif" font-size="10.00">CompoundTerm</text>
</a>
</g>
</g>
<!-- Node649&#45;&gt;Node650 -->
<g id="edge22" class="edge"><title>Node649&#45;&gt;Node650</title>
<path fill="none" stroke="midnightblue" d="M378.189,-75.9081C390.732,-78.3156 403.801,-80.913 416,-83.5 437.578,-88.0759 461.109,-93.4913 482.015,-98.4529"/>
<polygon fill="midnightblue" stroke="midnightblue" points="378.746,-72.4514 368.268,-74.0219 377.438,-79.3282 378.746,-72.4514"/>
</g>
<!-- Node651 -->
<g id="node22" class="node"><title>Node651</title>
<g id="a_node22"><a xlink:href="../../d8/d17/a00304.html#ac19f90fbe8b8ebe78462fa13e7ebca74" target="_top" xlink:title="Rename the variables in the compound. ">
<polygon fill="none" stroke="black" points="452,-49.5 452,-79.5 637,-79.5 637,-49.5 452,-49.5"/>
<text text-anchor="start" x="460" y="-67.5" font-family="Helvetica,sans-Serif" font-size="10.00">nars.language.CompoundTerm.rename</text>
<text text-anchor="middle" x="544.5" y="-56.5" font-family="Helvetica,sans-Serif" font-size="10.00">Variables</text>
</a>
</g>
</g>
<!-- Node649&#45;&gt;Node651 -->
<g id="edge24" class="edge"><title>Node649&#45;&gt;Node651</title>
<path fill="none" stroke="midnightblue" d="M426.445,-64.5C434.89,-64.5 443.358,-64.5 451.662,-64.5"/>
<polygon fill="midnightblue" stroke="midnightblue" points="426.168,-61.0001 416.168,-64.5 426.168,-68.0001 426.168,-61.0001"/>
</g>
<!-- Node652 -->
<g id="node23" class="node"><title>Node652</title>
<g id="a_node23"><a xlink:href="../../d8/d17/a00304.html#a82aa08a45653fbb88523fe2497469434" target="_top" xlink:title="Recursively apply a substitute to the current CompoundTerm. ">
<polygon fill="none" stroke="black" points="456.5,-0.5 456.5,-30.5 632.5,-30.5 632.5,-0.5 456.5,-0.5"/>
<text text-anchor="start" x="464.5" y="-18.5" font-family="Helvetica,sans-Serif" font-size="10.00">nars.language.CompoundTerm.apply</text>
<text text-anchor="middle" x="544.5" y="-7.5" font-family="Helvetica,sans-Serif" font-size="10.00">Substitute</text>
</a>
</g>
</g>
<!-- Node649&#45;&gt;Node652 -->
<g id="edge25" class="edge"><title>Node649&#45;&gt;Node652</title>
<path fill="none" stroke="midnightblue" d="M369.91,-52.8066C400.909,-46.1446 440.085,-37.7251 473.372,-30.5713"/>
<polygon fill="midnightblue" stroke="midnightblue" points="368.772,-49.4711 359.731,-54.9942 370.243,-56.3149 368.772,-49.4711"/>
</g>
<!-- Node653 -->
<g id="node24" class="node"><title>Node653</title>
<g id="a_node24"><a xlink:href="../../d6/d08/a00244.html#ae7906cfca35e9c7568ace240aba808a0" target="_top" xlink:title="{&lt;M &#45;&#45;&gt; S&gt;, &lt;C ==&gt; &lt;M &#45;&#45;&gt; P&gt;&gt;} |&#45; &lt;(&amp;&amp;, &lt;#x &#45;&#45;&gt; S&gt;, C) ==&gt; &lt;#x &#45;&#45;&gt; P&gt;&gt; {&lt;M &#45;&#45;&gt; S&gt;, (&amp;&amp;, C, &lt;M &#45;&#45;&gt; P&gt;)} |&#45; (&amp;&amp;, C, &lt;&lt;#x &#45;&#45;&gt; S&gt; ==&gt; &lt;#x &#45;&#45;&gt; P&gt;&gt;) ">
<polygon fill="none" stroke="black" points="675,-20.5 675,-50.5 818,-50.5 818,-20.5 675,-20.5"/>
<text text-anchor="start" x="683" y="-38.5" font-family="Helvetica,sans-Serif" font-size="10.00">nars.inference.Compositional</text>
<text text-anchor="middle" x="746.5" y="-27.5" font-family="Helvetica,sans-Serif" font-size="10.00">Rules.introVarInner</text>
</a>
</g>
</g>
<!-- Node652&#45;&gt;Node653 -->
<g id="edge26" class="edge"><title>Node652&#45;&gt;Node653</title>
<path fill="none" stroke="midnightblue" d="M642.602,-25.2102C653.477,-26.2977 664.399,-27.3899 674.851,-28.4351"/>
<polygon fill="midnightblue" stroke="midnightblue" points="642.94,-21.7266 632.641,-24.2141 642.243,-28.6919 642.94,-21.7266"/>
</g>
<!-- Node654 -->
<g id="node25" class="node"><title>Node654</title>
<g id="a_node25"><a xlink:href="../../dc/ded/a00252.html#a54a7ceba4f123db5035e3b85063c91f1" target="_top" xlink:title="Inference between a compound term and a statement. ">
<polygon fill="none" stroke="black" points="859,-69.5 859,-99.5 1038,-99.5 1038,-69.5 859,-69.5"/>
<text text-anchor="start" x="867" y="-87.5" font-family="Helvetica,sans-Serif" font-size="10.00">nars.inference.RuleTables.compound</text>
<text text-anchor="middle" x="948.5" y="-76.5" font-family="Helvetica,sans-Serif" font-size="10.00">AndStatement</text>
</a>
</g>
</g>
<!-- Node653&#45;&gt;Node654 -->
<g id="edge27" class="edge"><title>Node653&#45;&gt;Node654</title>
<path fill="none" stroke="midnightblue" d="M818.834,-52.9768C840.878,-58.3775 864.951,-64.2755 886.25,-69.4938"/>
<polygon fill="midnightblue" stroke="midnightblue" points="819.411,-49.5149 808.866,-50.5346 817.746,-56.3138 819.411,-49.5149"/>
</g>
<!-- Node656 -->
<g id="node27" class="node"><title>Node656</title>
<g id="a_node27"><a xlink:href="../../dc/ded/a00252.html#af6c973743270b2739d4ad25f16975da1" target="_top" xlink:title="The detachment rule, with variable unification. ">
<polygon fill="none" stroke="black" points="856,-20.5 856,-50.5 1041,-50.5 1041,-20.5 856,-20.5"/>
<text text-anchor="start" x="864" y="-38.5" font-family="Helvetica,sans-Serif" font-size="10.00">nars.inference.RuleTables.detachment</text>
<text text-anchor="middle" x="948.5" y="-27.5" font-family="Helvetica,sans-Serif" font-size="10.00">WithVar</text>
</a>
</g>
</g>
<!-- Node653&#45;&gt;Node656 -->
<g id="edge30" class="edge"><title>Node653&#45;&gt;Node656</title>
<path fill="none" stroke="midnightblue" d="M828.197,-35.5C837.316,-35.5 846.658,-35.5 855.904,-35.5"/>
<polygon fill="midnightblue" stroke="midnightblue" points="828.013,-32.0001 818.013,-35.5 828.012,-39.0001 828.013,-32.0001"/>
</g>
<!-- Node655 -->
<g id="node26" class="node"><title>Node655</title>
<g id="a_node26"><a xlink:href="../../dc/ded/a00252.html#ac2d01dfdc40bdd47c757cb549217e6e3" target="_top" xlink:title="Entry point of the inference engine. ">
<polygon fill="none" stroke="black" points="1310,-75 1310,-94 1473,-94 1473,-75 1310,-75"/>
<text text-anchor="middle" x="1391.5" y="-82" font-family="Helvetica,sans-Serif" font-size="10.00">nars.inference.RuleTables.reason</text>
</a>
</g>
</g>
<!-- Node654&#45;&gt;Node655 -->
<g id="edge28" class="edge"><title>Node654&#45;&gt;Node655</title>
<path fill="none" stroke="midnightblue" d="M1048.64,-84.5C1127.41,-84.5 1236.19,-84.5 1309.73,-84.5"/>
<polygon fill="midnightblue" stroke="midnightblue" points="1048.21,-81.0001 1038.21,-84.5 1048.21,-88.0001 1048.21,-81.0001"/>
</g>
<!-- Node655&#45;&gt;Node634 -->
<g id="edge29" class="edge"><title>Node655&#45;&gt;Node634</title>
<path fill="none" stroke="midnightblue" d="M1445.22,-96.2491C1465.32,-100.728 1488.34,-105.859 1508.95,-110.451"/>
<polygon fill="midnightblue" stroke="midnightblue" points="1445.83,-92.7996 1435.31,-94.0405 1444.31,-99.632 1445.83,-92.7996"/>
</g>
<!-- Node657 -->
<g id="node28" class="node"><title>Node657</title>
<g id="a_node28"><a xlink:href="../../dc/ded/a00252.html#a8628d400a8ceda7fea05039ddfea319b" target="_top" xlink:title="Meta&#45;table of syllogistic rules, indexed by the content classes of the taskSentence and the belief...">
<polygon fill="none" stroke="black" points="1085.5,-32 1085.5,-51 1265.5,-51 1265.5,-32 1085.5,-32"/>
<text text-anchor="middle" x="1175.5" y="-39" font-family="Helvetica,sans-Serif" font-size="10.00">nars.inference.RuleTables.syllogisms</text>
</a>
</g>
</g>
<!-- Node656&#45;&gt;Node657 -->
<g id="edge31" class="edge"><title>Node656&#45;&gt;Node657</title>
<path fill="none" stroke="midnightblue" d="M1051.35,-38.216C1062.66,-38.5176 1074.11,-38.823 1085.25,-39.12"/>
<polygon fill="midnightblue" stroke="midnightblue" points="1051.11,-34.7083 1041.02,-37.9404 1050.92,-41.7059 1051.11,-34.7083"/>
</g>
<!-- Node657&#45;&gt;Node655 -->
<g id="edge32" class="edge"><title>Node657&#45;&gt;Node655</title>
<path fill="none" stroke="midnightblue" d="M1233.84,-53.0222C1268.02,-59.8902 1310.89,-68.5038 1343.14,-74.9836"/>
<polygon fill="midnightblue" stroke="midnightblue" points="1234.49,-49.5817 1223.99,-51.0431 1233.11,-56.4446 1234.49,-49.5817"/>
</g>
</g>
</svg>
