<?xml version="1.0" encoding="UTF-8" standalone="no"?>
<!DOCTYPE svg PUBLIC "-//W3C//DTD SVG 1.1//EN"
 "http://www.w3.org/Graphics/SVG/1.1/DTD/svg11.dtd">
<!-- Generated by graphviz version 2.38.0 (20140413.2041)
 -->
<!-- Title: nars.language.CompoundTerm.setComponent Pages: 1 -->
<svg width="2282pt" height="116pt"
 viewBox="0.00 0.00 2282.00 115.50" xmlns="http://www.w3.org/2000/svg" xmlns:xlink="http://www.w3.org/1999/xlink">
<g id="graph0" class="graph" transform="scale(1 1) rotate(0) translate(4 111.5)">
<title>nars.language.CompoundTerm.setComponent</title>
<!-- Node816 -->
<g id="node1" class="node"><title>Node816</title>
<polygon fill="#bfbfbf" stroke="black" points="0,-60.5 0,-90.5 167,-90.5 167,-60.5 0,-60.5"/>
<text text-anchor="start" x="8" y="-78.5" font-family="Helvetica,sans-Serif" font-size="10.00">nars.language.CompoundTerm.set</text>
<text text-anchor="middle" x="83.5" y="-67.5" font-family="Helvetica,sans-Serif" font-size="10.00">Component</text>
</g>
<!-- Node817 -->
<g id="node2" class="node"><title>Node817</title>
<g id="a_node2"><a xlink:href="../../dc/ded/a00252.html#aac2b267fcfa9bb34e03d44a410bfd92b" target="_top" xlink:title="{&lt;(&amp;&amp;, S1, S2) &lt;=&gt; P&gt;, (&amp;&amp;, S1, S2)} |&#45; P ">
<polygon fill="none" stroke="black" points="419,-88 419,-107 616,-107 616,-88 419,-88"/>
<text text-anchor="middle" x="517.5" y="-95" font-family="Helvetica,sans-Serif" font-size="10.00">nars.inference.RuleTables.conditionalAna</text>
</a>
</g>
</g>
<!-- Node816&#45;&gt;Node817 -->
<g id="edge1" class="edge"><title>Node816&#45;&gt;Node817</title>
<path fill="none" stroke="midnightblue" d="M177.325,-80.2272C248.479,-83.8508 346.419,-88.8385 418.767,-92.5229"/>
<polygon fill="midnightblue" stroke="midnightblue" points="177.193,-76.716 167.028,-79.7028 176.837,-83.707 177.193,-76.716"/>
</g>
<!-- Node827 -->
<g id="node12" class="node"><title>Node827</title>
<g id="a_node12"><a xlink:href="../../dc/ded/a00252.html#a52bb3626302eb9f10567c24ec5dbc934" target="_top" xlink:title="{&lt;(&amp;&amp;, S1, S2, S3) ==&gt; P&gt;, S1} |&#45; &lt;(&amp;&amp;, S2, S3) ==&gt; P&gt; {&lt;(&amp;&amp;, S2, S3) ==&gt; P&gt;, &lt;S1 ==&gt; S2&gt;} |&#45; &lt;(&amp;&amp;...">
<polygon fill="none" stroke="black" points="203,-38.5 203,-68.5 383,-68.5 383,-38.5 203,-38.5"/>
<text text-anchor="start" x="211" y="-56.5" font-family="Helvetica,sans-Serif" font-size="10.00">nars.inference.RuleTables.conditional</text>
<text text-anchor="middle" x="293" y="-45.5" font-family="Helvetica,sans-Serif" font-size="10.00">DedInd</text>
</a>
</g>
</g>
<!-- Node816&#45;&gt;Node827 -->
<g id="edge11" class="edge"><title>Node816&#45;&gt;Node827</title>
<path fill="none" stroke="midnightblue" d="M177.099,-65.6823C185.663,-64.7743 194.33,-63.8553 202.863,-62.9507"/>
<polygon fill="midnightblue" stroke="midnightblue" points="176.681,-62.2069 167.106,-66.7418 177.419,-69.1679 176.681,-62.2069"/>
</g>
<!-- Node818 -->
<g id="node3" class="node"><title>Node818</title>
<g id="a_node3"><a xlink:href="../../dc/ded/a00252.html#ac2d01dfdc40bdd47c757cb549217e6e3" target="_top" xlink:title="Entry point of the inference engine. ">
<polygon fill="none" stroke="black" points="652,-50 652,-69 815,-69 815,-50 652,-50"/>
<text text-anchor="middle" x="733.5" y="-57" font-family="Helvetica,sans-Serif" font-size="10.00">nars.inference.RuleTables.reason</text>
</a>
</g>
</g>
<!-- Node817&#45;&gt;Node818 -->
<g id="edge2" class="edge"><title>Node817&#45;&gt;Node818</title>
<path fill="none" stroke="midnightblue" d="M582.401,-86.153C613.105,-80.7009 649.494,-74.2393 678.753,-69.0439"/>
<polygon fill="midnightblue" stroke="midnightblue" points="581.459,-82.7655 572.225,-87.96 582.683,-89.6577 581.459,-82.7655"/>
</g>
<!-- Node819 -->
<g id="node4" class="node"><title>Node819</title>
<g id="a_node4"><a xlink:href="../../d7/ded/a00196.html#ad6fb91dda799c3092ecb186ef24ca92a" target="_top" xlink:title="An atomic step in a concept, only called in Memory# processConcept. ">
<polygon fill="none" stroke="black" points="851,-44.5 851,-74.5 970,-74.5 970,-44.5 851,-44.5"/>
<text text-anchor="start" x="859" y="-62.5" font-family="Helvetica,sans-Serif" font-size="10.00">nars.entity.Concept.fire</text>
<text text-anchor="middle" x="910.5" y="-51.5" font-family="Helvetica,sans-Serif" font-size="10.00">FromProcessConcept</text>
</a>
</g>
</g>
<!-- Node818&#45;&gt;Node819 -->
<g id="edge3" class="edge"><title>Node818&#45;&gt;Node819</title>
<path fill="none" stroke="midnightblue" d="M825.249,-59.5C833.907,-59.5 842.523,-59.5 850.757,-59.5"/>
<polygon fill="midnightblue" stroke="midnightblue" points="825.085,-56.0001 815.085,-59.5 825.085,-63.0001 825.085,-56.0001"/>
</g>
<!-- Node820 -->
<g id="node5" class="node"><title>Node820</title>
<g id="a_node5"><a xlink:href="../../d4/d27/a00392.html#a0acc4adbf6a2462245da46bcb529746c" target="_top" xlink:title="Select a concept to fireFromProcessConcept. ">
<polygon fill="none" stroke="black" points="1006,-44.5 1006,-74.5 1152,-74.5 1152,-44.5 1006,-44.5"/>
<text text-anchor="start" x="1014" y="-62.5" font-family="Helvetica,sans-Serif" font-size="10.00">nars.storage.Memory.process</text>
<text text-anchor="middle" x="1079" y="-51.5" font-family="Helvetica,sans-Serif" font-size="10.00">Concept</text>
</a>
</g>
</g>
<!-- Node819&#45;&gt;Node820 -->
<g id="edge4" class="edge"><title>Node819&#45;&gt;Node820</title>
<path fill="none" stroke="midnightblue" d="M980.337,-59.5C988.748,-59.5 997.361,-59.5 1005.82,-59.5"/>
<polygon fill="midnightblue" stroke="midnightblue" points="980.202,-56.0001 970.202,-59.5 980.202,-63.0001 980.202,-56.0001"/>
</g>
<!-- Node821 -->
<g id="node6" class="node"><title>Node821</title>
<g id="a_node6"><a xlink:href="../../d4/d27/a00392.html#a59ae339d666409988d90d29be4f73a91" target="_top" xlink:title="An atomic working workCycle of the system: process new Tasks, then fireFromProcessConcept a concept...">
<polygon fill="none" stroke="black" points="1188,-44.5 1188,-74.5 1321,-74.5 1321,-44.5 1188,-44.5"/>
<text text-anchor="start" x="1196" y="-62.5" font-family="Helvetica,sans-Serif" font-size="10.00">nars.storage.Memory.work</text>
<text text-anchor="middle" x="1254.5" y="-51.5" font-family="Helvetica,sans-Serif" font-size="10.00">Cycle</text>
</a>
</g>
</g>
<!-- Node820&#45;&gt;Node821 -->
<g id="edge5" class="edge"><title>Node820&#45;&gt;Node821</title>
<path fill="none" stroke="midnightblue" d="M1162.12,-59.5C1170.72,-59.5 1179.37,-59.5 1187.76,-59.5"/>
<polygon fill="midnightblue" stroke="midnightblue" points="1162.07,-56.0001 1152.07,-59.5 1162.07,-63.0001 1162.07,-56.0001"/>
</g>
<!-- Node822 -->
<g id="node7" class="node"><title>Node822</title>
<g id="a_node7"><a xlink:href="../../df/d15/a00416.html#a0d5c797dc17d9e8d0998852915e0f303" target="_top" xlink:title="nars.storage.ReasonerBatch.doTick">
<polygon fill="none" stroke="black" points="1357,-50 1357,-69 1530,-69 1530,-50 1357,-50"/>
<text text-anchor="middle" x="1443.5" y="-57" font-family="Helvetica,sans-Serif" font-size="10.00">nars.storage.ReasonerBatch.doTick</text>
</a>
</g>
</g>
<!-- Node821&#45;&gt;Node822 -->
<g id="edge6" class="edge"><title>Node821&#45;&gt;Node822</title>
<path fill="none" stroke="midnightblue" d="M1331.34,-59.5C1339.78,-59.5 1348.42,-59.5 1356.97,-59.5"/>
<polygon fill="midnightblue" stroke="midnightblue" points="1331.17,-56.0001 1321.17,-59.5 1331.17,-63.0001 1331.17,-56.0001"/>
</g>
<!-- Node823 -->
<g id="node8" class="node"><title>Node823</title>
<g id="a_node8"><a xlink:href="../../df/d15/a00416.html#a3468aa0f99edcd66412f27922dddb880" target="_top" xlink:title="A clock tick. ">
<polygon fill="none" stroke="black" points="1566,-50 1566,-69 1726,-69 1726,-50 1566,-50"/>
<text text-anchor="middle" x="1646" y="-57" font-family="Helvetica,sans-Serif" font-size="10.00">nars.storage.ReasonerBatch.tick</text>
</a>
</g>
</g>
<!-- Node822&#45;&gt;Node823 -->
<g id="edge7" class="edge"><title>Node822&#45;&gt;Node823</title>
<path fill="none" stroke="midnightblue" d="M1540.13,-59.5C1548.7,-59.5 1557.31,-59.5 1565.71,-59.5"/>
<polygon fill="midnightblue" stroke="midnightblue" points="1540.11,-56.0001 1530.11,-59.5 1540.11,-63.0001 1540.11,-56.0001"/>
</g>
<!-- Node824 -->
<g id="node9" class="node"><title>Node824</title>
<g id="a_node9"><a xlink:href="../../d9/da1/a00396.html#a5d9cfe517bcfbe41e5251910bcd119c1" target="_top" xlink:title="Run to completion: repeatedly execute NARS working cycle, until Inputs are Finished, or 1000 steps. ">
<polygon fill="none" stroke="black" points="1762,-50 1762,-69 1906,-69 1906,-50 1762,-50"/>
<text text-anchor="middle" x="1834" y="-57" font-family="Helvetica,sans-Serif" font-size="10.00">nars.storage.NARSBatch.run</text>
</a>
</g>
</g>
<!-- Node823&#45;&gt;Node824 -->
<g id="edge8" class="edge"><title>Node823&#45;&gt;Node824</title>
<path fill="none" stroke="midnightblue" d="M1736.22,-59.5C1744.82,-59.5 1753.47,-59.5 1761.87,-59.5"/>
<polygon fill="midnightblue" stroke="midnightblue" points="1736.15,-56.0001 1726.15,-59.5 1736.15,-63.0001 1736.15,-56.0001"/>
</g>
<!-- Node825 -->
<g id="node10" class="node"><title>Node825</title>
<g id="a_node10"><a xlink:href="../../d9/da1/a00396.html#a7c307c6b842f82664de6b0e52bdf8efc" target="_top" xlink:title="non&#45;static equivalent to main(String[]) : run to completion from an input file ">
<polygon fill="none" stroke="black" points="1942,-44.5 1942,-74.5 2086,-74.5 2086,-44.5 1942,-44.5"/>
<text text-anchor="start" x="1950" y="-62.5" font-family="Helvetica,sans-Serif" font-size="10.00">nars.storage.NARSBatch.run</text>
<text text-anchor="middle" x="2014" y="-51.5" font-family="Helvetica,sans-Serif" font-size="10.00">Inference</text>
</a>
</g>
</g>
<!-- Node824&#45;&gt;Node825 -->
<g id="edge9" class="edge"><title>Node824&#45;&gt;Node825</title>
<path fill="none" stroke="midnightblue" d="M1916.17,-59.5C1924.79,-59.5 1933.51,-59.5 1942,-59.5"/>
<polygon fill="midnightblue" stroke="midnightblue" points="1916.12,-56.0001 1906.12,-59.5 1916.12,-63.0001 1916.12,-56.0001"/>
</g>
<!-- Node826 -->
<g id="node11" class="node"><title>Node826</title>
<g id="a_node11"><a xlink:href="../../d9/da1/a00396.html#abafc597289bc2f6453b5cd0dd6634e54" target="_top" xlink:title="The entry point of the standalone application. ">
<polygon fill="none" stroke="black" points="2122,-50 2122,-69 2274,-69 2274,-50 2122,-50"/>
<text text-anchor="middle" x="2198" y="-57" font-family="Helvetica,sans-Serif" font-size="10.00">nars.storage.NARSBatch.main</text>
</a>
</g>
</g>
<!-- Node825&#45;&gt;Node826 -->
<g id="edge10" class="edge"><title>Node825&#45;&gt;Node826</title>
<path fill="none" stroke="midnightblue" d="M2096.17,-59.5C2104.76,-59.5 2113.48,-59.5 2122,-59.5"/>
<polygon fill="midnightblue" stroke="midnightblue" points="2096.15,-56.0001 2086.15,-59.5 2096.15,-63.0001 2096.15,-56.0001"/>
</g>
<!-- Node827&#45;&gt;Node818 -->
<g id="edge14" class="edge"><title>Node827&#45;&gt;Node818</title>
<path fill="none" stroke="midnightblue" d="M393.339,-54.8593C471.448,-55.928 578.882,-57.398 651.752,-58.3951"/>
<polygon fill="midnightblue" stroke="midnightblue" points="393.048,-51.355 383.001,-54.7178 392.952,-58.3544 393.048,-51.355"/>
</g>
<!-- Node828 -->
<g id="node13" class="node"><title>Node828</title>
<g id="a_node13"><a xlink:href="../../dc/ded/a00252.html#aa167c7cb73f540ded591dc584ae623c1" target="_top" xlink:title="Conditional deduction or induction, with variable unification. ">
<polygon fill="none" stroke="black" points="427.5,-0.5 427.5,-30.5 607.5,-30.5 607.5,-0.5 427.5,-0.5"/>
<text text-anchor="start" x="435.5" y="-18.5" font-family="Helvetica,sans-Serif" font-size="10.00">nars.inference.RuleTables.conditional</text>
<text text-anchor="middle" x="517.5" y="-7.5" font-family="Helvetica,sans-Serif" font-size="10.00">DedIndWithVar</text>
</a>
</g>
</g>
<!-- Node827&#45;&gt;Node828 -->
<g id="edge12" class="edge"><title>Node827&#45;&gt;Node828</title>
<path fill="none" stroke="midnightblue" d="M392.058,-36.7531C404.179,-34.6828 416.513,-32.5764 428.472,-30.534"/>
<polygon fill="midnightblue" stroke="midnightblue" points="391.206,-33.3478 381.938,-38.4814 392.384,-40.2479 391.206,-33.3478"/>
</g>
<!-- Node828&#45;&gt;Node818 -->
<g id="edge13" class="edge"><title>Node828&#45;&gt;Node818</title>
<path fill="none" stroke="midnightblue" d="M601.601,-32.5862C630.349,-38.4971 661.523,-44.9067 686.235,-49.9876"/>
<polygon fill="midnightblue" stroke="midnightblue" points="602.048,-29.105 591.548,-30.5192 600.638,-35.9616 602.048,-29.105"/>
</g>
</g>
</svg>
