<?xml version="1.0" encoding="UTF-8" standalone="no"?>
<!DOCTYPE svg PUBLIC "-//W3C//DTD SVG 1.1//EN"
 "http://www.w3.org/Graphics/SVG/1.1/DTD/svg11.dtd">
<!-- Generated by graphviz version 2.38.0 (20140413.2041)
 -->
<!-- Title: nars.language.CompoundTerm.getComplexity Pages: 1 -->
<svg width="533pt" height="393pt"
 viewBox="0.00 0.00 533.00 392.50" xmlns="http://www.w3.org/2000/svg" xmlns:xlink="http://www.w3.org/1999/xlink">
<g id="graph0" class="graph" transform="scale(1 1) rotate(0) translate(4 388.5)">
<title>nars.language.CompoundTerm.getComplexity</title>
<!-- Node416 -->
<g id="node1" class="node"><title>Node416</title>
<polygon fill="#bfbfbf" stroke="black" points="0,-188.5 0,-218.5 167,-218.5 167,-188.5 0,-188.5"/>
<text text-anchor="start" x="8" y="-206.5" font-family="Helvetica,sans-Serif" font-size="10.00">nars.language.CompoundTerm.get</text>
<text text-anchor="middle" x="83.5" y="-195.5" font-family="Helvetica,sans-Serif" font-size="10.00">Complexity</text>
</g>
<!-- Node417 -->
<g id="node2" class="node"><title>Node417</title>
<g id="a_node2"><a xlink:href="../../d6/d9c/a00352.html#aabb9d80867d444bfa781a3c628cb73f7" target="_top" xlink:title="Clone a SetInt. ">
<polygon fill="none" stroke="black" points="214,-365 214,-384 347,-384 347,-365 214,-365"/>
<text text-anchor="middle" x="280.5" y="-372" font-family="Helvetica,sans-Serif" font-size="10.00">nars.language.SetInt.clone</text>
</a>
</g>
</g>
<!-- Node416&#45;&gt;Node417 -->
<g id="edge1" class="edge"><title>Node416&#45;&gt;Node417</title>
<path fill="none" stroke="midnightblue" d="M96.7673,-227.975C115.107,-261.978 152.941,-322.987 203,-355.5 208.968,-359.376 215.668,-362.461 222.556,-364.917"/>
<polygon fill="midnightblue" stroke="midnightblue" points="99.6666,-225.968 91.9132,-218.748 93.4716,-229.228 99.6666,-225.968"/>
</g>
<!-- Node418 -->
<g id="node3" class="node"><title>Node418</title>
<g id="a_node3"><a xlink:href="../../d3/db8/a00316.html#a30b9a743c58d8aa4f172d00ef04a8891" target="_top" xlink:title="Clone an object. ">
<polygon fill="none" stroke="black" points="203,-327 203,-346 358,-346 358,-327 203,-327"/>
<text text-anchor="middle" x="280.5" y="-334" font-family="Helvetica,sans-Serif" font-size="10.00">nars.language.Inheritance.clone</text>
</a>
</g>
</g>
<!-- Node416&#45;&gt;Node418 -->
<g id="edge2" class="edge"><title>Node416&#45;&gt;Node418</title>
<path fill="none" stroke="midnightblue" d="M102.061,-226.506C123.18,-252.541 161.062,-294.33 203,-317.5 210.067,-321.404 217.94,-324.518 225.872,-326.999"/>
<polygon fill="midnightblue" stroke="midnightblue" points="104.775,-224.295 95.8098,-218.65 99.2979,-228.654 104.775,-224.295"/>
</g>
<!-- Node419 -->
<g id="node4" class="node"><title>Node419</title>
<g id="a_node4"><a xlink:href="../../d6/de1/a00356.html#a186e43d1f6a471425fe6cdf3bd951dac" target="_top" xlink:title="Clone an object. ">
<polygon fill="none" stroke="black" points="207,-289 207,-308 354,-308 354,-289 207,-289"/>
<text text-anchor="middle" x="280.5" y="-296" font-family="Helvetica,sans-Serif" font-size="10.00">nars.language.Similarity.clone</text>
</a>
</g>
</g>
<!-- Node416&#45;&gt;Node419 -->
<g id="edge3" class="edge"><title>Node416&#45;&gt;Node419</title>
<path fill="none" stroke="midnightblue" d="M111.787,-224.69C134.915,-241.717 169.563,-265.092 203,-279.5 211.797,-283.291 221.503,-286.429 230.963,-288.988"/>
<polygon fill="midnightblue" stroke="midnightblue" points="113.619,-221.69 103.513,-218.507 109.428,-227.297 113.619,-221.69"/>
</g>
<!-- Node420 -->
<g id="node5" class="node"><title>Node420</title>
<g id="a_node5"><a xlink:href="../../dd/d1d/a00336.html#aa75de1d079c9867de603470387c64998" target="_top" xlink:title="Clone an object. ">
<polygon fill="none" stroke="black" points="207.5,-251 207.5,-270 353.5,-270 353.5,-251 207.5,-251"/>
<text text-anchor="middle" x="280.5" y="-258" font-family="Helvetica,sans-Serif" font-size="10.00">nars.language.Negation.clone</text>
</a>
</g>
</g>
<!-- Node416&#45;&gt;Node420 -->
<g id="edge4" class="edge"><title>Node416&#45;&gt;Node420</title>
<path fill="none" stroke="midnightblue" d="M138.639,-221.701C158.759,-228.243 181.836,-235.486 203,-241.5 214.584,-244.792 227.243,-248.066 238.87,-250.945"/>
<polygon fill="midnightblue" stroke="midnightblue" points="139.613,-218.338 129.021,-218.555 137.437,-224.991 139.613,-218.338"/>
</g>
<!-- Node421 -->
<g id="node6" class="node"><title>Node421</title>
<g id="a_node6"><a xlink:href="../../df/df1/a00340.html#a0d1189bcbcf720c3818cb2ebc953cd64" target="_top" xlink:title="Clone a Product. ">
<polygon fill="none" stroke="black" points="210.5,-213 210.5,-232 350.5,-232 350.5,-213 210.5,-213"/>
<text text-anchor="middle" x="280.5" y="-220" font-family="Helvetica,sans-Serif" font-size="10.00">nars.language.Product.clone</text>
</a>
</g>
</g>
<!-- Node416&#45;&gt;Node421 -->
<g id="edge5" class="edge"><title>Node416&#45;&gt;Node421</title>
<path fill="none" stroke="midnightblue" d="M177.325,-212.545C188.396,-213.623 199.547,-214.71 210.206,-215.748"/>
<polygon fill="midnightblue" stroke="midnightblue" points="177.49,-209.044 167.198,-211.558 176.811,-216.011 177.49,-209.044"/>
</g>
<!-- Node422 -->
<g id="node7" class="node"><title>Node422</title>
<g id="a_node7"><a xlink:href="../../df/d03/a00348.html#aad126e022fc7ce5cf5ed1112655ba413" target="_top" xlink:title="Clone a SetExt. ">
<polygon fill="none" stroke="black" points="212,-175 212,-194 349,-194 349,-175 212,-175"/>
<text text-anchor="middle" x="280.5" y="-182" font-family="Helvetica,sans-Serif" font-size="10.00">nars.language.SetExt.clone</text>
</a>
</g>
</g>
<!-- Node416&#45;&gt;Node422 -->
<g id="edge6" class="edge"><title>Node416&#45;&gt;Node422</title>
<path fill="none" stroke="midnightblue" d="M177.342,-194.454C188.931,-193.325 200.608,-192.187 211.715,-191.105"/>
<polygon fill="midnightblue" stroke="midnightblue" points="176.811,-190.989 167.198,-195.442 177.49,-197.956 176.811,-190.989"/>
</g>
<!-- Node423 -->
<g id="node8" class="node"><title>Node423</title>
<g id="a_node8"><a xlink:href="../../d7/df2/a00312.html#a926536f74b2950c52901d5299f06c019" target="_top" xlink:title="Clone an object. ">
<polygon fill="none" stroke="black" points="208,-137 208,-156 353,-156 353,-137 208,-137"/>
<text text-anchor="middle" x="280.5" y="-144" font-family="Helvetica,sans-Serif" font-size="10.00">nars.language.ImageInt.clone</text>
</a>
</g>
</g>
<!-- Node416&#45;&gt;Node423 -->
<g id="edge7" class="edge"><title>Node416&#45;&gt;Node423</title>
<path fill="none" stroke="midnightblue" d="M138.639,-185.299C158.759,-178.757 181.836,-171.514 203,-165.5 214.584,-162.208 227.243,-158.934 238.87,-156.055"/>
<polygon fill="midnightblue" stroke="midnightblue" points="137.437,-182.009 129.021,-188.445 139.613,-188.662 137.437,-182.009"/>
</g>
<!-- Node424 -->
<g id="node9" class="node"><title>Node424</title>
<g id="a_node9"><a xlink:href="../../d5/d0f/a00308.html#ac5fdab0792feb897ec29059f1f7f4b03" target="_top" xlink:title="Clone an object. ">
<polygon fill="none" stroke="black" points="206,-99 206,-118 355,-118 355,-99 206,-99"/>
<text text-anchor="middle" x="280.5" y="-106" font-family="Helvetica,sans-Serif" font-size="10.00">nars.language.ImageExt.clone</text>
</a>
</g>
</g>
<!-- Node416&#45;&gt;Node424 -->
<g id="edge8" class="edge"><title>Node416&#45;&gt;Node424</title>
<path fill="none" stroke="midnightblue" d="M111.787,-182.31C134.915,-165.283 169.563,-141.908 203,-127.5 211.797,-123.709 221.503,-120.571 230.963,-118.012"/>
<polygon fill="midnightblue" stroke="midnightblue" points="109.428,-179.703 103.513,-188.493 113.619,-185.31 109.428,-179.703"/>
</g>
<!-- Node425 -->
<g id="node10" class="node"><title>Node425</title>
<g id="a_node10"><a xlink:href="../../dc/d50/a00332.html#a5c2757b00686a1acba089247e49a3aa9" target="_top" xlink:title="nars.language.Intersection\lInt.doCLone">
<polygon fill="none" stroke="black" points="215,-49.5 215,-79.5 346,-79.5 346,-49.5 215,-49.5"/>
<text text-anchor="start" x="223" y="-67.5" font-family="Helvetica,sans-Serif" font-size="10.00">nars.language.Intersection</text>
<text text-anchor="middle" x="280.5" y="-56.5" font-family="Helvetica,sans-Serif" font-size="10.00">Int.doCLone</text>
</a>
</g>
</g>
<!-- Node416&#45;&gt;Node425 -->
<g id="edge9" class="edge"><title>Node416&#45;&gt;Node425</title>
<path fill="none" stroke="midnightblue" d="M102.716,-180.616C124.187,-155.05 162.149,-114.04 203,-89.5 209.348,-85.6866 216.347,-82.3806 223.454,-79.5354"/>
<polygon fill="midnightblue" stroke="midnightblue" points="100.012,-178.394 96.342,-188.333 105.409,-182.852 100.012,-178.394"/>
</g>
<!-- Node427 -->
<g id="node12" class="node"><title>Node427</title>
<g id="a_node12"><a xlink:href="../../d4/db5/a00328.html#a5b160c9cf49969742e7ce93c5be32600" target="_top" xlink:title="nars.language.Intersection\lExt.doCLone">
<polygon fill="none" stroke="black" points="215,-0.5 215,-30.5 346,-30.5 346,-0.5 215,-0.5"/>
<text text-anchor="start" x="223" y="-18.5" font-family="Helvetica,sans-Serif" font-size="10.00">nars.language.Intersection</text>
<text text-anchor="middle" x="280.5" y="-7.5" font-family="Helvetica,sans-Serif" font-size="10.00">Ext.doCLone</text>
</a>
</g>
</g>
<!-- Node416&#45;&gt;Node427 -->
<g id="edge11" class="edge"><title>Node416&#45;&gt;Node427</title>
<path fill="none" stroke="midnightblue" d="M95.777,-179.083C113.548,-143.254 151.426,-76.6738 203,-39.5 207.743,-36.0816 212.988,-33.1388 218.444,-30.6077"/>
<polygon fill="midnightblue" stroke="midnightblue" points="92.5109,-177.797 91.3032,-188.323 98.8113,-180.847 92.5109,-177.797"/>
</g>
<!-- Node426 -->
<g id="node11" class="node"><title>Node426</title>
<g id="a_node11"><a xlink:href="../../dc/d50/a00332.html#a6f20109d61f2aa3afc159873cd36d7c3" target="_top" xlink:title="Clone an object. ">
<polygon fill="none" stroke="black" points="394,-49.5 394,-79.5 525,-79.5 525,-49.5 394,-49.5"/>
<text text-anchor="start" x="402" y="-67.5" font-family="Helvetica,sans-Serif" font-size="10.00">nars.language.Intersection</text>
<text text-anchor="middle" x="459.5" y="-56.5" font-family="Helvetica,sans-Serif" font-size="10.00">Int.clone</text>
</a>
</g>
</g>
<!-- Node425&#45;&gt;Node426 -->
<g id="edge10" class="edge"><title>Node425&#45;&gt;Node426</title>
<path fill="none" stroke="midnightblue" d="M356.457,-64.5C368.852,-64.5 381.609,-64.5 393.727,-64.5"/>
<polygon fill="midnightblue" stroke="midnightblue" points="356.152,-61.0001 346.152,-64.5 356.152,-68.0001 356.152,-61.0001"/>
</g>
<!-- Node428 -->
<g id="node13" class="node"><title>Node428</title>
<g id="a_node13"><a xlink:href="../../d4/db5/a00328.html#af5972d508155a133710574b3fc58e1d9" target="_top" xlink:title="Clone an object. ">
<polygon fill="none" stroke="black" points="394,-0.5 394,-30.5 525,-30.5 525,-0.5 394,-0.5"/>
<text text-anchor="start" x="402" y="-18.5" font-family="Helvetica,sans-Serif" font-size="10.00">nars.language.Intersection</text>
<text text-anchor="middle" x="459.5" y="-7.5" font-family="Helvetica,sans-Serif" font-size="10.00">Ext.clone</text>
</a>
</g>
</g>
<!-- Node427&#45;&gt;Node428 -->
<g id="edge12" class="edge"><title>Node427&#45;&gt;Node428</title>
<path fill="none" stroke="midnightblue" d="M356.457,-15.5C368.852,-15.5 381.609,-15.5 393.727,-15.5"/>
<polygon fill="midnightblue" stroke="midnightblue" points="356.152,-12.0001 346.152,-15.5 356.152,-19.0001 356.152,-12.0001"/>
</g>
</g>
</svg>
