<?xml version="1.0" encoding="UTF-8" standalone="no"?>
<!DOCTYPE svg PUBLIC "-//W3C//DTD SVG 1.1//EN"
 "http://www.w3.org/Graphics/SVG/1.1/DTD/svg11.dtd">
<!-- Generated by graphviz version 2.38.0 (20140413.2041)
 -->
<!-- Title: nars.language.CompoundTerm.setComponent Pages: 1 -->
<!--zoomable 165 -->
<svg id="main" version="1.1" xmlns="http://www.w3.org/2000/svg" xmlns:xlink="http://www.w3.org/1999/xlink" xml:space="preserve" onload="init(evt)">
<style type="text/css"><![CDATA[
.edge:hover path { stroke: red; }
.edge:hover polygon { stroke: red; fill: red; }
]]></style>
<script type="text/javascript"><![CDATA[
var edges = document.getElementsByTagName('g');
if (edges && edges.length) {
  for (var i=0;i<edges.length;i++) {
    if (edges[i].id.substr(0,4)=='edge') {
      edges[i].setAttribute('class','edge');
    }
  }
}
]]></script>
        <defs>
                <circle id="rim" cx="0" cy="0" r="7"/>
                <circle id="rim2" cx="0" cy="0" r="3.5"/>
                <g id="zoomPlus">
                        <use xlink:href="#rim" fill="#404040">
                                <set attributeName="fill" to="#808080" begin="zoomplus.mouseover" end="zoomplus.mouseout"/>
                        </use>
                        <path d="M-4,0h8M0,-4v8" fill="none" stroke="white" stroke-width="1.5" pointer-events="none"/>
                </g>
                <g id="zoomMin">
                        <use xlink:href="#rim" fill="#404040">
                                <set attributeName="fill" to="#808080" begin="zoomminus.mouseover" end="zoomminus.mouseout"/>
                        </use>
                        <path d="M-4,0h8" fill="none" stroke="white" stroke-width="1.5" pointer-events="none"/>
                </g>
                <g id="dirArrow">
                        <path fill="none" stroke="white" stroke-width="1.5" d="M0,-3.0v7 M-2.5,-0.5L0,-3.0L2.5,-0.5"/>
                </g>
               <g id="resetDef">
                       <use xlink:href="#rim2" fill="#404040">
                               <set attributeName="fill" to="#808080" begin="reset.mouseover" end="reset.mouseout"/>
                       </use>
               </g>
        </defs>

<script type="text/javascript">
var viewWidth = 828;
var viewHeight = 165;
var sectionId = 'dynsection-41';
</script>
<script xlink:href="../../svgpan.js"/>
<svg id="graph" class="graph">
<g id="viewport">
<title>nars.language.CompoundTerm.setComponent</title>
<!-- Node807 -->
<g id="node1" class="node"><title>Node807</title>
<polygon fill="#bfbfbf" stroke="black" points="0,-77 0,-107 167,-107 167,-77 0,-77"/>
<text text-anchor="start" x="8" y="-95" font-family="Helvetica,sans-Serif" font-size="10.00">nars.language.CompoundTerm.set</text>
<text text-anchor="middle" x="83.5" y="-84" font-family="Helvetica,sans-Serif" font-size="10.00">Component</text>
</g>
<!-- Node808 -->
<g id="node2" class="node"><title>Node808</title>
<g id="a_node2"><a xlink:href="../../d8/d17/a00304.html#a5a2d25a17f77d898268e1637a3aa9c4d" target="_top" xlink:title="Clone the component list. ">
<polygon fill="none" stroke="black" points="203.5,-126 203.5,-156 379.5,-156 379.5,-126 203.5,-126"/>
<text text-anchor="start" x="211.5" y="-144" font-family="Helvetica,sans-Serif" font-size="10.00">nars.language.CompoundTerm.clone</text>
<text text-anchor="middle" x="291.5" y="-133" font-family="Helvetica,sans-Serif" font-size="10.00">Components</text>
</a>
</g>
</g>
<!-- Node807&#45;&gt;Node808 -->
<g id="edge1" class="edge"><title>Node807&#45;&gt;Node808</title>
<path fill="none" stroke="midnightblue" d="M147.707,-107.035C169.754,-112.279 194.676,-118.207 217.456,-123.626"/>
<polygon fill="midnightblue" stroke="midnightblue" points="216.874,-127.085 227.413,-125.994 218.494,-120.275 216.874,-127.085"/>
</g>
<!-- Node811 -->
<g id="node5" class="node"><title>Node811</title>
<g id="a_node5"><a xlink:href="../../d8/d17/a00304.html#a89000afae8017231889aaa549292d1e0" target="_top" xlink:title="Default constructor. ">
<polygon fill="none" stroke="black" points="215,-77 215,-107 368,-107 368,-77 215,-77"/>
<text text-anchor="start" x="223" y="-95" font-family="Helvetica,sans-Serif" font-size="10.00">nars.language.CompoundTerm.</text>
<text text-anchor="middle" x="291.5" y="-84" font-family="Helvetica,sans-Serif" font-size="10.00">CompoundTerm</text>
</a>
</g>
</g>
<!-- Node807&#45;&gt;Node811 -->
<g id="edge4" class="edge"><title>Node807&#45;&gt;Node811</title>
<path fill="none" stroke="midnightblue" d="M167.101,-92C179.431,-92 192.168,-92 204.565,-92"/>
<polygon fill="midnightblue" stroke="midnightblue" points="204.883,-95.5001 214.883,-92 204.883,-88.5001 204.883,-95.5001"/>
</g>
<!-- Node812 -->
<g id="node6" class="node"><title>Node812</title>
<g id="a_node6"><a xlink:href="../../d8/d17/a00304.html#ac5f82b4dd2c0f4aa60e1e97600526d21" target="_top" xlink:title="Try to make a compound term from a template and a list of components. ">
<polygon fill="none" stroke="black" points="203,-38.5 203,-57.5 380,-57.5 380,-38.5 203,-38.5"/>
<text text-anchor="middle" x="291.5" y="-45.5" font-family="Helvetica,sans-Serif" font-size="10.00">nars.language.CompoundTerm.make</text>
</a>
</g>
</g>
<!-- Node807&#45;&gt;Node812 -->
<g id="edge5" class="edge"><title>Node807&#45;&gt;Node812</title>
<path fill="none" stroke="midnightblue" d="M154.817,-76.9808C181.35,-71.3136 211.11,-64.9571 235.983,-59.6444"/>
<polygon fill="midnightblue" stroke="midnightblue" points="236.916,-63.0241 245.965,-57.5124 235.454,-56.1785 236.916,-63.0241"/>
</g>
<!-- Node809 -->
<g id="node3" class="node"><title>Node809</title>
<g id="a_node3"><a xlink:href="../../d8/d17/a00304.html#a9cb7736a3f6b220d75366ab146488773" target="_top" xlink:title="Deep clone an array list of terms. ">
<polygon fill="none" stroke="black" points="416,-131.5 416,-150.5 608,-150.5 608,-131.5 416,-131.5"/>
<text text-anchor="middle" x="512" y="-138.5" font-family="Helvetica,sans-Serif" font-size="10.00">nars.language.CompoundTerm.cloneList</text>
</a>
</g>
</g>
<!-- Node808&#45;&gt;Node809 -->
<g id="edge2" class="edge"><title>Node808&#45;&gt;Node809</title>
<path fill="none" stroke="midnightblue" d="M379.799,-141C388.343,-141 397.073,-141 405.77,-141"/>
<polygon fill="midnightblue" stroke="midnightblue" points="405.95,-144.5 415.95,-141 405.95,-137.5 405.95,-144.5"/>
</g>
<!-- Node810 -->
<g id="node4" class="node"><title>Node810</title>
<g id="a_node4"><a xlink:href="../../d8/d17/a00304.html#a963e8aef1163f4ed8c364b5e448deaff" target="_top" xlink:title="Abstract clone method. ">
<polygon fill="none" stroke="black" points="644,-131.5 644,-150.5 820,-150.5 820,-131.5 644,-131.5"/>
<text text-anchor="middle" x="732" y="-138.5" font-family="Helvetica,sans-Serif" font-size="10.00">nars.language.CompoundTerm.clone</text>
</a>
</g>
</g>
<!-- Node809&#45;&gt;Node810 -->
<g id="edge3" class="edge"><title>Node809&#45;&gt;Node810</title>
<path fill="none" stroke="midnightblue" d="M608.301,-141C616.69,-141 625.19,-141 633.597,-141"/>
<polygon fill="midnightblue" stroke="midnightblue" points="633.791,-144.5 643.791,-141 633.791,-137.5 633.791,-144.5"/>
</g>
<!-- Node813 -->
<g id="node7" class="node"><title>Node813</title>
<g id="a_node7"><a xlink:href="../../d5/d0f/a00308.html#afb24af5cc6c098ad3f5d837fa383e69c" target="_top" xlink:title="Try to make a new ImageExt. ">
<polygon fill="none" stroke="black" points="437.5,-76.5 437.5,-95.5 586.5,-95.5 586.5,-76.5 437.5,-76.5"/>
<text text-anchor="middle" x="512" y="-83.5" font-family="Helvetica,sans-Serif" font-size="10.00">nars.language.ImageExt.make</text>
</a>
</g>
</g>
<!-- Node812&#45;&gt;Node813 -->
<g id="edge6" class="edge"><title>Node812&#45;&gt;Node813</title>
<path fill="none" stroke="midnightblue" d="M347.355,-57.54C377.355,-62.7574 414.702,-69.2525 446.14,-74.72"/>
<polygon fill="midnightblue" stroke="midnightblue" points="445.671,-78.1909 456.123,-76.4561 446.87,-71.2944 445.671,-78.1909"/>
</g>
<!-- Node814 -->
<g id="node8" class="node"><title>Node814</title>
<g id="a_node8"><a xlink:href="../../d7/df2/a00312.html#ad05e4231ed31d78ad4c8b4fefbc964fa" target="_top" xlink:title="Try to make a new ImageExt. ">
<polygon fill="none" stroke="black" points="439,-38.5 439,-57.5 585,-57.5 585,-38.5 439,-38.5"/>
<text text-anchor="middle" x="512" y="-45.5" font-family="Helvetica,sans-Serif" font-size="10.00">nars.language.ImageInt.make</text>
</a>
</g>
</g>
<!-- Node812&#45;&gt;Node814 -->
<g id="edge7" class="edge"><title>Node812&#45;&gt;Node814</title>
<path fill="none" stroke="midnightblue" d="M380.113,-48C396.086,-48 412.701,-48 428.519,-48"/>
<polygon fill="midnightblue" stroke="midnightblue" points="428.783,-51.5001 438.783,-48 428.783,-44.5001 428.783,-51.5001"/>
</g>
<!-- Node815 -->
<g id="node9" class="node"><title>Node815</title>
<g id="a_node9"><a xlink:href="../../d8/d17/a00304.html#a786848bcf438b17b9aa566b9b0c04e5f" target="_top" xlink:title="Abstract method to get the operator of the compound. ">
<polygon fill="none" stroke="black" points="418,-0.5 418,-19.5 606,-19.5 606,-0.5 418,-0.5"/>
<text text-anchor="middle" x="512" y="-7.5" font-family="Helvetica,sans-Serif" font-size="10.00">nars.language.CompoundTerm.operator</text>
</a>
</g>
</g>
<!-- Node812&#45;&gt;Node815 -->
<g id="edge8" class="edge"><title>Node812&#45;&gt;Node815</title>
<path fill="none" stroke="midnightblue" d="M347.355,-38.46C377.355,-33.2426 414.702,-26.7475 446.14,-21.28"/>
<polygon fill="midnightblue" stroke="midnightblue" points="446.87,-24.7056 456.123,-19.5439 445.671,-17.8091 446.87,-24.7056"/>
</g>
</g>
</svg>
        <g id="navigator" transform="translate(0 0)" fill="#404254">
                <rect fill="#f2f5e9" fill-opacity="0.5" stroke="#606060" stroke-width=".5" x="0" y="0" width="60" height="60"/>
                <use id="zoomplus" xlink:href="#zoomPlus" x="17" y="9" onmousedown="handleZoom(evt,'in')"/>
                <use id="zoomminus" xlink:href="#zoomMin" x="42" y="9" onmousedown="handleZoom(evt,'out')"/>
                <use id="reset" xlink:href="#resetDef" x="30" y="36" onmousedown="handleReset()"/>
                <g id="arrowUp" xlink:href="#dirArrow" transform="translate(30 24)" onmousedown="handlePan(0,-1)">
                  <use xlink:href="#rim" fill="#404040">
                        <set attributeName="fill" to="#808080" begin="arrowUp.mouseover" end="arrowUp.mouseout"/>
                  </use>
                  <path fill="none" stroke="white" stroke-width="1.5" d="M0,-3.0v7 M-2.5,-0.5L0,-3.0L2.5,-0.5"/>
                </g>
                <g id="arrowRight" xlink:href="#dirArrow" transform="rotate(90) translate(36 -43)" onmousedown="handlePan(1,0)">
                  <use xlink:href="#rim" fill="#404040">
                        <set attributeName="fill" to="#808080" begin="arrowRight.mouseover" end="arrowRight.mouseout"/>
                  </use>
                  <path fill="none" stroke="white" stroke-width="1.5" d="M0,-3.0v7 M-2.5,-0.5L0,-3.0L2.5,-0.5"/>
                </g>
                <g id="arrowDown" xlink:href="#dirArrow" transform="rotate(180) translate(-30 -48)" onmousedown="handlePan(0,1)">
                  <use xlink:href="#rim" fill="#404040">
                        <set attributeName="fill" to="#808080" begin="arrowDown.mouseover" end="arrowDown.mouseout"/>
                  </use>
                  <path fill="none" stroke="white" stroke-width="1.5" d="M0,-3.0v7 M-2.5,-0.5L0,-3.0L2.5,-0.5"/>
                </g>
                <g id="arrowLeft" xlink:href="#dirArrow" transform="rotate(270) translate(-36 17)" onmousedown="handlePan(-1,0)">
                  <use xlink:href="#rim" fill="#404040">
                        <set attributeName="fill" to="#808080" begin="arrowLeft.mouseover" end="arrowLeft.mouseout"/>
                  </use>
                  <path fill="none" stroke="white" stroke-width="1.5" d="M0,-3.0v7 M-2.5,-0.5L0,-3.0L2.5,-0.5"/>
                </g>
        </g>
        <svg viewBox="0 0 15 15" width="100%" height="30px" preserveAspectRatio="xMaxYMin meet">
         <g id="arrow_out" transform="scale(0.3 0.3)">
          <a xlink:href="a00304_a623c88183d85bd42464640937ea8ccb5_cgraph_org.svg" target="_base">
           <rect id="button" ry="5" rx="5" y="6" x="6" height="38" width="38"
                fill="#f2f5e9" fill-opacity="0.5" stroke="#606060" stroke-width="1.0"/>
           <path id="arrow"
             d="M 11.500037,31.436501 C 11.940474,20.09759 22.043105,11.32322 32.158766,21.979434 L 37.068811,17.246167 C 37.068811,17.246167 37.088388,32 37.088388,32 L 22.160133,31.978069 C 22.160133,31.978069 26.997745,27.140456 26.997745,27.140456 C 18.528582,18.264221 13.291696,25.230495 11.500037,31.436501 z"
             style="fill:#404040;"/>
          </a>
         </g>
        </svg>
</svg>
