<?xml version="1.0" encoding="UTF-8" standalone="no"?>
<!DOCTYPE svg PUBLIC "-//W3C//DTD SVG 1.1//EN"
 "http://www.w3.org/Graphics/SVG/1.1/DTD/svg11.dtd">
<!-- Generated by graphviz version 2.38.0 (20140413.2041)
 -->
<!-- Title: nars.language.CompoundTerm.cloneComponents Pages: 1 -->
<!--zoomable 553 -->
<svg id="main" version="1.1" xmlns="http://www.w3.org/2000/svg" xmlns:xlink="http://www.w3.org/1999/xlink" xml:space="preserve" onload="init(evt)">
<style type="text/css"><![CDATA[
.edge:hover path { stroke: red; }
.edge:hover polygon { stroke: red; fill: red; }
]]></style>
<script type="text/javascript"><![CDATA[
var edges = document.getElementsByTagName('g');
if (edges && edges.length) {
  for (var i=0;i<edges.length;i++) {
    if (edges[i].id.substr(0,4)=='edge') {
      edges[i].setAttribute('class','edge');
    }
  }
}
]]></script>
        <defs>
                <circle id="rim" cx="0" cy="0" r="7"/>
                <circle id="rim2" cx="0" cy="0" r="3.5"/>
                <g id="zoomPlus">
                        <use xlink:href="#rim" fill="#404040">
                                <set attributeName="fill" to="#808080" begin="zoomplus.mouseover" end="zoomplus.mouseout"/>
                        </use>
                        <path d="M-4,0h8M0,-4v8" fill="none" stroke="white" stroke-width="1.5" pointer-events="none"/>
                </g>
                <g id="zoomMin">
                        <use xlink:href="#rim" fill="#404040">
                                <set attributeName="fill" to="#808080" begin="zoomminus.mouseover" end="zoomminus.mouseout"/>
                        </use>
                        <path d="M-4,0h8" fill="none" stroke="white" stroke-width="1.5" pointer-events="none"/>
                </g>
                <g id="dirArrow">
                        <path fill="none" stroke="white" stroke-width="1.5" d="M0,-3.0v7 M-2.5,-0.5L0,-3.0L2.5,-0.5"/>
                </g>
               <g id="resetDef">
                       <use xlink:href="#rim2" fill="#404040">
                               <set attributeName="fill" to="#808080" begin="reset.mouseover" end="reset.mouseout"/>
                       </use>
               </g>
        </defs>

<script type="text/javascript">
var viewWidth = 2996;
var viewHeight = 553;
var sectionId = 'dynsection-14';
</script>
<script xlink:href="../../svgpan.js"/>
<svg id="graph" class="graph">
<g id="viewport">
<title>nars.language.CompoundTerm.cloneComponents</title>
<!-- Node264 -->
<g id="node1" class="node"><title>Node264</title>
<polygon fill="#bfbfbf" stroke="black" points="0,-280.5 0,-310.5 176,-310.5 176,-280.5 0,-280.5"/>
<text text-anchor="start" x="8" y="-298.5" font-family="Helvetica,sans-Serif" font-size="10.00">nars.language.CompoundTerm.clone</text>
<text text-anchor="middle" x="88" y="-287.5" font-family="Helvetica,sans-Serif" font-size="10.00">Components</text>
</g>
<!-- Node265 -->
<g id="node2" class="node"><title>Node265</title>
<g id="a_node2"><a xlink:href="../../d8/d17/a00304.html#afa61c8aa9aac1ad79977ca20c2922cd7" target="_top" xlink:title="Try to add a component into a compound. ">
<polygon fill="none" stroke="black" points="218.5,-484.5 218.5,-514.5 387.5,-514.5 387.5,-484.5 218.5,-484.5"/>
<text text-anchor="start" x="226.5" y="-502.5" font-family="Helvetica,sans-Serif" font-size="10.00">nars.language.CompoundTerm.add</text>
<text text-anchor="middle" x="303" y="-491.5" font-family="Helvetica,sans-Serif" font-size="10.00">Components</text>
</a>
</g>
</g>
<!-- Node264&#45;&gt;Node265 -->
<g id="edge1" class="edge"><title>Node264&#45;&gt;Node265</title>
<path fill="none" stroke="midnightblue" d="M98.8462,-319.791C115.911,-358.759 154.735,-434.965 212,-475.5 216.884,-478.957 222.236,-481.916 227.819,-484.449"/>
<polygon fill="midnightblue" stroke="midnightblue" points="102.03,-318.334 94.8865,-310.509 95.5912,-321.081 102.03,-318.334"/>
</g>
<!-- Node266 -->
<g id="node3" class="node"><title>Node266</title>
<g id="a_node3"><a xlink:href="../../d4/db5/a00328.html#a84dcdd3c63e7219e8c3da43e163f2d78" target="_top" xlink:title="Try to make a new compound from two components. ">
<polygon fill="none" stroke="black" points="237.5,-435.5 237.5,-465.5 368.5,-465.5 368.5,-435.5 237.5,-435.5"/>
<text text-anchor="start" x="245.5" y="-453.5" font-family="Helvetica,sans-Serif" font-size="10.00">nars.language.Intersection</text>
<text text-anchor="middle" x="303" y="-442.5" font-family="Helvetica,sans-Serif" font-size="10.00">Ext.make</text>
</a>
</g>
</g>
<!-- Node264&#45;&gt;Node266 -->
<g id="edge2" class="edge"><title>Node264&#45;&gt;Node266</title>
<path fill="none" stroke="midnightblue" d="M105.357,-318.78C126.702,-347.478 166.714,-395.836 212,-423.5 219.796,-428.262 228.487,-432.233 237.31,-435.531"/>
<polygon fill="midnightblue" stroke="midnightblue" points="108.071,-316.561 99.3468,-310.55 102.418,-320.69 108.071,-316.561"/>
</g>
<!-- Node281 -->
<g id="node18" class="node"><title>Node281</title>
<g id="a_node18"><a xlink:href="../../dc/d50/a00332.html#acc3bb6e31a10d204254e827435391988" target="_top" xlink:title="Try to make a new compound from two components. ">
<polygon fill="none" stroke="black" points="237.5,-384.5 237.5,-414.5 368.5,-414.5 368.5,-384.5 237.5,-384.5"/>
<text text-anchor="start" x="245.5" y="-402.5" font-family="Helvetica,sans-Serif" font-size="10.00">nars.language.Intersection</text>
<text text-anchor="middle" x="303" y="-391.5" font-family="Helvetica,sans-Serif" font-size="10.00">Int.make</text>
</a>
</g>
</g>
<!-- Node264&#45;&gt;Node281 -->
<g id="edge17" class="edge"><title>Node264&#45;&gt;Node281</title>
<path fill="none" stroke="midnightblue" d="M118.23,-316.494C142.441,-333.15 178.229,-356.112 212,-371.5 222.721,-376.385 234.531,-380.737 245.969,-384.47"/>
<polygon fill="midnightblue" stroke="midnightblue" points="120.066,-313.508 109.858,-310.669 116.067,-319.254 120.066,-313.508"/>
</g>
<!-- Node283 -->
<g id="node20" class="node"><title>Node283</title>
<g id="a_node20"><a xlink:href="../../df/df1/a00340.html#a03b4b8cac0b36273fac8e5413743cd27" target="_top" xlink:title="Try to make a Product from an ImageExt/ImageInt and a component. ">
<polygon fill="none" stroke="black" points="232.5,-343 232.5,-362 373.5,-362 373.5,-343 232.5,-343"/>
<text text-anchor="middle" x="303" y="-350" font-family="Helvetica,sans-Serif" font-size="10.00">nars.language.Product.make</text>
</a>
</g>
</g>
<!-- Node264&#45;&gt;Node283 -->
<g id="edge21" class="edge"><title>Node264&#45;&gt;Node283</title>
<path fill="none" stroke="midnightblue" d="M144.047,-313.686C165.174,-320.354 189.589,-327.686 212,-333.5 225.139,-336.909 239.475,-340.149 252.764,-342.956"/>
<polygon fill="midnightblue" stroke="midnightblue" points="144.868,-310.274 134.278,-310.576 142.745,-316.945 144.868,-310.274"/>
</g>
<!-- Node284 -->
<g id="node21" class="node"><title>Node284</title>
<g id="a_node21"><a xlink:href="../../d5/d0f/a00308.html#a0d4966b407a6f04f145e1ee66f2a0fef" target="_top" xlink:title="Try to make an Image from a Product and a relation. ">
<polygon fill="none" stroke="black" points="228.5,-305 228.5,-324 377.5,-324 377.5,-305 228.5,-305"/>
<text text-anchor="middle" x="303" y="-312" font-family="Helvetica,sans-Serif" font-size="10.00">nars.language.ImageExt.make</text>
</a>
</g>
</g>
<!-- Node264&#45;&gt;Node284 -->
<g id="edge22" class="edge"><title>Node264&#45;&gt;Node284</title>
<path fill="none" stroke="midnightblue" d="M186.481,-304.195C200.603,-305.455 214.939,-306.734 228.484,-307.942"/>
<polygon fill="midnightblue" stroke="midnightblue" points="186.521,-300.685 176.25,-303.283 185.899,-307.658 186.521,-300.685"/>
</g>
<!-- Node285 -->
<g id="node22" class="node"><title>Node285</title>
<g id="a_node22"><a xlink:href="../../d7/df2/a00312.html#a38af29d97d64d3ef244139d1883c9967" target="_top" xlink:title="Try to make an Image from a Product and a relation. ">
<polygon fill="none" stroke="black" points="230,-267 230,-286 376,-286 376,-267 230,-267"/>
<text text-anchor="middle" x="303" y="-274" font-family="Helvetica,sans-Serif" font-size="10.00">nars.language.ImageInt.make</text>
</a>
</g>
</g>
<!-- Node264&#45;&gt;Node285 -->
<g id="edge23" class="edge"><title>Node264&#45;&gt;Node285</title>
<path fill="none" stroke="midnightblue" d="M186.331,-286.818C200.967,-285.512 215.835,-284.186 229.819,-282.939"/>
<polygon fill="midnightblue" stroke="midnightblue" points="185.899,-283.342 176.25,-287.717 186.521,-290.315 185.899,-283.342"/>
</g>
<!-- Node286 -->
<g id="node23" class="node"><title>Node286</title>
<g id="a_node23"><a xlink:href="../../d8/d17/a00304.html#a09c88a408c16b985b0db4bc602a170aa" target="_top" xlink:title="Try to remove a component from a compound. ">
<polygon fill="none" stroke="black" points="212,-217.5 212,-247.5 394,-247.5 394,-217.5 212,-217.5"/>
<text text-anchor="start" x="220" y="-235.5" font-family="Helvetica,sans-Serif" font-size="10.00">nars.language.CompoundTerm.reduce</text>
<text text-anchor="middle" x="303" y="-224.5" font-family="Helvetica,sans-Serif" font-size="10.00">Components</text>
</a>
</g>
</g>
<!-- Node264&#45;&gt;Node286 -->
<g id="edge24" class="edge"><title>Node264&#45;&gt;Node286</title>
<path fill="none" stroke="midnightblue" d="M146.112,-277.482C166.825,-271.047 190.431,-263.826 212,-257.5 223.204,-254.214 235.225,-250.799 246.717,-247.587"/>
<polygon fill="midnightblue" stroke="midnightblue" points="145.015,-274.158 136.508,-280.474 147.097,-280.841 145.015,-274.158"/>
</g>
<!-- Node294 -->
<g id="node31" class="node"><title>Node294</title>
<g id="a_node31"><a xlink:href="../../d8/d17/a00304.html#a623c88183d85bd42464640937ea8ccb5" target="_top" xlink:title="Try to replace a component in a compound at a given index by another one. ">
<polygon fill="none" stroke="black" points="665,-74.5 665,-104.5 832,-104.5 832,-74.5 665,-74.5"/>
<text text-anchor="start" x="673" y="-92.5" font-family="Helvetica,sans-Serif" font-size="10.00">nars.language.CompoundTerm.set</text>
<text text-anchor="middle" x="748.5" y="-81.5" font-family="Helvetica,sans-Serif" font-size="10.00">Component</text>
</a>
</g>
</g>
<!-- Node264&#45;&gt;Node294 -->
<g id="edge37" class="edge"><title>Node264&#45;&gt;Node294</title>
<path fill="none" stroke="midnightblue" d="M102.278,-271.089C121.717,-237.862 161.197,-179.151 212,-149.5 354.202,-66.5065 553.984,-69.2697 664.96,-79.1015"/>
<polygon fill="midnightblue" stroke="midnightblue" points="99.0338,-269.711 97.1151,-280.131 105.113,-273.182 99.0338,-269.711"/>
</g>
<!-- Node298 -->
<g id="node35" class="node"><title>Node298</title>
<g id="a_node35"><a xlink:href="../../d0/def/a00256.html#ab3d78c70d8e8086fdabdc52a343cc416" target="_top" xlink:title="{&lt;S &#45;&#45;&gt; P&gt;, S@(S&amp;T)} |&#45; &lt;(S&amp;T) &#45;&#45;&gt; (P&amp;T)&gt; {&lt;S &#45;&#45;&gt; P&gt;, S@(M&#45;S)} |&#45; &lt;(M&#45;P) &#45;&#45;&gt; (M&#45;S)&gt; ...">
<polygon fill="none" stroke="black" points="455.5,-118.5 455.5,-148.5 588.5,-148.5 588.5,-118.5 455.5,-118.5"/>
<text text-anchor="start" x="463.5" y="-136.5" font-family="Helvetica,sans-Serif" font-size="10.00">nars.inference.Structural</text>
<text text-anchor="middle" x="522" y="-125.5" font-family="Helvetica,sans-Serif" font-size="10.00">Rules.structuralCompose2</text>
</a>
</g>
</g>
<!-- Node264&#45;&gt;Node298 -->
<g id="edge44" class="edge"><title>Node264&#45;&gt;Node298</title>
<path fill="none" stroke="midnightblue" d="M113.337,-273.699C136.951,-253.662 174.605,-224.561 212,-207.5 291.545,-171.208 391.041,-151.489 455.291,-141.733"/>
<polygon fill="midnightblue" stroke="midnightblue" points="110.883,-271.193 105.594,-280.374 115.454,-276.496 110.883,-271.193"/>
</g>
<!-- Node299 -->
<g id="node36" class="node"><title>Node299</title>
<g id="a_node36"><a xlink:href="../../d0/def/a00256.html#ab621fd6a291394ad962761cd0ae1ff08" target="_top" xlink:title="Equivalent transformation between products and images {&lt;(*, S, M) &#45;&#45;&gt; P&gt;, S@(*, S, M)} |&#45; &lt;S &#45;&#45;&gt; (/, P, _, M)&gt; {&lt;S &#45;&#45;&gt; (/, P, _, M)&gt;, P@(/, P, _, M)} |&#45; &lt;(*, S, M) &#45;&#45;&gt; P&gt; {&lt;S &#45;&#45;&gt; (/, P, _, M)&gt;, M@(/, P, _, M)} |&#45; &lt;M &#45;&#45;&gt; (/, P, S, _)&gt; ">
<polygon fill="none" stroke="black" points="1132.5,-0.5 1132.5,-30.5 1279.5,-30.5 1279.5,-0.5 1132.5,-0.5"/>
<text text-anchor="start" x="1140.5" y="-18.5" font-family="Helvetica,sans-Serif" font-size="10.00">nars.inference.Structural</text>
<text text-anchor="middle" x="1206" y="-7.5" font-family="Helvetica,sans-Serif" font-size="10.00">Rules.transformProductImage</text>
</a>
</g>
</g>
<!-- Node264&#45;&gt;Node299 -->
<g id="edge46" class="edge"><title>Node264&#45;&gt;Node299</title>
<path fill="none" stroke="midnightblue" d="M96.1399,-270.582C110.331,-225.79 146.503,-131.927 212,-84.5 325.743,-2.13801 380.569,-18.5 521,-18.5 521,-18.5 521,-18.5 749.5,-18.5 884.729,-18.5 1042.54,-17.1615 1132.42,-16.2726"/>
<polygon fill="midnightblue" stroke="midnightblue" points="92.7273,-269.773 93.147,-280.36 99.4207,-271.822 92.7273,-269.773"/>
</g>
<!-- Node267 -->
<g id="node4" class="node"><title>Node267</title>
<g id="a_node4"><a xlink:href="../../d6/d08/a00244.html#a53f7edf7bfe7433da42e8fcf36fd6604" target="_top" xlink:title="{&lt;S ==&gt; M&gt;, ">
<polygon fill="none" stroke="black" points="677,-350.5 677,-380.5 820,-380.5 820,-350.5 677,-350.5"/>
<text text-anchor="start" x="685" y="-368.5" font-family="Helvetica,sans-Serif" font-size="10.00">nars.inference.Compositional</text>
<text text-anchor="middle" x="748.5" y="-357.5" font-family="Helvetica,sans-Serif" font-size="10.00">Rules.composeCompound</text>
</a>
</g>
</g>
<!-- Node266&#45;&gt;Node267 -->
<g id="edge3" class="edge"><title>Node266&#45;&gt;Node267</title>
<path fill="none" stroke="midnightblue" d="M378.092,-466.985C383.664,-469.444 389.04,-472.265 394,-475.5 415.162,-489.305 407.167,-508.68 430,-519.5 503.9,-554.52 539.609,-553.464 614,-519.5 678.053,-490.256 723.193,-413.421 740.119,-380.655"/>
<polygon fill="midnightblue" stroke="midnightblue" points="379.152,-463.639 368.567,-463.179 376.554,-470.139 379.152,-463.639"/>
</g>
<!-- Node279 -->
<g id="node16" class="node"><title>Node279</title>
<g id="a_node16"><a xlink:href="../../d8/d17/a00304.html#a7e26be1958a40da052dbfed62ad4935b" target="_top" xlink:title="Try to make a compound term from an operator and a list of components. ">
<polygon fill="none" stroke="black" points="433.5,-441 433.5,-460 610.5,-460 610.5,-441 433.5,-441"/>
<text text-anchor="middle" x="522" y="-448" font-family="Helvetica,sans-Serif" font-size="10.00">nars.language.CompoundTerm.make</text>
</a>
</g>
</g>
<!-- Node266&#45;&gt;Node279 -->
<g id="edge15" class="edge"><title>Node266&#45;&gt;Node279</title>
<path fill="none" stroke="midnightblue" d="M378.727,-450.5C396.351,-450.5 415.295,-450.5 433.428,-450.5"/>
<polygon fill="midnightblue" stroke="midnightblue" points="378.52,-447 368.52,-450.5 378.52,-454 378.52,-447"/>
</g>
<!-- Node280 -->
<g id="node17" class="node"><title>Node280</title>
<g id="a_node17"><a xlink:href="../../d4/db5/a00328.html#a834a3550042061ee3bd0ae7456d5fb3d" target="_top" xlink:title="Try to make a new IntersectionExt. ">
<polygon fill="none" stroke="black" points="456.5,-479.5 456.5,-509.5 587.5,-509.5 587.5,-479.5 456.5,-479.5"/>
<text text-anchor="start" x="464.5" y="-497.5" font-family="Helvetica,sans-Serif" font-size="10.00">nars.language.Intersection</text>
<text text-anchor="middle" x="522" y="-486.5" font-family="Helvetica,sans-Serif" font-size="10.00">Ext.make</text>
</a>
</g>
</g>
<!-- Node266&#45;&gt;Node280 -->
<g id="edge16" class="edge"><title>Node266&#45;&gt;Node280</title>
<path fill="none" stroke="midnightblue" d="M378.446,-465.595C403.774,-470.731 431.857,-476.425 456.354,-481.392"/>
<polygon fill="midnightblue" stroke="midnightblue" points="379.016,-462.139 368.52,-463.582 377.625,-469 379.016,-462.139"/>
</g>
<!-- Node268 -->
<g id="node5" class="node"><title>Node268</title>
<g id="a_node5"><a xlink:href="../../dc/ded/a00252.html#a34927349efcf87db97d23c60983b115b" target="_top" xlink:title="Syllogistic rules whose both premises are on the same asymmetric relation. ">
<polygon fill="none" stroke="black" points="889,-296.5 889,-326.5 1074,-326.5 1074,-296.5 889,-296.5"/>
<text text-anchor="start" x="897" y="-314.5" font-family="Helvetica,sans-Serif" font-size="10.00">nars.inference.RuleTables.asymmetric</text>
<text text-anchor="middle" x="981.5" y="-303.5" font-family="Helvetica,sans-Serif" font-size="10.00">Asymmetric</text>
</a>
</g>
</g>
<!-- Node267&#45;&gt;Node268 -->
<g id="edge4" class="edge"><title>Node267&#45;&gt;Node268</title>
<path fill="none" stroke="midnightblue" d="M823.756,-348.141C853.492,-341.19 887.426,-333.258 916.098,-326.555"/>
<polygon fill="midnightblue" stroke="midnightblue" points="822.787,-344.774 813.846,-350.458 824.381,-351.59 822.787,-344.774"/>
</g>
<!-- Node269 -->
<g id="node6" class="node"><title>Node269</title>
<g id="a_node6"><a xlink:href="../../dc/ded/a00252.html#a8628d400a8ceda7fea05039ddfea319b" target="_top" xlink:title="Meta&#45;table of syllogistic rules, indexed by the content classes of the taskSentence and the belief...">
<polygon fill="none" stroke="black" points="1116,-302 1116,-321 1296,-321 1296,-302 1116,-302"/>
<text text-anchor="middle" x="1206" y="-309" font-family="Helvetica,sans-Serif" font-size="10.00">nars.inference.RuleTables.syllogisms</text>
</a>
</g>
</g>
<!-- Node268&#45;&gt;Node269 -->
<g id="edge5" class="edge"><title>Node268&#45;&gt;Node269</title>
<path fill="none" stroke="midnightblue" d="M1084.35,-311.5C1094.89,-311.5 1105.55,-311.5 1115.94,-311.5"/>
<polygon fill="midnightblue" stroke="midnightblue" points="1084.28,-308 1074.28,-311.5 1084.28,-315 1084.28,-308"/>
</g>
<!-- Node270 -->
<g id="node7" class="node"><title>Node270</title>
<g id="a_node7"><a xlink:href="../../dc/ded/a00252.html#ac2d01dfdc40bdd47c757cb549217e6e3" target="_top" xlink:title="Entry point of the inference engine. ">
<polygon fill="none" stroke="black" points="1349,-154 1349,-173 1512,-173 1512,-154 1349,-154"/>
<text text-anchor="middle" x="1430.5" y="-161" font-family="Helvetica,sans-Serif" font-size="10.00">nars.inference.RuleTables.reason</text>
</a>
</g>
</g>
<!-- Node269&#45;&gt;Node270 -->
<g id="edge6" class="edge"><title>Node269&#45;&gt;Node270</title>
<path fill="none" stroke="midnightblue" d="M1268.8,-299.039C1278.21,-295.959 1287.58,-292.163 1296,-287.5 1352.17,-256.379 1403.2,-196.643 1421.93,-173.242"/>
<polygon fill="midnightblue" stroke="midnightblue" points="1267.57,-295.753 1259.01,-301.995 1269.6,-302.454 1267.57,-295.753"/>
</g>
<!-- Node271 -->
<g id="node8" class="node"><title>Node271</title>
<g id="a_node8"><a xlink:href="../../d7/ded/a00196.html#ad6fb91dda799c3092ecb186ef24ca92a" target="_top" xlink:title="An atomic step in a concept, only called in Memory# processConcept. ">
<polygon fill="none" stroke="black" points="1565,-107.5 1565,-137.5 1684,-137.5 1684,-107.5 1565,-107.5"/>
<text text-anchor="start" x="1573" y="-125.5" font-family="Helvetica,sans-Serif" font-size="10.00">nars.entity.Concept.fire</text>
<text text-anchor="middle" x="1624.5" y="-114.5" font-family="Helvetica,sans-Serif" font-size="10.00">FromProcessConcept</text>
</a>
</g>
</g>
<!-- Node270&#45;&gt;Node271 -->
<g id="edge7" class="edge"><title>Node270&#45;&gt;Node271</title>
<path fill="none" stroke="midnightblue" d="M1485.91,-151.881C1510.49,-146.633 1539.57,-140.422 1564.65,-135.066"/>
<polygon fill="midnightblue" stroke="midnightblue" points="1485.08,-148.479 1476.03,-153.991 1486.54,-155.325 1485.08,-148.479"/>
</g>
<!-- Node272 -->
<g id="node9" class="node"><title>Node272</title>
<g id="a_node9"><a xlink:href="../../d4/d27/a00392.html#a0acc4adbf6a2462245da46bcb529746c" target="_top" xlink:title="Select a concept to fireFromProcessConcept. ">
<polygon fill="none" stroke="black" points="1720,-107.5 1720,-137.5 1866,-137.5 1866,-107.5 1720,-107.5"/>
<text text-anchor="start" x="1728" y="-125.5" font-family="Helvetica,sans-Serif" font-size="10.00">nars.storage.Memory.process</text>
<text text-anchor="middle" x="1793" y="-114.5" font-family="Helvetica,sans-Serif" font-size="10.00">Concept</text>
</a>
</g>
</g>
<!-- Node271&#45;&gt;Node272 -->
<g id="edge8" class="edge"><title>Node271&#45;&gt;Node272</title>
<path fill="none" stroke="midnightblue" d="M1694.34,-122.5C1702.75,-122.5 1711.36,-122.5 1719.82,-122.5"/>
<polygon fill="midnightblue" stroke="midnightblue" points="1694.2,-119 1684.2,-122.5 1694.2,-126 1694.2,-119"/>
</g>
<!-- Node273 -->
<g id="node10" class="node"><title>Node273</title>
<g id="a_node10"><a xlink:href="../../d4/d27/a00392.html#a59ae339d666409988d90d29be4f73a91" target="_top" xlink:title="An atomic working workCycle of the system: process new Tasks, then fireFromProcessConcept a concept...">
<polygon fill="none" stroke="black" points="1902,-107.5 1902,-137.5 2035,-137.5 2035,-107.5 1902,-107.5"/>
<text text-anchor="start" x="1910" y="-125.5" font-family="Helvetica,sans-Serif" font-size="10.00">nars.storage.Memory.work</text>
<text text-anchor="middle" x="1968.5" y="-114.5" font-family="Helvetica,sans-Serif" font-size="10.00">Cycle</text>
</a>
</g>
</g>
<!-- Node272&#45;&gt;Node273 -->
<g id="edge9" class="edge"><title>Node272&#45;&gt;Node273</title>
<path fill="none" stroke="midnightblue" d="M1876.12,-122.5C1884.72,-122.5 1893.37,-122.5 1901.76,-122.5"/>
<polygon fill="midnightblue" stroke="midnightblue" points="1876.07,-119 1866.07,-122.5 1876.07,-126 1876.07,-119"/>
</g>
<!-- Node274 -->
<g id="node11" class="node"><title>Node274</title>
<g id="a_node11"><a xlink:href="../../df/d15/a00416.html#a0d5c797dc17d9e8d0998852915e0f303" target="_top" xlink:title="nars.storage.ReasonerBatch.doTick">
<polygon fill="none" stroke="black" points="2071,-113 2071,-132 2244,-132 2244,-113 2071,-113"/>
<text text-anchor="middle" x="2157.5" y="-120" font-family="Helvetica,sans-Serif" font-size="10.00">nars.storage.ReasonerBatch.doTick</text>
</a>
</g>
</g>
<!-- Node273&#45;&gt;Node274 -->
<g id="edge10" class="edge"><title>Node273&#45;&gt;Node274</title>
<path fill="none" stroke="midnightblue" d="M2045.34,-122.5C2053.78,-122.5 2062.42,-122.5 2070.97,-122.5"/>
<polygon fill="midnightblue" stroke="midnightblue" points="2045.17,-119 2035.17,-122.5 2045.17,-126 2045.17,-119"/>
</g>
<!-- Node275 -->
<g id="node12" class="node"><title>Node275</title>
<g id="a_node12"><a xlink:href="../../df/d15/a00416.html#a3468aa0f99edcd66412f27922dddb880" target="_top" xlink:title="A clock tick. ">
<polygon fill="none" stroke="black" points="2280,-113 2280,-132 2440,-132 2440,-113 2280,-113"/>
<text text-anchor="middle" x="2360" y="-120" font-family="Helvetica,sans-Serif" font-size="10.00">nars.storage.ReasonerBatch.tick</text>
</a>
</g>
</g>
<!-- Node274&#45;&gt;Node275 -->
<g id="edge11" class="edge"><title>Node274&#45;&gt;Node275</title>
<path fill="none" stroke="midnightblue" d="M2254.13,-122.5C2262.7,-122.5 2271.31,-122.5 2279.71,-122.5"/>
<polygon fill="midnightblue" stroke="midnightblue" points="2254.11,-119 2244.11,-122.5 2254.11,-126 2254.11,-119"/>
</g>
<!-- Node276 -->
<g id="node13" class="node"><title>Node276</title>
<g id="a_node13"><a xlink:href="../../d9/da1/a00396.html#a5d9cfe517bcfbe41e5251910bcd119c1" target="_top" xlink:title="Run to completion: repeatedly execute NARS working cycle, until Inputs are Finished, or 1000 steps. ">
<polygon fill="none" stroke="black" points="2476,-113 2476,-132 2620,-132 2620,-113 2476,-113"/>
<text text-anchor="middle" x="2548" y="-120" font-family="Helvetica,sans-Serif" font-size="10.00">nars.storage.NARSBatch.run</text>
</a>
</g>
</g>
<!-- Node275&#45;&gt;Node276 -->
<g id="edge12" class="edge"><title>Node275&#45;&gt;Node276</title>
<path fill="none" stroke="midnightblue" d="M2450.22,-122.5C2458.82,-122.5 2467.47,-122.5 2475.87,-122.5"/>
<polygon fill="midnightblue" stroke="midnightblue" points="2450.15,-119 2440.15,-122.5 2450.15,-126 2450.15,-119"/>
</g>
<!-- Node277 -->
<g id="node14" class="node"><title>Node277</title>
<g id="a_node14"><a xlink:href="../../d9/da1/a00396.html#a7c307c6b842f82664de6b0e52bdf8efc" target="_top" xlink:title="non&#45;static equivalent to main(String[]) : run to completion from an input file ">
<polygon fill="none" stroke="black" points="2656,-107.5 2656,-137.5 2800,-137.5 2800,-107.5 2656,-107.5"/>
<text text-anchor="start" x="2664" y="-125.5" font-family="Helvetica,sans-Serif" font-size="10.00">nars.storage.NARSBatch.run</text>
<text text-anchor="middle" x="2728" y="-114.5" font-family="Helvetica,sans-Serif" font-size="10.00">Inference</text>
</a>
</g>
</g>
<!-- Node276&#45;&gt;Node277 -->
<g id="edge13" class="edge"><title>Node276&#45;&gt;Node277</title>
<path fill="none" stroke="midnightblue" d="M2630.17,-122.5C2638.79,-122.5 2647.51,-122.5 2656,-122.5"/>
<polygon fill="midnightblue" stroke="midnightblue" points="2630.12,-119 2620.12,-122.5 2630.12,-126 2630.12,-119"/>
</g>
<!-- Node278 -->
<g id="node15" class="node"><title>Node278</title>
<g id="a_node15"><a xlink:href="../../d9/da1/a00396.html#abafc597289bc2f6453b5cd0dd6634e54" target="_top" xlink:title="The entry point of the standalone application. ">
<polygon fill="none" stroke="black" points="2836,-113 2836,-132 2988,-132 2988,-113 2836,-113"/>
<text text-anchor="middle" x="2912" y="-120" font-family="Helvetica,sans-Serif" font-size="10.00">nars.storage.NARSBatch.main</text>
</a>
</g>
</g>
<!-- Node277&#45;&gt;Node278 -->
<g id="edge14" class="edge"><title>Node277&#45;&gt;Node278</title>
<path fill="none" stroke="midnightblue" d="M2810.17,-122.5C2818.76,-122.5 2827.48,-122.5 2836,-122.5"/>
<polygon fill="midnightblue" stroke="midnightblue" points="2810.15,-119 2800.15,-122.5 2810.15,-126 2810.15,-119"/>
</g>
<!-- Node281&#45;&gt;Node267 -->
<g id="edge18" class="edge"><title>Node281&#45;&gt;Node267</title>
<path fill="none" stroke="midnightblue" d="M378.873,-401.506C441.814,-402.308 534.052,-401.416 614,-392.5 637.383,-389.892 662.757,-385.233 685.041,-380.51"/>
<polygon fill="midnightblue" stroke="midnightblue" points="378.691,-398.003 368.641,-401.357 378.589,-405.002 378.691,-398.003"/>
</g>
<!-- Node281&#45;&gt;Node279 -->
<g id="edge19" class="edge"><title>Node281&#45;&gt;Node279</title>
<path fill="none" stroke="midnightblue" d="M377.92,-416.873C412.201,-424.93 451.626,-434.195 480.399,-440.958"/>
<polygon fill="midnightblue" stroke="midnightblue" points="378.469,-413.407 367.933,-414.526 376.867,-420.221 378.469,-413.407"/>
</g>
<!-- Node282 -->
<g id="node19" class="node"><title>Node282</title>
<g id="a_node19"><a xlink:href="../../dc/d50/a00332.html#a00cefbbca224bfc923d56bf917f55578" target="_top" xlink:title="Try to make a new IntersectionExt. ">
<polygon fill="none" stroke="black" points="456.5,-353.5 456.5,-383.5 587.5,-383.5 587.5,-353.5 456.5,-353.5"/>
<text text-anchor="start" x="464.5" y="-371.5" font-family="Helvetica,sans-Serif" font-size="10.00">nars.language.Intersection</text>
<text text-anchor="middle" x="522" y="-360.5" font-family="Helvetica,sans-Serif" font-size="10.00">Int.make</text>
</a>
</g>
</g>
<!-- Node281&#45;&gt;Node282 -->
<g id="edge20" class="edge"><title>Node281&#45;&gt;Node282</title>
<path fill="none" stroke="midnightblue" d="M378.446,-388.865C403.774,-385.247 431.857,-381.235 456.354,-377.735"/>
<polygon fill="midnightblue" stroke="midnightblue" points="377.924,-385.404 368.52,-390.283 378.914,-392.333 377.924,-385.404"/>
</g>
<!-- Node287 -->
<g id="node24" class="node"><title>Node287</title>
<g id="a_node24"><a xlink:href="../../d6/d08/a00244.html#a4479c479bb3ceeb78130e03ce5e3f293" target="_top" xlink:title="{&lt;(S|P) ==&gt; M&gt;, ">
<polygon fill="none" stroke="black" points="450.5,-304.5 450.5,-334.5 593.5,-334.5 593.5,-304.5 450.5,-304.5"/>
<text text-anchor="start" x="458.5" y="-322.5" font-family="Helvetica,sans-Serif" font-size="10.00">nars.inference.Compositional</text>
<text text-anchor="middle" x="522" y="-311.5" font-family="Helvetica,sans-Serif" font-size="10.00">Rules.decomposeCompound</text>
</a>
</g>
</g>
<!-- Node286&#45;&gt;Node287 -->
<g id="edge25" class="edge"><title>Node286&#45;&gt;Node287</title>
<path fill="none" stroke="midnightblue" d="M381.012,-251.285C385.493,-253.176 389.857,-255.243 394,-257.5 412.799,-267.741 411.449,-278.816 430,-289.5 440.235,-295.395 451.792,-300.327 463.151,-304.378"/>
<polygon fill="midnightblue" stroke="midnightblue" points="382.272,-248.02 371.683,-247.647 379.728,-254.541 382.272,-248.02"/>
</g>
<!-- Node288 -->
<g id="node25" class="node"><title>Node288</title>
<g id="a_node25"><a xlink:href="../../dc/ded/a00252.html#af34ec4e0da91e9422e25afd45af26559" target="_top" xlink:title="{(&amp;&amp;, &lt;#x() &#45;&#45;&gt; S&gt;, &lt;#x() &#45;&#45;&gt; P&gt;&gt;, &lt;M &#45;&#45;&gt; P&gt;} |&#45; &lt;M &#45;&#45;&gt; S&gt; ">
<polygon fill="none" stroke="black" points="445,-167.5 445,-197.5 599,-197.5 599,-167.5 445,-167.5"/>
<text text-anchor="start" x="453" y="-185.5" font-family="Helvetica,sans-Serif" font-size="10.00">nars.inference.RuleTables.elimi</text>
<text text-anchor="middle" x="522" y="-174.5" font-family="Helvetica,sans-Serif" font-size="10.00">VarDep</text>
</a>
</g>
</g>
<!-- Node286&#45;&gt;Node288 -->
<g id="edge27" class="edge"><title>Node286&#45;&gt;Node288</title>
<path fill="none" stroke="midnightblue" d="M378.886,-215.245C403.827,-209.498 431.397,-203.146 455.564,-197.577"/>
<polygon fill="midnightblue" stroke="midnightblue" points="378.066,-211.842 369.107,-217.498 379.638,-218.664 378.066,-211.842"/>
</g>
<!-- Node290 -->
<g id="node27" class="node"><title>Node290</title>
<g id="a_node27"><a xlink:href="../../dc/ded/a00252.html#ae7ff6eab9dca18af37064bc609eaf63c" target="_top" xlink:title="{&lt;(&amp;&amp;, S2, S3) ==&gt; P&gt;, &lt;(&amp;&amp;, S1, S3) ==&gt; P&gt;} |&#45; &lt;S1 ==&gt; S2&gt; ">
<polygon fill="none" stroke="black" points="650,-284 650,-303 847,-303 847,-284 650,-284"/>
<text text-anchor="middle" x="748.5" y="-291" font-family="Helvetica,sans-Serif" font-size="10.00">nars.inference.RuleTables.conditionalAbd</text>
</a>
</g>
</g>
<!-- Node286&#45;&gt;Node290 -->
<g id="edge30" class="edge"><title>Node286&#45;&gt;Node290</title>
<path fill="none" stroke="midnightblue" d="M392.257,-249.32C404.903,-251.523 417.769,-253.653 430,-255.5 505.615,-266.915 591.783,-277.048 655.254,-283.974"/>
<polygon fill="midnightblue" stroke="midnightblue" points="392.635,-245.833 382.179,-247.542 391.418,-252.726 392.635,-245.833"/>
</g>
<!-- Node291 -->
<g id="node28" class="node"><title>Node291</title>
<g id="a_node28"><a xlink:href="../../dc/ded/a00252.html#a000d25cc642aeb730ec57f80fcddd16d" target="_top" xlink:title="{(||, S, P), P} |&#45; S {(&amp;&amp;, S, P), P} |&#45; S ">
<polygon fill="none" stroke="black" points="430,-216.5 430,-246.5 614,-246.5 614,-216.5 430,-216.5"/>
<text text-anchor="start" x="438" y="-234.5" font-family="Helvetica,sans-Serif" font-size="10.00">nars.inference.RuleTables.decompose</text>
<text text-anchor="middle" x="522" y="-223.5" font-family="Helvetica,sans-Serif" font-size="10.00">Statement</text>
</a>
</g>
</g>
<!-- Node286&#45;&gt;Node291 -->
<g id="edge32" class="edge"><title>Node286&#45;&gt;Node291</title>
<path fill="none" stroke="midnightblue" d="M404.402,-232.037C412.851,-231.998 421.366,-231.959 429.74,-231.921"/>
<polygon fill="midnightblue" stroke="midnightblue" points="404.126,-228.538 394.142,-232.085 404.158,-235.538 404.126,-228.538"/>
</g>
<!-- Node287&#45;&gt;Node267 -->
<g id="edge26" class="edge"><title>Node287&#45;&gt;Node267</title>
<path fill="none" stroke="midnightblue" d="M603.808,-336.058C627.662,-340.945 653.576,-346.255 676.745,-351.002"/>
<polygon fill="midnightblue" stroke="midnightblue" points="604.224,-332.57 593.725,-333.992 602.819,-339.428 604.224,-332.57"/>
</g>
<!-- Node289 -->
<g id="node26" class="node"><title>Node289</title>
<g id="a_node26"><a xlink:href="../../dc/ded/a00252.html#a54a7ceba4f123db5035e3b85063c91f1" target="_top" xlink:title="Inference between a compound term and a statement. ">
<polygon fill="none" stroke="black" points="659,-167.5 659,-197.5 838,-197.5 838,-167.5 659,-167.5"/>
<text text-anchor="start" x="667" y="-185.5" font-family="Helvetica,sans-Serif" font-size="10.00">nars.inference.RuleTables.compound</text>
<text text-anchor="middle" x="748.5" y="-174.5" font-family="Helvetica,sans-Serif" font-size="10.00">AndStatement</text>
</a>
</g>
</g>
<!-- Node288&#45;&gt;Node289 -->
<g id="edge28" class="edge"><title>Node288&#45;&gt;Node289</title>
<path fill="none" stroke="midnightblue" d="M609.037,-182.5C625.331,-182.5 642.406,-182.5 658.782,-182.5"/>
<polygon fill="midnightblue" stroke="midnightblue" points="609.005,-179 599.005,-182.5 609.005,-186 609.005,-179"/>
</g>
<!-- Node289&#45;&gt;Node270 -->
<g id="edge29" class="edge"><title>Node289&#45;&gt;Node270</title>
<path fill="none" stroke="midnightblue" d="M848.408,-179.736C983.729,-175.955 1224,-169.242 1348.96,-165.75"/>
<polygon fill="midnightblue" stroke="midnightblue" points="847.948,-176.248 838.049,-180.026 848.143,-183.245 847.948,-176.248"/>
</g>
<!-- Node290&#45;&gt;Node268 -->
<g id="edge31" class="edge"><title>Node290&#45;&gt;Node268</title>
<path fill="none" stroke="midnightblue" d="M857.2,-301.892C867.743,-302.714 878.373,-303.542 888.736,-304.35"/>
<polygon fill="midnightblue" stroke="midnightblue" points="857.372,-298.395 847.13,-301.108 856.828,-305.374 857.372,-298.395"/>
</g>
<!-- Node292 -->
<g id="node29" class="node"><title>Node292</title>
<g id="a_node29"><a xlink:href="../../dc/ded/a00252.html#a00ffbf7a9069cfd135acae4b46d78d05" target="_top" xlink:title="Inference between a compound term and a component of it. ">
<polygon fill="none" stroke="black" points="892,-216.5 892,-246.5 1071,-246.5 1071,-216.5 892,-216.5"/>
<text text-anchor="start" x="900" y="-234.5" font-family="Helvetica,sans-Serif" font-size="10.00">nars.inference.RuleTables.compound</text>
<text text-anchor="middle" x="981.5" y="-223.5" font-family="Helvetica,sans-Serif" font-size="10.00">AndSelf</text>
</a>
</g>
</g>
<!-- Node291&#45;&gt;Node292 -->
<g id="edge33" class="edge"><title>Node291&#45;&gt;Node292</title>
<path fill="none" stroke="midnightblue" d="M624.314,-231.5C704.421,-231.5 815.151,-231.5 891.791,-231.5"/>
<polygon fill="midnightblue" stroke="midnightblue" points="624.208,-228 614.208,-231.5 624.208,-235 624.208,-228"/>
</g>
<!-- Node292&#45;&gt;Node270 -->
<g id="edge36" class="edge"><title>Node292&#45;&gt;Node270</title>
<path fill="none" stroke="midnightblue" d="M1045.11,-248.91C1109.49,-263.828 1211.92,-279.193 1296,-253.5 1348.66,-237.407 1399.33,-192.786 1419.89,-173.073"/>
<polygon fill="midnightblue" stroke="midnightblue" points="1045.66,-245.442 1035.12,-246.527 1044.03,-252.251 1045.66,-245.442"/>
</g>
<!-- Node293 -->
<g id="node30" class="node"><title>Node293</title>
<g id="a_node30"><a xlink:href="../../dc/ded/a00252.html#a764dbc9ccccf406df45e09fbfeda928f" target="_top" xlink:title="Inference between two compound terms. ">
<polygon fill="none" stroke="black" points="1116.5,-214.5 1116.5,-244.5 1295.5,-244.5 1295.5,-214.5 1116.5,-214.5"/>
<text text-anchor="start" x="1124.5" y="-232.5" font-family="Helvetica,sans-Serif" font-size="10.00">nars.inference.RuleTables.compound</text>
<text text-anchor="middle" x="1206" y="-221.5" font-family="Helvetica,sans-Serif" font-size="10.00">AndCompound</text>
</a>
</g>
</g>
<!-- Node292&#45;&gt;Node293 -->
<g id="edge34" class="edge"><title>Node292&#45;&gt;Node293</title>
<path fill="none" stroke="midnightblue" d="M1081.28,-230.612C1092.97,-230.507 1104.83,-230.4 1116.36,-230.297"/>
<polygon fill="midnightblue" stroke="midnightblue" points="1081.05,-227.114 1071.08,-230.704 1081.11,-234.114 1081.05,-227.114"/>
</g>
<!-- Node293&#45;&gt;Node270 -->
<g id="edge35" class="edge"><title>Node293&#45;&gt;Node270</title>
<path fill="none" stroke="midnightblue" d="M1267.57,-211.532C1309.39,-199.129 1363.35,-183.123 1397.2,-173.082"/>
<polygon fill="midnightblue" stroke="midnightblue" points="1266.36,-208.242 1257.77,-214.441 1268.35,-214.953 1266.36,-208.242"/>
</g>
<!-- Node295 -->
<g id="node32" class="node"><title>Node295</title>
<g id="a_node32"><a xlink:href="../../dc/ded/a00252.html#aac2b267fcfa9bb34e03d44a410bfd92b" target="_top" xlink:title="{&lt;(&amp;&amp;, S1, S2) &lt;=&gt; P&gt;, (&amp;&amp;, S1, S2)} |&#45; P ">
<polygon fill="none" stroke="black" points="883,-50 883,-69 1080,-69 1080,-50 883,-50"/>
<text text-anchor="middle" x="981.5" y="-57" font-family="Helvetica,sans-Serif" font-size="10.00">nars.inference.RuleTables.conditionalAna</text>
</a>
</g>
</g>
<!-- Node294&#45;&gt;Node295 -->
<g id="edge38" class="edge"><title>Node294&#45;&gt;Node295</title>
<path fill="none" stroke="midnightblue" d="M842.387,-77.4368C863.935,-74.6383 886.576,-71.698 907.149,-69.0262"/>
<polygon fill="midnightblue" stroke="midnightblue" points="841.71,-73.9952 832.244,-78.754 842.611,-80.9369 841.71,-73.9952"/>
</g>
<!-- Node296 -->
<g id="node33" class="node"><title>Node296</title>
<g id="a_node33"><a xlink:href="../../dc/ded/a00252.html#a52bb3626302eb9f10567c24ec5dbc934" target="_top" xlink:title="{&lt;(&amp;&amp;, S1, S2, S3) ==&gt; P&gt;, S1} |&#45; &lt;(&amp;&amp;, S2, S3) ==&gt; P&gt; {&lt;(&amp;&amp;, S2, S3) ==&gt; P&gt;, &lt;S1 ==&gt; S2&gt;} |&#45; &lt;(&amp;&amp;...">
<polygon fill="none" stroke="black" points="891.5,-88.5 891.5,-118.5 1071.5,-118.5 1071.5,-88.5 891.5,-88.5"/>
<text text-anchor="start" x="899.5" y="-106.5" font-family="Helvetica,sans-Serif" font-size="10.00">nars.inference.RuleTables.conditional</text>
<text text-anchor="middle" x="981.5" y="-95.5" font-family="Helvetica,sans-Serif" font-size="10.00">DedInd</text>
</a>
</g>
</g>
<!-- Node294&#45;&gt;Node296 -->
<g id="edge40" class="edge"><title>Node294&#45;&gt;Node296</title>
<path fill="none" stroke="midnightblue" d="M842.227,-95.1198C858.41,-96.1006 875.213,-97.119 891.298,-98.0938"/>
<polygon fill="midnightblue" stroke="midnightblue" points="842.437,-91.6262 832.244,-94.5148 842.014,-98.6134 842.437,-91.6262"/>
</g>
<!-- Node295&#45;&gt;Node270 -->
<g id="edge39" class="edge"><title>Node295&#45;&gt;Node270</title>
<path fill="none" stroke="midnightblue" d="M1090.4,-62.9955C1151.74,-67.2571 1229.37,-76.5201 1296,-96.5 1341.7,-110.204 1390.68,-138.821 1414.61,-153.834"/>
<polygon fill="midnightblue" stroke="midnightblue" points="1090.52,-59.496 1080.31,-62.3293 1090.06,-66.4808 1090.52,-59.496"/>
</g>
<!-- Node296&#45;&gt;Node270 -->
<g id="edge43" class="edge"><title>Node296&#45;&gt;Node270</title>
<path fill="none" stroke="midnightblue" d="M1082,-100.139C1144.07,-99.8831 1225.31,-102.907 1296,-116.5 1337.02,-124.388 1382.43,-142.526 1408.31,-153.822"/>
<polygon fill="midnightblue" stroke="midnightblue" points="1081.79,-96.6403 1071.82,-100.211 1081.84,-103.64 1081.79,-96.6403"/>
</g>
<!-- Node297 -->
<g id="node34" class="node"><title>Node297</title>
<g id="a_node34"><a xlink:href="../../dc/ded/a00252.html#aa167c7cb73f540ded591dc584ae623c1" target="_top" xlink:title="Conditional deduction or induction, with variable unification. ">
<polygon fill="none" stroke="black" points="1116,-126.5 1116,-156.5 1296,-156.5 1296,-126.5 1116,-126.5"/>
<text text-anchor="start" x="1124" y="-144.5" font-family="Helvetica,sans-Serif" font-size="10.00">nars.inference.RuleTables.conditional</text>
<text text-anchor="middle" x="1206" y="-133.5" font-family="Helvetica,sans-Serif" font-size="10.00">DedIndWithVar</text>
</a>
</g>
</g>
<!-- Node296&#45;&gt;Node297 -->
<g id="edge41" class="edge"><title>Node296&#45;&gt;Node297</title>
<path fill="none" stroke="midnightblue" d="M1080.56,-120.247C1092.68,-122.317 1105.01,-124.424 1116.97,-126.466"/>
<polygon fill="midnightblue" stroke="midnightblue" points="1080.88,-116.752 1070.44,-118.519 1079.71,-123.652 1080.88,-116.752"/>
</g>
<!-- Node297&#45;&gt;Node270 -->
<g id="edge42" class="edge"><title>Node297&#45;&gt;Node270</title>
<path fill="none" stroke="midnightblue" d="M1306.49,-151.337C1320.68,-152.74 1335.13,-154.169 1348.9,-155.53"/>
<polygon fill="midnightblue" stroke="midnightblue" points="1306.51,-147.823 1296.22,-150.321 1305.82,-154.789 1306.51,-147.823"/>
</g>
<!-- Node298&#45;&gt;Node289 -->
<g id="edge45" class="edge"><title>Node298&#45;&gt;Node289</title>
<path fill="none" stroke="midnightblue" d="M598.343,-149.945C624.341,-155.619 653.312,-161.942 678.754,-167.495"/>
<polygon fill="midnightblue" stroke="midnightblue" points="599.055,-146.518 588.538,-147.805 597.562,-153.357 599.055,-146.518"/>
</g>
<!-- Node300 -->
<g id="node37" class="node"><title>Node300</title>
<g id="a_node37"><a xlink:href="../../dc/ded/a00252.html#ab344d6ccee0f3671b57d092daeb65db4" target="_top" xlink:title="The TaskLink is of type TRANSFORM, and the conclusion is an equivalent transformation. ">
<polygon fill="none" stroke="black" points="1332,-72 1332,-91 1529,-91 1529,-72 1332,-72"/>
<text text-anchor="middle" x="1430.5" y="-79" font-family="Helvetica,sans-Serif" font-size="10.00">nars.inference.RuleTables.transformTask</text>
</a>
</g>
</g>
<!-- Node299&#45;&gt;Node300 -->
<g id="edge47" class="edge"><title>Node299&#45;&gt;Node300</title>
<path fill="none" stroke="midnightblue" d="M1267.57,-33.4677C1309.39,-45.871 1363.35,-61.8774 1397.2,-71.9176"/>
<polygon fill="midnightblue" stroke="midnightblue" points="1268.35,-30.0474 1257.77,-30.559 1266.36,-36.7584 1268.35,-30.0474"/>
</g>
<!-- Node300&#45;&gt;Node271 -->
<g id="edge48" class="edge"><title>Node300&#45;&gt;Node271</title>
<path fill="none" stroke="midnightblue" d="M1485.91,-93.1189C1510.49,-98.367 1539.57,-104.578 1564.65,-109.934"/>
<polygon fill="midnightblue" stroke="midnightblue" points="1486.54,-89.6749 1476.03,-91.0093 1485.08,-96.5205 1486.54,-89.6749"/>
</g>
</g>
</svg>
        <g id="navigator" transform="translate(0 0)" fill="#404254">
                <rect fill="#f2f5e9" fill-opacity="0.5" stroke="#606060" stroke-width=".5" x="0" y="0" width="60" height="60"/>
                <use id="zoomplus" xlink:href="#zoomPlus" x="17" y="9" onmousedown="handleZoom(evt,'in')"/>
                <use id="zoomminus" xlink:href="#zoomMin" x="42" y="9" onmousedown="handleZoom(evt,'out')"/>
                <use id="reset" xlink:href="#resetDef" x="30" y="36" onmousedown="handleReset()"/>
                <g id="arrowUp" xlink:href="#dirArrow" transform="translate(30 24)" onmousedown="handlePan(0,-1)">
                  <use xlink:href="#rim" fill="#404040">
                        <set attributeName="fill" to="#808080" begin="arrowUp.mouseover" end="arrowUp.mouseout"/>
                  </use>
                  <path fill="none" stroke="white" stroke-width="1.5" d="M0,-3.0v7 M-2.5,-0.5L0,-3.0L2.5,-0.5"/>
                </g>
                <g id="arrowRight" xlink:href="#dirArrow" transform="rotate(90) translate(36 -43)" onmousedown="handlePan(1,0)">
                  <use xlink:href="#rim" fill="#404040">
                        <set attributeName="fill" to="#808080" begin="arrowRight.mouseover" end="arrowRight.mouseout"/>
                  </use>
                  <path fill="none" stroke="white" stroke-width="1.5" d="M0,-3.0v7 M-2.5,-0.5L0,-3.0L2.5,-0.5"/>
                </g>
                <g id="arrowDown" xlink:href="#dirArrow" transform="rotate(180) translate(-30 -48)" onmousedown="handlePan(0,1)">
                  <use xlink:href="#rim" fill="#404040">
                        <set attributeName="fill" to="#808080" begin="arrowDown.mouseover" end="arrowDown.mouseout"/>
                  </use>
                  <path fill="none" stroke="white" stroke-width="1.5" d="M0,-3.0v7 M-2.5,-0.5L0,-3.0L2.5,-0.5"/>
                </g>
                <g id="arrowLeft" xlink:href="#dirArrow" transform="rotate(270) translate(-36 17)" onmousedown="handlePan(-1,0)">
                  <use xlink:href="#rim" fill="#404040">
                        <set attributeName="fill" to="#808080" begin="arrowLeft.mouseover" end="arrowLeft.mouseout"/>
                  </use>
                  <path fill="none" stroke="white" stroke-width="1.5" d="M0,-3.0v7 M-2.5,-0.5L0,-3.0L2.5,-0.5"/>
                </g>
        </g>
        <svg viewBox="0 0 15 15" width="100%" height="30px" preserveAspectRatio="xMaxYMin meet">
         <g id="arrow_out" transform="scale(0.3 0.3)">
          <a xlink:href="a00304_a5a2d25a17f77d898268e1637a3aa9c4d_icgraph_org.svg" target="_base">
           <rect id="button" ry="5" rx="5" y="6" x="6" height="38" width="38"
                fill="#f2f5e9" fill-opacity="0.5" stroke="#606060" stroke-width="1.0"/>
           <path id="arrow"
             d="M 11.500037,31.436501 C 11.940474,20.09759 22.043105,11.32322 32.158766,21.979434 L 37.068811,17.246167 C 37.068811,17.246167 37.088388,32 37.088388,32 L 22.160133,31.978069 C 22.160133,31.978069 26.997745,27.140456 26.997745,27.140456 C 18.528582,18.264221 13.291696,25.230495 11.500037,31.436501 z"
             style="fill:#404040;"/>
          </a>
         </g>
        </svg>
</svg>
