<?xml version="1.0" encoding="UTF-8" standalone="no"?>
<!DOCTYPE svg PUBLIC "-//W3C//DTD SVG 1.1//EN"
 "http://www.w3.org/Graphics/SVG/1.1/DTD/svg11.dtd">
<!-- Generated by graphviz version 2.38.0 (20140413.2041)
 -->
<!-- Title: nars.language.CompoundTerm.CompoundTerm Pages: 1 -->
<svg width="802pt" height="225pt"
 viewBox="0.00 0.00 802.00 224.50" xmlns="http://www.w3.org/2000/svg" xmlns:xlink="http://www.w3.org/1999/xlink">
<g id="graph0" class="graph" transform="scale(1 1) rotate(0) translate(4 220.5)">
<title>nars.language.CompoundTerm.CompoundTerm</title>
<!-- Node88 -->
<g id="node1" class="node"><title>Node88</title>
<polygon fill="#bfbfbf" stroke="black" points="0,-76.5 0,-106.5 153,-106.5 153,-76.5 0,-76.5"/>
<text text-anchor="start" x="8" y="-94.5" font-family="Helvetica,sans-Serif" font-size="10.00">nars.language.CompoundTerm.</text>
<text text-anchor="middle" x="76.5" y="-83.5" font-family="Helvetica,sans-Serif" font-size="10.00">CompoundTerm</text>
</g>
<!-- Node89 -->
<g id="node2" class="node"><title>Node89</title>
<g id="a_node2"><a xlink:href="../../d8/d17/a00304.html#a3ca2ad2ffeca9cc746bec0248d055d25" target="_top" xlink:title="The complexity of the term is the sum of those of the components plus 1. ">
<polygon fill="none" stroke="black" points="205,-166.5 205,-196.5 376,-196.5 376,-166.5 205,-166.5"/>
<text text-anchor="start" x="213" y="-184.5" font-family="Helvetica,sans-Serif" font-size="10.00">nars.language.CompoundTerm.calc</text>
<text text-anchor="middle" x="290.5" y="-173.5" font-family="Helvetica,sans-Serif" font-size="10.00">Complexity</text>
</a>
</g>
</g>
<!-- Node88&#45;&gt;Node89 -->
<g id="edge1" class="edge"><title>Node88&#45;&gt;Node89</title>
<path fill="none" stroke="midnightblue" d="M112.984,-106.564C149.061,-121.88 205.082,-145.662 244.311,-162.316"/>
<polygon fill="midnightblue" stroke="midnightblue" points="243.328,-165.701 253.9,-166.387 246.063,-159.257 243.328,-165.701"/>
</g>
<!-- Node91 -->
<g id="node4" class="node"><title>Node91</title>
<g id="a_node4"><a xlink:href="../../d8/d21/a00368.html#a2c36e85a56295a27aba7a4ee162f5850" target="_top" xlink:title="Check whether a string represent a name of a term that contains a variable. ">
<polygon fill="none" stroke="black" points="208,-104 208,-123 373,-123 373,-104 208,-104"/>
<text text-anchor="middle" x="290.5" y="-111" font-family="Helvetica,sans-Serif" font-size="10.00">nars.language.Variable.containVar</text>
</a>
</g>
</g>
<!-- Node88&#45;&gt;Node91 -->
<g id="edge3" class="edge"><title>Node88&#45;&gt;Node91</title>
<path fill="none" stroke="midnightblue" d="M153.139,-99.3493C167.535,-100.843 182.747,-102.422 197.584,-103.962"/>
<polygon fill="midnightblue" stroke="midnightblue" points="197.473,-107.469 207.781,-105.02 198.196,-100.506 197.473,-107.469"/>
</g>
<!-- Node95 -->
<g id="node8" class="node"><title>Node95</title>
<g id="a_node8"><a xlink:href="../../d8/d17/a00304.html#aee0ef6fd533b58caf22bee2a98eef67d" target="_top" xlink:title="Whether the term names a concept. ">
<polygon fill="none" stroke="black" points="210,-54.5 210,-84.5 371,-84.5 371,-54.5 210,-54.5"/>
<text text-anchor="start" x="218" y="-72.5" font-family="Helvetica,sans-Serif" font-size="10.00">nars.language.CompoundTerm.is</text>
<text text-anchor="middle" x="290.5" y="-61.5" font-family="Helvetica,sans-Serif" font-size="10.00">Constant</text>
</a>
</g>
</g>
<!-- Node88&#45;&gt;Node95 -->
<g id="edge7" class="edge"><title>Node88&#45;&gt;Node95</title>
<path fill="none" stroke="midnightblue" d="M153.139,-83.6507C168.259,-82.0817 184.278,-80.4192 199.818,-78.8066"/>
<polygon fill="midnightblue" stroke="midnightblue" points="200.362,-82.2691 209.947,-77.7555 199.639,-75.3065 200.362,-82.2691"/>
</g>
<!-- Node96 -->
<g id="node9" class="node"><title>Node96</title>
<g id="a_node9"><a xlink:href="../../d8/d17/a00304.html#aa26a304f6249c185836d8fde8b8f17a8" target="_top" xlink:title="default method to make the oldName of the current term from existing fields ">
<polygon fill="none" stroke="black" points="189,-6 189,-25 392,-25 392,-6 189,-6"/>
<text text-anchor="middle" x="290.5" y="-13" font-family="Helvetica,sans-Serif" font-size="10.00">nars.language.CompoundTerm.makeName</text>
</a>
</g>
</g>
<!-- Node88&#45;&gt;Node96 -->
<g id="edge8" class="edge"><title>Node88&#45;&gt;Node96</title>
<path fill="none" stroke="midnightblue" d="M110.275,-76.4793C132.28,-66.6949 162.065,-54.0256 189,-44.5 206.317,-38.3757 225.639,-32.5637 242.679,-27.7733"/>
<polygon fill="midnightblue" stroke="midnightblue" points="243.712,-31.1188 252.415,-25.0761 241.843,-24.3729 243.712,-31.1188"/>
</g>
<!-- Node90 -->
<g id="node3" class="node"><title>Node90</title>
<g id="a_node3"><a xlink:href="../../dc/d59/a00364.html#ae14632d1d25bcde8d6698ea0b58eb19a" target="_top" xlink:title="The syntactic complexity, for constant automic Term, is 1. ">
<polygon fill="none" stroke="black" points="432,-197 432,-216 601,-216 601,-197 432,-197"/>
<text text-anchor="middle" x="516.5" y="-204" font-family="Helvetica,sans-Serif" font-size="10.00">nars.language.Term.getComplexity</text>
</a>
</g>
</g>
<!-- Node89&#45;&gt;Node90 -->
<g id="edge2" class="edge"><title>Node89&#45;&gt;Node90</title>
<path fill="none" stroke="midnightblue" d="M376.185,-190.951C390.982,-192.603 406.457,-194.33 421.488,-196.008"/>
<polygon fill="midnightblue" stroke="midnightblue" points="421.483,-199.529 431.809,-197.16 422.259,-192.572 421.483,-199.529"/>
</g>
<!-- Node92 -->
<g id="node5" class="node"><title>Node92</title>
<g id="a_node5"><a xlink:href="../../d8/d21/a00368.html#a9caa9f23d798ce1913cfca744ddd1c15" target="_top" xlink:title="Check whether a string represent a name of a term that contains an independent variable. ">
<polygon fill="none" stroke="black" points="441.5,-147.5 441.5,-177.5 591.5,-177.5 591.5,-147.5 441.5,-147.5"/>
<text text-anchor="start" x="449.5" y="-165.5" font-family="Helvetica,sans-Serif" font-size="10.00">nars.language.Variable.contain</text>
<text text-anchor="middle" x="516.5" y="-154.5" font-family="Helvetica,sans-Serif" font-size="10.00">VarIndep</text>
</a>
</g>
</g>
<!-- Node91&#45;&gt;Node92 -->
<g id="edge4" class="edge"><title>Node91&#45;&gt;Node92</title>
<path fill="none" stroke="midnightblue" d="M334.955,-123.006C363.788,-129.313 402.47,-137.775 436.632,-145.248"/>
<polygon fill="midnightblue" stroke="midnightblue" points="436.086,-148.711 446.603,-147.429 437.582,-141.873 436.086,-148.711"/>
</g>
<!-- Node93 -->
<g id="node6" class="node"><title>Node93</title>
<g id="a_node6"><a xlink:href="../../d8/d21/a00368.html#a3a7ee29b5a23255edf3dbca5f85f7b44" target="_top" xlink:title="Check whether a string represent a name of a term that contains a dependent variable. ">
<polygon fill="none" stroke="black" points="441.5,-98.5 441.5,-128.5 591.5,-128.5 591.5,-98.5 441.5,-98.5"/>
<text text-anchor="start" x="449.5" y="-116.5" font-family="Helvetica,sans-Serif" font-size="10.00">nars.language.Variable.contain</text>
<text text-anchor="middle" x="516.5" y="-105.5" font-family="Helvetica,sans-Serif" font-size="10.00">VarDep</text>
</a>
</g>
</g>
<!-- Node91&#45;&gt;Node93 -->
<g id="edge5" class="edge"><title>Node91&#45;&gt;Node93</title>
<path fill="none" stroke="midnightblue" d="M373.003,-113.5C391.983,-113.5 412.228,-113.5 431.322,-113.5"/>
<polygon fill="midnightblue" stroke="midnightblue" points="431.491,-117 441.491,-113.5 431.491,-110 431.491,-117"/>
</g>
<!-- Node94 -->
<g id="node7" class="node"><title>Node94</title>
<g id="a_node7"><a xlink:href="../../d8/d21/a00368.html#a25dcc4d5882131d679903f93d41420c9" target="_top" xlink:title="Check whether a string represent a name of a term that contains a query variable. ...">
<polygon fill="none" stroke="black" points="441.5,-49.5 441.5,-79.5 591.5,-79.5 591.5,-49.5 441.5,-49.5"/>
<text text-anchor="start" x="449.5" y="-67.5" font-family="Helvetica,sans-Serif" font-size="10.00">nars.language.Variable.contain</text>
<text text-anchor="middle" x="516.5" y="-56.5" font-family="Helvetica,sans-Serif" font-size="10.00">VarQuery</text>
</a>
</g>
</g>
<!-- Node91&#45;&gt;Node94 -->
<g id="edge6" class="edge"><title>Node91&#45;&gt;Node94</title>
<path fill="none" stroke="midnightblue" d="M341.154,-103.968C357.385,-100.759 375.483,-97.0816 392,-93.5 408.733,-89.8715 426.693,-85.7724 443.59,-81.8231"/>
<polygon fill="midnightblue" stroke="midnightblue" points="444.465,-85.2131 453.4,-79.5198 442.864,-78.3985 444.465,-85.2131"/>
</g>
<!-- Node97 -->
<g id="node10" class="node"><title>Node97</title>
<g id="a_node10"><a xlink:href="../../d8/d17/a00304.html#a8d1e610c509fa096c6b52eb5fe06d59b" target="_top" xlink:title="default method to make the oldName of a compound term from given fields ">
<polygon fill="none" stroke="black" points="428,-0.5 428,-30.5 605,-30.5 605,-0.5 428,-0.5"/>
<text text-anchor="start" x="436" y="-18.5" font-family="Helvetica,sans-Serif" font-size="10.00">nars.language.CompoundTerm.make</text>
<text text-anchor="middle" x="516.5" y="-7.5" font-family="Helvetica,sans-Serif" font-size="10.00">CompoundName</text>
</a>
</g>
</g>
<!-- Node96&#45;&gt;Node97 -->
<g id="edge9" class="edge"><title>Node96&#45;&gt;Node97</title>
<path fill="none" stroke="midnightblue" d="M392.034,-8.78154C400.644,-8.73402 409.345,-8.7402 417.932,-8.80006"/>
<polygon fill="midnightblue" stroke="midnightblue" points="417.914,-12.2999 427.947,-8.895 417.98,-5.30026 417.914,-12.2999"/>
</g>
<!-- Node97&#45;&gt;Node96 -->
<g id="edge11" class="edge"><title>Node97&#45;&gt;Node96</title>
<path fill="none" stroke="midnightblue" d="M427.947,-22.105C419.482,-22.2069 410.821,-22.2551 402.171,-22.2496"/>
<polygon fill="midnightblue" stroke="midnightblue" points="402.044,-18.7493 392.034,-22.2185 402.023,-25.7492 402.044,-18.7493"/>
</g>
<!-- Node98 -->
<g id="node11" class="node"><title>Node98</title>
<g id="a_node11"><a xlink:href="../../d8/d17/a00304.html#a89000afae8017231889aaa549292d1e0" target="_top" xlink:title="Default constructor. ">
<polygon fill="none" stroke="black" points="641,-0.5 641,-30.5 794,-30.5 794,-0.5 641,-0.5"/>
<text text-anchor="start" x="649" y="-18.5" font-family="Helvetica,sans-Serif" font-size="10.00">nars.language.CompoundTerm.</text>
<text text-anchor="middle" x="717.5" y="-7.5" font-family="Helvetica,sans-Serif" font-size="10.00">CompoundTerm</text>
</a>
</g>
</g>
<!-- Node97&#45;&gt;Node98 -->
<g id="edge10" class="edge"><title>Node97&#45;&gt;Node98</title>
<path fill="none" stroke="midnightblue" d="M605.074,-15.5C613.525,-15.5 622.093,-15.5 630.528,-15.5"/>
<polygon fill="midnightblue" stroke="midnightblue" points="630.736,-19.0001 640.736,-15.5 630.736,-12.0001 630.736,-19.0001"/>
</g>
</g>
</svg>
