<?xml version="1.0" encoding="UTF-8" standalone="no"?>
<!DOCTYPE svg PUBLIC "-//W3C//DTD SVG 1.1//EN"
 "http://www.w3.org/Graphics/SVG/1.1/DTD/svg11.dtd">
<!-- Generated by graphviz version 2.38.0 (20140413.2041)
 -->
<!-- Title: nars.language.CompoundTerm.isConstant Pages: 1 -->
<!--zoomable 491 -->
<svg id="main" version="1.1" xmlns="http://www.w3.org/2000/svg" xmlns:xlink="http://www.w3.org/1999/xlink" xml:space="preserve" onload="init(evt)">
<style type="text/css"><![CDATA[
.edge:hover path { stroke: red; }
.edge:hover polygon { stroke: red; fill: red; }
]]></style>
<script type="text/javascript"><![CDATA[
var edges = document.getElementsByTagName('g');
if (edges && edges.length) {
  for (var i=0;i<edges.length;i++) {
    if (edges[i].id.substr(0,4)=='edge') {
      edges[i].setAttribute('class','edge');
    }
  }
}
]]></script>
        <defs>
                <circle id="rim" cx="0" cy="0" r="7"/>
                <circle id="rim2" cx="0" cy="0" r="3.5"/>
                <g id="zoomPlus">
                        <use xlink:href="#rim" fill="#404040">
                                <set attributeName="fill" to="#808080" begin="zoomplus.mouseover" end="zoomplus.mouseout"/>
                        </use>
                        <path d="M-4,0h8M0,-4v8" fill="none" stroke="white" stroke-width="1.5" pointer-events="none"/>
                </g>
                <g id="zoomMin">
                        <use xlink:href="#rim" fill="#404040">
                                <set attributeName="fill" to="#808080" begin="zoomminus.mouseover" end="zoomminus.mouseout"/>
                        </use>
                        <path d="M-4,0h8" fill="none" stroke="white" stroke-width="1.5" pointer-events="none"/>
                </g>
                <g id="dirArrow">
                        <path fill="none" stroke="white" stroke-width="1.5" d="M0,-3.0v7 M-2.5,-0.5L0,-3.0L2.5,-0.5"/>
                </g>
               <g id="resetDef">
                       <use xlink:href="#rim2" fill="#404040">
                               <set attributeName="fill" to="#808080" begin="reset.mouseover" end="reset.mouseout"/>
                       </use>
               </g>
        </defs>

<script type="text/javascript">
var viewWidth = 593;
var viewHeight = 491;
var sectionId = 'dynsection-25';
</script>
<script xlink:href="../../svgpan.js"/>
<svg id="graph" class="graph">
<g id="viewport">
<title>nars.language.CompoundTerm.isConstant</title>
<!-- Node545 -->
<g id="node1" class="node"><title>Node545</title>
<polygon fill="#bfbfbf" stroke="black" points="5.68434e-14,-248.5 5.68434e-14,-278.5 161,-278.5 161,-248.5 5.68434e-14,-248.5"/>
<text text-anchor="start" x="8" y="-266.5" font-family="Helvetica,sans-Serif" font-size="10.00">nars.language.CompoundTerm.is</text>
<text text-anchor="middle" x="80.5" y="-255.5" font-family="Helvetica,sans-Serif" font-size="10.00">Constant</text>
</g>
<!-- Node546 -->
<g id="node2" class="node"><title>Node546</title>
<g id="a_node2"><a xlink:href="../../d6/d9c/a00352.html#aabb9d80867d444bfa781a3c628cb73f7" target="_top" xlink:title="Clone a SetInt. ">
<polygon fill="none" stroke="black" points="214,-463 214,-482 347,-482 347,-463 214,-463"/>
<text text-anchor="middle" x="280.5" y="-470" font-family="Helvetica,sans-Serif" font-size="10.00">nars.language.SetInt.clone</text>
</a>
</g>
</g>
<!-- Node545&#45;&gt;Node546 -->
<g id="edge1" class="edge"><title>Node545&#45;&gt;Node546</title>
<path fill="none" stroke="midnightblue" d="M89.3624,-288.164C103.772,-329.213 138.435,-411.204 197,-453.5 202.362,-457.372 208.388,-460.47 214.679,-462.947"/>
<polygon fill="midnightblue" stroke="midnightblue" points="92.6641,-287.002 86.133,-278.66 86.0362,-289.254 92.6641,-287.002"/>
</g>
<!-- Node547 -->
<g id="node3" class="node"><title>Node547</title>
<g id="a_node3"><a xlink:href="../../d3/db8/a00316.html#a30b9a743c58d8aa4f172d00ef04a8891" target="_top" xlink:title="Clone an object. ">
<polygon fill="none" stroke="black" points="203,-425 203,-444 358,-444 358,-425 203,-425"/>
<text text-anchor="middle" x="280.5" y="-432" font-family="Helvetica,sans-Serif" font-size="10.00">nars.language.Inheritance.clone</text>
</a>
</g>
</g>
<!-- Node545&#45;&gt;Node547 -->
<g id="edge2" class="edge"><title>Node545&#45;&gt;Node547</title>
<path fill="none" stroke="midnightblue" d="M93.2175,-288.092C110.806,-322.235 147.341,-383.412 197,-415.5 203.049,-419.409 209.805,-422.517 216.775,-424.989"/>
<polygon fill="midnightblue" stroke="midnightblue" points="96.1811,-286.194 88.5685,-278.825 89.9243,-289.333 96.1811,-286.194"/>
</g>
<!-- Node548 -->
<g id="node4" class="node"><title>Node548</title>
<g id="a_node4"><a xlink:href="../../d6/de1/a00356.html#a186e43d1f6a471425fe6cdf3bd951dac" target="_top" xlink:title="Clone an object. ">
<polygon fill="none" stroke="black" points="207,-387 207,-406 354,-406 354,-387 207,-387"/>
<text text-anchor="middle" x="280.5" y="-394" font-family="Helvetica,sans-Serif" font-size="10.00">nars.language.Similarity.clone</text>
</a>
</g>
</g>
<!-- Node545&#45;&gt;Node548 -->
<g id="edge3" class="edge"><title>Node545&#45;&gt;Node548</title>
<path fill="none" stroke="midnightblue" d="M98.6824,-286.986C119.131,-313.173 155.741,-354.82 197,-377.5 204.084,-381.394 211.932,-384.492 219.889,-386.956"/>
<polygon fill="midnightblue" stroke="midnightblue" points="101.238,-284.565 92.3837,-278.747 95.6769,-288.817 101.238,-284.565"/>
</g>
<!-- Node549 -->
<g id="node5" class="node"><title>Node549</title>
<g id="a_node5"><a xlink:href="../../df/df1/a00340.html#a0d1189bcbcf720c3818cb2ebc953cd64" target="_top" xlink:title="Clone a Product. ">
<polygon fill="none" stroke="black" points="210.5,-349 210.5,-368 350.5,-368 350.5,-349 210.5,-349"/>
<text text-anchor="middle" x="280.5" y="-356" font-family="Helvetica,sans-Serif" font-size="10.00">nars.language.Product.clone</text>
</a>
</g>
</g>
<!-- Node545&#45;&gt;Node549 -->
<g id="edge4" class="edge"><title>Node545&#45;&gt;Node549</title>
<path fill="none" stroke="midnightblue" d="M107.945,-284.872C130.398,-302.007 164.123,-325.438 197,-339.5 205.919,-343.315 215.723,-346.425 225.362,-348.942"/>
<polygon fill="midnightblue" stroke="midnightblue" points="109.964,-282.008 99.9173,-278.646 105.674,-287.54 109.964,-282.008"/>
</g>
<!-- Node550 -->
<g id="node6" class="node"><title>Node550</title>
<g id="a_node6"><a xlink:href="../../dd/d1d/a00336.html#aa75de1d079c9867de603470387c64998" target="_top" xlink:title="Clone an object. ">
<polygon fill="none" stroke="black" points="207.5,-311 207.5,-330 353.5,-330 353.5,-311 207.5,-311"/>
<text text-anchor="middle" x="280.5" y="-318" font-family="Helvetica,sans-Serif" font-size="10.00">nars.language.Negation.clone</text>
</a>
</g>
</g>
<!-- Node545&#45;&gt;Node550 -->
<g id="edge5" class="edge"><title>Node545&#45;&gt;Node550</title>
<path fill="none" stroke="midnightblue" d="M133.71,-281.8C153.422,-288.412 176.127,-295.676 197,-301.5 209.175,-304.897 222.481,-308.156 234.783,-310.986"/>
<polygon fill="midnightblue" stroke="midnightblue" points="134.593,-278.404 123.999,-278.515 132.349,-285.035 134.593,-278.404"/>
</g>
<!-- Node551 -->
<g id="node7" class="node"><title>Node551</title>
<g id="a_node7"><a xlink:href="../../df/d03/a00348.html#aad126e022fc7ce5cf5ed1112655ba413" target="_top" xlink:title="Clone a SetExt. ">
<polygon fill="none" stroke="black" points="212,-273 212,-292 349,-292 349,-273 212,-273"/>
<text text-anchor="middle" x="280.5" y="-280" font-family="Helvetica,sans-Serif" font-size="10.00">nars.language.SetExt.clone</text>
</a>
</g>
</g>
<!-- Node545&#45;&gt;Node551 -->
<g id="edge6" class="edge"><title>Node545&#45;&gt;Node551</title>
<path fill="none" stroke="midnightblue" d="M171.472,-272.134C185.013,-273.433 198.781,-274.754 211.751,-275.999"/>
<polygon fill="midnightblue" stroke="midnightblue" points="171.467,-268.617 161.178,-271.146 170.798,-275.585 171.467,-268.617"/>
</g>
<!-- Node552 -->
<g id="node8" class="node"><title>Node552</title>
<g id="a_node8"><a xlink:href="../../d7/df2/a00312.html#a926536f74b2950c52901d5299f06c019" target="_top" xlink:title="Clone an object. ">
<polygon fill="none" stroke="black" points="208,-235 208,-254 353,-254 353,-235 208,-235"/>
<text text-anchor="middle" x="280.5" y="-242" font-family="Helvetica,sans-Serif" font-size="10.00">nars.language.ImageInt.clone</text>
</a>
</g>
</g>
<!-- Node545&#45;&gt;Node552 -->
<g id="edge7" class="edge"><title>Node545&#45;&gt;Node552</title>
<path fill="none" stroke="midnightblue" d="M171.411,-254.872C183.664,-253.696 196.105,-252.503 207.974,-251.364"/>
<polygon fill="midnightblue" stroke="midnightblue" points="170.798,-251.415 161.178,-255.854 171.467,-258.383 170.798,-251.415"/>
</g>
<!-- Node553 -->
<g id="node9" class="node"><title>Node553</title>
<g id="a_node9"><a xlink:href="../../d5/d0f/a00308.html#ac5fdab0792feb897ec29059f1f7f4b03" target="_top" xlink:title="Clone an object. ">
<polygon fill="none" stroke="black" points="206,-197 206,-216 355,-216 355,-197 206,-197"/>
<text text-anchor="middle" x="280.5" y="-204" font-family="Helvetica,sans-Serif" font-size="10.00">nars.language.ImageExt.clone</text>
</a>
</g>
</g>
<!-- Node545&#45;&gt;Node553 -->
<g id="edge8" class="edge"><title>Node545&#45;&gt;Node553</title>
<path fill="none" stroke="midnightblue" d="M133.71,-245.2C153.422,-238.588 176.127,-231.324 197,-225.5 209.175,-222.103 222.481,-218.844 234.783,-216.014"/>
<polygon fill="midnightblue" stroke="midnightblue" points="132.349,-241.965 123.999,-248.485 134.593,-248.596 132.349,-241.965"/>
</g>
<!-- Node554 -->
<g id="node10" class="node"><title>Node554</title>
<g id="a_node10"><a xlink:href="../../d8/d17/a00304.html#ad56db38cb08896d2975c7617ff0307b3" target="_top" xlink:title="Constructor called from subclasses constructors to clone the fields. ">
<polygon fill="none" stroke="black" points="204,-147.5 204,-177.5 357,-177.5 357,-147.5 204,-147.5"/>
<text text-anchor="start" x="212" y="-165.5" font-family="Helvetica,sans-Serif" font-size="10.00">nars.language.CompoundTerm.</text>
<text text-anchor="middle" x="280.5" y="-154.5" font-family="Helvetica,sans-Serif" font-size="10.00">CompoundTerm</text>
</a>
</g>
</g>
<!-- Node545&#45;&gt;Node554 -->
<g id="edge9" class="edge"><title>Node545&#45;&gt;Node554</title>
<path fill="none" stroke="midnightblue" d="M108.611,-242.409C131.216,-225.643 164.812,-202.579 197,-187.5 204.861,-183.818 213.394,-180.52 221.892,-177.623"/>
<polygon fill="midnightblue" stroke="midnightblue" points="106.402,-239.69 100.511,-248.496 110.608,-245.286 106.402,-239.69"/>
</g>
<!-- Node555 -->
<g id="node11" class="node"><title>Node555</title>
<g id="a_node11"><a xlink:href="../../d4/db5/a00328.html#a5b160c9cf49969742e7ce93c5be32600" target="_top" xlink:title="nars.language.Intersection\lExt.doCLone">
<polygon fill="none" stroke="black" points="215,-98.5 215,-128.5 346,-128.5 346,-98.5 215,-98.5"/>
<text text-anchor="start" x="223" y="-116.5" font-family="Helvetica,sans-Serif" font-size="10.00">nars.language.Intersection</text>
<text text-anchor="middle" x="280.5" y="-105.5" font-family="Helvetica,sans-Serif" font-size="10.00">Ext.doCLone</text>
</a>
</g>
</g>
<!-- Node545&#45;&gt;Node555 -->
<g id="edge10" class="edge"><title>Node545&#45;&gt;Node555</title>
<path fill="none" stroke="midnightblue" d="M97.2424,-239.954C117.229,-211.833 154.294,-165.248 197,-138.5 203.088,-134.687 209.794,-131.425 216.671,-128.641"/>
<polygon fill="midnightblue" stroke="midnightblue" points="94.212,-238.181 91.3677,-248.387 99.9557,-242.182 94.212,-238.181"/>
</g>
<!-- Node557 -->
<g id="node13" class="node"><title>Node557</title>
<g id="a_node13"><a xlink:href="../../dc/d50/a00332.html#a5c2757b00686a1acba089247e49a3aa9" target="_top" xlink:title="nars.language.Intersection\lInt.doCLone">
<polygon fill="none" stroke="black" points="215,-49.5 215,-79.5 346,-79.5 346,-49.5 215,-49.5"/>
<text text-anchor="start" x="223" y="-67.5" font-family="Helvetica,sans-Serif" font-size="10.00">nars.language.Intersection</text>
<text text-anchor="middle" x="280.5" y="-56.5" font-family="Helvetica,sans-Serif" font-size="10.00">Int.doCLone</text>
</a>
</g>
</g>
<!-- Node545&#45;&gt;Node557 -->
<g id="edge12" class="edge"><title>Node545&#45;&gt;Node557</title>
<path fill="none" stroke="midnightblue" d="M91.082,-238.938C107.165,-200.94 143.205,-128.158 197,-88.5 202.403,-84.5169 208.456,-81.1925 214.763,-78.4184"/>
<polygon fill="midnightblue" stroke="midnightblue" points="87.8217,-237.664 87.2499,-248.243 94.2943,-240.33 87.8217,-237.664"/>
</g>
<!-- Node559 -->
<g id="node15" class="node"><title>Node559</title>
<g id="a_node15"><a xlink:href="../../d8/d17/a00304.html#aba82571567444c65efde4cdba1733ac9" target="_top" xlink:title="Set the constant status. ">
<polygon fill="none" stroke="black" points="197,-0.5 197,-30.5 364,-30.5 364,-0.5 197,-0.5"/>
<text text-anchor="start" x="205" y="-18.5" font-family="Helvetica,sans-Serif" font-size="10.00">nars.language.CompoundTerm.set</text>
<text text-anchor="middle" x="280.5" y="-7.5" font-family="Helvetica,sans-Serif" font-size="10.00">Constant</text>
</a>
</g>
</g>
<!-- Node545&#45;&gt;Node559 -->
<g id="edge14" class="edge"><title>Node545&#45;&gt;Node559</title>
<path fill="none" stroke="midnightblue" d="M87.3798,-238.543C99.5928,-192.244 132.137,-92.9151 197,-39.5 201.145,-36.0863 205.756,-33.1581 210.62,-30.6464"/>
<polygon fill="midnightblue" stroke="midnightblue" points="83.9584,-237.796 84.8903,-248.35 90.7432,-239.519 83.9584,-237.796"/>
</g>
<!-- Node556 -->
<g id="node12" class="node"><title>Node556</title>
<g id="a_node12"><a xlink:href="../../d4/db5/a00328.html#af5972d508155a133710574b3fc58e1d9" target="_top" xlink:title="Clone an object. ">
<polygon fill="none" stroke="black" points="427,-98.5 427,-128.5 558,-128.5 558,-98.5 427,-98.5"/>
<text text-anchor="start" x="435" y="-116.5" font-family="Helvetica,sans-Serif" font-size="10.00">nars.language.Intersection</text>
<text text-anchor="middle" x="492.5" y="-105.5" font-family="Helvetica,sans-Serif" font-size="10.00">Ext.clone</text>
</a>
</g>
</g>
<!-- Node555&#45;&gt;Node556 -->
<g id="edge11" class="edge"><title>Node555&#45;&gt;Node556</title>
<path fill="none" stroke="midnightblue" d="M356.32,-113.5C379.42,-113.5 404.651,-113.5 426.993,-113.5"/>
<polygon fill="midnightblue" stroke="midnightblue" points="356.22,-110 346.22,-113.5 356.22,-117 356.22,-110"/>
</g>
<!-- Node558 -->
<g id="node14" class="node"><title>Node558</title>
<g id="a_node14"><a xlink:href="../../dc/d50/a00332.html#a6f20109d61f2aa3afc159873cd36d7c3" target="_top" xlink:title="Clone an object. ">
<polygon fill="none" stroke="black" points="427,-49.5 427,-79.5 558,-79.5 558,-49.5 427,-49.5"/>
<text text-anchor="start" x="435" y="-67.5" font-family="Helvetica,sans-Serif" font-size="10.00">nars.language.Intersection</text>
<text text-anchor="middle" x="492.5" y="-56.5" font-family="Helvetica,sans-Serif" font-size="10.00">Int.clone</text>
</a>
</g>
</g>
<!-- Node557&#45;&gt;Node558 -->
<g id="edge13" class="edge"><title>Node557&#45;&gt;Node558</title>
<path fill="none" stroke="midnightblue" d="M356.32,-64.5C379.42,-64.5 404.651,-64.5 426.993,-64.5"/>
<polygon fill="midnightblue" stroke="midnightblue" points="356.22,-61.0001 346.22,-64.5 356.22,-68.0001 356.22,-61.0001"/>
</g>
<!-- Node560 -->
<g id="node16" class="node"><title>Node560</title>
<g id="a_node16"><a xlink:href="../../d8/d17/a00304.html#ac19f90fbe8b8ebe78462fa13e7ebca74" target="_top" xlink:title="Rename the variables in the compound. ">
<polygon fill="none" stroke="black" points="400,-0.5 400,-30.5 585,-30.5 585,-0.5 400,-0.5"/>
<text text-anchor="start" x="408" y="-18.5" font-family="Helvetica,sans-Serif" font-size="10.00">nars.language.CompoundTerm.rename</text>
<text text-anchor="middle" x="492.5" y="-7.5" font-family="Helvetica,sans-Serif" font-size="10.00">Variables</text>
</a>
</g>
</g>
<!-- Node559&#45;&gt;Node560 -->
<g id="edge15" class="edge"><title>Node559&#45;&gt;Node560</title>
<path fill="none" stroke="midnightblue" d="M374.431,-15.5C382.877,-15.5 391.428,-15.5 399.862,-15.5"/>
<polygon fill="midnightblue" stroke="midnightblue" points="374.196,-12.0001 364.196,-15.5 374.196,-19.0001 374.196,-12.0001"/>
</g>
</g>
</svg>
        <g id="navigator" transform="translate(0 0)" fill="#404254">
                <rect fill="#f2f5e9" fill-opacity="0.5" stroke="#606060" stroke-width=".5" x="0" y="0" width="60" height="60"/>
                <use id="zoomplus" xlink:href="#zoomPlus" x="17" y="9" onmousedown="handleZoom(evt,'in')"/>
                <use id="zoomminus" xlink:href="#zoomMin" x="42" y="9" onmousedown="handleZoom(evt,'out')"/>
                <use id="reset" xlink:href="#resetDef" x="30" y="36" onmousedown="handleReset()"/>
                <g id="arrowUp" xlink:href="#dirArrow" transform="translate(30 24)" onmousedown="handlePan(0,-1)">
                  <use xlink:href="#rim" fill="#404040">
                        <set attributeName="fill" to="#808080" begin="arrowUp.mouseover" end="arrowUp.mouseout"/>
                  </use>
                  <path fill="none" stroke="white" stroke-width="1.5" d="M0,-3.0v7 M-2.5,-0.5L0,-3.0L2.5,-0.5"/>
                </g>
                <g id="arrowRight" xlink:href="#dirArrow" transform="rotate(90) translate(36 -43)" onmousedown="handlePan(1,0)">
                  <use xlink:href="#rim" fill="#404040">
                        <set attributeName="fill" to="#808080" begin="arrowRight.mouseover" end="arrowRight.mouseout"/>
                  </use>
                  <path fill="none" stroke="white" stroke-width="1.5" d="M0,-3.0v7 M-2.5,-0.5L0,-3.0L2.5,-0.5"/>
                </g>
                <g id="arrowDown" xlink:href="#dirArrow" transform="rotate(180) translate(-30 -48)" onmousedown="handlePan(0,1)">
                  <use xlink:href="#rim" fill="#404040">
                        <set attributeName="fill" to="#808080" begin="arrowDown.mouseover" end="arrowDown.mouseout"/>
                  </use>
                  <path fill="none" stroke="white" stroke-width="1.5" d="M0,-3.0v7 M-2.5,-0.5L0,-3.0L2.5,-0.5"/>
                </g>
                <g id="arrowLeft" xlink:href="#dirArrow" transform="rotate(270) translate(-36 17)" onmousedown="handlePan(-1,0)">
                  <use xlink:href="#rim" fill="#404040">
                        <set attributeName="fill" to="#808080" begin="arrowLeft.mouseover" end="arrowLeft.mouseout"/>
                  </use>
                  <path fill="none" stroke="white" stroke-width="1.5" d="M0,-3.0v7 M-2.5,-0.5L0,-3.0L2.5,-0.5"/>
                </g>
        </g>
        <svg viewBox="0 0 15 15" width="100%" height="30px" preserveAspectRatio="xMaxYMin meet">
         <g id="arrow_out" transform="scale(0.3 0.3)">
          <a xlink:href="a00304_aee0ef6fd533b58caf22bee2a98eef67d_icgraph_org.svg" target="_base">
           <rect id="button" ry="5" rx="5" y="6" x="6" height="38" width="38"
                fill="#f2f5e9" fill-opacity="0.5" stroke="#606060" stroke-width="1.0"/>
           <path id="arrow"
             d="M 11.500037,31.436501 C 11.940474,20.09759 22.043105,11.32322 32.158766,21.979434 L 37.068811,17.246167 C 37.068811,17.246167 37.088388,32 37.088388,32 L 22.160133,31.978069 C 22.160133,31.978069 26.997745,27.140456 26.997745,27.140456 C 18.528582,18.264221 13.291696,25.230495 11.500037,31.436501 z"
             style="fill:#404040;"/>
          </a>
         </g>
        </svg>
</svg>
