<?xml version="1.0" encoding="UTF-8" standalone="no"?>
<!DOCTYPE svg PUBLIC "-//W3C//DTD SVG 1.1//EN"
 "http://www.w3.org/Graphics/SVG/1.1/DTD/svg11.dtd">
<!-- Generated by graphviz version 2.38.0 (20140413.2041)
 -->
<!-- Title: nars.language.CompoundTerm.make Pages: 1 -->
<svg width="2997pt" height="532pt"
 viewBox="0.00 0.00 2997.00 532.00" xmlns="http://www.w3.org/2000/svg" xmlns:xlink="http://www.w3.org/1999/xlink">
<g id="graph0" class="graph" transform="scale(1 1) rotate(0) translate(4 528)">
<title>nars.language.CompoundTerm.make</title>
<!-- Node565 -->
<g id="node1" class="node"><title>Node565</title>
<polygon fill="#bfbfbf" stroke="black" points="0,-231 0,-250 177,-250 177,-231 0,-231"/>
<text text-anchor="middle" x="88.5" y="-238" font-family="Helvetica,sans-Serif" font-size="10.00">nars.language.CompoundTerm.make</text>
</g>
<!-- Node566 -->
<g id="node2" class="node"><title>Node566</title>
<g id="a_node2"><a xlink:href="../../d8/d17/a00304.html#afa61c8aa9aac1ad79977ca20c2922cd7" target="_top" xlink:title="Try to add a component into a compound. ">
<polygon fill="none" stroke="black" points="219.5,-493.5 219.5,-523.5 388.5,-523.5 388.5,-493.5 219.5,-493.5"/>
<text text-anchor="start" x="227.5" y="-511.5" font-family="Helvetica,sans-Serif" font-size="10.00">nars.language.CompoundTerm.add</text>
<text text-anchor="middle" x="304" y="-500.5" font-family="Helvetica,sans-Serif" font-size="10.00">Components</text>
</a>
</g>
</g>
<!-- Node565&#45;&gt;Node566 -->
<g id="edge1" class="edge"><title>Node565&#45;&gt;Node566</title>
<path fill="none" stroke="midnightblue" d="M94.2301,-260.055C106.157,-305.226 141.716,-417.607 213,-478.5 220.138,-484.598 228.559,-489.467 237.339,-493.353"/>
<polygon fill="midnightblue" stroke="midnightblue" points="97.611,-259.148 91.7552,-250.318 90.8267,-260.872 97.611,-259.148"/>
</g>
<!-- Node567 -->
<g id="node3" class="node"><title>Node567</title>
<g id="a_node3"><a xlink:href="../../d6/d08/a00244.html#ae7906cfca35e9c7568ace240aba808a0" target="_top" xlink:title="{&lt;M &#45;&#45;&gt; S&gt;, &lt;C ==&gt; &lt;M &#45;&#45;&gt; P&gt;&gt;} |&#45; &lt;(&amp;&amp;, &lt;#x &#45;&#45;&gt; S&gt;, C) ==&gt; &lt;#x &#45;&#45;&gt; P&gt;&gt; {&lt;M &#45;&#45;&gt; S&gt;, (&amp;&amp;, C, &lt;M &#45;&#45;&gt; P&gt;)} |&#45; (&amp;&amp;, C, &lt;&lt;#x &#45;&#45;&gt; S&gt; ==&gt; &lt;#x &#45;&#45;&gt; P&gt;&gt;) ">
<polygon fill="none" stroke="black" points="458,-219.5 458,-249.5 601,-249.5 601,-219.5 458,-219.5"/>
<text text-anchor="start" x="466" y="-237.5" font-family="Helvetica,sans-Serif" font-size="10.00">nars.inference.Compositional</text>
<text text-anchor="middle" x="529.5" y="-226.5" font-family="Helvetica,sans-Serif" font-size="10.00">Rules.introVarInner</text>
</a>
</g>
</g>
<!-- Node565&#45;&gt;Node567 -->
<g id="edge2" class="edge"><title>Node565&#45;&gt;Node567</title>
<path fill="none" stroke="midnightblue" d="M187.104,-239.166C269.128,-238.045 384.406,-236.469 457.78,-235.467"/>
<polygon fill="midnightblue" stroke="midnightblue" points="186.971,-235.667 177.02,-239.304 187.067,-242.667 186.971,-235.667"/>
</g>
<!-- Node580 -->
<g id="node16" class="node"><title>Node580</title>
<g id="a_node16"><a xlink:href="../../d8/d0a/a00292.html#a944bb677dff9f232ce6b896c853e24e0" target="_top" xlink:title="Parse a String to create a CompoundTerm. ">
<polygon fill="none" stroke="black" points="239,-93.5 239,-123.5 369,-123.5 369,-93.5 239,-93.5"/>
<text text-anchor="start" x="247" y="-111.5" font-family="Helvetica,sans-Serif" font-size="10.00">nars.io.StringParser.parse</text>
<text text-anchor="middle" x="304" y="-100.5" font-family="Helvetica,sans-Serif" font-size="10.00">CompoundTerm</text>
</a>
</g>
</g>
<!-- Node565&#45;&gt;Node580 -->
<g id="edge16" class="edge"><title>Node565&#45;&gt;Node580</title>
<path fill="none" stroke="midnightblue" d="M105.81,-223.585C128.135,-201.294 170.325,-162.15 213,-138.5 223.516,-132.672 235.353,-127.728 246.903,-123.639"/>
<polygon fill="midnightblue" stroke="midnightblue" points="103.051,-221.398 98.5204,-230.975 108.035,-226.314 103.051,-221.398"/>
</g>
<!-- Node588 -->
<g id="node24" class="node"><title>Node588</title>
<g id="a_node24"><a xlink:href="../../d8/d17/a00304.html#a09c88a408c16b985b0db4bc602a170aa" target="_top" xlink:title="Try to remove a component from a compound. ">
<polygon fill="none" stroke="black" points="213,-317.5 213,-347.5 395,-347.5 395,-317.5 213,-317.5"/>
<text text-anchor="start" x="221" y="-335.5" font-family="Helvetica,sans-Serif" font-size="10.00">nars.language.CompoundTerm.reduce</text>
<text text-anchor="middle" x="304" y="-324.5" font-family="Helvetica,sans-Serif" font-size="10.00">Components</text>
</a>
</g>
</g>
<!-- Node565&#45;&gt;Node588 -->
<g id="edge27" class="edge"><title>Node565&#45;&gt;Node588</title>
<path fill="none" stroke="midnightblue" d="M121.304,-254.205C160.558,-271.12 227.098,-299.793 267.837,-317.348"/>
<polygon fill="midnightblue" stroke="midnightblue" points="122.513,-250.915 111.945,-250.172 119.743,-257.343 122.513,-250.915"/>
</g>
<!-- Node597 -->
<g id="node33" class="node"><title>Node597</title>
<g id="a_node33"><a xlink:href="../../d8/d17/a00304.html#a623c88183d85bd42464640937ea8ccb5" target="_top" xlink:title="Try to replace a component in a compound at a given index by another one. ">
<polygon fill="none" stroke="black" points="670,-449.5 670,-479.5 837,-479.5 837,-449.5 670,-449.5"/>
<text text-anchor="start" x="678" y="-467.5" font-family="Helvetica,sans-Serif" font-size="10.00">nars.language.CompoundTerm.set</text>
<text text-anchor="middle" x="753.5" y="-456.5" font-family="Helvetica,sans-Serif" font-size="10.00">Component</text>
</a>
</g>
</g>
<!-- Node565&#45;&gt;Node597 -->
<g id="edge41" class="edge"><title>Node565&#45;&gt;Node597</title>
<path fill="none" stroke="midnightblue" d="M104.307,-257.987C126.012,-282.719 168.718,-328.063 213,-356.5 301.059,-413.048 328.946,-422.323 431,-445.5 510.743,-463.61 604.301,-467.229 669.865,-467.003"/>
<polygon fill="midnightblue" stroke="midnightblue" points="106.726,-255.434 97.5371,-250.16 101.432,-260.013 106.726,-255.434"/>
</g>
<!-- Node601 -->
<g id="node37" class="node"><title>Node601</title>
<g id="a_node37"><a xlink:href="../../d0/def/a00256.html#ab3d78c70d8e8086fdabdc52a343cc416" target="_top" xlink:title="{&lt;S &#45;&#45;&gt; P&gt;, S@(S&amp;T)} |&#45; &lt;(S&amp;T) &#45;&#45;&gt; (P&amp;T)&gt; {&lt;S &#45;&#45;&gt; P&gt;, S@(M&#45;S)} |&#45; &lt;(M&#45;P) &#45;&#45;&gt; (M&#45;S)&gt; ...">
<polygon fill="none" stroke="black" points="237.5,-181.5 237.5,-211.5 370.5,-211.5 370.5,-181.5 237.5,-181.5"/>
<text text-anchor="start" x="245.5" y="-199.5" font-family="Helvetica,sans-Serif" font-size="10.00">nars.inference.Structural</text>
<text text-anchor="middle" x="304" y="-188.5" font-family="Helvetica,sans-Serif" font-size="10.00">Rules.structuralCompose2</text>
</a>
</g>
</g>
<!-- Node565&#45;&gt;Node601 -->
<g id="edge48" class="edge"><title>Node565&#45;&gt;Node601</title>
<path fill="none" stroke="midnightblue" d="M145.878,-228.881C173.957,-223.094 208.068,-216.064 237.324,-210.035"/>
<polygon fill="midnightblue" stroke="midnightblue" points="144.914,-225.506 135.826,-230.953 146.327,-232.362 144.914,-225.506"/>
</g>
<!-- Node602 -->
<g id="node38" class="node"><title>Node602</title>
<g id="a_node38"><a xlink:href="../../d0/def/a00256.html#ab621fd6a291394ad962761cd0ae1ff08" target="_top" xlink:title="Equivalent transformation between products and images {&lt;(*, S, M) &#45;&#45;&gt; P&gt;, S@(*, S, M)} |&#45; &lt;S &#45;&#45;&gt; (/, P, _, M)&gt; {&lt;S &#45;&#45;&gt; (/, P, _, M)&gt;, P@(/, P, _, M)} |&#45; &lt;(*, S, M) &#45;&#45;&gt; P&gt; {&lt;S &#45;&#45;&gt; (/, P, _, M)&gt;, M@(/, P, _, M)} |&#45; &lt;M &#45;&#45;&gt; (/, P, S, _)&gt; ">
<polygon fill="none" stroke="black" points="1125,-158.5 1125,-188.5 1272,-188.5 1272,-158.5 1125,-158.5"/>
<text text-anchor="start" x="1133" y="-176.5" font-family="Helvetica,sans-Serif" font-size="10.00">nars.inference.Structural</text>
<text text-anchor="middle" x="1198.5" y="-165.5" font-family="Helvetica,sans-Serif" font-size="10.00">Rules.transformProductImage</text>
</a>
</g>
</g>
<!-- Node565&#45;&gt;Node602 -->
<g id="edge50" class="edge"><title>Node565&#45;&gt;Node602</title>
<path fill="none" stroke="midnightblue" d="M110.13,-225.105C133.649,-208.511 173.916,-182.943 213,-171.5 347.817,-132.028 388.024,-152.5 528.5,-152.5 528.5,-152.5 528.5,-152.5 754.5,-152.5 885.008,-152.5 1036.9,-161.706 1124.65,-167.928"/>
<polygon fill="midnightblue" stroke="midnightblue" points="108.044,-222.294 101.973,-230.977 112.134,-227.975 108.044,-222.294"/>
</g>
<!-- Node568 -->
<g id="node4" class="node"><title>Node568</title>
<g id="a_node4"><a xlink:href="../../dc/ded/a00252.html#a54a7ceba4f123db5035e3b85063c91f1" target="_top" xlink:title="Inference between a compound term and a statement. ">
<polygon fill="none" stroke="black" points="664,-221.5 664,-251.5 843,-251.5 843,-221.5 664,-221.5"/>
<text text-anchor="start" x="672" y="-239.5" font-family="Helvetica,sans-Serif" font-size="10.00">nars.inference.RuleTables.compound</text>
<text text-anchor="middle" x="753.5" y="-228.5" font-family="Helvetica,sans-Serif" font-size="10.00">AndStatement</text>
</a>
</g>
</g>
<!-- Node567&#45;&gt;Node568 -->
<g id="edge3" class="edge"><title>Node567&#45;&gt;Node568</title>
<path fill="none" stroke="midnightblue" d="M611.488,-235.23C628.493,-235.383 646.514,-235.545 663.785,-235.701"/>
<polygon fill="midnightblue" stroke="midnightblue" points="611.078,-231.726 601.047,-235.136 611.015,-238.726 611.078,-231.726"/>
</g>
<!-- Node578 -->
<g id="node14" class="node"><title>Node578</title>
<g id="a_node14"><a xlink:href="../../dc/ded/a00252.html#af6c973743270b2739d4ad25f16975da1" target="_top" xlink:title="The detachment rule, with variable unification. ">
<polygon fill="none" stroke="black" points="879,-266.5 879,-296.5 1064,-296.5 1064,-266.5 879,-266.5"/>
<text text-anchor="start" x="887" y="-284.5" font-family="Helvetica,sans-Serif" font-size="10.00">nars.inference.RuleTables.detachment</text>
<text text-anchor="middle" x="971.5" y="-273.5" font-family="Helvetica,sans-Serif" font-size="10.00">WithVar</text>
</a>
</g>
</g>
<!-- Node567&#45;&gt;Node578 -->
<g id="edge13" class="edge"><title>Node567&#45;&gt;Node578</title>
<path fill="none" stroke="midnightblue" d="M609.044,-251.477C627.033,-254.897 646.123,-258.156 664,-260.5 735.79,-269.913 817.628,-275.248 878.671,-278.183"/>
<polygon fill="midnightblue" stroke="midnightblue" points="609.661,-248.032 599.178,-249.566 608.33,-254.904 609.661,-248.032"/>
</g>
<!-- Node569 -->
<g id="node5" class="node"><title>Node569</title>
<g id="a_node5"><a xlink:href="../../dc/ded/a00252.html#ac2d01dfdc40bdd47c757cb549217e6e3" target="_top" xlink:title="Entry point of the inference engine. ">
<polygon fill="none" stroke="black" points="1350,-345 1350,-364 1513,-364 1513,-345 1350,-345"/>
<text text-anchor="middle" x="1431.5" y="-352" font-family="Helvetica,sans-Serif" font-size="10.00">nars.inference.RuleTables.reason</text>
</a>
</g>
</g>
<!-- Node568&#45;&gt;Node569 -->
<g id="edge4" class="edge"><title>Node568&#45;&gt;Node569</title>
<path fill="none" stroke="midnightblue" d="M853.621,-227.917C964.533,-221.621 1148.18,-221.193 1297,-269.5 1347.7,-285.957 1398.22,-326.285 1419.72,-344.854"/>
<polygon fill="midnightblue" stroke="midnightblue" points="853.224,-224.435 843.449,-228.523 853.64,-231.422 853.224,-224.435"/>
</g>
<!-- Node570 -->
<g id="node6" class="node"><title>Node570</title>
<g id="a_node6"><a xlink:href="../../d7/ded/a00196.html#ad6fb91dda799c3092ecb186ef24ca92a" target="_top" xlink:title="An atomic step in a concept, only called in Memory# processConcept. ">
<polygon fill="none" stroke="black" points="1566,-293.5 1566,-323.5 1685,-323.5 1685,-293.5 1566,-293.5"/>
<text text-anchor="start" x="1574" y="-311.5" font-family="Helvetica,sans-Serif" font-size="10.00">nars.entity.Concept.fire</text>
<text text-anchor="middle" x="1625.5" y="-300.5" font-family="Helvetica,sans-Serif" font-size="10.00">FromProcessConcept</text>
</a>
</g>
</g>
<!-- Node569&#45;&gt;Node570 -->
<g id="edge5" class="edge"><title>Node569&#45;&gt;Node570</title>
<path fill="none" stroke="midnightblue" d="M1482.14,-342.608C1507.71,-336.482 1539.05,-328.972 1565.81,-322.56"/>
<polygon fill="midnightblue" stroke="midnightblue" points="1481.19,-339.235 1472.28,-344.969 1482.82,-346.042 1481.19,-339.235"/>
</g>
<!-- Node571 -->
<g id="node7" class="node"><title>Node571</title>
<g id="a_node7"><a xlink:href="../../d4/d27/a00392.html#a0acc4adbf6a2462245da46bcb529746c" target="_top" xlink:title="Select a concept to fireFromProcessConcept. ">
<polygon fill="none" stroke="black" points="1721,-293.5 1721,-323.5 1867,-323.5 1867,-293.5 1721,-293.5"/>
<text text-anchor="start" x="1729" y="-311.5" font-family="Helvetica,sans-Serif" font-size="10.00">nars.storage.Memory.process</text>
<text text-anchor="middle" x="1794" y="-300.5" font-family="Helvetica,sans-Serif" font-size="10.00">Concept</text>
</a>
</g>
</g>
<!-- Node570&#45;&gt;Node571 -->
<g id="edge6" class="edge"><title>Node570&#45;&gt;Node571</title>
<path fill="none" stroke="midnightblue" d="M1695.34,-308.5C1703.75,-308.5 1712.36,-308.5 1720.82,-308.5"/>
<polygon fill="midnightblue" stroke="midnightblue" points="1695.2,-305 1685.2,-308.5 1695.2,-312 1695.2,-305"/>
</g>
<!-- Node572 -->
<g id="node8" class="node"><title>Node572</title>
<g id="a_node8"><a xlink:href="../../d4/d27/a00392.html#a59ae339d666409988d90d29be4f73a91" target="_top" xlink:title="An atomic working workCycle of the system: process new Tasks, then fireFromProcessConcept a concept...">
<polygon fill="none" stroke="black" points="1903,-293.5 1903,-323.5 2036,-323.5 2036,-293.5 1903,-293.5"/>
<text text-anchor="start" x="1911" y="-311.5" font-family="Helvetica,sans-Serif" font-size="10.00">nars.storage.Memory.work</text>
<text text-anchor="middle" x="1969.5" y="-300.5" font-family="Helvetica,sans-Serif" font-size="10.00">Cycle</text>
</a>
</g>
</g>
<!-- Node571&#45;&gt;Node572 -->
<g id="edge7" class="edge"><title>Node571&#45;&gt;Node572</title>
<path fill="none" stroke="midnightblue" d="M1877.12,-308.5C1885.72,-308.5 1894.37,-308.5 1902.76,-308.5"/>
<polygon fill="midnightblue" stroke="midnightblue" points="1877.07,-305 1867.07,-308.5 1877.07,-312 1877.07,-305"/>
</g>
<!-- Node573 -->
<g id="node9" class="node"><title>Node573</title>
<g id="a_node9"><a xlink:href="../../df/d15/a00416.html#a0d5c797dc17d9e8d0998852915e0f303" target="_top" xlink:title="nars.storage.ReasonerBatch.doTick">
<polygon fill="none" stroke="black" points="2072,-299 2072,-318 2245,-318 2245,-299 2072,-299"/>
<text text-anchor="middle" x="2158.5" y="-306" font-family="Helvetica,sans-Serif" font-size="10.00">nars.storage.ReasonerBatch.doTick</text>
</a>
</g>
</g>
<!-- Node572&#45;&gt;Node573 -->
<g id="edge8" class="edge"><title>Node572&#45;&gt;Node573</title>
<path fill="none" stroke="midnightblue" d="M2046.34,-308.5C2054.78,-308.5 2063.42,-308.5 2071.97,-308.5"/>
<polygon fill="midnightblue" stroke="midnightblue" points="2046.17,-305 2036.17,-308.5 2046.17,-312 2046.17,-305"/>
</g>
<!-- Node574 -->
<g id="node10" class="node"><title>Node574</title>
<g id="a_node10"><a xlink:href="../../df/d15/a00416.html#a3468aa0f99edcd66412f27922dddb880" target="_top" xlink:title="A clock tick. ">
<polygon fill="none" stroke="black" points="2281,-299 2281,-318 2441,-318 2441,-299 2281,-299"/>
<text text-anchor="middle" x="2361" y="-306" font-family="Helvetica,sans-Serif" font-size="10.00">nars.storage.ReasonerBatch.tick</text>
</a>
</g>
</g>
<!-- Node573&#45;&gt;Node574 -->
<g id="edge9" class="edge"><title>Node573&#45;&gt;Node574</title>
<path fill="none" stroke="midnightblue" d="M2255.13,-308.5C2263.7,-308.5 2272.31,-308.5 2280.71,-308.5"/>
<polygon fill="midnightblue" stroke="midnightblue" points="2255.11,-305 2245.11,-308.5 2255.11,-312 2255.11,-305"/>
</g>
<!-- Node575 -->
<g id="node11" class="node"><title>Node575</title>
<g id="a_node11"><a xlink:href="../../d9/da1/a00396.html#a5d9cfe517bcfbe41e5251910bcd119c1" target="_top" xlink:title="Run to completion: repeatedly execute NARS working cycle, until Inputs are Finished, or 1000 steps. ">
<polygon fill="none" stroke="black" points="2477,-299 2477,-318 2621,-318 2621,-299 2477,-299"/>
<text text-anchor="middle" x="2549" y="-306" font-family="Helvetica,sans-Serif" font-size="10.00">nars.storage.NARSBatch.run</text>
</a>
</g>
</g>
<!-- Node574&#45;&gt;Node575 -->
<g id="edge10" class="edge"><title>Node574&#45;&gt;Node575</title>
<path fill="none" stroke="midnightblue" d="M2451.22,-308.5C2459.82,-308.5 2468.47,-308.5 2476.87,-308.5"/>
<polygon fill="midnightblue" stroke="midnightblue" points="2451.15,-305 2441.15,-308.5 2451.15,-312 2451.15,-305"/>
</g>
<!-- Node576 -->
<g id="node12" class="node"><title>Node576</title>
<g id="a_node12"><a xlink:href="../../d9/da1/a00396.html#a7c307c6b842f82664de6b0e52bdf8efc" target="_top" xlink:title="non&#45;static equivalent to main(String[]) : run to completion from an input file ">
<polygon fill="none" stroke="black" points="2657,-293.5 2657,-323.5 2801,-323.5 2801,-293.5 2657,-293.5"/>
<text text-anchor="start" x="2665" y="-311.5" font-family="Helvetica,sans-Serif" font-size="10.00">nars.storage.NARSBatch.run</text>
<text text-anchor="middle" x="2729" y="-300.5" font-family="Helvetica,sans-Serif" font-size="10.00">Inference</text>
</a>
</g>
</g>
<!-- Node575&#45;&gt;Node576 -->
<g id="edge11" class="edge"><title>Node575&#45;&gt;Node576</title>
<path fill="none" stroke="midnightblue" d="M2631.17,-308.5C2639.79,-308.5 2648.51,-308.5 2657,-308.5"/>
<polygon fill="midnightblue" stroke="midnightblue" points="2631.12,-305 2621.12,-308.5 2631.12,-312 2631.12,-305"/>
</g>
<!-- Node577 -->
<g id="node13" class="node"><title>Node577</title>
<g id="a_node13"><a xlink:href="../../d9/da1/a00396.html#abafc597289bc2f6453b5cd0dd6634e54" target="_top" xlink:title="The entry point of the standalone application. ">
<polygon fill="none" stroke="black" points="2837,-299 2837,-318 2989,-318 2989,-299 2837,-299"/>
<text text-anchor="middle" x="2913" y="-306" font-family="Helvetica,sans-Serif" font-size="10.00">nars.storage.NARSBatch.main</text>
</a>
</g>
</g>
<!-- Node576&#45;&gt;Node577 -->
<g id="edge12" class="edge"><title>Node576&#45;&gt;Node577</title>
<path fill="none" stroke="midnightblue" d="M2811.17,-308.5C2819.76,-308.5 2828.48,-308.5 2837,-308.5"/>
<polygon fill="midnightblue" stroke="midnightblue" points="2811.15,-305 2801.15,-308.5 2811.15,-312 2811.15,-305"/>
</g>
<!-- Node579 -->
<g id="node15" class="node"><title>Node579</title>
<g id="a_node15"><a xlink:href="../../dc/ded/a00252.html#a8628d400a8ceda7fea05039ddfea319b" target="_top" xlink:title="Meta&#45;table of syllogistic rules, indexed by the content classes of the taskSentence and the belief...">
<polygon fill="none" stroke="black" points="1108.5,-279 1108.5,-298 1288.5,-298 1288.5,-279 1108.5,-279"/>
<text text-anchor="middle" x="1198.5" y="-286" font-family="Helvetica,sans-Serif" font-size="10.00">nars.inference.RuleTables.syllogisms</text>
</a>
</g>
</g>
<!-- Node578&#45;&gt;Node579 -->
<g id="edge14" class="edge"><title>Node578&#45;&gt;Node579</title>
<path fill="none" stroke="midnightblue" d="M1074.35,-284.669C1085.66,-285.02 1097.11,-285.377 1108.25,-285.723"/>
<polygon fill="midnightblue" stroke="midnightblue" points="1074.12,-281.16 1064.02,-284.347 1073.9,-288.157 1074.12,-281.16"/>
</g>
<!-- Node579&#45;&gt;Node569 -->
<g id="edge15" class="edge"><title>Node579&#45;&gt;Node569</title>
<path fill="none" stroke="midnightblue" d="M1265.76,-300.057C1276.27,-302.279 1286.97,-304.774 1297,-307.5 1336.12,-318.138 1380.27,-334.587 1406.72,-344.938"/>
<polygon fill="midnightblue" stroke="midnightblue" points="1266.26,-296.588 1255.77,-298.011 1264.86,-303.446 1266.26,-296.588"/>
</g>
<!-- Node581 -->
<g id="node17" class="node"><title>Node581</title>
<g id="a_node17"><a xlink:href="../../d8/d0a/a00292.html#a5c31494d6f7862dcf15a4d5716b6200e" target="_top" xlink:title="Top&#45;level method that parse a Term in general, which may recursively call itself. ...">
<polygon fill="none" stroke="black" points="453.5,-55 453.5,-74 605.5,-74 605.5,-55 453.5,-55"/>
<text text-anchor="middle" x="529.5" y="-62" font-family="Helvetica,sans-Serif" font-size="10.00">nars.io.StringParser.parseTerm</text>
</a>
</g>
</g>
<!-- Node580&#45;&gt;Node581 -->
<g id="edge17" class="edge"><title>Node580&#45;&gt;Node581</title>
<path fill="none" stroke="midnightblue" d="M379.178,-93.8967C412.393,-87.3578 450.619,-79.8323 480.079,-74.0325"/>
<polygon fill="midnightblue" stroke="midnightblue" points="378.182,-90.5256 369.046,-95.8914 379.534,-97.3938 378.182,-90.5256"/>
</g>
<!-- Node582 -->
<g id="node18" class="node"><title>Node582</title>
<g id="a_node18"><a xlink:href="../../d8/d0a/a00292.html#a9b9bc5f94ac6aaa86c3d9c2bcd21c332" target="_top" xlink:title="Parse a String into the argument get of a CompoundTerm. ">
<polygon fill="none" stroke="black" points="688.5,-93.5 688.5,-123.5 818.5,-123.5 818.5,-93.5 688.5,-93.5"/>
<text text-anchor="start" x="696.5" y="-111.5" font-family="Helvetica,sans-Serif" font-size="10.00">nars.io.StringParser.parse</text>
<text text-anchor="middle" x="753.5" y="-100.5" font-family="Helvetica,sans-Serif" font-size="10.00">Arguments</text>
</a>
</g>
</g>
<!-- Node581&#45;&gt;Node582 -->
<g id="edge18" class="edge"><title>Node581&#45;&gt;Node582</title>
<path fill="none" stroke="midnightblue" d="M615.833,-74.8258C646.179,-80.4486 679.234,-87.3144 705.233,-93.4884"/>
<polygon fill="midnightblue" stroke="midnightblue" points="616.125,-71.3214 605.659,-72.9694 614.868,-78.2077 616.125,-71.3214"/>
</g>
<!-- Node583 -->
<g id="node19" class="node"><title>Node583</title>
<g id="a_node19"><a xlink:href="../../d8/d0a/a00292.html#a7c129938c8d721e3db0a9804988f0588" target="_top" xlink:title="Parse a String to create a Statement. ">
<polygon fill="none" stroke="black" points="688.5,-44.5 688.5,-74.5 818.5,-74.5 818.5,-44.5 688.5,-44.5"/>
<text text-anchor="start" x="696.5" y="-62.5" font-family="Helvetica,sans-Serif" font-size="10.00">nars.io.StringParser.parse</text>
<text text-anchor="middle" x="753.5" y="-51.5" font-family="Helvetica,sans-Serif" font-size="10.00">Statement</text>
</a>
</g>
</g>
<!-- Node581&#45;&gt;Node583 -->
<g id="edge21" class="edge"><title>Node581&#45;&gt;Node583</title>
<path fill="none" stroke="midnightblue" d="M615.839,-55.9909C639.866,-55.1396 665.591,-54.6928 688.167,-54.7599"/>
<polygon fill="midnightblue" stroke="midnightblue" points="615.518,-52.5005 605.659,-56.3802 615.786,-59.4954 615.518,-52.5005"/>
</g>
<!-- Node584 -->
<g id="node20" class="node"><title>Node584</title>
<g id="a_node20"><a xlink:href="../../d8/d0a/a00292.html#a75b446999d71c676a9915ecc75077a7d" target="_top" xlink:title="Enter a new Task in String into the memory, called from InputWindow or locally. ">
<polygon fill="none" stroke="black" points="677.5,-6 677.5,-25 829.5,-25 829.5,-6 677.5,-6"/>
<text text-anchor="middle" x="753.5" y="-13" font-family="Helvetica,sans-Serif" font-size="10.00">nars.io.StringParser.parseTask</text>
</a>
</g>
</g>
<!-- Node581&#45;&gt;Node584 -->
<g id="edge23" class="edge"><title>Node581&#45;&gt;Node584</title>
<path fill="none" stroke="midnightblue" d="M582.452,-52.7043C607.144,-47.1288 637.082,-40.4138 664,-34.5 678.121,-31.3977 693.522,-28.0713 707.46,-25.0826"/>
<polygon fill="midnightblue" stroke="midnightblue" points="581.548,-49.3202 572.566,-54.9388 583.091,-56.1479 581.548,-49.3202"/>
</g>
<!-- Node582&#45;&gt;Node580 -->
<g id="edge19" class="edge"><title>Node582&#45;&gt;Node580</title>
<path fill="none" stroke="midnightblue" d="M677.886,-108.5C591.526,-108.5 450.746,-108.5 369.116,-108.5"/>
<polygon fill="midnightblue" stroke="midnightblue" points="678.14,-112 688.14,-108.5 678.14,-105 678.14,-112"/>
</g>
<!-- Node582&#45;&gt;Node581 -->
<g id="edge20" class="edge"><title>Node582&#45;&gt;Node581</title>
<path fill="none" stroke="midnightblue" d="M678.127,-100.172C635.852,-92.6 585.594,-81.9996 555.966,-74.0413"/>
<polygon fill="midnightblue" stroke="midnightblue" points="677.67,-103.645 688.125,-101.931 678.883,-96.7508 677.67,-103.645"/>
</g>
<!-- Node583&#45;&gt;Node581 -->
<g id="edge22" class="edge"><title>Node583&#45;&gt;Node581</title>
<path fill="none" stroke="midnightblue" d="M678,-67.5925C654.706,-68.5602 628.998,-69.1433 605.659,-69.2342"/>
<polygon fill="midnightblue" stroke="midnightblue" points="678.334,-71.0812 688.167,-67.138 678.021,-64.0882 678.334,-71.0812"/>
</g>
<!-- Node585 -->
<g id="node21" class="node"><title>Node585</title>
<g id="a_node21"><a xlink:href="../../df/d15/a00416.html#a4766dfcaabdf586d60b9ac9827e41cad" target="_top" xlink:title="Parse a line of input experience. ">
<polygon fill="none" stroke="black" points="887.5,-0.5 887.5,-30.5 1055.5,-30.5 1055.5,-0.5 887.5,-0.5"/>
<text text-anchor="start" x="895.5" y="-18.5" font-family="Helvetica,sans-Serif" font-size="10.00">nars.storage.ReasonerBatch.parse</text>
<text text-anchor="middle" x="971.5" y="-7.5" font-family="Helvetica,sans-Serif" font-size="10.00">Experience</text>
</a>
</g>
</g>
<!-- Node584&#45;&gt;Node585 -->
<g id="edge24" class="edge"><title>Node584&#45;&gt;Node585</title>
<path fill="none" stroke="midnightblue" d="M839.909,-15.5C855.547,-15.5 871.846,-15.5 887.414,-15.5"/>
<polygon fill="midnightblue" stroke="midnightblue" points="839.743,-12.0001 829.743,-15.5 839.743,-19.0001 839.743,-12.0001"/>
</g>
<!-- Node586 -->
<g id="node22" class="node"><title>Node586</title>
<g id="a_node22"><a xlink:href="../../df/d15/a00416.html#a1823f1575021b1ca67e6174923923fbb" target="_top" xlink:title="To process a line of input text. ">
<polygon fill="none" stroke="black" points="1118,-0.5 1118,-30.5 1279,-30.5 1279,-0.5 1118,-0.5"/>
<text text-anchor="start" x="1126" y="-18.5" font-family="Helvetica,sans-Serif" font-size="10.00">nars.storage.ReasonerBatch.text</text>
<text text-anchor="middle" x="1198.5" y="-7.5" font-family="Helvetica,sans-Serif" font-size="10.00">InputLine</text>
</a>
</g>
</g>
<!-- Node585&#45;&gt;Node586 -->
<g id="edge25" class="edge"><title>Node585&#45;&gt;Node586</title>
<path fill="none" stroke="midnightblue" d="M1065.72,-15.5C1082.98,-15.5 1100.87,-15.5 1117.69,-15.5"/>
<polygon fill="midnightblue" stroke="midnightblue" points="1065.64,-12.0001 1055.64,-15.5 1065.64,-19.0001 1065.64,-12.0001"/>
</g>
<!-- Node587 -->
<g id="node23" class="node"><title>Node587</title>
<g id="a_node23"><a xlink:href="../../d9/dd6/a00272.html#a1a4b66a6e6cf89d5c2ea7a5923195247" target="_top" xlink:title="Process the next chunk of input data TODO duplicated code with InputWindow#nextInput(). ">
<polygon fill="none" stroke="black" points="1356,-0.5 1356,-30.5 1507,-30.5 1507,-0.5 1356,-0.5"/>
<text text-anchor="start" x="1364" y="-18.5" font-family="Helvetica,sans-Serif" font-size="10.00">nars.io.ExperienceReader.next</text>
<text text-anchor="middle" x="1431.5" y="-7.5" font-family="Helvetica,sans-Serif" font-size="10.00">Input</text>
</a>
</g>
</g>
<!-- Node586&#45;&gt;Node587 -->
<g id="edge26" class="edge"><title>Node586&#45;&gt;Node587</title>
<path fill="none" stroke="midnightblue" d="M1289.61,-15.5C1311.49,-15.5 1334.64,-15.5 1355.73,-15.5"/>
<polygon fill="midnightblue" stroke="midnightblue" points="1289.32,-12.0001 1279.32,-15.5 1289.32,-19.0001 1289.32,-12.0001"/>
</g>
<!-- Node589 -->
<g id="node25" class="node"><title>Node589</title>
<g id="a_node25"><a xlink:href="../../d6/d08/a00244.html#a4479c479bb3ceeb78130e03ce5e3f293" target="_top" xlink:title="{&lt;(S|P) ==&gt; M&gt;, ">
<polygon fill="none" stroke="black" points="458,-317.5 458,-347.5 601,-347.5 601,-317.5 458,-317.5"/>
<text text-anchor="start" x="466" y="-335.5" font-family="Helvetica,sans-Serif" font-size="10.00">nars.inference.Compositional</text>
<text text-anchor="middle" x="529.5" y="-324.5" font-family="Helvetica,sans-Serif" font-size="10.00">Rules.decomposeCompound</text>
</a>
</g>
</g>
<!-- Node588&#45;&gt;Node589 -->
<g id="edge28" class="edge"><title>Node588&#45;&gt;Node589</title>
<path fill="none" stroke="midnightblue" d="M405.588,-332.5C423.223,-332.5 441.232,-332.5 457.836,-332.5"/>
<polygon fill="midnightblue" stroke="midnightblue" points="405.262,-329 395.262,-332.5 405.262,-336 405.262,-329"/>
</g>
<!-- Node592 -->
<g id="node28" class="node"><title>Node592</title>
<g id="a_node28"><a xlink:href="../../dc/ded/a00252.html#af34ec4e0da91e9422e25afd45af26559" target="_top" xlink:title="{(&amp;&amp;, &lt;#x() &#45;&#45;&gt; S&gt;, &lt;#x() &#45;&#45;&gt; P&gt;&gt;, &lt;M &#45;&#45;&gt; P&gt;} |&#45; &lt;M &#45;&#45;&gt; S&gt; ">
<polygon fill="none" stroke="black" points="452.5,-268.5 452.5,-298.5 606.5,-298.5 606.5,-268.5 452.5,-268.5"/>
<text text-anchor="start" x="460.5" y="-286.5" font-family="Helvetica,sans-Serif" font-size="10.00">nars.inference.RuleTables.elimi</text>
<text text-anchor="middle" x="529.5" y="-275.5" font-family="Helvetica,sans-Serif" font-size="10.00">VarDep</text>
</a>
</g>
</g>
<!-- Node588&#45;&gt;Node592 -->
<g id="edge32" class="edge"><title>Node588&#45;&gt;Node592</title>
<path fill="none" stroke="midnightblue" d="M383.386,-315.315C408.379,-309.835 435.823,-303.818 460.053,-298.506"/>
<polygon fill="midnightblue" stroke="midnightblue" points="382.595,-311.905 373.576,-317.465 384.094,-318.743 382.595,-311.905"/>
</g>
<!-- Node593 -->
<g id="node29" class="node"><title>Node593</title>
<g id="a_node29"><a xlink:href="../../dc/ded/a00252.html#ae7ff6eab9dca18af37064bc609eaf63c" target="_top" xlink:title="{&lt;(&amp;&amp;, S2, S3) ==&gt; P&gt;, &lt;(&amp;&amp;, S1, S3) ==&gt; P&gt;} |&#45; &lt;S1 ==&gt; S2&gt; ">
<polygon fill="none" stroke="black" points="431,-367 431,-386 628,-386 628,-367 431,-367"/>
<text text-anchor="middle" x="529.5" y="-374" font-family="Helvetica,sans-Serif" font-size="10.00">nars.inference.RuleTables.conditionalAbd</text>
</a>
</g>
</g>
<!-- Node588&#45;&gt;Node593 -->
<g id="edge34" class="edge"><title>Node588&#45;&gt;Node593</title>
<path fill="none" stroke="midnightblue" d="M391.397,-349.509C421.53,-355.441 454.26,-361.884 480.181,-366.988"/>
<polygon fill="midnightblue" stroke="midnightblue" points="391.779,-346.017 381.291,-347.519 390.426,-352.885 391.779,-346.017"/>
</g>
<!-- Node594 -->
<g id="node30" class="node"><title>Node594</title>
<g id="a_node30"><a xlink:href="../../dc/ded/a00252.html#a000d25cc642aeb730ec57f80fcddd16d" target="_top" xlink:title="{(||, S, P), P} |&#45; S {(&amp;&amp;, S, P), P} |&#45; S ">
<polygon fill="none" stroke="black" points="437.5,-405.5 437.5,-435.5 621.5,-435.5 621.5,-405.5 437.5,-405.5"/>
<text text-anchor="start" x="445.5" y="-423.5" font-family="Helvetica,sans-Serif" font-size="10.00">nars.inference.RuleTables.decompose</text>
<text text-anchor="middle" x="529.5" y="-412.5" font-family="Helvetica,sans-Serif" font-size="10.00">Statement</text>
</a>
</g>
</g>
<!-- Node588&#45;&gt;Node594 -->
<g id="edge36" class="edge"><title>Node588&#45;&gt;Node594</title>
<path fill="none" stroke="midnightblue" d="M340.302,-352.695C365.075,-366.228 399.306,-383.667 431,-395.5 440.904,-399.198 451.573,-402.544 462.091,-405.499"/>
<polygon fill="midnightblue" stroke="midnightblue" points="341.742,-349.492 331.296,-347.72 338.357,-355.619 341.742,-349.492"/>
</g>
<!-- Node590 -->
<g id="node26" class="node"><title>Node590</title>
<g id="a_node26"><a xlink:href="../../d6/d08/a00244.html#a53f7edf7bfe7433da42e8fcf36fd6604" target="_top" xlink:title="{&lt;S ==&gt; M&gt;, ">
<polygon fill="none" stroke="black" points="682,-317.5 682,-347.5 825,-347.5 825,-317.5 682,-317.5"/>
<text text-anchor="start" x="690" y="-335.5" font-family="Helvetica,sans-Serif" font-size="10.00">nars.inference.Compositional</text>
<text text-anchor="middle" x="753.5" y="-324.5" font-family="Helvetica,sans-Serif" font-size="10.00">Rules.composeCompound</text>
</a>
</g>
</g>
<!-- Node589&#45;&gt;Node590 -->
<g id="edge29" class="edge"><title>Node589&#45;&gt;Node590</title>
<path fill="none" stroke="midnightblue" d="M611.168,-332.5C634.279,-332.5 659.289,-332.5 681.755,-332.5"/>
<polygon fill="midnightblue" stroke="midnightblue" points="611.047,-329 601.047,-332.5 611.047,-336 611.047,-329"/>
</g>
<!-- Node591 -->
<g id="node27" class="node"><title>Node591</title>
<g id="a_node27"><a xlink:href="../../dc/ded/a00252.html#a34927349efcf87db97d23c60983b115b" target="_top" xlink:title="Syllogistic rules whose both premises are on the same asymmetric relation. ">
<polygon fill="none" stroke="black" points="879,-316.5 879,-346.5 1064,-346.5 1064,-316.5 879,-316.5"/>
<text text-anchor="start" x="887" y="-334.5" font-family="Helvetica,sans-Serif" font-size="10.00">nars.inference.RuleTables.asymmetric</text>
<text text-anchor="middle" x="971.5" y="-323.5" font-family="Helvetica,sans-Serif" font-size="10.00">Asymmetric</text>
</a>
</g>
</g>
<!-- Node590&#45;&gt;Node591 -->
<g id="edge30" class="edge"><title>Node590&#45;&gt;Node591</title>
<path fill="none" stroke="midnightblue" d="M835.395,-332.125C849.541,-332.06 864.35,-331.991 878.764,-331.925"/>
<polygon fill="midnightblue" stroke="midnightblue" points="835.21,-328.626 825.226,-332.173 835.243,-335.626 835.21,-328.626"/>
</g>
<!-- Node591&#45;&gt;Node579 -->
<g id="edge31" class="edge"><title>Node591&#45;&gt;Node579</title>
<path fill="none" stroke="midnightblue" d="M1061.08,-314.572C1090.51,-308.947 1122.23,-302.885 1147.67,-298.022"/>
<polygon fill="midnightblue" stroke="midnightblue" points="1060.36,-311.146 1051.19,-316.461 1061.67,-318.021 1060.36,-311.146"/>
</g>
<!-- Node592&#45;&gt;Node568 -->
<g id="edge33" class="edge"><title>Node592&#45;&gt;Node568</title>
<path fill="none" stroke="midnightblue" d="M611.416,-266.369C634.39,-261.505 659.224,-256.248 681.559,-251.519"/>
<polygon fill="midnightblue" stroke="midnightblue" points="610.411,-263.004 601.353,-268.5 611.861,-269.853 610.411,-263.004"/>
</g>
<!-- Node593&#45;&gt;Node591 -->
<g id="edge35" class="edge"><title>Node593&#45;&gt;Node591</title>
<path fill="none" stroke="midnightblue" d="M638.593,-373.037C698.925,-370.238 775.343,-365.261 843,-356.5 862.462,-353.98 883.421,-350.285 902.613,-346.506"/>
<polygon fill="midnightblue" stroke="midnightblue" points="638.12,-369.554 628.288,-373.501 638.435,-376.547 638.12,-369.554"/>
</g>
<!-- Node595 -->
<g id="node31" class="node"><title>Node595</title>
<g id="a_node31"><a xlink:href="../../dc/ded/a00252.html#a00ffbf7a9069cfd135acae4b46d78d05" target="_top" xlink:title="Inference between a compound term and a component of it. ">
<polygon fill="none" stroke="black" points="882,-365.5 882,-395.5 1061,-395.5 1061,-365.5 882,-365.5"/>
<text text-anchor="start" x="890" y="-383.5" font-family="Helvetica,sans-Serif" font-size="10.00">nars.inference.RuleTables.compound</text>
<text text-anchor="middle" x="971.5" y="-372.5" font-family="Helvetica,sans-Serif" font-size="10.00">AndSelf</text>
</a>
</g>
</g>
<!-- Node594&#45;&gt;Node595 -->
<g id="edge37" class="edge"><title>Node594&#45;&gt;Node595</title>
<path fill="none" stroke="midnightblue" d="M631.672,-411.303C707.174,-404.439 809.353,-395.15 881.704,-388.572"/>
<polygon fill="midnightblue" stroke="midnightblue" points="631.31,-407.821 621.668,-412.212 631.944,-414.792 631.31,-407.821"/>
</g>
<!-- Node595&#45;&gt;Node569 -->
<g id="edge40" class="edge"><title>Node595&#45;&gt;Node569</title>
<path fill="none" stroke="midnightblue" d="M1071.31,-374.891C1154.56,-370.165 1272.19,-363.487 1349.85,-359.078"/>
<polygon fill="midnightblue" stroke="midnightblue" points="1070.86,-371.41 1061.08,-375.472 1071.26,-378.399 1070.86,-371.41"/>
</g>
<!-- Node596 -->
<g id="node32" class="node"><title>Node596</title>
<g id="a_node32"><a xlink:href="../../dc/ded/a00252.html#a764dbc9ccccf406df45e09fbfeda928f" target="_top" xlink:title="Inference between two compound terms. ">
<polygon fill="none" stroke="black" points="1109,-317.5 1109,-347.5 1288,-347.5 1288,-317.5 1109,-317.5"/>
<text text-anchor="start" x="1117" y="-335.5" font-family="Helvetica,sans-Serif" font-size="10.00">nars.inference.RuleTables.compound</text>
<text text-anchor="middle" x="1198.5" y="-324.5" font-family="Helvetica,sans-Serif" font-size="10.00">AndCompound</text>
</a>
</g>
</g>
<!-- Node595&#45;&gt;Node596 -->
<g id="edge38" class="edge"><title>Node595&#45;&gt;Node596</title>
<path fill="none" stroke="midnightblue" d="M1052.96,-363.335C1077.22,-358.161 1103.64,-352.524 1127.18,-347.502"/>
<polygon fill="midnightblue" stroke="midnightblue" points="1052.12,-359.935 1043.07,-365.444 1053.58,-366.781 1052.12,-359.935"/>
</g>
<!-- Node596&#45;&gt;Node569 -->
<g id="edge39" class="edge"><title>Node596&#45;&gt;Node569</title>
<path fill="none" stroke="midnightblue" d="M1298.19,-341.899C1315.36,-343.534 1333.04,-345.218 1349.66,-346.801"/>
<polygon fill="midnightblue" stroke="midnightblue" points="1298.44,-338.407 1288.15,-340.943 1297.77,-345.375 1298.44,-338.407"/>
</g>
<!-- Node598 -->
<g id="node34" class="node"><title>Node598</title>
<g id="a_node34"><a xlink:href="../../dc/ded/a00252.html#aac2b267fcfa9bb34e03d44a410bfd92b" target="_top" xlink:title="{&lt;(&amp;&amp;, S1, S2) &lt;=&gt; P&gt;, (&amp;&amp;, S1, S2)} |&#45; P ">
<polygon fill="none" stroke="black" points="1100,-493 1100,-512 1297,-512 1297,-493 1100,-493"/>
<text text-anchor="middle" x="1198.5" y="-500" font-family="Helvetica,sans-Serif" font-size="10.00">nars.inference.RuleTables.conditionalAna</text>
</a>
</g>
</g>
<!-- Node597&#45;&gt;Node598 -->
<g id="edge42" class="edge"><title>Node597&#45;&gt;Node598</title>
<path fill="none" stroke="midnightblue" d="M847.272,-479.616C857.952,-481.072 868.702,-482.409 879,-483.5 952.814,-491.317 1036.62,-496.157 1099.73,-498.994"/>
<polygon fill="midnightblue" stroke="midnightblue" points="847.458,-476.108 837.069,-478.189 846.488,-483.041 847.458,-476.108"/>
</g>
<!-- Node599 -->
<g id="node35" class="node"><title>Node599</title>
<g id="a_node35"><a xlink:href="../../dc/ded/a00252.html#a52bb3626302eb9f10567c24ec5dbc934" target="_top" xlink:title="{&lt;(&amp;&amp;, S1, S2, S3) ==&gt; P&gt;, S1} |&#45; &lt;(&amp;&amp;, S2, S3) ==&gt; P&gt; {&lt;(&amp;&amp;, S2, S3) ==&gt; P&gt;, &lt;S1 ==&gt; S2&gt;} |&#45; &lt;(&amp;&amp;...">
<polygon fill="none" stroke="black" points="881.5,-443.5 881.5,-473.5 1061.5,-473.5 1061.5,-443.5 881.5,-443.5"/>
<text text-anchor="start" x="889.5" y="-461.5" font-family="Helvetica,sans-Serif" font-size="10.00">nars.inference.RuleTables.conditional</text>
<text text-anchor="middle" x="971.5" y="-450.5" font-family="Helvetica,sans-Serif" font-size="10.00">DedInd</text>
</a>
</g>
</g>
<!-- Node597&#45;&gt;Node599 -->
<g id="edge44" class="edge"><title>Node597&#45;&gt;Node599</title>
<path fill="none" stroke="midnightblue" d="M847.394,-461.92C858.704,-461.605 870.24,-461.285 881.491,-460.972"/>
<polygon fill="midnightblue" stroke="midnightblue" points="846.984,-458.43 837.085,-462.206 847.178,-465.427 846.984,-458.43"/>
</g>
<!-- Node598&#45;&gt;Node569 -->
<g id="edge43" class="edge"><title>Node598&#45;&gt;Node569</title>
<path fill="none" stroke="midnightblue" d="M1268.61,-490.156C1278.44,-487.077 1288.2,-483.251 1297,-478.5 1353.51,-448 1404.34,-387.9 1422.97,-364.322"/>
<polygon fill="midnightblue" stroke="midnightblue" points="1267.41,-486.857 1258.77,-492.991 1269.35,-493.583 1267.41,-486.857"/>
</g>
<!-- Node599&#45;&gt;Node569 -->
<g id="edge47" class="edge"><title>Node599&#45;&gt;Node569</title>
<path fill="none" stroke="midnightblue" d="M1071.94,-468.488C1137.5,-471.717 1224.33,-469.514 1297,-445.5 1349.47,-428.161 1400.24,-383.62 1420.86,-364.01"/>
<polygon fill="midnightblue" stroke="midnightblue" points="1071.79,-464.974 1061.61,-467.925 1071.41,-471.964 1071.79,-464.974"/>
</g>
<!-- Node600 -->
<g id="node36" class="node"><title>Node600</title>
<g id="a_node36"><a xlink:href="../../dc/ded/a00252.html#aa167c7cb73f540ded591dc584ae623c1" target="_top" xlink:title="Conditional deduction or induction, with variable unification. ">
<polygon fill="none" stroke="black" points="1108.5,-405.5 1108.5,-435.5 1288.5,-435.5 1288.5,-405.5 1108.5,-405.5"/>
<text text-anchor="start" x="1116.5" y="-423.5" font-family="Helvetica,sans-Serif" font-size="10.00">nars.inference.RuleTables.conditional</text>
<text text-anchor="middle" x="1198.5" y="-412.5" font-family="Helvetica,sans-Serif" font-size="10.00">DedIndWithVar</text>
</a>
</g>
</g>
<!-- Node599&#45;&gt;Node600 -->
<g id="edge45" class="edge"><title>Node599&#45;&gt;Node600</title>
<path fill="none" stroke="midnightblue" d="M1071.29,-441.815C1083.67,-439.725 1096.27,-437.597 1108.48,-435.534"/>
<polygon fill="midnightblue" stroke="midnightblue" points="1070.7,-438.365 1061.43,-443.481 1071.87,-445.267 1070.7,-438.365"/>
</g>
<!-- Node600&#45;&gt;Node569 -->
<g id="edge46" class="edge"><title>Node600&#45;&gt;Node569</title>
<path fill="none" stroke="midnightblue" d="M1261.84,-402.689C1305.33,-390.264 1361.67,-374.165 1396.96,-364.082"/>
<polygon fill="midnightblue" stroke="midnightblue" points="1260.86,-399.328 1252.21,-405.441 1262.78,-406.059 1260.86,-399.328"/>
</g>
<!-- Node601&#45;&gt;Node568 -->
<g id="edge49" class="edge"><title>Node601&#45;&gt;Node568</title>
<path fill="none" stroke="midnightblue" d="M380.802,-195.853C446.456,-196.174 543.847,-198.764 628,-209.5 649.5,-212.243 672.784,-216.843 693.336,-221.475"/>
<polygon fill="midnightblue" stroke="midnightblue" points="380.555,-192.353 370.544,-195.82 380.533,-199.353 380.555,-192.353"/>
</g>
<!-- Node603 -->
<g id="node39" class="node"><title>Node603</title>
<g id="a_node39"><a xlink:href="../../dc/ded/a00252.html#ab344d6ccee0f3671b57d092daeb65db4" target="_top" xlink:title="The TaskLink is of type TRANSFORM, and the conclusion is an equivalent transformation. ">
<polygon fill="none" stroke="black" points="1333,-209 1333,-228 1530,-228 1530,-209 1333,-209"/>
<text text-anchor="middle" x="1431.5" y="-216" font-family="Helvetica,sans-Serif" font-size="10.00">nars.inference.RuleTables.transformTask</text>
</a>
</g>
</g>
<!-- Node602&#45;&gt;Node603 -->
<g id="edge51" class="edge"><title>Node602&#45;&gt;Node603</title>
<path fill="none" stroke="midnightblue" d="M1282.43,-189.655C1315.61,-196.119 1352.69,-203.343 1381.45,-208.944"/>
<polygon fill="midnightblue" stroke="midnightblue" points="1282.76,-186.153 1272.27,-187.677 1281.42,-193.024 1282.76,-186.153"/>
</g>
<!-- Node603&#45;&gt;Node570 -->
<g id="edge52" class="edge"><title>Node603&#45;&gt;Node570</title>
<path fill="none" stroke="midnightblue" d="M1462.34,-232.489C1497.61,-249.021 1556.08,-276.426 1592.33,-293.42"/>
<polygon fill="midnightblue" stroke="midnightblue" points="1463.59,-229.207 1453.05,-228.132 1460.62,-235.545 1463.59,-229.207"/>
</g>
</g>
</svg>
