<?xml version="1.0" encoding="UTF-8" standalone="no"?>
<!DOCTYPE svg PUBLIC "-//W3C//DTD SVG 1.1//EN"
 "http://www.w3.org/Graphics/SVG/1.1/DTD/svg11.dtd">
<!-- Generated by graphviz version 2.38.0 (20140413.2041)
 -->
<!-- Title: nars.language.CompoundTerm.containComponent Pages: 1 -->
<!--zoomable 171 -->
<svg id="main" version="1.1" xmlns="http://www.w3.org/2000/svg" xmlns:xlink="http://www.w3.org/1999/xlink" xml:space="preserve" onload="init(evt)">
<style type="text/css"><![CDATA[
.edge:hover path { stroke: red; }
.edge:hover polygon { stroke: red; fill: red; }
]]></style>
<script type="text/javascript"><![CDATA[
var edges = document.getElementsByTagName('g');
if (edges && edges.length) {
  for (var i=0;i<edges.length;i++) {
    if (edges[i].id.substr(0,4)=='edge') {
      edges[i].setAttribute('class','edge');
    }
  }
}
]]></script>
        <defs>
                <circle id="rim" cx="0" cy="0" r="7"/>
                <circle id="rim2" cx="0" cy="0" r="3.5"/>
                <g id="zoomPlus">
                        <use xlink:href="#rim" fill="#404040">
                                <set attributeName="fill" to="#808080" begin="zoomplus.mouseover" end="zoomplus.mouseout"/>
                        </use>
                        <path d="M-4,0h8M0,-4v8" fill="none" stroke="white" stroke-width="1.5" pointer-events="none"/>
                </g>
                <g id="zoomMin">
                        <use xlink:href="#rim" fill="#404040">
                                <set attributeName="fill" to="#808080" begin="zoomminus.mouseover" end="zoomminus.mouseout"/>
                        </use>
                        <path d="M-4,0h8" fill="none" stroke="white" stroke-width="1.5" pointer-events="none"/>
                </g>
                <g id="dirArrow">
                        <path fill="none" stroke="white" stroke-width="1.5" d="M0,-3.0v7 M-2.5,-0.5L0,-3.0L2.5,-0.5"/>
                </g>
               <g id="resetDef">
                       <use xlink:href="#rim2" fill="#404040">
                               <set attributeName="fill" to="#808080" begin="reset.mouseover" end="reset.mouseout"/>
                       </use>
               </g>
        </defs>

<script type="text/javascript">
var viewWidth = 2467;
var viewHeight = 171;
var sectionId = 'dynsection-19';
</script>
<script xlink:href="../../svgpan.js"/>
<svg id="graph" class="graph">
<g id="viewport">
<title>nars.language.CompoundTerm.containComponent</title>
<!-- Node392 -->
<g id="node1" class="node"><title>Node392</title>
<polygon fill="#bfbfbf" stroke="black" points="0,-66.5 0,-96.5 185,-96.5 185,-66.5 0,-66.5"/>
<text text-anchor="start" x="8" y="-84.5" font-family="Helvetica,sans-Serif" font-size="10.00">nars.language.CompoundTerm.contain</text>
<text text-anchor="middle" x="92.5" y="-73.5" font-family="Helvetica,sans-Serif" font-size="10.00">Component</text>
</g>
<!-- Node393 -->
<g id="node2" class="node"><title>Node393</title>
<g id="a_node2"><a xlink:href="../../dc/ded/a00252.html#a00ffbf7a9069cfd135acae4b46d78d05" target="_top" xlink:title="Inference between a compound term and a component of it. ">
<polygon fill="none" stroke="black" points="403,-88.5 403,-118.5 582,-118.5 582,-88.5 403,-88.5"/>
<text text-anchor="start" x="411" y="-106.5" font-family="Helvetica,sans-Serif" font-size="10.00">nars.inference.RuleTables.compound</text>
<text text-anchor="middle" x="492.5" y="-95.5" font-family="Helvetica,sans-Serif" font-size="10.00">AndSelf</text>
</a>
</g>
</g>
<!-- Node392&#45;&gt;Node393 -->
<g id="edge1" class="edge"><title>Node392&#45;&gt;Node393</title>
<path fill="none" stroke="midnightblue" d="M195.441,-87.1349C259.56,-90.6792 341.482,-95.2076 402.89,-98.602"/>
<polygon fill="midnightblue" stroke="midnightblue" points="195.487,-83.6322 185.309,-86.5749 195.101,-90.6215 195.487,-83.6322"/>
</g>
<!-- Node404 -->
<g id="node13" class="node"><title>Node404</title>
<g id="a_node13"><a xlink:href="../../d6/d08/a00244.html#ae7906cfca35e9c7568ace240aba808a0" target="_top" xlink:title="{&lt;M &#45;&#45;&gt; S&gt;, &lt;C ==&gt; &lt;M &#45;&#45;&gt; P&gt;&gt;} |&#45; &lt;(&amp;&amp;, &lt;#x &#45;&#45;&gt; S&gt;, C) ==&gt; &lt;#x &#45;&#45;&gt; P&gt;&gt; {&lt;M &#45;&#45;&gt; S&gt;, (&amp;&amp;, C, &lt;M &#45;&#45;&gt; P&gt;)} |&#45; (&amp;&amp;, C, &lt;&lt;#x &#45;&#45;&gt; S&gt; ==&gt; &lt;#x &#45;&#45;&gt; P&gt;&gt;) ">
<polygon fill="none" stroke="black" points="221,-44.5 221,-74.5 364,-74.5 364,-44.5 221,-44.5"/>
<text text-anchor="start" x="229" y="-62.5" font-family="Helvetica,sans-Serif" font-size="10.00">nars.inference.Compositional</text>
<text text-anchor="middle" x="292.5" y="-51.5" font-family="Helvetica,sans-Serif" font-size="10.00">Rules.introVarInner</text>
</a>
</g>
</g>
<!-- Node392&#45;&gt;Node404 -->
<g id="edge13" class="edge"><title>Node392&#45;&gt;Node404</title>
<path fill="none" stroke="midnightblue" d="M195.344,-70.184C203.941,-69.2288 212.509,-68.2767 220.789,-67.3567"/>
<polygon fill="midnightblue" stroke="midnightblue" points="194.807,-66.722 185.255,-71.305 195.58,-73.6792 194.807,-66.722"/>
</g>
<!-- Node394 -->
<g id="node3" class="node"><title>Node394</title>
<g id="a_node3"><a xlink:href="../../dc/ded/a00252.html#a764dbc9ccccf406df45e09fbfeda928f" target="_top" xlink:title="Inference between two compound terms. ">
<polygon fill="none" stroke="black" points="621.5,-132.5 621.5,-162.5 800.5,-162.5 800.5,-132.5 621.5,-132.5"/>
<text text-anchor="start" x="629.5" y="-150.5" font-family="Helvetica,sans-Serif" font-size="10.00">nars.inference.RuleTables.compound</text>
<text text-anchor="middle" x="711" y="-139.5" font-family="Helvetica,sans-Serif" font-size="10.00">AndCompound</text>
</a>
</g>
</g>
<!-- Node393&#45;&gt;Node394 -->
<g id="edge2" class="edge"><title>Node393&#45;&gt;Node394</title>
<path fill="none" stroke="midnightblue" d="M577.403,-120.552C596.745,-124.483 617.182,-128.636 636.064,-132.474"/>
<polygon fill="midnightblue" stroke="midnightblue" points="577.898,-117.081 567.401,-118.519 576.504,-123.941 577.898,-117.081"/>
</g>
<!-- Node395 -->
<g id="node4" class="node"><title>Node395</title>
<g id="a_node4"><a xlink:href="../../dc/ded/a00252.html#ac2d01dfdc40bdd47c757cb549217e6e3" target="_top" xlink:title="Entry point of the inference engine. ">
<polygon fill="none" stroke="black" points="837,-72 837,-91 1000,-91 1000,-72 837,-72"/>
<text text-anchor="middle" x="918.5" y="-79" font-family="Helvetica,sans-Serif" font-size="10.00">nars.inference.RuleTables.reason</text>
</a>
</g>
</g>
<!-- Node393&#45;&gt;Node395 -->
<g id="edge12" class="edge"><title>Node393&#45;&gt;Node395</title>
<path fill="none" stroke="midnightblue" d="M592.438,-98.3664C666.793,-94.5084 767.378,-89.2893 836.874,-85.6834"/>
<polygon fill="midnightblue" stroke="midnightblue" points="591.931,-94.8879 582.126,-98.9015 592.294,-101.879 591.931,-94.8879"/>
</g>
<!-- Node394&#45;&gt;Node395 -->
<g id="edge3" class="edge"><title>Node394&#45;&gt;Node395</title>
<path fill="none" stroke="midnightblue" d="M768.434,-129.375C806.984,-116.994 856.534,-101.08 887.664,-91.0824"/>
<polygon fill="midnightblue" stroke="midnightblue" points="767.339,-126.051 758.888,-132.441 769.48,-132.715 767.339,-126.051"/>
</g>
<!-- Node396 -->
<g id="node5" class="node"><title>Node396</title>
<g id="a_node5"><a xlink:href="../../d7/ded/a00196.html#ad6fb91dda799c3092ecb186ef24ca92a" target="_top" xlink:title="An atomic step in a concept, only called in Memory# processConcept. ">
<polygon fill="none" stroke="black" points="1036,-66.5 1036,-96.5 1155,-96.5 1155,-66.5 1036,-66.5"/>
<text text-anchor="start" x="1044" y="-84.5" font-family="Helvetica,sans-Serif" font-size="10.00">nars.entity.Concept.fire</text>
<text text-anchor="middle" x="1095.5" y="-73.5" font-family="Helvetica,sans-Serif" font-size="10.00">FromProcessConcept</text>
</a>
</g>
</g>
<!-- Node395&#45;&gt;Node396 -->
<g id="edge4" class="edge"><title>Node395&#45;&gt;Node396</title>
<path fill="none" stroke="midnightblue" d="M1010.25,-81.5C1018.91,-81.5 1027.52,-81.5 1035.76,-81.5"/>
<polygon fill="midnightblue" stroke="midnightblue" points="1010.09,-78.0001 1000.09,-81.5 1010.08,-85.0001 1010.09,-78.0001"/>
</g>
<!-- Node397 -->
<g id="node6" class="node"><title>Node397</title>
<g id="a_node6"><a xlink:href="../../d4/d27/a00392.html#a0acc4adbf6a2462245da46bcb529746c" target="_top" xlink:title="Select a concept to fireFromProcessConcept. ">
<polygon fill="none" stroke="black" points="1191,-66.5 1191,-96.5 1337,-96.5 1337,-66.5 1191,-66.5"/>
<text text-anchor="start" x="1199" y="-84.5" font-family="Helvetica,sans-Serif" font-size="10.00">nars.storage.Memory.process</text>
<text text-anchor="middle" x="1264" y="-73.5" font-family="Helvetica,sans-Serif" font-size="10.00">Concept</text>
</a>
</g>
</g>
<!-- Node396&#45;&gt;Node397 -->
<g id="edge5" class="edge"><title>Node396&#45;&gt;Node397</title>
<path fill="none" stroke="midnightblue" d="M1165.34,-81.5C1173.75,-81.5 1182.36,-81.5 1190.82,-81.5"/>
<polygon fill="midnightblue" stroke="midnightblue" points="1165.2,-78.0001 1155.2,-81.5 1165.2,-85.0001 1165.2,-78.0001"/>
</g>
<!-- Node398 -->
<g id="node7" class="node"><title>Node398</title>
<g id="a_node7"><a xlink:href="../../d4/d27/a00392.html#a59ae339d666409988d90d29be4f73a91" target="_top" xlink:title="An atomic working workCycle of the system: process new Tasks, then fireFromProcessConcept a concept...">
<polygon fill="none" stroke="black" points="1373,-66.5 1373,-96.5 1506,-96.5 1506,-66.5 1373,-66.5"/>
<text text-anchor="start" x="1381" y="-84.5" font-family="Helvetica,sans-Serif" font-size="10.00">nars.storage.Memory.work</text>
<text text-anchor="middle" x="1439.5" y="-73.5" font-family="Helvetica,sans-Serif" font-size="10.00">Cycle</text>
</a>
</g>
</g>
<!-- Node397&#45;&gt;Node398 -->
<g id="edge6" class="edge"><title>Node397&#45;&gt;Node398</title>
<path fill="none" stroke="midnightblue" d="M1347.12,-81.5C1355.72,-81.5 1364.37,-81.5 1372.76,-81.5"/>
<polygon fill="midnightblue" stroke="midnightblue" points="1347.07,-78.0001 1337.07,-81.5 1347.07,-85.0001 1347.07,-78.0001"/>
</g>
<!-- Node399 -->
<g id="node8" class="node"><title>Node399</title>
<g id="a_node8"><a xlink:href="../../df/d15/a00416.html#a0d5c797dc17d9e8d0998852915e0f303" target="_top" xlink:title="nars.storage.ReasonerBatch.doTick">
<polygon fill="none" stroke="black" points="1542,-72 1542,-91 1715,-91 1715,-72 1542,-72"/>
<text text-anchor="middle" x="1628.5" y="-79" font-family="Helvetica,sans-Serif" font-size="10.00">nars.storage.ReasonerBatch.doTick</text>
</a>
</g>
</g>
<!-- Node398&#45;&gt;Node399 -->
<g id="edge7" class="edge"><title>Node398&#45;&gt;Node399</title>
<path fill="none" stroke="midnightblue" d="M1516.34,-81.5C1524.78,-81.5 1533.42,-81.5 1541.97,-81.5"/>
<polygon fill="midnightblue" stroke="midnightblue" points="1516.17,-78.0001 1506.17,-81.5 1516.17,-85.0001 1516.17,-78.0001"/>
</g>
<!-- Node400 -->
<g id="node9" class="node"><title>Node400</title>
<g id="a_node9"><a xlink:href="../../df/d15/a00416.html#a3468aa0f99edcd66412f27922dddb880" target="_top" xlink:title="A clock tick. ">
<polygon fill="none" stroke="black" points="1751,-72 1751,-91 1911,-91 1911,-72 1751,-72"/>
<text text-anchor="middle" x="1831" y="-79" font-family="Helvetica,sans-Serif" font-size="10.00">nars.storage.ReasonerBatch.tick</text>
</a>
</g>
</g>
<!-- Node399&#45;&gt;Node400 -->
<g id="edge8" class="edge"><title>Node399&#45;&gt;Node400</title>
<path fill="none" stroke="midnightblue" d="M1725.13,-81.5C1733.7,-81.5 1742.31,-81.5 1750.71,-81.5"/>
<polygon fill="midnightblue" stroke="midnightblue" points="1725.11,-78.0001 1715.11,-81.5 1725.11,-85.0001 1725.11,-78.0001"/>
</g>
<!-- Node401 -->
<g id="node10" class="node"><title>Node401</title>
<g id="a_node10"><a xlink:href="../../d9/da1/a00396.html#a5d9cfe517bcfbe41e5251910bcd119c1" target="_top" xlink:title="Run to completion: repeatedly execute NARS working cycle, until Inputs are Finished, or 1000 steps. ">
<polygon fill="none" stroke="black" points="1947,-72 1947,-91 2091,-91 2091,-72 1947,-72"/>
<text text-anchor="middle" x="2019" y="-79" font-family="Helvetica,sans-Serif" font-size="10.00">nars.storage.NARSBatch.run</text>
</a>
</g>
</g>
<!-- Node400&#45;&gt;Node401 -->
<g id="edge9" class="edge"><title>Node400&#45;&gt;Node401</title>
<path fill="none" stroke="midnightblue" d="M1921.22,-81.5C1929.82,-81.5 1938.47,-81.5 1946.87,-81.5"/>
<polygon fill="midnightblue" stroke="midnightblue" points="1921.15,-78.0001 1911.15,-81.5 1921.15,-85.0001 1921.15,-78.0001"/>
</g>
<!-- Node402 -->
<g id="node11" class="node"><title>Node402</title>
<g id="a_node11"><a xlink:href="../../d9/da1/a00396.html#a7c307c6b842f82664de6b0e52bdf8efc" target="_top" xlink:title="non&#45;static equivalent to main(String[]) : run to completion from an input file ">
<polygon fill="none" stroke="black" points="2127,-66.5 2127,-96.5 2271,-96.5 2271,-66.5 2127,-66.5"/>
<text text-anchor="start" x="2135" y="-84.5" font-family="Helvetica,sans-Serif" font-size="10.00">nars.storage.NARSBatch.run</text>
<text text-anchor="middle" x="2199" y="-73.5" font-family="Helvetica,sans-Serif" font-size="10.00">Inference</text>
</a>
</g>
</g>
<!-- Node401&#45;&gt;Node402 -->
<g id="edge10" class="edge"><title>Node401&#45;&gt;Node402</title>
<path fill="none" stroke="midnightblue" d="M2101.17,-81.5C2109.79,-81.5 2118.51,-81.5 2127,-81.5"/>
<polygon fill="midnightblue" stroke="midnightblue" points="2101.12,-78.0001 2091.12,-81.5 2101.12,-85.0001 2101.12,-78.0001"/>
</g>
<!-- Node403 -->
<g id="node12" class="node"><title>Node403</title>
<g id="a_node12"><a xlink:href="../../d9/da1/a00396.html#abafc597289bc2f6453b5cd0dd6634e54" target="_top" xlink:title="The entry point of the standalone application. ">
<polygon fill="none" stroke="black" points="2307,-72 2307,-91 2459,-91 2459,-72 2307,-72"/>
<text text-anchor="middle" x="2383" y="-79" font-family="Helvetica,sans-Serif" font-size="10.00">nars.storage.NARSBatch.main</text>
</a>
</g>
</g>
<!-- Node402&#45;&gt;Node403 -->
<g id="edge11" class="edge"><title>Node402&#45;&gt;Node403</title>
<path fill="none" stroke="midnightblue" d="M2281.17,-81.5C2289.76,-81.5 2298.48,-81.5 2307,-81.5"/>
<polygon fill="midnightblue" stroke="midnightblue" points="2281.15,-78.0001 2271.15,-81.5 2281.15,-85.0001 2281.15,-78.0001"/>
</g>
<!-- Node405 -->
<g id="node14" class="node"><title>Node405</title>
<g id="a_node14"><a xlink:href="../../dc/ded/a00252.html#a54a7ceba4f123db5035e3b85063c91f1" target="_top" xlink:title="Inference between a compound term and a statement. ">
<polygon fill="none" stroke="black" points="621.5,-44.5 621.5,-74.5 800.5,-74.5 800.5,-44.5 621.5,-44.5"/>
<text text-anchor="start" x="629.5" y="-62.5" font-family="Helvetica,sans-Serif" font-size="10.00">nars.inference.RuleTables.compound</text>
<text text-anchor="middle" x="711" y="-51.5" font-family="Helvetica,sans-Serif" font-size="10.00">AndStatement</text>
</a>
</g>
</g>
<!-- Node404&#45;&gt;Node405 -->
<g id="edge14" class="edge"><title>Node404&#45;&gt;Node405</title>
<path fill="none" stroke="midnightblue" d="M374.371,-59.5C445.243,-59.5 548.074,-59.5 621.207,-59.5"/>
<polygon fill="midnightblue" stroke="midnightblue" points="374.154,-56.0001 364.154,-59.5 374.154,-63.0001 374.154,-56.0001"/>
</g>
<!-- Node406 -->
<g id="node15" class="node"><title>Node406</title>
<g id="a_node15"><a xlink:href="../../dc/ded/a00252.html#af6c973743270b2739d4ad25f16975da1" target="_top" xlink:title="The detachment rule, with variable unification. ">
<polygon fill="none" stroke="black" points="400,-0.5 400,-30.5 585,-30.5 585,-0.5 400,-0.5"/>
<text text-anchor="start" x="408" y="-18.5" font-family="Helvetica,sans-Serif" font-size="10.00">nars.inference.RuleTables.detachment</text>
<text text-anchor="middle" x="492.5" y="-7.5" font-family="Helvetica,sans-Serif" font-size="10.00">WithVar</text>
</a>
</g>
</g>
<!-- Node404&#45;&gt;Node406 -->
<g id="edge16" class="edge"><title>Node404&#45;&gt;Node406</title>
<path fill="none" stroke="midnightblue" d="M371.208,-42.2316C388.608,-38.3648 406.93,-34.2934 423.882,-30.5262"/>
<polygon fill="midnightblue" stroke="midnightblue" points="370.089,-38.8947 361.087,-44.4808 371.608,-45.728 370.089,-38.8947"/>
</g>
<!-- Node405&#45;&gt;Node395 -->
<g id="edge15" class="edge"><title>Node405&#45;&gt;Node395</title>
<path fill="none" stroke="midnightblue" d="M810.863,-70.0839C819.598,-71.019 828.37,-71.9581 836.927,-72.8741"/>
<polygon fill="midnightblue" stroke="midnightblue" points="810.957,-66.5741 800.642,-68.9896 810.212,-73.5343 810.957,-66.5741"/>
</g>
<!-- Node407 -->
<g id="node16" class="node"><title>Node407</title>
<g id="a_node16"><a xlink:href="../../dc/ded/a00252.html#a8628d400a8ceda7fea05039ddfea319b" target="_top" xlink:title="Meta&#45;table of syllogistic rules, indexed by the content classes of the taskSentence and the belief...">
<polygon fill="none" stroke="black" points="621,-6 621,-25 801,-25 801,-6 621,-6"/>
<text text-anchor="middle" x="711" y="-13" font-family="Helvetica,sans-Serif" font-size="10.00">nars.inference.RuleTables.syllogisms</text>
</a>
</g>
</g>
<!-- Node406&#45;&gt;Node407 -->
<g id="edge17" class="edge"><title>Node406&#45;&gt;Node407</title>
<path fill="none" stroke="midnightblue" d="M595.084,-15.5C603.705,-15.5 612.383,-15.5 620.898,-15.5"/>
<polygon fill="midnightblue" stroke="midnightblue" points="595.002,-12.0001 585.002,-15.5 595.002,-19.0001 595.002,-12.0001"/>
</g>
<!-- Node407&#45;&gt;Node395 -->
<g id="edge18" class="edge"><title>Node407&#45;&gt;Node395</title>
<path fill="none" stroke="midnightblue" d="M773.982,-27.2858C783.108,-29.4383 792.346,-31.8524 801,-34.5 835.411,-45.0277 873.861,-61.5093 896.848,-71.8964"/>
<polygon fill="midnightblue" stroke="midnightblue" points="774.683,-23.8559 764.156,-25.0542 773.133,-30.6821 774.683,-23.8559"/>
</g>
</g>
</svg>
        <g id="navigator" transform="translate(0 0)" fill="#404254">
                <rect fill="#f2f5e9" fill-opacity="0.5" stroke="#606060" stroke-width=".5" x="0" y="0" width="60" height="60"/>
                <use id="zoomplus" xlink:href="#zoomPlus" x="17" y="9" onmousedown="handleZoom(evt,'in')"/>
                <use id="zoomminus" xlink:href="#zoomMin" x="42" y="9" onmousedown="handleZoom(evt,'out')"/>
                <use id="reset" xlink:href="#resetDef" x="30" y="36" onmousedown="handleReset()"/>
                <g id="arrowUp" xlink:href="#dirArrow" transform="translate(30 24)" onmousedown="handlePan(0,-1)">
                  <use xlink:href="#rim" fill="#404040">
                        <set attributeName="fill" to="#808080" begin="arrowUp.mouseover" end="arrowUp.mouseout"/>
                  </use>
                  <path fill="none" stroke="white" stroke-width="1.5" d="M0,-3.0v7 M-2.5,-0.5L0,-3.0L2.5,-0.5"/>
                </g>
                <g id="arrowRight" xlink:href="#dirArrow" transform="rotate(90) translate(36 -43)" onmousedown="handlePan(1,0)">
                  <use xlink:href="#rim" fill="#404040">
                        <set attributeName="fill" to="#808080" begin="arrowRight.mouseover" end="arrowRight.mouseout"/>
                  </use>
                  <path fill="none" stroke="white" stroke-width="1.5" d="M0,-3.0v7 M-2.5,-0.5L0,-3.0L2.5,-0.5"/>
                </g>
                <g id="arrowDown" xlink:href="#dirArrow" transform="rotate(180) translate(-30 -48)" onmousedown="handlePan(0,1)">
                  <use xlink:href="#rim" fill="#404040">
                        <set attributeName="fill" to="#808080" begin="arrowDown.mouseover" end="arrowDown.mouseout"/>
                  </use>
                  <path fill="none" stroke="white" stroke-width="1.5" d="M0,-3.0v7 M-2.5,-0.5L0,-3.0L2.5,-0.5"/>
                </g>
                <g id="arrowLeft" xlink:href="#dirArrow" transform="rotate(270) translate(-36 17)" onmousedown="handlePan(-1,0)">
                  <use xlink:href="#rim" fill="#404040">
                        <set attributeName="fill" to="#808080" begin="arrowLeft.mouseover" end="arrowLeft.mouseout"/>
                  </use>
                  <path fill="none" stroke="white" stroke-width="1.5" d="M0,-3.0v7 M-2.5,-0.5L0,-3.0L2.5,-0.5"/>
                </g>
        </g>
        <svg viewBox="0 0 15 15" width="100%" height="30px" preserveAspectRatio="xMaxYMin meet">
         <g id="arrow_out" transform="scale(0.3 0.3)">
          <a xlink:href="a00304_ad637ccaf9aecf41f3961d095900f2d5e_icgraph_org.svg" target="_base">
           <rect id="button" ry="5" rx="5" y="6" x="6" height="38" width="38"
                fill="#f2f5e9" fill-opacity="0.5" stroke="#606060" stroke-width="1.0"/>
           <path id="arrow"
             d="M 11.500037,31.436501 C 11.940474,20.09759 22.043105,11.32322 32.158766,21.979434 L 37.068811,17.246167 C 37.068811,17.246167 37.088388,32 37.088388,32 L 22.160133,31.978069 C 22.160133,31.978069 26.997745,27.140456 26.997745,27.140456 C 18.528582,18.264221 13.291696,25.230495 11.500037,31.436501 z"
             style="fill:#404040;"/>
          </a>
         </g>
        </svg>
</svg>
