<?xml version="1.0" encoding="UTF-8" standalone="no"?>
<!DOCTYPE svg PUBLIC "-//W3C//DTD SVG 1.1//EN"
 "http://www.w3.org/Graphics/SVG/1.1/DTD/svg11.dtd">
<!-- Generated by graphviz version 2.38.0 (20140413.2041)
 -->
<!-- Title: nars.language.CompoundTerm.makeSetName Pages: 1 -->
<svg width="385pt" height="142pt"
 viewBox="0.00 0.00 385.00 142.00" xmlns="http://www.w3.org/2000/svg" xmlns:xlink="http://www.w3.org/1999/xlink">
<g id="graph0" class="graph" transform="scale(1 1) rotate(0) translate(4 138)">
<title>nars.language.CompoundTerm.makeSetName</title>
<!-- Node696 -->
<g id="node1" class="node"><title>Node696</title>
<polygon fill="#bfbfbf" stroke="black" points="0,-52 0,-82 177,-82 177,-52 0,-52"/>
<text text-anchor="start" x="8" y="-70" font-family="Helvetica,sans-Serif" font-size="10.00">nars.language.CompoundTerm.make</text>
<text text-anchor="middle" x="88.5" y="-59" font-family="Helvetica,sans-Serif" font-size="10.00">SetName</text>
</g>
<!-- Node697 -->
<g id="node2" class="node"><title>Node697</title>
<g id="a_node2"><a xlink:href="../../d6/d9c/a00352.html#aa773636e50f9537c648c530c6298c5b6" target="_top" xlink:title="Try to make a new compound from a set of components. ">
<polygon fill="none" stroke="black" points="228,-114.5 228,-133.5 362,-133.5 362,-114.5 228,-114.5"/>
<text text-anchor="middle" x="295" y="-121.5" font-family="Helvetica,sans-Serif" font-size="10.00">nars.language.SetInt.make</text>
</a>
</g>
</g>
<!-- Node696&#45;&gt;Node697 -->
<g id="edge1" class="edge"><title>Node696&#45;&gt;Node697</title>
<path fill="none" stroke="midnightblue" d="M145.378,-85.0758C166.476,-91.6679 190.756,-98.9764 213,-105 225.269,-108.322 238.674,-111.606 250.985,-114.484"/>
<polygon fill="midnightblue" stroke="midnightblue" points="146.203,-81.6663 135.613,-82.0056 144.103,-88.344 146.203,-81.6663"/>
</g>
<!-- Node698 -->
<g id="node3" class="node"><title>Node698</title>
<g id="a_node3"><a xlink:href="../../df/d03/a00348.html#a11466efe14a5489b3b1306305451f2f5" target="_top" xlink:title="Try to make a new compound from a set of components. ">
<polygon fill="none" stroke="black" points="226.5,-76.5 226.5,-95.5 363.5,-95.5 363.5,-76.5 226.5,-76.5"/>
<text text-anchor="middle" x="295" y="-83.5" font-family="Helvetica,sans-Serif" font-size="10.00">nars.language.SetExt.make</text>
</a>
</g>
</g>
<!-- Node696&#45;&gt;Node698 -->
<g id="edge2" class="edge"><title>Node696&#45;&gt;Node698</title>
<path fill="none" stroke="midnightblue" d="M187.207,-76.0779C200.448,-77.3081 213.79,-78.5477 226.344,-79.7141"/>
<polygon fill="midnightblue" stroke="midnightblue" points="187.397,-72.5806 177.116,-75.1404 186.75,-79.5506 187.397,-72.5806"/>
</g>
<!-- Node699 -->
<g id="node4" class="node"><title>Node699</title>
<g id="a_node4"><a xlink:href="../../d6/d9c/a00352.html#ac863d43c840fb8cb2f88a6e0fd25c3c3" target="_top" xlink:title="Make a String representation of the set, override the default. ">
<polygon fill="none" stroke="black" points="215,-38.5 215,-57.5 375,-57.5 375,-38.5 215,-38.5"/>
<text text-anchor="middle" x="295" y="-45.5" font-family="Helvetica,sans-Serif" font-size="10.00">nars.language.SetInt.makeName</text>
</a>
</g>
</g>
<!-- Node696&#45;&gt;Node699 -->
<g id="edge3" class="edge"><title>Node696&#45;&gt;Node699</title>
<path fill="none" stroke="midnightblue" d="M187.186,-57.924C196.499,-57.0588 205.861,-56.1889 214.965,-55.3431"/>
<polygon fill="midnightblue" stroke="midnightblue" points="186.75,-54.4494 177.116,-58.8596 187.397,-61.4194 186.75,-54.4494"/>
</g>
<!-- Node700 -->
<g id="node5" class="node"><title>Node700</title>
<g id="a_node5"><a xlink:href="../../df/d03/a00348.html#a815e8222be4a5e3d5a22d0b1ff673793" target="_top" xlink:title="Make a String representation of the set, override the default. ">
<polygon fill="none" stroke="black" points="213,-0.5 213,-19.5 377,-19.5 377,-0.5 213,-0.5"/>
<text text-anchor="middle" x="295" y="-7.5" font-family="Helvetica,sans-Serif" font-size="10.00">nars.language.SetExt.makeName</text>
</a>
</g>
</g>
<!-- Node696&#45;&gt;Node700 -->
<g id="edge4" class="edge"><title>Node696&#45;&gt;Node700</title>
<path fill="none" stroke="midnightblue" d="M145.378,-48.9242C166.476,-42.3321 190.756,-35.0236 213,-29 225.269,-25.6776 238.674,-22.3943 250.985,-19.5157"/>
<polygon fill="midnightblue" stroke="midnightblue" points="144.103,-45.656 135.613,-51.9944 146.203,-52.3337 144.103,-45.656"/>
</g>
</g>
</svg>
