<?xml version="1.0" encoding="UTF-8" standalone="no"?>
<!DOCTYPE svg PUBLIC "-//W3C//DTD SVG 1.1//EN"
 "http://www.w3.org/Graphics/SVG/1.1/DTD/svg11.dtd">
<!-- Generated by graphviz version 2.38.0 (20140413.2041)
 -->
<!-- Title: nars.language.SetExt.clone Pages: 1 -->
<svg width="585pt" height="214pt"
 viewBox="0.00 0.00 585.00 214.00" xmlns="http://www.w3.org/2000/svg" xmlns:xlink="http://www.w3.org/1999/xlink">
<g id="graph0" class="graph" transform="scale(1 1) rotate(0) translate(4 210)">
<title>nars.language.SetExt.clone</title>
<!-- Node6 -->
<g id="node1" class="node"><title>Node6</title>
<polygon fill="#bfbfbf" stroke="black" points="0,-93.5 0,-112.5 137,-112.5 137,-93.5 0,-93.5"/>
<text text-anchor="middle" x="68.5" y="-100.5" font-family="Helvetica,sans-Serif" font-size="10.00">nars.language.SetExt.clone</text>
</g>
<!-- Node7 -->
<g id="node2" class="node"><title>Node7</title>
<g id="a_node2"><a xlink:href="../../d8/d17/a00304.html#a9cb7736a3f6b220d75366ab146488773" target="_top" xlink:title="Deep clone an array list of terms. ">
<polygon fill="none" stroke="black" points="173,-186.5 173,-205.5 365,-205.5 365,-186.5 173,-186.5"/>
<text text-anchor="middle" x="269" y="-193.5" font-family="Helvetica,sans-Serif" font-size="10.00">nars.language.CompoundTerm.cloneList</text>
</a>
</g>
</g>
<!-- Node6&#45;&gt;Node7 -->
<g id="edge1" class="edge"><title>Node6&#45;&gt;Node7</title>
<path fill="none" stroke="midnightblue" d="M79.744,-112.649C97.3442,-128.658 135.101,-160.571 173,-177 178.874,-179.546 185.101,-181.755 191.447,-183.671"/>
<polygon fill="midnightblue" stroke="midnightblue" points="190.911,-187.155 201.482,-186.447 192.777,-180.408 190.911,-187.155"/>
</g>
<!-- Node9 -->
<g id="node4" class="node"><title>Node9</title>
<g id="a_node4"><a xlink:href="../../d8/d17/a00304.html#a4f04fa1bc71ade41d35e664ff4df5475" target="_top" xlink:title="syntactic complexity of the compound, the sum of those of its components plus 1 ">
<polygon fill="none" stroke="black" points="185.5,-137 185.5,-167 352.5,-167 352.5,-137 185.5,-137"/>
<text text-anchor="start" x="193.5" y="-155" font-family="Helvetica,sans-Serif" font-size="10.00">nars.language.CompoundTerm.get</text>
<text text-anchor="middle" x="269" y="-144" font-family="Helvetica,sans-Serif" font-size="10.00">Complexity</text>
</a>
</g>
</g>
<!-- Node6&#45;&gt;Node9 -->
<g id="edge3" class="edge"><title>Node6&#45;&gt;Node9</title>
<path fill="none" stroke="midnightblue" d="M108.244,-112.564C133.485,-118.795 167.168,-127.109 197.097,-134.497"/>
<polygon fill="midnightblue" stroke="midnightblue" points="196.538,-137.964 207.085,-136.963 198.215,-131.168 196.538,-137.964"/>
</g>
<!-- Node10 -->
<g id="node5" class="node"><title>Node10</title>
<g id="a_node5"><a xlink:href="../../d8/d17/a00304.html#a9778c35f9b602bee6ccac6a06809e546" target="_top" xlink:title="list of (direct) components ">
<polygon fill="none" stroke="black" points="185.5,-88 185.5,-118 352.5,-118 352.5,-88 185.5,-88"/>
<text text-anchor="start" x="193.5" y="-106" font-family="Helvetica,sans-Serif" font-size="10.00">nars.language.CompoundTerm.get</text>
<text text-anchor="middle" x="269" y="-95" font-family="Helvetica,sans-Serif" font-size="10.00">Components</text>
</a>
</g>
</g>
<!-- Node6&#45;&gt;Node10 -->
<g id="edge4" class="edge"><title>Node6&#45;&gt;Node10</title>
<path fill="none" stroke="midnightblue" d="M137.257,-103C149.487,-103 162.428,-103 175.226,-103"/>
<polygon fill="midnightblue" stroke="midnightblue" points="175.442,-106.5 185.442,-103 175.442,-99.5001 175.442,-106.5"/>
</g>
<!-- Node11 -->
<g id="node6" class="node"><title>Node11</title>
<g id="a_node6"><a xlink:href="../../d8/d17/a00304.html#aee0ef6fd533b58caf22bee2a98eef67d" target="_top" xlink:title="Whether the term names a concept. ">
<polygon fill="none" stroke="black" points="188.5,-39 188.5,-69 349.5,-69 349.5,-39 188.5,-39"/>
<text text-anchor="start" x="196.5" y="-57" font-family="Helvetica,sans-Serif" font-size="10.00">nars.language.CompoundTerm.is</text>
<text text-anchor="middle" x="269" y="-46" font-family="Helvetica,sans-Serif" font-size="10.00">Constant</text>
</a>
</g>
</g>
<!-- Node6&#45;&gt;Node11 -->
<g id="edge5" class="edge"><title>Node6&#45;&gt;Node11</title>
<path fill="none" stroke="midnightblue" d="M108.244,-93.436C133.485,-87.2053 167.168,-78.8906 197.097,-71.5026"/>
<polygon fill="midnightblue" stroke="midnightblue" points="198.215,-74.8316 207.085,-69.037 196.538,-68.0356 198.215,-74.8316"/>
</g>
<!-- Node12 -->
<g id="node7" class="node"><title>Node12</title>
<g id="a_node7"><a xlink:href="../../df/d03/a00348.html#a1b35b984a7856625024ee52dec5fbf3d" target="_top" xlink:title="Constructor with partial values, called by make. ">
<polygon fill="none" stroke="black" points="197.5,-0.5 197.5,-19.5 340.5,-19.5 340.5,-0.5 197.5,-0.5"/>
<text text-anchor="middle" x="269" y="-7.5" font-family="Helvetica,sans-Serif" font-size="10.00">nars.language.SetExt.SetExt</text>
</a>
</g>
</g>
<!-- Node6&#45;&gt;Node12 -->
<g id="edge6" class="edge"><title>Node6&#45;&gt;Node12</title>
<path fill="none" stroke="midnightblue" d="M80.0733,-93.2749C97.8582,-77.4699 135.505,-46.336 173,-30 180.008,-26.9469 187.514,-24.3478 195.122,-22.1378"/>
<polygon fill="midnightblue" stroke="midnightblue" points="196.035,-25.5168 204.784,-19.5415 194.218,-18.7566 196.035,-25.5168"/>
</g>
<!-- Node8 -->
<g id="node3" class="node"><title>Node8</title>
<g id="a_node3"><a xlink:href="../../d8/d17/a00304.html#a963e8aef1163f4ed8c364b5e448deaff" target="_top" xlink:title="Abstract clone method. ">
<polygon fill="none" stroke="black" points="401,-186.5 401,-205.5 577,-205.5 577,-186.5 401,-186.5"/>
<text text-anchor="middle" x="489" y="-193.5" font-family="Helvetica,sans-Serif" font-size="10.00">nars.language.CompoundTerm.clone</text>
</a>
</g>
</g>
<!-- Node7&#45;&gt;Node8 -->
<g id="edge2" class="edge"><title>Node7&#45;&gt;Node8</title>
<path fill="none" stroke="midnightblue" d="M365.301,-196C373.69,-196 382.19,-196 390.597,-196"/>
<polygon fill="midnightblue" stroke="midnightblue" points="390.791,-199.5 400.791,-196 390.791,-192.5 390.791,-199.5"/>
</g>
</g>
</svg>
