<?xml version="1.0" encoding="UTF-8" standalone="no"?>
<!DOCTYPE svg PUBLIC "-//W3C//DTD SVG 1.1//EN"
 "http://www.w3.org/Graphics/SVG/1.1/DTD/svg11.dtd">
<!-- Generated by graphviz version 2.38.0 (20140413.2041)
 -->
<!-- Title: nars.language.SetExt.make Pages: 1 -->
<!--zoomable 214 -->
<svg id="main" version="1.1" xmlns="http://www.w3.org/2000/svg" xmlns:xlink="http://www.w3.org/1999/xlink" xml:space="preserve" onload="init(evt)">
<style type="text/css"><![CDATA[
.edge:hover path { stroke: red; }
.edge:hover polygon { stroke: red; fill: red; }
]]></style>
<script type="text/javascript"><![CDATA[
var edges = document.getElementsByTagName('g');
if (edges && edges.length) {
  for (var i=0;i<edges.length;i++) {
    if (edges[i].id.substr(0,4)=='edge') {
      edges[i].setAttribute('class','edge');
    }
  }
}
]]></script>
        <defs>
                <circle id="rim" cx="0" cy="0" r="7"/>
                <circle id="rim2" cx="0" cy="0" r="3.5"/>
                <g id="zoomPlus">
                        <use xlink:href="#rim" fill="#404040">
                                <set attributeName="fill" to="#808080" begin="zoomplus.mouseover" end="zoomplus.mouseout"/>
                        </use>
                        <path d="M-4,0h8M0,-4v8" fill="none" stroke="white" stroke-width="1.5" pointer-events="none"/>
                </g>
                <g id="zoomMin">
                        <use xlink:href="#rim" fill="#404040">
                                <set attributeName="fill" to="#808080" begin="zoomminus.mouseover" end="zoomminus.mouseout"/>
                        </use>
                        <path d="M-4,0h8" fill="none" stroke="white" stroke-width="1.5" pointer-events="none"/>
                </g>
                <g id="dirArrow">
                        <path fill="none" stroke="white" stroke-width="1.5" d="M0,-3.0v7 M-2.5,-0.5L0,-3.0L2.5,-0.5"/>
                </g>
               <g id="resetDef">
                       <use xlink:href="#rim2" fill="#404040">
                               <set attributeName="fill" to="#808080" begin="reset.mouseover" end="reset.mouseout"/>
                       </use>
               </g>
        </defs>

<script type="text/javascript">
var viewWidth = 583;
var viewHeight = 214;
var sectionId = 'dynsection-6';
</script>
<script xlink:href="../../svgpan.js"/>
<svg id="graph" class="graph">
<g id="viewport">
<title>nars.language.SetExt.make</title>
<!-- Node78 -->
<g id="node1" class="node"><title>Node78</title>
<polygon fill="#bfbfbf" stroke="black" points="0,-82.5 0,-101.5 137,-101.5 137,-82.5 0,-82.5"/>
<text text-anchor="middle" x="68.5" y="-89.5" font-family="Helvetica,sans-Serif" font-size="10.00">nars.language.SetExt.make</text>
</g>
<!-- Node79 -->
<g id="node2" class="node"><title>Node79</title>
<g id="a_node2"><a xlink:href="../../d8/d17/a00304.html#a9aacee8d6903ff6eb186d37f78569353" target="_top" xlink:title="build a component list from two terms ">
<polygon fill="none" stroke="black" points="173,-175 173,-205 372,-205 372,-175 173,-175"/>
<text text-anchor="start" x="181" y="-193" font-family="Helvetica,sans-Serif" font-size="10.00">nars.language.CompoundTerm.arguments</text>
<text text-anchor="middle" x="272.5" y="-182" font-family="Helvetica,sans-Serif" font-size="10.00">ToList</text>
</a>
</g>
</g>
<!-- Node78&#45;&gt;Node79 -->
<g id="edge1" class="edge"><title>Node78&#45;&gt;Node79</title>
<path fill="none" stroke="midnightblue" d="M80.1062,-101.732C97.9384,-117.572 135.652,-148.878 173,-166 177.417,-168.025 182.028,-169.893 186.738,-171.613"/>
<polygon fill="midnightblue" stroke="midnightblue" points="185.922,-175.032 196.517,-174.941 188.177,-168.406 185.922,-175.032"/>
</g>
<!-- Node80 -->
<g id="node3" class="node"><title>Node80</title>
<g id="a_node3"><a xlink:href="../../d8/d17/a00304.html#a97f8c7c396de480e7a650b0afe4829a4" target="_top" xlink:title="make the oldName of an ExtensionSet or IntensionSet ">
<polygon fill="none" stroke="black" points="184,-126 184,-156 361,-156 361,-126 184,-126"/>
<text text-anchor="start" x="192" y="-144" font-family="Helvetica,sans-Serif" font-size="10.00">nars.language.CompoundTerm.make</text>
<text text-anchor="middle" x="272.5" y="-133" font-family="Helvetica,sans-Serif" font-size="10.00">SetName</text>
</a>
</g>
</g>
<!-- Node78&#45;&gt;Node80 -->
<g id="edge2" class="edge"><title>Node78&#45;&gt;Node80</title>
<path fill="none" stroke="midnightblue" d="M108.927,-101.564C134.724,-107.822 169.188,-116.182 199.743,-123.594"/>
<polygon fill="midnightblue" stroke="midnightblue" points="198.968,-127.007 209.511,-125.963 200.618,-120.204 198.968,-127.007"/>
</g>
<!-- Node81 -->
<g id="node4" class="node"><title>Node81</title>
<g id="a_node4"><a xlink:href="../../d4/d27/a00392.html#ac7c5d438820208253d1a2ee59bf80ddc" target="_top" xlink:title="Get a Term for a given name of a Concept or Operator. ">
<polygon fill="none" stroke="black" points="204.5,-77 204.5,-107 340.5,-107 340.5,-77 204.5,-77"/>
<text text-anchor="start" x="212.5" y="-95" font-family="Helvetica,sans-Serif" font-size="10.00">nars.storage.Memory.name</text>
<text text-anchor="middle" x="272.5" y="-84" font-family="Helvetica,sans-Serif" font-size="10.00">ToListedTerm</text>
</a>
</g>
</g>
<!-- Node78&#45;&gt;Node81 -->
<g id="edge3" class="edge"><title>Node78&#45;&gt;Node81</title>
<path fill="none" stroke="midnightblue" d="M137.044,-92C155.419,-92 175.459,-92 194.323,-92"/>
<polygon fill="midnightblue" stroke="midnightblue" points="194.364,-95.5001 204.364,-92 194.364,-88.5001 194.364,-95.5001"/>
</g>
<!-- Node85 -->
<g id="node8" class="node"><title>Node85</title>
<g id="a_node8"><a xlink:href="../../df/d03/a00348.html#a1b35b984a7856625024ee52dec5fbf3d" target="_top" xlink:title="Constructor with partial values, called by make. ">
<polygon fill="none" stroke="black" points="201,-38.5 201,-57.5 344,-57.5 344,-38.5 201,-38.5"/>
<text text-anchor="middle" x="272.5" y="-45.5" font-family="Helvetica,sans-Serif" font-size="10.00">nars.language.SetExt.SetExt</text>
</a>
</g>
</g>
<!-- Node78&#45;&gt;Node85 -->
<g id="edge7" class="edge"><title>Node78&#45;&gt;Node85</title>
<path fill="none" stroke="midnightblue" d="M109.747,-82.3961C128.881,-77.8998 152.092,-72.5459 173,-68 186.044,-65.1639 200.088,-62.2369 213.37,-59.5265"/>
<polygon fill="midnightblue" stroke="midnightblue" points="214.245,-62.9204 223.349,-57.5011 212.852,-56.0602 214.245,-62.9204"/>
</g>
<!-- Node86 -->
<g id="node9" class="node"><title>Node86</title>
<g id="a_node9"><a xlink:href="../../d8/d17/a00304.html#ac81c5851f664320ddec435641f198b03" target="_top" xlink:title="get the number of components ">
<polygon fill="none" stroke="black" points="187,-0.5 187,-19.5 358,-19.5 358,-0.5 187,-0.5"/>
<text text-anchor="middle" x="272.5" y="-7.5" font-family="Helvetica,sans-Serif" font-size="10.00">nars.language.CompoundTerm.size</text>
</a>
</g>
</g>
<!-- Node78&#45;&gt;Node86 -->
<g id="edge8" class="edge"><title>Node78&#45;&gt;Node86</title>
<path fill="none" stroke="midnightblue" d="M81.8001,-82.4795C100.451,-68.5331 137.484,-42.7212 173,-29 179.947,-26.3162 187.321,-23.9988 194.787,-22.0003"/>
<polygon fill="midnightblue" stroke="midnightblue" points="195.765,-25.3636 204.625,-19.5529 194.075,-18.5707 195.765,-25.3636"/>
</g>
<!-- Node82 -->
<g id="node5" class="node"><title>Node82</title>
<g id="a_node5"><a xlink:href="../../d4/d27/a00392.html#a33af7b3d806d32c85390563fec3c6d27" target="_top" xlink:title="Concept bag. ">
<polygon fill="none" stroke="black" points="408,-120.5 408,-139.5 575,-139.5 575,-120.5 408,-120.5"/>
<text text-anchor="middle" x="491.5" y="-127.5" font-family="Helvetica,sans-Serif" font-size="10.00">nars.storage.Memory.getConcepts</text>
</a>
</g>
</g>
<!-- Node81&#45;&gt;Node82 -->
<g id="edge4" class="edge"><title>Node81&#45;&gt;Node82</title>
<path fill="none" stroke="midnightblue" d="M340.674,-103.763C367.826,-108.518 399.037,-113.983 425.921,-118.691"/>
<polygon fill="midnightblue" stroke="midnightblue" points="425.541,-122.178 435.994,-120.455 426.748,-115.283 425.541,-122.178"/>
</g>
<!-- Node83 -->
<g id="node6" class="node"><title>Node83</title>
<g id="a_node6"><a xlink:href="../../d6/db8/a00376.html#a011b37fc683db7fb7b41e33712a37d92" target="_top" xlink:title="Get an Item by key. ">
<polygon fill="none" stroke="black" points="438,-82.5 438,-101.5 545,-101.5 545,-82.5 438,-82.5"/>
<text text-anchor="middle" x="491.5" y="-89.5" font-family="Helvetica,sans-Serif" font-size="10.00">nars.storage.Bag.get</text>
</a>
</g>
</g>
<!-- Node81&#45;&gt;Node83 -->
<g id="edge5" class="edge"><title>Node81&#45;&gt;Node83</title>
<path fill="none" stroke="midnightblue" d="M340.674,-92C368.378,-92 400.308,-92 427.554,-92"/>
<polygon fill="midnightblue" stroke="midnightblue" points="427.749,-95.5001 437.749,-92 427.749,-88.5001 427.749,-95.5001"/>
</g>
<!-- Node84 -->
<g id="node7" class="node"><title>Node84</title>
<g id="a_node7"><a xlink:href="../../d7/ded/a00196.html#afcd1217b7680b073fa51f0d0f159dcea" target="_top" xlink:title="The term is the unique ID of the concept. ">
<polygon fill="none" stroke="black" points="421,-44.5 421,-63.5 562,-63.5 562,-44.5 421,-44.5"/>
<text text-anchor="middle" x="491.5" y="-51.5" font-family="Helvetica,sans-Serif" font-size="10.00">nars.entity.Concept.getTerm</text>
</a>
</g>
</g>
<!-- Node81&#45;&gt;Node84 -->
<g id="edge6" class="edge"><title>Node81&#45;&gt;Node84</title>
<path fill="none" stroke="midnightblue" d="M340.674,-80.2368C367.826,-75.4821 399.037,-70.0165 425.921,-65.3088"/>
<polygon fill="midnightblue" stroke="midnightblue" points="426.748,-68.7173 435.994,-63.5447 425.541,-61.8222 426.748,-68.7173"/>
</g>
</g>
</svg>
        <g id="navigator" transform="translate(0 0)" fill="#404254">
                <rect fill="#f2f5e9" fill-opacity="0.5" stroke="#606060" stroke-width=".5" x="0" y="0" width="60" height="60"/>
                <use id="zoomplus" xlink:href="#zoomPlus" x="17" y="9" onmousedown="handleZoom(evt,'in')"/>
                <use id="zoomminus" xlink:href="#zoomMin" x="42" y="9" onmousedown="handleZoom(evt,'out')"/>
                <use id="reset" xlink:href="#resetDef" x="30" y="36" onmousedown="handleReset()"/>
                <g id="arrowUp" xlink:href="#dirArrow" transform="translate(30 24)" onmousedown="handlePan(0,-1)">
                  <use xlink:href="#rim" fill="#404040">
                        <set attributeName="fill" to="#808080" begin="arrowUp.mouseover" end="arrowUp.mouseout"/>
                  </use>
                  <path fill="none" stroke="white" stroke-width="1.5" d="M0,-3.0v7 M-2.5,-0.5L0,-3.0L2.5,-0.5"/>
                </g>
                <g id="arrowRight" xlink:href="#dirArrow" transform="rotate(90) translate(36 -43)" onmousedown="handlePan(1,0)">
                  <use xlink:href="#rim" fill="#404040">
                        <set attributeName="fill" to="#808080" begin="arrowRight.mouseover" end="arrowRight.mouseout"/>
                  </use>
                  <path fill="none" stroke="white" stroke-width="1.5" d="M0,-3.0v7 M-2.5,-0.5L0,-3.0L2.5,-0.5"/>
                </g>
                <g id="arrowDown" xlink:href="#dirArrow" transform="rotate(180) translate(-30 -48)" onmousedown="handlePan(0,1)">
                  <use xlink:href="#rim" fill="#404040">
                        <set attributeName="fill" to="#808080" begin="arrowDown.mouseover" end="arrowDown.mouseout"/>
                  </use>
                  <path fill="none" stroke="white" stroke-width="1.5" d="M0,-3.0v7 M-2.5,-0.5L0,-3.0L2.5,-0.5"/>
                </g>
                <g id="arrowLeft" xlink:href="#dirArrow" transform="rotate(270) translate(-36 17)" onmousedown="handlePan(-1,0)">
                  <use xlink:href="#rim" fill="#404040">
                        <set attributeName="fill" to="#808080" begin="arrowLeft.mouseover" end="arrowLeft.mouseout"/>
                  </use>
                  <path fill="none" stroke="white" stroke-width="1.5" d="M0,-3.0v7 M-2.5,-0.5L0,-3.0L2.5,-0.5"/>
                </g>
        </g>
        <svg viewBox="0 0 15 15" width="100%" height="30px" preserveAspectRatio="xMaxYMin meet">
         <g id="arrow_out" transform="scale(0.3 0.3)">
          <a xlink:href="a00348_a11466efe14a5489b3b1306305451f2f5_cgraph_org.svg" target="_base">
           <rect id="button" ry="5" rx="5" y="6" x="6" height="38" width="38"
                fill="#f2f5e9" fill-opacity="0.5" stroke="#606060" stroke-width="1.0"/>
           <path id="arrow"
             d="M 11.500037,31.436501 C 11.940474,20.09759 22.043105,11.32322 32.158766,21.979434 L 37.068811,17.246167 C 37.068811,17.246167 37.088388,32 37.088388,32 L 22.160133,31.978069 C 22.160133,31.978069 26.997745,27.140456 26.997745,27.140456 C 18.528582,18.264221 13.291696,25.230495 11.500037,31.436501 z"
             style="fill:#404040;"/>
          </a>
         </g>
        </svg>
</svg>
